G75*
%MOIN*%
%OFA0B0*%
%FSLAX25Y25*%
%IPPOS*%
%LPD*%
%AMOC8*
5,1,8,0,0,1.08239X$1,22.5*
%
%ADD10R,0.05512X0.03937*%
%ADD11R,0.03937X0.05512*%
%ADD12R,0.05118X0.05906*%
%ADD13R,0.08600X0.08600*%
%ADD14C,0.08600*%
%ADD15C,0.02400*%
%ADD16C,0.01600*%
%ADD17C,0.02000*%
D10*
X0057269Y0031600D03*
X0065931Y0027860D03*
X0065931Y0035340D03*
X0065931Y0042860D03*
X0065931Y0050340D03*
X0065931Y0057860D03*
X0065931Y0065340D03*
X0065931Y0072860D03*
X0065931Y0080340D03*
X0065931Y0087860D03*
X0065931Y0095340D03*
X0057269Y0091600D03*
X0057269Y0076600D03*
X0057269Y0061600D03*
X0057269Y0046600D03*
X0074769Y0046600D03*
X0083431Y0042860D03*
X0083431Y0050340D03*
X0083431Y0057860D03*
X0083431Y0065340D03*
X0083431Y0072860D03*
X0083431Y0080340D03*
X0083431Y0087860D03*
X0083431Y0095340D03*
X0074769Y0091600D03*
X0074769Y0076600D03*
X0074769Y0061600D03*
X0083431Y0035340D03*
X0083431Y0027860D03*
X0074769Y0031600D03*
X0083431Y0107860D03*
X0083431Y0115340D03*
X0083431Y0122860D03*
X0083431Y0130340D03*
X0083431Y0137860D03*
X0083431Y0145340D03*
X0083431Y0152860D03*
X0083431Y0160340D03*
X0083431Y0167860D03*
X0083431Y0175340D03*
X0074769Y0171600D03*
X0065931Y0167860D03*
X0065931Y0175340D03*
X0057269Y0171600D03*
X0065931Y0160340D03*
X0065931Y0152860D03*
X0065931Y0145340D03*
X0065931Y0137860D03*
X0065931Y0130340D03*
X0065931Y0122860D03*
X0065931Y0115340D03*
X0065931Y0107860D03*
X0057269Y0111600D03*
X0057269Y0126600D03*
X0057269Y0141600D03*
X0057269Y0156600D03*
X0074769Y0156600D03*
X0074769Y0141600D03*
X0074769Y0126600D03*
X0074769Y0111600D03*
D11*
X0047840Y0115931D03*
X0044100Y0124769D03*
X0040360Y0133431D03*
X0047840Y0133431D03*
X0044100Y0149769D03*
X0040360Y0158431D03*
X0047840Y0158431D03*
X0044100Y0167269D03*
X0040360Y0175931D03*
X0047840Y0175931D03*
X0040360Y0115931D03*
X0044100Y0107269D03*
X0040360Y0095931D03*
X0047840Y0095931D03*
X0044100Y0087269D03*
X0040360Y0075931D03*
X0044100Y0067269D03*
X0047840Y0075931D03*
X0047840Y0055931D03*
X0044100Y0047269D03*
X0040360Y0055931D03*
X0040360Y0035931D03*
X0044100Y0027269D03*
X0047840Y0035931D03*
D12*
X0092860Y0031600D03*
X0100340Y0031600D03*
X0100340Y0046600D03*
X0092860Y0046600D03*
X0092860Y0061600D03*
X0100340Y0061600D03*
X0100340Y0076600D03*
X0092860Y0076600D03*
X0092860Y0091600D03*
X0100340Y0091600D03*
X0100340Y0111600D03*
X0092860Y0111600D03*
X0092860Y0126600D03*
X0100340Y0126600D03*
X0100340Y0141600D03*
X0092860Y0141600D03*
X0092860Y0156600D03*
X0100340Y0156600D03*
X0100340Y0171600D03*
X0092860Y0171600D03*
D13*
X0112600Y0153600D03*
D14*
X0112600Y0138600D03*
X0112600Y0123600D03*
X0112600Y0108600D03*
X0112600Y0093600D03*
X0112600Y0078600D03*
X0112600Y0063600D03*
X0112600Y0048600D03*
X0030100Y0048600D03*
X0030100Y0063600D03*
X0030100Y0078600D03*
X0030100Y0093600D03*
X0030100Y0108600D03*
X0030100Y0123600D03*
X0030100Y0138600D03*
X0030100Y0153600D03*
D15*
X0044100Y0149769D02*
X0049100Y0149769D01*
X0057269Y0141600D01*
X0061009Y0137860D01*
X0065931Y0137860D01*
X0065931Y0130340D02*
X0071029Y0130340D01*
X0074769Y0126600D01*
X0074769Y0129198D01*
X0083431Y0137860D01*
X0083431Y0130340D02*
X0089120Y0130340D01*
X0092860Y0126600D01*
X0100340Y0126600D02*
X0100340Y0111600D01*
X0092860Y0111600D02*
X0089120Y0115340D01*
X0083431Y0115340D01*
X0083431Y0107860D02*
X0078509Y0107860D01*
X0074769Y0111600D01*
X0074769Y0126600D01*
X0078509Y0122860D01*
X0083431Y0122860D01*
X0074769Y0111600D02*
X0071029Y0115340D01*
X0065931Y0115340D01*
X0057269Y0111600D02*
X0057269Y0101600D01*
X0057269Y0091600D01*
X0057269Y0076600D01*
X0065151Y0072080D02*
X0057269Y0064198D01*
X0057269Y0061600D01*
X0061009Y0057860D01*
X0065931Y0057860D01*
X0065931Y0065340D02*
X0071029Y0065340D01*
X0074769Y0061600D01*
X0078509Y0072860D02*
X0074769Y0076600D01*
X0074769Y0091600D01*
X0071029Y0095340D01*
X0065931Y0095340D01*
X0074769Y0091600D02*
X0078509Y0087860D01*
X0083431Y0087860D01*
X0083431Y0095340D02*
X0089120Y0095340D01*
X0092860Y0091600D01*
X0100340Y0091600D02*
X0100340Y0076600D01*
X0100340Y0061600D01*
X0100340Y0046600D01*
X0100340Y0031600D01*
X0092860Y0031600D02*
X0089120Y0035340D01*
X0083431Y0035340D01*
X0083431Y0042860D02*
X0078509Y0042860D01*
X0074769Y0046600D01*
X0071029Y0050340D01*
X0065931Y0050340D01*
X0065931Y0042860D02*
X0057269Y0034198D01*
X0057269Y0031600D01*
X0061009Y0027860D01*
X0065931Y0027860D01*
X0065931Y0035340D02*
X0071029Y0035340D01*
X0074769Y0031600D01*
X0083431Y0050340D02*
X0089120Y0050340D01*
X0092860Y0046600D01*
X0092860Y0061600D02*
X0089120Y0065340D01*
X0083431Y0065340D01*
X0083431Y0072860D02*
X0078509Y0072860D01*
X0074769Y0076600D02*
X0071029Y0080340D01*
X0065931Y0080340D01*
X0065931Y0072860D02*
X0065151Y0072080D01*
X0047969Y0083726D02*
X0047840Y0083598D01*
X0047840Y0075931D01*
X0047840Y0071009D01*
X0044100Y0067269D01*
X0040360Y0063529D01*
X0040360Y0055931D01*
X0047840Y0055931D02*
X0047840Y0050941D01*
X0047969Y0050812D01*
X0047969Y0046090D01*
X0048478Y0046600D01*
X0057269Y0046600D01*
X0047969Y0046090D02*
X0047969Y0043726D01*
X0047840Y0043598D01*
X0047840Y0035931D01*
X0047840Y0031009D01*
X0044100Y0027269D01*
X0047969Y0083726D02*
X0047969Y0090812D01*
X0047840Y0090941D01*
X0047840Y0095931D01*
X0044100Y0107269D02*
X0047840Y0111009D01*
X0047840Y0115931D01*
X0047840Y0121098D01*
X0047969Y0121226D01*
X0047969Y0128312D01*
X0047840Y0128441D01*
X0047840Y0133431D01*
X0057269Y0126600D02*
X0057269Y0111600D01*
X0074769Y0141600D02*
X0071029Y0145340D01*
X0065931Y0145340D01*
X0057269Y0156600D02*
X0055439Y0158431D01*
X0047840Y0158431D01*
X0047840Y0165969D01*
X0046540Y0167269D01*
X0044100Y0167269D01*
X0047840Y0165969D02*
X0047840Y0175931D01*
X0057269Y0171600D02*
X0061009Y0167860D01*
X0065931Y0167860D01*
X0065931Y0175340D02*
X0071029Y0175340D01*
X0074769Y0171600D01*
X0076600Y0166600D02*
X0074769Y0164769D01*
X0074769Y0156600D01*
X0071029Y0160340D01*
X0065931Y0160340D01*
X0074769Y0156600D02*
X0078509Y0152860D01*
X0083431Y0152860D01*
X0083431Y0160340D02*
X0089120Y0160340D01*
X0092860Y0156600D01*
X0100340Y0156600D02*
X0100340Y0141600D01*
X0100340Y0126600D01*
X0092860Y0141600D02*
X0089120Y0145340D01*
X0083431Y0145340D01*
X0082171Y0166600D02*
X0076600Y0166600D01*
X0082171Y0166600D02*
X0083431Y0167860D01*
X0083431Y0175340D02*
X0089120Y0175340D01*
X0092860Y0171600D01*
X0100340Y0171600D02*
X0100340Y0157153D01*
X0100340Y0156600D01*
X0089120Y0080340D02*
X0083431Y0080340D01*
X0089120Y0080340D02*
X0092860Y0076600D01*
D16*
X0079175Y0062750D02*
X0083431Y0058494D01*
X0083431Y0057860D01*
X0079175Y0062750D02*
X0079175Y0072194D01*
X0078509Y0072860D01*
X0065931Y0087860D02*
X0062860Y0087860D01*
X0061600Y0086600D01*
X0061600Y0075630D01*
X0065151Y0072080D01*
X0057269Y0061600D02*
X0046600Y0061600D01*
X0046600Y0061536D01*
X0044372Y0059308D01*
X0044372Y0047541D01*
X0044100Y0047269D01*
X0036600Y0041600D02*
X0040360Y0037840D01*
X0040360Y0035931D01*
X0036600Y0041600D02*
X0036600Y0066615D01*
X0041510Y0071525D01*
X0041525Y0071525D01*
X0041675Y0071675D01*
X0042950Y0071675D01*
X0043828Y0072553D01*
X0043828Y0086998D01*
X0044100Y0087269D01*
X0043828Y0091525D02*
X0041510Y0091525D01*
X0040631Y0090647D01*
X0040631Y0076202D01*
X0040360Y0075931D01*
X0043828Y0091525D02*
X0043828Y0099308D01*
X0040360Y0102776D01*
X0040360Y0115931D01*
X0044100Y0124769D02*
X0044100Y0139100D01*
X0041600Y0141600D01*
X0041600Y0142171D01*
X0036891Y0146880D01*
X0036891Y0171919D01*
X0040360Y0175387D01*
X0040360Y0175931D01*
X0040360Y0158431D02*
X0040631Y0158159D01*
X0040631Y0146392D01*
X0047840Y0139183D01*
X0047840Y0133431D01*
X0061675Y0132930D02*
X0061675Y0131675D01*
X0061600Y0131600D01*
X0061600Y0123295D01*
X0062035Y0122860D01*
X0065931Y0122860D01*
X0061600Y0123295D02*
X0061600Y0112191D01*
X0065931Y0107860D01*
X0061675Y0132930D02*
X0065931Y0137186D01*
X0065931Y0137860D01*
X0065931Y0152860D02*
X0065931Y0153494D01*
X0061675Y0157750D01*
X0061675Y0162930D01*
X0065931Y0167186D01*
X0065931Y0167860D01*
X0030100Y0108600D02*
X0036600Y0102100D01*
X0036600Y0096600D01*
X0037269Y0095931D01*
X0040360Y0095931D01*
X0030100Y0048976D02*
X0030100Y0048600D01*
X0078509Y0042860D02*
X0079175Y0042194D01*
X0079175Y0032750D01*
X0083431Y0028494D01*
X0083431Y0027860D01*
D17*
X0041600Y0021600D02*
X0030100Y0033100D01*
X0030100Y0048600D01*
X0030100Y0048976D02*
X0030100Y0063600D01*
X0032769Y0075931D02*
X0030100Y0078600D01*
X0030100Y0093600D01*
X0030100Y0108600D02*
X0030100Y0119126D01*
X0030282Y0119308D01*
X0030100Y0119126D02*
X0030100Y0123600D01*
X0030529Y0123600D01*
X0040360Y0133431D01*
X0030100Y0138600D02*
X0030100Y0153600D01*
X0031600Y0155100D01*
X0031600Y0176600D01*
X0036600Y0181600D01*
X0050744Y0181600D01*
X0057269Y0175075D01*
X0057269Y0171600D01*
X0100340Y0157153D02*
X0103893Y0153600D01*
X0112600Y0153600D01*
X0112600Y0138600D01*
X0112600Y0123600D02*
X0112600Y0108600D01*
X0105600Y0101600D01*
X0057269Y0101600D01*
X0040360Y0075931D02*
X0032769Y0075931D01*
X0057269Y0031600D02*
X0057269Y0027269D01*
X0056687Y0026687D01*
X0054748Y0026687D01*
X0049661Y0021600D01*
X0041600Y0021600D01*
X0100340Y0061600D02*
X0110600Y0061600D01*
X0112600Y0063600D01*
X0112600Y0048600D01*
M02*
