G75*
%MOIN*%
%OFA0B0*%
%FSLAX25Y25*%
%IPPOS*%
%LPD*%
%AMOC8*
5,1,8,0,0,1.08239X$1,22.5*
%
%ADD10R,0.06312X0.04737*%
%ADD11R,0.04737X0.06312*%
%ADD12R,0.05918X0.06706*%
%ADD13R,0.09400X0.09400*%
%ADD14C,0.09400*%
D10*
X0057269Y0031600D03*
X0065931Y0027860D03*
X0065931Y0035340D03*
X0065931Y0042860D03*
X0065931Y0050340D03*
X0065931Y0057860D03*
X0065931Y0065340D03*
X0065931Y0072860D03*
X0065931Y0080340D03*
X0065931Y0087860D03*
X0065931Y0095340D03*
X0057269Y0091600D03*
X0057269Y0076600D03*
X0057269Y0061600D03*
X0057269Y0046600D03*
X0074769Y0046600D03*
X0083431Y0042860D03*
X0083431Y0050340D03*
X0083431Y0057860D03*
X0083431Y0065340D03*
X0083431Y0072860D03*
X0083431Y0080340D03*
X0083431Y0087860D03*
X0083431Y0095340D03*
X0074769Y0091600D03*
X0074769Y0076600D03*
X0074769Y0061600D03*
X0083431Y0035340D03*
X0083431Y0027860D03*
X0074769Y0031600D03*
X0083431Y0107860D03*
X0083431Y0115340D03*
X0083431Y0122860D03*
X0083431Y0130340D03*
X0083431Y0137860D03*
X0083431Y0145340D03*
X0083431Y0152860D03*
X0083431Y0160340D03*
X0083431Y0167860D03*
X0083431Y0175340D03*
X0074769Y0171600D03*
X0065931Y0167860D03*
X0065931Y0175340D03*
X0057269Y0171600D03*
X0065931Y0160340D03*
X0065931Y0152860D03*
X0065931Y0145340D03*
X0065931Y0137860D03*
X0065931Y0130340D03*
X0065931Y0122860D03*
X0065931Y0115340D03*
X0065931Y0107860D03*
X0057269Y0111600D03*
X0057269Y0126600D03*
X0057269Y0141600D03*
X0057269Y0156600D03*
X0074769Y0156600D03*
X0074769Y0141600D03*
X0074769Y0126600D03*
X0074769Y0111600D03*
D11*
X0047840Y0115931D03*
X0044100Y0124769D03*
X0040360Y0133431D03*
X0047840Y0133431D03*
X0044100Y0149769D03*
X0040360Y0158431D03*
X0047840Y0158431D03*
X0044100Y0167269D03*
X0040360Y0175931D03*
X0047840Y0175931D03*
X0040360Y0115931D03*
X0044100Y0107269D03*
X0040360Y0095931D03*
X0047840Y0095931D03*
X0044100Y0087269D03*
X0040360Y0075931D03*
X0044100Y0067269D03*
X0047840Y0075931D03*
X0047840Y0055931D03*
X0044100Y0047269D03*
X0040360Y0055931D03*
X0040360Y0035931D03*
X0044100Y0027269D03*
X0047840Y0035931D03*
D12*
X0092860Y0031600D03*
X0100340Y0031600D03*
X0100340Y0046600D03*
X0092860Y0046600D03*
X0092860Y0061600D03*
X0100340Y0061600D03*
X0100340Y0076600D03*
X0092860Y0076600D03*
X0092860Y0091600D03*
X0100340Y0091600D03*
X0100340Y0111600D03*
X0092860Y0111600D03*
X0092860Y0126600D03*
X0100340Y0126600D03*
X0100340Y0141600D03*
X0092860Y0141600D03*
X0092860Y0156600D03*
X0100340Y0156600D03*
X0100340Y0171600D03*
X0092860Y0171600D03*
D13*
X0112600Y0153600D03*
D14*
X0030100Y0048600D03*
X0030100Y0063600D03*
X0030100Y0078600D03*
X0030100Y0093600D03*
X0030100Y0108600D03*
X0030100Y0123600D03*
X0030100Y0138600D03*
X0030100Y0153600D03*
X0112600Y0138600D03*
X0112600Y0123600D03*
X0112600Y0108600D03*
X0112600Y0093600D03*
X0112600Y0078600D03*
X0112600Y0063600D03*
X0112600Y0048600D03*
M02*
