G75*
%MOIN*%
%OFA0B0*%
%FSLAX25Y25*%
%IPPOS*%
%LPD*%
%AMOC8*
5,1,8,0,0,1.08239X$1,22.5*
%
%ADD10C,0.06000*%
%ADD11C,0.15000*%
%ADD12OC8,0.15000*%
%ADD13C,0.06600*%
%ADD14C,0.05600*%
%ADD15OC8,0.12000*%
%ADD16C,0.24000*%
%ADD17C,0.06000*%
%ADD18C,0.10000*%
%ADD19C,0.02400*%
%ADD20C,0.02200*%
%ADD21C,0.04356*%
%ADD22C,0.03200*%
%ADD23C,0.06600*%
%ADD24C,0.05000*%
%ADD25C,0.04000*%
D10*
X0163500Y0029600D03*
X0163500Y0044600D03*
X0203500Y0044600D03*
X0203500Y0029600D03*
X0238500Y0064600D03*
X0268500Y0064600D03*
X0283500Y0064600D03*
X0293500Y0052100D03*
X0303500Y0052100D03*
X0313500Y0052100D03*
X0323500Y0039600D03*
X0333500Y0039600D03*
X0333500Y0024600D03*
X0323500Y0024600D03*
X0283500Y0024600D03*
X0283500Y0039600D03*
X0323500Y0064600D03*
X0333500Y0074600D03*
X0313500Y0079600D03*
X0283500Y0079600D03*
X0283500Y0094600D03*
X0266000Y0104600D03*
X0256000Y0104600D03*
X0246000Y0104600D03*
X0203500Y0109600D03*
X0203500Y0124600D03*
X0203500Y0139600D03*
X0193500Y0149600D03*
X0163500Y0149600D03*
X0163500Y0139600D03*
X0163500Y0124600D03*
X0163500Y0109600D03*
X0163500Y0097100D03*
X0193500Y0097100D03*
X0283500Y0134600D03*
X0283500Y0149600D03*
X0266000Y0149600D03*
X0256000Y0149600D03*
X0246000Y0149600D03*
X0323500Y0149600D03*
X0333500Y0144600D03*
X0323500Y0134600D03*
X0343500Y0127100D03*
X0353500Y0127100D03*
X0363500Y0127100D03*
X0383500Y0134600D03*
X0373500Y0144600D03*
X0383500Y0149600D03*
X0423500Y0149600D03*
X0438500Y0149600D03*
X0448500Y0149600D03*
X0458500Y0149600D03*
X0423500Y0134600D03*
X0373500Y0109600D03*
X0383500Y0094600D03*
X0363500Y0092100D03*
X0353500Y0092100D03*
X0343500Y0092100D03*
X0323500Y0094600D03*
X0333500Y0109600D03*
X0393500Y0079600D03*
X0373500Y0074600D03*
X0383500Y0064600D03*
X0363500Y0057100D03*
X0353500Y0057100D03*
X0343500Y0057100D03*
X0373500Y0039600D03*
X0383500Y0039600D03*
X0383500Y0024600D03*
X0373500Y0024600D03*
X0423500Y0024600D03*
X0423500Y0039600D03*
X0423500Y0064600D03*
X0436000Y0064600D03*
X0423500Y0079600D03*
X0423500Y0094600D03*
X0438500Y0102100D03*
X0448500Y0102100D03*
X0458500Y0102100D03*
X0506000Y0109600D03*
X0506000Y0124600D03*
X0506000Y0139600D03*
X0516000Y0149600D03*
X0546000Y0149600D03*
X0546000Y0139600D03*
X0546000Y0124600D03*
X0546000Y0109600D03*
X0546000Y0097100D03*
X0516000Y0097100D03*
X0466000Y0064600D03*
X0506000Y0044600D03*
X0506000Y0029600D03*
X0546000Y0029600D03*
X0546000Y0044600D03*
X0613500Y0084600D03*
X0643500Y0084600D03*
X0663500Y0074600D03*
X0663500Y0114600D03*
X0638500Y0199600D03*
X0638500Y0214600D03*
X0598500Y0214600D03*
X0598500Y0199600D03*
X0468500Y0214600D03*
X0428500Y0214600D03*
X0408500Y0192100D03*
X0378500Y0192100D03*
X0378500Y0172100D03*
X0408500Y0172100D03*
X0278500Y0214600D03*
X0238500Y0214600D03*
X0108500Y0214600D03*
X0108500Y0199600D03*
X0068500Y0199600D03*
X0068500Y0214600D03*
X0043500Y0117100D03*
X0053500Y0089600D03*
X0043500Y0077100D03*
X0083500Y0089600D03*
D11*
X0133500Y0062100D03*
X0053402Y0037017D03*
X0053402Y0017017D03*
X0123500Y0127100D03*
X0073500Y0152100D03*
X0588500Y0107100D03*
X0598500Y0062100D03*
X0653598Y0037183D03*
X0653598Y0017183D03*
X0663500Y0152100D03*
D12*
X0643500Y0152100D03*
X0633500Y0152100D03*
X0588500Y0127100D03*
X0578500Y0062100D03*
X0123500Y0107100D03*
X0113500Y0062100D03*
X0063500Y0152100D03*
X0043500Y0152100D03*
D13*
X0113500Y0159600D03*
X0133500Y0159600D03*
X0028500Y0102100D03*
X0018500Y0102100D03*
X0113500Y0022100D03*
X0133500Y0022100D03*
X0293500Y0114600D03*
X0313500Y0114600D03*
X0393500Y0114600D03*
X0413500Y0114600D03*
X0318500Y0172100D03*
X0318500Y0192100D03*
X0573500Y0159600D03*
X0593500Y0159600D03*
X0678500Y0102100D03*
X0688500Y0102100D03*
X0598500Y0022100D03*
X0578500Y0022100D03*
D14*
X0546000Y0059600D03*
X0526000Y0059600D03*
X0516000Y0059600D03*
X0521000Y0067100D03*
X0516000Y0079600D03*
X0526000Y0079600D03*
X0521000Y0087100D03*
X0546000Y0079600D03*
X0473500Y0084600D03*
X0453500Y0084600D03*
X0443500Y0084600D03*
X0448500Y0092100D03*
X0448500Y0117100D03*
X0438500Y0117100D03*
X0458500Y0117100D03*
X0468500Y0117100D03*
X0478500Y0117100D03*
X0488500Y0117100D03*
X0488500Y0134600D03*
X0478500Y0134600D03*
X0468500Y0134600D03*
X0458500Y0134600D03*
X0448500Y0134600D03*
X0438500Y0134600D03*
X0378500Y0162100D03*
X0368500Y0162100D03*
X0358500Y0162100D03*
X0351000Y0162100D03*
X0341000Y0162100D03*
X0331000Y0162100D03*
X0303500Y0162100D03*
X0283500Y0162100D03*
X0278500Y0169600D03*
X0273500Y0162100D03*
X0268500Y0137100D03*
X0258500Y0137100D03*
X0248500Y0137100D03*
X0238500Y0137100D03*
X0228500Y0137100D03*
X0218500Y0137100D03*
X0218500Y0119600D03*
X0228500Y0119600D03*
X0238500Y0119600D03*
X0248500Y0119600D03*
X0258500Y0119600D03*
X0268500Y0119600D03*
X0203500Y0079600D03*
X0183500Y0079600D03*
X0178500Y0087100D03*
X0173500Y0079600D03*
X0178500Y0067100D03*
X0173500Y0059600D03*
X0183500Y0059600D03*
X0203500Y0059600D03*
X0221000Y0044600D03*
X0231000Y0044600D03*
X0241000Y0044600D03*
X0248500Y0044600D03*
X0258500Y0044600D03*
X0268500Y0044600D03*
X0268500Y0027100D03*
X0258500Y0027100D03*
X0248500Y0027100D03*
X0241000Y0027100D03*
X0231000Y0027100D03*
X0221000Y0027100D03*
X0093500Y0072100D03*
X0073500Y0072100D03*
X0063500Y0072100D03*
X0068500Y0079600D03*
X0068500Y0102100D03*
X0058500Y0102100D03*
X0078500Y0102100D03*
X0096000Y0182100D03*
X0106000Y0182100D03*
X0116000Y0182100D03*
X0438500Y0044600D03*
X0448500Y0044600D03*
X0458500Y0044600D03*
X0468500Y0044600D03*
X0478500Y0044600D03*
X0488500Y0044600D03*
X0488500Y0027100D03*
X0478500Y0027100D03*
X0468500Y0027100D03*
X0458500Y0027100D03*
X0448500Y0027100D03*
X0438500Y0027100D03*
X0618500Y0102100D03*
X0628500Y0102100D03*
X0638500Y0102100D03*
X0628500Y0074600D03*
X0623500Y0067100D03*
X0633500Y0067100D03*
X0653500Y0067100D03*
X0611000Y0182100D03*
X0601000Y0182100D03*
X0591000Y0182100D03*
D15*
X0353500Y0182100D03*
X0353500Y0227100D03*
X0353500Y0252100D03*
X0353500Y0277100D03*
D16*
X0308500Y0250600D03*
X0398500Y0250600D03*
X0498500Y0250600D03*
X0568500Y0250600D03*
X0668500Y0250600D03*
X0208500Y0250600D03*
X0138500Y0250600D03*
X0038500Y0250600D03*
D17*
X0078500Y0240100D02*
X0078500Y0234100D01*
X0088500Y0234100D02*
X0088500Y0240100D01*
X0098500Y0240100D02*
X0098500Y0234100D01*
X0248500Y0234100D02*
X0248500Y0240100D01*
X0258500Y0240100D02*
X0258500Y0234100D01*
X0268500Y0234100D02*
X0268500Y0240100D01*
X0438500Y0240100D02*
X0438500Y0234100D01*
X0448500Y0234100D02*
X0448500Y0240100D01*
X0458500Y0240100D02*
X0458500Y0234100D01*
X0608500Y0234100D02*
X0608500Y0240100D01*
X0618500Y0240100D02*
X0618500Y0234100D01*
X0628500Y0234100D02*
X0628500Y0240100D01*
D18*
X0513500Y0182100D03*
X0443500Y0182100D03*
X0263500Y0182100D03*
X0193500Y0182100D03*
D19*
X0278500Y0179600D02*
X0291000Y0167100D01*
X0291000Y0157100D01*
X0283500Y0149600D01*
X0296000Y0144600D02*
X0296000Y0169600D01*
X0308500Y0182100D01*
X0353500Y0182100D01*
X0323500Y0139600D02*
X0303500Y0159600D01*
X0303500Y0162100D01*
X0296000Y0144600D02*
X0321000Y0119600D01*
X0336000Y0119600D01*
X0348500Y0107100D01*
X0348500Y0097100D01*
X0283500Y0084600D02*
X0276000Y0092100D01*
X0276000Y0107100D01*
X0271000Y0112100D01*
X0261000Y0112100D01*
X0258500Y0114600D01*
X0258500Y0119600D01*
X0228500Y0119600D02*
X0228500Y0117100D01*
X0218500Y0107100D01*
X0218500Y0047100D01*
X0221000Y0044600D01*
X0211000Y0037100D02*
X0221000Y0027100D01*
X0211000Y0037100D02*
X0211000Y0122100D01*
X0216000Y0127100D01*
X0223500Y0127100D01*
X0228500Y0132100D01*
X0228500Y0137100D01*
X0323500Y0139600D02*
X0448500Y0139600D01*
X0473500Y0139600D01*
X0483500Y0149600D01*
X0516000Y0149600D01*
X0483500Y0127100D02*
X0478500Y0132100D01*
X0478500Y0134600D01*
X0483500Y0127100D02*
X0493500Y0127100D01*
X0498500Y0122100D01*
X0498500Y0037100D01*
X0488500Y0027100D01*
X0488500Y0044600D02*
X0488500Y0107100D01*
X0478500Y0117100D01*
X0448500Y0134600D02*
X0448500Y0139600D01*
X0423500Y0149600D02*
X0468500Y0194600D01*
X0468500Y0214600D01*
X0633500Y0152100D02*
X0643500Y0152100D01*
X0643500Y0114600D01*
X0663500Y0114600D01*
X0643500Y0114600D02*
X0643500Y0102100D01*
X0638500Y0102100D01*
X0643500Y0102100D02*
X0643500Y0084600D01*
X0448500Y0052100D02*
X0448500Y0044600D01*
X0448500Y0052100D02*
X0443500Y0057100D01*
X0391000Y0057100D01*
X0383500Y0064600D01*
X0443500Y0084600D02*
X0283500Y0084600D01*
X0278500Y0052100D02*
X0263500Y0052100D01*
X0258500Y0047100D01*
X0258500Y0044600D01*
X0278500Y0052100D02*
X0283500Y0047100D01*
X0298500Y0047100D01*
X0303500Y0052100D01*
X0333500Y0024600D02*
X0333500Y0012100D01*
X0443500Y0012100D01*
X0448500Y0017100D01*
X0448500Y0027100D01*
X0333500Y0012100D02*
X0263500Y0012100D01*
X0258500Y0017100D01*
X0258500Y0027100D01*
X0058500Y0102100D02*
X0058500Y0117100D01*
X0043500Y0117100D01*
X0058500Y0117100D02*
X0058500Y0147100D01*
X0063500Y0152100D01*
X0278500Y0179600D02*
X0278500Y0214600D01*
D20*
X0030499Y0012978D02*
X0028675Y0011925D01*
X0033400Y0007200D01*
X0051023Y0007200D01*
X0050601Y0007296D01*
X0049530Y0007671D01*
X0048508Y0008163D01*
X0047548Y0008767D01*
X0046661Y0009474D01*
X0045859Y0010276D01*
X0045151Y0011163D01*
X0044548Y0012124D01*
X0044056Y0013146D01*
X0043681Y0014216D01*
X0043429Y0015322D01*
X0043336Y0016148D01*
X0052533Y0016148D01*
X0052533Y0017885D01*
X0043336Y0017885D01*
X0043429Y0018711D01*
X0043681Y0019817D01*
X0044056Y0020888D01*
X0044548Y0021910D01*
X0045151Y0022871D01*
X0045859Y0023758D01*
X0046661Y0024560D01*
X0047548Y0025267D01*
X0048508Y0025871D01*
X0049530Y0026363D01*
X0050601Y0026737D01*
X0051707Y0026990D01*
X0052533Y0027083D01*
X0052533Y0017886D01*
X0054270Y0017886D01*
X0054270Y0027083D01*
X0055096Y0026990D01*
X0056202Y0026737D01*
X0057273Y0026363D01*
X0058295Y0025871D01*
X0059255Y0025267D01*
X0060142Y0024560D01*
X0060944Y0023758D01*
X0061652Y0022871D01*
X0062255Y0021910D01*
X0062747Y0020888D01*
X0063122Y0019817D01*
X0063375Y0018711D01*
X0063468Y0017885D01*
X0054270Y0017885D01*
X0054270Y0016148D01*
X0063468Y0016148D01*
X0063375Y0015322D01*
X0063122Y0014216D01*
X0062747Y0013146D01*
X0062255Y0012124D01*
X0061652Y0011163D01*
X0060944Y0010276D01*
X0060142Y0009474D01*
X0059255Y0008767D01*
X0058295Y0008163D01*
X0057273Y0007671D01*
X0056202Y0007296D01*
X0055780Y0007200D01*
X0673600Y0007200D01*
X0678325Y0011925D01*
X0676501Y0012978D01*
X0674378Y0015101D01*
X0672878Y0017700D01*
X0672101Y0020599D01*
X0672101Y0023601D01*
X0672878Y0026500D01*
X0674378Y0029099D01*
X0676501Y0031222D01*
X0679100Y0032722D01*
X0681999Y0033499D01*
X0685001Y0033499D01*
X0687900Y0032722D01*
X0690499Y0031222D01*
X0692622Y0029099D01*
X0693675Y0027275D01*
X0698400Y0032000D01*
X0698400Y0172200D01*
X0693675Y0176925D01*
X0692622Y0175101D01*
X0690499Y0172978D01*
X0687900Y0171478D01*
X0685001Y0170701D01*
X0681999Y0170701D01*
X0679100Y0171478D01*
X0676501Y0172978D01*
X0674378Y0175101D01*
X0672878Y0177700D01*
X0672101Y0180599D01*
X0672101Y0183601D01*
X0672878Y0186500D01*
X0674378Y0189099D01*
X0676501Y0191222D01*
X0678325Y0192275D01*
X0673500Y0197100D01*
X0651200Y0197100D01*
X0651200Y0191066D01*
X0650408Y0189154D01*
X0648946Y0187692D01*
X0648946Y0187692D01*
X0628035Y0166781D01*
X0632436Y0161500D01*
X0637394Y0161500D01*
X0638500Y0160394D01*
X0639606Y0161500D01*
X0647394Y0161500D01*
X0652900Y0155994D01*
X0652900Y0148206D01*
X0647394Y0142700D01*
X0646600Y0142700D01*
X0646600Y0117700D01*
X0659670Y0117700D01*
X0660724Y0118754D01*
X0662525Y0119500D01*
X0664475Y0119500D01*
X0666276Y0118754D01*
X0667654Y0117376D01*
X0668400Y0115575D01*
X0668400Y0113625D01*
X0667654Y0111824D01*
X0666276Y0110446D01*
X0664475Y0109700D01*
X0662525Y0109700D01*
X0660724Y0110446D01*
X0659670Y0111500D01*
X0646600Y0111500D01*
X0646600Y0088430D01*
X0647654Y0087376D01*
X0648400Y0085575D01*
X0648400Y0083625D01*
X0647654Y0081824D01*
X0646276Y0080446D01*
X0644475Y0079700D01*
X0642525Y0079700D01*
X0640724Y0080446D01*
X0639346Y0081824D01*
X0638600Y0083625D01*
X0638600Y0085575D01*
X0639346Y0087376D01*
X0640400Y0088430D01*
X0640400Y0097800D01*
X0639435Y0097400D01*
X0637565Y0097400D01*
X0635838Y0098116D01*
X0634516Y0099438D01*
X0633800Y0101165D01*
X0633800Y0103035D01*
X0634516Y0104762D01*
X0635838Y0106084D01*
X0637565Y0106800D01*
X0639435Y0106800D01*
X0640400Y0106400D01*
X0640400Y0142700D01*
X0639606Y0142700D01*
X0638500Y0143806D01*
X0637394Y0142700D01*
X0629606Y0142700D01*
X0624100Y0148206D01*
X0624100Y0155257D01*
X0620651Y0159397D01*
X0617908Y0156654D01*
X0616446Y0155192D01*
X0614534Y0154400D01*
X0592466Y0154400D01*
X0590554Y0155192D01*
X0589092Y0156654D01*
X0588300Y0158566D01*
X0588300Y0160634D01*
X0589092Y0162546D01*
X0590554Y0164008D01*
X0592466Y0164800D01*
X0611346Y0164800D01*
X0616763Y0170217D01*
X0616876Y0170433D01*
X0617490Y0170944D01*
X0618054Y0171508D01*
X0640800Y0194254D01*
X0640800Y0195249D01*
X0639475Y0194700D01*
X0637525Y0194700D01*
X0635724Y0195446D01*
X0634346Y0196824D01*
X0634232Y0197100D01*
X0602768Y0197100D01*
X0602654Y0196824D01*
X0601276Y0195446D01*
X0599475Y0194700D01*
X0597525Y0194700D01*
X0595724Y0195446D01*
X0594346Y0196824D01*
X0594232Y0197100D01*
X0481200Y0197100D01*
X0481200Y0196754D01*
X0490654Y0187300D01*
X0508942Y0187300D01*
X0509591Y0187950D01*
X0512127Y0189000D01*
X0514872Y0189000D01*
X0517409Y0187950D01*
X0519350Y0186009D01*
X0520400Y0183472D01*
X0520400Y0180727D01*
X0519350Y0178191D01*
X0517409Y0176250D01*
X0514872Y0175200D01*
X0512127Y0175200D01*
X0509591Y0176250D01*
X0508942Y0176900D01*
X0487466Y0176900D01*
X0485554Y0177692D01*
X0473054Y0190192D01*
X0471592Y0191654D01*
X0471107Y0192823D01*
X0428400Y0150116D01*
X0428400Y0148625D01*
X0427654Y0146824D01*
X0426276Y0145446D01*
X0424475Y0144700D01*
X0422525Y0144700D01*
X0420724Y0145446D01*
X0419346Y0146824D01*
X0418600Y0148625D01*
X0418600Y0150575D01*
X0419346Y0152376D01*
X0420724Y0153754D01*
X0422525Y0154500D01*
X0424016Y0154500D01*
X0444716Y0175200D01*
X0442127Y0175200D01*
X0439591Y0176250D01*
X0437650Y0178191D01*
X0436600Y0180727D01*
X0436600Y0183472D01*
X0437650Y0186009D01*
X0439591Y0187950D01*
X0442127Y0189000D01*
X0444872Y0189000D01*
X0447409Y0187950D01*
X0449350Y0186009D01*
X0450400Y0183472D01*
X0450400Y0180884D01*
X0465400Y0195884D01*
X0465400Y0197100D01*
X0320017Y0197100D01*
X0321446Y0196508D01*
X0322908Y0195046D01*
X0323700Y0193134D01*
X0323700Y0191066D01*
X0322908Y0189154D01*
X0321446Y0187692D01*
X0319534Y0186900D01*
X0317466Y0186900D01*
X0315554Y0187692D01*
X0314092Y0189154D01*
X0313300Y0191066D01*
X0313300Y0193134D01*
X0314092Y0195046D01*
X0315554Y0196508D01*
X0316983Y0197100D01*
X0281600Y0197100D01*
X0281600Y0180884D01*
X0292756Y0169728D01*
X0292900Y0169584D01*
X0292900Y0170217D01*
X0293372Y0171356D01*
X0294244Y0172228D01*
X0294244Y0172228D01*
X0305872Y0183856D01*
X0305872Y0183856D01*
X0306744Y0184728D01*
X0307883Y0185200D01*
X0345600Y0185200D01*
X0345600Y0185372D01*
X0350228Y0190000D01*
X0356772Y0190000D01*
X0361400Y0185372D01*
X0361400Y0178828D01*
X0356772Y0174200D01*
X0350228Y0174200D01*
X0345600Y0178828D01*
X0345600Y0179000D01*
X0309784Y0179000D01*
X0299100Y0168316D01*
X0299100Y0163759D01*
X0299516Y0164762D01*
X0300838Y0166084D01*
X0302565Y0166800D01*
X0304435Y0166800D01*
X0306162Y0166084D01*
X0307484Y0164762D01*
X0308200Y0163035D01*
X0308200Y0161165D01*
X0307649Y0159835D01*
X0318600Y0148884D01*
X0318600Y0150575D01*
X0319346Y0152376D01*
X0320724Y0153754D01*
X0322525Y0154500D01*
X0324475Y0154500D01*
X0326276Y0153754D01*
X0327654Y0152376D01*
X0328400Y0150575D01*
X0328400Y0148625D01*
X0327654Y0146824D01*
X0326276Y0145446D01*
X0324475Y0144700D01*
X0322784Y0144700D01*
X0324784Y0142700D01*
X0328983Y0142700D01*
X0328600Y0143625D01*
X0328600Y0145575D01*
X0329346Y0147376D01*
X0330724Y0148754D01*
X0332525Y0149500D01*
X0334475Y0149500D01*
X0336276Y0148754D01*
X0337654Y0147376D01*
X0338400Y0145575D01*
X0338400Y0143625D01*
X0338017Y0142700D01*
X0368983Y0142700D01*
X0368600Y0143625D01*
X0368600Y0145575D01*
X0369346Y0147376D01*
X0370724Y0148754D01*
X0372525Y0149500D01*
X0374475Y0149500D01*
X0376276Y0148754D01*
X0377654Y0147376D01*
X0378400Y0145575D01*
X0378400Y0143625D01*
X0378017Y0142700D01*
X0472216Y0142700D01*
X0480872Y0151356D01*
X0481744Y0152228D01*
X0482883Y0152700D01*
X0512170Y0152700D01*
X0513224Y0153754D01*
X0515025Y0154500D01*
X0516975Y0154500D01*
X0518776Y0153754D01*
X0520154Y0152376D01*
X0520900Y0150575D01*
X0520900Y0148625D01*
X0520154Y0146824D01*
X0518776Y0145446D01*
X0516975Y0144700D01*
X0515025Y0144700D01*
X0513224Y0145446D01*
X0512170Y0146500D01*
X0484784Y0146500D01*
X0477584Y0139300D01*
X0479435Y0139300D01*
X0481162Y0138584D01*
X0482484Y0137262D01*
X0483200Y0135535D01*
X0483200Y0133665D01*
X0482649Y0132335D01*
X0484784Y0130200D01*
X0486841Y0130200D01*
X0485838Y0130616D01*
X0484516Y0131938D01*
X0483800Y0133665D01*
X0483800Y0135535D01*
X0484516Y0137262D01*
X0485838Y0138584D01*
X0487565Y0139300D01*
X0489435Y0139300D01*
X0491162Y0138584D01*
X0492484Y0137262D01*
X0493200Y0135535D01*
X0493200Y0133665D01*
X0492484Y0131938D01*
X0491162Y0130616D01*
X0490159Y0130200D01*
X0494117Y0130200D01*
X0495256Y0129728D01*
X0500256Y0124728D01*
X0501100Y0123884D01*
X0501100Y0125575D01*
X0501846Y0127376D01*
X0503224Y0128754D01*
X0505025Y0129500D01*
X0506975Y0129500D01*
X0508776Y0128754D01*
X0510154Y0127376D01*
X0510900Y0125575D01*
X0510900Y0123625D01*
X0510154Y0121824D01*
X0508776Y0120446D01*
X0506975Y0119700D01*
X0505025Y0119700D01*
X0503224Y0120446D01*
X0501846Y0121824D01*
X0501600Y0122418D01*
X0501600Y0111782D01*
X0501846Y0112376D01*
X0503224Y0113754D01*
X0505025Y0114500D01*
X0506975Y0114500D01*
X0508776Y0113754D01*
X0510154Y0112376D01*
X0510900Y0110575D01*
X0510900Y0108625D01*
X0510154Y0106824D01*
X0508776Y0105446D01*
X0506975Y0104700D01*
X0505025Y0104700D01*
X0503224Y0105446D01*
X0501846Y0106824D01*
X0501600Y0107418D01*
X0501600Y0046782D01*
X0501846Y0047376D01*
X0503224Y0048754D01*
X0505025Y0049500D01*
X0506975Y0049500D01*
X0508776Y0048754D01*
X0510154Y0047376D01*
X0510900Y0045575D01*
X0510900Y0043625D01*
X0510154Y0041824D01*
X0508776Y0040446D01*
X0506975Y0039700D01*
X0505025Y0039700D01*
X0503224Y0040446D01*
X0501846Y0041824D01*
X0501600Y0042418D01*
X0501600Y0036483D01*
X0501128Y0035344D01*
X0500256Y0034472D01*
X0500256Y0034472D01*
X0493200Y0027416D01*
X0493200Y0026165D01*
X0492484Y0024438D01*
X0491162Y0023116D01*
X0489435Y0022400D01*
X0487565Y0022400D01*
X0485838Y0023116D01*
X0484516Y0024438D01*
X0483800Y0026165D01*
X0483800Y0028035D01*
X0484516Y0029762D01*
X0485838Y0031084D01*
X0487565Y0031800D01*
X0488816Y0031800D01*
X0495400Y0038384D01*
X0495400Y0120816D01*
X0492216Y0124000D01*
X0482883Y0124000D01*
X0481744Y0124472D01*
X0480872Y0125344D01*
X0475872Y0130344D01*
X0475704Y0130749D01*
X0474516Y0131938D01*
X0473800Y0133665D01*
X0473800Y0135535D01*
X0474217Y0136542D01*
X0474117Y0136500D01*
X0472800Y0136500D01*
X0473200Y0135535D01*
X0473200Y0133665D01*
X0472484Y0131938D01*
X0471162Y0130616D01*
X0469435Y0129900D01*
X0467565Y0129900D01*
X0465838Y0130616D01*
X0464516Y0131938D01*
X0463800Y0133665D01*
X0463800Y0135535D01*
X0464200Y0136500D01*
X0462800Y0136500D01*
X0463200Y0135535D01*
X0463200Y0133665D01*
X0462484Y0131938D01*
X0461162Y0130616D01*
X0459435Y0129900D01*
X0457565Y0129900D01*
X0455838Y0130616D01*
X0454516Y0131938D01*
X0453800Y0133665D01*
X0453800Y0135535D01*
X0454200Y0136500D01*
X0452800Y0136500D01*
X0453200Y0135535D01*
X0453200Y0133665D01*
X0452484Y0131938D01*
X0451162Y0130616D01*
X0449435Y0129900D01*
X0447565Y0129900D01*
X0445838Y0130616D01*
X0444516Y0131938D01*
X0443800Y0133665D01*
X0443800Y0135535D01*
X0444200Y0136500D01*
X0442800Y0136500D01*
X0443200Y0135535D01*
X0443200Y0133665D01*
X0442484Y0131938D01*
X0441162Y0130616D01*
X0439435Y0129900D01*
X0437565Y0129900D01*
X0435838Y0130616D01*
X0434516Y0131938D01*
X0433800Y0133665D01*
X0433800Y0135535D01*
X0434200Y0136500D01*
X0428017Y0136500D01*
X0428400Y0135575D01*
X0428400Y0133625D01*
X0427654Y0131824D01*
X0426276Y0130446D01*
X0424475Y0129700D01*
X0422525Y0129700D01*
X0420724Y0130446D01*
X0419346Y0131824D01*
X0418600Y0133625D01*
X0418600Y0135575D01*
X0418983Y0136500D01*
X0388771Y0136500D01*
X0388962Y0135911D01*
X0389100Y0135041D01*
X0389100Y0134600D01*
X0383500Y0134600D01*
X0383500Y0134600D01*
X0389100Y0134600D01*
X0389100Y0134159D01*
X0388962Y0133289D01*
X0388690Y0132450D01*
X0388290Y0131665D01*
X0387771Y0130952D01*
X0387148Y0130329D01*
X0386435Y0129810D01*
X0385650Y0129410D01*
X0384811Y0129138D01*
X0383941Y0129000D01*
X0383500Y0129000D01*
X0383500Y0134600D01*
X0383500Y0134600D01*
X0383500Y0134600D01*
X0377900Y0134600D01*
X0377900Y0135041D01*
X0378038Y0135911D01*
X0378229Y0136500D01*
X0328771Y0136500D01*
X0328962Y0135911D01*
X0329100Y0135041D01*
X0329100Y0134600D01*
X0323500Y0134600D01*
X0323500Y0134600D01*
X0329100Y0134600D01*
X0329100Y0134159D01*
X0328962Y0133289D01*
X0328690Y0132450D01*
X0328290Y0131665D01*
X0327771Y0130952D01*
X0327148Y0130329D01*
X0326435Y0129810D01*
X0325650Y0129410D01*
X0324811Y0129138D01*
X0323941Y0129000D01*
X0323500Y0129000D01*
X0323500Y0134600D01*
X0323500Y0134600D01*
X0323500Y0134600D01*
X0317900Y0134600D01*
X0317900Y0135041D01*
X0318038Y0135911D01*
X0318310Y0136750D01*
X0318710Y0137535D01*
X0319229Y0138248D01*
X0319848Y0138868D01*
X0300872Y0157844D01*
X0300704Y0158249D01*
X0299516Y0159438D01*
X0299100Y0160441D01*
X0299100Y0145884D01*
X0322284Y0122700D01*
X0336617Y0122700D01*
X0337756Y0122228D01*
X0338628Y0121356D01*
X0351128Y0108856D01*
X0351600Y0107717D01*
X0351600Y0099767D01*
X0351957Y0099410D01*
X0352578Y0097911D01*
X0352578Y0097000D01*
X0354475Y0097000D01*
X0356276Y0096254D01*
X0357654Y0094876D01*
X0358400Y0093075D01*
X0358400Y0091125D01*
X0357654Y0089324D01*
X0356276Y0087946D01*
X0355682Y0087700D01*
X0361318Y0087700D01*
X0360724Y0087946D01*
X0359346Y0089324D01*
X0358600Y0091125D01*
X0358600Y0093075D01*
X0359346Y0094876D01*
X0360724Y0096254D01*
X0362525Y0097000D01*
X0364475Y0097000D01*
X0366276Y0096254D01*
X0367654Y0094876D01*
X0368400Y0093075D01*
X0368400Y0091125D01*
X0367654Y0089324D01*
X0366276Y0087946D01*
X0365682Y0087700D01*
X0439953Y0087700D01*
X0440838Y0088584D01*
X0442565Y0089300D01*
X0444435Y0089300D01*
X0444808Y0089146D01*
X0444516Y0089438D01*
X0443800Y0091165D01*
X0443800Y0093035D01*
X0444516Y0094762D01*
X0445838Y0096084D01*
X0447565Y0096800D01*
X0449435Y0096800D01*
X0451162Y0096084D01*
X0452484Y0094762D01*
X0453200Y0093035D01*
X0453200Y0091165D01*
X0452484Y0089438D01*
X0452192Y0089146D01*
X0452565Y0089300D01*
X0454435Y0089300D01*
X0456162Y0088584D01*
X0457484Y0087262D01*
X0458200Y0085535D01*
X0458200Y0083665D01*
X0457484Y0081938D01*
X0456162Y0080616D01*
X0454435Y0079900D01*
X0452565Y0079900D01*
X0450838Y0080616D01*
X0449516Y0081938D01*
X0448800Y0083665D01*
X0448800Y0085535D01*
X0449516Y0087262D01*
X0449808Y0087554D01*
X0449435Y0087400D01*
X0447565Y0087400D01*
X0447192Y0087554D01*
X0447484Y0087262D01*
X0448200Y0085535D01*
X0448200Y0083665D01*
X0447484Y0081938D01*
X0446162Y0080616D01*
X0444435Y0079900D01*
X0442565Y0079900D01*
X0440838Y0080616D01*
X0439953Y0081500D01*
X0428017Y0081500D01*
X0428400Y0080575D01*
X0428400Y0078625D01*
X0427654Y0076824D01*
X0426276Y0075446D01*
X0424475Y0074700D01*
X0422525Y0074700D01*
X0420724Y0075446D01*
X0419346Y0076824D01*
X0418600Y0078625D01*
X0418600Y0080575D01*
X0418983Y0081500D01*
X0398771Y0081500D01*
X0398962Y0080911D01*
X0399100Y0080041D01*
X0399100Y0079600D01*
X0393500Y0079600D01*
X0393500Y0079600D01*
X0399100Y0079600D01*
X0399100Y0079159D01*
X0398962Y0078289D01*
X0398690Y0077450D01*
X0398290Y0076665D01*
X0397771Y0075952D01*
X0397148Y0075329D01*
X0396435Y0074810D01*
X0395650Y0074410D01*
X0394811Y0074138D01*
X0393941Y0074000D01*
X0393500Y0074000D01*
X0393500Y0079600D01*
X0393500Y0079600D01*
X0393500Y0079600D01*
X0387900Y0079600D01*
X0387900Y0080041D01*
X0388038Y0080911D01*
X0388229Y0081500D01*
X0318771Y0081500D01*
X0318962Y0080911D01*
X0319100Y0080041D01*
X0319100Y0079600D01*
X0313500Y0079600D01*
X0313500Y0079600D01*
X0319100Y0079600D01*
X0319100Y0079159D01*
X0318962Y0078289D01*
X0318690Y0077450D01*
X0318290Y0076665D01*
X0317771Y0075952D01*
X0317148Y0075329D01*
X0316435Y0074810D01*
X0315650Y0074410D01*
X0314811Y0074138D01*
X0313941Y0074000D01*
X0313500Y0074000D01*
X0313500Y0079600D01*
X0313500Y0079600D01*
X0313500Y0079600D01*
X0307900Y0079600D01*
X0307900Y0080041D01*
X0308038Y0080911D01*
X0308229Y0081500D01*
X0288017Y0081500D01*
X0288400Y0080575D01*
X0288400Y0078625D01*
X0287654Y0076824D01*
X0286276Y0075446D01*
X0284475Y0074700D01*
X0282525Y0074700D01*
X0280724Y0075446D01*
X0279346Y0076824D01*
X0278600Y0078625D01*
X0278600Y0080575D01*
X0279346Y0082376D01*
X0280343Y0083373D01*
X0274244Y0089472D01*
X0273372Y0090344D01*
X0272900Y0091483D01*
X0272900Y0105816D01*
X0269716Y0109000D01*
X0268182Y0109000D01*
X0268776Y0108754D01*
X0270154Y0107376D01*
X0270900Y0105575D01*
X0270900Y0103625D01*
X0270154Y0101824D01*
X0268776Y0100446D01*
X0266975Y0099700D01*
X0265025Y0099700D01*
X0263224Y0100446D01*
X0261846Y0101824D01*
X0261100Y0103625D01*
X0261100Y0105575D01*
X0261846Y0107376D01*
X0263224Y0108754D01*
X0263818Y0109000D01*
X0260383Y0109000D01*
X0259244Y0109472D01*
X0256744Y0111972D01*
X0255872Y0112844D01*
X0255400Y0113983D01*
X0255400Y0116053D01*
X0254516Y0116938D01*
X0253800Y0118665D01*
X0253800Y0120535D01*
X0254516Y0122262D01*
X0255838Y0123584D01*
X0257565Y0124300D01*
X0259435Y0124300D01*
X0261162Y0123584D01*
X0262484Y0122262D01*
X0263200Y0120535D01*
X0263200Y0118665D01*
X0262484Y0116938D01*
X0261600Y0116053D01*
X0261600Y0115884D01*
X0262284Y0115200D01*
X0266841Y0115200D01*
X0265838Y0115616D01*
X0264516Y0116938D01*
X0263800Y0118665D01*
X0263800Y0120535D01*
X0264516Y0122262D01*
X0265838Y0123584D01*
X0267565Y0124300D01*
X0269435Y0124300D01*
X0271162Y0123584D01*
X0272484Y0122262D01*
X0273200Y0120535D01*
X0273200Y0118665D01*
X0272484Y0116938D01*
X0271162Y0115616D01*
X0270159Y0115200D01*
X0271617Y0115200D01*
X0272756Y0114728D01*
X0273628Y0113856D01*
X0278628Y0108856D01*
X0279100Y0107717D01*
X0279100Y0096782D01*
X0279346Y0097376D01*
X0280724Y0098754D01*
X0282525Y0099500D01*
X0284475Y0099500D01*
X0286276Y0098754D01*
X0287654Y0097376D01*
X0288400Y0095575D01*
X0288400Y0093625D01*
X0287654Y0091824D01*
X0286276Y0090446D01*
X0284475Y0089700D01*
X0282784Y0089700D01*
X0284784Y0087700D01*
X0341318Y0087700D01*
X0340724Y0087946D01*
X0339346Y0089324D01*
X0338600Y0091125D01*
X0338600Y0093075D01*
X0339346Y0094876D01*
X0340724Y0096254D01*
X0342525Y0097000D01*
X0344422Y0097000D01*
X0344422Y0097911D01*
X0345043Y0099410D01*
X0345400Y0099767D01*
X0345400Y0105816D01*
X0334716Y0116500D01*
X0320383Y0116500D01*
X0319244Y0116972D01*
X0294244Y0141972D01*
X0293372Y0142844D01*
X0292900Y0143983D01*
X0292900Y0154616D01*
X0288400Y0150116D01*
X0288400Y0148625D01*
X0287654Y0146824D01*
X0286276Y0145446D01*
X0284475Y0144700D01*
X0282525Y0144700D01*
X0280724Y0145446D01*
X0279346Y0146824D01*
X0278600Y0148625D01*
X0278600Y0150575D01*
X0279346Y0152376D01*
X0280724Y0153754D01*
X0282525Y0154500D01*
X0284016Y0154500D01*
X0287900Y0158384D01*
X0287900Y0160441D01*
X0287484Y0159438D01*
X0286162Y0158116D01*
X0284435Y0157400D01*
X0282565Y0157400D01*
X0280838Y0158116D01*
X0279516Y0159438D01*
X0278800Y0161165D01*
X0278800Y0163035D01*
X0279516Y0164762D01*
X0279808Y0165054D01*
X0279435Y0164900D01*
X0277565Y0164900D01*
X0277192Y0165054D01*
X0277484Y0164762D01*
X0278200Y0163035D01*
X0278200Y0161165D01*
X0277484Y0159438D01*
X0276162Y0158116D01*
X0274435Y0157400D01*
X0272565Y0157400D01*
X0270838Y0158116D01*
X0269516Y0159438D01*
X0268800Y0161165D01*
X0268800Y0163035D01*
X0269516Y0164762D01*
X0270838Y0166084D01*
X0272565Y0166800D01*
X0274435Y0166800D01*
X0274808Y0166646D01*
X0274516Y0166938D01*
X0273800Y0168665D01*
X0273800Y0170535D01*
X0274516Y0172262D01*
X0275838Y0173584D01*
X0277565Y0174300D01*
X0279416Y0174300D01*
X0275872Y0177844D01*
X0275400Y0178983D01*
X0275400Y0197100D01*
X0112768Y0197100D01*
X0112654Y0196824D01*
X0111276Y0195446D01*
X0109475Y0194700D01*
X0107525Y0194700D01*
X0105724Y0195446D01*
X0104346Y0196824D01*
X0104232Y0197100D01*
X0092900Y0197100D01*
X0092900Y0185647D01*
X0093338Y0186084D01*
X0095065Y0186800D01*
X0096935Y0186800D01*
X0098662Y0186084D01*
X0099984Y0184762D01*
X0100700Y0183035D01*
X0100700Y0181165D01*
X0099984Y0179438D01*
X0098662Y0178116D01*
X0096935Y0177400D01*
X0095065Y0177400D01*
X0093338Y0178116D01*
X0092900Y0178553D01*
X0092900Y0168923D01*
X0097823Y0164000D01*
X0110546Y0164000D01*
X0110554Y0164008D01*
X0112466Y0164800D01*
X0114534Y0164800D01*
X0116446Y0164008D01*
X0117908Y0162546D01*
X0118700Y0160634D01*
X0118700Y0158566D01*
X0117908Y0156654D01*
X0116446Y0155192D01*
X0114534Y0154400D01*
X0112466Y0154400D01*
X0110554Y0155192D01*
X0110546Y0155200D01*
X0095125Y0155200D01*
X0093508Y0155870D01*
X0091000Y0158377D01*
X0082900Y0150277D01*
X0082900Y0150230D01*
X0081469Y0146775D01*
X0078825Y0144131D01*
X0075370Y0142700D01*
X0071630Y0142700D01*
X0068634Y0143941D01*
X0067394Y0142700D01*
X0061600Y0142700D01*
X0061600Y0105647D01*
X0062484Y0104762D01*
X0063200Y0103035D01*
X0063200Y0101165D01*
X0062484Y0099438D01*
X0061162Y0098116D01*
X0059435Y0097400D01*
X0057565Y0097400D01*
X0055838Y0098116D01*
X0054516Y0099438D01*
X0053800Y0101165D01*
X0053800Y0103035D01*
X0054516Y0104762D01*
X0055400Y0105647D01*
X0055400Y0114000D01*
X0047330Y0114000D01*
X0046276Y0112946D01*
X0044475Y0112200D01*
X0042525Y0112200D01*
X0040724Y0112946D01*
X0039346Y0114324D01*
X0038600Y0116125D01*
X0038600Y0118075D01*
X0039346Y0119876D01*
X0040724Y0121254D01*
X0042525Y0122000D01*
X0044475Y0122000D01*
X0046276Y0121254D01*
X0047330Y0120200D01*
X0055400Y0120200D01*
X0055400Y0146906D01*
X0054100Y0148206D01*
X0054100Y0155994D01*
X0059606Y0161500D01*
X0067394Y0161500D01*
X0068634Y0160259D01*
X0071630Y0161500D01*
X0075370Y0161500D01*
X0078825Y0160069D01*
X0079536Y0159358D01*
X0084100Y0163923D01*
X0084100Y0197100D01*
X0072768Y0197100D01*
X0072654Y0196824D01*
X0071276Y0195446D01*
X0069475Y0194700D01*
X0067525Y0194700D01*
X0065724Y0195446D01*
X0064346Y0196824D01*
X0064232Y0197100D01*
X0033500Y0197100D01*
X0028675Y0192275D01*
X0030499Y0191222D01*
X0032622Y0189099D01*
X0034122Y0186500D01*
X0034899Y0183601D01*
X0034899Y0180599D01*
X0034122Y0177700D01*
X0032622Y0175101D01*
X0030499Y0172978D01*
X0027900Y0171478D01*
X0025001Y0170701D01*
X0021999Y0170701D01*
X0019100Y0171478D01*
X0016501Y0172978D01*
X0014378Y0175101D01*
X0013325Y0176925D01*
X0008600Y0172200D01*
X0008600Y0032000D01*
X0013325Y0027275D01*
X0014378Y0029099D01*
X0016501Y0031222D01*
X0019100Y0032722D01*
X0021999Y0033499D01*
X0025001Y0033499D01*
X0027900Y0032722D01*
X0030499Y0031222D01*
X0032622Y0029099D01*
X0034122Y0026500D01*
X0034899Y0023601D01*
X0034899Y0020599D01*
X0034122Y0017700D01*
X0032622Y0015101D01*
X0030499Y0012978D01*
X0030613Y0013093D02*
X0044081Y0013093D01*
X0043436Y0015291D02*
X0032732Y0015291D01*
X0034001Y0017490D02*
X0052533Y0017490D01*
X0054270Y0017490D02*
X0109808Y0017490D01*
X0109656Y0017600D02*
X0110408Y0017054D01*
X0111235Y0016632D01*
X0112118Y0016345D01*
X0113036Y0016200D01*
X0113500Y0016200D01*
X0113964Y0016200D01*
X0114882Y0016345D01*
X0115765Y0016632D01*
X0116592Y0017054D01*
X0117344Y0017600D01*
X0118000Y0018256D01*
X0118546Y0019008D01*
X0118968Y0019835D01*
X0119255Y0020718D01*
X0119400Y0021636D01*
X0119400Y0022100D01*
X0119400Y0022564D01*
X0119255Y0023482D01*
X0118968Y0024365D01*
X0118546Y0025192D01*
X0118000Y0025944D01*
X0117344Y0026600D01*
X0116592Y0027146D01*
X0115765Y0027568D01*
X0114882Y0027855D01*
X0113964Y0028000D01*
X0113500Y0028000D01*
X0113500Y0022100D01*
X0119400Y0022100D01*
X0113500Y0022100D01*
X0113500Y0022100D01*
X0113500Y0022100D01*
X0113500Y0016200D01*
X0113500Y0022100D01*
X0113500Y0022100D01*
X0113500Y0022100D01*
X0107600Y0022100D01*
X0107600Y0022564D01*
X0107745Y0023482D01*
X0108032Y0024365D01*
X0108454Y0025192D01*
X0109000Y0025944D01*
X0109656Y0026600D01*
X0110408Y0027146D01*
X0111235Y0027568D01*
X0112118Y0027855D01*
X0113036Y0028000D01*
X0113500Y0028000D01*
X0113500Y0022100D01*
X0107600Y0022100D01*
X0107600Y0021636D01*
X0107745Y0020718D01*
X0108032Y0019835D01*
X0108454Y0019008D01*
X0109000Y0018256D01*
X0109656Y0017600D01*
X0108107Y0019688D02*
X0063152Y0019688D01*
X0062267Y0021887D02*
X0107600Y0021887D01*
X0107941Y0024085D02*
X0060617Y0024085D01*
X0057437Y0026284D02*
X0109340Y0026284D01*
X0113500Y0026284D02*
X0113500Y0026284D01*
X0113500Y0024085D02*
X0113500Y0024085D01*
X0113500Y0021887D02*
X0113500Y0021887D01*
X0113500Y0019688D02*
X0113500Y0019688D01*
X0113500Y0017490D02*
X0113500Y0017490D01*
X0117192Y0017490D02*
X0131042Y0017490D01*
X0130554Y0017692D02*
X0132466Y0016900D01*
X0134534Y0016900D01*
X0136446Y0017692D01*
X0137908Y0019154D01*
X0138700Y0021066D01*
X0138700Y0023134D01*
X0137908Y0025046D01*
X0136446Y0026508D01*
X0134534Y0027300D01*
X0132466Y0027300D01*
X0130554Y0026508D01*
X0129092Y0025046D01*
X0128300Y0023134D01*
X0128300Y0021066D01*
X0129092Y0019154D01*
X0130554Y0017692D01*
X0128871Y0019688D02*
X0118893Y0019688D01*
X0119400Y0021887D02*
X0128300Y0021887D01*
X0128694Y0024085D02*
X0119059Y0024085D01*
X0117660Y0026284D02*
X0130330Y0026284D01*
X0136670Y0026284D02*
X0159887Y0026284D01*
X0159346Y0026824D02*
X0160724Y0025446D01*
X0162525Y0024700D01*
X0164475Y0024700D01*
X0166276Y0025446D01*
X0167654Y0026824D01*
X0168400Y0028625D01*
X0168400Y0030575D01*
X0167654Y0032376D01*
X0166276Y0033754D01*
X0164475Y0034500D01*
X0162525Y0034500D01*
X0160724Y0033754D01*
X0159346Y0032376D01*
X0158600Y0030575D01*
X0158600Y0028625D01*
X0159346Y0026824D01*
X0158659Y0028482D02*
X0057360Y0028482D01*
X0058726Y0029048D02*
X0061370Y0031692D01*
X0062802Y0035147D01*
X0062802Y0038887D01*
X0061370Y0042342D01*
X0058726Y0044986D01*
X0055271Y0046417D01*
X0051532Y0046417D01*
X0048077Y0044986D01*
X0045433Y0042342D01*
X0044002Y0038887D01*
X0044002Y0035147D01*
X0045433Y0031692D01*
X0048077Y0029048D01*
X0051532Y0027617D01*
X0055271Y0027617D01*
X0058726Y0029048D01*
X0060359Y0030681D02*
X0158644Y0030681D01*
X0159850Y0032879D02*
X0061862Y0032879D01*
X0062773Y0035078D02*
X0208638Y0035078D01*
X0208372Y0035344D02*
X0216300Y0027416D01*
X0216300Y0026165D01*
X0217016Y0024438D01*
X0218338Y0023116D01*
X0220065Y0022400D01*
X0221935Y0022400D01*
X0223662Y0023116D01*
X0224984Y0024438D01*
X0225700Y0026165D01*
X0225700Y0028035D01*
X0224984Y0029762D01*
X0223662Y0031084D01*
X0221935Y0031800D01*
X0220684Y0031800D01*
X0214100Y0038384D01*
X0214100Y0117941D01*
X0214516Y0116938D01*
X0215838Y0115616D01*
X0217565Y0114900D01*
X0219435Y0114900D01*
X0221162Y0115616D01*
X0222484Y0116938D01*
X0223200Y0118665D01*
X0223200Y0120535D01*
X0222484Y0122262D01*
X0221162Y0123584D01*
X0220159Y0124000D01*
X0224117Y0124000D01*
X0225256Y0124472D01*
X0231128Y0130344D01*
X0231600Y0131483D01*
X0231600Y0133553D01*
X0232484Y0134438D01*
X0233200Y0136165D01*
X0233200Y0138035D01*
X0232484Y0139762D01*
X0231162Y0141084D01*
X0229435Y0141800D01*
X0227565Y0141800D01*
X0225838Y0141084D01*
X0224516Y0139762D01*
X0223800Y0138035D01*
X0223800Y0136165D01*
X0224516Y0134438D01*
X0225400Y0133553D01*
X0225400Y0133384D01*
X0222216Y0130200D01*
X0215383Y0130200D01*
X0214244Y0129728D01*
X0209244Y0124728D01*
X0208400Y0123884D01*
X0208400Y0125575D01*
X0207654Y0127376D01*
X0206276Y0128754D01*
X0204475Y0129500D01*
X0202525Y0129500D01*
X0200724Y0128754D01*
X0199346Y0127376D01*
X0198600Y0125575D01*
X0198600Y0123625D01*
X0199346Y0121824D01*
X0200724Y0120446D01*
X0202525Y0119700D01*
X0204475Y0119700D01*
X0206276Y0120446D01*
X0207654Y0121824D01*
X0207900Y0122418D01*
X0207900Y0111782D01*
X0207654Y0112376D01*
X0206276Y0113754D01*
X0204475Y0114500D01*
X0202525Y0114500D01*
X0200724Y0113754D01*
X0199346Y0112376D01*
X0198600Y0110575D01*
X0198600Y0108625D01*
X0199346Y0106824D01*
X0200724Y0105446D01*
X0202525Y0104700D01*
X0204475Y0104700D01*
X0206276Y0105446D01*
X0207654Y0106824D01*
X0207900Y0107418D01*
X0207900Y0081259D01*
X0207484Y0082262D01*
X0206162Y0083584D01*
X0204435Y0084300D01*
X0202565Y0084300D01*
X0200838Y0083584D01*
X0199516Y0082262D01*
X0198800Y0080535D01*
X0198800Y0078665D01*
X0199516Y0076938D01*
X0200838Y0075616D01*
X0202565Y0074900D01*
X0204435Y0074900D01*
X0206162Y0075616D01*
X0207484Y0076938D01*
X0207900Y0077941D01*
X0207900Y0061259D01*
X0207484Y0062262D01*
X0206162Y0063584D01*
X0204435Y0064300D01*
X0202565Y0064300D01*
X0200838Y0063584D01*
X0199516Y0062262D01*
X0198800Y0060535D01*
X0198800Y0058665D01*
X0199516Y0056938D01*
X0200838Y0055616D01*
X0202565Y0054900D01*
X0204435Y0054900D01*
X0206162Y0055616D01*
X0207484Y0056938D01*
X0207900Y0057941D01*
X0207900Y0046782D01*
X0207654Y0047376D01*
X0206276Y0048754D01*
X0204475Y0049500D01*
X0202525Y0049500D01*
X0200724Y0048754D01*
X0199346Y0047376D01*
X0198600Y0045575D01*
X0198600Y0043625D01*
X0199346Y0041824D01*
X0200724Y0040446D01*
X0202525Y0039700D01*
X0204475Y0039700D01*
X0206276Y0040446D01*
X0207654Y0041824D01*
X0207900Y0042418D01*
X0207900Y0036483D01*
X0208372Y0035344D01*
X0207900Y0037276D02*
X0062802Y0037276D01*
X0062558Y0039475D02*
X0207900Y0039475D01*
X0207900Y0041673D02*
X0207503Y0041673D01*
X0214100Y0041673D02*
X0217280Y0041673D01*
X0217016Y0041938D02*
X0218338Y0040616D01*
X0220065Y0039900D01*
X0221935Y0039900D01*
X0223662Y0040616D01*
X0224984Y0041938D01*
X0225700Y0043665D01*
X0225700Y0045535D01*
X0224984Y0047262D01*
X0223662Y0048584D01*
X0221935Y0049300D01*
X0221600Y0049300D01*
X0221600Y0105816D01*
X0231128Y0115344D01*
X0231296Y0115749D01*
X0232484Y0116938D01*
X0233200Y0118665D01*
X0233200Y0120535D01*
X0232484Y0122262D01*
X0231162Y0123584D01*
X0229435Y0124300D01*
X0227565Y0124300D01*
X0225838Y0123584D01*
X0224516Y0122262D01*
X0223800Y0120535D01*
X0223800Y0118665D01*
X0224351Y0117335D01*
X0216744Y0109728D01*
X0215872Y0108856D01*
X0215400Y0107717D01*
X0215400Y0046483D01*
X0215872Y0045344D01*
X0216300Y0044916D01*
X0216300Y0043665D01*
X0217016Y0041938D01*
X0216300Y0043872D02*
X0214100Y0043872D01*
X0214100Y0046070D02*
X0215571Y0046070D01*
X0215400Y0048269D02*
X0214100Y0048269D01*
X0214100Y0050467D02*
X0215400Y0050467D01*
X0215400Y0052666D02*
X0214100Y0052666D01*
X0214100Y0054864D02*
X0215400Y0054864D01*
X0215400Y0057063D02*
X0214100Y0057063D01*
X0214100Y0059261D02*
X0215400Y0059261D01*
X0215400Y0061460D02*
X0214100Y0061460D01*
X0214100Y0063658D02*
X0215400Y0063658D01*
X0215400Y0065857D02*
X0214100Y0065857D01*
X0214100Y0068055D02*
X0215400Y0068055D01*
X0215400Y0070254D02*
X0214100Y0070254D01*
X0214100Y0072452D02*
X0215400Y0072452D01*
X0215400Y0074651D02*
X0214100Y0074651D01*
X0214100Y0076849D02*
X0215400Y0076849D01*
X0215400Y0079048D02*
X0214100Y0079048D01*
X0214100Y0081246D02*
X0215400Y0081246D01*
X0215400Y0083445D02*
X0214100Y0083445D01*
X0214100Y0085643D02*
X0215400Y0085643D01*
X0215400Y0087842D02*
X0214100Y0087842D01*
X0214100Y0090040D02*
X0215400Y0090040D01*
X0215400Y0092239D02*
X0214100Y0092239D01*
X0214100Y0094437D02*
X0215400Y0094437D01*
X0215400Y0096636D02*
X0214100Y0096636D01*
X0214100Y0098834D02*
X0215400Y0098834D01*
X0215400Y0101033D02*
X0214100Y0101033D01*
X0214100Y0103232D02*
X0215400Y0103232D01*
X0215400Y0105430D02*
X0214100Y0105430D01*
X0214100Y0107629D02*
X0215400Y0107629D01*
X0214100Y0109827D02*
X0216843Y0109827D01*
X0219042Y0112026D02*
X0214100Y0112026D01*
X0214100Y0114224D02*
X0221240Y0114224D01*
X0221969Y0116423D02*
X0223439Y0116423D01*
X0223182Y0118621D02*
X0223818Y0118621D01*
X0223918Y0120820D02*
X0223082Y0120820D01*
X0221729Y0123018D02*
X0225271Y0123018D01*
X0226001Y0125217D02*
X0310999Y0125217D01*
X0308801Y0127415D02*
X0228199Y0127415D01*
X0230398Y0129614D02*
X0306602Y0129614D01*
X0304404Y0131812D02*
X0287642Y0131812D01*
X0287654Y0131824D02*
X0288400Y0133625D01*
X0288400Y0135575D01*
X0287654Y0137376D01*
X0286276Y0138754D01*
X0284475Y0139500D01*
X0282525Y0139500D01*
X0280724Y0138754D01*
X0279346Y0137376D01*
X0278600Y0135575D01*
X0278600Y0133625D01*
X0279346Y0131824D01*
X0280724Y0130446D01*
X0282525Y0129700D01*
X0284475Y0129700D01*
X0286276Y0130446D01*
X0287654Y0131824D01*
X0288400Y0134011D02*
X0302205Y0134011D01*
X0300007Y0136209D02*
X0288137Y0136209D01*
X0286622Y0138408D02*
X0297808Y0138408D01*
X0295610Y0140606D02*
X0271641Y0140606D01*
X0271162Y0141084D02*
X0269435Y0141800D01*
X0267565Y0141800D01*
X0265838Y0141084D01*
X0264516Y0139762D01*
X0263800Y0138035D01*
X0263800Y0136165D01*
X0264516Y0134438D01*
X0265838Y0133116D01*
X0267565Y0132400D01*
X0269435Y0132400D01*
X0271162Y0133116D01*
X0272484Y0134438D01*
X0273200Y0136165D01*
X0273200Y0138035D01*
X0272484Y0139762D01*
X0271162Y0141084D01*
X0273046Y0138408D02*
X0280378Y0138408D01*
X0278863Y0136209D02*
X0273200Y0136209D01*
X0272057Y0134011D02*
X0278600Y0134011D01*
X0279358Y0131812D02*
X0231600Y0131812D01*
X0232057Y0134011D02*
X0234943Y0134011D01*
X0234516Y0134438D02*
X0235838Y0133116D01*
X0237565Y0132400D01*
X0239435Y0132400D01*
X0241162Y0133116D01*
X0242484Y0134438D01*
X0243200Y0136165D01*
X0243200Y0138035D01*
X0242484Y0139762D01*
X0241162Y0141084D01*
X0239435Y0141800D01*
X0237565Y0141800D01*
X0235838Y0141084D01*
X0234516Y0139762D01*
X0233800Y0138035D01*
X0233800Y0136165D01*
X0234516Y0134438D01*
X0233800Y0136209D02*
X0233200Y0136209D01*
X0233046Y0138408D02*
X0233954Y0138408D01*
X0235359Y0140606D02*
X0231641Y0140606D01*
X0225359Y0140606D02*
X0221641Y0140606D01*
X0221162Y0141084D02*
X0219435Y0141800D01*
X0217565Y0141800D01*
X0215838Y0141084D01*
X0214516Y0139762D01*
X0213800Y0138035D01*
X0213800Y0136165D01*
X0214516Y0134438D01*
X0215838Y0133116D01*
X0217565Y0132400D01*
X0219435Y0132400D01*
X0221162Y0133116D01*
X0222484Y0134438D01*
X0223200Y0136165D01*
X0223200Y0138035D01*
X0222484Y0139762D01*
X0221162Y0141084D01*
X0223046Y0138408D02*
X0223954Y0138408D01*
X0223800Y0136209D02*
X0223200Y0136209D01*
X0222057Y0134011D02*
X0224943Y0134011D01*
X0223828Y0131812D02*
X0131723Y0131812D01*
X0131469Y0132425D02*
X0128825Y0135069D01*
X0125370Y0136500D01*
X0121630Y0136500D01*
X0118175Y0135069D01*
X0115531Y0132425D01*
X0114100Y0128970D01*
X0114100Y0125230D01*
X0115531Y0121775D01*
X0118175Y0119131D01*
X0121630Y0117700D01*
X0125370Y0117700D01*
X0128825Y0119131D01*
X0131469Y0121775D01*
X0132900Y0125230D01*
X0132900Y0128970D01*
X0131469Y0132425D01*
X0129883Y0134011D02*
X0214943Y0134011D01*
X0213800Y0136209D02*
X0207039Y0136209D01*
X0207654Y0136824D02*
X0208400Y0138625D01*
X0208400Y0140575D01*
X0207654Y0142376D01*
X0206276Y0143754D01*
X0204475Y0144500D01*
X0202525Y0144500D01*
X0200724Y0143754D01*
X0199346Y0142376D01*
X0198600Y0140575D01*
X0198600Y0138625D01*
X0199346Y0136824D01*
X0200724Y0135446D01*
X0202525Y0134700D01*
X0204475Y0134700D01*
X0206276Y0135446D01*
X0207654Y0136824D01*
X0208310Y0138408D02*
X0213954Y0138408D01*
X0215359Y0140606D02*
X0208387Y0140606D01*
X0207225Y0142805D02*
X0293411Y0142805D01*
X0292900Y0145003D02*
X0285207Y0145003D01*
X0287810Y0147202D02*
X0292900Y0147202D01*
X0292900Y0149400D02*
X0288400Y0149400D01*
X0289883Y0151599D02*
X0292900Y0151599D01*
X0292900Y0153797D02*
X0292081Y0153797D01*
X0285512Y0155996D02*
X0138174Y0155996D01*
X0138000Y0155756D02*
X0138546Y0156508D01*
X0138968Y0157335D01*
X0139255Y0158218D01*
X0139400Y0159136D01*
X0139400Y0159600D01*
X0139400Y0160064D01*
X0139255Y0160982D01*
X0138968Y0161865D01*
X0138546Y0162692D01*
X0138000Y0163444D01*
X0137344Y0164100D01*
X0136592Y0164646D01*
X0135765Y0165068D01*
X0134882Y0165355D01*
X0133964Y0165500D01*
X0133500Y0165500D01*
X0133500Y0159600D01*
X0139400Y0159600D01*
X0133500Y0159600D01*
X0133500Y0159600D01*
X0133500Y0159600D01*
X0133500Y0153700D01*
X0133964Y0153700D01*
X0134882Y0153845D01*
X0135765Y0154132D01*
X0136592Y0154554D01*
X0137344Y0155100D01*
X0138000Y0155756D01*
X0139247Y0158194D02*
X0270759Y0158194D01*
X0269120Y0160393D02*
X0139348Y0160393D01*
X0138598Y0162591D02*
X0268800Y0162591D01*
X0269543Y0164790D02*
X0136310Y0164790D01*
X0133500Y0164790D02*
X0133500Y0164790D01*
X0133500Y0165500D02*
X0133036Y0165500D01*
X0132118Y0165355D01*
X0131235Y0165068D01*
X0130408Y0164646D01*
X0129656Y0164100D01*
X0129000Y0163444D01*
X0128454Y0162692D01*
X0128032Y0161865D01*
X0127745Y0160982D01*
X0127600Y0160064D01*
X0127600Y0159600D01*
X0133500Y0159600D01*
X0133500Y0159600D01*
X0133500Y0159600D01*
X0133500Y0165500D01*
X0130690Y0164790D02*
X0114559Y0164790D01*
X0112441Y0164790D02*
X0097033Y0164790D01*
X0094834Y0166988D02*
X0274495Y0166988D01*
X0273800Y0169187D02*
X0092900Y0169187D01*
X0092900Y0171385D02*
X0274152Y0171385D01*
X0275837Y0173584D02*
X0092900Y0173584D01*
X0092900Y0175782D02*
X0190721Y0175782D01*
X0189591Y0176250D02*
X0192127Y0175200D01*
X0194872Y0175200D01*
X0197409Y0176250D01*
X0199350Y0178191D01*
X0200400Y0180727D01*
X0200400Y0183472D01*
X0199350Y0186009D01*
X0197409Y0187950D01*
X0194872Y0189000D01*
X0192127Y0189000D01*
X0189591Y0187950D01*
X0187650Y0186009D01*
X0186600Y0183472D01*
X0186600Y0180727D01*
X0187650Y0178191D01*
X0189591Y0176250D01*
X0187861Y0177981D02*
X0118337Y0177981D01*
X0118662Y0178116D02*
X0119984Y0179438D01*
X0120700Y0181165D01*
X0120700Y0183035D01*
X0119984Y0184762D01*
X0118662Y0186084D01*
X0116935Y0186800D01*
X0115065Y0186800D01*
X0113338Y0186084D01*
X0112016Y0184762D01*
X0111300Y0183035D01*
X0111300Y0181165D01*
X0112016Y0179438D01*
X0113338Y0178116D01*
X0115065Y0177400D01*
X0116935Y0177400D01*
X0118662Y0178116D01*
X0120292Y0180179D02*
X0186827Y0180179D01*
X0186600Y0182378D02*
X0120700Y0182378D01*
X0120061Y0184576D02*
X0187057Y0184576D01*
X0188417Y0186775D02*
X0116995Y0186775D01*
X0115005Y0186775D02*
X0106995Y0186775D01*
X0106935Y0186800D02*
X0105065Y0186800D01*
X0103338Y0186084D01*
X0102016Y0184762D01*
X0101300Y0183035D01*
X0101300Y0181165D01*
X0102016Y0179438D01*
X0103338Y0178116D01*
X0105065Y0177400D01*
X0106935Y0177400D01*
X0108662Y0178116D01*
X0109984Y0179438D01*
X0110700Y0181165D01*
X0110700Y0183035D01*
X0109984Y0184762D01*
X0108662Y0186084D01*
X0106935Y0186800D01*
X0105005Y0186775D02*
X0096995Y0186775D01*
X0095005Y0186775D02*
X0092900Y0186775D01*
X0092900Y0188973D02*
X0192063Y0188973D01*
X0194937Y0188973D02*
X0262063Y0188973D01*
X0262127Y0189000D02*
X0259591Y0187950D01*
X0257650Y0186009D01*
X0256600Y0183472D01*
X0256600Y0180727D01*
X0257650Y0178191D01*
X0259591Y0176250D01*
X0262127Y0175200D01*
X0264872Y0175200D01*
X0267409Y0176250D01*
X0269350Y0178191D01*
X0270400Y0180727D01*
X0270400Y0183472D01*
X0269350Y0186009D01*
X0267409Y0187950D01*
X0264872Y0189000D01*
X0262127Y0189000D01*
X0264937Y0188973D02*
X0275400Y0188973D01*
X0275400Y0186775D02*
X0268583Y0186775D01*
X0269943Y0184576D02*
X0275400Y0184576D01*
X0275400Y0182378D02*
X0270400Y0182378D01*
X0270173Y0180179D02*
X0275400Y0180179D01*
X0275815Y0177981D02*
X0269139Y0177981D01*
X0266279Y0175782D02*
X0277934Y0175782D01*
X0284503Y0177981D02*
X0299997Y0177981D01*
X0302195Y0180179D02*
X0282305Y0180179D01*
X0281600Y0182378D02*
X0304394Y0182378D01*
X0306592Y0184576D02*
X0281600Y0184576D01*
X0281600Y0186775D02*
X0347003Y0186775D01*
X0349201Y0188973D02*
X0322727Y0188973D01*
X0323700Y0191172D02*
X0373600Y0191172D01*
X0373600Y0191125D02*
X0374346Y0189324D01*
X0375724Y0187946D01*
X0377525Y0187200D01*
X0379475Y0187200D01*
X0381276Y0187946D01*
X0382654Y0189324D01*
X0383400Y0191125D01*
X0383400Y0193075D01*
X0382654Y0194876D01*
X0381276Y0196254D01*
X0379475Y0197000D01*
X0377525Y0197000D01*
X0375724Y0196254D01*
X0374346Y0194876D01*
X0373600Y0193075D01*
X0373600Y0191125D01*
X0373723Y0193370D02*
X0323602Y0193370D01*
X0322385Y0195569D02*
X0375039Y0195569D01*
X0381961Y0195569D02*
X0405039Y0195569D01*
X0405724Y0196254D02*
X0404346Y0194876D01*
X0403600Y0193075D01*
X0403600Y0191125D01*
X0404346Y0189324D01*
X0405724Y0187946D01*
X0407525Y0187200D01*
X0409475Y0187200D01*
X0411276Y0187946D01*
X0412654Y0189324D01*
X0413400Y0191125D01*
X0413400Y0193075D01*
X0412654Y0194876D01*
X0411276Y0196254D01*
X0409475Y0197000D01*
X0407525Y0197000D01*
X0405724Y0196254D01*
X0403723Y0193370D02*
X0383277Y0193370D01*
X0383400Y0191172D02*
X0403600Y0191172D01*
X0404697Y0188973D02*
X0382303Y0188973D01*
X0374697Y0188973D02*
X0357799Y0188973D01*
X0359997Y0186775D02*
X0438417Y0186775D01*
X0437057Y0184576D02*
X0361400Y0184576D01*
X0361400Y0182378D02*
X0436600Y0182378D01*
X0436827Y0180179D02*
X0361400Y0180179D01*
X0360553Y0177981D02*
X0437861Y0177981D01*
X0440721Y0175782D02*
X0411747Y0175782D01*
X0411276Y0176254D02*
X0409475Y0177000D01*
X0407525Y0177000D01*
X0405724Y0176254D01*
X0404346Y0174876D01*
X0403600Y0173075D01*
X0403600Y0171125D01*
X0404346Y0169324D01*
X0405724Y0167946D01*
X0407525Y0167200D01*
X0409475Y0167200D01*
X0411276Y0167946D01*
X0412654Y0169324D01*
X0413400Y0171125D01*
X0413400Y0173075D01*
X0412654Y0174876D01*
X0411276Y0176254D01*
X0413189Y0173584D02*
X0443100Y0173584D01*
X0440901Y0171385D02*
X0413400Y0171385D01*
X0412516Y0169187D02*
X0438703Y0169187D01*
X0436504Y0166988D02*
X0319748Y0166988D01*
X0319534Y0166900D02*
X0321446Y0167692D01*
X0322908Y0169154D01*
X0323700Y0171066D01*
X0323700Y0173134D01*
X0322908Y0175046D01*
X0321446Y0176508D01*
X0319534Y0177300D01*
X0317466Y0177300D01*
X0315554Y0176508D01*
X0314092Y0175046D01*
X0313300Y0173134D01*
X0313300Y0171066D01*
X0314092Y0169154D01*
X0315554Y0167692D01*
X0317466Y0166900D01*
X0319534Y0166900D01*
X0317252Y0166988D02*
X0299100Y0166988D01*
X0299100Y0164790D02*
X0299543Y0164790D01*
X0299971Y0169187D02*
X0314078Y0169187D01*
X0313300Y0171385D02*
X0302169Y0171385D01*
X0304368Y0173584D02*
X0313486Y0173584D01*
X0314828Y0175782D02*
X0306566Y0175782D01*
X0308765Y0177981D02*
X0346447Y0177981D01*
X0348645Y0175782D02*
X0322172Y0175782D01*
X0323514Y0173584D02*
X0373811Y0173584D01*
X0373600Y0173075D02*
X0373600Y0171125D01*
X0374346Y0169324D01*
X0375724Y0167946D01*
X0377525Y0167200D01*
X0379475Y0167200D01*
X0381276Y0167946D01*
X0382654Y0169324D01*
X0383400Y0171125D01*
X0383400Y0173075D01*
X0382654Y0174876D01*
X0381276Y0176254D01*
X0379475Y0177000D01*
X0377525Y0177000D01*
X0375724Y0176254D01*
X0374346Y0174876D01*
X0373600Y0173075D01*
X0373600Y0171385D02*
X0323700Y0171385D01*
X0322922Y0169187D02*
X0374483Y0169187D01*
X0375838Y0166084D02*
X0374516Y0164762D01*
X0373800Y0163035D01*
X0373800Y0161165D01*
X0374516Y0159438D01*
X0375838Y0158116D01*
X0377565Y0157400D01*
X0379435Y0157400D01*
X0381162Y0158116D01*
X0382484Y0159438D01*
X0383200Y0161165D01*
X0383200Y0163035D01*
X0382484Y0164762D01*
X0381162Y0166084D01*
X0379435Y0166800D01*
X0377565Y0166800D01*
X0375838Y0166084D01*
X0374543Y0164790D02*
X0372457Y0164790D01*
X0372484Y0164762D02*
X0371162Y0166084D01*
X0369435Y0166800D01*
X0367565Y0166800D01*
X0365838Y0166084D01*
X0364516Y0164762D01*
X0363800Y0163035D01*
X0363800Y0161165D01*
X0364516Y0159438D01*
X0365838Y0158116D01*
X0367565Y0157400D01*
X0369435Y0157400D01*
X0371162Y0158116D01*
X0372484Y0159438D01*
X0373200Y0161165D01*
X0373200Y0163035D01*
X0372484Y0164762D01*
X0373200Y0162591D02*
X0373800Y0162591D01*
X0374120Y0160393D02*
X0372880Y0160393D01*
X0371241Y0158194D02*
X0375759Y0158194D01*
X0381241Y0158194D02*
X0427710Y0158194D01*
X0425512Y0155996D02*
X0311488Y0155996D01*
X0309290Y0158194D02*
X0328259Y0158194D01*
X0328338Y0158116D02*
X0327016Y0159438D01*
X0326300Y0161165D01*
X0326300Y0163035D01*
X0327016Y0164762D01*
X0328338Y0166084D01*
X0330065Y0166800D01*
X0331935Y0166800D01*
X0333662Y0166084D01*
X0334984Y0164762D01*
X0335700Y0163035D01*
X0335700Y0161165D01*
X0334984Y0159438D01*
X0333662Y0158116D01*
X0331935Y0157400D01*
X0330065Y0157400D01*
X0328338Y0158116D01*
X0326620Y0160393D02*
X0307880Y0160393D01*
X0308200Y0162591D02*
X0326300Y0162591D01*
X0327043Y0164790D02*
X0307457Y0164790D01*
X0300727Y0158194D02*
X0299100Y0158194D01*
X0299100Y0155996D02*
X0302720Y0155996D01*
X0304919Y0153797D02*
X0299100Y0153797D01*
X0299100Y0151599D02*
X0307117Y0151599D01*
X0309316Y0149400D02*
X0299100Y0149400D01*
X0299100Y0147202D02*
X0311514Y0147202D01*
X0313713Y0145003D02*
X0299981Y0145003D01*
X0302179Y0142805D02*
X0315911Y0142805D01*
X0318110Y0140606D02*
X0304378Y0140606D01*
X0306576Y0138408D02*
X0319388Y0138408D01*
X0318135Y0136209D02*
X0308775Y0136209D01*
X0310973Y0134011D02*
X0317924Y0134011D01*
X0317900Y0134159D02*
X0318038Y0133289D01*
X0318310Y0132450D01*
X0318710Y0131665D01*
X0319229Y0130952D01*
X0319852Y0130329D01*
X0320565Y0129810D01*
X0321350Y0129410D01*
X0322189Y0129138D01*
X0323059Y0129000D01*
X0323500Y0129000D01*
X0323500Y0134600D01*
X0317900Y0134600D01*
X0317900Y0134159D01*
X0318635Y0131812D02*
X0313172Y0131812D01*
X0315370Y0129614D02*
X0320951Y0129614D01*
X0323500Y0129614D02*
X0323500Y0129614D01*
X0323500Y0131812D02*
X0323500Y0131812D01*
X0323500Y0134011D02*
X0323500Y0134011D01*
X0328365Y0131812D02*
X0342072Y0131812D01*
X0342525Y0132000D02*
X0340724Y0131254D01*
X0339346Y0129876D01*
X0338600Y0128075D01*
X0338600Y0126125D01*
X0339346Y0124324D01*
X0340724Y0122946D01*
X0342525Y0122200D01*
X0344475Y0122200D01*
X0346276Y0122946D01*
X0347654Y0124324D01*
X0348400Y0126125D01*
X0348400Y0128075D01*
X0347654Y0129876D01*
X0346276Y0131254D01*
X0344475Y0132000D01*
X0342525Y0132000D01*
X0344928Y0131812D02*
X0352072Y0131812D01*
X0352525Y0132000D02*
X0350724Y0131254D01*
X0349346Y0129876D01*
X0348600Y0128075D01*
X0348600Y0126125D01*
X0349346Y0124324D01*
X0350724Y0122946D01*
X0352525Y0122200D01*
X0354475Y0122200D01*
X0356276Y0122946D01*
X0357654Y0124324D01*
X0358400Y0126125D01*
X0358400Y0128075D01*
X0357654Y0129876D01*
X0356276Y0131254D01*
X0354475Y0132000D01*
X0352525Y0132000D01*
X0354928Y0131812D02*
X0362072Y0131812D01*
X0362525Y0132000D02*
X0360724Y0131254D01*
X0359346Y0129876D01*
X0358600Y0128075D01*
X0358600Y0126125D01*
X0359346Y0124324D01*
X0360724Y0122946D01*
X0362525Y0122200D01*
X0364475Y0122200D01*
X0366276Y0122946D01*
X0367654Y0124324D01*
X0368400Y0126125D01*
X0368400Y0128075D01*
X0367654Y0129876D01*
X0366276Y0131254D01*
X0364475Y0132000D01*
X0362525Y0132000D01*
X0364928Y0131812D02*
X0378635Y0131812D01*
X0378710Y0131665D02*
X0379229Y0130952D01*
X0379852Y0130329D01*
X0380565Y0129810D01*
X0381350Y0129410D01*
X0382189Y0129138D01*
X0383059Y0129000D01*
X0383500Y0129000D01*
X0383500Y0134600D01*
X0377900Y0134600D01*
X0377900Y0134159D01*
X0378038Y0133289D01*
X0378310Y0132450D01*
X0378710Y0131665D01*
X0377924Y0134011D02*
X0329076Y0134011D01*
X0328865Y0136209D02*
X0378135Y0136209D01*
X0383500Y0134011D02*
X0383500Y0134011D01*
X0383500Y0131812D02*
X0383500Y0131812D01*
X0383500Y0129614D02*
X0383500Y0129614D01*
X0386049Y0129614D02*
X0476602Y0129614D01*
X0474641Y0131812D02*
X0472359Y0131812D01*
X0473200Y0134011D02*
X0473800Y0134011D01*
X0474079Y0136209D02*
X0472921Y0136209D01*
X0481339Y0138408D02*
X0485661Y0138408D01*
X0484079Y0136209D02*
X0482921Y0136209D01*
X0483200Y0134011D02*
X0483800Y0134011D01*
X0483172Y0131812D02*
X0484641Y0131812D01*
X0492359Y0131812D02*
X0579919Y0131812D01*
X0579100Y0130994D02*
X0579100Y0123206D01*
X0584606Y0117700D01*
X0592394Y0117700D01*
X0597900Y0123206D01*
X0597900Y0130994D01*
X0592394Y0136500D01*
X0584606Y0136500D01*
X0579100Y0130994D01*
X0579100Y0129614D02*
X0495370Y0129614D01*
X0497569Y0127415D02*
X0501886Y0127415D01*
X0501100Y0125217D02*
X0499767Y0125217D01*
X0493198Y0123018D02*
X0366348Y0123018D01*
X0368024Y0125217D02*
X0480999Y0125217D01*
X0478801Y0127415D02*
X0368400Y0127415D01*
X0367763Y0129614D02*
X0380951Y0129614D01*
X0388365Y0131812D02*
X0419358Y0131812D01*
X0418600Y0134011D02*
X0389076Y0134011D01*
X0388865Y0136209D02*
X0418863Y0136209D01*
X0428137Y0136209D02*
X0434079Y0136209D01*
X0433800Y0134011D02*
X0428400Y0134011D01*
X0427642Y0131812D02*
X0434641Y0131812D01*
X0442359Y0131812D02*
X0444641Y0131812D01*
X0443800Y0134011D02*
X0443200Y0134011D01*
X0442921Y0136209D02*
X0444079Y0136209D01*
X0452921Y0136209D02*
X0454079Y0136209D01*
X0453800Y0134011D02*
X0453200Y0134011D01*
X0452359Y0131812D02*
X0454641Y0131812D01*
X0462359Y0131812D02*
X0464641Y0131812D01*
X0463800Y0134011D02*
X0463200Y0134011D01*
X0462921Y0136209D02*
X0464079Y0136209D01*
X0472321Y0142805D02*
X0378060Y0142805D01*
X0378400Y0145003D02*
X0381793Y0145003D01*
X0382525Y0144700D02*
X0384475Y0144700D01*
X0386276Y0145446D01*
X0387654Y0146824D01*
X0388400Y0148625D01*
X0388400Y0150575D01*
X0387654Y0152376D01*
X0386276Y0153754D01*
X0384475Y0154500D01*
X0382525Y0154500D01*
X0380724Y0153754D01*
X0379346Y0152376D01*
X0378600Y0150575D01*
X0378600Y0148625D01*
X0379346Y0146824D01*
X0380724Y0145446D01*
X0382525Y0144700D01*
X0385207Y0145003D02*
X0421793Y0145003D01*
X0419190Y0147202D02*
X0387810Y0147202D01*
X0388400Y0149400D02*
X0418600Y0149400D01*
X0419024Y0151599D02*
X0387976Y0151599D01*
X0386171Y0153797D02*
X0420829Y0153797D01*
X0428400Y0149400D02*
X0433600Y0149400D01*
X0433600Y0148625D02*
X0433600Y0150575D01*
X0434346Y0152376D01*
X0435724Y0153754D01*
X0437525Y0154500D01*
X0439475Y0154500D01*
X0441276Y0153754D01*
X0442654Y0152376D01*
X0443400Y0150575D01*
X0443400Y0148625D01*
X0442654Y0146824D01*
X0441276Y0145446D01*
X0439475Y0144700D01*
X0437525Y0144700D01*
X0435724Y0145446D01*
X0434346Y0146824D01*
X0433600Y0148625D01*
X0434190Y0147202D02*
X0427810Y0147202D01*
X0425207Y0145003D02*
X0436793Y0145003D01*
X0440207Y0145003D02*
X0446793Y0145003D01*
X0447525Y0144700D02*
X0449475Y0144700D01*
X0451276Y0145446D01*
X0452654Y0146824D01*
X0453400Y0148625D01*
X0453400Y0150575D01*
X0452654Y0152376D01*
X0451276Y0153754D01*
X0449475Y0154500D01*
X0447525Y0154500D01*
X0445724Y0153754D01*
X0444346Y0152376D01*
X0443600Y0150575D01*
X0443600Y0148625D01*
X0444346Y0146824D01*
X0445724Y0145446D01*
X0447525Y0144700D01*
X0450207Y0145003D02*
X0456793Y0145003D01*
X0457525Y0144700D02*
X0459475Y0144700D01*
X0461276Y0145446D01*
X0462654Y0146824D01*
X0463400Y0148625D01*
X0463400Y0150575D01*
X0462654Y0152376D01*
X0461276Y0153754D01*
X0459475Y0154500D01*
X0457525Y0154500D01*
X0455724Y0153754D01*
X0454346Y0152376D01*
X0453600Y0150575D01*
X0453600Y0148625D01*
X0454346Y0146824D01*
X0455724Y0145446D01*
X0457525Y0144700D01*
X0460207Y0145003D02*
X0474519Y0145003D01*
X0476718Y0147202D02*
X0462810Y0147202D01*
X0463400Y0149400D02*
X0478916Y0149400D01*
X0481115Y0151599D02*
X0462976Y0151599D01*
X0461171Y0153797D02*
X0513329Y0153797D01*
X0518671Y0153797D02*
X0543329Y0153797D01*
X0543224Y0153754D02*
X0545025Y0154500D01*
X0546975Y0154500D01*
X0548776Y0153754D01*
X0550154Y0152376D01*
X0550900Y0150575D01*
X0550900Y0148625D01*
X0550154Y0146824D01*
X0548776Y0145446D01*
X0546975Y0144700D01*
X0545025Y0144700D01*
X0543224Y0145446D01*
X0541846Y0146824D01*
X0541100Y0148625D01*
X0541100Y0150575D01*
X0541846Y0152376D01*
X0543224Y0153754D01*
X0541524Y0151599D02*
X0520476Y0151599D01*
X0520900Y0149400D02*
X0541100Y0149400D01*
X0541690Y0147202D02*
X0520310Y0147202D01*
X0517707Y0145003D02*
X0544293Y0145003D01*
X0545025Y0144500D02*
X0543224Y0143754D01*
X0541846Y0142376D01*
X0541100Y0140575D01*
X0541100Y0138625D01*
X0541846Y0136824D01*
X0543224Y0135446D01*
X0545025Y0134700D01*
X0546975Y0134700D01*
X0548776Y0135446D01*
X0550154Y0136824D01*
X0550900Y0138625D01*
X0550900Y0140575D01*
X0550154Y0142376D01*
X0548776Y0143754D01*
X0546975Y0144500D01*
X0545025Y0144500D01*
X0547707Y0145003D02*
X0627303Y0145003D01*
X0629502Y0142805D02*
X0549725Y0142805D01*
X0550887Y0140606D02*
X0640400Y0140606D01*
X0640400Y0138408D02*
X0550810Y0138408D01*
X0549539Y0136209D02*
X0584316Y0136209D01*
X0582117Y0134011D02*
X0493200Y0134011D01*
X0492921Y0136209D02*
X0502461Y0136209D01*
X0501846Y0136824D02*
X0503224Y0135446D01*
X0505025Y0134700D01*
X0506975Y0134700D01*
X0508776Y0135446D01*
X0510154Y0136824D01*
X0510900Y0138625D01*
X0510900Y0140575D01*
X0510154Y0142376D01*
X0508776Y0143754D01*
X0506975Y0144500D01*
X0505025Y0144500D01*
X0503224Y0143754D01*
X0501846Y0142376D01*
X0501100Y0140575D01*
X0501100Y0138625D01*
X0501846Y0136824D01*
X0501190Y0138408D02*
X0491339Y0138408D01*
X0481089Y0142805D02*
X0502275Y0142805D01*
X0501113Y0140606D02*
X0478890Y0140606D01*
X0483287Y0145003D02*
X0514293Y0145003D01*
X0509725Y0142805D02*
X0542275Y0142805D01*
X0541113Y0140606D02*
X0510887Y0140606D01*
X0510810Y0138408D02*
X0541190Y0138408D01*
X0542461Y0136209D02*
X0509539Y0136209D01*
X0510114Y0127415D02*
X0541886Y0127415D01*
X0541846Y0127376D02*
X0541100Y0125575D01*
X0541100Y0123625D01*
X0541846Y0121824D01*
X0543224Y0120446D01*
X0545025Y0119700D01*
X0546975Y0119700D01*
X0548776Y0120446D01*
X0550154Y0121824D01*
X0550900Y0123625D01*
X0550900Y0125575D01*
X0550154Y0127376D01*
X0548776Y0128754D01*
X0546975Y0129500D01*
X0545025Y0129500D01*
X0543224Y0128754D01*
X0541846Y0127376D01*
X0541100Y0125217D02*
X0510900Y0125217D01*
X0510648Y0123018D02*
X0541352Y0123018D01*
X0542851Y0120820D02*
X0509149Y0120820D01*
X0502851Y0120820D02*
X0501600Y0120820D01*
X0501600Y0118621D02*
X0583685Y0118621D01*
X0584629Y0116446D02*
X0583607Y0115954D01*
X0582646Y0115350D01*
X0581759Y0114643D01*
X0580957Y0113841D01*
X0580250Y0112954D01*
X0579646Y0111993D01*
X0579154Y0110971D01*
X0578779Y0109900D01*
X0578527Y0108794D01*
X0578400Y0107667D01*
X0578400Y0107476D01*
X0588124Y0107476D01*
X0588124Y0106724D01*
X0578400Y0106724D01*
X0578400Y0106533D01*
X0578527Y0105406D01*
X0578779Y0104300D01*
X0579154Y0103229D01*
X0579646Y0102207D01*
X0580250Y0101246D01*
X0580957Y0100359D01*
X0581759Y0099557D01*
X0582646Y0098850D01*
X0583607Y0098246D01*
X0584629Y0097754D01*
X0585700Y0097379D01*
X0586806Y0097127D01*
X0587933Y0097000D01*
X0588124Y0097000D01*
X0588124Y0106724D01*
X0588876Y0106724D01*
X0588876Y0107476D01*
X0588124Y0107476D01*
X0588124Y0117200D01*
X0587933Y0117200D01*
X0586806Y0117073D01*
X0585700Y0116821D01*
X0584629Y0116446D01*
X0584580Y0116423D02*
X0501600Y0116423D01*
X0501600Y0114224D02*
X0504359Y0114224D01*
X0507641Y0114224D02*
X0544359Y0114224D01*
X0545025Y0114500D02*
X0543224Y0113754D01*
X0541846Y0112376D01*
X0541100Y0110575D01*
X0541100Y0108625D01*
X0541846Y0106824D01*
X0543224Y0105446D01*
X0545025Y0104700D01*
X0546975Y0104700D01*
X0548776Y0105446D01*
X0550154Y0106824D01*
X0550900Y0108625D01*
X0550900Y0110575D01*
X0550154Y0112376D01*
X0548776Y0113754D01*
X0546975Y0114500D01*
X0545025Y0114500D01*
X0547641Y0114224D02*
X0581341Y0114224D01*
X0579667Y0112026D02*
X0550299Y0112026D01*
X0550900Y0109827D02*
X0578763Y0109827D01*
X0578400Y0107629D02*
X0550487Y0107629D01*
X0548737Y0105430D02*
X0578524Y0105430D01*
X0579153Y0103232D02*
X0501600Y0103232D01*
X0501600Y0105430D02*
X0503263Y0105430D01*
X0501600Y0101033D02*
X0513003Y0101033D01*
X0513224Y0101254D02*
X0511846Y0099876D01*
X0511100Y0098075D01*
X0511100Y0096125D01*
X0511846Y0094324D01*
X0513224Y0092946D01*
X0515025Y0092200D01*
X0516975Y0092200D01*
X0518776Y0092946D01*
X0520154Y0094324D01*
X0520900Y0096125D01*
X0520900Y0098075D01*
X0520154Y0099876D01*
X0518776Y0101254D01*
X0516975Y0102000D01*
X0515025Y0102000D01*
X0513224Y0101254D01*
X0511415Y0098834D02*
X0501600Y0098834D01*
X0501600Y0096636D02*
X0511100Y0096636D01*
X0511799Y0094437D02*
X0501600Y0094437D01*
X0501600Y0092239D02*
X0514931Y0092239D01*
X0517069Y0092239D02*
X0544931Y0092239D01*
X0545025Y0092200D02*
X0546975Y0092200D01*
X0548776Y0092946D01*
X0550154Y0094324D01*
X0550900Y0096125D01*
X0550900Y0098075D01*
X0550154Y0099876D01*
X0548776Y0101254D01*
X0546975Y0102000D01*
X0545025Y0102000D01*
X0543224Y0101254D01*
X0541846Y0099876D01*
X0541100Y0098075D01*
X0541100Y0096125D01*
X0541846Y0094324D01*
X0543224Y0092946D01*
X0545025Y0092200D01*
X0547069Y0092239D02*
X0640400Y0092239D01*
X0640400Y0094437D02*
X0550201Y0094437D01*
X0550900Y0096636D02*
X0640400Y0096636D01*
X0635119Y0098834D02*
X0631881Y0098834D01*
X0632484Y0099438D02*
X0633200Y0101165D01*
X0633200Y0103035D01*
X0632484Y0104762D01*
X0631162Y0106084D01*
X0629435Y0106800D01*
X0627565Y0106800D01*
X0625838Y0106084D01*
X0624516Y0104762D01*
X0623800Y0103035D01*
X0623800Y0101165D01*
X0624516Y0099438D01*
X0625838Y0098116D01*
X0627565Y0097400D01*
X0629435Y0097400D01*
X0631162Y0098116D01*
X0632484Y0099438D01*
X0633145Y0101033D02*
X0633855Y0101033D01*
X0633881Y0103232D02*
X0633119Y0103232D01*
X0631817Y0105430D02*
X0635183Y0105430D01*
X0640400Y0107629D02*
X0598600Y0107629D01*
X0598600Y0107667D02*
X0598473Y0108794D01*
X0598221Y0109900D01*
X0597846Y0110971D01*
X0597354Y0111993D01*
X0596750Y0112954D01*
X0596043Y0113841D01*
X0595241Y0114643D01*
X0594354Y0115350D01*
X0593393Y0115954D01*
X0592371Y0116446D01*
X0591300Y0116821D01*
X0590194Y0117073D01*
X0589067Y0117200D01*
X0588876Y0117200D01*
X0588876Y0107476D01*
X0598600Y0107476D01*
X0598600Y0107667D01*
X0598600Y0106724D02*
X0588876Y0106724D01*
X0588876Y0097000D01*
X0589067Y0097000D01*
X0590194Y0097127D01*
X0591300Y0097379D01*
X0592371Y0097754D01*
X0593393Y0098246D01*
X0594354Y0098850D01*
X0595241Y0099557D01*
X0596043Y0100359D01*
X0596750Y0101246D01*
X0597354Y0102207D01*
X0597846Y0103229D01*
X0598221Y0104300D01*
X0598473Y0105406D01*
X0598600Y0106533D01*
X0598600Y0106724D01*
X0598476Y0105430D02*
X0615183Y0105430D01*
X0615838Y0106084D02*
X0614516Y0104762D01*
X0613800Y0103035D01*
X0613800Y0101165D01*
X0614516Y0099438D01*
X0615838Y0098116D01*
X0617565Y0097400D01*
X0619435Y0097400D01*
X0621162Y0098116D01*
X0622484Y0099438D01*
X0623200Y0101165D01*
X0623200Y0103035D01*
X0622484Y0104762D01*
X0621162Y0106084D01*
X0619435Y0106800D01*
X0617565Y0106800D01*
X0615838Y0106084D01*
X0613881Y0103232D02*
X0597847Y0103232D01*
X0596580Y0101033D02*
X0613855Y0101033D01*
X0615119Y0098834D02*
X0594329Y0098834D01*
X0588876Y0098834D02*
X0588124Y0098834D01*
X0588124Y0101033D02*
X0588876Y0101033D01*
X0588876Y0103232D02*
X0588124Y0103232D01*
X0588124Y0105430D02*
X0588876Y0105430D01*
X0588876Y0107629D02*
X0588124Y0107629D01*
X0588124Y0109827D02*
X0588876Y0109827D01*
X0588876Y0112026D02*
X0588124Y0112026D01*
X0588124Y0114224D02*
X0588876Y0114224D01*
X0588876Y0116423D02*
X0588124Y0116423D01*
X0592420Y0116423D02*
X0640400Y0116423D01*
X0640400Y0118621D02*
X0593315Y0118621D01*
X0595513Y0120820D02*
X0640400Y0120820D01*
X0640400Y0123018D02*
X0597712Y0123018D01*
X0597900Y0125217D02*
X0640400Y0125217D01*
X0640400Y0127415D02*
X0597900Y0127415D01*
X0597900Y0129614D02*
X0640400Y0129614D01*
X0640400Y0131812D02*
X0597081Y0131812D01*
X0594883Y0134011D02*
X0640400Y0134011D01*
X0640400Y0136209D02*
X0592684Y0136209D01*
X0579100Y0127415D02*
X0550114Y0127415D01*
X0550900Y0125217D02*
X0579100Y0125217D01*
X0579288Y0123018D02*
X0550648Y0123018D01*
X0549149Y0120820D02*
X0581487Y0120820D01*
X0595659Y0114224D02*
X0640400Y0114224D01*
X0640400Y0112026D02*
X0597333Y0112026D01*
X0598237Y0109827D02*
X0640400Y0109827D01*
X0646600Y0109827D02*
X0662219Y0109827D01*
X0664781Y0109827D02*
X0698400Y0109827D01*
X0698400Y0107629D02*
X0690578Y0107629D01*
X0690765Y0107568D02*
X0689882Y0107855D01*
X0688964Y0108000D01*
X0688500Y0108000D01*
X0688500Y0102100D01*
X0694400Y0102100D01*
X0694400Y0102564D01*
X0694255Y0103482D01*
X0693968Y0104365D01*
X0693546Y0105192D01*
X0693000Y0105944D01*
X0692344Y0106600D01*
X0691592Y0107146D01*
X0690765Y0107568D01*
X0688500Y0107629D02*
X0688500Y0107629D01*
X0688500Y0108000D02*
X0688036Y0108000D01*
X0687118Y0107855D01*
X0686235Y0107568D01*
X0685408Y0107146D01*
X0684656Y0106600D01*
X0684000Y0105944D01*
X0683454Y0105192D01*
X0683119Y0104536D01*
X0682908Y0105046D01*
X0681446Y0106508D01*
X0679534Y0107300D01*
X0677466Y0107300D01*
X0675554Y0106508D01*
X0674092Y0105046D01*
X0673300Y0103134D01*
X0673300Y0101066D01*
X0674092Y0099154D01*
X0675554Y0097692D01*
X0677466Y0096900D01*
X0679534Y0096900D01*
X0681446Y0097692D01*
X0682908Y0099154D01*
X0683119Y0099664D01*
X0683454Y0099008D01*
X0684000Y0098256D01*
X0684656Y0097600D01*
X0685408Y0097054D01*
X0686235Y0096632D01*
X0687118Y0096345D01*
X0688036Y0096200D01*
X0688500Y0096200D01*
X0688964Y0096200D01*
X0689882Y0096345D01*
X0690765Y0096632D01*
X0691592Y0097054D01*
X0692344Y0097600D01*
X0693000Y0098256D01*
X0693546Y0099008D01*
X0693968Y0099835D01*
X0694255Y0100718D01*
X0694400Y0101636D01*
X0694400Y0102100D01*
X0688500Y0102100D01*
X0688500Y0102100D01*
X0688500Y0102100D01*
X0688500Y0096200D01*
X0688500Y0102100D01*
X0688500Y0102100D01*
X0688500Y0108000D01*
X0686422Y0107629D02*
X0646600Y0107629D01*
X0646600Y0105430D02*
X0674476Y0105430D01*
X0673340Y0103232D02*
X0646600Y0103232D01*
X0646600Y0101033D02*
X0673314Y0101033D01*
X0674412Y0098834D02*
X0646600Y0098834D01*
X0646600Y0096636D02*
X0686228Y0096636D01*
X0688500Y0096636D02*
X0688500Y0096636D01*
X0688500Y0098834D02*
X0688500Y0098834D01*
X0688500Y0101033D02*
X0688500Y0101033D01*
X0688500Y0103232D02*
X0688500Y0103232D01*
X0688500Y0105430D02*
X0688500Y0105430D01*
X0683627Y0105430D02*
X0682524Y0105430D01*
X0682588Y0098834D02*
X0683580Y0098834D01*
X0690772Y0096636D02*
X0698400Y0096636D01*
X0698400Y0098834D02*
X0693420Y0098834D01*
X0694305Y0101033D02*
X0698400Y0101033D01*
X0698400Y0103232D02*
X0694294Y0103232D01*
X0693373Y0105430D02*
X0698400Y0105430D01*
X0698400Y0112026D02*
X0667737Y0112026D01*
X0668400Y0114224D02*
X0698400Y0114224D01*
X0698400Y0116423D02*
X0668049Y0116423D01*
X0666409Y0118621D02*
X0698400Y0118621D01*
X0698400Y0120820D02*
X0646600Y0120820D01*
X0646600Y0123018D02*
X0698400Y0123018D01*
X0698400Y0125217D02*
X0646600Y0125217D01*
X0646600Y0127415D02*
X0698400Y0127415D01*
X0698400Y0129614D02*
X0646600Y0129614D01*
X0646600Y0131812D02*
X0698400Y0131812D01*
X0698400Y0134011D02*
X0646600Y0134011D01*
X0646600Y0136209D02*
X0698400Y0136209D01*
X0698400Y0138408D02*
X0646600Y0138408D01*
X0646600Y0140606D02*
X0698400Y0140606D01*
X0698400Y0142805D02*
X0667476Y0142805D01*
X0667371Y0142754D02*
X0668393Y0143246D01*
X0669354Y0143850D01*
X0670241Y0144557D01*
X0671043Y0145359D01*
X0671750Y0146246D01*
X0672354Y0147207D01*
X0672846Y0148229D01*
X0673221Y0149300D01*
X0673473Y0150406D01*
X0673600Y0151533D01*
X0673600Y0151724D01*
X0663876Y0151724D01*
X0663876Y0152476D01*
X0673600Y0152476D01*
X0673600Y0152667D01*
X0673473Y0153794D01*
X0673221Y0154900D01*
X0672846Y0155971D01*
X0672354Y0156993D01*
X0671750Y0157954D01*
X0671043Y0158841D01*
X0670241Y0159643D01*
X0669354Y0160350D01*
X0668393Y0160954D01*
X0667371Y0161446D01*
X0666300Y0161821D01*
X0665194Y0162073D01*
X0664067Y0162200D01*
X0663876Y0162200D01*
X0663876Y0152476D01*
X0663124Y0152476D01*
X0663124Y0151724D01*
X0663876Y0151724D01*
X0663876Y0142000D01*
X0664067Y0142000D01*
X0665194Y0142127D01*
X0666300Y0142379D01*
X0667371Y0142754D01*
X0663876Y0142805D02*
X0663124Y0142805D01*
X0663124Y0142000D02*
X0663124Y0151724D01*
X0653400Y0151724D01*
X0653400Y0151533D01*
X0653527Y0150406D01*
X0653779Y0149300D01*
X0654154Y0148229D01*
X0654646Y0147207D01*
X0655250Y0146246D01*
X0655957Y0145359D01*
X0656759Y0144557D01*
X0657646Y0143850D01*
X0658607Y0143246D01*
X0659629Y0142754D01*
X0660700Y0142379D01*
X0661806Y0142127D01*
X0662933Y0142000D01*
X0663124Y0142000D01*
X0663124Y0145003D02*
X0663876Y0145003D01*
X0663876Y0147202D02*
X0663124Y0147202D01*
X0663124Y0149400D02*
X0663876Y0149400D01*
X0663876Y0151599D02*
X0663124Y0151599D01*
X0663124Y0152476D02*
X0653400Y0152476D01*
X0653400Y0152667D01*
X0653527Y0153794D01*
X0653779Y0154900D01*
X0654154Y0155971D01*
X0654646Y0156993D01*
X0655250Y0157954D01*
X0655957Y0158841D01*
X0656759Y0159643D01*
X0657646Y0160350D01*
X0658607Y0160954D01*
X0659629Y0161446D01*
X0660700Y0161821D01*
X0661806Y0162073D01*
X0662933Y0162200D01*
X0663124Y0162200D01*
X0663124Y0152476D01*
X0663124Y0153797D02*
X0663876Y0153797D01*
X0663876Y0155996D02*
X0663124Y0155996D01*
X0663124Y0158194D02*
X0663876Y0158194D01*
X0663876Y0160393D02*
X0663124Y0160393D01*
X0657714Y0160393D02*
X0648501Y0160393D01*
X0650699Y0158194D02*
X0655442Y0158194D01*
X0654166Y0155996D02*
X0652898Y0155996D01*
X0652900Y0153797D02*
X0653528Y0153797D01*
X0653400Y0151599D02*
X0652900Y0151599D01*
X0652900Y0149400D02*
X0653756Y0149400D01*
X0654649Y0147202D02*
X0651895Y0147202D01*
X0649697Y0145003D02*
X0656313Y0145003D01*
X0659524Y0142805D02*
X0647498Y0142805D01*
X0639502Y0142805D02*
X0637498Y0142805D01*
X0625105Y0147202D02*
X0550310Y0147202D01*
X0550900Y0149400D02*
X0624100Y0149400D01*
X0624100Y0151599D02*
X0550476Y0151599D01*
X0548671Y0153797D02*
X0572421Y0153797D01*
X0572118Y0153845D02*
X0573036Y0153700D01*
X0573500Y0153700D01*
X0573964Y0153700D01*
X0574882Y0153845D01*
X0575765Y0154132D01*
X0576592Y0154554D01*
X0577344Y0155100D01*
X0578000Y0155756D01*
X0578546Y0156508D01*
X0578968Y0157335D01*
X0579255Y0158218D01*
X0579400Y0159136D01*
X0579400Y0159600D01*
X0579400Y0160064D01*
X0579255Y0160982D01*
X0578968Y0161865D01*
X0578546Y0162692D01*
X0578000Y0163444D01*
X0577344Y0164100D01*
X0576592Y0164646D01*
X0575765Y0165068D01*
X0574882Y0165355D01*
X0573964Y0165500D01*
X0573500Y0165500D01*
X0573500Y0159600D01*
X0579400Y0159600D01*
X0573500Y0159600D01*
X0573500Y0159600D01*
X0573500Y0159600D01*
X0573500Y0153700D01*
X0573500Y0159600D01*
X0573500Y0159600D01*
X0573500Y0159600D01*
X0567600Y0159600D01*
X0567600Y0160064D01*
X0567745Y0160982D01*
X0568032Y0161865D01*
X0568454Y0162692D01*
X0569000Y0163444D01*
X0569656Y0164100D01*
X0570408Y0164646D01*
X0571235Y0165068D01*
X0572118Y0165355D01*
X0573036Y0165500D01*
X0573500Y0165500D01*
X0573500Y0159600D01*
X0567600Y0159600D01*
X0567600Y0159136D01*
X0567745Y0158218D01*
X0568032Y0157335D01*
X0568454Y0156508D01*
X0569000Y0155756D01*
X0569656Y0155100D01*
X0570408Y0154554D01*
X0571235Y0154132D01*
X0572118Y0153845D01*
X0573500Y0153797D02*
X0573500Y0153797D01*
X0574579Y0153797D02*
X0624100Y0153797D01*
X0623485Y0155996D02*
X0617250Y0155996D01*
X0619448Y0158194D02*
X0621653Y0158194D01*
X0631526Y0162591D02*
X0698400Y0162591D01*
X0698400Y0160393D02*
X0669286Y0160393D01*
X0671558Y0158194D02*
X0698400Y0158194D01*
X0698400Y0155996D02*
X0672834Y0155996D01*
X0673472Y0153797D02*
X0698400Y0153797D01*
X0698400Y0151599D02*
X0673600Y0151599D01*
X0673244Y0149400D02*
X0698400Y0149400D01*
X0698400Y0147202D02*
X0672351Y0147202D01*
X0670687Y0145003D02*
X0698400Y0145003D01*
X0698400Y0164790D02*
X0629694Y0164790D01*
X0628242Y0166988D02*
X0698400Y0166988D01*
X0698400Y0169187D02*
X0630441Y0169187D01*
X0632639Y0171385D02*
X0679444Y0171385D01*
X0675895Y0173584D02*
X0634838Y0173584D01*
X0637036Y0175782D02*
X0673985Y0175782D01*
X0672802Y0177981D02*
X0639235Y0177981D01*
X0641433Y0180179D02*
X0672213Y0180179D01*
X0672101Y0182378D02*
X0643632Y0182378D01*
X0645830Y0184576D02*
X0672362Y0184576D01*
X0673036Y0186775D02*
X0648029Y0186775D01*
X0650227Y0188973D02*
X0674306Y0188973D01*
X0676451Y0191172D02*
X0651200Y0191172D01*
X0651200Y0193370D02*
X0677230Y0193370D01*
X0675031Y0195569D02*
X0651200Y0195569D01*
X0639917Y0193370D02*
X0484583Y0193370D01*
X0486782Y0191172D02*
X0637718Y0191172D01*
X0635520Y0188973D02*
X0514937Y0188973D01*
X0512063Y0188973D02*
X0488980Y0188973D01*
X0482385Y0195569D02*
X0595601Y0195569D01*
X0601399Y0195569D02*
X0635601Y0195569D01*
X0633321Y0186775D02*
X0611995Y0186775D01*
X0611935Y0186800D02*
X0610065Y0186800D01*
X0608338Y0186084D01*
X0607016Y0184762D01*
X0606300Y0183035D01*
X0606300Y0181165D01*
X0607016Y0179438D01*
X0608338Y0178116D01*
X0610065Y0177400D01*
X0611935Y0177400D01*
X0613662Y0178116D01*
X0614984Y0179438D01*
X0615700Y0181165D01*
X0615700Y0183035D01*
X0614984Y0184762D01*
X0613662Y0186084D01*
X0611935Y0186800D01*
X0610005Y0186775D02*
X0601995Y0186775D01*
X0601935Y0186800D02*
X0600065Y0186800D01*
X0598338Y0186084D01*
X0597016Y0184762D01*
X0596300Y0183035D01*
X0596300Y0181165D01*
X0597016Y0179438D01*
X0598338Y0178116D01*
X0600065Y0177400D01*
X0601935Y0177400D01*
X0603662Y0178116D01*
X0604984Y0179438D01*
X0605700Y0181165D01*
X0605700Y0183035D01*
X0604984Y0184762D01*
X0603662Y0186084D01*
X0601935Y0186800D01*
X0600005Y0186775D02*
X0591995Y0186775D01*
X0591935Y0186800D02*
X0590065Y0186800D01*
X0588338Y0186084D01*
X0587016Y0184762D01*
X0586300Y0183035D01*
X0586300Y0181165D01*
X0587016Y0179438D01*
X0588338Y0178116D01*
X0590065Y0177400D01*
X0591935Y0177400D01*
X0593662Y0178116D01*
X0594984Y0179438D01*
X0595700Y0181165D01*
X0595700Y0183035D01*
X0594984Y0184762D01*
X0593662Y0186084D01*
X0591935Y0186800D01*
X0590005Y0186775D02*
X0518583Y0186775D01*
X0519943Y0184576D02*
X0586939Y0184576D01*
X0586300Y0182378D02*
X0520400Y0182378D01*
X0520173Y0180179D02*
X0586708Y0180179D01*
X0588663Y0177981D02*
X0519139Y0177981D01*
X0516279Y0175782D02*
X0622328Y0175782D01*
X0620130Y0173584D02*
X0451868Y0173584D01*
X0454066Y0175782D02*
X0510721Y0175782D01*
X0485265Y0177981D02*
X0456265Y0177981D01*
X0458463Y0180179D02*
X0483067Y0180179D01*
X0480868Y0182378D02*
X0460662Y0182378D01*
X0462860Y0184576D02*
X0478670Y0184576D01*
X0476471Y0186775D02*
X0465059Y0186775D01*
X0467258Y0188973D02*
X0474273Y0188973D01*
X0472074Y0191172D02*
X0469456Y0191172D01*
X0462886Y0193370D02*
X0413277Y0193370D01*
X0413400Y0191172D02*
X0460688Y0191172D01*
X0458489Y0188973D02*
X0444937Y0188973D01*
X0442063Y0188973D02*
X0412303Y0188973D01*
X0411961Y0195569D02*
X0465085Y0195569D01*
X0456291Y0186775D02*
X0448583Y0186775D01*
X0449943Y0184576D02*
X0454092Y0184576D01*
X0451894Y0182378D02*
X0450400Y0182378D01*
X0449669Y0171385D02*
X0617931Y0171385D01*
X0615733Y0169187D02*
X0447471Y0169187D01*
X0445272Y0166988D02*
X0613534Y0166988D01*
X0592441Y0164790D02*
X0576310Y0164790D01*
X0573500Y0164790D02*
X0573500Y0164790D01*
X0573500Y0162591D02*
X0573500Y0162591D01*
X0573500Y0160393D02*
X0573500Y0160393D01*
X0573500Y0158194D02*
X0573500Y0158194D01*
X0573500Y0155996D02*
X0573500Y0155996D01*
X0578174Y0155996D02*
X0589750Y0155996D01*
X0588454Y0158194D02*
X0579247Y0158194D01*
X0579348Y0160393D02*
X0588300Y0160393D01*
X0589137Y0162591D02*
X0578598Y0162591D01*
X0570690Y0164790D02*
X0443074Y0164790D01*
X0440875Y0162591D02*
X0568402Y0162591D01*
X0567652Y0160393D02*
X0438677Y0160393D01*
X0436478Y0158194D02*
X0567753Y0158194D01*
X0568826Y0155996D02*
X0434280Y0155996D01*
X0435829Y0153797D02*
X0432081Y0153797D01*
X0434024Y0151599D02*
X0429883Y0151599D01*
X0441171Y0153797D02*
X0445829Y0153797D01*
X0444024Y0151599D02*
X0442976Y0151599D01*
X0443400Y0149400D02*
X0443600Y0149400D01*
X0444190Y0147202D02*
X0442810Y0147202D01*
X0452810Y0147202D02*
X0454190Y0147202D01*
X0453600Y0149400D02*
X0453400Y0149400D01*
X0452976Y0151599D02*
X0454024Y0151599D01*
X0455829Y0153797D02*
X0451171Y0153797D01*
X0432107Y0162591D02*
X0383200Y0162591D01*
X0382880Y0160393D02*
X0429909Y0160393D01*
X0434306Y0164790D02*
X0382457Y0164790D01*
X0382516Y0169187D02*
X0404483Y0169187D01*
X0403600Y0171385D02*
X0383400Y0171385D01*
X0383189Y0173584D02*
X0403811Y0173584D01*
X0405253Y0175782D02*
X0381747Y0175782D01*
X0375253Y0175782D02*
X0358355Y0175782D01*
X0357565Y0166800D02*
X0355838Y0166084D01*
X0354750Y0164997D01*
X0353662Y0166084D01*
X0351935Y0166800D01*
X0350065Y0166800D01*
X0348338Y0166084D01*
X0347016Y0164762D01*
X0346300Y0163035D01*
X0346300Y0161165D01*
X0347016Y0159438D01*
X0348338Y0158116D01*
X0350065Y0157400D01*
X0351935Y0157400D01*
X0353662Y0158116D01*
X0354750Y0159203D01*
X0355838Y0158116D01*
X0357565Y0157400D01*
X0359435Y0157400D01*
X0361162Y0158116D01*
X0362484Y0159438D01*
X0363200Y0161165D01*
X0363200Y0163035D01*
X0362484Y0164762D01*
X0361162Y0166084D01*
X0359435Y0166800D01*
X0357565Y0166800D01*
X0362457Y0164790D02*
X0364543Y0164790D01*
X0363800Y0162591D02*
X0363200Y0162591D01*
X0362880Y0160393D02*
X0364120Y0160393D01*
X0365759Y0158194D02*
X0361241Y0158194D01*
X0355759Y0158194D02*
X0353741Y0158194D01*
X0348259Y0158194D02*
X0343741Y0158194D01*
X0343662Y0158116D02*
X0344984Y0159438D01*
X0345700Y0161165D01*
X0345700Y0163035D01*
X0344984Y0164762D01*
X0343662Y0166084D01*
X0341935Y0166800D01*
X0340065Y0166800D01*
X0338338Y0166084D01*
X0337016Y0164762D01*
X0336300Y0163035D01*
X0336300Y0161165D01*
X0337016Y0159438D01*
X0338338Y0158116D01*
X0340065Y0157400D01*
X0341935Y0157400D01*
X0343662Y0158116D01*
X0345380Y0160393D02*
X0346620Y0160393D01*
X0346300Y0162591D02*
X0345700Y0162591D01*
X0344957Y0164790D02*
X0347043Y0164790D01*
X0337043Y0164790D02*
X0334957Y0164790D01*
X0335700Y0162591D02*
X0336300Y0162591D01*
X0336620Y0160393D02*
X0335380Y0160393D01*
X0333741Y0158194D02*
X0338259Y0158194D01*
X0326171Y0153797D02*
X0380829Y0153797D01*
X0379024Y0151599D02*
X0327976Y0151599D01*
X0328400Y0149400D02*
X0332285Y0149400D01*
X0334715Y0149400D02*
X0372285Y0149400D01*
X0374715Y0149400D02*
X0378600Y0149400D01*
X0379190Y0147202D02*
X0377726Y0147202D01*
X0369274Y0147202D02*
X0337726Y0147202D01*
X0338400Y0145003D02*
X0368600Y0145003D01*
X0368940Y0142805D02*
X0338060Y0142805D01*
X0328940Y0142805D02*
X0324679Y0142805D01*
X0325207Y0145003D02*
X0328600Y0145003D01*
X0329274Y0147202D02*
X0327810Y0147202D01*
X0318600Y0149400D02*
X0318084Y0149400D01*
X0319024Y0151599D02*
X0315885Y0151599D01*
X0313687Y0153797D02*
X0320829Y0153797D01*
X0299120Y0160393D02*
X0299100Y0160393D01*
X0287900Y0160393D02*
X0287880Y0160393D01*
X0287710Y0158194D02*
X0286241Y0158194D01*
X0280759Y0158194D02*
X0276241Y0158194D01*
X0277880Y0160393D02*
X0279120Y0160393D01*
X0278800Y0162591D02*
X0278200Y0162591D01*
X0277457Y0164790D02*
X0279543Y0164790D01*
X0291099Y0171385D02*
X0293401Y0171385D01*
X0295600Y0173584D02*
X0288900Y0173584D01*
X0286702Y0175782D02*
X0297798Y0175782D01*
X0281600Y0188973D02*
X0314273Y0188973D01*
X0313300Y0191172D02*
X0281600Y0191172D01*
X0281600Y0193370D02*
X0313398Y0193370D01*
X0314615Y0195569D02*
X0281600Y0195569D01*
X0275400Y0195569D02*
X0111399Y0195569D01*
X0105601Y0195569D02*
X0092900Y0195569D01*
X0092900Y0193370D02*
X0275400Y0193370D01*
X0275400Y0191172D02*
X0092900Y0191172D01*
X0084100Y0191172D02*
X0030549Y0191172D01*
X0029770Y0193370D02*
X0084100Y0193370D01*
X0084100Y0195569D02*
X0071399Y0195569D01*
X0065601Y0195569D02*
X0031969Y0195569D01*
X0032694Y0188973D02*
X0084100Y0188973D01*
X0084100Y0186775D02*
X0033964Y0186775D01*
X0034638Y0184576D02*
X0084100Y0184576D01*
X0084100Y0182378D02*
X0034899Y0182378D01*
X0034787Y0180179D02*
X0084100Y0180179D01*
X0084100Y0177981D02*
X0034198Y0177981D01*
X0033015Y0175782D02*
X0084100Y0175782D01*
X0084100Y0173584D02*
X0031105Y0173584D01*
X0027556Y0171385D02*
X0084100Y0171385D01*
X0084100Y0169187D02*
X0008600Y0169187D01*
X0008600Y0171385D02*
X0019444Y0171385D01*
X0015895Y0173584D02*
X0009984Y0173584D01*
X0012182Y0175782D02*
X0013985Y0175782D01*
X0008600Y0166988D02*
X0084100Y0166988D01*
X0084100Y0164790D02*
X0008600Y0164790D01*
X0008600Y0162591D02*
X0082769Y0162591D01*
X0080570Y0160393D02*
X0078043Y0160393D01*
X0088618Y0155996D02*
X0093382Y0155996D01*
X0091183Y0158194D02*
X0090817Y0158194D01*
X0086420Y0153797D02*
X0132421Y0153797D01*
X0132118Y0153845D02*
X0133036Y0153700D01*
X0133500Y0153700D01*
X0133500Y0159600D01*
X0127600Y0159600D01*
X0127600Y0159136D01*
X0127745Y0158218D01*
X0128032Y0157335D01*
X0128454Y0156508D01*
X0129000Y0155756D01*
X0129656Y0155100D01*
X0130408Y0154554D01*
X0131235Y0154132D01*
X0132118Y0153845D01*
X0133500Y0153797D02*
X0133500Y0153797D01*
X0134579Y0153797D02*
X0160829Y0153797D01*
X0160724Y0153754D02*
X0159346Y0152376D01*
X0158600Y0150575D01*
X0158600Y0148625D01*
X0159346Y0146824D01*
X0160724Y0145446D01*
X0162525Y0144700D01*
X0164475Y0144700D01*
X0166276Y0145446D01*
X0167654Y0146824D01*
X0168400Y0148625D01*
X0168400Y0150575D01*
X0167654Y0152376D01*
X0166276Y0153754D01*
X0164475Y0154500D01*
X0162525Y0154500D01*
X0160724Y0153754D01*
X0159024Y0151599D02*
X0084221Y0151599D01*
X0082556Y0149400D02*
X0158600Y0149400D01*
X0159190Y0147202D02*
X0081646Y0147202D01*
X0079697Y0145003D02*
X0161793Y0145003D01*
X0162525Y0144500D02*
X0160724Y0143754D01*
X0159346Y0142376D01*
X0158600Y0140575D01*
X0158600Y0138625D01*
X0159346Y0136824D01*
X0160724Y0135446D01*
X0162525Y0134700D01*
X0164475Y0134700D01*
X0166276Y0135446D01*
X0167654Y0136824D01*
X0168400Y0138625D01*
X0168400Y0140575D01*
X0167654Y0142376D01*
X0166276Y0143754D01*
X0164475Y0144500D01*
X0162525Y0144500D01*
X0165207Y0145003D02*
X0191793Y0145003D01*
X0192525Y0144700D02*
X0194475Y0144700D01*
X0196276Y0145446D01*
X0197654Y0146824D01*
X0198400Y0148625D01*
X0198400Y0150575D01*
X0197654Y0152376D01*
X0196276Y0153754D01*
X0194475Y0154500D01*
X0192525Y0154500D01*
X0190724Y0153754D01*
X0189346Y0152376D01*
X0188600Y0150575D01*
X0188600Y0148625D01*
X0189346Y0146824D01*
X0190724Y0145446D01*
X0192525Y0144700D01*
X0195207Y0145003D02*
X0244293Y0145003D01*
X0245025Y0144700D02*
X0246975Y0144700D01*
X0248776Y0145446D01*
X0250154Y0146824D01*
X0250900Y0148625D01*
X0250900Y0150575D01*
X0250154Y0152376D01*
X0248776Y0153754D01*
X0246975Y0154500D01*
X0245025Y0154500D01*
X0243224Y0153754D01*
X0241846Y0152376D01*
X0241100Y0150575D01*
X0241100Y0148625D01*
X0241846Y0146824D01*
X0243224Y0145446D01*
X0245025Y0144700D01*
X0247707Y0145003D02*
X0254293Y0145003D01*
X0255025Y0144700D02*
X0256975Y0144700D01*
X0258776Y0145446D01*
X0260154Y0146824D01*
X0260900Y0148625D01*
X0260900Y0150575D01*
X0260154Y0152376D01*
X0258776Y0153754D01*
X0256975Y0154500D01*
X0255025Y0154500D01*
X0253224Y0153754D01*
X0251846Y0152376D01*
X0251100Y0150575D01*
X0251100Y0148625D01*
X0251846Y0146824D01*
X0253224Y0145446D01*
X0255025Y0144700D01*
X0257707Y0145003D02*
X0264293Y0145003D01*
X0265025Y0144700D02*
X0266975Y0144700D01*
X0268776Y0145446D01*
X0270154Y0146824D01*
X0270900Y0148625D01*
X0270900Y0150575D01*
X0270154Y0152376D01*
X0268776Y0153754D01*
X0266975Y0154500D01*
X0265025Y0154500D01*
X0263224Y0153754D01*
X0261846Y0152376D01*
X0261100Y0150575D01*
X0261100Y0148625D01*
X0261846Y0146824D01*
X0263224Y0145446D01*
X0265025Y0144700D01*
X0267707Y0145003D02*
X0281793Y0145003D01*
X0279190Y0147202D02*
X0270310Y0147202D01*
X0270900Y0149400D02*
X0278600Y0149400D01*
X0279024Y0151599D02*
X0270476Y0151599D01*
X0268671Y0153797D02*
X0280829Y0153797D01*
X0263329Y0153797D02*
X0258671Y0153797D01*
X0260476Y0151599D02*
X0261524Y0151599D01*
X0261100Y0149400D02*
X0260900Y0149400D01*
X0260310Y0147202D02*
X0261690Y0147202D01*
X0259435Y0141800D02*
X0257565Y0141800D01*
X0255838Y0141084D01*
X0254516Y0139762D01*
X0253800Y0138035D01*
X0253800Y0136165D01*
X0254516Y0134438D01*
X0255838Y0133116D01*
X0257565Y0132400D01*
X0259435Y0132400D01*
X0261162Y0133116D01*
X0262484Y0134438D01*
X0263200Y0136165D01*
X0263200Y0138035D01*
X0262484Y0139762D01*
X0261162Y0141084D01*
X0259435Y0141800D01*
X0261641Y0140606D02*
X0265359Y0140606D01*
X0263954Y0138408D02*
X0263046Y0138408D01*
X0263200Y0136209D02*
X0263800Y0136209D01*
X0264943Y0134011D02*
X0262057Y0134011D01*
X0254943Y0134011D02*
X0252057Y0134011D01*
X0252484Y0134438D02*
X0253200Y0136165D01*
X0253200Y0138035D01*
X0252484Y0139762D01*
X0251162Y0141084D01*
X0249435Y0141800D01*
X0247565Y0141800D01*
X0245838Y0141084D01*
X0244516Y0139762D01*
X0243800Y0138035D01*
X0243800Y0136165D01*
X0244516Y0134438D01*
X0245838Y0133116D01*
X0247565Y0132400D01*
X0249435Y0132400D01*
X0251162Y0133116D01*
X0252484Y0134438D01*
X0253200Y0136209D02*
X0253800Y0136209D01*
X0253954Y0138408D02*
X0253046Y0138408D01*
X0251641Y0140606D02*
X0255359Y0140606D01*
X0251690Y0147202D02*
X0250310Y0147202D01*
X0250900Y0149400D02*
X0251100Y0149400D01*
X0251524Y0151599D02*
X0250476Y0151599D01*
X0248671Y0153797D02*
X0253329Y0153797D01*
X0243329Y0153797D02*
X0196171Y0153797D01*
X0197976Y0151599D02*
X0241524Y0151599D01*
X0241100Y0149400D02*
X0198400Y0149400D01*
X0197810Y0147202D02*
X0241690Y0147202D01*
X0241641Y0140606D02*
X0245359Y0140606D01*
X0243954Y0138408D02*
X0243046Y0138408D01*
X0243200Y0136209D02*
X0243800Y0136209D01*
X0244943Y0134011D02*
X0242057Y0134011D01*
X0239435Y0124300D02*
X0237565Y0124300D01*
X0235838Y0123584D01*
X0234516Y0122262D01*
X0233800Y0120535D01*
X0233800Y0118665D01*
X0234516Y0116938D01*
X0235838Y0115616D01*
X0237565Y0114900D01*
X0239435Y0114900D01*
X0241162Y0115616D01*
X0242484Y0116938D01*
X0243200Y0118665D01*
X0243200Y0120535D01*
X0242484Y0122262D01*
X0241162Y0123584D01*
X0239435Y0124300D01*
X0241729Y0123018D02*
X0245271Y0123018D01*
X0245838Y0123584D02*
X0244516Y0122262D01*
X0243800Y0120535D01*
X0243800Y0118665D01*
X0244516Y0116938D01*
X0245838Y0115616D01*
X0247565Y0114900D01*
X0249435Y0114900D01*
X0251162Y0115616D01*
X0252484Y0116938D01*
X0253200Y0118665D01*
X0253200Y0120535D01*
X0252484Y0122262D01*
X0251162Y0123584D01*
X0249435Y0124300D01*
X0247565Y0124300D01*
X0245838Y0123584D01*
X0243918Y0120820D02*
X0243082Y0120820D01*
X0243182Y0118621D02*
X0243818Y0118621D01*
X0245031Y0116423D02*
X0241969Y0116423D01*
X0235031Y0116423D02*
X0231969Y0116423D01*
X0233182Y0118621D02*
X0233818Y0118621D01*
X0233918Y0120820D02*
X0233082Y0120820D01*
X0231729Y0123018D02*
X0235271Y0123018D01*
X0251729Y0123018D02*
X0255271Y0123018D01*
X0253918Y0120820D02*
X0253082Y0120820D01*
X0253182Y0118621D02*
X0253818Y0118621D01*
X0255031Y0116423D02*
X0251969Y0116423D01*
X0255400Y0114224D02*
X0230008Y0114224D01*
X0227810Y0112026D02*
X0256690Y0112026D01*
X0256975Y0109500D02*
X0255025Y0109500D01*
X0253224Y0108754D01*
X0251846Y0107376D01*
X0251100Y0105575D01*
X0251100Y0103625D01*
X0251846Y0101824D01*
X0253224Y0100446D01*
X0255025Y0099700D01*
X0256975Y0099700D01*
X0258776Y0100446D01*
X0260154Y0101824D01*
X0260900Y0103625D01*
X0260900Y0105575D01*
X0260154Y0107376D01*
X0258776Y0108754D01*
X0256975Y0109500D01*
X0258889Y0109827D02*
X0225611Y0109827D01*
X0223413Y0107629D02*
X0242099Y0107629D01*
X0241846Y0107376D02*
X0241100Y0105575D01*
X0241100Y0103625D01*
X0241846Y0101824D01*
X0243224Y0100446D01*
X0245025Y0099700D01*
X0246975Y0099700D01*
X0248776Y0100446D01*
X0250154Y0101824D01*
X0250900Y0103625D01*
X0250900Y0105575D01*
X0250154Y0107376D01*
X0248776Y0108754D01*
X0246975Y0109500D01*
X0245025Y0109500D01*
X0243224Y0108754D01*
X0241846Y0107376D01*
X0241100Y0105430D02*
X0221600Y0105430D01*
X0221600Y0103232D02*
X0241263Y0103232D01*
X0242637Y0101033D02*
X0221600Y0101033D01*
X0221600Y0098834D02*
X0272900Y0098834D01*
X0272900Y0096636D02*
X0221600Y0096636D01*
X0221600Y0094437D02*
X0272900Y0094437D01*
X0272900Y0092239D02*
X0221600Y0092239D01*
X0221600Y0090040D02*
X0273675Y0090040D01*
X0275874Y0087842D02*
X0221600Y0087842D01*
X0221600Y0085643D02*
X0278073Y0085643D01*
X0280271Y0083445D02*
X0221600Y0083445D01*
X0221600Y0081246D02*
X0278878Y0081246D01*
X0278600Y0079048D02*
X0221600Y0079048D01*
X0221600Y0076849D02*
X0279336Y0076849D01*
X0287664Y0076849D02*
X0308616Y0076849D01*
X0308710Y0076665D02*
X0309229Y0075952D01*
X0309852Y0075329D01*
X0310565Y0074810D01*
X0311350Y0074410D01*
X0312189Y0074138D01*
X0313059Y0074000D01*
X0313500Y0074000D01*
X0313500Y0079600D01*
X0307900Y0079600D01*
X0307900Y0079159D01*
X0308038Y0078289D01*
X0308310Y0077450D01*
X0308710Y0076665D01*
X0307918Y0079048D02*
X0288400Y0079048D01*
X0288122Y0081246D02*
X0308147Y0081246D01*
X0313500Y0079048D02*
X0313500Y0079048D01*
X0313500Y0076849D02*
X0313500Y0076849D01*
X0313500Y0074651D02*
X0313500Y0074651D01*
X0316122Y0074651D02*
X0328600Y0074651D01*
X0328600Y0075575D02*
X0328600Y0073625D01*
X0329346Y0071824D01*
X0330724Y0070446D01*
X0332525Y0069700D01*
X0334475Y0069700D01*
X0336276Y0070446D01*
X0337654Y0071824D01*
X0338400Y0073625D01*
X0338400Y0075575D01*
X0337654Y0077376D01*
X0336276Y0078754D01*
X0334475Y0079500D01*
X0332525Y0079500D01*
X0330724Y0078754D01*
X0329346Y0077376D01*
X0328600Y0075575D01*
X0329128Y0076849D02*
X0318384Y0076849D01*
X0319082Y0079048D02*
X0331434Y0079048D01*
X0335566Y0079048D02*
X0371434Y0079048D01*
X0370724Y0078754D02*
X0369346Y0077376D01*
X0368600Y0075575D01*
X0368600Y0073625D01*
X0369346Y0071824D01*
X0370724Y0070446D01*
X0372525Y0069700D01*
X0374475Y0069700D01*
X0376276Y0070446D01*
X0377654Y0071824D01*
X0378400Y0073625D01*
X0378400Y0075575D01*
X0377654Y0077376D01*
X0376276Y0078754D01*
X0374475Y0079500D01*
X0372525Y0079500D01*
X0370724Y0078754D01*
X0369128Y0076849D02*
X0337872Y0076849D01*
X0338400Y0074651D02*
X0368600Y0074651D01*
X0369086Y0072452D02*
X0337914Y0072452D01*
X0335812Y0070254D02*
X0371188Y0070254D01*
X0375812Y0070254D02*
X0485400Y0070254D01*
X0485400Y0072452D02*
X0377914Y0072452D01*
X0378400Y0074651D02*
X0390878Y0074651D01*
X0390565Y0074810D02*
X0391350Y0074410D01*
X0392189Y0074138D01*
X0393059Y0074000D01*
X0393500Y0074000D01*
X0393500Y0079600D01*
X0387900Y0079600D01*
X0387900Y0079159D01*
X0388038Y0078289D01*
X0388310Y0077450D01*
X0388710Y0076665D01*
X0389229Y0075952D01*
X0389852Y0075329D01*
X0390565Y0074810D01*
X0388616Y0076849D02*
X0377872Y0076849D01*
X0375566Y0079048D02*
X0387918Y0079048D01*
X0388147Y0081246D02*
X0318853Y0081246D01*
X0310878Y0074651D02*
X0221600Y0074651D01*
X0221600Y0072452D02*
X0329086Y0072452D01*
X0331188Y0070254D02*
X0221600Y0070254D01*
X0221600Y0068055D02*
X0235026Y0068055D01*
X0234346Y0067376D02*
X0233600Y0065575D01*
X0233600Y0063625D01*
X0234346Y0061824D01*
X0235724Y0060446D01*
X0237525Y0059700D01*
X0239475Y0059700D01*
X0241276Y0060446D01*
X0242654Y0061824D01*
X0243400Y0063625D01*
X0243400Y0065575D01*
X0242654Y0067376D01*
X0241276Y0068754D01*
X0239475Y0069500D01*
X0237525Y0069500D01*
X0235724Y0068754D01*
X0234346Y0067376D01*
X0233717Y0065857D02*
X0221600Y0065857D01*
X0221600Y0063658D02*
X0233600Y0063658D01*
X0234711Y0061460D02*
X0221600Y0061460D01*
X0221600Y0059261D02*
X0339092Y0059261D01*
X0339346Y0059876D02*
X0338600Y0058075D01*
X0338600Y0056125D01*
X0339346Y0054324D01*
X0340724Y0052946D01*
X0342525Y0052200D01*
X0344475Y0052200D01*
X0346276Y0052946D01*
X0347654Y0054324D01*
X0348400Y0056125D01*
X0348400Y0058075D01*
X0347654Y0059876D01*
X0346276Y0061254D01*
X0344475Y0062000D01*
X0342525Y0062000D01*
X0340724Y0061254D01*
X0339346Y0059876D01*
X0341221Y0061460D02*
X0327289Y0061460D01*
X0327654Y0061824D02*
X0328400Y0063625D01*
X0328400Y0065575D01*
X0327654Y0067376D01*
X0326276Y0068754D01*
X0324475Y0069500D01*
X0322525Y0069500D01*
X0320724Y0068754D01*
X0319346Y0067376D01*
X0318600Y0065575D01*
X0318600Y0063625D01*
X0319346Y0061824D01*
X0320724Y0060446D01*
X0322525Y0059700D01*
X0324475Y0059700D01*
X0326276Y0060446D01*
X0327654Y0061824D01*
X0328400Y0063658D02*
X0378600Y0063658D01*
X0378600Y0063625D02*
X0379346Y0061824D01*
X0380724Y0060446D01*
X0382525Y0059700D01*
X0384016Y0059700D01*
X0389244Y0054472D01*
X0390383Y0054000D01*
X0442216Y0054000D01*
X0445400Y0050816D01*
X0445400Y0048147D01*
X0444516Y0047262D01*
X0443800Y0045535D01*
X0443800Y0043665D01*
X0444516Y0041938D01*
X0445838Y0040616D01*
X0447565Y0039900D01*
X0449435Y0039900D01*
X0451162Y0040616D01*
X0452484Y0041938D01*
X0453200Y0043665D01*
X0453200Y0045535D01*
X0452484Y0047262D01*
X0451600Y0048147D01*
X0451600Y0052717D01*
X0451128Y0053856D01*
X0446128Y0058856D01*
X0445256Y0059728D01*
X0444117Y0060200D01*
X0438182Y0060200D01*
X0438776Y0060446D01*
X0440154Y0061824D01*
X0440900Y0063625D01*
X0440900Y0065575D01*
X0440154Y0067376D01*
X0438776Y0068754D01*
X0436975Y0069500D01*
X0435025Y0069500D01*
X0433224Y0068754D01*
X0431846Y0067376D01*
X0431100Y0065575D01*
X0431100Y0063625D01*
X0431846Y0061824D01*
X0433224Y0060446D01*
X0433818Y0060200D01*
X0426971Y0060200D01*
X0427148Y0060329D01*
X0427771Y0060952D01*
X0428290Y0061665D01*
X0428690Y0062450D01*
X0428962Y0063289D01*
X0429100Y0064159D01*
X0429100Y0064600D01*
X0429100Y0065041D01*
X0428962Y0065911D01*
X0428690Y0066750D01*
X0428290Y0067535D01*
X0427771Y0068248D01*
X0427148Y0068871D01*
X0426435Y0069390D01*
X0425650Y0069790D01*
X0424811Y0070062D01*
X0423941Y0070200D01*
X0423500Y0070200D01*
X0423500Y0064600D01*
X0423500Y0064600D01*
X0429100Y0064600D01*
X0423500Y0064600D01*
X0423500Y0064600D01*
X0423500Y0064600D01*
X0417900Y0064600D01*
X0417900Y0065041D01*
X0418038Y0065911D01*
X0418310Y0066750D01*
X0418710Y0067535D01*
X0419229Y0068248D01*
X0419852Y0068871D01*
X0420565Y0069390D01*
X0421350Y0069790D01*
X0422189Y0070062D01*
X0423059Y0070200D01*
X0423500Y0070200D01*
X0423500Y0064600D01*
X0417900Y0064600D01*
X0417900Y0064159D01*
X0418038Y0063289D01*
X0418310Y0062450D01*
X0418710Y0061665D01*
X0419229Y0060952D01*
X0419852Y0060329D01*
X0420029Y0060200D01*
X0392284Y0060200D01*
X0388400Y0064084D01*
X0388400Y0065575D01*
X0387654Y0067376D01*
X0386276Y0068754D01*
X0384475Y0069500D01*
X0382525Y0069500D01*
X0380724Y0068754D01*
X0379346Y0067376D01*
X0378600Y0065575D01*
X0378600Y0063625D01*
X0378717Y0065857D02*
X0328283Y0065857D01*
X0326974Y0068055D02*
X0380026Y0068055D01*
X0386974Y0068055D02*
X0419088Y0068055D01*
X0418029Y0065857D02*
X0388283Y0065857D01*
X0388826Y0063658D02*
X0417979Y0063658D01*
X0418859Y0061460D02*
X0391024Y0061460D01*
X0384455Y0059261D02*
X0367908Y0059261D01*
X0367654Y0059876D02*
X0366276Y0061254D01*
X0364475Y0062000D01*
X0362525Y0062000D01*
X0360724Y0061254D01*
X0359346Y0059876D01*
X0358600Y0058075D01*
X0358600Y0056125D01*
X0359346Y0054324D01*
X0360724Y0052946D01*
X0362525Y0052200D01*
X0364475Y0052200D01*
X0366276Y0052946D01*
X0367654Y0054324D01*
X0368400Y0056125D01*
X0368400Y0058075D01*
X0367654Y0059876D01*
X0365779Y0061460D02*
X0379711Y0061460D01*
X0386653Y0057063D02*
X0368400Y0057063D01*
X0367878Y0054864D02*
X0388852Y0054864D01*
X0384475Y0044500D02*
X0382525Y0044500D01*
X0380724Y0043754D01*
X0379346Y0042376D01*
X0378864Y0041213D01*
X0378690Y0041750D01*
X0378290Y0042535D01*
X0377771Y0043248D01*
X0377148Y0043871D01*
X0376435Y0044390D01*
X0375650Y0044790D01*
X0374811Y0045062D01*
X0373941Y0045200D01*
X0373500Y0045200D01*
X0373500Y0039600D01*
X0373500Y0039600D01*
X0373500Y0034000D01*
X0373941Y0034000D01*
X0374811Y0034138D01*
X0375650Y0034410D01*
X0376435Y0034810D01*
X0377148Y0035329D01*
X0377771Y0035952D01*
X0378290Y0036665D01*
X0378690Y0037450D01*
X0378864Y0037987D01*
X0379346Y0036824D01*
X0380724Y0035446D01*
X0382525Y0034700D01*
X0384475Y0034700D01*
X0386276Y0035446D01*
X0387654Y0036824D01*
X0388400Y0038625D01*
X0388400Y0040575D01*
X0387654Y0042376D01*
X0386276Y0043754D01*
X0384475Y0044500D01*
X0385991Y0043872D02*
X0421009Y0043872D01*
X0420724Y0043754D02*
X0419346Y0042376D01*
X0418600Y0040575D01*
X0418600Y0038625D01*
X0419346Y0036824D01*
X0420724Y0035446D01*
X0422525Y0034700D01*
X0424475Y0034700D01*
X0426276Y0035446D01*
X0427654Y0036824D01*
X0428400Y0038625D01*
X0428400Y0040575D01*
X0427654Y0042376D01*
X0426276Y0043754D01*
X0424475Y0044500D01*
X0422525Y0044500D01*
X0420724Y0043754D01*
X0419055Y0041673D02*
X0387945Y0041673D01*
X0388400Y0039475D02*
X0418600Y0039475D01*
X0419159Y0037276D02*
X0387841Y0037276D01*
X0385386Y0035078D02*
X0421614Y0035078D01*
X0425386Y0035078D02*
X0492094Y0035078D01*
X0494292Y0037276D02*
X0427841Y0037276D01*
X0428400Y0039475D02*
X0495400Y0039475D01*
X0495400Y0041673D02*
X0492220Y0041673D01*
X0492484Y0041938D02*
X0493200Y0043665D01*
X0493200Y0045535D01*
X0492484Y0047262D01*
X0491600Y0048147D01*
X0491600Y0107717D01*
X0491128Y0108856D01*
X0490256Y0109728D01*
X0487584Y0112400D01*
X0489435Y0112400D01*
X0491162Y0113116D01*
X0492484Y0114438D01*
X0493200Y0116165D01*
X0493200Y0118035D01*
X0492484Y0119762D01*
X0491162Y0121084D01*
X0489435Y0121800D01*
X0487565Y0121800D01*
X0485838Y0121084D01*
X0484516Y0119762D01*
X0483800Y0118035D01*
X0483800Y0116184D01*
X0483200Y0116784D01*
X0483200Y0118035D01*
X0482484Y0119762D01*
X0481162Y0121084D01*
X0479435Y0121800D01*
X0477565Y0121800D01*
X0475838Y0121084D01*
X0474516Y0119762D01*
X0473800Y0118035D01*
X0473800Y0116165D01*
X0474516Y0114438D01*
X0475838Y0113116D01*
X0477565Y0112400D01*
X0478816Y0112400D01*
X0485400Y0105816D01*
X0485400Y0048147D01*
X0484516Y0047262D01*
X0483800Y0045535D01*
X0483800Y0043665D01*
X0484516Y0041938D01*
X0485838Y0040616D01*
X0487565Y0039900D01*
X0489435Y0039900D01*
X0491162Y0040616D01*
X0492484Y0041938D01*
X0493200Y0043872D02*
X0495400Y0043872D01*
X0495400Y0046070D02*
X0492978Y0046070D01*
X0491600Y0048269D02*
X0495400Y0048269D01*
X0495400Y0050467D02*
X0491600Y0050467D01*
X0491600Y0052666D02*
X0495400Y0052666D01*
X0495400Y0054864D02*
X0491600Y0054864D01*
X0491600Y0057063D02*
X0495400Y0057063D01*
X0495400Y0059261D02*
X0491600Y0059261D01*
X0491600Y0061460D02*
X0495400Y0061460D01*
X0495400Y0063658D02*
X0491600Y0063658D01*
X0491600Y0065857D02*
X0495400Y0065857D01*
X0495400Y0068055D02*
X0491600Y0068055D01*
X0491600Y0070254D02*
X0495400Y0070254D01*
X0495400Y0072452D02*
X0491600Y0072452D01*
X0491600Y0074651D02*
X0495400Y0074651D01*
X0495400Y0076849D02*
X0491600Y0076849D01*
X0491600Y0079048D02*
X0495400Y0079048D01*
X0495400Y0081246D02*
X0491600Y0081246D01*
X0491600Y0083445D02*
X0495400Y0083445D01*
X0495400Y0085643D02*
X0491600Y0085643D01*
X0491600Y0087842D02*
X0495400Y0087842D01*
X0495400Y0090040D02*
X0491600Y0090040D01*
X0491600Y0092239D02*
X0495400Y0092239D01*
X0495400Y0094437D02*
X0491600Y0094437D01*
X0491600Y0096636D02*
X0495400Y0096636D01*
X0495400Y0098834D02*
X0491600Y0098834D01*
X0491600Y0101033D02*
X0495400Y0101033D01*
X0495400Y0103232D02*
X0491600Y0103232D01*
X0491600Y0105430D02*
X0495400Y0105430D01*
X0495400Y0107629D02*
X0491600Y0107629D01*
X0490256Y0109728D02*
X0490256Y0109728D01*
X0490157Y0109827D02*
X0495400Y0109827D01*
X0495400Y0112026D02*
X0487958Y0112026D01*
X0492271Y0114224D02*
X0495400Y0114224D01*
X0495400Y0116423D02*
X0493200Y0116423D01*
X0492957Y0118621D02*
X0495400Y0118621D01*
X0495396Y0120820D02*
X0491427Y0120820D01*
X0485573Y0120820D02*
X0481427Y0120820D01*
X0482957Y0118621D02*
X0484043Y0118621D01*
X0483800Y0116423D02*
X0483561Y0116423D01*
X0474729Y0114224D02*
X0472271Y0114224D01*
X0472484Y0114438D02*
X0473200Y0116165D01*
X0473200Y0118035D01*
X0472484Y0119762D01*
X0471162Y0121084D01*
X0469435Y0121800D01*
X0467565Y0121800D01*
X0465838Y0121084D01*
X0464516Y0119762D01*
X0463800Y0118035D01*
X0463800Y0116165D01*
X0464516Y0114438D01*
X0465838Y0113116D01*
X0467565Y0112400D01*
X0469435Y0112400D01*
X0471162Y0113116D01*
X0472484Y0114438D01*
X0473200Y0116423D02*
X0473800Y0116423D01*
X0474043Y0118621D02*
X0472957Y0118621D01*
X0471427Y0120820D02*
X0475573Y0120820D01*
X0465573Y0120820D02*
X0461427Y0120820D01*
X0461162Y0121084D02*
X0459435Y0121800D01*
X0457565Y0121800D01*
X0455838Y0121084D01*
X0454516Y0119762D01*
X0453800Y0118035D01*
X0453800Y0116165D01*
X0454516Y0114438D01*
X0455838Y0113116D01*
X0457565Y0112400D01*
X0459435Y0112400D01*
X0461162Y0113116D01*
X0462484Y0114438D01*
X0463200Y0116165D01*
X0463200Y0118035D01*
X0462484Y0119762D01*
X0461162Y0121084D01*
X0462957Y0118621D02*
X0464043Y0118621D01*
X0463800Y0116423D02*
X0463200Y0116423D01*
X0462271Y0114224D02*
X0464729Y0114224D01*
X0454729Y0114224D02*
X0452271Y0114224D01*
X0452484Y0114438D02*
X0453200Y0116165D01*
X0453200Y0118035D01*
X0452484Y0119762D01*
X0451162Y0121084D01*
X0449435Y0121800D01*
X0447565Y0121800D01*
X0445838Y0121084D01*
X0444516Y0119762D01*
X0443800Y0118035D01*
X0443800Y0116165D01*
X0444516Y0114438D01*
X0445838Y0113116D01*
X0447565Y0112400D01*
X0449435Y0112400D01*
X0451162Y0113116D01*
X0452484Y0114438D01*
X0453200Y0116423D02*
X0453800Y0116423D01*
X0454043Y0118621D02*
X0452957Y0118621D01*
X0451427Y0120820D02*
X0455573Y0120820D01*
X0445573Y0120820D02*
X0441427Y0120820D01*
X0441162Y0121084D02*
X0439435Y0121800D01*
X0437565Y0121800D01*
X0435838Y0121084D01*
X0434516Y0119762D01*
X0433800Y0118035D01*
X0433800Y0116165D01*
X0434516Y0114438D01*
X0435838Y0113116D01*
X0437565Y0112400D01*
X0439435Y0112400D01*
X0441162Y0113116D01*
X0442484Y0114438D01*
X0443200Y0116165D01*
X0443200Y0118035D01*
X0442484Y0119762D01*
X0441162Y0121084D01*
X0442957Y0118621D02*
X0444043Y0118621D01*
X0443800Y0116423D02*
X0443200Y0116423D01*
X0442271Y0114224D02*
X0444729Y0114224D01*
X0447525Y0107000D02*
X0445724Y0106254D01*
X0444346Y0104876D01*
X0443600Y0103075D01*
X0443600Y0101125D01*
X0444346Y0099324D01*
X0445724Y0097946D01*
X0447525Y0097200D01*
X0449475Y0097200D01*
X0451276Y0097946D01*
X0452654Y0099324D01*
X0453400Y0101125D01*
X0453400Y0103075D01*
X0452654Y0104876D01*
X0451276Y0106254D01*
X0449475Y0107000D01*
X0447525Y0107000D01*
X0444900Y0105430D02*
X0442100Y0105430D01*
X0442654Y0104876D02*
X0441276Y0106254D01*
X0439475Y0107000D01*
X0437525Y0107000D01*
X0435724Y0106254D01*
X0434346Y0104876D01*
X0433600Y0103075D01*
X0433600Y0101125D01*
X0434346Y0099324D01*
X0435724Y0097946D01*
X0437525Y0097200D01*
X0439475Y0097200D01*
X0441276Y0097946D01*
X0442654Y0099324D01*
X0443400Y0101125D01*
X0443400Y0103075D01*
X0442654Y0104876D01*
X0443335Y0103232D02*
X0443665Y0103232D01*
X0443638Y0101033D02*
X0443362Y0101033D01*
X0442164Y0098834D02*
X0444836Y0098834D01*
X0447169Y0096636D02*
X0427960Y0096636D01*
X0427654Y0097376D02*
X0428400Y0095575D01*
X0428400Y0093625D01*
X0427654Y0091824D01*
X0426276Y0090446D01*
X0424475Y0089700D01*
X0422525Y0089700D01*
X0420724Y0090446D01*
X0419346Y0091824D01*
X0418600Y0093625D01*
X0418600Y0095575D01*
X0419346Y0097376D01*
X0420724Y0098754D01*
X0422525Y0099500D01*
X0424475Y0099500D01*
X0426276Y0098754D01*
X0427654Y0097376D01*
X0426081Y0098834D02*
X0434836Y0098834D01*
X0433638Y0101033D02*
X0351600Y0101033D01*
X0351600Y0103232D02*
X0433665Y0103232D01*
X0434900Y0105430D02*
X0377250Y0105430D01*
X0377148Y0105329D02*
X0377771Y0105952D01*
X0378290Y0106665D01*
X0378690Y0107450D01*
X0378962Y0108289D01*
X0379100Y0109159D01*
X0379100Y0109600D01*
X0379100Y0110041D01*
X0378962Y0110911D01*
X0378690Y0111750D01*
X0378290Y0112535D01*
X0377771Y0113248D01*
X0377148Y0113871D01*
X0376435Y0114390D01*
X0375650Y0114790D01*
X0374811Y0115062D01*
X0373941Y0115200D01*
X0373500Y0115200D01*
X0373500Y0109600D01*
X0379100Y0109600D01*
X0373500Y0109600D01*
X0373500Y0109600D01*
X0373500Y0109600D01*
X0373500Y0104000D01*
X0373941Y0104000D01*
X0374811Y0104138D01*
X0375650Y0104410D01*
X0376435Y0104810D01*
X0377148Y0105329D01*
X0378748Y0107629D02*
X0483587Y0107629D01*
X0485400Y0105430D02*
X0462100Y0105430D01*
X0462654Y0104876D02*
X0461276Y0106254D01*
X0459475Y0107000D01*
X0457525Y0107000D01*
X0455724Y0106254D01*
X0454346Y0104876D01*
X0453600Y0103075D01*
X0453600Y0101125D01*
X0454346Y0099324D01*
X0455724Y0097946D01*
X0457525Y0097200D01*
X0459475Y0097200D01*
X0461276Y0097946D01*
X0462654Y0099324D01*
X0463400Y0101125D01*
X0463400Y0103075D01*
X0462654Y0104876D01*
X0463335Y0103232D02*
X0485400Y0103232D01*
X0485400Y0101033D02*
X0463362Y0101033D01*
X0462164Y0098834D02*
X0485400Y0098834D01*
X0485400Y0096636D02*
X0449831Y0096636D01*
X0452164Y0098834D02*
X0454836Y0098834D01*
X0453638Y0101033D02*
X0453362Y0101033D01*
X0453335Y0103232D02*
X0453665Y0103232D01*
X0454900Y0105430D02*
X0452100Y0105430D01*
X0452619Y0094437D02*
X0485400Y0094437D01*
X0485400Y0092239D02*
X0453200Y0092239D01*
X0452734Y0090040D02*
X0485400Y0090040D01*
X0485400Y0087842D02*
X0476905Y0087842D01*
X0477484Y0087262D02*
X0476162Y0088584D01*
X0474435Y0089300D01*
X0472565Y0089300D01*
X0470838Y0088584D01*
X0469516Y0087262D01*
X0468800Y0085535D01*
X0468800Y0083665D01*
X0469516Y0081938D01*
X0470838Y0080616D01*
X0472565Y0079900D01*
X0474435Y0079900D01*
X0476162Y0080616D01*
X0477484Y0081938D01*
X0478200Y0083665D01*
X0478200Y0085535D01*
X0477484Y0087262D01*
X0478155Y0085643D02*
X0485400Y0085643D01*
X0485400Y0083445D02*
X0478109Y0083445D01*
X0476793Y0081246D02*
X0485400Y0081246D01*
X0485400Y0079048D02*
X0428400Y0079048D01*
X0428122Y0081246D02*
X0440207Y0081246D01*
X0446793Y0081246D02*
X0450207Y0081246D01*
X0448891Y0083445D02*
X0448109Y0083445D01*
X0448155Y0085643D02*
X0448845Y0085643D01*
X0444266Y0090040D02*
X0425297Y0090040D01*
X0427826Y0092239D02*
X0443800Y0092239D01*
X0444381Y0094437D02*
X0428400Y0094437D01*
X0420919Y0098834D02*
X0386081Y0098834D01*
X0386276Y0098754D02*
X0384475Y0099500D01*
X0382525Y0099500D01*
X0380724Y0098754D01*
X0379346Y0097376D01*
X0378600Y0095575D01*
X0378600Y0093625D01*
X0379346Y0091824D01*
X0380724Y0090446D01*
X0382525Y0089700D01*
X0384475Y0089700D01*
X0386276Y0090446D01*
X0387654Y0091824D01*
X0388400Y0093625D01*
X0388400Y0095575D01*
X0387654Y0097376D01*
X0386276Y0098754D01*
X0387960Y0096636D02*
X0419040Y0096636D01*
X0418600Y0094437D02*
X0388400Y0094437D01*
X0387826Y0092239D02*
X0419174Y0092239D01*
X0421703Y0090040D02*
X0385297Y0090040D01*
X0381703Y0090040D02*
X0367951Y0090040D01*
X0368400Y0092239D02*
X0379174Y0092239D01*
X0378600Y0094437D02*
X0367835Y0094437D01*
X0365353Y0096636D02*
X0379040Y0096636D01*
X0380919Y0098834D02*
X0352195Y0098834D01*
X0355353Y0096636D02*
X0361647Y0096636D01*
X0359165Y0094437D02*
X0357835Y0094437D01*
X0358400Y0092239D02*
X0358600Y0092239D01*
X0359049Y0090040D02*
X0357951Y0090040D01*
X0356024Y0087842D02*
X0360976Y0087842D01*
X0366024Y0087842D02*
X0440095Y0087842D01*
X0456905Y0087842D02*
X0470095Y0087842D01*
X0468845Y0085643D02*
X0458155Y0085643D01*
X0458109Y0083445D02*
X0468891Y0083445D01*
X0470207Y0081246D02*
X0456793Y0081246D01*
X0463224Y0068754D02*
X0461846Y0067376D01*
X0461100Y0065575D01*
X0461100Y0063625D01*
X0461846Y0061824D01*
X0463224Y0060446D01*
X0465025Y0059700D01*
X0466975Y0059700D01*
X0468776Y0060446D01*
X0470154Y0061824D01*
X0470900Y0063625D01*
X0470900Y0065575D01*
X0470154Y0067376D01*
X0468776Y0068754D01*
X0466975Y0069500D01*
X0465025Y0069500D01*
X0463224Y0068754D01*
X0462526Y0068055D02*
X0439474Y0068055D01*
X0440783Y0065857D02*
X0461217Y0065857D01*
X0461100Y0063658D02*
X0440900Y0063658D01*
X0439789Y0061460D02*
X0462211Y0061460D01*
X0469789Y0061460D02*
X0485400Y0061460D01*
X0485400Y0063658D02*
X0470900Y0063658D01*
X0470783Y0065857D02*
X0485400Y0065857D01*
X0485400Y0068055D02*
X0469474Y0068055D01*
X0485400Y0074651D02*
X0396122Y0074651D01*
X0393500Y0074651D02*
X0393500Y0074651D01*
X0393500Y0076849D02*
X0393500Y0076849D01*
X0393500Y0079048D02*
X0393500Y0079048D01*
X0398384Y0076849D02*
X0419336Y0076849D01*
X0418600Y0079048D02*
X0399082Y0079048D01*
X0398853Y0081246D02*
X0418878Y0081246D01*
X0427664Y0076849D02*
X0485400Y0076849D01*
X0501600Y0076849D02*
X0512104Y0076849D01*
X0512016Y0076938D02*
X0513338Y0075616D01*
X0515065Y0074900D01*
X0516935Y0074900D01*
X0518662Y0075616D01*
X0519984Y0076938D01*
X0520700Y0078665D01*
X0520700Y0080535D01*
X0519984Y0082262D01*
X0519692Y0082554D01*
X0520065Y0082400D01*
X0521935Y0082400D01*
X0522308Y0082554D01*
X0522016Y0082262D01*
X0521300Y0080535D01*
X0521300Y0078665D01*
X0522016Y0076938D01*
X0523338Y0075616D01*
X0525065Y0074900D01*
X0526935Y0074900D01*
X0528662Y0075616D01*
X0529984Y0076938D01*
X0530700Y0078665D01*
X0530700Y0080535D01*
X0529984Y0082262D01*
X0528662Y0083584D01*
X0526935Y0084300D01*
X0525065Y0084300D01*
X0524692Y0084146D01*
X0524984Y0084438D01*
X0525700Y0086165D01*
X0525700Y0088035D01*
X0524984Y0089762D01*
X0523662Y0091084D01*
X0521935Y0091800D01*
X0520065Y0091800D01*
X0518338Y0091084D01*
X0517016Y0089762D01*
X0516300Y0088035D01*
X0516300Y0086165D01*
X0517016Y0084438D01*
X0517308Y0084146D01*
X0516935Y0084300D01*
X0515065Y0084300D01*
X0513338Y0083584D01*
X0512016Y0082262D01*
X0511300Y0080535D01*
X0511300Y0078665D01*
X0512016Y0076938D01*
X0511300Y0079048D02*
X0501600Y0079048D01*
X0501600Y0081246D02*
X0511595Y0081246D01*
X0513198Y0083445D02*
X0501600Y0083445D01*
X0501600Y0085643D02*
X0516516Y0085643D01*
X0516300Y0087842D02*
X0501600Y0087842D01*
X0501600Y0090040D02*
X0517294Y0090040D01*
X0524706Y0090040D02*
X0640400Y0090040D01*
X0639812Y0087842D02*
X0617188Y0087842D01*
X0617654Y0087376D02*
X0616276Y0088754D01*
X0614475Y0089500D01*
X0612525Y0089500D01*
X0610724Y0088754D01*
X0609346Y0087376D01*
X0608600Y0085575D01*
X0608600Y0083625D01*
X0609346Y0081824D01*
X0610724Y0080446D01*
X0612525Y0079700D01*
X0614475Y0079700D01*
X0616276Y0080446D01*
X0617654Y0081824D01*
X0618400Y0083625D01*
X0618400Y0085575D01*
X0617654Y0087376D01*
X0618372Y0085643D02*
X0638628Y0085643D01*
X0638675Y0083445D02*
X0618325Y0083445D01*
X0617076Y0081246D02*
X0639924Y0081246D01*
X0647076Y0081246D02*
X0698400Y0081246D01*
X0698400Y0079048D02*
X0665566Y0079048D01*
X0666276Y0078754D02*
X0664475Y0079500D01*
X0662525Y0079500D01*
X0660724Y0078754D01*
X0659346Y0077376D01*
X0658600Y0075575D01*
X0658600Y0073625D01*
X0659346Y0071824D01*
X0660724Y0070446D01*
X0662525Y0069700D01*
X0664475Y0069700D01*
X0666276Y0070446D01*
X0667654Y0071824D01*
X0668400Y0073625D01*
X0668400Y0075575D01*
X0667654Y0077376D01*
X0666276Y0078754D01*
X0667872Y0076849D02*
X0698400Y0076849D01*
X0698400Y0074651D02*
X0668400Y0074651D01*
X0667914Y0072452D02*
X0698400Y0072452D01*
X0698400Y0070254D02*
X0665812Y0070254D01*
X0661188Y0070254D02*
X0656993Y0070254D01*
X0657484Y0069762D02*
X0656162Y0071084D01*
X0654435Y0071800D01*
X0652565Y0071800D01*
X0650838Y0071084D01*
X0649516Y0069762D01*
X0648800Y0068035D01*
X0648800Y0066165D01*
X0649516Y0064438D01*
X0650838Y0063116D01*
X0652565Y0062400D01*
X0654435Y0062400D01*
X0656162Y0063116D01*
X0657484Y0064438D01*
X0658200Y0066165D01*
X0658200Y0068035D01*
X0657484Y0069762D01*
X0658192Y0068055D02*
X0698400Y0068055D01*
X0698400Y0065857D02*
X0658072Y0065857D01*
X0656705Y0063658D02*
X0698400Y0063658D01*
X0698400Y0061460D02*
X0608592Y0061460D01*
X0608600Y0061533D02*
X0608600Y0061724D01*
X0598876Y0061724D01*
X0598876Y0062476D01*
X0608600Y0062476D01*
X0608600Y0062667D01*
X0608473Y0063794D01*
X0608221Y0064900D01*
X0607846Y0065971D01*
X0607354Y0066993D01*
X0606750Y0067954D01*
X0606043Y0068841D01*
X0605241Y0069643D01*
X0604354Y0070350D01*
X0603393Y0070954D01*
X0602371Y0071446D01*
X0601300Y0071821D01*
X0600194Y0072073D01*
X0599067Y0072200D01*
X0598876Y0072200D01*
X0598876Y0062476D01*
X0598124Y0062476D01*
X0598124Y0061724D01*
X0598876Y0061724D01*
X0598876Y0052000D01*
X0599067Y0052000D01*
X0600194Y0052127D01*
X0601300Y0052379D01*
X0602371Y0052754D01*
X0603393Y0053246D01*
X0604354Y0053850D01*
X0605241Y0054557D01*
X0606043Y0055359D01*
X0606750Y0056246D01*
X0607354Y0057207D01*
X0607846Y0058229D01*
X0608221Y0059300D01*
X0608473Y0060406D01*
X0608600Y0061533D01*
X0608488Y0063658D02*
X0620295Y0063658D01*
X0620838Y0063116D02*
X0622565Y0062400D01*
X0624435Y0062400D01*
X0626162Y0063116D01*
X0627484Y0064438D01*
X0628200Y0066165D01*
X0628200Y0068035D01*
X0627484Y0069762D01*
X0627192Y0070054D01*
X0627565Y0069900D01*
X0629435Y0069900D01*
X0629808Y0070054D01*
X0629516Y0069762D01*
X0628800Y0068035D01*
X0628800Y0066165D01*
X0629516Y0064438D01*
X0630838Y0063116D01*
X0632565Y0062400D01*
X0634435Y0062400D01*
X0636162Y0063116D01*
X0637484Y0064438D01*
X0638200Y0066165D01*
X0638200Y0068035D01*
X0637484Y0069762D01*
X0636162Y0071084D01*
X0634435Y0071800D01*
X0632565Y0071800D01*
X0632192Y0071646D01*
X0632484Y0071938D01*
X0633200Y0073665D01*
X0633200Y0075535D01*
X0632484Y0077262D01*
X0631162Y0078584D01*
X0629435Y0079300D01*
X0627565Y0079300D01*
X0625838Y0078584D01*
X0624516Y0077262D01*
X0623800Y0075535D01*
X0623800Y0073665D01*
X0624516Y0071938D01*
X0624808Y0071646D01*
X0624435Y0071800D01*
X0622565Y0071800D01*
X0620838Y0071084D01*
X0619516Y0069762D01*
X0618800Y0068035D01*
X0618800Y0066165D01*
X0619516Y0064438D01*
X0620838Y0063116D01*
X0618928Y0065857D02*
X0607886Y0065857D01*
X0606669Y0068055D02*
X0618808Y0068055D01*
X0620007Y0070254D02*
X0604475Y0070254D01*
X0598876Y0070254D02*
X0598124Y0070254D01*
X0598124Y0072200D02*
X0597933Y0072200D01*
X0596806Y0072073D01*
X0595700Y0071821D01*
X0594629Y0071446D01*
X0593607Y0070954D01*
X0592646Y0070350D01*
X0591759Y0069643D01*
X0590957Y0068841D01*
X0590250Y0067954D01*
X0589646Y0066993D01*
X0589154Y0065971D01*
X0588779Y0064900D01*
X0588527Y0063794D01*
X0588400Y0062667D01*
X0588400Y0062476D01*
X0598124Y0062476D01*
X0598124Y0072200D01*
X0598124Y0068055D02*
X0598876Y0068055D01*
X0598876Y0065857D02*
X0598124Y0065857D01*
X0598124Y0063658D02*
X0598876Y0063658D01*
X0598124Y0061724D02*
X0588400Y0061724D01*
X0588400Y0061533D01*
X0588527Y0060406D01*
X0588779Y0059300D01*
X0589154Y0058229D01*
X0589646Y0057207D01*
X0590250Y0056246D01*
X0590957Y0055359D01*
X0591759Y0054557D01*
X0592646Y0053850D01*
X0593607Y0053246D01*
X0594629Y0052754D01*
X0595700Y0052379D01*
X0596806Y0052127D01*
X0597933Y0052000D01*
X0598124Y0052000D01*
X0598124Y0061724D01*
X0598124Y0061460D02*
X0598876Y0061460D01*
X0598876Y0059261D02*
X0598124Y0059261D01*
X0598124Y0057063D02*
X0598876Y0057063D01*
X0598876Y0054864D02*
X0598124Y0054864D01*
X0598124Y0052666D02*
X0598876Y0052666D01*
X0602119Y0052666D02*
X0698400Y0052666D01*
X0698400Y0054864D02*
X0605548Y0054864D01*
X0607263Y0057063D02*
X0698400Y0057063D01*
X0698400Y0059261D02*
X0608207Y0059261D01*
X0594881Y0052666D02*
X0501600Y0052666D01*
X0501600Y0054864D02*
X0572442Y0054864D01*
X0574606Y0052700D02*
X0569100Y0058206D01*
X0569100Y0065994D01*
X0574606Y0071500D01*
X0582394Y0071500D01*
X0587900Y0065994D01*
X0587900Y0058206D01*
X0582394Y0052700D01*
X0574606Y0052700D01*
X0570244Y0057063D02*
X0550036Y0057063D01*
X0549984Y0056938D02*
X0550700Y0058665D01*
X0550700Y0060535D01*
X0549984Y0062262D01*
X0548662Y0063584D01*
X0546935Y0064300D01*
X0545065Y0064300D01*
X0543338Y0063584D01*
X0542016Y0062262D01*
X0541300Y0060535D01*
X0541300Y0058665D01*
X0542016Y0056938D01*
X0543338Y0055616D01*
X0545065Y0054900D01*
X0546935Y0054900D01*
X0548662Y0055616D01*
X0549984Y0056938D01*
X0550700Y0059261D02*
X0569100Y0059261D01*
X0569100Y0061460D02*
X0550317Y0061460D01*
X0548484Y0063658D02*
X0569100Y0063658D01*
X0569100Y0065857D02*
X0525572Y0065857D01*
X0525700Y0066165D02*
X0525700Y0068035D01*
X0524984Y0069762D01*
X0523662Y0071084D01*
X0521935Y0071800D01*
X0520065Y0071800D01*
X0518338Y0071084D01*
X0517016Y0069762D01*
X0516300Y0068035D01*
X0516300Y0066165D01*
X0517016Y0064438D01*
X0517308Y0064146D01*
X0516935Y0064300D01*
X0515065Y0064300D01*
X0513338Y0063584D01*
X0512016Y0062262D01*
X0511300Y0060535D01*
X0511300Y0058665D01*
X0512016Y0056938D01*
X0513338Y0055616D01*
X0515065Y0054900D01*
X0516935Y0054900D01*
X0518662Y0055616D01*
X0519984Y0056938D01*
X0520700Y0058665D01*
X0520700Y0060535D01*
X0519984Y0062262D01*
X0519692Y0062554D01*
X0520065Y0062400D01*
X0521935Y0062400D01*
X0522308Y0062554D01*
X0522016Y0062262D01*
X0521300Y0060535D01*
X0521300Y0058665D01*
X0522016Y0056938D01*
X0523338Y0055616D01*
X0525065Y0054900D01*
X0526935Y0054900D01*
X0528662Y0055616D01*
X0529984Y0056938D01*
X0530700Y0058665D01*
X0530700Y0060535D01*
X0529984Y0062262D01*
X0528662Y0063584D01*
X0526935Y0064300D01*
X0525065Y0064300D01*
X0524692Y0064146D01*
X0524984Y0064438D01*
X0525700Y0066165D01*
X0525692Y0068055D02*
X0571162Y0068055D01*
X0573360Y0070254D02*
X0524493Y0070254D01*
X0517507Y0070254D02*
X0501600Y0070254D01*
X0501600Y0072452D02*
X0624302Y0072452D01*
X0623800Y0074651D02*
X0501600Y0074651D01*
X0501600Y0068055D02*
X0516308Y0068055D01*
X0516428Y0065857D02*
X0501600Y0065857D01*
X0501600Y0063658D02*
X0513516Y0063658D01*
X0511683Y0061460D02*
X0501600Y0061460D01*
X0501600Y0059261D02*
X0511300Y0059261D01*
X0511964Y0057063D02*
X0501600Y0057063D01*
X0501600Y0050467D02*
X0698400Y0050467D01*
X0698400Y0048269D02*
X0549261Y0048269D01*
X0548776Y0048754D02*
X0550154Y0047376D01*
X0550900Y0045575D01*
X0550900Y0043625D01*
X0550154Y0041824D01*
X0548776Y0040446D01*
X0546975Y0039700D01*
X0545025Y0039700D01*
X0543224Y0040446D01*
X0541846Y0041824D01*
X0541100Y0043625D01*
X0541100Y0045575D01*
X0541846Y0047376D01*
X0543224Y0048754D01*
X0545025Y0049500D01*
X0546975Y0049500D01*
X0548776Y0048754D01*
X0550695Y0046070D02*
X0648775Y0046070D01*
X0648705Y0046037D02*
X0647745Y0045433D01*
X0646858Y0044726D01*
X0646056Y0043924D01*
X0645348Y0043037D01*
X0644745Y0042076D01*
X0644253Y0041054D01*
X0643878Y0039984D01*
X0643625Y0038878D01*
X0643532Y0038052D01*
X0652730Y0038052D01*
X0652730Y0047249D01*
X0651904Y0047156D01*
X0650798Y0046904D01*
X0649727Y0046529D01*
X0648705Y0046037D01*
X0646014Y0043872D02*
X0550900Y0043872D01*
X0550003Y0041673D02*
X0644551Y0041673D01*
X0643762Y0039475D02*
X0501600Y0039475D01*
X0501600Y0041673D02*
X0501997Y0041673D01*
X0501600Y0037276D02*
X0652730Y0037276D01*
X0652730Y0038052D02*
X0652730Y0036315D01*
X0643532Y0036315D01*
X0643625Y0035489D01*
X0643878Y0034383D01*
X0644253Y0033312D01*
X0644745Y0032290D01*
X0645348Y0031329D01*
X0646056Y0030442D01*
X0646858Y0029640D01*
X0647745Y0028933D01*
X0648705Y0028329D01*
X0649727Y0027837D01*
X0650798Y0027463D01*
X0651904Y0027210D01*
X0652730Y0027117D01*
X0652730Y0036314D01*
X0654467Y0036314D01*
X0654467Y0027117D01*
X0655293Y0027210D01*
X0656399Y0027463D01*
X0657470Y0027837D01*
X0658492Y0028329D01*
X0659452Y0028933D01*
X0660339Y0029640D01*
X0661141Y0030442D01*
X0661849Y0031329D01*
X0662452Y0032290D01*
X0662944Y0033312D01*
X0663319Y0034383D01*
X0663571Y0035489D01*
X0663664Y0036315D01*
X0654467Y0036315D01*
X0654467Y0038052D01*
X0652730Y0038052D01*
X0652730Y0039475D02*
X0654467Y0039475D01*
X0654467Y0038052D02*
X0654467Y0047249D01*
X0655293Y0047156D01*
X0656399Y0046904D01*
X0657470Y0046529D01*
X0658492Y0046037D01*
X0659452Y0045433D01*
X0660339Y0044726D01*
X0661141Y0043924D01*
X0661849Y0043037D01*
X0662452Y0042076D01*
X0662944Y0041054D01*
X0663319Y0039984D01*
X0663571Y0038878D01*
X0663664Y0038052D01*
X0654467Y0038052D01*
X0654467Y0037276D02*
X0698400Y0037276D01*
X0698400Y0035078D02*
X0663478Y0035078D01*
X0662736Y0032879D02*
X0679685Y0032879D01*
X0675960Y0030681D02*
X0661331Y0030681D01*
X0658735Y0028482D02*
X0674022Y0028482D01*
X0672820Y0026284D02*
X0656191Y0026284D01*
X0655468Y0026583D02*
X0651729Y0026583D01*
X0648274Y0025152D01*
X0645629Y0022508D01*
X0644198Y0019053D01*
X0644198Y0015313D01*
X0645629Y0011858D01*
X0648274Y0009214D01*
X0651729Y0007783D01*
X0655468Y0007783D01*
X0658923Y0009214D01*
X0661567Y0011858D01*
X0662998Y0015313D01*
X0662998Y0019053D01*
X0661567Y0022508D01*
X0658923Y0025152D01*
X0655468Y0026583D01*
X0654467Y0028482D02*
X0652730Y0028482D01*
X0652730Y0030681D02*
X0654467Y0030681D01*
X0654467Y0032879D02*
X0652730Y0032879D01*
X0652730Y0035078D02*
X0654467Y0035078D01*
X0645866Y0030681D02*
X0550856Y0030681D01*
X0550900Y0030575D02*
X0550154Y0032376D01*
X0548776Y0033754D01*
X0546975Y0034500D01*
X0545025Y0034500D01*
X0543224Y0033754D01*
X0541846Y0032376D01*
X0541100Y0030575D01*
X0541100Y0028625D01*
X0541846Y0026824D01*
X0543224Y0025446D01*
X0545025Y0024700D01*
X0546975Y0024700D01*
X0548776Y0025446D01*
X0550154Y0026824D01*
X0550900Y0028625D01*
X0550900Y0030575D01*
X0550841Y0028482D02*
X0648462Y0028482D01*
X0651006Y0026284D02*
X0602660Y0026284D01*
X0602344Y0026600D02*
X0601592Y0027146D01*
X0600765Y0027568D01*
X0599882Y0027855D01*
X0598964Y0028000D01*
X0598500Y0028000D01*
X0598500Y0022100D01*
X0604400Y0022100D01*
X0604400Y0022564D01*
X0604255Y0023482D01*
X0603968Y0024365D01*
X0603546Y0025192D01*
X0603000Y0025944D01*
X0602344Y0026600D01*
X0604059Y0024085D02*
X0647207Y0024085D01*
X0645372Y0021887D02*
X0604400Y0021887D01*
X0604400Y0022100D02*
X0598500Y0022100D01*
X0598500Y0022100D01*
X0598500Y0022100D01*
X0598500Y0016200D01*
X0598964Y0016200D01*
X0599882Y0016345D01*
X0600765Y0016632D01*
X0601592Y0017054D01*
X0602344Y0017600D01*
X0603000Y0018256D01*
X0603546Y0019008D01*
X0603968Y0019835D01*
X0604255Y0020718D01*
X0604400Y0021636D01*
X0604400Y0022100D01*
X0603893Y0019688D02*
X0644462Y0019688D01*
X0644198Y0017490D02*
X0602192Y0017490D01*
X0598500Y0017490D02*
X0598500Y0017490D01*
X0598500Y0016200D02*
X0598500Y0022100D01*
X0598500Y0022100D01*
X0598500Y0022100D01*
X0592600Y0022100D01*
X0592600Y0022564D01*
X0592745Y0023482D01*
X0593032Y0024365D01*
X0593454Y0025192D01*
X0594000Y0025944D01*
X0594656Y0026600D01*
X0595408Y0027146D01*
X0596235Y0027568D01*
X0597118Y0027855D01*
X0598036Y0028000D01*
X0598500Y0028000D01*
X0598500Y0022100D01*
X0592600Y0022100D01*
X0592600Y0021636D01*
X0592745Y0020718D01*
X0593032Y0019835D01*
X0593454Y0019008D01*
X0594000Y0018256D01*
X0594656Y0017600D01*
X0595408Y0017054D01*
X0596235Y0016632D01*
X0597118Y0016345D01*
X0598036Y0016200D01*
X0598500Y0016200D01*
X0598500Y0019688D02*
X0598500Y0019688D01*
X0598500Y0021887D02*
X0598500Y0021887D01*
X0598500Y0024085D02*
X0598500Y0024085D01*
X0598500Y0026284D02*
X0598500Y0026284D01*
X0594340Y0026284D02*
X0581670Y0026284D01*
X0581446Y0026508D02*
X0579534Y0027300D01*
X0577466Y0027300D01*
X0575554Y0026508D01*
X0574092Y0025046D01*
X0573300Y0023134D01*
X0573300Y0021066D01*
X0574092Y0019154D01*
X0575554Y0017692D01*
X0577466Y0016900D01*
X0579534Y0016900D01*
X0581446Y0017692D01*
X0582908Y0019154D01*
X0583700Y0021066D01*
X0583700Y0023134D01*
X0582908Y0025046D01*
X0581446Y0026508D01*
X0583306Y0024085D02*
X0592941Y0024085D01*
X0592600Y0021887D02*
X0583700Y0021887D01*
X0583129Y0019688D02*
X0593107Y0019688D01*
X0594808Y0017490D02*
X0580958Y0017490D01*
X0576042Y0017490D02*
X0451600Y0017490D01*
X0451600Y0016483D02*
X0451600Y0023553D01*
X0452484Y0024438D01*
X0453200Y0026165D01*
X0453200Y0028035D01*
X0452484Y0029762D01*
X0451162Y0031084D01*
X0449435Y0031800D01*
X0447565Y0031800D01*
X0445838Y0031084D01*
X0444516Y0029762D01*
X0443800Y0028035D01*
X0443800Y0026165D01*
X0444516Y0024438D01*
X0445400Y0023553D01*
X0445400Y0018384D01*
X0442216Y0015200D01*
X0336600Y0015200D01*
X0336600Y0020770D01*
X0337654Y0021824D01*
X0338400Y0023625D01*
X0338400Y0025575D01*
X0337654Y0027376D01*
X0336276Y0028754D01*
X0334475Y0029500D01*
X0332525Y0029500D01*
X0330724Y0028754D01*
X0329346Y0027376D01*
X0328600Y0025575D01*
X0328600Y0023625D01*
X0329346Y0021824D01*
X0330400Y0020770D01*
X0330400Y0015200D01*
X0264784Y0015200D01*
X0261600Y0018384D01*
X0261600Y0023553D01*
X0262484Y0024438D01*
X0263200Y0026165D01*
X0263200Y0028035D01*
X0262484Y0029762D01*
X0261162Y0031084D01*
X0259435Y0031800D01*
X0257565Y0031800D01*
X0255838Y0031084D01*
X0254516Y0029762D01*
X0253800Y0028035D01*
X0253800Y0026165D01*
X0254516Y0024438D01*
X0255400Y0023553D01*
X0255400Y0016483D01*
X0255872Y0015344D01*
X0260872Y0010344D01*
X0261744Y0009472D01*
X0262883Y0009000D01*
X0444117Y0009000D01*
X0445256Y0009472D01*
X0450256Y0014472D01*
X0451128Y0015344D01*
X0451600Y0016483D01*
X0451075Y0015291D02*
X0644208Y0015291D01*
X0645118Y0013093D02*
X0448877Y0013093D01*
X0450256Y0014472D02*
X0450256Y0014472D01*
X0446678Y0010894D02*
X0646594Y0010894D01*
X0649526Y0008696D02*
X0059142Y0008696D01*
X0061437Y0010894D02*
X0260322Y0010894D01*
X0258123Y0013093D02*
X0062722Y0013093D01*
X0063367Y0015291D02*
X0255925Y0015291D01*
X0255400Y0017490D02*
X0135958Y0017490D01*
X0138129Y0019688D02*
X0255400Y0019688D01*
X0255400Y0021887D02*
X0138700Y0021887D01*
X0138306Y0024085D02*
X0217368Y0024085D01*
X0216300Y0026284D02*
X0207113Y0026284D01*
X0207654Y0026824D02*
X0208400Y0028625D01*
X0208400Y0030575D01*
X0207654Y0032376D01*
X0206276Y0033754D01*
X0204475Y0034500D01*
X0202525Y0034500D01*
X0200724Y0033754D01*
X0199346Y0032376D01*
X0198600Y0030575D01*
X0198600Y0028625D01*
X0199346Y0026824D01*
X0200724Y0025446D01*
X0202525Y0024700D01*
X0204475Y0024700D01*
X0206276Y0025446D01*
X0207654Y0026824D01*
X0208341Y0028482D02*
X0215234Y0028482D01*
X0213035Y0030681D02*
X0208356Y0030681D01*
X0207150Y0032879D02*
X0210837Y0032879D01*
X0217406Y0035078D02*
X0281614Y0035078D01*
X0280724Y0035446D02*
X0282525Y0034700D01*
X0284475Y0034700D01*
X0286276Y0035446D01*
X0287654Y0036824D01*
X0288400Y0038625D01*
X0288400Y0040575D01*
X0287654Y0042376D01*
X0286276Y0043754D01*
X0285682Y0044000D01*
X0299117Y0044000D01*
X0300256Y0044472D01*
X0302984Y0047200D01*
X0304475Y0047200D01*
X0306276Y0047946D01*
X0307654Y0049324D01*
X0308400Y0051125D01*
X0308400Y0053075D01*
X0307654Y0054876D01*
X0306276Y0056254D01*
X0304475Y0057000D01*
X0302525Y0057000D01*
X0300724Y0056254D01*
X0299346Y0054876D01*
X0298600Y0053075D01*
X0298600Y0051584D01*
X0298400Y0051384D01*
X0298400Y0053075D01*
X0297654Y0054876D01*
X0296276Y0056254D01*
X0294475Y0057000D01*
X0292525Y0057000D01*
X0290724Y0056254D01*
X0289346Y0054876D01*
X0288600Y0053075D01*
X0288600Y0051125D01*
X0288983Y0050200D01*
X0284784Y0050200D01*
X0280256Y0054728D01*
X0279117Y0055200D01*
X0262883Y0055200D01*
X0261744Y0054728D01*
X0260872Y0053856D01*
X0255872Y0048856D01*
X0255704Y0048451D01*
X0254516Y0047262D01*
X0253800Y0045535D01*
X0253800Y0043665D01*
X0254516Y0041938D01*
X0255838Y0040616D01*
X0257565Y0039900D01*
X0259435Y0039900D01*
X0261162Y0040616D01*
X0262484Y0041938D01*
X0263200Y0043665D01*
X0263200Y0045535D01*
X0262649Y0046865D01*
X0264784Y0049000D01*
X0266841Y0049000D01*
X0265838Y0048584D01*
X0264516Y0047262D01*
X0263800Y0045535D01*
X0263800Y0043665D01*
X0264516Y0041938D01*
X0265838Y0040616D01*
X0267565Y0039900D01*
X0269435Y0039900D01*
X0271162Y0040616D01*
X0272484Y0041938D01*
X0273200Y0043665D01*
X0273200Y0045535D01*
X0272484Y0047262D01*
X0271162Y0048584D01*
X0270159Y0049000D01*
X0277216Y0049000D01*
X0280872Y0045344D01*
X0281744Y0044472D01*
X0282101Y0044324D01*
X0280724Y0043754D01*
X0279346Y0042376D01*
X0278600Y0040575D01*
X0278600Y0038625D01*
X0279346Y0036824D01*
X0280724Y0035446D01*
X0279159Y0037276D02*
X0215208Y0037276D01*
X0214100Y0039475D02*
X0278600Y0039475D01*
X0279055Y0041673D02*
X0272220Y0041673D01*
X0273200Y0043872D02*
X0281009Y0043872D01*
X0280146Y0046070D02*
X0272978Y0046070D01*
X0271478Y0048269D02*
X0277947Y0048269D01*
X0284517Y0050467D02*
X0288873Y0050467D01*
X0288600Y0052666D02*
X0282318Y0052666D01*
X0279927Y0054864D02*
X0289341Y0054864D01*
X0286276Y0060446D02*
X0287654Y0061824D01*
X0288400Y0063625D01*
X0288400Y0065575D01*
X0287654Y0067376D01*
X0286276Y0068754D01*
X0284475Y0069500D01*
X0282525Y0069500D01*
X0280724Y0068754D01*
X0279346Y0067376D01*
X0278600Y0065575D01*
X0278600Y0063625D01*
X0279346Y0061824D01*
X0280724Y0060446D01*
X0282525Y0059700D01*
X0284475Y0059700D01*
X0286276Y0060446D01*
X0287289Y0061460D02*
X0319711Y0061460D01*
X0318600Y0063658D02*
X0288400Y0063658D01*
X0288283Y0065857D02*
X0318717Y0065857D01*
X0320026Y0068055D02*
X0286974Y0068055D01*
X0280026Y0068055D02*
X0271974Y0068055D01*
X0272654Y0067376D02*
X0271276Y0068754D01*
X0269475Y0069500D01*
X0267525Y0069500D01*
X0265724Y0068754D01*
X0264346Y0067376D01*
X0263600Y0065575D01*
X0263600Y0063625D01*
X0264346Y0061824D01*
X0265724Y0060446D01*
X0267525Y0059700D01*
X0269475Y0059700D01*
X0271276Y0060446D01*
X0272654Y0061824D01*
X0273400Y0063625D01*
X0273400Y0065575D01*
X0272654Y0067376D01*
X0273283Y0065857D02*
X0278717Y0065857D01*
X0278600Y0063658D02*
X0273400Y0063658D01*
X0272289Y0061460D02*
X0279711Y0061460D01*
X0264711Y0061460D02*
X0242289Y0061460D01*
X0243400Y0063658D02*
X0263600Y0063658D01*
X0263717Y0065857D02*
X0243283Y0065857D01*
X0241974Y0068055D02*
X0265026Y0068055D01*
X0262073Y0054864D02*
X0221600Y0054864D01*
X0221600Y0052666D02*
X0259682Y0052666D01*
X0257483Y0050467D02*
X0221600Y0050467D01*
X0223978Y0048269D02*
X0228022Y0048269D01*
X0228338Y0048584D02*
X0227016Y0047262D01*
X0226300Y0045535D01*
X0226300Y0043665D01*
X0227016Y0041938D01*
X0228338Y0040616D01*
X0230065Y0039900D01*
X0231935Y0039900D01*
X0233662Y0040616D01*
X0234984Y0041938D01*
X0235700Y0043665D01*
X0235700Y0045535D01*
X0234984Y0047262D01*
X0233662Y0048584D01*
X0231935Y0049300D01*
X0230065Y0049300D01*
X0228338Y0048584D01*
X0226522Y0046070D02*
X0225478Y0046070D01*
X0225700Y0043872D02*
X0226300Y0043872D01*
X0227280Y0041673D02*
X0224720Y0041673D01*
X0234720Y0041673D02*
X0237280Y0041673D01*
X0237016Y0041938D02*
X0238338Y0040616D01*
X0240065Y0039900D01*
X0241935Y0039900D01*
X0243662Y0040616D01*
X0244750Y0041703D01*
X0245838Y0040616D01*
X0247565Y0039900D01*
X0249435Y0039900D01*
X0251162Y0040616D01*
X0252484Y0041938D01*
X0253200Y0043665D01*
X0253200Y0045535D01*
X0252484Y0047262D01*
X0251162Y0048584D01*
X0249435Y0049300D01*
X0247565Y0049300D01*
X0245838Y0048584D01*
X0244750Y0047497D01*
X0243662Y0048584D01*
X0241935Y0049300D01*
X0240065Y0049300D01*
X0238338Y0048584D01*
X0237016Y0047262D01*
X0236300Y0045535D01*
X0236300Y0043665D01*
X0237016Y0041938D01*
X0236300Y0043872D02*
X0235700Y0043872D01*
X0235478Y0046070D02*
X0236522Y0046070D01*
X0238022Y0048269D02*
X0233978Y0048269D01*
X0243978Y0048269D02*
X0245522Y0048269D01*
X0251478Y0048269D02*
X0255522Y0048269D01*
X0254022Y0046070D02*
X0252978Y0046070D01*
X0253200Y0043872D02*
X0253800Y0043872D01*
X0254780Y0041673D02*
X0252220Y0041673D01*
X0244780Y0041673D02*
X0244720Y0041673D01*
X0241935Y0031800D02*
X0240065Y0031800D01*
X0238338Y0031084D01*
X0237016Y0029762D01*
X0236300Y0028035D01*
X0236300Y0026165D01*
X0237016Y0024438D01*
X0238338Y0023116D01*
X0240065Y0022400D01*
X0241935Y0022400D01*
X0243662Y0023116D01*
X0244750Y0024203D01*
X0245838Y0023116D01*
X0247565Y0022400D01*
X0249435Y0022400D01*
X0251162Y0023116D01*
X0252484Y0024438D01*
X0253200Y0026165D01*
X0253200Y0028035D01*
X0252484Y0029762D01*
X0251162Y0031084D01*
X0249435Y0031800D01*
X0247565Y0031800D01*
X0245838Y0031084D01*
X0244750Y0029997D01*
X0243662Y0031084D01*
X0241935Y0031800D01*
X0244066Y0030681D02*
X0245434Y0030681D01*
X0251566Y0030681D02*
X0255434Y0030681D01*
X0253985Y0028482D02*
X0253015Y0028482D01*
X0253200Y0026284D02*
X0253800Y0026284D01*
X0254868Y0024085D02*
X0252132Y0024085D01*
X0244868Y0024085D02*
X0244632Y0024085D01*
X0237368Y0024085D02*
X0234632Y0024085D01*
X0234984Y0024438D02*
X0233662Y0023116D01*
X0231935Y0022400D01*
X0230065Y0022400D01*
X0228338Y0023116D01*
X0227016Y0024438D01*
X0226300Y0026165D01*
X0226300Y0028035D01*
X0227016Y0029762D01*
X0228338Y0031084D01*
X0230065Y0031800D01*
X0231935Y0031800D01*
X0233662Y0031084D01*
X0234984Y0029762D01*
X0235700Y0028035D01*
X0235700Y0026165D01*
X0234984Y0024438D01*
X0235700Y0026284D02*
X0236300Y0026284D01*
X0236485Y0028482D02*
X0235515Y0028482D01*
X0234066Y0030681D02*
X0237934Y0030681D01*
X0227934Y0030681D02*
X0224066Y0030681D01*
X0225515Y0028482D02*
X0226485Y0028482D01*
X0226300Y0026284D02*
X0225700Y0026284D01*
X0224632Y0024085D02*
X0227368Y0024085D01*
X0219605Y0032879D02*
X0489895Y0032879D01*
X0485434Y0030681D02*
X0481566Y0030681D01*
X0481162Y0031084D02*
X0479435Y0031800D01*
X0477565Y0031800D01*
X0475838Y0031084D01*
X0474516Y0029762D01*
X0473800Y0028035D01*
X0473800Y0026165D01*
X0474516Y0024438D01*
X0475838Y0023116D01*
X0477565Y0022400D01*
X0479435Y0022400D01*
X0481162Y0023116D01*
X0482484Y0024438D01*
X0483200Y0026165D01*
X0483200Y0028035D01*
X0482484Y0029762D01*
X0481162Y0031084D01*
X0483015Y0028482D02*
X0483985Y0028482D01*
X0483800Y0026284D02*
X0483200Y0026284D01*
X0482132Y0024085D02*
X0484868Y0024085D01*
X0492132Y0024085D02*
X0573694Y0024085D01*
X0573300Y0021887D02*
X0451600Y0021887D01*
X0451600Y0019688D02*
X0573871Y0019688D01*
X0575330Y0026284D02*
X0549613Y0026284D01*
X0542387Y0026284D02*
X0509613Y0026284D01*
X0510154Y0026824D02*
X0510900Y0028625D01*
X0510900Y0030575D01*
X0510154Y0032376D01*
X0508776Y0033754D01*
X0506975Y0034500D01*
X0505025Y0034500D01*
X0503224Y0033754D01*
X0501846Y0032376D01*
X0501100Y0030575D01*
X0501100Y0028625D01*
X0501846Y0026824D01*
X0503224Y0025446D01*
X0505025Y0024700D01*
X0506975Y0024700D01*
X0508776Y0025446D01*
X0510154Y0026824D01*
X0510841Y0028482D02*
X0541159Y0028482D01*
X0541144Y0030681D02*
X0510856Y0030681D01*
X0509650Y0032879D02*
X0542350Y0032879D01*
X0549650Y0032879D02*
X0644461Y0032879D01*
X0643719Y0035078D02*
X0500862Y0035078D01*
X0502350Y0032879D02*
X0498663Y0032879D01*
X0496465Y0030681D02*
X0501144Y0030681D01*
X0501159Y0028482D02*
X0494266Y0028482D01*
X0493200Y0026284D02*
X0502387Y0026284D01*
X0475434Y0030681D02*
X0471566Y0030681D01*
X0471162Y0031084D02*
X0469435Y0031800D01*
X0467565Y0031800D01*
X0465838Y0031084D01*
X0464516Y0029762D01*
X0463800Y0028035D01*
X0463800Y0026165D01*
X0464516Y0024438D01*
X0465838Y0023116D01*
X0467565Y0022400D01*
X0469435Y0022400D01*
X0471162Y0023116D01*
X0472484Y0024438D01*
X0473200Y0026165D01*
X0473200Y0028035D01*
X0472484Y0029762D01*
X0471162Y0031084D01*
X0473015Y0028482D02*
X0473985Y0028482D01*
X0473800Y0026284D02*
X0473200Y0026284D01*
X0472132Y0024085D02*
X0474868Y0024085D01*
X0464868Y0024085D02*
X0462132Y0024085D01*
X0462484Y0024438D02*
X0461162Y0023116D01*
X0459435Y0022400D01*
X0457565Y0022400D01*
X0455838Y0023116D01*
X0454516Y0024438D01*
X0453800Y0026165D01*
X0453800Y0028035D01*
X0454516Y0029762D01*
X0455838Y0031084D01*
X0457565Y0031800D01*
X0459435Y0031800D01*
X0461162Y0031084D01*
X0462484Y0029762D01*
X0463200Y0028035D01*
X0463200Y0026165D01*
X0462484Y0024438D01*
X0463200Y0026284D02*
X0463800Y0026284D01*
X0463985Y0028482D02*
X0463015Y0028482D01*
X0461566Y0030681D02*
X0465434Y0030681D01*
X0455434Y0030681D02*
X0451566Y0030681D01*
X0453015Y0028482D02*
X0453985Y0028482D01*
X0453800Y0026284D02*
X0453200Y0026284D01*
X0452132Y0024085D02*
X0454868Y0024085D01*
X0445400Y0021887D02*
X0427680Y0021887D01*
X0427654Y0021824D02*
X0428400Y0023625D01*
X0428400Y0025575D01*
X0427654Y0027376D01*
X0426276Y0028754D01*
X0424475Y0029500D01*
X0422525Y0029500D01*
X0420724Y0028754D01*
X0419346Y0027376D01*
X0418600Y0025575D01*
X0418600Y0023625D01*
X0419346Y0021824D01*
X0420724Y0020446D01*
X0422525Y0019700D01*
X0424475Y0019700D01*
X0426276Y0020446D01*
X0427654Y0021824D01*
X0428400Y0024085D02*
X0434868Y0024085D01*
X0434516Y0024438D02*
X0435838Y0023116D01*
X0437565Y0022400D01*
X0439435Y0022400D01*
X0441162Y0023116D01*
X0442484Y0024438D01*
X0443200Y0026165D01*
X0443200Y0028035D01*
X0442484Y0029762D01*
X0441162Y0031084D01*
X0439435Y0031800D01*
X0437565Y0031800D01*
X0435838Y0031084D01*
X0434516Y0029762D01*
X0433800Y0028035D01*
X0433800Y0026165D01*
X0434516Y0024438D01*
X0433800Y0026284D02*
X0428106Y0026284D01*
X0426547Y0028482D02*
X0433985Y0028482D01*
X0435434Y0030681D02*
X0271566Y0030681D01*
X0271162Y0031084D02*
X0269435Y0031800D01*
X0267565Y0031800D01*
X0265838Y0031084D01*
X0264516Y0029762D01*
X0263800Y0028035D01*
X0263800Y0026165D01*
X0264516Y0024438D01*
X0265838Y0023116D01*
X0267565Y0022400D01*
X0269435Y0022400D01*
X0271162Y0023116D01*
X0272484Y0024438D01*
X0273200Y0026165D01*
X0273200Y0028035D01*
X0272484Y0029762D01*
X0271162Y0031084D01*
X0273015Y0028482D02*
X0280452Y0028482D01*
X0280724Y0028754D02*
X0279346Y0027376D01*
X0278600Y0025575D01*
X0278600Y0023625D01*
X0279346Y0021824D01*
X0280724Y0020446D01*
X0282525Y0019700D01*
X0284475Y0019700D01*
X0286276Y0020446D01*
X0287654Y0021824D01*
X0288400Y0023625D01*
X0288400Y0025575D01*
X0287654Y0027376D01*
X0286276Y0028754D01*
X0284475Y0029500D01*
X0282525Y0029500D01*
X0280724Y0028754D01*
X0278894Y0026284D02*
X0273200Y0026284D01*
X0272132Y0024085D02*
X0278600Y0024085D01*
X0279320Y0021887D02*
X0261600Y0021887D01*
X0261600Y0019688D02*
X0330400Y0019688D01*
X0330400Y0017490D02*
X0262494Y0017490D01*
X0264693Y0015291D02*
X0330400Y0015291D01*
X0336600Y0015291D02*
X0442307Y0015291D01*
X0444506Y0017490D02*
X0336600Y0017490D01*
X0336600Y0019688D02*
X0445400Y0019688D01*
X0444868Y0024085D02*
X0442132Y0024085D01*
X0443200Y0026284D02*
X0443800Y0026284D01*
X0443985Y0028482D02*
X0443015Y0028482D01*
X0441566Y0030681D02*
X0445434Y0030681D01*
X0441162Y0040616D02*
X0442484Y0041938D01*
X0443200Y0043665D01*
X0443200Y0045535D01*
X0442484Y0047262D01*
X0441162Y0048584D01*
X0439435Y0049300D01*
X0437565Y0049300D01*
X0435838Y0048584D01*
X0434516Y0047262D01*
X0433800Y0045535D01*
X0433800Y0043665D01*
X0434516Y0041938D01*
X0435838Y0040616D01*
X0437565Y0039900D01*
X0439435Y0039900D01*
X0441162Y0040616D01*
X0442220Y0041673D02*
X0444780Y0041673D01*
X0443800Y0043872D02*
X0443200Y0043872D01*
X0442978Y0046070D02*
X0444022Y0046070D01*
X0445400Y0048269D02*
X0441478Y0048269D01*
X0445400Y0050467D02*
X0318127Y0050467D01*
X0318400Y0051125D02*
X0317654Y0049324D01*
X0316276Y0047946D01*
X0314475Y0047200D01*
X0312525Y0047200D01*
X0310724Y0047946D01*
X0309346Y0049324D01*
X0308600Y0051125D01*
X0308600Y0053075D01*
X0309346Y0054876D01*
X0310724Y0056254D01*
X0312525Y0057000D01*
X0314475Y0057000D01*
X0316276Y0056254D01*
X0317654Y0054876D01*
X0318400Y0053075D01*
X0318400Y0051125D01*
X0318400Y0052666D02*
X0341401Y0052666D01*
X0339122Y0054864D02*
X0317659Y0054864D01*
X0309341Y0054864D02*
X0307659Y0054864D01*
X0308400Y0052666D02*
X0308600Y0052666D01*
X0308873Y0050467D02*
X0308127Y0050467D01*
X0306598Y0048269D02*
X0310402Y0048269D01*
X0316598Y0048269D02*
X0435522Y0048269D01*
X0434022Y0046070D02*
X0301854Y0046070D01*
X0298600Y0052666D02*
X0298400Y0052666D01*
X0297659Y0054864D02*
X0299341Y0054864D01*
X0285991Y0043872D02*
X0321009Y0043872D01*
X0320724Y0043754D02*
X0319346Y0042376D01*
X0318600Y0040575D01*
X0318600Y0038625D01*
X0319346Y0036824D01*
X0320724Y0035446D01*
X0322525Y0034700D01*
X0324475Y0034700D01*
X0326276Y0035446D01*
X0327654Y0036824D01*
X0328400Y0038625D01*
X0328400Y0040575D01*
X0327654Y0042376D01*
X0326276Y0043754D01*
X0324475Y0044500D01*
X0322525Y0044500D01*
X0320724Y0043754D01*
X0319055Y0041673D02*
X0287945Y0041673D01*
X0288400Y0039475D02*
X0318600Y0039475D01*
X0319159Y0037276D02*
X0287841Y0037276D01*
X0285386Y0035078D02*
X0321614Y0035078D01*
X0325386Y0035078D02*
X0331614Y0035078D01*
X0330724Y0035446D02*
X0332525Y0034700D01*
X0334475Y0034700D01*
X0336276Y0035446D01*
X0337654Y0036824D01*
X0338400Y0038625D01*
X0338400Y0040575D01*
X0337654Y0042376D01*
X0336276Y0043754D01*
X0334475Y0044500D01*
X0332525Y0044500D01*
X0330724Y0043754D01*
X0329346Y0042376D01*
X0328600Y0040575D01*
X0328600Y0038625D01*
X0329346Y0036824D01*
X0330724Y0035446D01*
X0329159Y0037276D02*
X0327841Y0037276D01*
X0328400Y0039475D02*
X0328600Y0039475D01*
X0329055Y0041673D02*
X0327945Y0041673D01*
X0325991Y0043872D02*
X0331009Y0043872D01*
X0335991Y0043872D02*
X0369852Y0043872D01*
X0369852Y0043871D02*
X0369229Y0043248D01*
X0368710Y0042535D01*
X0368310Y0041750D01*
X0368038Y0040911D01*
X0367900Y0040041D01*
X0367900Y0039600D01*
X0373500Y0039600D01*
X0373500Y0039600D01*
X0373500Y0039600D01*
X0373500Y0045200D01*
X0373059Y0045200D01*
X0372189Y0045062D01*
X0371350Y0044790D01*
X0370565Y0044390D01*
X0369852Y0043871D01*
X0368285Y0041673D02*
X0337945Y0041673D01*
X0338400Y0039475D02*
X0367900Y0039475D01*
X0367900Y0039600D02*
X0367900Y0039159D01*
X0368038Y0038289D01*
X0368310Y0037450D01*
X0368710Y0036665D01*
X0369229Y0035952D01*
X0369852Y0035329D01*
X0370565Y0034810D01*
X0371350Y0034410D01*
X0372189Y0034138D01*
X0373059Y0034000D01*
X0373500Y0034000D01*
X0373500Y0039600D01*
X0367900Y0039600D01*
X0368399Y0037276D02*
X0337841Y0037276D01*
X0335386Y0035078D02*
X0370197Y0035078D01*
X0373500Y0035078D02*
X0373500Y0035078D01*
X0373500Y0037276D02*
X0373500Y0037276D01*
X0373500Y0039475D02*
X0373500Y0039475D01*
X0373500Y0041673D02*
X0373500Y0041673D01*
X0373500Y0043872D02*
X0373500Y0043872D01*
X0377148Y0043872D02*
X0381009Y0043872D01*
X0379055Y0041673D02*
X0378715Y0041673D01*
X0378601Y0037276D02*
X0379159Y0037276D01*
X0376803Y0035078D02*
X0381614Y0035078D01*
X0382525Y0029500D02*
X0380724Y0028754D01*
X0379346Y0027376D01*
X0378600Y0025575D01*
X0378600Y0023625D01*
X0379346Y0021824D01*
X0380724Y0020446D01*
X0382525Y0019700D01*
X0384475Y0019700D01*
X0386276Y0020446D01*
X0387654Y0021824D01*
X0388400Y0023625D01*
X0388400Y0025575D01*
X0387654Y0027376D01*
X0386276Y0028754D01*
X0384475Y0029500D01*
X0382525Y0029500D01*
X0380452Y0028482D02*
X0376547Y0028482D01*
X0376276Y0028754D02*
X0374475Y0029500D01*
X0372525Y0029500D01*
X0370724Y0028754D01*
X0369346Y0027376D01*
X0368600Y0025575D01*
X0368600Y0023625D01*
X0369346Y0021824D01*
X0370724Y0020446D01*
X0372525Y0019700D01*
X0374475Y0019700D01*
X0376276Y0020446D01*
X0377654Y0021824D01*
X0378400Y0023625D01*
X0378400Y0025575D01*
X0377654Y0027376D01*
X0376276Y0028754D01*
X0378106Y0026284D02*
X0378894Y0026284D01*
X0378600Y0024085D02*
X0378400Y0024085D01*
X0377680Y0021887D02*
X0379320Y0021887D01*
X0387680Y0021887D02*
X0419320Y0021887D01*
X0418600Y0024085D02*
X0388400Y0024085D01*
X0388106Y0026284D02*
X0418894Y0026284D01*
X0420452Y0028482D02*
X0386547Y0028482D01*
X0370452Y0028482D02*
X0336547Y0028482D01*
X0338106Y0026284D02*
X0368894Y0026284D01*
X0368600Y0024085D02*
X0338400Y0024085D01*
X0337680Y0021887D02*
X0369320Y0021887D01*
X0330452Y0028482D02*
X0326547Y0028482D01*
X0326276Y0028754D02*
X0324475Y0029500D01*
X0322525Y0029500D01*
X0320724Y0028754D01*
X0319346Y0027376D01*
X0318600Y0025575D01*
X0318600Y0023625D01*
X0319346Y0021824D01*
X0320724Y0020446D01*
X0322525Y0019700D01*
X0324475Y0019700D01*
X0326276Y0020446D01*
X0327654Y0021824D01*
X0328400Y0023625D01*
X0328400Y0025575D01*
X0327654Y0027376D01*
X0326276Y0028754D01*
X0328106Y0026284D02*
X0328894Y0026284D01*
X0328600Y0024085D02*
X0328400Y0024085D01*
X0327680Y0021887D02*
X0329320Y0021887D01*
X0319320Y0021887D02*
X0287680Y0021887D01*
X0288400Y0024085D02*
X0318600Y0024085D01*
X0318894Y0026284D02*
X0288106Y0026284D01*
X0286547Y0028482D02*
X0320452Y0028482D01*
X0345599Y0052666D02*
X0351401Y0052666D01*
X0350724Y0052946D02*
X0352525Y0052200D01*
X0354475Y0052200D01*
X0356276Y0052946D01*
X0357654Y0054324D01*
X0358400Y0056125D01*
X0358400Y0058075D01*
X0357654Y0059876D01*
X0356276Y0061254D01*
X0354475Y0062000D01*
X0352525Y0062000D01*
X0350724Y0061254D01*
X0349346Y0059876D01*
X0348600Y0058075D01*
X0348600Y0056125D01*
X0349346Y0054324D01*
X0350724Y0052946D01*
X0349122Y0054864D02*
X0347878Y0054864D01*
X0348400Y0057063D02*
X0348600Y0057063D01*
X0349092Y0059261D02*
X0347908Y0059261D01*
X0345779Y0061460D02*
X0351221Y0061460D01*
X0355779Y0061460D02*
X0361221Y0061460D01*
X0359092Y0059261D02*
X0357908Y0059261D01*
X0358400Y0057063D02*
X0358600Y0057063D01*
X0359122Y0054864D02*
X0357878Y0054864D01*
X0355599Y0052666D02*
X0361401Y0052666D01*
X0365599Y0052666D02*
X0443550Y0052666D01*
X0447921Y0057063D02*
X0485400Y0057063D01*
X0485400Y0059261D02*
X0445723Y0059261D01*
X0450120Y0054864D02*
X0485400Y0054864D01*
X0485400Y0052666D02*
X0451600Y0052666D01*
X0451600Y0050467D02*
X0485400Y0050467D01*
X0485400Y0048269D02*
X0481478Y0048269D01*
X0481162Y0048584D02*
X0479435Y0049300D01*
X0477565Y0049300D01*
X0475838Y0048584D01*
X0474516Y0047262D01*
X0473800Y0045535D01*
X0473800Y0043665D01*
X0474516Y0041938D01*
X0475838Y0040616D01*
X0477565Y0039900D01*
X0479435Y0039900D01*
X0481162Y0040616D01*
X0482484Y0041938D01*
X0483200Y0043665D01*
X0483200Y0045535D01*
X0482484Y0047262D01*
X0481162Y0048584D01*
X0482978Y0046070D02*
X0484022Y0046070D01*
X0483800Y0043872D02*
X0483200Y0043872D01*
X0482220Y0041673D02*
X0484780Y0041673D01*
X0474780Y0041673D02*
X0472220Y0041673D01*
X0472484Y0041938D02*
X0473200Y0043665D01*
X0473200Y0045535D01*
X0472484Y0047262D01*
X0471162Y0048584D01*
X0469435Y0049300D01*
X0467565Y0049300D01*
X0465838Y0048584D01*
X0464516Y0047262D01*
X0463800Y0045535D01*
X0463800Y0043665D01*
X0464516Y0041938D01*
X0465838Y0040616D01*
X0467565Y0039900D01*
X0469435Y0039900D01*
X0471162Y0040616D01*
X0472484Y0041938D01*
X0473200Y0043872D02*
X0473800Y0043872D01*
X0474022Y0046070D02*
X0472978Y0046070D01*
X0471478Y0048269D02*
X0475522Y0048269D01*
X0465522Y0048269D02*
X0461478Y0048269D01*
X0461162Y0048584D02*
X0459435Y0049300D01*
X0457565Y0049300D01*
X0455838Y0048584D01*
X0454516Y0047262D01*
X0453800Y0045535D01*
X0453800Y0043665D01*
X0454516Y0041938D01*
X0455838Y0040616D01*
X0457565Y0039900D01*
X0459435Y0039900D01*
X0461162Y0040616D01*
X0462484Y0041938D01*
X0463200Y0043665D01*
X0463200Y0045535D01*
X0462484Y0047262D01*
X0461162Y0048584D01*
X0462978Y0046070D02*
X0464022Y0046070D01*
X0463800Y0043872D02*
X0463200Y0043872D01*
X0462220Y0041673D02*
X0464780Y0041673D01*
X0454780Y0041673D02*
X0452220Y0041673D01*
X0453200Y0043872D02*
X0453800Y0043872D01*
X0454022Y0046070D02*
X0452978Y0046070D01*
X0451600Y0048269D02*
X0455522Y0048269D01*
X0434780Y0041673D02*
X0427945Y0041673D01*
X0425991Y0043872D02*
X0433800Y0043872D01*
X0432211Y0061460D02*
X0428140Y0061460D01*
X0429021Y0063658D02*
X0431100Y0063658D01*
X0431217Y0065857D02*
X0428971Y0065857D01*
X0427912Y0068055D02*
X0432526Y0068055D01*
X0423500Y0068055D02*
X0423500Y0068055D01*
X0423500Y0065857D02*
X0423500Y0065857D01*
X0501600Y0048269D02*
X0502739Y0048269D01*
X0509261Y0048269D02*
X0542739Y0048269D01*
X0541305Y0046070D02*
X0510695Y0046070D01*
X0510900Y0043872D02*
X0541100Y0043872D01*
X0541997Y0041673D02*
X0510003Y0041673D01*
X0520036Y0057063D02*
X0521964Y0057063D01*
X0521300Y0059261D02*
X0520700Y0059261D01*
X0520317Y0061460D02*
X0521683Y0061460D01*
X0528484Y0063658D02*
X0543516Y0063658D01*
X0541683Y0061460D02*
X0530317Y0061460D01*
X0530700Y0059261D02*
X0541300Y0059261D01*
X0541964Y0057063D02*
X0530036Y0057063D01*
X0543338Y0075616D02*
X0545065Y0074900D01*
X0546935Y0074900D01*
X0548662Y0075616D01*
X0549984Y0076938D01*
X0550700Y0078665D01*
X0550700Y0080535D01*
X0549984Y0082262D01*
X0548662Y0083584D01*
X0546935Y0084300D01*
X0545065Y0084300D01*
X0543338Y0083584D01*
X0542016Y0082262D01*
X0541300Y0080535D01*
X0541300Y0078665D01*
X0542016Y0076938D01*
X0543338Y0075616D01*
X0542104Y0076849D02*
X0529896Y0076849D01*
X0530700Y0079048D02*
X0541300Y0079048D01*
X0541595Y0081246D02*
X0530405Y0081246D01*
X0528802Y0083445D02*
X0543198Y0083445D01*
X0548802Y0083445D02*
X0608675Y0083445D01*
X0608628Y0085643D02*
X0525484Y0085643D01*
X0525700Y0087842D02*
X0609812Y0087842D01*
X0609924Y0081246D02*
X0550405Y0081246D01*
X0550700Y0079048D02*
X0626956Y0079048D01*
X0630044Y0079048D02*
X0661434Y0079048D01*
X0659128Y0076849D02*
X0632656Y0076849D01*
X0633200Y0074651D02*
X0658600Y0074651D01*
X0659086Y0072452D02*
X0632698Y0072452D01*
X0636993Y0070254D02*
X0650007Y0070254D01*
X0648808Y0068055D02*
X0638192Y0068055D01*
X0638072Y0065857D02*
X0648928Y0065857D01*
X0650295Y0063658D02*
X0636705Y0063658D01*
X0630295Y0063658D02*
X0626705Y0063658D01*
X0628072Y0065857D02*
X0628928Y0065857D01*
X0628808Y0068055D02*
X0628192Y0068055D01*
X0624344Y0076849D02*
X0549896Y0076849D01*
X0522104Y0076849D02*
X0519896Y0076849D01*
X0520700Y0079048D02*
X0521300Y0079048D01*
X0521595Y0081246D02*
X0520405Y0081246D01*
X0520201Y0094437D02*
X0541799Y0094437D01*
X0541100Y0096636D02*
X0520900Y0096636D01*
X0520585Y0098834D02*
X0541415Y0098834D01*
X0543003Y0101033D02*
X0518997Y0101033D01*
X0508737Y0105430D02*
X0543263Y0105430D01*
X0541513Y0107629D02*
X0510487Y0107629D01*
X0510900Y0109827D02*
X0541100Y0109827D01*
X0541701Y0112026D02*
X0510299Y0112026D01*
X0501701Y0112026D02*
X0501600Y0112026D01*
X0481389Y0109827D02*
X0415565Y0109827D01*
X0416446Y0110192D02*
X0414534Y0109400D01*
X0412466Y0109400D01*
X0410554Y0110192D01*
X0409092Y0111654D01*
X0408300Y0113566D01*
X0408300Y0115634D01*
X0409092Y0117546D01*
X0410554Y0119008D01*
X0412466Y0119800D01*
X0414534Y0119800D01*
X0416446Y0119008D01*
X0417908Y0117546D01*
X0418700Y0115634D01*
X0418700Y0113566D01*
X0417908Y0111654D01*
X0416446Y0110192D01*
X0418062Y0112026D02*
X0479190Y0112026D01*
X0435573Y0120820D02*
X0339164Y0120820D01*
X0340652Y0123018D02*
X0321966Y0123018D01*
X0319767Y0125217D02*
X0338976Y0125217D01*
X0338600Y0127415D02*
X0317569Y0127415D01*
X0313198Y0123018D02*
X0271729Y0123018D01*
X0273082Y0120820D02*
X0315396Y0120820D01*
X0314534Y0119800D02*
X0312466Y0119800D01*
X0310554Y0119008D01*
X0309092Y0117546D01*
X0308300Y0115634D01*
X0308300Y0113566D01*
X0309092Y0111654D01*
X0310554Y0110192D01*
X0312466Y0109400D01*
X0314534Y0109400D01*
X0316446Y0110192D01*
X0317908Y0111654D01*
X0318700Y0113566D01*
X0318700Y0115634D01*
X0317908Y0117546D01*
X0316446Y0119008D01*
X0314534Y0119800D01*
X0316833Y0118621D02*
X0317595Y0118621D01*
X0318373Y0116423D02*
X0334793Y0116423D01*
X0334475Y0114500D02*
X0332525Y0114500D01*
X0330724Y0113754D01*
X0329346Y0112376D01*
X0328600Y0110575D01*
X0328600Y0108625D01*
X0329346Y0106824D01*
X0330724Y0105446D01*
X0332525Y0104700D01*
X0334475Y0104700D01*
X0336276Y0105446D01*
X0337654Y0106824D01*
X0338400Y0108625D01*
X0338400Y0110575D01*
X0337654Y0112376D01*
X0336276Y0113754D01*
X0334475Y0114500D01*
X0335141Y0114224D02*
X0336992Y0114224D01*
X0337799Y0112026D02*
X0339190Y0112026D01*
X0338400Y0109827D02*
X0341389Y0109827D01*
X0343587Y0107629D02*
X0337987Y0107629D01*
X0336237Y0105430D02*
X0345400Y0105430D01*
X0345400Y0103232D02*
X0279100Y0103232D01*
X0279100Y0105430D02*
X0330763Y0105430D01*
X0329013Y0107629D02*
X0279100Y0107629D01*
X0277657Y0109827D02*
X0291435Y0109827D01*
X0290554Y0110192D02*
X0292466Y0109400D01*
X0294534Y0109400D01*
X0296446Y0110192D01*
X0297908Y0111654D01*
X0298700Y0113566D01*
X0298700Y0115634D01*
X0297908Y0117546D01*
X0296446Y0119008D01*
X0294534Y0119800D01*
X0292466Y0119800D01*
X0290554Y0119008D01*
X0289092Y0117546D01*
X0288300Y0115634D01*
X0288300Y0113566D01*
X0289092Y0111654D01*
X0290554Y0110192D01*
X0288938Y0112026D02*
X0275458Y0112026D01*
X0273260Y0114224D02*
X0288300Y0114224D01*
X0288627Y0116423D02*
X0271969Y0116423D01*
X0273182Y0118621D02*
X0290167Y0118621D01*
X0296833Y0118621D02*
X0310167Y0118621D01*
X0308627Y0116423D02*
X0298373Y0116423D01*
X0298700Y0114224D02*
X0308300Y0114224D01*
X0308938Y0112026D02*
X0298062Y0112026D01*
X0295565Y0109827D02*
X0311435Y0109827D01*
X0315565Y0109827D02*
X0328600Y0109827D01*
X0329201Y0112026D02*
X0318062Y0112026D01*
X0318700Y0114224D02*
X0331859Y0114224D01*
X0343561Y0116423D02*
X0388627Y0116423D01*
X0388300Y0115634D02*
X0388300Y0113566D01*
X0389092Y0111654D01*
X0390554Y0110192D01*
X0392466Y0109400D01*
X0394534Y0109400D01*
X0396446Y0110192D01*
X0397908Y0111654D01*
X0398700Y0113566D01*
X0398700Y0115634D01*
X0397908Y0117546D01*
X0396446Y0119008D01*
X0394534Y0119800D01*
X0392466Y0119800D01*
X0390554Y0119008D01*
X0389092Y0117546D01*
X0388300Y0115634D01*
X0388300Y0114224D02*
X0376663Y0114224D01*
X0378549Y0112026D02*
X0388938Y0112026D01*
X0391435Y0109827D02*
X0379100Y0109827D01*
X0373500Y0109827D02*
X0373500Y0109827D01*
X0373500Y0109600D02*
X0373500Y0115200D01*
X0373059Y0115200D01*
X0372189Y0115062D01*
X0371350Y0114790D01*
X0370565Y0114390D01*
X0369852Y0113871D01*
X0369229Y0113248D01*
X0368710Y0112535D01*
X0368310Y0111750D01*
X0368038Y0110911D01*
X0367900Y0110041D01*
X0367900Y0109600D01*
X0373500Y0109600D01*
X0373500Y0109600D01*
X0373500Y0109600D01*
X0373500Y0104000D01*
X0373059Y0104000D01*
X0372189Y0104138D01*
X0371350Y0104410D01*
X0370565Y0104810D01*
X0369852Y0105329D01*
X0369229Y0105952D01*
X0368710Y0106665D01*
X0368310Y0107450D01*
X0368038Y0108289D01*
X0367900Y0109159D01*
X0367900Y0109600D01*
X0373500Y0109600D01*
X0373500Y0107629D02*
X0373500Y0107629D01*
X0373500Y0105430D02*
X0373500Y0105430D01*
X0369750Y0105430D02*
X0351600Y0105430D01*
X0351600Y0107629D02*
X0368252Y0107629D01*
X0367900Y0109827D02*
X0350157Y0109827D01*
X0347958Y0112026D02*
X0368451Y0112026D01*
X0370337Y0114224D02*
X0345760Y0114224D01*
X0341363Y0118621D02*
X0390167Y0118621D01*
X0396833Y0118621D02*
X0410167Y0118621D01*
X0408627Y0116423D02*
X0398373Y0116423D01*
X0398700Y0114224D02*
X0408300Y0114224D01*
X0408938Y0112026D02*
X0398062Y0112026D01*
X0395565Y0109827D02*
X0411435Y0109827D01*
X0418700Y0114224D02*
X0434729Y0114224D01*
X0433800Y0116423D02*
X0418373Y0116423D01*
X0416833Y0118621D02*
X0434043Y0118621D01*
X0373500Y0114224D02*
X0373500Y0114224D01*
X0373500Y0112026D02*
X0373500Y0112026D01*
X0360652Y0123018D02*
X0356348Y0123018D01*
X0358024Y0125217D02*
X0358976Y0125217D01*
X0358600Y0127415D02*
X0358400Y0127415D01*
X0357763Y0129614D02*
X0359237Y0129614D01*
X0349237Y0129614D02*
X0347763Y0129614D01*
X0348400Y0127415D02*
X0348600Y0127415D01*
X0348976Y0125217D02*
X0348024Y0125217D01*
X0346348Y0123018D02*
X0350652Y0123018D01*
X0339237Y0129614D02*
X0326049Y0129614D01*
X0272900Y0105430D02*
X0270900Y0105430D01*
X0270737Y0103232D02*
X0272900Y0103232D01*
X0272900Y0101033D02*
X0269363Y0101033D01*
X0262637Y0101033D02*
X0259363Y0101033D01*
X0260737Y0103232D02*
X0261263Y0103232D01*
X0261100Y0105430D02*
X0260900Y0105430D01*
X0259901Y0107629D02*
X0262099Y0107629D01*
X0269901Y0107629D02*
X0271087Y0107629D01*
X0279100Y0101033D02*
X0345400Y0101033D01*
X0344805Y0098834D02*
X0326081Y0098834D01*
X0326276Y0098754D02*
X0324475Y0099500D01*
X0322525Y0099500D01*
X0320724Y0098754D01*
X0319346Y0097376D01*
X0318600Y0095575D01*
X0318600Y0093625D01*
X0319346Y0091824D01*
X0320724Y0090446D01*
X0322525Y0089700D01*
X0324475Y0089700D01*
X0326276Y0090446D01*
X0327654Y0091824D01*
X0328400Y0093625D01*
X0328400Y0095575D01*
X0327654Y0097376D01*
X0326276Y0098754D01*
X0327960Y0096636D02*
X0341647Y0096636D01*
X0339165Y0094437D02*
X0328400Y0094437D01*
X0327826Y0092239D02*
X0338600Y0092239D01*
X0339049Y0090040D02*
X0325297Y0090040D01*
X0321703Y0090040D02*
X0285297Y0090040D01*
X0284642Y0087842D02*
X0340976Y0087842D01*
X0319174Y0092239D02*
X0287826Y0092239D01*
X0288400Y0094437D02*
X0318600Y0094437D01*
X0319040Y0096636D02*
X0287960Y0096636D01*
X0286081Y0098834D02*
X0320919Y0098834D01*
X0280919Y0098834D02*
X0279100Y0098834D01*
X0252637Y0101033D02*
X0249363Y0101033D01*
X0250737Y0103232D02*
X0251263Y0103232D01*
X0251100Y0105430D02*
X0250900Y0105430D01*
X0249901Y0107629D02*
X0252099Y0107629D01*
X0261969Y0116423D02*
X0265031Y0116423D01*
X0263818Y0118621D02*
X0263182Y0118621D01*
X0263082Y0120820D02*
X0263918Y0120820D01*
X0265271Y0123018D02*
X0261729Y0123018D01*
X0215031Y0116423D02*
X0214100Y0116423D01*
X0207900Y0116423D02*
X0128461Y0116423D01*
X0127684Y0117200D02*
X0123876Y0117200D01*
X0123876Y0107476D01*
X0123124Y0107476D01*
X0123124Y0106724D01*
X0113400Y0106724D01*
X0113400Y0102916D01*
X0119316Y0097000D01*
X0123124Y0097000D01*
X0123124Y0106724D01*
X0123876Y0106724D01*
X0123876Y0107476D01*
X0133600Y0107476D01*
X0133600Y0111284D01*
X0127684Y0117200D01*
X0127593Y0118621D02*
X0207900Y0118621D01*
X0207900Y0120820D02*
X0206649Y0120820D01*
X0200351Y0120820D02*
X0166649Y0120820D01*
X0166276Y0120446D02*
X0167654Y0121824D01*
X0168400Y0123625D01*
X0168400Y0125575D01*
X0167654Y0127376D01*
X0166276Y0128754D01*
X0164475Y0129500D01*
X0162525Y0129500D01*
X0160724Y0128754D01*
X0159346Y0127376D01*
X0158600Y0125575D01*
X0158600Y0123625D01*
X0159346Y0121824D01*
X0160724Y0120446D01*
X0162525Y0119700D01*
X0164475Y0119700D01*
X0166276Y0120446D01*
X0168148Y0123018D02*
X0198852Y0123018D01*
X0198600Y0125217D02*
X0168400Y0125217D01*
X0167614Y0127415D02*
X0199386Y0127415D01*
X0207614Y0127415D02*
X0211931Y0127415D01*
X0209733Y0125217D02*
X0208400Y0125217D01*
X0214130Y0129614D02*
X0132633Y0129614D01*
X0132900Y0127415D02*
X0159386Y0127415D01*
X0158600Y0125217D02*
X0132894Y0125217D01*
X0131984Y0123018D02*
X0158852Y0123018D01*
X0160351Y0120820D02*
X0130513Y0120820D01*
X0123876Y0116423D02*
X0123124Y0116423D01*
X0123124Y0117200D02*
X0119316Y0117200D01*
X0113400Y0111284D01*
X0113400Y0107476D01*
X0123124Y0107476D01*
X0123124Y0117200D01*
X0123124Y0114224D02*
X0123876Y0114224D01*
X0123876Y0112026D02*
X0123124Y0112026D01*
X0123124Y0109827D02*
X0123876Y0109827D01*
X0123876Y0107629D02*
X0123124Y0107629D01*
X0123876Y0106724D02*
X0133600Y0106724D01*
X0133600Y0102916D01*
X0127684Y0097000D01*
X0123876Y0097000D01*
X0123876Y0106724D01*
X0123876Y0105430D02*
X0123124Y0105430D01*
X0123124Y0103232D02*
X0123876Y0103232D01*
X0123876Y0101033D02*
X0123124Y0101033D01*
X0123124Y0098834D02*
X0123876Y0098834D01*
X0129518Y0098834D02*
X0158915Y0098834D01*
X0158600Y0098075D02*
X0158600Y0096125D01*
X0159346Y0094324D01*
X0160724Y0092946D01*
X0162525Y0092200D01*
X0164475Y0092200D01*
X0166276Y0092946D01*
X0167654Y0094324D01*
X0168400Y0096125D01*
X0168400Y0098075D01*
X0167654Y0099876D01*
X0166276Y0101254D01*
X0164475Y0102000D01*
X0162525Y0102000D01*
X0160724Y0101254D01*
X0159346Y0099876D01*
X0158600Y0098075D01*
X0158600Y0096636D02*
X0020772Y0096636D01*
X0020765Y0096632D02*
X0021592Y0097054D01*
X0022344Y0097600D01*
X0023000Y0098256D01*
X0023546Y0099008D01*
X0023881Y0099664D01*
X0024092Y0099154D01*
X0025554Y0097692D01*
X0027466Y0096900D01*
X0029534Y0096900D01*
X0031446Y0097692D01*
X0032908Y0099154D01*
X0033700Y0101066D01*
X0033700Y0103134D01*
X0032908Y0105046D01*
X0031446Y0106508D01*
X0029534Y0107300D01*
X0027466Y0107300D01*
X0025554Y0106508D01*
X0024092Y0105046D01*
X0023881Y0104536D01*
X0023546Y0105192D01*
X0023000Y0105944D01*
X0022344Y0106600D01*
X0021592Y0107146D01*
X0020765Y0107568D01*
X0019882Y0107855D01*
X0018964Y0108000D01*
X0018500Y0108000D01*
X0018500Y0102100D01*
X0018500Y0102100D01*
X0018500Y0108000D01*
X0018036Y0108000D01*
X0017118Y0107855D01*
X0016235Y0107568D01*
X0015408Y0107146D01*
X0014656Y0106600D01*
X0014000Y0105944D01*
X0013454Y0105192D01*
X0013032Y0104365D01*
X0012745Y0103482D01*
X0012600Y0102564D01*
X0012600Y0102100D01*
X0018500Y0102100D01*
X0018500Y0096200D01*
X0018964Y0096200D01*
X0019882Y0096345D01*
X0020765Y0096632D01*
X0018500Y0096636D02*
X0018500Y0096636D01*
X0018500Y0096200D02*
X0018500Y0102100D01*
X0018500Y0102100D01*
X0018500Y0102100D01*
X0012600Y0102100D01*
X0012600Y0101636D01*
X0012745Y0100718D01*
X0013032Y0099835D01*
X0013454Y0099008D01*
X0014000Y0098256D01*
X0014656Y0097600D01*
X0015408Y0097054D01*
X0016235Y0096632D01*
X0017118Y0096345D01*
X0018036Y0096200D01*
X0018500Y0096200D01*
X0016228Y0096636D02*
X0008600Y0096636D01*
X0008600Y0098834D02*
X0013580Y0098834D01*
X0012695Y0101033D02*
X0008600Y0101033D01*
X0008600Y0103232D02*
X0012706Y0103232D01*
X0013627Y0105430D02*
X0008600Y0105430D01*
X0008600Y0107629D02*
X0016422Y0107629D01*
X0018500Y0107629D02*
X0018500Y0107629D01*
X0020578Y0107629D02*
X0055400Y0107629D01*
X0055400Y0109827D02*
X0008600Y0109827D01*
X0008600Y0112026D02*
X0055400Y0112026D01*
X0061600Y0112026D02*
X0114142Y0112026D01*
X0113400Y0109827D02*
X0061600Y0109827D01*
X0061600Y0107629D02*
X0113400Y0107629D01*
X0113400Y0105430D02*
X0081817Y0105430D01*
X0081162Y0106084D02*
X0079435Y0106800D01*
X0077565Y0106800D01*
X0075838Y0106084D01*
X0074516Y0104762D01*
X0073800Y0103035D01*
X0073800Y0101165D01*
X0074516Y0099438D01*
X0075838Y0098116D01*
X0077565Y0097400D01*
X0079435Y0097400D01*
X0081162Y0098116D01*
X0082484Y0099438D01*
X0083200Y0101165D01*
X0083200Y0103035D01*
X0082484Y0104762D01*
X0081162Y0106084D01*
X0083119Y0103232D02*
X0113400Y0103232D01*
X0115283Y0101033D02*
X0083145Y0101033D01*
X0081881Y0098834D02*
X0117482Y0098834D01*
X0131717Y0101033D02*
X0160503Y0101033D01*
X0162525Y0104700D02*
X0160724Y0105446D01*
X0159346Y0106824D01*
X0158600Y0108625D01*
X0158600Y0110575D01*
X0159346Y0112376D01*
X0160724Y0113754D01*
X0162525Y0114500D01*
X0164475Y0114500D01*
X0166276Y0113754D01*
X0167654Y0112376D01*
X0168400Y0110575D01*
X0168400Y0108625D01*
X0167654Y0106824D01*
X0166276Y0105446D01*
X0164475Y0104700D01*
X0162525Y0104700D01*
X0160763Y0105430D02*
X0133600Y0105430D01*
X0133600Y0103232D02*
X0207900Y0103232D01*
X0207900Y0105430D02*
X0206237Y0105430D01*
X0207900Y0101033D02*
X0196497Y0101033D01*
X0196276Y0101254D02*
X0194475Y0102000D01*
X0192525Y0102000D01*
X0190724Y0101254D01*
X0189346Y0099876D01*
X0188600Y0098075D01*
X0188600Y0096125D01*
X0189346Y0094324D01*
X0190724Y0092946D01*
X0192525Y0092200D01*
X0194475Y0092200D01*
X0196276Y0092946D01*
X0197654Y0094324D01*
X0198400Y0096125D01*
X0198400Y0098075D01*
X0197654Y0099876D01*
X0196276Y0101254D01*
X0198085Y0098834D02*
X0207900Y0098834D01*
X0207900Y0096636D02*
X0198400Y0096636D01*
X0197701Y0094437D02*
X0207900Y0094437D01*
X0207900Y0092239D02*
X0194569Y0092239D01*
X0192431Y0092239D02*
X0164569Y0092239D01*
X0162431Y0092239D02*
X0087711Y0092239D01*
X0087654Y0092376D02*
X0086276Y0093754D01*
X0084475Y0094500D01*
X0082525Y0094500D01*
X0080724Y0093754D01*
X0079346Y0092376D01*
X0078600Y0090575D01*
X0078600Y0088625D01*
X0079346Y0086824D01*
X0080724Y0085446D01*
X0082525Y0084700D01*
X0084475Y0084700D01*
X0086276Y0085446D01*
X0087654Y0086824D01*
X0088400Y0088625D01*
X0088400Y0090575D01*
X0087654Y0092376D01*
X0088400Y0090040D02*
X0174794Y0090040D01*
X0174516Y0089762D02*
X0173800Y0088035D01*
X0173800Y0086165D01*
X0174516Y0084438D01*
X0174808Y0084146D01*
X0174435Y0084300D01*
X0172565Y0084300D01*
X0170838Y0083584D01*
X0169516Y0082262D01*
X0168800Y0080535D01*
X0168800Y0078665D01*
X0169516Y0076938D01*
X0170838Y0075616D01*
X0172565Y0074900D01*
X0174435Y0074900D01*
X0176162Y0075616D01*
X0177484Y0076938D01*
X0178200Y0078665D01*
X0178200Y0080535D01*
X0177484Y0082262D01*
X0177192Y0082554D01*
X0177565Y0082400D01*
X0179435Y0082400D01*
X0179808Y0082554D01*
X0179516Y0082262D01*
X0178800Y0080535D01*
X0178800Y0078665D01*
X0179516Y0076938D01*
X0180838Y0075616D01*
X0182565Y0074900D01*
X0184435Y0074900D01*
X0186162Y0075616D01*
X0187484Y0076938D01*
X0188200Y0078665D01*
X0188200Y0080535D01*
X0187484Y0082262D01*
X0186162Y0083584D01*
X0184435Y0084300D01*
X0182565Y0084300D01*
X0182192Y0084146D01*
X0182484Y0084438D01*
X0183200Y0086165D01*
X0183200Y0088035D01*
X0182484Y0089762D01*
X0181162Y0091084D01*
X0179435Y0091800D01*
X0177565Y0091800D01*
X0175838Y0091084D01*
X0174516Y0089762D01*
X0173800Y0087842D02*
X0088075Y0087842D01*
X0086473Y0085643D02*
X0174016Y0085643D01*
X0170698Y0083445D02*
X0071302Y0083445D01*
X0071162Y0083584D02*
X0069435Y0084300D01*
X0067565Y0084300D01*
X0065838Y0083584D01*
X0064516Y0082262D01*
X0063800Y0080535D01*
X0063800Y0078665D01*
X0064516Y0076938D01*
X0064808Y0076646D01*
X0064435Y0076800D01*
X0062565Y0076800D01*
X0060838Y0076084D01*
X0059516Y0074762D01*
X0058800Y0073035D01*
X0058800Y0071165D01*
X0059516Y0069438D01*
X0060838Y0068116D01*
X0062565Y0067400D01*
X0064435Y0067400D01*
X0066162Y0068116D01*
X0067484Y0069438D01*
X0068200Y0071165D01*
X0068200Y0073035D01*
X0067484Y0074762D01*
X0067192Y0075054D01*
X0067565Y0074900D01*
X0069435Y0074900D01*
X0069808Y0075054D01*
X0069516Y0074762D01*
X0068800Y0073035D01*
X0068800Y0071165D01*
X0069516Y0069438D01*
X0070838Y0068116D01*
X0072565Y0067400D01*
X0074435Y0067400D01*
X0076162Y0068116D01*
X0077484Y0069438D01*
X0078200Y0071165D01*
X0078200Y0073035D01*
X0077484Y0074762D01*
X0076162Y0076084D01*
X0074435Y0076800D01*
X0072565Y0076800D01*
X0072192Y0076646D01*
X0072484Y0076938D01*
X0073200Y0078665D01*
X0073200Y0080535D01*
X0072484Y0082262D01*
X0071162Y0083584D01*
X0072905Y0081246D02*
X0169095Y0081246D01*
X0168800Y0079048D02*
X0073200Y0079048D01*
X0072396Y0076849D02*
X0169604Y0076849D01*
X0177396Y0076849D02*
X0179604Y0076849D01*
X0178800Y0079048D02*
X0178200Y0079048D01*
X0177905Y0081246D02*
X0179095Y0081246D01*
X0186302Y0083445D02*
X0200698Y0083445D01*
X0199095Y0081246D02*
X0187905Y0081246D01*
X0188200Y0079048D02*
X0198800Y0079048D01*
X0199604Y0076849D02*
X0187396Y0076849D01*
X0181162Y0071084D02*
X0179435Y0071800D01*
X0177565Y0071800D01*
X0175838Y0071084D01*
X0174516Y0069762D01*
X0173800Y0068035D01*
X0173800Y0066165D01*
X0174516Y0064438D01*
X0174808Y0064146D01*
X0174435Y0064300D01*
X0172565Y0064300D01*
X0170838Y0063584D01*
X0169516Y0062262D01*
X0168800Y0060535D01*
X0168800Y0058665D01*
X0169516Y0056938D01*
X0170838Y0055616D01*
X0172565Y0054900D01*
X0174435Y0054900D01*
X0176162Y0055616D01*
X0177484Y0056938D01*
X0178200Y0058665D01*
X0178200Y0060535D01*
X0177484Y0062262D01*
X0177192Y0062554D01*
X0177565Y0062400D01*
X0179435Y0062400D01*
X0179808Y0062554D01*
X0179516Y0062262D01*
X0178800Y0060535D01*
X0178800Y0058665D01*
X0179516Y0056938D01*
X0180838Y0055616D01*
X0182565Y0054900D01*
X0184435Y0054900D01*
X0186162Y0055616D01*
X0187484Y0056938D01*
X0188200Y0058665D01*
X0188200Y0060535D01*
X0187484Y0062262D01*
X0186162Y0063584D01*
X0184435Y0064300D01*
X0182565Y0064300D01*
X0182192Y0064146D01*
X0182484Y0064438D01*
X0183200Y0066165D01*
X0183200Y0068035D01*
X0182484Y0069762D01*
X0181162Y0071084D01*
X0181993Y0070254D02*
X0207900Y0070254D01*
X0207900Y0072452D02*
X0098200Y0072452D01*
X0098200Y0073035D02*
X0098200Y0071165D01*
X0097484Y0069438D01*
X0096162Y0068116D01*
X0094435Y0067400D01*
X0092565Y0067400D01*
X0090838Y0068116D01*
X0089516Y0069438D01*
X0088800Y0071165D01*
X0088800Y0073035D01*
X0089516Y0074762D01*
X0090838Y0076084D01*
X0092565Y0076800D01*
X0094435Y0076800D01*
X0096162Y0076084D01*
X0097484Y0074762D01*
X0098200Y0073035D01*
X0097531Y0074651D02*
X0207900Y0074651D01*
X0207900Y0076849D02*
X0207396Y0076849D01*
X0207900Y0083445D02*
X0206302Y0083445D01*
X0207900Y0085643D02*
X0182984Y0085643D01*
X0183200Y0087842D02*
X0207900Y0087842D01*
X0207900Y0090040D02*
X0182206Y0090040D01*
X0189299Y0094437D02*
X0167701Y0094437D01*
X0168400Y0096636D02*
X0188600Y0096636D01*
X0188915Y0098834D02*
X0168085Y0098834D01*
X0166497Y0101033D02*
X0190503Y0101033D01*
X0199013Y0107629D02*
X0167987Y0107629D01*
X0168400Y0109827D02*
X0198600Y0109827D01*
X0199201Y0112026D02*
X0167799Y0112026D01*
X0165141Y0114224D02*
X0201859Y0114224D01*
X0205141Y0114224D02*
X0207900Y0114224D01*
X0207900Y0112026D02*
X0207799Y0112026D01*
X0200763Y0105430D02*
X0166237Y0105430D01*
X0159013Y0107629D02*
X0133600Y0107629D01*
X0133600Y0109827D02*
X0158600Y0109827D01*
X0159201Y0112026D02*
X0132858Y0112026D01*
X0130659Y0114224D02*
X0161859Y0114224D01*
X0159299Y0094437D02*
X0084626Y0094437D01*
X0082374Y0094437D02*
X0054626Y0094437D01*
X0054475Y0094500D02*
X0052525Y0094500D01*
X0050724Y0093754D01*
X0049346Y0092376D01*
X0048600Y0090575D01*
X0048600Y0088625D01*
X0049346Y0086824D01*
X0050724Y0085446D01*
X0052525Y0084700D01*
X0054475Y0084700D01*
X0056276Y0085446D01*
X0057654Y0086824D01*
X0058400Y0088625D01*
X0058400Y0090575D01*
X0057654Y0092376D01*
X0056276Y0093754D01*
X0054475Y0094500D01*
X0052374Y0094437D02*
X0008600Y0094437D01*
X0008600Y0092239D02*
X0049289Y0092239D01*
X0048600Y0090040D02*
X0008600Y0090040D01*
X0008600Y0087842D02*
X0048924Y0087842D01*
X0050527Y0085643D02*
X0008600Y0085643D01*
X0008600Y0083445D02*
X0065698Y0083445D01*
X0064095Y0081246D02*
X0046283Y0081246D01*
X0046276Y0081254D02*
X0044475Y0082000D01*
X0042525Y0082000D01*
X0040724Y0081254D01*
X0039346Y0079876D01*
X0038600Y0078075D01*
X0038600Y0076125D01*
X0039346Y0074324D01*
X0040724Y0072946D01*
X0042525Y0072200D01*
X0044475Y0072200D01*
X0046276Y0072946D01*
X0047654Y0074324D01*
X0048400Y0076125D01*
X0048400Y0078075D01*
X0047654Y0079876D01*
X0046276Y0081254D01*
X0047997Y0079048D02*
X0063800Y0079048D01*
X0064604Y0076849D02*
X0048400Y0076849D01*
X0047789Y0074651D02*
X0059469Y0074651D01*
X0058800Y0072452D02*
X0045084Y0072452D01*
X0041916Y0072452D02*
X0008600Y0072452D01*
X0008600Y0070254D02*
X0059177Y0070254D01*
X0060983Y0068055D02*
X0008600Y0068055D01*
X0008600Y0065857D02*
X0103400Y0065857D01*
X0103400Y0066284D02*
X0103400Y0062476D01*
X0113124Y0062476D01*
X0113124Y0061724D01*
X0113876Y0061724D01*
X0113876Y0062476D01*
X0123600Y0062476D01*
X0123600Y0066284D01*
X0117684Y0072200D01*
X0113876Y0072200D01*
X0113876Y0062476D01*
X0113124Y0062476D01*
X0113124Y0072200D01*
X0109316Y0072200D01*
X0103400Y0066284D01*
X0105172Y0068055D02*
X0096017Y0068055D01*
X0097823Y0070254D02*
X0107370Y0070254D01*
X0113124Y0070254D02*
X0113876Y0070254D01*
X0113876Y0068055D02*
X0113124Y0068055D01*
X0113124Y0065857D02*
X0113876Y0065857D01*
X0113876Y0063658D02*
X0113124Y0063658D01*
X0113124Y0061724D02*
X0103400Y0061724D01*
X0103400Y0057916D01*
X0109316Y0052000D01*
X0113124Y0052000D01*
X0113124Y0061724D01*
X0113124Y0061460D02*
X0113876Y0061460D01*
X0113876Y0061724D02*
X0113876Y0052000D01*
X0117684Y0052000D01*
X0123600Y0057916D01*
X0123600Y0061724D01*
X0113876Y0061724D01*
X0113876Y0059261D02*
X0113124Y0059261D01*
X0113124Y0057063D02*
X0113876Y0057063D01*
X0113876Y0054864D02*
X0113124Y0054864D01*
X0113124Y0052666D02*
X0113876Y0052666D01*
X0118349Y0052666D02*
X0207900Y0052666D01*
X0207900Y0054864D02*
X0139558Y0054864D01*
X0138825Y0054131D02*
X0141469Y0056775D01*
X0142900Y0060230D01*
X0142900Y0063970D01*
X0141469Y0067425D01*
X0138825Y0070069D01*
X0135370Y0071500D01*
X0131630Y0071500D01*
X0128175Y0070069D01*
X0125531Y0067425D01*
X0124100Y0063970D01*
X0124100Y0060230D01*
X0125531Y0056775D01*
X0128175Y0054131D01*
X0131630Y0052700D01*
X0135370Y0052700D01*
X0138825Y0054131D01*
X0141588Y0057063D02*
X0169464Y0057063D01*
X0168800Y0059261D02*
X0142499Y0059261D01*
X0142900Y0061460D02*
X0169183Y0061460D01*
X0171016Y0063658D02*
X0142900Y0063658D01*
X0142118Y0065857D02*
X0173928Y0065857D01*
X0173808Y0068055D02*
X0140838Y0068055D01*
X0138378Y0070254D02*
X0175007Y0070254D01*
X0183192Y0068055D02*
X0207900Y0068055D01*
X0207900Y0065857D02*
X0183072Y0065857D01*
X0185984Y0063658D02*
X0201016Y0063658D01*
X0199183Y0061460D02*
X0187817Y0061460D01*
X0188200Y0059261D02*
X0198800Y0059261D01*
X0199464Y0057063D02*
X0187536Y0057063D01*
X0179464Y0057063D02*
X0177536Y0057063D01*
X0178200Y0059261D02*
X0178800Y0059261D01*
X0179183Y0061460D02*
X0177817Y0061460D01*
X0166276Y0048754D02*
X0164475Y0049500D01*
X0162525Y0049500D01*
X0160724Y0048754D01*
X0159346Y0047376D01*
X0158600Y0045575D01*
X0158600Y0043625D01*
X0159346Y0041824D01*
X0160724Y0040446D01*
X0162525Y0039700D01*
X0164475Y0039700D01*
X0166276Y0040446D01*
X0167654Y0041824D01*
X0168400Y0043625D01*
X0168400Y0045575D01*
X0167654Y0047376D01*
X0166276Y0048754D01*
X0166761Y0048269D02*
X0200239Y0048269D01*
X0198805Y0046070D02*
X0168195Y0046070D01*
X0168400Y0043872D02*
X0198600Y0043872D01*
X0199497Y0041673D02*
X0167503Y0041673D01*
X0159497Y0041673D02*
X0061647Y0041673D01*
X0059840Y0043872D02*
X0158600Y0043872D01*
X0158805Y0046070D02*
X0056108Y0046070D01*
X0050695Y0046070D02*
X0008600Y0046070D01*
X0008600Y0043872D02*
X0046963Y0043872D01*
X0045156Y0041673D02*
X0008600Y0041673D01*
X0008600Y0039475D02*
X0044245Y0039475D01*
X0044002Y0037276D02*
X0008600Y0037276D01*
X0008600Y0035078D02*
X0044030Y0035078D01*
X0044941Y0032879D02*
X0027315Y0032879D01*
X0031040Y0030681D02*
X0046444Y0030681D01*
X0049443Y0028482D02*
X0032978Y0028482D01*
X0034180Y0026284D02*
X0049366Y0026284D01*
X0052533Y0026284D02*
X0054270Y0026284D01*
X0054270Y0024085D02*
X0052533Y0024085D01*
X0052533Y0021887D02*
X0054270Y0021887D01*
X0054270Y0019688D02*
X0052533Y0019688D01*
X0046186Y0024085D02*
X0034769Y0024085D01*
X0034899Y0021887D02*
X0044537Y0021887D01*
X0043652Y0019688D02*
X0034655Y0019688D01*
X0029706Y0010894D02*
X0045366Y0010894D01*
X0047661Y0008696D02*
X0031904Y0008696D01*
X0014022Y0028482D02*
X0012118Y0028482D01*
X0009919Y0030681D02*
X0015960Y0030681D01*
X0019685Y0032879D02*
X0008600Y0032879D01*
X0008600Y0048269D02*
X0160239Y0048269D01*
X0127442Y0054864D02*
X0120548Y0054864D01*
X0122746Y0057063D02*
X0125412Y0057063D01*
X0124501Y0059261D02*
X0123600Y0059261D01*
X0123600Y0061460D02*
X0124100Y0061460D01*
X0124100Y0063658D02*
X0123600Y0063658D01*
X0123600Y0065857D02*
X0124882Y0065857D01*
X0126162Y0068055D02*
X0121828Y0068055D01*
X0119630Y0070254D02*
X0128622Y0070254D01*
X0103400Y0063658D02*
X0008600Y0063658D01*
X0008600Y0061460D02*
X0103400Y0061460D01*
X0103400Y0059261D02*
X0008600Y0059261D01*
X0008600Y0057063D02*
X0104254Y0057063D01*
X0106452Y0054864D02*
X0008600Y0054864D01*
X0008600Y0052666D02*
X0108651Y0052666D01*
X0090983Y0068055D02*
X0076017Y0068055D01*
X0077823Y0070254D02*
X0089177Y0070254D01*
X0088800Y0072452D02*
X0078200Y0072452D01*
X0077531Y0074651D02*
X0089469Y0074651D01*
X0070983Y0068055D02*
X0066017Y0068055D01*
X0067823Y0070254D02*
X0069177Y0070254D01*
X0068800Y0072452D02*
X0068200Y0072452D01*
X0067531Y0074651D02*
X0069469Y0074651D01*
X0080527Y0085643D02*
X0056473Y0085643D01*
X0058075Y0087842D02*
X0078924Y0087842D01*
X0078600Y0090040D02*
X0058400Y0090040D01*
X0057711Y0092239D02*
X0079289Y0092239D01*
X0075119Y0098834D02*
X0071881Y0098834D01*
X0072484Y0099438D02*
X0073200Y0101165D01*
X0073200Y0103035D01*
X0072484Y0104762D01*
X0071162Y0106084D01*
X0069435Y0106800D01*
X0067565Y0106800D01*
X0065838Y0106084D01*
X0064516Y0104762D01*
X0063800Y0103035D01*
X0063800Y0101165D01*
X0064516Y0099438D01*
X0065838Y0098116D01*
X0067565Y0097400D01*
X0069435Y0097400D01*
X0071162Y0098116D01*
X0072484Y0099438D01*
X0073145Y0101033D02*
X0073855Y0101033D01*
X0073881Y0103232D02*
X0073119Y0103232D01*
X0071817Y0105430D02*
X0075183Y0105430D01*
X0065183Y0105430D02*
X0061817Y0105430D01*
X0063119Y0103232D02*
X0063881Y0103232D01*
X0063855Y0101033D02*
X0063145Y0101033D01*
X0061881Y0098834D02*
X0065119Y0098834D01*
X0055119Y0098834D02*
X0032588Y0098834D01*
X0033686Y0101033D02*
X0053855Y0101033D01*
X0053881Y0103232D02*
X0033660Y0103232D01*
X0032524Y0105430D02*
X0055183Y0105430D01*
X0061600Y0114224D02*
X0116341Y0114224D01*
X0118539Y0116423D02*
X0061600Y0116423D01*
X0061600Y0118621D02*
X0119406Y0118621D01*
X0116487Y0120820D02*
X0061600Y0120820D01*
X0061600Y0123018D02*
X0115016Y0123018D01*
X0114106Y0125217D02*
X0061600Y0125217D01*
X0061600Y0127415D02*
X0114100Y0127415D01*
X0114367Y0129614D02*
X0061600Y0129614D01*
X0061600Y0131812D02*
X0115277Y0131812D01*
X0117117Y0134011D02*
X0061600Y0134011D01*
X0061600Y0136209D02*
X0120928Y0136209D01*
X0126072Y0136209D02*
X0159961Y0136209D01*
X0158690Y0138408D02*
X0061600Y0138408D01*
X0061600Y0140606D02*
X0158613Y0140606D01*
X0159775Y0142805D02*
X0075623Y0142805D01*
X0071377Y0142805D02*
X0067498Y0142805D01*
X0055400Y0142805D02*
X0048488Y0142805D01*
X0047684Y0142000D02*
X0053600Y0147916D01*
X0053600Y0151724D01*
X0043876Y0151724D01*
X0043876Y0152476D01*
X0053600Y0152476D01*
X0053600Y0156284D01*
X0047684Y0162200D01*
X0043876Y0162200D01*
X0043876Y0152476D01*
X0043124Y0152476D01*
X0043124Y0151724D01*
X0043876Y0151724D01*
X0043876Y0142000D01*
X0047684Y0142000D01*
X0043876Y0142805D02*
X0043124Y0142805D01*
X0043124Y0142000D02*
X0043124Y0151724D01*
X0033400Y0151724D01*
X0033400Y0147916D01*
X0039316Y0142000D01*
X0043124Y0142000D01*
X0043124Y0145003D02*
X0043876Y0145003D01*
X0043876Y0147202D02*
X0043124Y0147202D01*
X0043124Y0149400D02*
X0043876Y0149400D01*
X0043876Y0151599D02*
X0043124Y0151599D01*
X0043124Y0152476D02*
X0033400Y0152476D01*
X0033400Y0156284D01*
X0039316Y0162200D01*
X0043124Y0162200D01*
X0043124Y0152476D01*
X0043124Y0153797D02*
X0043876Y0153797D01*
X0043876Y0155996D02*
X0043124Y0155996D01*
X0043124Y0158194D02*
X0043876Y0158194D01*
X0043876Y0160393D02*
X0043124Y0160393D01*
X0037509Y0160393D02*
X0008600Y0160393D01*
X0008600Y0158194D02*
X0035311Y0158194D01*
X0033400Y0155996D02*
X0008600Y0155996D01*
X0008600Y0153797D02*
X0033400Y0153797D01*
X0033400Y0151599D02*
X0008600Y0151599D01*
X0008600Y0149400D02*
X0033400Y0149400D01*
X0034115Y0147202D02*
X0008600Y0147202D01*
X0008600Y0145003D02*
X0036313Y0145003D01*
X0038512Y0142805D02*
X0008600Y0142805D01*
X0008600Y0140606D02*
X0055400Y0140606D01*
X0055400Y0138408D02*
X0008600Y0138408D01*
X0008600Y0136209D02*
X0055400Y0136209D01*
X0055400Y0134011D02*
X0008600Y0134011D01*
X0008600Y0131812D02*
X0055400Y0131812D01*
X0055400Y0129614D02*
X0008600Y0129614D01*
X0008600Y0127415D02*
X0055400Y0127415D01*
X0055400Y0125217D02*
X0008600Y0125217D01*
X0008600Y0123018D02*
X0055400Y0123018D01*
X0055400Y0120820D02*
X0046710Y0120820D01*
X0040290Y0120820D02*
X0008600Y0120820D01*
X0008600Y0118621D02*
X0038826Y0118621D01*
X0038600Y0116423D02*
X0008600Y0116423D01*
X0008600Y0114224D02*
X0039446Y0114224D01*
X0024476Y0105430D02*
X0023373Y0105430D01*
X0018500Y0105430D02*
X0018500Y0105430D01*
X0018500Y0103232D02*
X0018500Y0103232D01*
X0018500Y0101033D02*
X0018500Y0101033D01*
X0018500Y0098834D02*
X0018500Y0098834D01*
X0023420Y0098834D02*
X0024412Y0098834D01*
X0008600Y0081246D02*
X0040717Y0081246D01*
X0039003Y0079048D02*
X0008600Y0079048D01*
X0008600Y0076849D02*
X0038600Y0076849D01*
X0039211Y0074651D02*
X0008600Y0074651D01*
X0008600Y0050467D02*
X0207900Y0050467D01*
X0207900Y0048269D02*
X0206761Y0048269D01*
X0207536Y0057063D02*
X0207900Y0057063D01*
X0207817Y0061460D02*
X0207900Y0061460D01*
X0207900Y0063658D02*
X0205984Y0063658D01*
X0221600Y0057063D02*
X0338600Y0057063D01*
X0265522Y0048269D02*
X0264053Y0048269D01*
X0264022Y0046070D02*
X0262978Y0046070D01*
X0263200Y0043872D02*
X0263800Y0043872D01*
X0264780Y0041673D02*
X0262220Y0041673D01*
X0261566Y0030681D02*
X0265434Y0030681D01*
X0263985Y0028482D02*
X0263015Y0028482D01*
X0263200Y0026284D02*
X0263800Y0026284D01*
X0264868Y0024085D02*
X0262132Y0024085D01*
X0199887Y0026284D02*
X0167113Y0026284D01*
X0168341Y0028482D02*
X0198659Y0028482D01*
X0198644Y0030681D02*
X0168356Y0030681D01*
X0167150Y0032879D02*
X0199850Y0032879D01*
X0199961Y0136209D02*
X0167039Y0136209D01*
X0168310Y0138408D02*
X0198690Y0138408D01*
X0198613Y0140606D02*
X0168387Y0140606D01*
X0167225Y0142805D02*
X0199775Y0142805D01*
X0189190Y0147202D02*
X0167810Y0147202D01*
X0168400Y0149400D02*
X0188600Y0149400D01*
X0189024Y0151599D02*
X0167976Y0151599D01*
X0166171Y0153797D02*
X0190829Y0153797D01*
X0196279Y0175782D02*
X0260721Y0175782D01*
X0257861Y0177981D02*
X0199139Y0177981D01*
X0200173Y0180179D02*
X0256827Y0180179D01*
X0256600Y0182378D02*
X0200400Y0182378D01*
X0199943Y0184576D02*
X0257057Y0184576D01*
X0258417Y0186775D02*
X0198583Y0186775D01*
X0133500Y0162591D02*
X0133500Y0162591D01*
X0133500Y0160393D02*
X0133500Y0160393D01*
X0133500Y0158194D02*
X0133500Y0158194D01*
X0133500Y0155996D02*
X0133500Y0155996D01*
X0128826Y0155996D02*
X0117250Y0155996D01*
X0118546Y0158194D02*
X0127753Y0158194D01*
X0127652Y0160393D02*
X0118700Y0160393D01*
X0117863Y0162591D02*
X0128402Y0162591D01*
X0113663Y0177981D02*
X0108337Y0177981D01*
X0110292Y0180179D02*
X0111708Y0180179D01*
X0111300Y0182378D02*
X0110700Y0182378D01*
X0110061Y0184576D02*
X0111939Y0184576D01*
X0101939Y0184576D02*
X0100061Y0184576D01*
X0100700Y0182378D02*
X0101300Y0182378D01*
X0101708Y0180179D02*
X0100292Y0180179D01*
X0098337Y0177981D02*
X0103663Y0177981D01*
X0093663Y0177981D02*
X0092900Y0177981D01*
X0068957Y0160393D02*
X0068501Y0160393D01*
X0058499Y0160393D02*
X0049491Y0160393D01*
X0051689Y0158194D02*
X0056301Y0158194D01*
X0054102Y0155996D02*
X0053600Y0155996D01*
X0053600Y0153797D02*
X0054100Y0153797D01*
X0054100Y0151599D02*
X0053600Y0151599D01*
X0053600Y0149400D02*
X0054100Y0149400D01*
X0055105Y0147202D02*
X0052885Y0147202D01*
X0050687Y0145003D02*
X0055400Y0145003D01*
X0548997Y0101033D02*
X0580420Y0101033D01*
X0582671Y0098834D02*
X0550585Y0098834D01*
X0583640Y0070254D02*
X0592525Y0070254D01*
X0590331Y0068055D02*
X0585838Y0068055D01*
X0587900Y0065857D02*
X0589114Y0065857D01*
X0588512Y0063658D02*
X0587900Y0063658D01*
X0587900Y0061460D02*
X0588408Y0061460D01*
X0588793Y0059261D02*
X0587900Y0059261D01*
X0586756Y0057063D02*
X0589737Y0057063D01*
X0591452Y0054864D02*
X0584558Y0054864D01*
X0648325Y0083445D02*
X0698400Y0083445D01*
X0698400Y0085643D02*
X0648372Y0085643D01*
X0647188Y0087842D02*
X0698400Y0087842D01*
X0698400Y0090040D02*
X0646600Y0090040D01*
X0646600Y0092239D02*
X0698400Y0092239D01*
X0698400Y0094437D02*
X0646600Y0094437D01*
X0625119Y0098834D02*
X0621881Y0098834D01*
X0623145Y0101033D02*
X0623855Y0101033D01*
X0623881Y0103232D02*
X0623119Y0103232D01*
X0621817Y0105430D02*
X0625183Y0105430D01*
X0646600Y0118621D02*
X0660591Y0118621D01*
X0687556Y0171385D02*
X0698400Y0171385D01*
X0697016Y0173584D02*
X0691105Y0173584D01*
X0693015Y0175782D02*
X0694818Y0175782D01*
X0631123Y0184576D02*
X0615061Y0184576D01*
X0615700Y0182378D02*
X0628924Y0182378D01*
X0626726Y0180179D02*
X0615292Y0180179D01*
X0613337Y0177981D02*
X0624527Y0177981D01*
X0608663Y0177981D02*
X0603337Y0177981D01*
X0605292Y0180179D02*
X0606708Y0180179D01*
X0606300Y0182378D02*
X0605700Y0182378D01*
X0605061Y0184576D02*
X0606939Y0184576D01*
X0596939Y0184576D02*
X0595061Y0184576D01*
X0595700Y0182378D02*
X0596300Y0182378D01*
X0596708Y0180179D02*
X0595292Y0180179D01*
X0593337Y0177981D02*
X0598663Y0177981D01*
X0652730Y0046070D02*
X0654467Y0046070D01*
X0654467Y0043872D02*
X0652730Y0043872D01*
X0652730Y0041673D02*
X0654467Y0041673D01*
X0661183Y0043872D02*
X0698400Y0043872D01*
X0698400Y0046070D02*
X0658422Y0046070D01*
X0662646Y0041673D02*
X0698400Y0041673D01*
X0698400Y0039475D02*
X0663435Y0039475D01*
X0687315Y0032879D02*
X0698400Y0032879D01*
X0697081Y0030681D02*
X0691040Y0030681D01*
X0692978Y0028482D02*
X0694882Y0028482D01*
X0672231Y0024085D02*
X0659990Y0024085D01*
X0661825Y0021887D02*
X0672101Y0021887D01*
X0672345Y0019688D02*
X0662735Y0019688D01*
X0662998Y0017490D02*
X0672999Y0017490D01*
X0674268Y0015291D02*
X0662989Y0015291D01*
X0662079Y0013093D02*
X0676387Y0013093D01*
X0677294Y0010894D02*
X0660603Y0010894D01*
X0657671Y0008696D02*
X0675096Y0008696D01*
D21*
X0348500Y0097100D03*
D22*
X0278500Y0214600D02*
X0238500Y0214600D01*
X0243500Y0214600D01*
X0243640Y0214602D01*
X0243780Y0214608D01*
X0243920Y0214618D01*
X0244060Y0214631D01*
X0244199Y0214649D01*
X0244338Y0214671D01*
X0244475Y0214696D01*
X0244613Y0214725D01*
X0244749Y0214758D01*
X0244884Y0214795D01*
X0245018Y0214836D01*
X0245151Y0214881D01*
X0245283Y0214929D01*
X0245413Y0214981D01*
X0245542Y0215036D01*
X0245669Y0215095D01*
X0245795Y0215158D01*
X0245919Y0215224D01*
X0246040Y0215293D01*
X0246160Y0215366D01*
X0246278Y0215443D01*
X0246393Y0215522D01*
X0246507Y0215605D01*
X0246617Y0215691D01*
X0246726Y0215780D01*
X0246832Y0215872D01*
X0246935Y0215967D01*
X0247036Y0216064D01*
X0247133Y0216165D01*
X0247228Y0216268D01*
X0247320Y0216374D01*
X0247409Y0216483D01*
X0247495Y0216593D01*
X0247578Y0216707D01*
X0247657Y0216822D01*
X0247734Y0216940D01*
X0247807Y0217060D01*
X0247876Y0217181D01*
X0247942Y0217305D01*
X0248005Y0217431D01*
X0248064Y0217558D01*
X0248119Y0217687D01*
X0248171Y0217817D01*
X0248219Y0217949D01*
X0248264Y0218082D01*
X0248305Y0218216D01*
X0248342Y0218351D01*
X0248375Y0218487D01*
X0248404Y0218625D01*
X0248429Y0218762D01*
X0248451Y0218901D01*
X0248469Y0219040D01*
X0248482Y0219180D01*
X0248492Y0219320D01*
X0248498Y0219460D01*
X0248500Y0219600D01*
X0248500Y0237100D01*
X0078500Y0237100D02*
X0078500Y0219600D01*
X0073500Y0214600D01*
X0068500Y0214600D01*
X0428500Y0214600D02*
X0468500Y0214600D01*
X0438500Y0219600D02*
X0438500Y0237100D01*
X0438500Y0219600D02*
X0438498Y0219460D01*
X0438492Y0219320D01*
X0438482Y0219180D01*
X0438469Y0219040D01*
X0438451Y0218901D01*
X0438429Y0218762D01*
X0438404Y0218625D01*
X0438375Y0218487D01*
X0438342Y0218351D01*
X0438305Y0218216D01*
X0438264Y0218082D01*
X0438219Y0217949D01*
X0438171Y0217817D01*
X0438119Y0217687D01*
X0438064Y0217558D01*
X0438005Y0217431D01*
X0437942Y0217305D01*
X0437876Y0217181D01*
X0437807Y0217060D01*
X0437734Y0216940D01*
X0437657Y0216822D01*
X0437578Y0216707D01*
X0437495Y0216593D01*
X0437409Y0216483D01*
X0437320Y0216374D01*
X0437228Y0216268D01*
X0437133Y0216165D01*
X0437036Y0216064D01*
X0436935Y0215967D01*
X0436832Y0215872D01*
X0436726Y0215780D01*
X0436617Y0215691D01*
X0436507Y0215605D01*
X0436393Y0215522D01*
X0436278Y0215443D01*
X0436160Y0215366D01*
X0436040Y0215293D01*
X0435919Y0215224D01*
X0435795Y0215158D01*
X0435669Y0215095D01*
X0435542Y0215036D01*
X0435413Y0214981D01*
X0435283Y0214929D01*
X0435151Y0214881D01*
X0435018Y0214836D01*
X0434884Y0214795D01*
X0434749Y0214758D01*
X0434613Y0214725D01*
X0434475Y0214696D01*
X0434338Y0214671D01*
X0434199Y0214649D01*
X0434060Y0214631D01*
X0433920Y0214618D01*
X0433780Y0214608D01*
X0433640Y0214602D01*
X0433500Y0214600D01*
X0428500Y0214600D01*
X0598500Y0214600D02*
X0603500Y0214600D01*
X0608500Y0219600D01*
X0608500Y0237100D01*
D23*
X0618500Y0237100D02*
X0618500Y0229600D01*
X0623500Y0224600D01*
X0641000Y0224600D01*
X0646000Y0219600D01*
X0646000Y0192100D01*
X0622250Y0168350D01*
X0621000Y0167100D02*
X0633500Y0152100D01*
X0621000Y0167100D02*
X0613500Y0159600D01*
X0593500Y0159600D01*
X0513500Y0182100D02*
X0488500Y0182100D01*
X0476000Y0194600D01*
X0476000Y0224600D01*
X0463500Y0237100D01*
X0458500Y0237100D01*
D24*
X0621000Y0167100D02*
X0622250Y0168350D01*
X0113500Y0159600D02*
X0096000Y0159600D01*
X0088500Y0167100D01*
X0088500Y0162100D01*
X0078500Y0152100D01*
X0073500Y0152100D01*
X0088500Y0167100D02*
X0088500Y0237100D01*
D25*
X0073500Y0152100D02*
X0063500Y0152100D01*
M02*
