G75*
%MOIN*%
%OFA0B0*%
%FSLAX25Y25*%
%IPPOS*%
%LPD*%
%AMOC8*
5,1,8,0,0,1.08239X$1,22.5*
%
%ADD10C,0.00000*%
D10*
X0003500Y0002100D02*
X0003500Y0302100D01*
X0703500Y0302100D01*
X0703500Y0002100D01*
X0003500Y0002100D01*
X0017201Y0022100D02*
X0017203Y0022258D01*
X0017209Y0022416D01*
X0017219Y0022574D01*
X0017233Y0022732D01*
X0017251Y0022889D01*
X0017272Y0023046D01*
X0017298Y0023202D01*
X0017328Y0023358D01*
X0017361Y0023513D01*
X0017399Y0023666D01*
X0017440Y0023819D01*
X0017485Y0023971D01*
X0017534Y0024122D01*
X0017587Y0024271D01*
X0017643Y0024419D01*
X0017703Y0024565D01*
X0017767Y0024710D01*
X0017835Y0024853D01*
X0017906Y0024995D01*
X0017980Y0025135D01*
X0018058Y0025272D01*
X0018140Y0025408D01*
X0018224Y0025542D01*
X0018313Y0025673D01*
X0018404Y0025802D01*
X0018499Y0025929D01*
X0018596Y0026054D01*
X0018697Y0026176D01*
X0018801Y0026295D01*
X0018908Y0026412D01*
X0019018Y0026526D01*
X0019131Y0026637D01*
X0019246Y0026746D01*
X0019364Y0026851D01*
X0019485Y0026953D01*
X0019608Y0027053D01*
X0019734Y0027149D01*
X0019862Y0027242D01*
X0019992Y0027332D01*
X0020125Y0027418D01*
X0020260Y0027502D01*
X0020396Y0027581D01*
X0020535Y0027658D01*
X0020676Y0027730D01*
X0020818Y0027800D01*
X0020962Y0027865D01*
X0021108Y0027927D01*
X0021255Y0027985D01*
X0021404Y0028040D01*
X0021554Y0028091D01*
X0021705Y0028138D01*
X0021857Y0028181D01*
X0022010Y0028220D01*
X0022165Y0028256D01*
X0022320Y0028287D01*
X0022476Y0028315D01*
X0022632Y0028339D01*
X0022789Y0028359D01*
X0022947Y0028375D01*
X0023104Y0028387D01*
X0023263Y0028395D01*
X0023421Y0028399D01*
X0023579Y0028399D01*
X0023737Y0028395D01*
X0023896Y0028387D01*
X0024053Y0028375D01*
X0024211Y0028359D01*
X0024368Y0028339D01*
X0024524Y0028315D01*
X0024680Y0028287D01*
X0024835Y0028256D01*
X0024990Y0028220D01*
X0025143Y0028181D01*
X0025295Y0028138D01*
X0025446Y0028091D01*
X0025596Y0028040D01*
X0025745Y0027985D01*
X0025892Y0027927D01*
X0026038Y0027865D01*
X0026182Y0027800D01*
X0026324Y0027730D01*
X0026465Y0027658D01*
X0026604Y0027581D01*
X0026740Y0027502D01*
X0026875Y0027418D01*
X0027008Y0027332D01*
X0027138Y0027242D01*
X0027266Y0027149D01*
X0027392Y0027053D01*
X0027515Y0026953D01*
X0027636Y0026851D01*
X0027754Y0026746D01*
X0027869Y0026637D01*
X0027982Y0026526D01*
X0028092Y0026412D01*
X0028199Y0026295D01*
X0028303Y0026176D01*
X0028404Y0026054D01*
X0028501Y0025929D01*
X0028596Y0025802D01*
X0028687Y0025673D01*
X0028776Y0025542D01*
X0028860Y0025408D01*
X0028942Y0025272D01*
X0029020Y0025135D01*
X0029094Y0024995D01*
X0029165Y0024853D01*
X0029233Y0024710D01*
X0029297Y0024565D01*
X0029357Y0024419D01*
X0029413Y0024271D01*
X0029466Y0024122D01*
X0029515Y0023971D01*
X0029560Y0023819D01*
X0029601Y0023666D01*
X0029639Y0023513D01*
X0029672Y0023358D01*
X0029702Y0023202D01*
X0029728Y0023046D01*
X0029749Y0022889D01*
X0029767Y0022732D01*
X0029781Y0022574D01*
X0029791Y0022416D01*
X0029797Y0022258D01*
X0029799Y0022100D01*
X0029797Y0021942D01*
X0029791Y0021784D01*
X0029781Y0021626D01*
X0029767Y0021468D01*
X0029749Y0021311D01*
X0029728Y0021154D01*
X0029702Y0020998D01*
X0029672Y0020842D01*
X0029639Y0020687D01*
X0029601Y0020534D01*
X0029560Y0020381D01*
X0029515Y0020229D01*
X0029466Y0020078D01*
X0029413Y0019929D01*
X0029357Y0019781D01*
X0029297Y0019635D01*
X0029233Y0019490D01*
X0029165Y0019347D01*
X0029094Y0019205D01*
X0029020Y0019065D01*
X0028942Y0018928D01*
X0028860Y0018792D01*
X0028776Y0018658D01*
X0028687Y0018527D01*
X0028596Y0018398D01*
X0028501Y0018271D01*
X0028404Y0018146D01*
X0028303Y0018024D01*
X0028199Y0017905D01*
X0028092Y0017788D01*
X0027982Y0017674D01*
X0027869Y0017563D01*
X0027754Y0017454D01*
X0027636Y0017349D01*
X0027515Y0017247D01*
X0027392Y0017147D01*
X0027266Y0017051D01*
X0027138Y0016958D01*
X0027008Y0016868D01*
X0026875Y0016782D01*
X0026740Y0016698D01*
X0026604Y0016619D01*
X0026465Y0016542D01*
X0026324Y0016470D01*
X0026182Y0016400D01*
X0026038Y0016335D01*
X0025892Y0016273D01*
X0025745Y0016215D01*
X0025596Y0016160D01*
X0025446Y0016109D01*
X0025295Y0016062D01*
X0025143Y0016019D01*
X0024990Y0015980D01*
X0024835Y0015944D01*
X0024680Y0015913D01*
X0024524Y0015885D01*
X0024368Y0015861D01*
X0024211Y0015841D01*
X0024053Y0015825D01*
X0023896Y0015813D01*
X0023737Y0015805D01*
X0023579Y0015801D01*
X0023421Y0015801D01*
X0023263Y0015805D01*
X0023104Y0015813D01*
X0022947Y0015825D01*
X0022789Y0015841D01*
X0022632Y0015861D01*
X0022476Y0015885D01*
X0022320Y0015913D01*
X0022165Y0015944D01*
X0022010Y0015980D01*
X0021857Y0016019D01*
X0021705Y0016062D01*
X0021554Y0016109D01*
X0021404Y0016160D01*
X0021255Y0016215D01*
X0021108Y0016273D01*
X0020962Y0016335D01*
X0020818Y0016400D01*
X0020676Y0016470D01*
X0020535Y0016542D01*
X0020396Y0016619D01*
X0020260Y0016698D01*
X0020125Y0016782D01*
X0019992Y0016868D01*
X0019862Y0016958D01*
X0019734Y0017051D01*
X0019608Y0017147D01*
X0019485Y0017247D01*
X0019364Y0017349D01*
X0019246Y0017454D01*
X0019131Y0017563D01*
X0019018Y0017674D01*
X0018908Y0017788D01*
X0018801Y0017905D01*
X0018697Y0018024D01*
X0018596Y0018146D01*
X0018499Y0018271D01*
X0018404Y0018398D01*
X0018313Y0018527D01*
X0018224Y0018658D01*
X0018140Y0018792D01*
X0018058Y0018928D01*
X0017980Y0019065D01*
X0017906Y0019205D01*
X0017835Y0019347D01*
X0017767Y0019490D01*
X0017703Y0019635D01*
X0017643Y0019781D01*
X0017587Y0019929D01*
X0017534Y0020078D01*
X0017485Y0020229D01*
X0017440Y0020381D01*
X0017399Y0020534D01*
X0017361Y0020687D01*
X0017328Y0020842D01*
X0017298Y0020998D01*
X0017272Y0021154D01*
X0017251Y0021311D01*
X0017233Y0021468D01*
X0017219Y0021626D01*
X0017209Y0021784D01*
X0017203Y0021942D01*
X0017201Y0022100D01*
X0017201Y0182100D02*
X0017203Y0182258D01*
X0017209Y0182416D01*
X0017219Y0182574D01*
X0017233Y0182732D01*
X0017251Y0182889D01*
X0017272Y0183046D01*
X0017298Y0183202D01*
X0017328Y0183358D01*
X0017361Y0183513D01*
X0017399Y0183666D01*
X0017440Y0183819D01*
X0017485Y0183971D01*
X0017534Y0184122D01*
X0017587Y0184271D01*
X0017643Y0184419D01*
X0017703Y0184565D01*
X0017767Y0184710D01*
X0017835Y0184853D01*
X0017906Y0184995D01*
X0017980Y0185135D01*
X0018058Y0185272D01*
X0018140Y0185408D01*
X0018224Y0185542D01*
X0018313Y0185673D01*
X0018404Y0185802D01*
X0018499Y0185929D01*
X0018596Y0186054D01*
X0018697Y0186176D01*
X0018801Y0186295D01*
X0018908Y0186412D01*
X0019018Y0186526D01*
X0019131Y0186637D01*
X0019246Y0186746D01*
X0019364Y0186851D01*
X0019485Y0186953D01*
X0019608Y0187053D01*
X0019734Y0187149D01*
X0019862Y0187242D01*
X0019992Y0187332D01*
X0020125Y0187418D01*
X0020260Y0187502D01*
X0020396Y0187581D01*
X0020535Y0187658D01*
X0020676Y0187730D01*
X0020818Y0187800D01*
X0020962Y0187865D01*
X0021108Y0187927D01*
X0021255Y0187985D01*
X0021404Y0188040D01*
X0021554Y0188091D01*
X0021705Y0188138D01*
X0021857Y0188181D01*
X0022010Y0188220D01*
X0022165Y0188256D01*
X0022320Y0188287D01*
X0022476Y0188315D01*
X0022632Y0188339D01*
X0022789Y0188359D01*
X0022947Y0188375D01*
X0023104Y0188387D01*
X0023263Y0188395D01*
X0023421Y0188399D01*
X0023579Y0188399D01*
X0023737Y0188395D01*
X0023896Y0188387D01*
X0024053Y0188375D01*
X0024211Y0188359D01*
X0024368Y0188339D01*
X0024524Y0188315D01*
X0024680Y0188287D01*
X0024835Y0188256D01*
X0024990Y0188220D01*
X0025143Y0188181D01*
X0025295Y0188138D01*
X0025446Y0188091D01*
X0025596Y0188040D01*
X0025745Y0187985D01*
X0025892Y0187927D01*
X0026038Y0187865D01*
X0026182Y0187800D01*
X0026324Y0187730D01*
X0026465Y0187658D01*
X0026604Y0187581D01*
X0026740Y0187502D01*
X0026875Y0187418D01*
X0027008Y0187332D01*
X0027138Y0187242D01*
X0027266Y0187149D01*
X0027392Y0187053D01*
X0027515Y0186953D01*
X0027636Y0186851D01*
X0027754Y0186746D01*
X0027869Y0186637D01*
X0027982Y0186526D01*
X0028092Y0186412D01*
X0028199Y0186295D01*
X0028303Y0186176D01*
X0028404Y0186054D01*
X0028501Y0185929D01*
X0028596Y0185802D01*
X0028687Y0185673D01*
X0028776Y0185542D01*
X0028860Y0185408D01*
X0028942Y0185272D01*
X0029020Y0185135D01*
X0029094Y0184995D01*
X0029165Y0184853D01*
X0029233Y0184710D01*
X0029297Y0184565D01*
X0029357Y0184419D01*
X0029413Y0184271D01*
X0029466Y0184122D01*
X0029515Y0183971D01*
X0029560Y0183819D01*
X0029601Y0183666D01*
X0029639Y0183513D01*
X0029672Y0183358D01*
X0029702Y0183202D01*
X0029728Y0183046D01*
X0029749Y0182889D01*
X0029767Y0182732D01*
X0029781Y0182574D01*
X0029791Y0182416D01*
X0029797Y0182258D01*
X0029799Y0182100D01*
X0029797Y0181942D01*
X0029791Y0181784D01*
X0029781Y0181626D01*
X0029767Y0181468D01*
X0029749Y0181311D01*
X0029728Y0181154D01*
X0029702Y0180998D01*
X0029672Y0180842D01*
X0029639Y0180687D01*
X0029601Y0180534D01*
X0029560Y0180381D01*
X0029515Y0180229D01*
X0029466Y0180078D01*
X0029413Y0179929D01*
X0029357Y0179781D01*
X0029297Y0179635D01*
X0029233Y0179490D01*
X0029165Y0179347D01*
X0029094Y0179205D01*
X0029020Y0179065D01*
X0028942Y0178928D01*
X0028860Y0178792D01*
X0028776Y0178658D01*
X0028687Y0178527D01*
X0028596Y0178398D01*
X0028501Y0178271D01*
X0028404Y0178146D01*
X0028303Y0178024D01*
X0028199Y0177905D01*
X0028092Y0177788D01*
X0027982Y0177674D01*
X0027869Y0177563D01*
X0027754Y0177454D01*
X0027636Y0177349D01*
X0027515Y0177247D01*
X0027392Y0177147D01*
X0027266Y0177051D01*
X0027138Y0176958D01*
X0027008Y0176868D01*
X0026875Y0176782D01*
X0026740Y0176698D01*
X0026604Y0176619D01*
X0026465Y0176542D01*
X0026324Y0176470D01*
X0026182Y0176400D01*
X0026038Y0176335D01*
X0025892Y0176273D01*
X0025745Y0176215D01*
X0025596Y0176160D01*
X0025446Y0176109D01*
X0025295Y0176062D01*
X0025143Y0176019D01*
X0024990Y0175980D01*
X0024835Y0175944D01*
X0024680Y0175913D01*
X0024524Y0175885D01*
X0024368Y0175861D01*
X0024211Y0175841D01*
X0024053Y0175825D01*
X0023896Y0175813D01*
X0023737Y0175805D01*
X0023579Y0175801D01*
X0023421Y0175801D01*
X0023263Y0175805D01*
X0023104Y0175813D01*
X0022947Y0175825D01*
X0022789Y0175841D01*
X0022632Y0175861D01*
X0022476Y0175885D01*
X0022320Y0175913D01*
X0022165Y0175944D01*
X0022010Y0175980D01*
X0021857Y0176019D01*
X0021705Y0176062D01*
X0021554Y0176109D01*
X0021404Y0176160D01*
X0021255Y0176215D01*
X0021108Y0176273D01*
X0020962Y0176335D01*
X0020818Y0176400D01*
X0020676Y0176470D01*
X0020535Y0176542D01*
X0020396Y0176619D01*
X0020260Y0176698D01*
X0020125Y0176782D01*
X0019992Y0176868D01*
X0019862Y0176958D01*
X0019734Y0177051D01*
X0019608Y0177147D01*
X0019485Y0177247D01*
X0019364Y0177349D01*
X0019246Y0177454D01*
X0019131Y0177563D01*
X0019018Y0177674D01*
X0018908Y0177788D01*
X0018801Y0177905D01*
X0018697Y0178024D01*
X0018596Y0178146D01*
X0018499Y0178271D01*
X0018404Y0178398D01*
X0018313Y0178527D01*
X0018224Y0178658D01*
X0018140Y0178792D01*
X0018058Y0178928D01*
X0017980Y0179065D01*
X0017906Y0179205D01*
X0017835Y0179347D01*
X0017767Y0179490D01*
X0017703Y0179635D01*
X0017643Y0179781D01*
X0017587Y0179929D01*
X0017534Y0180078D01*
X0017485Y0180229D01*
X0017440Y0180381D01*
X0017399Y0180534D01*
X0017361Y0180687D01*
X0017328Y0180842D01*
X0017298Y0180998D01*
X0017272Y0181154D01*
X0017251Y0181311D01*
X0017233Y0181468D01*
X0017219Y0181626D01*
X0017209Y0181784D01*
X0017203Y0181942D01*
X0017201Y0182100D01*
X0017988Y0282100D02*
X0017990Y0282248D01*
X0017996Y0282396D01*
X0018006Y0282544D01*
X0018020Y0282691D01*
X0018038Y0282838D01*
X0018059Y0282984D01*
X0018085Y0283130D01*
X0018115Y0283275D01*
X0018148Y0283419D01*
X0018186Y0283562D01*
X0018227Y0283704D01*
X0018272Y0283845D01*
X0018320Y0283985D01*
X0018373Y0284124D01*
X0018429Y0284261D01*
X0018489Y0284396D01*
X0018552Y0284530D01*
X0018619Y0284662D01*
X0018690Y0284792D01*
X0018764Y0284920D01*
X0018841Y0285046D01*
X0018922Y0285170D01*
X0019006Y0285292D01*
X0019093Y0285411D01*
X0019184Y0285528D01*
X0019278Y0285643D01*
X0019374Y0285755D01*
X0019474Y0285865D01*
X0019576Y0285971D01*
X0019682Y0286075D01*
X0019790Y0286176D01*
X0019901Y0286274D01*
X0020014Y0286370D01*
X0020130Y0286462D01*
X0020248Y0286551D01*
X0020369Y0286636D01*
X0020492Y0286719D01*
X0020617Y0286798D01*
X0020744Y0286874D01*
X0020873Y0286946D01*
X0021004Y0287015D01*
X0021137Y0287080D01*
X0021272Y0287141D01*
X0021408Y0287199D01*
X0021545Y0287254D01*
X0021684Y0287304D01*
X0021825Y0287351D01*
X0021966Y0287394D01*
X0022109Y0287434D01*
X0022253Y0287469D01*
X0022397Y0287501D01*
X0022543Y0287528D01*
X0022689Y0287552D01*
X0022836Y0287572D01*
X0022983Y0287588D01*
X0023130Y0287600D01*
X0023278Y0287608D01*
X0023426Y0287612D01*
X0023574Y0287612D01*
X0023722Y0287608D01*
X0023870Y0287600D01*
X0024017Y0287588D01*
X0024164Y0287572D01*
X0024311Y0287552D01*
X0024457Y0287528D01*
X0024603Y0287501D01*
X0024747Y0287469D01*
X0024891Y0287434D01*
X0025034Y0287394D01*
X0025175Y0287351D01*
X0025316Y0287304D01*
X0025455Y0287254D01*
X0025592Y0287199D01*
X0025728Y0287141D01*
X0025863Y0287080D01*
X0025996Y0287015D01*
X0026127Y0286946D01*
X0026256Y0286874D01*
X0026383Y0286798D01*
X0026508Y0286719D01*
X0026631Y0286636D01*
X0026752Y0286551D01*
X0026870Y0286462D01*
X0026986Y0286370D01*
X0027099Y0286274D01*
X0027210Y0286176D01*
X0027318Y0286075D01*
X0027424Y0285971D01*
X0027526Y0285865D01*
X0027626Y0285755D01*
X0027722Y0285643D01*
X0027816Y0285528D01*
X0027907Y0285411D01*
X0027994Y0285292D01*
X0028078Y0285170D01*
X0028159Y0285046D01*
X0028236Y0284920D01*
X0028310Y0284792D01*
X0028381Y0284662D01*
X0028448Y0284530D01*
X0028511Y0284396D01*
X0028571Y0284261D01*
X0028627Y0284124D01*
X0028680Y0283985D01*
X0028728Y0283845D01*
X0028773Y0283704D01*
X0028814Y0283562D01*
X0028852Y0283419D01*
X0028885Y0283275D01*
X0028915Y0283130D01*
X0028941Y0282984D01*
X0028962Y0282838D01*
X0028980Y0282691D01*
X0028994Y0282544D01*
X0029004Y0282396D01*
X0029010Y0282248D01*
X0029012Y0282100D01*
X0029010Y0281952D01*
X0029004Y0281804D01*
X0028994Y0281656D01*
X0028980Y0281509D01*
X0028962Y0281362D01*
X0028941Y0281216D01*
X0028915Y0281070D01*
X0028885Y0280925D01*
X0028852Y0280781D01*
X0028814Y0280638D01*
X0028773Y0280496D01*
X0028728Y0280355D01*
X0028680Y0280215D01*
X0028627Y0280076D01*
X0028571Y0279939D01*
X0028511Y0279804D01*
X0028448Y0279670D01*
X0028381Y0279538D01*
X0028310Y0279408D01*
X0028236Y0279280D01*
X0028159Y0279154D01*
X0028078Y0279030D01*
X0027994Y0278908D01*
X0027907Y0278789D01*
X0027816Y0278672D01*
X0027722Y0278557D01*
X0027626Y0278445D01*
X0027526Y0278335D01*
X0027424Y0278229D01*
X0027318Y0278125D01*
X0027210Y0278024D01*
X0027099Y0277926D01*
X0026986Y0277830D01*
X0026870Y0277738D01*
X0026752Y0277649D01*
X0026631Y0277564D01*
X0026508Y0277481D01*
X0026383Y0277402D01*
X0026256Y0277326D01*
X0026127Y0277254D01*
X0025996Y0277185D01*
X0025863Y0277120D01*
X0025728Y0277059D01*
X0025592Y0277001D01*
X0025455Y0276946D01*
X0025316Y0276896D01*
X0025175Y0276849D01*
X0025034Y0276806D01*
X0024891Y0276766D01*
X0024747Y0276731D01*
X0024603Y0276699D01*
X0024457Y0276672D01*
X0024311Y0276648D01*
X0024164Y0276628D01*
X0024017Y0276612D01*
X0023870Y0276600D01*
X0023722Y0276592D01*
X0023574Y0276588D01*
X0023426Y0276588D01*
X0023278Y0276592D01*
X0023130Y0276600D01*
X0022983Y0276612D01*
X0022836Y0276628D01*
X0022689Y0276648D01*
X0022543Y0276672D01*
X0022397Y0276699D01*
X0022253Y0276731D01*
X0022109Y0276766D01*
X0021966Y0276806D01*
X0021825Y0276849D01*
X0021684Y0276896D01*
X0021545Y0276946D01*
X0021408Y0277001D01*
X0021272Y0277059D01*
X0021137Y0277120D01*
X0021004Y0277185D01*
X0020873Y0277254D01*
X0020744Y0277326D01*
X0020617Y0277402D01*
X0020492Y0277481D01*
X0020369Y0277564D01*
X0020248Y0277649D01*
X0020130Y0277738D01*
X0020014Y0277830D01*
X0019901Y0277926D01*
X0019790Y0278024D01*
X0019682Y0278125D01*
X0019576Y0278229D01*
X0019474Y0278335D01*
X0019374Y0278445D01*
X0019278Y0278557D01*
X0019184Y0278672D01*
X0019093Y0278789D01*
X0019006Y0278908D01*
X0018922Y0279030D01*
X0018841Y0279154D01*
X0018764Y0279280D01*
X0018690Y0279408D01*
X0018619Y0279538D01*
X0018552Y0279670D01*
X0018489Y0279804D01*
X0018429Y0279939D01*
X0018373Y0280076D01*
X0018320Y0280215D01*
X0018272Y0280355D01*
X0018227Y0280496D01*
X0018186Y0280638D01*
X0018148Y0280781D01*
X0018115Y0280925D01*
X0018085Y0281070D01*
X0018059Y0281216D01*
X0018038Y0281362D01*
X0018020Y0281509D01*
X0018006Y0281656D01*
X0017996Y0281804D01*
X0017990Y0281952D01*
X0017988Y0282100D01*
X0082988Y0290850D02*
X0082990Y0290998D01*
X0082996Y0291146D01*
X0083006Y0291294D01*
X0083020Y0291441D01*
X0083038Y0291588D01*
X0083059Y0291734D01*
X0083085Y0291880D01*
X0083115Y0292025D01*
X0083148Y0292169D01*
X0083186Y0292312D01*
X0083227Y0292454D01*
X0083272Y0292595D01*
X0083320Y0292735D01*
X0083373Y0292874D01*
X0083429Y0293011D01*
X0083489Y0293146D01*
X0083552Y0293280D01*
X0083619Y0293412D01*
X0083690Y0293542D01*
X0083764Y0293670D01*
X0083841Y0293796D01*
X0083922Y0293920D01*
X0084006Y0294042D01*
X0084093Y0294161D01*
X0084184Y0294278D01*
X0084278Y0294393D01*
X0084374Y0294505D01*
X0084474Y0294615D01*
X0084576Y0294721D01*
X0084682Y0294825D01*
X0084790Y0294926D01*
X0084901Y0295024D01*
X0085014Y0295120D01*
X0085130Y0295212D01*
X0085248Y0295301D01*
X0085369Y0295386D01*
X0085492Y0295469D01*
X0085617Y0295548D01*
X0085744Y0295624D01*
X0085873Y0295696D01*
X0086004Y0295765D01*
X0086137Y0295830D01*
X0086272Y0295891D01*
X0086408Y0295949D01*
X0086545Y0296004D01*
X0086684Y0296054D01*
X0086825Y0296101D01*
X0086966Y0296144D01*
X0087109Y0296184D01*
X0087253Y0296219D01*
X0087397Y0296251D01*
X0087543Y0296278D01*
X0087689Y0296302D01*
X0087836Y0296322D01*
X0087983Y0296338D01*
X0088130Y0296350D01*
X0088278Y0296358D01*
X0088426Y0296362D01*
X0088574Y0296362D01*
X0088722Y0296358D01*
X0088870Y0296350D01*
X0089017Y0296338D01*
X0089164Y0296322D01*
X0089311Y0296302D01*
X0089457Y0296278D01*
X0089603Y0296251D01*
X0089747Y0296219D01*
X0089891Y0296184D01*
X0090034Y0296144D01*
X0090175Y0296101D01*
X0090316Y0296054D01*
X0090455Y0296004D01*
X0090592Y0295949D01*
X0090728Y0295891D01*
X0090863Y0295830D01*
X0090996Y0295765D01*
X0091127Y0295696D01*
X0091256Y0295624D01*
X0091383Y0295548D01*
X0091508Y0295469D01*
X0091631Y0295386D01*
X0091752Y0295301D01*
X0091870Y0295212D01*
X0091986Y0295120D01*
X0092099Y0295024D01*
X0092210Y0294926D01*
X0092318Y0294825D01*
X0092424Y0294721D01*
X0092526Y0294615D01*
X0092626Y0294505D01*
X0092722Y0294393D01*
X0092816Y0294278D01*
X0092907Y0294161D01*
X0092994Y0294042D01*
X0093078Y0293920D01*
X0093159Y0293796D01*
X0093236Y0293670D01*
X0093310Y0293542D01*
X0093381Y0293412D01*
X0093448Y0293280D01*
X0093511Y0293146D01*
X0093571Y0293011D01*
X0093627Y0292874D01*
X0093680Y0292735D01*
X0093728Y0292595D01*
X0093773Y0292454D01*
X0093814Y0292312D01*
X0093852Y0292169D01*
X0093885Y0292025D01*
X0093915Y0291880D01*
X0093941Y0291734D01*
X0093962Y0291588D01*
X0093980Y0291441D01*
X0093994Y0291294D01*
X0094004Y0291146D01*
X0094010Y0290998D01*
X0094012Y0290850D01*
X0094010Y0290702D01*
X0094004Y0290554D01*
X0093994Y0290406D01*
X0093980Y0290259D01*
X0093962Y0290112D01*
X0093941Y0289966D01*
X0093915Y0289820D01*
X0093885Y0289675D01*
X0093852Y0289531D01*
X0093814Y0289388D01*
X0093773Y0289246D01*
X0093728Y0289105D01*
X0093680Y0288965D01*
X0093627Y0288826D01*
X0093571Y0288689D01*
X0093511Y0288554D01*
X0093448Y0288420D01*
X0093381Y0288288D01*
X0093310Y0288158D01*
X0093236Y0288030D01*
X0093159Y0287904D01*
X0093078Y0287780D01*
X0092994Y0287658D01*
X0092907Y0287539D01*
X0092816Y0287422D01*
X0092722Y0287307D01*
X0092626Y0287195D01*
X0092526Y0287085D01*
X0092424Y0286979D01*
X0092318Y0286875D01*
X0092210Y0286774D01*
X0092099Y0286676D01*
X0091986Y0286580D01*
X0091870Y0286488D01*
X0091752Y0286399D01*
X0091631Y0286314D01*
X0091508Y0286231D01*
X0091383Y0286152D01*
X0091256Y0286076D01*
X0091127Y0286004D01*
X0090996Y0285935D01*
X0090863Y0285870D01*
X0090728Y0285809D01*
X0090592Y0285751D01*
X0090455Y0285696D01*
X0090316Y0285646D01*
X0090175Y0285599D01*
X0090034Y0285556D01*
X0089891Y0285516D01*
X0089747Y0285481D01*
X0089603Y0285449D01*
X0089457Y0285422D01*
X0089311Y0285398D01*
X0089164Y0285378D01*
X0089017Y0285362D01*
X0088870Y0285350D01*
X0088722Y0285342D01*
X0088574Y0285338D01*
X0088426Y0285338D01*
X0088278Y0285342D01*
X0088130Y0285350D01*
X0087983Y0285362D01*
X0087836Y0285378D01*
X0087689Y0285398D01*
X0087543Y0285422D01*
X0087397Y0285449D01*
X0087253Y0285481D01*
X0087109Y0285516D01*
X0086966Y0285556D01*
X0086825Y0285599D01*
X0086684Y0285646D01*
X0086545Y0285696D01*
X0086408Y0285751D01*
X0086272Y0285809D01*
X0086137Y0285870D01*
X0086004Y0285935D01*
X0085873Y0286004D01*
X0085744Y0286076D01*
X0085617Y0286152D01*
X0085492Y0286231D01*
X0085369Y0286314D01*
X0085248Y0286399D01*
X0085130Y0286488D01*
X0085014Y0286580D01*
X0084901Y0286676D01*
X0084790Y0286774D01*
X0084682Y0286875D01*
X0084576Y0286979D01*
X0084474Y0287085D01*
X0084374Y0287195D01*
X0084278Y0287307D01*
X0084184Y0287422D01*
X0084093Y0287539D01*
X0084006Y0287658D01*
X0083922Y0287780D01*
X0083841Y0287904D01*
X0083764Y0288030D01*
X0083690Y0288158D01*
X0083619Y0288288D01*
X0083552Y0288420D01*
X0083489Y0288554D01*
X0083429Y0288689D01*
X0083373Y0288826D01*
X0083320Y0288965D01*
X0083272Y0289105D01*
X0083227Y0289246D01*
X0083186Y0289388D01*
X0083148Y0289531D01*
X0083115Y0289675D01*
X0083085Y0289820D01*
X0083059Y0289966D01*
X0083038Y0290112D01*
X0083020Y0290259D01*
X0083006Y0290406D01*
X0082996Y0290554D01*
X0082990Y0290702D01*
X0082988Y0290850D01*
X0252988Y0290850D02*
X0252990Y0290998D01*
X0252996Y0291146D01*
X0253006Y0291294D01*
X0253020Y0291441D01*
X0253038Y0291588D01*
X0253059Y0291734D01*
X0253085Y0291880D01*
X0253115Y0292025D01*
X0253148Y0292169D01*
X0253186Y0292312D01*
X0253227Y0292454D01*
X0253272Y0292595D01*
X0253320Y0292735D01*
X0253373Y0292874D01*
X0253429Y0293011D01*
X0253489Y0293146D01*
X0253552Y0293280D01*
X0253619Y0293412D01*
X0253690Y0293542D01*
X0253764Y0293670D01*
X0253841Y0293796D01*
X0253922Y0293920D01*
X0254006Y0294042D01*
X0254093Y0294161D01*
X0254184Y0294278D01*
X0254278Y0294393D01*
X0254374Y0294505D01*
X0254474Y0294615D01*
X0254576Y0294721D01*
X0254682Y0294825D01*
X0254790Y0294926D01*
X0254901Y0295024D01*
X0255014Y0295120D01*
X0255130Y0295212D01*
X0255248Y0295301D01*
X0255369Y0295386D01*
X0255492Y0295469D01*
X0255617Y0295548D01*
X0255744Y0295624D01*
X0255873Y0295696D01*
X0256004Y0295765D01*
X0256137Y0295830D01*
X0256272Y0295891D01*
X0256408Y0295949D01*
X0256545Y0296004D01*
X0256684Y0296054D01*
X0256825Y0296101D01*
X0256966Y0296144D01*
X0257109Y0296184D01*
X0257253Y0296219D01*
X0257397Y0296251D01*
X0257543Y0296278D01*
X0257689Y0296302D01*
X0257836Y0296322D01*
X0257983Y0296338D01*
X0258130Y0296350D01*
X0258278Y0296358D01*
X0258426Y0296362D01*
X0258574Y0296362D01*
X0258722Y0296358D01*
X0258870Y0296350D01*
X0259017Y0296338D01*
X0259164Y0296322D01*
X0259311Y0296302D01*
X0259457Y0296278D01*
X0259603Y0296251D01*
X0259747Y0296219D01*
X0259891Y0296184D01*
X0260034Y0296144D01*
X0260175Y0296101D01*
X0260316Y0296054D01*
X0260455Y0296004D01*
X0260592Y0295949D01*
X0260728Y0295891D01*
X0260863Y0295830D01*
X0260996Y0295765D01*
X0261127Y0295696D01*
X0261256Y0295624D01*
X0261383Y0295548D01*
X0261508Y0295469D01*
X0261631Y0295386D01*
X0261752Y0295301D01*
X0261870Y0295212D01*
X0261986Y0295120D01*
X0262099Y0295024D01*
X0262210Y0294926D01*
X0262318Y0294825D01*
X0262424Y0294721D01*
X0262526Y0294615D01*
X0262626Y0294505D01*
X0262722Y0294393D01*
X0262816Y0294278D01*
X0262907Y0294161D01*
X0262994Y0294042D01*
X0263078Y0293920D01*
X0263159Y0293796D01*
X0263236Y0293670D01*
X0263310Y0293542D01*
X0263381Y0293412D01*
X0263448Y0293280D01*
X0263511Y0293146D01*
X0263571Y0293011D01*
X0263627Y0292874D01*
X0263680Y0292735D01*
X0263728Y0292595D01*
X0263773Y0292454D01*
X0263814Y0292312D01*
X0263852Y0292169D01*
X0263885Y0292025D01*
X0263915Y0291880D01*
X0263941Y0291734D01*
X0263962Y0291588D01*
X0263980Y0291441D01*
X0263994Y0291294D01*
X0264004Y0291146D01*
X0264010Y0290998D01*
X0264012Y0290850D01*
X0264010Y0290702D01*
X0264004Y0290554D01*
X0263994Y0290406D01*
X0263980Y0290259D01*
X0263962Y0290112D01*
X0263941Y0289966D01*
X0263915Y0289820D01*
X0263885Y0289675D01*
X0263852Y0289531D01*
X0263814Y0289388D01*
X0263773Y0289246D01*
X0263728Y0289105D01*
X0263680Y0288965D01*
X0263627Y0288826D01*
X0263571Y0288689D01*
X0263511Y0288554D01*
X0263448Y0288420D01*
X0263381Y0288288D01*
X0263310Y0288158D01*
X0263236Y0288030D01*
X0263159Y0287904D01*
X0263078Y0287780D01*
X0262994Y0287658D01*
X0262907Y0287539D01*
X0262816Y0287422D01*
X0262722Y0287307D01*
X0262626Y0287195D01*
X0262526Y0287085D01*
X0262424Y0286979D01*
X0262318Y0286875D01*
X0262210Y0286774D01*
X0262099Y0286676D01*
X0261986Y0286580D01*
X0261870Y0286488D01*
X0261752Y0286399D01*
X0261631Y0286314D01*
X0261508Y0286231D01*
X0261383Y0286152D01*
X0261256Y0286076D01*
X0261127Y0286004D01*
X0260996Y0285935D01*
X0260863Y0285870D01*
X0260728Y0285809D01*
X0260592Y0285751D01*
X0260455Y0285696D01*
X0260316Y0285646D01*
X0260175Y0285599D01*
X0260034Y0285556D01*
X0259891Y0285516D01*
X0259747Y0285481D01*
X0259603Y0285449D01*
X0259457Y0285422D01*
X0259311Y0285398D01*
X0259164Y0285378D01*
X0259017Y0285362D01*
X0258870Y0285350D01*
X0258722Y0285342D01*
X0258574Y0285338D01*
X0258426Y0285338D01*
X0258278Y0285342D01*
X0258130Y0285350D01*
X0257983Y0285362D01*
X0257836Y0285378D01*
X0257689Y0285398D01*
X0257543Y0285422D01*
X0257397Y0285449D01*
X0257253Y0285481D01*
X0257109Y0285516D01*
X0256966Y0285556D01*
X0256825Y0285599D01*
X0256684Y0285646D01*
X0256545Y0285696D01*
X0256408Y0285751D01*
X0256272Y0285809D01*
X0256137Y0285870D01*
X0256004Y0285935D01*
X0255873Y0286004D01*
X0255744Y0286076D01*
X0255617Y0286152D01*
X0255492Y0286231D01*
X0255369Y0286314D01*
X0255248Y0286399D01*
X0255130Y0286488D01*
X0255014Y0286580D01*
X0254901Y0286676D01*
X0254790Y0286774D01*
X0254682Y0286875D01*
X0254576Y0286979D01*
X0254474Y0287085D01*
X0254374Y0287195D01*
X0254278Y0287307D01*
X0254184Y0287422D01*
X0254093Y0287539D01*
X0254006Y0287658D01*
X0253922Y0287780D01*
X0253841Y0287904D01*
X0253764Y0288030D01*
X0253690Y0288158D01*
X0253619Y0288288D01*
X0253552Y0288420D01*
X0253489Y0288554D01*
X0253429Y0288689D01*
X0253373Y0288826D01*
X0253320Y0288965D01*
X0253272Y0289105D01*
X0253227Y0289246D01*
X0253186Y0289388D01*
X0253148Y0289531D01*
X0253115Y0289675D01*
X0253085Y0289820D01*
X0253059Y0289966D01*
X0253038Y0290112D01*
X0253020Y0290259D01*
X0253006Y0290406D01*
X0252996Y0290554D01*
X0252990Y0290702D01*
X0252988Y0290850D01*
X0317988Y0282100D02*
X0317990Y0282248D01*
X0317996Y0282396D01*
X0318006Y0282544D01*
X0318020Y0282691D01*
X0318038Y0282838D01*
X0318059Y0282984D01*
X0318085Y0283130D01*
X0318115Y0283275D01*
X0318148Y0283419D01*
X0318186Y0283562D01*
X0318227Y0283704D01*
X0318272Y0283845D01*
X0318320Y0283985D01*
X0318373Y0284124D01*
X0318429Y0284261D01*
X0318489Y0284396D01*
X0318552Y0284530D01*
X0318619Y0284662D01*
X0318690Y0284792D01*
X0318764Y0284920D01*
X0318841Y0285046D01*
X0318922Y0285170D01*
X0319006Y0285292D01*
X0319093Y0285411D01*
X0319184Y0285528D01*
X0319278Y0285643D01*
X0319374Y0285755D01*
X0319474Y0285865D01*
X0319576Y0285971D01*
X0319682Y0286075D01*
X0319790Y0286176D01*
X0319901Y0286274D01*
X0320014Y0286370D01*
X0320130Y0286462D01*
X0320248Y0286551D01*
X0320369Y0286636D01*
X0320492Y0286719D01*
X0320617Y0286798D01*
X0320744Y0286874D01*
X0320873Y0286946D01*
X0321004Y0287015D01*
X0321137Y0287080D01*
X0321272Y0287141D01*
X0321408Y0287199D01*
X0321545Y0287254D01*
X0321684Y0287304D01*
X0321825Y0287351D01*
X0321966Y0287394D01*
X0322109Y0287434D01*
X0322253Y0287469D01*
X0322397Y0287501D01*
X0322543Y0287528D01*
X0322689Y0287552D01*
X0322836Y0287572D01*
X0322983Y0287588D01*
X0323130Y0287600D01*
X0323278Y0287608D01*
X0323426Y0287612D01*
X0323574Y0287612D01*
X0323722Y0287608D01*
X0323870Y0287600D01*
X0324017Y0287588D01*
X0324164Y0287572D01*
X0324311Y0287552D01*
X0324457Y0287528D01*
X0324603Y0287501D01*
X0324747Y0287469D01*
X0324891Y0287434D01*
X0325034Y0287394D01*
X0325175Y0287351D01*
X0325316Y0287304D01*
X0325455Y0287254D01*
X0325592Y0287199D01*
X0325728Y0287141D01*
X0325863Y0287080D01*
X0325996Y0287015D01*
X0326127Y0286946D01*
X0326256Y0286874D01*
X0326383Y0286798D01*
X0326508Y0286719D01*
X0326631Y0286636D01*
X0326752Y0286551D01*
X0326870Y0286462D01*
X0326986Y0286370D01*
X0327099Y0286274D01*
X0327210Y0286176D01*
X0327318Y0286075D01*
X0327424Y0285971D01*
X0327526Y0285865D01*
X0327626Y0285755D01*
X0327722Y0285643D01*
X0327816Y0285528D01*
X0327907Y0285411D01*
X0327994Y0285292D01*
X0328078Y0285170D01*
X0328159Y0285046D01*
X0328236Y0284920D01*
X0328310Y0284792D01*
X0328381Y0284662D01*
X0328448Y0284530D01*
X0328511Y0284396D01*
X0328571Y0284261D01*
X0328627Y0284124D01*
X0328680Y0283985D01*
X0328728Y0283845D01*
X0328773Y0283704D01*
X0328814Y0283562D01*
X0328852Y0283419D01*
X0328885Y0283275D01*
X0328915Y0283130D01*
X0328941Y0282984D01*
X0328962Y0282838D01*
X0328980Y0282691D01*
X0328994Y0282544D01*
X0329004Y0282396D01*
X0329010Y0282248D01*
X0329012Y0282100D01*
X0329010Y0281952D01*
X0329004Y0281804D01*
X0328994Y0281656D01*
X0328980Y0281509D01*
X0328962Y0281362D01*
X0328941Y0281216D01*
X0328915Y0281070D01*
X0328885Y0280925D01*
X0328852Y0280781D01*
X0328814Y0280638D01*
X0328773Y0280496D01*
X0328728Y0280355D01*
X0328680Y0280215D01*
X0328627Y0280076D01*
X0328571Y0279939D01*
X0328511Y0279804D01*
X0328448Y0279670D01*
X0328381Y0279538D01*
X0328310Y0279408D01*
X0328236Y0279280D01*
X0328159Y0279154D01*
X0328078Y0279030D01*
X0327994Y0278908D01*
X0327907Y0278789D01*
X0327816Y0278672D01*
X0327722Y0278557D01*
X0327626Y0278445D01*
X0327526Y0278335D01*
X0327424Y0278229D01*
X0327318Y0278125D01*
X0327210Y0278024D01*
X0327099Y0277926D01*
X0326986Y0277830D01*
X0326870Y0277738D01*
X0326752Y0277649D01*
X0326631Y0277564D01*
X0326508Y0277481D01*
X0326383Y0277402D01*
X0326256Y0277326D01*
X0326127Y0277254D01*
X0325996Y0277185D01*
X0325863Y0277120D01*
X0325728Y0277059D01*
X0325592Y0277001D01*
X0325455Y0276946D01*
X0325316Y0276896D01*
X0325175Y0276849D01*
X0325034Y0276806D01*
X0324891Y0276766D01*
X0324747Y0276731D01*
X0324603Y0276699D01*
X0324457Y0276672D01*
X0324311Y0276648D01*
X0324164Y0276628D01*
X0324017Y0276612D01*
X0323870Y0276600D01*
X0323722Y0276592D01*
X0323574Y0276588D01*
X0323426Y0276588D01*
X0323278Y0276592D01*
X0323130Y0276600D01*
X0322983Y0276612D01*
X0322836Y0276628D01*
X0322689Y0276648D01*
X0322543Y0276672D01*
X0322397Y0276699D01*
X0322253Y0276731D01*
X0322109Y0276766D01*
X0321966Y0276806D01*
X0321825Y0276849D01*
X0321684Y0276896D01*
X0321545Y0276946D01*
X0321408Y0277001D01*
X0321272Y0277059D01*
X0321137Y0277120D01*
X0321004Y0277185D01*
X0320873Y0277254D01*
X0320744Y0277326D01*
X0320617Y0277402D01*
X0320492Y0277481D01*
X0320369Y0277564D01*
X0320248Y0277649D01*
X0320130Y0277738D01*
X0320014Y0277830D01*
X0319901Y0277926D01*
X0319790Y0278024D01*
X0319682Y0278125D01*
X0319576Y0278229D01*
X0319474Y0278335D01*
X0319374Y0278445D01*
X0319278Y0278557D01*
X0319184Y0278672D01*
X0319093Y0278789D01*
X0319006Y0278908D01*
X0318922Y0279030D01*
X0318841Y0279154D01*
X0318764Y0279280D01*
X0318690Y0279408D01*
X0318619Y0279538D01*
X0318552Y0279670D01*
X0318489Y0279804D01*
X0318429Y0279939D01*
X0318373Y0280076D01*
X0318320Y0280215D01*
X0318272Y0280355D01*
X0318227Y0280496D01*
X0318186Y0280638D01*
X0318148Y0280781D01*
X0318115Y0280925D01*
X0318085Y0281070D01*
X0318059Y0281216D01*
X0318038Y0281362D01*
X0318020Y0281509D01*
X0318006Y0281656D01*
X0317996Y0281804D01*
X0317990Y0281952D01*
X0317988Y0282100D01*
X0377988Y0282100D02*
X0377990Y0282248D01*
X0377996Y0282396D01*
X0378006Y0282544D01*
X0378020Y0282691D01*
X0378038Y0282838D01*
X0378059Y0282984D01*
X0378085Y0283130D01*
X0378115Y0283275D01*
X0378148Y0283419D01*
X0378186Y0283562D01*
X0378227Y0283704D01*
X0378272Y0283845D01*
X0378320Y0283985D01*
X0378373Y0284124D01*
X0378429Y0284261D01*
X0378489Y0284396D01*
X0378552Y0284530D01*
X0378619Y0284662D01*
X0378690Y0284792D01*
X0378764Y0284920D01*
X0378841Y0285046D01*
X0378922Y0285170D01*
X0379006Y0285292D01*
X0379093Y0285411D01*
X0379184Y0285528D01*
X0379278Y0285643D01*
X0379374Y0285755D01*
X0379474Y0285865D01*
X0379576Y0285971D01*
X0379682Y0286075D01*
X0379790Y0286176D01*
X0379901Y0286274D01*
X0380014Y0286370D01*
X0380130Y0286462D01*
X0380248Y0286551D01*
X0380369Y0286636D01*
X0380492Y0286719D01*
X0380617Y0286798D01*
X0380744Y0286874D01*
X0380873Y0286946D01*
X0381004Y0287015D01*
X0381137Y0287080D01*
X0381272Y0287141D01*
X0381408Y0287199D01*
X0381545Y0287254D01*
X0381684Y0287304D01*
X0381825Y0287351D01*
X0381966Y0287394D01*
X0382109Y0287434D01*
X0382253Y0287469D01*
X0382397Y0287501D01*
X0382543Y0287528D01*
X0382689Y0287552D01*
X0382836Y0287572D01*
X0382983Y0287588D01*
X0383130Y0287600D01*
X0383278Y0287608D01*
X0383426Y0287612D01*
X0383574Y0287612D01*
X0383722Y0287608D01*
X0383870Y0287600D01*
X0384017Y0287588D01*
X0384164Y0287572D01*
X0384311Y0287552D01*
X0384457Y0287528D01*
X0384603Y0287501D01*
X0384747Y0287469D01*
X0384891Y0287434D01*
X0385034Y0287394D01*
X0385175Y0287351D01*
X0385316Y0287304D01*
X0385455Y0287254D01*
X0385592Y0287199D01*
X0385728Y0287141D01*
X0385863Y0287080D01*
X0385996Y0287015D01*
X0386127Y0286946D01*
X0386256Y0286874D01*
X0386383Y0286798D01*
X0386508Y0286719D01*
X0386631Y0286636D01*
X0386752Y0286551D01*
X0386870Y0286462D01*
X0386986Y0286370D01*
X0387099Y0286274D01*
X0387210Y0286176D01*
X0387318Y0286075D01*
X0387424Y0285971D01*
X0387526Y0285865D01*
X0387626Y0285755D01*
X0387722Y0285643D01*
X0387816Y0285528D01*
X0387907Y0285411D01*
X0387994Y0285292D01*
X0388078Y0285170D01*
X0388159Y0285046D01*
X0388236Y0284920D01*
X0388310Y0284792D01*
X0388381Y0284662D01*
X0388448Y0284530D01*
X0388511Y0284396D01*
X0388571Y0284261D01*
X0388627Y0284124D01*
X0388680Y0283985D01*
X0388728Y0283845D01*
X0388773Y0283704D01*
X0388814Y0283562D01*
X0388852Y0283419D01*
X0388885Y0283275D01*
X0388915Y0283130D01*
X0388941Y0282984D01*
X0388962Y0282838D01*
X0388980Y0282691D01*
X0388994Y0282544D01*
X0389004Y0282396D01*
X0389010Y0282248D01*
X0389012Y0282100D01*
X0389010Y0281952D01*
X0389004Y0281804D01*
X0388994Y0281656D01*
X0388980Y0281509D01*
X0388962Y0281362D01*
X0388941Y0281216D01*
X0388915Y0281070D01*
X0388885Y0280925D01*
X0388852Y0280781D01*
X0388814Y0280638D01*
X0388773Y0280496D01*
X0388728Y0280355D01*
X0388680Y0280215D01*
X0388627Y0280076D01*
X0388571Y0279939D01*
X0388511Y0279804D01*
X0388448Y0279670D01*
X0388381Y0279538D01*
X0388310Y0279408D01*
X0388236Y0279280D01*
X0388159Y0279154D01*
X0388078Y0279030D01*
X0387994Y0278908D01*
X0387907Y0278789D01*
X0387816Y0278672D01*
X0387722Y0278557D01*
X0387626Y0278445D01*
X0387526Y0278335D01*
X0387424Y0278229D01*
X0387318Y0278125D01*
X0387210Y0278024D01*
X0387099Y0277926D01*
X0386986Y0277830D01*
X0386870Y0277738D01*
X0386752Y0277649D01*
X0386631Y0277564D01*
X0386508Y0277481D01*
X0386383Y0277402D01*
X0386256Y0277326D01*
X0386127Y0277254D01*
X0385996Y0277185D01*
X0385863Y0277120D01*
X0385728Y0277059D01*
X0385592Y0277001D01*
X0385455Y0276946D01*
X0385316Y0276896D01*
X0385175Y0276849D01*
X0385034Y0276806D01*
X0384891Y0276766D01*
X0384747Y0276731D01*
X0384603Y0276699D01*
X0384457Y0276672D01*
X0384311Y0276648D01*
X0384164Y0276628D01*
X0384017Y0276612D01*
X0383870Y0276600D01*
X0383722Y0276592D01*
X0383574Y0276588D01*
X0383426Y0276588D01*
X0383278Y0276592D01*
X0383130Y0276600D01*
X0382983Y0276612D01*
X0382836Y0276628D01*
X0382689Y0276648D01*
X0382543Y0276672D01*
X0382397Y0276699D01*
X0382253Y0276731D01*
X0382109Y0276766D01*
X0381966Y0276806D01*
X0381825Y0276849D01*
X0381684Y0276896D01*
X0381545Y0276946D01*
X0381408Y0277001D01*
X0381272Y0277059D01*
X0381137Y0277120D01*
X0381004Y0277185D01*
X0380873Y0277254D01*
X0380744Y0277326D01*
X0380617Y0277402D01*
X0380492Y0277481D01*
X0380369Y0277564D01*
X0380248Y0277649D01*
X0380130Y0277738D01*
X0380014Y0277830D01*
X0379901Y0277926D01*
X0379790Y0278024D01*
X0379682Y0278125D01*
X0379576Y0278229D01*
X0379474Y0278335D01*
X0379374Y0278445D01*
X0379278Y0278557D01*
X0379184Y0278672D01*
X0379093Y0278789D01*
X0379006Y0278908D01*
X0378922Y0279030D01*
X0378841Y0279154D01*
X0378764Y0279280D01*
X0378690Y0279408D01*
X0378619Y0279538D01*
X0378552Y0279670D01*
X0378489Y0279804D01*
X0378429Y0279939D01*
X0378373Y0280076D01*
X0378320Y0280215D01*
X0378272Y0280355D01*
X0378227Y0280496D01*
X0378186Y0280638D01*
X0378148Y0280781D01*
X0378115Y0280925D01*
X0378085Y0281070D01*
X0378059Y0281216D01*
X0378038Y0281362D01*
X0378020Y0281509D01*
X0378006Y0281656D01*
X0377996Y0281804D01*
X0377990Y0281952D01*
X0377988Y0282100D01*
X0442988Y0290850D02*
X0442990Y0290998D01*
X0442996Y0291146D01*
X0443006Y0291294D01*
X0443020Y0291441D01*
X0443038Y0291588D01*
X0443059Y0291734D01*
X0443085Y0291880D01*
X0443115Y0292025D01*
X0443148Y0292169D01*
X0443186Y0292312D01*
X0443227Y0292454D01*
X0443272Y0292595D01*
X0443320Y0292735D01*
X0443373Y0292874D01*
X0443429Y0293011D01*
X0443489Y0293146D01*
X0443552Y0293280D01*
X0443619Y0293412D01*
X0443690Y0293542D01*
X0443764Y0293670D01*
X0443841Y0293796D01*
X0443922Y0293920D01*
X0444006Y0294042D01*
X0444093Y0294161D01*
X0444184Y0294278D01*
X0444278Y0294393D01*
X0444374Y0294505D01*
X0444474Y0294615D01*
X0444576Y0294721D01*
X0444682Y0294825D01*
X0444790Y0294926D01*
X0444901Y0295024D01*
X0445014Y0295120D01*
X0445130Y0295212D01*
X0445248Y0295301D01*
X0445369Y0295386D01*
X0445492Y0295469D01*
X0445617Y0295548D01*
X0445744Y0295624D01*
X0445873Y0295696D01*
X0446004Y0295765D01*
X0446137Y0295830D01*
X0446272Y0295891D01*
X0446408Y0295949D01*
X0446545Y0296004D01*
X0446684Y0296054D01*
X0446825Y0296101D01*
X0446966Y0296144D01*
X0447109Y0296184D01*
X0447253Y0296219D01*
X0447397Y0296251D01*
X0447543Y0296278D01*
X0447689Y0296302D01*
X0447836Y0296322D01*
X0447983Y0296338D01*
X0448130Y0296350D01*
X0448278Y0296358D01*
X0448426Y0296362D01*
X0448574Y0296362D01*
X0448722Y0296358D01*
X0448870Y0296350D01*
X0449017Y0296338D01*
X0449164Y0296322D01*
X0449311Y0296302D01*
X0449457Y0296278D01*
X0449603Y0296251D01*
X0449747Y0296219D01*
X0449891Y0296184D01*
X0450034Y0296144D01*
X0450175Y0296101D01*
X0450316Y0296054D01*
X0450455Y0296004D01*
X0450592Y0295949D01*
X0450728Y0295891D01*
X0450863Y0295830D01*
X0450996Y0295765D01*
X0451127Y0295696D01*
X0451256Y0295624D01*
X0451383Y0295548D01*
X0451508Y0295469D01*
X0451631Y0295386D01*
X0451752Y0295301D01*
X0451870Y0295212D01*
X0451986Y0295120D01*
X0452099Y0295024D01*
X0452210Y0294926D01*
X0452318Y0294825D01*
X0452424Y0294721D01*
X0452526Y0294615D01*
X0452626Y0294505D01*
X0452722Y0294393D01*
X0452816Y0294278D01*
X0452907Y0294161D01*
X0452994Y0294042D01*
X0453078Y0293920D01*
X0453159Y0293796D01*
X0453236Y0293670D01*
X0453310Y0293542D01*
X0453381Y0293412D01*
X0453448Y0293280D01*
X0453511Y0293146D01*
X0453571Y0293011D01*
X0453627Y0292874D01*
X0453680Y0292735D01*
X0453728Y0292595D01*
X0453773Y0292454D01*
X0453814Y0292312D01*
X0453852Y0292169D01*
X0453885Y0292025D01*
X0453915Y0291880D01*
X0453941Y0291734D01*
X0453962Y0291588D01*
X0453980Y0291441D01*
X0453994Y0291294D01*
X0454004Y0291146D01*
X0454010Y0290998D01*
X0454012Y0290850D01*
X0454010Y0290702D01*
X0454004Y0290554D01*
X0453994Y0290406D01*
X0453980Y0290259D01*
X0453962Y0290112D01*
X0453941Y0289966D01*
X0453915Y0289820D01*
X0453885Y0289675D01*
X0453852Y0289531D01*
X0453814Y0289388D01*
X0453773Y0289246D01*
X0453728Y0289105D01*
X0453680Y0288965D01*
X0453627Y0288826D01*
X0453571Y0288689D01*
X0453511Y0288554D01*
X0453448Y0288420D01*
X0453381Y0288288D01*
X0453310Y0288158D01*
X0453236Y0288030D01*
X0453159Y0287904D01*
X0453078Y0287780D01*
X0452994Y0287658D01*
X0452907Y0287539D01*
X0452816Y0287422D01*
X0452722Y0287307D01*
X0452626Y0287195D01*
X0452526Y0287085D01*
X0452424Y0286979D01*
X0452318Y0286875D01*
X0452210Y0286774D01*
X0452099Y0286676D01*
X0451986Y0286580D01*
X0451870Y0286488D01*
X0451752Y0286399D01*
X0451631Y0286314D01*
X0451508Y0286231D01*
X0451383Y0286152D01*
X0451256Y0286076D01*
X0451127Y0286004D01*
X0450996Y0285935D01*
X0450863Y0285870D01*
X0450728Y0285809D01*
X0450592Y0285751D01*
X0450455Y0285696D01*
X0450316Y0285646D01*
X0450175Y0285599D01*
X0450034Y0285556D01*
X0449891Y0285516D01*
X0449747Y0285481D01*
X0449603Y0285449D01*
X0449457Y0285422D01*
X0449311Y0285398D01*
X0449164Y0285378D01*
X0449017Y0285362D01*
X0448870Y0285350D01*
X0448722Y0285342D01*
X0448574Y0285338D01*
X0448426Y0285338D01*
X0448278Y0285342D01*
X0448130Y0285350D01*
X0447983Y0285362D01*
X0447836Y0285378D01*
X0447689Y0285398D01*
X0447543Y0285422D01*
X0447397Y0285449D01*
X0447253Y0285481D01*
X0447109Y0285516D01*
X0446966Y0285556D01*
X0446825Y0285599D01*
X0446684Y0285646D01*
X0446545Y0285696D01*
X0446408Y0285751D01*
X0446272Y0285809D01*
X0446137Y0285870D01*
X0446004Y0285935D01*
X0445873Y0286004D01*
X0445744Y0286076D01*
X0445617Y0286152D01*
X0445492Y0286231D01*
X0445369Y0286314D01*
X0445248Y0286399D01*
X0445130Y0286488D01*
X0445014Y0286580D01*
X0444901Y0286676D01*
X0444790Y0286774D01*
X0444682Y0286875D01*
X0444576Y0286979D01*
X0444474Y0287085D01*
X0444374Y0287195D01*
X0444278Y0287307D01*
X0444184Y0287422D01*
X0444093Y0287539D01*
X0444006Y0287658D01*
X0443922Y0287780D01*
X0443841Y0287904D01*
X0443764Y0288030D01*
X0443690Y0288158D01*
X0443619Y0288288D01*
X0443552Y0288420D01*
X0443489Y0288554D01*
X0443429Y0288689D01*
X0443373Y0288826D01*
X0443320Y0288965D01*
X0443272Y0289105D01*
X0443227Y0289246D01*
X0443186Y0289388D01*
X0443148Y0289531D01*
X0443115Y0289675D01*
X0443085Y0289820D01*
X0443059Y0289966D01*
X0443038Y0290112D01*
X0443020Y0290259D01*
X0443006Y0290406D01*
X0442996Y0290554D01*
X0442990Y0290702D01*
X0442988Y0290850D01*
X0612988Y0290850D02*
X0612990Y0290998D01*
X0612996Y0291146D01*
X0613006Y0291294D01*
X0613020Y0291441D01*
X0613038Y0291588D01*
X0613059Y0291734D01*
X0613085Y0291880D01*
X0613115Y0292025D01*
X0613148Y0292169D01*
X0613186Y0292312D01*
X0613227Y0292454D01*
X0613272Y0292595D01*
X0613320Y0292735D01*
X0613373Y0292874D01*
X0613429Y0293011D01*
X0613489Y0293146D01*
X0613552Y0293280D01*
X0613619Y0293412D01*
X0613690Y0293542D01*
X0613764Y0293670D01*
X0613841Y0293796D01*
X0613922Y0293920D01*
X0614006Y0294042D01*
X0614093Y0294161D01*
X0614184Y0294278D01*
X0614278Y0294393D01*
X0614374Y0294505D01*
X0614474Y0294615D01*
X0614576Y0294721D01*
X0614682Y0294825D01*
X0614790Y0294926D01*
X0614901Y0295024D01*
X0615014Y0295120D01*
X0615130Y0295212D01*
X0615248Y0295301D01*
X0615369Y0295386D01*
X0615492Y0295469D01*
X0615617Y0295548D01*
X0615744Y0295624D01*
X0615873Y0295696D01*
X0616004Y0295765D01*
X0616137Y0295830D01*
X0616272Y0295891D01*
X0616408Y0295949D01*
X0616545Y0296004D01*
X0616684Y0296054D01*
X0616825Y0296101D01*
X0616966Y0296144D01*
X0617109Y0296184D01*
X0617253Y0296219D01*
X0617397Y0296251D01*
X0617543Y0296278D01*
X0617689Y0296302D01*
X0617836Y0296322D01*
X0617983Y0296338D01*
X0618130Y0296350D01*
X0618278Y0296358D01*
X0618426Y0296362D01*
X0618574Y0296362D01*
X0618722Y0296358D01*
X0618870Y0296350D01*
X0619017Y0296338D01*
X0619164Y0296322D01*
X0619311Y0296302D01*
X0619457Y0296278D01*
X0619603Y0296251D01*
X0619747Y0296219D01*
X0619891Y0296184D01*
X0620034Y0296144D01*
X0620175Y0296101D01*
X0620316Y0296054D01*
X0620455Y0296004D01*
X0620592Y0295949D01*
X0620728Y0295891D01*
X0620863Y0295830D01*
X0620996Y0295765D01*
X0621127Y0295696D01*
X0621256Y0295624D01*
X0621383Y0295548D01*
X0621508Y0295469D01*
X0621631Y0295386D01*
X0621752Y0295301D01*
X0621870Y0295212D01*
X0621986Y0295120D01*
X0622099Y0295024D01*
X0622210Y0294926D01*
X0622318Y0294825D01*
X0622424Y0294721D01*
X0622526Y0294615D01*
X0622626Y0294505D01*
X0622722Y0294393D01*
X0622816Y0294278D01*
X0622907Y0294161D01*
X0622994Y0294042D01*
X0623078Y0293920D01*
X0623159Y0293796D01*
X0623236Y0293670D01*
X0623310Y0293542D01*
X0623381Y0293412D01*
X0623448Y0293280D01*
X0623511Y0293146D01*
X0623571Y0293011D01*
X0623627Y0292874D01*
X0623680Y0292735D01*
X0623728Y0292595D01*
X0623773Y0292454D01*
X0623814Y0292312D01*
X0623852Y0292169D01*
X0623885Y0292025D01*
X0623915Y0291880D01*
X0623941Y0291734D01*
X0623962Y0291588D01*
X0623980Y0291441D01*
X0623994Y0291294D01*
X0624004Y0291146D01*
X0624010Y0290998D01*
X0624012Y0290850D01*
X0624010Y0290702D01*
X0624004Y0290554D01*
X0623994Y0290406D01*
X0623980Y0290259D01*
X0623962Y0290112D01*
X0623941Y0289966D01*
X0623915Y0289820D01*
X0623885Y0289675D01*
X0623852Y0289531D01*
X0623814Y0289388D01*
X0623773Y0289246D01*
X0623728Y0289105D01*
X0623680Y0288965D01*
X0623627Y0288826D01*
X0623571Y0288689D01*
X0623511Y0288554D01*
X0623448Y0288420D01*
X0623381Y0288288D01*
X0623310Y0288158D01*
X0623236Y0288030D01*
X0623159Y0287904D01*
X0623078Y0287780D01*
X0622994Y0287658D01*
X0622907Y0287539D01*
X0622816Y0287422D01*
X0622722Y0287307D01*
X0622626Y0287195D01*
X0622526Y0287085D01*
X0622424Y0286979D01*
X0622318Y0286875D01*
X0622210Y0286774D01*
X0622099Y0286676D01*
X0621986Y0286580D01*
X0621870Y0286488D01*
X0621752Y0286399D01*
X0621631Y0286314D01*
X0621508Y0286231D01*
X0621383Y0286152D01*
X0621256Y0286076D01*
X0621127Y0286004D01*
X0620996Y0285935D01*
X0620863Y0285870D01*
X0620728Y0285809D01*
X0620592Y0285751D01*
X0620455Y0285696D01*
X0620316Y0285646D01*
X0620175Y0285599D01*
X0620034Y0285556D01*
X0619891Y0285516D01*
X0619747Y0285481D01*
X0619603Y0285449D01*
X0619457Y0285422D01*
X0619311Y0285398D01*
X0619164Y0285378D01*
X0619017Y0285362D01*
X0618870Y0285350D01*
X0618722Y0285342D01*
X0618574Y0285338D01*
X0618426Y0285338D01*
X0618278Y0285342D01*
X0618130Y0285350D01*
X0617983Y0285362D01*
X0617836Y0285378D01*
X0617689Y0285398D01*
X0617543Y0285422D01*
X0617397Y0285449D01*
X0617253Y0285481D01*
X0617109Y0285516D01*
X0616966Y0285556D01*
X0616825Y0285599D01*
X0616684Y0285646D01*
X0616545Y0285696D01*
X0616408Y0285751D01*
X0616272Y0285809D01*
X0616137Y0285870D01*
X0616004Y0285935D01*
X0615873Y0286004D01*
X0615744Y0286076D01*
X0615617Y0286152D01*
X0615492Y0286231D01*
X0615369Y0286314D01*
X0615248Y0286399D01*
X0615130Y0286488D01*
X0615014Y0286580D01*
X0614901Y0286676D01*
X0614790Y0286774D01*
X0614682Y0286875D01*
X0614576Y0286979D01*
X0614474Y0287085D01*
X0614374Y0287195D01*
X0614278Y0287307D01*
X0614184Y0287422D01*
X0614093Y0287539D01*
X0614006Y0287658D01*
X0613922Y0287780D01*
X0613841Y0287904D01*
X0613764Y0288030D01*
X0613690Y0288158D01*
X0613619Y0288288D01*
X0613552Y0288420D01*
X0613489Y0288554D01*
X0613429Y0288689D01*
X0613373Y0288826D01*
X0613320Y0288965D01*
X0613272Y0289105D01*
X0613227Y0289246D01*
X0613186Y0289388D01*
X0613148Y0289531D01*
X0613115Y0289675D01*
X0613085Y0289820D01*
X0613059Y0289966D01*
X0613038Y0290112D01*
X0613020Y0290259D01*
X0613006Y0290406D01*
X0612996Y0290554D01*
X0612990Y0290702D01*
X0612988Y0290850D01*
X0677988Y0282100D02*
X0677990Y0282248D01*
X0677996Y0282396D01*
X0678006Y0282544D01*
X0678020Y0282691D01*
X0678038Y0282838D01*
X0678059Y0282984D01*
X0678085Y0283130D01*
X0678115Y0283275D01*
X0678148Y0283419D01*
X0678186Y0283562D01*
X0678227Y0283704D01*
X0678272Y0283845D01*
X0678320Y0283985D01*
X0678373Y0284124D01*
X0678429Y0284261D01*
X0678489Y0284396D01*
X0678552Y0284530D01*
X0678619Y0284662D01*
X0678690Y0284792D01*
X0678764Y0284920D01*
X0678841Y0285046D01*
X0678922Y0285170D01*
X0679006Y0285292D01*
X0679093Y0285411D01*
X0679184Y0285528D01*
X0679278Y0285643D01*
X0679374Y0285755D01*
X0679474Y0285865D01*
X0679576Y0285971D01*
X0679682Y0286075D01*
X0679790Y0286176D01*
X0679901Y0286274D01*
X0680014Y0286370D01*
X0680130Y0286462D01*
X0680248Y0286551D01*
X0680369Y0286636D01*
X0680492Y0286719D01*
X0680617Y0286798D01*
X0680744Y0286874D01*
X0680873Y0286946D01*
X0681004Y0287015D01*
X0681137Y0287080D01*
X0681272Y0287141D01*
X0681408Y0287199D01*
X0681545Y0287254D01*
X0681684Y0287304D01*
X0681825Y0287351D01*
X0681966Y0287394D01*
X0682109Y0287434D01*
X0682253Y0287469D01*
X0682397Y0287501D01*
X0682543Y0287528D01*
X0682689Y0287552D01*
X0682836Y0287572D01*
X0682983Y0287588D01*
X0683130Y0287600D01*
X0683278Y0287608D01*
X0683426Y0287612D01*
X0683574Y0287612D01*
X0683722Y0287608D01*
X0683870Y0287600D01*
X0684017Y0287588D01*
X0684164Y0287572D01*
X0684311Y0287552D01*
X0684457Y0287528D01*
X0684603Y0287501D01*
X0684747Y0287469D01*
X0684891Y0287434D01*
X0685034Y0287394D01*
X0685175Y0287351D01*
X0685316Y0287304D01*
X0685455Y0287254D01*
X0685592Y0287199D01*
X0685728Y0287141D01*
X0685863Y0287080D01*
X0685996Y0287015D01*
X0686127Y0286946D01*
X0686256Y0286874D01*
X0686383Y0286798D01*
X0686508Y0286719D01*
X0686631Y0286636D01*
X0686752Y0286551D01*
X0686870Y0286462D01*
X0686986Y0286370D01*
X0687099Y0286274D01*
X0687210Y0286176D01*
X0687318Y0286075D01*
X0687424Y0285971D01*
X0687526Y0285865D01*
X0687626Y0285755D01*
X0687722Y0285643D01*
X0687816Y0285528D01*
X0687907Y0285411D01*
X0687994Y0285292D01*
X0688078Y0285170D01*
X0688159Y0285046D01*
X0688236Y0284920D01*
X0688310Y0284792D01*
X0688381Y0284662D01*
X0688448Y0284530D01*
X0688511Y0284396D01*
X0688571Y0284261D01*
X0688627Y0284124D01*
X0688680Y0283985D01*
X0688728Y0283845D01*
X0688773Y0283704D01*
X0688814Y0283562D01*
X0688852Y0283419D01*
X0688885Y0283275D01*
X0688915Y0283130D01*
X0688941Y0282984D01*
X0688962Y0282838D01*
X0688980Y0282691D01*
X0688994Y0282544D01*
X0689004Y0282396D01*
X0689010Y0282248D01*
X0689012Y0282100D01*
X0689010Y0281952D01*
X0689004Y0281804D01*
X0688994Y0281656D01*
X0688980Y0281509D01*
X0688962Y0281362D01*
X0688941Y0281216D01*
X0688915Y0281070D01*
X0688885Y0280925D01*
X0688852Y0280781D01*
X0688814Y0280638D01*
X0688773Y0280496D01*
X0688728Y0280355D01*
X0688680Y0280215D01*
X0688627Y0280076D01*
X0688571Y0279939D01*
X0688511Y0279804D01*
X0688448Y0279670D01*
X0688381Y0279538D01*
X0688310Y0279408D01*
X0688236Y0279280D01*
X0688159Y0279154D01*
X0688078Y0279030D01*
X0687994Y0278908D01*
X0687907Y0278789D01*
X0687816Y0278672D01*
X0687722Y0278557D01*
X0687626Y0278445D01*
X0687526Y0278335D01*
X0687424Y0278229D01*
X0687318Y0278125D01*
X0687210Y0278024D01*
X0687099Y0277926D01*
X0686986Y0277830D01*
X0686870Y0277738D01*
X0686752Y0277649D01*
X0686631Y0277564D01*
X0686508Y0277481D01*
X0686383Y0277402D01*
X0686256Y0277326D01*
X0686127Y0277254D01*
X0685996Y0277185D01*
X0685863Y0277120D01*
X0685728Y0277059D01*
X0685592Y0277001D01*
X0685455Y0276946D01*
X0685316Y0276896D01*
X0685175Y0276849D01*
X0685034Y0276806D01*
X0684891Y0276766D01*
X0684747Y0276731D01*
X0684603Y0276699D01*
X0684457Y0276672D01*
X0684311Y0276648D01*
X0684164Y0276628D01*
X0684017Y0276612D01*
X0683870Y0276600D01*
X0683722Y0276592D01*
X0683574Y0276588D01*
X0683426Y0276588D01*
X0683278Y0276592D01*
X0683130Y0276600D01*
X0682983Y0276612D01*
X0682836Y0276628D01*
X0682689Y0276648D01*
X0682543Y0276672D01*
X0682397Y0276699D01*
X0682253Y0276731D01*
X0682109Y0276766D01*
X0681966Y0276806D01*
X0681825Y0276849D01*
X0681684Y0276896D01*
X0681545Y0276946D01*
X0681408Y0277001D01*
X0681272Y0277059D01*
X0681137Y0277120D01*
X0681004Y0277185D01*
X0680873Y0277254D01*
X0680744Y0277326D01*
X0680617Y0277402D01*
X0680492Y0277481D01*
X0680369Y0277564D01*
X0680248Y0277649D01*
X0680130Y0277738D01*
X0680014Y0277830D01*
X0679901Y0277926D01*
X0679790Y0278024D01*
X0679682Y0278125D01*
X0679576Y0278229D01*
X0679474Y0278335D01*
X0679374Y0278445D01*
X0679278Y0278557D01*
X0679184Y0278672D01*
X0679093Y0278789D01*
X0679006Y0278908D01*
X0678922Y0279030D01*
X0678841Y0279154D01*
X0678764Y0279280D01*
X0678690Y0279408D01*
X0678619Y0279538D01*
X0678552Y0279670D01*
X0678489Y0279804D01*
X0678429Y0279939D01*
X0678373Y0280076D01*
X0678320Y0280215D01*
X0678272Y0280355D01*
X0678227Y0280496D01*
X0678186Y0280638D01*
X0678148Y0280781D01*
X0678115Y0280925D01*
X0678085Y0281070D01*
X0678059Y0281216D01*
X0678038Y0281362D01*
X0678020Y0281509D01*
X0678006Y0281656D01*
X0677996Y0281804D01*
X0677990Y0281952D01*
X0677988Y0282100D01*
X0677201Y0182100D02*
X0677203Y0182258D01*
X0677209Y0182416D01*
X0677219Y0182574D01*
X0677233Y0182732D01*
X0677251Y0182889D01*
X0677272Y0183046D01*
X0677298Y0183202D01*
X0677328Y0183358D01*
X0677361Y0183513D01*
X0677399Y0183666D01*
X0677440Y0183819D01*
X0677485Y0183971D01*
X0677534Y0184122D01*
X0677587Y0184271D01*
X0677643Y0184419D01*
X0677703Y0184565D01*
X0677767Y0184710D01*
X0677835Y0184853D01*
X0677906Y0184995D01*
X0677980Y0185135D01*
X0678058Y0185272D01*
X0678140Y0185408D01*
X0678224Y0185542D01*
X0678313Y0185673D01*
X0678404Y0185802D01*
X0678499Y0185929D01*
X0678596Y0186054D01*
X0678697Y0186176D01*
X0678801Y0186295D01*
X0678908Y0186412D01*
X0679018Y0186526D01*
X0679131Y0186637D01*
X0679246Y0186746D01*
X0679364Y0186851D01*
X0679485Y0186953D01*
X0679608Y0187053D01*
X0679734Y0187149D01*
X0679862Y0187242D01*
X0679992Y0187332D01*
X0680125Y0187418D01*
X0680260Y0187502D01*
X0680396Y0187581D01*
X0680535Y0187658D01*
X0680676Y0187730D01*
X0680818Y0187800D01*
X0680962Y0187865D01*
X0681108Y0187927D01*
X0681255Y0187985D01*
X0681404Y0188040D01*
X0681554Y0188091D01*
X0681705Y0188138D01*
X0681857Y0188181D01*
X0682010Y0188220D01*
X0682165Y0188256D01*
X0682320Y0188287D01*
X0682476Y0188315D01*
X0682632Y0188339D01*
X0682789Y0188359D01*
X0682947Y0188375D01*
X0683104Y0188387D01*
X0683263Y0188395D01*
X0683421Y0188399D01*
X0683579Y0188399D01*
X0683737Y0188395D01*
X0683896Y0188387D01*
X0684053Y0188375D01*
X0684211Y0188359D01*
X0684368Y0188339D01*
X0684524Y0188315D01*
X0684680Y0188287D01*
X0684835Y0188256D01*
X0684990Y0188220D01*
X0685143Y0188181D01*
X0685295Y0188138D01*
X0685446Y0188091D01*
X0685596Y0188040D01*
X0685745Y0187985D01*
X0685892Y0187927D01*
X0686038Y0187865D01*
X0686182Y0187800D01*
X0686324Y0187730D01*
X0686465Y0187658D01*
X0686604Y0187581D01*
X0686740Y0187502D01*
X0686875Y0187418D01*
X0687008Y0187332D01*
X0687138Y0187242D01*
X0687266Y0187149D01*
X0687392Y0187053D01*
X0687515Y0186953D01*
X0687636Y0186851D01*
X0687754Y0186746D01*
X0687869Y0186637D01*
X0687982Y0186526D01*
X0688092Y0186412D01*
X0688199Y0186295D01*
X0688303Y0186176D01*
X0688404Y0186054D01*
X0688501Y0185929D01*
X0688596Y0185802D01*
X0688687Y0185673D01*
X0688776Y0185542D01*
X0688860Y0185408D01*
X0688942Y0185272D01*
X0689020Y0185135D01*
X0689094Y0184995D01*
X0689165Y0184853D01*
X0689233Y0184710D01*
X0689297Y0184565D01*
X0689357Y0184419D01*
X0689413Y0184271D01*
X0689466Y0184122D01*
X0689515Y0183971D01*
X0689560Y0183819D01*
X0689601Y0183666D01*
X0689639Y0183513D01*
X0689672Y0183358D01*
X0689702Y0183202D01*
X0689728Y0183046D01*
X0689749Y0182889D01*
X0689767Y0182732D01*
X0689781Y0182574D01*
X0689791Y0182416D01*
X0689797Y0182258D01*
X0689799Y0182100D01*
X0689797Y0181942D01*
X0689791Y0181784D01*
X0689781Y0181626D01*
X0689767Y0181468D01*
X0689749Y0181311D01*
X0689728Y0181154D01*
X0689702Y0180998D01*
X0689672Y0180842D01*
X0689639Y0180687D01*
X0689601Y0180534D01*
X0689560Y0180381D01*
X0689515Y0180229D01*
X0689466Y0180078D01*
X0689413Y0179929D01*
X0689357Y0179781D01*
X0689297Y0179635D01*
X0689233Y0179490D01*
X0689165Y0179347D01*
X0689094Y0179205D01*
X0689020Y0179065D01*
X0688942Y0178928D01*
X0688860Y0178792D01*
X0688776Y0178658D01*
X0688687Y0178527D01*
X0688596Y0178398D01*
X0688501Y0178271D01*
X0688404Y0178146D01*
X0688303Y0178024D01*
X0688199Y0177905D01*
X0688092Y0177788D01*
X0687982Y0177674D01*
X0687869Y0177563D01*
X0687754Y0177454D01*
X0687636Y0177349D01*
X0687515Y0177247D01*
X0687392Y0177147D01*
X0687266Y0177051D01*
X0687138Y0176958D01*
X0687008Y0176868D01*
X0686875Y0176782D01*
X0686740Y0176698D01*
X0686604Y0176619D01*
X0686465Y0176542D01*
X0686324Y0176470D01*
X0686182Y0176400D01*
X0686038Y0176335D01*
X0685892Y0176273D01*
X0685745Y0176215D01*
X0685596Y0176160D01*
X0685446Y0176109D01*
X0685295Y0176062D01*
X0685143Y0176019D01*
X0684990Y0175980D01*
X0684835Y0175944D01*
X0684680Y0175913D01*
X0684524Y0175885D01*
X0684368Y0175861D01*
X0684211Y0175841D01*
X0684053Y0175825D01*
X0683896Y0175813D01*
X0683737Y0175805D01*
X0683579Y0175801D01*
X0683421Y0175801D01*
X0683263Y0175805D01*
X0683104Y0175813D01*
X0682947Y0175825D01*
X0682789Y0175841D01*
X0682632Y0175861D01*
X0682476Y0175885D01*
X0682320Y0175913D01*
X0682165Y0175944D01*
X0682010Y0175980D01*
X0681857Y0176019D01*
X0681705Y0176062D01*
X0681554Y0176109D01*
X0681404Y0176160D01*
X0681255Y0176215D01*
X0681108Y0176273D01*
X0680962Y0176335D01*
X0680818Y0176400D01*
X0680676Y0176470D01*
X0680535Y0176542D01*
X0680396Y0176619D01*
X0680260Y0176698D01*
X0680125Y0176782D01*
X0679992Y0176868D01*
X0679862Y0176958D01*
X0679734Y0177051D01*
X0679608Y0177147D01*
X0679485Y0177247D01*
X0679364Y0177349D01*
X0679246Y0177454D01*
X0679131Y0177563D01*
X0679018Y0177674D01*
X0678908Y0177788D01*
X0678801Y0177905D01*
X0678697Y0178024D01*
X0678596Y0178146D01*
X0678499Y0178271D01*
X0678404Y0178398D01*
X0678313Y0178527D01*
X0678224Y0178658D01*
X0678140Y0178792D01*
X0678058Y0178928D01*
X0677980Y0179065D01*
X0677906Y0179205D01*
X0677835Y0179347D01*
X0677767Y0179490D01*
X0677703Y0179635D01*
X0677643Y0179781D01*
X0677587Y0179929D01*
X0677534Y0180078D01*
X0677485Y0180229D01*
X0677440Y0180381D01*
X0677399Y0180534D01*
X0677361Y0180687D01*
X0677328Y0180842D01*
X0677298Y0180998D01*
X0677272Y0181154D01*
X0677251Y0181311D01*
X0677233Y0181468D01*
X0677219Y0181626D01*
X0677209Y0181784D01*
X0677203Y0181942D01*
X0677201Y0182100D01*
X0677201Y0022100D02*
X0677203Y0022258D01*
X0677209Y0022416D01*
X0677219Y0022574D01*
X0677233Y0022732D01*
X0677251Y0022889D01*
X0677272Y0023046D01*
X0677298Y0023202D01*
X0677328Y0023358D01*
X0677361Y0023513D01*
X0677399Y0023666D01*
X0677440Y0023819D01*
X0677485Y0023971D01*
X0677534Y0024122D01*
X0677587Y0024271D01*
X0677643Y0024419D01*
X0677703Y0024565D01*
X0677767Y0024710D01*
X0677835Y0024853D01*
X0677906Y0024995D01*
X0677980Y0025135D01*
X0678058Y0025272D01*
X0678140Y0025408D01*
X0678224Y0025542D01*
X0678313Y0025673D01*
X0678404Y0025802D01*
X0678499Y0025929D01*
X0678596Y0026054D01*
X0678697Y0026176D01*
X0678801Y0026295D01*
X0678908Y0026412D01*
X0679018Y0026526D01*
X0679131Y0026637D01*
X0679246Y0026746D01*
X0679364Y0026851D01*
X0679485Y0026953D01*
X0679608Y0027053D01*
X0679734Y0027149D01*
X0679862Y0027242D01*
X0679992Y0027332D01*
X0680125Y0027418D01*
X0680260Y0027502D01*
X0680396Y0027581D01*
X0680535Y0027658D01*
X0680676Y0027730D01*
X0680818Y0027800D01*
X0680962Y0027865D01*
X0681108Y0027927D01*
X0681255Y0027985D01*
X0681404Y0028040D01*
X0681554Y0028091D01*
X0681705Y0028138D01*
X0681857Y0028181D01*
X0682010Y0028220D01*
X0682165Y0028256D01*
X0682320Y0028287D01*
X0682476Y0028315D01*
X0682632Y0028339D01*
X0682789Y0028359D01*
X0682947Y0028375D01*
X0683104Y0028387D01*
X0683263Y0028395D01*
X0683421Y0028399D01*
X0683579Y0028399D01*
X0683737Y0028395D01*
X0683896Y0028387D01*
X0684053Y0028375D01*
X0684211Y0028359D01*
X0684368Y0028339D01*
X0684524Y0028315D01*
X0684680Y0028287D01*
X0684835Y0028256D01*
X0684990Y0028220D01*
X0685143Y0028181D01*
X0685295Y0028138D01*
X0685446Y0028091D01*
X0685596Y0028040D01*
X0685745Y0027985D01*
X0685892Y0027927D01*
X0686038Y0027865D01*
X0686182Y0027800D01*
X0686324Y0027730D01*
X0686465Y0027658D01*
X0686604Y0027581D01*
X0686740Y0027502D01*
X0686875Y0027418D01*
X0687008Y0027332D01*
X0687138Y0027242D01*
X0687266Y0027149D01*
X0687392Y0027053D01*
X0687515Y0026953D01*
X0687636Y0026851D01*
X0687754Y0026746D01*
X0687869Y0026637D01*
X0687982Y0026526D01*
X0688092Y0026412D01*
X0688199Y0026295D01*
X0688303Y0026176D01*
X0688404Y0026054D01*
X0688501Y0025929D01*
X0688596Y0025802D01*
X0688687Y0025673D01*
X0688776Y0025542D01*
X0688860Y0025408D01*
X0688942Y0025272D01*
X0689020Y0025135D01*
X0689094Y0024995D01*
X0689165Y0024853D01*
X0689233Y0024710D01*
X0689297Y0024565D01*
X0689357Y0024419D01*
X0689413Y0024271D01*
X0689466Y0024122D01*
X0689515Y0023971D01*
X0689560Y0023819D01*
X0689601Y0023666D01*
X0689639Y0023513D01*
X0689672Y0023358D01*
X0689702Y0023202D01*
X0689728Y0023046D01*
X0689749Y0022889D01*
X0689767Y0022732D01*
X0689781Y0022574D01*
X0689791Y0022416D01*
X0689797Y0022258D01*
X0689799Y0022100D01*
X0689797Y0021942D01*
X0689791Y0021784D01*
X0689781Y0021626D01*
X0689767Y0021468D01*
X0689749Y0021311D01*
X0689728Y0021154D01*
X0689702Y0020998D01*
X0689672Y0020842D01*
X0689639Y0020687D01*
X0689601Y0020534D01*
X0689560Y0020381D01*
X0689515Y0020229D01*
X0689466Y0020078D01*
X0689413Y0019929D01*
X0689357Y0019781D01*
X0689297Y0019635D01*
X0689233Y0019490D01*
X0689165Y0019347D01*
X0689094Y0019205D01*
X0689020Y0019065D01*
X0688942Y0018928D01*
X0688860Y0018792D01*
X0688776Y0018658D01*
X0688687Y0018527D01*
X0688596Y0018398D01*
X0688501Y0018271D01*
X0688404Y0018146D01*
X0688303Y0018024D01*
X0688199Y0017905D01*
X0688092Y0017788D01*
X0687982Y0017674D01*
X0687869Y0017563D01*
X0687754Y0017454D01*
X0687636Y0017349D01*
X0687515Y0017247D01*
X0687392Y0017147D01*
X0687266Y0017051D01*
X0687138Y0016958D01*
X0687008Y0016868D01*
X0686875Y0016782D01*
X0686740Y0016698D01*
X0686604Y0016619D01*
X0686465Y0016542D01*
X0686324Y0016470D01*
X0686182Y0016400D01*
X0686038Y0016335D01*
X0685892Y0016273D01*
X0685745Y0016215D01*
X0685596Y0016160D01*
X0685446Y0016109D01*
X0685295Y0016062D01*
X0685143Y0016019D01*
X0684990Y0015980D01*
X0684835Y0015944D01*
X0684680Y0015913D01*
X0684524Y0015885D01*
X0684368Y0015861D01*
X0684211Y0015841D01*
X0684053Y0015825D01*
X0683896Y0015813D01*
X0683737Y0015805D01*
X0683579Y0015801D01*
X0683421Y0015801D01*
X0683263Y0015805D01*
X0683104Y0015813D01*
X0682947Y0015825D01*
X0682789Y0015841D01*
X0682632Y0015861D01*
X0682476Y0015885D01*
X0682320Y0015913D01*
X0682165Y0015944D01*
X0682010Y0015980D01*
X0681857Y0016019D01*
X0681705Y0016062D01*
X0681554Y0016109D01*
X0681404Y0016160D01*
X0681255Y0016215D01*
X0681108Y0016273D01*
X0680962Y0016335D01*
X0680818Y0016400D01*
X0680676Y0016470D01*
X0680535Y0016542D01*
X0680396Y0016619D01*
X0680260Y0016698D01*
X0680125Y0016782D01*
X0679992Y0016868D01*
X0679862Y0016958D01*
X0679734Y0017051D01*
X0679608Y0017147D01*
X0679485Y0017247D01*
X0679364Y0017349D01*
X0679246Y0017454D01*
X0679131Y0017563D01*
X0679018Y0017674D01*
X0678908Y0017788D01*
X0678801Y0017905D01*
X0678697Y0018024D01*
X0678596Y0018146D01*
X0678499Y0018271D01*
X0678404Y0018398D01*
X0678313Y0018527D01*
X0678224Y0018658D01*
X0678140Y0018792D01*
X0678058Y0018928D01*
X0677980Y0019065D01*
X0677906Y0019205D01*
X0677835Y0019347D01*
X0677767Y0019490D01*
X0677703Y0019635D01*
X0677643Y0019781D01*
X0677587Y0019929D01*
X0677534Y0020078D01*
X0677485Y0020229D01*
X0677440Y0020381D01*
X0677399Y0020534D01*
X0677361Y0020687D01*
X0677328Y0020842D01*
X0677298Y0020998D01*
X0677272Y0021154D01*
X0677251Y0021311D01*
X0677233Y0021468D01*
X0677219Y0021626D01*
X0677209Y0021784D01*
X0677203Y0021942D01*
X0677201Y0022100D01*
M02*
