%
M48
M72
T01C0.02756
T02C0.03150
T03C0.03200
T04C0.04000
T05C0.04724
T06C0.05118
T07C0.05906
T08C0.07000
T09C0.07874
T10C0.11024
T11C0.12598
T12C0.13000
%
T01
X348500Y97100
T02
X343500Y92100
X353500Y92100
X363500Y92100
X363500Y127100
X353500Y127100
X343500Y127100
X343500Y57100
X353500Y57100
X363500Y57100
T03
X383500Y64600
X373500Y74600
X393500Y79600
X383500Y94600
X373500Y109600
X393500Y114600
X413500Y114600
X438500Y117100
X448500Y117100
X458500Y117100
X468500Y117100
X478500Y117100
X488500Y117100
X506000Y109600
X506000Y124600
X488500Y134600
X478500Y134600
X468500Y134600
X458500Y134600
X448500Y134600
X438500Y134600
X423500Y134600
X423500Y149600
X438500Y149600
X448500Y149600
X458500Y149600
X506000Y139600
X516000Y149600
X546000Y149600
X546000Y139600
X546000Y124600
X546000Y109600
X546000Y97100
X521000Y87100
X516000Y79600
X526000Y79600
X546000Y79600
X521000Y67100
X516000Y59600
X526000Y59600
X546000Y59600
X546000Y44600
X546000Y29600
X578500Y22100
X598500Y22100
X506000Y29600
X488500Y27100
X478500Y27100
X468500Y27100
X458500Y27100
X448500Y27100
X438500Y27100
X423500Y24600
X423500Y39600
X438500Y44600
X448500Y44600
X458500Y44600
X468500Y44600
X478500Y44600
X488500Y44600
X506000Y44600
X466000Y64600
X436000Y64600
X423500Y64600
X423500Y79600
X443500Y84600
X453500Y84600
X448500Y92100
X448500Y102100
X438500Y102100
X423500Y94600
X458500Y102100
X473500Y84600
X516000Y97100
X613500Y84600
X628500Y74600
X623500Y67100
X633500Y67100
X653500Y67100
X663500Y74600
X643500Y84600
X638500Y102100
X628500Y102100
X618500Y102100
X663500Y114600
X678500Y102100
X688500Y102100
X593500Y159600
X573500Y159600
X591000Y182100
X601000Y182100
X611000Y182100
X598500Y199600
X598500Y214600
X638500Y214600
X638500Y199600
X468500Y214600
X428500Y214600
X408500Y192100
X378500Y192100
X378500Y172100
X378500Y162100
X368500Y162100
X358500Y162100
X351000Y162100
X341000Y162100
X331000Y162100
X318500Y172100
X303500Y162100
X283500Y162100
X278500Y169600
X273500Y162100
X266000Y149600
X256000Y149600
X246000Y149600
X248500Y137100
X258500Y137100
X268500Y137100
X283500Y134600
X283500Y149600
X323500Y149600
X333500Y144600
X323500Y134600
X313500Y114600
X293500Y114600
X268500Y119600
X258500Y119600
X248500Y119600
X238500Y119600
X228500Y119600
X218500Y119600
X203500Y124600
X203500Y109600
X193500Y97100
X178500Y87100
X173500Y79600
X183500Y79600
X203500Y79600
X178500Y67100
X173500Y59600
X183500Y59600
X203500Y59600
X203500Y44600
X221000Y44600
X231000Y44600
X241000Y44600
X248500Y44600
X258500Y44600
X268500Y44600
X283500Y39600
X293500Y52100
X303500Y52100
X313500Y52100
X323500Y39600
X333500Y39600
X333500Y24600
X323500Y24600
X283500Y24600
X268500Y27100
X258500Y27100
X248500Y27100
X241000Y27100
X231000Y27100
X221000Y27100
X203500Y29600
X163500Y29600
X163500Y44600
X133500Y22100
X113500Y22100
X93500Y72100
X73500Y72100
X63500Y72100
X43500Y77100
X68500Y79600
X53500Y89600
X58500Y102100
X68500Y102100
X78500Y102100
X83500Y89600
X28500Y102100
X18500Y102100
X43500Y117100
X113500Y159600
X133500Y159600
X163500Y149600
X163500Y139600
X193500Y149600
X203500Y139600
X218500Y137100
X228500Y137100
X238500Y137100
X163500Y124600
X163500Y109600
X163500Y97100
X238500Y64600
X268500Y64600
X283500Y64600
X283500Y79600
X313500Y79600
X333500Y74600
X323500Y64600
X373500Y39600
X383500Y39600
X383500Y24600
X373500Y24600
X323500Y94600
X333500Y109600
X283500Y94600
X266000Y104600
X256000Y104600
X246000Y104600
X373500Y144600
X383500Y149600
X383500Y134600
X408500Y172100
X318500Y192100
X278500Y214600
X238500Y214600
X116000Y182100
X106000Y182100
X96000Y182100
X108500Y199600
X108500Y214600
X68500Y214600
X68500Y199600
T04
X78500Y237100
X88500Y237100
X98500Y237100
X248500Y237100
X258500Y237100
X268500Y237100
X438500Y237100
X448500Y237100
X458500Y237100
X608500Y237100
X618500Y237100
X628500Y237100
T05
X643500Y152100
X63500Y152100
T06
X193500Y182100
X263500Y182100
X443500Y182100
X513500Y182100
T07
X633500Y152100
X663500Y152100
X588500Y127100
X588500Y107100
X578500Y62100
X598500Y62100
X133500Y62100
X113500Y62100
X123500Y107100
X123500Y127100
X73500Y152100
X43500Y152100
T08
X353500Y182100
X353500Y227100
X353500Y252100
X353500Y277100
T09
X653598Y37183
X653598Y17183
X53402Y17017
X53402Y37017
T10
X23500Y282100
X88500Y290850
X258500Y290850
X323500Y282100
X383500Y282100
X448500Y290850
X618500Y290850
X683500Y282100
T11
X23500Y22100
X23500Y182100
X683500Y182100
X683500Y22100
T12
X668500Y250600
X568500Y250600
X498500Y250600
X398500Y250600
X308500Y250600
X208500Y250600
X138500Y250600
X38500Y250600
M30
