G75*
%MOIN*%
%OFA0B0*%
%FSLAX25Y25*%
%IPPOS*%
%LPD*%
%AMOC8*
5,1,8,0,0,1.08239X$1,22.5*
%
%ADD10C,0.00000*%
%ADD11C,0.00200*%
%ADD12C,0.00500*%
%ADD13C,0.00800*%
%ADD14R,0.03740X0.01496*%
%ADD15R,0.02000X0.02000*%
%ADD16C,0.00400*%
%ADD17R,0.02953X0.06693*%
D10*
X0023500Y0008500D02*
X0023500Y0050201D01*
X0108421Y0050201D01*
X0108421Y0008500D01*
X0023500Y0008500D01*
X0086256Y0030000D02*
X0086258Y0030178D01*
X0086265Y0030355D01*
X0086276Y0030533D01*
X0086291Y0030710D01*
X0086310Y0030887D01*
X0086334Y0031063D01*
X0086363Y0031238D01*
X0086395Y0031413D01*
X0086432Y0031587D01*
X0086473Y0031760D01*
X0086518Y0031932D01*
X0086568Y0032103D01*
X0086622Y0032272D01*
X0086679Y0032440D01*
X0086741Y0032607D01*
X0086807Y0032772D01*
X0086877Y0032936D01*
X0086952Y0033097D01*
X0087029Y0033257D01*
X0087111Y0033415D01*
X0087197Y0033571D01*
X0087287Y0033724D01*
X0087380Y0033876D01*
X0087477Y0034025D01*
X0087577Y0034171D01*
X0087682Y0034315D01*
X0087789Y0034457D01*
X0087900Y0034596D01*
X0088015Y0034732D01*
X0088133Y0034865D01*
X0088254Y0034995D01*
X0088378Y0035122D01*
X0088505Y0035246D01*
X0088635Y0035367D01*
X0088768Y0035485D01*
X0088904Y0035600D01*
X0089043Y0035711D01*
X0089185Y0035818D01*
X0089329Y0035923D01*
X0089475Y0036023D01*
X0089624Y0036120D01*
X0089776Y0036213D01*
X0089929Y0036303D01*
X0090085Y0036389D01*
X0090243Y0036471D01*
X0090403Y0036548D01*
X0090564Y0036623D01*
X0090728Y0036693D01*
X0090893Y0036759D01*
X0091060Y0036821D01*
X0091228Y0036878D01*
X0091397Y0036932D01*
X0091568Y0036982D01*
X0091740Y0037027D01*
X0091913Y0037068D01*
X0092087Y0037105D01*
X0092262Y0037137D01*
X0092437Y0037166D01*
X0092613Y0037190D01*
X0092790Y0037209D01*
X0092967Y0037224D01*
X0093145Y0037235D01*
X0093322Y0037242D01*
X0093500Y0037244D01*
X0093678Y0037242D01*
X0093855Y0037235D01*
X0094033Y0037224D01*
X0094210Y0037209D01*
X0094387Y0037190D01*
X0094563Y0037166D01*
X0094738Y0037137D01*
X0094913Y0037105D01*
X0095087Y0037068D01*
X0095260Y0037027D01*
X0095432Y0036982D01*
X0095603Y0036932D01*
X0095772Y0036878D01*
X0095940Y0036821D01*
X0096107Y0036759D01*
X0096272Y0036693D01*
X0096436Y0036623D01*
X0096597Y0036548D01*
X0096757Y0036471D01*
X0096915Y0036389D01*
X0097071Y0036303D01*
X0097224Y0036213D01*
X0097376Y0036120D01*
X0097525Y0036023D01*
X0097671Y0035923D01*
X0097815Y0035818D01*
X0097957Y0035711D01*
X0098096Y0035600D01*
X0098232Y0035485D01*
X0098365Y0035367D01*
X0098495Y0035246D01*
X0098622Y0035122D01*
X0098746Y0034995D01*
X0098867Y0034865D01*
X0098985Y0034732D01*
X0099100Y0034596D01*
X0099211Y0034457D01*
X0099318Y0034315D01*
X0099423Y0034171D01*
X0099523Y0034025D01*
X0099620Y0033876D01*
X0099713Y0033724D01*
X0099803Y0033571D01*
X0099889Y0033415D01*
X0099971Y0033257D01*
X0100048Y0033097D01*
X0100123Y0032936D01*
X0100193Y0032772D01*
X0100259Y0032607D01*
X0100321Y0032440D01*
X0100378Y0032272D01*
X0100432Y0032103D01*
X0100482Y0031932D01*
X0100527Y0031760D01*
X0100568Y0031587D01*
X0100605Y0031413D01*
X0100637Y0031238D01*
X0100666Y0031063D01*
X0100690Y0030887D01*
X0100709Y0030710D01*
X0100724Y0030533D01*
X0100735Y0030355D01*
X0100742Y0030178D01*
X0100744Y0030000D01*
X0100742Y0029822D01*
X0100735Y0029645D01*
X0100724Y0029467D01*
X0100709Y0029290D01*
X0100690Y0029113D01*
X0100666Y0028937D01*
X0100637Y0028762D01*
X0100605Y0028587D01*
X0100568Y0028413D01*
X0100527Y0028240D01*
X0100482Y0028068D01*
X0100432Y0027897D01*
X0100378Y0027728D01*
X0100321Y0027560D01*
X0100259Y0027393D01*
X0100193Y0027228D01*
X0100123Y0027064D01*
X0100048Y0026903D01*
X0099971Y0026743D01*
X0099889Y0026585D01*
X0099803Y0026429D01*
X0099713Y0026276D01*
X0099620Y0026124D01*
X0099523Y0025975D01*
X0099423Y0025829D01*
X0099318Y0025685D01*
X0099211Y0025543D01*
X0099100Y0025404D01*
X0098985Y0025268D01*
X0098867Y0025135D01*
X0098746Y0025005D01*
X0098622Y0024878D01*
X0098495Y0024754D01*
X0098365Y0024633D01*
X0098232Y0024515D01*
X0098096Y0024400D01*
X0097957Y0024289D01*
X0097815Y0024182D01*
X0097671Y0024077D01*
X0097525Y0023977D01*
X0097376Y0023880D01*
X0097224Y0023787D01*
X0097071Y0023697D01*
X0096915Y0023611D01*
X0096757Y0023529D01*
X0096597Y0023452D01*
X0096436Y0023377D01*
X0096272Y0023307D01*
X0096107Y0023241D01*
X0095940Y0023179D01*
X0095772Y0023122D01*
X0095603Y0023068D01*
X0095432Y0023018D01*
X0095260Y0022973D01*
X0095087Y0022932D01*
X0094913Y0022895D01*
X0094738Y0022863D01*
X0094563Y0022834D01*
X0094387Y0022810D01*
X0094210Y0022791D01*
X0094033Y0022776D01*
X0093855Y0022765D01*
X0093678Y0022758D01*
X0093500Y0022756D01*
X0093322Y0022758D01*
X0093145Y0022765D01*
X0092967Y0022776D01*
X0092790Y0022791D01*
X0092613Y0022810D01*
X0092437Y0022834D01*
X0092262Y0022863D01*
X0092087Y0022895D01*
X0091913Y0022932D01*
X0091740Y0022973D01*
X0091568Y0023018D01*
X0091397Y0023068D01*
X0091228Y0023122D01*
X0091060Y0023179D01*
X0090893Y0023241D01*
X0090728Y0023307D01*
X0090564Y0023377D01*
X0090403Y0023452D01*
X0090243Y0023529D01*
X0090085Y0023611D01*
X0089929Y0023697D01*
X0089776Y0023787D01*
X0089624Y0023880D01*
X0089475Y0023977D01*
X0089329Y0024077D01*
X0089185Y0024182D01*
X0089043Y0024289D01*
X0088904Y0024400D01*
X0088768Y0024515D01*
X0088635Y0024633D01*
X0088505Y0024754D01*
X0088378Y0024878D01*
X0088254Y0025005D01*
X0088133Y0025135D01*
X0088015Y0025268D01*
X0087900Y0025404D01*
X0087789Y0025543D01*
X0087682Y0025685D01*
X0087577Y0025829D01*
X0087477Y0025975D01*
X0087380Y0026124D01*
X0087287Y0026276D01*
X0087197Y0026429D01*
X0087111Y0026585D01*
X0087029Y0026743D01*
X0086952Y0026903D01*
X0086877Y0027064D01*
X0086807Y0027228D01*
X0086741Y0027393D01*
X0086679Y0027560D01*
X0086622Y0027728D01*
X0086568Y0027897D01*
X0086518Y0028068D01*
X0086473Y0028240D01*
X0086432Y0028413D01*
X0086395Y0028587D01*
X0086363Y0028762D01*
X0086334Y0028937D01*
X0086310Y0029113D01*
X0086291Y0029290D01*
X0086276Y0029467D01*
X0086265Y0029645D01*
X0086258Y0029822D01*
X0086256Y0030000D01*
D11*
X0084198Y0024802D02*
X0082730Y0024802D01*
X0082730Y0022600D01*
X0081988Y0022600D02*
X0081988Y0024068D01*
X0082730Y0023701D02*
X0083464Y0023701D01*
X0081988Y0022600D02*
X0080887Y0022600D01*
X0080520Y0022967D01*
X0080520Y0024068D01*
X0079778Y0024435D02*
X0079411Y0024802D01*
X0078677Y0024802D01*
X0078310Y0024435D01*
X0078310Y0022967D01*
X0079778Y0024435D01*
X0079778Y0022967D01*
X0079411Y0022600D01*
X0078677Y0022600D01*
X0078310Y0022967D01*
X0077568Y0022600D02*
X0076100Y0022600D01*
X0076834Y0022600D02*
X0076834Y0024802D01*
X0076100Y0024068D01*
X0053698Y0017302D02*
X0052230Y0017302D01*
X0052230Y0015100D01*
X0051488Y0015100D02*
X0051488Y0016568D01*
X0052230Y0016201D02*
X0052964Y0016201D01*
X0051488Y0015100D02*
X0050387Y0015100D01*
X0050020Y0015467D01*
X0050020Y0016568D01*
X0049278Y0016935D02*
X0047810Y0015467D01*
X0048177Y0015100D01*
X0048911Y0015100D01*
X0049278Y0015467D01*
X0049278Y0016935D01*
X0048911Y0017302D01*
X0048177Y0017302D01*
X0047810Y0016935D01*
X0047810Y0015467D01*
X0047068Y0015100D02*
X0045600Y0015100D01*
X0046334Y0015100D02*
X0046334Y0017302D01*
X0045600Y0016568D01*
X0045308Y0024700D02*
X0044207Y0024700D01*
X0044574Y0025434D02*
X0044207Y0025801D01*
X0044574Y0026168D01*
X0045675Y0026168D01*
X0046417Y0025801D02*
X0046784Y0026168D01*
X0047518Y0026168D01*
X0047885Y0025801D01*
X0047885Y0025434D01*
X0046417Y0025434D01*
X0046417Y0025067D02*
X0046417Y0025801D01*
X0046417Y0025067D02*
X0046784Y0024700D01*
X0047518Y0024700D01*
X0048994Y0025067D02*
X0049361Y0024700D01*
X0048994Y0025067D02*
X0048994Y0026535D01*
X0048627Y0026168D02*
X0049361Y0026168D01*
X0045675Y0025067D02*
X0045308Y0024700D01*
X0045675Y0025067D02*
X0045308Y0025434D01*
X0044574Y0025434D01*
X0043465Y0025067D02*
X0043098Y0024700D01*
X0042364Y0024700D01*
X0041997Y0025067D01*
X0041997Y0026535D01*
X0042364Y0026902D01*
X0043098Y0026902D01*
X0043465Y0026535D01*
X0037861Y0026168D02*
X0037127Y0026168D01*
X0037494Y0026535D02*
X0037494Y0025067D01*
X0037861Y0024700D01*
X0036385Y0025434D02*
X0034917Y0025434D01*
X0034917Y0025067D02*
X0034917Y0025801D01*
X0035284Y0026168D01*
X0036018Y0026168D01*
X0036385Y0025801D01*
X0036385Y0025434D01*
X0036018Y0024700D02*
X0035284Y0024700D01*
X0034917Y0025067D01*
X0034175Y0025067D02*
X0033808Y0024700D01*
X0032707Y0024700D01*
X0031965Y0024700D02*
X0031231Y0025434D01*
X0031598Y0025434D02*
X0030497Y0025434D01*
X0030497Y0024700D02*
X0030497Y0026902D01*
X0031598Y0026902D01*
X0031965Y0026535D01*
X0031965Y0025801D01*
X0031598Y0025434D01*
X0032707Y0025801D02*
X0033074Y0026168D01*
X0034175Y0026168D01*
X0033074Y0025434D02*
X0032707Y0025801D01*
X0033074Y0025434D02*
X0033808Y0025434D01*
X0034175Y0025067D01*
X0103600Y0025721D02*
X0103600Y0024253D01*
X0105802Y0023511D02*
X0105802Y0022043D01*
X0105802Y0022777D02*
X0103600Y0022777D01*
X0103967Y0021301D02*
X0103600Y0020934D01*
X0103600Y0020200D01*
X0103967Y0019833D01*
X0104334Y0019833D01*
X0104701Y0020200D01*
X0104701Y0020567D01*
X0104701Y0020200D02*
X0105068Y0019833D01*
X0105435Y0019833D01*
X0105802Y0020200D01*
X0105802Y0020934D01*
X0105435Y0021301D01*
X0105435Y0019091D02*
X0103967Y0019091D01*
X0105435Y0017623D01*
X0103967Y0017623D01*
X0103600Y0017990D01*
X0103600Y0018724D01*
X0103967Y0019091D01*
X0105435Y0019091D02*
X0105802Y0018724D01*
X0105802Y0017990D01*
X0105435Y0017623D01*
X0104701Y0016881D02*
X0104701Y0015414D01*
X0104701Y0014672D02*
X0105068Y0013938D01*
X0105068Y0013571D01*
X0104701Y0013204D01*
X0103967Y0013204D01*
X0103600Y0013571D01*
X0103600Y0014305D01*
X0103967Y0014672D01*
X0104701Y0014672D02*
X0105802Y0014672D01*
X0105802Y0013204D01*
X0105802Y0015781D02*
X0103600Y0015781D01*
X0104701Y0016881D02*
X0105802Y0015781D01*
X0105802Y0025721D02*
X0103600Y0025721D01*
X0103967Y0030883D02*
X0104701Y0030883D01*
X0104701Y0031617D01*
X0105435Y0032351D02*
X0103967Y0032351D01*
X0103600Y0031984D01*
X0103600Y0031250D01*
X0103967Y0030883D01*
X0105435Y0030883D02*
X0105802Y0031250D01*
X0105802Y0031984D01*
X0105435Y0032351D01*
X0105435Y0033093D02*
X0105068Y0033093D01*
X0104701Y0033460D01*
X0104701Y0034560D01*
X0105802Y0034560D02*
X0105802Y0033460D01*
X0105435Y0033093D01*
X0104701Y0033460D02*
X0104334Y0033093D01*
X0103967Y0033093D01*
X0103600Y0033460D01*
X0103600Y0034560D01*
X0105802Y0034560D01*
X0105802Y0035302D02*
X0103600Y0035302D01*
X0104334Y0036036D01*
X0103600Y0036770D01*
X0105802Y0036770D01*
X0105802Y0037512D02*
X0104334Y0037512D01*
X0103600Y0038246D01*
X0104334Y0038980D01*
X0105802Y0038980D01*
X0105802Y0039722D02*
X0103600Y0039722D01*
X0104334Y0040456D01*
X0103600Y0041190D01*
X0105802Y0041190D01*
X0105802Y0041932D02*
X0104334Y0041932D01*
X0103600Y0042666D01*
X0104334Y0043400D01*
X0105802Y0043400D01*
D12*
X0073000Y0026000D02*
X0053000Y0026000D01*
X0053000Y0014000D01*
X0073000Y0014000D01*
X0073000Y0026000D01*
X0055500Y0027500D02*
X0043500Y0027500D01*
X0043500Y0047500D01*
X0055500Y0047500D01*
X0055500Y0027500D01*
D13*
X0067494Y0030026D02*
X0078506Y0030026D01*
X0078506Y0044974D01*
X0067494Y0044974D01*
X0067494Y0030026D01*
X0071819Y0030124D02*
X0071821Y0030191D01*
X0071827Y0030259D01*
X0071836Y0030325D01*
X0071850Y0030391D01*
X0071867Y0030457D01*
X0071888Y0030521D01*
X0071912Y0030584D01*
X0071940Y0030645D01*
X0071972Y0030705D01*
X0072006Y0030762D01*
X0072045Y0030818D01*
X0072086Y0030872D01*
X0072130Y0030923D01*
X0072177Y0030971D01*
X0072227Y0031017D01*
X0072279Y0031059D01*
X0072333Y0031099D01*
X0072390Y0031135D01*
X0072449Y0031169D01*
X0072509Y0031198D01*
X0072572Y0031225D01*
X0072635Y0031247D01*
X0072700Y0031266D01*
X0072765Y0031281D01*
X0072832Y0031293D01*
X0072899Y0031301D01*
X0072966Y0031305D01*
X0073034Y0031305D01*
X0073101Y0031301D01*
X0073168Y0031293D01*
X0073235Y0031281D01*
X0073300Y0031266D01*
X0073365Y0031247D01*
X0073428Y0031225D01*
X0073491Y0031198D01*
X0073551Y0031169D01*
X0073610Y0031135D01*
X0073667Y0031099D01*
X0073721Y0031059D01*
X0073773Y0031017D01*
X0073823Y0030971D01*
X0073870Y0030923D01*
X0073914Y0030872D01*
X0073955Y0030818D01*
X0073994Y0030762D01*
X0074028Y0030705D01*
X0074060Y0030645D01*
X0074088Y0030584D01*
X0074112Y0030521D01*
X0074133Y0030457D01*
X0074150Y0030391D01*
X0074164Y0030325D01*
X0074173Y0030259D01*
X0074179Y0030191D01*
X0074181Y0030124D01*
X0042362Y0027807D02*
X0032638Y0027807D01*
X0032638Y0046193D01*
X0042362Y0046193D01*
X0042362Y0027807D01*
X0039862Y0033307D02*
X0039862Y0040693D01*
X0035138Y0040693D02*
X0035138Y0033307D01*
D14*
X0065224Y0033661D03*
X0065224Y0036220D03*
X0065224Y0038780D03*
X0065224Y0041339D03*
X0065224Y0043898D03*
X0080776Y0043898D03*
X0080776Y0041339D03*
X0080776Y0038780D03*
X0080776Y0036220D03*
X0080776Y0033661D03*
X0080776Y0031102D03*
X0065224Y0031102D03*
D15*
X0028000Y0030000D03*
X0028000Y0020000D03*
X0028000Y0040000D03*
D16*
X0081201Y0020098D02*
X0088799Y0020098D01*
X0088799Y0013902D02*
X0081201Y0013902D01*
D17*
X0079777Y0016996D03*
X0090223Y0017004D03*
M02*
