G75*
%MOIN*%
%OFA0B0*%
%FSLAX25Y25*%
%IPPOS*%
%LPD*%
%AMOC8*
5,1,8,0,0,1.08239X$1,22.5*
%
%ADD10R,0.06496X0.11220*%
%ADD11C,0.06600*%
%ADD12C,0.01600*%
%ADD13C,0.02578*%
%ADD14C,0.01000*%
%ADD15C,0.02381*%
D10*
X0073000Y0037500D03*
D11*
X0028000Y0040000D03*
X0028000Y0030000D03*
X0028000Y0020000D03*
D12*
X0053500Y0020000D01*
X0061500Y0028000D01*
X0061500Y0028500D01*
D13*
X0061500Y0028500D03*
D14*
X0024600Y0017036D02*
X0024600Y0009600D01*
X0107321Y0009600D01*
X0107321Y0049101D01*
X0024600Y0049101D01*
X0024600Y0042964D01*
X0025451Y0043815D01*
X0027105Y0044500D01*
X0028895Y0044500D01*
X0030549Y0043815D01*
X0031815Y0042549D01*
X0032500Y0040895D01*
X0032500Y0039105D01*
X0031815Y0037451D01*
X0030549Y0036185D01*
X0028895Y0035500D01*
X0027105Y0035500D01*
X0025451Y0036185D01*
X0024600Y0037036D01*
X0024600Y0022964D01*
X0025451Y0023815D01*
X0027105Y0024500D01*
X0028895Y0024500D01*
X0030549Y0023815D01*
X0031815Y0022549D01*
X0032042Y0022000D01*
X0052672Y0022000D01*
X0059011Y0028339D01*
X0059011Y0028995D01*
X0059390Y0029910D01*
X0060090Y0030610D01*
X0061005Y0030989D01*
X0061995Y0030989D01*
X0062910Y0030610D01*
X0063610Y0029910D01*
X0063989Y0028995D01*
X0063989Y0028005D01*
X0063610Y0027090D01*
X0062910Y0026390D01*
X0062583Y0026255D01*
X0062328Y0026000D01*
X0054328Y0018000D01*
X0032042Y0018000D01*
X0031815Y0017451D01*
X0030549Y0016185D01*
X0028895Y0015500D01*
X0027105Y0015500D01*
X0025451Y0016185D01*
X0024600Y0017036D01*
X0024600Y0016488D02*
X0025148Y0016488D01*
X0024600Y0015490D02*
X0107321Y0015490D01*
X0107321Y0016488D02*
X0030852Y0016488D01*
X0031830Y0017487D02*
X0107321Y0017487D01*
X0107321Y0018485D02*
X0054814Y0018485D01*
X0055812Y0019484D02*
X0107321Y0019484D01*
X0107321Y0020482D02*
X0056811Y0020482D01*
X0057809Y0021481D02*
X0107321Y0021481D01*
X0107321Y0022479D02*
X0097147Y0022479D01*
X0098227Y0022926D02*
X0100574Y0025273D01*
X0101844Y0028340D01*
X0101844Y0031660D01*
X0100574Y0034727D01*
X0098227Y0037074D01*
X0095160Y0038344D01*
X0091840Y0038344D01*
X0088773Y0037074D01*
X0086426Y0034727D01*
X0085156Y0031660D01*
X0085156Y0028340D01*
X0086426Y0025273D01*
X0088773Y0022926D01*
X0091840Y0021656D01*
X0095160Y0021656D01*
X0098227Y0022926D01*
X0098778Y0023478D02*
X0107321Y0023478D01*
X0107321Y0024476D02*
X0099777Y0024476D01*
X0100657Y0025475D02*
X0107321Y0025475D01*
X0107321Y0026473D02*
X0101071Y0026473D01*
X0101484Y0027472D02*
X0107321Y0027472D01*
X0107321Y0028470D02*
X0101844Y0028470D01*
X0101844Y0029469D02*
X0107321Y0029469D01*
X0107321Y0030467D02*
X0101844Y0030467D01*
X0101844Y0031466D02*
X0107321Y0031466D01*
X0107321Y0032464D02*
X0101511Y0032464D01*
X0101097Y0033463D02*
X0107321Y0033463D01*
X0107321Y0034461D02*
X0100684Y0034461D01*
X0099841Y0035460D02*
X0107321Y0035460D01*
X0107321Y0036458D02*
X0098842Y0036458D01*
X0097302Y0037457D02*
X0107321Y0037457D01*
X0107321Y0038455D02*
X0032231Y0038455D01*
X0032500Y0039454D02*
X0107321Y0039454D01*
X0107321Y0040452D02*
X0032500Y0040452D01*
X0032270Y0041451D02*
X0107321Y0041451D01*
X0107321Y0042449D02*
X0031856Y0042449D01*
X0030916Y0043448D02*
X0107321Y0043448D01*
X0107321Y0044446D02*
X0029024Y0044446D01*
X0026976Y0044446D02*
X0024600Y0044446D01*
X0024600Y0043448D02*
X0025084Y0043448D01*
X0024600Y0045445D02*
X0107321Y0045445D01*
X0107321Y0046443D02*
X0024600Y0046443D01*
X0024600Y0047442D02*
X0107321Y0047442D01*
X0107321Y0048440D02*
X0024600Y0048440D01*
X0031817Y0037457D02*
X0089698Y0037457D01*
X0088158Y0036458D02*
X0030822Y0036458D01*
X0025178Y0036458D02*
X0024600Y0036458D01*
X0024600Y0035460D02*
X0087159Y0035460D01*
X0086316Y0034461D02*
X0024600Y0034461D01*
X0024600Y0033463D02*
X0085903Y0033463D01*
X0085489Y0032464D02*
X0024600Y0032464D01*
X0024600Y0031466D02*
X0085156Y0031466D01*
X0085156Y0030467D02*
X0063053Y0030467D01*
X0063793Y0029469D02*
X0085156Y0029469D01*
X0085156Y0028470D02*
X0063989Y0028470D01*
X0063768Y0027472D02*
X0085516Y0027472D01*
X0085929Y0026473D02*
X0062993Y0026473D01*
X0061803Y0025475D02*
X0086343Y0025475D01*
X0087223Y0024476D02*
X0060805Y0024476D01*
X0059806Y0023478D02*
X0088222Y0023478D01*
X0089853Y0022479D02*
X0058808Y0022479D01*
X0055148Y0024476D02*
X0028953Y0024476D01*
X0027047Y0024476D02*
X0024600Y0024476D01*
X0024600Y0025475D02*
X0056146Y0025475D01*
X0057145Y0026473D02*
X0024600Y0026473D01*
X0024600Y0027472D02*
X0058143Y0027472D01*
X0059011Y0028470D02*
X0024600Y0028470D01*
X0024600Y0029469D02*
X0059207Y0029469D01*
X0059947Y0030467D02*
X0024600Y0030467D01*
X0024600Y0023478D02*
X0025114Y0023478D01*
X0030886Y0023478D02*
X0054149Y0023478D01*
X0053151Y0022479D02*
X0031844Y0022479D01*
X0024600Y0014491D02*
X0107321Y0014491D01*
X0107321Y0013493D02*
X0024600Y0013493D01*
X0024600Y0012494D02*
X0107321Y0012494D01*
X0107321Y0011496D02*
X0024600Y0011496D01*
X0024600Y0010497D02*
X0107321Y0010497D01*
D15*
X0070500Y0028500D03*
X0070500Y0032000D03*
X0075500Y0032000D03*
X0075500Y0035500D03*
X0070500Y0035500D03*
X0070500Y0039000D03*
X0075500Y0039000D03*
X0075500Y0042500D03*
X0070500Y0042500D03*
M02*
