M48
INCH
T01C0.0200
T02C0.0300
T03C0.0400
T04C0.1500
T05C0.0600
%
T01
X-029410Y+007760
X-026160Y+007760
X-000160Y+007760
X+006340Y+007760
X+003090Y+007760
X+011410Y+002260
X+008160Y+002260
X-032530Y+006530
X-007500Y+013000
X-011250Y+015500
X-014750Y+015500
X+014610Y+003030
X+013450Y+003030
X+012250Y+007760
X+009590Y+007760
X-030250Y+002260
X-011700Y+013250
X-007150Y+001030
X-017820Y+002240
X-021090Y+002240
X-024340Y+002240
X-027590Y+002240
X-022910Y+007760
X+004910Y+002260
X-015500Y+003170
X-015500Y+000510
X-002750Y+006830
X+002000Y+002260
X-000750Y+002260
X-002750Y+009580
X-019910Y+007760
X-017250Y+007760
X-010850Y+002500
X-009000Y+002500
X-008750Y+009250
X-009000Y+013000
T02
X-013070Y+006000
X-013070Y+004000
X-013070Y+005000
X-004930Y+006000
X-004930Y+004000
X-004930Y+005000
X-033140Y+003790
X+013245Y+005010
X+016750Y+008000
X-030885Y+005000
X-010500Y+008000
X-010500Y+007000
X-010500Y+006000
X-010500Y+005000
X-010500Y+004000
X-010500Y+003000
X-010500Y+002000
X-007500Y+002000
X-007500Y+003000
X-007500Y+004000
X-007500Y+005000
X-007500Y+006000
X-007500Y+007000
X-007500Y+008000
X-005250Y-002750
X-003250Y-002750
X-004250Y-002750
X-021000Y+007000
X-021000Y+005500
X-021000Y+004500
X-021000Y+003000
X-018000Y+007000
X-018000Y+005500
X-018000Y+004500
X-018000Y+003000
X-024250Y+007000
X-024250Y+005500
X-024250Y+004500
X-024250Y+003000
X-027500Y+007000
X-027500Y+005500
X-027500Y+004500
X-027500Y+003000
X+009500Y+004500
X+009500Y+003000
X+009500Y+007000
X+009500Y+005500
X+006250Y+007000
X+006250Y+005500
X+006250Y+004500
X+006250Y+003000
X+000000Y+007000
X+000000Y+005500
X+000000Y+004500
X+000000Y+003000
X+003000Y+005500
X+003000Y+007000
X+003000Y+003000
X+003000Y+004500
T03
X-005250Y+013260
X-005250Y+012260
X-014750Y-002470
X-014750Y-003470
T04
X-035250Y+016250
X+017250Y+016250
X+017250Y-006250
X-035250Y-006250
X-026000Y+014500
X-021250Y+014500
X+003250Y+014500
X+008000Y+014500
X-026000Y-004500
X+003250Y-004500
X+008000Y-004500
X-021250Y-004500
T05
X-033750Y+009250
X-033750Y+001000
X+015500Y+000750
X+015750Y+009250
X+017770Y+005000
X+017770Y+007000
X+017770Y+003000
X-009000Y+016500
X-011000Y+016500
X-013000Y+016500
X-007000Y+016500
X-005000Y+016500
X-035770Y+007000
X-035770Y+005000
X-035770Y+003000
M30
