G04 EAGLE Gerber X2 export*
%TF.Part,Single*%
%TF.FileFunction,Copper,L1,Top,Mixed*%
%TF.FilePolarity,Positive*%
%TF.GenerationSoftware,Autodesk,EAGLE,8.7.0*%
%TF.CreationDate,2018-05-03T09:05:19Z*%
G75*
%MOMM*%
%FSLAX34Y34*%
%LPD*%
%AMOC8*
5,1,8,0,0,1.08239X$1,22.5*%
G01*
%ADD10P,1.732040X8X22.500000*%
%ADD11C,1.600200*%
%ADD12R,2.700000X1.600000*%
%ADD13P,1.732040X8X202.500000*%
%ADD14R,1.500000X1.300000*%
%ADD15R,2.200000X0.600000*%
%ADD16C,1.676400*%
%ADD17C,2.540000*%
%ADD18C,1.800000*%
%ADD19C,0.508000*%
%ADD20C,0.756400*%
%ADD21C,0.609600*%
%ADD22C,1.270000*%

G36*
X549663Y86370D02*
X549663Y86370D01*
X549732Y86368D01*
X549820Y86389D01*
X549909Y86401D01*
X549974Y86426D01*
X550042Y86443D01*
X550121Y86485D01*
X550204Y86518D01*
X550261Y86559D01*
X550323Y86591D01*
X550389Y86652D01*
X550462Y86704D01*
X550506Y86758D01*
X550558Y86805D01*
X550607Y86880D01*
X550664Y86949D01*
X550694Y87013D01*
X550733Y87071D01*
X550762Y87156D01*
X550800Y87237D01*
X550813Y87306D01*
X550836Y87372D01*
X550843Y87462D01*
X550860Y87549D01*
X550855Y87619D01*
X550861Y87689D01*
X550846Y87778D01*
X550840Y87867D01*
X550818Y87933D01*
X550806Y88002D01*
X550770Y88084D01*
X550742Y88169D01*
X550705Y88229D01*
X550676Y88292D01*
X550620Y88362D01*
X550572Y88438D01*
X550521Y88486D01*
X550477Y88541D01*
X550406Y88595D01*
X550340Y88656D01*
X550279Y88690D01*
X550242Y88718D01*
X545947Y93012D01*
X543639Y98584D01*
X543639Y104616D01*
X545947Y110188D01*
X550212Y114453D01*
X555784Y116761D01*
X559870Y116761D01*
X559988Y116776D01*
X560107Y116783D01*
X560145Y116796D01*
X560186Y116801D01*
X560296Y116844D01*
X560409Y116881D01*
X560444Y116903D01*
X560481Y116918D01*
X560577Y116987D01*
X560678Y117051D01*
X560706Y117081D01*
X560739Y117104D01*
X560815Y117196D01*
X560896Y117283D01*
X560916Y117318D01*
X560941Y117349D01*
X560992Y117457D01*
X561050Y117561D01*
X561060Y117601D01*
X561077Y117637D01*
X561099Y117754D01*
X561129Y117869D01*
X561133Y117929D01*
X561137Y117949D01*
X561135Y117970D01*
X561139Y118030D01*
X561139Y428070D01*
X561124Y428188D01*
X561117Y428307D01*
X561104Y428345D01*
X561099Y428386D01*
X561056Y428496D01*
X561019Y428609D01*
X560997Y428644D01*
X560982Y428681D01*
X560913Y428777D01*
X560849Y428878D01*
X560819Y428906D01*
X560796Y428939D01*
X560704Y429015D01*
X560617Y429096D01*
X560582Y429116D01*
X560551Y429141D01*
X560443Y429192D01*
X560339Y429250D01*
X560299Y429260D01*
X560263Y429277D01*
X560146Y429299D01*
X560031Y429329D01*
X559971Y429333D01*
X559951Y429337D01*
X559930Y429335D01*
X559870Y429339D01*
X555784Y429339D01*
X550212Y431647D01*
X545947Y435912D01*
X543639Y441484D01*
X543639Y447516D01*
X545947Y453088D01*
X547132Y454273D01*
X547217Y454382D01*
X547306Y454489D01*
X547315Y454508D01*
X547327Y454524D01*
X547382Y454651D01*
X547441Y454777D01*
X547445Y454797D01*
X547453Y454816D01*
X547475Y454954D01*
X547501Y455090D01*
X547500Y455110D01*
X547503Y455130D01*
X547490Y455269D01*
X547481Y455407D01*
X547475Y455426D01*
X547473Y455446D01*
X547426Y455578D01*
X547383Y455709D01*
X547373Y455727D01*
X547366Y455746D01*
X547288Y455861D01*
X547213Y455978D01*
X547198Y455992D01*
X547187Y456009D01*
X547083Y456101D01*
X546982Y456196D01*
X546964Y456206D01*
X546949Y456219D01*
X546825Y456283D01*
X546703Y456350D01*
X546684Y456355D01*
X546665Y456364D01*
X546530Y456394D01*
X546395Y456429D01*
X546367Y456431D01*
X546355Y456434D01*
X546335Y456433D01*
X546235Y456439D01*
X101465Y456439D01*
X101327Y456422D01*
X101189Y456409D01*
X101170Y456402D01*
X101150Y456399D01*
X101021Y456348D01*
X100890Y456301D01*
X100873Y456290D01*
X100854Y456282D01*
X100742Y456201D01*
X100627Y456123D01*
X100613Y456107D01*
X100597Y456096D01*
X100508Y455988D01*
X100416Y455884D01*
X100407Y455866D01*
X100394Y455851D01*
X100335Y455725D01*
X100272Y455601D01*
X100267Y455581D01*
X100259Y455563D01*
X100232Y455426D01*
X100202Y455291D01*
X100203Y455270D01*
X100199Y455251D01*
X100207Y455112D01*
X100212Y454973D01*
X100217Y454953D01*
X100219Y454933D01*
X100261Y454801D01*
X100300Y454667D01*
X100310Y454650D01*
X100317Y454631D01*
X100391Y454513D01*
X100462Y454393D01*
X100480Y454372D01*
X100487Y454362D01*
X100502Y454348D01*
X100568Y454273D01*
X101753Y453088D01*
X104061Y447516D01*
X104061Y441484D01*
X101753Y435912D01*
X97488Y431647D01*
X91916Y429339D01*
X85884Y429339D01*
X81766Y431045D01*
X81718Y431058D01*
X81673Y431080D01*
X81565Y431100D01*
X81459Y431129D01*
X81409Y431130D01*
X81360Y431139D01*
X81251Y431133D01*
X81141Y431134D01*
X81093Y431123D01*
X81043Y431120D01*
X80939Y431086D01*
X80832Y431060D01*
X80788Y431037D01*
X80741Y431022D01*
X80648Y430963D01*
X80551Y430911D01*
X80514Y430878D01*
X80472Y430851D01*
X80397Y430771D01*
X80315Y430697D01*
X80288Y430656D01*
X80254Y430620D01*
X80201Y430524D01*
X80141Y430432D01*
X80124Y430385D01*
X80100Y430341D01*
X80073Y430235D01*
X80037Y430131D01*
X80033Y430081D01*
X80021Y430033D01*
X80011Y429873D01*
X80011Y116227D01*
X80017Y116178D01*
X80015Y116128D01*
X80037Y116021D01*
X80051Y115912D01*
X80069Y115866D01*
X80079Y115817D01*
X80127Y115718D01*
X80168Y115616D01*
X80197Y115576D01*
X80219Y115531D01*
X80290Y115448D01*
X80354Y115359D01*
X80393Y115327D01*
X80425Y115289D01*
X80515Y115226D01*
X80599Y115156D01*
X80644Y115135D01*
X80685Y115106D01*
X80788Y115067D01*
X80887Y115020D01*
X80936Y115011D01*
X80982Y114993D01*
X81092Y114981D01*
X81199Y114961D01*
X81249Y114964D01*
X81298Y114958D01*
X81407Y114974D01*
X81517Y114980D01*
X81564Y114996D01*
X81613Y115003D01*
X81766Y115055D01*
X85884Y116761D01*
X91916Y116761D01*
X97488Y114453D01*
X101753Y110188D01*
X104061Y104616D01*
X104061Y98584D01*
X101753Y93012D01*
X97449Y88708D01*
X97423Y88690D01*
X97345Y88645D01*
X97295Y88597D01*
X97238Y88556D01*
X97181Y88486D01*
X97117Y88424D01*
X97080Y88365D01*
X97036Y88311D01*
X96997Y88229D01*
X96950Y88153D01*
X96930Y88086D01*
X96900Y88023D01*
X96883Y87935D01*
X96857Y87849D01*
X96853Y87779D01*
X96840Y87710D01*
X96846Y87621D01*
X96842Y87531D01*
X96856Y87463D01*
X96860Y87393D01*
X96888Y87308D01*
X96906Y87220D01*
X96936Y87157D01*
X96958Y87091D01*
X97006Y87015D01*
X97045Y86934D01*
X97091Y86881D01*
X97128Y86822D01*
X97194Y86760D01*
X97252Y86692D01*
X97309Y86652D01*
X97360Y86604D01*
X97438Y86561D01*
X97512Y86509D01*
X97577Y86484D01*
X97638Y86450D01*
X97725Y86428D01*
X97809Y86396D01*
X97879Y86388D01*
X97946Y86371D01*
X98107Y86361D01*
X549593Y86361D01*
X549663Y86370D01*
G37*
%LPC*%
G36*
X211744Y110616D02*
X211744Y110616D01*
X205866Y116494D01*
X205866Y123691D01*
X205854Y123789D01*
X205851Y123888D01*
X205834Y123947D01*
X205826Y124007D01*
X205790Y124099D01*
X205762Y124194D01*
X205732Y124246D01*
X205709Y124302D01*
X205651Y124382D01*
X205601Y124468D01*
X205535Y124543D01*
X205523Y124560D01*
X205513Y124568D01*
X205495Y124589D01*
X188651Y141432D01*
X188557Y141505D01*
X188468Y141584D01*
X188432Y141602D01*
X188400Y141627D01*
X188291Y141674D01*
X188185Y141728D01*
X188146Y141737D01*
X188108Y141753D01*
X187990Y141772D01*
X187875Y141798D01*
X187834Y141797D01*
X187794Y141803D01*
X187676Y141792D01*
X187557Y141788D01*
X187518Y141777D01*
X187478Y141773D01*
X187366Y141733D01*
X187251Y141700D01*
X187216Y141679D01*
X187178Y141665D01*
X187080Y141599D01*
X186977Y141538D01*
X186932Y141498D01*
X186915Y141487D01*
X186902Y141472D01*
X186856Y141432D01*
X186142Y140717D01*
X169458Y140717D01*
X168267Y141908D01*
X168267Y156592D01*
X169528Y157853D01*
X169601Y157947D01*
X169680Y158036D01*
X169698Y158072D01*
X169723Y158104D01*
X169770Y158213D01*
X169824Y158319D01*
X169833Y158358D01*
X169849Y158396D01*
X169868Y158513D01*
X169894Y158629D01*
X169893Y158670D01*
X169899Y158710D01*
X169888Y158828D01*
X169884Y158947D01*
X169873Y158986D01*
X169869Y159026D01*
X169829Y159138D01*
X169796Y159253D01*
X169775Y159288D01*
X169762Y159326D01*
X169695Y159424D01*
X169634Y159527D01*
X169594Y159572D01*
X169583Y159589D01*
X169568Y159602D01*
X169528Y159648D01*
X168267Y160908D01*
X168267Y175592D01*
X169458Y176783D01*
X171958Y176783D01*
X172076Y176798D01*
X172195Y176805D01*
X172233Y176818D01*
X172274Y176823D01*
X172384Y176866D01*
X172497Y176903D01*
X172532Y176925D01*
X172569Y176940D01*
X172665Y177009D01*
X172766Y177073D01*
X172794Y177103D01*
X172827Y177126D01*
X172903Y177218D01*
X172984Y177305D01*
X173004Y177340D01*
X173029Y177371D01*
X173080Y177479D01*
X173138Y177583D01*
X173148Y177623D01*
X173165Y177659D01*
X173187Y177776D01*
X173217Y177891D01*
X173221Y177951D01*
X173225Y177971D01*
X173223Y177992D01*
X173227Y178052D01*
X173227Y184248D01*
X173212Y184366D01*
X173205Y184485D01*
X173192Y184523D01*
X173187Y184564D01*
X173144Y184674D01*
X173107Y184787D01*
X173085Y184822D01*
X173070Y184859D01*
X173001Y184955D01*
X172937Y185056D01*
X172907Y185084D01*
X172884Y185117D01*
X172792Y185193D01*
X172705Y185274D01*
X172670Y185294D01*
X172639Y185319D01*
X172531Y185370D01*
X172427Y185428D01*
X172387Y185438D01*
X172351Y185455D01*
X172234Y185477D01*
X172119Y185507D01*
X172059Y185511D01*
X172039Y185515D01*
X172018Y185513D01*
X171958Y185517D01*
X163458Y185517D01*
X162267Y186708D01*
X162267Y199040D01*
X162255Y199138D01*
X162252Y199237D01*
X162235Y199296D01*
X162227Y199356D01*
X162191Y199448D01*
X162163Y199543D01*
X162133Y199595D01*
X162110Y199651D01*
X162052Y199732D01*
X162002Y199817D01*
X161936Y199892D01*
X161924Y199909D01*
X161914Y199917D01*
X161896Y199938D01*
X154177Y207656D01*
X154177Y283330D01*
X154165Y283428D01*
X154162Y283527D01*
X154145Y283586D01*
X154137Y283646D01*
X154101Y283738D01*
X154073Y283833D01*
X154043Y283885D01*
X154020Y283941D01*
X153962Y284022D01*
X153912Y284107D01*
X153846Y284182D01*
X153834Y284199D01*
X153824Y284207D01*
X153806Y284228D01*
X147827Y290206D01*
X147827Y344794D01*
X150877Y347844D01*
X150878Y347844D01*
X157006Y353972D01*
X160056Y357023D01*
X166998Y357023D01*
X167116Y357038D01*
X167235Y357045D01*
X167273Y357058D01*
X167314Y357063D01*
X167424Y357106D01*
X167537Y357143D01*
X167572Y357165D01*
X167609Y357180D01*
X167705Y357249D01*
X167806Y357313D01*
X167834Y357343D01*
X167867Y357366D01*
X167943Y357458D01*
X168024Y357545D01*
X168044Y357580D01*
X168069Y357611D01*
X168120Y357719D01*
X168178Y357823D01*
X168188Y357863D01*
X168205Y357899D01*
X168227Y358016D01*
X168257Y358131D01*
X168261Y358191D01*
X168265Y358211D01*
X168263Y358232D01*
X168267Y358292D01*
X168267Y359792D01*
X169528Y361053D01*
X169601Y361147D01*
X169680Y361236D01*
X169698Y361272D01*
X169723Y361304D01*
X169770Y361413D01*
X169824Y361519D01*
X169833Y361558D01*
X169849Y361596D01*
X169868Y361713D01*
X169894Y361829D01*
X169893Y361870D01*
X169899Y361910D01*
X169888Y362028D01*
X169884Y362147D01*
X169873Y362186D01*
X169869Y362226D01*
X169829Y362338D01*
X169796Y362453D01*
X169775Y362488D01*
X169762Y362526D01*
X169695Y362624D01*
X169634Y362727D01*
X169594Y362772D01*
X169583Y362789D01*
X169568Y362802D01*
X169528Y362848D01*
X168267Y364108D01*
X168267Y378792D01*
X169458Y379983D01*
X171958Y379983D01*
X172076Y379998D01*
X172195Y380005D01*
X172233Y380018D01*
X172274Y380023D01*
X172384Y380066D01*
X172497Y380103D01*
X172532Y380125D01*
X172569Y380140D01*
X172665Y380209D01*
X172766Y380273D01*
X172794Y380303D01*
X172827Y380326D01*
X172903Y380418D01*
X172984Y380505D01*
X173004Y380540D01*
X173029Y380571D01*
X173080Y380679D01*
X173138Y380783D01*
X173148Y380823D01*
X173165Y380859D01*
X173187Y380976D01*
X173217Y381091D01*
X173221Y381151D01*
X173225Y381171D01*
X173223Y381192D01*
X173227Y381252D01*
X173227Y408294D01*
X186677Y421744D01*
X186695Y421767D01*
X186717Y421786D01*
X186792Y421892D01*
X186872Y421995D01*
X186883Y422022D01*
X186900Y422046D01*
X186946Y422167D01*
X186998Y422287D01*
X187003Y422316D01*
X187013Y422343D01*
X187028Y422472D01*
X187048Y422601D01*
X187045Y422630D01*
X187048Y422660D01*
X187030Y422788D01*
X187018Y422917D01*
X187008Y422945D01*
X187004Y422974D01*
X186952Y423127D01*
X186816Y423454D01*
X186816Y427446D01*
X188344Y431134D01*
X191166Y433956D01*
X194854Y435484D01*
X198846Y435484D01*
X202534Y433956D01*
X205356Y431134D01*
X206884Y427446D01*
X206884Y423454D01*
X205356Y419766D01*
X202534Y416944D01*
X198846Y415416D01*
X194854Y415416D01*
X194527Y415552D01*
X194498Y415560D01*
X194472Y415573D01*
X194346Y415601D01*
X194220Y415636D01*
X194191Y415636D01*
X194162Y415643D01*
X194032Y415639D01*
X193902Y415641D01*
X193873Y415634D01*
X193844Y415633D01*
X193719Y415597D01*
X193593Y415567D01*
X193567Y415553D01*
X193538Y415545D01*
X193427Y415479D01*
X193312Y415418D01*
X193290Y415398D01*
X193264Y415383D01*
X193144Y415277D01*
X182744Y404878D01*
X182684Y404799D01*
X182616Y404727D01*
X182587Y404674D01*
X182550Y404626D01*
X182510Y404535D01*
X182462Y404449D01*
X182447Y404390D01*
X182423Y404335D01*
X182408Y404237D01*
X182383Y404141D01*
X182377Y404041D01*
X182373Y404020D01*
X182375Y404008D01*
X182373Y403980D01*
X182373Y381252D01*
X182388Y381134D01*
X182395Y381015D01*
X182408Y380977D01*
X182413Y380936D01*
X182456Y380826D01*
X182493Y380713D01*
X182515Y380678D01*
X182530Y380641D01*
X182599Y380545D01*
X182663Y380444D01*
X182693Y380416D01*
X182716Y380383D01*
X182808Y380307D01*
X182895Y380226D01*
X182930Y380206D01*
X182961Y380181D01*
X183069Y380130D01*
X183173Y380072D01*
X183213Y380062D01*
X183249Y380045D01*
X183366Y380023D01*
X183481Y379993D01*
X183541Y379989D01*
X183561Y379985D01*
X183582Y379987D01*
X183642Y379983D01*
X186142Y379983D01*
X187333Y378792D01*
X187333Y364108D01*
X186072Y362848D01*
X185999Y362753D01*
X185920Y362664D01*
X185902Y362628D01*
X185877Y362596D01*
X185830Y362487D01*
X185776Y362381D01*
X185767Y362342D01*
X185751Y362304D01*
X185732Y362187D01*
X185706Y362071D01*
X185707Y362030D01*
X185701Y361990D01*
X185712Y361872D01*
X185716Y361753D01*
X185727Y361714D01*
X185731Y361674D01*
X185771Y361561D01*
X185804Y361447D01*
X185825Y361413D01*
X185838Y361374D01*
X185905Y361276D01*
X185966Y361173D01*
X186006Y361128D01*
X186017Y361111D01*
X186032Y361098D01*
X186072Y361053D01*
X187333Y359792D01*
X187333Y358292D01*
X187348Y358174D01*
X187355Y358055D01*
X187368Y358017D01*
X187373Y357976D01*
X187416Y357866D01*
X187453Y357753D01*
X187475Y357718D01*
X187490Y357681D01*
X187559Y357585D01*
X187623Y357484D01*
X187653Y357456D01*
X187676Y357423D01*
X187768Y357347D01*
X187855Y357266D01*
X187890Y357246D01*
X187921Y357221D01*
X188029Y357170D01*
X188133Y357112D01*
X188173Y357102D01*
X188209Y357085D01*
X188326Y357063D01*
X188441Y357033D01*
X188501Y357029D01*
X188521Y357025D01*
X188542Y357027D01*
X188602Y357023D01*
X198748Y357023D01*
X198866Y357038D01*
X198985Y357045D01*
X199023Y357058D01*
X199064Y357063D01*
X199174Y357106D01*
X199287Y357143D01*
X199322Y357165D01*
X199359Y357180D01*
X199455Y357249D01*
X199556Y357313D01*
X199584Y357343D01*
X199617Y357366D01*
X199693Y357458D01*
X199774Y357545D01*
X199794Y357580D01*
X199819Y357611D01*
X199870Y357719D01*
X199928Y357823D01*
X199938Y357863D01*
X199955Y357899D01*
X199977Y358016D01*
X200007Y358131D01*
X200011Y358191D01*
X200015Y358211D01*
X200013Y358232D01*
X200017Y358292D01*
X200017Y359792D01*
X201278Y361053D01*
X201351Y361147D01*
X201430Y361236D01*
X201448Y361272D01*
X201473Y361304D01*
X201520Y361413D01*
X201574Y361519D01*
X201583Y361558D01*
X201599Y361596D01*
X201618Y361713D01*
X201644Y361829D01*
X201643Y361870D01*
X201649Y361910D01*
X201638Y362028D01*
X201634Y362147D01*
X201623Y362186D01*
X201619Y362226D01*
X201579Y362338D01*
X201546Y362453D01*
X201525Y362488D01*
X201512Y362526D01*
X201445Y362624D01*
X201384Y362727D01*
X201344Y362772D01*
X201333Y362789D01*
X201318Y362802D01*
X201278Y362848D01*
X200017Y364108D01*
X200017Y378792D01*
X201208Y379983D01*
X217892Y379983D01*
X219083Y378792D01*
X219083Y377292D01*
X219098Y377174D01*
X219105Y377055D01*
X219118Y377017D01*
X219123Y376976D01*
X219166Y376866D01*
X219203Y376753D01*
X219225Y376718D01*
X219240Y376681D01*
X219309Y376585D01*
X219373Y376484D01*
X219403Y376456D01*
X219426Y376423D01*
X219518Y376347D01*
X219605Y376266D01*
X219640Y376246D01*
X219671Y376221D01*
X219779Y376170D01*
X219883Y376112D01*
X219923Y376102D01*
X219959Y376085D01*
X220076Y376063D01*
X220191Y376033D01*
X220251Y376029D01*
X220271Y376025D01*
X220292Y376027D01*
X220352Y376023D01*
X227344Y376023D01*
X229662Y373704D01*
X229741Y373644D01*
X229813Y373576D01*
X229866Y373547D01*
X229914Y373510D01*
X230005Y373470D01*
X230091Y373422D01*
X230150Y373407D01*
X230205Y373383D01*
X230303Y373368D01*
X230399Y373343D01*
X230499Y373337D01*
X230520Y373333D01*
X230532Y373335D01*
X230560Y373333D01*
X252542Y373333D01*
X252630Y373244D01*
X252709Y373184D01*
X252781Y373116D01*
X252834Y373087D01*
X252882Y373050D01*
X252972Y373010D01*
X253059Y372962D01*
X253118Y372947D01*
X253173Y372923D01*
X253271Y372908D01*
X253367Y372883D01*
X253467Y372877D01*
X253487Y372873D01*
X253500Y372875D01*
X253528Y372873D01*
X279872Y372873D01*
X279970Y372885D01*
X280069Y372888D01*
X280128Y372905D01*
X280188Y372913D01*
X280280Y372949D01*
X280375Y372977D01*
X280427Y373007D01*
X280483Y373030D01*
X280564Y373088D01*
X280649Y373138D01*
X280724Y373204D01*
X280741Y373216D01*
X280749Y373226D01*
X280770Y373244D01*
X280858Y373333D01*
X304542Y373333D01*
X305733Y372142D01*
X305733Y364458D01*
X304542Y363267D01*
X280858Y363267D01*
X280770Y363356D01*
X280691Y363416D01*
X280619Y363484D01*
X280566Y363513D01*
X280518Y363550D01*
X280428Y363590D01*
X280341Y363638D01*
X280282Y363653D01*
X280227Y363677D01*
X280129Y363692D01*
X280033Y363717D01*
X279933Y363723D01*
X279913Y363727D01*
X279900Y363725D01*
X279872Y363727D01*
X275005Y363727D01*
X274935Y363719D01*
X274866Y363720D01*
X274778Y363699D01*
X274689Y363687D01*
X274624Y363662D01*
X274556Y363645D01*
X274477Y363603D01*
X274393Y363570D01*
X274337Y363529D01*
X274275Y363497D01*
X274209Y363436D01*
X274136Y363384D01*
X274091Y363330D01*
X274040Y363283D01*
X273991Y363208D01*
X273933Y363139D01*
X273903Y363075D01*
X273865Y363017D01*
X273836Y362932D01*
X273798Y362851D01*
X273785Y362782D01*
X273762Y362716D01*
X273755Y362627D01*
X273738Y362539D01*
X273742Y362469D01*
X273737Y362399D01*
X273752Y362311D01*
X273758Y362221D01*
X273779Y362155D01*
X273791Y362086D01*
X273828Y362004D01*
X273856Y361919D01*
X273893Y361860D01*
X273922Y361796D01*
X273978Y361726D01*
X274026Y361650D01*
X274077Y361602D01*
X274120Y361548D01*
X274192Y361493D01*
X274257Y361432D01*
X274319Y361398D01*
X274374Y361356D01*
X274519Y361285D01*
X276353Y360526D01*
X276407Y360484D01*
X276479Y360416D01*
X276532Y360387D01*
X276580Y360350D01*
X276671Y360310D01*
X276758Y360262D01*
X276816Y360247D01*
X276872Y360223D01*
X276970Y360208D01*
X277066Y360183D01*
X277166Y360177D01*
X277186Y360173D01*
X277198Y360175D01*
X277226Y360173D01*
X279872Y360173D01*
X279970Y360185D01*
X280069Y360188D01*
X280128Y360205D01*
X280188Y360213D01*
X280280Y360249D01*
X280375Y360277D01*
X280427Y360307D01*
X280483Y360330D01*
X280564Y360388D01*
X280649Y360438D01*
X280724Y360504D01*
X280741Y360516D01*
X280749Y360526D01*
X280770Y360544D01*
X280858Y360633D01*
X304542Y360633D01*
X305733Y359442D01*
X305733Y351758D01*
X304542Y350567D01*
X280858Y350567D01*
X280770Y350656D01*
X280691Y350716D01*
X280619Y350784D01*
X280566Y350813D01*
X280518Y350850D01*
X280428Y350890D01*
X280341Y350938D01*
X280282Y350953D01*
X280227Y350977D01*
X280129Y350992D01*
X280033Y351017D01*
X279933Y351023D01*
X279913Y351027D01*
X279900Y351025D01*
X279872Y351027D01*
X277226Y351027D01*
X277128Y351015D01*
X277029Y351012D01*
X276971Y350995D01*
X276911Y350987D01*
X276819Y350951D01*
X276724Y350923D01*
X276671Y350893D01*
X276615Y350870D01*
X276535Y350812D01*
X276450Y350762D01*
X276374Y350696D01*
X276358Y350684D01*
X276350Y350674D01*
X276348Y350672D01*
X274207Y349785D01*
X271893Y349785D01*
X269747Y350674D01*
X269693Y350716D01*
X269621Y350784D01*
X269568Y350813D01*
X269520Y350850D01*
X269429Y350890D01*
X269342Y350938D01*
X269284Y350953D01*
X269228Y350977D01*
X269130Y350992D01*
X269034Y351017D01*
X268934Y351023D01*
X268914Y351027D01*
X268902Y351025D01*
X268874Y351027D01*
X253528Y351027D01*
X253430Y351015D01*
X253331Y351012D01*
X253272Y350995D01*
X253212Y350987D01*
X253120Y350951D01*
X253025Y350923D01*
X252973Y350893D01*
X252917Y350870D01*
X252836Y350812D01*
X252751Y350762D01*
X252676Y350696D01*
X252659Y350684D01*
X252651Y350674D01*
X252630Y350656D01*
X252542Y350567D01*
X228858Y350567D01*
X227667Y351758D01*
X227667Y359442D01*
X228858Y360633D01*
X252542Y360633D01*
X252630Y360544D01*
X252709Y360484D01*
X252781Y360416D01*
X252834Y360387D01*
X252882Y360350D01*
X252972Y360310D01*
X253059Y360262D01*
X253118Y360247D01*
X253173Y360223D01*
X253271Y360208D01*
X253367Y360183D01*
X253467Y360177D01*
X253487Y360173D01*
X253500Y360175D01*
X253528Y360173D01*
X260858Y360173D01*
X260976Y360188D01*
X261095Y360195D01*
X261133Y360208D01*
X261174Y360213D01*
X261284Y360256D01*
X261397Y360293D01*
X261432Y360315D01*
X261469Y360330D01*
X261565Y360399D01*
X261666Y360463D01*
X261694Y360493D01*
X261727Y360516D01*
X261803Y360608D01*
X261884Y360695D01*
X261904Y360730D01*
X261929Y360761D01*
X261980Y360869D01*
X262038Y360973D01*
X262048Y361013D01*
X262065Y361049D01*
X262087Y361166D01*
X262117Y361281D01*
X262121Y361341D01*
X262125Y361361D01*
X262123Y361382D01*
X262127Y361442D01*
X262127Y362458D01*
X262112Y362576D01*
X262105Y362695D01*
X262092Y362733D01*
X262087Y362774D01*
X262044Y362884D01*
X262007Y362997D01*
X261985Y363032D01*
X261970Y363069D01*
X261901Y363165D01*
X261837Y363266D01*
X261807Y363294D01*
X261784Y363327D01*
X261692Y363403D01*
X261605Y363484D01*
X261570Y363504D01*
X261539Y363529D01*
X261431Y363580D01*
X261327Y363638D01*
X261287Y363648D01*
X261251Y363665D01*
X261134Y363687D01*
X261019Y363717D01*
X260959Y363721D01*
X260939Y363725D01*
X260918Y363723D01*
X260858Y363727D01*
X253528Y363727D01*
X253430Y363715D01*
X253331Y363712D01*
X253272Y363695D01*
X253212Y363687D01*
X253120Y363651D01*
X253025Y363623D01*
X252973Y363593D01*
X252917Y363570D01*
X252836Y363512D01*
X252751Y363462D01*
X252676Y363396D01*
X252659Y363384D01*
X252651Y363374D01*
X252630Y363356D01*
X252542Y363267D01*
X228858Y363267D01*
X228770Y363356D01*
X228691Y363416D01*
X228619Y363484D01*
X228566Y363513D01*
X228518Y363550D01*
X228428Y363590D01*
X228341Y363638D01*
X228282Y363653D01*
X228227Y363677D01*
X228129Y363692D01*
X228033Y363717D01*
X227933Y363723D01*
X227913Y363727D01*
X227900Y363725D01*
X227872Y363727D01*
X226706Y363727D01*
X223928Y366506D01*
X223849Y366566D01*
X223777Y366634D01*
X223724Y366663D01*
X223676Y366700D01*
X223585Y366740D01*
X223499Y366788D01*
X223440Y366803D01*
X223385Y366827D01*
X223287Y366842D01*
X223191Y366867D01*
X223091Y366873D01*
X223070Y366877D01*
X223058Y366875D01*
X223030Y366877D01*
X220352Y366877D01*
X220234Y366862D01*
X220115Y366855D01*
X220077Y366842D01*
X220036Y366837D01*
X219926Y366794D01*
X219813Y366757D01*
X219778Y366735D01*
X219741Y366720D01*
X219645Y366651D01*
X219544Y366587D01*
X219516Y366557D01*
X219483Y366534D01*
X219407Y366442D01*
X219326Y366355D01*
X219306Y366320D01*
X219281Y366289D01*
X219230Y366181D01*
X219172Y366077D01*
X219162Y366037D01*
X219145Y366001D01*
X219123Y365884D01*
X219093Y365769D01*
X219089Y365709D01*
X219085Y365689D01*
X219086Y365679D01*
X219085Y365676D01*
X219086Y365662D01*
X219083Y365608D01*
X219083Y364108D01*
X217822Y362848D01*
X217749Y362753D01*
X217670Y362664D01*
X217652Y362628D01*
X217627Y362596D01*
X217580Y362487D01*
X217526Y362381D01*
X217517Y362342D01*
X217501Y362304D01*
X217482Y362187D01*
X217456Y362071D01*
X217457Y362030D01*
X217451Y361990D01*
X217462Y361872D01*
X217466Y361753D01*
X217477Y361714D01*
X217481Y361674D01*
X217521Y361561D01*
X217554Y361447D01*
X217575Y361413D01*
X217588Y361374D01*
X217655Y361276D01*
X217716Y361173D01*
X217756Y361128D01*
X217767Y361111D01*
X217782Y361098D01*
X217822Y361053D01*
X219083Y359792D01*
X219083Y345108D01*
X217926Y343951D01*
X217900Y343917D01*
X201208Y343917D01*
X200017Y345108D01*
X200017Y346608D01*
X200002Y346726D01*
X199995Y346845D01*
X199982Y346883D01*
X199977Y346924D01*
X199934Y347034D01*
X199897Y347147D01*
X199875Y347182D01*
X199860Y347219D01*
X199791Y347315D01*
X199727Y347416D01*
X199697Y347444D01*
X199674Y347477D01*
X199582Y347553D01*
X199495Y347634D01*
X199460Y347654D01*
X199429Y347679D01*
X199321Y347730D01*
X199217Y347788D01*
X199177Y347798D01*
X199141Y347815D01*
X199024Y347837D01*
X198909Y347867D01*
X198849Y347871D01*
X198829Y347875D01*
X198808Y347873D01*
X198748Y347877D01*
X188602Y347877D01*
X188484Y347862D01*
X188365Y347855D01*
X188327Y347842D01*
X188286Y347837D01*
X188176Y347794D01*
X188063Y347757D01*
X188028Y347735D01*
X187991Y347720D01*
X187895Y347651D01*
X187794Y347587D01*
X187766Y347557D01*
X187733Y347534D01*
X187657Y347442D01*
X187576Y347355D01*
X187556Y347320D01*
X187531Y347289D01*
X187480Y347181D01*
X187422Y347077D01*
X187412Y347037D01*
X187395Y347001D01*
X187373Y346884D01*
X187343Y346769D01*
X187339Y346709D01*
X187335Y346689D01*
X187337Y346668D01*
X187333Y346608D01*
X187333Y345108D01*
X186142Y343917D01*
X169458Y343917D01*
X168267Y345108D01*
X168267Y346608D01*
X168252Y346726D01*
X168245Y346845D01*
X168232Y346883D01*
X168227Y346924D01*
X168184Y347034D01*
X168147Y347147D01*
X168125Y347182D01*
X168110Y347219D01*
X168041Y347315D01*
X167977Y347416D01*
X167947Y347444D01*
X167924Y347477D01*
X167832Y347553D01*
X167745Y347634D01*
X167710Y347654D01*
X167679Y347679D01*
X167571Y347730D01*
X167467Y347788D01*
X167427Y347798D01*
X167391Y347815D01*
X167274Y347837D01*
X167159Y347867D01*
X167099Y347871D01*
X167079Y347875D01*
X167058Y347873D01*
X166998Y347877D01*
X164370Y347877D01*
X164272Y347865D01*
X164173Y347862D01*
X164114Y347845D01*
X164054Y347837D01*
X163962Y347801D01*
X163867Y347773D01*
X163815Y347743D01*
X163759Y347720D01*
X163679Y347662D01*
X163593Y347612D01*
X163518Y347546D01*
X163501Y347534D01*
X163493Y347524D01*
X163472Y347506D01*
X157344Y341378D01*
X157284Y341299D01*
X157216Y341227D01*
X157187Y341174D01*
X157150Y341126D01*
X157110Y341035D01*
X157062Y340949D01*
X157047Y340890D01*
X157023Y340835D01*
X157008Y340737D01*
X156983Y340641D01*
X156977Y340541D01*
X156973Y340520D01*
X156975Y340508D01*
X156973Y340480D01*
X156973Y294520D01*
X156985Y294422D01*
X156988Y294323D01*
X156996Y294294D01*
X156997Y294281D01*
X157007Y294252D01*
X157013Y294204D01*
X157049Y294112D01*
X157077Y294017D01*
X157090Y293994D01*
X157095Y293978D01*
X157113Y293949D01*
X157130Y293909D01*
X157188Y293829D01*
X157238Y293743D01*
X157259Y293719D01*
X157265Y293710D01*
X157279Y293697D01*
X157304Y293668D01*
X157316Y293651D01*
X157326Y293643D01*
X157344Y293622D01*
X160272Y290694D01*
X160351Y290634D01*
X160423Y290566D01*
X160476Y290537D01*
X160524Y290500D01*
X160615Y290460D01*
X160701Y290412D01*
X160760Y290397D01*
X160815Y290373D01*
X160913Y290358D01*
X161009Y290333D01*
X161109Y290327D01*
X161130Y290323D01*
X161142Y290325D01*
X161170Y290323D01*
X167573Y290323D01*
X167602Y290326D01*
X167632Y290324D01*
X167760Y290346D01*
X167889Y290363D01*
X167916Y290373D01*
X167945Y290378D01*
X168064Y290432D01*
X168184Y290480D01*
X168208Y290497D01*
X168235Y290509D01*
X168336Y290590D01*
X168442Y290666D01*
X168461Y290689D01*
X168484Y290708D01*
X168562Y290811D01*
X168645Y290911D01*
X168657Y290938D01*
X168675Y290962D01*
X168746Y291106D01*
X168971Y291649D01*
X171901Y294579D01*
X175728Y296165D01*
X179872Y296165D01*
X183699Y294579D01*
X186629Y291649D01*
X188215Y287822D01*
X188215Y283678D01*
X186629Y279851D01*
X183699Y276921D01*
X179872Y275335D01*
X175728Y275335D01*
X171901Y276921D01*
X168971Y279851D01*
X168746Y280394D01*
X168731Y280419D01*
X168722Y280447D01*
X168653Y280557D01*
X168588Y280670D01*
X168568Y280691D01*
X168552Y280716D01*
X168457Y280805D01*
X168367Y280898D01*
X168342Y280914D01*
X168320Y280934D01*
X168207Y280997D01*
X168096Y281065D01*
X168068Y281073D01*
X168042Y281088D01*
X167916Y281120D01*
X167792Y281158D01*
X167762Y281160D01*
X167734Y281167D01*
X167573Y281177D01*
X164592Y281177D01*
X164474Y281162D01*
X164355Y281155D01*
X164317Y281142D01*
X164276Y281137D01*
X164166Y281094D01*
X164053Y281057D01*
X164018Y281035D01*
X163981Y281020D01*
X163885Y280951D01*
X163784Y280887D01*
X163756Y280857D01*
X163723Y280834D01*
X163647Y280742D01*
X163566Y280655D01*
X163546Y280620D01*
X163521Y280589D01*
X163470Y280481D01*
X163412Y280377D01*
X163402Y280337D01*
X163385Y280301D01*
X163363Y280184D01*
X163333Y280069D01*
X163329Y280009D01*
X163325Y279989D01*
X163327Y279968D01*
X163323Y279908D01*
X163323Y234852D01*
X163338Y234734D01*
X163345Y234615D01*
X163358Y234577D01*
X163363Y234536D01*
X163406Y234426D01*
X163443Y234313D01*
X163465Y234278D01*
X163480Y234241D01*
X163549Y234145D01*
X163613Y234044D01*
X163643Y234016D01*
X163666Y233983D01*
X163758Y233907D01*
X163845Y233826D01*
X163880Y233806D01*
X163911Y233781D01*
X164019Y233730D01*
X164123Y233672D01*
X164163Y233662D01*
X164199Y233645D01*
X164316Y233623D01*
X164431Y233593D01*
X164491Y233589D01*
X164511Y233585D01*
X164532Y233587D01*
X164592Y233583D01*
X192142Y233583D01*
X193333Y232392D01*
X193333Y226410D01*
X193345Y226312D01*
X193348Y226213D01*
X193365Y226154D01*
X193373Y226094D01*
X193409Y226002D01*
X193437Y225907D01*
X193467Y225855D01*
X193490Y225799D01*
X193548Y225719D01*
X193598Y225633D01*
X193664Y225558D01*
X193676Y225541D01*
X193686Y225533D01*
X193704Y225512D01*
X198699Y220518D01*
X198793Y220445D01*
X198882Y220366D01*
X198918Y220348D01*
X198950Y220323D01*
X199059Y220276D01*
X199165Y220222D01*
X199204Y220213D01*
X199242Y220197D01*
X199360Y220178D01*
X199475Y220152D01*
X199516Y220153D01*
X199556Y220147D01*
X199674Y220158D01*
X199793Y220162D01*
X199832Y220173D01*
X199872Y220177D01*
X199984Y220217D01*
X200099Y220250D01*
X200134Y220271D01*
X200172Y220285D01*
X200270Y220351D01*
X200373Y220412D01*
X200418Y220452D01*
X200435Y220463D01*
X200448Y220478D01*
X200494Y220518D01*
X201208Y221233D01*
X203200Y221233D01*
X203318Y221248D01*
X203437Y221255D01*
X203475Y221268D01*
X203516Y221273D01*
X203626Y221316D01*
X203739Y221353D01*
X203774Y221375D01*
X203811Y221390D01*
X203907Y221459D01*
X204008Y221523D01*
X204036Y221553D01*
X204069Y221576D01*
X204145Y221668D01*
X204226Y221755D01*
X204246Y221790D01*
X204271Y221821D01*
X204322Y221929D01*
X204380Y222033D01*
X204390Y222073D01*
X204407Y222109D01*
X204429Y222226D01*
X204459Y222341D01*
X204463Y222401D01*
X204467Y222421D01*
X204465Y222442D01*
X204469Y222502D01*
X204469Y234698D01*
X204454Y234816D01*
X204447Y234935D01*
X204434Y234973D01*
X204429Y235014D01*
X204386Y235124D01*
X204349Y235237D01*
X204327Y235272D01*
X204312Y235309D01*
X204243Y235405D01*
X204179Y235506D01*
X204149Y235534D01*
X204126Y235567D01*
X204034Y235643D01*
X203947Y235724D01*
X203912Y235744D01*
X203881Y235769D01*
X203773Y235820D01*
X203669Y235878D01*
X203629Y235888D01*
X203593Y235905D01*
X203476Y235927D01*
X203361Y235957D01*
X203301Y235961D01*
X203281Y235965D01*
X203260Y235963D01*
X203200Y235967D01*
X201208Y235967D01*
X200017Y237158D01*
X200017Y251842D01*
X201278Y253102D01*
X201351Y253197D01*
X201430Y253286D01*
X201448Y253322D01*
X201473Y253354D01*
X201520Y253463D01*
X201574Y253569D01*
X201583Y253608D01*
X201599Y253646D01*
X201618Y253763D01*
X201644Y253879D01*
X201643Y253920D01*
X201649Y253960D01*
X201638Y254078D01*
X201634Y254197D01*
X201623Y254236D01*
X201619Y254276D01*
X201579Y254388D01*
X201546Y254503D01*
X201525Y254537D01*
X201512Y254576D01*
X201445Y254674D01*
X201384Y254777D01*
X201344Y254822D01*
X201333Y254839D01*
X201318Y254852D01*
X201278Y254897D01*
X200017Y256158D01*
X200017Y270842D01*
X201208Y272033D01*
X203708Y272033D01*
X203826Y272048D01*
X203945Y272055D01*
X203983Y272068D01*
X204024Y272073D01*
X204134Y272116D01*
X204247Y272153D01*
X204282Y272175D01*
X204319Y272190D01*
X204415Y272259D01*
X204516Y272323D01*
X204544Y272353D01*
X204577Y272376D01*
X204653Y272468D01*
X204734Y272555D01*
X204754Y272590D01*
X204779Y272621D01*
X204830Y272729D01*
X204888Y272833D01*
X204898Y272873D01*
X204915Y272909D01*
X204937Y273026D01*
X204967Y273141D01*
X204971Y273201D01*
X204975Y273221D01*
X204973Y273242D01*
X204977Y273302D01*
X204977Y291848D01*
X204962Y291966D01*
X204955Y292085D01*
X204942Y292123D01*
X204937Y292164D01*
X204894Y292274D01*
X204857Y292387D01*
X204835Y292422D01*
X204820Y292459D01*
X204751Y292555D01*
X204687Y292656D01*
X204657Y292684D01*
X204634Y292717D01*
X204542Y292793D01*
X204455Y292874D01*
X204420Y292894D01*
X204389Y292919D01*
X204281Y292970D01*
X204177Y293028D01*
X204137Y293038D01*
X204101Y293055D01*
X203984Y293077D01*
X203869Y293107D01*
X203809Y293111D01*
X203789Y293115D01*
X203768Y293113D01*
X203708Y293117D01*
X201208Y293117D01*
X200017Y294308D01*
X200017Y308992D01*
X201278Y310252D01*
X201351Y310347D01*
X201430Y310436D01*
X201448Y310472D01*
X201473Y310504D01*
X201520Y310613D01*
X201574Y310719D01*
X201583Y310758D01*
X201599Y310796D01*
X201618Y310913D01*
X201644Y311029D01*
X201643Y311070D01*
X201649Y311110D01*
X201638Y311228D01*
X201634Y311347D01*
X201623Y311386D01*
X201619Y311426D01*
X201579Y311539D01*
X201546Y311653D01*
X201525Y311687D01*
X201512Y311726D01*
X201445Y311824D01*
X201384Y311927D01*
X201344Y311972D01*
X201333Y311989D01*
X201318Y312002D01*
X201278Y312047D01*
X200017Y313308D01*
X200017Y327992D01*
X201208Y329183D01*
X207890Y329183D01*
X207988Y329195D01*
X208087Y329198D01*
X208146Y329215D01*
X208206Y329223D01*
X208298Y329259D01*
X208393Y329287D01*
X208445Y329317D01*
X208501Y329340D01*
X208582Y329398D01*
X208667Y329448D01*
X208742Y329514D01*
X208759Y329526D01*
X208767Y329536D01*
X208788Y329554D01*
X216500Y337266D01*
X216560Y337345D01*
X216628Y337417D01*
X216657Y337470D01*
X216695Y337518D01*
X216734Y337609D01*
X216782Y337695D01*
X216797Y337754D01*
X216821Y337810D01*
X216836Y337908D01*
X216861Y338003D01*
X216868Y338103D01*
X216871Y338124D01*
X216870Y338136D01*
X216870Y338139D01*
X217757Y340280D01*
X219227Y341751D01*
X219313Y341860D01*
X219340Y341894D01*
X221539Y342805D01*
X221606Y342813D01*
X221706Y342816D01*
X221764Y342833D01*
X221824Y342841D01*
X221916Y342877D01*
X222011Y342905D01*
X222063Y342935D01*
X222120Y342958D01*
X222200Y343016D01*
X222285Y343066D01*
X222360Y343133D01*
X222377Y343145D01*
X222385Y343154D01*
X222406Y343173D01*
X226706Y347473D01*
X227872Y347473D01*
X227970Y347485D01*
X228069Y347488D01*
X228128Y347505D01*
X228188Y347513D01*
X228280Y347549D01*
X228375Y347577D01*
X228427Y347607D01*
X228483Y347630D01*
X228564Y347688D01*
X228649Y347738D01*
X228724Y347804D01*
X228741Y347816D01*
X228749Y347826D01*
X228770Y347844D01*
X228858Y347933D01*
X252542Y347933D01*
X253733Y346742D01*
X253733Y339058D01*
X252542Y337867D01*
X230560Y337867D01*
X230462Y337855D01*
X230363Y337852D01*
X230304Y337835D01*
X230244Y337827D01*
X230152Y337791D01*
X230057Y337763D01*
X230005Y337733D01*
X229949Y337710D01*
X229869Y337652D01*
X229783Y337602D01*
X229708Y337536D01*
X229691Y337524D01*
X229683Y337514D01*
X229662Y337496D01*
X229566Y337399D01*
X229481Y337290D01*
X229392Y337183D01*
X229384Y337164D01*
X229371Y337148D01*
X229316Y337020D01*
X229257Y336895D01*
X229253Y336875D01*
X229245Y336856D01*
X229223Y336718D01*
X229197Y336582D01*
X229198Y336562D01*
X229195Y336542D01*
X229208Y336403D01*
X229217Y336265D01*
X229223Y336246D01*
X229225Y336226D01*
X229272Y336094D01*
X229315Y335963D01*
X229326Y335945D01*
X229333Y335926D01*
X229411Y335811D01*
X229485Y335694D01*
X229500Y335680D01*
X229511Y335663D01*
X229615Y335571D01*
X229717Y335476D01*
X229734Y335466D01*
X229750Y335453D01*
X229873Y335389D01*
X229995Y335322D01*
X230015Y335317D01*
X230033Y335308D01*
X230169Y335278D01*
X230303Y335243D01*
X230331Y335241D01*
X230343Y335238D01*
X230364Y335239D01*
X230464Y335233D01*
X252542Y335233D01*
X252630Y335144D01*
X252709Y335084D01*
X252781Y335016D01*
X252834Y334987D01*
X252882Y334950D01*
X252972Y334910D01*
X253059Y334862D01*
X253118Y334847D01*
X253173Y334823D01*
X253271Y334808D01*
X253367Y334783D01*
X253467Y334777D01*
X253487Y334773D01*
X253500Y334775D01*
X253528Y334773D01*
X262524Y334773D01*
X262622Y334785D01*
X262721Y334788D01*
X262779Y334805D01*
X262839Y334813D01*
X262931Y334849D01*
X263026Y334877D01*
X263079Y334907D01*
X263135Y334930D01*
X263215Y334988D01*
X263300Y335038D01*
X263376Y335104D01*
X263392Y335116D01*
X263400Y335126D01*
X263402Y335128D01*
X265543Y336015D01*
X267857Y336015D01*
X270003Y335126D01*
X270057Y335084D01*
X270129Y335016D01*
X270182Y334987D01*
X270230Y334950D01*
X270321Y334910D01*
X270408Y334862D01*
X270466Y334847D01*
X270522Y334823D01*
X270620Y334808D01*
X270716Y334783D01*
X270816Y334777D01*
X270836Y334773D01*
X270848Y334775D01*
X270876Y334773D01*
X279872Y334773D01*
X279970Y334785D01*
X280069Y334788D01*
X280128Y334805D01*
X280188Y334813D01*
X280280Y334849D01*
X280375Y334877D01*
X280427Y334907D01*
X280483Y334930D01*
X280564Y334988D01*
X280649Y335038D01*
X280724Y335104D01*
X280741Y335116D01*
X280749Y335126D01*
X280770Y335144D01*
X280858Y335233D01*
X304542Y335233D01*
X304630Y335144D01*
X304709Y335084D01*
X304781Y335016D01*
X304834Y334987D01*
X304882Y334950D01*
X304972Y334910D01*
X305059Y334862D01*
X305118Y334847D01*
X305173Y334823D01*
X305271Y334808D01*
X305367Y334783D01*
X305467Y334777D01*
X305487Y334773D01*
X305500Y334775D01*
X305528Y334773D01*
X315545Y334773D01*
X315615Y334781D01*
X315684Y334780D01*
X315772Y334801D01*
X315861Y334813D01*
X315926Y334838D01*
X315994Y334855D01*
X316073Y334897D01*
X316157Y334930D01*
X316213Y334971D01*
X316275Y335003D01*
X316341Y335064D01*
X316414Y335116D01*
X316459Y335170D01*
X316510Y335217D01*
X316559Y335292D01*
X316617Y335361D01*
X316647Y335425D01*
X316685Y335483D01*
X316714Y335568D01*
X316752Y335649D01*
X316765Y335718D01*
X316788Y335784D01*
X316795Y335873D01*
X316812Y335961D01*
X316808Y336031D01*
X316813Y336101D01*
X316798Y336189D01*
X316792Y336279D01*
X316771Y336345D01*
X316759Y336414D01*
X316722Y336496D01*
X316694Y336581D01*
X316657Y336640D01*
X316628Y336704D01*
X316572Y336774D01*
X316524Y336850D01*
X316473Y336898D01*
X316430Y336952D01*
X316358Y337007D01*
X316293Y337068D01*
X316231Y337102D01*
X316176Y337144D01*
X316031Y337215D01*
X314197Y337974D01*
X314143Y338016D01*
X314071Y338084D01*
X314018Y338113D01*
X313970Y338150D01*
X313879Y338190D01*
X313792Y338238D01*
X313734Y338253D01*
X313678Y338277D01*
X313580Y338292D01*
X313484Y338317D01*
X313384Y338323D01*
X313364Y338327D01*
X313352Y338325D01*
X313324Y338327D01*
X305528Y338327D01*
X305430Y338315D01*
X305331Y338312D01*
X305272Y338295D01*
X305212Y338287D01*
X305120Y338251D01*
X305025Y338223D01*
X304973Y338193D01*
X304917Y338170D01*
X304836Y338112D01*
X304751Y338062D01*
X304676Y337996D01*
X304659Y337984D01*
X304651Y337974D01*
X304630Y337956D01*
X304542Y337867D01*
X280858Y337867D01*
X279667Y339058D01*
X279667Y346742D01*
X280858Y347933D01*
X304542Y347933D01*
X304630Y347844D01*
X304709Y347784D01*
X304781Y347716D01*
X304834Y347687D01*
X304882Y347650D01*
X304972Y347610D01*
X305059Y347562D01*
X305118Y347547D01*
X305173Y347523D01*
X305271Y347508D01*
X305367Y347483D01*
X305467Y347477D01*
X305487Y347473D01*
X305500Y347475D01*
X305528Y347473D01*
X313324Y347473D01*
X313422Y347485D01*
X313521Y347488D01*
X313579Y347505D01*
X313639Y347513D01*
X313731Y347549D01*
X313826Y347577D01*
X313879Y347607D01*
X313935Y347630D01*
X314015Y347688D01*
X314100Y347738D01*
X314176Y347804D01*
X314192Y347816D01*
X314200Y347826D01*
X314202Y347828D01*
X316343Y348715D01*
X318657Y348715D01*
X320794Y347830D01*
X322430Y346194D01*
X323315Y344057D01*
X323315Y341743D01*
X322430Y339606D01*
X320794Y337970D01*
X318969Y337215D01*
X318908Y337180D01*
X318843Y337154D01*
X318771Y337102D01*
X318693Y337057D01*
X318642Y337009D01*
X318586Y336968D01*
X318529Y336898D01*
X318464Y336836D01*
X318428Y336776D01*
X318383Y336723D01*
X318345Y336641D01*
X318298Y336565D01*
X318277Y336498D01*
X318248Y336435D01*
X318231Y336347D01*
X318204Y336261D01*
X318201Y336191D01*
X318188Y336122D01*
X318193Y336033D01*
X318189Y335943D01*
X318203Y335875D01*
X318208Y335805D01*
X318235Y335720D01*
X318253Y335632D01*
X318284Y335569D01*
X318306Y335503D01*
X318354Y335427D01*
X318393Y335346D01*
X318438Y335293D01*
X318476Y335234D01*
X318541Y335172D01*
X318600Y335104D01*
X318657Y335064D01*
X318707Y335016D01*
X318786Y334973D01*
X318860Y334921D01*
X318925Y334896D01*
X318986Y334862D01*
X319073Y334840D01*
X319157Y334808D01*
X319226Y334800D01*
X319294Y334783D01*
X319390Y334777D01*
X322444Y331722D01*
X328931Y325236D01*
X328970Y325206D01*
X329003Y325169D01*
X329095Y325109D01*
X329182Y325041D01*
X329228Y325021D01*
X329269Y324994D01*
X329373Y324958D01*
X329474Y324915D01*
X329523Y324907D01*
X329570Y324891D01*
X329679Y324882D01*
X329788Y324865D01*
X329837Y324870D01*
X329887Y324866D01*
X329995Y324884D01*
X330105Y324895D01*
X330151Y324912D01*
X330200Y324920D01*
X330300Y324965D01*
X330404Y325002D01*
X330445Y325030D01*
X330490Y325051D01*
X330576Y325119D01*
X330667Y325181D01*
X330700Y325218D01*
X330739Y325249D01*
X330805Y325337D01*
X330877Y325419D01*
X330900Y325464D01*
X330930Y325503D01*
X331001Y325648D01*
X331624Y327153D01*
X331666Y327207D01*
X331734Y327279D01*
X331763Y327332D01*
X331800Y327380D01*
X331840Y327471D01*
X331888Y327558D01*
X331903Y327616D01*
X331927Y327672D01*
X331942Y327770D01*
X331967Y327866D01*
X331973Y327966D01*
X331977Y327986D01*
X331975Y327998D01*
X331977Y328026D01*
X331977Y329948D01*
X331962Y330066D01*
X331955Y330185D01*
X331942Y330223D01*
X331937Y330264D01*
X331894Y330374D01*
X331857Y330487D01*
X331835Y330522D01*
X331820Y330559D01*
X331751Y330655D01*
X331687Y330756D01*
X331657Y330784D01*
X331634Y330817D01*
X331542Y330893D01*
X331455Y330974D01*
X331420Y330994D01*
X331389Y331019D01*
X331281Y331070D01*
X331177Y331128D01*
X331137Y331138D01*
X331101Y331155D01*
X330984Y331177D01*
X330869Y331207D01*
X330809Y331211D01*
X330789Y331215D01*
X330768Y331213D01*
X330708Y331217D01*
X328208Y331217D01*
X327017Y332408D01*
X327017Y347092D01*
X328278Y348353D01*
X328351Y348447D01*
X328430Y348536D01*
X328448Y348572D01*
X328473Y348604D01*
X328520Y348713D01*
X328574Y348819D01*
X328583Y348858D01*
X328599Y348896D01*
X328618Y349013D01*
X328644Y349129D01*
X328643Y349170D01*
X328649Y349210D01*
X328638Y349328D01*
X328634Y349447D01*
X328623Y349486D01*
X328619Y349526D01*
X328579Y349638D01*
X328546Y349753D01*
X328525Y349788D01*
X328512Y349826D01*
X328445Y349924D01*
X328384Y350027D01*
X328344Y350072D01*
X328333Y350089D01*
X328318Y350102D01*
X328278Y350148D01*
X327017Y351408D01*
X327017Y366092D01*
X328208Y367283D01*
X344892Y367283D01*
X346083Y366092D01*
X346083Y359410D01*
X346095Y359312D01*
X346098Y359213D01*
X346115Y359154D01*
X346123Y359094D01*
X346159Y359002D01*
X346187Y358907D01*
X346217Y358855D01*
X346240Y358799D01*
X346298Y358719D01*
X346348Y358633D01*
X346414Y358558D01*
X346426Y358541D01*
X346436Y358533D01*
X346454Y358512D01*
X347844Y357122D01*
X350251Y354716D01*
X350360Y354631D01*
X350467Y354542D01*
X350486Y354534D01*
X350502Y354521D01*
X350630Y354466D01*
X350755Y354407D01*
X350775Y354403D01*
X350794Y354395D01*
X350932Y354373D01*
X351068Y354347D01*
X351088Y354348D01*
X351108Y354345D01*
X351247Y354358D01*
X351385Y354367D01*
X351404Y354373D01*
X351424Y354375D01*
X351556Y354422D01*
X351687Y354465D01*
X351705Y354476D01*
X351724Y354483D01*
X351839Y354561D01*
X351956Y354635D01*
X351970Y354650D01*
X351987Y354661D01*
X352079Y354765D01*
X352174Y354867D01*
X352184Y354884D01*
X352197Y354900D01*
X352261Y355024D01*
X352328Y355145D01*
X352333Y355165D01*
X352342Y355183D01*
X352372Y355319D01*
X352407Y355453D01*
X352409Y355481D01*
X352412Y355493D01*
X352411Y355514D01*
X352417Y355614D01*
X352417Y366092D01*
X353608Y367283D01*
X356108Y367283D01*
X356226Y367298D01*
X356345Y367305D01*
X356383Y367318D01*
X356424Y367323D01*
X356534Y367366D01*
X356647Y367403D01*
X356682Y367425D01*
X356719Y367440D01*
X356815Y367509D01*
X356916Y367573D01*
X356944Y367603D01*
X356977Y367626D01*
X357053Y367718D01*
X357134Y367805D01*
X357154Y367840D01*
X357179Y367871D01*
X357230Y367979D01*
X357288Y368083D01*
X357298Y368123D01*
X357315Y368159D01*
X357337Y368276D01*
X357367Y368391D01*
X357371Y368451D01*
X357375Y368471D01*
X357373Y368492D01*
X357377Y368552D01*
X357377Y376544D01*
X379106Y398273D01*
X454109Y398273D01*
X454227Y398288D01*
X454346Y398295D01*
X454384Y398308D01*
X454425Y398313D01*
X454535Y398356D01*
X454648Y398393D01*
X454683Y398415D01*
X454720Y398430D01*
X454816Y398499D01*
X454917Y398563D01*
X454945Y398593D01*
X454978Y398616D01*
X455054Y398708D01*
X455135Y398795D01*
X455155Y398830D01*
X455180Y398861D01*
X455231Y398969D01*
X455289Y399073D01*
X455299Y399113D01*
X455316Y399149D01*
X455338Y399266D01*
X455368Y399381D01*
X455372Y399441D01*
X455376Y399461D01*
X455374Y399482D01*
X455378Y399542D01*
X455378Y405872D01*
X455366Y405970D01*
X455363Y406069D01*
X455346Y406127D01*
X455338Y406187D01*
X455302Y406279D01*
X455274Y406374D01*
X455244Y406427D01*
X455221Y406483D01*
X455163Y406563D01*
X455113Y406648D01*
X455047Y406724D01*
X455035Y406740D01*
X455025Y406748D01*
X455007Y406769D01*
X451271Y410505D01*
X449028Y415919D01*
X449028Y421781D01*
X451271Y427195D01*
X455416Y431340D01*
X460830Y433583D01*
X466692Y433583D01*
X472106Y431340D01*
X476251Y427195D01*
X478494Y421781D01*
X478494Y415919D01*
X476251Y410505D01*
X472515Y406769D01*
X472455Y406691D01*
X472387Y406619D01*
X472358Y406566D01*
X472321Y406518D01*
X472281Y406427D01*
X472233Y406340D01*
X472218Y406282D01*
X472194Y406226D01*
X472179Y406128D01*
X472154Y406032D01*
X472148Y405932D01*
X472144Y405912D01*
X472146Y405900D01*
X472144Y405872D01*
X472144Y379544D01*
X470868Y376463D01*
X455904Y361500D01*
X455844Y361421D01*
X455776Y361349D01*
X455747Y361296D01*
X455710Y361248D01*
X455670Y361157D01*
X455622Y361071D01*
X455607Y361012D01*
X455583Y360956D01*
X455568Y360858D01*
X455543Y360763D01*
X455537Y360663D01*
X455533Y360642D01*
X455535Y360630D01*
X455533Y360602D01*
X455533Y359755D01*
X453853Y355700D01*
X450750Y352597D01*
X446695Y350917D01*
X442305Y350917D01*
X438250Y352597D01*
X435147Y355700D01*
X433467Y359755D01*
X433467Y364145D01*
X435147Y368200D01*
X438250Y371303D01*
X442305Y372983D01*
X443152Y372983D01*
X443250Y372995D01*
X443349Y372998D01*
X443407Y373015D01*
X443468Y373023D01*
X443560Y373059D01*
X443655Y373087D01*
X443707Y373117D01*
X443763Y373140D01*
X443843Y373198D01*
X443929Y373248D01*
X444004Y373314D01*
X444021Y373326D01*
X444028Y373336D01*
X444050Y373354D01*
X455007Y384311D01*
X455067Y384390D01*
X455135Y384462D01*
X455164Y384515D01*
X455201Y384563D01*
X455241Y384654D01*
X455289Y384740D01*
X455304Y384799D01*
X455328Y384855D01*
X455343Y384953D01*
X455368Y385048D01*
X455374Y385148D01*
X455378Y385169D01*
X455376Y385181D01*
X455378Y385209D01*
X455378Y387858D01*
X455363Y387976D01*
X455356Y388095D01*
X455343Y388133D01*
X455338Y388174D01*
X455295Y388284D01*
X455258Y388397D01*
X455236Y388432D01*
X455221Y388469D01*
X455152Y388565D01*
X455088Y388666D01*
X455058Y388694D01*
X455035Y388727D01*
X454943Y388803D01*
X454856Y388884D01*
X454821Y388904D01*
X454790Y388929D01*
X454682Y388980D01*
X454578Y389038D01*
X454538Y389048D01*
X454502Y389065D01*
X454385Y389087D01*
X454270Y389117D01*
X454210Y389121D01*
X454190Y389125D01*
X454169Y389123D01*
X454109Y389127D01*
X383420Y389127D01*
X383322Y389115D01*
X383223Y389112D01*
X383164Y389095D01*
X383104Y389087D01*
X383012Y389051D01*
X382917Y389023D01*
X382865Y388993D01*
X382809Y388970D01*
X382729Y388912D01*
X382643Y388862D01*
X382568Y388796D01*
X382551Y388784D01*
X382543Y388774D01*
X382522Y388756D01*
X366894Y373128D01*
X366834Y373049D01*
X366766Y372977D01*
X366737Y372924D01*
X366700Y372876D01*
X366660Y372785D01*
X366612Y372699D01*
X366597Y372640D01*
X366573Y372585D01*
X366558Y372487D01*
X366533Y372391D01*
X366527Y372291D01*
X366523Y372270D01*
X366525Y372258D01*
X366523Y372230D01*
X366523Y368552D01*
X366538Y368434D01*
X366545Y368315D01*
X366558Y368277D01*
X366563Y368236D01*
X366606Y368126D01*
X366643Y368013D01*
X366665Y367978D01*
X366680Y367941D01*
X366749Y367845D01*
X366813Y367744D01*
X366843Y367716D01*
X366866Y367683D01*
X366958Y367607D01*
X367045Y367526D01*
X367080Y367506D01*
X367111Y367481D01*
X367219Y367430D01*
X367323Y367372D01*
X367363Y367362D01*
X367399Y367345D01*
X367516Y367323D01*
X367631Y367293D01*
X367691Y367289D01*
X367711Y367285D01*
X367732Y367287D01*
X367792Y367283D01*
X370292Y367283D01*
X371483Y366092D01*
X371483Y351408D01*
X370222Y350148D01*
X370149Y350053D01*
X370070Y349964D01*
X370052Y349928D01*
X370027Y349896D01*
X369980Y349787D01*
X369926Y349681D01*
X369917Y349642D01*
X369901Y349604D01*
X369882Y349487D01*
X369856Y349371D01*
X369857Y349330D01*
X369851Y349290D01*
X369862Y349172D01*
X369866Y349053D01*
X369877Y349014D01*
X369881Y348974D01*
X369921Y348861D01*
X369954Y348747D01*
X369975Y348713D01*
X369988Y348674D01*
X370055Y348576D01*
X370116Y348473D01*
X370156Y348428D01*
X370167Y348411D01*
X370182Y348398D01*
X370222Y348353D01*
X371483Y347092D01*
X371483Y332408D01*
X370292Y331217D01*
X367792Y331217D01*
X367674Y331202D01*
X367555Y331195D01*
X367517Y331182D01*
X367476Y331177D01*
X367366Y331134D01*
X367253Y331097D01*
X367218Y331075D01*
X367181Y331060D01*
X367085Y330991D01*
X366984Y330927D01*
X366956Y330897D01*
X366923Y330874D01*
X366847Y330782D01*
X366766Y330695D01*
X366746Y330660D01*
X366721Y330629D01*
X366670Y330521D01*
X366612Y330417D01*
X366602Y330377D01*
X366585Y330341D01*
X366563Y330224D01*
X366533Y330109D01*
X366529Y330049D01*
X366525Y330029D01*
X366527Y330008D01*
X366523Y329948D01*
X366523Y317752D01*
X366538Y317634D01*
X366545Y317515D01*
X366558Y317477D01*
X366563Y317436D01*
X366606Y317326D01*
X366643Y317213D01*
X366665Y317178D01*
X366680Y317141D01*
X366749Y317045D01*
X366813Y316944D01*
X366843Y316916D01*
X366866Y316883D01*
X366958Y316807D01*
X367045Y316726D01*
X367080Y316706D01*
X367111Y316681D01*
X367219Y316630D01*
X367323Y316572D01*
X367363Y316562D01*
X367399Y316545D01*
X367516Y316523D01*
X367631Y316493D01*
X367691Y316489D01*
X367711Y316485D01*
X367732Y316487D01*
X367792Y316483D01*
X370292Y316483D01*
X371483Y315292D01*
X371483Y300608D01*
X370498Y299624D01*
X370421Y299524D01*
X370339Y299429D01*
X370324Y299399D01*
X370303Y299372D01*
X370253Y299257D01*
X370197Y299144D01*
X370190Y299111D01*
X370177Y299080D01*
X370157Y298956D01*
X370131Y298833D01*
X370132Y298800D01*
X370127Y298766D01*
X370139Y298641D01*
X370144Y298516D01*
X370154Y298483D01*
X370157Y298450D01*
X370199Y298331D01*
X370236Y298211D01*
X370253Y298182D01*
X370264Y298150D01*
X370335Y298046D01*
X370400Y297939D01*
X370424Y297915D01*
X370443Y297887D01*
X370537Y297804D01*
X370627Y297716D01*
X370668Y297689D01*
X370681Y297677D01*
X370701Y297667D01*
X370761Y297627D01*
X371010Y297483D01*
X371483Y297010D01*
X371818Y296431D01*
X371991Y295784D01*
X371991Y291489D01*
X363220Y291489D01*
X363102Y291474D01*
X362983Y291467D01*
X362945Y291454D01*
X362905Y291449D01*
X362794Y291405D01*
X362681Y291369D01*
X362646Y291347D01*
X362609Y291332D01*
X362513Y291262D01*
X362412Y291199D01*
X362384Y291169D01*
X362352Y291145D01*
X362276Y291054D01*
X362194Y290967D01*
X362175Y290932D01*
X362149Y290900D01*
X362098Y290793D01*
X362041Y290689D01*
X362030Y290649D01*
X362013Y290613D01*
X361991Y290496D01*
X361961Y290381D01*
X361957Y290320D01*
X361953Y290300D01*
X361955Y290280D01*
X361951Y290220D01*
X361951Y288949D01*
X361949Y288949D01*
X361949Y290220D01*
X361934Y290338D01*
X361927Y290457D01*
X361914Y290495D01*
X361909Y290535D01*
X361865Y290646D01*
X361829Y290759D01*
X361807Y290794D01*
X361792Y290831D01*
X361722Y290927D01*
X361659Y291028D01*
X361629Y291056D01*
X361605Y291088D01*
X361514Y291164D01*
X361427Y291246D01*
X361392Y291265D01*
X361360Y291291D01*
X361253Y291342D01*
X361149Y291399D01*
X361109Y291410D01*
X361073Y291427D01*
X360956Y291449D01*
X360841Y291479D01*
X360780Y291483D01*
X360760Y291487D01*
X360740Y291485D01*
X360680Y291489D01*
X351909Y291489D01*
X351909Y295784D01*
X352082Y296431D01*
X352417Y297010D01*
X352890Y297483D01*
X353139Y297627D01*
X353239Y297703D01*
X353343Y297773D01*
X353365Y297799D01*
X353392Y297819D01*
X353470Y297918D01*
X353554Y298012D01*
X353569Y298042D01*
X353590Y298068D01*
X353641Y298183D01*
X353698Y298295D01*
X353706Y298328D01*
X353719Y298359D01*
X353740Y298483D01*
X353768Y298605D01*
X353767Y298639D01*
X353772Y298672D01*
X353762Y298798D01*
X353758Y298923D01*
X353749Y298956D01*
X353746Y298989D01*
X353705Y299108D01*
X353670Y299229D01*
X353653Y299258D01*
X353642Y299290D01*
X353572Y299394D01*
X353508Y299503D01*
X353476Y299539D01*
X353466Y299555D01*
X353450Y299569D01*
X353402Y299624D01*
X352417Y300608D01*
X352417Y315292D01*
X353608Y316483D01*
X356108Y316483D01*
X356226Y316498D01*
X356345Y316505D01*
X356383Y316518D01*
X356424Y316523D01*
X356534Y316566D01*
X356647Y316603D01*
X356682Y316625D01*
X356719Y316640D01*
X356815Y316709D01*
X356916Y316773D01*
X356944Y316803D01*
X356977Y316826D01*
X357053Y316918D01*
X357134Y317005D01*
X357154Y317040D01*
X357179Y317071D01*
X357230Y317179D01*
X357288Y317283D01*
X357298Y317323D01*
X357315Y317359D01*
X357337Y317476D01*
X357367Y317591D01*
X357371Y317651D01*
X357375Y317671D01*
X357373Y317692D01*
X357377Y317752D01*
X357377Y329948D01*
X357362Y330066D01*
X357355Y330185D01*
X357342Y330223D01*
X357337Y330264D01*
X357294Y330374D01*
X357257Y330487D01*
X357235Y330522D01*
X357220Y330559D01*
X357151Y330655D01*
X357087Y330756D01*
X357057Y330784D01*
X357034Y330817D01*
X356942Y330893D01*
X356855Y330974D01*
X356820Y330994D01*
X356789Y331019D01*
X356681Y331070D01*
X356577Y331128D01*
X356537Y331138D01*
X356501Y331155D01*
X356384Y331177D01*
X356269Y331207D01*
X356209Y331211D01*
X356189Y331215D01*
X356168Y331213D01*
X356108Y331217D01*
X353608Y331217D01*
X352417Y332408D01*
X352417Y339090D01*
X352405Y339188D01*
X352402Y339287D01*
X352385Y339346D01*
X352377Y339406D01*
X352341Y339498D01*
X352313Y339593D01*
X352283Y339645D01*
X352260Y339701D01*
X352202Y339781D01*
X352152Y339867D01*
X352086Y339942D01*
X352074Y339959D01*
X352064Y339967D01*
X352046Y339988D01*
X348249Y343784D01*
X348140Y343869D01*
X348033Y343958D01*
X348014Y343966D01*
X347998Y343979D01*
X347870Y344034D01*
X347745Y344093D01*
X347725Y344097D01*
X347706Y344105D01*
X347568Y344127D01*
X347432Y344153D01*
X347412Y344152D01*
X347392Y344155D01*
X347253Y344142D01*
X347115Y344133D01*
X347096Y344127D01*
X347076Y344125D01*
X346944Y344078D01*
X346813Y344035D01*
X346795Y344024D01*
X346776Y344017D01*
X346661Y343939D01*
X346544Y343865D01*
X346530Y343850D01*
X346513Y343839D01*
X346421Y343735D01*
X346326Y343633D01*
X346316Y343616D01*
X346303Y343600D01*
X346239Y343476D01*
X346172Y343355D01*
X346167Y343335D01*
X346158Y343317D01*
X346128Y343181D01*
X346093Y343047D01*
X346091Y343019D01*
X346088Y343007D01*
X346089Y342986D01*
X346083Y342886D01*
X346083Y332408D01*
X344892Y331217D01*
X342392Y331217D01*
X342274Y331202D01*
X342155Y331195D01*
X342117Y331182D01*
X342076Y331177D01*
X341966Y331134D01*
X341853Y331097D01*
X341818Y331075D01*
X341781Y331060D01*
X341685Y330991D01*
X341584Y330927D01*
X341556Y330897D01*
X341523Y330874D01*
X341447Y330782D01*
X341366Y330695D01*
X341346Y330660D01*
X341321Y330629D01*
X341270Y330521D01*
X341212Y330417D01*
X341202Y330377D01*
X341185Y330341D01*
X341163Y330224D01*
X341133Y330109D01*
X341129Y330049D01*
X341125Y330029D01*
X341127Y330008D01*
X341123Y329948D01*
X341123Y328026D01*
X341135Y327928D01*
X341138Y327829D01*
X341155Y327771D01*
X341163Y327711D01*
X341199Y327619D01*
X341227Y327524D01*
X341257Y327471D01*
X341280Y327415D01*
X341338Y327335D01*
X341388Y327250D01*
X341454Y327174D01*
X341466Y327158D01*
X341476Y327150D01*
X341478Y327148D01*
X342365Y325007D01*
X342365Y322693D01*
X341476Y320547D01*
X341434Y320493D01*
X341366Y320421D01*
X341337Y320368D01*
X341300Y320320D01*
X341260Y320229D01*
X341212Y320142D01*
X341197Y320084D01*
X341173Y320028D01*
X341158Y319930D01*
X341133Y319834D01*
X341127Y319734D01*
X341123Y319714D01*
X341125Y319702D01*
X341123Y319674D01*
X341123Y317752D01*
X341138Y317634D01*
X341145Y317515D01*
X341158Y317477D01*
X341163Y317436D01*
X341206Y317326D01*
X341243Y317213D01*
X341265Y317178D01*
X341280Y317141D01*
X341349Y317045D01*
X341413Y316944D01*
X341443Y316916D01*
X341466Y316883D01*
X341558Y316807D01*
X341645Y316726D01*
X341680Y316706D01*
X341711Y316681D01*
X341819Y316630D01*
X341923Y316572D01*
X341963Y316562D01*
X341999Y316545D01*
X342116Y316523D01*
X342231Y316493D01*
X342291Y316489D01*
X342311Y316485D01*
X342332Y316487D01*
X342392Y316483D01*
X344892Y316483D01*
X346083Y315292D01*
X346083Y300608D01*
X345098Y299624D01*
X345021Y299524D01*
X344939Y299429D01*
X344924Y299399D01*
X344903Y299372D01*
X344853Y299257D01*
X344797Y299144D01*
X344790Y299111D01*
X344777Y299080D01*
X344757Y298956D01*
X344731Y298833D01*
X344732Y298800D01*
X344727Y298766D01*
X344739Y298641D01*
X344744Y298516D01*
X344754Y298483D01*
X344757Y298450D01*
X344799Y298331D01*
X344836Y298211D01*
X344853Y298182D01*
X344864Y298150D01*
X344935Y298046D01*
X345000Y297939D01*
X345024Y297915D01*
X345043Y297887D01*
X345137Y297804D01*
X345227Y297716D01*
X345268Y297689D01*
X345281Y297677D01*
X345301Y297667D01*
X345361Y297627D01*
X345610Y297483D01*
X346083Y297010D01*
X346418Y296431D01*
X346591Y295784D01*
X346591Y291489D01*
X337820Y291489D01*
X337702Y291474D01*
X337583Y291467D01*
X337545Y291454D01*
X337505Y291449D01*
X337394Y291405D01*
X337281Y291369D01*
X337246Y291347D01*
X337209Y291332D01*
X337113Y291262D01*
X337012Y291199D01*
X336984Y291169D01*
X336952Y291145D01*
X336876Y291054D01*
X336794Y290967D01*
X336775Y290932D01*
X336749Y290900D01*
X336698Y290793D01*
X336641Y290689D01*
X336630Y290649D01*
X336613Y290613D01*
X336591Y290496D01*
X336561Y290381D01*
X336557Y290320D01*
X336553Y290300D01*
X336555Y290280D01*
X336551Y290220D01*
X336551Y288949D01*
X336549Y288949D01*
X336549Y290220D01*
X336534Y290338D01*
X336527Y290457D01*
X336514Y290495D01*
X336509Y290535D01*
X336465Y290646D01*
X336429Y290759D01*
X336407Y290794D01*
X336392Y290831D01*
X336322Y290927D01*
X336259Y291028D01*
X336229Y291056D01*
X336205Y291088D01*
X336114Y291164D01*
X336027Y291246D01*
X335992Y291265D01*
X335960Y291291D01*
X335853Y291342D01*
X335749Y291399D01*
X335709Y291410D01*
X335673Y291427D01*
X335556Y291449D01*
X335441Y291479D01*
X335380Y291483D01*
X335360Y291487D01*
X335340Y291485D01*
X335280Y291489D01*
X326509Y291489D01*
X326509Y295784D01*
X326682Y296431D01*
X327017Y297010D01*
X327490Y297483D01*
X327739Y297627D01*
X327839Y297703D01*
X327943Y297773D01*
X327965Y297799D01*
X327992Y297819D01*
X328070Y297918D01*
X328154Y298012D01*
X328169Y298042D01*
X328190Y298068D01*
X328241Y298183D01*
X328298Y298295D01*
X328306Y298328D01*
X328319Y298359D01*
X328340Y298483D01*
X328368Y298605D01*
X328367Y298639D01*
X328372Y298672D01*
X328362Y298798D01*
X328358Y298923D01*
X328349Y298956D01*
X328346Y298989D01*
X328305Y299108D01*
X328270Y299229D01*
X328253Y299258D01*
X328242Y299290D01*
X328172Y299394D01*
X328108Y299503D01*
X328076Y299539D01*
X328066Y299555D01*
X328050Y299569D01*
X328002Y299624D01*
X327017Y300608D01*
X327017Y313690D01*
X327005Y313788D01*
X327002Y313887D01*
X326985Y313946D01*
X326977Y314006D01*
X326941Y314098D01*
X326913Y314193D01*
X326883Y314245D01*
X326860Y314301D01*
X326802Y314381D01*
X326752Y314467D01*
X326686Y314542D01*
X326674Y314559D01*
X326664Y314567D01*
X326646Y314588D01*
X315978Y325256D01*
X315899Y325316D01*
X315827Y325384D01*
X315774Y325413D01*
X315726Y325450D01*
X315635Y325490D01*
X315549Y325538D01*
X315490Y325553D01*
X315435Y325577D01*
X315337Y325592D01*
X315241Y325617D01*
X315141Y325623D01*
X315120Y325627D01*
X315108Y325625D01*
X315080Y325627D01*
X305528Y325627D01*
X305430Y325615D01*
X305331Y325612D01*
X305272Y325595D01*
X305212Y325587D01*
X305120Y325551D01*
X305025Y325523D01*
X304973Y325493D01*
X304917Y325470D01*
X304836Y325412D01*
X304751Y325362D01*
X304676Y325296D01*
X304659Y325284D01*
X304651Y325274D01*
X304630Y325256D01*
X304542Y325167D01*
X280858Y325167D01*
X280770Y325256D01*
X280691Y325316D01*
X280619Y325384D01*
X280566Y325413D01*
X280518Y325450D01*
X280428Y325490D01*
X280341Y325538D01*
X280282Y325553D01*
X280227Y325577D01*
X280129Y325592D01*
X280033Y325617D01*
X279933Y325623D01*
X279913Y325627D01*
X279900Y325625D01*
X279872Y325627D01*
X275005Y325627D01*
X274935Y325619D01*
X274866Y325620D01*
X274778Y325599D01*
X274689Y325587D01*
X274624Y325562D01*
X274556Y325545D01*
X274477Y325503D01*
X274393Y325470D01*
X274337Y325429D01*
X274275Y325397D01*
X274209Y325336D01*
X274136Y325284D01*
X274091Y325230D01*
X274040Y325183D01*
X273991Y325108D01*
X273933Y325039D01*
X273903Y324975D01*
X273865Y324917D01*
X273836Y324832D01*
X273798Y324751D01*
X273785Y324682D01*
X273762Y324616D01*
X273755Y324527D01*
X273738Y324439D01*
X273742Y324369D01*
X273737Y324299D01*
X273752Y324211D01*
X273758Y324121D01*
X273779Y324055D01*
X273791Y323986D01*
X273828Y323904D01*
X273856Y323819D01*
X273893Y323760D01*
X273922Y323696D01*
X273978Y323626D01*
X274026Y323550D01*
X274077Y323502D01*
X274120Y323448D01*
X274192Y323393D01*
X274257Y323332D01*
X274319Y323298D01*
X274374Y323256D01*
X274519Y323185D01*
X276353Y322426D01*
X276407Y322384D01*
X276479Y322316D01*
X276532Y322287D01*
X276580Y322250D01*
X276671Y322210D01*
X276758Y322162D01*
X276816Y322147D01*
X276872Y322123D01*
X276970Y322108D01*
X277066Y322083D01*
X277166Y322077D01*
X277186Y322073D01*
X277198Y322075D01*
X277226Y322073D01*
X279872Y322073D01*
X279970Y322085D01*
X280069Y322088D01*
X280128Y322105D01*
X280188Y322113D01*
X280280Y322149D01*
X280375Y322177D01*
X280427Y322207D01*
X280483Y322230D01*
X280564Y322288D01*
X280649Y322338D01*
X280724Y322404D01*
X280741Y322416D01*
X280749Y322426D01*
X280770Y322444D01*
X280858Y322533D01*
X304542Y322533D01*
X305733Y321342D01*
X305733Y313658D01*
X304542Y312467D01*
X280858Y312467D01*
X280770Y312556D01*
X280691Y312616D01*
X280619Y312684D01*
X280566Y312713D01*
X280518Y312750D01*
X280428Y312790D01*
X280341Y312838D01*
X280282Y312853D01*
X280227Y312877D01*
X280129Y312892D01*
X280033Y312917D01*
X279933Y312923D01*
X279913Y312927D01*
X279900Y312925D01*
X279872Y312927D01*
X277226Y312927D01*
X277128Y312915D01*
X277029Y312912D01*
X276971Y312895D01*
X276911Y312887D01*
X276819Y312851D01*
X276724Y312823D01*
X276671Y312793D01*
X276615Y312770D01*
X276535Y312712D01*
X276450Y312662D01*
X276374Y312596D01*
X276358Y312584D01*
X276350Y312574D01*
X276348Y312572D01*
X274848Y311951D01*
X274805Y311926D01*
X274758Y311909D01*
X274667Y311848D01*
X274572Y311793D01*
X274536Y311759D01*
X274495Y311731D01*
X274422Y311648D01*
X274343Y311572D01*
X274317Y311530D01*
X274284Y311492D01*
X274234Y311394D01*
X274177Y311301D01*
X274162Y311253D01*
X274140Y311209D01*
X274116Y311102D01*
X274083Y310997D01*
X274081Y310947D01*
X274070Y310899D01*
X274073Y310789D01*
X274068Y310679D01*
X274078Y310631D01*
X274080Y310581D01*
X274110Y310475D01*
X274132Y310368D01*
X274154Y310323D01*
X274168Y310275D01*
X274224Y310181D01*
X274272Y310082D01*
X274304Y310044D01*
X274330Y310001D01*
X274436Y309881D01*
X274572Y309744D01*
X274651Y309684D01*
X274723Y309616D01*
X274776Y309587D01*
X274824Y309549D01*
X274915Y309510D01*
X275001Y309462D01*
X275060Y309447D01*
X275116Y309423D01*
X275213Y309408D01*
X275309Y309383D01*
X275409Y309377D01*
X275430Y309373D01*
X275442Y309375D01*
X275470Y309373D01*
X279872Y309373D01*
X279970Y309385D01*
X280069Y309388D01*
X280128Y309405D01*
X280188Y309413D01*
X280280Y309449D01*
X280375Y309477D01*
X280427Y309507D01*
X280483Y309530D01*
X280564Y309588D01*
X280649Y309638D01*
X280724Y309704D01*
X280741Y309716D01*
X280749Y309726D01*
X280770Y309744D01*
X280858Y309833D01*
X304542Y309833D01*
X305733Y308642D01*
X305733Y300958D01*
X304542Y299767D01*
X280858Y299767D01*
X280770Y299856D01*
X280691Y299916D01*
X280619Y299984D01*
X280566Y300013D01*
X280518Y300050D01*
X280428Y300090D01*
X280341Y300138D01*
X280282Y300153D01*
X280227Y300177D01*
X280129Y300192D01*
X280033Y300217D01*
X279933Y300223D01*
X279913Y300227D01*
X279900Y300225D01*
X279872Y300227D01*
X271156Y300227D01*
X268106Y303278D01*
X267969Y303414D01*
X267930Y303444D01*
X267897Y303481D01*
X267805Y303541D01*
X267718Y303609D01*
X267672Y303629D01*
X267631Y303656D01*
X267527Y303692D01*
X267426Y303735D01*
X267377Y303743D01*
X267330Y303759D01*
X267220Y303768D01*
X267112Y303785D01*
X267063Y303780D01*
X267013Y303784D01*
X266905Y303766D01*
X266796Y303755D01*
X266749Y303738D01*
X266700Y303730D01*
X266600Y303685D01*
X266496Y303648D01*
X266455Y303620D01*
X266410Y303599D01*
X266324Y303531D01*
X266233Y303469D01*
X266200Y303432D01*
X266161Y303401D01*
X266095Y303313D01*
X266023Y303231D01*
X266000Y303186D01*
X265970Y303147D01*
X265899Y303002D01*
X265280Y301506D01*
X263644Y299870D01*
X261819Y299115D01*
X261758Y299080D01*
X261693Y299054D01*
X261621Y299002D01*
X261543Y298957D01*
X261492Y298909D01*
X261436Y298868D01*
X261379Y298798D01*
X261314Y298736D01*
X261278Y298676D01*
X261233Y298623D01*
X261195Y298541D01*
X261148Y298465D01*
X261127Y298398D01*
X261098Y298335D01*
X261081Y298247D01*
X261054Y298161D01*
X261051Y298091D01*
X261038Y298022D01*
X261043Y297933D01*
X261039Y297843D01*
X261053Y297775D01*
X261058Y297705D01*
X261085Y297620D01*
X261103Y297532D01*
X261134Y297469D01*
X261156Y297403D01*
X261204Y297327D01*
X261243Y297246D01*
X261288Y297193D01*
X261326Y297134D01*
X261391Y297072D01*
X261450Y297004D01*
X261507Y296964D01*
X261557Y296916D01*
X261636Y296873D01*
X261710Y296821D01*
X261775Y296796D01*
X261836Y296762D01*
X261923Y296740D01*
X262007Y296708D01*
X262076Y296700D01*
X262144Y296683D01*
X262305Y296673D01*
X279872Y296673D01*
X279970Y296685D01*
X280069Y296688D01*
X280128Y296705D01*
X280188Y296713D01*
X280280Y296749D01*
X280375Y296777D01*
X280427Y296807D01*
X280483Y296830D01*
X280564Y296888D01*
X280649Y296938D01*
X280724Y297004D01*
X280741Y297016D01*
X280749Y297026D01*
X280770Y297044D01*
X280858Y297133D01*
X304542Y297133D01*
X304630Y297044D01*
X304709Y296984D01*
X304781Y296916D01*
X304834Y296887D01*
X304882Y296850D01*
X304972Y296810D01*
X305059Y296762D01*
X305118Y296747D01*
X305173Y296723D01*
X305271Y296708D01*
X305367Y296683D01*
X305467Y296677D01*
X305487Y296673D01*
X305500Y296675D01*
X305528Y296673D01*
X313044Y296673D01*
X316094Y293623D01*
X316094Y293622D01*
X317780Y291936D01*
X317859Y291876D01*
X317931Y291808D01*
X317984Y291779D01*
X318032Y291742D01*
X318123Y291702D01*
X318209Y291654D01*
X318268Y291639D01*
X318323Y291615D01*
X318421Y291600D01*
X318517Y291575D01*
X318617Y291569D01*
X318638Y291565D01*
X318650Y291567D01*
X318653Y291566D01*
X320794Y290680D01*
X322430Y289044D01*
X323315Y286907D01*
X323315Y284593D01*
X322430Y282456D01*
X320794Y280820D01*
X318657Y279935D01*
X316343Y279935D01*
X314206Y280820D01*
X312570Y282456D01*
X311681Y284603D01*
X311673Y284670D01*
X311670Y284769D01*
X311653Y284828D01*
X311645Y284888D01*
X311609Y284980D01*
X311581Y285075D01*
X311551Y285127D01*
X311528Y285183D01*
X311470Y285263D01*
X311420Y285349D01*
X311354Y285424D01*
X311342Y285441D01*
X311332Y285449D01*
X311314Y285470D01*
X309628Y287156D01*
X309549Y287216D01*
X309477Y287284D01*
X309424Y287313D01*
X309376Y287350D01*
X309285Y287390D01*
X309199Y287438D01*
X309140Y287453D01*
X309085Y287477D01*
X308987Y287492D01*
X308891Y287517D01*
X308791Y287523D01*
X308770Y287527D01*
X308758Y287525D01*
X308730Y287527D01*
X305528Y287527D01*
X305430Y287515D01*
X305331Y287512D01*
X305272Y287495D01*
X305212Y287487D01*
X305120Y287451D01*
X305025Y287423D01*
X304973Y287393D01*
X304917Y287370D01*
X304836Y287312D01*
X304751Y287262D01*
X304676Y287196D01*
X304659Y287184D01*
X304651Y287174D01*
X304630Y287156D01*
X304542Y287067D01*
X280858Y287067D01*
X280770Y287156D01*
X280691Y287216D01*
X280619Y287284D01*
X280566Y287313D01*
X280518Y287350D01*
X280428Y287390D01*
X280341Y287438D01*
X280282Y287453D01*
X280227Y287477D01*
X280129Y287492D01*
X280033Y287517D01*
X279933Y287523D01*
X279913Y287527D01*
X279900Y287525D01*
X279872Y287527D01*
X253528Y287527D01*
X253430Y287515D01*
X253331Y287512D01*
X253272Y287495D01*
X253212Y287487D01*
X253120Y287451D01*
X253025Y287423D01*
X252973Y287393D01*
X252917Y287370D01*
X252836Y287312D01*
X252751Y287262D01*
X252676Y287196D01*
X252659Y287184D01*
X252651Y287174D01*
X252630Y287156D01*
X252542Y287067D01*
X247142Y287067D01*
X247024Y287052D01*
X246905Y287045D01*
X246867Y287032D01*
X246826Y287027D01*
X246716Y286984D01*
X246603Y286947D01*
X246568Y286925D01*
X246531Y286910D01*
X246435Y286841D01*
X246334Y286777D01*
X246306Y286747D01*
X246273Y286724D01*
X246197Y286632D01*
X246116Y286545D01*
X246096Y286510D01*
X246071Y286479D01*
X246020Y286371D01*
X245962Y286267D01*
X245952Y286227D01*
X245935Y286191D01*
X245913Y286074D01*
X245883Y285959D01*
X245879Y285899D01*
X245875Y285879D01*
X245877Y285858D01*
X245873Y285798D01*
X245873Y283576D01*
X245885Y283478D01*
X245888Y283379D01*
X245905Y283321D01*
X245913Y283261D01*
X245949Y283169D01*
X245977Y283074D01*
X246007Y283021D01*
X246030Y282965D01*
X246088Y282885D01*
X246138Y282800D01*
X246204Y282724D01*
X246216Y282708D01*
X246226Y282700D01*
X246228Y282698D01*
X247115Y280557D01*
X247115Y278243D01*
X246230Y276106D01*
X244594Y274471D01*
X243879Y274175D01*
X243819Y274140D01*
X243754Y274114D01*
X243681Y274062D01*
X243603Y274017D01*
X243553Y273969D01*
X243497Y273928D01*
X243439Y273858D01*
X243375Y273796D01*
X243338Y273736D01*
X243294Y273683D01*
X243255Y273601D01*
X243208Y273525D01*
X243188Y273458D01*
X243158Y273395D01*
X243141Y273307D01*
X243115Y273221D01*
X243112Y273151D01*
X243098Y273082D01*
X243104Y272993D01*
X243100Y272903D01*
X243114Y272835D01*
X243118Y272765D01*
X243146Y272680D01*
X243164Y272592D01*
X243195Y272529D01*
X243216Y272463D01*
X243264Y272387D01*
X243304Y272306D01*
X243349Y272253D01*
X243386Y272194D01*
X243452Y272132D01*
X243510Y272064D01*
X243567Y272024D01*
X243618Y271976D01*
X243697Y271933D01*
X243770Y271881D01*
X243835Y271856D01*
X243896Y271822D01*
X243983Y271800D01*
X244067Y271768D01*
X244137Y271760D01*
X244204Y271743D01*
X244365Y271733D01*
X252542Y271733D01*
X252630Y271644D01*
X252709Y271584D01*
X252781Y271516D01*
X252834Y271487D01*
X252882Y271450D01*
X252972Y271410D01*
X253059Y271362D01*
X253118Y271347D01*
X253173Y271323D01*
X253271Y271308D01*
X253367Y271283D01*
X253467Y271277D01*
X253487Y271273D01*
X253500Y271275D01*
X253528Y271273D01*
X268874Y271273D01*
X268972Y271285D01*
X269071Y271288D01*
X269129Y271305D01*
X269189Y271313D01*
X269281Y271349D01*
X269376Y271377D01*
X269429Y271407D01*
X269485Y271430D01*
X269565Y271488D01*
X269650Y271538D01*
X269726Y271604D01*
X269742Y271616D01*
X269750Y271626D01*
X269752Y271628D01*
X271893Y272515D01*
X274207Y272515D01*
X276353Y271626D01*
X276407Y271584D01*
X276479Y271516D01*
X276532Y271487D01*
X276580Y271450D01*
X276671Y271410D01*
X276758Y271362D01*
X276816Y271347D01*
X276872Y271323D01*
X276970Y271308D01*
X277066Y271283D01*
X277166Y271277D01*
X277186Y271273D01*
X277198Y271275D01*
X277226Y271273D01*
X279872Y271273D01*
X279970Y271285D01*
X280069Y271288D01*
X280128Y271305D01*
X280188Y271313D01*
X280280Y271349D01*
X280375Y271377D01*
X280427Y271407D01*
X280483Y271430D01*
X280564Y271488D01*
X280649Y271538D01*
X280724Y271604D01*
X280741Y271616D01*
X280749Y271626D01*
X280770Y271644D01*
X280858Y271733D01*
X304542Y271733D01*
X305733Y270542D01*
X305733Y262858D01*
X304542Y261667D01*
X280858Y261667D01*
X280770Y261756D01*
X280691Y261816D01*
X280619Y261884D01*
X280566Y261913D01*
X280518Y261950D01*
X280428Y261990D01*
X280341Y262038D01*
X280282Y262053D01*
X280227Y262077D01*
X280129Y262092D01*
X280033Y262117D01*
X279933Y262123D01*
X279913Y262127D01*
X279900Y262125D01*
X279872Y262127D01*
X277226Y262127D01*
X277128Y262115D01*
X277029Y262112D01*
X276971Y262095D01*
X276911Y262087D01*
X276819Y262051D01*
X276724Y262023D01*
X276671Y261993D01*
X276615Y261970D01*
X276535Y261912D01*
X276450Y261862D01*
X276374Y261796D01*
X276358Y261784D01*
X276350Y261774D01*
X276348Y261772D01*
X274519Y261015D01*
X274458Y260980D01*
X274393Y260954D01*
X274321Y260902D01*
X274243Y260857D01*
X274192Y260809D01*
X274136Y260768D01*
X274079Y260698D01*
X274014Y260636D01*
X273978Y260576D01*
X273933Y260523D01*
X273895Y260441D01*
X273848Y260365D01*
X273827Y260298D01*
X273798Y260235D01*
X273781Y260147D01*
X273754Y260061D01*
X273751Y259991D01*
X273738Y259922D01*
X273743Y259833D01*
X273739Y259743D01*
X273753Y259675D01*
X273758Y259605D01*
X273785Y259520D01*
X273803Y259432D01*
X273834Y259369D01*
X273856Y259303D01*
X273904Y259227D01*
X273943Y259146D01*
X273988Y259093D01*
X274026Y259034D01*
X274091Y258972D01*
X274150Y258904D01*
X274207Y258864D01*
X274257Y258816D01*
X274336Y258773D01*
X274410Y258721D01*
X274475Y258696D01*
X274536Y258662D01*
X274623Y258640D01*
X274707Y258608D01*
X274776Y258600D01*
X274844Y258583D01*
X275005Y258573D01*
X279872Y258573D01*
X279971Y258585D01*
X280070Y258588D01*
X280128Y258605D01*
X280188Y258613D01*
X280280Y258649D01*
X280375Y258677D01*
X280427Y258707D01*
X280484Y258730D01*
X280564Y258788D01*
X280649Y258838D01*
X280724Y258904D01*
X280741Y258916D01*
X280749Y258926D01*
X280770Y258945D01*
X280858Y259033D01*
X304542Y259033D01*
X305733Y257842D01*
X305733Y251764D01*
X305750Y251626D01*
X305763Y251487D01*
X305770Y251468D01*
X305773Y251448D01*
X305824Y251319D01*
X305871Y251188D01*
X305882Y251171D01*
X305890Y251153D01*
X305971Y251040D01*
X306049Y250925D01*
X306065Y250912D01*
X306076Y250895D01*
X306184Y250806D01*
X306288Y250715D01*
X306306Y250705D01*
X306321Y250692D01*
X306447Y250633D01*
X306571Y250570D01*
X306591Y250565D01*
X306609Y250557D01*
X306745Y250531D01*
X306881Y250500D01*
X306902Y250501D01*
X306921Y250497D01*
X307060Y250506D01*
X307199Y250510D01*
X307219Y250516D01*
X307239Y250517D01*
X307371Y250560D01*
X307505Y250598D01*
X307522Y250609D01*
X307541Y250615D01*
X307659Y250689D01*
X307779Y250760D01*
X307800Y250778D01*
X307810Y250785D01*
X307824Y250800D01*
X307899Y250866D01*
X311517Y254484D01*
X311577Y254562D01*
X311645Y254634D01*
X311674Y254687D01*
X311712Y254735D01*
X311751Y254826D01*
X311799Y254912D01*
X311814Y254971D01*
X311838Y255027D01*
X311840Y255040D01*
X312774Y257294D01*
X314409Y258930D01*
X316547Y259815D01*
X318860Y259815D01*
X320997Y258930D01*
X322633Y257294D01*
X323518Y255157D01*
X323518Y252843D01*
X322633Y250706D01*
X320997Y249070D01*
X318860Y248185D01*
X318678Y248185D01*
X318580Y248173D01*
X318481Y248170D01*
X318422Y248153D01*
X318362Y248145D01*
X318270Y248109D01*
X318175Y248081D01*
X318123Y248051D01*
X318067Y248028D01*
X317987Y247970D01*
X317901Y247920D01*
X317826Y247854D01*
X317809Y247842D01*
X317801Y247832D01*
X317780Y247814D01*
X306694Y236727D01*
X305528Y236727D01*
X305429Y236715D01*
X305330Y236712D01*
X305272Y236695D01*
X305212Y236687D01*
X305120Y236651D01*
X305025Y236623D01*
X304973Y236593D01*
X304916Y236570D01*
X304836Y236512D01*
X304751Y236462D01*
X304676Y236396D01*
X304659Y236384D01*
X304651Y236374D01*
X304630Y236355D01*
X304542Y236267D01*
X280858Y236267D01*
X279667Y237458D01*
X279667Y245142D01*
X280858Y246333D01*
X302840Y246333D01*
X302938Y246345D01*
X303037Y246348D01*
X303096Y246365D01*
X303156Y246373D01*
X303248Y246409D01*
X303343Y246436D01*
X303395Y246467D01*
X303451Y246490D01*
X303531Y246548D01*
X303617Y246598D01*
X303692Y246664D01*
X303709Y246676D01*
X303716Y246686D01*
X303738Y246704D01*
X303834Y246800D01*
X303919Y246910D01*
X304008Y247017D01*
X304016Y247036D01*
X304029Y247052D01*
X304084Y247179D01*
X304143Y247305D01*
X304147Y247325D01*
X304155Y247343D01*
X304177Y247481D01*
X304203Y247618D01*
X304202Y247638D01*
X304205Y247658D01*
X304192Y247796D01*
X304183Y247935D01*
X304177Y247954D01*
X304175Y247974D01*
X304128Y248105D01*
X304085Y248237D01*
X304074Y248254D01*
X304068Y248273D01*
X303989Y248389D01*
X303915Y248506D01*
X303900Y248520D01*
X303889Y248537D01*
X303785Y248629D01*
X303683Y248724D01*
X303666Y248734D01*
X303651Y248747D01*
X303527Y248810D01*
X303405Y248878D01*
X303385Y248883D01*
X303367Y248892D01*
X303232Y248922D01*
X303097Y248957D01*
X303069Y248959D01*
X303057Y248961D01*
X303037Y248961D01*
X302936Y248967D01*
X280858Y248967D01*
X280770Y249055D01*
X280692Y249116D01*
X280619Y249184D01*
X280566Y249213D01*
X280519Y249250D01*
X280428Y249290D01*
X280341Y249338D01*
X280282Y249353D01*
X280227Y249377D01*
X280129Y249392D01*
X280033Y249417D01*
X279933Y249423D01*
X279913Y249427D01*
X279900Y249425D01*
X279872Y249427D01*
X262305Y249427D01*
X262235Y249419D01*
X262166Y249420D01*
X262078Y249399D01*
X261989Y249387D01*
X261924Y249362D01*
X261856Y249345D01*
X261777Y249303D01*
X261693Y249270D01*
X261637Y249229D01*
X261575Y249197D01*
X261509Y249136D01*
X261436Y249084D01*
X261391Y249030D01*
X261340Y248983D01*
X261291Y248908D01*
X261233Y248839D01*
X261203Y248775D01*
X261165Y248717D01*
X261136Y248632D01*
X261098Y248551D01*
X261085Y248482D01*
X261062Y248416D01*
X261055Y248327D01*
X261038Y248239D01*
X261042Y248169D01*
X261037Y248099D01*
X261052Y248011D01*
X261058Y247921D01*
X261079Y247855D01*
X261091Y247786D01*
X261128Y247704D01*
X261156Y247619D01*
X261193Y247560D01*
X261222Y247496D01*
X261278Y247426D01*
X261326Y247350D01*
X261377Y247302D01*
X261420Y247248D01*
X261492Y247193D01*
X261557Y247132D01*
X261619Y247098D01*
X261674Y247056D01*
X261819Y246985D01*
X263644Y246230D01*
X265280Y244594D01*
X266165Y242457D01*
X266165Y240143D01*
X265280Y238006D01*
X263855Y236581D01*
X263769Y236472D01*
X263681Y236365D01*
X263672Y236346D01*
X263660Y236330D01*
X263604Y236202D01*
X263545Y236077D01*
X263542Y236057D01*
X263533Y236038D01*
X263512Y235900D01*
X263486Y235764D01*
X263487Y235744D01*
X263484Y235724D01*
X263497Y235585D01*
X263505Y235447D01*
X263512Y235428D01*
X263513Y235408D01*
X263561Y235276D01*
X263603Y235145D01*
X263614Y235127D01*
X263621Y235108D01*
X263699Y234993D01*
X263773Y234876D01*
X263788Y234862D01*
X263800Y234845D01*
X263904Y234753D01*
X264005Y234658D01*
X264023Y234648D01*
X264038Y234635D01*
X264162Y234571D01*
X264284Y234504D01*
X264303Y234499D01*
X264321Y234490D01*
X264457Y234460D01*
X264592Y234425D01*
X264620Y234423D01*
X264632Y234420D01*
X264652Y234421D01*
X264752Y234415D01*
X265853Y234415D01*
X267999Y233526D01*
X268053Y233484D01*
X268125Y233416D01*
X268178Y233387D01*
X268226Y233350D01*
X268317Y233310D01*
X268404Y233262D01*
X268462Y233247D01*
X268518Y233223D01*
X268616Y233208D01*
X268712Y233183D01*
X268812Y233177D01*
X268832Y233173D01*
X268844Y233175D01*
X268872Y233173D01*
X279872Y233173D01*
X279971Y233185D01*
X280070Y233188D01*
X280128Y233205D01*
X280188Y233213D01*
X280280Y233249D01*
X280375Y233277D01*
X280427Y233307D01*
X280484Y233330D01*
X280564Y233388D01*
X280649Y233438D01*
X280724Y233504D01*
X280741Y233516D01*
X280749Y233526D01*
X280770Y233545D01*
X280858Y233633D01*
X304542Y233633D01*
X304630Y233545D01*
X304708Y233484D01*
X304781Y233416D01*
X304834Y233387D01*
X304881Y233350D01*
X304972Y233310D01*
X305059Y233262D01*
X305118Y233247D01*
X305173Y233223D01*
X305271Y233208D01*
X305367Y233183D01*
X305467Y233177D01*
X305487Y233173D01*
X305500Y233175D01*
X305528Y233173D01*
X316194Y233173D01*
X328569Y220798D01*
X328678Y220713D01*
X328785Y220624D01*
X328804Y220616D01*
X328820Y220603D01*
X328948Y220548D01*
X329073Y220489D01*
X329093Y220485D01*
X329112Y220477D01*
X329250Y220455D01*
X329386Y220429D01*
X329406Y220430D01*
X329426Y220427D01*
X329565Y220440D01*
X329703Y220449D01*
X329722Y220455D01*
X329742Y220457D01*
X329874Y220504D01*
X330005Y220547D01*
X330023Y220558D01*
X330042Y220565D01*
X330157Y220643D01*
X330274Y220717D01*
X330288Y220732D01*
X330305Y220743D01*
X330397Y220847D01*
X330492Y220949D01*
X330502Y220966D01*
X330515Y220982D01*
X330579Y221105D01*
X330646Y221227D01*
X330651Y221247D01*
X330660Y221265D01*
X330690Y221401D01*
X330725Y221535D01*
X330727Y221563D01*
X330730Y221575D01*
X330729Y221596D01*
X330735Y221696D01*
X330735Y223407D01*
X331624Y225553D01*
X331666Y225607D01*
X331734Y225679D01*
X331763Y225732D01*
X331800Y225780D01*
X331840Y225871D01*
X331888Y225958D01*
X331903Y226016D01*
X331927Y226072D01*
X331942Y226170D01*
X331967Y226266D01*
X331973Y226366D01*
X331977Y226386D01*
X331975Y226398D01*
X331977Y226426D01*
X331977Y228348D01*
X331962Y228466D01*
X331955Y228585D01*
X331942Y228623D01*
X331937Y228664D01*
X331894Y228774D01*
X331857Y228887D01*
X331835Y228922D01*
X331820Y228959D01*
X331751Y229055D01*
X331687Y229156D01*
X331657Y229184D01*
X331634Y229217D01*
X331542Y229293D01*
X331455Y229374D01*
X331420Y229394D01*
X331389Y229419D01*
X331281Y229470D01*
X331177Y229528D01*
X331137Y229538D01*
X331101Y229555D01*
X330984Y229577D01*
X330869Y229607D01*
X330809Y229611D01*
X330789Y229615D01*
X330768Y229613D01*
X330708Y229617D01*
X327802Y229617D01*
X326611Y230808D01*
X326611Y245492D01*
X327595Y246476D01*
X327673Y246576D01*
X327755Y246671D01*
X327770Y246701D01*
X327790Y246728D01*
X327840Y246843D01*
X327896Y246956D01*
X327903Y246989D01*
X327917Y247020D01*
X327936Y247144D01*
X327963Y247267D01*
X327961Y247300D01*
X327967Y247334D01*
X327955Y247459D01*
X327950Y247584D01*
X327940Y247617D01*
X327937Y247650D01*
X327894Y247769D01*
X327858Y247889D01*
X327841Y247918D01*
X327829Y247950D01*
X327759Y248054D01*
X327694Y248161D01*
X327670Y248185D01*
X327651Y248213D01*
X327556Y248296D01*
X327467Y248384D01*
X327426Y248411D01*
X327412Y248423D01*
X327393Y248433D01*
X327333Y248473D01*
X327084Y248617D01*
X326610Y249090D01*
X326276Y249669D01*
X326103Y250316D01*
X326103Y254611D01*
X334874Y254611D01*
X334992Y254626D01*
X335110Y254633D01*
X335149Y254646D01*
X335189Y254651D01*
X335300Y254694D01*
X335413Y254731D01*
X335447Y254753D01*
X335485Y254768D01*
X335581Y254838D01*
X335682Y254901D01*
X335709Y254931D01*
X335742Y254955D01*
X335818Y255046D01*
X335900Y255133D01*
X335919Y255168D01*
X335945Y255199D01*
X335996Y255307D01*
X336053Y255411D01*
X336063Y255451D01*
X336080Y255487D01*
X336103Y255604D01*
X336133Y255719D01*
X336136Y255780D01*
X336140Y255800D01*
X336139Y255820D01*
X336143Y255880D01*
X336143Y257151D01*
X336144Y257151D01*
X336144Y255880D01*
X336159Y255762D01*
X336167Y255643D01*
X336179Y255605D01*
X336184Y255565D01*
X336228Y255454D01*
X336265Y255341D01*
X336286Y255306D01*
X336301Y255269D01*
X336371Y255173D01*
X336435Y255072D01*
X336464Y255044D01*
X336488Y255011D01*
X336580Y254936D01*
X336667Y254854D01*
X336702Y254834D01*
X336733Y254809D01*
X336841Y254758D01*
X336945Y254700D01*
X336984Y254690D01*
X337021Y254673D01*
X337138Y254651D01*
X337253Y254621D01*
X337313Y254617D01*
X337333Y254613D01*
X337354Y254615D01*
X337414Y254611D01*
X346184Y254611D01*
X346184Y250316D01*
X346011Y249669D01*
X345677Y249090D01*
X345204Y248617D01*
X344955Y248473D01*
X344855Y248397D01*
X344751Y248327D01*
X344728Y248301D01*
X344701Y248281D01*
X344623Y248182D01*
X344540Y248088D01*
X344525Y248058D01*
X344504Y248032D01*
X344453Y247917D01*
X344395Y247805D01*
X344388Y247772D01*
X344374Y247741D01*
X344353Y247617D01*
X344326Y247495D01*
X344327Y247461D01*
X344321Y247428D01*
X344332Y247302D01*
X344335Y247177D01*
X344345Y247144D01*
X344348Y247111D01*
X344389Y246992D01*
X344424Y246871D01*
X344441Y246842D01*
X344452Y246810D01*
X344522Y246706D01*
X344585Y246597D01*
X344618Y246561D01*
X344628Y246545D01*
X344644Y246531D01*
X344692Y246476D01*
X345676Y245492D01*
X345676Y230808D01*
X344486Y229617D01*
X342392Y229617D01*
X342274Y229602D01*
X342155Y229595D01*
X342117Y229582D01*
X342076Y229577D01*
X341966Y229534D01*
X341853Y229497D01*
X341818Y229475D01*
X341781Y229460D01*
X341685Y229391D01*
X341584Y229327D01*
X341556Y229297D01*
X341523Y229274D01*
X341447Y229182D01*
X341366Y229095D01*
X341346Y229060D01*
X341321Y229029D01*
X341270Y228921D01*
X341212Y228817D01*
X341202Y228777D01*
X341185Y228741D01*
X341163Y228624D01*
X341133Y228509D01*
X341129Y228449D01*
X341125Y228429D01*
X341127Y228408D01*
X341123Y228348D01*
X341123Y226426D01*
X341135Y226328D01*
X341138Y226229D01*
X341155Y226171D01*
X341163Y226111D01*
X341199Y226019D01*
X341227Y225924D01*
X341257Y225871D01*
X341280Y225815D01*
X341338Y225735D01*
X341388Y225650D01*
X341454Y225574D01*
X341466Y225558D01*
X341476Y225550D01*
X341478Y225548D01*
X342365Y223407D01*
X342365Y221093D01*
X341476Y218947D01*
X341434Y218893D01*
X341366Y218821D01*
X341337Y218768D01*
X341300Y218720D01*
X341260Y218629D01*
X341212Y218542D01*
X341197Y218484D01*
X341173Y218428D01*
X341158Y218330D01*
X341133Y218234D01*
X341127Y218134D01*
X341123Y218114D01*
X341125Y218102D01*
X341123Y218074D01*
X341123Y216152D01*
X341138Y216034D01*
X341145Y215915D01*
X341158Y215877D01*
X341163Y215836D01*
X341206Y215726D01*
X341243Y215613D01*
X341265Y215578D01*
X341280Y215541D01*
X341349Y215445D01*
X341413Y215344D01*
X341443Y215316D01*
X341466Y215283D01*
X341558Y215207D01*
X341645Y215126D01*
X341680Y215106D01*
X341711Y215081D01*
X341819Y215030D01*
X341923Y214972D01*
X341963Y214962D01*
X341999Y214945D01*
X342116Y214923D01*
X342231Y214893D01*
X342291Y214889D01*
X342311Y214885D01*
X342332Y214887D01*
X342392Y214883D01*
X344892Y214883D01*
X346083Y213692D01*
X346083Y203214D01*
X346100Y203076D01*
X346113Y202937D01*
X346120Y202918D01*
X346123Y202898D01*
X346174Y202769D01*
X346221Y202638D01*
X346232Y202621D01*
X346240Y202603D01*
X346321Y202490D01*
X346399Y202375D01*
X346415Y202362D01*
X346426Y202345D01*
X346534Y202256D01*
X346638Y202165D01*
X346656Y202155D01*
X346671Y202142D01*
X346797Y202083D01*
X346921Y202020D01*
X346941Y202015D01*
X346959Y202007D01*
X347095Y201981D01*
X347231Y201950D01*
X347252Y201951D01*
X347271Y201947D01*
X347410Y201956D01*
X347549Y201960D01*
X347569Y201966D01*
X347589Y201967D01*
X347721Y202010D01*
X347855Y202048D01*
X347872Y202059D01*
X347891Y202065D01*
X348009Y202139D01*
X348129Y202210D01*
X348150Y202228D01*
X348160Y202235D01*
X348174Y202250D01*
X348249Y202316D01*
X352046Y206112D01*
X352106Y206191D01*
X352174Y206263D01*
X352203Y206316D01*
X352240Y206364D01*
X352280Y206455D01*
X352328Y206541D01*
X352343Y206600D01*
X352367Y206655D01*
X352382Y206753D01*
X352407Y206849D01*
X352413Y206949D01*
X352417Y206970D01*
X352415Y206982D01*
X352417Y207010D01*
X352417Y213692D01*
X353608Y214883D01*
X356108Y214883D01*
X356226Y214898D01*
X356345Y214905D01*
X356383Y214918D01*
X356424Y214923D01*
X356534Y214966D01*
X356647Y215003D01*
X356682Y215025D01*
X356719Y215040D01*
X356815Y215109D01*
X356916Y215173D01*
X356944Y215203D01*
X356977Y215226D01*
X357053Y215318D01*
X357134Y215405D01*
X357154Y215440D01*
X357179Y215471D01*
X357230Y215579D01*
X357288Y215683D01*
X357298Y215723D01*
X357315Y215759D01*
X357337Y215876D01*
X357367Y215991D01*
X357371Y216051D01*
X357375Y216071D01*
X357373Y216092D01*
X357377Y216152D01*
X357377Y228348D01*
X357362Y228466D01*
X357355Y228585D01*
X357342Y228623D01*
X357337Y228664D01*
X357294Y228774D01*
X357257Y228887D01*
X357235Y228922D01*
X357220Y228959D01*
X357151Y229055D01*
X357087Y229156D01*
X357057Y229184D01*
X357034Y229217D01*
X356942Y229293D01*
X356855Y229374D01*
X356820Y229394D01*
X356789Y229419D01*
X356681Y229470D01*
X356577Y229528D01*
X356537Y229538D01*
X356501Y229555D01*
X356384Y229577D01*
X356269Y229607D01*
X356209Y229611D01*
X356189Y229615D01*
X356168Y229613D01*
X356108Y229617D01*
X353608Y229617D01*
X352417Y230808D01*
X352417Y245492D01*
X353402Y246476D01*
X353479Y246576D01*
X353561Y246671D01*
X353576Y246701D01*
X353597Y246728D01*
X353647Y246843D01*
X353703Y246956D01*
X353710Y246989D01*
X353723Y247020D01*
X353743Y247144D01*
X353769Y247267D01*
X353768Y247300D01*
X353773Y247334D01*
X353761Y247459D01*
X353756Y247584D01*
X353746Y247617D01*
X353743Y247650D01*
X353701Y247769D01*
X353664Y247889D01*
X353647Y247918D01*
X353636Y247950D01*
X353565Y248054D01*
X353500Y248161D01*
X353476Y248185D01*
X353457Y248213D01*
X353363Y248296D01*
X353273Y248384D01*
X353232Y248411D01*
X353219Y248423D01*
X353199Y248433D01*
X353139Y248473D01*
X352890Y248617D01*
X352417Y249090D01*
X352082Y249669D01*
X351909Y250316D01*
X351909Y254611D01*
X360680Y254611D01*
X360798Y254626D01*
X360917Y254633D01*
X360955Y254646D01*
X360995Y254651D01*
X361106Y254694D01*
X361219Y254731D01*
X361254Y254753D01*
X361291Y254768D01*
X361387Y254838D01*
X361488Y254901D01*
X361516Y254931D01*
X361548Y254955D01*
X361624Y255046D01*
X361706Y255133D01*
X361725Y255168D01*
X361751Y255199D01*
X361802Y255307D01*
X361859Y255411D01*
X361870Y255451D01*
X361887Y255487D01*
X361909Y255604D01*
X361939Y255719D01*
X361943Y255780D01*
X361947Y255800D01*
X361945Y255820D01*
X361949Y255880D01*
X361949Y257151D01*
X361951Y257151D01*
X361951Y255880D01*
X361966Y255762D01*
X361973Y255643D01*
X361986Y255605D01*
X361991Y255565D01*
X362035Y255454D01*
X362071Y255341D01*
X362093Y255306D01*
X362108Y255269D01*
X362178Y255173D01*
X362241Y255072D01*
X362271Y255044D01*
X362295Y255011D01*
X362386Y254936D01*
X362473Y254854D01*
X362508Y254834D01*
X362540Y254809D01*
X362647Y254758D01*
X362751Y254700D01*
X362791Y254690D01*
X362827Y254673D01*
X362944Y254651D01*
X363059Y254621D01*
X363120Y254617D01*
X363140Y254613D01*
X363160Y254615D01*
X363220Y254611D01*
X371991Y254611D01*
X371991Y250316D01*
X371818Y249669D01*
X371483Y249090D01*
X371010Y248617D01*
X370761Y248473D01*
X370661Y248397D01*
X370557Y248327D01*
X370535Y248301D01*
X370508Y248281D01*
X370429Y248182D01*
X370346Y248088D01*
X370331Y248058D01*
X370310Y248032D01*
X370259Y247917D01*
X370202Y247805D01*
X370194Y247772D01*
X370181Y247741D01*
X370160Y247617D01*
X370132Y247495D01*
X370133Y247461D01*
X370128Y247428D01*
X370138Y247302D01*
X370142Y247177D01*
X370151Y247144D01*
X370154Y247111D01*
X370195Y246992D01*
X370230Y246871D01*
X370247Y246842D01*
X370258Y246810D01*
X370328Y246706D01*
X370392Y246597D01*
X370424Y246561D01*
X370434Y246545D01*
X370450Y246531D01*
X370498Y246476D01*
X371483Y245492D01*
X371483Y230808D01*
X370292Y229617D01*
X367792Y229617D01*
X367674Y229602D01*
X367555Y229595D01*
X367517Y229582D01*
X367476Y229577D01*
X367366Y229534D01*
X367253Y229497D01*
X367218Y229475D01*
X367181Y229460D01*
X367085Y229391D01*
X366984Y229327D01*
X366956Y229297D01*
X366923Y229274D01*
X366847Y229182D01*
X366766Y229095D01*
X366746Y229060D01*
X366721Y229029D01*
X366670Y228921D01*
X366612Y228817D01*
X366602Y228777D01*
X366585Y228741D01*
X366563Y228624D01*
X366533Y228509D01*
X366529Y228449D01*
X366525Y228429D01*
X366527Y228408D01*
X366523Y228348D01*
X366523Y216152D01*
X366538Y216034D01*
X366545Y215915D01*
X366558Y215877D01*
X366563Y215836D01*
X366606Y215726D01*
X366643Y215613D01*
X366665Y215578D01*
X366680Y215541D01*
X366749Y215445D01*
X366813Y215344D01*
X366843Y215316D01*
X366866Y215283D01*
X366958Y215207D01*
X367045Y215126D01*
X367080Y215106D01*
X367111Y215081D01*
X367219Y215030D01*
X367323Y214972D01*
X367363Y214962D01*
X367399Y214945D01*
X367516Y214923D01*
X367631Y214893D01*
X367691Y214889D01*
X367711Y214885D01*
X367732Y214887D01*
X367792Y214883D01*
X370292Y214883D01*
X371483Y213692D01*
X371483Y199008D01*
X370222Y197747D01*
X370149Y197653D01*
X370070Y197564D01*
X370052Y197528D01*
X370027Y197496D01*
X369980Y197387D01*
X369926Y197281D01*
X369917Y197242D01*
X369901Y197204D01*
X369882Y197087D01*
X369856Y196971D01*
X369857Y196930D01*
X369851Y196890D01*
X369862Y196772D01*
X369866Y196653D01*
X369877Y196614D01*
X369881Y196574D01*
X369921Y196462D01*
X369954Y196347D01*
X369975Y196312D01*
X369988Y196274D01*
X370055Y196176D01*
X370116Y196073D01*
X370156Y196028D01*
X370167Y196011D01*
X370182Y195998D01*
X370222Y195952D01*
X371483Y194692D01*
X371483Y180008D01*
X370292Y178817D01*
X367792Y178817D01*
X367674Y178802D01*
X367555Y178795D01*
X367517Y178782D01*
X367476Y178777D01*
X367366Y178734D01*
X367253Y178697D01*
X367218Y178675D01*
X367181Y178660D01*
X367085Y178591D01*
X366984Y178527D01*
X366956Y178497D01*
X366923Y178474D01*
X366847Y178382D01*
X366766Y178295D01*
X366746Y178260D01*
X366721Y178229D01*
X366670Y178121D01*
X366612Y178017D01*
X366602Y177977D01*
X366585Y177941D01*
X366563Y177824D01*
X366533Y177709D01*
X366529Y177649D01*
X366525Y177629D01*
X366527Y177608D01*
X366523Y177548D01*
X366523Y175906D01*
X363472Y172856D01*
X324996Y134379D01*
X324978Y134356D01*
X324955Y134336D01*
X324881Y134230D01*
X324801Y134128D01*
X324789Y134100D01*
X324772Y134076D01*
X324726Y133955D01*
X324674Y133836D01*
X324670Y133807D01*
X324659Y133779D01*
X324645Y133650D01*
X324625Y133522D01*
X324627Y133492D01*
X324624Y133463D01*
X324642Y133334D01*
X324654Y133205D01*
X324664Y133177D01*
X324668Y133148D01*
X324721Y132996D01*
X326094Y129681D01*
X326094Y123819D01*
X323851Y118405D01*
X319706Y114260D01*
X314292Y112017D01*
X308430Y112017D01*
X303016Y114260D01*
X298871Y118405D01*
X296628Y123819D01*
X296628Y129681D01*
X298871Y135095D01*
X303016Y139240D01*
X308430Y141483D01*
X314292Y141483D01*
X316955Y140380D01*
X316983Y140372D01*
X317009Y140358D01*
X317136Y140330D01*
X317261Y140296D01*
X317291Y140295D01*
X317320Y140289D01*
X317450Y140293D01*
X317579Y140291D01*
X317608Y140297D01*
X317638Y140298D01*
X317762Y140334D01*
X317889Y140365D01*
X317915Y140379D01*
X317943Y140387D01*
X318055Y140453D01*
X318170Y140513D01*
X318192Y140533D01*
X318217Y140548D01*
X318338Y140655D01*
X354334Y176651D01*
X354419Y176760D01*
X354508Y176867D01*
X354516Y176886D01*
X354529Y176902D01*
X354584Y177030D01*
X354643Y177155D01*
X354647Y177175D01*
X354655Y177194D01*
X354677Y177332D01*
X354703Y177468D01*
X354702Y177488D01*
X354705Y177508D01*
X354692Y177647D01*
X354683Y177785D01*
X354677Y177804D01*
X354675Y177824D01*
X354628Y177956D01*
X354585Y178087D01*
X354574Y178105D01*
X354567Y178124D01*
X354489Y178239D01*
X354415Y178356D01*
X354400Y178370D01*
X354389Y178387D01*
X354285Y178479D01*
X354183Y178574D01*
X354166Y178584D01*
X354150Y178597D01*
X354027Y178660D01*
X353905Y178728D01*
X353885Y178733D01*
X353867Y178742D01*
X353731Y178772D01*
X353626Y178800D01*
X352417Y180008D01*
X352417Y190486D01*
X352400Y190624D01*
X352387Y190763D01*
X352380Y190782D01*
X352377Y190802D01*
X352326Y190931D01*
X352279Y191062D01*
X352268Y191079D01*
X352260Y191097D01*
X352179Y191210D01*
X352101Y191325D01*
X352085Y191338D01*
X352074Y191355D01*
X351966Y191444D01*
X351862Y191535D01*
X351844Y191545D01*
X351829Y191558D01*
X351703Y191617D01*
X351579Y191680D01*
X351559Y191685D01*
X351541Y191693D01*
X351405Y191719D01*
X351269Y191750D01*
X351248Y191749D01*
X351229Y191753D01*
X351090Y191744D01*
X350951Y191740D01*
X350931Y191734D01*
X350911Y191733D01*
X350779Y191690D01*
X350645Y191652D01*
X350628Y191641D01*
X350609Y191635D01*
X350491Y191561D01*
X350371Y191490D01*
X350350Y191472D01*
X350340Y191465D01*
X350326Y191450D01*
X350251Y191384D01*
X347844Y188978D01*
X346454Y187588D01*
X346394Y187509D01*
X346326Y187437D01*
X346297Y187384D01*
X346260Y187336D01*
X346220Y187246D01*
X346172Y187159D01*
X346157Y187100D01*
X346133Y187045D01*
X346118Y186947D01*
X346093Y186851D01*
X346087Y186751D01*
X346083Y186730D01*
X346085Y186718D01*
X346083Y186690D01*
X346083Y180008D01*
X344892Y178817D01*
X328208Y178817D01*
X327017Y180008D01*
X327017Y194692D01*
X328278Y195952D01*
X328351Y196047D01*
X328430Y196136D01*
X328448Y196172D01*
X328473Y196204D01*
X328520Y196313D01*
X328574Y196419D01*
X328583Y196458D01*
X328599Y196496D01*
X328618Y196613D01*
X328644Y196729D01*
X328643Y196770D01*
X328649Y196810D01*
X328638Y196928D01*
X328634Y197047D01*
X328623Y197086D01*
X328619Y197126D01*
X328579Y197239D01*
X328546Y197353D01*
X328525Y197387D01*
X328512Y197426D01*
X328445Y197524D01*
X328384Y197627D01*
X328344Y197672D01*
X328333Y197689D01*
X328318Y197702D01*
X328278Y197747D01*
X327017Y199008D01*
X327017Y208890D01*
X327005Y208988D01*
X327002Y209087D01*
X326985Y209146D01*
X326977Y209206D01*
X326941Y209298D01*
X326913Y209393D01*
X326883Y209445D01*
X326860Y209501D01*
X326802Y209581D01*
X326752Y209667D01*
X326686Y209742D01*
X326674Y209759D01*
X326664Y209767D01*
X326646Y209788D01*
X312778Y223656D01*
X312699Y223716D01*
X312627Y223784D01*
X312574Y223813D01*
X312526Y223850D01*
X312435Y223890D01*
X312349Y223938D01*
X312290Y223953D01*
X312235Y223977D01*
X312137Y223992D01*
X312041Y224017D01*
X311941Y224023D01*
X311920Y224027D01*
X311908Y224025D01*
X311880Y224027D01*
X305528Y224027D01*
X305429Y224015D01*
X305330Y224012D01*
X305272Y223995D01*
X305212Y223987D01*
X305120Y223951D01*
X305025Y223923D01*
X304973Y223893D01*
X304916Y223870D01*
X304836Y223812D01*
X304751Y223762D01*
X304676Y223696D01*
X304659Y223684D01*
X304651Y223674D01*
X304630Y223655D01*
X304542Y223567D01*
X280858Y223567D01*
X280770Y223655D01*
X280692Y223716D01*
X280619Y223784D01*
X280566Y223813D01*
X280519Y223850D01*
X280428Y223890D01*
X280341Y223938D01*
X280282Y223953D01*
X280227Y223977D01*
X280129Y223992D01*
X280033Y224017D01*
X279933Y224023D01*
X279913Y224027D01*
X279900Y224025D01*
X279872Y224027D01*
X275005Y224027D01*
X274935Y224019D01*
X274866Y224020D01*
X274778Y223999D01*
X274689Y223987D01*
X274624Y223962D01*
X274556Y223945D01*
X274477Y223903D01*
X274393Y223870D01*
X274337Y223829D01*
X274275Y223797D01*
X274209Y223736D01*
X274136Y223684D01*
X274091Y223630D01*
X274040Y223583D01*
X273991Y223508D01*
X273933Y223439D01*
X273903Y223375D01*
X273865Y223317D01*
X273836Y223232D01*
X273798Y223151D01*
X273785Y223082D01*
X273762Y223016D01*
X273755Y222927D01*
X273738Y222839D01*
X273742Y222769D01*
X273737Y222699D01*
X273752Y222611D01*
X273758Y222521D01*
X273779Y222455D01*
X273791Y222386D01*
X273828Y222304D01*
X273856Y222219D01*
X273893Y222160D01*
X273922Y222096D01*
X273978Y222026D01*
X274026Y221950D01*
X274077Y221902D01*
X274120Y221848D01*
X274192Y221793D01*
X274257Y221732D01*
X274319Y221698D01*
X274374Y221656D01*
X274519Y221585D01*
X276353Y220826D01*
X276407Y220784D01*
X276479Y220716D01*
X276532Y220687D01*
X276580Y220650D01*
X276671Y220610D01*
X276758Y220562D01*
X276816Y220547D01*
X276872Y220523D01*
X276970Y220508D01*
X277066Y220483D01*
X277166Y220477D01*
X277186Y220473D01*
X277198Y220475D01*
X277226Y220473D01*
X279872Y220473D01*
X279970Y220485D01*
X280069Y220488D01*
X280128Y220505D01*
X280188Y220513D01*
X280280Y220549D01*
X280375Y220577D01*
X280427Y220607D01*
X280483Y220630D01*
X280564Y220688D01*
X280649Y220738D01*
X280724Y220804D01*
X280741Y220816D01*
X280749Y220826D01*
X280770Y220844D01*
X280858Y220933D01*
X304542Y220933D01*
X305733Y219742D01*
X305733Y212058D01*
X304542Y210867D01*
X280858Y210867D01*
X280770Y210956D01*
X280691Y211016D01*
X280619Y211084D01*
X280566Y211113D01*
X280518Y211150D01*
X280428Y211190D01*
X280341Y211238D01*
X280282Y211253D01*
X280227Y211277D01*
X280129Y211292D01*
X280033Y211317D01*
X279933Y211323D01*
X279913Y211327D01*
X279900Y211325D01*
X279872Y211327D01*
X277226Y211327D01*
X277128Y211315D01*
X277029Y211312D01*
X276971Y211295D01*
X276911Y211287D01*
X276819Y211251D01*
X276724Y211223D01*
X276671Y211193D01*
X276615Y211170D01*
X276535Y211112D01*
X276450Y211062D01*
X276374Y210996D01*
X276358Y210984D01*
X276350Y210974D01*
X276348Y210972D01*
X274848Y210351D01*
X274805Y210326D01*
X274758Y210309D01*
X274667Y210248D01*
X274572Y210193D01*
X274536Y210159D01*
X274495Y210131D01*
X274422Y210048D01*
X274343Y209972D01*
X274317Y209930D01*
X274284Y209892D01*
X274234Y209794D01*
X274177Y209701D01*
X274162Y209653D01*
X274140Y209609D01*
X274116Y209502D01*
X274083Y209397D01*
X274081Y209347D01*
X274070Y209299D01*
X274073Y209189D01*
X274068Y209079D01*
X274078Y209031D01*
X274080Y208981D01*
X274110Y208875D01*
X274132Y208768D01*
X274154Y208723D01*
X274168Y208675D01*
X274224Y208581D01*
X274272Y208482D01*
X274304Y208444D01*
X274330Y208401D01*
X274436Y208281D01*
X274572Y208144D01*
X274651Y208084D01*
X274723Y208016D01*
X274776Y207987D01*
X274824Y207949D01*
X274915Y207910D01*
X275001Y207862D01*
X275060Y207847D01*
X275116Y207823D01*
X275213Y207808D01*
X275309Y207783D01*
X275409Y207777D01*
X275430Y207773D01*
X275442Y207775D01*
X275470Y207773D01*
X279872Y207773D01*
X279970Y207785D01*
X280069Y207788D01*
X280128Y207805D01*
X280188Y207813D01*
X280280Y207849D01*
X280375Y207877D01*
X280427Y207907D01*
X280483Y207930D01*
X280564Y207988D01*
X280649Y208038D01*
X280724Y208104D01*
X280741Y208116D01*
X280749Y208126D01*
X280770Y208144D01*
X280858Y208233D01*
X304542Y208233D01*
X305733Y207042D01*
X305733Y199358D01*
X304542Y198167D01*
X280858Y198167D01*
X280770Y198256D01*
X280691Y198316D01*
X280619Y198384D01*
X280566Y198413D01*
X280518Y198450D01*
X280428Y198490D01*
X280341Y198538D01*
X280282Y198553D01*
X280227Y198577D01*
X280129Y198592D01*
X280033Y198617D01*
X279933Y198623D01*
X279913Y198627D01*
X279900Y198625D01*
X279872Y198627D01*
X271156Y198627D01*
X268106Y201678D01*
X267969Y201814D01*
X267930Y201844D01*
X267897Y201881D01*
X267805Y201941D01*
X267718Y202009D01*
X267672Y202029D01*
X267631Y202056D01*
X267527Y202092D01*
X267426Y202135D01*
X267377Y202143D01*
X267330Y202159D01*
X267220Y202168D01*
X267112Y202185D01*
X267063Y202180D01*
X267013Y202184D01*
X266905Y202166D01*
X266796Y202155D01*
X266749Y202138D01*
X266700Y202130D01*
X266600Y202085D01*
X266496Y202048D01*
X266455Y202020D01*
X266410Y201999D01*
X266324Y201931D01*
X266233Y201869D01*
X266200Y201832D01*
X266161Y201801D01*
X266095Y201713D01*
X266023Y201631D01*
X266000Y201586D01*
X265970Y201547D01*
X265899Y201402D01*
X265280Y199906D01*
X263474Y198101D01*
X263431Y198045D01*
X263381Y197997D01*
X263334Y197920D01*
X263279Y197849D01*
X263251Y197785D01*
X263215Y197726D01*
X263188Y197640D01*
X263153Y197557D01*
X263142Y197488D01*
X263121Y197422D01*
X263117Y197332D01*
X263103Y197243D01*
X263109Y197174D01*
X263106Y197104D01*
X263124Y197016D01*
X263133Y196927D01*
X263156Y196861D01*
X263170Y196793D01*
X263210Y196712D01*
X263240Y196627D01*
X263279Y196570D01*
X263310Y196507D01*
X263368Y196439D01*
X263419Y196364D01*
X263471Y196318D01*
X263516Y196265D01*
X263590Y196213D01*
X263657Y196154D01*
X263719Y196122D01*
X263776Y196082D01*
X263860Y196050D01*
X263940Y196009D01*
X264008Y195994D01*
X264074Y195969D01*
X264163Y195959D01*
X264251Y195940D01*
X264320Y195942D01*
X264390Y195934D01*
X264479Y195947D01*
X264569Y195949D01*
X264636Y195969D01*
X264705Y195978D01*
X264857Y196030D01*
X265543Y196315D01*
X267857Y196315D01*
X270003Y195426D01*
X270057Y195384D01*
X270129Y195316D01*
X270182Y195287D01*
X270230Y195250D01*
X270321Y195210D01*
X270408Y195162D01*
X270466Y195147D01*
X270522Y195123D01*
X270620Y195108D01*
X270716Y195083D01*
X270816Y195077D01*
X270836Y195073D01*
X270848Y195075D01*
X270876Y195073D01*
X279872Y195073D01*
X279970Y195085D01*
X280069Y195088D01*
X280128Y195105D01*
X280188Y195113D01*
X280280Y195149D01*
X280375Y195177D01*
X280427Y195207D01*
X280483Y195230D01*
X280564Y195288D01*
X280649Y195338D01*
X280724Y195404D01*
X280741Y195416D01*
X280749Y195426D01*
X280770Y195444D01*
X280858Y195533D01*
X304542Y195533D01*
X304630Y195444D01*
X304709Y195384D01*
X304781Y195316D01*
X304834Y195287D01*
X304882Y195250D01*
X304972Y195210D01*
X305059Y195162D01*
X305118Y195147D01*
X305173Y195123D01*
X305271Y195108D01*
X305367Y195083D01*
X305467Y195077D01*
X305487Y195073D01*
X305500Y195075D01*
X305528Y195073D01*
X314788Y195073D01*
X318652Y191208D01*
X318731Y191148D01*
X318803Y191080D01*
X318856Y191051D01*
X318904Y191014D01*
X318995Y190974D01*
X319081Y190926D01*
X319140Y190911D01*
X319195Y190887D01*
X319293Y190872D01*
X319389Y190847D01*
X319489Y190841D01*
X319510Y190837D01*
X319522Y190839D01*
X319525Y190838D01*
X321666Y189952D01*
X323302Y188316D01*
X324187Y186179D01*
X324187Y183865D01*
X323302Y181728D01*
X321666Y180092D01*
X319529Y179207D01*
X317215Y179207D01*
X315078Y180092D01*
X313442Y181728D01*
X312553Y183875D01*
X312545Y183942D01*
X312542Y184041D01*
X312525Y184100D01*
X312517Y184160D01*
X312481Y184252D01*
X312453Y184347D01*
X312423Y184399D01*
X312400Y184455D01*
X312342Y184535D01*
X312292Y184621D01*
X312226Y184696D01*
X312214Y184713D01*
X312204Y184721D01*
X312186Y184742D01*
X311372Y185556D01*
X311293Y185616D01*
X311221Y185684D01*
X311168Y185713D01*
X311120Y185750D01*
X311029Y185790D01*
X310943Y185838D01*
X310884Y185853D01*
X310829Y185877D01*
X310731Y185892D01*
X310635Y185917D01*
X310535Y185923D01*
X310514Y185927D01*
X310502Y185925D01*
X310474Y185927D01*
X305528Y185927D01*
X305430Y185915D01*
X305331Y185912D01*
X305272Y185895D01*
X305212Y185887D01*
X305120Y185851D01*
X305025Y185823D01*
X304973Y185793D01*
X304917Y185770D01*
X304836Y185712D01*
X304751Y185662D01*
X304676Y185596D01*
X304659Y185584D01*
X304651Y185574D01*
X304630Y185556D01*
X304542Y185467D01*
X280858Y185467D01*
X280770Y185556D01*
X280691Y185616D01*
X280619Y185684D01*
X280566Y185713D01*
X280518Y185750D01*
X280428Y185790D01*
X280341Y185838D01*
X280282Y185853D01*
X280227Y185877D01*
X280129Y185892D01*
X280033Y185917D01*
X279933Y185923D01*
X279913Y185927D01*
X279900Y185925D01*
X279872Y185927D01*
X270876Y185927D01*
X270778Y185915D01*
X270679Y185912D01*
X270621Y185895D01*
X270561Y185887D01*
X270469Y185851D01*
X270374Y185823D01*
X270321Y185793D01*
X270265Y185770D01*
X270185Y185712D01*
X270100Y185662D01*
X270024Y185596D01*
X270008Y185584D01*
X270000Y185574D01*
X269998Y185572D01*
X267857Y184685D01*
X265543Y184685D01*
X263397Y185574D01*
X263343Y185616D01*
X263271Y185684D01*
X263218Y185713D01*
X263170Y185750D01*
X263079Y185790D01*
X262992Y185838D01*
X262934Y185853D01*
X262878Y185877D01*
X262780Y185892D01*
X262684Y185917D01*
X262584Y185923D01*
X262564Y185927D01*
X262552Y185925D01*
X262524Y185927D01*
X253528Y185927D01*
X253430Y185915D01*
X253331Y185912D01*
X253272Y185895D01*
X253212Y185887D01*
X253120Y185851D01*
X253025Y185823D01*
X252973Y185793D01*
X252917Y185770D01*
X252836Y185712D01*
X252751Y185662D01*
X252676Y185596D01*
X252659Y185584D01*
X252651Y185574D01*
X252630Y185556D01*
X252542Y185467D01*
X228858Y185467D01*
X227667Y186658D01*
X227667Y194342D01*
X228858Y195533D01*
X252542Y195533D01*
X252630Y195444D01*
X252709Y195384D01*
X252781Y195316D01*
X252834Y195287D01*
X252882Y195250D01*
X252972Y195210D01*
X253059Y195162D01*
X253118Y195147D01*
X253173Y195123D01*
X253271Y195108D01*
X253367Y195083D01*
X253467Y195077D01*
X253487Y195073D01*
X253500Y195075D01*
X253528Y195073D01*
X258395Y195073D01*
X258465Y195081D01*
X258534Y195080D01*
X258622Y195101D01*
X258711Y195113D01*
X258776Y195138D01*
X258844Y195155D01*
X258923Y195197D01*
X259007Y195230D01*
X259063Y195271D01*
X259125Y195303D01*
X259191Y195364D01*
X259264Y195416D01*
X259309Y195470D01*
X259360Y195517D01*
X259409Y195592D01*
X259467Y195661D01*
X259497Y195725D01*
X259535Y195783D01*
X259564Y195868D01*
X259602Y195949D01*
X259615Y196018D01*
X259638Y196084D01*
X259645Y196173D01*
X259662Y196261D01*
X259658Y196331D01*
X259663Y196401D01*
X259648Y196489D01*
X259642Y196579D01*
X259621Y196645D01*
X259609Y196714D01*
X259572Y196796D01*
X259544Y196881D01*
X259507Y196940D01*
X259478Y197004D01*
X259422Y197074D01*
X259374Y197150D01*
X259323Y197198D01*
X259280Y197252D01*
X259208Y197307D01*
X259143Y197368D01*
X259081Y197402D01*
X259026Y197444D01*
X258881Y197515D01*
X257047Y198274D01*
X256993Y198316D01*
X256921Y198384D01*
X256868Y198413D01*
X256820Y198450D01*
X256729Y198490D01*
X256642Y198538D01*
X256584Y198553D01*
X256528Y198577D01*
X256430Y198592D01*
X256334Y198617D01*
X256234Y198623D01*
X256214Y198627D01*
X256202Y198625D01*
X256174Y198627D01*
X253528Y198627D01*
X253430Y198615D01*
X253331Y198612D01*
X253272Y198595D01*
X253212Y198587D01*
X253120Y198551D01*
X253025Y198523D01*
X252973Y198493D01*
X252917Y198470D01*
X252836Y198412D01*
X252751Y198362D01*
X252676Y198296D01*
X252659Y198284D01*
X252651Y198274D01*
X252630Y198256D01*
X252542Y198167D01*
X228858Y198167D01*
X228770Y198256D01*
X228691Y198316D01*
X228619Y198384D01*
X228566Y198413D01*
X228518Y198450D01*
X228428Y198490D01*
X228341Y198538D01*
X228282Y198553D01*
X228227Y198577D01*
X228129Y198592D01*
X228033Y198617D01*
X227933Y198623D01*
X227913Y198627D01*
X227900Y198625D01*
X227872Y198627D01*
X220352Y198627D01*
X220234Y198612D01*
X220115Y198605D01*
X220077Y198592D01*
X220036Y198587D01*
X219926Y198544D01*
X219813Y198507D01*
X219778Y198485D01*
X219741Y198470D01*
X219645Y198401D01*
X219544Y198337D01*
X219516Y198307D01*
X219483Y198284D01*
X219407Y198192D01*
X219326Y198105D01*
X219306Y198070D01*
X219281Y198039D01*
X219230Y197931D01*
X219172Y197827D01*
X219162Y197787D01*
X219145Y197751D01*
X219123Y197634D01*
X219093Y197519D01*
X219089Y197459D01*
X219085Y197439D01*
X219087Y197418D01*
X219083Y197358D01*
X219083Y186358D01*
X217892Y185167D01*
X215392Y185167D01*
X215274Y185152D01*
X215155Y185145D01*
X215117Y185132D01*
X215076Y185127D01*
X214966Y185084D01*
X214853Y185047D01*
X214818Y185025D01*
X214781Y185010D01*
X214685Y184941D01*
X214584Y184877D01*
X214556Y184847D01*
X214523Y184824D01*
X214447Y184732D01*
X214366Y184645D01*
X214346Y184610D01*
X214321Y184579D01*
X214270Y184471D01*
X214212Y184367D01*
X214202Y184327D01*
X214185Y184291D01*
X214163Y184174D01*
X214133Y184059D01*
X214129Y183999D01*
X214125Y183979D01*
X214127Y183958D01*
X214123Y183898D01*
X214123Y169556D01*
X195444Y150878D01*
X194689Y150123D01*
X194616Y150029D01*
X194538Y149939D01*
X194519Y149903D01*
X194494Y149871D01*
X194447Y149762D01*
X194393Y149656D01*
X194384Y149617D01*
X194368Y149579D01*
X194349Y149462D01*
X194323Y149346D01*
X194325Y149305D01*
X194318Y149265D01*
X194329Y149147D01*
X194333Y149028D01*
X194344Y148989D01*
X194348Y148949D01*
X194388Y148837D01*
X194421Y148722D01*
X194442Y148687D01*
X194456Y148649D01*
X194522Y148551D01*
X194583Y148448D01*
X194623Y148403D01*
X194634Y148386D01*
X194649Y148373D01*
X194689Y148328D01*
X211961Y131055D01*
X212040Y130995D01*
X212112Y130927D01*
X212165Y130898D01*
X212213Y130861D01*
X212304Y130821D01*
X212390Y130773D01*
X212449Y130758D01*
X212504Y130734D01*
X212602Y130719D01*
X212698Y130694D01*
X212798Y130688D01*
X212819Y130684D01*
X212831Y130686D01*
X212859Y130684D01*
X220056Y130684D01*
X225934Y124806D01*
X225934Y116494D01*
X220056Y110616D01*
X211744Y110616D01*
G37*
%LPD*%
%LPC*%
G36*
X188606Y97027D02*
X188606Y97027D01*
X135127Y150506D01*
X135127Y224424D01*
X135115Y224522D01*
X135112Y224621D01*
X135095Y224679D01*
X135087Y224739D01*
X135051Y224831D01*
X135023Y224926D01*
X134993Y224979D01*
X134970Y225035D01*
X134912Y225115D01*
X134862Y225200D01*
X134796Y225276D01*
X134784Y225292D01*
X134774Y225300D01*
X134772Y225302D01*
X133885Y227443D01*
X133885Y229757D01*
X134770Y231894D01*
X136406Y233530D01*
X138543Y234415D01*
X140857Y234415D01*
X142994Y233530D01*
X144630Y231894D01*
X145515Y229757D01*
X145515Y227443D01*
X144626Y225297D01*
X144584Y225243D01*
X144516Y225171D01*
X144487Y225118D01*
X144450Y225070D01*
X144410Y224979D01*
X144362Y224892D01*
X144347Y224834D01*
X144323Y224778D01*
X144308Y224680D01*
X144283Y224584D01*
X144277Y224484D01*
X144273Y224464D01*
X144275Y224452D01*
X144273Y224424D01*
X144273Y154820D01*
X144285Y154722D01*
X144288Y154623D01*
X144305Y154564D01*
X144313Y154504D01*
X144349Y154412D01*
X144377Y154317D01*
X144407Y154265D01*
X144430Y154209D01*
X144488Y154129D01*
X144538Y154043D01*
X144604Y153968D01*
X144616Y153951D01*
X144626Y153943D01*
X144644Y153922D01*
X192022Y106544D01*
X192101Y106484D01*
X192173Y106416D01*
X192226Y106387D01*
X192274Y106350D01*
X192365Y106310D01*
X192451Y106262D01*
X192510Y106247D01*
X192565Y106223D01*
X192663Y106208D01*
X192759Y106183D01*
X192859Y106177D01*
X192880Y106173D01*
X192892Y106175D01*
X192920Y106173D01*
X416680Y106173D01*
X416778Y106185D01*
X416877Y106188D01*
X416936Y106205D01*
X416996Y106213D01*
X417088Y106249D01*
X417183Y106277D01*
X417235Y106307D01*
X417291Y106330D01*
X417371Y106388D01*
X417457Y106438D01*
X417532Y106504D01*
X417549Y106516D01*
X417557Y106526D01*
X417578Y106544D01*
X423386Y112353D01*
X423433Y112414D01*
X423487Y112467D01*
X423530Y112538D01*
X423581Y112604D01*
X423612Y112674D01*
X423651Y112740D01*
X423674Y112820D01*
X423707Y112896D01*
X423719Y112972D01*
X423741Y113045D01*
X423744Y113128D01*
X423757Y113210D01*
X423750Y113286D01*
X423753Y113363D01*
X423735Y113444D01*
X423728Y113527D01*
X423702Y113599D01*
X423685Y113674D01*
X423648Y113748D01*
X423620Y113826D01*
X423577Y113889D01*
X423543Y113958D01*
X423488Y114021D01*
X423441Y114089D01*
X423384Y114140D01*
X423334Y114198D01*
X423265Y114245D01*
X423203Y114300D01*
X423135Y114335D01*
X423072Y114378D01*
X422994Y114407D01*
X422920Y114444D01*
X422845Y114461D01*
X422773Y114487D01*
X422691Y114496D01*
X422609Y114514D01*
X422533Y114512D01*
X422457Y114519D01*
X422375Y114507D01*
X422291Y114504D01*
X422218Y114483D01*
X422142Y114472D01*
X422066Y114439D01*
X421986Y114416D01*
X421920Y114377D01*
X421850Y114347D01*
X421716Y114257D01*
X421712Y114254D01*
X421446Y114051D01*
X419716Y113052D01*
X417871Y112287D01*
X415941Y111770D01*
X415500Y111712D01*
X415500Y124211D01*
X427999Y124211D01*
X427941Y123770D01*
X427424Y121840D01*
X426659Y119995D01*
X425660Y118265D01*
X425454Y117995D01*
X425415Y117929D01*
X425368Y117869D01*
X425335Y117792D01*
X425293Y117720D01*
X425272Y117647D01*
X425242Y117577D01*
X425229Y117494D01*
X425206Y117415D01*
X425204Y117338D01*
X425192Y117263D01*
X425200Y117180D01*
X425197Y117097D01*
X425215Y117022D01*
X425222Y116946D01*
X425250Y116868D01*
X425268Y116787D01*
X425303Y116719D01*
X425329Y116647D01*
X425376Y116578D01*
X425414Y116504D01*
X425465Y116447D01*
X425508Y116384D01*
X425570Y116328D01*
X425626Y116266D01*
X425689Y116224D01*
X425746Y116173D01*
X425820Y116135D01*
X425889Y116089D01*
X425961Y116063D01*
X426030Y116028D01*
X426111Y116010D01*
X426189Y115982D01*
X426265Y115976D01*
X426340Y115959D01*
X426423Y115961D01*
X426506Y115954D01*
X426581Y115966D01*
X426658Y115968D01*
X426738Y115992D01*
X426820Y116005D01*
X426890Y116036D01*
X426963Y116057D01*
X427035Y116099D01*
X427111Y116132D01*
X427171Y116180D01*
X427237Y116218D01*
X427358Y116325D01*
X439556Y128522D01*
X439616Y128601D01*
X439684Y128673D01*
X439713Y128726D01*
X439750Y128774D01*
X439790Y128865D01*
X439838Y128951D01*
X439853Y129010D01*
X439877Y129065D01*
X439892Y129163D01*
X439917Y129259D01*
X439923Y129359D01*
X439927Y129380D01*
X439925Y129392D01*
X439927Y129420D01*
X439927Y173254D01*
X439924Y173283D01*
X439926Y173313D01*
X439904Y173441D01*
X439887Y173570D01*
X439877Y173597D01*
X439872Y173626D01*
X439818Y173745D01*
X439770Y173865D01*
X439753Y173889D01*
X439741Y173916D01*
X439660Y174018D01*
X439584Y174123D01*
X439561Y174142D01*
X439542Y174165D01*
X439439Y174243D01*
X439339Y174326D01*
X439312Y174338D01*
X439288Y174356D01*
X439144Y174427D01*
X438250Y174797D01*
X435147Y177900D01*
X433467Y181955D01*
X433467Y186345D01*
X435147Y190400D01*
X438250Y193503D01*
X442305Y195183D01*
X446695Y195183D01*
X450750Y193503D01*
X453212Y191041D01*
X453321Y190956D01*
X453428Y190867D01*
X453447Y190859D01*
X453463Y190846D01*
X453591Y190791D01*
X453716Y190732D01*
X453736Y190728D01*
X453755Y190720D01*
X453893Y190698D01*
X454029Y190672D01*
X454049Y190673D01*
X454069Y190670D01*
X454208Y190683D01*
X454346Y190692D01*
X454365Y190698D01*
X454385Y190700D01*
X454517Y190747D01*
X454648Y190790D01*
X454666Y190800D01*
X454685Y190807D01*
X454800Y190885D01*
X454917Y190960D01*
X454931Y190975D01*
X454948Y190986D01*
X455040Y191090D01*
X455135Y191191D01*
X455145Y191209D01*
X455158Y191224D01*
X455222Y191348D01*
X455289Y191470D01*
X455294Y191490D01*
X455303Y191508D01*
X455333Y191643D01*
X455368Y191778D01*
X455370Y191806D01*
X455373Y191818D01*
X455372Y191838D01*
X455378Y191939D01*
X455378Y237091D01*
X455366Y237189D01*
X455363Y237288D01*
X455346Y237346D01*
X455338Y237407D01*
X455302Y237499D01*
X455274Y237594D01*
X455244Y237646D01*
X455221Y237702D01*
X455163Y237782D01*
X455113Y237868D01*
X455047Y237943D01*
X455035Y237960D01*
X455025Y237967D01*
X455007Y237989D01*
X444050Y248946D01*
X443971Y249006D01*
X443899Y249074D01*
X443846Y249103D01*
X443798Y249140D01*
X443707Y249180D01*
X443621Y249228D01*
X443562Y249243D01*
X443506Y249267D01*
X443408Y249282D01*
X443313Y249307D01*
X443213Y249313D01*
X443192Y249317D01*
X443180Y249315D01*
X443152Y249317D01*
X442305Y249317D01*
X438250Y250997D01*
X435147Y254100D01*
X433467Y258155D01*
X433467Y262545D01*
X435147Y266600D01*
X438250Y269703D01*
X442305Y271383D01*
X446695Y271383D01*
X450750Y269703D01*
X453853Y266600D01*
X455533Y262545D01*
X455533Y261698D01*
X455545Y261600D01*
X455548Y261501D01*
X455565Y261443D01*
X455573Y261382D01*
X455609Y261290D01*
X455637Y261195D01*
X455667Y261143D01*
X455690Y261087D01*
X455748Y261007D01*
X455798Y260921D01*
X455864Y260846D01*
X455876Y260829D01*
X455886Y260822D01*
X455904Y260800D01*
X470868Y245837D01*
X472144Y242756D01*
X472144Y139728D01*
X472156Y139630D01*
X472159Y139531D01*
X472176Y139473D01*
X472184Y139413D01*
X472220Y139321D01*
X472248Y139226D01*
X472278Y139173D01*
X472301Y139117D01*
X472359Y139037D01*
X472409Y138952D01*
X472475Y138876D01*
X472487Y138860D01*
X472497Y138852D01*
X472515Y138831D01*
X476251Y135095D01*
X478494Y129681D01*
X478494Y123819D01*
X476251Y118405D01*
X472106Y114260D01*
X466692Y112017D01*
X460830Y112017D01*
X455416Y114260D01*
X451271Y118405D01*
X449391Y122943D01*
X449367Y122986D01*
X449350Y123033D01*
X449288Y123124D01*
X449234Y123219D01*
X449199Y123255D01*
X449171Y123296D01*
X449089Y123368D01*
X449013Y123447D01*
X448970Y123473D01*
X448933Y123506D01*
X448835Y123556D01*
X448741Y123614D01*
X448694Y123628D01*
X448650Y123651D01*
X448542Y123675D01*
X448438Y123707D01*
X448388Y123710D01*
X448339Y123721D01*
X448229Y123717D01*
X448120Y123722D01*
X448071Y123712D01*
X448022Y123711D01*
X447916Y123680D01*
X447808Y123658D01*
X447764Y123636D01*
X447716Y123622D01*
X447622Y123567D01*
X447523Y123518D01*
X447485Y123486D01*
X447442Y123461D01*
X447321Y123355D01*
X420994Y97027D01*
X188606Y97027D01*
G37*
%LPD*%
%LPC*%
G36*
X387349Y288949D02*
X387349Y288949D01*
X387349Y290220D01*
X387334Y290338D01*
X387327Y290457D01*
X387314Y290495D01*
X387309Y290535D01*
X387265Y290646D01*
X387229Y290759D01*
X387207Y290794D01*
X387192Y290831D01*
X387122Y290927D01*
X387059Y291028D01*
X387029Y291056D01*
X387005Y291088D01*
X386914Y291164D01*
X386827Y291246D01*
X386792Y291265D01*
X386760Y291291D01*
X386653Y291342D01*
X386549Y291399D01*
X386509Y291410D01*
X386473Y291427D01*
X386356Y291449D01*
X386241Y291479D01*
X386180Y291483D01*
X386160Y291487D01*
X386140Y291485D01*
X386080Y291489D01*
X377309Y291489D01*
X377309Y295784D01*
X377482Y296431D01*
X377817Y297010D01*
X378290Y297483D01*
X378539Y297627D01*
X378639Y297703D01*
X378743Y297773D01*
X378765Y297799D01*
X378792Y297819D01*
X378870Y297918D01*
X378954Y298012D01*
X378969Y298042D01*
X378990Y298068D01*
X379041Y298183D01*
X379098Y298295D01*
X379106Y298328D01*
X379119Y298359D01*
X379140Y298483D01*
X379168Y298605D01*
X379167Y298639D01*
X379172Y298672D01*
X379162Y298798D01*
X379158Y298923D01*
X379149Y298956D01*
X379146Y298989D01*
X379105Y299108D01*
X379070Y299229D01*
X379053Y299258D01*
X379042Y299290D01*
X378972Y299394D01*
X378908Y299503D01*
X378876Y299539D01*
X378866Y299555D01*
X378850Y299569D01*
X378802Y299624D01*
X377817Y300608D01*
X377817Y315292D01*
X379008Y316483D01*
X381508Y316483D01*
X381626Y316498D01*
X381745Y316505D01*
X381783Y316518D01*
X381824Y316523D01*
X381934Y316566D01*
X382047Y316603D01*
X382082Y316625D01*
X382119Y316640D01*
X382215Y316709D01*
X382316Y316773D01*
X382344Y316803D01*
X382377Y316826D01*
X382453Y316918D01*
X382534Y317005D01*
X382554Y317040D01*
X382579Y317071D01*
X382630Y317179D01*
X382688Y317283D01*
X382698Y317323D01*
X382715Y317359D01*
X382737Y317476D01*
X382767Y317591D01*
X382771Y317651D01*
X382775Y317671D01*
X382773Y317692D01*
X382777Y317752D01*
X382777Y319674D01*
X382765Y319772D01*
X382762Y319871D01*
X382745Y319929D01*
X382737Y319989D01*
X382701Y320081D01*
X382673Y320176D01*
X382643Y320229D01*
X382620Y320285D01*
X382562Y320365D01*
X382512Y320450D01*
X382446Y320526D01*
X382434Y320542D01*
X382424Y320550D01*
X382422Y320552D01*
X381535Y322693D01*
X381535Y325007D01*
X382424Y327153D01*
X382466Y327207D01*
X382534Y327279D01*
X382563Y327332D01*
X382600Y327380D01*
X382640Y327471D01*
X382688Y327558D01*
X382703Y327616D01*
X382727Y327672D01*
X382742Y327770D01*
X382767Y327866D01*
X382773Y327966D01*
X382777Y327986D01*
X382775Y327998D01*
X382777Y328026D01*
X382777Y329948D01*
X382762Y330066D01*
X382755Y330185D01*
X382742Y330223D01*
X382737Y330264D01*
X382694Y330374D01*
X382657Y330487D01*
X382635Y330522D01*
X382620Y330559D01*
X382551Y330655D01*
X382487Y330756D01*
X382457Y330784D01*
X382434Y330817D01*
X382342Y330893D01*
X382255Y330974D01*
X382220Y330994D01*
X382189Y331019D01*
X382081Y331070D01*
X381977Y331128D01*
X381937Y331138D01*
X381901Y331155D01*
X381784Y331177D01*
X381669Y331207D01*
X381609Y331211D01*
X381589Y331215D01*
X381568Y331213D01*
X381508Y331217D01*
X379008Y331217D01*
X377817Y332408D01*
X377817Y347092D01*
X379078Y348353D01*
X379151Y348447D01*
X379230Y348536D01*
X379248Y348572D01*
X379273Y348604D01*
X379320Y348713D01*
X379374Y348819D01*
X379383Y348858D01*
X379399Y348896D01*
X379418Y349013D01*
X379444Y349129D01*
X379443Y349170D01*
X379449Y349210D01*
X379438Y349328D01*
X379434Y349447D01*
X379423Y349486D01*
X379419Y349526D01*
X379379Y349638D01*
X379346Y349753D01*
X379325Y349788D01*
X379312Y349826D01*
X379245Y349924D01*
X379184Y350027D01*
X379144Y350072D01*
X379133Y350089D01*
X379118Y350102D01*
X379078Y350148D01*
X377817Y351408D01*
X377817Y366092D01*
X379008Y367283D01*
X395692Y367283D01*
X396883Y366092D01*
X396883Y359410D01*
X396895Y359312D01*
X396898Y359213D01*
X396915Y359154D01*
X396923Y359094D01*
X396959Y359002D01*
X396987Y358907D01*
X397017Y358855D01*
X397040Y358799D01*
X397098Y358719D01*
X397148Y358633D01*
X397214Y358558D01*
X397226Y358541D01*
X397236Y358533D01*
X397254Y358512D01*
X398644Y357122D01*
X401051Y354716D01*
X401160Y354631D01*
X401267Y354542D01*
X401286Y354534D01*
X401302Y354521D01*
X401430Y354466D01*
X401555Y354407D01*
X401575Y354403D01*
X401594Y354395D01*
X401732Y354373D01*
X401868Y354347D01*
X401888Y354348D01*
X401908Y354345D01*
X402047Y354358D01*
X402185Y354367D01*
X402204Y354373D01*
X402224Y354375D01*
X402356Y354422D01*
X402487Y354465D01*
X402505Y354476D01*
X402524Y354483D01*
X402639Y354561D01*
X402756Y354635D01*
X402770Y354650D01*
X402787Y354661D01*
X402879Y354765D01*
X402974Y354867D01*
X402984Y354884D01*
X402997Y354900D01*
X403061Y355024D01*
X403128Y355145D01*
X403133Y355165D01*
X403142Y355183D01*
X403172Y355319D01*
X403207Y355453D01*
X403209Y355481D01*
X403212Y355493D01*
X403211Y355514D01*
X403217Y355614D01*
X403217Y366092D01*
X404408Y367283D01*
X421092Y367283D01*
X422283Y366092D01*
X422283Y359410D01*
X422295Y359312D01*
X422298Y359213D01*
X422315Y359154D01*
X422323Y359094D01*
X422359Y359002D01*
X422387Y358907D01*
X422417Y358855D01*
X422440Y358799D01*
X422498Y358719D01*
X422548Y358633D01*
X422614Y358558D01*
X422626Y358541D01*
X422636Y358533D01*
X422654Y358512D01*
X433322Y347844D01*
X433401Y347784D01*
X433473Y347716D01*
X433526Y347687D01*
X433574Y347650D01*
X433665Y347610D01*
X433751Y347562D01*
X433810Y347547D01*
X433865Y347523D01*
X433963Y347508D01*
X434059Y347483D01*
X434159Y347477D01*
X434180Y347473D01*
X434192Y347475D01*
X434220Y347473D01*
X499230Y347473D01*
X499328Y347485D01*
X499427Y347488D01*
X499486Y347505D01*
X499546Y347513D01*
X499638Y347549D01*
X499733Y347577D01*
X499785Y347607D01*
X499841Y347630D01*
X499921Y347688D01*
X500007Y347738D01*
X500082Y347804D01*
X500099Y347816D01*
X500107Y347826D01*
X500128Y347844D01*
X509762Y357479D01*
X509780Y357502D01*
X509803Y357521D01*
X509877Y357627D01*
X509957Y357730D01*
X509969Y357757D01*
X509986Y357781D01*
X510032Y357903D01*
X510083Y358022D01*
X510088Y358051D01*
X510099Y358079D01*
X510113Y358208D01*
X510133Y358336D01*
X510131Y358366D01*
X510134Y358395D01*
X510116Y358523D01*
X510103Y358653D01*
X510093Y358681D01*
X510089Y358710D01*
X510037Y358862D01*
X509667Y359755D01*
X509667Y360602D01*
X509655Y360700D01*
X509652Y360799D01*
X509635Y360857D01*
X509627Y360918D01*
X509591Y361010D01*
X509563Y361105D01*
X509533Y361157D01*
X509510Y361213D01*
X509452Y361293D01*
X509402Y361379D01*
X509336Y361454D01*
X509324Y361471D01*
X509314Y361478D01*
X509296Y361500D01*
X507454Y363341D01*
X506178Y366422D01*
X506178Y405872D01*
X506166Y405970D01*
X506163Y406069D01*
X506146Y406127D01*
X506138Y406187D01*
X506102Y406279D01*
X506074Y406375D01*
X506044Y406427D01*
X506021Y406483D01*
X505963Y406563D01*
X505913Y406648D01*
X505847Y406724D01*
X505835Y406740D01*
X505825Y406748D01*
X505807Y406769D01*
X502071Y410505D01*
X499828Y415919D01*
X499828Y421781D01*
X502071Y427195D01*
X506216Y431340D01*
X511630Y433583D01*
X517492Y433583D01*
X522906Y431340D01*
X527051Y427195D01*
X529294Y421781D01*
X529294Y415919D01*
X527051Y410505D01*
X523315Y406769D01*
X523255Y406691D01*
X523187Y406619D01*
X523158Y406566D01*
X523121Y406518D01*
X523081Y406427D01*
X523033Y406340D01*
X523018Y406282D01*
X522994Y406226D01*
X522979Y406128D01*
X522954Y406032D01*
X522948Y405932D01*
X522944Y405912D01*
X522946Y405900D01*
X522944Y405872D01*
X522944Y373810D01*
X522947Y373781D01*
X522945Y373752D01*
X522967Y373624D01*
X522984Y373495D01*
X522994Y373467D01*
X522999Y373438D01*
X523053Y373320D01*
X523101Y373199D01*
X523118Y373175D01*
X523130Y373148D01*
X523211Y373047D01*
X523287Y372942D01*
X523310Y372923D01*
X523329Y372900D01*
X523432Y372822D01*
X523532Y372739D01*
X523559Y372726D01*
X523583Y372709D01*
X523727Y372638D01*
X526950Y371303D01*
X530053Y368200D01*
X531733Y364145D01*
X531733Y359755D01*
X530053Y355700D01*
X526950Y352597D01*
X522895Y350917D01*
X518505Y350917D01*
X517612Y351287D01*
X517584Y351295D01*
X517557Y351309D01*
X517431Y351337D01*
X517305Y351371D01*
X517276Y351372D01*
X517247Y351378D01*
X517117Y351374D01*
X516987Y351376D01*
X516959Y351369D01*
X516929Y351369D01*
X516805Y351332D01*
X516678Y351302D01*
X516652Y351288D01*
X516624Y351280D01*
X516512Y351214D01*
X516397Y351153D01*
X516375Y351134D01*
X516350Y351119D01*
X516229Y351012D01*
X506594Y341378D01*
X503544Y338327D01*
X429906Y338327D01*
X426856Y341378D01*
X424449Y343784D01*
X424340Y343869D01*
X424233Y343958D01*
X424214Y343966D01*
X424198Y343979D01*
X424070Y344034D01*
X423945Y344093D01*
X423925Y344097D01*
X423906Y344105D01*
X423768Y344127D01*
X423632Y344153D01*
X423612Y344152D01*
X423592Y344155D01*
X423453Y344142D01*
X423315Y344133D01*
X423296Y344127D01*
X423276Y344125D01*
X423144Y344078D01*
X423013Y344035D01*
X422995Y344024D01*
X422976Y344017D01*
X422861Y343939D01*
X422744Y343865D01*
X422730Y343850D01*
X422713Y343839D01*
X422621Y343735D01*
X422526Y343633D01*
X422516Y343616D01*
X422503Y343600D01*
X422439Y343476D01*
X422372Y343355D01*
X422367Y343335D01*
X422358Y343317D01*
X422328Y343181D01*
X422293Y343047D01*
X422291Y343019D01*
X422288Y343007D01*
X422289Y342986D01*
X422283Y342886D01*
X422283Y332408D01*
X421092Y331217D01*
X418592Y331217D01*
X418474Y331202D01*
X418355Y331195D01*
X418317Y331182D01*
X418276Y331177D01*
X418166Y331134D01*
X418053Y331097D01*
X418018Y331075D01*
X417981Y331060D01*
X417885Y330991D01*
X417784Y330927D01*
X417756Y330897D01*
X417723Y330874D01*
X417647Y330782D01*
X417566Y330695D01*
X417546Y330660D01*
X417521Y330629D01*
X417470Y330521D01*
X417412Y330417D01*
X417402Y330377D01*
X417385Y330341D01*
X417363Y330224D01*
X417333Y330109D01*
X417329Y330049D01*
X417325Y330029D01*
X417327Y330008D01*
X417323Y329948D01*
X417323Y317752D01*
X417338Y317634D01*
X417345Y317515D01*
X417358Y317477D01*
X417363Y317436D01*
X417406Y317326D01*
X417443Y317213D01*
X417465Y317178D01*
X417480Y317141D01*
X417549Y317045D01*
X417613Y316944D01*
X417643Y316916D01*
X417666Y316883D01*
X417758Y316807D01*
X417845Y316726D01*
X417880Y316706D01*
X417911Y316681D01*
X418019Y316630D01*
X418123Y316572D01*
X418163Y316562D01*
X418199Y316545D01*
X418316Y316523D01*
X418431Y316493D01*
X418491Y316489D01*
X418511Y316485D01*
X418532Y316487D01*
X418592Y316483D01*
X421092Y316483D01*
X422283Y315292D01*
X422283Y300608D01*
X421298Y299624D01*
X421221Y299524D01*
X421139Y299429D01*
X421124Y299399D01*
X421103Y299372D01*
X421053Y299257D01*
X420997Y299144D01*
X420990Y299111D01*
X420977Y299080D01*
X420957Y298956D01*
X420931Y298833D01*
X420932Y298800D01*
X420927Y298766D01*
X420939Y298641D01*
X420944Y298516D01*
X420954Y298483D01*
X420957Y298450D01*
X420999Y298331D01*
X421036Y298211D01*
X421053Y298182D01*
X421064Y298150D01*
X421135Y298046D01*
X421200Y297939D01*
X421224Y297915D01*
X421243Y297887D01*
X421337Y297804D01*
X421427Y297716D01*
X421468Y297689D01*
X421481Y297677D01*
X421501Y297667D01*
X421561Y297627D01*
X421810Y297483D01*
X422283Y297010D01*
X422618Y296431D01*
X422791Y295784D01*
X422791Y291489D01*
X414020Y291489D01*
X413902Y291474D01*
X413783Y291467D01*
X413745Y291454D01*
X413705Y291449D01*
X413594Y291405D01*
X413481Y291369D01*
X413446Y291347D01*
X413409Y291332D01*
X413313Y291262D01*
X413212Y291199D01*
X413184Y291169D01*
X413152Y291145D01*
X413076Y291054D01*
X412994Y290967D01*
X412975Y290932D01*
X412949Y290900D01*
X412898Y290793D01*
X412841Y290689D01*
X412830Y290649D01*
X412813Y290613D01*
X412791Y290496D01*
X412761Y290381D01*
X412757Y290320D01*
X412753Y290300D01*
X412755Y290280D01*
X412751Y290220D01*
X412751Y288949D01*
X412749Y288949D01*
X412749Y290220D01*
X412734Y290338D01*
X412727Y290457D01*
X412714Y290495D01*
X412709Y290535D01*
X412665Y290646D01*
X412629Y290759D01*
X412607Y290794D01*
X412592Y290831D01*
X412522Y290927D01*
X412459Y291028D01*
X412429Y291056D01*
X412405Y291088D01*
X412314Y291164D01*
X412227Y291246D01*
X412192Y291265D01*
X412160Y291291D01*
X412053Y291342D01*
X411949Y291399D01*
X411909Y291410D01*
X411873Y291427D01*
X411756Y291449D01*
X411641Y291479D01*
X411580Y291483D01*
X411560Y291487D01*
X411540Y291485D01*
X411480Y291489D01*
X402709Y291489D01*
X402709Y295784D01*
X402882Y296431D01*
X403217Y297010D01*
X403690Y297483D01*
X403939Y297627D01*
X404039Y297703D01*
X404143Y297773D01*
X404165Y297799D01*
X404192Y297819D01*
X404270Y297918D01*
X404354Y298012D01*
X404369Y298042D01*
X404390Y298068D01*
X404441Y298183D01*
X404498Y298295D01*
X404506Y298328D01*
X404519Y298359D01*
X404540Y298483D01*
X404568Y298605D01*
X404567Y298639D01*
X404572Y298672D01*
X404562Y298798D01*
X404558Y298923D01*
X404549Y298956D01*
X404546Y298989D01*
X404505Y299108D01*
X404470Y299229D01*
X404453Y299258D01*
X404442Y299290D01*
X404372Y299394D01*
X404308Y299503D01*
X404276Y299539D01*
X404266Y299555D01*
X404250Y299569D01*
X404202Y299624D01*
X403217Y300608D01*
X403217Y315292D01*
X404408Y316483D01*
X406908Y316483D01*
X407026Y316498D01*
X407145Y316505D01*
X407183Y316518D01*
X407224Y316523D01*
X407334Y316566D01*
X407447Y316603D01*
X407482Y316625D01*
X407519Y316640D01*
X407615Y316709D01*
X407716Y316773D01*
X407744Y316803D01*
X407777Y316826D01*
X407853Y316918D01*
X407934Y317005D01*
X407954Y317040D01*
X407979Y317071D01*
X408030Y317179D01*
X408088Y317283D01*
X408098Y317323D01*
X408115Y317359D01*
X408137Y317476D01*
X408167Y317591D01*
X408171Y317651D01*
X408175Y317671D01*
X408173Y317692D01*
X408177Y317752D01*
X408177Y329948D01*
X408162Y330066D01*
X408155Y330185D01*
X408142Y330223D01*
X408137Y330264D01*
X408094Y330374D01*
X408057Y330487D01*
X408035Y330522D01*
X408020Y330559D01*
X407951Y330655D01*
X407887Y330756D01*
X407857Y330784D01*
X407834Y330817D01*
X407742Y330893D01*
X407655Y330974D01*
X407620Y330994D01*
X407589Y331019D01*
X407481Y331070D01*
X407377Y331128D01*
X407337Y331138D01*
X407301Y331155D01*
X407184Y331177D01*
X407069Y331207D01*
X407009Y331211D01*
X406989Y331215D01*
X406968Y331213D01*
X406908Y331217D01*
X404408Y331217D01*
X403217Y332408D01*
X403217Y339090D01*
X403205Y339188D01*
X403202Y339287D01*
X403185Y339346D01*
X403177Y339406D01*
X403141Y339498D01*
X403113Y339593D01*
X403083Y339645D01*
X403060Y339701D01*
X403002Y339781D01*
X402952Y339867D01*
X402886Y339942D01*
X402874Y339959D01*
X402864Y339967D01*
X402846Y339988D01*
X399049Y343784D01*
X398940Y343869D01*
X398833Y343958D01*
X398814Y343966D01*
X398798Y343979D01*
X398670Y344034D01*
X398545Y344093D01*
X398525Y344097D01*
X398506Y344105D01*
X398368Y344127D01*
X398232Y344153D01*
X398212Y344152D01*
X398192Y344155D01*
X398053Y344142D01*
X397915Y344133D01*
X397896Y344127D01*
X397876Y344125D01*
X397744Y344078D01*
X397613Y344035D01*
X397595Y344024D01*
X397576Y344017D01*
X397461Y343939D01*
X397344Y343865D01*
X397330Y343850D01*
X397313Y343839D01*
X397221Y343735D01*
X397126Y343633D01*
X397116Y343616D01*
X397103Y343600D01*
X397039Y343476D01*
X396972Y343355D01*
X396967Y343335D01*
X396958Y343317D01*
X396928Y343181D01*
X396893Y343047D01*
X396891Y343019D01*
X396888Y343007D01*
X396889Y342986D01*
X396883Y342886D01*
X396883Y332408D01*
X395692Y331217D01*
X393192Y331217D01*
X393074Y331202D01*
X392955Y331195D01*
X392917Y331182D01*
X392876Y331177D01*
X392766Y331134D01*
X392653Y331097D01*
X392618Y331075D01*
X392581Y331060D01*
X392485Y330991D01*
X392384Y330927D01*
X392356Y330897D01*
X392323Y330874D01*
X392247Y330782D01*
X392166Y330695D01*
X392146Y330660D01*
X392121Y330629D01*
X392070Y330521D01*
X392012Y330417D01*
X392002Y330377D01*
X391985Y330341D01*
X391963Y330224D01*
X391933Y330109D01*
X391929Y330049D01*
X391925Y330029D01*
X391927Y330008D01*
X391923Y329948D01*
X391923Y328026D01*
X391935Y327928D01*
X391938Y327829D01*
X391955Y327771D01*
X391963Y327711D01*
X391999Y327619D01*
X392027Y327524D01*
X392057Y327471D01*
X392080Y327415D01*
X392138Y327335D01*
X392188Y327250D01*
X392254Y327174D01*
X392266Y327158D01*
X392276Y327150D01*
X392278Y327148D01*
X393165Y325007D01*
X393165Y322693D01*
X392276Y320547D01*
X392234Y320493D01*
X392166Y320421D01*
X392137Y320368D01*
X392100Y320320D01*
X392060Y320229D01*
X392012Y320142D01*
X391997Y320084D01*
X391973Y320028D01*
X391958Y319930D01*
X391933Y319834D01*
X391927Y319734D01*
X391923Y319714D01*
X391925Y319702D01*
X391923Y319674D01*
X391923Y317752D01*
X391938Y317634D01*
X391945Y317515D01*
X391958Y317477D01*
X391963Y317436D01*
X392006Y317326D01*
X392043Y317213D01*
X392065Y317178D01*
X392080Y317141D01*
X392149Y317045D01*
X392213Y316944D01*
X392243Y316916D01*
X392266Y316883D01*
X392358Y316807D01*
X392445Y316726D01*
X392480Y316706D01*
X392511Y316681D01*
X392619Y316630D01*
X392723Y316572D01*
X392763Y316562D01*
X392799Y316545D01*
X392916Y316523D01*
X393031Y316493D01*
X393091Y316489D01*
X393111Y316485D01*
X393132Y316487D01*
X393192Y316483D01*
X395692Y316483D01*
X396883Y315292D01*
X396883Y300608D01*
X395898Y299624D01*
X395821Y299524D01*
X395739Y299429D01*
X395724Y299399D01*
X395703Y299372D01*
X395653Y299257D01*
X395597Y299144D01*
X395590Y299111D01*
X395577Y299080D01*
X395557Y298956D01*
X395531Y298833D01*
X395532Y298800D01*
X395527Y298766D01*
X395539Y298641D01*
X395544Y298516D01*
X395554Y298483D01*
X395557Y298450D01*
X395599Y298331D01*
X395636Y298211D01*
X395653Y298182D01*
X395664Y298150D01*
X395735Y298046D01*
X395800Y297939D01*
X395824Y297915D01*
X395843Y297887D01*
X395937Y297804D01*
X396027Y297716D01*
X396068Y297689D01*
X396081Y297677D01*
X396101Y297667D01*
X396161Y297627D01*
X396410Y297483D01*
X396883Y297010D01*
X397218Y296431D01*
X397391Y295784D01*
X397391Y291489D01*
X388620Y291489D01*
X388502Y291474D01*
X388383Y291467D01*
X388345Y291454D01*
X388305Y291449D01*
X388194Y291405D01*
X388081Y291369D01*
X388046Y291347D01*
X388009Y291332D01*
X387913Y291262D01*
X387812Y291199D01*
X387784Y291169D01*
X387752Y291145D01*
X387676Y291054D01*
X387594Y290967D01*
X387575Y290932D01*
X387549Y290900D01*
X387498Y290793D01*
X387441Y290689D01*
X387430Y290649D01*
X387413Y290613D01*
X387391Y290496D01*
X387361Y290381D01*
X387357Y290320D01*
X387353Y290300D01*
X387355Y290280D01*
X387351Y290220D01*
X387351Y288949D01*
X387349Y288949D01*
G37*
%LPD*%
%LPC*%
G36*
X359230Y112017D02*
X359230Y112017D01*
X353816Y114260D01*
X349671Y118405D01*
X347428Y123819D01*
X347428Y129681D01*
X349671Y135095D01*
X353816Y139240D01*
X359230Y141483D01*
X365092Y141483D01*
X367755Y140380D01*
X367783Y140372D01*
X367809Y140358D01*
X367936Y140330D01*
X368061Y140296D01*
X368091Y140295D01*
X368120Y140289D01*
X368250Y140293D01*
X368379Y140291D01*
X368408Y140297D01*
X368438Y140298D01*
X368562Y140334D01*
X368689Y140365D01*
X368715Y140379D01*
X368743Y140387D01*
X368855Y140453D01*
X368970Y140513D01*
X368992Y140533D01*
X369017Y140548D01*
X369138Y140655D01*
X405134Y176651D01*
X405219Y176760D01*
X405308Y176867D01*
X405316Y176886D01*
X405329Y176902D01*
X405384Y177030D01*
X405443Y177155D01*
X405447Y177175D01*
X405455Y177194D01*
X405477Y177332D01*
X405503Y177468D01*
X405502Y177488D01*
X405505Y177508D01*
X405492Y177647D01*
X405483Y177785D01*
X405477Y177804D01*
X405475Y177824D01*
X405428Y177956D01*
X405385Y178087D01*
X405374Y178105D01*
X405367Y178124D01*
X405289Y178239D01*
X405215Y178356D01*
X405200Y178370D01*
X405189Y178387D01*
X405085Y178479D01*
X404983Y178574D01*
X404966Y178584D01*
X404950Y178597D01*
X404827Y178660D01*
X404705Y178728D01*
X404685Y178733D01*
X404667Y178742D01*
X404531Y178772D01*
X404426Y178800D01*
X403217Y180008D01*
X403217Y190486D01*
X403200Y190624D01*
X403187Y190763D01*
X403180Y190782D01*
X403177Y190802D01*
X403126Y190931D01*
X403079Y191062D01*
X403068Y191079D01*
X403060Y191097D01*
X402979Y191210D01*
X402901Y191325D01*
X402885Y191338D01*
X402874Y191355D01*
X402766Y191444D01*
X402662Y191535D01*
X402644Y191545D01*
X402629Y191558D01*
X402503Y191617D01*
X402379Y191680D01*
X402359Y191685D01*
X402341Y191693D01*
X402205Y191719D01*
X402069Y191750D01*
X402048Y191749D01*
X402029Y191753D01*
X401890Y191744D01*
X401751Y191740D01*
X401731Y191734D01*
X401711Y191733D01*
X401579Y191690D01*
X401445Y191652D01*
X401428Y191641D01*
X401409Y191635D01*
X401291Y191561D01*
X401171Y191490D01*
X401150Y191472D01*
X401140Y191465D01*
X401126Y191450D01*
X401051Y191384D01*
X397254Y187588D01*
X397194Y187509D01*
X397126Y187437D01*
X397097Y187384D01*
X397060Y187336D01*
X397020Y187245D01*
X396972Y187159D01*
X396957Y187100D01*
X396933Y187045D01*
X396918Y186947D01*
X396893Y186851D01*
X396887Y186751D01*
X396883Y186730D01*
X396885Y186718D01*
X396883Y186690D01*
X396883Y180008D01*
X395692Y178817D01*
X379008Y178817D01*
X377817Y180008D01*
X377817Y194692D01*
X379078Y195952D01*
X379151Y196047D01*
X379230Y196136D01*
X379248Y196172D01*
X379273Y196204D01*
X379320Y196313D01*
X379374Y196419D01*
X379383Y196458D01*
X379399Y196496D01*
X379418Y196613D01*
X379444Y196729D01*
X379443Y196770D01*
X379449Y196810D01*
X379438Y196928D01*
X379434Y197047D01*
X379423Y197086D01*
X379419Y197126D01*
X379379Y197239D01*
X379346Y197353D01*
X379325Y197387D01*
X379312Y197426D01*
X379245Y197524D01*
X379184Y197627D01*
X379144Y197672D01*
X379133Y197689D01*
X379118Y197702D01*
X379078Y197747D01*
X377817Y199008D01*
X377817Y213692D01*
X379008Y214883D01*
X381508Y214883D01*
X381626Y214898D01*
X381745Y214905D01*
X381783Y214918D01*
X381824Y214923D01*
X381934Y214966D01*
X382047Y215003D01*
X382082Y215025D01*
X382119Y215040D01*
X382215Y215109D01*
X382316Y215173D01*
X382344Y215203D01*
X382377Y215226D01*
X382453Y215318D01*
X382534Y215405D01*
X382554Y215440D01*
X382579Y215471D01*
X382630Y215579D01*
X382688Y215683D01*
X382698Y215723D01*
X382715Y215759D01*
X382737Y215876D01*
X382767Y215991D01*
X382771Y216051D01*
X382775Y216071D01*
X382773Y216092D01*
X382777Y216152D01*
X382777Y218074D01*
X382765Y218172D01*
X382762Y218271D01*
X382745Y218329D01*
X382737Y218389D01*
X382701Y218481D01*
X382673Y218576D01*
X382643Y218629D01*
X382620Y218685D01*
X382562Y218765D01*
X382512Y218850D01*
X382446Y218926D01*
X382434Y218942D01*
X382424Y218950D01*
X382422Y218952D01*
X381535Y221093D01*
X381535Y223407D01*
X382424Y225553D01*
X382466Y225607D01*
X382534Y225679D01*
X382563Y225732D01*
X382600Y225780D01*
X382640Y225871D01*
X382688Y225958D01*
X382703Y226016D01*
X382727Y226072D01*
X382742Y226170D01*
X382767Y226266D01*
X382773Y226366D01*
X382777Y226386D01*
X382775Y226398D01*
X382777Y226426D01*
X382777Y228348D01*
X382762Y228466D01*
X382755Y228585D01*
X382742Y228623D01*
X382737Y228664D01*
X382694Y228774D01*
X382657Y228887D01*
X382635Y228922D01*
X382620Y228959D01*
X382551Y229055D01*
X382487Y229156D01*
X382457Y229184D01*
X382434Y229217D01*
X382342Y229293D01*
X382255Y229374D01*
X382220Y229394D01*
X382189Y229419D01*
X382081Y229470D01*
X381977Y229528D01*
X381937Y229538D01*
X381901Y229555D01*
X381784Y229577D01*
X381669Y229607D01*
X381609Y229611D01*
X381589Y229615D01*
X381568Y229613D01*
X381508Y229617D01*
X379008Y229617D01*
X377817Y230808D01*
X377817Y245492D01*
X378802Y246476D01*
X378879Y246576D01*
X378961Y246671D01*
X378976Y246701D01*
X378997Y246728D01*
X379047Y246843D01*
X379103Y246956D01*
X379110Y246989D01*
X379123Y247020D01*
X379143Y247144D01*
X379169Y247267D01*
X379168Y247300D01*
X379173Y247334D01*
X379161Y247459D01*
X379156Y247584D01*
X379146Y247617D01*
X379143Y247650D01*
X379101Y247769D01*
X379064Y247889D01*
X379047Y247918D01*
X379036Y247950D01*
X378965Y248054D01*
X378900Y248161D01*
X378876Y248185D01*
X378857Y248213D01*
X378763Y248296D01*
X378673Y248384D01*
X378632Y248411D01*
X378619Y248423D01*
X378599Y248433D01*
X378539Y248473D01*
X378290Y248617D01*
X377817Y249090D01*
X377482Y249669D01*
X377309Y250316D01*
X377309Y254611D01*
X386080Y254611D01*
X386198Y254626D01*
X386317Y254633D01*
X386355Y254646D01*
X386395Y254651D01*
X386506Y254694D01*
X386619Y254731D01*
X386654Y254753D01*
X386691Y254768D01*
X386787Y254838D01*
X386888Y254901D01*
X386916Y254931D01*
X386948Y254955D01*
X387024Y255046D01*
X387106Y255133D01*
X387125Y255168D01*
X387151Y255199D01*
X387202Y255307D01*
X387259Y255411D01*
X387270Y255451D01*
X387287Y255487D01*
X387309Y255604D01*
X387339Y255719D01*
X387343Y255780D01*
X387347Y255800D01*
X387345Y255820D01*
X387349Y255880D01*
X387349Y257151D01*
X387351Y257151D01*
X387351Y255880D01*
X387366Y255762D01*
X387373Y255643D01*
X387386Y255605D01*
X387391Y255565D01*
X387435Y255454D01*
X387471Y255341D01*
X387493Y255306D01*
X387508Y255269D01*
X387578Y255173D01*
X387641Y255072D01*
X387671Y255044D01*
X387695Y255011D01*
X387786Y254936D01*
X387873Y254854D01*
X387908Y254834D01*
X387940Y254809D01*
X388047Y254758D01*
X388151Y254700D01*
X388191Y254690D01*
X388227Y254673D01*
X388344Y254651D01*
X388459Y254621D01*
X388520Y254617D01*
X388540Y254613D01*
X388560Y254615D01*
X388620Y254611D01*
X397391Y254611D01*
X397391Y250316D01*
X397218Y249669D01*
X396883Y249090D01*
X396410Y248617D01*
X396161Y248473D01*
X396061Y248397D01*
X395957Y248327D01*
X395935Y248301D01*
X395908Y248281D01*
X395829Y248182D01*
X395746Y248088D01*
X395731Y248058D01*
X395710Y248032D01*
X395659Y247917D01*
X395602Y247805D01*
X395594Y247772D01*
X395581Y247741D01*
X395560Y247617D01*
X395532Y247495D01*
X395533Y247461D01*
X395528Y247428D01*
X395538Y247302D01*
X395542Y247177D01*
X395551Y247144D01*
X395554Y247111D01*
X395595Y246992D01*
X395630Y246871D01*
X395647Y246842D01*
X395658Y246810D01*
X395728Y246706D01*
X395792Y246597D01*
X395824Y246561D01*
X395834Y246545D01*
X395850Y246531D01*
X395898Y246476D01*
X396883Y245492D01*
X396883Y230808D01*
X395692Y229617D01*
X393192Y229617D01*
X393074Y229602D01*
X392955Y229595D01*
X392917Y229582D01*
X392876Y229577D01*
X392766Y229534D01*
X392653Y229497D01*
X392618Y229475D01*
X392581Y229460D01*
X392485Y229391D01*
X392384Y229327D01*
X392356Y229297D01*
X392323Y229274D01*
X392247Y229182D01*
X392166Y229095D01*
X392146Y229060D01*
X392121Y229029D01*
X392070Y228921D01*
X392012Y228817D01*
X392002Y228777D01*
X391985Y228741D01*
X391963Y228624D01*
X391933Y228509D01*
X391929Y228449D01*
X391925Y228429D01*
X391927Y228408D01*
X391923Y228348D01*
X391923Y226426D01*
X391935Y226328D01*
X391938Y226229D01*
X391955Y226171D01*
X391963Y226111D01*
X391999Y226019D01*
X392027Y225924D01*
X392057Y225871D01*
X392080Y225815D01*
X392138Y225735D01*
X392188Y225650D01*
X392254Y225574D01*
X392266Y225558D01*
X392276Y225550D01*
X392278Y225548D01*
X393165Y223407D01*
X393165Y221093D01*
X392276Y218947D01*
X392234Y218893D01*
X392166Y218821D01*
X392137Y218768D01*
X392100Y218720D01*
X392060Y218629D01*
X392012Y218542D01*
X391997Y218484D01*
X391973Y218428D01*
X391958Y218330D01*
X391933Y218234D01*
X391927Y218134D01*
X391923Y218114D01*
X391925Y218102D01*
X391923Y218074D01*
X391923Y216152D01*
X391938Y216034D01*
X391945Y215915D01*
X391958Y215877D01*
X391963Y215836D01*
X392006Y215726D01*
X392043Y215613D01*
X392065Y215578D01*
X392080Y215541D01*
X392149Y215445D01*
X392213Y215344D01*
X392243Y215316D01*
X392266Y215283D01*
X392358Y215207D01*
X392445Y215126D01*
X392480Y215106D01*
X392511Y215081D01*
X392619Y215030D01*
X392723Y214972D01*
X392763Y214962D01*
X392799Y214945D01*
X392916Y214923D01*
X393031Y214893D01*
X393091Y214889D01*
X393111Y214885D01*
X393132Y214887D01*
X393192Y214883D01*
X395692Y214883D01*
X396883Y213692D01*
X396883Y203214D01*
X396900Y203076D01*
X396913Y202937D01*
X396920Y202918D01*
X396923Y202898D01*
X396974Y202769D01*
X397021Y202638D01*
X397032Y202621D01*
X397040Y202603D01*
X397121Y202490D01*
X397199Y202375D01*
X397215Y202362D01*
X397226Y202345D01*
X397334Y202256D01*
X397438Y202165D01*
X397456Y202155D01*
X397471Y202142D01*
X397597Y202083D01*
X397721Y202020D01*
X397741Y202015D01*
X397759Y202007D01*
X397895Y201981D01*
X398031Y201950D01*
X398052Y201951D01*
X398071Y201947D01*
X398210Y201956D01*
X398349Y201960D01*
X398369Y201966D01*
X398389Y201967D01*
X398521Y202010D01*
X398655Y202048D01*
X398672Y202059D01*
X398691Y202065D01*
X398809Y202139D01*
X398929Y202210D01*
X398950Y202228D01*
X398960Y202235D01*
X398974Y202250D01*
X399049Y202316D01*
X402846Y206112D01*
X402906Y206191D01*
X402974Y206263D01*
X403003Y206316D01*
X403040Y206364D01*
X403080Y206455D01*
X403128Y206541D01*
X403143Y206600D01*
X403167Y206655D01*
X403182Y206753D01*
X403207Y206849D01*
X403213Y206949D01*
X403217Y206970D01*
X403215Y206982D01*
X403217Y207010D01*
X403217Y213692D01*
X404408Y214883D01*
X406908Y214883D01*
X407026Y214898D01*
X407145Y214905D01*
X407183Y214918D01*
X407224Y214923D01*
X407334Y214966D01*
X407447Y215003D01*
X407482Y215025D01*
X407519Y215040D01*
X407615Y215109D01*
X407716Y215173D01*
X407744Y215203D01*
X407777Y215226D01*
X407853Y215318D01*
X407934Y215405D01*
X407954Y215440D01*
X407979Y215471D01*
X408030Y215579D01*
X408088Y215683D01*
X408098Y215723D01*
X408115Y215759D01*
X408137Y215876D01*
X408167Y215991D01*
X408171Y216051D01*
X408175Y216071D01*
X408173Y216092D01*
X408177Y216152D01*
X408177Y228348D01*
X408162Y228466D01*
X408155Y228585D01*
X408142Y228623D01*
X408137Y228664D01*
X408094Y228774D01*
X408057Y228887D01*
X408035Y228922D01*
X408020Y228959D01*
X407951Y229055D01*
X407887Y229156D01*
X407857Y229184D01*
X407834Y229217D01*
X407742Y229293D01*
X407655Y229374D01*
X407620Y229394D01*
X407589Y229419D01*
X407481Y229470D01*
X407377Y229528D01*
X407337Y229538D01*
X407301Y229555D01*
X407184Y229577D01*
X407069Y229607D01*
X407009Y229611D01*
X406989Y229615D01*
X406968Y229613D01*
X406908Y229617D01*
X404408Y229617D01*
X403217Y230808D01*
X403217Y245492D01*
X404202Y246476D01*
X404279Y246576D01*
X404361Y246671D01*
X404376Y246701D01*
X404397Y246728D01*
X404447Y246843D01*
X404503Y246956D01*
X404510Y246989D01*
X404523Y247020D01*
X404543Y247144D01*
X404569Y247267D01*
X404568Y247300D01*
X404573Y247334D01*
X404561Y247459D01*
X404556Y247584D01*
X404546Y247617D01*
X404543Y247650D01*
X404501Y247769D01*
X404464Y247889D01*
X404447Y247918D01*
X404436Y247950D01*
X404365Y248054D01*
X404300Y248161D01*
X404276Y248185D01*
X404257Y248213D01*
X404163Y248296D01*
X404073Y248384D01*
X404032Y248411D01*
X404019Y248423D01*
X403999Y248433D01*
X403939Y248473D01*
X403690Y248617D01*
X403217Y249090D01*
X402882Y249669D01*
X402709Y250316D01*
X402709Y254611D01*
X411480Y254611D01*
X411598Y254626D01*
X411717Y254633D01*
X411755Y254646D01*
X411795Y254651D01*
X411906Y254694D01*
X412019Y254731D01*
X412054Y254753D01*
X412091Y254768D01*
X412187Y254838D01*
X412288Y254901D01*
X412316Y254931D01*
X412348Y254955D01*
X412424Y255046D01*
X412506Y255133D01*
X412525Y255168D01*
X412551Y255199D01*
X412602Y255307D01*
X412659Y255411D01*
X412670Y255451D01*
X412687Y255487D01*
X412709Y255604D01*
X412739Y255719D01*
X412743Y255780D01*
X412747Y255800D01*
X412745Y255820D01*
X412749Y255880D01*
X412749Y257151D01*
X412751Y257151D01*
X412751Y255880D01*
X412766Y255762D01*
X412773Y255643D01*
X412786Y255605D01*
X412791Y255565D01*
X412835Y255454D01*
X412871Y255341D01*
X412893Y255306D01*
X412908Y255269D01*
X412978Y255173D01*
X413041Y255072D01*
X413071Y255044D01*
X413095Y255011D01*
X413186Y254936D01*
X413273Y254854D01*
X413308Y254834D01*
X413340Y254809D01*
X413447Y254758D01*
X413551Y254700D01*
X413591Y254690D01*
X413627Y254673D01*
X413744Y254651D01*
X413859Y254621D01*
X413920Y254617D01*
X413940Y254613D01*
X413960Y254615D01*
X414020Y254611D01*
X422791Y254611D01*
X422791Y250316D01*
X422618Y249669D01*
X422283Y249090D01*
X421810Y248617D01*
X421561Y248473D01*
X421461Y248397D01*
X421357Y248327D01*
X421335Y248301D01*
X421308Y248281D01*
X421229Y248182D01*
X421146Y248088D01*
X421131Y248058D01*
X421110Y248032D01*
X421059Y247917D01*
X421002Y247805D01*
X420994Y247772D01*
X420981Y247741D01*
X420960Y247617D01*
X420932Y247495D01*
X420933Y247461D01*
X420928Y247428D01*
X420938Y247302D01*
X420942Y247177D01*
X420951Y247144D01*
X420954Y247111D01*
X420995Y246992D01*
X421030Y246871D01*
X421047Y246842D01*
X421058Y246810D01*
X421128Y246706D01*
X421192Y246597D01*
X421224Y246561D01*
X421234Y246545D01*
X421250Y246531D01*
X421298Y246476D01*
X422283Y245492D01*
X422283Y230808D01*
X421092Y229617D01*
X418592Y229617D01*
X418474Y229602D01*
X418355Y229595D01*
X418317Y229582D01*
X418276Y229577D01*
X418166Y229534D01*
X418053Y229497D01*
X418018Y229475D01*
X417981Y229460D01*
X417885Y229391D01*
X417784Y229327D01*
X417756Y229297D01*
X417723Y229274D01*
X417647Y229182D01*
X417566Y229095D01*
X417546Y229060D01*
X417521Y229029D01*
X417470Y228921D01*
X417412Y228817D01*
X417402Y228777D01*
X417385Y228741D01*
X417363Y228624D01*
X417333Y228509D01*
X417329Y228449D01*
X417325Y228429D01*
X417327Y228408D01*
X417323Y228348D01*
X417323Y216152D01*
X417338Y216034D01*
X417345Y215915D01*
X417358Y215877D01*
X417363Y215836D01*
X417406Y215726D01*
X417443Y215613D01*
X417465Y215578D01*
X417480Y215541D01*
X417549Y215445D01*
X417613Y215344D01*
X417643Y215316D01*
X417666Y215283D01*
X417758Y215207D01*
X417845Y215126D01*
X417880Y215106D01*
X417911Y215081D01*
X418019Y215030D01*
X418123Y214972D01*
X418163Y214962D01*
X418199Y214945D01*
X418316Y214923D01*
X418431Y214893D01*
X418491Y214889D01*
X418511Y214885D01*
X418532Y214887D01*
X418592Y214883D01*
X421092Y214883D01*
X422283Y213692D01*
X422283Y199008D01*
X421022Y197747D01*
X420949Y197653D01*
X420870Y197564D01*
X420852Y197528D01*
X420827Y197496D01*
X420780Y197387D01*
X420726Y197281D01*
X420717Y197242D01*
X420701Y197204D01*
X420682Y197087D01*
X420656Y196971D01*
X420657Y196930D01*
X420651Y196890D01*
X420662Y196772D01*
X420666Y196653D01*
X420677Y196614D01*
X420681Y196574D01*
X420721Y196462D01*
X420754Y196347D01*
X420775Y196312D01*
X420788Y196274D01*
X420855Y196176D01*
X420916Y196073D01*
X420956Y196028D01*
X420967Y196011D01*
X420982Y195998D01*
X421022Y195952D01*
X422283Y194692D01*
X422283Y180008D01*
X421092Y178817D01*
X418592Y178817D01*
X418474Y178802D01*
X418355Y178795D01*
X418317Y178782D01*
X418276Y178777D01*
X418166Y178734D01*
X418053Y178697D01*
X418018Y178675D01*
X417981Y178660D01*
X417885Y178591D01*
X417784Y178527D01*
X417756Y178497D01*
X417723Y178474D01*
X417647Y178382D01*
X417566Y178295D01*
X417546Y178260D01*
X417521Y178229D01*
X417470Y178121D01*
X417412Y178017D01*
X417402Y177977D01*
X417385Y177941D01*
X417363Y177824D01*
X417333Y177709D01*
X417329Y177649D01*
X417325Y177629D01*
X417327Y177608D01*
X417323Y177548D01*
X417323Y175906D01*
X414272Y172856D01*
X375796Y134379D01*
X375778Y134356D01*
X375755Y134336D01*
X375681Y134230D01*
X375601Y134128D01*
X375589Y134100D01*
X375572Y134076D01*
X375526Y133955D01*
X375474Y133836D01*
X375470Y133807D01*
X375459Y133779D01*
X375445Y133650D01*
X375425Y133522D01*
X375427Y133492D01*
X375424Y133463D01*
X375442Y133334D01*
X375454Y133205D01*
X375464Y133177D01*
X375468Y133148D01*
X375521Y132996D01*
X376894Y129681D01*
X376894Y123819D01*
X374651Y118405D01*
X370506Y114260D01*
X365092Y112017D01*
X359230Y112017D01*
G37*
%LPD*%
%LPC*%
G36*
X511630Y112017D02*
X511630Y112017D01*
X506216Y114260D01*
X502071Y118405D01*
X499828Y123819D01*
X499828Y129141D01*
X499816Y129239D01*
X499813Y129338D01*
X499796Y129396D01*
X499788Y129457D01*
X499752Y129549D01*
X499724Y129644D01*
X499694Y129696D01*
X499671Y129752D01*
X499613Y129832D01*
X499563Y129918D01*
X499497Y129993D01*
X499485Y130010D01*
X499475Y130017D01*
X499457Y130039D01*
X481843Y147652D01*
X480567Y150733D01*
X480567Y230267D01*
X481843Y233348D01*
X509296Y260800D01*
X509356Y260879D01*
X509424Y260951D01*
X509453Y261004D01*
X509490Y261052D01*
X509530Y261143D01*
X509578Y261229D01*
X509593Y261288D01*
X509617Y261344D01*
X509632Y261442D01*
X509657Y261537D01*
X509663Y261637D01*
X509667Y261658D01*
X509665Y261670D01*
X509667Y261698D01*
X509667Y262545D01*
X511347Y266600D01*
X514450Y269703D01*
X518505Y271383D01*
X522895Y271383D01*
X526950Y269703D01*
X530053Y266600D01*
X531733Y262545D01*
X531733Y258155D01*
X530053Y254100D01*
X526950Y250997D01*
X522895Y249317D01*
X522048Y249317D01*
X521950Y249305D01*
X521851Y249302D01*
X521793Y249285D01*
X521732Y249277D01*
X521640Y249241D01*
X521545Y249213D01*
X521493Y249183D01*
X521437Y249160D01*
X521357Y249102D01*
X521271Y249052D01*
X521196Y248986D01*
X521179Y248974D01*
X521172Y248964D01*
X521150Y248946D01*
X497704Y225500D01*
X497644Y225421D01*
X497576Y225349D01*
X497547Y225296D01*
X497510Y225248D01*
X497470Y225157D01*
X497422Y225071D01*
X497407Y225012D01*
X497383Y224956D01*
X497368Y224858D01*
X497343Y224763D01*
X497337Y224663D01*
X497333Y224642D01*
X497335Y224630D01*
X497333Y224602D01*
X497333Y156398D01*
X497345Y156300D01*
X497348Y156201D01*
X497365Y156143D01*
X497373Y156082D01*
X497409Y155990D01*
X497437Y155895D01*
X497467Y155843D01*
X497490Y155787D01*
X497548Y155707D01*
X497598Y155621D01*
X497664Y155546D01*
X497676Y155529D01*
X497686Y155522D01*
X497704Y155500D01*
X511350Y141854D01*
X511429Y141794D01*
X511501Y141726D01*
X511554Y141697D01*
X511602Y141660D01*
X511693Y141620D01*
X511779Y141572D01*
X511838Y141557D01*
X511894Y141533D01*
X511992Y141518D01*
X512087Y141493D01*
X512187Y141487D01*
X512208Y141483D01*
X512220Y141485D01*
X512248Y141483D01*
X517492Y141483D01*
X522906Y139240D01*
X527051Y135095D01*
X529294Y129681D01*
X529294Y123819D01*
X527051Y118405D01*
X522906Y114260D01*
X517492Y112017D01*
X511630Y112017D01*
G37*
%LPD*%
%LPC*%
G36*
X104769Y308906D02*
X104769Y308906D01*
X99355Y311149D01*
X95210Y315294D01*
X92967Y320708D01*
X92967Y326570D01*
X95210Y331984D01*
X99355Y336129D01*
X104769Y338372D01*
X110631Y338372D01*
X116045Y336129D01*
X120190Y331984D01*
X122433Y326570D01*
X122433Y320708D01*
X120190Y315294D01*
X116045Y311149D01*
X110631Y308906D01*
X104769Y308906D01*
G37*
%LPD*%
%LPC*%
G36*
X359230Y404117D02*
X359230Y404117D01*
X353816Y406360D01*
X349671Y410505D01*
X347428Y415919D01*
X347428Y421781D01*
X349671Y427195D01*
X353816Y431340D01*
X359230Y433583D01*
X365092Y433583D01*
X370506Y431340D01*
X374651Y427195D01*
X376894Y421781D01*
X376894Y415919D01*
X374651Y410505D01*
X370506Y406360D01*
X365092Y404117D01*
X359230Y404117D01*
G37*
%LPD*%
%LPC*%
G36*
X308430Y404117D02*
X308430Y404117D01*
X303016Y406360D01*
X298871Y410505D01*
X296628Y415919D01*
X296628Y421781D01*
X298871Y427195D01*
X303016Y431340D01*
X308430Y433583D01*
X314292Y433583D01*
X319706Y431340D01*
X323851Y427195D01*
X326094Y421781D01*
X326094Y415919D01*
X323851Y410505D01*
X319706Y406360D01*
X314292Y404117D01*
X308430Y404117D01*
G37*
%LPD*%
%LPC*%
G36*
X104769Y207306D02*
X104769Y207306D01*
X99355Y209549D01*
X95210Y213694D01*
X92967Y219108D01*
X92967Y224970D01*
X95210Y230384D01*
X99355Y234529D01*
X104769Y236772D01*
X110631Y236772D01*
X116045Y234529D01*
X120190Y230384D01*
X122433Y224970D01*
X122433Y219108D01*
X120190Y213694D01*
X116045Y209549D01*
X110631Y207306D01*
X104769Y207306D01*
G37*
%LPD*%
%LPC*%
G36*
X442305Y300117D02*
X442305Y300117D01*
X438250Y301797D01*
X435147Y304900D01*
X433467Y308955D01*
X433467Y313345D01*
X435147Y317400D01*
X438250Y320503D01*
X442305Y322183D01*
X446695Y322183D01*
X450750Y320503D01*
X453853Y317400D01*
X455533Y313345D01*
X455533Y308955D01*
X453853Y304900D01*
X450750Y301797D01*
X446695Y300117D01*
X442305Y300117D01*
G37*
%LPD*%
%LPC*%
G36*
X518505Y300117D02*
X518505Y300117D01*
X514450Y301797D01*
X511347Y304900D01*
X509667Y308955D01*
X509667Y313345D01*
X511347Y317400D01*
X514450Y320503D01*
X518505Y322183D01*
X522895Y322183D01*
X526950Y320503D01*
X530053Y317400D01*
X531733Y313345D01*
X531733Y308955D01*
X530053Y304900D01*
X526950Y301797D01*
X522895Y300117D01*
X518505Y300117D01*
G37*
%LPD*%
%LPC*%
G36*
X518505Y173117D02*
X518505Y173117D01*
X514450Y174797D01*
X511347Y177900D01*
X509667Y181955D01*
X509667Y186345D01*
X511347Y190400D01*
X514450Y193503D01*
X518505Y195183D01*
X522895Y195183D01*
X526950Y193503D01*
X530053Y190400D01*
X531733Y186345D01*
X531733Y181955D01*
X530053Y177900D01*
X526950Y174797D01*
X522895Y173117D01*
X518505Y173117D01*
G37*
%LPD*%
%LPC*%
G36*
X175728Y300735D02*
X175728Y300735D01*
X171901Y302321D01*
X168971Y305251D01*
X167385Y309078D01*
X167385Y313222D01*
X168971Y317049D01*
X171901Y319979D01*
X175728Y321565D01*
X179872Y321565D01*
X183699Y319979D01*
X186629Y317049D01*
X188215Y313222D01*
X188215Y309078D01*
X186629Y305251D01*
X183699Y302321D01*
X179872Y300735D01*
X175728Y300735D01*
G37*
%LPD*%
%LPC*%
G36*
X415500Y421389D02*
X415500Y421389D01*
X415500Y433888D01*
X415941Y433830D01*
X417871Y433313D01*
X419716Y432548D01*
X421446Y431549D01*
X423031Y430333D01*
X424444Y428920D01*
X425660Y427335D01*
X426659Y425605D01*
X427424Y423760D01*
X427941Y421830D01*
X427999Y421389D01*
X415500Y421389D01*
G37*
%LPD*%
%LPC*%
G36*
X110239Y275378D02*
X110239Y275378D01*
X110239Y287877D01*
X110680Y287819D01*
X112610Y287302D01*
X114455Y286537D01*
X116185Y285538D01*
X117770Y284322D01*
X119183Y282909D01*
X120399Y281324D01*
X121398Y279594D01*
X122163Y277749D01*
X122680Y275819D01*
X122738Y275378D01*
X110239Y275378D01*
G37*
%LPD*%
%LPC*%
G36*
X415500Y129289D02*
X415500Y129289D01*
X415500Y141788D01*
X415941Y141730D01*
X417871Y141213D01*
X419716Y140448D01*
X421446Y139449D01*
X423031Y138233D01*
X424444Y136820D01*
X425660Y135235D01*
X426659Y133505D01*
X427424Y131660D01*
X427941Y129730D01*
X427999Y129289D01*
X415500Y129289D01*
G37*
%LPD*%
%LPC*%
G36*
X397923Y421389D02*
X397923Y421389D01*
X397981Y421830D01*
X398498Y423760D01*
X399263Y425605D01*
X400262Y427335D01*
X401478Y428920D01*
X402891Y430333D01*
X404476Y431549D01*
X406206Y432548D01*
X408051Y433313D01*
X409981Y433830D01*
X410422Y433888D01*
X410422Y421389D01*
X397923Y421389D01*
G37*
%LPD*%
%LPC*%
G36*
X397923Y129289D02*
X397923Y129289D01*
X397981Y129730D01*
X398498Y131660D01*
X399263Y133505D01*
X400262Y135235D01*
X401478Y136820D01*
X402891Y138233D01*
X404476Y139449D01*
X406206Y140448D01*
X408051Y141213D01*
X409981Y141730D01*
X410422Y141788D01*
X410422Y129289D01*
X397923Y129289D01*
G37*
%LPD*%
%LPC*%
G36*
X110239Y270300D02*
X110239Y270300D01*
X122738Y270300D01*
X122680Y269859D01*
X122163Y267929D01*
X121398Y266084D01*
X120399Y264354D01*
X119183Y262769D01*
X117770Y261356D01*
X116185Y260140D01*
X114455Y259141D01*
X112610Y258376D01*
X110680Y257859D01*
X110239Y257801D01*
X110239Y270300D01*
G37*
%LPD*%
%LPC*%
G36*
X415500Y416311D02*
X415500Y416311D01*
X427999Y416311D01*
X427941Y415870D01*
X427424Y413940D01*
X426659Y412095D01*
X425660Y410365D01*
X424444Y408780D01*
X423031Y407367D01*
X421446Y406151D01*
X419716Y405152D01*
X417871Y404387D01*
X415941Y403870D01*
X415500Y403812D01*
X415500Y416311D01*
G37*
%LPD*%
%LPC*%
G36*
X92662Y275378D02*
X92662Y275378D01*
X92720Y275819D01*
X93237Y277749D01*
X94002Y279594D01*
X95001Y281324D01*
X96217Y282909D01*
X97630Y284322D01*
X99215Y285538D01*
X100945Y286537D01*
X102790Y287302D01*
X104720Y287819D01*
X105161Y287877D01*
X105161Y275378D01*
X92662Y275378D01*
G37*
%LPD*%
%LPC*%
G36*
X104720Y257859D02*
X104720Y257859D01*
X102790Y258376D01*
X100945Y259141D01*
X99215Y260140D01*
X97630Y261356D01*
X96217Y262769D01*
X95001Y264354D01*
X94002Y266084D01*
X93237Y267929D01*
X92720Y269859D01*
X92662Y270300D01*
X105161Y270300D01*
X105161Y257801D01*
X104720Y257859D01*
G37*
%LPD*%
%LPC*%
G36*
X409981Y403870D02*
X409981Y403870D01*
X408051Y404387D01*
X406206Y405152D01*
X404476Y406151D01*
X402891Y407367D01*
X401478Y408780D01*
X400262Y410365D01*
X399263Y412095D01*
X398498Y413940D01*
X397981Y415870D01*
X397923Y416311D01*
X410422Y416311D01*
X410422Y403812D01*
X409981Y403870D01*
G37*
%LPD*%
%LPC*%
G36*
X409981Y111770D02*
X409981Y111770D01*
X408051Y112287D01*
X406206Y113052D01*
X404476Y114051D01*
X402891Y115267D01*
X401478Y116680D01*
X400262Y118265D01*
X399263Y119995D01*
X398498Y121840D01*
X397981Y123770D01*
X397923Y124211D01*
X410422Y124211D01*
X410422Y111712D01*
X409981Y111770D01*
G37*
%LPD*%
%LPC*%
G36*
X179831Y262381D02*
X179831Y262381D01*
X179831Y271087D01*
X180358Y271004D01*
X181993Y270473D01*
X183525Y269692D01*
X184916Y268681D01*
X186131Y267466D01*
X187142Y266075D01*
X187923Y264543D01*
X188454Y262908D01*
X188537Y262381D01*
X179831Y262381D01*
G37*
%LPD*%
%LPC*%
G36*
X179831Y258319D02*
X179831Y258319D01*
X188537Y258319D01*
X188454Y257792D01*
X187923Y256157D01*
X187142Y254625D01*
X186131Y253234D01*
X184916Y252019D01*
X183525Y251008D01*
X181993Y250227D01*
X180358Y249696D01*
X179831Y249613D01*
X179831Y258319D01*
G37*
%LPD*%
%LPC*%
G36*
X167063Y262381D02*
X167063Y262381D01*
X167146Y262908D01*
X167677Y264543D01*
X168458Y266075D01*
X169469Y267466D01*
X170684Y268681D01*
X172075Y269692D01*
X173607Y270473D01*
X175242Y271004D01*
X175769Y271087D01*
X175769Y262381D01*
X167063Y262381D01*
G37*
%LPD*%
%LPC*%
G36*
X175242Y249696D02*
X175242Y249696D01*
X173607Y250227D01*
X172075Y251008D01*
X170684Y252019D01*
X169469Y253234D01*
X168458Y254625D01*
X167677Y256157D01*
X167146Y257792D01*
X167063Y258319D01*
X175769Y258319D01*
X175769Y249613D01*
X175242Y249696D01*
G37*
%LPD*%
%LPC*%
G36*
X224281Y427481D02*
X224281Y427481D01*
X224281Y435992D01*
X226617Y435992D01*
X232792Y429817D01*
X232792Y427481D01*
X224281Y427481D01*
G37*
%LPD*%
%LPC*%
G36*
X211708Y427481D02*
X211708Y427481D01*
X211708Y429817D01*
X217883Y435992D01*
X220219Y435992D01*
X220219Y427481D01*
X211708Y427481D01*
G37*
%LPD*%
%LPC*%
G36*
X224281Y414908D02*
X224281Y414908D01*
X224281Y423419D01*
X232792Y423419D01*
X232792Y421083D01*
X226617Y414908D01*
X224281Y414908D01*
G37*
%LPD*%
%LPC*%
G36*
X217883Y414908D02*
X217883Y414908D01*
X211708Y421083D01*
X211708Y423419D01*
X220219Y423419D01*
X220219Y414908D01*
X217883Y414908D01*
G37*
%LPD*%
%LPC*%
G36*
X243331Y122681D02*
X243331Y122681D01*
X243331Y131001D01*
X243769Y130932D01*
X245347Y130419D01*
X246825Y129666D01*
X248167Y128691D01*
X249341Y127517D01*
X250316Y126175D01*
X251069Y124697D01*
X251582Y123119D01*
X251651Y122681D01*
X243331Y122681D01*
G37*
%LPD*%
%LPC*%
G36*
X230949Y122681D02*
X230949Y122681D01*
X231018Y123119D01*
X231531Y124697D01*
X232284Y126175D01*
X233259Y127517D01*
X234433Y128691D01*
X235775Y129666D01*
X237253Y130419D01*
X238831Y130932D01*
X239269Y131001D01*
X239269Y122681D01*
X230949Y122681D01*
G37*
%LPD*%
%LPC*%
G36*
X243331Y118619D02*
X243331Y118619D01*
X251651Y118619D01*
X251582Y118181D01*
X251069Y116603D01*
X250316Y115125D01*
X249341Y113783D01*
X248167Y112609D01*
X246825Y111634D01*
X245347Y110881D01*
X243769Y110368D01*
X243331Y110299D01*
X243331Y118619D01*
G37*
%LPD*%
%LPC*%
G36*
X238831Y110368D02*
X238831Y110368D01*
X237253Y110881D01*
X235775Y111634D01*
X234433Y112609D01*
X233259Y113783D01*
X232284Y115125D01*
X231531Y116603D01*
X231018Y118181D01*
X230949Y118619D01*
X239269Y118619D01*
X239269Y110299D01*
X238831Y110368D01*
G37*
%LPD*%
%LPC*%
G36*
X389889Y259689D02*
X389889Y259689D01*
X389889Y266191D01*
X395184Y266191D01*
X395831Y266018D01*
X396410Y265683D01*
X396883Y265210D01*
X397218Y264631D01*
X397391Y263984D01*
X397391Y259689D01*
X389889Y259689D01*
G37*
%LPD*%
%LPC*%
G36*
X364489Y259689D02*
X364489Y259689D01*
X364489Y266191D01*
X369784Y266191D01*
X370431Y266018D01*
X371010Y265683D01*
X371483Y265210D01*
X371818Y264631D01*
X371991Y263984D01*
X371991Y259689D01*
X364489Y259689D01*
G37*
%LPD*%
%LPC*%
G36*
X415289Y259689D02*
X415289Y259689D01*
X415289Y266191D01*
X420584Y266191D01*
X421231Y266018D01*
X421810Y265683D01*
X422283Y265210D01*
X422618Y264631D01*
X422791Y263984D01*
X422791Y259689D01*
X415289Y259689D01*
G37*
%LPD*%
%LPC*%
G36*
X338683Y259689D02*
X338683Y259689D01*
X338683Y266191D01*
X343978Y266191D01*
X344624Y266018D01*
X345204Y265683D01*
X345677Y265210D01*
X346011Y264631D01*
X346184Y263984D01*
X346184Y259689D01*
X338683Y259689D01*
G37*
%LPD*%
%LPC*%
G36*
X377309Y259689D02*
X377309Y259689D01*
X377309Y263984D01*
X377482Y264631D01*
X377817Y265210D01*
X378290Y265683D01*
X378869Y266018D01*
X379516Y266191D01*
X384811Y266191D01*
X384811Y259689D01*
X377309Y259689D01*
G37*
%LPD*%
%LPC*%
G36*
X351909Y259689D02*
X351909Y259689D01*
X351909Y263984D01*
X352082Y264631D01*
X352417Y265210D01*
X352890Y265683D01*
X353469Y266018D01*
X354116Y266191D01*
X359411Y266191D01*
X359411Y259689D01*
X351909Y259689D01*
G37*
%LPD*%
%LPC*%
G36*
X326103Y259689D02*
X326103Y259689D01*
X326103Y263984D01*
X326276Y264631D01*
X326610Y265210D01*
X327084Y265683D01*
X327663Y266018D01*
X328309Y266191D01*
X333604Y266191D01*
X333604Y259689D01*
X326103Y259689D01*
G37*
%LPD*%
%LPC*%
G36*
X402709Y259689D02*
X402709Y259689D01*
X402709Y263984D01*
X402882Y264631D01*
X403217Y265210D01*
X403690Y265683D01*
X404269Y266018D01*
X404916Y266191D01*
X410211Y266191D01*
X410211Y259689D01*
X402709Y259689D01*
G37*
%LPD*%
%LPC*%
G36*
X415289Y279909D02*
X415289Y279909D01*
X415289Y286411D01*
X422791Y286411D01*
X422791Y282116D01*
X422618Y281469D01*
X422283Y280890D01*
X421810Y280417D01*
X421231Y280082D01*
X420584Y279909D01*
X415289Y279909D01*
G37*
%LPD*%
%LPC*%
G36*
X339089Y279909D02*
X339089Y279909D01*
X339089Y286411D01*
X346591Y286411D01*
X346591Y282116D01*
X346418Y281469D01*
X346083Y280890D01*
X345610Y280417D01*
X345031Y280082D01*
X344384Y279909D01*
X339089Y279909D01*
G37*
%LPD*%
%LPC*%
G36*
X364489Y279909D02*
X364489Y279909D01*
X364489Y286411D01*
X371991Y286411D01*
X371991Y282116D01*
X371818Y281469D01*
X371483Y280890D01*
X371010Y280417D01*
X370431Y280082D01*
X369784Y279909D01*
X364489Y279909D01*
G37*
%LPD*%
%LPC*%
G36*
X389889Y279909D02*
X389889Y279909D01*
X389889Y286411D01*
X397391Y286411D01*
X397391Y282116D01*
X397218Y281469D01*
X396883Y280890D01*
X396410Y280417D01*
X395831Y280082D01*
X395184Y279909D01*
X389889Y279909D01*
G37*
%LPD*%
%LPC*%
G36*
X328716Y279909D02*
X328716Y279909D01*
X328069Y280082D01*
X327490Y280417D01*
X327017Y280890D01*
X326682Y281469D01*
X326509Y282116D01*
X326509Y286411D01*
X334011Y286411D01*
X334011Y279909D01*
X328716Y279909D01*
G37*
%LPD*%
%LPC*%
G36*
X354116Y279909D02*
X354116Y279909D01*
X353469Y280082D01*
X352890Y280417D01*
X352417Y280890D01*
X352082Y281469D01*
X351909Y282116D01*
X351909Y286411D01*
X359411Y286411D01*
X359411Y279909D01*
X354116Y279909D01*
G37*
%LPD*%
%LPC*%
G36*
X404916Y279909D02*
X404916Y279909D01*
X404269Y280082D01*
X403690Y280417D01*
X403217Y280890D01*
X402882Y281469D01*
X402709Y282116D01*
X402709Y286411D01*
X410211Y286411D01*
X410211Y279909D01*
X404916Y279909D01*
G37*
%LPD*%
%LPC*%
G36*
X379516Y279909D02*
X379516Y279909D01*
X378869Y280082D01*
X378290Y280417D01*
X377817Y280890D01*
X377482Y281469D01*
X377309Y282116D01*
X377309Y286411D01*
X384811Y286411D01*
X384811Y279909D01*
X379516Y279909D01*
G37*
%LPD*%
%LPC*%
G36*
X412960Y418849D02*
X412960Y418849D01*
X412960Y418851D01*
X412962Y418851D01*
X412962Y418849D01*
X412960Y418849D01*
G37*
%LPD*%
%LPC*%
G36*
X412960Y126749D02*
X412960Y126749D01*
X412960Y126751D01*
X412962Y126751D01*
X412962Y126749D01*
X412960Y126749D01*
G37*
%LPD*%
%LPC*%
G36*
X107699Y272838D02*
X107699Y272838D01*
X107699Y272840D01*
X107701Y272840D01*
X107701Y272838D01*
X107699Y272838D01*
G37*
%LPD*%
D10*
X222250Y425450D03*
D11*
X196850Y425450D03*
D12*
X177800Y195550D03*
X177800Y223550D03*
D13*
X215900Y120650D03*
D11*
X241300Y120650D03*
D14*
X412750Y307950D03*
X412750Y288950D03*
X387350Y307950D03*
X387350Y288950D03*
X361950Y307950D03*
X361950Y288950D03*
X336550Y307950D03*
X336550Y288950D03*
D15*
X240700Y254000D03*
X292700Y254000D03*
X240700Y266700D03*
X240700Y241300D03*
X240700Y228600D03*
X292700Y266700D03*
X292700Y241300D03*
X292700Y228600D03*
X240700Y203200D03*
X292700Y203200D03*
X240700Y215900D03*
X240700Y190500D03*
X292700Y215900D03*
X292700Y190500D03*
D14*
X209550Y244500D03*
X209550Y263500D03*
X177800Y168250D03*
X177800Y149250D03*
X209550Y301650D03*
X209550Y320650D03*
X209550Y193700D03*
X209550Y212700D03*
X387350Y358750D03*
X387350Y339750D03*
X412750Y358750D03*
X412750Y339750D03*
X209550Y352450D03*
X209550Y371450D03*
X361950Y358750D03*
X361950Y339750D03*
X336550Y358750D03*
X336550Y339750D03*
X177800Y371450D03*
X177800Y352450D03*
D16*
X177800Y260350D03*
X177800Y311150D03*
X177800Y285750D03*
D17*
X107700Y222039D03*
X107700Y272839D03*
X107700Y323639D03*
D15*
X240700Y355600D03*
X292700Y355600D03*
X240700Y368300D03*
X240700Y342900D03*
X240700Y330200D03*
X292700Y368300D03*
X292700Y342900D03*
X292700Y330200D03*
X240700Y304800D03*
X292700Y304800D03*
X240700Y317500D03*
X240700Y292100D03*
X292700Y317500D03*
X292700Y292100D03*
D14*
X412750Y238150D03*
X412750Y257150D03*
X387350Y238150D03*
X387350Y257150D03*
X412750Y187350D03*
X412750Y206350D03*
X387350Y187350D03*
X387350Y206350D03*
X361950Y238150D03*
X361950Y257150D03*
X336144Y238150D03*
X336144Y257150D03*
X361950Y187350D03*
X361950Y206350D03*
X336550Y187350D03*
X336550Y206350D03*
D18*
X444500Y184150D03*
X520700Y184150D03*
X520700Y260350D03*
X520700Y311150D03*
X520700Y361950D03*
X444500Y260350D03*
X444500Y311150D03*
X444500Y361950D03*
D17*
X514561Y418850D03*
X463761Y418850D03*
X412961Y418850D03*
X362161Y418850D03*
X311361Y418850D03*
X514561Y126750D03*
X463761Y126750D03*
X412961Y126750D03*
X362161Y126750D03*
X311361Y126750D03*
D19*
X317500Y342900D02*
X292700Y342900D01*
D20*
X317500Y342900D03*
D19*
X178234Y223550D02*
X177800Y223550D01*
X292700Y241300D02*
X304800Y241300D01*
X317500Y254000D01*
X317703Y254000D01*
D20*
X317703Y254000D03*
D19*
X209550Y193700D02*
X209550Y171450D01*
X190500Y152400D01*
X180950Y152400D01*
X177800Y149250D01*
X187300Y149250D01*
X215900Y120650D01*
X209550Y193700D02*
X200000Y193700D01*
X196850Y196850D01*
X189200Y223550D02*
X177800Y223550D01*
X196850Y215900D02*
X196850Y196850D01*
X196850Y215900D02*
X189200Y223550D01*
D20*
X260350Y241300D03*
D19*
X177800Y371450D02*
X177800Y381000D01*
X177800Y371450D02*
X177800Y406400D01*
X196850Y425450D01*
X228600Y342900D02*
X240700Y342900D01*
X228600Y342900D02*
X222686Y336986D01*
D20*
X222686Y336986D03*
D19*
X209550Y323850D02*
X209550Y320650D01*
X209550Y323850D02*
X222686Y336986D01*
X240700Y241300D02*
X260350Y241300D01*
D20*
X260350Y304800D03*
X273050Y317500D03*
D19*
X260350Y304800D02*
X240700Y304800D01*
X273050Y317500D02*
X292700Y317500D01*
X260350Y203200D02*
X240700Y203200D01*
D20*
X260350Y203200D03*
X273050Y215900D03*
D19*
X292700Y215900D01*
D21*
X209550Y212700D02*
X209550Y244500D01*
D19*
X222250Y203200D02*
X240700Y203200D01*
X212750Y212700D02*
X209550Y212700D01*
X212750Y212700D02*
X222250Y203200D01*
X412750Y307950D02*
X412750Y339750D01*
X409550Y339750D01*
X393700Y355600D01*
X390500Y355600D01*
X387350Y358750D01*
X361950Y339750D02*
X361950Y307950D01*
X361950Y339750D02*
X358750Y339750D01*
X342900Y355600D01*
X339700Y355600D01*
X336550Y358750D01*
X177800Y352450D02*
X161950Y352450D01*
X152400Y342900D01*
X152400Y292100D01*
X158750Y285750D01*
X177800Y352450D02*
X209550Y352450D01*
X177800Y195550D02*
X177800Y190500D01*
X177800Y168250D01*
X158750Y209550D02*
X158750Y285750D01*
X158750Y209550D02*
X177800Y190500D01*
X177800Y285750D02*
X158750Y285750D01*
D20*
X139700Y228600D03*
D19*
X139700Y152400D01*
X190500Y101600D01*
X444500Y127000D02*
X444500Y184150D01*
X419100Y101600D02*
X190500Y101600D01*
X419100Y101600D02*
X444500Y127000D01*
X260350Y317500D02*
X240700Y317500D01*
X260350Y317500D02*
X273050Y304800D01*
X292700Y304800D01*
X260350Y215900D02*
X240700Y215900D01*
X260350Y215900D02*
X273050Y203200D01*
X292700Y203200D01*
X225128Y257472D02*
X215900Y266700D01*
X225128Y257472D02*
X225128Y219372D01*
X215900Y266700D02*
X212700Y266700D01*
X209550Y263500D01*
X209550Y301650D01*
X228600Y317500D02*
X240700Y317500D01*
X212750Y301650D02*
X209550Y301650D01*
X212750Y301650D02*
X228600Y317500D01*
X228600Y215900D02*
X240700Y215900D01*
X228600Y215900D02*
X225128Y219372D01*
X387350Y323850D02*
X387350Y339750D01*
D20*
X387350Y323850D03*
D19*
X387350Y307950D01*
D20*
X317500Y285750D03*
D19*
X311150Y292100D02*
X292700Y292100D01*
X311150Y292100D02*
X317500Y285750D01*
X292700Y292100D02*
X240700Y292100D01*
D20*
X241300Y279400D03*
D19*
X241300Y291500D01*
X240700Y292100D01*
X336550Y307950D02*
X336550Y317500D01*
X336550Y323850D02*
X336550Y339750D01*
X336550Y317500D02*
X330200Y317500D01*
X317500Y330200D01*
X292700Y330200D01*
X336550Y323850D02*
X336550Y317500D01*
D20*
X336550Y323850D03*
D19*
X292700Y330200D02*
X266700Y330200D01*
X240700Y330200D01*
D20*
X266700Y330200D03*
D19*
X387350Y238150D02*
X387350Y222250D01*
D20*
X387350Y222250D03*
D19*
X387350Y206350D01*
D20*
X318372Y185022D03*
D19*
X312894Y190500D02*
X292700Y190500D01*
X312894Y190500D02*
X318372Y185022D01*
X266700Y190500D02*
X240700Y190500D01*
X266700Y190500D02*
X292700Y190500D01*
D20*
X266700Y190500D03*
D19*
X264696Y228600D02*
X292700Y228600D01*
X264696Y228600D02*
X240700Y228600D01*
X336550Y222250D02*
X336550Y206350D01*
X336550Y222250D02*
X336550Y237744D01*
X336144Y238150D01*
X314300Y228600D02*
X292700Y228600D01*
X314300Y228600D02*
X336550Y206350D01*
D20*
X336550Y222250D03*
X264696Y228600D03*
D19*
X412750Y238150D02*
X412750Y206350D01*
X409550Y206350D01*
X393700Y190500D01*
X390500Y190500D01*
X387350Y187350D01*
X361950Y206350D02*
X358750Y206350D01*
X342900Y190500D01*
X339700Y190500D01*
X336550Y187350D01*
X361950Y209550D02*
X361950Y238150D01*
X361950Y209550D02*
X358750Y206350D01*
X266700Y368300D02*
X240700Y368300D01*
X266700Y368300D02*
X292700Y368300D01*
X266700Y355600D02*
X240700Y355600D01*
X266700Y355600D02*
X273050Y355600D01*
X266700Y355600D02*
X266700Y368300D01*
X266700Y266700D02*
X240700Y266700D01*
X273050Y266700D02*
X292700Y266700D01*
X273050Y266700D02*
X266700Y266700D01*
X266700Y254000D02*
X240700Y254000D01*
X266700Y254000D02*
X292700Y254000D01*
X266700Y254000D02*
X266700Y266700D01*
D20*
X273050Y355600D03*
D19*
X292700Y355600D01*
X225450Y371450D02*
X209550Y371450D01*
X225450Y371450D02*
X228600Y368300D01*
X240700Y368300D01*
D20*
X273050Y266700D03*
D19*
X362161Y127211D02*
X362161Y126750D01*
X362161Y127211D02*
X412750Y177800D01*
X412750Y187350D01*
X311361Y127211D02*
X311361Y126750D01*
X311361Y127211D02*
X361950Y177800D01*
X361950Y187350D01*
D22*
X514561Y368089D02*
X514561Y418850D01*
X514561Y368089D02*
X520700Y361950D01*
D19*
X415950Y358750D02*
X412750Y358750D01*
X415950Y358750D02*
X431800Y342900D01*
X501650Y342900D01*
X520700Y361950D01*
D22*
X463761Y393700D02*
X463761Y418850D01*
X463761Y393700D02*
X463761Y381211D01*
X444500Y361950D01*
D19*
X361950Y358750D02*
X361950Y374650D01*
X381000Y393700D01*
X463761Y393700D01*
D22*
X463761Y241089D02*
X463761Y126750D01*
X463761Y241089D02*
X444500Y260350D01*
X514561Y126789D02*
X514561Y126750D01*
X514561Y126789D02*
X488950Y152400D01*
X488950Y228600D01*
X520700Y260350D01*
M02*
