M48
;GenerationSoftware,Autodesk,EAGLE,8.7.0*%
;CreationDate,2018-05-03T09:05:18Z*%
FMAT,2
ICI,OFF
METRIC,TZ,000.000
T4C0.350
T3C0.813
T2C1.000
T1C1.300
%
G90
M71
T1
X36216Y12675
X41296Y12675
X46376Y12675
X51456Y12675
X31136Y41885
X31136Y12675
X41296Y41885
X46376Y41885
X51456Y41885
X36216Y41885
X10770Y32364
X10770Y27284
X10770Y22204
T2
X44450Y26035
X44450Y36195
X44450Y31115
X52070Y36195
X52070Y31115
X52070Y26035
X52070Y18415
X44450Y18415
X8890Y44450
X8890Y10160
X55880Y10160
X55880Y44450
T3
X22225Y42545
X19685Y42545
X21590Y12065
X24130Y12065
X17780Y26035
X17780Y31115
X17780Y28575
T4
X27305Y26670
X27305Y35560
X26470Y22860
X33655Y22225
X26670Y19050
X31837Y18502
X38735Y22225
X26670Y33020
X33655Y32385
X24130Y27940
X31750Y28575
X38735Y32385
X13970Y22860
X27305Y21590
X26035Y20320
X27305Y31750
X26035Y30480
X22269Y33699
X26035Y24130
X31770Y25400
X31750Y34290
M30