G04 EAGLE Gerber X2 export*
%TF.Part,Single*%
%TF.FileFunction,Legend,Top,1*%
%TF.FilePolarity,Positive*%
%TF.GenerationSoftware,Autodesk,EAGLE,8.7.0*%
%TF.CreationDate,2018-05-03T09:05:19Z*%
G75*
%MOMM*%
%FSLAX34Y34*%
%LPD*%
%AMOC8*
5,1,8,0,0,1.08239X$1,22.5*%
G01*
%ADD10C,0.152400*%
%ADD11C,0.127000*%
%ADD12C,0.050800*%
%ADD13C,0.076200*%
%ADD14C,0.012700*%
%ADD15C,0.203200*%
%ADD16C,0.101600*%


D10*
X179070Y425450D02*
X186690Y425450D01*
X182880Y421640D02*
X182880Y429260D01*
X175260Y425450D02*
X175270Y426292D01*
X175301Y427133D01*
X175353Y427973D01*
X175425Y428811D01*
X175518Y429647D01*
X175631Y430481D01*
X175765Y431312D01*
X175919Y432140D01*
X176093Y432963D01*
X176288Y433782D01*
X176502Y434596D01*
X176737Y435404D01*
X176991Y436206D01*
X177264Y437002D01*
X177558Y437791D01*
X177870Y438572D01*
X178202Y439346D01*
X178552Y440111D01*
X178921Y440867D01*
X179309Y441614D01*
X179715Y442351D01*
X180138Y443079D01*
X180580Y443795D01*
X181039Y444501D01*
X181515Y445194D01*
X182008Y445877D01*
X182518Y446546D01*
X183043Y447203D01*
X183585Y447847D01*
X184143Y448478D01*
X184716Y449094D01*
X185303Y449697D01*
X185906Y450284D01*
X186522Y450857D01*
X187153Y451415D01*
X187797Y451957D01*
X188454Y452482D01*
X189123Y452992D01*
X189806Y453485D01*
X190499Y453961D01*
X191205Y454420D01*
X191921Y454862D01*
X192649Y455285D01*
X193386Y455691D01*
X194133Y456079D01*
X194889Y456448D01*
X195654Y456798D01*
X196428Y457130D01*
X197209Y457442D01*
X197998Y457736D01*
X198794Y458009D01*
X199596Y458263D01*
X200404Y458498D01*
X201218Y458712D01*
X202037Y458907D01*
X202860Y459081D01*
X203688Y459235D01*
X204519Y459369D01*
X205353Y459482D01*
X206189Y459575D01*
X207027Y459647D01*
X207867Y459699D01*
X208708Y459730D01*
X209550Y459740D01*
X210392Y459730D01*
X211233Y459699D01*
X212073Y459647D01*
X212911Y459575D01*
X213747Y459482D01*
X214581Y459369D01*
X215412Y459235D01*
X216240Y459081D01*
X217063Y458907D01*
X217882Y458712D01*
X218696Y458498D01*
X219504Y458263D01*
X220306Y458009D01*
X221102Y457736D01*
X221891Y457442D01*
X222672Y457130D01*
X223446Y456798D01*
X224211Y456448D01*
X224967Y456079D01*
X225714Y455691D01*
X226451Y455285D01*
X227179Y454862D01*
X227895Y454420D01*
X228601Y453961D01*
X229294Y453485D01*
X229977Y452992D01*
X230646Y452482D01*
X231303Y451957D01*
X231947Y451415D01*
X232578Y450857D01*
X233194Y450284D01*
X233797Y449697D01*
X234384Y449094D01*
X234957Y448478D01*
X235515Y447847D01*
X236057Y447203D01*
X236582Y446546D01*
X237092Y445877D01*
X237585Y445194D01*
X238061Y444501D01*
X238520Y443795D01*
X238962Y443079D01*
X239385Y442351D01*
X239791Y441614D01*
X240179Y440867D01*
X240548Y440111D01*
X240898Y439346D01*
X241230Y438572D01*
X241542Y437791D01*
X241836Y437002D01*
X242109Y436206D01*
X242363Y435404D01*
X242598Y434596D01*
X242812Y433782D01*
X243007Y432963D01*
X243181Y432140D01*
X243335Y431312D01*
X243469Y430481D01*
X243582Y429647D01*
X243675Y428811D01*
X243747Y427973D01*
X243799Y427133D01*
X243830Y426292D01*
X243840Y425450D01*
X243830Y424608D01*
X243799Y423767D01*
X243747Y422927D01*
X243675Y422089D01*
X243582Y421253D01*
X243469Y420419D01*
X243335Y419588D01*
X243181Y418760D01*
X243007Y417937D01*
X242812Y417118D01*
X242598Y416304D01*
X242363Y415496D01*
X242109Y414694D01*
X241836Y413898D01*
X241542Y413109D01*
X241230Y412328D01*
X240898Y411554D01*
X240548Y410789D01*
X240179Y410033D01*
X239791Y409286D01*
X239385Y408549D01*
X238962Y407821D01*
X238520Y407105D01*
X238061Y406399D01*
X237585Y405706D01*
X237092Y405023D01*
X236582Y404354D01*
X236057Y403697D01*
X235515Y403053D01*
X234957Y402422D01*
X234384Y401806D01*
X233797Y401203D01*
X233194Y400616D01*
X232578Y400043D01*
X231947Y399485D01*
X231303Y398943D01*
X230646Y398418D01*
X229977Y397908D01*
X229294Y397415D01*
X228601Y396939D01*
X227895Y396480D01*
X227179Y396038D01*
X226451Y395615D01*
X225714Y395209D01*
X224967Y394821D01*
X224211Y394452D01*
X223446Y394102D01*
X222672Y393770D01*
X221891Y393458D01*
X221102Y393164D01*
X220306Y392891D01*
X219504Y392637D01*
X218696Y392402D01*
X217882Y392188D01*
X217063Y391993D01*
X216240Y391819D01*
X215412Y391665D01*
X214581Y391531D01*
X213747Y391418D01*
X212911Y391325D01*
X212073Y391253D01*
X211233Y391201D01*
X210392Y391170D01*
X209550Y391160D01*
X208708Y391170D01*
X207867Y391201D01*
X207027Y391253D01*
X206189Y391325D01*
X205353Y391418D01*
X204519Y391531D01*
X203688Y391665D01*
X202860Y391819D01*
X202037Y391993D01*
X201218Y392188D01*
X200404Y392402D01*
X199596Y392637D01*
X198794Y392891D01*
X197998Y393164D01*
X197209Y393458D01*
X196428Y393770D01*
X195654Y394102D01*
X194889Y394452D01*
X194133Y394821D01*
X193386Y395209D01*
X192649Y395615D01*
X191921Y396038D01*
X191205Y396480D01*
X190499Y396939D01*
X189806Y397415D01*
X189123Y397908D01*
X188454Y398418D01*
X187797Y398943D01*
X187153Y399485D01*
X186522Y400043D01*
X185906Y400616D01*
X185303Y401203D01*
X184716Y401806D01*
X184143Y402422D01*
X183585Y403053D01*
X183043Y403697D01*
X182518Y404354D01*
X182008Y405023D01*
X181515Y405706D01*
X181039Y406399D01*
X180580Y407105D01*
X180138Y407821D01*
X179715Y408549D01*
X179309Y409286D01*
X178921Y410033D01*
X178552Y410789D01*
X178202Y411554D01*
X177870Y412328D01*
X177558Y413109D01*
X177264Y413898D01*
X176991Y414694D01*
X176737Y415496D01*
X176502Y416304D01*
X176288Y417118D01*
X176093Y417937D01*
X175919Y418760D01*
X175765Y419588D01*
X175631Y420419D01*
X175518Y421253D01*
X175425Y422089D01*
X175353Y422927D01*
X175301Y423767D01*
X175270Y424608D01*
X175260Y425450D01*
D11*
X162560Y234950D02*
X162560Y184150D01*
X162560Y234950D02*
X193040Y234950D01*
X193040Y184150D01*
X162560Y184150D01*
D10*
X251460Y120650D02*
X259080Y120650D01*
X255270Y124460D02*
X255270Y116840D01*
X194310Y120650D02*
X194320Y121492D01*
X194351Y122333D01*
X194403Y123173D01*
X194475Y124011D01*
X194568Y124847D01*
X194681Y125681D01*
X194815Y126512D01*
X194969Y127340D01*
X195143Y128163D01*
X195338Y128982D01*
X195552Y129796D01*
X195787Y130604D01*
X196041Y131406D01*
X196314Y132202D01*
X196608Y132991D01*
X196920Y133772D01*
X197252Y134546D01*
X197602Y135311D01*
X197971Y136067D01*
X198359Y136814D01*
X198765Y137551D01*
X199188Y138279D01*
X199630Y138995D01*
X200089Y139701D01*
X200565Y140394D01*
X201058Y141077D01*
X201568Y141746D01*
X202093Y142403D01*
X202635Y143047D01*
X203193Y143678D01*
X203766Y144294D01*
X204353Y144897D01*
X204956Y145484D01*
X205572Y146057D01*
X206203Y146615D01*
X206847Y147157D01*
X207504Y147682D01*
X208173Y148192D01*
X208856Y148685D01*
X209549Y149161D01*
X210255Y149620D01*
X210971Y150062D01*
X211699Y150485D01*
X212436Y150891D01*
X213183Y151279D01*
X213939Y151648D01*
X214704Y151998D01*
X215478Y152330D01*
X216259Y152642D01*
X217048Y152936D01*
X217844Y153209D01*
X218646Y153463D01*
X219454Y153698D01*
X220268Y153912D01*
X221087Y154107D01*
X221910Y154281D01*
X222738Y154435D01*
X223569Y154569D01*
X224403Y154682D01*
X225239Y154775D01*
X226077Y154847D01*
X226917Y154899D01*
X227758Y154930D01*
X228600Y154940D01*
X229442Y154930D01*
X230283Y154899D01*
X231123Y154847D01*
X231961Y154775D01*
X232797Y154682D01*
X233631Y154569D01*
X234462Y154435D01*
X235290Y154281D01*
X236113Y154107D01*
X236932Y153912D01*
X237746Y153698D01*
X238554Y153463D01*
X239356Y153209D01*
X240152Y152936D01*
X240941Y152642D01*
X241722Y152330D01*
X242496Y151998D01*
X243261Y151648D01*
X244017Y151279D01*
X244764Y150891D01*
X245501Y150485D01*
X246229Y150062D01*
X246945Y149620D01*
X247651Y149161D01*
X248344Y148685D01*
X249027Y148192D01*
X249696Y147682D01*
X250353Y147157D01*
X250997Y146615D01*
X251628Y146057D01*
X252244Y145484D01*
X252847Y144897D01*
X253434Y144294D01*
X254007Y143678D01*
X254565Y143047D01*
X255107Y142403D01*
X255632Y141746D01*
X256142Y141077D01*
X256635Y140394D01*
X257111Y139701D01*
X257570Y138995D01*
X258012Y138279D01*
X258435Y137551D01*
X258841Y136814D01*
X259229Y136067D01*
X259598Y135311D01*
X259948Y134546D01*
X260280Y133772D01*
X260592Y132991D01*
X260886Y132202D01*
X261159Y131406D01*
X261413Y130604D01*
X261648Y129796D01*
X261862Y128982D01*
X262057Y128163D01*
X262231Y127340D01*
X262385Y126512D01*
X262519Y125681D01*
X262632Y124847D01*
X262725Y124011D01*
X262797Y123173D01*
X262849Y122333D01*
X262880Y121492D01*
X262890Y120650D01*
X262880Y119808D01*
X262849Y118967D01*
X262797Y118127D01*
X262725Y117289D01*
X262632Y116453D01*
X262519Y115619D01*
X262385Y114788D01*
X262231Y113960D01*
X262057Y113137D01*
X261862Y112318D01*
X261648Y111504D01*
X261413Y110696D01*
X261159Y109894D01*
X260886Y109098D01*
X260592Y108309D01*
X260280Y107528D01*
X259948Y106754D01*
X259598Y105989D01*
X259229Y105233D01*
X258841Y104486D01*
X258435Y103749D01*
X258012Y103021D01*
X257570Y102305D01*
X257111Y101599D01*
X256635Y100906D01*
X256142Y100223D01*
X255632Y99554D01*
X255107Y98897D01*
X254565Y98253D01*
X254007Y97622D01*
X253434Y97006D01*
X252847Y96403D01*
X252244Y95816D01*
X251628Y95243D01*
X250997Y94685D01*
X250353Y94143D01*
X249696Y93618D01*
X249027Y93108D01*
X248344Y92615D01*
X247651Y92139D01*
X246945Y91680D01*
X246229Y91238D01*
X245501Y90815D01*
X244764Y90409D01*
X244017Y90021D01*
X243261Y89652D01*
X242496Y89302D01*
X241722Y88970D01*
X240941Y88658D01*
X240152Y88364D01*
X239356Y88091D01*
X238554Y87837D01*
X237746Y87602D01*
X236932Y87388D01*
X236113Y87193D01*
X235290Y87019D01*
X234462Y86865D01*
X233631Y86731D01*
X232797Y86618D01*
X231961Y86525D01*
X231123Y86453D01*
X230283Y86401D01*
X229442Y86370D01*
X228600Y86360D01*
X227758Y86370D01*
X226917Y86401D01*
X226077Y86453D01*
X225239Y86525D01*
X224403Y86618D01*
X223569Y86731D01*
X222738Y86865D01*
X221910Y87019D01*
X221087Y87193D01*
X220268Y87388D01*
X219454Y87602D01*
X218646Y87837D01*
X217844Y88091D01*
X217048Y88364D01*
X216259Y88658D01*
X215478Y88970D01*
X214704Y89302D01*
X213939Y89652D01*
X213183Y90021D01*
X212436Y90409D01*
X211699Y90815D01*
X210971Y91238D01*
X210255Y91680D01*
X209549Y92139D01*
X208856Y92615D01*
X208173Y93108D01*
X207504Y93618D01*
X206847Y94143D01*
X206203Y94685D01*
X205572Y95243D01*
X204956Y95816D01*
X204353Y96403D01*
X203766Y97006D01*
X203193Y97622D01*
X202635Y98253D01*
X202093Y98897D01*
X201568Y99554D01*
X201058Y100223D01*
X200565Y100906D01*
X200089Y101599D01*
X199630Y102305D01*
X199188Y103021D01*
X198765Y103749D01*
X198359Y104486D01*
X197971Y105233D01*
X197602Y105989D01*
X197252Y106754D01*
X196920Y107528D01*
X196608Y108309D01*
X196314Y109098D01*
X196041Y109894D01*
X195787Y110696D01*
X195552Y111504D01*
X195338Y112318D01*
X195143Y113137D01*
X194969Y113960D01*
X194815Y114788D01*
X194681Y115619D01*
X194568Y116453D01*
X194475Y117289D01*
X194403Y118127D01*
X194351Y118967D01*
X194320Y119808D01*
X194310Y120650D01*
D12*
X422580Y278720D02*
X422580Y318180D01*
X402920Y318180D02*
X402920Y278720D01*
X402920Y318180D02*
X422580Y318180D01*
X422580Y278720D02*
X402920Y278720D01*
D13*
X396613Y297184D02*
X398181Y298752D01*
X396613Y297184D02*
X396613Y294049D01*
X398181Y292481D01*
X404451Y292481D01*
X406019Y294049D01*
X406019Y297184D01*
X404451Y298752D01*
X396613Y301836D02*
X396613Y308107D01*
X396613Y301836D02*
X401316Y301836D01*
X399748Y304972D01*
X399748Y306539D01*
X401316Y308107D01*
X404451Y308107D01*
X406019Y306539D01*
X406019Y303404D01*
X404451Y301836D01*
D12*
X397180Y318180D02*
X397180Y278720D01*
X377520Y278720D02*
X377520Y318180D01*
X397180Y318180D01*
X397180Y278720D02*
X377520Y278720D01*
D13*
X371213Y297184D02*
X372781Y298752D01*
X371213Y297184D02*
X371213Y294049D01*
X372781Y292481D01*
X379051Y292481D01*
X380619Y294049D01*
X380619Y297184D01*
X379051Y298752D01*
X372781Y304972D02*
X371213Y308107D01*
X372781Y304972D02*
X375916Y301836D01*
X379051Y301836D01*
X380619Y303404D01*
X380619Y306539D01*
X379051Y308107D01*
X377484Y308107D01*
X375916Y306539D01*
X375916Y301836D01*
D12*
X371780Y318180D02*
X371780Y278720D01*
X352120Y278720D02*
X352120Y318180D01*
X371780Y318180D01*
X371780Y278720D02*
X352120Y278720D01*
D13*
X345813Y297184D02*
X347381Y298752D01*
X345813Y297184D02*
X345813Y294049D01*
X347381Y292481D01*
X353651Y292481D01*
X355219Y294049D01*
X355219Y297184D01*
X353651Y298752D01*
X345813Y301836D02*
X345813Y308107D01*
X347381Y308107D01*
X353651Y301836D01*
X355219Y301836D01*
D12*
X346380Y318180D02*
X346380Y278720D01*
X326720Y278720D02*
X326720Y318180D01*
X346380Y318180D01*
X346380Y278720D02*
X326720Y278720D01*
D13*
X317873Y297524D02*
X319441Y299091D01*
X317873Y297524D02*
X317873Y294388D01*
X319441Y292821D01*
X325711Y292821D01*
X327279Y294388D01*
X327279Y297524D01*
X325711Y299091D01*
X319441Y302176D02*
X317873Y303743D01*
X317873Y306879D01*
X319441Y308447D01*
X321008Y308447D01*
X322576Y306879D01*
X324144Y308447D01*
X325711Y308447D01*
X327279Y306879D01*
X327279Y303743D01*
X325711Y302176D01*
X324144Y302176D01*
X322576Y303743D01*
X321008Y302176D01*
X319441Y302176D01*
X322576Y303743D02*
X322576Y306879D01*
X263866Y274701D02*
X260731Y274701D01*
X262299Y274701D02*
X262299Y284107D01*
X263866Y284107D02*
X260731Y284107D01*
X271671Y284107D02*
X273238Y282539D01*
X271671Y284107D02*
X268535Y284107D01*
X266968Y282539D01*
X266968Y276269D01*
X268535Y274701D01*
X271671Y274701D01*
X273238Y276269D01*
X276323Y282539D02*
X277891Y284107D01*
X281026Y284107D01*
X282594Y282539D01*
X282594Y280972D01*
X281026Y279404D01*
X279458Y279404D01*
X281026Y279404D02*
X282594Y277836D01*
X282594Y276269D01*
X281026Y274701D01*
X277891Y274701D01*
X276323Y276269D01*
X196469Y248031D02*
X187063Y248031D01*
X187063Y252734D01*
X188631Y254302D01*
X191766Y254302D01*
X193334Y252734D01*
X193334Y248031D01*
X193334Y251166D02*
X196469Y254302D01*
X190198Y257386D02*
X187063Y260522D01*
X196469Y260522D01*
X196469Y263657D02*
X196469Y257386D01*
X196469Y305181D02*
X187063Y305181D01*
X187063Y309884D01*
X188631Y311452D01*
X191766Y311452D01*
X193334Y309884D01*
X193334Y305181D01*
X193334Y308316D02*
X196469Y311452D01*
X196469Y314536D02*
X196469Y320807D01*
X196469Y314536D02*
X190198Y320807D01*
X188631Y320807D01*
X187063Y319239D01*
X187063Y316104D01*
X188631Y314536D01*
X197571Y177427D02*
X197571Y168021D01*
X197571Y177427D02*
X202274Y177427D01*
X203841Y175859D01*
X203841Y172724D01*
X202274Y171156D01*
X197571Y171156D01*
X200706Y171156D02*
X203841Y168021D01*
X206926Y175859D02*
X208493Y177427D01*
X211629Y177427D01*
X213197Y175859D01*
X213197Y174292D01*
X211629Y172724D01*
X210061Y172724D01*
X211629Y172724D02*
X213197Y171156D01*
X213197Y169589D01*
X211629Y168021D01*
X208493Y168021D01*
X206926Y169589D01*
X375031Y368681D02*
X375031Y378087D01*
X379734Y378087D01*
X381302Y376519D01*
X381302Y373384D01*
X379734Y371816D01*
X375031Y371816D01*
X378166Y371816D02*
X381302Y368681D01*
X389089Y368681D02*
X389089Y378087D01*
X384386Y373384D01*
X390657Y373384D01*
X406781Y368681D02*
X406781Y378087D01*
X411484Y378087D01*
X413052Y376519D01*
X413052Y373384D01*
X411484Y371816D01*
X406781Y371816D01*
X409916Y371816D02*
X413052Y368681D01*
X416136Y378087D02*
X422407Y378087D01*
X416136Y378087D02*
X416136Y373384D01*
X419272Y374952D01*
X420839Y374952D01*
X422407Y373384D01*
X422407Y370249D01*
X420839Y368681D01*
X417704Y368681D01*
X416136Y370249D01*
X203581Y339987D02*
X203581Y330581D01*
X203581Y339987D02*
X208284Y339987D01*
X209852Y338419D01*
X209852Y335284D01*
X208284Y333716D01*
X203581Y333716D01*
X206716Y333716D02*
X209852Y330581D01*
X216072Y338419D02*
X219207Y339987D01*
X216072Y338419D02*
X212936Y335284D01*
X212936Y332149D01*
X214504Y330581D01*
X217639Y330581D01*
X219207Y332149D01*
X219207Y333716D01*
X217639Y335284D01*
X212936Y335284D01*
X349631Y368681D02*
X349631Y378087D01*
X354334Y378087D01*
X355902Y376519D01*
X355902Y373384D01*
X354334Y371816D01*
X349631Y371816D01*
X352766Y371816D02*
X355902Y368681D01*
X358986Y378087D02*
X365257Y378087D01*
X365257Y376519D01*
X358986Y370249D01*
X358986Y368681D01*
X324231Y368681D02*
X324231Y378087D01*
X328934Y378087D01*
X330502Y376519D01*
X330502Y373384D01*
X328934Y371816D01*
X324231Y371816D01*
X327366Y371816D02*
X330502Y368681D01*
X333586Y376519D02*
X335154Y378087D01*
X338289Y378087D01*
X339857Y376519D01*
X339857Y374952D01*
X338289Y373384D01*
X339857Y371816D01*
X339857Y370249D01*
X338289Y368681D01*
X335154Y368681D01*
X333586Y370249D01*
X333586Y371816D01*
X335154Y373384D01*
X333586Y374952D01*
X333586Y376519D01*
X335154Y373384D02*
X338289Y373384D01*
X171831Y339987D02*
X171831Y330581D01*
X171831Y339987D02*
X176534Y339987D01*
X178102Y338419D01*
X178102Y335284D01*
X176534Y333716D01*
X171831Y333716D01*
X174966Y333716D02*
X178102Y330581D01*
X181186Y332149D02*
X182754Y330581D01*
X185889Y330581D01*
X187457Y332149D01*
X187457Y338419D01*
X185889Y339987D01*
X182754Y339987D01*
X181186Y338419D01*
X181186Y336852D01*
X182754Y335284D01*
X187457Y335284D01*
D11*
X194310Y306695D02*
X194310Y264805D01*
D14*
X166140Y310370D02*
X166627Y309336D01*
X166052Y309055D01*
X165483Y308760D01*
X164923Y308451D01*
X164370Y308128D01*
X163825Y307792D01*
X163289Y307443D01*
X162761Y307080D01*
X162242Y306705D01*
X161733Y306317D01*
X161233Y305917D01*
X160744Y305504D01*
X160264Y305080D01*
X159795Y304644D01*
X159337Y304197D01*
X158890Y303738D01*
X158455Y303269D01*
X158031Y302789D01*
X157619Y302299D01*
X157219Y301800D01*
X156832Y301290D01*
X156457Y300771D01*
X156095Y300243D01*
X155746Y299706D01*
X155410Y299161D01*
X155088Y298608D01*
X154779Y298047D01*
X154485Y297478D01*
X154204Y296903D01*
X153938Y296321D01*
X153686Y295732D01*
X153448Y295138D01*
X153225Y294538D01*
X153017Y293932D01*
X152824Y293322D01*
X152645Y292707D01*
X152482Y292088D01*
X152334Y291465D01*
X152202Y290839D01*
X152085Y290210D01*
X151983Y289577D01*
X151897Y288943D01*
X151827Y288307D01*
X151772Y287669D01*
X151732Y287030D01*
X151709Y286390D01*
X151701Y285750D01*
X151709Y285110D01*
X151732Y284470D01*
X151772Y283831D01*
X151827Y283193D01*
X151897Y282557D01*
X151983Y281923D01*
X152085Y281290D01*
X152202Y280661D01*
X152334Y280035D01*
X152482Y279412D01*
X152645Y278793D01*
X152824Y278178D01*
X153017Y277568D01*
X153225Y276962D01*
X153448Y276362D01*
X153686Y275768D01*
X153938Y275179D01*
X154204Y274597D01*
X154485Y274022D01*
X154779Y273453D01*
X155088Y272892D01*
X155410Y272339D01*
X155746Y271794D01*
X156095Y271257D01*
X156457Y270729D01*
X156832Y270210D01*
X157219Y269700D01*
X157619Y269201D01*
X158031Y268711D01*
X158455Y268231D01*
X158890Y267762D01*
X159337Y267303D01*
X159795Y266856D01*
X160264Y266420D01*
X160744Y265996D01*
X161233Y265583D01*
X161733Y265183D01*
X162242Y264795D01*
X162761Y264420D01*
X163289Y264057D01*
X163825Y263708D01*
X164370Y263372D01*
X164923Y263049D01*
X165483Y262740D01*
X166052Y262445D01*
X166627Y262164D01*
X166140Y261130D01*
X166140Y261129D01*
X165539Y261423D01*
X164946Y261731D01*
X164361Y262054D01*
X163784Y262390D01*
X163215Y262741D01*
X162655Y263106D01*
X162104Y263484D01*
X161563Y263876D01*
X161031Y264281D01*
X160509Y264699D01*
X159998Y265129D01*
X159498Y265572D01*
X159008Y266027D01*
X158530Y266494D01*
X158064Y266972D01*
X157609Y267462D01*
X157166Y267963D01*
X156736Y268474D01*
X156319Y268996D01*
X155914Y269528D01*
X155523Y270070D01*
X155145Y270621D01*
X154781Y271181D01*
X154430Y271751D01*
X154094Y272328D01*
X153772Y272914D01*
X153464Y273507D01*
X153171Y274107D01*
X152893Y274715D01*
X152630Y275329D01*
X152382Y275950D01*
X152149Y276576D01*
X151932Y277208D01*
X151730Y277846D01*
X151544Y278487D01*
X151374Y279134D01*
X151219Y279784D01*
X151081Y280438D01*
X150959Y281095D01*
X150853Y281755D01*
X150763Y282417D01*
X150689Y283081D01*
X150632Y283747D01*
X150591Y284414D01*
X150566Y285082D01*
X150558Y285750D01*
X150566Y286418D01*
X150591Y287086D01*
X150632Y287753D01*
X150689Y288419D01*
X150763Y289083D01*
X150853Y289745D01*
X150959Y290405D01*
X151081Y291062D01*
X151219Y291716D01*
X151374Y292366D01*
X151544Y293013D01*
X151730Y293654D01*
X151932Y294292D01*
X152149Y294924D01*
X152382Y295550D01*
X152630Y296171D01*
X152893Y296785D01*
X153171Y297393D01*
X153464Y297993D01*
X153772Y298586D01*
X154094Y299172D01*
X154430Y299749D01*
X154781Y300319D01*
X155145Y300879D01*
X155523Y301430D01*
X155914Y301972D01*
X156319Y302504D01*
X156736Y303026D01*
X157166Y303537D01*
X157609Y304038D01*
X158064Y304528D01*
X158530Y305006D01*
X159008Y305473D01*
X159498Y305928D01*
X159998Y306371D01*
X160509Y306801D01*
X161031Y307219D01*
X161563Y307624D01*
X162104Y308016D01*
X162655Y308394D01*
X163215Y308759D01*
X163784Y309110D01*
X164361Y309446D01*
X164946Y309769D01*
X165539Y310077D01*
X166140Y310371D01*
X166191Y310262D01*
X165593Y309970D01*
X165003Y309663D01*
X164420Y309342D01*
X163845Y309007D01*
X163279Y308657D01*
X162722Y308294D01*
X162173Y307918D01*
X161634Y307528D01*
X161105Y307125D01*
X160585Y306709D01*
X160076Y306280D01*
X159578Y305839D01*
X159091Y305386D01*
X158615Y304921D01*
X158150Y304445D01*
X157698Y303957D01*
X157257Y303459D01*
X156829Y302949D01*
X156413Y302430D01*
X156011Y301900D01*
X155621Y301361D01*
X155245Y300812D01*
X154882Y300254D01*
X154533Y299688D01*
X154198Y299113D01*
X153878Y298530D01*
X153571Y297939D01*
X153280Y297341D01*
X153003Y296736D01*
X152741Y296125D01*
X152494Y295507D01*
X152262Y294883D01*
X152046Y294254D01*
X151845Y293620D01*
X151660Y292981D01*
X151490Y292337D01*
X151336Y291690D01*
X151199Y291039D01*
X151077Y290385D01*
X150971Y289728D01*
X150882Y289068D01*
X150808Y288407D01*
X150751Y287744D01*
X150711Y287080D01*
X150686Y286415D01*
X150678Y285750D01*
X150686Y285085D01*
X150711Y284420D01*
X150751Y283756D01*
X150808Y283093D01*
X150882Y282432D01*
X150971Y281772D01*
X151077Y281115D01*
X151199Y280461D01*
X151336Y279810D01*
X151490Y279163D01*
X151660Y278519D01*
X151845Y277880D01*
X152046Y277246D01*
X152262Y276617D01*
X152494Y275993D01*
X152741Y275375D01*
X153003Y274764D01*
X153280Y274159D01*
X153571Y273561D01*
X153878Y272970D01*
X154198Y272387D01*
X154533Y271812D01*
X154882Y271246D01*
X155245Y270688D01*
X155621Y270139D01*
X156011Y269600D01*
X156413Y269070D01*
X156829Y268551D01*
X157257Y268041D01*
X157698Y267543D01*
X158150Y267055D01*
X158615Y266579D01*
X159091Y266114D01*
X159578Y265661D01*
X160076Y265220D01*
X160585Y264791D01*
X161105Y264375D01*
X161634Y263972D01*
X162173Y263582D01*
X162722Y263206D01*
X163279Y262843D01*
X163845Y262493D01*
X164420Y262158D01*
X165003Y261837D01*
X165593Y261530D01*
X166191Y261238D01*
X166242Y261347D01*
X165647Y261637D01*
X165059Y261943D01*
X164479Y262263D01*
X163907Y262596D01*
X163343Y262944D01*
X162788Y263306D01*
X162242Y263681D01*
X161705Y264069D01*
X161178Y264470D01*
X160661Y264884D01*
X160155Y265311D01*
X159659Y265750D01*
X159174Y266201D01*
X158700Y266664D01*
X158237Y267138D01*
X157787Y267624D01*
X157348Y268120D01*
X156922Y268627D01*
X156508Y269144D01*
X156107Y269671D01*
X155719Y270208D01*
X155344Y270755D01*
X154983Y271310D01*
X154636Y271874D01*
X154303Y272446D01*
X153983Y273027D01*
X153678Y273615D01*
X153388Y274210D01*
X153112Y274813D01*
X152851Y275421D01*
X152606Y276036D01*
X152375Y276657D01*
X152160Y277284D01*
X151960Y277915D01*
X151775Y278552D01*
X151606Y279192D01*
X151453Y279837D01*
X151316Y280485D01*
X151195Y281136D01*
X151090Y281790D01*
X151001Y282446D01*
X150928Y283105D01*
X150871Y283765D01*
X150830Y284426D01*
X150806Y285088D01*
X150798Y285750D01*
X150806Y286412D01*
X150830Y287074D01*
X150871Y287735D01*
X150928Y288395D01*
X151001Y289054D01*
X151090Y289710D01*
X151195Y290364D01*
X151316Y291015D01*
X151453Y291663D01*
X151606Y292308D01*
X151775Y292948D01*
X151960Y293585D01*
X152160Y294216D01*
X152375Y294843D01*
X152606Y295464D01*
X152851Y296079D01*
X153112Y296687D01*
X153388Y297290D01*
X153678Y297885D01*
X153983Y298473D01*
X154303Y299054D01*
X154636Y299626D01*
X154983Y300190D01*
X155344Y300745D01*
X155719Y301292D01*
X156107Y301829D01*
X156508Y302356D01*
X156922Y302873D01*
X157348Y303380D01*
X157787Y303876D01*
X158237Y304362D01*
X158700Y304836D01*
X159174Y305299D01*
X159659Y305750D01*
X160155Y306189D01*
X160661Y306616D01*
X161178Y307030D01*
X161705Y307431D01*
X162242Y307819D01*
X162788Y308194D01*
X163343Y308556D01*
X163907Y308904D01*
X164479Y309237D01*
X165059Y309557D01*
X165647Y309863D01*
X166242Y310153D01*
X166293Y310045D01*
X165701Y309755D01*
X165116Y309451D01*
X164538Y309133D01*
X163968Y308801D01*
X163407Y308454D01*
X162855Y308094D01*
X162311Y307721D01*
X161777Y307335D01*
X161252Y306935D01*
X160737Y306523D01*
X160233Y306098D01*
X159739Y305661D01*
X159256Y305212D01*
X158784Y304751D01*
X158324Y304279D01*
X157875Y303796D01*
X157439Y303302D01*
X157014Y302797D01*
X156602Y302282D01*
X156203Y301757D01*
X155817Y301222D01*
X155444Y300678D01*
X155085Y300126D01*
X154739Y299564D01*
X154407Y298994D01*
X154089Y298416D01*
X153786Y297831D01*
X153497Y297238D01*
X153222Y296639D01*
X152962Y296033D01*
X152718Y295420D01*
X152488Y294802D01*
X152273Y294178D01*
X152074Y293550D01*
X151891Y292916D01*
X151723Y292279D01*
X151571Y291637D01*
X151434Y290992D01*
X151313Y290344D01*
X151209Y289693D01*
X151120Y289039D01*
X151047Y288384D01*
X150991Y287727D01*
X150950Y287068D01*
X150926Y286409D01*
X150918Y285750D01*
X150926Y285091D01*
X150950Y284432D01*
X150991Y283773D01*
X151047Y283116D01*
X151120Y282461D01*
X151209Y281807D01*
X151313Y281156D01*
X151434Y280508D01*
X151571Y279863D01*
X151723Y279221D01*
X151891Y278584D01*
X152074Y277950D01*
X152273Y277322D01*
X152488Y276698D01*
X152718Y276080D01*
X152962Y275467D01*
X153222Y274861D01*
X153497Y274262D01*
X153786Y273669D01*
X154089Y273084D01*
X154407Y272506D01*
X154739Y271936D01*
X155085Y271374D01*
X155444Y270822D01*
X155817Y270278D01*
X156203Y269743D01*
X156602Y269218D01*
X157014Y268703D01*
X157439Y268198D01*
X157875Y267704D01*
X158324Y267221D01*
X158784Y266749D01*
X159256Y266288D01*
X159739Y265839D01*
X160233Y265402D01*
X160737Y264977D01*
X161252Y264565D01*
X161777Y264165D01*
X162311Y263779D01*
X162855Y263406D01*
X163407Y263046D01*
X163968Y262699D01*
X164538Y262367D01*
X165116Y262049D01*
X165701Y261745D01*
X166293Y261455D01*
X166344Y261564D01*
X165755Y261852D01*
X165172Y262155D01*
X164597Y262472D01*
X164030Y262802D01*
X163471Y263147D01*
X162921Y263505D01*
X162380Y263877D01*
X161848Y264262D01*
X161326Y264660D01*
X160813Y265070D01*
X160311Y265493D01*
X159820Y265928D01*
X159339Y266375D01*
X158869Y266834D01*
X158411Y267304D01*
X157964Y267785D01*
X157529Y268277D01*
X157107Y268779D01*
X156697Y269292D01*
X156300Y269815D01*
X155915Y270347D01*
X155544Y270888D01*
X155186Y271439D01*
X154842Y271998D01*
X154511Y272565D01*
X154195Y273140D01*
X153893Y273723D01*
X153605Y274313D01*
X153332Y274910D01*
X153073Y275513D01*
X152830Y276123D01*
X152601Y276738D01*
X152387Y277359D01*
X152189Y277985D01*
X152006Y278616D01*
X151839Y279250D01*
X151688Y279889D01*
X151552Y280532D01*
X151432Y281177D01*
X151327Y281825D01*
X151239Y282476D01*
X151167Y283128D01*
X151110Y283782D01*
X151070Y284437D01*
X151046Y285094D01*
X151038Y285750D01*
X151046Y286406D01*
X151070Y287063D01*
X151110Y287718D01*
X151167Y288372D01*
X151239Y289024D01*
X151327Y289675D01*
X151432Y290323D01*
X151552Y290968D01*
X151688Y291611D01*
X151839Y292250D01*
X152006Y292884D01*
X152189Y293515D01*
X152387Y294141D01*
X152601Y294762D01*
X152830Y295377D01*
X153073Y295987D01*
X153332Y296590D01*
X153605Y297187D01*
X153893Y297777D01*
X154195Y298360D01*
X154511Y298935D01*
X154842Y299502D01*
X155186Y300061D01*
X155544Y300612D01*
X155915Y301153D01*
X156300Y301685D01*
X156697Y302208D01*
X157107Y302721D01*
X157529Y303223D01*
X157964Y303715D01*
X158411Y304196D01*
X158869Y304666D01*
X159339Y305125D01*
X159820Y305572D01*
X160311Y306007D01*
X160813Y306430D01*
X161326Y306840D01*
X161848Y307238D01*
X162380Y307623D01*
X162921Y307995D01*
X163471Y308353D01*
X164030Y308698D01*
X164597Y309028D01*
X165172Y309345D01*
X165755Y309648D01*
X166344Y309936D01*
X166395Y309828D01*
X165808Y309541D01*
X165228Y309239D01*
X164656Y308924D01*
X164091Y308595D01*
X163535Y308251D01*
X162988Y307895D01*
X162449Y307525D01*
X161919Y307142D01*
X161399Y306746D01*
X160889Y306337D01*
X160389Y305916D01*
X159900Y305483D01*
X159421Y305038D01*
X158954Y304581D01*
X158498Y304113D01*
X158053Y303634D01*
X157620Y303145D01*
X157200Y302644D01*
X156791Y302134D01*
X156396Y301614D01*
X156013Y301084D01*
X155644Y300545D01*
X155287Y299997D01*
X154945Y299441D01*
X154616Y298876D01*
X154301Y298303D01*
X154000Y297723D01*
X153713Y297136D01*
X153441Y296541D01*
X153184Y295941D01*
X152941Y295334D01*
X152714Y294721D01*
X152501Y294103D01*
X152304Y293480D01*
X152122Y292852D01*
X151956Y292220D01*
X151805Y291584D01*
X151669Y290945D01*
X151550Y290303D01*
X151446Y289657D01*
X151358Y289010D01*
X151286Y288360D01*
X151230Y287709D01*
X151190Y287057D01*
X151166Y286404D01*
X151158Y285750D01*
X151166Y285096D01*
X151190Y284443D01*
X151230Y283791D01*
X151286Y283140D01*
X151358Y282490D01*
X151446Y281843D01*
X151550Y281197D01*
X151669Y280555D01*
X151805Y279916D01*
X151956Y279280D01*
X152122Y278648D01*
X152304Y278020D01*
X152501Y277397D01*
X152714Y276779D01*
X152941Y276166D01*
X153184Y275559D01*
X153441Y274959D01*
X153713Y274364D01*
X154000Y273777D01*
X154301Y273197D01*
X154616Y272624D01*
X154945Y272059D01*
X155287Y271503D01*
X155644Y270955D01*
X156013Y270416D01*
X156396Y269886D01*
X156791Y269366D01*
X157200Y268856D01*
X157620Y268355D01*
X158053Y267866D01*
X158498Y267387D01*
X158954Y266919D01*
X159421Y266462D01*
X159900Y266017D01*
X160389Y265584D01*
X160889Y265163D01*
X161399Y264754D01*
X161919Y264358D01*
X162449Y263975D01*
X162988Y263605D01*
X163535Y263249D01*
X164091Y262905D01*
X164656Y262576D01*
X165228Y262261D01*
X165808Y261959D01*
X166395Y261672D01*
X166447Y261781D01*
X165862Y262067D01*
X165285Y262367D01*
X164715Y262681D01*
X164153Y263008D01*
X163599Y263350D01*
X163054Y263705D01*
X162518Y264073D01*
X161991Y264455D01*
X161473Y264849D01*
X160965Y265256D01*
X160468Y265675D01*
X159981Y266106D01*
X159504Y266549D01*
X159039Y267004D01*
X158584Y267469D01*
X158142Y267946D01*
X157711Y268434D01*
X157292Y268932D01*
X156886Y269440D01*
X156492Y269958D01*
X156111Y270485D01*
X155743Y271022D01*
X155389Y271567D01*
X155048Y272121D01*
X154720Y272683D01*
X154407Y273253D01*
X154107Y273831D01*
X153822Y274416D01*
X153551Y275007D01*
X153295Y275605D01*
X153053Y276210D01*
X152827Y276819D01*
X152615Y277435D01*
X152419Y278055D01*
X152238Y278680D01*
X152072Y279309D01*
X151922Y279942D01*
X151787Y280578D01*
X151668Y281218D01*
X151565Y281860D01*
X151477Y282505D01*
X151406Y283152D01*
X151350Y283800D01*
X151310Y284449D01*
X151286Y285099D01*
X151278Y285750D01*
X151286Y286401D01*
X151310Y287051D01*
X151350Y287700D01*
X151406Y288348D01*
X151477Y288995D01*
X151565Y289640D01*
X151668Y290282D01*
X151787Y290922D01*
X151922Y291558D01*
X152072Y292191D01*
X152238Y292820D01*
X152419Y293445D01*
X152615Y294065D01*
X152827Y294681D01*
X153053Y295290D01*
X153295Y295895D01*
X153551Y296493D01*
X153822Y297084D01*
X154107Y297669D01*
X154407Y298247D01*
X154720Y298817D01*
X155048Y299379D01*
X155389Y299933D01*
X155743Y300478D01*
X156111Y301015D01*
X156492Y301542D01*
X156886Y302060D01*
X157292Y302568D01*
X157711Y303066D01*
X158142Y303554D01*
X158584Y304031D01*
X159039Y304496D01*
X159504Y304951D01*
X159981Y305394D01*
X160468Y305825D01*
X160965Y306244D01*
X161473Y306651D01*
X161991Y307045D01*
X162518Y307427D01*
X163054Y307795D01*
X163599Y308150D01*
X164153Y308492D01*
X164715Y308819D01*
X165285Y309133D01*
X165862Y309433D01*
X166447Y309719D01*
X166498Y309610D01*
X165916Y309326D01*
X165341Y309027D01*
X164774Y308715D01*
X164215Y308388D01*
X163663Y308048D01*
X163121Y307695D01*
X162587Y307328D01*
X162062Y306949D01*
X161547Y306556D01*
X161041Y306151D01*
X160546Y305734D01*
X160061Y305305D01*
X159587Y304864D01*
X159123Y304411D01*
X158671Y303948D01*
X158231Y303473D01*
X157802Y302988D01*
X157385Y302492D01*
X156980Y301986D01*
X156588Y301471D01*
X156209Y300946D01*
X155843Y300411D01*
X155490Y299868D01*
X155150Y299317D01*
X154824Y298757D01*
X154512Y298190D01*
X154214Y297615D01*
X153930Y297033D01*
X153661Y296444D01*
X153406Y295849D01*
X153165Y295247D01*
X152940Y294640D01*
X152729Y294028D01*
X152534Y293410D01*
X152353Y292788D01*
X152188Y292162D01*
X152039Y291532D01*
X151905Y290898D01*
X151786Y290261D01*
X151683Y289622D01*
X151596Y288980D01*
X151525Y288337D01*
X151469Y287691D01*
X151430Y287045D01*
X151406Y286398D01*
X151398Y285750D01*
X151406Y285102D01*
X151430Y284455D01*
X151469Y283809D01*
X151525Y283163D01*
X151596Y282520D01*
X151683Y281878D01*
X151786Y281239D01*
X151905Y280602D01*
X152039Y279968D01*
X152188Y279338D01*
X152353Y278712D01*
X152534Y278090D01*
X152729Y277472D01*
X152940Y276860D01*
X153165Y276253D01*
X153406Y275651D01*
X153661Y275056D01*
X153930Y274467D01*
X154214Y273885D01*
X154512Y273310D01*
X154824Y272743D01*
X155150Y272183D01*
X155490Y271632D01*
X155843Y271089D01*
X156209Y270554D01*
X156588Y270029D01*
X156980Y269514D01*
X157385Y269008D01*
X157802Y268512D01*
X158231Y268027D01*
X158671Y267552D01*
X159123Y267089D01*
X159587Y266636D01*
X160061Y266195D01*
X160546Y265766D01*
X161041Y265349D01*
X161547Y264944D01*
X162062Y264551D01*
X162587Y264172D01*
X163121Y263805D01*
X163663Y263452D01*
X164215Y263112D01*
X164774Y262785D01*
X165341Y262473D01*
X165916Y262174D01*
X166498Y261890D01*
X166549Y261998D01*
X165970Y262281D01*
X165397Y262578D01*
X164833Y262890D01*
X164276Y263215D01*
X163727Y263553D01*
X163187Y263905D01*
X162656Y264270D01*
X162133Y264648D01*
X161621Y265038D01*
X161117Y265442D01*
X160624Y265857D01*
X160141Y266284D01*
X159669Y266723D01*
X159208Y267174D01*
X158758Y267635D01*
X158319Y268108D01*
X157893Y268591D01*
X157478Y269084D01*
X157075Y269588D01*
X156685Y270101D01*
X156307Y270624D01*
X155943Y271155D01*
X155591Y271696D01*
X155253Y272245D01*
X154929Y272802D01*
X154618Y273367D01*
X154321Y273939D01*
X154039Y274519D01*
X153770Y275105D01*
X153517Y275697D01*
X153277Y276296D01*
X153053Y276900D01*
X152843Y277510D01*
X152649Y278125D01*
X152469Y278744D01*
X152305Y279367D01*
X152156Y279995D01*
X152022Y280625D01*
X151905Y281259D01*
X151802Y281896D01*
X151715Y282534D01*
X151644Y283175D01*
X151589Y283818D01*
X151550Y284461D01*
X151526Y285105D01*
X151518Y285750D01*
X151526Y286395D01*
X151550Y287039D01*
X151589Y287682D01*
X151644Y288325D01*
X151715Y288966D01*
X151802Y289604D01*
X151905Y290241D01*
X152022Y290875D01*
X152156Y291505D01*
X152305Y292133D01*
X152469Y292756D01*
X152649Y293375D01*
X152843Y293990D01*
X153053Y294600D01*
X153277Y295204D01*
X153517Y295803D01*
X153770Y296395D01*
X154039Y296981D01*
X154321Y297561D01*
X154618Y298133D01*
X154929Y298698D01*
X155253Y299255D01*
X155591Y299804D01*
X155943Y300345D01*
X156307Y300876D01*
X156685Y301399D01*
X157075Y301912D01*
X157478Y302416D01*
X157893Y302909D01*
X158319Y303392D01*
X158758Y303865D01*
X159208Y304326D01*
X159669Y304777D01*
X160141Y305216D01*
X160624Y305643D01*
X161117Y306058D01*
X161621Y306462D01*
X162133Y306852D01*
X162656Y307230D01*
X163187Y307595D01*
X163727Y307947D01*
X164276Y308285D01*
X164833Y308610D01*
X165397Y308922D01*
X165970Y309219D01*
X166549Y309502D01*
X166600Y309393D01*
X166023Y309112D01*
X165454Y308816D01*
X164892Y308506D01*
X164338Y308182D01*
X163791Y307845D01*
X163254Y307495D01*
X162725Y307132D01*
X162205Y306756D01*
X161694Y306367D01*
X161193Y305966D01*
X160703Y305552D01*
X160222Y305127D01*
X159752Y304690D01*
X159293Y304241D01*
X158845Y303782D01*
X158408Y303312D01*
X157983Y302831D01*
X157570Y302339D01*
X157170Y301838D01*
X156781Y301327D01*
X156405Y300807D01*
X156042Y300278D01*
X155693Y299740D01*
X155356Y299193D01*
X155033Y298639D01*
X154724Y298077D01*
X154429Y297507D01*
X154147Y296930D01*
X153880Y296347D01*
X153627Y295757D01*
X153389Y295161D01*
X153166Y294559D01*
X152957Y293952D01*
X152763Y293340D01*
X152585Y292724D01*
X152421Y292103D01*
X152273Y291479D01*
X152140Y290851D01*
X152023Y290220D01*
X151921Y289587D01*
X151835Y288951D01*
X151764Y288313D01*
X151709Y287674D01*
X151669Y287033D01*
X151646Y286392D01*
X151638Y285750D01*
X151646Y285108D01*
X151669Y284467D01*
X151709Y283826D01*
X151764Y283187D01*
X151835Y282549D01*
X151921Y281913D01*
X152023Y281280D01*
X152140Y280649D01*
X152273Y280021D01*
X152421Y279397D01*
X152585Y278776D01*
X152763Y278160D01*
X152957Y277548D01*
X153166Y276941D01*
X153389Y276339D01*
X153627Y275743D01*
X153880Y275153D01*
X154147Y274570D01*
X154429Y273993D01*
X154724Y273423D01*
X155033Y272861D01*
X155356Y272307D01*
X155693Y271760D01*
X156042Y271222D01*
X156405Y270693D01*
X156781Y270173D01*
X157170Y269662D01*
X157570Y269161D01*
X157983Y268669D01*
X158408Y268188D01*
X158845Y267718D01*
X159293Y267259D01*
X159752Y266810D01*
X160222Y266373D01*
X160703Y265948D01*
X161193Y265534D01*
X161694Y265133D01*
X162205Y264744D01*
X162725Y264368D01*
X163254Y264005D01*
X163791Y263655D01*
X164338Y263318D01*
X164892Y262994D01*
X165454Y262684D01*
X166023Y262388D01*
X166600Y262107D01*
X189459Y261130D02*
X188973Y262165D01*
X188973Y262164D02*
X189496Y262419D01*
X190012Y262685D01*
X190523Y262963D01*
X191027Y263252D01*
X191525Y263552D01*
X192016Y263863D01*
X192500Y264185D01*
X192976Y264518D01*
X193445Y264861D01*
X193906Y265214D01*
X194614Y264317D01*
X194132Y263947D01*
X193642Y263589D01*
X193144Y263241D01*
X192639Y262905D01*
X192126Y262580D01*
X191606Y262266D01*
X191079Y261964D01*
X190546Y261674D01*
X190006Y261396D01*
X189460Y261130D01*
X189409Y261238D01*
X189952Y261503D01*
X190490Y261780D01*
X191021Y262069D01*
X191545Y262370D01*
X192063Y262682D01*
X192573Y263005D01*
X193077Y263340D01*
X193572Y263686D01*
X194060Y264043D01*
X194540Y264411D01*
X194465Y264505D01*
X193988Y264139D01*
X193502Y263784D01*
X193009Y263439D01*
X192508Y263106D01*
X192000Y262784D01*
X191484Y262473D01*
X190962Y262174D01*
X190434Y261886D01*
X189899Y261611D01*
X189358Y261347D01*
X189307Y261456D01*
X189845Y261718D01*
X190378Y261992D01*
X190904Y262279D01*
X191424Y262576D01*
X191937Y262886D01*
X192442Y263206D01*
X192941Y263538D01*
X193432Y263881D01*
X193916Y264235D01*
X194391Y264600D01*
X194317Y264694D01*
X193844Y264331D01*
X193362Y263979D01*
X192873Y263637D01*
X192377Y263307D01*
X191873Y262988D01*
X191363Y262680D01*
X190845Y262383D01*
X190322Y262099D01*
X189792Y261825D01*
X189255Y261564D01*
X189204Y261673D01*
X189738Y261933D01*
X190266Y262205D01*
X190787Y262488D01*
X191302Y262783D01*
X191810Y263090D01*
X192312Y263408D01*
X192806Y263737D01*
X193292Y264076D01*
X193771Y264427D01*
X194243Y264788D01*
X194168Y264882D01*
X193699Y264523D01*
X193223Y264174D01*
X192738Y263836D01*
X192246Y263508D01*
X191747Y263192D01*
X191241Y262887D01*
X190729Y262593D01*
X190210Y262311D01*
X189684Y262040D01*
X189153Y261781D01*
X189102Y261890D01*
X189631Y262148D01*
X190154Y262417D01*
X190670Y262698D01*
X191180Y262990D01*
X191684Y263294D01*
X192181Y263609D01*
X192670Y263935D01*
X193153Y264271D01*
X193627Y264619D01*
X194094Y264976D01*
X194020Y265071D01*
X193555Y264715D01*
X193083Y264369D01*
X192603Y264034D01*
X192115Y263710D01*
X191621Y263396D01*
X191120Y263094D01*
X190612Y262803D01*
X190098Y262523D01*
X189577Y262255D01*
X189051Y261998D01*
X189000Y262107D01*
X189524Y262362D01*
X190042Y262629D01*
X190553Y262908D01*
X191059Y263197D01*
X191558Y263498D01*
X192050Y263810D01*
X192535Y264133D01*
X193013Y264466D01*
X193483Y264811D01*
X193945Y265165D01*
D11*
X179070Y271709D02*
X179070Y274391D01*
X179070Y297109D02*
X179070Y299791D01*
D14*
X194614Y307183D02*
X193906Y306285D01*
X193906Y306286D02*
X193424Y306655D01*
X192934Y307013D01*
X192435Y307359D01*
X191928Y307694D01*
X191414Y308016D01*
X190892Y308327D01*
X190364Y308626D01*
X189828Y308912D01*
X189286Y309185D01*
X188738Y309446D01*
X189214Y310485D01*
X189787Y310213D01*
X190353Y309927D01*
X190913Y309628D01*
X191465Y309316D01*
X192010Y308991D01*
X192548Y308654D01*
X193077Y308305D01*
X193598Y307943D01*
X194110Y307569D01*
X194614Y307183D01*
X194540Y307089D01*
X194038Y307473D01*
X193528Y307845D01*
X193010Y308205D01*
X192483Y308553D01*
X191948Y308889D01*
X191405Y309212D01*
X190855Y309523D01*
X190298Y309820D01*
X189734Y310105D01*
X189164Y310376D01*
X189114Y310267D01*
X189682Y309997D01*
X190243Y309714D01*
X190797Y309417D01*
X191345Y309108D01*
X191885Y308787D01*
X192418Y308453D01*
X192942Y308106D01*
X193458Y307747D01*
X193966Y307377D01*
X194465Y306995D01*
X194391Y306900D01*
X193894Y307281D01*
X193389Y307650D01*
X192875Y308007D01*
X192353Y308352D01*
X191822Y308684D01*
X191285Y309005D01*
X190740Y309312D01*
X190188Y309607D01*
X189629Y309889D01*
X189064Y310158D01*
X189014Y310049D01*
X189576Y309781D01*
X190133Y309500D01*
X190682Y309207D01*
X191225Y308901D01*
X191760Y308582D01*
X192288Y308251D01*
X192807Y307907D01*
X193319Y307552D01*
X193822Y307185D01*
X194317Y306806D01*
X194243Y306712D01*
X193750Y307089D01*
X193249Y307454D01*
X192740Y307808D01*
X192223Y308150D01*
X191697Y308480D01*
X191164Y308797D01*
X190624Y309102D01*
X190078Y309394D01*
X189524Y309673D01*
X188964Y309940D01*
X188914Y309831D01*
X189471Y309565D01*
X190022Y309287D01*
X190567Y308996D01*
X191104Y308693D01*
X191635Y308377D01*
X192158Y308049D01*
X192673Y307709D01*
X193180Y307357D01*
X193678Y306993D01*
X194168Y306618D01*
X194094Y306524D01*
X193606Y306897D01*
X193110Y307259D01*
X192605Y307610D01*
X192092Y307948D01*
X191572Y308275D01*
X191044Y308589D01*
X190509Y308891D01*
X189967Y309181D01*
X189419Y309458D01*
X188864Y309722D01*
X188814Y309612D01*
X189366Y309350D01*
X189912Y309074D01*
X190451Y308786D01*
X190984Y308485D01*
X191509Y308172D01*
X192027Y307847D01*
X192538Y307510D01*
X193040Y307162D01*
X193534Y306801D01*
X194020Y306429D01*
X193945Y306335D01*
X193462Y306705D01*
X192970Y307064D01*
X192470Y307411D01*
X191962Y307747D01*
X191447Y308070D01*
X190924Y308382D01*
X190394Y308681D01*
X189857Y308968D01*
X189313Y309242D01*
X188764Y309503D01*
D15*
X148450Y349039D02*
X148450Y196639D01*
X82707Y196639D02*
X82707Y349039D01*
X127505Y196639D02*
X132429Y196639D01*
X137080Y196639D02*
X139229Y196639D01*
X141220Y196639D01*
X137080Y196639D02*
X132429Y196639D01*
X87537Y196639D02*
X82707Y196639D01*
X87537Y196639D02*
X127505Y196639D01*
X132429Y196639D02*
X132429Y349039D01*
X127505Y349039D01*
X132429Y349039D02*
X139229Y349039D01*
X127505Y349039D02*
X87537Y349039D01*
X82707Y349039D01*
X67450Y349039D01*
X141220Y196639D02*
X145450Y196639D01*
X145450Y349039D02*
X139229Y349039D01*
X67450Y349039D02*
X67450Y196639D01*
X82707Y196639D01*
X145450Y196639D02*
X148450Y196639D01*
X148450Y349039D02*
X145450Y349039D01*
X88550Y222039D02*
X88556Y222509D01*
X88573Y222979D01*
X88602Y223448D01*
X88642Y223916D01*
X88694Y224383D01*
X88757Y224849D01*
X88832Y225313D01*
X88918Y225775D01*
X89015Y226235D01*
X89124Y226692D01*
X89244Y227147D01*
X89375Y227598D01*
X89517Y228046D01*
X89669Y228490D01*
X89833Y228931D01*
X90008Y229367D01*
X90193Y229799D01*
X90389Y230227D01*
X90595Y230649D01*
X90811Y231066D01*
X91038Y231478D01*
X91274Y231884D01*
X91521Y232284D01*
X91777Y232678D01*
X92043Y233066D01*
X92319Y233447D01*
X92603Y233821D01*
X92897Y234188D01*
X93199Y234547D01*
X93511Y234899D01*
X93831Y235244D01*
X94159Y235580D01*
X94495Y235908D01*
X94840Y236228D01*
X95192Y236540D01*
X95551Y236842D01*
X95918Y237136D01*
X96292Y237420D01*
X96673Y237696D01*
X97061Y237962D01*
X97455Y238218D01*
X97855Y238465D01*
X98261Y238701D01*
X98673Y238928D01*
X99090Y239144D01*
X99512Y239350D01*
X99940Y239546D01*
X100372Y239731D01*
X100808Y239906D01*
X101249Y240070D01*
X101693Y240222D01*
X102141Y240364D01*
X102592Y240495D01*
X103047Y240615D01*
X103504Y240724D01*
X103964Y240821D01*
X104426Y240907D01*
X104890Y240982D01*
X105356Y241045D01*
X105823Y241097D01*
X106291Y241137D01*
X106760Y241166D01*
X107230Y241183D01*
X107700Y241189D01*
X108170Y241183D01*
X108640Y241166D01*
X109109Y241137D01*
X109577Y241097D01*
X110044Y241045D01*
X110510Y240982D01*
X110974Y240907D01*
X111436Y240821D01*
X111896Y240724D01*
X112353Y240615D01*
X112808Y240495D01*
X113259Y240364D01*
X113707Y240222D01*
X114151Y240070D01*
X114592Y239906D01*
X115028Y239731D01*
X115460Y239546D01*
X115888Y239350D01*
X116310Y239144D01*
X116727Y238928D01*
X117139Y238701D01*
X117545Y238465D01*
X117945Y238218D01*
X118339Y237962D01*
X118727Y237696D01*
X119108Y237420D01*
X119482Y237136D01*
X119849Y236842D01*
X120208Y236540D01*
X120560Y236228D01*
X120905Y235908D01*
X121241Y235580D01*
X121569Y235244D01*
X121889Y234899D01*
X122201Y234547D01*
X122503Y234188D01*
X122797Y233821D01*
X123081Y233447D01*
X123357Y233066D01*
X123623Y232678D01*
X123879Y232284D01*
X124126Y231884D01*
X124362Y231478D01*
X124589Y231066D01*
X124805Y230649D01*
X125011Y230227D01*
X125207Y229799D01*
X125392Y229367D01*
X125567Y228931D01*
X125731Y228490D01*
X125883Y228046D01*
X126025Y227598D01*
X126156Y227147D01*
X126276Y226692D01*
X126385Y226235D01*
X126482Y225775D01*
X126568Y225313D01*
X126643Y224849D01*
X126706Y224383D01*
X126758Y223916D01*
X126798Y223448D01*
X126827Y222979D01*
X126844Y222509D01*
X126850Y222039D01*
X126844Y221569D01*
X126827Y221099D01*
X126798Y220630D01*
X126758Y220162D01*
X126706Y219695D01*
X126643Y219229D01*
X126568Y218765D01*
X126482Y218303D01*
X126385Y217843D01*
X126276Y217386D01*
X126156Y216931D01*
X126025Y216480D01*
X125883Y216032D01*
X125731Y215588D01*
X125567Y215147D01*
X125392Y214711D01*
X125207Y214279D01*
X125011Y213851D01*
X124805Y213429D01*
X124589Y213012D01*
X124362Y212600D01*
X124126Y212194D01*
X123879Y211794D01*
X123623Y211400D01*
X123357Y211012D01*
X123081Y210631D01*
X122797Y210257D01*
X122503Y209890D01*
X122201Y209531D01*
X121889Y209179D01*
X121569Y208834D01*
X121241Y208498D01*
X120905Y208170D01*
X120560Y207850D01*
X120208Y207538D01*
X119849Y207236D01*
X119482Y206942D01*
X119108Y206658D01*
X118727Y206382D01*
X118339Y206116D01*
X117945Y205860D01*
X117545Y205613D01*
X117139Y205377D01*
X116727Y205150D01*
X116310Y204934D01*
X115888Y204728D01*
X115460Y204532D01*
X115028Y204347D01*
X114592Y204172D01*
X114151Y204008D01*
X113707Y203856D01*
X113259Y203714D01*
X112808Y203583D01*
X112353Y203463D01*
X111896Y203354D01*
X111436Y203257D01*
X110974Y203171D01*
X110510Y203096D01*
X110044Y203033D01*
X109577Y202981D01*
X109109Y202941D01*
X108640Y202912D01*
X108170Y202895D01*
X107700Y202889D01*
X107230Y202895D01*
X106760Y202912D01*
X106291Y202941D01*
X105823Y202981D01*
X105356Y203033D01*
X104890Y203096D01*
X104426Y203171D01*
X103964Y203257D01*
X103504Y203354D01*
X103047Y203463D01*
X102592Y203583D01*
X102141Y203714D01*
X101693Y203856D01*
X101249Y204008D01*
X100808Y204172D01*
X100372Y204347D01*
X99940Y204532D01*
X99512Y204728D01*
X99090Y204934D01*
X98673Y205150D01*
X98261Y205377D01*
X97855Y205613D01*
X97455Y205860D01*
X97061Y206116D01*
X96673Y206382D01*
X96292Y206658D01*
X95918Y206942D01*
X95551Y207236D01*
X95192Y207538D01*
X94840Y207850D01*
X94495Y208170D01*
X94159Y208498D01*
X93831Y208834D01*
X93511Y209179D01*
X93199Y209531D01*
X92897Y209890D01*
X92603Y210257D01*
X92319Y210631D01*
X92043Y211012D01*
X91777Y211400D01*
X91521Y211794D01*
X91274Y212194D01*
X91038Y212600D01*
X90811Y213012D01*
X90595Y213429D01*
X90389Y213851D01*
X90193Y214279D01*
X90008Y214711D01*
X89833Y215147D01*
X89669Y215588D01*
X89517Y216032D01*
X89375Y216480D01*
X89244Y216931D01*
X89124Y217386D01*
X89015Y217843D01*
X88918Y218303D01*
X88832Y218765D01*
X88757Y219229D01*
X88694Y219695D01*
X88642Y220162D01*
X88602Y220630D01*
X88573Y221099D01*
X88556Y221569D01*
X88550Y222039D01*
X88550Y272839D02*
X88556Y273309D01*
X88573Y273779D01*
X88602Y274248D01*
X88642Y274716D01*
X88694Y275183D01*
X88757Y275649D01*
X88832Y276113D01*
X88918Y276575D01*
X89015Y277035D01*
X89124Y277492D01*
X89244Y277947D01*
X89375Y278398D01*
X89517Y278846D01*
X89669Y279290D01*
X89833Y279731D01*
X90008Y280167D01*
X90193Y280599D01*
X90389Y281027D01*
X90595Y281449D01*
X90811Y281866D01*
X91038Y282278D01*
X91274Y282684D01*
X91521Y283084D01*
X91777Y283478D01*
X92043Y283866D01*
X92319Y284247D01*
X92603Y284621D01*
X92897Y284988D01*
X93199Y285347D01*
X93511Y285699D01*
X93831Y286044D01*
X94159Y286380D01*
X94495Y286708D01*
X94840Y287028D01*
X95192Y287340D01*
X95551Y287642D01*
X95918Y287936D01*
X96292Y288220D01*
X96673Y288496D01*
X97061Y288762D01*
X97455Y289018D01*
X97855Y289265D01*
X98261Y289501D01*
X98673Y289728D01*
X99090Y289944D01*
X99512Y290150D01*
X99940Y290346D01*
X100372Y290531D01*
X100808Y290706D01*
X101249Y290870D01*
X101693Y291022D01*
X102141Y291164D01*
X102592Y291295D01*
X103047Y291415D01*
X103504Y291524D01*
X103964Y291621D01*
X104426Y291707D01*
X104890Y291782D01*
X105356Y291845D01*
X105823Y291897D01*
X106291Y291937D01*
X106760Y291966D01*
X107230Y291983D01*
X107700Y291989D01*
X108170Y291983D01*
X108640Y291966D01*
X109109Y291937D01*
X109577Y291897D01*
X110044Y291845D01*
X110510Y291782D01*
X110974Y291707D01*
X111436Y291621D01*
X111896Y291524D01*
X112353Y291415D01*
X112808Y291295D01*
X113259Y291164D01*
X113707Y291022D01*
X114151Y290870D01*
X114592Y290706D01*
X115028Y290531D01*
X115460Y290346D01*
X115888Y290150D01*
X116310Y289944D01*
X116727Y289728D01*
X117139Y289501D01*
X117545Y289265D01*
X117945Y289018D01*
X118339Y288762D01*
X118727Y288496D01*
X119108Y288220D01*
X119482Y287936D01*
X119849Y287642D01*
X120208Y287340D01*
X120560Y287028D01*
X120905Y286708D01*
X121241Y286380D01*
X121569Y286044D01*
X121889Y285699D01*
X122201Y285347D01*
X122503Y284988D01*
X122797Y284621D01*
X123081Y284247D01*
X123357Y283866D01*
X123623Y283478D01*
X123879Y283084D01*
X124126Y282684D01*
X124362Y282278D01*
X124589Y281866D01*
X124805Y281449D01*
X125011Y281027D01*
X125207Y280599D01*
X125392Y280167D01*
X125567Y279731D01*
X125731Y279290D01*
X125883Y278846D01*
X126025Y278398D01*
X126156Y277947D01*
X126276Y277492D01*
X126385Y277035D01*
X126482Y276575D01*
X126568Y276113D01*
X126643Y275649D01*
X126706Y275183D01*
X126758Y274716D01*
X126798Y274248D01*
X126827Y273779D01*
X126844Y273309D01*
X126850Y272839D01*
X126844Y272369D01*
X126827Y271899D01*
X126798Y271430D01*
X126758Y270962D01*
X126706Y270495D01*
X126643Y270029D01*
X126568Y269565D01*
X126482Y269103D01*
X126385Y268643D01*
X126276Y268186D01*
X126156Y267731D01*
X126025Y267280D01*
X125883Y266832D01*
X125731Y266388D01*
X125567Y265947D01*
X125392Y265511D01*
X125207Y265079D01*
X125011Y264651D01*
X124805Y264229D01*
X124589Y263812D01*
X124362Y263400D01*
X124126Y262994D01*
X123879Y262594D01*
X123623Y262200D01*
X123357Y261812D01*
X123081Y261431D01*
X122797Y261057D01*
X122503Y260690D01*
X122201Y260331D01*
X121889Y259979D01*
X121569Y259634D01*
X121241Y259298D01*
X120905Y258970D01*
X120560Y258650D01*
X120208Y258338D01*
X119849Y258036D01*
X119482Y257742D01*
X119108Y257458D01*
X118727Y257182D01*
X118339Y256916D01*
X117945Y256660D01*
X117545Y256413D01*
X117139Y256177D01*
X116727Y255950D01*
X116310Y255734D01*
X115888Y255528D01*
X115460Y255332D01*
X115028Y255147D01*
X114592Y254972D01*
X114151Y254808D01*
X113707Y254656D01*
X113259Y254514D01*
X112808Y254383D01*
X112353Y254263D01*
X111896Y254154D01*
X111436Y254057D01*
X110974Y253971D01*
X110510Y253896D01*
X110044Y253833D01*
X109577Y253781D01*
X109109Y253741D01*
X108640Y253712D01*
X108170Y253695D01*
X107700Y253689D01*
X107230Y253695D01*
X106760Y253712D01*
X106291Y253741D01*
X105823Y253781D01*
X105356Y253833D01*
X104890Y253896D01*
X104426Y253971D01*
X103964Y254057D01*
X103504Y254154D01*
X103047Y254263D01*
X102592Y254383D01*
X102141Y254514D01*
X101693Y254656D01*
X101249Y254808D01*
X100808Y254972D01*
X100372Y255147D01*
X99940Y255332D01*
X99512Y255528D01*
X99090Y255734D01*
X98673Y255950D01*
X98261Y256177D01*
X97855Y256413D01*
X97455Y256660D01*
X97061Y256916D01*
X96673Y257182D01*
X96292Y257458D01*
X95918Y257742D01*
X95551Y258036D01*
X95192Y258338D01*
X94840Y258650D01*
X94495Y258970D01*
X94159Y259298D01*
X93831Y259634D01*
X93511Y259979D01*
X93199Y260331D01*
X92897Y260690D01*
X92603Y261057D01*
X92319Y261431D01*
X92043Y261812D01*
X91777Y262200D01*
X91521Y262594D01*
X91274Y262994D01*
X91038Y263400D01*
X90811Y263812D01*
X90595Y264229D01*
X90389Y264651D01*
X90193Y265079D01*
X90008Y265511D01*
X89833Y265947D01*
X89669Y266388D01*
X89517Y266832D01*
X89375Y267280D01*
X89244Y267731D01*
X89124Y268186D01*
X89015Y268643D01*
X88918Y269103D01*
X88832Y269565D01*
X88757Y270029D01*
X88694Y270495D01*
X88642Y270962D01*
X88602Y271430D01*
X88573Y271899D01*
X88556Y272369D01*
X88550Y272839D01*
X88550Y323639D02*
X88556Y324109D01*
X88573Y324579D01*
X88602Y325048D01*
X88642Y325516D01*
X88694Y325983D01*
X88757Y326449D01*
X88832Y326913D01*
X88918Y327375D01*
X89015Y327835D01*
X89124Y328292D01*
X89244Y328747D01*
X89375Y329198D01*
X89517Y329646D01*
X89669Y330090D01*
X89833Y330531D01*
X90008Y330967D01*
X90193Y331399D01*
X90389Y331827D01*
X90595Y332249D01*
X90811Y332666D01*
X91038Y333078D01*
X91274Y333484D01*
X91521Y333884D01*
X91777Y334278D01*
X92043Y334666D01*
X92319Y335047D01*
X92603Y335421D01*
X92897Y335788D01*
X93199Y336147D01*
X93511Y336499D01*
X93831Y336844D01*
X94159Y337180D01*
X94495Y337508D01*
X94840Y337828D01*
X95192Y338140D01*
X95551Y338442D01*
X95918Y338736D01*
X96292Y339020D01*
X96673Y339296D01*
X97061Y339562D01*
X97455Y339818D01*
X97855Y340065D01*
X98261Y340301D01*
X98673Y340528D01*
X99090Y340744D01*
X99512Y340950D01*
X99940Y341146D01*
X100372Y341331D01*
X100808Y341506D01*
X101249Y341670D01*
X101693Y341822D01*
X102141Y341964D01*
X102592Y342095D01*
X103047Y342215D01*
X103504Y342324D01*
X103964Y342421D01*
X104426Y342507D01*
X104890Y342582D01*
X105356Y342645D01*
X105823Y342697D01*
X106291Y342737D01*
X106760Y342766D01*
X107230Y342783D01*
X107700Y342789D01*
X108170Y342783D01*
X108640Y342766D01*
X109109Y342737D01*
X109577Y342697D01*
X110044Y342645D01*
X110510Y342582D01*
X110974Y342507D01*
X111436Y342421D01*
X111896Y342324D01*
X112353Y342215D01*
X112808Y342095D01*
X113259Y341964D01*
X113707Y341822D01*
X114151Y341670D01*
X114592Y341506D01*
X115028Y341331D01*
X115460Y341146D01*
X115888Y340950D01*
X116310Y340744D01*
X116727Y340528D01*
X117139Y340301D01*
X117545Y340065D01*
X117945Y339818D01*
X118339Y339562D01*
X118727Y339296D01*
X119108Y339020D01*
X119482Y338736D01*
X119849Y338442D01*
X120208Y338140D01*
X120560Y337828D01*
X120905Y337508D01*
X121241Y337180D01*
X121569Y336844D01*
X121889Y336499D01*
X122201Y336147D01*
X122503Y335788D01*
X122797Y335421D01*
X123081Y335047D01*
X123357Y334666D01*
X123623Y334278D01*
X123879Y333884D01*
X124126Y333484D01*
X124362Y333078D01*
X124589Y332666D01*
X124805Y332249D01*
X125011Y331827D01*
X125207Y331399D01*
X125392Y330967D01*
X125567Y330531D01*
X125731Y330090D01*
X125883Y329646D01*
X126025Y329198D01*
X126156Y328747D01*
X126276Y328292D01*
X126385Y327835D01*
X126482Y327375D01*
X126568Y326913D01*
X126643Y326449D01*
X126706Y325983D01*
X126758Y325516D01*
X126798Y325048D01*
X126827Y324579D01*
X126844Y324109D01*
X126850Y323639D01*
X126844Y323169D01*
X126827Y322699D01*
X126798Y322230D01*
X126758Y321762D01*
X126706Y321295D01*
X126643Y320829D01*
X126568Y320365D01*
X126482Y319903D01*
X126385Y319443D01*
X126276Y318986D01*
X126156Y318531D01*
X126025Y318080D01*
X125883Y317632D01*
X125731Y317188D01*
X125567Y316747D01*
X125392Y316311D01*
X125207Y315879D01*
X125011Y315451D01*
X124805Y315029D01*
X124589Y314612D01*
X124362Y314200D01*
X124126Y313794D01*
X123879Y313394D01*
X123623Y313000D01*
X123357Y312612D01*
X123081Y312231D01*
X122797Y311857D01*
X122503Y311490D01*
X122201Y311131D01*
X121889Y310779D01*
X121569Y310434D01*
X121241Y310098D01*
X120905Y309770D01*
X120560Y309450D01*
X120208Y309138D01*
X119849Y308836D01*
X119482Y308542D01*
X119108Y308258D01*
X118727Y307982D01*
X118339Y307716D01*
X117945Y307460D01*
X117545Y307213D01*
X117139Y306977D01*
X116727Y306750D01*
X116310Y306534D01*
X115888Y306328D01*
X115460Y306132D01*
X115028Y305947D01*
X114592Y305772D01*
X114151Y305608D01*
X113707Y305456D01*
X113259Y305314D01*
X112808Y305183D01*
X112353Y305063D01*
X111896Y304954D01*
X111436Y304857D01*
X110974Y304771D01*
X110510Y304696D01*
X110044Y304633D01*
X109577Y304581D01*
X109109Y304541D01*
X108640Y304512D01*
X108170Y304495D01*
X107700Y304489D01*
X107230Y304495D01*
X106760Y304512D01*
X106291Y304541D01*
X105823Y304581D01*
X105356Y304633D01*
X104890Y304696D01*
X104426Y304771D01*
X103964Y304857D01*
X103504Y304954D01*
X103047Y305063D01*
X102592Y305183D01*
X102141Y305314D01*
X101693Y305456D01*
X101249Y305608D01*
X100808Y305772D01*
X100372Y305947D01*
X99940Y306132D01*
X99512Y306328D01*
X99090Y306534D01*
X98673Y306750D01*
X98261Y306977D01*
X97855Y307213D01*
X97455Y307460D01*
X97061Y307716D01*
X96673Y307982D01*
X96292Y308258D01*
X95918Y308542D01*
X95551Y308836D01*
X95192Y309138D01*
X94840Y309450D01*
X94495Y309770D01*
X94159Y310098D01*
X93831Y310434D01*
X93511Y310779D01*
X93199Y311131D01*
X92897Y311490D01*
X92603Y311857D01*
X92319Y312231D01*
X92043Y312612D01*
X91777Y313000D01*
X91521Y313394D01*
X91274Y313794D01*
X91038Y314200D01*
X90811Y314612D01*
X90595Y315029D01*
X90389Y315451D01*
X90193Y315879D01*
X90008Y316311D01*
X89833Y316747D01*
X89669Y317188D01*
X89517Y317632D01*
X89375Y318080D01*
X89244Y318531D01*
X89124Y318986D01*
X89015Y319443D01*
X88918Y319903D01*
X88832Y320365D01*
X88757Y320829D01*
X88694Y321295D01*
X88642Y321762D01*
X88602Y322230D01*
X88573Y322699D01*
X88556Y323169D01*
X88550Y323639D01*
D13*
X260731Y376301D02*
X263866Y376301D01*
X262299Y376301D02*
X262299Y385707D01*
X263866Y385707D02*
X260731Y385707D01*
X271671Y385707D02*
X273238Y384139D01*
X271671Y385707D02*
X268535Y385707D01*
X266968Y384139D01*
X266968Y377869D01*
X268535Y376301D01*
X271671Y376301D01*
X273238Y377869D01*
X281026Y376301D02*
X281026Y385707D01*
X276323Y381004D01*
X282594Y381004D01*
D12*
X402920Y267380D02*
X402920Y227920D01*
X422580Y227920D02*
X422580Y267380D01*
X422580Y227920D02*
X402920Y227920D01*
X402920Y267380D02*
X422580Y267380D01*
D13*
X398181Y241602D02*
X396613Y240034D01*
X396613Y236899D01*
X398181Y235331D01*
X404451Y235331D01*
X406019Y236899D01*
X406019Y240034D01*
X404451Y241602D01*
X399748Y244686D02*
X396613Y247822D01*
X406019Y247822D01*
X406019Y250957D02*
X406019Y244686D01*
X406019Y254041D02*
X406019Y260312D01*
X406019Y254041D02*
X399748Y260312D01*
X398181Y260312D01*
X396613Y258744D01*
X396613Y255609D01*
X398181Y254041D01*
D12*
X377520Y267380D02*
X377520Y227920D01*
X397180Y227920D02*
X397180Y267380D01*
X397180Y227920D02*
X377520Y227920D01*
X377520Y267380D02*
X397180Y267380D01*
D13*
X372781Y241602D02*
X371213Y240034D01*
X371213Y236899D01*
X372781Y235331D01*
X379051Y235331D01*
X380619Y236899D01*
X380619Y240034D01*
X379051Y241602D01*
X374348Y244686D02*
X371213Y247822D01*
X380619Y247822D01*
X380619Y250957D02*
X380619Y244686D01*
X372781Y254041D02*
X371213Y255609D01*
X371213Y258744D01*
X372781Y260312D01*
X374348Y260312D01*
X375916Y258744D01*
X375916Y257177D01*
X375916Y258744D02*
X377484Y260312D01*
X379051Y260312D01*
X380619Y258744D01*
X380619Y255609D01*
X379051Y254041D01*
X396613Y184531D02*
X406019Y184531D01*
X396613Y184531D02*
X396613Y189234D01*
X398181Y190802D01*
X401316Y190802D01*
X402884Y189234D01*
X402884Y184531D01*
X402884Y187666D02*
X406019Y190802D01*
X399748Y193886D02*
X396613Y197022D01*
X406019Y197022D01*
X406019Y200157D02*
X406019Y193886D01*
X399748Y203241D02*
X396613Y206377D01*
X406019Y206377D01*
X406019Y209512D02*
X406019Y203241D01*
X380619Y184531D02*
X371213Y184531D01*
X371213Y189234D01*
X372781Y190802D01*
X375916Y190802D01*
X377484Y189234D01*
X377484Y184531D01*
X377484Y187666D02*
X380619Y190802D01*
X374348Y193886D02*
X371213Y197022D01*
X380619Y197022D01*
X380619Y200157D02*
X380619Y193886D01*
X380619Y203241D02*
X380619Y209512D01*
X380619Y203241D02*
X374348Y209512D01*
X372781Y209512D01*
X371213Y207944D01*
X371213Y204809D01*
X372781Y203241D01*
D12*
X352120Y227920D02*
X352120Y267380D01*
X371780Y267380D02*
X371780Y227920D01*
X352120Y227920D01*
X352120Y267380D02*
X371780Y267380D01*
D13*
X347381Y241602D02*
X345813Y240034D01*
X345813Y236899D01*
X347381Y235331D01*
X353651Y235331D01*
X355219Y236899D01*
X355219Y240034D01*
X353651Y241602D01*
X348948Y244686D02*
X345813Y247822D01*
X355219Y247822D01*
X355219Y250957D02*
X355219Y244686D01*
X355219Y258744D02*
X345813Y258744D01*
X350516Y254041D01*
X350516Y260312D01*
D12*
X326314Y267380D02*
X326314Y227920D01*
X345974Y227920D02*
X345974Y267380D01*
X345974Y227920D02*
X326314Y227920D01*
X326314Y267380D02*
X345974Y267380D01*
D13*
X315224Y241602D02*
X313657Y240034D01*
X313657Y236899D01*
X315224Y235331D01*
X321495Y235331D01*
X323063Y236899D01*
X323063Y240034D01*
X321495Y241602D01*
X316792Y244686D02*
X313657Y247822D01*
X323063Y247822D01*
X323063Y250957D02*
X323063Y244686D01*
X313657Y254041D02*
X313657Y260312D01*
X313657Y254041D02*
X318360Y254041D01*
X316792Y257177D01*
X316792Y258744D01*
X318360Y260312D01*
X321495Y260312D01*
X323063Y258744D01*
X323063Y255609D01*
X321495Y254041D01*
X345813Y184531D02*
X355219Y184531D01*
X345813Y184531D02*
X345813Y189234D01*
X347381Y190802D01*
X350516Y190802D01*
X352084Y189234D01*
X352084Y184531D01*
X352084Y187666D02*
X355219Y190802D01*
X348948Y193886D02*
X345813Y197022D01*
X355219Y197022D01*
X355219Y200157D02*
X355219Y193886D01*
X347381Y203241D02*
X345813Y204809D01*
X345813Y207944D01*
X347381Y209512D01*
X348948Y209512D01*
X350516Y207944D01*
X350516Y206377D01*
X350516Y207944D02*
X352084Y209512D01*
X353651Y209512D01*
X355219Y207944D01*
X355219Y204809D01*
X353651Y203241D01*
X323469Y190881D02*
X314063Y190881D01*
X314063Y195584D01*
X315631Y197152D01*
X318766Y197152D01*
X320334Y195584D01*
X320334Y190881D01*
X320334Y194016D02*
X323469Y197152D01*
X317198Y200236D02*
X314063Y203372D01*
X323469Y203372D01*
X323469Y206507D02*
X323469Y200236D01*
X323469Y214294D02*
X314063Y214294D01*
X318766Y209591D01*
X318766Y215862D01*
D10*
X532390Y172060D02*
X532390Y375060D01*
X433080Y375060D02*
X433080Y172060D01*
X532390Y172060D01*
X532390Y375060D02*
X433080Y375060D01*
D16*
X457200Y184150D02*
X479425Y184150D01*
X479425Y177800D01*
X485775Y177800D01*
X485775Y184150D01*
X485775Y190500D01*
X479425Y190500D01*
X479425Y184150D01*
X485775Y184150D02*
X508000Y184150D01*
X508000Y260350D02*
X492125Y260350D01*
X492125Y336550D01*
X495300Y336550D01*
X508000Y330200D01*
X504825Y330200D02*
X504825Y311150D01*
X508000Y311150D01*
X504825Y342900D02*
X504825Y361950D01*
X508000Y361950D01*
X473075Y260350D02*
X457200Y260350D01*
X473075Y260350D02*
X473075Y336550D01*
X469900Y336550D01*
X457200Y330200D01*
X460375Y330200D02*
X460375Y311150D01*
X457200Y311150D01*
X460375Y342900D02*
X460375Y361950D01*
X457200Y361950D01*
D15*
X539961Y459600D02*
X285961Y459600D01*
X285961Y393857D02*
X539961Y393857D01*
X539961Y438655D02*
X539961Y443579D01*
X539961Y452370D02*
X541248Y452370D01*
X541248Y448230D02*
X539961Y448230D01*
X539961Y450379D01*
X539961Y452370D01*
X543031Y446730D02*
X545661Y446730D01*
X545661Y453870D02*
X543031Y453870D01*
X539961Y448230D02*
X539961Y443579D01*
X541248Y452370D02*
X543031Y453870D01*
X545661Y453870D02*
X545661Y446730D01*
X539961Y398687D02*
X539961Y393857D01*
X539961Y398687D02*
X539961Y438655D01*
X543031Y446730D02*
X541248Y448230D01*
X539961Y443579D02*
X285961Y443579D01*
X285961Y438655D01*
X285961Y450379D02*
X539961Y450379D01*
X285961Y450379D02*
X285961Y443579D01*
X285961Y438655D02*
X285961Y398687D01*
X285961Y393857D01*
X285961Y378600D01*
X539961Y452370D02*
X539961Y456600D01*
X285961Y456600D02*
X285961Y450379D01*
X285961Y378600D02*
X539961Y378600D01*
X539961Y393857D01*
X539961Y456600D02*
X285961Y456600D01*
X539961Y456600D02*
X539961Y459600D01*
X285961Y459600D02*
X285961Y456600D01*
X495411Y418850D02*
X495417Y419320D01*
X495434Y419790D01*
X495463Y420259D01*
X495503Y420727D01*
X495555Y421194D01*
X495618Y421660D01*
X495693Y422124D01*
X495779Y422586D01*
X495876Y423046D01*
X495985Y423503D01*
X496105Y423958D01*
X496236Y424409D01*
X496378Y424857D01*
X496530Y425301D01*
X496694Y425742D01*
X496869Y426178D01*
X497054Y426610D01*
X497250Y427038D01*
X497456Y427460D01*
X497672Y427877D01*
X497899Y428289D01*
X498135Y428695D01*
X498382Y429095D01*
X498638Y429489D01*
X498904Y429877D01*
X499180Y430258D01*
X499464Y430632D01*
X499758Y430999D01*
X500060Y431358D01*
X500372Y431710D01*
X500692Y432055D01*
X501020Y432391D01*
X501356Y432719D01*
X501701Y433039D01*
X502053Y433351D01*
X502412Y433653D01*
X502779Y433947D01*
X503153Y434231D01*
X503534Y434507D01*
X503922Y434773D01*
X504316Y435029D01*
X504716Y435276D01*
X505122Y435512D01*
X505534Y435739D01*
X505951Y435955D01*
X506373Y436161D01*
X506801Y436357D01*
X507233Y436542D01*
X507669Y436717D01*
X508110Y436881D01*
X508554Y437033D01*
X509002Y437175D01*
X509453Y437306D01*
X509908Y437426D01*
X510365Y437535D01*
X510825Y437632D01*
X511287Y437718D01*
X511751Y437793D01*
X512217Y437856D01*
X512684Y437908D01*
X513152Y437948D01*
X513621Y437977D01*
X514091Y437994D01*
X514561Y438000D01*
X515031Y437994D01*
X515501Y437977D01*
X515970Y437948D01*
X516438Y437908D01*
X516905Y437856D01*
X517371Y437793D01*
X517835Y437718D01*
X518297Y437632D01*
X518757Y437535D01*
X519214Y437426D01*
X519669Y437306D01*
X520120Y437175D01*
X520568Y437033D01*
X521012Y436881D01*
X521453Y436717D01*
X521889Y436542D01*
X522321Y436357D01*
X522749Y436161D01*
X523171Y435955D01*
X523588Y435739D01*
X524000Y435512D01*
X524406Y435276D01*
X524806Y435029D01*
X525200Y434773D01*
X525588Y434507D01*
X525969Y434231D01*
X526343Y433947D01*
X526710Y433653D01*
X527069Y433351D01*
X527421Y433039D01*
X527766Y432719D01*
X528102Y432391D01*
X528430Y432055D01*
X528750Y431710D01*
X529062Y431358D01*
X529364Y430999D01*
X529658Y430632D01*
X529942Y430258D01*
X530218Y429877D01*
X530484Y429489D01*
X530740Y429095D01*
X530987Y428695D01*
X531223Y428289D01*
X531450Y427877D01*
X531666Y427460D01*
X531872Y427038D01*
X532068Y426610D01*
X532253Y426178D01*
X532428Y425742D01*
X532592Y425301D01*
X532744Y424857D01*
X532886Y424409D01*
X533017Y423958D01*
X533137Y423503D01*
X533246Y423046D01*
X533343Y422586D01*
X533429Y422124D01*
X533504Y421660D01*
X533567Y421194D01*
X533619Y420727D01*
X533659Y420259D01*
X533688Y419790D01*
X533705Y419320D01*
X533711Y418850D01*
X533705Y418380D01*
X533688Y417910D01*
X533659Y417441D01*
X533619Y416973D01*
X533567Y416506D01*
X533504Y416040D01*
X533429Y415576D01*
X533343Y415114D01*
X533246Y414654D01*
X533137Y414197D01*
X533017Y413742D01*
X532886Y413291D01*
X532744Y412843D01*
X532592Y412399D01*
X532428Y411958D01*
X532253Y411522D01*
X532068Y411090D01*
X531872Y410662D01*
X531666Y410240D01*
X531450Y409823D01*
X531223Y409411D01*
X530987Y409005D01*
X530740Y408605D01*
X530484Y408211D01*
X530218Y407823D01*
X529942Y407442D01*
X529658Y407068D01*
X529364Y406701D01*
X529062Y406342D01*
X528750Y405990D01*
X528430Y405645D01*
X528102Y405309D01*
X527766Y404981D01*
X527421Y404661D01*
X527069Y404349D01*
X526710Y404047D01*
X526343Y403753D01*
X525969Y403469D01*
X525588Y403193D01*
X525200Y402927D01*
X524806Y402671D01*
X524406Y402424D01*
X524000Y402188D01*
X523588Y401961D01*
X523171Y401745D01*
X522749Y401539D01*
X522321Y401343D01*
X521889Y401158D01*
X521453Y400983D01*
X521012Y400819D01*
X520568Y400667D01*
X520120Y400525D01*
X519669Y400394D01*
X519214Y400274D01*
X518757Y400165D01*
X518297Y400068D01*
X517835Y399982D01*
X517371Y399907D01*
X516905Y399844D01*
X516438Y399792D01*
X515970Y399752D01*
X515501Y399723D01*
X515031Y399706D01*
X514561Y399700D01*
X514091Y399706D01*
X513621Y399723D01*
X513152Y399752D01*
X512684Y399792D01*
X512217Y399844D01*
X511751Y399907D01*
X511287Y399982D01*
X510825Y400068D01*
X510365Y400165D01*
X509908Y400274D01*
X509453Y400394D01*
X509002Y400525D01*
X508554Y400667D01*
X508110Y400819D01*
X507669Y400983D01*
X507233Y401158D01*
X506801Y401343D01*
X506373Y401539D01*
X505951Y401745D01*
X505534Y401961D01*
X505122Y402188D01*
X504716Y402424D01*
X504316Y402671D01*
X503922Y402927D01*
X503534Y403193D01*
X503153Y403469D01*
X502779Y403753D01*
X502412Y404047D01*
X502053Y404349D01*
X501701Y404661D01*
X501356Y404981D01*
X501020Y405309D01*
X500692Y405645D01*
X500372Y405990D01*
X500060Y406342D01*
X499758Y406701D01*
X499464Y407068D01*
X499180Y407442D01*
X498904Y407823D01*
X498638Y408211D01*
X498382Y408605D01*
X498135Y409005D01*
X497899Y409411D01*
X497672Y409823D01*
X497456Y410240D01*
X497250Y410662D01*
X497054Y411090D01*
X496869Y411522D01*
X496694Y411958D01*
X496530Y412399D01*
X496378Y412843D01*
X496236Y413291D01*
X496105Y413742D01*
X495985Y414197D01*
X495876Y414654D01*
X495779Y415114D01*
X495693Y415576D01*
X495618Y416040D01*
X495555Y416506D01*
X495503Y416973D01*
X495463Y417441D01*
X495434Y417910D01*
X495417Y418380D01*
X495411Y418850D01*
X444611Y418850D02*
X444617Y419320D01*
X444634Y419790D01*
X444663Y420259D01*
X444703Y420727D01*
X444755Y421194D01*
X444818Y421660D01*
X444893Y422124D01*
X444979Y422586D01*
X445076Y423046D01*
X445185Y423503D01*
X445305Y423958D01*
X445436Y424409D01*
X445578Y424857D01*
X445730Y425301D01*
X445894Y425742D01*
X446069Y426178D01*
X446254Y426610D01*
X446450Y427038D01*
X446656Y427460D01*
X446872Y427877D01*
X447099Y428289D01*
X447335Y428695D01*
X447582Y429095D01*
X447838Y429489D01*
X448104Y429877D01*
X448380Y430258D01*
X448664Y430632D01*
X448958Y430999D01*
X449260Y431358D01*
X449572Y431710D01*
X449892Y432055D01*
X450220Y432391D01*
X450556Y432719D01*
X450901Y433039D01*
X451253Y433351D01*
X451612Y433653D01*
X451979Y433947D01*
X452353Y434231D01*
X452734Y434507D01*
X453122Y434773D01*
X453516Y435029D01*
X453916Y435276D01*
X454322Y435512D01*
X454734Y435739D01*
X455151Y435955D01*
X455573Y436161D01*
X456001Y436357D01*
X456433Y436542D01*
X456869Y436717D01*
X457310Y436881D01*
X457754Y437033D01*
X458202Y437175D01*
X458653Y437306D01*
X459108Y437426D01*
X459565Y437535D01*
X460025Y437632D01*
X460487Y437718D01*
X460951Y437793D01*
X461417Y437856D01*
X461884Y437908D01*
X462352Y437948D01*
X462821Y437977D01*
X463291Y437994D01*
X463761Y438000D01*
X464231Y437994D01*
X464701Y437977D01*
X465170Y437948D01*
X465638Y437908D01*
X466105Y437856D01*
X466571Y437793D01*
X467035Y437718D01*
X467497Y437632D01*
X467957Y437535D01*
X468414Y437426D01*
X468869Y437306D01*
X469320Y437175D01*
X469768Y437033D01*
X470212Y436881D01*
X470653Y436717D01*
X471089Y436542D01*
X471521Y436357D01*
X471949Y436161D01*
X472371Y435955D01*
X472788Y435739D01*
X473200Y435512D01*
X473606Y435276D01*
X474006Y435029D01*
X474400Y434773D01*
X474788Y434507D01*
X475169Y434231D01*
X475543Y433947D01*
X475910Y433653D01*
X476269Y433351D01*
X476621Y433039D01*
X476966Y432719D01*
X477302Y432391D01*
X477630Y432055D01*
X477950Y431710D01*
X478262Y431358D01*
X478564Y430999D01*
X478858Y430632D01*
X479142Y430258D01*
X479418Y429877D01*
X479684Y429489D01*
X479940Y429095D01*
X480187Y428695D01*
X480423Y428289D01*
X480650Y427877D01*
X480866Y427460D01*
X481072Y427038D01*
X481268Y426610D01*
X481453Y426178D01*
X481628Y425742D01*
X481792Y425301D01*
X481944Y424857D01*
X482086Y424409D01*
X482217Y423958D01*
X482337Y423503D01*
X482446Y423046D01*
X482543Y422586D01*
X482629Y422124D01*
X482704Y421660D01*
X482767Y421194D01*
X482819Y420727D01*
X482859Y420259D01*
X482888Y419790D01*
X482905Y419320D01*
X482911Y418850D01*
X482905Y418380D01*
X482888Y417910D01*
X482859Y417441D01*
X482819Y416973D01*
X482767Y416506D01*
X482704Y416040D01*
X482629Y415576D01*
X482543Y415114D01*
X482446Y414654D01*
X482337Y414197D01*
X482217Y413742D01*
X482086Y413291D01*
X481944Y412843D01*
X481792Y412399D01*
X481628Y411958D01*
X481453Y411522D01*
X481268Y411090D01*
X481072Y410662D01*
X480866Y410240D01*
X480650Y409823D01*
X480423Y409411D01*
X480187Y409005D01*
X479940Y408605D01*
X479684Y408211D01*
X479418Y407823D01*
X479142Y407442D01*
X478858Y407068D01*
X478564Y406701D01*
X478262Y406342D01*
X477950Y405990D01*
X477630Y405645D01*
X477302Y405309D01*
X476966Y404981D01*
X476621Y404661D01*
X476269Y404349D01*
X475910Y404047D01*
X475543Y403753D01*
X475169Y403469D01*
X474788Y403193D01*
X474400Y402927D01*
X474006Y402671D01*
X473606Y402424D01*
X473200Y402188D01*
X472788Y401961D01*
X472371Y401745D01*
X471949Y401539D01*
X471521Y401343D01*
X471089Y401158D01*
X470653Y400983D01*
X470212Y400819D01*
X469768Y400667D01*
X469320Y400525D01*
X468869Y400394D01*
X468414Y400274D01*
X467957Y400165D01*
X467497Y400068D01*
X467035Y399982D01*
X466571Y399907D01*
X466105Y399844D01*
X465638Y399792D01*
X465170Y399752D01*
X464701Y399723D01*
X464231Y399706D01*
X463761Y399700D01*
X463291Y399706D01*
X462821Y399723D01*
X462352Y399752D01*
X461884Y399792D01*
X461417Y399844D01*
X460951Y399907D01*
X460487Y399982D01*
X460025Y400068D01*
X459565Y400165D01*
X459108Y400274D01*
X458653Y400394D01*
X458202Y400525D01*
X457754Y400667D01*
X457310Y400819D01*
X456869Y400983D01*
X456433Y401158D01*
X456001Y401343D01*
X455573Y401539D01*
X455151Y401745D01*
X454734Y401961D01*
X454322Y402188D01*
X453916Y402424D01*
X453516Y402671D01*
X453122Y402927D01*
X452734Y403193D01*
X452353Y403469D01*
X451979Y403753D01*
X451612Y404047D01*
X451253Y404349D01*
X450901Y404661D01*
X450556Y404981D01*
X450220Y405309D01*
X449892Y405645D01*
X449572Y405990D01*
X449260Y406342D01*
X448958Y406701D01*
X448664Y407068D01*
X448380Y407442D01*
X448104Y407823D01*
X447838Y408211D01*
X447582Y408605D01*
X447335Y409005D01*
X447099Y409411D01*
X446872Y409823D01*
X446656Y410240D01*
X446450Y410662D01*
X446254Y411090D01*
X446069Y411522D01*
X445894Y411958D01*
X445730Y412399D01*
X445578Y412843D01*
X445436Y413291D01*
X445305Y413742D01*
X445185Y414197D01*
X445076Y414654D01*
X444979Y415114D01*
X444893Y415576D01*
X444818Y416040D01*
X444755Y416506D01*
X444703Y416973D01*
X444663Y417441D01*
X444634Y417910D01*
X444617Y418380D01*
X444611Y418850D01*
X393811Y418850D02*
X393817Y419320D01*
X393834Y419790D01*
X393863Y420259D01*
X393903Y420727D01*
X393955Y421194D01*
X394018Y421660D01*
X394093Y422124D01*
X394179Y422586D01*
X394276Y423046D01*
X394385Y423503D01*
X394505Y423958D01*
X394636Y424409D01*
X394778Y424857D01*
X394930Y425301D01*
X395094Y425742D01*
X395269Y426178D01*
X395454Y426610D01*
X395650Y427038D01*
X395856Y427460D01*
X396072Y427877D01*
X396299Y428289D01*
X396535Y428695D01*
X396782Y429095D01*
X397038Y429489D01*
X397304Y429877D01*
X397580Y430258D01*
X397864Y430632D01*
X398158Y430999D01*
X398460Y431358D01*
X398772Y431710D01*
X399092Y432055D01*
X399420Y432391D01*
X399756Y432719D01*
X400101Y433039D01*
X400453Y433351D01*
X400812Y433653D01*
X401179Y433947D01*
X401553Y434231D01*
X401934Y434507D01*
X402322Y434773D01*
X402716Y435029D01*
X403116Y435276D01*
X403522Y435512D01*
X403934Y435739D01*
X404351Y435955D01*
X404773Y436161D01*
X405201Y436357D01*
X405633Y436542D01*
X406069Y436717D01*
X406510Y436881D01*
X406954Y437033D01*
X407402Y437175D01*
X407853Y437306D01*
X408308Y437426D01*
X408765Y437535D01*
X409225Y437632D01*
X409687Y437718D01*
X410151Y437793D01*
X410617Y437856D01*
X411084Y437908D01*
X411552Y437948D01*
X412021Y437977D01*
X412491Y437994D01*
X412961Y438000D01*
X413431Y437994D01*
X413901Y437977D01*
X414370Y437948D01*
X414838Y437908D01*
X415305Y437856D01*
X415771Y437793D01*
X416235Y437718D01*
X416697Y437632D01*
X417157Y437535D01*
X417614Y437426D01*
X418069Y437306D01*
X418520Y437175D01*
X418968Y437033D01*
X419412Y436881D01*
X419853Y436717D01*
X420289Y436542D01*
X420721Y436357D01*
X421149Y436161D01*
X421571Y435955D01*
X421988Y435739D01*
X422400Y435512D01*
X422806Y435276D01*
X423206Y435029D01*
X423600Y434773D01*
X423988Y434507D01*
X424369Y434231D01*
X424743Y433947D01*
X425110Y433653D01*
X425469Y433351D01*
X425821Y433039D01*
X426166Y432719D01*
X426502Y432391D01*
X426830Y432055D01*
X427150Y431710D01*
X427462Y431358D01*
X427764Y430999D01*
X428058Y430632D01*
X428342Y430258D01*
X428618Y429877D01*
X428884Y429489D01*
X429140Y429095D01*
X429387Y428695D01*
X429623Y428289D01*
X429850Y427877D01*
X430066Y427460D01*
X430272Y427038D01*
X430468Y426610D01*
X430653Y426178D01*
X430828Y425742D01*
X430992Y425301D01*
X431144Y424857D01*
X431286Y424409D01*
X431417Y423958D01*
X431537Y423503D01*
X431646Y423046D01*
X431743Y422586D01*
X431829Y422124D01*
X431904Y421660D01*
X431967Y421194D01*
X432019Y420727D01*
X432059Y420259D01*
X432088Y419790D01*
X432105Y419320D01*
X432111Y418850D01*
X432105Y418380D01*
X432088Y417910D01*
X432059Y417441D01*
X432019Y416973D01*
X431967Y416506D01*
X431904Y416040D01*
X431829Y415576D01*
X431743Y415114D01*
X431646Y414654D01*
X431537Y414197D01*
X431417Y413742D01*
X431286Y413291D01*
X431144Y412843D01*
X430992Y412399D01*
X430828Y411958D01*
X430653Y411522D01*
X430468Y411090D01*
X430272Y410662D01*
X430066Y410240D01*
X429850Y409823D01*
X429623Y409411D01*
X429387Y409005D01*
X429140Y408605D01*
X428884Y408211D01*
X428618Y407823D01*
X428342Y407442D01*
X428058Y407068D01*
X427764Y406701D01*
X427462Y406342D01*
X427150Y405990D01*
X426830Y405645D01*
X426502Y405309D01*
X426166Y404981D01*
X425821Y404661D01*
X425469Y404349D01*
X425110Y404047D01*
X424743Y403753D01*
X424369Y403469D01*
X423988Y403193D01*
X423600Y402927D01*
X423206Y402671D01*
X422806Y402424D01*
X422400Y402188D01*
X421988Y401961D01*
X421571Y401745D01*
X421149Y401539D01*
X420721Y401343D01*
X420289Y401158D01*
X419853Y400983D01*
X419412Y400819D01*
X418968Y400667D01*
X418520Y400525D01*
X418069Y400394D01*
X417614Y400274D01*
X417157Y400165D01*
X416697Y400068D01*
X416235Y399982D01*
X415771Y399907D01*
X415305Y399844D01*
X414838Y399792D01*
X414370Y399752D01*
X413901Y399723D01*
X413431Y399706D01*
X412961Y399700D01*
X412491Y399706D01*
X412021Y399723D01*
X411552Y399752D01*
X411084Y399792D01*
X410617Y399844D01*
X410151Y399907D01*
X409687Y399982D01*
X409225Y400068D01*
X408765Y400165D01*
X408308Y400274D01*
X407853Y400394D01*
X407402Y400525D01*
X406954Y400667D01*
X406510Y400819D01*
X406069Y400983D01*
X405633Y401158D01*
X405201Y401343D01*
X404773Y401539D01*
X404351Y401745D01*
X403934Y401961D01*
X403522Y402188D01*
X403116Y402424D01*
X402716Y402671D01*
X402322Y402927D01*
X401934Y403193D01*
X401553Y403469D01*
X401179Y403753D01*
X400812Y404047D01*
X400453Y404349D01*
X400101Y404661D01*
X399756Y404981D01*
X399420Y405309D01*
X399092Y405645D01*
X398772Y405990D01*
X398460Y406342D01*
X398158Y406701D01*
X397864Y407068D01*
X397580Y407442D01*
X397304Y407823D01*
X397038Y408211D01*
X396782Y408605D01*
X396535Y409005D01*
X396299Y409411D01*
X396072Y409823D01*
X395856Y410240D01*
X395650Y410662D01*
X395454Y411090D01*
X395269Y411522D01*
X395094Y411958D01*
X394930Y412399D01*
X394778Y412843D01*
X394636Y413291D01*
X394505Y413742D01*
X394385Y414197D01*
X394276Y414654D01*
X394179Y415114D01*
X394093Y415576D01*
X394018Y416040D01*
X393955Y416506D01*
X393903Y416973D01*
X393863Y417441D01*
X393834Y417910D01*
X393817Y418380D01*
X393811Y418850D01*
X343011Y418850D02*
X343017Y419320D01*
X343034Y419790D01*
X343063Y420259D01*
X343103Y420727D01*
X343155Y421194D01*
X343218Y421660D01*
X343293Y422124D01*
X343379Y422586D01*
X343476Y423046D01*
X343585Y423503D01*
X343705Y423958D01*
X343836Y424409D01*
X343978Y424857D01*
X344130Y425301D01*
X344294Y425742D01*
X344469Y426178D01*
X344654Y426610D01*
X344850Y427038D01*
X345056Y427460D01*
X345272Y427877D01*
X345499Y428289D01*
X345735Y428695D01*
X345982Y429095D01*
X346238Y429489D01*
X346504Y429877D01*
X346780Y430258D01*
X347064Y430632D01*
X347358Y430999D01*
X347660Y431358D01*
X347972Y431710D01*
X348292Y432055D01*
X348620Y432391D01*
X348956Y432719D01*
X349301Y433039D01*
X349653Y433351D01*
X350012Y433653D01*
X350379Y433947D01*
X350753Y434231D01*
X351134Y434507D01*
X351522Y434773D01*
X351916Y435029D01*
X352316Y435276D01*
X352722Y435512D01*
X353134Y435739D01*
X353551Y435955D01*
X353973Y436161D01*
X354401Y436357D01*
X354833Y436542D01*
X355269Y436717D01*
X355710Y436881D01*
X356154Y437033D01*
X356602Y437175D01*
X357053Y437306D01*
X357508Y437426D01*
X357965Y437535D01*
X358425Y437632D01*
X358887Y437718D01*
X359351Y437793D01*
X359817Y437856D01*
X360284Y437908D01*
X360752Y437948D01*
X361221Y437977D01*
X361691Y437994D01*
X362161Y438000D01*
X362631Y437994D01*
X363101Y437977D01*
X363570Y437948D01*
X364038Y437908D01*
X364505Y437856D01*
X364971Y437793D01*
X365435Y437718D01*
X365897Y437632D01*
X366357Y437535D01*
X366814Y437426D01*
X367269Y437306D01*
X367720Y437175D01*
X368168Y437033D01*
X368612Y436881D01*
X369053Y436717D01*
X369489Y436542D01*
X369921Y436357D01*
X370349Y436161D01*
X370771Y435955D01*
X371188Y435739D01*
X371600Y435512D01*
X372006Y435276D01*
X372406Y435029D01*
X372800Y434773D01*
X373188Y434507D01*
X373569Y434231D01*
X373943Y433947D01*
X374310Y433653D01*
X374669Y433351D01*
X375021Y433039D01*
X375366Y432719D01*
X375702Y432391D01*
X376030Y432055D01*
X376350Y431710D01*
X376662Y431358D01*
X376964Y430999D01*
X377258Y430632D01*
X377542Y430258D01*
X377818Y429877D01*
X378084Y429489D01*
X378340Y429095D01*
X378587Y428695D01*
X378823Y428289D01*
X379050Y427877D01*
X379266Y427460D01*
X379472Y427038D01*
X379668Y426610D01*
X379853Y426178D01*
X380028Y425742D01*
X380192Y425301D01*
X380344Y424857D01*
X380486Y424409D01*
X380617Y423958D01*
X380737Y423503D01*
X380846Y423046D01*
X380943Y422586D01*
X381029Y422124D01*
X381104Y421660D01*
X381167Y421194D01*
X381219Y420727D01*
X381259Y420259D01*
X381288Y419790D01*
X381305Y419320D01*
X381311Y418850D01*
X381305Y418380D01*
X381288Y417910D01*
X381259Y417441D01*
X381219Y416973D01*
X381167Y416506D01*
X381104Y416040D01*
X381029Y415576D01*
X380943Y415114D01*
X380846Y414654D01*
X380737Y414197D01*
X380617Y413742D01*
X380486Y413291D01*
X380344Y412843D01*
X380192Y412399D01*
X380028Y411958D01*
X379853Y411522D01*
X379668Y411090D01*
X379472Y410662D01*
X379266Y410240D01*
X379050Y409823D01*
X378823Y409411D01*
X378587Y409005D01*
X378340Y408605D01*
X378084Y408211D01*
X377818Y407823D01*
X377542Y407442D01*
X377258Y407068D01*
X376964Y406701D01*
X376662Y406342D01*
X376350Y405990D01*
X376030Y405645D01*
X375702Y405309D01*
X375366Y404981D01*
X375021Y404661D01*
X374669Y404349D01*
X374310Y404047D01*
X373943Y403753D01*
X373569Y403469D01*
X373188Y403193D01*
X372800Y402927D01*
X372406Y402671D01*
X372006Y402424D01*
X371600Y402188D01*
X371188Y401961D01*
X370771Y401745D01*
X370349Y401539D01*
X369921Y401343D01*
X369489Y401158D01*
X369053Y400983D01*
X368612Y400819D01*
X368168Y400667D01*
X367720Y400525D01*
X367269Y400394D01*
X366814Y400274D01*
X366357Y400165D01*
X365897Y400068D01*
X365435Y399982D01*
X364971Y399907D01*
X364505Y399844D01*
X364038Y399792D01*
X363570Y399752D01*
X363101Y399723D01*
X362631Y399706D01*
X362161Y399700D01*
X361691Y399706D01*
X361221Y399723D01*
X360752Y399752D01*
X360284Y399792D01*
X359817Y399844D01*
X359351Y399907D01*
X358887Y399982D01*
X358425Y400068D01*
X357965Y400165D01*
X357508Y400274D01*
X357053Y400394D01*
X356602Y400525D01*
X356154Y400667D01*
X355710Y400819D01*
X355269Y400983D01*
X354833Y401158D01*
X354401Y401343D01*
X353973Y401539D01*
X353551Y401745D01*
X353134Y401961D01*
X352722Y402188D01*
X352316Y402424D01*
X351916Y402671D01*
X351522Y402927D01*
X351134Y403193D01*
X350753Y403469D01*
X350379Y403753D01*
X350012Y404047D01*
X349653Y404349D01*
X349301Y404661D01*
X348956Y404981D01*
X348620Y405309D01*
X348292Y405645D01*
X347972Y405990D01*
X347660Y406342D01*
X347358Y406701D01*
X347064Y407068D01*
X346780Y407442D01*
X346504Y407823D01*
X346238Y408211D01*
X345982Y408605D01*
X345735Y409005D01*
X345499Y409411D01*
X345272Y409823D01*
X345056Y410240D01*
X344850Y410662D01*
X344654Y411090D01*
X344469Y411522D01*
X344294Y411958D01*
X344130Y412399D01*
X343978Y412843D01*
X343836Y413291D01*
X343705Y413742D01*
X343585Y414197D01*
X343476Y414654D01*
X343379Y415114D01*
X343293Y415576D01*
X343218Y416040D01*
X343155Y416506D01*
X343103Y416973D01*
X343063Y417441D01*
X343034Y417910D01*
X343017Y418380D01*
X343011Y418850D01*
X292211Y418850D02*
X292217Y419320D01*
X292234Y419790D01*
X292263Y420259D01*
X292303Y420727D01*
X292355Y421194D01*
X292418Y421660D01*
X292493Y422124D01*
X292579Y422586D01*
X292676Y423046D01*
X292785Y423503D01*
X292905Y423958D01*
X293036Y424409D01*
X293178Y424857D01*
X293330Y425301D01*
X293494Y425742D01*
X293669Y426178D01*
X293854Y426610D01*
X294050Y427038D01*
X294256Y427460D01*
X294472Y427877D01*
X294699Y428289D01*
X294935Y428695D01*
X295182Y429095D01*
X295438Y429489D01*
X295704Y429877D01*
X295980Y430258D01*
X296264Y430632D01*
X296558Y430999D01*
X296860Y431358D01*
X297172Y431710D01*
X297492Y432055D01*
X297820Y432391D01*
X298156Y432719D01*
X298501Y433039D01*
X298853Y433351D01*
X299212Y433653D01*
X299579Y433947D01*
X299953Y434231D01*
X300334Y434507D01*
X300722Y434773D01*
X301116Y435029D01*
X301516Y435276D01*
X301922Y435512D01*
X302334Y435739D01*
X302751Y435955D01*
X303173Y436161D01*
X303601Y436357D01*
X304033Y436542D01*
X304469Y436717D01*
X304910Y436881D01*
X305354Y437033D01*
X305802Y437175D01*
X306253Y437306D01*
X306708Y437426D01*
X307165Y437535D01*
X307625Y437632D01*
X308087Y437718D01*
X308551Y437793D01*
X309017Y437856D01*
X309484Y437908D01*
X309952Y437948D01*
X310421Y437977D01*
X310891Y437994D01*
X311361Y438000D01*
X311831Y437994D01*
X312301Y437977D01*
X312770Y437948D01*
X313238Y437908D01*
X313705Y437856D01*
X314171Y437793D01*
X314635Y437718D01*
X315097Y437632D01*
X315557Y437535D01*
X316014Y437426D01*
X316469Y437306D01*
X316920Y437175D01*
X317368Y437033D01*
X317812Y436881D01*
X318253Y436717D01*
X318689Y436542D01*
X319121Y436357D01*
X319549Y436161D01*
X319971Y435955D01*
X320388Y435739D01*
X320800Y435512D01*
X321206Y435276D01*
X321606Y435029D01*
X322000Y434773D01*
X322388Y434507D01*
X322769Y434231D01*
X323143Y433947D01*
X323510Y433653D01*
X323869Y433351D01*
X324221Y433039D01*
X324566Y432719D01*
X324902Y432391D01*
X325230Y432055D01*
X325550Y431710D01*
X325862Y431358D01*
X326164Y430999D01*
X326458Y430632D01*
X326742Y430258D01*
X327018Y429877D01*
X327284Y429489D01*
X327540Y429095D01*
X327787Y428695D01*
X328023Y428289D01*
X328250Y427877D01*
X328466Y427460D01*
X328672Y427038D01*
X328868Y426610D01*
X329053Y426178D01*
X329228Y425742D01*
X329392Y425301D01*
X329544Y424857D01*
X329686Y424409D01*
X329817Y423958D01*
X329937Y423503D01*
X330046Y423046D01*
X330143Y422586D01*
X330229Y422124D01*
X330304Y421660D01*
X330367Y421194D01*
X330419Y420727D01*
X330459Y420259D01*
X330488Y419790D01*
X330505Y419320D01*
X330511Y418850D01*
X330505Y418380D01*
X330488Y417910D01*
X330459Y417441D01*
X330419Y416973D01*
X330367Y416506D01*
X330304Y416040D01*
X330229Y415576D01*
X330143Y415114D01*
X330046Y414654D01*
X329937Y414197D01*
X329817Y413742D01*
X329686Y413291D01*
X329544Y412843D01*
X329392Y412399D01*
X329228Y411958D01*
X329053Y411522D01*
X328868Y411090D01*
X328672Y410662D01*
X328466Y410240D01*
X328250Y409823D01*
X328023Y409411D01*
X327787Y409005D01*
X327540Y408605D01*
X327284Y408211D01*
X327018Y407823D01*
X326742Y407442D01*
X326458Y407068D01*
X326164Y406701D01*
X325862Y406342D01*
X325550Y405990D01*
X325230Y405645D01*
X324902Y405309D01*
X324566Y404981D01*
X324221Y404661D01*
X323869Y404349D01*
X323510Y404047D01*
X323143Y403753D01*
X322769Y403469D01*
X322388Y403193D01*
X322000Y402927D01*
X321606Y402671D01*
X321206Y402424D01*
X320800Y402188D01*
X320388Y401961D01*
X319971Y401745D01*
X319549Y401539D01*
X319121Y401343D01*
X318689Y401158D01*
X318253Y400983D01*
X317812Y400819D01*
X317368Y400667D01*
X316920Y400525D01*
X316469Y400394D01*
X316014Y400274D01*
X315557Y400165D01*
X315097Y400068D01*
X314635Y399982D01*
X314171Y399907D01*
X313705Y399844D01*
X313238Y399792D01*
X312770Y399752D01*
X312301Y399723D01*
X311831Y399706D01*
X311361Y399700D01*
X310891Y399706D01*
X310421Y399723D01*
X309952Y399752D01*
X309484Y399792D01*
X309017Y399844D01*
X308551Y399907D01*
X308087Y399982D01*
X307625Y400068D01*
X307165Y400165D01*
X306708Y400274D01*
X306253Y400394D01*
X305802Y400525D01*
X305354Y400667D01*
X304910Y400819D01*
X304469Y400983D01*
X304033Y401158D01*
X303601Y401343D01*
X303173Y401539D01*
X302751Y401745D01*
X302334Y401961D01*
X301922Y402188D01*
X301516Y402424D01*
X301116Y402671D01*
X300722Y402927D01*
X300334Y403193D01*
X299953Y403469D01*
X299579Y403753D01*
X299212Y404047D01*
X298853Y404349D01*
X298501Y404661D01*
X298156Y404981D01*
X297820Y405309D01*
X297492Y405645D01*
X297172Y405990D01*
X296860Y406342D01*
X296558Y406701D01*
X296264Y407068D01*
X295980Y407442D01*
X295704Y407823D01*
X295438Y408211D01*
X295182Y408605D01*
X294935Y409005D01*
X294699Y409411D01*
X294472Y409823D01*
X294256Y410240D01*
X294050Y410662D01*
X293854Y411090D01*
X293669Y411522D01*
X293494Y411958D01*
X293330Y412399D01*
X293178Y412843D01*
X293036Y413291D01*
X292905Y413742D01*
X292785Y414197D01*
X292676Y414654D01*
X292579Y415114D01*
X292493Y415576D01*
X292418Y416040D01*
X292355Y416506D01*
X292303Y416973D01*
X292263Y417441D01*
X292234Y417910D01*
X292217Y418380D01*
X292211Y418850D01*
X285961Y167500D02*
X539961Y167500D01*
X539961Y101757D02*
X285961Y101757D01*
X539961Y146555D02*
X539961Y151479D01*
X539961Y160270D02*
X541248Y160270D01*
X541248Y156130D02*
X539961Y156130D01*
X539961Y158279D01*
X539961Y160270D01*
X543031Y154630D02*
X545661Y154630D01*
X545661Y161770D02*
X543031Y161770D01*
X539961Y156130D02*
X539961Y151479D01*
X541248Y160270D02*
X543031Y161770D01*
X545661Y161770D02*
X545661Y154630D01*
X539961Y106587D02*
X539961Y101757D01*
X539961Y106587D02*
X539961Y146555D01*
X543031Y154630D02*
X541248Y156130D01*
X539961Y151479D02*
X285961Y151479D01*
X285961Y146555D01*
X285961Y158279D02*
X539961Y158279D01*
X285961Y158279D02*
X285961Y151479D01*
X285961Y146555D02*
X285961Y106587D01*
X285961Y101757D01*
X285961Y86500D01*
X539961Y160270D02*
X539961Y164500D01*
X285961Y164500D02*
X285961Y158279D01*
X285961Y86500D02*
X539961Y86500D01*
X539961Y101757D01*
X539961Y164500D02*
X285961Y164500D01*
X539961Y164500D02*
X539961Y167500D01*
X285961Y167500D02*
X285961Y164500D01*
X495411Y126750D02*
X495417Y127220D01*
X495434Y127690D01*
X495463Y128159D01*
X495503Y128627D01*
X495555Y129094D01*
X495618Y129560D01*
X495693Y130024D01*
X495779Y130486D01*
X495876Y130946D01*
X495985Y131403D01*
X496105Y131858D01*
X496236Y132309D01*
X496378Y132757D01*
X496530Y133201D01*
X496694Y133642D01*
X496869Y134078D01*
X497054Y134510D01*
X497250Y134938D01*
X497456Y135360D01*
X497672Y135777D01*
X497899Y136189D01*
X498135Y136595D01*
X498382Y136995D01*
X498638Y137389D01*
X498904Y137777D01*
X499180Y138158D01*
X499464Y138532D01*
X499758Y138899D01*
X500060Y139258D01*
X500372Y139610D01*
X500692Y139955D01*
X501020Y140291D01*
X501356Y140619D01*
X501701Y140939D01*
X502053Y141251D01*
X502412Y141553D01*
X502779Y141847D01*
X503153Y142131D01*
X503534Y142407D01*
X503922Y142673D01*
X504316Y142929D01*
X504716Y143176D01*
X505122Y143412D01*
X505534Y143639D01*
X505951Y143855D01*
X506373Y144061D01*
X506801Y144257D01*
X507233Y144442D01*
X507669Y144617D01*
X508110Y144781D01*
X508554Y144933D01*
X509002Y145075D01*
X509453Y145206D01*
X509908Y145326D01*
X510365Y145435D01*
X510825Y145532D01*
X511287Y145618D01*
X511751Y145693D01*
X512217Y145756D01*
X512684Y145808D01*
X513152Y145848D01*
X513621Y145877D01*
X514091Y145894D01*
X514561Y145900D01*
X515031Y145894D01*
X515501Y145877D01*
X515970Y145848D01*
X516438Y145808D01*
X516905Y145756D01*
X517371Y145693D01*
X517835Y145618D01*
X518297Y145532D01*
X518757Y145435D01*
X519214Y145326D01*
X519669Y145206D01*
X520120Y145075D01*
X520568Y144933D01*
X521012Y144781D01*
X521453Y144617D01*
X521889Y144442D01*
X522321Y144257D01*
X522749Y144061D01*
X523171Y143855D01*
X523588Y143639D01*
X524000Y143412D01*
X524406Y143176D01*
X524806Y142929D01*
X525200Y142673D01*
X525588Y142407D01*
X525969Y142131D01*
X526343Y141847D01*
X526710Y141553D01*
X527069Y141251D01*
X527421Y140939D01*
X527766Y140619D01*
X528102Y140291D01*
X528430Y139955D01*
X528750Y139610D01*
X529062Y139258D01*
X529364Y138899D01*
X529658Y138532D01*
X529942Y138158D01*
X530218Y137777D01*
X530484Y137389D01*
X530740Y136995D01*
X530987Y136595D01*
X531223Y136189D01*
X531450Y135777D01*
X531666Y135360D01*
X531872Y134938D01*
X532068Y134510D01*
X532253Y134078D01*
X532428Y133642D01*
X532592Y133201D01*
X532744Y132757D01*
X532886Y132309D01*
X533017Y131858D01*
X533137Y131403D01*
X533246Y130946D01*
X533343Y130486D01*
X533429Y130024D01*
X533504Y129560D01*
X533567Y129094D01*
X533619Y128627D01*
X533659Y128159D01*
X533688Y127690D01*
X533705Y127220D01*
X533711Y126750D01*
X533705Y126280D01*
X533688Y125810D01*
X533659Y125341D01*
X533619Y124873D01*
X533567Y124406D01*
X533504Y123940D01*
X533429Y123476D01*
X533343Y123014D01*
X533246Y122554D01*
X533137Y122097D01*
X533017Y121642D01*
X532886Y121191D01*
X532744Y120743D01*
X532592Y120299D01*
X532428Y119858D01*
X532253Y119422D01*
X532068Y118990D01*
X531872Y118562D01*
X531666Y118140D01*
X531450Y117723D01*
X531223Y117311D01*
X530987Y116905D01*
X530740Y116505D01*
X530484Y116111D01*
X530218Y115723D01*
X529942Y115342D01*
X529658Y114968D01*
X529364Y114601D01*
X529062Y114242D01*
X528750Y113890D01*
X528430Y113545D01*
X528102Y113209D01*
X527766Y112881D01*
X527421Y112561D01*
X527069Y112249D01*
X526710Y111947D01*
X526343Y111653D01*
X525969Y111369D01*
X525588Y111093D01*
X525200Y110827D01*
X524806Y110571D01*
X524406Y110324D01*
X524000Y110088D01*
X523588Y109861D01*
X523171Y109645D01*
X522749Y109439D01*
X522321Y109243D01*
X521889Y109058D01*
X521453Y108883D01*
X521012Y108719D01*
X520568Y108567D01*
X520120Y108425D01*
X519669Y108294D01*
X519214Y108174D01*
X518757Y108065D01*
X518297Y107968D01*
X517835Y107882D01*
X517371Y107807D01*
X516905Y107744D01*
X516438Y107692D01*
X515970Y107652D01*
X515501Y107623D01*
X515031Y107606D01*
X514561Y107600D01*
X514091Y107606D01*
X513621Y107623D01*
X513152Y107652D01*
X512684Y107692D01*
X512217Y107744D01*
X511751Y107807D01*
X511287Y107882D01*
X510825Y107968D01*
X510365Y108065D01*
X509908Y108174D01*
X509453Y108294D01*
X509002Y108425D01*
X508554Y108567D01*
X508110Y108719D01*
X507669Y108883D01*
X507233Y109058D01*
X506801Y109243D01*
X506373Y109439D01*
X505951Y109645D01*
X505534Y109861D01*
X505122Y110088D01*
X504716Y110324D01*
X504316Y110571D01*
X503922Y110827D01*
X503534Y111093D01*
X503153Y111369D01*
X502779Y111653D01*
X502412Y111947D01*
X502053Y112249D01*
X501701Y112561D01*
X501356Y112881D01*
X501020Y113209D01*
X500692Y113545D01*
X500372Y113890D01*
X500060Y114242D01*
X499758Y114601D01*
X499464Y114968D01*
X499180Y115342D01*
X498904Y115723D01*
X498638Y116111D01*
X498382Y116505D01*
X498135Y116905D01*
X497899Y117311D01*
X497672Y117723D01*
X497456Y118140D01*
X497250Y118562D01*
X497054Y118990D01*
X496869Y119422D01*
X496694Y119858D01*
X496530Y120299D01*
X496378Y120743D01*
X496236Y121191D01*
X496105Y121642D01*
X495985Y122097D01*
X495876Y122554D01*
X495779Y123014D01*
X495693Y123476D01*
X495618Y123940D01*
X495555Y124406D01*
X495503Y124873D01*
X495463Y125341D01*
X495434Y125810D01*
X495417Y126280D01*
X495411Y126750D01*
X444611Y126750D02*
X444617Y127220D01*
X444634Y127690D01*
X444663Y128159D01*
X444703Y128627D01*
X444755Y129094D01*
X444818Y129560D01*
X444893Y130024D01*
X444979Y130486D01*
X445076Y130946D01*
X445185Y131403D01*
X445305Y131858D01*
X445436Y132309D01*
X445578Y132757D01*
X445730Y133201D01*
X445894Y133642D01*
X446069Y134078D01*
X446254Y134510D01*
X446450Y134938D01*
X446656Y135360D01*
X446872Y135777D01*
X447099Y136189D01*
X447335Y136595D01*
X447582Y136995D01*
X447838Y137389D01*
X448104Y137777D01*
X448380Y138158D01*
X448664Y138532D01*
X448958Y138899D01*
X449260Y139258D01*
X449572Y139610D01*
X449892Y139955D01*
X450220Y140291D01*
X450556Y140619D01*
X450901Y140939D01*
X451253Y141251D01*
X451612Y141553D01*
X451979Y141847D01*
X452353Y142131D01*
X452734Y142407D01*
X453122Y142673D01*
X453516Y142929D01*
X453916Y143176D01*
X454322Y143412D01*
X454734Y143639D01*
X455151Y143855D01*
X455573Y144061D01*
X456001Y144257D01*
X456433Y144442D01*
X456869Y144617D01*
X457310Y144781D01*
X457754Y144933D01*
X458202Y145075D01*
X458653Y145206D01*
X459108Y145326D01*
X459565Y145435D01*
X460025Y145532D01*
X460487Y145618D01*
X460951Y145693D01*
X461417Y145756D01*
X461884Y145808D01*
X462352Y145848D01*
X462821Y145877D01*
X463291Y145894D01*
X463761Y145900D01*
X464231Y145894D01*
X464701Y145877D01*
X465170Y145848D01*
X465638Y145808D01*
X466105Y145756D01*
X466571Y145693D01*
X467035Y145618D01*
X467497Y145532D01*
X467957Y145435D01*
X468414Y145326D01*
X468869Y145206D01*
X469320Y145075D01*
X469768Y144933D01*
X470212Y144781D01*
X470653Y144617D01*
X471089Y144442D01*
X471521Y144257D01*
X471949Y144061D01*
X472371Y143855D01*
X472788Y143639D01*
X473200Y143412D01*
X473606Y143176D01*
X474006Y142929D01*
X474400Y142673D01*
X474788Y142407D01*
X475169Y142131D01*
X475543Y141847D01*
X475910Y141553D01*
X476269Y141251D01*
X476621Y140939D01*
X476966Y140619D01*
X477302Y140291D01*
X477630Y139955D01*
X477950Y139610D01*
X478262Y139258D01*
X478564Y138899D01*
X478858Y138532D01*
X479142Y138158D01*
X479418Y137777D01*
X479684Y137389D01*
X479940Y136995D01*
X480187Y136595D01*
X480423Y136189D01*
X480650Y135777D01*
X480866Y135360D01*
X481072Y134938D01*
X481268Y134510D01*
X481453Y134078D01*
X481628Y133642D01*
X481792Y133201D01*
X481944Y132757D01*
X482086Y132309D01*
X482217Y131858D01*
X482337Y131403D01*
X482446Y130946D01*
X482543Y130486D01*
X482629Y130024D01*
X482704Y129560D01*
X482767Y129094D01*
X482819Y128627D01*
X482859Y128159D01*
X482888Y127690D01*
X482905Y127220D01*
X482911Y126750D01*
X482905Y126280D01*
X482888Y125810D01*
X482859Y125341D01*
X482819Y124873D01*
X482767Y124406D01*
X482704Y123940D01*
X482629Y123476D01*
X482543Y123014D01*
X482446Y122554D01*
X482337Y122097D01*
X482217Y121642D01*
X482086Y121191D01*
X481944Y120743D01*
X481792Y120299D01*
X481628Y119858D01*
X481453Y119422D01*
X481268Y118990D01*
X481072Y118562D01*
X480866Y118140D01*
X480650Y117723D01*
X480423Y117311D01*
X480187Y116905D01*
X479940Y116505D01*
X479684Y116111D01*
X479418Y115723D01*
X479142Y115342D01*
X478858Y114968D01*
X478564Y114601D01*
X478262Y114242D01*
X477950Y113890D01*
X477630Y113545D01*
X477302Y113209D01*
X476966Y112881D01*
X476621Y112561D01*
X476269Y112249D01*
X475910Y111947D01*
X475543Y111653D01*
X475169Y111369D01*
X474788Y111093D01*
X474400Y110827D01*
X474006Y110571D01*
X473606Y110324D01*
X473200Y110088D01*
X472788Y109861D01*
X472371Y109645D01*
X471949Y109439D01*
X471521Y109243D01*
X471089Y109058D01*
X470653Y108883D01*
X470212Y108719D01*
X469768Y108567D01*
X469320Y108425D01*
X468869Y108294D01*
X468414Y108174D01*
X467957Y108065D01*
X467497Y107968D01*
X467035Y107882D01*
X466571Y107807D01*
X466105Y107744D01*
X465638Y107692D01*
X465170Y107652D01*
X464701Y107623D01*
X464231Y107606D01*
X463761Y107600D01*
X463291Y107606D01*
X462821Y107623D01*
X462352Y107652D01*
X461884Y107692D01*
X461417Y107744D01*
X460951Y107807D01*
X460487Y107882D01*
X460025Y107968D01*
X459565Y108065D01*
X459108Y108174D01*
X458653Y108294D01*
X458202Y108425D01*
X457754Y108567D01*
X457310Y108719D01*
X456869Y108883D01*
X456433Y109058D01*
X456001Y109243D01*
X455573Y109439D01*
X455151Y109645D01*
X454734Y109861D01*
X454322Y110088D01*
X453916Y110324D01*
X453516Y110571D01*
X453122Y110827D01*
X452734Y111093D01*
X452353Y111369D01*
X451979Y111653D01*
X451612Y111947D01*
X451253Y112249D01*
X450901Y112561D01*
X450556Y112881D01*
X450220Y113209D01*
X449892Y113545D01*
X449572Y113890D01*
X449260Y114242D01*
X448958Y114601D01*
X448664Y114968D01*
X448380Y115342D01*
X448104Y115723D01*
X447838Y116111D01*
X447582Y116505D01*
X447335Y116905D01*
X447099Y117311D01*
X446872Y117723D01*
X446656Y118140D01*
X446450Y118562D01*
X446254Y118990D01*
X446069Y119422D01*
X445894Y119858D01*
X445730Y120299D01*
X445578Y120743D01*
X445436Y121191D01*
X445305Y121642D01*
X445185Y122097D01*
X445076Y122554D01*
X444979Y123014D01*
X444893Y123476D01*
X444818Y123940D01*
X444755Y124406D01*
X444703Y124873D01*
X444663Y125341D01*
X444634Y125810D01*
X444617Y126280D01*
X444611Y126750D01*
X393811Y126750D02*
X393817Y127220D01*
X393834Y127690D01*
X393863Y128159D01*
X393903Y128627D01*
X393955Y129094D01*
X394018Y129560D01*
X394093Y130024D01*
X394179Y130486D01*
X394276Y130946D01*
X394385Y131403D01*
X394505Y131858D01*
X394636Y132309D01*
X394778Y132757D01*
X394930Y133201D01*
X395094Y133642D01*
X395269Y134078D01*
X395454Y134510D01*
X395650Y134938D01*
X395856Y135360D01*
X396072Y135777D01*
X396299Y136189D01*
X396535Y136595D01*
X396782Y136995D01*
X397038Y137389D01*
X397304Y137777D01*
X397580Y138158D01*
X397864Y138532D01*
X398158Y138899D01*
X398460Y139258D01*
X398772Y139610D01*
X399092Y139955D01*
X399420Y140291D01*
X399756Y140619D01*
X400101Y140939D01*
X400453Y141251D01*
X400812Y141553D01*
X401179Y141847D01*
X401553Y142131D01*
X401934Y142407D01*
X402322Y142673D01*
X402716Y142929D01*
X403116Y143176D01*
X403522Y143412D01*
X403934Y143639D01*
X404351Y143855D01*
X404773Y144061D01*
X405201Y144257D01*
X405633Y144442D01*
X406069Y144617D01*
X406510Y144781D01*
X406954Y144933D01*
X407402Y145075D01*
X407853Y145206D01*
X408308Y145326D01*
X408765Y145435D01*
X409225Y145532D01*
X409687Y145618D01*
X410151Y145693D01*
X410617Y145756D01*
X411084Y145808D01*
X411552Y145848D01*
X412021Y145877D01*
X412491Y145894D01*
X412961Y145900D01*
X413431Y145894D01*
X413901Y145877D01*
X414370Y145848D01*
X414838Y145808D01*
X415305Y145756D01*
X415771Y145693D01*
X416235Y145618D01*
X416697Y145532D01*
X417157Y145435D01*
X417614Y145326D01*
X418069Y145206D01*
X418520Y145075D01*
X418968Y144933D01*
X419412Y144781D01*
X419853Y144617D01*
X420289Y144442D01*
X420721Y144257D01*
X421149Y144061D01*
X421571Y143855D01*
X421988Y143639D01*
X422400Y143412D01*
X422806Y143176D01*
X423206Y142929D01*
X423600Y142673D01*
X423988Y142407D01*
X424369Y142131D01*
X424743Y141847D01*
X425110Y141553D01*
X425469Y141251D01*
X425821Y140939D01*
X426166Y140619D01*
X426502Y140291D01*
X426830Y139955D01*
X427150Y139610D01*
X427462Y139258D01*
X427764Y138899D01*
X428058Y138532D01*
X428342Y138158D01*
X428618Y137777D01*
X428884Y137389D01*
X429140Y136995D01*
X429387Y136595D01*
X429623Y136189D01*
X429850Y135777D01*
X430066Y135360D01*
X430272Y134938D01*
X430468Y134510D01*
X430653Y134078D01*
X430828Y133642D01*
X430992Y133201D01*
X431144Y132757D01*
X431286Y132309D01*
X431417Y131858D01*
X431537Y131403D01*
X431646Y130946D01*
X431743Y130486D01*
X431829Y130024D01*
X431904Y129560D01*
X431967Y129094D01*
X432019Y128627D01*
X432059Y128159D01*
X432088Y127690D01*
X432105Y127220D01*
X432111Y126750D01*
X432105Y126280D01*
X432088Y125810D01*
X432059Y125341D01*
X432019Y124873D01*
X431967Y124406D01*
X431904Y123940D01*
X431829Y123476D01*
X431743Y123014D01*
X431646Y122554D01*
X431537Y122097D01*
X431417Y121642D01*
X431286Y121191D01*
X431144Y120743D01*
X430992Y120299D01*
X430828Y119858D01*
X430653Y119422D01*
X430468Y118990D01*
X430272Y118562D01*
X430066Y118140D01*
X429850Y117723D01*
X429623Y117311D01*
X429387Y116905D01*
X429140Y116505D01*
X428884Y116111D01*
X428618Y115723D01*
X428342Y115342D01*
X428058Y114968D01*
X427764Y114601D01*
X427462Y114242D01*
X427150Y113890D01*
X426830Y113545D01*
X426502Y113209D01*
X426166Y112881D01*
X425821Y112561D01*
X425469Y112249D01*
X425110Y111947D01*
X424743Y111653D01*
X424369Y111369D01*
X423988Y111093D01*
X423600Y110827D01*
X423206Y110571D01*
X422806Y110324D01*
X422400Y110088D01*
X421988Y109861D01*
X421571Y109645D01*
X421149Y109439D01*
X420721Y109243D01*
X420289Y109058D01*
X419853Y108883D01*
X419412Y108719D01*
X418968Y108567D01*
X418520Y108425D01*
X418069Y108294D01*
X417614Y108174D01*
X417157Y108065D01*
X416697Y107968D01*
X416235Y107882D01*
X415771Y107807D01*
X415305Y107744D01*
X414838Y107692D01*
X414370Y107652D01*
X413901Y107623D01*
X413431Y107606D01*
X412961Y107600D01*
X412491Y107606D01*
X412021Y107623D01*
X411552Y107652D01*
X411084Y107692D01*
X410617Y107744D01*
X410151Y107807D01*
X409687Y107882D01*
X409225Y107968D01*
X408765Y108065D01*
X408308Y108174D01*
X407853Y108294D01*
X407402Y108425D01*
X406954Y108567D01*
X406510Y108719D01*
X406069Y108883D01*
X405633Y109058D01*
X405201Y109243D01*
X404773Y109439D01*
X404351Y109645D01*
X403934Y109861D01*
X403522Y110088D01*
X403116Y110324D01*
X402716Y110571D01*
X402322Y110827D01*
X401934Y111093D01*
X401553Y111369D01*
X401179Y111653D01*
X400812Y111947D01*
X400453Y112249D01*
X400101Y112561D01*
X399756Y112881D01*
X399420Y113209D01*
X399092Y113545D01*
X398772Y113890D01*
X398460Y114242D01*
X398158Y114601D01*
X397864Y114968D01*
X397580Y115342D01*
X397304Y115723D01*
X397038Y116111D01*
X396782Y116505D01*
X396535Y116905D01*
X396299Y117311D01*
X396072Y117723D01*
X395856Y118140D01*
X395650Y118562D01*
X395454Y118990D01*
X395269Y119422D01*
X395094Y119858D01*
X394930Y120299D01*
X394778Y120743D01*
X394636Y121191D01*
X394505Y121642D01*
X394385Y122097D01*
X394276Y122554D01*
X394179Y123014D01*
X394093Y123476D01*
X394018Y123940D01*
X393955Y124406D01*
X393903Y124873D01*
X393863Y125341D01*
X393834Y125810D01*
X393817Y126280D01*
X393811Y126750D01*
X343011Y126750D02*
X343017Y127220D01*
X343034Y127690D01*
X343063Y128159D01*
X343103Y128627D01*
X343155Y129094D01*
X343218Y129560D01*
X343293Y130024D01*
X343379Y130486D01*
X343476Y130946D01*
X343585Y131403D01*
X343705Y131858D01*
X343836Y132309D01*
X343978Y132757D01*
X344130Y133201D01*
X344294Y133642D01*
X344469Y134078D01*
X344654Y134510D01*
X344850Y134938D01*
X345056Y135360D01*
X345272Y135777D01*
X345499Y136189D01*
X345735Y136595D01*
X345982Y136995D01*
X346238Y137389D01*
X346504Y137777D01*
X346780Y138158D01*
X347064Y138532D01*
X347358Y138899D01*
X347660Y139258D01*
X347972Y139610D01*
X348292Y139955D01*
X348620Y140291D01*
X348956Y140619D01*
X349301Y140939D01*
X349653Y141251D01*
X350012Y141553D01*
X350379Y141847D01*
X350753Y142131D01*
X351134Y142407D01*
X351522Y142673D01*
X351916Y142929D01*
X352316Y143176D01*
X352722Y143412D01*
X353134Y143639D01*
X353551Y143855D01*
X353973Y144061D01*
X354401Y144257D01*
X354833Y144442D01*
X355269Y144617D01*
X355710Y144781D01*
X356154Y144933D01*
X356602Y145075D01*
X357053Y145206D01*
X357508Y145326D01*
X357965Y145435D01*
X358425Y145532D01*
X358887Y145618D01*
X359351Y145693D01*
X359817Y145756D01*
X360284Y145808D01*
X360752Y145848D01*
X361221Y145877D01*
X361691Y145894D01*
X362161Y145900D01*
X362631Y145894D01*
X363101Y145877D01*
X363570Y145848D01*
X364038Y145808D01*
X364505Y145756D01*
X364971Y145693D01*
X365435Y145618D01*
X365897Y145532D01*
X366357Y145435D01*
X366814Y145326D01*
X367269Y145206D01*
X367720Y145075D01*
X368168Y144933D01*
X368612Y144781D01*
X369053Y144617D01*
X369489Y144442D01*
X369921Y144257D01*
X370349Y144061D01*
X370771Y143855D01*
X371188Y143639D01*
X371600Y143412D01*
X372006Y143176D01*
X372406Y142929D01*
X372800Y142673D01*
X373188Y142407D01*
X373569Y142131D01*
X373943Y141847D01*
X374310Y141553D01*
X374669Y141251D01*
X375021Y140939D01*
X375366Y140619D01*
X375702Y140291D01*
X376030Y139955D01*
X376350Y139610D01*
X376662Y139258D01*
X376964Y138899D01*
X377258Y138532D01*
X377542Y138158D01*
X377818Y137777D01*
X378084Y137389D01*
X378340Y136995D01*
X378587Y136595D01*
X378823Y136189D01*
X379050Y135777D01*
X379266Y135360D01*
X379472Y134938D01*
X379668Y134510D01*
X379853Y134078D01*
X380028Y133642D01*
X380192Y133201D01*
X380344Y132757D01*
X380486Y132309D01*
X380617Y131858D01*
X380737Y131403D01*
X380846Y130946D01*
X380943Y130486D01*
X381029Y130024D01*
X381104Y129560D01*
X381167Y129094D01*
X381219Y128627D01*
X381259Y128159D01*
X381288Y127690D01*
X381305Y127220D01*
X381311Y126750D01*
X381305Y126280D01*
X381288Y125810D01*
X381259Y125341D01*
X381219Y124873D01*
X381167Y124406D01*
X381104Y123940D01*
X381029Y123476D01*
X380943Y123014D01*
X380846Y122554D01*
X380737Y122097D01*
X380617Y121642D01*
X380486Y121191D01*
X380344Y120743D01*
X380192Y120299D01*
X380028Y119858D01*
X379853Y119422D01*
X379668Y118990D01*
X379472Y118562D01*
X379266Y118140D01*
X379050Y117723D01*
X378823Y117311D01*
X378587Y116905D01*
X378340Y116505D01*
X378084Y116111D01*
X377818Y115723D01*
X377542Y115342D01*
X377258Y114968D01*
X376964Y114601D01*
X376662Y114242D01*
X376350Y113890D01*
X376030Y113545D01*
X375702Y113209D01*
X375366Y112881D01*
X375021Y112561D01*
X374669Y112249D01*
X374310Y111947D01*
X373943Y111653D01*
X373569Y111369D01*
X373188Y111093D01*
X372800Y110827D01*
X372406Y110571D01*
X372006Y110324D01*
X371600Y110088D01*
X371188Y109861D01*
X370771Y109645D01*
X370349Y109439D01*
X369921Y109243D01*
X369489Y109058D01*
X369053Y108883D01*
X368612Y108719D01*
X368168Y108567D01*
X367720Y108425D01*
X367269Y108294D01*
X366814Y108174D01*
X366357Y108065D01*
X365897Y107968D01*
X365435Y107882D01*
X364971Y107807D01*
X364505Y107744D01*
X364038Y107692D01*
X363570Y107652D01*
X363101Y107623D01*
X362631Y107606D01*
X362161Y107600D01*
X361691Y107606D01*
X361221Y107623D01*
X360752Y107652D01*
X360284Y107692D01*
X359817Y107744D01*
X359351Y107807D01*
X358887Y107882D01*
X358425Y107968D01*
X357965Y108065D01*
X357508Y108174D01*
X357053Y108294D01*
X356602Y108425D01*
X356154Y108567D01*
X355710Y108719D01*
X355269Y108883D01*
X354833Y109058D01*
X354401Y109243D01*
X353973Y109439D01*
X353551Y109645D01*
X353134Y109861D01*
X352722Y110088D01*
X352316Y110324D01*
X351916Y110571D01*
X351522Y110827D01*
X351134Y111093D01*
X350753Y111369D01*
X350379Y111653D01*
X350012Y111947D01*
X349653Y112249D01*
X349301Y112561D01*
X348956Y112881D01*
X348620Y113209D01*
X348292Y113545D01*
X347972Y113890D01*
X347660Y114242D01*
X347358Y114601D01*
X347064Y114968D01*
X346780Y115342D01*
X346504Y115723D01*
X346238Y116111D01*
X345982Y116505D01*
X345735Y116905D01*
X345499Y117311D01*
X345272Y117723D01*
X345056Y118140D01*
X344850Y118562D01*
X344654Y118990D01*
X344469Y119422D01*
X344294Y119858D01*
X344130Y120299D01*
X343978Y120743D01*
X343836Y121191D01*
X343705Y121642D01*
X343585Y122097D01*
X343476Y122554D01*
X343379Y123014D01*
X343293Y123476D01*
X343218Y123940D01*
X343155Y124406D01*
X343103Y124873D01*
X343063Y125341D01*
X343034Y125810D01*
X343017Y126280D01*
X343011Y126750D01*
X292211Y126750D02*
X292217Y127220D01*
X292234Y127690D01*
X292263Y128159D01*
X292303Y128627D01*
X292355Y129094D01*
X292418Y129560D01*
X292493Y130024D01*
X292579Y130486D01*
X292676Y130946D01*
X292785Y131403D01*
X292905Y131858D01*
X293036Y132309D01*
X293178Y132757D01*
X293330Y133201D01*
X293494Y133642D01*
X293669Y134078D01*
X293854Y134510D01*
X294050Y134938D01*
X294256Y135360D01*
X294472Y135777D01*
X294699Y136189D01*
X294935Y136595D01*
X295182Y136995D01*
X295438Y137389D01*
X295704Y137777D01*
X295980Y138158D01*
X296264Y138532D01*
X296558Y138899D01*
X296860Y139258D01*
X297172Y139610D01*
X297492Y139955D01*
X297820Y140291D01*
X298156Y140619D01*
X298501Y140939D01*
X298853Y141251D01*
X299212Y141553D01*
X299579Y141847D01*
X299953Y142131D01*
X300334Y142407D01*
X300722Y142673D01*
X301116Y142929D01*
X301516Y143176D01*
X301922Y143412D01*
X302334Y143639D01*
X302751Y143855D01*
X303173Y144061D01*
X303601Y144257D01*
X304033Y144442D01*
X304469Y144617D01*
X304910Y144781D01*
X305354Y144933D01*
X305802Y145075D01*
X306253Y145206D01*
X306708Y145326D01*
X307165Y145435D01*
X307625Y145532D01*
X308087Y145618D01*
X308551Y145693D01*
X309017Y145756D01*
X309484Y145808D01*
X309952Y145848D01*
X310421Y145877D01*
X310891Y145894D01*
X311361Y145900D01*
X311831Y145894D01*
X312301Y145877D01*
X312770Y145848D01*
X313238Y145808D01*
X313705Y145756D01*
X314171Y145693D01*
X314635Y145618D01*
X315097Y145532D01*
X315557Y145435D01*
X316014Y145326D01*
X316469Y145206D01*
X316920Y145075D01*
X317368Y144933D01*
X317812Y144781D01*
X318253Y144617D01*
X318689Y144442D01*
X319121Y144257D01*
X319549Y144061D01*
X319971Y143855D01*
X320388Y143639D01*
X320800Y143412D01*
X321206Y143176D01*
X321606Y142929D01*
X322000Y142673D01*
X322388Y142407D01*
X322769Y142131D01*
X323143Y141847D01*
X323510Y141553D01*
X323869Y141251D01*
X324221Y140939D01*
X324566Y140619D01*
X324902Y140291D01*
X325230Y139955D01*
X325550Y139610D01*
X325862Y139258D01*
X326164Y138899D01*
X326458Y138532D01*
X326742Y138158D01*
X327018Y137777D01*
X327284Y137389D01*
X327540Y136995D01*
X327787Y136595D01*
X328023Y136189D01*
X328250Y135777D01*
X328466Y135360D01*
X328672Y134938D01*
X328868Y134510D01*
X329053Y134078D01*
X329228Y133642D01*
X329392Y133201D01*
X329544Y132757D01*
X329686Y132309D01*
X329817Y131858D01*
X329937Y131403D01*
X330046Y130946D01*
X330143Y130486D01*
X330229Y130024D01*
X330304Y129560D01*
X330367Y129094D01*
X330419Y128627D01*
X330459Y128159D01*
X330488Y127690D01*
X330505Y127220D01*
X330511Y126750D01*
X330505Y126280D01*
X330488Y125810D01*
X330459Y125341D01*
X330419Y124873D01*
X330367Y124406D01*
X330304Y123940D01*
X330229Y123476D01*
X330143Y123014D01*
X330046Y122554D01*
X329937Y122097D01*
X329817Y121642D01*
X329686Y121191D01*
X329544Y120743D01*
X329392Y120299D01*
X329228Y119858D01*
X329053Y119422D01*
X328868Y118990D01*
X328672Y118562D01*
X328466Y118140D01*
X328250Y117723D01*
X328023Y117311D01*
X327787Y116905D01*
X327540Y116505D01*
X327284Y116111D01*
X327018Y115723D01*
X326742Y115342D01*
X326458Y114968D01*
X326164Y114601D01*
X325862Y114242D01*
X325550Y113890D01*
X325230Y113545D01*
X324902Y113209D01*
X324566Y112881D01*
X324221Y112561D01*
X323869Y112249D01*
X323510Y111947D01*
X323143Y111653D01*
X322769Y111369D01*
X322388Y111093D01*
X322000Y110827D01*
X321606Y110571D01*
X321206Y110324D01*
X320800Y110088D01*
X320388Y109861D01*
X319971Y109645D01*
X319549Y109439D01*
X319121Y109243D01*
X318689Y109058D01*
X318253Y108883D01*
X317812Y108719D01*
X317368Y108567D01*
X316920Y108425D01*
X316469Y108294D01*
X316014Y108174D01*
X315557Y108065D01*
X315097Y107968D01*
X314635Y107882D01*
X314171Y107807D01*
X313705Y107744D01*
X313238Y107692D01*
X312770Y107652D01*
X312301Y107623D01*
X311831Y107606D01*
X311361Y107600D01*
X310891Y107606D01*
X310421Y107623D01*
X309952Y107652D01*
X309484Y107692D01*
X309017Y107744D01*
X308551Y107807D01*
X308087Y107882D01*
X307625Y107968D01*
X307165Y108065D01*
X306708Y108174D01*
X306253Y108294D01*
X305802Y108425D01*
X305354Y108567D01*
X304910Y108719D01*
X304469Y108883D01*
X304033Y109058D01*
X303601Y109243D01*
X303173Y109439D01*
X302751Y109645D01*
X302334Y109861D01*
X301922Y110088D01*
X301516Y110324D01*
X301116Y110571D01*
X300722Y110827D01*
X300334Y111093D01*
X299953Y111369D01*
X299579Y111653D01*
X299212Y111947D01*
X298853Y112249D01*
X298501Y112561D01*
X298156Y112881D01*
X297820Y113209D01*
X297492Y113545D01*
X297172Y113890D01*
X296860Y114242D01*
X296558Y114601D01*
X296264Y114968D01*
X295980Y115342D01*
X295704Y115723D01*
X295438Y116111D01*
X295182Y116505D01*
X294935Y116905D01*
X294699Y117311D01*
X294472Y117723D01*
X294256Y118140D01*
X294050Y118562D01*
X293854Y118990D01*
X293669Y119422D01*
X293494Y119858D01*
X293330Y120299D01*
X293178Y120743D01*
X293036Y121191D01*
X292905Y121642D01*
X292785Y122097D01*
X292676Y122554D01*
X292579Y123014D01*
X292493Y123476D01*
X292418Y123940D01*
X292355Y124406D01*
X292303Y124873D01*
X292263Y125341D01*
X292234Y125810D01*
X292217Y126280D01*
X292211Y126750D01*
M02*
