G04 EAGLE Gerber X2 export*
%TF.Part,Single*%
%TF.FileFunction,Legend,Bot,1*%
%TF.FilePolarity,Positive*%
%TF.GenerationSoftware,Autodesk,EAGLE,8.7.0*%
%TF.CreationDate,2018-05-03T09:05:19Z*%
G75*
%MOMM*%
%FSLAX34Y34*%
%LPD*%
%AMOC8*
5,1,8,0,0,1.08239X$1,22.5*%
G01*
%ADD10C,0.050800*%
%ADD11C,0.101600*%
%ADD12C,0.203200*%
%ADD13R,1.574800X0.609600*%
%ADD14R,0.609600X1.574800*%
%ADD15C,0.254000*%
%ADD16R,0.300000X2.100000*%
%ADD17R,0.863600X0.762000*%


D10*
X208870Y377520D02*
X248330Y377520D01*
X248330Y397180D02*
X208870Y397180D01*
X208870Y377520D01*
X248330Y377520D02*
X248330Y397180D01*
D11*
X232933Y374152D02*
X230984Y372203D01*
X232933Y374152D02*
X236831Y374152D01*
X238780Y372203D01*
X238780Y364407D01*
X236831Y362458D01*
X232933Y362458D01*
X230984Y364407D01*
X227086Y372203D02*
X225137Y374152D01*
X221239Y374152D01*
X219290Y372203D01*
X219290Y370254D01*
X221239Y368305D01*
X223188Y368305D01*
X221239Y368305D02*
X219290Y366356D01*
X219290Y364407D01*
X221239Y362458D01*
X225137Y362458D01*
X227086Y364407D01*
D10*
X285070Y377520D02*
X324530Y377520D01*
X324530Y397180D02*
X285070Y397180D01*
X285070Y377520D01*
X324530Y377520D02*
X324530Y397180D01*
D11*
X309133Y374152D02*
X307184Y372203D01*
X309133Y374152D02*
X313031Y374152D01*
X314980Y372203D01*
X314980Y364407D01*
X313031Y362458D01*
X309133Y362458D01*
X307184Y364407D01*
X297439Y362458D02*
X297439Y374152D01*
X303286Y368305D01*
X295490Y368305D01*
D12*
X317297Y289277D02*
X311297Y279277D01*
X317297Y289277D02*
X323297Y279277D01*
X311297Y279277D01*
D13*
X317297Y291135D03*
D11*
X305369Y277907D02*
X293675Y277907D01*
X293675Y283754D01*
X295624Y285703D01*
X303420Y285703D01*
X305369Y283754D01*
X305369Y277907D01*
X293675Y289601D02*
X293675Y297397D01*
X293675Y289601D02*
X301471Y297397D01*
X303420Y297397D01*
X305369Y295448D01*
X305369Y291550D01*
X303420Y289601D01*
D12*
X209550Y289480D02*
X203550Y279480D01*
X209550Y289480D02*
X215550Y279480D01*
X203550Y279480D01*
D13*
X209550Y291338D03*
D11*
X197622Y278110D02*
X185928Y278110D01*
X185928Y283957D01*
X187877Y285906D01*
X195673Y285906D01*
X197622Y283957D01*
X197622Y278110D01*
X195673Y289804D02*
X197622Y291753D01*
X197622Y295651D01*
X195673Y297600D01*
X193724Y297600D01*
X191775Y295651D01*
X191775Y293702D01*
X191775Y295651D02*
X189826Y297600D01*
X187877Y297600D01*
X185928Y295651D01*
X185928Y291753D01*
X187877Y289804D01*
D12*
X317500Y339170D02*
X323500Y349170D01*
X317500Y339170D02*
X311500Y349170D01*
X323500Y349170D01*
D13*
X317500Y337312D03*
D11*
X329438Y340868D02*
X341132Y340868D01*
X329438Y340868D02*
X329438Y346715D01*
X331387Y348664D01*
X339183Y348664D01*
X341132Y346715D01*
X341132Y340868D01*
X339183Y356460D02*
X341132Y360358D01*
X339183Y356460D02*
X335285Y352562D01*
X331387Y352562D01*
X329438Y354511D01*
X329438Y358409D01*
X331387Y360358D01*
X333336Y360358D01*
X335285Y358409D01*
X335285Y352562D01*
D12*
X209550Y346630D02*
X203550Y336630D01*
X209550Y346630D02*
X215550Y336630D01*
X203550Y336630D01*
D13*
X209550Y348488D03*
D11*
X197622Y322560D02*
X185928Y322560D01*
X185928Y328407D01*
X187877Y330356D01*
X195673Y330356D01*
X197622Y328407D01*
X197622Y322560D01*
X197622Y334254D02*
X197622Y342050D01*
X195673Y342050D01*
X187877Y334254D01*
X185928Y334254D01*
D12*
X224870Y165100D02*
X234870Y159100D01*
X224870Y165100D02*
X234870Y171100D01*
X234870Y159100D01*
D14*
X223012Y165100D03*
D12*
X288370Y165100D02*
X298370Y159100D01*
X288370Y165100D02*
X298370Y171100D01*
X298370Y159100D01*
D14*
X286512Y165100D03*
D12*
X203753Y209427D02*
X209753Y219427D01*
X215753Y209427D01*
X203753Y209427D01*
D13*
X209753Y221285D03*
D11*
X197825Y208057D02*
X186131Y208057D01*
X186131Y213904D01*
X188080Y215853D01*
X195876Y215853D01*
X197825Y213904D01*
X197825Y208057D01*
X195876Y219751D02*
X197825Y221700D01*
X197825Y225598D01*
X195876Y227547D01*
X193927Y227547D01*
X191978Y225598D01*
X190029Y227547D01*
X188080Y227547D01*
X186131Y225598D01*
X186131Y221700D01*
X188080Y219751D01*
X190029Y219751D01*
X191978Y221700D01*
X193927Y219751D01*
X195876Y219751D01*
X191978Y221700D02*
X191978Y225598D01*
D12*
X317703Y212373D02*
X323703Y222373D01*
X317703Y212373D02*
X311703Y222373D01*
X323703Y222373D01*
D13*
X317703Y210515D03*
D11*
X329641Y201371D02*
X341335Y201371D01*
X329641Y201371D02*
X329641Y207218D01*
X331590Y209167D01*
X339386Y209167D01*
X341335Y207218D01*
X341335Y201371D01*
X331590Y213065D02*
X329641Y215014D01*
X329641Y218912D01*
X331590Y220861D01*
X339386Y220861D01*
X341335Y218912D01*
X341335Y215014D01*
X339386Y213065D01*
X337437Y213065D01*
X335488Y215014D01*
X335488Y220861D01*
D15*
X480100Y210700D02*
X490600Y203200D01*
X480100Y196200D02*
X480100Y210700D01*
X490600Y203200D02*
X480100Y196200D01*
D16*
X491100Y203200D03*
D11*
X492252Y187460D02*
X492252Y178308D01*
X487676Y178308D01*
X486151Y179833D01*
X486151Y185935D01*
X487676Y187460D01*
X492252Y187460D01*
X482897Y184409D02*
X479846Y187460D01*
X479846Y178308D01*
X476796Y178308D02*
X482897Y178308D01*
D12*
X185166Y355346D02*
X185170Y415290D01*
X119630Y415290D01*
X119634Y355346D01*
D11*
X102108Y388424D02*
X102108Y392322D01*
X102108Y390373D02*
X113802Y390373D01*
X113802Y388424D02*
X113802Y392322D01*
X113802Y402067D02*
X111853Y404016D01*
X113802Y402067D02*
X113802Y398169D01*
X111853Y396220D01*
X104057Y396220D01*
X102108Y398169D01*
X102108Y402067D01*
X104057Y404016D01*
X109904Y407914D02*
X113802Y411812D01*
X102108Y411812D01*
X102108Y407914D02*
X102108Y415710D01*
D17*
X152400Y420116D03*
D12*
X185170Y173990D02*
X185166Y114046D01*
X185170Y173990D02*
X119630Y173990D01*
X119634Y114046D01*
D11*
X113802Y143226D02*
X104057Y143226D01*
X102108Y145175D01*
X102108Y149073D01*
X104057Y151022D01*
X113802Y151022D01*
X104057Y154920D02*
X102108Y156869D01*
X102108Y160767D01*
X104057Y162716D01*
X106006Y162716D01*
X107955Y160767D01*
X107955Y156869D01*
X109904Y154920D01*
X111853Y154920D01*
X113802Y156869D01*
X113802Y160767D01*
X111853Y162716D01*
X115751Y158818D02*
X100159Y158818D01*
X102108Y166614D02*
X102108Y174410D01*
X102108Y166614D02*
X109904Y174410D01*
X111853Y174410D01*
X113802Y172461D01*
X113802Y168563D01*
X111853Y166614D01*
D17*
X152400Y178816D03*
M02*
