G04 EAGLE Gerber X2 export*
%TF.Part,Single*%
%TF.FileFunction,Soldermask,Top,1*%
%TF.FilePolarity,Negative*%
%TF.GenerationSoftware,Autodesk,EAGLE,8.7.0*%
%TF.CreationDate,2018-05-03T09:05:19Z*%
G75*
%MOMM*%
%FSLAX34Y34*%
%LPD*%
%AMOC8*
5,1,8,0,0,1.08239X$1,22.5*%
G01*
%ADD10C,1.203200*%
%ADD11P,1.951982X8X22.500000*%
%ADD12C,1.803400*%
%ADD13R,2.903200X1.803200*%
%ADD14P,1.951982X8X202.500000*%
%ADD15R,1.703200X1.503200*%
%ADD16R,2.403200X0.803200*%
%ADD17C,1.879600*%
%ADD18C,2.743200*%
%ADD19C,2.003200*%
%ADD20C,0.959600*%


D10*
X88900Y444500D03*
X88900Y101600D03*
X558800Y101600D03*
X558800Y444500D03*
D11*
X222250Y425450D03*
D12*
X196850Y425450D03*
D13*
X177800Y195550D03*
X177800Y223550D03*
D14*
X215900Y120650D03*
D12*
X241300Y120650D03*
D15*
X412750Y307950D03*
X412750Y288950D03*
X387350Y307950D03*
X387350Y288950D03*
X361950Y307950D03*
X361950Y288950D03*
X336550Y307950D03*
X336550Y288950D03*
D16*
X240700Y254000D03*
X292700Y254000D03*
X240700Y266700D03*
X240700Y241300D03*
X240700Y228600D03*
X292700Y266700D03*
X292700Y241300D03*
X292700Y228600D03*
X240700Y203200D03*
X292700Y203200D03*
X240700Y215900D03*
X240700Y190500D03*
X292700Y215900D03*
X292700Y190500D03*
D15*
X209550Y244500D03*
X209550Y263500D03*
X177800Y168250D03*
X177800Y149250D03*
X209550Y301650D03*
X209550Y320650D03*
X209550Y193700D03*
X209550Y212700D03*
X387350Y358750D03*
X387350Y339750D03*
X412750Y358750D03*
X412750Y339750D03*
X209550Y352450D03*
X209550Y371450D03*
X361950Y358750D03*
X361950Y339750D03*
X336550Y358750D03*
X336550Y339750D03*
X177800Y371450D03*
X177800Y352450D03*
D17*
X177800Y260350D03*
X177800Y311150D03*
X177800Y285750D03*
D18*
X107700Y222039D03*
X107700Y272839D03*
X107700Y323639D03*
D16*
X240700Y355600D03*
X292700Y355600D03*
X240700Y368300D03*
X240700Y342900D03*
X240700Y330200D03*
X292700Y368300D03*
X292700Y342900D03*
X292700Y330200D03*
X240700Y304800D03*
X292700Y304800D03*
X240700Y317500D03*
X240700Y292100D03*
X292700Y317500D03*
X292700Y292100D03*
D15*
X412750Y238150D03*
X412750Y257150D03*
X387350Y238150D03*
X387350Y257150D03*
X412750Y187350D03*
X412750Y206350D03*
X387350Y187350D03*
X387350Y206350D03*
X361950Y238150D03*
X361950Y257150D03*
X336144Y238150D03*
X336144Y257150D03*
X361950Y187350D03*
X361950Y206350D03*
X336550Y187350D03*
X336550Y206350D03*
D19*
X444500Y184150D03*
X520700Y184150D03*
X520700Y260350D03*
X520700Y311150D03*
X520700Y361950D03*
X444500Y260350D03*
X444500Y311150D03*
X444500Y361950D03*
D18*
X514561Y418850D03*
X463761Y418850D03*
X412961Y418850D03*
X362161Y418850D03*
X311361Y418850D03*
X514561Y126750D03*
X463761Y126750D03*
X412961Y126750D03*
X362161Y126750D03*
X311361Y126750D03*
D20*
X317500Y342900D03*
X317703Y254000D03*
X260350Y241300D03*
X222686Y336986D03*
X260350Y304800D03*
X273050Y317500D03*
X260350Y203200D03*
X273050Y215900D03*
X139700Y228600D03*
X387350Y323850D03*
X317500Y285750D03*
X241300Y279400D03*
X336550Y323850D03*
X266700Y330200D03*
X387350Y222250D03*
X318372Y185022D03*
X266700Y190500D03*
X336550Y222250D03*
X264696Y228600D03*
X273050Y355600D03*
X273050Y266700D03*
M02*
