%
M48
M72
T01C0.04724
T02C0.12000
%
T01
X116165Y54055
X133094Y54020
X133094Y64020
X116165Y64055
X116165Y74055
X133094Y74020
X151205Y74339
X151205Y84339
X133094Y84020
X151205Y94339
T02
X53055Y38366
X29055Y46866
X82555Y45866
X26055Y66366
X84055Y66866
X72555Y90366
X183535Y66366
X241535Y66866
X240035Y45866
X210535Y38366
X186535Y46866
X230035Y90366
M30
