G75*
%MOIN*%
%OFA0B0*%
%FSLAX25Y25*%
%IPPOS*%
%LPD*%
%AMOC8*
5,1,8,0,0,1.08239X$1,22.5*
%
%ADD10C,0.00000*%
%ADD11C,0.00600*%
%ADD12C,0.00800*%
%ADD13C,0.00500*%
%ADD14C,0.02000*%
%ADD15R,0.07200X0.02300*%
%ADD16C,0.00400*%
%ADD17R,0.06299X0.01969*%
%ADD18R,0.01969X0.06299*%
%ADD19R,0.02559X0.01969*%
%ADD20R,0.02300X0.07200*%
%ADD21R,0.02000X0.02000*%
%ADD22R,0.05807X0.01929*%
%ADD23R,0.00787X0.03346*%
%ADD24C,0.01000*%
%ADD25R,0.01575X0.08268*%
D10*
X0001800Y0002000D02*
X0001800Y0398000D01*
X0710461Y0398000D01*
X0710461Y0002000D01*
X0001800Y0002000D01*
X0008158Y0134220D02*
X0008160Y0134378D01*
X0008166Y0134536D01*
X0008176Y0134694D01*
X0008190Y0134852D01*
X0008208Y0135009D01*
X0008229Y0135166D01*
X0008255Y0135322D01*
X0008285Y0135478D01*
X0008318Y0135633D01*
X0008356Y0135786D01*
X0008397Y0135939D01*
X0008442Y0136091D01*
X0008491Y0136242D01*
X0008544Y0136391D01*
X0008600Y0136539D01*
X0008660Y0136685D01*
X0008724Y0136830D01*
X0008792Y0136973D01*
X0008863Y0137115D01*
X0008937Y0137255D01*
X0009015Y0137392D01*
X0009097Y0137528D01*
X0009181Y0137662D01*
X0009270Y0137793D01*
X0009361Y0137922D01*
X0009456Y0138049D01*
X0009553Y0138174D01*
X0009654Y0138296D01*
X0009758Y0138415D01*
X0009865Y0138532D01*
X0009975Y0138646D01*
X0010088Y0138757D01*
X0010203Y0138866D01*
X0010321Y0138971D01*
X0010442Y0139073D01*
X0010565Y0139173D01*
X0010691Y0139269D01*
X0010819Y0139362D01*
X0010949Y0139452D01*
X0011082Y0139538D01*
X0011217Y0139622D01*
X0011353Y0139701D01*
X0011492Y0139778D01*
X0011633Y0139850D01*
X0011775Y0139920D01*
X0011919Y0139985D01*
X0012065Y0140047D01*
X0012212Y0140105D01*
X0012361Y0140160D01*
X0012511Y0140211D01*
X0012662Y0140258D01*
X0012814Y0140301D01*
X0012967Y0140340D01*
X0013122Y0140376D01*
X0013277Y0140407D01*
X0013433Y0140435D01*
X0013589Y0140459D01*
X0013746Y0140479D01*
X0013904Y0140495D01*
X0014061Y0140507D01*
X0014220Y0140515D01*
X0014378Y0140519D01*
X0014536Y0140519D01*
X0014694Y0140515D01*
X0014853Y0140507D01*
X0015010Y0140495D01*
X0015168Y0140479D01*
X0015325Y0140459D01*
X0015481Y0140435D01*
X0015637Y0140407D01*
X0015792Y0140376D01*
X0015947Y0140340D01*
X0016100Y0140301D01*
X0016252Y0140258D01*
X0016403Y0140211D01*
X0016553Y0140160D01*
X0016702Y0140105D01*
X0016849Y0140047D01*
X0016995Y0139985D01*
X0017139Y0139920D01*
X0017281Y0139850D01*
X0017422Y0139778D01*
X0017561Y0139701D01*
X0017697Y0139622D01*
X0017832Y0139538D01*
X0017965Y0139452D01*
X0018095Y0139362D01*
X0018223Y0139269D01*
X0018349Y0139173D01*
X0018472Y0139073D01*
X0018593Y0138971D01*
X0018711Y0138866D01*
X0018826Y0138757D01*
X0018939Y0138646D01*
X0019049Y0138532D01*
X0019156Y0138415D01*
X0019260Y0138296D01*
X0019361Y0138174D01*
X0019458Y0138049D01*
X0019553Y0137922D01*
X0019644Y0137793D01*
X0019733Y0137662D01*
X0019817Y0137528D01*
X0019899Y0137392D01*
X0019977Y0137255D01*
X0020051Y0137115D01*
X0020122Y0136973D01*
X0020190Y0136830D01*
X0020254Y0136685D01*
X0020314Y0136539D01*
X0020370Y0136391D01*
X0020423Y0136242D01*
X0020472Y0136091D01*
X0020517Y0135939D01*
X0020558Y0135786D01*
X0020596Y0135633D01*
X0020629Y0135478D01*
X0020659Y0135322D01*
X0020685Y0135166D01*
X0020706Y0135009D01*
X0020724Y0134852D01*
X0020738Y0134694D01*
X0020748Y0134536D01*
X0020754Y0134378D01*
X0020756Y0134220D01*
X0020754Y0134062D01*
X0020748Y0133904D01*
X0020738Y0133746D01*
X0020724Y0133588D01*
X0020706Y0133431D01*
X0020685Y0133274D01*
X0020659Y0133118D01*
X0020629Y0132962D01*
X0020596Y0132807D01*
X0020558Y0132654D01*
X0020517Y0132501D01*
X0020472Y0132349D01*
X0020423Y0132198D01*
X0020370Y0132049D01*
X0020314Y0131901D01*
X0020254Y0131755D01*
X0020190Y0131610D01*
X0020122Y0131467D01*
X0020051Y0131325D01*
X0019977Y0131185D01*
X0019899Y0131048D01*
X0019817Y0130912D01*
X0019733Y0130778D01*
X0019644Y0130647D01*
X0019553Y0130518D01*
X0019458Y0130391D01*
X0019361Y0130266D01*
X0019260Y0130144D01*
X0019156Y0130025D01*
X0019049Y0129908D01*
X0018939Y0129794D01*
X0018826Y0129683D01*
X0018711Y0129574D01*
X0018593Y0129469D01*
X0018472Y0129367D01*
X0018349Y0129267D01*
X0018223Y0129171D01*
X0018095Y0129078D01*
X0017965Y0128988D01*
X0017832Y0128902D01*
X0017697Y0128818D01*
X0017561Y0128739D01*
X0017422Y0128662D01*
X0017281Y0128590D01*
X0017139Y0128520D01*
X0016995Y0128455D01*
X0016849Y0128393D01*
X0016702Y0128335D01*
X0016553Y0128280D01*
X0016403Y0128229D01*
X0016252Y0128182D01*
X0016100Y0128139D01*
X0015947Y0128100D01*
X0015792Y0128064D01*
X0015637Y0128033D01*
X0015481Y0128005D01*
X0015325Y0127981D01*
X0015168Y0127961D01*
X0015010Y0127945D01*
X0014853Y0127933D01*
X0014694Y0127925D01*
X0014536Y0127921D01*
X0014378Y0127921D01*
X0014220Y0127925D01*
X0014061Y0127933D01*
X0013904Y0127945D01*
X0013746Y0127961D01*
X0013589Y0127981D01*
X0013433Y0128005D01*
X0013277Y0128033D01*
X0013122Y0128064D01*
X0012967Y0128100D01*
X0012814Y0128139D01*
X0012662Y0128182D01*
X0012511Y0128229D01*
X0012361Y0128280D01*
X0012212Y0128335D01*
X0012065Y0128393D01*
X0011919Y0128455D01*
X0011775Y0128520D01*
X0011633Y0128590D01*
X0011492Y0128662D01*
X0011353Y0128739D01*
X0011217Y0128818D01*
X0011082Y0128902D01*
X0010949Y0128988D01*
X0010819Y0129078D01*
X0010691Y0129171D01*
X0010565Y0129267D01*
X0010442Y0129367D01*
X0010321Y0129469D01*
X0010203Y0129574D01*
X0010088Y0129683D01*
X0009975Y0129794D01*
X0009865Y0129908D01*
X0009758Y0130025D01*
X0009654Y0130144D01*
X0009553Y0130266D01*
X0009456Y0130391D01*
X0009361Y0130518D01*
X0009270Y0130647D01*
X0009181Y0130778D01*
X0009097Y0130912D01*
X0009015Y0131048D01*
X0008937Y0131185D01*
X0008863Y0131325D01*
X0008792Y0131467D01*
X0008724Y0131610D01*
X0008660Y0131755D01*
X0008600Y0131901D01*
X0008544Y0132049D01*
X0008491Y0132198D01*
X0008442Y0132349D01*
X0008397Y0132501D01*
X0008356Y0132654D01*
X0008318Y0132807D01*
X0008285Y0132962D01*
X0008255Y0133118D01*
X0008229Y0133274D01*
X0008208Y0133431D01*
X0008190Y0133588D01*
X0008176Y0133746D01*
X0008166Y0133904D01*
X0008160Y0134062D01*
X0008158Y0134220D01*
X0106584Y0134220D02*
X0106586Y0134378D01*
X0106592Y0134536D01*
X0106602Y0134694D01*
X0106616Y0134852D01*
X0106634Y0135009D01*
X0106655Y0135166D01*
X0106681Y0135322D01*
X0106711Y0135478D01*
X0106744Y0135633D01*
X0106782Y0135786D01*
X0106823Y0135939D01*
X0106868Y0136091D01*
X0106917Y0136242D01*
X0106970Y0136391D01*
X0107026Y0136539D01*
X0107086Y0136685D01*
X0107150Y0136830D01*
X0107218Y0136973D01*
X0107289Y0137115D01*
X0107363Y0137255D01*
X0107441Y0137392D01*
X0107523Y0137528D01*
X0107607Y0137662D01*
X0107696Y0137793D01*
X0107787Y0137922D01*
X0107882Y0138049D01*
X0107979Y0138174D01*
X0108080Y0138296D01*
X0108184Y0138415D01*
X0108291Y0138532D01*
X0108401Y0138646D01*
X0108514Y0138757D01*
X0108629Y0138866D01*
X0108747Y0138971D01*
X0108868Y0139073D01*
X0108991Y0139173D01*
X0109117Y0139269D01*
X0109245Y0139362D01*
X0109375Y0139452D01*
X0109508Y0139538D01*
X0109643Y0139622D01*
X0109779Y0139701D01*
X0109918Y0139778D01*
X0110059Y0139850D01*
X0110201Y0139920D01*
X0110345Y0139985D01*
X0110491Y0140047D01*
X0110638Y0140105D01*
X0110787Y0140160D01*
X0110937Y0140211D01*
X0111088Y0140258D01*
X0111240Y0140301D01*
X0111393Y0140340D01*
X0111548Y0140376D01*
X0111703Y0140407D01*
X0111859Y0140435D01*
X0112015Y0140459D01*
X0112172Y0140479D01*
X0112330Y0140495D01*
X0112487Y0140507D01*
X0112646Y0140515D01*
X0112804Y0140519D01*
X0112962Y0140519D01*
X0113120Y0140515D01*
X0113279Y0140507D01*
X0113436Y0140495D01*
X0113594Y0140479D01*
X0113751Y0140459D01*
X0113907Y0140435D01*
X0114063Y0140407D01*
X0114218Y0140376D01*
X0114373Y0140340D01*
X0114526Y0140301D01*
X0114678Y0140258D01*
X0114829Y0140211D01*
X0114979Y0140160D01*
X0115128Y0140105D01*
X0115275Y0140047D01*
X0115421Y0139985D01*
X0115565Y0139920D01*
X0115707Y0139850D01*
X0115848Y0139778D01*
X0115987Y0139701D01*
X0116123Y0139622D01*
X0116258Y0139538D01*
X0116391Y0139452D01*
X0116521Y0139362D01*
X0116649Y0139269D01*
X0116775Y0139173D01*
X0116898Y0139073D01*
X0117019Y0138971D01*
X0117137Y0138866D01*
X0117252Y0138757D01*
X0117365Y0138646D01*
X0117475Y0138532D01*
X0117582Y0138415D01*
X0117686Y0138296D01*
X0117787Y0138174D01*
X0117884Y0138049D01*
X0117979Y0137922D01*
X0118070Y0137793D01*
X0118159Y0137662D01*
X0118243Y0137528D01*
X0118325Y0137392D01*
X0118403Y0137255D01*
X0118477Y0137115D01*
X0118548Y0136973D01*
X0118616Y0136830D01*
X0118680Y0136685D01*
X0118740Y0136539D01*
X0118796Y0136391D01*
X0118849Y0136242D01*
X0118898Y0136091D01*
X0118943Y0135939D01*
X0118984Y0135786D01*
X0119022Y0135633D01*
X0119055Y0135478D01*
X0119085Y0135322D01*
X0119111Y0135166D01*
X0119132Y0135009D01*
X0119150Y0134852D01*
X0119164Y0134694D01*
X0119174Y0134536D01*
X0119180Y0134378D01*
X0119182Y0134220D01*
X0119180Y0134062D01*
X0119174Y0133904D01*
X0119164Y0133746D01*
X0119150Y0133588D01*
X0119132Y0133431D01*
X0119111Y0133274D01*
X0119085Y0133118D01*
X0119055Y0132962D01*
X0119022Y0132807D01*
X0118984Y0132654D01*
X0118943Y0132501D01*
X0118898Y0132349D01*
X0118849Y0132198D01*
X0118796Y0132049D01*
X0118740Y0131901D01*
X0118680Y0131755D01*
X0118616Y0131610D01*
X0118548Y0131467D01*
X0118477Y0131325D01*
X0118403Y0131185D01*
X0118325Y0131048D01*
X0118243Y0130912D01*
X0118159Y0130778D01*
X0118070Y0130647D01*
X0117979Y0130518D01*
X0117884Y0130391D01*
X0117787Y0130266D01*
X0117686Y0130144D01*
X0117582Y0130025D01*
X0117475Y0129908D01*
X0117365Y0129794D01*
X0117252Y0129683D01*
X0117137Y0129574D01*
X0117019Y0129469D01*
X0116898Y0129367D01*
X0116775Y0129267D01*
X0116649Y0129171D01*
X0116521Y0129078D01*
X0116391Y0128988D01*
X0116258Y0128902D01*
X0116123Y0128818D01*
X0115987Y0128739D01*
X0115848Y0128662D01*
X0115707Y0128590D01*
X0115565Y0128520D01*
X0115421Y0128455D01*
X0115275Y0128393D01*
X0115128Y0128335D01*
X0114979Y0128280D01*
X0114829Y0128229D01*
X0114678Y0128182D01*
X0114526Y0128139D01*
X0114373Y0128100D01*
X0114218Y0128064D01*
X0114063Y0128033D01*
X0113907Y0128005D01*
X0113751Y0127981D01*
X0113594Y0127961D01*
X0113436Y0127945D01*
X0113279Y0127933D01*
X0113120Y0127925D01*
X0112962Y0127921D01*
X0112804Y0127921D01*
X0112646Y0127925D01*
X0112487Y0127933D01*
X0112330Y0127945D01*
X0112172Y0127961D01*
X0112015Y0127981D01*
X0111859Y0128005D01*
X0111703Y0128033D01*
X0111548Y0128064D01*
X0111393Y0128100D01*
X0111240Y0128139D01*
X0111088Y0128182D01*
X0110937Y0128229D01*
X0110787Y0128280D01*
X0110638Y0128335D01*
X0110491Y0128393D01*
X0110345Y0128455D01*
X0110201Y0128520D01*
X0110059Y0128590D01*
X0109918Y0128662D01*
X0109779Y0128739D01*
X0109643Y0128818D01*
X0109508Y0128902D01*
X0109375Y0128988D01*
X0109245Y0129078D01*
X0109117Y0129171D01*
X0108991Y0129267D01*
X0108868Y0129367D01*
X0108747Y0129469D01*
X0108629Y0129574D01*
X0108514Y0129683D01*
X0108401Y0129794D01*
X0108291Y0129908D01*
X0108184Y0130025D01*
X0108080Y0130144D01*
X0107979Y0130266D01*
X0107882Y0130391D01*
X0107787Y0130518D01*
X0107696Y0130647D01*
X0107607Y0130778D01*
X0107523Y0130912D01*
X0107441Y0131048D01*
X0107363Y0131185D01*
X0107289Y0131325D01*
X0107218Y0131467D01*
X0107150Y0131610D01*
X0107086Y0131755D01*
X0107026Y0131901D01*
X0106970Y0132049D01*
X0106917Y0132198D01*
X0106868Y0132349D01*
X0106823Y0132501D01*
X0106782Y0132654D01*
X0106744Y0132807D01*
X0106711Y0132962D01*
X0106681Y0133118D01*
X0106655Y0133274D01*
X0106634Y0133431D01*
X0106616Y0133588D01*
X0106602Y0133746D01*
X0106592Y0133904D01*
X0106586Y0134062D01*
X0106584Y0134220D01*
X0388650Y0367709D02*
X0388652Y0367821D01*
X0388658Y0367932D01*
X0388668Y0368044D01*
X0388682Y0368155D01*
X0388699Y0368265D01*
X0388721Y0368375D01*
X0388747Y0368484D01*
X0388776Y0368592D01*
X0388809Y0368698D01*
X0388846Y0368804D01*
X0388887Y0368908D01*
X0388932Y0369011D01*
X0388980Y0369112D01*
X0389031Y0369211D01*
X0389086Y0369308D01*
X0389145Y0369403D01*
X0389206Y0369497D01*
X0389271Y0369588D01*
X0389340Y0369676D01*
X0389411Y0369762D01*
X0389485Y0369846D01*
X0389563Y0369926D01*
X0389643Y0370004D01*
X0389726Y0370080D01*
X0389811Y0370152D01*
X0389899Y0370221D01*
X0389989Y0370287D01*
X0390082Y0370349D01*
X0390177Y0370409D01*
X0390274Y0370465D01*
X0390372Y0370517D01*
X0390473Y0370566D01*
X0390575Y0370611D01*
X0390679Y0370653D01*
X0390784Y0370691D01*
X0390891Y0370725D01*
X0390998Y0370755D01*
X0391107Y0370782D01*
X0391216Y0370804D01*
X0391327Y0370823D01*
X0391437Y0370838D01*
X0391549Y0370849D01*
X0391660Y0370856D01*
X0391772Y0370859D01*
X0391884Y0370858D01*
X0391996Y0370853D01*
X0392107Y0370844D01*
X0392218Y0370831D01*
X0392329Y0370814D01*
X0392439Y0370794D01*
X0392548Y0370769D01*
X0392656Y0370741D01*
X0392763Y0370708D01*
X0392869Y0370672D01*
X0392973Y0370632D01*
X0393076Y0370589D01*
X0393178Y0370542D01*
X0393277Y0370491D01*
X0393375Y0370437D01*
X0393471Y0370379D01*
X0393565Y0370318D01*
X0393656Y0370254D01*
X0393745Y0370187D01*
X0393832Y0370116D01*
X0393916Y0370042D01*
X0393998Y0369966D01*
X0394076Y0369886D01*
X0394152Y0369804D01*
X0394225Y0369719D01*
X0394295Y0369632D01*
X0394361Y0369542D01*
X0394425Y0369450D01*
X0394485Y0369356D01*
X0394542Y0369260D01*
X0394595Y0369161D01*
X0394645Y0369061D01*
X0394691Y0368960D01*
X0394734Y0368856D01*
X0394773Y0368751D01*
X0394808Y0368645D01*
X0394839Y0368538D01*
X0394867Y0368429D01*
X0394890Y0368320D01*
X0394910Y0368210D01*
X0394926Y0368099D01*
X0394938Y0367988D01*
X0394946Y0367877D01*
X0394950Y0367765D01*
X0394950Y0367653D01*
X0394946Y0367541D01*
X0394938Y0367430D01*
X0394926Y0367319D01*
X0394910Y0367208D01*
X0394890Y0367098D01*
X0394867Y0366989D01*
X0394839Y0366880D01*
X0394808Y0366773D01*
X0394773Y0366667D01*
X0394734Y0366562D01*
X0394691Y0366458D01*
X0394645Y0366357D01*
X0394595Y0366257D01*
X0394542Y0366158D01*
X0394485Y0366062D01*
X0394425Y0365968D01*
X0394361Y0365876D01*
X0394295Y0365786D01*
X0394225Y0365699D01*
X0394152Y0365614D01*
X0394076Y0365532D01*
X0393998Y0365452D01*
X0393916Y0365376D01*
X0393832Y0365302D01*
X0393745Y0365231D01*
X0393656Y0365164D01*
X0393565Y0365100D01*
X0393471Y0365039D01*
X0393375Y0364981D01*
X0393277Y0364927D01*
X0393178Y0364876D01*
X0393076Y0364829D01*
X0392973Y0364786D01*
X0392869Y0364746D01*
X0392763Y0364710D01*
X0392656Y0364677D01*
X0392548Y0364649D01*
X0392439Y0364624D01*
X0392329Y0364604D01*
X0392218Y0364587D01*
X0392107Y0364574D01*
X0391996Y0364565D01*
X0391884Y0364560D01*
X0391772Y0364559D01*
X0391660Y0364562D01*
X0391549Y0364569D01*
X0391437Y0364580D01*
X0391327Y0364595D01*
X0391216Y0364614D01*
X0391107Y0364636D01*
X0390998Y0364663D01*
X0390891Y0364693D01*
X0390784Y0364727D01*
X0390679Y0364765D01*
X0390575Y0364807D01*
X0390473Y0364852D01*
X0390372Y0364901D01*
X0390274Y0364953D01*
X0390177Y0365009D01*
X0390082Y0365069D01*
X0389989Y0365131D01*
X0389899Y0365197D01*
X0389811Y0365266D01*
X0389726Y0365338D01*
X0389643Y0365414D01*
X0389563Y0365492D01*
X0389485Y0365572D01*
X0389411Y0365656D01*
X0389340Y0365742D01*
X0389271Y0365830D01*
X0389206Y0365921D01*
X0389145Y0366015D01*
X0389086Y0366110D01*
X0389031Y0366207D01*
X0388980Y0366306D01*
X0388932Y0366407D01*
X0388887Y0366510D01*
X0388846Y0366614D01*
X0388809Y0366720D01*
X0388776Y0366826D01*
X0388747Y0366934D01*
X0388721Y0367043D01*
X0388699Y0367153D01*
X0388682Y0367263D01*
X0388668Y0367374D01*
X0388658Y0367486D01*
X0388652Y0367597D01*
X0388650Y0367709D01*
X0358650Y0387709D02*
X0358652Y0387821D01*
X0358658Y0387932D01*
X0358668Y0388044D01*
X0358682Y0388155D01*
X0358699Y0388265D01*
X0358721Y0388375D01*
X0358747Y0388484D01*
X0358776Y0388592D01*
X0358809Y0388698D01*
X0358846Y0388804D01*
X0358887Y0388908D01*
X0358932Y0389011D01*
X0358980Y0389112D01*
X0359031Y0389211D01*
X0359086Y0389308D01*
X0359145Y0389403D01*
X0359206Y0389497D01*
X0359271Y0389588D01*
X0359340Y0389676D01*
X0359411Y0389762D01*
X0359485Y0389846D01*
X0359563Y0389926D01*
X0359643Y0390004D01*
X0359726Y0390080D01*
X0359811Y0390152D01*
X0359899Y0390221D01*
X0359989Y0390287D01*
X0360082Y0390349D01*
X0360177Y0390409D01*
X0360274Y0390465D01*
X0360372Y0390517D01*
X0360473Y0390566D01*
X0360575Y0390611D01*
X0360679Y0390653D01*
X0360784Y0390691D01*
X0360891Y0390725D01*
X0360998Y0390755D01*
X0361107Y0390782D01*
X0361216Y0390804D01*
X0361327Y0390823D01*
X0361437Y0390838D01*
X0361549Y0390849D01*
X0361660Y0390856D01*
X0361772Y0390859D01*
X0361884Y0390858D01*
X0361996Y0390853D01*
X0362107Y0390844D01*
X0362218Y0390831D01*
X0362329Y0390814D01*
X0362439Y0390794D01*
X0362548Y0390769D01*
X0362656Y0390741D01*
X0362763Y0390708D01*
X0362869Y0390672D01*
X0362973Y0390632D01*
X0363076Y0390589D01*
X0363178Y0390542D01*
X0363277Y0390491D01*
X0363375Y0390437D01*
X0363471Y0390379D01*
X0363565Y0390318D01*
X0363656Y0390254D01*
X0363745Y0390187D01*
X0363832Y0390116D01*
X0363916Y0390042D01*
X0363998Y0389966D01*
X0364076Y0389886D01*
X0364152Y0389804D01*
X0364225Y0389719D01*
X0364295Y0389632D01*
X0364361Y0389542D01*
X0364425Y0389450D01*
X0364485Y0389356D01*
X0364542Y0389260D01*
X0364595Y0389161D01*
X0364645Y0389061D01*
X0364691Y0388960D01*
X0364734Y0388856D01*
X0364773Y0388751D01*
X0364808Y0388645D01*
X0364839Y0388538D01*
X0364867Y0388429D01*
X0364890Y0388320D01*
X0364910Y0388210D01*
X0364926Y0388099D01*
X0364938Y0387988D01*
X0364946Y0387877D01*
X0364950Y0387765D01*
X0364950Y0387653D01*
X0364946Y0387541D01*
X0364938Y0387430D01*
X0364926Y0387319D01*
X0364910Y0387208D01*
X0364890Y0387098D01*
X0364867Y0386989D01*
X0364839Y0386880D01*
X0364808Y0386773D01*
X0364773Y0386667D01*
X0364734Y0386562D01*
X0364691Y0386458D01*
X0364645Y0386357D01*
X0364595Y0386257D01*
X0364542Y0386158D01*
X0364485Y0386062D01*
X0364425Y0385968D01*
X0364361Y0385876D01*
X0364295Y0385786D01*
X0364225Y0385699D01*
X0364152Y0385614D01*
X0364076Y0385532D01*
X0363998Y0385452D01*
X0363916Y0385376D01*
X0363832Y0385302D01*
X0363745Y0385231D01*
X0363656Y0385164D01*
X0363565Y0385100D01*
X0363471Y0385039D01*
X0363375Y0384981D01*
X0363277Y0384927D01*
X0363178Y0384876D01*
X0363076Y0384829D01*
X0362973Y0384786D01*
X0362869Y0384746D01*
X0362763Y0384710D01*
X0362656Y0384677D01*
X0362548Y0384649D01*
X0362439Y0384624D01*
X0362329Y0384604D01*
X0362218Y0384587D01*
X0362107Y0384574D01*
X0361996Y0384565D01*
X0361884Y0384560D01*
X0361772Y0384559D01*
X0361660Y0384562D01*
X0361549Y0384569D01*
X0361437Y0384580D01*
X0361327Y0384595D01*
X0361216Y0384614D01*
X0361107Y0384636D01*
X0360998Y0384663D01*
X0360891Y0384693D01*
X0360784Y0384727D01*
X0360679Y0384765D01*
X0360575Y0384807D01*
X0360473Y0384852D01*
X0360372Y0384901D01*
X0360274Y0384953D01*
X0360177Y0385009D01*
X0360082Y0385069D01*
X0359989Y0385131D01*
X0359899Y0385197D01*
X0359811Y0385266D01*
X0359726Y0385338D01*
X0359643Y0385414D01*
X0359563Y0385492D01*
X0359485Y0385572D01*
X0359411Y0385656D01*
X0359340Y0385742D01*
X0359271Y0385830D01*
X0359206Y0385921D01*
X0359145Y0386015D01*
X0359086Y0386110D01*
X0359031Y0386207D01*
X0358980Y0386306D01*
X0358932Y0386407D01*
X0358887Y0386510D01*
X0358846Y0386614D01*
X0358809Y0386720D01*
X0358776Y0386826D01*
X0358747Y0386934D01*
X0358721Y0387043D01*
X0358699Y0387153D01*
X0358682Y0387263D01*
X0358668Y0387374D01*
X0358658Y0387486D01*
X0358652Y0387597D01*
X0358650Y0387709D01*
X0195304Y0384500D02*
X0195306Y0384661D01*
X0195312Y0384821D01*
X0195322Y0384982D01*
X0195336Y0385142D01*
X0195354Y0385301D01*
X0195375Y0385461D01*
X0195401Y0385619D01*
X0195431Y0385777D01*
X0195464Y0385934D01*
X0195502Y0386091D01*
X0195543Y0386246D01*
X0195588Y0386400D01*
X0195637Y0386553D01*
X0195690Y0386705D01*
X0195746Y0386855D01*
X0195806Y0387004D01*
X0195870Y0387152D01*
X0195937Y0387298D01*
X0196008Y0387442D01*
X0196083Y0387584D01*
X0196161Y0387725D01*
X0196242Y0387863D01*
X0196327Y0388000D01*
X0196416Y0388134D01*
X0196507Y0388266D01*
X0196602Y0388396D01*
X0196700Y0388523D01*
X0196801Y0388648D01*
X0196905Y0388771D01*
X0197012Y0388890D01*
X0197122Y0389007D01*
X0197235Y0389122D01*
X0197351Y0389233D01*
X0197469Y0389342D01*
X0197590Y0389447D01*
X0197714Y0389550D01*
X0197840Y0389650D01*
X0197969Y0389746D01*
X0198100Y0389839D01*
X0198233Y0389929D01*
X0198368Y0390016D01*
X0198506Y0390099D01*
X0198645Y0390178D01*
X0198787Y0390255D01*
X0198930Y0390328D01*
X0199075Y0390397D01*
X0199222Y0390462D01*
X0199370Y0390524D01*
X0199520Y0390583D01*
X0199671Y0390637D01*
X0199823Y0390688D01*
X0199977Y0390735D01*
X0200132Y0390778D01*
X0200287Y0390817D01*
X0200444Y0390853D01*
X0200602Y0390885D01*
X0200760Y0390912D01*
X0200919Y0390936D01*
X0201078Y0390956D01*
X0201238Y0390972D01*
X0201399Y0390984D01*
X0201559Y0390992D01*
X0201720Y0390996D01*
X0201880Y0390996D01*
X0202041Y0390992D01*
X0202201Y0390984D01*
X0202362Y0390972D01*
X0202522Y0390956D01*
X0202681Y0390936D01*
X0202840Y0390912D01*
X0202998Y0390885D01*
X0203156Y0390853D01*
X0203313Y0390817D01*
X0203468Y0390778D01*
X0203623Y0390735D01*
X0203777Y0390688D01*
X0203929Y0390637D01*
X0204080Y0390583D01*
X0204230Y0390524D01*
X0204378Y0390462D01*
X0204525Y0390397D01*
X0204670Y0390328D01*
X0204813Y0390255D01*
X0204955Y0390178D01*
X0205094Y0390099D01*
X0205232Y0390016D01*
X0205367Y0389929D01*
X0205500Y0389839D01*
X0205631Y0389746D01*
X0205760Y0389650D01*
X0205886Y0389550D01*
X0206010Y0389447D01*
X0206131Y0389342D01*
X0206249Y0389233D01*
X0206365Y0389122D01*
X0206478Y0389007D01*
X0206588Y0388890D01*
X0206695Y0388771D01*
X0206799Y0388648D01*
X0206900Y0388523D01*
X0206998Y0388396D01*
X0207093Y0388266D01*
X0207184Y0388134D01*
X0207273Y0388000D01*
X0207358Y0387863D01*
X0207439Y0387725D01*
X0207517Y0387584D01*
X0207592Y0387442D01*
X0207663Y0387298D01*
X0207730Y0387152D01*
X0207794Y0387004D01*
X0207854Y0386855D01*
X0207910Y0386705D01*
X0207963Y0386553D01*
X0208012Y0386400D01*
X0208057Y0386246D01*
X0208098Y0386091D01*
X0208136Y0385934D01*
X0208169Y0385777D01*
X0208199Y0385619D01*
X0208225Y0385461D01*
X0208246Y0385301D01*
X0208264Y0385142D01*
X0208278Y0384982D01*
X0208288Y0384821D01*
X0208294Y0384661D01*
X0208296Y0384500D01*
X0208294Y0384339D01*
X0208288Y0384179D01*
X0208278Y0384018D01*
X0208264Y0383858D01*
X0208246Y0383699D01*
X0208225Y0383539D01*
X0208199Y0383381D01*
X0208169Y0383223D01*
X0208136Y0383066D01*
X0208098Y0382909D01*
X0208057Y0382754D01*
X0208012Y0382600D01*
X0207963Y0382447D01*
X0207910Y0382295D01*
X0207854Y0382145D01*
X0207794Y0381996D01*
X0207730Y0381848D01*
X0207663Y0381702D01*
X0207592Y0381558D01*
X0207517Y0381416D01*
X0207439Y0381275D01*
X0207358Y0381137D01*
X0207273Y0381000D01*
X0207184Y0380866D01*
X0207093Y0380734D01*
X0206998Y0380604D01*
X0206900Y0380477D01*
X0206799Y0380352D01*
X0206695Y0380229D01*
X0206588Y0380110D01*
X0206478Y0379993D01*
X0206365Y0379878D01*
X0206249Y0379767D01*
X0206131Y0379658D01*
X0206010Y0379553D01*
X0205886Y0379450D01*
X0205760Y0379350D01*
X0205631Y0379254D01*
X0205500Y0379161D01*
X0205367Y0379071D01*
X0205232Y0378984D01*
X0205094Y0378901D01*
X0204955Y0378822D01*
X0204813Y0378745D01*
X0204670Y0378672D01*
X0204525Y0378603D01*
X0204378Y0378538D01*
X0204230Y0378476D01*
X0204080Y0378417D01*
X0203929Y0378363D01*
X0203777Y0378312D01*
X0203623Y0378265D01*
X0203468Y0378222D01*
X0203313Y0378183D01*
X0203156Y0378147D01*
X0202998Y0378115D01*
X0202840Y0378088D01*
X0202681Y0378064D01*
X0202522Y0378044D01*
X0202362Y0378028D01*
X0202201Y0378016D01*
X0202041Y0378008D01*
X0201880Y0378004D01*
X0201720Y0378004D01*
X0201559Y0378008D01*
X0201399Y0378016D01*
X0201238Y0378028D01*
X0201078Y0378044D01*
X0200919Y0378064D01*
X0200760Y0378088D01*
X0200602Y0378115D01*
X0200444Y0378147D01*
X0200287Y0378183D01*
X0200132Y0378222D01*
X0199977Y0378265D01*
X0199823Y0378312D01*
X0199671Y0378363D01*
X0199520Y0378417D01*
X0199370Y0378476D01*
X0199222Y0378538D01*
X0199075Y0378603D01*
X0198930Y0378672D01*
X0198787Y0378745D01*
X0198645Y0378822D01*
X0198506Y0378901D01*
X0198368Y0378984D01*
X0198233Y0379071D01*
X0198100Y0379161D01*
X0197969Y0379254D01*
X0197840Y0379350D01*
X0197714Y0379450D01*
X0197590Y0379553D01*
X0197469Y0379658D01*
X0197351Y0379767D01*
X0197235Y0379878D01*
X0197122Y0379993D01*
X0197012Y0380110D01*
X0196905Y0380229D01*
X0196801Y0380352D01*
X0196700Y0380477D01*
X0196602Y0380604D01*
X0196507Y0380734D01*
X0196416Y0380866D01*
X0196327Y0381000D01*
X0196242Y0381137D01*
X0196161Y0381275D01*
X0196083Y0381416D01*
X0196008Y0381558D01*
X0195937Y0381702D01*
X0195870Y0381848D01*
X0195806Y0381996D01*
X0195746Y0382145D01*
X0195690Y0382295D01*
X0195637Y0382447D01*
X0195588Y0382600D01*
X0195543Y0382754D01*
X0195502Y0382909D01*
X0195464Y0383066D01*
X0195431Y0383223D01*
X0195401Y0383381D01*
X0195375Y0383539D01*
X0195354Y0383699D01*
X0195336Y0383858D01*
X0195322Y0384018D01*
X0195312Y0384179D01*
X0195306Y0384339D01*
X0195304Y0384500D01*
X0198650Y0369500D02*
X0198652Y0369612D01*
X0198658Y0369723D01*
X0198668Y0369835D01*
X0198682Y0369946D01*
X0198699Y0370056D01*
X0198721Y0370166D01*
X0198747Y0370275D01*
X0198776Y0370383D01*
X0198809Y0370489D01*
X0198846Y0370595D01*
X0198887Y0370699D01*
X0198932Y0370802D01*
X0198980Y0370903D01*
X0199031Y0371002D01*
X0199086Y0371099D01*
X0199145Y0371194D01*
X0199206Y0371288D01*
X0199271Y0371379D01*
X0199340Y0371467D01*
X0199411Y0371553D01*
X0199485Y0371637D01*
X0199563Y0371717D01*
X0199643Y0371795D01*
X0199726Y0371871D01*
X0199811Y0371943D01*
X0199899Y0372012D01*
X0199989Y0372078D01*
X0200082Y0372140D01*
X0200177Y0372200D01*
X0200274Y0372256D01*
X0200372Y0372308D01*
X0200473Y0372357D01*
X0200575Y0372402D01*
X0200679Y0372444D01*
X0200784Y0372482D01*
X0200891Y0372516D01*
X0200998Y0372546D01*
X0201107Y0372573D01*
X0201216Y0372595D01*
X0201327Y0372614D01*
X0201437Y0372629D01*
X0201549Y0372640D01*
X0201660Y0372647D01*
X0201772Y0372650D01*
X0201884Y0372649D01*
X0201996Y0372644D01*
X0202107Y0372635D01*
X0202218Y0372622D01*
X0202329Y0372605D01*
X0202439Y0372585D01*
X0202548Y0372560D01*
X0202656Y0372532D01*
X0202763Y0372499D01*
X0202869Y0372463D01*
X0202973Y0372423D01*
X0203076Y0372380D01*
X0203178Y0372333D01*
X0203277Y0372282D01*
X0203375Y0372228D01*
X0203471Y0372170D01*
X0203565Y0372109D01*
X0203656Y0372045D01*
X0203745Y0371978D01*
X0203832Y0371907D01*
X0203916Y0371833D01*
X0203998Y0371757D01*
X0204076Y0371677D01*
X0204152Y0371595D01*
X0204225Y0371510D01*
X0204295Y0371423D01*
X0204361Y0371333D01*
X0204425Y0371241D01*
X0204485Y0371147D01*
X0204542Y0371051D01*
X0204595Y0370952D01*
X0204645Y0370852D01*
X0204691Y0370751D01*
X0204734Y0370647D01*
X0204773Y0370542D01*
X0204808Y0370436D01*
X0204839Y0370329D01*
X0204867Y0370220D01*
X0204890Y0370111D01*
X0204910Y0370001D01*
X0204926Y0369890D01*
X0204938Y0369779D01*
X0204946Y0369668D01*
X0204950Y0369556D01*
X0204950Y0369444D01*
X0204946Y0369332D01*
X0204938Y0369221D01*
X0204926Y0369110D01*
X0204910Y0368999D01*
X0204890Y0368889D01*
X0204867Y0368780D01*
X0204839Y0368671D01*
X0204808Y0368564D01*
X0204773Y0368458D01*
X0204734Y0368353D01*
X0204691Y0368249D01*
X0204645Y0368148D01*
X0204595Y0368048D01*
X0204542Y0367949D01*
X0204485Y0367853D01*
X0204425Y0367759D01*
X0204361Y0367667D01*
X0204295Y0367577D01*
X0204225Y0367490D01*
X0204152Y0367405D01*
X0204076Y0367323D01*
X0203998Y0367243D01*
X0203916Y0367167D01*
X0203832Y0367093D01*
X0203745Y0367022D01*
X0203656Y0366955D01*
X0203565Y0366891D01*
X0203471Y0366830D01*
X0203375Y0366772D01*
X0203277Y0366718D01*
X0203178Y0366667D01*
X0203076Y0366620D01*
X0202973Y0366577D01*
X0202869Y0366537D01*
X0202763Y0366501D01*
X0202656Y0366468D01*
X0202548Y0366440D01*
X0202439Y0366415D01*
X0202329Y0366395D01*
X0202218Y0366378D01*
X0202107Y0366365D01*
X0201996Y0366356D01*
X0201884Y0366351D01*
X0201772Y0366350D01*
X0201660Y0366353D01*
X0201549Y0366360D01*
X0201437Y0366371D01*
X0201327Y0366386D01*
X0201216Y0366405D01*
X0201107Y0366427D01*
X0200998Y0366454D01*
X0200891Y0366484D01*
X0200784Y0366518D01*
X0200679Y0366556D01*
X0200575Y0366598D01*
X0200473Y0366643D01*
X0200372Y0366692D01*
X0200274Y0366744D01*
X0200177Y0366800D01*
X0200082Y0366860D01*
X0199989Y0366922D01*
X0199899Y0366988D01*
X0199811Y0367057D01*
X0199726Y0367129D01*
X0199643Y0367205D01*
X0199563Y0367283D01*
X0199485Y0367363D01*
X0199411Y0367447D01*
X0199340Y0367533D01*
X0199271Y0367621D01*
X0199206Y0367712D01*
X0199145Y0367806D01*
X0199086Y0367901D01*
X0199031Y0367998D01*
X0198980Y0368097D01*
X0198932Y0368198D01*
X0198887Y0368301D01*
X0198846Y0368405D01*
X0198809Y0368511D01*
X0198776Y0368617D01*
X0198747Y0368725D01*
X0198721Y0368834D01*
X0198699Y0368944D01*
X0198682Y0369054D01*
X0198668Y0369165D01*
X0198658Y0369277D01*
X0198652Y0369388D01*
X0198650Y0369500D01*
X0165304Y0384500D02*
X0165306Y0384661D01*
X0165312Y0384821D01*
X0165322Y0384982D01*
X0165336Y0385142D01*
X0165354Y0385301D01*
X0165375Y0385461D01*
X0165401Y0385619D01*
X0165431Y0385777D01*
X0165464Y0385934D01*
X0165502Y0386091D01*
X0165543Y0386246D01*
X0165588Y0386400D01*
X0165637Y0386553D01*
X0165690Y0386705D01*
X0165746Y0386855D01*
X0165806Y0387004D01*
X0165870Y0387152D01*
X0165937Y0387298D01*
X0166008Y0387442D01*
X0166083Y0387584D01*
X0166161Y0387725D01*
X0166242Y0387863D01*
X0166327Y0388000D01*
X0166416Y0388134D01*
X0166507Y0388266D01*
X0166602Y0388396D01*
X0166700Y0388523D01*
X0166801Y0388648D01*
X0166905Y0388771D01*
X0167012Y0388890D01*
X0167122Y0389007D01*
X0167235Y0389122D01*
X0167351Y0389233D01*
X0167469Y0389342D01*
X0167590Y0389447D01*
X0167714Y0389550D01*
X0167840Y0389650D01*
X0167969Y0389746D01*
X0168100Y0389839D01*
X0168233Y0389929D01*
X0168368Y0390016D01*
X0168506Y0390099D01*
X0168645Y0390178D01*
X0168787Y0390255D01*
X0168930Y0390328D01*
X0169075Y0390397D01*
X0169222Y0390462D01*
X0169370Y0390524D01*
X0169520Y0390583D01*
X0169671Y0390637D01*
X0169823Y0390688D01*
X0169977Y0390735D01*
X0170132Y0390778D01*
X0170287Y0390817D01*
X0170444Y0390853D01*
X0170602Y0390885D01*
X0170760Y0390912D01*
X0170919Y0390936D01*
X0171078Y0390956D01*
X0171238Y0390972D01*
X0171399Y0390984D01*
X0171559Y0390992D01*
X0171720Y0390996D01*
X0171880Y0390996D01*
X0172041Y0390992D01*
X0172201Y0390984D01*
X0172362Y0390972D01*
X0172522Y0390956D01*
X0172681Y0390936D01*
X0172840Y0390912D01*
X0172998Y0390885D01*
X0173156Y0390853D01*
X0173313Y0390817D01*
X0173468Y0390778D01*
X0173623Y0390735D01*
X0173777Y0390688D01*
X0173929Y0390637D01*
X0174080Y0390583D01*
X0174230Y0390524D01*
X0174378Y0390462D01*
X0174525Y0390397D01*
X0174670Y0390328D01*
X0174813Y0390255D01*
X0174955Y0390178D01*
X0175094Y0390099D01*
X0175232Y0390016D01*
X0175367Y0389929D01*
X0175500Y0389839D01*
X0175631Y0389746D01*
X0175760Y0389650D01*
X0175886Y0389550D01*
X0176010Y0389447D01*
X0176131Y0389342D01*
X0176249Y0389233D01*
X0176365Y0389122D01*
X0176478Y0389007D01*
X0176588Y0388890D01*
X0176695Y0388771D01*
X0176799Y0388648D01*
X0176900Y0388523D01*
X0176998Y0388396D01*
X0177093Y0388266D01*
X0177184Y0388134D01*
X0177273Y0388000D01*
X0177358Y0387863D01*
X0177439Y0387725D01*
X0177517Y0387584D01*
X0177592Y0387442D01*
X0177663Y0387298D01*
X0177730Y0387152D01*
X0177794Y0387004D01*
X0177854Y0386855D01*
X0177910Y0386705D01*
X0177963Y0386553D01*
X0178012Y0386400D01*
X0178057Y0386246D01*
X0178098Y0386091D01*
X0178136Y0385934D01*
X0178169Y0385777D01*
X0178199Y0385619D01*
X0178225Y0385461D01*
X0178246Y0385301D01*
X0178264Y0385142D01*
X0178278Y0384982D01*
X0178288Y0384821D01*
X0178294Y0384661D01*
X0178296Y0384500D01*
X0178294Y0384339D01*
X0178288Y0384179D01*
X0178278Y0384018D01*
X0178264Y0383858D01*
X0178246Y0383699D01*
X0178225Y0383539D01*
X0178199Y0383381D01*
X0178169Y0383223D01*
X0178136Y0383066D01*
X0178098Y0382909D01*
X0178057Y0382754D01*
X0178012Y0382600D01*
X0177963Y0382447D01*
X0177910Y0382295D01*
X0177854Y0382145D01*
X0177794Y0381996D01*
X0177730Y0381848D01*
X0177663Y0381702D01*
X0177592Y0381558D01*
X0177517Y0381416D01*
X0177439Y0381275D01*
X0177358Y0381137D01*
X0177273Y0381000D01*
X0177184Y0380866D01*
X0177093Y0380734D01*
X0176998Y0380604D01*
X0176900Y0380477D01*
X0176799Y0380352D01*
X0176695Y0380229D01*
X0176588Y0380110D01*
X0176478Y0379993D01*
X0176365Y0379878D01*
X0176249Y0379767D01*
X0176131Y0379658D01*
X0176010Y0379553D01*
X0175886Y0379450D01*
X0175760Y0379350D01*
X0175631Y0379254D01*
X0175500Y0379161D01*
X0175367Y0379071D01*
X0175232Y0378984D01*
X0175094Y0378901D01*
X0174955Y0378822D01*
X0174813Y0378745D01*
X0174670Y0378672D01*
X0174525Y0378603D01*
X0174378Y0378538D01*
X0174230Y0378476D01*
X0174080Y0378417D01*
X0173929Y0378363D01*
X0173777Y0378312D01*
X0173623Y0378265D01*
X0173468Y0378222D01*
X0173313Y0378183D01*
X0173156Y0378147D01*
X0172998Y0378115D01*
X0172840Y0378088D01*
X0172681Y0378064D01*
X0172522Y0378044D01*
X0172362Y0378028D01*
X0172201Y0378016D01*
X0172041Y0378008D01*
X0171880Y0378004D01*
X0171720Y0378004D01*
X0171559Y0378008D01*
X0171399Y0378016D01*
X0171238Y0378028D01*
X0171078Y0378044D01*
X0170919Y0378064D01*
X0170760Y0378088D01*
X0170602Y0378115D01*
X0170444Y0378147D01*
X0170287Y0378183D01*
X0170132Y0378222D01*
X0169977Y0378265D01*
X0169823Y0378312D01*
X0169671Y0378363D01*
X0169520Y0378417D01*
X0169370Y0378476D01*
X0169222Y0378538D01*
X0169075Y0378603D01*
X0168930Y0378672D01*
X0168787Y0378745D01*
X0168645Y0378822D01*
X0168506Y0378901D01*
X0168368Y0378984D01*
X0168233Y0379071D01*
X0168100Y0379161D01*
X0167969Y0379254D01*
X0167840Y0379350D01*
X0167714Y0379450D01*
X0167590Y0379553D01*
X0167469Y0379658D01*
X0167351Y0379767D01*
X0167235Y0379878D01*
X0167122Y0379993D01*
X0167012Y0380110D01*
X0166905Y0380229D01*
X0166801Y0380352D01*
X0166700Y0380477D01*
X0166602Y0380604D01*
X0166507Y0380734D01*
X0166416Y0380866D01*
X0166327Y0381000D01*
X0166242Y0381137D01*
X0166161Y0381275D01*
X0166083Y0381416D01*
X0166008Y0381558D01*
X0165937Y0381702D01*
X0165870Y0381848D01*
X0165806Y0381996D01*
X0165746Y0382145D01*
X0165690Y0382295D01*
X0165637Y0382447D01*
X0165588Y0382600D01*
X0165543Y0382754D01*
X0165502Y0382909D01*
X0165464Y0383066D01*
X0165431Y0383223D01*
X0165401Y0383381D01*
X0165375Y0383539D01*
X0165354Y0383699D01*
X0165336Y0383858D01*
X0165322Y0384018D01*
X0165312Y0384179D01*
X0165306Y0384339D01*
X0165304Y0384500D01*
X0168650Y0389500D02*
X0168652Y0389612D01*
X0168658Y0389723D01*
X0168668Y0389835D01*
X0168682Y0389946D01*
X0168699Y0390056D01*
X0168721Y0390166D01*
X0168747Y0390275D01*
X0168776Y0390383D01*
X0168809Y0390489D01*
X0168846Y0390595D01*
X0168887Y0390699D01*
X0168932Y0390802D01*
X0168980Y0390903D01*
X0169031Y0391002D01*
X0169086Y0391099D01*
X0169145Y0391194D01*
X0169206Y0391288D01*
X0169271Y0391379D01*
X0169340Y0391467D01*
X0169411Y0391553D01*
X0169485Y0391637D01*
X0169563Y0391717D01*
X0169643Y0391795D01*
X0169726Y0391871D01*
X0169811Y0391943D01*
X0169899Y0392012D01*
X0169989Y0392078D01*
X0170082Y0392140D01*
X0170177Y0392200D01*
X0170274Y0392256D01*
X0170372Y0392308D01*
X0170473Y0392357D01*
X0170575Y0392402D01*
X0170679Y0392444D01*
X0170784Y0392482D01*
X0170891Y0392516D01*
X0170998Y0392546D01*
X0171107Y0392573D01*
X0171216Y0392595D01*
X0171327Y0392614D01*
X0171437Y0392629D01*
X0171549Y0392640D01*
X0171660Y0392647D01*
X0171772Y0392650D01*
X0171884Y0392649D01*
X0171996Y0392644D01*
X0172107Y0392635D01*
X0172218Y0392622D01*
X0172329Y0392605D01*
X0172439Y0392585D01*
X0172548Y0392560D01*
X0172656Y0392532D01*
X0172763Y0392499D01*
X0172869Y0392463D01*
X0172973Y0392423D01*
X0173076Y0392380D01*
X0173178Y0392333D01*
X0173277Y0392282D01*
X0173375Y0392228D01*
X0173471Y0392170D01*
X0173565Y0392109D01*
X0173656Y0392045D01*
X0173745Y0391978D01*
X0173832Y0391907D01*
X0173916Y0391833D01*
X0173998Y0391757D01*
X0174076Y0391677D01*
X0174152Y0391595D01*
X0174225Y0391510D01*
X0174295Y0391423D01*
X0174361Y0391333D01*
X0174425Y0391241D01*
X0174485Y0391147D01*
X0174542Y0391051D01*
X0174595Y0390952D01*
X0174645Y0390852D01*
X0174691Y0390751D01*
X0174734Y0390647D01*
X0174773Y0390542D01*
X0174808Y0390436D01*
X0174839Y0390329D01*
X0174867Y0390220D01*
X0174890Y0390111D01*
X0174910Y0390001D01*
X0174926Y0389890D01*
X0174938Y0389779D01*
X0174946Y0389668D01*
X0174950Y0389556D01*
X0174950Y0389444D01*
X0174946Y0389332D01*
X0174938Y0389221D01*
X0174926Y0389110D01*
X0174910Y0388999D01*
X0174890Y0388889D01*
X0174867Y0388780D01*
X0174839Y0388671D01*
X0174808Y0388564D01*
X0174773Y0388458D01*
X0174734Y0388353D01*
X0174691Y0388249D01*
X0174645Y0388148D01*
X0174595Y0388048D01*
X0174542Y0387949D01*
X0174485Y0387853D01*
X0174425Y0387759D01*
X0174361Y0387667D01*
X0174295Y0387577D01*
X0174225Y0387490D01*
X0174152Y0387405D01*
X0174076Y0387323D01*
X0173998Y0387243D01*
X0173916Y0387167D01*
X0173832Y0387093D01*
X0173745Y0387022D01*
X0173656Y0386955D01*
X0173565Y0386891D01*
X0173471Y0386830D01*
X0173375Y0386772D01*
X0173277Y0386718D01*
X0173178Y0386667D01*
X0173076Y0386620D01*
X0172973Y0386577D01*
X0172869Y0386537D01*
X0172763Y0386501D01*
X0172656Y0386468D01*
X0172548Y0386440D01*
X0172439Y0386415D01*
X0172329Y0386395D01*
X0172218Y0386378D01*
X0172107Y0386365D01*
X0171996Y0386356D01*
X0171884Y0386351D01*
X0171772Y0386350D01*
X0171660Y0386353D01*
X0171549Y0386360D01*
X0171437Y0386371D01*
X0171327Y0386386D01*
X0171216Y0386405D01*
X0171107Y0386427D01*
X0170998Y0386454D01*
X0170891Y0386484D01*
X0170784Y0386518D01*
X0170679Y0386556D01*
X0170575Y0386598D01*
X0170473Y0386643D01*
X0170372Y0386692D01*
X0170274Y0386744D01*
X0170177Y0386800D01*
X0170082Y0386860D01*
X0169989Y0386922D01*
X0169899Y0386988D01*
X0169811Y0387057D01*
X0169726Y0387129D01*
X0169643Y0387205D01*
X0169563Y0387283D01*
X0169485Y0387363D01*
X0169411Y0387447D01*
X0169340Y0387533D01*
X0169271Y0387621D01*
X0169206Y0387712D01*
X0169145Y0387806D01*
X0169086Y0387901D01*
X0169031Y0387998D01*
X0168980Y0388097D01*
X0168932Y0388198D01*
X0168887Y0388301D01*
X0168846Y0388405D01*
X0168809Y0388511D01*
X0168776Y0388617D01*
X0168747Y0388725D01*
X0168721Y0388834D01*
X0168699Y0388944D01*
X0168682Y0389054D01*
X0168668Y0389165D01*
X0168658Y0389277D01*
X0168652Y0389388D01*
X0168650Y0389500D01*
X0106584Y0384220D02*
X0106586Y0384378D01*
X0106592Y0384536D01*
X0106602Y0384694D01*
X0106616Y0384852D01*
X0106634Y0385009D01*
X0106655Y0385166D01*
X0106681Y0385322D01*
X0106711Y0385478D01*
X0106744Y0385633D01*
X0106782Y0385786D01*
X0106823Y0385939D01*
X0106868Y0386091D01*
X0106917Y0386242D01*
X0106970Y0386391D01*
X0107026Y0386539D01*
X0107086Y0386685D01*
X0107150Y0386830D01*
X0107218Y0386973D01*
X0107289Y0387115D01*
X0107363Y0387255D01*
X0107441Y0387392D01*
X0107523Y0387528D01*
X0107607Y0387662D01*
X0107696Y0387793D01*
X0107787Y0387922D01*
X0107882Y0388049D01*
X0107979Y0388174D01*
X0108080Y0388296D01*
X0108184Y0388415D01*
X0108291Y0388532D01*
X0108401Y0388646D01*
X0108514Y0388757D01*
X0108629Y0388866D01*
X0108747Y0388971D01*
X0108868Y0389073D01*
X0108991Y0389173D01*
X0109117Y0389269D01*
X0109245Y0389362D01*
X0109375Y0389452D01*
X0109508Y0389538D01*
X0109643Y0389622D01*
X0109779Y0389701D01*
X0109918Y0389778D01*
X0110059Y0389850D01*
X0110201Y0389920D01*
X0110345Y0389985D01*
X0110491Y0390047D01*
X0110638Y0390105D01*
X0110787Y0390160D01*
X0110937Y0390211D01*
X0111088Y0390258D01*
X0111240Y0390301D01*
X0111393Y0390340D01*
X0111548Y0390376D01*
X0111703Y0390407D01*
X0111859Y0390435D01*
X0112015Y0390459D01*
X0112172Y0390479D01*
X0112330Y0390495D01*
X0112487Y0390507D01*
X0112646Y0390515D01*
X0112804Y0390519D01*
X0112962Y0390519D01*
X0113120Y0390515D01*
X0113279Y0390507D01*
X0113436Y0390495D01*
X0113594Y0390479D01*
X0113751Y0390459D01*
X0113907Y0390435D01*
X0114063Y0390407D01*
X0114218Y0390376D01*
X0114373Y0390340D01*
X0114526Y0390301D01*
X0114678Y0390258D01*
X0114829Y0390211D01*
X0114979Y0390160D01*
X0115128Y0390105D01*
X0115275Y0390047D01*
X0115421Y0389985D01*
X0115565Y0389920D01*
X0115707Y0389850D01*
X0115848Y0389778D01*
X0115987Y0389701D01*
X0116123Y0389622D01*
X0116258Y0389538D01*
X0116391Y0389452D01*
X0116521Y0389362D01*
X0116649Y0389269D01*
X0116775Y0389173D01*
X0116898Y0389073D01*
X0117019Y0388971D01*
X0117137Y0388866D01*
X0117252Y0388757D01*
X0117365Y0388646D01*
X0117475Y0388532D01*
X0117582Y0388415D01*
X0117686Y0388296D01*
X0117787Y0388174D01*
X0117884Y0388049D01*
X0117979Y0387922D01*
X0118070Y0387793D01*
X0118159Y0387662D01*
X0118243Y0387528D01*
X0118325Y0387392D01*
X0118403Y0387255D01*
X0118477Y0387115D01*
X0118548Y0386973D01*
X0118616Y0386830D01*
X0118680Y0386685D01*
X0118740Y0386539D01*
X0118796Y0386391D01*
X0118849Y0386242D01*
X0118898Y0386091D01*
X0118943Y0385939D01*
X0118984Y0385786D01*
X0119022Y0385633D01*
X0119055Y0385478D01*
X0119085Y0385322D01*
X0119111Y0385166D01*
X0119132Y0385009D01*
X0119150Y0384852D01*
X0119164Y0384694D01*
X0119174Y0384536D01*
X0119180Y0384378D01*
X0119182Y0384220D01*
X0119180Y0384062D01*
X0119174Y0383904D01*
X0119164Y0383746D01*
X0119150Y0383588D01*
X0119132Y0383431D01*
X0119111Y0383274D01*
X0119085Y0383118D01*
X0119055Y0382962D01*
X0119022Y0382807D01*
X0118984Y0382654D01*
X0118943Y0382501D01*
X0118898Y0382349D01*
X0118849Y0382198D01*
X0118796Y0382049D01*
X0118740Y0381901D01*
X0118680Y0381755D01*
X0118616Y0381610D01*
X0118548Y0381467D01*
X0118477Y0381325D01*
X0118403Y0381185D01*
X0118325Y0381048D01*
X0118243Y0380912D01*
X0118159Y0380778D01*
X0118070Y0380647D01*
X0117979Y0380518D01*
X0117884Y0380391D01*
X0117787Y0380266D01*
X0117686Y0380144D01*
X0117582Y0380025D01*
X0117475Y0379908D01*
X0117365Y0379794D01*
X0117252Y0379683D01*
X0117137Y0379574D01*
X0117019Y0379469D01*
X0116898Y0379367D01*
X0116775Y0379267D01*
X0116649Y0379171D01*
X0116521Y0379078D01*
X0116391Y0378988D01*
X0116258Y0378902D01*
X0116123Y0378818D01*
X0115987Y0378739D01*
X0115848Y0378662D01*
X0115707Y0378590D01*
X0115565Y0378520D01*
X0115421Y0378455D01*
X0115275Y0378393D01*
X0115128Y0378335D01*
X0114979Y0378280D01*
X0114829Y0378229D01*
X0114678Y0378182D01*
X0114526Y0378139D01*
X0114373Y0378100D01*
X0114218Y0378064D01*
X0114063Y0378033D01*
X0113907Y0378005D01*
X0113751Y0377981D01*
X0113594Y0377961D01*
X0113436Y0377945D01*
X0113279Y0377933D01*
X0113120Y0377925D01*
X0112962Y0377921D01*
X0112804Y0377921D01*
X0112646Y0377925D01*
X0112487Y0377933D01*
X0112330Y0377945D01*
X0112172Y0377961D01*
X0112015Y0377981D01*
X0111859Y0378005D01*
X0111703Y0378033D01*
X0111548Y0378064D01*
X0111393Y0378100D01*
X0111240Y0378139D01*
X0111088Y0378182D01*
X0110937Y0378229D01*
X0110787Y0378280D01*
X0110638Y0378335D01*
X0110491Y0378393D01*
X0110345Y0378455D01*
X0110201Y0378520D01*
X0110059Y0378590D01*
X0109918Y0378662D01*
X0109779Y0378739D01*
X0109643Y0378818D01*
X0109508Y0378902D01*
X0109375Y0378988D01*
X0109245Y0379078D01*
X0109117Y0379171D01*
X0108991Y0379267D01*
X0108868Y0379367D01*
X0108747Y0379469D01*
X0108629Y0379574D01*
X0108514Y0379683D01*
X0108401Y0379794D01*
X0108291Y0379908D01*
X0108184Y0380025D01*
X0108080Y0380144D01*
X0107979Y0380266D01*
X0107882Y0380391D01*
X0107787Y0380518D01*
X0107696Y0380647D01*
X0107607Y0380778D01*
X0107523Y0380912D01*
X0107441Y0381048D01*
X0107363Y0381185D01*
X0107289Y0381325D01*
X0107218Y0381467D01*
X0107150Y0381610D01*
X0107086Y0381755D01*
X0107026Y0381901D01*
X0106970Y0382049D01*
X0106917Y0382198D01*
X0106868Y0382349D01*
X0106823Y0382501D01*
X0106782Y0382654D01*
X0106744Y0382807D01*
X0106711Y0382962D01*
X0106681Y0383118D01*
X0106655Y0383274D01*
X0106634Y0383431D01*
X0106616Y0383588D01*
X0106602Y0383746D01*
X0106592Y0383904D01*
X0106586Y0384062D01*
X0106584Y0384220D01*
X0008158Y0384220D02*
X0008160Y0384378D01*
X0008166Y0384536D01*
X0008176Y0384694D01*
X0008190Y0384852D01*
X0008208Y0385009D01*
X0008229Y0385166D01*
X0008255Y0385322D01*
X0008285Y0385478D01*
X0008318Y0385633D01*
X0008356Y0385786D01*
X0008397Y0385939D01*
X0008442Y0386091D01*
X0008491Y0386242D01*
X0008544Y0386391D01*
X0008600Y0386539D01*
X0008660Y0386685D01*
X0008724Y0386830D01*
X0008792Y0386973D01*
X0008863Y0387115D01*
X0008937Y0387255D01*
X0009015Y0387392D01*
X0009097Y0387528D01*
X0009181Y0387662D01*
X0009270Y0387793D01*
X0009361Y0387922D01*
X0009456Y0388049D01*
X0009553Y0388174D01*
X0009654Y0388296D01*
X0009758Y0388415D01*
X0009865Y0388532D01*
X0009975Y0388646D01*
X0010088Y0388757D01*
X0010203Y0388866D01*
X0010321Y0388971D01*
X0010442Y0389073D01*
X0010565Y0389173D01*
X0010691Y0389269D01*
X0010819Y0389362D01*
X0010949Y0389452D01*
X0011082Y0389538D01*
X0011217Y0389622D01*
X0011353Y0389701D01*
X0011492Y0389778D01*
X0011633Y0389850D01*
X0011775Y0389920D01*
X0011919Y0389985D01*
X0012065Y0390047D01*
X0012212Y0390105D01*
X0012361Y0390160D01*
X0012511Y0390211D01*
X0012662Y0390258D01*
X0012814Y0390301D01*
X0012967Y0390340D01*
X0013122Y0390376D01*
X0013277Y0390407D01*
X0013433Y0390435D01*
X0013589Y0390459D01*
X0013746Y0390479D01*
X0013904Y0390495D01*
X0014061Y0390507D01*
X0014220Y0390515D01*
X0014378Y0390519D01*
X0014536Y0390519D01*
X0014694Y0390515D01*
X0014853Y0390507D01*
X0015010Y0390495D01*
X0015168Y0390479D01*
X0015325Y0390459D01*
X0015481Y0390435D01*
X0015637Y0390407D01*
X0015792Y0390376D01*
X0015947Y0390340D01*
X0016100Y0390301D01*
X0016252Y0390258D01*
X0016403Y0390211D01*
X0016553Y0390160D01*
X0016702Y0390105D01*
X0016849Y0390047D01*
X0016995Y0389985D01*
X0017139Y0389920D01*
X0017281Y0389850D01*
X0017422Y0389778D01*
X0017561Y0389701D01*
X0017697Y0389622D01*
X0017832Y0389538D01*
X0017965Y0389452D01*
X0018095Y0389362D01*
X0018223Y0389269D01*
X0018349Y0389173D01*
X0018472Y0389073D01*
X0018593Y0388971D01*
X0018711Y0388866D01*
X0018826Y0388757D01*
X0018939Y0388646D01*
X0019049Y0388532D01*
X0019156Y0388415D01*
X0019260Y0388296D01*
X0019361Y0388174D01*
X0019458Y0388049D01*
X0019553Y0387922D01*
X0019644Y0387793D01*
X0019733Y0387662D01*
X0019817Y0387528D01*
X0019899Y0387392D01*
X0019977Y0387255D01*
X0020051Y0387115D01*
X0020122Y0386973D01*
X0020190Y0386830D01*
X0020254Y0386685D01*
X0020314Y0386539D01*
X0020370Y0386391D01*
X0020423Y0386242D01*
X0020472Y0386091D01*
X0020517Y0385939D01*
X0020558Y0385786D01*
X0020596Y0385633D01*
X0020629Y0385478D01*
X0020659Y0385322D01*
X0020685Y0385166D01*
X0020706Y0385009D01*
X0020724Y0384852D01*
X0020738Y0384694D01*
X0020748Y0384536D01*
X0020754Y0384378D01*
X0020756Y0384220D01*
X0020754Y0384062D01*
X0020748Y0383904D01*
X0020738Y0383746D01*
X0020724Y0383588D01*
X0020706Y0383431D01*
X0020685Y0383274D01*
X0020659Y0383118D01*
X0020629Y0382962D01*
X0020596Y0382807D01*
X0020558Y0382654D01*
X0020517Y0382501D01*
X0020472Y0382349D01*
X0020423Y0382198D01*
X0020370Y0382049D01*
X0020314Y0381901D01*
X0020254Y0381755D01*
X0020190Y0381610D01*
X0020122Y0381467D01*
X0020051Y0381325D01*
X0019977Y0381185D01*
X0019899Y0381048D01*
X0019817Y0380912D01*
X0019733Y0380778D01*
X0019644Y0380647D01*
X0019553Y0380518D01*
X0019458Y0380391D01*
X0019361Y0380266D01*
X0019260Y0380144D01*
X0019156Y0380025D01*
X0019049Y0379908D01*
X0018939Y0379794D01*
X0018826Y0379683D01*
X0018711Y0379574D01*
X0018593Y0379469D01*
X0018472Y0379367D01*
X0018349Y0379267D01*
X0018223Y0379171D01*
X0018095Y0379078D01*
X0017965Y0378988D01*
X0017832Y0378902D01*
X0017697Y0378818D01*
X0017561Y0378739D01*
X0017422Y0378662D01*
X0017281Y0378590D01*
X0017139Y0378520D01*
X0016995Y0378455D01*
X0016849Y0378393D01*
X0016702Y0378335D01*
X0016553Y0378280D01*
X0016403Y0378229D01*
X0016252Y0378182D01*
X0016100Y0378139D01*
X0015947Y0378100D01*
X0015792Y0378064D01*
X0015637Y0378033D01*
X0015481Y0378005D01*
X0015325Y0377981D01*
X0015168Y0377961D01*
X0015010Y0377945D01*
X0014853Y0377933D01*
X0014694Y0377925D01*
X0014536Y0377921D01*
X0014378Y0377921D01*
X0014220Y0377925D01*
X0014061Y0377933D01*
X0013904Y0377945D01*
X0013746Y0377961D01*
X0013589Y0377981D01*
X0013433Y0378005D01*
X0013277Y0378033D01*
X0013122Y0378064D01*
X0012967Y0378100D01*
X0012814Y0378139D01*
X0012662Y0378182D01*
X0012511Y0378229D01*
X0012361Y0378280D01*
X0012212Y0378335D01*
X0012065Y0378393D01*
X0011919Y0378455D01*
X0011775Y0378520D01*
X0011633Y0378590D01*
X0011492Y0378662D01*
X0011353Y0378739D01*
X0011217Y0378818D01*
X0011082Y0378902D01*
X0010949Y0378988D01*
X0010819Y0379078D01*
X0010691Y0379171D01*
X0010565Y0379267D01*
X0010442Y0379367D01*
X0010321Y0379469D01*
X0010203Y0379574D01*
X0010088Y0379683D01*
X0009975Y0379794D01*
X0009865Y0379908D01*
X0009758Y0380025D01*
X0009654Y0380144D01*
X0009553Y0380266D01*
X0009456Y0380391D01*
X0009361Y0380518D01*
X0009270Y0380647D01*
X0009181Y0380778D01*
X0009097Y0380912D01*
X0009015Y0381048D01*
X0008937Y0381185D01*
X0008863Y0381325D01*
X0008792Y0381467D01*
X0008724Y0381610D01*
X0008660Y0381755D01*
X0008600Y0381901D01*
X0008544Y0382049D01*
X0008491Y0382198D01*
X0008442Y0382349D01*
X0008397Y0382501D01*
X0008356Y0382654D01*
X0008318Y0382807D01*
X0008285Y0382962D01*
X0008255Y0383118D01*
X0008229Y0383274D01*
X0008208Y0383431D01*
X0008190Y0383588D01*
X0008176Y0383746D01*
X0008166Y0383904D01*
X0008160Y0384062D01*
X0008158Y0384220D01*
X0623650Y0387709D02*
X0623652Y0387821D01*
X0623658Y0387932D01*
X0623668Y0388044D01*
X0623682Y0388155D01*
X0623699Y0388265D01*
X0623721Y0388375D01*
X0623747Y0388484D01*
X0623776Y0388592D01*
X0623809Y0388698D01*
X0623846Y0388804D01*
X0623887Y0388908D01*
X0623932Y0389011D01*
X0623980Y0389112D01*
X0624031Y0389211D01*
X0624086Y0389308D01*
X0624145Y0389403D01*
X0624206Y0389497D01*
X0624271Y0389588D01*
X0624340Y0389676D01*
X0624411Y0389762D01*
X0624485Y0389846D01*
X0624563Y0389926D01*
X0624643Y0390004D01*
X0624726Y0390080D01*
X0624811Y0390152D01*
X0624899Y0390221D01*
X0624989Y0390287D01*
X0625082Y0390349D01*
X0625177Y0390409D01*
X0625274Y0390465D01*
X0625372Y0390517D01*
X0625473Y0390566D01*
X0625575Y0390611D01*
X0625679Y0390653D01*
X0625784Y0390691D01*
X0625891Y0390725D01*
X0625998Y0390755D01*
X0626107Y0390782D01*
X0626216Y0390804D01*
X0626327Y0390823D01*
X0626437Y0390838D01*
X0626549Y0390849D01*
X0626660Y0390856D01*
X0626772Y0390859D01*
X0626884Y0390858D01*
X0626996Y0390853D01*
X0627107Y0390844D01*
X0627218Y0390831D01*
X0627329Y0390814D01*
X0627439Y0390794D01*
X0627548Y0390769D01*
X0627656Y0390741D01*
X0627763Y0390708D01*
X0627869Y0390672D01*
X0627973Y0390632D01*
X0628076Y0390589D01*
X0628178Y0390542D01*
X0628277Y0390491D01*
X0628375Y0390437D01*
X0628471Y0390379D01*
X0628565Y0390318D01*
X0628656Y0390254D01*
X0628745Y0390187D01*
X0628832Y0390116D01*
X0628916Y0390042D01*
X0628998Y0389966D01*
X0629076Y0389886D01*
X0629152Y0389804D01*
X0629225Y0389719D01*
X0629295Y0389632D01*
X0629361Y0389542D01*
X0629425Y0389450D01*
X0629485Y0389356D01*
X0629542Y0389260D01*
X0629595Y0389161D01*
X0629645Y0389061D01*
X0629691Y0388960D01*
X0629734Y0388856D01*
X0629773Y0388751D01*
X0629808Y0388645D01*
X0629839Y0388538D01*
X0629867Y0388429D01*
X0629890Y0388320D01*
X0629910Y0388210D01*
X0629926Y0388099D01*
X0629938Y0387988D01*
X0629946Y0387877D01*
X0629950Y0387765D01*
X0629950Y0387653D01*
X0629946Y0387541D01*
X0629938Y0387430D01*
X0629926Y0387319D01*
X0629910Y0387208D01*
X0629890Y0387098D01*
X0629867Y0386989D01*
X0629839Y0386880D01*
X0629808Y0386773D01*
X0629773Y0386667D01*
X0629734Y0386562D01*
X0629691Y0386458D01*
X0629645Y0386357D01*
X0629595Y0386257D01*
X0629542Y0386158D01*
X0629485Y0386062D01*
X0629425Y0385968D01*
X0629361Y0385876D01*
X0629295Y0385786D01*
X0629225Y0385699D01*
X0629152Y0385614D01*
X0629076Y0385532D01*
X0628998Y0385452D01*
X0628916Y0385376D01*
X0628832Y0385302D01*
X0628745Y0385231D01*
X0628656Y0385164D01*
X0628565Y0385100D01*
X0628471Y0385039D01*
X0628375Y0384981D01*
X0628277Y0384927D01*
X0628178Y0384876D01*
X0628076Y0384829D01*
X0627973Y0384786D01*
X0627869Y0384746D01*
X0627763Y0384710D01*
X0627656Y0384677D01*
X0627548Y0384649D01*
X0627439Y0384624D01*
X0627329Y0384604D01*
X0627218Y0384587D01*
X0627107Y0384574D01*
X0626996Y0384565D01*
X0626884Y0384560D01*
X0626772Y0384559D01*
X0626660Y0384562D01*
X0626549Y0384569D01*
X0626437Y0384580D01*
X0626327Y0384595D01*
X0626216Y0384614D01*
X0626107Y0384636D01*
X0625998Y0384663D01*
X0625891Y0384693D01*
X0625784Y0384727D01*
X0625679Y0384765D01*
X0625575Y0384807D01*
X0625473Y0384852D01*
X0625372Y0384901D01*
X0625274Y0384953D01*
X0625177Y0385009D01*
X0625082Y0385069D01*
X0624989Y0385131D01*
X0624899Y0385197D01*
X0624811Y0385266D01*
X0624726Y0385338D01*
X0624643Y0385414D01*
X0624563Y0385492D01*
X0624485Y0385572D01*
X0624411Y0385656D01*
X0624340Y0385742D01*
X0624271Y0385830D01*
X0624206Y0385921D01*
X0624145Y0386015D01*
X0624086Y0386110D01*
X0624031Y0386207D01*
X0623980Y0386306D01*
X0623932Y0386407D01*
X0623887Y0386510D01*
X0623846Y0386614D01*
X0623809Y0386720D01*
X0623776Y0386826D01*
X0623747Y0386934D01*
X0623721Y0387043D01*
X0623699Y0387153D01*
X0623682Y0387263D01*
X0623668Y0387374D01*
X0623658Y0387486D01*
X0623652Y0387597D01*
X0623650Y0387709D01*
X0653650Y0367709D02*
X0653652Y0367821D01*
X0653658Y0367932D01*
X0653668Y0368044D01*
X0653682Y0368155D01*
X0653699Y0368265D01*
X0653721Y0368375D01*
X0653747Y0368484D01*
X0653776Y0368592D01*
X0653809Y0368698D01*
X0653846Y0368804D01*
X0653887Y0368908D01*
X0653932Y0369011D01*
X0653980Y0369112D01*
X0654031Y0369211D01*
X0654086Y0369308D01*
X0654145Y0369403D01*
X0654206Y0369497D01*
X0654271Y0369588D01*
X0654340Y0369676D01*
X0654411Y0369762D01*
X0654485Y0369846D01*
X0654563Y0369926D01*
X0654643Y0370004D01*
X0654726Y0370080D01*
X0654811Y0370152D01*
X0654899Y0370221D01*
X0654989Y0370287D01*
X0655082Y0370349D01*
X0655177Y0370409D01*
X0655274Y0370465D01*
X0655372Y0370517D01*
X0655473Y0370566D01*
X0655575Y0370611D01*
X0655679Y0370653D01*
X0655784Y0370691D01*
X0655891Y0370725D01*
X0655998Y0370755D01*
X0656107Y0370782D01*
X0656216Y0370804D01*
X0656327Y0370823D01*
X0656437Y0370838D01*
X0656549Y0370849D01*
X0656660Y0370856D01*
X0656772Y0370859D01*
X0656884Y0370858D01*
X0656996Y0370853D01*
X0657107Y0370844D01*
X0657218Y0370831D01*
X0657329Y0370814D01*
X0657439Y0370794D01*
X0657548Y0370769D01*
X0657656Y0370741D01*
X0657763Y0370708D01*
X0657869Y0370672D01*
X0657973Y0370632D01*
X0658076Y0370589D01*
X0658178Y0370542D01*
X0658277Y0370491D01*
X0658375Y0370437D01*
X0658471Y0370379D01*
X0658565Y0370318D01*
X0658656Y0370254D01*
X0658745Y0370187D01*
X0658832Y0370116D01*
X0658916Y0370042D01*
X0658998Y0369966D01*
X0659076Y0369886D01*
X0659152Y0369804D01*
X0659225Y0369719D01*
X0659295Y0369632D01*
X0659361Y0369542D01*
X0659425Y0369450D01*
X0659485Y0369356D01*
X0659542Y0369260D01*
X0659595Y0369161D01*
X0659645Y0369061D01*
X0659691Y0368960D01*
X0659734Y0368856D01*
X0659773Y0368751D01*
X0659808Y0368645D01*
X0659839Y0368538D01*
X0659867Y0368429D01*
X0659890Y0368320D01*
X0659910Y0368210D01*
X0659926Y0368099D01*
X0659938Y0367988D01*
X0659946Y0367877D01*
X0659950Y0367765D01*
X0659950Y0367653D01*
X0659946Y0367541D01*
X0659938Y0367430D01*
X0659926Y0367319D01*
X0659910Y0367208D01*
X0659890Y0367098D01*
X0659867Y0366989D01*
X0659839Y0366880D01*
X0659808Y0366773D01*
X0659773Y0366667D01*
X0659734Y0366562D01*
X0659691Y0366458D01*
X0659645Y0366357D01*
X0659595Y0366257D01*
X0659542Y0366158D01*
X0659485Y0366062D01*
X0659425Y0365968D01*
X0659361Y0365876D01*
X0659295Y0365786D01*
X0659225Y0365699D01*
X0659152Y0365614D01*
X0659076Y0365532D01*
X0658998Y0365452D01*
X0658916Y0365376D01*
X0658832Y0365302D01*
X0658745Y0365231D01*
X0658656Y0365164D01*
X0658565Y0365100D01*
X0658471Y0365039D01*
X0658375Y0364981D01*
X0658277Y0364927D01*
X0658178Y0364876D01*
X0658076Y0364829D01*
X0657973Y0364786D01*
X0657869Y0364746D01*
X0657763Y0364710D01*
X0657656Y0364677D01*
X0657548Y0364649D01*
X0657439Y0364624D01*
X0657329Y0364604D01*
X0657218Y0364587D01*
X0657107Y0364574D01*
X0656996Y0364565D01*
X0656884Y0364560D01*
X0656772Y0364559D01*
X0656660Y0364562D01*
X0656549Y0364569D01*
X0656437Y0364580D01*
X0656327Y0364595D01*
X0656216Y0364614D01*
X0656107Y0364636D01*
X0655998Y0364663D01*
X0655891Y0364693D01*
X0655784Y0364727D01*
X0655679Y0364765D01*
X0655575Y0364807D01*
X0655473Y0364852D01*
X0655372Y0364901D01*
X0655274Y0364953D01*
X0655177Y0365009D01*
X0655082Y0365069D01*
X0654989Y0365131D01*
X0654899Y0365197D01*
X0654811Y0365266D01*
X0654726Y0365338D01*
X0654643Y0365414D01*
X0654563Y0365492D01*
X0654485Y0365572D01*
X0654411Y0365656D01*
X0654340Y0365742D01*
X0654271Y0365830D01*
X0654206Y0365921D01*
X0654145Y0366015D01*
X0654086Y0366110D01*
X0654031Y0366207D01*
X0653980Y0366306D01*
X0653932Y0366407D01*
X0653887Y0366510D01*
X0653846Y0366614D01*
X0653809Y0366720D01*
X0653776Y0366826D01*
X0653747Y0366934D01*
X0653721Y0367043D01*
X0653699Y0367153D01*
X0653682Y0367263D01*
X0653668Y0367374D01*
X0653658Y0367486D01*
X0653652Y0367597D01*
X0653650Y0367709D01*
D11*
X0596800Y0339500D02*
X0596800Y0334500D01*
X0594300Y0332000D01*
X0589300Y0332000D01*
X0586800Y0334500D01*
X0584300Y0332000D01*
X0579300Y0332000D01*
X0576800Y0334500D01*
X0574300Y0332000D01*
X0569300Y0332000D01*
X0566800Y0334500D01*
X0564300Y0332000D01*
X0559300Y0332000D01*
X0556800Y0334500D01*
X0556800Y0339500D01*
X0559300Y0342000D01*
X0564300Y0342000D01*
X0566800Y0339500D01*
X0569300Y0342000D01*
X0574300Y0342000D01*
X0576800Y0339500D01*
X0576800Y0334500D01*
X0576800Y0339500D02*
X0579300Y0342000D01*
X0584300Y0342000D01*
X0586800Y0339500D01*
X0589300Y0342000D01*
X0594300Y0342000D01*
X0596800Y0339500D01*
X0586800Y0339500D02*
X0586800Y0334500D01*
X0566800Y0334500D02*
X0566800Y0339500D01*
X0521800Y0339500D02*
X0521800Y0334500D01*
X0519300Y0332000D01*
X0514300Y0332000D01*
X0511800Y0334500D01*
X0509300Y0332000D01*
X0504300Y0332000D01*
X0501800Y0334500D01*
X0501800Y0339500D01*
X0504300Y0342000D01*
X0509300Y0342000D01*
X0511800Y0339500D01*
X0514300Y0342000D01*
X0519300Y0342000D01*
X0521800Y0339500D01*
X0511800Y0339500D02*
X0511800Y0334500D01*
X0501800Y0334500D02*
X0499300Y0332000D01*
X0494300Y0332000D01*
X0491800Y0334500D01*
X0489300Y0332000D01*
X0484300Y0332000D01*
X0481800Y0334500D01*
X0481800Y0339500D01*
X0484300Y0342000D01*
X0489300Y0342000D01*
X0491800Y0339500D01*
X0494300Y0342000D01*
X0499300Y0342000D01*
X0501800Y0339500D01*
X0491800Y0339500D02*
X0491800Y0334500D01*
X0446800Y0334500D02*
X0444300Y0332000D01*
X0439300Y0332000D01*
X0436800Y0334500D01*
X0434300Y0332000D01*
X0429300Y0332000D01*
X0426800Y0334500D01*
X0424300Y0332000D01*
X0419300Y0332000D01*
X0416800Y0334500D01*
X0414300Y0332000D01*
X0409300Y0332000D01*
X0406800Y0334500D01*
X0406800Y0339500D01*
X0409300Y0342000D01*
X0414300Y0342000D01*
X0416800Y0339500D01*
X0419300Y0342000D01*
X0424300Y0342000D01*
X0426800Y0339500D01*
X0426800Y0334500D01*
X0426800Y0339500D02*
X0429300Y0342000D01*
X0434300Y0342000D01*
X0436800Y0339500D01*
X0439300Y0342000D01*
X0444300Y0342000D01*
X0446800Y0339500D01*
X0446800Y0334500D01*
X0436800Y0334500D02*
X0436800Y0339500D01*
X0416800Y0339500D02*
X0416800Y0334500D01*
X0284000Y0311188D02*
X0284000Y0307633D01*
X0284000Y0309411D02*
X0277600Y0309411D01*
X0279022Y0307633D01*
X0280800Y0301479D02*
X0280941Y0301481D01*
X0281081Y0301487D01*
X0281222Y0301496D01*
X0281362Y0301509D01*
X0281502Y0301526D01*
X0281641Y0301546D01*
X0281779Y0301571D01*
X0281917Y0301599D01*
X0282054Y0301630D01*
X0282191Y0301666D01*
X0282326Y0301705D01*
X0282460Y0301747D01*
X0282593Y0301793D01*
X0282725Y0301843D01*
X0282855Y0301896D01*
X0282984Y0301952D01*
X0283111Y0302012D01*
X0282578Y0301834D02*
X0279022Y0304679D01*
X0278489Y0304502D02*
X0278423Y0304477D01*
X0278358Y0304449D01*
X0278294Y0304417D01*
X0278233Y0304382D01*
X0278173Y0304343D01*
X0278115Y0304302D01*
X0278060Y0304257D01*
X0278008Y0304209D01*
X0277958Y0304159D01*
X0277910Y0304106D01*
X0277866Y0304051D01*
X0277825Y0303993D01*
X0277787Y0303933D01*
X0277752Y0303871D01*
X0277721Y0303807D01*
X0277693Y0303742D01*
X0277668Y0303675D01*
X0277648Y0303608D01*
X0277631Y0303539D01*
X0277617Y0303469D01*
X0277608Y0303399D01*
X0277602Y0303328D01*
X0277600Y0303257D01*
X0277602Y0303186D01*
X0277608Y0303115D01*
X0277617Y0303045D01*
X0277631Y0302975D01*
X0277648Y0302906D01*
X0277668Y0302839D01*
X0277693Y0302772D01*
X0277721Y0302707D01*
X0277752Y0302643D01*
X0277787Y0302581D01*
X0277825Y0302521D01*
X0277866Y0302463D01*
X0277910Y0302408D01*
X0277958Y0302355D01*
X0278008Y0302305D01*
X0278060Y0302257D01*
X0278115Y0302212D01*
X0278173Y0302171D01*
X0278233Y0302132D01*
X0278294Y0302097D01*
X0278358Y0302065D01*
X0278423Y0302037D01*
X0278489Y0302012D01*
X0278489Y0304501D02*
X0278616Y0304561D01*
X0278745Y0304617D01*
X0278875Y0304670D01*
X0279007Y0304720D01*
X0279140Y0304766D01*
X0279274Y0304808D01*
X0279409Y0304847D01*
X0279546Y0304883D01*
X0279683Y0304914D01*
X0279821Y0304942D01*
X0279959Y0304967D01*
X0280098Y0304987D01*
X0280238Y0305004D01*
X0280378Y0305017D01*
X0280519Y0305026D01*
X0280659Y0305032D01*
X0280800Y0305034D01*
X0280800Y0301479D02*
X0280659Y0301481D01*
X0280519Y0301487D01*
X0280378Y0301496D01*
X0280238Y0301509D01*
X0280098Y0301526D01*
X0279959Y0301546D01*
X0279821Y0301571D01*
X0279683Y0301599D01*
X0279546Y0301630D01*
X0279409Y0301666D01*
X0279274Y0301705D01*
X0279140Y0301747D01*
X0279007Y0301793D01*
X0278875Y0301843D01*
X0278745Y0301896D01*
X0278616Y0301952D01*
X0278489Y0302012D01*
X0280800Y0305034D02*
X0280941Y0305032D01*
X0281081Y0305026D01*
X0281222Y0305017D01*
X0281362Y0305004D01*
X0281502Y0304987D01*
X0281641Y0304967D01*
X0281779Y0304942D01*
X0281917Y0304914D01*
X0282054Y0304883D01*
X0282191Y0304847D01*
X0282326Y0304808D01*
X0282460Y0304766D01*
X0282593Y0304720D01*
X0282725Y0304670D01*
X0282855Y0304617D01*
X0282984Y0304561D01*
X0283111Y0304501D01*
X0283111Y0304502D02*
X0283177Y0304477D01*
X0283242Y0304449D01*
X0283306Y0304417D01*
X0283367Y0304382D01*
X0283427Y0304343D01*
X0283485Y0304302D01*
X0283540Y0304257D01*
X0283592Y0304209D01*
X0283642Y0304159D01*
X0283690Y0304106D01*
X0283734Y0304050D01*
X0283775Y0303993D01*
X0283813Y0303933D01*
X0283848Y0303871D01*
X0283879Y0303807D01*
X0283907Y0303742D01*
X0283932Y0303675D01*
X0283952Y0303608D01*
X0283969Y0303539D01*
X0283983Y0303469D01*
X0283992Y0303399D01*
X0283998Y0303328D01*
X0284000Y0303257D01*
X0283998Y0303186D01*
X0283992Y0303115D01*
X0283983Y0303045D01*
X0283969Y0302975D01*
X0283952Y0302906D01*
X0283932Y0302839D01*
X0283907Y0302772D01*
X0283879Y0302707D01*
X0283848Y0302643D01*
X0283813Y0302581D01*
X0283775Y0302521D01*
X0283734Y0302463D01*
X0283690Y0302408D01*
X0283642Y0302355D01*
X0283592Y0302305D01*
X0283540Y0302257D01*
X0283485Y0302212D01*
X0283427Y0302171D01*
X0283367Y0302132D01*
X0283306Y0302097D01*
X0283242Y0302065D01*
X0283177Y0302037D01*
X0283111Y0302012D01*
X0284000Y0298880D02*
X0284000Y0295325D01*
X0284000Y0297103D02*
X0277600Y0297103D01*
X0279022Y0295325D01*
X0282400Y0292549D02*
X0282400Y0289349D01*
X0284000Y0288815D02*
X0277600Y0290949D01*
X0284000Y0293082D01*
X0282222Y0286367D02*
X0279378Y0286367D01*
X0279296Y0286365D01*
X0279214Y0286359D01*
X0279132Y0286350D01*
X0279051Y0286337D01*
X0278971Y0286320D01*
X0278891Y0286299D01*
X0278813Y0286275D01*
X0278736Y0286247D01*
X0278660Y0286216D01*
X0278585Y0286181D01*
X0278513Y0286142D01*
X0278442Y0286101D01*
X0278373Y0286056D01*
X0278307Y0286008D01*
X0278242Y0285957D01*
X0278180Y0285903D01*
X0278121Y0285846D01*
X0278064Y0285787D01*
X0278010Y0285725D01*
X0277959Y0285660D01*
X0277911Y0285594D01*
X0277866Y0285525D01*
X0277825Y0285454D01*
X0277786Y0285382D01*
X0277751Y0285307D01*
X0277720Y0285231D01*
X0277692Y0285154D01*
X0277668Y0285076D01*
X0277647Y0284996D01*
X0277630Y0284916D01*
X0277617Y0284835D01*
X0277608Y0284753D01*
X0277602Y0284671D01*
X0277600Y0284589D01*
X0277600Y0282812D01*
X0284000Y0282812D01*
X0284000Y0284589D01*
X0283998Y0284671D01*
X0283992Y0284753D01*
X0283983Y0284835D01*
X0283970Y0284916D01*
X0283953Y0284996D01*
X0283932Y0285076D01*
X0283908Y0285154D01*
X0283880Y0285231D01*
X0283849Y0285307D01*
X0283814Y0285382D01*
X0283775Y0285454D01*
X0283734Y0285525D01*
X0283689Y0285594D01*
X0283641Y0285660D01*
X0283590Y0285725D01*
X0283536Y0285787D01*
X0283479Y0285846D01*
X0283420Y0285903D01*
X0283358Y0285957D01*
X0283293Y0286008D01*
X0283227Y0286056D01*
X0283158Y0286101D01*
X0283087Y0286142D01*
X0283015Y0286181D01*
X0282940Y0286216D01*
X0282864Y0286247D01*
X0282787Y0286275D01*
X0282709Y0286299D01*
X0282629Y0286320D01*
X0282549Y0286337D01*
X0282468Y0286350D01*
X0282386Y0286359D01*
X0282304Y0286365D01*
X0282222Y0286367D01*
X0250100Y0246500D02*
X0250100Y0237500D01*
X0243500Y0237500D02*
X0243500Y0246500D01*
X0191300Y0258700D02*
X0182300Y0258700D01*
X0179989Y0252598D02*
X0179989Y0252228D01*
X0179989Y0252598D02*
X0179989Y0241402D01*
X0179989Y0241772D01*
X0179989Y0241402D02*
X0173611Y0241402D01*
X0173611Y0241772D01*
X0173611Y0241402D02*
X0173611Y0252598D01*
X0173611Y0252228D01*
X0173611Y0252598D02*
X0179989Y0252598D01*
X0179989Y0249055D02*
X0179989Y0244945D01*
X0173611Y0244945D02*
X0173611Y0245315D01*
X0173611Y0248685D02*
X0173611Y0249055D01*
X0152600Y0249000D02*
X0152600Y0240000D01*
X0146000Y0240000D02*
X0146000Y0249000D01*
X0140100Y0249000D02*
X0140100Y0240000D01*
X0133500Y0240000D02*
X0133500Y0249000D01*
X0182300Y0265300D02*
X0191300Y0265300D01*
X0190000Y0282812D02*
X0183600Y0282812D01*
X0183600Y0284589D01*
X0183602Y0284671D01*
X0183608Y0284753D01*
X0183617Y0284835D01*
X0183630Y0284916D01*
X0183647Y0284996D01*
X0183668Y0285076D01*
X0183692Y0285154D01*
X0183720Y0285231D01*
X0183751Y0285307D01*
X0183786Y0285382D01*
X0183825Y0285454D01*
X0183866Y0285525D01*
X0183911Y0285594D01*
X0183959Y0285660D01*
X0184010Y0285725D01*
X0184064Y0285787D01*
X0184121Y0285846D01*
X0184180Y0285903D01*
X0184242Y0285957D01*
X0184307Y0286008D01*
X0184373Y0286056D01*
X0184442Y0286101D01*
X0184513Y0286142D01*
X0184585Y0286181D01*
X0184660Y0286216D01*
X0184736Y0286247D01*
X0184813Y0286275D01*
X0184891Y0286299D01*
X0184971Y0286320D01*
X0185051Y0286337D01*
X0185132Y0286350D01*
X0185214Y0286359D01*
X0185296Y0286365D01*
X0185378Y0286367D01*
X0188222Y0286367D01*
X0188304Y0286365D01*
X0188386Y0286359D01*
X0188468Y0286350D01*
X0188549Y0286337D01*
X0188629Y0286320D01*
X0188709Y0286299D01*
X0188787Y0286275D01*
X0188864Y0286247D01*
X0188940Y0286216D01*
X0189015Y0286181D01*
X0189087Y0286142D01*
X0189158Y0286101D01*
X0189227Y0286056D01*
X0189293Y0286008D01*
X0189358Y0285957D01*
X0189420Y0285903D01*
X0189479Y0285846D01*
X0189536Y0285787D01*
X0189590Y0285725D01*
X0189641Y0285660D01*
X0189689Y0285594D01*
X0189734Y0285525D01*
X0189775Y0285454D01*
X0189814Y0285382D01*
X0189849Y0285307D01*
X0189880Y0285231D01*
X0189908Y0285154D01*
X0189932Y0285076D01*
X0189953Y0284996D01*
X0189970Y0284916D01*
X0189983Y0284835D01*
X0189992Y0284753D01*
X0189998Y0284671D01*
X0190000Y0284589D01*
X0190000Y0282812D01*
X0190000Y0288815D02*
X0183600Y0290949D01*
X0190000Y0293082D01*
X0188400Y0292549D02*
X0188400Y0289349D01*
X0190000Y0295325D02*
X0190000Y0298880D01*
X0190000Y0297103D02*
X0183600Y0297103D01*
X0185022Y0295325D01*
X0186800Y0305034D02*
X0186941Y0305032D01*
X0187081Y0305026D01*
X0187222Y0305017D01*
X0187362Y0305004D01*
X0187502Y0304987D01*
X0187641Y0304967D01*
X0187779Y0304942D01*
X0187917Y0304914D01*
X0188054Y0304883D01*
X0188191Y0304847D01*
X0188326Y0304808D01*
X0188460Y0304766D01*
X0188593Y0304720D01*
X0188725Y0304670D01*
X0188855Y0304617D01*
X0188984Y0304561D01*
X0189111Y0304501D01*
X0189111Y0304502D02*
X0189177Y0304477D01*
X0189242Y0304449D01*
X0189306Y0304417D01*
X0189367Y0304382D01*
X0189427Y0304343D01*
X0189485Y0304302D01*
X0189540Y0304257D01*
X0189592Y0304209D01*
X0189642Y0304159D01*
X0189690Y0304106D01*
X0189734Y0304050D01*
X0189775Y0303993D01*
X0189813Y0303933D01*
X0189848Y0303871D01*
X0189879Y0303807D01*
X0189907Y0303742D01*
X0189932Y0303675D01*
X0189952Y0303608D01*
X0189969Y0303539D01*
X0189983Y0303469D01*
X0189992Y0303399D01*
X0189998Y0303328D01*
X0190000Y0303257D01*
X0189998Y0303186D01*
X0189992Y0303115D01*
X0189983Y0303045D01*
X0189969Y0302975D01*
X0189952Y0302906D01*
X0189932Y0302839D01*
X0189907Y0302772D01*
X0189879Y0302707D01*
X0189848Y0302643D01*
X0189813Y0302581D01*
X0189775Y0302521D01*
X0189734Y0302463D01*
X0189690Y0302408D01*
X0189642Y0302355D01*
X0189592Y0302305D01*
X0189540Y0302257D01*
X0189485Y0302212D01*
X0189427Y0302171D01*
X0189367Y0302132D01*
X0189306Y0302097D01*
X0189242Y0302065D01*
X0189177Y0302037D01*
X0189111Y0302012D01*
X0188578Y0301834D02*
X0185022Y0304679D01*
X0184489Y0304502D02*
X0184423Y0304477D01*
X0184358Y0304449D01*
X0184294Y0304417D01*
X0184233Y0304382D01*
X0184173Y0304343D01*
X0184115Y0304302D01*
X0184060Y0304257D01*
X0184008Y0304209D01*
X0183958Y0304159D01*
X0183910Y0304106D01*
X0183866Y0304051D01*
X0183825Y0303993D01*
X0183787Y0303933D01*
X0183752Y0303871D01*
X0183721Y0303807D01*
X0183693Y0303742D01*
X0183668Y0303675D01*
X0183648Y0303608D01*
X0183631Y0303539D01*
X0183617Y0303469D01*
X0183608Y0303399D01*
X0183602Y0303328D01*
X0183600Y0303257D01*
X0183602Y0303186D01*
X0183608Y0303115D01*
X0183617Y0303045D01*
X0183631Y0302975D01*
X0183648Y0302906D01*
X0183668Y0302839D01*
X0183693Y0302772D01*
X0183721Y0302707D01*
X0183752Y0302643D01*
X0183787Y0302581D01*
X0183825Y0302521D01*
X0183866Y0302463D01*
X0183910Y0302408D01*
X0183958Y0302355D01*
X0184008Y0302305D01*
X0184060Y0302257D01*
X0184115Y0302212D01*
X0184173Y0302171D01*
X0184233Y0302132D01*
X0184294Y0302097D01*
X0184358Y0302065D01*
X0184423Y0302037D01*
X0184489Y0302012D01*
X0184489Y0304501D02*
X0184616Y0304561D01*
X0184745Y0304617D01*
X0184875Y0304670D01*
X0185007Y0304720D01*
X0185140Y0304766D01*
X0185274Y0304808D01*
X0185409Y0304847D01*
X0185546Y0304883D01*
X0185683Y0304914D01*
X0185821Y0304942D01*
X0185959Y0304967D01*
X0186098Y0304987D01*
X0186238Y0305004D01*
X0186378Y0305017D01*
X0186519Y0305026D01*
X0186659Y0305032D01*
X0186800Y0305034D01*
X0186800Y0301479D02*
X0186659Y0301481D01*
X0186519Y0301487D01*
X0186378Y0301496D01*
X0186238Y0301509D01*
X0186098Y0301526D01*
X0185959Y0301546D01*
X0185821Y0301571D01*
X0185683Y0301599D01*
X0185546Y0301630D01*
X0185409Y0301666D01*
X0185274Y0301705D01*
X0185140Y0301747D01*
X0185007Y0301793D01*
X0184875Y0301843D01*
X0184745Y0301896D01*
X0184616Y0301952D01*
X0184489Y0302012D01*
X0186800Y0301479D02*
X0186941Y0301481D01*
X0187081Y0301487D01*
X0187222Y0301496D01*
X0187362Y0301509D01*
X0187502Y0301526D01*
X0187641Y0301546D01*
X0187779Y0301571D01*
X0187917Y0301599D01*
X0188054Y0301630D01*
X0188191Y0301666D01*
X0188326Y0301705D01*
X0188460Y0301747D01*
X0188593Y0301793D01*
X0188725Y0301843D01*
X0188855Y0301896D01*
X0188984Y0301952D01*
X0189111Y0302012D01*
X0190000Y0307633D02*
X0190000Y0311188D01*
X0190000Y0309411D02*
X0183600Y0309411D01*
X0185022Y0307633D01*
X0151800Y0337000D02*
X0149300Y0334500D01*
X0144300Y0334500D01*
X0141800Y0337000D01*
X0141800Y0352000D01*
X0139300Y0354500D01*
X0134300Y0354500D01*
X0131800Y0352000D01*
X0131800Y0337000D01*
X0134300Y0334500D01*
X0139300Y0334500D01*
X0141800Y0337000D01*
X0151800Y0337000D02*
X0151800Y0352000D01*
X0149300Y0354500D01*
X0144300Y0354500D01*
X0141800Y0352000D01*
X0168500Y0154000D02*
X0168500Y0145000D01*
X0175100Y0145000D02*
X0175100Y0154000D01*
X0114300Y0087000D02*
X0109300Y0087000D01*
X0106800Y0084500D01*
X0104300Y0087000D01*
X0099300Y0087000D01*
X0096800Y0084500D01*
X0096800Y0079500D01*
X0099300Y0077000D01*
X0104300Y0077000D01*
X0106800Y0079500D01*
X0106800Y0084500D01*
X0106800Y0079500D02*
X0109300Y0077000D01*
X0114300Y0077000D01*
X0116800Y0079500D01*
X0116800Y0084500D01*
X0114300Y0087000D01*
X0096800Y0084500D02*
X0094300Y0087000D01*
X0089300Y0087000D01*
X0086800Y0084500D01*
X0084300Y0087000D01*
X0079300Y0087000D01*
X0076800Y0084500D01*
X0074300Y0087000D01*
X0069300Y0087000D01*
X0066800Y0084500D01*
X0064300Y0087000D01*
X0059300Y0087000D01*
X0056800Y0084500D01*
X0056800Y0079500D01*
X0059300Y0077000D01*
X0064300Y0077000D01*
X0066800Y0079500D01*
X0066800Y0084500D01*
X0066800Y0079500D02*
X0069300Y0077000D01*
X0074300Y0077000D01*
X0076800Y0079500D01*
X0076800Y0084500D01*
X0076800Y0079500D02*
X0079300Y0077000D01*
X0084300Y0077000D01*
X0086800Y0079500D01*
X0086800Y0084500D01*
X0086800Y0079500D02*
X0089300Y0077000D01*
X0094300Y0077000D01*
X0096800Y0079500D01*
X0278724Y0043800D02*
X0282280Y0043800D01*
X0285234Y0045222D02*
X0288078Y0048778D01*
X0287901Y0049311D02*
X0287876Y0049377D01*
X0287848Y0049442D01*
X0287816Y0049506D01*
X0287781Y0049567D01*
X0287742Y0049627D01*
X0287701Y0049685D01*
X0287656Y0049740D01*
X0287608Y0049792D01*
X0287558Y0049842D01*
X0287505Y0049890D01*
X0287450Y0049934D01*
X0287392Y0049975D01*
X0287332Y0050013D01*
X0287270Y0050048D01*
X0287206Y0050079D01*
X0287141Y0050107D01*
X0287074Y0050132D01*
X0287007Y0050152D01*
X0286938Y0050169D01*
X0286868Y0050183D01*
X0286798Y0050192D01*
X0286727Y0050198D01*
X0286656Y0050200D01*
X0286585Y0050198D01*
X0286514Y0050192D01*
X0286444Y0050183D01*
X0286374Y0050169D01*
X0286305Y0050152D01*
X0286238Y0050132D01*
X0286171Y0050107D01*
X0286106Y0050079D01*
X0286042Y0050048D01*
X0285980Y0050013D01*
X0285920Y0049975D01*
X0285862Y0049934D01*
X0285807Y0049890D01*
X0285754Y0049842D01*
X0285704Y0049792D01*
X0285656Y0049740D01*
X0285611Y0049685D01*
X0285570Y0049627D01*
X0285531Y0049567D01*
X0285496Y0049506D01*
X0285464Y0049442D01*
X0285436Y0049377D01*
X0285411Y0049311D01*
X0287901Y0049311D02*
X0287961Y0049184D01*
X0288017Y0049055D01*
X0288070Y0048925D01*
X0288120Y0048793D01*
X0288166Y0048660D01*
X0288208Y0048526D01*
X0288247Y0048391D01*
X0288283Y0048254D01*
X0288314Y0048117D01*
X0288342Y0047979D01*
X0288367Y0047841D01*
X0288387Y0047702D01*
X0288404Y0047562D01*
X0288417Y0047422D01*
X0288426Y0047281D01*
X0288432Y0047141D01*
X0288434Y0047000D01*
X0284878Y0047000D02*
X0284880Y0047141D01*
X0284886Y0047281D01*
X0284895Y0047422D01*
X0284908Y0047562D01*
X0284925Y0047702D01*
X0284945Y0047841D01*
X0284970Y0047979D01*
X0284998Y0048117D01*
X0285029Y0048254D01*
X0285065Y0048391D01*
X0285104Y0048526D01*
X0285146Y0048660D01*
X0285192Y0048793D01*
X0285242Y0048925D01*
X0285295Y0049055D01*
X0285351Y0049184D01*
X0285411Y0049311D01*
X0288434Y0047000D02*
X0288432Y0046859D01*
X0288426Y0046719D01*
X0288417Y0046578D01*
X0288404Y0046438D01*
X0288387Y0046298D01*
X0288367Y0046159D01*
X0288342Y0046021D01*
X0288314Y0045883D01*
X0288283Y0045746D01*
X0288247Y0045609D01*
X0288208Y0045474D01*
X0288166Y0045340D01*
X0288120Y0045207D01*
X0288070Y0045075D01*
X0288017Y0044945D01*
X0287961Y0044816D01*
X0287901Y0044689D01*
X0286656Y0043800D02*
X0286585Y0043802D01*
X0286514Y0043808D01*
X0286444Y0043817D01*
X0286374Y0043831D01*
X0286305Y0043848D01*
X0286238Y0043868D01*
X0286171Y0043893D01*
X0286106Y0043921D01*
X0286042Y0043952D01*
X0285980Y0043987D01*
X0285920Y0044025D01*
X0285862Y0044066D01*
X0285807Y0044110D01*
X0285754Y0044158D01*
X0285704Y0044208D01*
X0285656Y0044260D01*
X0285611Y0044315D01*
X0285570Y0044373D01*
X0285531Y0044433D01*
X0285496Y0044494D01*
X0285464Y0044558D01*
X0285436Y0044623D01*
X0285411Y0044689D01*
X0286656Y0043800D02*
X0286727Y0043802D01*
X0286798Y0043808D01*
X0286868Y0043817D01*
X0286938Y0043831D01*
X0287007Y0043848D01*
X0287074Y0043868D01*
X0287141Y0043893D01*
X0287206Y0043921D01*
X0287270Y0043952D01*
X0287332Y0043987D01*
X0287392Y0044025D01*
X0287449Y0044066D01*
X0287505Y0044110D01*
X0287558Y0044158D01*
X0287608Y0044208D01*
X0287656Y0044260D01*
X0287701Y0044315D01*
X0287742Y0044373D01*
X0287781Y0044433D01*
X0287816Y0044494D01*
X0287848Y0044558D01*
X0287876Y0044623D01*
X0287901Y0044689D01*
X0285411Y0044689D02*
X0285351Y0044816D01*
X0285295Y0044945D01*
X0285242Y0045075D01*
X0285192Y0045207D01*
X0285146Y0045340D01*
X0285104Y0045474D01*
X0285065Y0045609D01*
X0285029Y0045746D01*
X0284998Y0045883D01*
X0284970Y0046021D01*
X0284945Y0046159D01*
X0284925Y0046298D01*
X0284908Y0046438D01*
X0284895Y0046578D01*
X0284886Y0046719D01*
X0284880Y0046859D01*
X0284878Y0047000D01*
X0281746Y0047356D02*
X0278724Y0043800D01*
X0278724Y0048777D02*
X0278753Y0048862D01*
X0278786Y0048945D01*
X0278823Y0049026D01*
X0278863Y0049106D01*
X0278906Y0049183D01*
X0278953Y0049259D01*
X0279003Y0049333D01*
X0279056Y0049405D01*
X0279112Y0049474D01*
X0279171Y0049541D01*
X0279233Y0049605D01*
X0279298Y0049666D01*
X0279365Y0049725D01*
X0279435Y0049780D01*
X0279507Y0049833D01*
X0279581Y0049882D01*
X0279658Y0049928D01*
X0279736Y0049970D01*
X0279816Y0050010D01*
X0279898Y0050045D01*
X0279981Y0050078D01*
X0280065Y0050106D01*
X0280151Y0050131D01*
X0280238Y0050152D01*
X0280325Y0050169D01*
X0280413Y0050183D01*
X0280502Y0050192D01*
X0280591Y0050198D01*
X0280680Y0050200D01*
X0280759Y0050198D01*
X0280837Y0050192D01*
X0280915Y0050183D01*
X0280992Y0050169D01*
X0281069Y0050152D01*
X0281144Y0050131D01*
X0281219Y0050106D01*
X0281292Y0050078D01*
X0281364Y0050046D01*
X0281434Y0050011D01*
X0281503Y0049972D01*
X0281569Y0049930D01*
X0281633Y0049885D01*
X0281695Y0049837D01*
X0281754Y0049786D01*
X0281811Y0049731D01*
X0281866Y0049674D01*
X0281917Y0049615D01*
X0281965Y0049553D01*
X0282010Y0049489D01*
X0282052Y0049423D01*
X0282091Y0049354D01*
X0282126Y0049284D01*
X0282158Y0049212D01*
X0282186Y0049139D01*
X0282211Y0049064D01*
X0282232Y0048989D01*
X0282249Y0048912D01*
X0282263Y0048835D01*
X0282272Y0048757D01*
X0282278Y0048679D01*
X0282280Y0048600D01*
X0282278Y0048518D01*
X0282272Y0048436D01*
X0282262Y0048355D01*
X0282249Y0048274D01*
X0282231Y0048194D01*
X0282210Y0048115D01*
X0282185Y0048037D01*
X0282157Y0047961D01*
X0282124Y0047885D01*
X0282089Y0047812D01*
X0282049Y0047740D01*
X0282007Y0047670D01*
X0281961Y0047602D01*
X0281912Y0047537D01*
X0281860Y0047474D01*
X0281804Y0047413D01*
X0281747Y0047355D01*
X0291320Y0046289D02*
X0294876Y0050200D01*
X0292743Y0047711D02*
X0294876Y0043800D01*
X0291320Y0043800D02*
X0291320Y0050200D01*
X0280186Y0034992D02*
X0280188Y0035123D01*
X0280194Y0035255D01*
X0280204Y0035386D01*
X0280218Y0035517D01*
X0280236Y0035647D01*
X0280258Y0035776D01*
X0280283Y0035905D01*
X0280313Y0036033D01*
X0280347Y0036160D01*
X0280384Y0036287D01*
X0280425Y0036411D01*
X0280470Y0036535D01*
X0280519Y0036657D01*
X0280571Y0036778D01*
X0280627Y0036896D01*
X0280687Y0037014D01*
X0280750Y0037129D01*
X0280817Y0037242D01*
X0280887Y0037354D01*
X0280960Y0037463D01*
X0281036Y0037569D01*
X0281116Y0037674D01*
X0281199Y0037776D01*
X0281285Y0037875D01*
X0281374Y0037972D01*
X0281466Y0038066D01*
X0281561Y0038157D01*
X0281658Y0038246D01*
X0281758Y0038331D01*
X0281861Y0038413D01*
X0281966Y0038492D01*
X0282073Y0038568D01*
X0282183Y0038640D01*
X0282295Y0038709D01*
X0282409Y0038775D01*
X0282524Y0038837D01*
X0282642Y0038896D01*
X0282761Y0038951D01*
X0282882Y0039003D01*
X0283005Y0039050D01*
X0283129Y0039094D01*
X0283254Y0039135D01*
X0283380Y0039171D01*
X0283508Y0039204D01*
X0283636Y0039232D01*
X0283765Y0039257D01*
X0283895Y0039278D01*
X0284025Y0039295D01*
X0284156Y0039308D01*
X0284287Y0039317D01*
X0284418Y0039322D01*
X0284550Y0039323D01*
X0284681Y0039320D01*
X0284813Y0039313D01*
X0284944Y0039302D01*
X0285074Y0039287D01*
X0285204Y0039268D01*
X0285334Y0039245D01*
X0285462Y0039219D01*
X0285590Y0039188D01*
X0285717Y0039153D01*
X0285843Y0039115D01*
X0285967Y0039073D01*
X0286091Y0039027D01*
X0286212Y0038977D01*
X0286332Y0038924D01*
X0286451Y0038867D01*
X0286568Y0038807D01*
X0286682Y0038743D01*
X0286795Y0038675D01*
X0286906Y0038604D01*
X0287015Y0038530D01*
X0287121Y0038453D01*
X0287225Y0038372D01*
X0287326Y0038289D01*
X0287425Y0038202D01*
X0287521Y0038112D01*
X0287614Y0038019D01*
X0287705Y0037924D01*
X0287792Y0037826D01*
X0287877Y0037725D01*
X0287958Y0037622D01*
X0288036Y0037516D01*
X0288111Y0037408D01*
X0288183Y0037298D01*
X0288251Y0037186D01*
X0288316Y0037072D01*
X0288377Y0036955D01*
X0288435Y0036837D01*
X0288489Y0036717D01*
X0288540Y0036596D01*
X0288587Y0036473D01*
X0288630Y0036349D01*
X0288669Y0036224D01*
X0288705Y0036097D01*
X0288736Y0035969D01*
X0288764Y0035841D01*
X0288788Y0035712D01*
X0288808Y0035582D01*
X0288824Y0035451D01*
X0288836Y0035320D01*
X0288844Y0035189D01*
X0288848Y0035058D01*
X0288848Y0034926D01*
X0288844Y0034795D01*
X0288836Y0034664D01*
X0288824Y0034533D01*
X0288808Y0034402D01*
X0288788Y0034272D01*
X0288764Y0034143D01*
X0288736Y0034015D01*
X0288705Y0033887D01*
X0288669Y0033760D01*
X0288630Y0033635D01*
X0288587Y0033511D01*
X0288540Y0033388D01*
X0288489Y0033267D01*
X0288435Y0033147D01*
X0288377Y0033029D01*
X0288316Y0032912D01*
X0288251Y0032798D01*
X0288183Y0032686D01*
X0288111Y0032576D01*
X0288036Y0032468D01*
X0287958Y0032362D01*
X0287877Y0032259D01*
X0287792Y0032158D01*
X0287705Y0032060D01*
X0287614Y0031965D01*
X0287521Y0031872D01*
X0287425Y0031782D01*
X0287326Y0031695D01*
X0287225Y0031612D01*
X0287121Y0031531D01*
X0287015Y0031454D01*
X0286906Y0031380D01*
X0286795Y0031309D01*
X0286683Y0031241D01*
X0286568Y0031177D01*
X0286451Y0031117D01*
X0286332Y0031060D01*
X0286212Y0031007D01*
X0286091Y0030957D01*
X0285967Y0030911D01*
X0285843Y0030869D01*
X0285717Y0030831D01*
X0285590Y0030796D01*
X0285462Y0030765D01*
X0285334Y0030739D01*
X0285204Y0030716D01*
X0285074Y0030697D01*
X0284944Y0030682D01*
X0284813Y0030671D01*
X0284681Y0030664D01*
X0284550Y0030661D01*
X0284418Y0030662D01*
X0284287Y0030667D01*
X0284156Y0030676D01*
X0284025Y0030689D01*
X0283895Y0030706D01*
X0283765Y0030727D01*
X0283636Y0030752D01*
X0283508Y0030780D01*
X0283380Y0030813D01*
X0283254Y0030849D01*
X0283129Y0030890D01*
X0283005Y0030934D01*
X0282882Y0030981D01*
X0282761Y0031033D01*
X0282642Y0031088D01*
X0282524Y0031147D01*
X0282409Y0031209D01*
X0282295Y0031275D01*
X0282183Y0031344D01*
X0282073Y0031416D01*
X0281966Y0031492D01*
X0281861Y0031571D01*
X0281758Y0031653D01*
X0281658Y0031738D01*
X0281561Y0031827D01*
X0281466Y0031918D01*
X0281374Y0032012D01*
X0281285Y0032109D01*
X0281199Y0032208D01*
X0281116Y0032310D01*
X0281036Y0032415D01*
X0280960Y0032521D01*
X0280887Y0032630D01*
X0280817Y0032742D01*
X0280750Y0032855D01*
X0280687Y0032970D01*
X0280627Y0033088D01*
X0280571Y0033206D01*
X0280519Y0033327D01*
X0280470Y0033449D01*
X0280425Y0033573D01*
X0280384Y0033697D01*
X0280347Y0033824D01*
X0280313Y0033951D01*
X0280283Y0034079D01*
X0280258Y0034208D01*
X0280236Y0034337D01*
X0280218Y0034467D01*
X0280204Y0034598D01*
X0280194Y0034729D01*
X0280188Y0034861D01*
X0280186Y0034992D01*
X0312570Y0033778D02*
X0314348Y0035200D01*
X0314348Y0028800D01*
X0312570Y0028800D02*
X0316126Y0028800D01*
X0319080Y0030222D02*
X0321924Y0033778D01*
X0321747Y0034311D02*
X0321722Y0034377D01*
X0321694Y0034442D01*
X0321662Y0034506D01*
X0321627Y0034567D01*
X0321588Y0034627D01*
X0321547Y0034685D01*
X0321502Y0034740D01*
X0321454Y0034792D01*
X0321404Y0034842D01*
X0321351Y0034890D01*
X0321296Y0034934D01*
X0321238Y0034975D01*
X0321178Y0035013D01*
X0321116Y0035048D01*
X0321052Y0035079D01*
X0320987Y0035107D01*
X0320920Y0035132D01*
X0320853Y0035152D01*
X0320784Y0035169D01*
X0320714Y0035183D01*
X0320644Y0035192D01*
X0320573Y0035198D01*
X0320502Y0035200D01*
X0320431Y0035198D01*
X0320360Y0035192D01*
X0320290Y0035183D01*
X0320220Y0035169D01*
X0320151Y0035152D01*
X0320084Y0035132D01*
X0320017Y0035107D01*
X0319952Y0035079D01*
X0319888Y0035048D01*
X0319826Y0035013D01*
X0319766Y0034975D01*
X0319708Y0034934D01*
X0319653Y0034890D01*
X0319600Y0034842D01*
X0319550Y0034792D01*
X0319502Y0034740D01*
X0319457Y0034685D01*
X0319416Y0034627D01*
X0319377Y0034567D01*
X0319342Y0034506D01*
X0319310Y0034442D01*
X0319282Y0034377D01*
X0319257Y0034311D01*
X0321747Y0034311D02*
X0321807Y0034184D01*
X0321863Y0034055D01*
X0321916Y0033925D01*
X0321966Y0033793D01*
X0322012Y0033660D01*
X0322054Y0033526D01*
X0322093Y0033391D01*
X0322129Y0033254D01*
X0322160Y0033117D01*
X0322188Y0032979D01*
X0322213Y0032841D01*
X0322233Y0032702D01*
X0322250Y0032562D01*
X0322263Y0032422D01*
X0322272Y0032281D01*
X0322278Y0032141D01*
X0322280Y0032000D01*
X0327901Y0029689D02*
X0327961Y0029816D01*
X0328017Y0029945D01*
X0328070Y0030075D01*
X0328120Y0030207D01*
X0328166Y0030340D01*
X0328208Y0030474D01*
X0328247Y0030609D01*
X0328283Y0030746D01*
X0328314Y0030883D01*
X0328342Y0031021D01*
X0328367Y0031159D01*
X0328387Y0031298D01*
X0328404Y0031438D01*
X0328417Y0031578D01*
X0328426Y0031719D01*
X0328432Y0031859D01*
X0328434Y0032000D01*
X0324878Y0032000D02*
X0324880Y0032141D01*
X0324886Y0032281D01*
X0324895Y0032422D01*
X0324908Y0032562D01*
X0324925Y0032702D01*
X0324945Y0032841D01*
X0324970Y0032979D01*
X0324998Y0033117D01*
X0325029Y0033254D01*
X0325065Y0033391D01*
X0325104Y0033526D01*
X0325146Y0033660D01*
X0325192Y0033793D01*
X0325242Y0033925D01*
X0325295Y0034055D01*
X0325351Y0034184D01*
X0325411Y0034311D01*
X0325436Y0034377D01*
X0325464Y0034442D01*
X0325496Y0034506D01*
X0325531Y0034567D01*
X0325570Y0034627D01*
X0325611Y0034685D01*
X0325656Y0034740D01*
X0325704Y0034792D01*
X0325754Y0034842D01*
X0325807Y0034890D01*
X0325862Y0034934D01*
X0325920Y0034975D01*
X0325980Y0035013D01*
X0326042Y0035048D01*
X0326106Y0035079D01*
X0326171Y0035107D01*
X0326238Y0035132D01*
X0326305Y0035152D01*
X0326374Y0035169D01*
X0326444Y0035183D01*
X0326514Y0035192D01*
X0326585Y0035198D01*
X0326656Y0035200D01*
X0326727Y0035198D01*
X0326798Y0035192D01*
X0326868Y0035183D01*
X0326938Y0035169D01*
X0327007Y0035152D01*
X0327074Y0035132D01*
X0327141Y0035107D01*
X0327206Y0035079D01*
X0327270Y0035048D01*
X0327332Y0035013D01*
X0327392Y0034975D01*
X0327450Y0034934D01*
X0327505Y0034890D01*
X0327558Y0034842D01*
X0327608Y0034792D01*
X0327656Y0034740D01*
X0327701Y0034685D01*
X0327742Y0034627D01*
X0327781Y0034567D01*
X0327816Y0034506D01*
X0327848Y0034442D01*
X0327876Y0034377D01*
X0327901Y0034311D01*
X0328078Y0033778D02*
X0325234Y0030222D01*
X0326656Y0028800D02*
X0326727Y0028802D01*
X0326798Y0028808D01*
X0326868Y0028817D01*
X0326938Y0028831D01*
X0327007Y0028848D01*
X0327074Y0028868D01*
X0327141Y0028893D01*
X0327206Y0028921D01*
X0327270Y0028952D01*
X0327332Y0028987D01*
X0327392Y0029025D01*
X0327449Y0029066D01*
X0327505Y0029110D01*
X0327558Y0029158D01*
X0327608Y0029208D01*
X0327656Y0029260D01*
X0327701Y0029315D01*
X0327742Y0029373D01*
X0327781Y0029433D01*
X0327816Y0029494D01*
X0327848Y0029558D01*
X0327876Y0029623D01*
X0327901Y0029689D01*
X0326656Y0028800D02*
X0326585Y0028802D01*
X0326514Y0028808D01*
X0326444Y0028817D01*
X0326374Y0028831D01*
X0326305Y0028848D01*
X0326238Y0028868D01*
X0326171Y0028893D01*
X0326106Y0028921D01*
X0326042Y0028952D01*
X0325980Y0028987D01*
X0325920Y0029025D01*
X0325862Y0029066D01*
X0325807Y0029110D01*
X0325754Y0029158D01*
X0325704Y0029208D01*
X0325656Y0029260D01*
X0325611Y0029315D01*
X0325570Y0029373D01*
X0325531Y0029433D01*
X0325496Y0029494D01*
X0325464Y0029558D01*
X0325436Y0029623D01*
X0325411Y0029689D01*
X0319257Y0029689D02*
X0319197Y0029816D01*
X0319141Y0029945D01*
X0319088Y0030075D01*
X0319038Y0030207D01*
X0318992Y0030340D01*
X0318950Y0030474D01*
X0318911Y0030609D01*
X0318875Y0030746D01*
X0318844Y0030883D01*
X0318816Y0031021D01*
X0318791Y0031159D01*
X0318771Y0031298D01*
X0318754Y0031438D01*
X0318741Y0031578D01*
X0318732Y0031719D01*
X0318726Y0031859D01*
X0318724Y0032000D01*
X0322279Y0032000D02*
X0322277Y0031859D01*
X0322271Y0031719D01*
X0322262Y0031578D01*
X0322249Y0031438D01*
X0322232Y0031298D01*
X0322212Y0031159D01*
X0322187Y0031021D01*
X0322159Y0030883D01*
X0322128Y0030746D01*
X0322092Y0030609D01*
X0322053Y0030474D01*
X0322011Y0030340D01*
X0321965Y0030207D01*
X0321915Y0030075D01*
X0321862Y0029945D01*
X0321806Y0029816D01*
X0321746Y0029689D01*
X0321747Y0029689D02*
X0321722Y0029623D01*
X0321694Y0029558D01*
X0321662Y0029494D01*
X0321627Y0029433D01*
X0321588Y0029373D01*
X0321547Y0029315D01*
X0321502Y0029260D01*
X0321454Y0029208D01*
X0321404Y0029158D01*
X0321351Y0029110D01*
X0321295Y0029066D01*
X0321238Y0029025D01*
X0321178Y0028987D01*
X0321116Y0028952D01*
X0321052Y0028921D01*
X0320987Y0028893D01*
X0320920Y0028868D01*
X0320853Y0028848D01*
X0320784Y0028831D01*
X0320714Y0028817D01*
X0320644Y0028808D01*
X0320573Y0028802D01*
X0320502Y0028800D01*
X0320431Y0028802D01*
X0320360Y0028808D01*
X0320290Y0028817D01*
X0320220Y0028831D01*
X0320151Y0028848D01*
X0320084Y0028868D01*
X0320017Y0028893D01*
X0319952Y0028921D01*
X0319888Y0028952D01*
X0319826Y0028987D01*
X0319766Y0029025D01*
X0319708Y0029066D01*
X0319653Y0029110D01*
X0319600Y0029158D01*
X0319550Y0029208D01*
X0319502Y0029260D01*
X0319457Y0029315D01*
X0319416Y0029373D01*
X0319377Y0029433D01*
X0319342Y0029494D01*
X0319310Y0029558D01*
X0319282Y0029623D01*
X0319257Y0029689D01*
X0328434Y0032000D02*
X0328432Y0032141D01*
X0328426Y0032281D01*
X0328417Y0032422D01*
X0328404Y0032562D01*
X0328387Y0032702D01*
X0328367Y0032841D01*
X0328342Y0032979D01*
X0328314Y0033117D01*
X0328283Y0033254D01*
X0328247Y0033391D01*
X0328208Y0033526D01*
X0328166Y0033660D01*
X0328120Y0033793D01*
X0328070Y0033925D01*
X0328017Y0034055D01*
X0327961Y0034184D01*
X0327901Y0034311D01*
X0324878Y0032000D02*
X0324880Y0031859D01*
X0324886Y0031719D01*
X0324895Y0031578D01*
X0324908Y0031438D01*
X0324925Y0031298D01*
X0324945Y0031159D01*
X0324970Y0031021D01*
X0324998Y0030883D01*
X0325029Y0030746D01*
X0325065Y0030609D01*
X0325104Y0030474D01*
X0325146Y0030340D01*
X0325192Y0030207D01*
X0325242Y0030075D01*
X0325295Y0029945D01*
X0325351Y0029816D01*
X0325411Y0029689D01*
X0318724Y0032000D02*
X0318726Y0032141D01*
X0318732Y0032281D01*
X0318741Y0032422D01*
X0318754Y0032562D01*
X0318771Y0032702D01*
X0318791Y0032841D01*
X0318816Y0032979D01*
X0318844Y0033117D01*
X0318875Y0033254D01*
X0318911Y0033391D01*
X0318950Y0033526D01*
X0318992Y0033660D01*
X0319038Y0033793D01*
X0319088Y0033925D01*
X0319141Y0034055D01*
X0319197Y0034184D01*
X0319257Y0034311D01*
X0331320Y0035200D02*
X0331320Y0028800D01*
X0331320Y0031289D02*
X0334876Y0035200D01*
X0337474Y0035200D02*
X0339252Y0035200D01*
X0339326Y0035198D01*
X0339401Y0035192D01*
X0339474Y0035182D01*
X0339548Y0035169D01*
X0339620Y0035152D01*
X0339691Y0035130D01*
X0339762Y0035106D01*
X0339830Y0035077D01*
X0339898Y0035045D01*
X0339963Y0035009D01*
X0340026Y0034971D01*
X0340088Y0034928D01*
X0340147Y0034883D01*
X0340204Y0034835D01*
X0340258Y0034784D01*
X0340309Y0034730D01*
X0340357Y0034673D01*
X0340402Y0034614D01*
X0340445Y0034552D01*
X0340483Y0034489D01*
X0340519Y0034424D01*
X0340551Y0034356D01*
X0340580Y0034288D01*
X0340604Y0034217D01*
X0340626Y0034146D01*
X0340643Y0034074D01*
X0340656Y0034000D01*
X0340666Y0033927D01*
X0340672Y0033852D01*
X0340674Y0033778D01*
X0340672Y0033704D01*
X0340666Y0033629D01*
X0340656Y0033556D01*
X0340643Y0033482D01*
X0340626Y0033410D01*
X0340604Y0033339D01*
X0340580Y0033268D01*
X0340551Y0033200D01*
X0340519Y0033132D01*
X0340483Y0033067D01*
X0340445Y0033004D01*
X0340402Y0032942D01*
X0340357Y0032883D01*
X0340309Y0032826D01*
X0340258Y0032772D01*
X0340204Y0032721D01*
X0340147Y0032673D01*
X0340088Y0032628D01*
X0340026Y0032585D01*
X0339963Y0032547D01*
X0339898Y0032511D01*
X0339830Y0032479D01*
X0339762Y0032450D01*
X0339691Y0032426D01*
X0339620Y0032404D01*
X0339548Y0032387D01*
X0339474Y0032374D01*
X0339401Y0032364D01*
X0339326Y0032358D01*
X0339252Y0032356D01*
X0337474Y0032356D01*
X0339252Y0032356D02*
X0339335Y0032354D01*
X0339418Y0032348D01*
X0339501Y0032338D01*
X0339584Y0032325D01*
X0339665Y0032307D01*
X0339746Y0032286D01*
X0339825Y0032261D01*
X0339903Y0032232D01*
X0339980Y0032200D01*
X0340055Y0032164D01*
X0340129Y0032125D01*
X0340200Y0032082D01*
X0340270Y0032036D01*
X0340337Y0031986D01*
X0340402Y0031934D01*
X0340464Y0031879D01*
X0340524Y0031820D01*
X0340581Y0031759D01*
X0340635Y0031696D01*
X0340686Y0031630D01*
X0340733Y0031561D01*
X0340778Y0031491D01*
X0340819Y0031418D01*
X0340856Y0031344D01*
X0340891Y0031268D01*
X0340921Y0031190D01*
X0340948Y0031112D01*
X0340971Y0031031D01*
X0340991Y0030950D01*
X0341006Y0030868D01*
X0341018Y0030786D01*
X0341026Y0030703D01*
X0341030Y0030620D01*
X0341030Y0030536D01*
X0341026Y0030453D01*
X0341018Y0030370D01*
X0341006Y0030288D01*
X0340991Y0030206D01*
X0340971Y0030125D01*
X0340948Y0030044D01*
X0340921Y0029966D01*
X0340891Y0029888D01*
X0340856Y0029812D01*
X0340819Y0029738D01*
X0340778Y0029665D01*
X0340733Y0029595D01*
X0340686Y0029526D01*
X0340635Y0029460D01*
X0340581Y0029397D01*
X0340524Y0029336D01*
X0340464Y0029277D01*
X0340402Y0029222D01*
X0340337Y0029170D01*
X0340270Y0029120D01*
X0340200Y0029074D01*
X0340129Y0029031D01*
X0340055Y0028992D01*
X0339980Y0028956D01*
X0339903Y0028924D01*
X0339825Y0028895D01*
X0339746Y0028870D01*
X0339665Y0028849D01*
X0339584Y0028831D01*
X0339501Y0028818D01*
X0339418Y0028808D01*
X0339335Y0028802D01*
X0339252Y0028800D01*
X0337474Y0028800D01*
X0337474Y0035200D01*
X0332743Y0032711D02*
X0334876Y0028800D01*
D12*
X0270304Y0024469D02*
X0270304Y0020531D01*
X0268335Y0020531D01*
X0268335Y0015020D01*
X0268335Y0016594D01*
X0268335Y0015020D02*
X0267154Y0015020D01*
X0193139Y0015020D01*
X0193139Y0013839D01*
X0191957Y0013839D01*
X0191957Y0011083D01*
X0268335Y0011083D01*
X0268335Y0013839D01*
X0267154Y0013839D01*
X0267154Y0015020D01*
X0268335Y0024469D02*
X0268335Y0032343D01*
X0261643Y0032343D01*
X0268335Y0032343D02*
X0268335Y0028406D01*
X0268335Y0032343D02*
X0191957Y0032343D01*
X0198650Y0032343D01*
X0191957Y0032343D02*
X0191957Y0028406D01*
X0191957Y0032343D02*
X0191957Y0024469D01*
X0189989Y0024469D01*
X0189989Y0020531D01*
X0191957Y0020531D01*
X0191957Y0015020D01*
X0191957Y0016594D01*
X0191957Y0015020D02*
X0193139Y0015020D01*
X0199831Y0013839D02*
X0200619Y0012264D01*
X0201406Y0013839D01*
X0199831Y0013839D01*
X0200161Y0013179D02*
X0201077Y0013179D01*
X0200677Y0012381D02*
X0200560Y0012381D01*
X0201308Y0051764D02*
X0180146Y0051764D01*
X0180146Y0092236D01*
X0201308Y0092236D01*
X0201308Y0051764D01*
X0198847Y0051961D02*
X0198847Y0092039D01*
X0268335Y0024469D02*
X0270304Y0024469D01*
X0265741Y0271921D02*
X0265741Y0322079D01*
X0295859Y0322079D01*
X0295859Y0271921D01*
X0265741Y0271921D01*
X0201859Y0271921D02*
X0171741Y0271921D01*
X0171741Y0322079D01*
X0201859Y0322079D01*
X0201859Y0271921D01*
X0235619Y0325577D02*
X0137981Y0325577D01*
X0137981Y0404120D01*
X0235619Y0404120D01*
X0235619Y0325577D01*
X0327981Y0326409D02*
X0425619Y0326409D01*
X0425619Y0402394D01*
X0327981Y0402394D01*
X0327981Y0326409D01*
X0334280Y0402787D02*
X0334280Y0411252D01*
X0334282Y0411329D01*
X0334288Y0411406D01*
X0334297Y0411483D01*
X0334310Y0411559D01*
X0334327Y0411635D01*
X0334348Y0411709D01*
X0334372Y0411783D01*
X0334400Y0411855D01*
X0334431Y0411925D01*
X0334466Y0411994D01*
X0334504Y0412062D01*
X0334545Y0412127D01*
X0334590Y0412190D01*
X0334638Y0412251D01*
X0334688Y0412310D01*
X0334741Y0412366D01*
X0334797Y0412419D01*
X0334856Y0412469D01*
X0334917Y0412517D01*
X0334980Y0412562D01*
X0335045Y0412603D01*
X0335113Y0412641D01*
X0335182Y0412676D01*
X0335252Y0412707D01*
X0335324Y0412735D01*
X0335398Y0412759D01*
X0335472Y0412780D01*
X0335548Y0412797D01*
X0335624Y0412810D01*
X0335701Y0412819D01*
X0335778Y0412825D01*
X0335855Y0412827D01*
X0417745Y0412827D01*
X0417822Y0412825D01*
X0417899Y0412819D01*
X0417976Y0412810D01*
X0418052Y0412797D01*
X0418128Y0412780D01*
X0418202Y0412759D01*
X0418276Y0412735D01*
X0418348Y0412707D01*
X0418418Y0412676D01*
X0418487Y0412641D01*
X0418555Y0412603D01*
X0418620Y0412562D01*
X0418683Y0412517D01*
X0418744Y0412469D01*
X0418803Y0412419D01*
X0418859Y0412366D01*
X0418912Y0412310D01*
X0418962Y0412251D01*
X0419010Y0412190D01*
X0419055Y0412127D01*
X0419096Y0412062D01*
X0419134Y0411994D01*
X0419169Y0411925D01*
X0419200Y0411855D01*
X0419228Y0411783D01*
X0419252Y0411709D01*
X0419273Y0411635D01*
X0419290Y0411559D01*
X0419303Y0411483D01*
X0419312Y0411406D01*
X0419318Y0411329D01*
X0419320Y0411252D01*
X0419320Y0402787D01*
X0469756Y0336600D02*
X0469756Y0327400D01*
X0473844Y0327400D01*
X0544244Y0327400D02*
X0544244Y0336600D01*
X0546800Y0336600D01*
X0546900Y0336598D01*
X0547001Y0336592D01*
X0547100Y0336582D01*
X0547200Y0336569D01*
X0547299Y0336551D01*
X0547397Y0336529D01*
X0547494Y0336504D01*
X0547590Y0336475D01*
X0547685Y0336442D01*
X0547778Y0336405D01*
X0547870Y0336365D01*
X0547960Y0336321D01*
X0548049Y0336274D01*
X0548136Y0336223D01*
X0548220Y0336169D01*
X0548302Y0336112D01*
X0548382Y0336051D01*
X0548460Y0335988D01*
X0548535Y0335921D01*
X0548607Y0335851D01*
X0548677Y0335779D01*
X0548744Y0335704D01*
X0548807Y0335626D01*
X0548868Y0335546D01*
X0548925Y0335464D01*
X0548979Y0335380D01*
X0549030Y0335293D01*
X0549077Y0335204D01*
X0549121Y0335114D01*
X0549161Y0335022D01*
X0549198Y0334929D01*
X0549231Y0334834D01*
X0549260Y0334738D01*
X0549285Y0334641D01*
X0549307Y0334543D01*
X0549325Y0334444D01*
X0549338Y0334344D01*
X0549348Y0334245D01*
X0549354Y0334144D01*
X0549356Y0334044D01*
X0549354Y0333944D01*
X0549348Y0333843D01*
X0549338Y0333744D01*
X0549325Y0333644D01*
X0549307Y0333545D01*
X0549285Y0333447D01*
X0549260Y0333350D01*
X0549231Y0333254D01*
X0549198Y0333159D01*
X0549161Y0333066D01*
X0549121Y0332974D01*
X0549077Y0332884D01*
X0549030Y0332795D01*
X0548979Y0332708D01*
X0548925Y0332624D01*
X0548868Y0332542D01*
X0548807Y0332462D01*
X0548744Y0332384D01*
X0548677Y0332309D01*
X0548607Y0332237D01*
X0548535Y0332167D01*
X0548460Y0332100D01*
X0548382Y0332037D01*
X0548302Y0331976D01*
X0548220Y0331919D01*
X0548136Y0331865D01*
X0548049Y0331814D01*
X0547960Y0331767D01*
X0547870Y0331723D01*
X0547778Y0331683D01*
X0547685Y0331646D01*
X0547590Y0331613D01*
X0547494Y0331584D01*
X0547397Y0331559D01*
X0547299Y0331537D01*
X0547200Y0331519D01*
X0547100Y0331506D01*
X0547001Y0331496D01*
X0546900Y0331490D01*
X0546800Y0331488D01*
X0546800Y0331489D02*
X0544244Y0331489D01*
X0547311Y0331489D02*
X0549356Y0327400D01*
X0592981Y0326409D02*
X0690619Y0326409D01*
X0690619Y0402394D01*
X0592981Y0402394D01*
X0592981Y0326409D01*
X0599280Y0402787D02*
X0599280Y0411252D01*
X0599282Y0411329D01*
X0599288Y0411406D01*
X0599297Y0411483D01*
X0599310Y0411559D01*
X0599327Y0411635D01*
X0599348Y0411709D01*
X0599372Y0411783D01*
X0599400Y0411855D01*
X0599431Y0411925D01*
X0599466Y0411994D01*
X0599504Y0412062D01*
X0599545Y0412127D01*
X0599590Y0412190D01*
X0599638Y0412251D01*
X0599688Y0412310D01*
X0599741Y0412366D01*
X0599797Y0412419D01*
X0599856Y0412469D01*
X0599917Y0412517D01*
X0599980Y0412562D01*
X0600045Y0412603D01*
X0600113Y0412641D01*
X0600182Y0412676D01*
X0600252Y0412707D01*
X0600324Y0412735D01*
X0600398Y0412759D01*
X0600472Y0412780D01*
X0600548Y0412797D01*
X0600624Y0412810D01*
X0600701Y0412819D01*
X0600778Y0412825D01*
X0600855Y0412827D01*
X0682745Y0412827D01*
X0682822Y0412825D01*
X0682899Y0412819D01*
X0682976Y0412810D01*
X0683052Y0412797D01*
X0683128Y0412780D01*
X0683202Y0412759D01*
X0683276Y0412735D01*
X0683348Y0412707D01*
X0683418Y0412676D01*
X0683487Y0412641D01*
X0683555Y0412603D01*
X0683620Y0412562D01*
X0683683Y0412517D01*
X0683744Y0412469D01*
X0683803Y0412419D01*
X0683859Y0412366D01*
X0683912Y0412310D01*
X0683962Y0412251D01*
X0684010Y0412190D01*
X0684055Y0412127D01*
X0684096Y0412062D01*
X0684134Y0411994D01*
X0684169Y0411925D01*
X0684200Y0411855D01*
X0684228Y0411783D01*
X0684252Y0411709D01*
X0684273Y0411635D01*
X0684290Y0411559D01*
X0684303Y0411483D01*
X0684312Y0411406D01*
X0684318Y0411329D01*
X0684320Y0411252D01*
X0684320Y0402787D01*
X0229320Y0404514D02*
X0229320Y0412978D01*
X0229318Y0413055D01*
X0229312Y0413132D01*
X0229303Y0413209D01*
X0229290Y0413285D01*
X0229273Y0413361D01*
X0229252Y0413435D01*
X0229228Y0413509D01*
X0229200Y0413581D01*
X0229169Y0413651D01*
X0229134Y0413720D01*
X0229096Y0413788D01*
X0229055Y0413853D01*
X0229010Y0413916D01*
X0228962Y0413977D01*
X0228912Y0414036D01*
X0228859Y0414092D01*
X0228803Y0414145D01*
X0228744Y0414195D01*
X0228683Y0414243D01*
X0228620Y0414288D01*
X0228555Y0414329D01*
X0228487Y0414367D01*
X0228418Y0414402D01*
X0228348Y0414433D01*
X0228276Y0414461D01*
X0228202Y0414485D01*
X0228128Y0414506D01*
X0228052Y0414523D01*
X0227976Y0414536D01*
X0227899Y0414545D01*
X0227822Y0414551D01*
X0227745Y0414553D01*
X0145855Y0414553D01*
X0145778Y0414551D01*
X0145701Y0414545D01*
X0145624Y0414536D01*
X0145548Y0414523D01*
X0145472Y0414506D01*
X0145398Y0414485D01*
X0145324Y0414461D01*
X0145252Y0414433D01*
X0145182Y0414402D01*
X0145113Y0414367D01*
X0145045Y0414329D01*
X0144980Y0414288D01*
X0144917Y0414243D01*
X0144856Y0414195D01*
X0144797Y0414145D01*
X0144741Y0414092D01*
X0144688Y0414036D01*
X0144638Y0413977D01*
X0144590Y0413916D01*
X0144545Y0413853D01*
X0144504Y0413788D01*
X0144466Y0413720D01*
X0144431Y0413651D01*
X0144400Y0413581D01*
X0144372Y0413509D01*
X0144348Y0413435D01*
X0144327Y0413361D01*
X0144310Y0413285D01*
X0144297Y0413209D01*
X0144288Y0413132D01*
X0144282Y0413055D01*
X0144280Y0412978D01*
X0144280Y0404514D01*
X0167312Y0428575D02*
X0167312Y0432118D01*
X0206485Y0432118D01*
X0206485Y0428575D01*
X0195855Y0428575D01*
X0195855Y0414992D01*
X0177745Y0414992D02*
X0177745Y0428575D01*
X0195658Y0428575D01*
X0177745Y0428575D02*
X0167312Y0428575D01*
D13*
X0166800Y0403004D02*
X0206800Y0403004D01*
X0206800Y0360346D01*
X0166800Y0360346D01*
X0166800Y0403004D01*
X0122725Y0394063D02*
X0122725Y0124378D01*
X0004615Y0124378D01*
X0004615Y0394063D01*
X0122725Y0394063D01*
X0088001Y0394063D02*
X0088001Y0414575D01*
X0040599Y0414575D01*
X0040599Y0394063D01*
X0253257Y0403772D02*
X0253257Y0350228D01*
X0310343Y0350228D01*
X0310343Y0403772D01*
X0253257Y0403772D01*
X0443257Y0403772D02*
X0443257Y0350228D01*
X0500343Y0350228D01*
X0500343Y0403772D01*
X0443257Y0403772D01*
X0518257Y0403772D02*
X0575343Y0403772D01*
X0575343Y0350228D01*
X0518257Y0350228D01*
X0518257Y0403772D01*
D14*
X0706721Y0322000D02*
X0706721Y0002000D01*
X0126721Y0002000D01*
X0126721Y0322000D01*
X0706721Y0322000D01*
X0476094Y0173700D02*
X0476094Y0150300D01*
X0469594Y0150300D02*
X0482594Y0150300D01*
X0463544Y0150300D02*
X0450544Y0150300D01*
X0461594Y0163300D01*
X0457694Y0173700D02*
X0457512Y0173698D01*
X0457331Y0173691D01*
X0457149Y0173680D01*
X0456968Y0173665D01*
X0456787Y0173645D01*
X0456607Y0173621D01*
X0456428Y0173593D01*
X0456249Y0173560D01*
X0456071Y0173523D01*
X0455894Y0173481D01*
X0455718Y0173436D01*
X0455543Y0173386D01*
X0455370Y0173332D01*
X0455198Y0173273D01*
X0455027Y0173211D01*
X0454858Y0173144D01*
X0454690Y0173074D01*
X0454524Y0172999D01*
X0454361Y0172920D01*
X0454199Y0172838D01*
X0454039Y0172751D01*
X0453881Y0172661D01*
X0453726Y0172567D01*
X0453572Y0172469D01*
X0453422Y0172368D01*
X0453273Y0172262D01*
X0453128Y0172154D01*
X0452985Y0172042D01*
X0452844Y0171926D01*
X0452707Y0171807D01*
X0452572Y0171685D01*
X0452441Y0171559D01*
X0452312Y0171431D01*
X0452187Y0171299D01*
X0452065Y0171164D01*
X0451946Y0171027D01*
X0451831Y0170886D01*
X0451719Y0170743D01*
X0451610Y0170597D01*
X0451505Y0170449D01*
X0451404Y0170298D01*
X0451306Y0170145D01*
X0451212Y0169989D01*
X0451122Y0169831D01*
X0451036Y0169671D01*
X0450954Y0169509D01*
X0450875Y0169345D01*
X0450801Y0169180D01*
X0450730Y0169012D01*
X0450664Y0168843D01*
X0450602Y0168672D01*
X0450544Y0168500D01*
X0431494Y0162000D02*
X0431499Y0161540D01*
X0431516Y0161080D01*
X0431543Y0160620D01*
X0431582Y0160161D01*
X0431631Y0159704D01*
X0431691Y0159247D01*
X0431763Y0158793D01*
X0431845Y0158340D01*
X0431937Y0157889D01*
X0432041Y0157440D01*
X0432155Y0156994D01*
X0432280Y0156551D01*
X0432415Y0156111D01*
X0432561Y0155674D01*
X0432717Y0155241D01*
X0432884Y0154812D01*
X0433060Y0154387D01*
X0433247Y0153966D01*
X0433444Y0153550D01*
X0432794Y0155500D02*
X0443194Y0168500D01*
X0442544Y0170450D02*
X0442498Y0170578D01*
X0442449Y0170704D01*
X0442396Y0170829D01*
X0442340Y0170952D01*
X0442280Y0171074D01*
X0442216Y0171194D01*
X0442150Y0171312D01*
X0442080Y0171428D01*
X0442007Y0171542D01*
X0441930Y0171654D01*
X0441851Y0171764D01*
X0441768Y0171872D01*
X0441683Y0171977D01*
X0441594Y0172080D01*
X0441503Y0172180D01*
X0441409Y0172278D01*
X0441312Y0172372D01*
X0441212Y0172465D01*
X0441110Y0172554D01*
X0441006Y0172640D01*
X0440899Y0172724D01*
X0440790Y0172804D01*
X0440678Y0172881D01*
X0440565Y0172955D01*
X0440449Y0173026D01*
X0440332Y0173094D01*
X0440212Y0173158D01*
X0440091Y0173219D01*
X0439968Y0173276D01*
X0439844Y0173330D01*
X0439718Y0173381D01*
X0439590Y0173427D01*
X0439462Y0173471D01*
X0439332Y0173510D01*
X0439201Y0173546D01*
X0439070Y0173578D01*
X0438937Y0173607D01*
X0438804Y0173631D01*
X0438670Y0173652D01*
X0438535Y0173669D01*
X0438400Y0173683D01*
X0438265Y0173692D01*
X0438130Y0173698D01*
X0437994Y0173700D01*
X0437858Y0173698D01*
X0437723Y0173692D01*
X0437588Y0173683D01*
X0437453Y0173669D01*
X0437318Y0173652D01*
X0437184Y0173631D01*
X0437051Y0173607D01*
X0436918Y0173578D01*
X0436787Y0173546D01*
X0436656Y0173510D01*
X0436526Y0173471D01*
X0436398Y0173427D01*
X0436270Y0173381D01*
X0436144Y0173330D01*
X0436020Y0173276D01*
X0435897Y0173219D01*
X0435776Y0173158D01*
X0435656Y0173094D01*
X0435539Y0173026D01*
X0435423Y0172955D01*
X0435310Y0172881D01*
X0435198Y0172804D01*
X0435089Y0172724D01*
X0434982Y0172640D01*
X0434878Y0172554D01*
X0434776Y0172465D01*
X0434676Y0172372D01*
X0434579Y0172278D01*
X0434485Y0172180D01*
X0434394Y0172080D01*
X0434305Y0171977D01*
X0434220Y0171872D01*
X0434137Y0171764D01*
X0434058Y0171654D01*
X0433981Y0171542D01*
X0433908Y0171428D01*
X0433838Y0171312D01*
X0433772Y0171194D01*
X0433708Y0171074D01*
X0433648Y0170952D01*
X0433592Y0170829D01*
X0433539Y0170704D01*
X0433490Y0170578D01*
X0433444Y0170450D01*
X0444493Y0162000D02*
X0444488Y0161540D01*
X0444471Y0161080D01*
X0444444Y0160620D01*
X0444405Y0160161D01*
X0444356Y0159704D01*
X0444296Y0159247D01*
X0444224Y0158793D01*
X0444142Y0158340D01*
X0444050Y0157889D01*
X0443946Y0157440D01*
X0443832Y0156994D01*
X0443707Y0156551D01*
X0443572Y0156111D01*
X0443426Y0155674D01*
X0443270Y0155241D01*
X0443103Y0154812D01*
X0442927Y0154387D01*
X0442740Y0153966D01*
X0442543Y0153550D01*
X0442544Y0153550D02*
X0442498Y0153422D01*
X0442449Y0153296D01*
X0442396Y0153171D01*
X0442340Y0153048D01*
X0442280Y0152926D01*
X0442216Y0152806D01*
X0442150Y0152688D01*
X0442080Y0152572D01*
X0442007Y0152458D01*
X0441930Y0152346D01*
X0441851Y0152236D01*
X0441768Y0152128D01*
X0441683Y0152023D01*
X0441594Y0151920D01*
X0441503Y0151820D01*
X0441409Y0151722D01*
X0441312Y0151628D01*
X0441212Y0151535D01*
X0441110Y0151446D01*
X0441006Y0151360D01*
X0440899Y0151276D01*
X0440790Y0151196D01*
X0440678Y0151119D01*
X0440565Y0151045D01*
X0440449Y0150974D01*
X0440332Y0150906D01*
X0440212Y0150842D01*
X0440091Y0150781D01*
X0439968Y0150724D01*
X0439844Y0150670D01*
X0439718Y0150619D01*
X0439590Y0150573D01*
X0439462Y0150529D01*
X0439332Y0150490D01*
X0439201Y0150454D01*
X0439070Y0150422D01*
X0438937Y0150393D01*
X0438804Y0150369D01*
X0438670Y0150348D01*
X0438535Y0150331D01*
X0438400Y0150317D01*
X0438265Y0150308D01*
X0438130Y0150302D01*
X0437994Y0150300D01*
X0437858Y0150302D01*
X0437723Y0150308D01*
X0437588Y0150317D01*
X0437453Y0150331D01*
X0437318Y0150348D01*
X0437184Y0150369D01*
X0437051Y0150393D01*
X0436918Y0150422D01*
X0436787Y0150454D01*
X0436656Y0150490D01*
X0436526Y0150529D01*
X0436398Y0150573D01*
X0436270Y0150619D01*
X0436144Y0150670D01*
X0436020Y0150724D01*
X0435897Y0150781D01*
X0435776Y0150842D01*
X0435656Y0150906D01*
X0435539Y0150974D01*
X0435423Y0151045D01*
X0435310Y0151119D01*
X0435198Y0151196D01*
X0435089Y0151276D01*
X0434982Y0151360D01*
X0434878Y0151446D01*
X0434776Y0151535D01*
X0434676Y0151628D01*
X0434579Y0151722D01*
X0434485Y0151820D01*
X0434394Y0151920D01*
X0434305Y0152023D01*
X0434220Y0152128D01*
X0434137Y0152236D01*
X0434058Y0152346D01*
X0433981Y0152458D01*
X0433908Y0152572D01*
X0433838Y0152688D01*
X0433772Y0152806D01*
X0433708Y0152926D01*
X0433648Y0153048D01*
X0433592Y0153171D01*
X0433539Y0153296D01*
X0433490Y0153422D01*
X0433444Y0153550D01*
X0425444Y0150300D02*
X0412444Y0150300D01*
X0418944Y0150300D02*
X0418944Y0173700D01*
X0412444Y0168500D01*
X0405789Y0173700D02*
X0405789Y0150300D01*
X0390189Y0150300D02*
X0390189Y0173700D01*
X0397989Y0160700D01*
X0405789Y0173700D01*
X0442543Y0170450D02*
X0442740Y0170034D01*
X0442927Y0169613D01*
X0443103Y0169188D01*
X0443270Y0168759D01*
X0443426Y0168326D01*
X0443572Y0167889D01*
X0443707Y0167449D01*
X0443832Y0167006D01*
X0443946Y0166560D01*
X0444050Y0166111D01*
X0444142Y0165660D01*
X0444224Y0165207D01*
X0444296Y0164753D01*
X0444356Y0164296D01*
X0444405Y0163839D01*
X0444444Y0163380D01*
X0444471Y0162920D01*
X0444488Y0162460D01*
X0444493Y0162000D01*
X0431494Y0162000D02*
X0431499Y0162460D01*
X0431516Y0162920D01*
X0431543Y0163380D01*
X0431582Y0163839D01*
X0431631Y0164296D01*
X0431691Y0164753D01*
X0431763Y0165207D01*
X0431845Y0165660D01*
X0431937Y0166111D01*
X0432041Y0166560D01*
X0432155Y0167006D01*
X0432280Y0167449D01*
X0432415Y0167889D01*
X0432561Y0168326D01*
X0432717Y0168759D01*
X0432884Y0169188D01*
X0433060Y0169613D01*
X0433247Y0170034D01*
X0433444Y0170450D01*
X0461593Y0163300D02*
X0461703Y0163408D01*
X0461811Y0163518D01*
X0461916Y0163631D01*
X0462018Y0163747D01*
X0462117Y0163865D01*
X0462214Y0163985D01*
X0462307Y0164108D01*
X0462397Y0164233D01*
X0462485Y0164360D01*
X0462569Y0164489D01*
X0462649Y0164620D01*
X0462727Y0164754D01*
X0462801Y0164889D01*
X0462872Y0165026D01*
X0462940Y0165164D01*
X0463004Y0165304D01*
X0463065Y0165446D01*
X0463122Y0165589D01*
X0463176Y0165734D01*
X0463226Y0165880D01*
X0463273Y0166026D01*
X0463315Y0166175D01*
X0463355Y0166324D01*
X0463390Y0166474D01*
X0463422Y0166624D01*
X0463451Y0166776D01*
X0463475Y0166928D01*
X0463496Y0167081D01*
X0463513Y0167234D01*
X0463526Y0167388D01*
X0463535Y0167542D01*
X0463541Y0167696D01*
X0463543Y0167850D01*
X0463544Y0167850D02*
X0463542Y0168001D01*
X0463536Y0168151D01*
X0463527Y0168301D01*
X0463513Y0168452D01*
X0463496Y0168601D01*
X0463474Y0168750D01*
X0463449Y0168899D01*
X0463420Y0169047D01*
X0463388Y0169194D01*
X0463351Y0169340D01*
X0463311Y0169485D01*
X0463267Y0169629D01*
X0463219Y0169772D01*
X0463168Y0169914D01*
X0463113Y0170054D01*
X0463054Y0170193D01*
X0462992Y0170330D01*
X0462927Y0170465D01*
X0462858Y0170599D01*
X0462785Y0170731D01*
X0462709Y0170862D01*
X0462630Y0170990D01*
X0462548Y0171116D01*
X0462462Y0171240D01*
X0462373Y0171361D01*
X0462281Y0171481D01*
X0462186Y0171597D01*
X0462088Y0171712D01*
X0461987Y0171824D01*
X0461883Y0171933D01*
X0461777Y0172039D01*
X0461668Y0172143D01*
X0461556Y0172244D01*
X0461441Y0172342D01*
X0461325Y0172437D01*
X0461205Y0172529D01*
X0461084Y0172618D01*
X0460960Y0172704D01*
X0460834Y0172786D01*
X0460706Y0172865D01*
X0460575Y0172941D01*
X0460443Y0173014D01*
X0460309Y0173083D01*
X0460174Y0173148D01*
X0460037Y0173210D01*
X0459898Y0173269D01*
X0459758Y0173324D01*
X0459616Y0173375D01*
X0459473Y0173423D01*
X0459329Y0173467D01*
X0459184Y0173507D01*
X0459038Y0173544D01*
X0458891Y0173576D01*
X0458743Y0173605D01*
X0458594Y0173630D01*
X0458445Y0173652D01*
X0458296Y0173669D01*
X0458145Y0173683D01*
X0457995Y0173692D01*
X0457845Y0173698D01*
X0457694Y0173700D01*
X0469594Y0168500D02*
X0476094Y0173700D01*
X0384834Y0150300D02*
X0377034Y0173700D01*
X0369234Y0150300D01*
X0357349Y0150300D02*
X0350849Y0150300D01*
X0350849Y0173700D01*
X0357349Y0173700D01*
X0357509Y0173698D01*
X0357668Y0173692D01*
X0357827Y0173682D01*
X0357986Y0173669D01*
X0358145Y0173651D01*
X0358303Y0173630D01*
X0358460Y0173604D01*
X0358617Y0173575D01*
X0358773Y0173542D01*
X0358928Y0173505D01*
X0359083Y0173465D01*
X0359236Y0173420D01*
X0359388Y0173372D01*
X0359539Y0173320D01*
X0359688Y0173264D01*
X0359836Y0173205D01*
X0359983Y0173142D01*
X0360128Y0173076D01*
X0360271Y0173006D01*
X0360413Y0172932D01*
X0360553Y0172856D01*
X0360691Y0172775D01*
X0360826Y0172692D01*
X0360960Y0172605D01*
X0361092Y0172514D01*
X0361221Y0172421D01*
X0361348Y0172324D01*
X0361473Y0172225D01*
X0361595Y0172122D01*
X0361714Y0172016D01*
X0361831Y0171908D01*
X0361945Y0171796D01*
X0362057Y0171682D01*
X0362165Y0171565D01*
X0362271Y0171446D01*
X0362374Y0171324D01*
X0362473Y0171199D01*
X0362570Y0171072D01*
X0362663Y0170943D01*
X0362754Y0170811D01*
X0362841Y0170677D01*
X0362924Y0170542D01*
X0363005Y0170404D01*
X0363081Y0170264D01*
X0363155Y0170122D01*
X0363225Y0169979D01*
X0363291Y0169834D01*
X0363354Y0169687D01*
X0363413Y0169539D01*
X0363469Y0169390D01*
X0363521Y0169239D01*
X0363569Y0169087D01*
X0363614Y0168934D01*
X0363654Y0168779D01*
X0363691Y0168624D01*
X0363724Y0168468D01*
X0363753Y0168311D01*
X0363779Y0168154D01*
X0363800Y0167996D01*
X0363818Y0167837D01*
X0363831Y0167678D01*
X0363841Y0167519D01*
X0363847Y0167360D01*
X0363849Y0167200D01*
X0363849Y0156800D01*
X0363847Y0156640D01*
X0363841Y0156481D01*
X0363831Y0156322D01*
X0363818Y0156163D01*
X0363800Y0156004D01*
X0363779Y0155846D01*
X0363753Y0155689D01*
X0363724Y0155532D01*
X0363691Y0155376D01*
X0363654Y0155221D01*
X0363614Y0155066D01*
X0363569Y0154913D01*
X0363521Y0154761D01*
X0363469Y0154610D01*
X0363413Y0154461D01*
X0363354Y0154313D01*
X0363291Y0154166D01*
X0363225Y0154021D01*
X0363155Y0153878D01*
X0363081Y0153736D01*
X0363005Y0153596D01*
X0362924Y0153458D01*
X0362841Y0153323D01*
X0362754Y0153189D01*
X0362663Y0153057D01*
X0362570Y0152928D01*
X0362473Y0152801D01*
X0362374Y0152676D01*
X0362271Y0152554D01*
X0362165Y0152435D01*
X0362057Y0152318D01*
X0361945Y0152204D01*
X0361831Y0152092D01*
X0361714Y0151984D01*
X0361595Y0151878D01*
X0361473Y0151775D01*
X0361348Y0151676D01*
X0361221Y0151579D01*
X0361092Y0151486D01*
X0360960Y0151395D01*
X0360826Y0151308D01*
X0360691Y0151225D01*
X0360553Y0151144D01*
X0360413Y0151068D01*
X0360271Y0150994D01*
X0360128Y0150924D01*
X0359983Y0150858D01*
X0359836Y0150795D01*
X0359688Y0150736D01*
X0359539Y0150680D01*
X0359388Y0150628D01*
X0359236Y0150580D01*
X0359083Y0150535D01*
X0358928Y0150495D01*
X0358773Y0150458D01*
X0358617Y0150425D01*
X0358460Y0150396D01*
X0358303Y0150370D01*
X0358145Y0150349D01*
X0357986Y0150331D01*
X0357827Y0150318D01*
X0357668Y0150308D01*
X0357509Y0150302D01*
X0357349Y0150300D01*
X0371184Y0156150D02*
X0382884Y0156150D01*
D15*
X0246800Y0236450D03*
X0246800Y0247550D03*
X0149300Y0250050D03*
X0149300Y0238950D03*
X0136800Y0238950D03*
X0136800Y0250050D03*
X0171800Y0155050D03*
X0171800Y0143950D03*
D16*
X0181347Y0143496D02*
X0181347Y0155504D01*
X0187253Y0155504D02*
X0187253Y0143496D01*
X0193076Y0082511D02*
X0188476Y0080978D01*
X0193076Y0079444D01*
X0191926Y0079828D02*
X0191926Y0082128D01*
X0193076Y0077756D02*
X0193076Y0075200D01*
X0190521Y0077372D01*
X0188477Y0076606D02*
X0188479Y0076532D01*
X0188484Y0076458D01*
X0188494Y0076384D01*
X0188507Y0076311D01*
X0188523Y0076238D01*
X0188544Y0076167D01*
X0188568Y0076097D01*
X0188595Y0076028D01*
X0188626Y0075960D01*
X0188660Y0075894D01*
X0188697Y0075830D01*
X0188738Y0075768D01*
X0188782Y0075707D01*
X0188828Y0075650D01*
X0188878Y0075594D01*
X0188930Y0075541D01*
X0188985Y0075491D01*
X0189042Y0075444D01*
X0189102Y0075400D01*
X0189164Y0075358D01*
X0189227Y0075320D01*
X0189293Y0075285D01*
X0189360Y0075254D01*
X0189429Y0075226D01*
X0189499Y0075201D01*
X0190520Y0077372D02*
X0190473Y0077419D01*
X0190423Y0077463D01*
X0190371Y0077505D01*
X0190317Y0077544D01*
X0190261Y0077579D01*
X0190203Y0077612D01*
X0190143Y0077642D01*
X0190082Y0077668D01*
X0190019Y0077691D01*
X0189955Y0077710D01*
X0189891Y0077726D01*
X0189825Y0077739D01*
X0189759Y0077748D01*
X0189693Y0077753D01*
X0189626Y0077755D01*
X0189626Y0077756D02*
X0189559Y0077754D01*
X0189492Y0077748D01*
X0189426Y0077739D01*
X0189361Y0077725D01*
X0189296Y0077708D01*
X0189233Y0077687D01*
X0189171Y0077662D01*
X0189110Y0077634D01*
X0189051Y0077602D01*
X0188994Y0077567D01*
X0188939Y0077528D01*
X0188887Y0077487D01*
X0188837Y0077442D01*
X0188790Y0077395D01*
X0188745Y0077345D01*
X0188704Y0077293D01*
X0188665Y0077238D01*
X0188630Y0077181D01*
X0188598Y0077122D01*
X0188570Y0077061D01*
X0188545Y0076999D01*
X0188524Y0076936D01*
X0188507Y0076871D01*
X0188493Y0076806D01*
X0188484Y0076740D01*
X0188478Y0076673D01*
X0188476Y0076606D01*
X0191032Y0072489D02*
X0193076Y0072489D01*
X0192054Y0073256D02*
X0192054Y0070700D01*
X0188476Y0071722D01*
X0188476Y0067478D02*
X0193076Y0069011D01*
X0191926Y0068628D02*
X0191926Y0066328D01*
X0193076Y0065944D02*
X0188476Y0067478D01*
X0191032Y0063489D02*
X0193076Y0063489D01*
X0192054Y0064256D02*
X0192054Y0061700D01*
X0188476Y0062722D01*
X0188476Y0059756D02*
X0193076Y0058478D01*
X0188987Y0057200D02*
X0188476Y0057200D01*
X0188476Y0059756D01*
X0184546Y0048703D02*
X0196554Y0048703D01*
X0196554Y0042797D02*
X0184546Y0042797D01*
X0074753Y0105996D02*
X0074753Y0118004D01*
X0068847Y0118004D02*
X0068847Y0105996D01*
X0158847Y0238496D02*
X0158847Y0250504D01*
X0164753Y0250504D02*
X0164753Y0238496D01*
X0230796Y0364047D02*
X0242804Y0364047D01*
X0242804Y0369953D02*
X0230796Y0369953D01*
D17*
X0161800Y0249815D03*
X0161800Y0239185D03*
X0184300Y0154815D03*
X0184300Y0144185D03*
X0071800Y0117315D03*
X0071800Y0106685D03*
D18*
X0185235Y0045750D03*
X0195865Y0045750D03*
X0231485Y0367000D03*
X0242115Y0367000D03*
D19*
X0181426Y0250740D03*
X0181426Y0243260D03*
X0172174Y0243260D03*
X0172174Y0247000D03*
X0172174Y0250740D03*
D20*
X0181250Y0262000D03*
X0192350Y0262000D03*
D21*
X0146800Y0339500D03*
X0146800Y0349500D03*
X0136800Y0349500D03*
X0136800Y0339500D03*
X0411800Y0337000D03*
X0421800Y0337000D03*
X0431800Y0337000D03*
X0441800Y0337000D03*
X0486800Y0337000D03*
X0496800Y0337000D03*
X0506800Y0337000D03*
X0516800Y0337000D03*
X0561800Y0337000D03*
X0571800Y0337000D03*
X0581800Y0337000D03*
X0591800Y0337000D03*
X0111800Y0082000D03*
X0101800Y0082000D03*
X0091800Y0082000D03*
X0081800Y0082000D03*
X0071800Y0082000D03*
X0061800Y0082000D03*
X0316800Y0022000D03*
X0326800Y0022000D03*
X0336800Y0022000D03*
D22*
X0204015Y0054500D03*
X0204015Y0059500D03*
X0204015Y0064500D03*
X0204015Y0069500D03*
X0204015Y0074500D03*
X0204015Y0079500D03*
X0204015Y0084500D03*
X0204015Y0089500D03*
X0177538Y0089500D03*
X0177538Y0084500D03*
X0177538Y0079500D03*
X0177538Y0074500D03*
X0177538Y0069500D03*
X0177538Y0064500D03*
X0177538Y0059500D03*
X0177538Y0054500D03*
D23*
X0200619Y0034213D03*
X0204556Y0034213D03*
X0208493Y0034213D03*
X0212430Y0034213D03*
X0216367Y0034213D03*
X0220304Y0034213D03*
X0224241Y0034213D03*
X0228178Y0034213D03*
X0232115Y0034213D03*
X0236052Y0034213D03*
X0239989Y0034213D03*
X0243926Y0034213D03*
X0247863Y0034213D03*
X0251800Y0034213D03*
X0255737Y0034213D03*
X0259674Y0034213D03*
D24*
X0278808Y0040898D02*
X0296721Y0040898D01*
X0296721Y0034598D01*
X0295737Y0034598D01*
X0295737Y0009402D01*
X0296721Y0009402D01*
X0296721Y0003102D01*
X0278808Y0003102D01*
X0278808Y0040898D01*
D25*
X0284517Y0034992D03*
M02*
