G75*
%MOIN*%
%OFA0B0*%
%FSLAX25Y25*%
%IPPOS*%
%LPD*%
%AMOC8*
5,1,8,0,0,1.08239X$1,22.5*
%
%ADD10OC8,0.08600*%
%ADD11R,0.01575X0.05512*%
%ADD12R,0.07480X0.09252*%
%ADD13C,0.06000*%
%ADD14R,0.08674X0.07899*%
%ADD15R,0.07899X0.08674*%
%ADD16OC8,0.06000*%
%ADD17C,0.18800*%
D10*
X0095300Y0027200D03*
X0117700Y0027200D03*
X0137100Y0038400D03*
X0075900Y0038400D03*
X0106500Y0053843D03*
X0064700Y0057800D03*
X0093373Y0076579D03*
X0119627Y0076579D03*
X0148300Y0080200D03*
X0137100Y0099600D03*
X0117700Y0110800D03*
X0095300Y0110800D03*
X0075900Y0099600D03*
X0064700Y0080200D03*
X0148300Y0057800D03*
D11*
X0362472Y0103295D03*
X0366409Y0103295D03*
X0370346Y0103295D03*
X0374283Y0103295D03*
X0378220Y0103295D03*
X0382157Y0103295D03*
X0386094Y0103295D03*
X0390031Y0103295D03*
X0393969Y0103295D03*
X0397906Y0103295D03*
X0401843Y0103295D03*
X0405780Y0103295D03*
X0409717Y0103295D03*
X0413654Y0103295D03*
X0417591Y0103295D03*
X0421528Y0103295D03*
D12*
X0430976Y0090500D03*
X0353024Y0090500D03*
D13*
X0383900Y0043500D02*
X0389100Y0043500D01*
X0423900Y0043500D02*
X0429100Y0043500D01*
X0463900Y0043500D02*
X0469100Y0043500D01*
X0503900Y0043500D02*
X0509100Y0043500D01*
X0509100Y0033500D02*
X0503900Y0033500D01*
X0469100Y0033500D02*
X0463900Y0033500D01*
X0429100Y0033500D02*
X0423900Y0033500D01*
X0389100Y0033500D02*
X0383900Y0033500D01*
X0383900Y0023500D02*
X0389100Y0023500D01*
X0423900Y0023500D02*
X0429100Y0023500D01*
X0463900Y0023500D02*
X0469100Y0023500D01*
X0503900Y0023500D02*
X0509100Y0023500D01*
X0583900Y0023500D02*
X0589100Y0023500D01*
X0589100Y0033500D02*
X0583900Y0033500D01*
X0583900Y0043500D02*
X0589100Y0043500D01*
X0309100Y0043500D02*
X0303900Y0043500D01*
X0303900Y0033500D02*
X0309100Y0033500D01*
X0309100Y0023500D02*
X0303900Y0023500D01*
D14*
X0281500Y0027488D03*
X0281500Y0038512D03*
X0331500Y0038512D03*
X0366500Y0038512D03*
X0406500Y0038512D03*
X0446500Y0038512D03*
X0486500Y0038512D03*
X0526500Y0038512D03*
X0526500Y0027488D03*
X0486500Y0027488D03*
X0446500Y0027488D03*
X0406500Y0027488D03*
X0366500Y0027488D03*
X0331500Y0027488D03*
D15*
X0550988Y0044000D03*
X0562012Y0044000D03*
D16*
X0316500Y0038500D03*
X0296500Y0038500D03*
X0296500Y0028500D03*
X0316500Y0028500D03*
D17*
X0026500Y0019000D03*
X0026500Y0119000D03*
X0566500Y0119000D03*
X0566500Y0069000D03*
X0566500Y0019000D03*
M02*
