G75*
%MOIN*%
%OFA0B0*%
%FSLAX25Y25*%
%IPPOS*%
%LPD*%
%AMOC8*
5,1,8,0,0,1.08239X$1,22.5*
%
%ADD10OC8,0.07800*%
%ADD11R,0.01181X0.05118*%
%ADD12R,0.07087X0.08661*%
%ADD13C,0.05200*%
%ADD14R,0.07874X0.07099*%
%ADD15R,0.07099X0.07874*%
%ADD16OC8,0.05200*%
%ADD17C,0.01000*%
%ADD18C,0.02978*%
%ADD19C,0.00787*%
%ADD20C,0.18000*%
D10*
X0095300Y0027200D03*
X0117700Y0027200D03*
X0137100Y0038400D03*
X0075900Y0038400D03*
X0106500Y0053843D03*
X0064700Y0057800D03*
X0093373Y0076579D03*
X0119627Y0076579D03*
X0148300Y0080200D03*
X0137100Y0099600D03*
X0117700Y0110800D03*
X0095300Y0110800D03*
X0075900Y0099600D03*
X0064700Y0080200D03*
X0148300Y0057800D03*
D11*
X0362472Y0103295D03*
X0366409Y0103295D03*
X0370346Y0103295D03*
X0374283Y0103295D03*
X0378220Y0103295D03*
X0382157Y0103295D03*
X0386094Y0103295D03*
X0390031Y0103295D03*
X0393969Y0103295D03*
X0397906Y0103295D03*
X0401843Y0103295D03*
X0405780Y0103295D03*
X0409717Y0103295D03*
X0413654Y0103295D03*
X0417591Y0103295D03*
X0421528Y0103295D03*
D12*
X0430976Y0090500D03*
X0353024Y0090500D03*
D13*
X0383900Y0043500D02*
X0389100Y0043500D01*
X0423900Y0043500D02*
X0429100Y0043500D01*
X0463900Y0043500D02*
X0469100Y0043500D01*
X0503900Y0043500D02*
X0509100Y0043500D01*
X0509100Y0033500D02*
X0503900Y0033500D01*
X0469100Y0033500D02*
X0463900Y0033500D01*
X0429100Y0033500D02*
X0423900Y0033500D01*
X0389100Y0033500D02*
X0383900Y0033500D01*
X0383900Y0023500D02*
X0389100Y0023500D01*
X0423900Y0023500D02*
X0429100Y0023500D01*
X0463900Y0023500D02*
X0469100Y0023500D01*
X0503900Y0023500D02*
X0509100Y0023500D01*
X0583900Y0023500D02*
X0589100Y0023500D01*
X0589100Y0033500D02*
X0583900Y0033500D01*
X0583900Y0043500D02*
X0589100Y0043500D01*
X0309100Y0043500D02*
X0303900Y0043500D01*
X0303900Y0033500D02*
X0309100Y0033500D01*
X0309100Y0023500D02*
X0303900Y0023500D01*
D14*
X0281500Y0027488D03*
X0281500Y0038512D03*
X0331500Y0038512D03*
X0366500Y0038512D03*
X0406500Y0038512D03*
X0446500Y0038512D03*
X0486500Y0038512D03*
X0526500Y0038512D03*
X0526500Y0027488D03*
X0486500Y0027488D03*
X0446500Y0027488D03*
X0406500Y0027488D03*
X0366500Y0027488D03*
X0331500Y0027488D03*
D15*
X0550988Y0044000D03*
X0562012Y0044000D03*
D16*
X0316500Y0038500D03*
X0296500Y0038500D03*
X0296500Y0028500D03*
X0316500Y0028500D03*
D17*
X0331500Y0027488D02*
X0331500Y0024000D01*
X0306500Y0023500D02*
X0282000Y0023500D01*
X0281500Y0024000D01*
X0281500Y0027488D01*
X0301500Y0038500D02*
X0306500Y0033500D01*
X0311500Y0038500D01*
X0316500Y0038500D01*
X0331488Y0038500D01*
X0331500Y0038512D01*
X0301500Y0038500D02*
X0296500Y0038500D01*
X0281500Y0038512D02*
X0137212Y0038512D01*
X0137100Y0038400D01*
X0106500Y0053843D02*
X0106500Y0111500D01*
X0114000Y0119000D01*
X0364000Y0119000D01*
X0374283Y0108717D01*
X0374283Y0103295D01*
X0370346Y0103295D02*
X0370346Y0082846D01*
X0366500Y0079000D01*
X0149500Y0079000D01*
X0148300Y0080200D01*
X0149500Y0079000D01*
X0125250Y0071600D02*
X0119627Y0076579D01*
X0125250Y0071600D02*
X0126500Y0071500D01*
X0371500Y0071500D01*
X0378220Y0078220D01*
X0378220Y0103295D01*
X0382157Y0103295D02*
X0382157Y0054079D01*
X0366591Y0038512D01*
X0366500Y0038512D01*
X0386094Y0043906D02*
X0386094Y0103295D01*
X0390031Y0103295D02*
X0390031Y0054980D01*
X0392506Y0052506D02*
X0406500Y0038512D01*
X0426500Y0043500D02*
X0393969Y0076031D01*
X0393969Y0103295D01*
X0397906Y0103295D02*
X0397906Y0087106D01*
X0446500Y0038512D01*
X0466500Y0043500D02*
X0443500Y0066500D01*
X0421500Y0066500D01*
X0401843Y0086157D01*
X0401843Y0103295D01*
X0405780Y0103295D02*
X0405780Y0087750D01*
X0405780Y0087220D01*
X0422750Y0070250D01*
X0451500Y0070250D01*
X0484000Y0037750D01*
X0484762Y0038512D01*
X0486500Y0038512D01*
X0506500Y0033500D02*
X0512512Y0027488D01*
X0526500Y0027488D01*
X0506500Y0023500D02*
X0506000Y0024000D01*
X0486500Y0024000D01*
X0486500Y0027488D01*
X0466500Y0023500D02*
X0466000Y0024000D01*
X0446500Y0024000D01*
X0446500Y0027488D01*
X0426500Y0023500D02*
X0425000Y0024000D01*
X0406500Y0024000D01*
X0406500Y0027488D01*
X0386500Y0023500D02*
X0386000Y0024000D01*
X0366500Y0024000D01*
X0366500Y0027488D01*
X0480000Y0070000D02*
X0506500Y0043500D01*
X0526500Y0038512D02*
X0487262Y0077750D01*
X0426500Y0077750D01*
X0413654Y0090596D01*
X0413654Y0103295D01*
X0417591Y0103295D02*
X0417591Y0090409D01*
X0426500Y0081500D01*
X0513488Y0081500D01*
X0550988Y0044000D01*
X0562012Y0044000D02*
X0586000Y0044000D01*
X0586500Y0043500D01*
X0596500Y0043500D02*
X0596500Y0061500D01*
X0574000Y0084000D01*
X0427750Y0084000D01*
X0421500Y0090250D01*
X0421500Y0091500D01*
X0421528Y0091528D01*
X0421528Y0103295D01*
X0409717Y0103295D02*
X0409717Y0088283D01*
X0424000Y0074000D01*
X0476000Y0074000D01*
X0480000Y0070000D01*
X0478500Y0071500D01*
X0425250Y0074000D02*
X0424000Y0074000D01*
X0405780Y0087220D02*
X0405780Y0087750D01*
X0366409Y0103295D02*
X0366409Y0106591D01*
X0361500Y0111500D01*
X0118400Y0111500D01*
X0117700Y0110800D01*
X0331500Y0104000D02*
X0331500Y0097750D01*
X0332205Y0103295D02*
X0331500Y0104000D01*
X0332205Y0103295D02*
X0362472Y0103295D01*
X0586500Y0033500D02*
X0596500Y0043500D01*
D18*
X0331500Y0029000D03*
X0331500Y0024000D03*
X0331500Y0097750D03*
X0331500Y0104000D03*
D19*
X0390031Y0054980D02*
X0392506Y0052506D01*
X0386094Y0043906D02*
X0386500Y0043500D01*
D20*
X0026500Y0019000D03*
X0026500Y0119000D03*
X0566500Y0119000D03*
X0566500Y0069000D03*
X0566500Y0019000D03*
M02*
