%
M48
M72
T01C0.01378
T02C0.03200
T03C0.05200
T04C0.14000
%
T01
X331500Y24000
X331500Y29000
X331500Y97750
X331500Y104000
T02
X306500Y43500
X296500Y38500
X306500Y33500
X316500Y38500
X316500Y28500
X306500Y23500
X296500Y28500
X386500Y23500
X426500Y23500
X426500Y33500
X386500Y33500
X386500Y43500
X426500Y43500
X466500Y43500
X506500Y43500
X506500Y33500
X466500Y33500
X466500Y23500
X506500Y23500
X586500Y23500
X586500Y33500
X586500Y43500
T03
X148300Y57800
X106500Y53843
X64700Y57800
X75900Y38400
X95300Y27200
X117700Y27200
X137100Y38400
X119627Y76579
X93373Y76579
X64700Y80200
X75900Y99600
X95300Y110800
X117700Y110800
X137100Y99600
X148300Y80200
T04
X26500Y19000
X26500Y119000
X566500Y119000
X566500Y69000
X566500Y19000
M30
