G75*
%MOIN*%
%OFA0B0*%
%FSLAX25Y25*%
%IPPOS*%
%LPD*%
%AMOC8*
5,1,8,0,0,1.08239X$1,22.5*
%
%ADD10C,0.08477*%
%ADD11C,0.13461*%
%ADD12R,0.06737X0.06737*%
%ADD13C,0.06737*%
%ADD14C,0.26800*%
%ADD15C,0.07887*%
%ADD16C,0.10249*%
%ADD17C,0.07099*%
%ADD18C,0.06400*%
%ADD19R,0.06400X0.06400*%
%ADD20C,0.13398*%
%ADD21R,0.07800X0.07800*%
%ADD22C,0.05950*%
%ADD23C,0.13792*%
%ADD24R,0.08674X0.07899*%
%ADD25R,0.08674X0.06706*%
%ADD26R,0.06706X0.08674*%
%ADD27R,0.05524X0.02965*%
%ADD28R,0.07899X0.08674*%
%ADD29C,0.06800*%
%ADD30R,0.06706X0.03162*%
%ADD31R,0.01575X0.05512*%
%ADD32R,0.07480X0.09252*%
%ADD33C,0.05200*%
%ADD34C,0.07400*%
%ADD35OC8,0.06800*%
D10*
X0270776Y0354362D03*
X0281800Y0354362D03*
X0460776Y0354362D03*
X0471800Y0354362D03*
X0535776Y0354362D03*
X0546800Y0354362D03*
D11*
X0527509Y0375031D03*
X0491091Y0375031D03*
X0452509Y0375031D03*
X0566091Y0375031D03*
X0301091Y0375031D03*
X0262509Y0375031D03*
D12*
X0151721Y0062000D03*
D13*
X0141721Y0062000D03*
X0141721Y0072000D03*
X0151721Y0072000D03*
X0151721Y0082000D03*
X0141721Y0082000D03*
X0141721Y0092000D03*
X0151721Y0092000D03*
X0151721Y0102000D03*
X0141721Y0102000D03*
X0141721Y0112000D03*
X0151721Y0112000D03*
X0151721Y0122000D03*
X0141721Y0122000D03*
X0141721Y0132000D03*
X0151721Y0132000D03*
X0151721Y0142000D03*
X0141721Y0142000D03*
X0141721Y0152000D03*
X0151721Y0152000D03*
X0151721Y0162000D03*
X0141721Y0162000D03*
X0141721Y0172000D03*
X0151721Y0172000D03*
X0151721Y0182000D03*
X0141721Y0182000D03*
X0166721Y0212000D03*
X0176721Y0212000D03*
X0186721Y0212000D03*
X0196721Y0212000D03*
X0206721Y0212000D03*
X0216721Y0212000D03*
X0226721Y0212000D03*
X0236721Y0212000D03*
X0246721Y0212000D03*
X0256721Y0212000D03*
X0616721Y0177000D03*
X0616721Y0167000D03*
X0616721Y0157000D03*
X0616721Y0147000D03*
X0656721Y0042000D03*
X0656721Y0032000D03*
X0656721Y0022000D03*
X0656721Y0012000D03*
X0656721Y0282000D03*
X0656721Y0292000D03*
X0656721Y0302000D03*
X0656721Y0312000D03*
D14*
X0016800Y0022000D03*
X0146721Y0022000D03*
X0606721Y0022000D03*
X0686721Y0022000D03*
X0686721Y0302000D03*
X0606721Y0302000D03*
X0146721Y0302000D03*
X0016800Y0302000D03*
D15*
X0154320Y0377020D03*
X0376800Y0352709D03*
X0376800Y0332709D03*
X0641800Y0332709D03*
X0641800Y0352709D03*
D16*
X0626800Y0332709D03*
X0656800Y0332709D03*
X0391800Y0332709D03*
X0361800Y0332709D03*
X0201800Y0352000D03*
X0186814Y0336954D03*
X0171800Y0354500D03*
D17*
X0201800Y0369500D03*
X0171800Y0389500D03*
X0361800Y0387709D03*
X0391800Y0367709D03*
X0626800Y0387709D03*
X0656800Y0367709D03*
D18*
X0110757Y0163906D03*
X0100757Y0163906D03*
X0090757Y0163906D03*
X0080757Y0163906D03*
X0070757Y0163906D03*
X0060757Y0163906D03*
X0050757Y0163906D03*
X0040757Y0163906D03*
X0030757Y0163906D03*
X0020757Y0163906D03*
X0020757Y0153906D03*
X0030757Y0153906D03*
X0040757Y0153906D03*
X0050757Y0153906D03*
X0060757Y0153906D03*
X0070757Y0153906D03*
X0080757Y0153906D03*
X0090757Y0153906D03*
X0100757Y0153906D03*
D19*
X0110757Y0153906D03*
D20*
X0112883Y0134220D03*
X0014457Y0134220D03*
X0014457Y0384220D03*
X0112883Y0384220D03*
D21*
X0176800Y0317000D03*
X0186800Y0317000D03*
X0196800Y0317000D03*
X0196800Y0277000D03*
X0186800Y0277000D03*
X0176800Y0277000D03*
X0270800Y0277000D03*
X0280800Y0277000D03*
X0290800Y0277000D03*
X0290800Y0317000D03*
X0280800Y0317000D03*
X0270800Y0317000D03*
D22*
X0196800Y0369500D03*
X0186800Y0369500D03*
X0176800Y0369500D03*
D23*
X0171800Y0384500D03*
X0201800Y0384500D03*
D24*
X0246800Y0247512D03*
X0246800Y0236488D03*
X0149300Y0238988D03*
X0149300Y0250012D03*
X0136800Y0250012D03*
X0136800Y0238988D03*
X0171800Y0155012D03*
X0171800Y0143988D03*
D25*
X0184300Y0143594D03*
X0184300Y0155406D03*
X0071800Y0117906D03*
X0071800Y0106094D03*
X0161800Y0238594D03*
X0161800Y0250406D03*
D26*
X0230894Y0367000D03*
X0242706Y0367000D03*
X0196456Y0045750D03*
X0184644Y0045750D03*
D27*
X0181918Y0243260D03*
X0181918Y0250740D03*
X0171682Y0250740D03*
X0171682Y0247000D03*
X0171682Y0243260D03*
D28*
X0181288Y0262000D03*
X0192312Y0262000D03*
D29*
X0411800Y0337000D03*
X0421800Y0337000D03*
X0431800Y0337000D03*
X0441800Y0337000D03*
X0486800Y0337000D03*
X0496800Y0337000D03*
X0506800Y0337000D03*
X0516800Y0337000D03*
X0561800Y0337000D03*
X0571800Y0337000D03*
X0581800Y0337000D03*
X0591800Y0337000D03*
X0111800Y0082000D03*
X0101800Y0082000D03*
X0091800Y0082000D03*
X0081800Y0082000D03*
X0071800Y0082000D03*
X0061800Y0082000D03*
D30*
X0177036Y0079500D03*
X0177036Y0074500D03*
X0177036Y0069500D03*
X0177036Y0064500D03*
X0177036Y0059500D03*
X0177036Y0054500D03*
X0204517Y0054500D03*
X0204517Y0059500D03*
X0204517Y0064500D03*
X0204517Y0069500D03*
X0204517Y0074500D03*
X0204517Y0079500D03*
X0204517Y0084500D03*
X0204517Y0089500D03*
X0177036Y0089500D03*
X0177036Y0084500D03*
D31*
X0200619Y0035295D03*
X0204556Y0035295D03*
X0208493Y0035295D03*
X0212430Y0035295D03*
X0216367Y0035295D03*
X0220304Y0035295D03*
X0224241Y0035295D03*
X0228178Y0035295D03*
X0232115Y0035295D03*
X0236052Y0035295D03*
X0239989Y0035295D03*
X0243926Y0035295D03*
X0247863Y0035295D03*
X0251800Y0035295D03*
X0255737Y0035295D03*
X0259674Y0035295D03*
D32*
X0269123Y0022500D03*
X0191170Y0022500D03*
D33*
X0291800Y0022000D03*
X0291800Y0032000D03*
X0291800Y0012000D03*
D34*
X0316800Y0022000D03*
X0326800Y0022000D03*
X0336800Y0022000D03*
D35*
X0146800Y0339500D03*
X0146800Y0349500D03*
X0136800Y0349500D03*
X0136800Y0339500D03*
M02*
