G04 EAGLE Gerber X2 export*
%TF.Part,Single*%
%TF.FileFunction,Other,Silk screen CMP*%
%TF.FilePolarity,Positive*%
%TF.GenerationSoftware,Autodesk,EAGLE,9.0.1*%
%TF.CreationDate,2018-08-29T03:44:48Z*%
G75*
%MOMM*%
%FSLAX34Y34*%
%LPD*%
%AMOC8*
5,1,8,0,0,1.08239X$1,22.5*%
G01*
%ADD10C,0.000000*%
%ADD11R,0.203200X0.012700*%
%ADD12R,0.342900X0.012700*%
%ADD13R,0.152400X0.012700*%
%ADD14R,0.088900X0.012700*%
%ADD15R,0.139700X0.012700*%
%ADD16R,0.076200X0.012700*%
%ADD17R,0.114300X0.012700*%
%ADD18R,0.063500X0.012700*%
%ADD19R,0.101600X0.012700*%
%ADD20R,0.127000X0.012700*%
%ADD21R,0.165100X0.012700*%
%ADD22R,0.190500X0.012700*%
%ADD23R,0.457200X0.012700*%
%ADD24R,0.508000X0.012700*%
%ADD25R,0.533400X0.012700*%
%ADD26R,0.546100X0.012700*%
%ADD27R,0.025400X0.012700*%
%ADD28R,0.012700X0.012700*%
%ADD29R,0.038100X0.012700*%
%ADD30R,0.228600X0.012700*%
%ADD31R,0.050800X0.012700*%
%ADD32R,0.393700X0.012700*%
%ADD33R,0.177800X0.012700*%
%ADD34R,0.279400X0.012700*%
%ADD35R,0.215900X0.012700*%
%ADD36R,0.254000X0.012700*%
%ADD37R,0.292100X0.012700*%
%ADD38R,0.266700X0.012700*%
%ADD39R,0.330200X0.012700*%
%ADD40R,0.241300X0.012700*%
%ADD41R,0.495300X0.012700*%
%ADD42R,0.406400X0.012700*%
%ADD43R,0.419100X0.012700*%
%ADD44R,0.317500X0.012700*%
%ADD45R,0.304800X0.012700*%
%ADD46R,0.431800X0.012700*%
%ADD47R,0.990600X0.012700*%
%ADD48R,0.825500X0.012700*%
%ADD49R,0.977900X0.012700*%
%ADD50R,0.660400X0.012700*%
%ADD51C,0.076200*%
%ADD52C,0.101600*%
%ADD53C,0.152400*%
%ADD54C,0.127000*%
%ADD55C,0.050800*%
%ADD56R,2.540000X0.635000*%
%ADD57C,0.203200*%
%ADD58C,0.609600*%
%ADD59R,0.863600X0.609600*%
%ADD60C,0.406400*%
%ADD61R,0.609600X0.863600*%
%ADD62C,0.304800*%
%ADD63R,0.635000X2.286000*%


D10*
X750000Y930000D02*
X0Y930000D01*
X0Y0D01*
D11*
X500566Y686308D03*
D12*
X500629Y686435D03*
D13*
X499296Y686562D03*
D14*
X502280Y686562D03*
D15*
X498978Y686689D03*
D16*
X502725Y686689D03*
D17*
X498724Y686816D03*
D16*
X502979Y686816D03*
D17*
X498597Y686943D03*
D18*
X503169Y686943D03*
D17*
X498470Y687070D03*
D16*
X503360Y687070D03*
D17*
X498343Y687197D03*
D16*
X503487Y687197D03*
D19*
X498280Y687324D03*
D16*
X503614Y687324D03*
D19*
X498280Y687451D03*
D16*
X503741Y687451D03*
D14*
X498216Y687578D03*
D18*
X503804Y687578D03*
D14*
X498216Y687705D03*
D18*
X503931Y687705D03*
D14*
X498216Y687832D03*
D16*
X503995Y687832D03*
D14*
X498216Y687959D03*
D16*
X503995Y687959D03*
D14*
X498216Y688086D03*
D18*
X504058Y688086D03*
D16*
X498280Y688213D03*
X504122Y688213D03*
D14*
X498343Y688340D03*
D16*
X504122Y688340D03*
X498407Y688467D03*
X504122Y688467D03*
X498534Y688594D03*
X504122Y688594D03*
X498661Y688721D03*
D14*
X504058Y688721D03*
D16*
X498788Y688848D03*
D14*
X504058Y688848D03*
D16*
X498915Y688975D03*
D19*
X503995Y688975D03*
D16*
X499169Y689102D03*
D17*
X503931Y689102D03*
D16*
X499423Y689229D03*
D20*
X503868Y689229D03*
D16*
X499677Y689356D03*
D21*
X503677Y689356D03*
D14*
X500121Y689483D03*
D22*
X503423Y689483D03*
D23*
X502090Y689610D03*
D24*
X501709Y689737D03*
D25*
X501455Y689864D03*
D26*
X501264Y689991D03*
D27*
X456243Y690118D03*
D28*
X463672Y690118D03*
X467609Y690118D03*
D27*
X474785Y690118D03*
D28*
X482214Y690118D03*
X486151Y690118D03*
D20*
X493581Y690118D03*
D26*
X501137Y690118D03*
D27*
X456243Y690245D03*
D29*
X463672Y690245D03*
X467609Y690245D03*
D27*
X474785Y690245D03*
D29*
X482214Y690245D03*
X486151Y690245D03*
D28*
X490850Y690245D03*
D30*
X493581Y690245D03*
D26*
X501010Y690245D03*
D31*
X456243Y690372D03*
D29*
X463672Y690372D03*
X467609Y690372D03*
D31*
X474785Y690372D03*
D29*
X482214Y690372D03*
X486151Y690372D03*
D27*
X490914Y690372D03*
D14*
X492501Y690372D03*
D19*
X494470Y690372D03*
D24*
X500820Y690372D03*
D31*
X456243Y690499D03*
X463736Y690499D03*
D29*
X467609Y690499D03*
D31*
X474785Y690499D03*
X482278Y690499D03*
D29*
X486151Y690499D03*
D27*
X490914Y690499D03*
D16*
X492311Y690499D03*
D19*
X494724Y690499D03*
D32*
X500248Y690499D03*
D16*
X456243Y690626D03*
D18*
X463672Y690626D03*
X467609Y690626D03*
D16*
X474785Y690626D03*
D18*
X482214Y690626D03*
X486151Y690626D03*
D29*
X490977Y690626D03*
D16*
X492057Y690626D03*
D14*
X494914Y690626D03*
D21*
X499105Y690626D03*
D16*
X456243Y690753D03*
X463736Y690753D03*
D18*
X467609Y690753D03*
D16*
X474785Y690753D03*
X482278Y690753D03*
D18*
X486151Y690753D03*
D31*
X491041Y690753D03*
D14*
X491866Y690753D03*
X495041Y690753D03*
D17*
X498851Y690753D03*
D14*
X456179Y690880D03*
X463672Y690880D03*
X467609Y690880D03*
X474721Y690880D03*
X482214Y690880D03*
X486151Y690880D03*
D15*
X491485Y690880D03*
D14*
X495168Y690880D03*
D19*
X498788Y690880D03*
X456243Y691007D03*
X463736Y691007D03*
D14*
X467609Y691007D03*
D19*
X474785Y691007D03*
X482278Y691007D03*
D14*
X486151Y691007D03*
D20*
X491422Y691007D03*
D14*
X495295Y691007D03*
X498724Y691007D03*
D17*
X456179Y691134D03*
D19*
X463736Y691134D03*
X467546Y691134D03*
D17*
X474721Y691134D03*
D19*
X482278Y691134D03*
X486088Y691134D03*
D20*
X491422Y691134D03*
D19*
X495359Y691134D03*
D16*
X498788Y691134D03*
D20*
X456243Y691261D03*
D17*
X463672Y691261D03*
X467609Y691261D03*
D20*
X474785Y691261D03*
D17*
X482214Y691261D03*
X486151Y691261D03*
X491358Y691261D03*
D19*
X495486Y691261D03*
D16*
X498788Y691261D03*
D20*
X456243Y691388D03*
X463736Y691388D03*
D17*
X467609Y691388D03*
D20*
X474785Y691388D03*
X482278Y691388D03*
D17*
X486151Y691388D03*
X491358Y691388D03*
D14*
X495549Y691388D03*
D18*
X498851Y691388D03*
D13*
X456243Y691515D03*
D15*
X463672Y691515D03*
D20*
X467546Y691515D03*
D13*
X474785Y691515D03*
D15*
X482214Y691515D03*
D20*
X486088Y691515D03*
D17*
X491358Y691515D03*
D19*
X495613Y691515D03*
D18*
X498978Y691515D03*
D19*
X455989Y691642D03*
D27*
X456878Y691642D03*
D13*
X463736Y691642D03*
D15*
X467609Y691642D03*
D19*
X474531Y691642D03*
D27*
X475420Y691642D03*
D13*
X482278Y691642D03*
D15*
X486151Y691642D03*
D19*
X491295Y691642D03*
D17*
X495676Y691642D03*
D31*
X499169Y691642D03*
D17*
X455925Y691769D03*
D29*
X456941Y691769D03*
D13*
X463736Y691769D03*
X467546Y691769D03*
D17*
X474467Y691769D03*
D29*
X475483Y691769D03*
D13*
X482278Y691769D03*
X486088Y691769D03*
D19*
X491295Y691769D03*
X495740Y691769D03*
D18*
X499359Y691769D03*
D17*
X455925Y691896D03*
D27*
X457005Y691896D03*
D17*
X463418Y691896D03*
D27*
X464371Y691896D03*
D17*
X467355Y691896D03*
D29*
X468244Y691896D03*
D17*
X474467Y691896D03*
D27*
X475547Y691896D03*
D17*
X481960Y691896D03*
D27*
X482913Y691896D03*
D17*
X485897Y691896D03*
D29*
X486786Y691896D03*
D19*
X491295Y691896D03*
D17*
X495803Y691896D03*
D14*
X499740Y691896D03*
D17*
X455798Y692023D03*
D29*
X457068Y692023D03*
D17*
X463418Y692023D03*
D29*
X464434Y692023D03*
D20*
X467292Y692023D03*
D27*
X468308Y692023D03*
D17*
X474340Y692023D03*
D29*
X475610Y692023D03*
D17*
X481960Y692023D03*
D29*
X482976Y692023D03*
D20*
X485834Y692023D03*
D27*
X486850Y692023D03*
D19*
X491295Y692023D03*
D17*
X495803Y692023D03*
D21*
X500502Y692023D03*
D17*
X455798Y692150D03*
D27*
X457132Y692150D03*
D17*
X463291Y692150D03*
D27*
X464498Y692150D03*
D17*
X467228Y692150D03*
D27*
X468308Y692150D03*
D17*
X474340Y692150D03*
D27*
X475674Y692150D03*
D17*
X481833Y692150D03*
D27*
X483040Y692150D03*
D17*
X485770Y692150D03*
D27*
X486850Y692150D03*
D19*
X491295Y692150D03*
X495867Y692150D03*
D30*
X500693Y692150D03*
D17*
X455671Y692277D03*
D27*
X457132Y692277D03*
D17*
X463291Y692277D03*
D29*
X464561Y692277D03*
D17*
X467228Y692277D03*
D29*
X468371Y692277D03*
D17*
X474213Y692277D03*
D27*
X475674Y692277D03*
D17*
X481833Y692277D03*
D29*
X483103Y692277D03*
D17*
X485770Y692277D03*
D29*
X486913Y692277D03*
D19*
X491295Y692277D03*
D17*
X495930Y692277D03*
D20*
X499931Y692277D03*
D14*
X501772Y692277D03*
D17*
X455671Y692404D03*
D27*
X457259Y692404D03*
D19*
X463228Y692404D03*
D27*
X464625Y692404D03*
D17*
X467101Y692404D03*
D27*
X468435Y692404D03*
D17*
X474213Y692404D03*
D27*
X475801Y692404D03*
D19*
X481770Y692404D03*
D27*
X483167Y692404D03*
D17*
X485643Y692404D03*
D27*
X486977Y692404D03*
D19*
X491295Y692404D03*
D17*
X495930Y692404D03*
X499613Y692404D03*
D14*
X501899Y692404D03*
D17*
X455544Y692531D03*
D27*
X457259Y692531D03*
D17*
X463164Y692531D03*
D29*
X464688Y692531D03*
D17*
X467101Y692531D03*
D27*
X468435Y692531D03*
D17*
X474086Y692531D03*
D27*
X475801Y692531D03*
D17*
X481706Y692531D03*
D29*
X483230Y692531D03*
D17*
X485643Y692531D03*
D27*
X486977Y692531D03*
D19*
X491295Y692531D03*
D17*
X495930Y692531D03*
X499486Y692531D03*
D14*
X502153Y692531D03*
D17*
X455544Y692658D03*
D27*
X457386Y692658D03*
D17*
X463164Y692658D03*
D29*
X464688Y692658D03*
D20*
X467038Y692658D03*
D27*
X468562Y692658D03*
D17*
X474086Y692658D03*
D27*
X475928Y692658D03*
D17*
X481706Y692658D03*
D29*
X483230Y692658D03*
D20*
X485580Y692658D03*
D27*
X487104Y692658D03*
D19*
X491295Y692658D03*
D20*
X495994Y692658D03*
D17*
X499359Y692658D03*
D14*
X502280Y692658D03*
D17*
X455417Y692785D03*
D27*
X457386Y692785D03*
D17*
X463037Y692785D03*
D27*
X464752Y692785D03*
D17*
X466974Y692785D03*
D27*
X468562Y692785D03*
D17*
X473959Y692785D03*
D27*
X475928Y692785D03*
D17*
X481579Y692785D03*
D27*
X483294Y692785D03*
D17*
X485516Y692785D03*
D27*
X487104Y692785D03*
D19*
X491295Y692785D03*
D20*
X495994Y692785D03*
D17*
X499232Y692785D03*
D19*
X502344Y692785D03*
D17*
X455417Y692912D03*
D27*
X457386Y692912D03*
D17*
X463037Y692912D03*
D29*
X464815Y692912D03*
D20*
X466911Y692912D03*
D29*
X468625Y692912D03*
D17*
X473959Y692912D03*
D27*
X475928Y692912D03*
D17*
X481579Y692912D03*
D29*
X483357Y692912D03*
D20*
X485453Y692912D03*
D29*
X487167Y692912D03*
D19*
X491295Y692912D03*
D17*
X496057Y692912D03*
X499105Y692912D03*
D19*
X502471Y692912D03*
X455354Y693039D03*
D27*
X457513Y693039D03*
D17*
X462910Y693039D03*
D27*
X464879Y693039D03*
D17*
X466847Y693039D03*
D27*
X468689Y693039D03*
D19*
X473896Y693039D03*
D27*
X476055Y693039D03*
D17*
X481452Y693039D03*
D27*
X483421Y693039D03*
D17*
X485389Y693039D03*
D27*
X487231Y693039D03*
D19*
X491295Y693039D03*
D17*
X496057Y693039D03*
X499105Y693039D03*
D14*
X502534Y693039D03*
D17*
X455290Y693166D03*
D27*
X457513Y693166D03*
D17*
X462910Y693166D03*
D29*
X464942Y693166D03*
D17*
X466847Y693166D03*
D27*
X468689Y693166D03*
D17*
X473832Y693166D03*
D27*
X476055Y693166D03*
D17*
X481452Y693166D03*
D29*
X483484Y693166D03*
D17*
X485389Y693166D03*
D27*
X487231Y693166D03*
D19*
X491295Y693166D03*
D17*
X496057Y693166D03*
X498978Y693166D03*
D19*
X502598Y693166D03*
X455227Y693293D03*
D27*
X457640Y693293D03*
D17*
X462910Y693293D03*
D27*
X465006Y693293D03*
D17*
X466720Y693293D03*
D29*
X468752Y693293D03*
D19*
X473769Y693293D03*
D27*
X476182Y693293D03*
D17*
X481452Y693293D03*
D27*
X483548Y693293D03*
D17*
X485262Y693293D03*
D29*
X487294Y693293D03*
D19*
X491295Y693293D03*
D17*
X496057Y693293D03*
X498978Y693293D03*
X502661Y693293D03*
X455163Y693420D03*
D27*
X457640Y693420D03*
D17*
X462783Y693420D03*
D27*
X465006Y693420D03*
D17*
X466720Y693420D03*
D27*
X468816Y693420D03*
D17*
X473705Y693420D03*
D27*
X476182Y693420D03*
D17*
X481325Y693420D03*
D27*
X483548Y693420D03*
D17*
X485262Y693420D03*
D27*
X487358Y693420D03*
D19*
X491295Y693420D03*
D17*
X496057Y693420D03*
D20*
X498915Y693420D03*
D17*
X502661Y693420D03*
D19*
X455100Y693547D03*
D27*
X457640Y693547D03*
D17*
X462783Y693547D03*
D29*
X465069Y693547D03*
D20*
X466657Y693547D03*
D27*
X468816Y693547D03*
D19*
X473642Y693547D03*
D27*
X476182Y693547D03*
D17*
X481325Y693547D03*
D29*
X483611Y693547D03*
D20*
X485199Y693547D03*
D27*
X487358Y693547D03*
D19*
X491295Y693547D03*
D17*
X496057Y693547D03*
X498851Y693547D03*
D19*
X502725Y693547D03*
D17*
X455036Y693674D03*
D27*
X457767Y693674D03*
D17*
X462656Y693674D03*
D27*
X465133Y693674D03*
D17*
X466593Y693674D03*
D29*
X468879Y693674D03*
D17*
X473578Y693674D03*
D27*
X476309Y693674D03*
D17*
X481198Y693674D03*
D27*
X483675Y693674D03*
D17*
X485135Y693674D03*
D29*
X487421Y693674D03*
D19*
X491295Y693674D03*
D20*
X495994Y693674D03*
D17*
X498851Y693674D03*
X502788Y693674D03*
X455036Y693801D03*
D27*
X457767Y693801D03*
D17*
X462656Y693801D03*
D29*
X465196Y693801D03*
D17*
X466593Y693801D03*
D27*
X468943Y693801D03*
D17*
X473578Y693801D03*
D27*
X476309Y693801D03*
D17*
X481198Y693801D03*
D29*
X483738Y693801D03*
D17*
X485135Y693801D03*
D27*
X487485Y693801D03*
D19*
X491295Y693801D03*
D20*
X495994Y693801D03*
D17*
X498851Y693801D03*
X502788Y693801D03*
X454909Y693928D03*
D27*
X457894Y693928D03*
D17*
X462529Y693928D03*
D29*
X465196Y693928D03*
D17*
X466466Y693928D03*
D27*
X468943Y693928D03*
D17*
X473451Y693928D03*
D27*
X476436Y693928D03*
D17*
X481071Y693928D03*
D29*
X483738Y693928D03*
D17*
X485008Y693928D03*
D27*
X487485Y693928D03*
D19*
X491295Y693928D03*
D20*
X495994Y693928D03*
D17*
X498851Y693928D03*
X502788Y693928D03*
X454909Y694055D03*
D27*
X457894Y694055D03*
D17*
X462529Y694055D03*
D27*
X465260Y694055D03*
D17*
X466466Y694055D03*
D27*
X469070Y694055D03*
D17*
X473451Y694055D03*
D27*
X476436Y694055D03*
D17*
X481071Y694055D03*
D27*
X483802Y694055D03*
D17*
X485008Y694055D03*
D27*
X487612Y694055D03*
D19*
X491295Y694055D03*
D20*
X495994Y694055D03*
D17*
X498851Y694055D03*
X502788Y694055D03*
D19*
X454846Y694182D03*
D27*
X457894Y694182D03*
D17*
X462529Y694182D03*
D29*
X465323Y694182D03*
D17*
X466339Y694182D03*
D27*
X469070Y694182D03*
D19*
X473388Y694182D03*
D27*
X476436Y694182D03*
D17*
X481071Y694182D03*
D29*
X483865Y694182D03*
D17*
X484881Y694182D03*
D27*
X487612Y694182D03*
D19*
X491295Y694182D03*
D20*
X495994Y694182D03*
D17*
X498851Y694182D03*
X502788Y694182D03*
X454782Y694309D03*
D27*
X458021Y694309D03*
D17*
X462402Y694309D03*
D27*
X465387Y694309D03*
D17*
X466339Y694309D03*
D27*
X469070Y694309D03*
D17*
X473324Y694309D03*
D27*
X476563Y694309D03*
D17*
X480944Y694309D03*
D27*
X483929Y694309D03*
D17*
X484881Y694309D03*
D27*
X487612Y694309D03*
D17*
X491358Y694309D03*
X495930Y694309D03*
X498851Y694309D03*
X502788Y694309D03*
D19*
X454719Y694436D03*
D27*
X458021Y694436D03*
D17*
X462402Y694436D03*
D27*
X465387Y694436D03*
D17*
X466339Y694436D03*
D27*
X469197Y694436D03*
D19*
X473261Y694436D03*
D27*
X476563Y694436D03*
D17*
X480944Y694436D03*
D27*
X483929Y694436D03*
D17*
X484881Y694436D03*
D27*
X487739Y694436D03*
D17*
X491358Y694436D03*
X495930Y694436D03*
X498851Y694436D03*
X502788Y694436D03*
X454655Y694563D03*
D27*
X458148Y694563D03*
D17*
X462275Y694563D03*
D13*
X466022Y694563D03*
D27*
X469197Y694563D03*
D17*
X473197Y694563D03*
D27*
X476690Y694563D03*
D17*
X480817Y694563D03*
D13*
X484564Y694563D03*
D27*
X487739Y694563D03*
D17*
X491358Y694563D03*
D20*
X495867Y694563D03*
D17*
X498851Y694563D03*
X502788Y694563D03*
X454655Y694690D03*
D27*
X458148Y694690D03*
D17*
X462275Y694690D03*
D15*
X466085Y694690D03*
D27*
X469197Y694690D03*
D17*
X473197Y694690D03*
D27*
X476690Y694690D03*
D17*
X480817Y694690D03*
D15*
X484627Y694690D03*
D27*
X487739Y694690D03*
D17*
X491358Y694690D03*
X495803Y694690D03*
X498851Y694690D03*
X502788Y694690D03*
X454528Y694817D03*
D29*
X458211Y694817D03*
D20*
X462212Y694817D03*
X466022Y694817D03*
D29*
X469260Y694817D03*
D17*
X473070Y694817D03*
D29*
X476753Y694817D03*
D20*
X480754Y694817D03*
X484564Y694817D03*
D29*
X487802Y694817D03*
D17*
X491358Y694817D03*
X495803Y694817D03*
D19*
X498915Y694817D03*
D17*
X502788Y694817D03*
X454528Y694944D03*
D27*
X458275Y694944D03*
D17*
X462148Y694944D03*
D20*
X466022Y694944D03*
D27*
X469324Y694944D03*
D17*
X473070Y694944D03*
D27*
X476817Y694944D03*
D17*
X480690Y694944D03*
D20*
X484564Y694944D03*
D27*
X487866Y694944D03*
D17*
X491358Y694944D03*
D19*
X495740Y694944D03*
X498915Y694944D03*
D17*
X502661Y694944D03*
X454401Y695071D03*
D27*
X458275Y695071D03*
D17*
X462148Y695071D03*
D20*
X466022Y695071D03*
D27*
X469324Y695071D03*
D17*
X472943Y695071D03*
D27*
X476817Y695071D03*
D17*
X480690Y695071D03*
D20*
X484564Y695071D03*
D27*
X487866Y695071D03*
D20*
X491422Y695071D03*
D17*
X495676Y695071D03*
D19*
X499042Y695071D03*
D17*
X502661Y695071D03*
X454401Y695198D03*
D29*
X458338Y695198D03*
D20*
X462085Y695198D03*
D17*
X465958Y695198D03*
D29*
X469387Y695198D03*
D17*
X472943Y695198D03*
D29*
X476880Y695198D03*
D20*
X480627Y695198D03*
D17*
X484500Y695198D03*
D29*
X487929Y695198D03*
D20*
X491422Y695198D03*
D19*
X495613Y695198D03*
X499042Y695198D03*
X502598Y695198D03*
D31*
X504757Y695198D03*
D20*
X454338Y695325D03*
D29*
X458338Y695325D03*
D17*
X462021Y695325D03*
X465958Y695325D03*
D27*
X469451Y695325D03*
D20*
X472880Y695325D03*
D29*
X476880Y695325D03*
D17*
X480563Y695325D03*
X484500Y695325D03*
D27*
X487993Y695325D03*
D20*
X491422Y695325D03*
D19*
X495486Y695325D03*
D14*
X499105Y695325D03*
D19*
X502598Y695325D03*
D16*
X504757Y695325D03*
D17*
X454274Y695452D03*
D29*
X458465Y695452D03*
D20*
X461958Y695452D03*
D17*
X465958Y695452D03*
D27*
X469451Y695452D03*
D17*
X472816Y695452D03*
D29*
X477007Y695452D03*
D20*
X480500Y695452D03*
D17*
X484500Y695452D03*
D27*
X487993Y695452D03*
D15*
X491485Y695452D03*
D19*
X495486Y695452D03*
D14*
X499232Y695452D03*
D17*
X502534Y695452D03*
D19*
X504757Y695452D03*
D20*
X454211Y695579D03*
D29*
X458465Y695579D03*
D20*
X461958Y695579D03*
D17*
X465831Y695579D03*
D29*
X469514Y695579D03*
D20*
X472753Y695579D03*
D29*
X477007Y695579D03*
D20*
X480500Y695579D03*
D17*
X484373Y695579D03*
D29*
X488056Y695579D03*
D15*
X491485Y695579D03*
D19*
X495359Y695579D03*
D14*
X499232Y695579D03*
D20*
X502598Y695579D03*
D19*
X504757Y695579D03*
D20*
X454211Y695706D03*
D31*
X458529Y695706D03*
D15*
X461894Y695706D03*
D17*
X465831Y695706D03*
D31*
X469578Y695706D03*
D20*
X472753Y695706D03*
D31*
X477071Y695706D03*
D15*
X480436Y695706D03*
D17*
X484373Y695706D03*
D31*
X488120Y695706D03*
D13*
X491549Y695706D03*
D19*
X495232Y695706D03*
D14*
X499359Y695706D03*
X502280Y695706D03*
D29*
X503169Y695706D03*
D17*
X504693Y695706D03*
D15*
X454147Y695833D03*
D18*
X458592Y695833D03*
D15*
X461894Y695833D03*
X465831Y695833D03*
D31*
X469578Y695833D03*
D15*
X472689Y695833D03*
D18*
X477134Y695833D03*
D15*
X480436Y695833D03*
X484373Y695833D03*
D31*
X488120Y695833D03*
D21*
X491612Y695833D03*
D19*
X495105Y695833D03*
D14*
X499486Y695833D03*
D19*
X502217Y695833D03*
D31*
X503360Y695833D03*
D20*
X504630Y695833D03*
D13*
X454084Y695960D03*
D16*
X458656Y695960D03*
D13*
X461831Y695960D03*
D15*
X465831Y695960D03*
D18*
X469641Y695960D03*
D13*
X472626Y695960D03*
D16*
X477198Y695960D03*
D13*
X480373Y695960D03*
D15*
X484373Y695960D03*
D18*
X488183Y695960D03*
D17*
X491358Y695960D03*
D31*
X492311Y695960D03*
D19*
X494978Y695960D03*
D14*
X499613Y695960D03*
X502026Y695960D03*
D11*
X504249Y695960D03*
D33*
X454084Y696087D03*
D17*
X458719Y696087D03*
D22*
X461894Y696087D03*
X465831Y696087D03*
D17*
X469641Y696087D03*
D33*
X472626Y696087D03*
D17*
X477261Y696087D03*
D22*
X480436Y696087D03*
X484373Y696087D03*
D17*
X488183Y696087D03*
D19*
X491422Y696087D03*
D29*
X492501Y696087D03*
D14*
X494787Y696087D03*
D16*
X499804Y696087D03*
D14*
X501899Y696087D03*
D33*
X504249Y696087D03*
D34*
X454084Y696214D03*
D35*
X458719Y696214D03*
D34*
X461831Y696214D03*
D36*
X465768Y696214D03*
D33*
X469578Y696214D03*
D34*
X472626Y696214D03*
D35*
X477261Y696214D03*
D34*
X480373Y696214D03*
D36*
X484310Y696214D03*
D33*
X488120Y696214D03*
D19*
X491422Y696214D03*
D31*
X492692Y696214D03*
D17*
X494533Y696214D03*
D16*
X500058Y696214D03*
D19*
X501709Y696214D03*
D13*
X504249Y696214D03*
D34*
X454084Y696341D03*
D35*
X458719Y696341D03*
D37*
X461894Y696341D03*
D36*
X465768Y696341D03*
D22*
X469641Y696341D03*
D34*
X472626Y696341D03*
D35*
X477261Y696341D03*
D37*
X480436Y696341D03*
D36*
X484310Y696341D03*
D22*
X488183Y696341D03*
D19*
X491422Y696341D03*
D11*
X493835Y696341D03*
X500947Y696341D03*
D17*
X504312Y696341D03*
D19*
X491422Y696468D03*
D17*
X493771Y696468D03*
D19*
X500947Y696468D03*
D18*
X504312Y696468D03*
D19*
X491422Y696595D03*
X491422Y696722D03*
X491422Y696849D03*
X491422Y696976D03*
X491422Y697103D03*
X491422Y697230D03*
X491422Y697357D03*
X491422Y697484D03*
X491422Y697611D03*
X491422Y697738D03*
X491422Y697865D03*
X491422Y697992D03*
X491422Y698119D03*
X491422Y698246D03*
X491422Y698373D03*
X491422Y698500D03*
X491422Y698627D03*
X491422Y698754D03*
X491422Y698881D03*
X491422Y699008D03*
X491422Y699135D03*
X491422Y699262D03*
X491422Y699389D03*
D17*
X491358Y699516D03*
X491358Y699643D03*
X491358Y699770D03*
D20*
X491295Y699897D03*
D13*
X491168Y700024D03*
D33*
X491041Y700151D03*
X490914Y700278D03*
D38*
X475356Y700405D03*
D39*
X479484Y700405D03*
D38*
X475356Y700532D03*
D12*
X479420Y700532D03*
D13*
X475293Y700659D03*
D40*
X479420Y700659D03*
D17*
X475356Y700786D03*
D33*
X479357Y700786D03*
D16*
X475420Y700913D03*
D13*
X479357Y700913D03*
D31*
X475547Y701040D03*
D13*
X479230Y701040D03*
D31*
X475674Y701167D03*
D15*
X479166Y701167D03*
D29*
X475737Y701294D03*
D15*
X479039Y701294D03*
D31*
X475801Y701421D03*
D20*
X478976Y701421D03*
D29*
X475864Y701548D03*
D20*
X478849Y701548D03*
D29*
X475991Y701675D03*
D15*
X478785Y701675D03*
D29*
X475991Y701802D03*
D20*
X478722Y701802D03*
D29*
X476118Y701929D03*
D20*
X478595Y701929D03*
D29*
X476245Y702056D03*
D20*
X478468Y702056D03*
D29*
X476245Y702183D03*
D20*
X478468Y702183D03*
D29*
X476372Y702310D03*
D20*
X478341Y702310D03*
D27*
X476436Y702437D03*
D20*
X478214Y702437D03*
D29*
X476499Y702564D03*
D17*
X478150Y702564D03*
D29*
X476626Y702691D03*
D20*
X478087Y702691D03*
D27*
X476690Y702818D03*
D20*
X477960Y702818D03*
D29*
X476753Y702945D03*
D20*
X477833Y702945D03*
D29*
X476880Y703072D03*
D17*
X477769Y703072D03*
D13*
X477579Y703199D03*
D15*
X477515Y703326D03*
D20*
X477452Y703453D03*
X477452Y703580D03*
X477325Y703707D03*
X477198Y703834D03*
D15*
X477134Y703961D03*
D13*
X477198Y704088D03*
D20*
X476944Y704215D03*
D27*
X477833Y704215D03*
D20*
X476817Y704342D03*
D29*
X477896Y704342D03*
D20*
X476690Y704469D03*
D29*
X478023Y704469D03*
D20*
X476690Y704596D03*
D29*
X478150Y704596D03*
D20*
X476563Y704723D03*
D27*
X478214Y704723D03*
D20*
X476436Y704850D03*
D29*
X478277Y704850D03*
D15*
X476372Y704977D03*
D29*
X478404Y704977D03*
D20*
X476309Y705104D03*
D29*
X478531Y705104D03*
D20*
X476182Y705231D03*
D27*
X478595Y705231D03*
D20*
X476055Y705358D03*
D29*
X478658Y705358D03*
D15*
X475991Y705485D03*
D29*
X478785Y705485D03*
D20*
X475928Y705612D03*
D31*
X478849Y705612D03*
D20*
X475801Y705739D03*
D29*
X478912Y705739D03*
D15*
X475737Y705866D03*
D31*
X478976Y705866D03*
D15*
X475610Y705993D03*
D18*
X479039Y705993D03*
D13*
X475547Y706120D03*
D16*
X479103Y706120D03*
D11*
X475420Y706247D03*
D20*
X479103Y706247D03*
D39*
X475420Y706374D03*
D30*
X479230Y706374D03*
D39*
X475420Y706501D03*
D30*
X479230Y706501D03*
D27*
X444559Y709676D03*
X450020Y709676D03*
D29*
X444622Y709803D03*
X449956Y709803D03*
D16*
X466911Y709803D03*
D14*
X470149Y709803D03*
D29*
X479420Y709803D03*
D31*
X482278Y709803D03*
X485326Y709803D03*
D18*
X489072Y709803D03*
D19*
X492565Y709803D03*
D14*
X500629Y709803D03*
D29*
X505836Y709803D03*
D31*
X508567Y709803D03*
D17*
X512694Y709803D03*
D31*
X444559Y709930D03*
D29*
X449956Y709930D03*
D41*
X460370Y709930D03*
D42*
X468562Y709930D03*
D39*
X480881Y709930D03*
D43*
X487167Y709930D03*
D21*
X492628Y709930D03*
X495930Y709930D03*
X500629Y709930D03*
D22*
X503677Y709930D03*
D44*
X507233Y709930D03*
D11*
X512758Y709930D03*
D31*
X444559Y710057D03*
X450020Y710057D03*
D41*
X460370Y710057D03*
D38*
X468498Y710057D03*
D40*
X480817Y710057D03*
D45*
X487231Y710057D03*
D35*
X492628Y710057D03*
D33*
X495867Y710057D03*
D35*
X500629Y710057D03*
D22*
X503677Y710057D03*
X507106Y710057D03*
D19*
X511869Y710057D03*
D14*
X513710Y710057D03*
D18*
X444622Y710184D03*
X449956Y710184D03*
D39*
X460307Y710184D03*
D35*
X468498Y710184D03*
D33*
X480754Y710184D03*
D40*
X487294Y710184D03*
D36*
X492692Y710184D03*
D15*
X495676Y710184D03*
D36*
X500566Y710184D03*
D13*
X503487Y710184D03*
D15*
X507233Y710184D03*
D19*
X511615Y710184D03*
D16*
X514028Y710184D03*
X444559Y710311D03*
X450020Y710311D03*
D38*
X460370Y710311D03*
D22*
X468498Y710311D03*
D13*
X480754Y710311D03*
D11*
X487231Y710311D03*
D13*
X492057Y710311D03*
D31*
X493835Y710311D03*
D20*
X495613Y710311D03*
D15*
X499867Y710311D03*
D18*
X501645Y710311D03*
D20*
X503360Y710311D03*
D17*
X507233Y710311D03*
D14*
X511424Y710311D03*
D16*
X514155Y710311D03*
X444559Y710438D03*
X450020Y710438D03*
D30*
X460307Y710438D03*
D33*
X468435Y710438D03*
D17*
X480817Y710438D03*
D33*
X487231Y710438D03*
D15*
X491866Y710438D03*
D31*
X494089Y710438D03*
D17*
X495549Y710438D03*
X499613Y710438D03*
D31*
X501836Y710438D03*
D17*
X503296Y710438D03*
X507233Y710438D03*
D14*
X511297Y710438D03*
D16*
X514282Y710438D03*
D19*
X444559Y710565D03*
D14*
X449956Y710565D03*
D11*
X460307Y710565D03*
D13*
X468435Y710565D03*
D19*
X480754Y710565D03*
D33*
X487231Y710565D03*
D20*
X491803Y710565D03*
D29*
X494279Y710565D03*
D17*
X495549Y710565D03*
X499486Y710565D03*
D31*
X501963Y710565D03*
D19*
X503233Y710565D03*
X507170Y710565D03*
X511107Y710565D03*
D16*
X514536Y710565D03*
D19*
X444559Y710692D03*
X450020Y710692D03*
D33*
X460307Y710692D03*
D13*
X468435Y710692D03*
D14*
X480817Y710692D03*
D21*
X487167Y710692D03*
D17*
X491739Y710692D03*
D29*
X494406Y710692D03*
D19*
X495613Y710692D03*
D17*
X499359Y710692D03*
D29*
X502153Y710692D03*
D19*
X503233Y710692D03*
X507170Y710692D03*
X510980Y710692D03*
D14*
X514599Y710692D03*
D17*
X444495Y710819D03*
X449956Y710819D03*
D33*
X460307Y710819D03*
D13*
X468435Y710819D03*
D18*
X480817Y710819D03*
D13*
X487104Y710819D03*
D20*
X491676Y710819D03*
D29*
X494533Y710819D03*
D17*
X495549Y710819D03*
X499232Y710819D03*
D29*
X502280Y710819D03*
D19*
X503233Y710819D03*
X507170Y710819D03*
X510853Y710819D03*
D14*
X514726Y710819D03*
D20*
X444559Y710946D03*
D17*
X449956Y710946D03*
D21*
X460370Y710946D03*
D13*
X468435Y710946D03*
D18*
X480817Y710946D03*
D13*
X487104Y710946D03*
D17*
X491612Y710946D03*
D27*
X494597Y710946D03*
D17*
X495549Y710946D03*
X499105Y710946D03*
D27*
X502344Y710946D03*
D19*
X503233Y710946D03*
X507170Y710946D03*
X510853Y710946D03*
D16*
X514790Y710946D03*
D20*
X444559Y711073D03*
X450020Y711073D03*
D13*
X460307Y711073D03*
X468435Y711073D03*
D31*
X480881Y711073D03*
D15*
X487040Y711073D03*
D17*
X491612Y711073D03*
D27*
X494724Y711073D03*
D17*
X495549Y711073D03*
X498978Y711073D03*
D29*
X502407Y711073D03*
D19*
X503233Y711073D03*
X507170Y711073D03*
X510726Y711073D03*
D14*
X514853Y711073D03*
D15*
X444495Y711200D03*
X449956Y711200D03*
D13*
X460307Y711200D03*
D15*
X468371Y711200D03*
D18*
X480944Y711200D03*
D15*
X487040Y711200D03*
D19*
X491549Y711200D03*
D13*
X495359Y711200D03*
D17*
X498978Y711200D03*
D15*
X503042Y711200D03*
D19*
X507170Y711200D03*
D17*
X510662Y711200D03*
D14*
X514980Y711200D03*
D13*
X444559Y711327D03*
X450020Y711327D03*
X460307Y711327D03*
D20*
X468435Y711327D03*
D31*
X481008Y711327D03*
D13*
X486977Y711327D03*
D19*
X491549Y711327D03*
D20*
X495359Y711327D03*
D17*
X498851Y711327D03*
D15*
X503042Y711327D03*
D19*
X507170Y711327D03*
X510599Y711327D03*
X515044Y711327D03*
D21*
X444495Y711454D03*
D13*
X450020Y711454D03*
D15*
X460370Y711454D03*
D20*
X468435Y711454D03*
D31*
X481008Y711454D03*
D15*
X486913Y711454D03*
D19*
X491549Y711454D03*
D17*
X495422Y711454D03*
X498851Y711454D03*
D20*
X503106Y711454D03*
D19*
X507170Y711454D03*
D17*
X510535Y711454D03*
D14*
X515107Y711454D03*
D21*
X444495Y711581D03*
X449956Y711581D03*
D15*
X460370Y711581D03*
D20*
X468435Y711581D03*
D29*
X481071Y711581D03*
D15*
X486913Y711581D03*
D19*
X491549Y711581D03*
D20*
X495486Y711581D03*
X498788Y711581D03*
X503106Y711581D03*
D19*
X507170Y711581D03*
D17*
X510408Y711581D03*
D19*
X515171Y711581D03*
D22*
X444495Y711708D03*
D33*
X450020Y711708D03*
D15*
X460370Y711708D03*
D20*
X468435Y711708D03*
D29*
X481071Y711708D03*
D15*
X486786Y711708D03*
D19*
X491549Y711708D03*
D20*
X495486Y711708D03*
D17*
X498724Y711708D03*
X503169Y711708D03*
D19*
X507170Y711708D03*
D17*
X510408Y711708D03*
D14*
X515234Y711708D03*
D15*
X444241Y711835D03*
D29*
X445257Y711835D03*
D22*
X449956Y711835D03*
D15*
X460370Y711835D03*
D20*
X468435Y711835D03*
D31*
X481135Y711835D03*
D15*
X486786Y711835D03*
D19*
X491549Y711835D03*
D17*
X495549Y711835D03*
D20*
X498661Y711835D03*
D17*
X503169Y711835D03*
D19*
X507170Y711835D03*
D17*
X510408Y711835D03*
D19*
X515298Y711835D03*
D15*
X444241Y711962D03*
D29*
X445257Y711962D03*
D15*
X449702Y711962D03*
D29*
X450718Y711962D03*
D15*
X460370Y711962D03*
D20*
X468435Y711962D03*
D29*
X481198Y711962D03*
D15*
X486786Y711962D03*
D17*
X491485Y711962D03*
X495549Y711962D03*
D20*
X498661Y711962D03*
D17*
X503169Y711962D03*
D19*
X507170Y711962D03*
D17*
X510281Y711962D03*
D19*
X515298Y711962D03*
D15*
X444114Y712089D03*
D29*
X445384Y712089D03*
D20*
X449639Y712089D03*
D31*
X450782Y712089D03*
D15*
X460370Y712089D03*
D20*
X468435Y712089D03*
D29*
X481198Y712089D03*
D15*
X486659Y712089D03*
D17*
X491485Y712089D03*
X495549Y712089D03*
D20*
X498661Y712089D03*
D17*
X503169Y712089D03*
D19*
X507170Y712089D03*
D17*
X510281Y712089D03*
X515361Y712089D03*
D15*
X444114Y712216D03*
D29*
X445384Y712216D03*
D15*
X449575Y712216D03*
D29*
X450845Y712216D03*
D15*
X460370Y712216D03*
D20*
X468435Y712216D03*
D29*
X481325Y712216D03*
D15*
X486659Y712216D03*
D17*
X491485Y712216D03*
X495549Y712216D03*
D20*
X498661Y712216D03*
D17*
X503169Y712216D03*
D19*
X507170Y712216D03*
D17*
X510281Y712216D03*
X515361Y712216D03*
D15*
X443987Y712343D03*
D29*
X445384Y712343D03*
D15*
X449575Y712343D03*
D29*
X450845Y712343D03*
D15*
X460370Y712343D03*
D20*
X468435Y712343D03*
D29*
X481325Y712343D03*
D20*
X486596Y712343D03*
D17*
X491485Y712343D03*
X495549Y712343D03*
X498597Y712343D03*
D19*
X503233Y712343D03*
X507170Y712343D03*
D17*
X510281Y712343D03*
D19*
X515425Y712343D03*
D15*
X443987Y712470D03*
D29*
X445511Y712470D03*
D15*
X449448Y712470D03*
D29*
X450972Y712470D03*
D20*
X460307Y712470D03*
X468435Y712470D03*
D29*
X481325Y712470D03*
D15*
X486532Y712470D03*
D17*
X491485Y712470D03*
X495549Y712470D03*
X498597Y712470D03*
D19*
X503233Y712470D03*
X507170Y712470D03*
D20*
X510218Y712470D03*
D19*
X515425Y712470D03*
D15*
X443860Y712597D03*
D29*
X445511Y712597D03*
D15*
X449448Y712597D03*
D29*
X450972Y712597D03*
D20*
X460307Y712597D03*
X468435Y712597D03*
D29*
X481452Y712597D03*
D15*
X486532Y712597D03*
D17*
X491485Y712597D03*
X495549Y712597D03*
D20*
X498534Y712597D03*
D19*
X503233Y712597D03*
X507170Y712597D03*
D20*
X510218Y712597D03*
D17*
X515488Y712597D03*
D15*
X443860Y712724D03*
D29*
X445511Y712724D03*
D20*
X449385Y712724D03*
D29*
X450972Y712724D03*
D20*
X460307Y712724D03*
X468435Y712724D03*
D29*
X481452Y712724D03*
D20*
X486469Y712724D03*
D17*
X491485Y712724D03*
X495549Y712724D03*
D20*
X498534Y712724D03*
D19*
X503233Y712724D03*
X507170Y712724D03*
D20*
X510218Y712724D03*
D17*
X515488Y712724D03*
D20*
X443797Y712851D03*
D29*
X445638Y712851D03*
D15*
X449321Y712851D03*
D29*
X451099Y712851D03*
D20*
X460307Y712851D03*
X468435Y712851D03*
D29*
X481452Y712851D03*
D15*
X486405Y712851D03*
D17*
X491485Y712851D03*
X495549Y712851D03*
D20*
X498534Y712851D03*
D19*
X503233Y712851D03*
X507170Y712851D03*
D20*
X510218Y712851D03*
D17*
X515488Y712851D03*
D15*
X443733Y712978D03*
D29*
X445638Y712978D03*
D20*
X449258Y712978D03*
D29*
X451099Y712978D03*
D20*
X460307Y712978D03*
X468435Y712978D03*
D29*
X481579Y712978D03*
D15*
X486405Y712978D03*
D17*
X491485Y712978D03*
X495549Y712978D03*
D20*
X498534Y712978D03*
D19*
X503233Y712978D03*
X507170Y712978D03*
D20*
X510218Y712978D03*
D17*
X515488Y712978D03*
D15*
X443733Y713105D03*
D29*
X445638Y713105D03*
D15*
X449194Y713105D03*
D29*
X451099Y713105D03*
D20*
X460307Y713105D03*
X468435Y713105D03*
D29*
X481579Y713105D03*
D20*
X486342Y713105D03*
D17*
X491485Y713105D03*
D19*
X495613Y713105D03*
D17*
X498597Y713105D03*
D19*
X503233Y713105D03*
X507170Y713105D03*
D20*
X510218Y713105D03*
D17*
X515488Y713105D03*
D15*
X443606Y713232D03*
D29*
X445765Y713232D03*
D15*
X449194Y713232D03*
D29*
X451226Y713232D03*
D20*
X460307Y713232D03*
X468435Y713232D03*
D27*
X471991Y713232D03*
D29*
X481579Y713232D03*
D15*
X486278Y713232D03*
D17*
X491485Y713232D03*
D19*
X495613Y713232D03*
D17*
X498597Y713232D03*
D19*
X503233Y713232D03*
X507170Y713232D03*
D20*
X510218Y713232D03*
D17*
X515488Y713232D03*
D15*
X443606Y713359D03*
D29*
X445765Y713359D03*
D15*
X449067Y713359D03*
D29*
X451226Y713359D03*
D20*
X460307Y713359D03*
X468435Y713359D03*
D27*
X471991Y713359D03*
D29*
X481706Y713359D03*
D20*
X486215Y713359D03*
D17*
X491485Y713359D03*
D19*
X495613Y713359D03*
D17*
X498597Y713359D03*
D19*
X503233Y713359D03*
X507170Y713359D03*
D20*
X510218Y713359D03*
D17*
X515488Y713359D03*
D15*
X443479Y713486D03*
D27*
X445829Y713486D03*
D15*
X449067Y713486D03*
D29*
X451226Y713486D03*
D20*
X460307Y713486D03*
X468435Y713486D03*
D27*
X471991Y713486D03*
D29*
X481706Y713486D03*
D20*
X486215Y713486D03*
D17*
X491485Y713486D03*
D19*
X495613Y713486D03*
D17*
X498597Y713486D03*
D19*
X503233Y713486D03*
X507170Y713486D03*
D17*
X510281Y713486D03*
X515488Y713486D03*
D15*
X443479Y713613D03*
D29*
X445892Y713613D03*
D20*
X449004Y713613D03*
D29*
X451353Y713613D03*
D20*
X460307Y713613D03*
X468435Y713613D03*
D27*
X471991Y713613D03*
D29*
X481833Y713613D03*
D15*
X486151Y713613D03*
D17*
X491485Y713613D03*
D19*
X495613Y713613D03*
D17*
X498597Y713613D03*
D19*
X503233Y713613D03*
D14*
X507233Y713613D03*
D17*
X510281Y713613D03*
D20*
X515425Y713613D03*
X443416Y713740D03*
D29*
X445892Y713740D03*
D15*
X448940Y713740D03*
D29*
X451353Y713740D03*
D20*
X460307Y713740D03*
X468435Y713740D03*
D27*
X471991Y713740D03*
D24*
X484183Y713740D03*
D17*
X491485Y713740D03*
D19*
X495613Y713740D03*
D17*
X498597Y713740D03*
D19*
X503233Y713740D03*
D14*
X507233Y713740D03*
D17*
X510281Y713740D03*
X515361Y713740D03*
D15*
X443352Y713867D03*
D27*
X445956Y713867D03*
D15*
X448940Y713867D03*
D29*
X451480Y713867D03*
D20*
X460307Y713867D03*
X468435Y713867D03*
D29*
X471927Y713867D03*
D24*
X484183Y713867D03*
D19*
X491422Y713867D03*
X495613Y713867D03*
D17*
X498724Y713867D03*
D19*
X503233Y713867D03*
D14*
X507233Y713867D03*
D17*
X510281Y713867D03*
X515361Y713867D03*
D15*
X443352Y713994D03*
D29*
X446019Y713994D03*
D15*
X448813Y713994D03*
D29*
X451480Y713994D03*
D20*
X460307Y713994D03*
X468435Y713994D03*
D29*
X471927Y713994D03*
D41*
X484246Y713994D03*
D19*
X491422Y713994D03*
X495613Y713994D03*
D17*
X498724Y713994D03*
D19*
X503233Y713994D03*
D14*
X507233Y713994D03*
D19*
X510345Y713994D03*
D17*
X515361Y713994D03*
D15*
X443225Y714121D03*
D29*
X446019Y714121D03*
D15*
X448813Y714121D03*
D29*
X451480Y714121D03*
D20*
X460307Y714121D03*
X468435Y714121D03*
D31*
X471864Y714121D03*
D29*
X481960Y714121D03*
D20*
X485961Y714121D03*
D19*
X491422Y714121D03*
X495613Y714121D03*
D17*
X498724Y714121D03*
D19*
X503233Y714121D03*
D14*
X507233Y714121D03*
D17*
X510408Y714121D03*
X515361Y714121D03*
D15*
X443225Y714248D03*
D29*
X446146Y714248D03*
D20*
X448750Y714248D03*
D29*
X451607Y714248D03*
D20*
X460307Y714248D03*
X468435Y714248D03*
D31*
X471864Y714248D03*
D29*
X481960Y714248D03*
D20*
X485961Y714248D03*
D19*
X491422Y714248D03*
X495613Y714248D03*
X498788Y714248D03*
X503233Y714248D03*
D14*
X507233Y714248D03*
D17*
X510408Y714248D03*
X515234Y714248D03*
D15*
X443098Y714375D03*
D29*
X446146Y714375D03*
D15*
X448686Y714375D03*
D29*
X451607Y714375D03*
D20*
X460307Y714375D03*
X468435Y714375D03*
D18*
X471800Y714375D03*
D27*
X482024Y714375D03*
D15*
X485897Y714375D03*
D19*
X491422Y714375D03*
X495613Y714375D03*
X498788Y714375D03*
D17*
X503169Y714375D03*
D14*
X507233Y714375D03*
D19*
X510472Y714375D03*
D17*
X515234Y714375D03*
D15*
X443098Y714502D03*
D29*
X446146Y714502D03*
D15*
X448686Y714502D03*
D29*
X451607Y714502D03*
D20*
X460307Y714502D03*
X468435Y714502D03*
D16*
X471737Y714502D03*
D29*
X482087Y714502D03*
D20*
X485834Y714502D03*
D19*
X491422Y714502D03*
X495613Y714502D03*
X498788Y714502D03*
D17*
X503169Y714502D03*
D14*
X507233Y714502D03*
D19*
X510472Y714502D03*
D17*
X515107Y714502D03*
D15*
X443098Y714629D03*
D29*
X446273Y714629D03*
D20*
X448623Y714629D03*
D29*
X451734Y714629D03*
D20*
X460307Y714629D03*
X468435Y714629D03*
D19*
X471610Y714629D03*
D29*
X482087Y714629D03*
D15*
X485770Y714629D03*
D19*
X491422Y714629D03*
X495613Y714629D03*
X498915Y714629D03*
D17*
X503169Y714629D03*
D14*
X507233Y714629D03*
D19*
X510599Y714629D03*
D17*
X515107Y714629D03*
D15*
X442971Y714756D03*
D29*
X446273Y714756D03*
D15*
X448559Y714756D03*
D29*
X451734Y714756D03*
D20*
X460307Y714756D03*
X468435Y714756D03*
D15*
X471419Y714756D03*
D27*
X482151Y714756D03*
D20*
X485707Y714756D03*
D19*
X491422Y714756D03*
X495613Y714756D03*
D14*
X498978Y714756D03*
D17*
X503169Y714756D03*
D19*
X507170Y714756D03*
D14*
X510662Y714756D03*
D19*
X515044Y714756D03*
D15*
X442971Y714883D03*
D29*
X446273Y714883D03*
D20*
X448496Y714883D03*
D29*
X451734Y714883D03*
D20*
X460307Y714883D03*
D46*
X469959Y714883D03*
D29*
X482214Y714883D03*
D20*
X485707Y714883D03*
D19*
X491422Y714883D03*
X495613Y714883D03*
D14*
X498978Y714883D03*
D20*
X503106Y714883D03*
D19*
X507170Y714883D03*
X510726Y714883D03*
D17*
X514980Y714883D03*
D15*
X442844Y715010D03*
D29*
X446400Y715010D03*
D15*
X448432Y715010D03*
D29*
X451861Y715010D03*
D20*
X460307Y715010D03*
D46*
X469959Y715010D03*
D29*
X482214Y715010D03*
D15*
X485643Y715010D03*
D19*
X491422Y715010D03*
X495613Y715010D03*
D14*
X499105Y715010D03*
D20*
X503106Y715010D03*
D19*
X507170Y715010D03*
D14*
X510789Y715010D03*
D17*
X514853Y715010D03*
D15*
X442844Y715137D03*
D29*
X446400Y715137D03*
D15*
X448432Y715137D03*
D29*
X451861Y715137D03*
D20*
X460307Y715137D03*
D46*
X469959Y715137D03*
D29*
X482341Y715137D03*
D20*
X485580Y715137D03*
D19*
X491422Y715137D03*
D17*
X495549Y715137D03*
D16*
X499169Y715137D03*
D20*
X503106Y715137D03*
D19*
X507170Y715137D03*
D14*
X510916Y715137D03*
D19*
X514790Y715137D03*
D15*
X442717Y715264D03*
D29*
X446400Y715264D03*
D20*
X448369Y715264D03*
D29*
X451861Y715264D03*
D20*
X460307Y715264D03*
X468435Y715264D03*
D15*
X471419Y715264D03*
D29*
X482341Y715264D03*
D20*
X485580Y715264D03*
D19*
X491422Y715264D03*
D17*
X495549Y715264D03*
D16*
X499296Y715264D03*
D15*
X503042Y715264D03*
D19*
X507170Y715264D03*
D14*
X511043Y715264D03*
D19*
X514663Y715264D03*
D15*
X442717Y715391D03*
D29*
X446527Y715391D03*
D15*
X448305Y715391D03*
D29*
X451988Y715391D03*
D20*
X460307Y715391D03*
X468435Y715391D03*
D19*
X471610Y715391D03*
D27*
X482405Y715391D03*
D15*
X485516Y715391D03*
D19*
X491422Y715391D03*
D17*
X495549Y715391D03*
D14*
X499359Y715391D03*
D29*
X502407Y715391D03*
D19*
X503233Y715391D03*
X507170Y715391D03*
D16*
X511107Y715391D03*
D19*
X514536Y715391D03*
D15*
X442717Y715518D03*
D29*
X446527Y715518D03*
D20*
X448242Y715518D03*
D29*
X451988Y715518D03*
D20*
X460307Y715518D03*
X468435Y715518D03*
D16*
X471737Y715518D03*
D29*
X482468Y715518D03*
D20*
X485453Y715518D03*
D19*
X491422Y715518D03*
D17*
X495549Y715518D03*
D14*
X499486Y715518D03*
D27*
X502344Y715518D03*
D19*
X503233Y715518D03*
D17*
X507106Y715518D03*
D16*
X511234Y715518D03*
D19*
X514409Y715518D03*
D15*
X442590Y715645D03*
D29*
X446527Y715645D03*
D15*
X448178Y715645D03*
D29*
X451988Y715645D03*
D20*
X460307Y715645D03*
X468435Y715645D03*
D18*
X471800Y715645D03*
D29*
X482468Y715645D03*
D15*
X485389Y715645D03*
D19*
X491422Y715645D03*
D20*
X495486Y715645D03*
D16*
X499677Y715645D03*
D29*
X502153Y715645D03*
D19*
X503233Y715645D03*
D17*
X507106Y715645D03*
D14*
X511424Y715645D03*
X514218Y715645D03*
D15*
X442590Y715772D03*
D29*
X446654Y715772D03*
D15*
X448178Y715772D03*
D29*
X452115Y715772D03*
D20*
X460307Y715772D03*
X468435Y715772D03*
D31*
X471864Y715772D03*
D27*
X482532Y715772D03*
D15*
X485389Y715772D03*
D17*
X491358Y715772D03*
D15*
X495422Y715772D03*
D16*
X499804Y715772D03*
D29*
X502026Y715772D03*
D19*
X503233Y715772D03*
D15*
X506979Y715772D03*
D16*
X511615Y715772D03*
D19*
X514028Y715772D03*
D15*
X442463Y715899D03*
D29*
X446654Y715899D03*
D20*
X448115Y715899D03*
D29*
X452115Y715899D03*
D20*
X460307Y715899D03*
X468435Y715899D03*
D29*
X471927Y715899D03*
X482595Y715899D03*
D20*
X485326Y715899D03*
D21*
X491104Y715899D03*
D22*
X495168Y715899D03*
D16*
X500058Y715899D03*
D31*
X501836Y715899D03*
D19*
X503233Y715899D03*
D11*
X506662Y715899D03*
D16*
X511869Y715899D03*
D19*
X513774Y715899D03*
D15*
X442463Y716026D03*
D29*
X446654Y716026D03*
D15*
X448051Y716026D03*
D29*
X452242Y716026D03*
D20*
X460307Y716026D03*
X468435Y716026D03*
D29*
X471927Y716026D03*
X482595Y716026D03*
D15*
X485262Y716026D03*
D21*
X491104Y716026D03*
D33*
X495105Y716026D03*
D22*
X500883Y716026D03*
D19*
X503233Y716026D03*
D11*
X506662Y716026D03*
D30*
X512885Y716026D03*
D13*
X442400Y716153D03*
D29*
X446781Y716153D03*
D15*
X448051Y716153D03*
D29*
X452242Y716153D03*
D20*
X460307Y716153D03*
X468435Y716153D03*
D27*
X471991Y716153D03*
D29*
X482722Y716153D03*
D20*
X485199Y716153D03*
D19*
X500820Y716153D03*
X503233Y716153D03*
X507170Y716153D03*
D20*
X512885Y716153D03*
D15*
X442336Y716280D03*
D29*
X446781Y716280D03*
D15*
X447924Y716280D03*
D29*
X452242Y716280D03*
D20*
X460307Y716280D03*
X468435Y716280D03*
D29*
X472054Y716280D03*
X482722Y716280D03*
D15*
X485135Y716280D03*
D19*
X503233Y716280D03*
D13*
X442273Y716407D03*
D29*
X446781Y716407D03*
D15*
X447924Y716407D03*
D29*
X452369Y716407D03*
D20*
X460307Y716407D03*
X468435Y716407D03*
D27*
X472118Y716407D03*
D29*
X482722Y716407D03*
D15*
X485135Y716407D03*
D19*
X503233Y716407D03*
D15*
X442209Y716534D03*
D29*
X446908Y716534D03*
D15*
X447924Y716534D03*
D29*
X452369Y716534D03*
D20*
X460307Y716534D03*
D15*
X468498Y716534D03*
D27*
X472118Y716534D03*
D29*
X482849Y716534D03*
D20*
X485072Y716534D03*
D19*
X503233Y716534D03*
D13*
X442146Y716661D03*
D33*
X447607Y716661D03*
D29*
X452369Y716661D03*
D20*
X460307Y716661D03*
D15*
X468498Y716661D03*
D27*
X472118Y716661D03*
D29*
X482849Y716661D03*
D15*
X485008Y716661D03*
D19*
X503233Y716661D03*
D13*
X442146Y716788D03*
D33*
X447607Y716788D03*
D29*
X452496Y716788D03*
D20*
X460307Y716788D03*
D15*
X468498Y716788D03*
D27*
X472118Y716788D03*
D29*
X482976Y716788D03*
D15*
X485008Y716788D03*
D19*
X503233Y716788D03*
D15*
X442082Y716915D03*
D33*
X447607Y716915D03*
D29*
X452496Y716915D03*
D20*
X460307Y716915D03*
D15*
X468498Y716915D03*
D29*
X482976Y716915D03*
D15*
X484881Y716915D03*
D19*
X503233Y716915D03*
D13*
X442019Y717042D03*
X447607Y717042D03*
D31*
X452560Y717042D03*
D20*
X460307Y717042D03*
D15*
X468498Y717042D03*
D29*
X482976Y717042D03*
D15*
X484881Y717042D03*
D19*
X503233Y717042D03*
D15*
X441955Y717169D03*
D13*
X447607Y717169D03*
D29*
X452623Y717169D03*
D20*
X460307Y717169D03*
D15*
X468498Y717169D03*
D29*
X483103Y717169D03*
D20*
X484818Y717169D03*
D19*
X503233Y717169D03*
D13*
X441892Y717296D03*
X447607Y717296D03*
D29*
X452623Y717296D03*
D27*
X455354Y717296D03*
D15*
X460243Y717296D03*
D27*
X465260Y717296D03*
D15*
X468498Y717296D03*
D27*
X474785Y717296D03*
D29*
X483103Y717296D03*
D15*
X484754Y717296D03*
D19*
X503233Y717296D03*
D13*
X441892Y717423D03*
D15*
X447543Y717423D03*
D31*
X452687Y717423D03*
D27*
X455354Y717423D03*
D15*
X460243Y717423D03*
D27*
X465260Y717423D03*
D15*
X468498Y717423D03*
D27*
X474785Y717423D03*
D29*
X483230Y717423D03*
D15*
X484754Y717423D03*
D19*
X503233Y717423D03*
D13*
X441765Y717550D03*
D15*
X447543Y717550D03*
D29*
X452750Y717550D03*
D27*
X455354Y717550D03*
D15*
X460243Y717550D03*
D29*
X465196Y717550D03*
D15*
X468498Y717550D03*
D29*
X474721Y717550D03*
X483230Y717550D03*
D15*
X484627Y717550D03*
D19*
X503233Y717550D03*
D13*
X441765Y717677D03*
X447480Y717677D03*
D31*
X452814Y717677D03*
D29*
X455417Y717677D03*
D15*
X460243Y717677D03*
D31*
X465133Y717677D03*
D15*
X468498Y717677D03*
D31*
X474658Y717677D03*
X483294Y717677D03*
D15*
X484627Y717677D03*
D19*
X503233Y717677D03*
D13*
X441638Y717804D03*
X447480Y717804D03*
D31*
X452814Y717804D03*
D29*
X455417Y717804D03*
D15*
X460243Y717804D03*
D31*
X465133Y717804D03*
D15*
X468498Y717804D03*
D29*
X474594Y717804D03*
X483357Y717804D03*
D20*
X484564Y717804D03*
D19*
X503233Y717804D03*
D13*
X441638Y717931D03*
D15*
X447416Y717931D03*
D31*
X452814Y717931D03*
X455481Y717931D03*
D15*
X460243Y717931D03*
D18*
X465069Y717931D03*
D13*
X468435Y717931D03*
D31*
X474531Y717931D03*
D29*
X483357Y717931D03*
D15*
X484500Y717931D03*
D19*
X503233Y717931D03*
D21*
X441574Y718058D03*
D13*
X447353Y718058D03*
D18*
X452877Y718058D03*
X455544Y718058D03*
D15*
X460243Y718058D03*
D16*
X465006Y718058D03*
D13*
X468435Y718058D03*
D18*
X474467Y718058D03*
D29*
X483484Y718058D03*
D15*
X484500Y718058D03*
D19*
X503233Y718058D03*
D13*
X441511Y718185D03*
X447353Y718185D03*
D31*
X452941Y718185D03*
D18*
X455544Y718185D03*
D15*
X460243Y718185D03*
D16*
X465006Y718185D03*
D13*
X468435Y718185D03*
D16*
X474404Y718185D03*
D33*
X484183Y718185D03*
D19*
X503233Y718185D03*
D21*
X441447Y718312D03*
X447289Y718312D03*
D18*
X453004Y718312D03*
D16*
X455608Y718312D03*
D15*
X460243Y718312D03*
D14*
X464942Y718312D03*
D13*
X468435Y718312D03*
D14*
X474340Y718312D03*
D33*
X484183Y718312D03*
D19*
X503233Y718312D03*
D33*
X441384Y718439D03*
D21*
X447289Y718439D03*
D18*
X453004Y718439D03*
D16*
X455735Y718439D03*
D15*
X460243Y718439D03*
D19*
X464879Y718439D03*
D13*
X468435Y718439D03*
D19*
X474277Y718439D03*
D13*
X484183Y718439D03*
D19*
X503233Y718439D03*
D33*
X441384Y718566D03*
X447226Y718566D03*
D14*
X453004Y718566D03*
X455798Y718566D03*
D15*
X460243Y718566D03*
D17*
X464815Y718566D03*
D13*
X468435Y718566D03*
D19*
X474150Y718566D03*
D13*
X484183Y718566D03*
D19*
X503233Y718566D03*
D18*
X506979Y718566D03*
D22*
X441320Y718693D03*
D33*
X447226Y718693D03*
D19*
X453068Y718693D03*
X455862Y718693D03*
D15*
X460243Y718693D03*
D20*
X464752Y718693D03*
D21*
X468371Y718693D03*
D20*
X474023Y718693D03*
D15*
X484246Y718693D03*
D19*
X503233Y718693D03*
D14*
X506979Y718693D03*
D35*
X441320Y718820D03*
D22*
X447162Y718820D03*
D17*
X453131Y718820D03*
D20*
X455989Y718820D03*
D15*
X460243Y718820D03*
D20*
X464625Y718820D03*
D21*
X468371Y718820D03*
D15*
X473959Y718820D03*
D20*
X484183Y718820D03*
D19*
X503233Y718820D03*
D17*
X506979Y718820D03*
D30*
X441257Y718947D03*
D11*
X447226Y718947D03*
D15*
X453131Y718947D03*
D13*
X456116Y718947D03*
D15*
X460243Y718947D03*
D13*
X464498Y718947D03*
D33*
X468308Y718947D03*
X473769Y718947D03*
D17*
X484246Y718947D03*
D19*
X503233Y718947D03*
D20*
X506916Y718947D03*
D36*
X441257Y719074D03*
D40*
X447162Y719074D03*
D21*
X453131Y719074D03*
D33*
X456243Y719074D03*
D13*
X460307Y719074D03*
D22*
X464307Y719074D03*
D11*
X468308Y719074D03*
X473642Y719074D03*
D19*
X484183Y719074D03*
X503233Y719074D03*
D20*
X506916Y719074D03*
D45*
X441257Y719201D03*
D37*
X447162Y719201D03*
D35*
X453131Y719201D03*
D30*
X456497Y719201D03*
D13*
X460307Y719201D03*
D38*
X463926Y719201D03*
D34*
X468435Y719201D03*
D40*
X473324Y719201D03*
D19*
X484183Y719201D03*
X503233Y719201D03*
D15*
X506979Y719201D03*
D43*
X441320Y719328D03*
D32*
X447162Y719328D03*
D44*
X453131Y719328D03*
D47*
X460307Y719328D03*
D48*
X470403Y719328D03*
D16*
X484183Y719328D03*
D17*
X503169Y719328D03*
D15*
X506979Y719328D03*
D43*
X441320Y719455D03*
D42*
X447226Y719455D03*
D44*
X453131Y719455D03*
D49*
X460370Y719455D03*
D48*
X470403Y719455D03*
D16*
X484183Y719455D03*
D17*
X503169Y719455D03*
D20*
X506916Y719455D03*
D49*
X460370Y719582D03*
D50*
X471229Y719582D03*
D31*
X484183Y719582D03*
D17*
X503169Y719582D03*
D20*
X506916Y719582D03*
D22*
X456433Y719709D03*
D21*
X464434Y719709D03*
D31*
X484183Y719709D03*
D15*
X503042Y719709D03*
D19*
X506916Y719709D03*
D29*
X484246Y719836D03*
D22*
X502788Y719836D03*
D19*
X506916Y719836D03*
D22*
X502788Y719963D03*
D31*
X506916Y719963D03*
D51*
X132969Y679353D02*
X126698Y679353D01*
X123563Y682489D01*
X126698Y685624D01*
X132969Y685624D01*
X128266Y685624D02*
X128266Y679353D01*
X123563Y693412D02*
X125131Y694979D01*
X123563Y693412D02*
X123563Y690276D01*
X125131Y688709D01*
X131401Y688709D01*
X132969Y690276D01*
X132969Y693412D01*
X131401Y694979D01*
X134537Y698064D02*
X134537Y704335D01*
X132969Y707419D02*
X132969Y710554D01*
X132969Y708987D02*
X123563Y708987D01*
X123563Y710554D02*
X123563Y707419D01*
X123563Y713656D02*
X132969Y713656D01*
X132969Y719926D02*
X123563Y713656D01*
X123563Y719926D02*
X132969Y719926D01*
X417344Y852513D02*
X419801Y854970D01*
X419801Y847598D01*
X417344Y847598D02*
X422258Y847598D01*
X424828Y848827D02*
X424828Y852513D01*
X424828Y848827D02*
X426056Y847598D01*
X429743Y847598D01*
X429743Y852513D01*
X432312Y854970D02*
X432312Y847598D01*
X432312Y854970D02*
X437227Y854970D01*
X434769Y851284D02*
X432312Y851284D01*
X421071Y621925D02*
X418614Y619468D01*
X421071Y621925D02*
X421071Y614553D01*
X418614Y614553D02*
X423528Y614553D01*
X426098Y615782D02*
X426098Y619468D01*
X426098Y615782D02*
X427326Y614553D01*
X431013Y614553D01*
X431013Y619468D01*
X433582Y621925D02*
X433582Y614553D01*
X433582Y621925D02*
X438497Y621925D01*
X436039Y618239D02*
X433582Y618239D01*
X376845Y696976D02*
X371930Y696976D01*
X370702Y698205D01*
X370702Y700662D01*
X371930Y701891D01*
X376845Y701891D01*
X378074Y700662D01*
X378074Y698205D01*
X376845Y696976D01*
X371930Y701891D01*
X376845Y704460D02*
X378074Y704460D01*
X376845Y704460D02*
X376845Y705689D01*
X378074Y705689D01*
X378074Y704460D01*
X373159Y708202D02*
X370702Y710660D01*
X378074Y710660D01*
X378074Y713117D02*
X378074Y708202D01*
X376845Y715686D02*
X373159Y715686D01*
X376845Y715686D02*
X378074Y716915D01*
X378074Y720601D01*
X373159Y720601D01*
X370702Y723171D02*
X378074Y723171D01*
X370702Y723171D02*
X370702Y728085D01*
X374388Y725628D02*
X374388Y723171D01*
X363513Y684028D02*
X361056Y681571D01*
X363513Y684028D02*
X363513Y676656D01*
X361056Y676656D02*
X365971Y676656D01*
X368540Y677885D02*
X368540Y682800D01*
X369769Y684028D01*
X372226Y684028D01*
X373455Y682800D01*
X373455Y677885D01*
X372226Y676656D01*
X369769Y676656D01*
X368540Y677885D01*
X373455Y682800D01*
X376024Y684028D02*
X376024Y676656D01*
X376024Y684028D02*
X379710Y684028D01*
X380939Y682800D01*
X380939Y680342D01*
X379710Y679113D01*
X376024Y679113D01*
X378482Y679113D02*
X380939Y676656D01*
D10*
X750000Y0D02*
X0Y0D01*
X750000Y0D02*
X750000Y930000D01*
D52*
X439598Y415455D02*
X439598Y411557D01*
X441547Y409608D01*
X449343Y409608D01*
X451292Y411557D01*
X451292Y415455D01*
X449343Y417404D01*
X441547Y417404D01*
X439598Y415455D01*
X439598Y421302D02*
X449343Y421302D01*
X451292Y423251D01*
X451292Y427149D01*
X449343Y429098D01*
X439598Y429098D01*
X439598Y436894D02*
X451292Y436894D01*
X439598Y432996D02*
X439598Y440792D01*
X441547Y328504D02*
X439598Y326555D01*
X439598Y322657D01*
X441547Y320708D01*
X449343Y320708D01*
X451292Y322657D01*
X451292Y326555D01*
X449343Y328504D01*
X445445Y328504D01*
X445445Y324606D01*
X451292Y332402D02*
X439598Y332402D01*
X451292Y340198D01*
X439598Y340198D01*
X439598Y344096D02*
X451292Y344096D01*
X451292Y349943D01*
X449343Y351892D01*
X441547Y351892D01*
X439598Y349943D01*
X439598Y344096D01*
X311473Y19502D02*
X313422Y17553D01*
X311473Y19502D02*
X307575Y19502D01*
X305626Y17553D01*
X305626Y9757D01*
X307575Y7808D01*
X311473Y7808D01*
X313422Y9757D01*
X313422Y13655D01*
X309524Y13655D01*
X317320Y7808D02*
X317320Y19502D01*
X325116Y7808D01*
X325116Y19502D01*
X329014Y19502D02*
X329014Y7808D01*
X334861Y7808D01*
X336810Y9757D01*
X336810Y17553D01*
X334861Y19502D01*
X329014Y19502D01*
D53*
X610962Y848585D02*
X610962Y859432D01*
X610962Y848585D02*
X616385Y843162D01*
X621809Y848585D01*
X621809Y859432D01*
X627334Y851297D02*
X638180Y851297D01*
X623062Y575832D02*
X623062Y564985D01*
X628485Y559562D01*
X633909Y564985D01*
X633909Y575832D01*
X639434Y567697D02*
X650280Y567697D01*
X644857Y573120D02*
X644857Y562274D01*
X608509Y700120D02*
X605797Y702832D01*
X600374Y702832D01*
X597662Y700120D01*
X597662Y689274D01*
X600374Y686562D01*
X605797Y686562D01*
X608509Y689274D01*
X608509Y694697D01*
X603085Y694697D01*
X614034Y686562D02*
X614034Y702832D01*
X624880Y686562D01*
X624880Y702832D01*
X630405Y702832D02*
X630405Y686562D01*
X638540Y686562D01*
X641252Y689274D01*
X641252Y700120D01*
X638540Y702832D01*
X630405Y702832D01*
D54*
X542514Y572605D02*
X542514Y521805D01*
X512034Y521805D01*
X512034Y572605D01*
X542514Y572605D01*
D55*
X567584Y569475D02*
X567584Y530015D01*
X547924Y530015D02*
X547924Y569475D01*
X567584Y569475D01*
X567584Y530015D02*
X547924Y530015D01*
D53*
X353919Y800570D02*
X353919Y803110D01*
X366619Y803110D01*
X366619Y809460D01*
X341219Y809460D01*
X341219Y803110D01*
X353919Y803110D01*
X353919Y818350D02*
X353919Y823430D01*
X334869Y773900D02*
X334869Y761200D01*
X341219Y767550D02*
X328519Y767550D01*
X284069Y812000D02*
X284090Y813714D01*
X284153Y815427D01*
X284258Y817138D01*
X284405Y818846D01*
X284594Y820550D01*
X284825Y822249D01*
X285097Y823942D01*
X285411Y825627D01*
X285766Y827304D01*
X286162Y828972D01*
X286599Y830630D01*
X287077Y832276D01*
X287594Y833911D01*
X288152Y835532D01*
X288749Y837139D01*
X289386Y838730D01*
X290061Y840306D01*
X290775Y841865D01*
X291527Y843405D01*
X292317Y844927D01*
X293143Y846429D01*
X294007Y847910D01*
X294906Y849370D01*
X295841Y850807D01*
X296811Y852220D01*
X297815Y853610D01*
X298853Y854974D01*
X299924Y856312D01*
X301028Y857624D01*
X302164Y858908D01*
X303330Y860164D01*
X304528Y861391D01*
X305755Y862589D01*
X307011Y863755D01*
X308295Y864891D01*
X309607Y865995D01*
X310945Y867066D01*
X312309Y868104D01*
X313699Y869108D01*
X315112Y870078D01*
X316549Y871013D01*
X318009Y871912D01*
X319490Y872776D01*
X320992Y873602D01*
X322514Y874392D01*
X324054Y875144D01*
X325613Y875858D01*
X327189Y876533D01*
X328780Y877170D01*
X330387Y877767D01*
X332008Y878325D01*
X333643Y878842D01*
X335289Y879320D01*
X336947Y879757D01*
X338615Y880153D01*
X340292Y880508D01*
X341977Y880822D01*
X343670Y881094D01*
X345369Y881325D01*
X347073Y881514D01*
X348781Y881661D01*
X350492Y881766D01*
X352205Y881829D01*
X353919Y881850D01*
X355633Y881829D01*
X357346Y881766D01*
X359057Y881661D01*
X360765Y881514D01*
X362469Y881325D01*
X364168Y881094D01*
X365861Y880822D01*
X367546Y880508D01*
X369223Y880153D01*
X370891Y879757D01*
X372549Y879320D01*
X374195Y878842D01*
X375830Y878325D01*
X377451Y877767D01*
X379058Y877170D01*
X380649Y876533D01*
X382225Y875858D01*
X383784Y875144D01*
X385324Y874392D01*
X386846Y873602D01*
X388348Y872776D01*
X389829Y871912D01*
X391289Y871013D01*
X392726Y870078D01*
X394139Y869108D01*
X395529Y868104D01*
X396893Y867066D01*
X398231Y865995D01*
X399543Y864891D01*
X400827Y863755D01*
X402083Y862589D01*
X403310Y861391D01*
X404508Y860164D01*
X405674Y858908D01*
X406810Y857624D01*
X407914Y856312D01*
X408985Y854974D01*
X410023Y853610D01*
X411027Y852220D01*
X411997Y850807D01*
X412932Y849370D01*
X413831Y847910D01*
X414695Y846429D01*
X415521Y844927D01*
X416311Y843405D01*
X417063Y841865D01*
X417777Y840306D01*
X418452Y838730D01*
X419089Y837139D01*
X419686Y835532D01*
X420244Y833911D01*
X420761Y832276D01*
X421239Y830630D01*
X421676Y828972D01*
X422072Y827304D01*
X422427Y825627D01*
X422741Y823942D01*
X423013Y822249D01*
X423244Y820550D01*
X423433Y818846D01*
X423580Y817138D01*
X423685Y815427D01*
X423748Y813714D01*
X423769Y812000D01*
X423748Y810286D01*
X423685Y808573D01*
X423580Y806862D01*
X423433Y805154D01*
X423244Y803450D01*
X423013Y801751D01*
X422741Y800058D01*
X422427Y798373D01*
X422072Y796696D01*
X421676Y795028D01*
X421239Y793370D01*
X420761Y791724D01*
X420244Y790089D01*
X419686Y788468D01*
X419089Y786861D01*
X418452Y785270D01*
X417777Y783694D01*
X417063Y782135D01*
X416311Y780595D01*
X415521Y779073D01*
X414695Y777571D01*
X413831Y776090D01*
X412932Y774630D01*
X411997Y773193D01*
X411027Y771780D01*
X410023Y770390D01*
X408985Y769026D01*
X407914Y767688D01*
X406810Y766376D01*
X405674Y765092D01*
X404508Y763836D01*
X403310Y762609D01*
X402083Y761411D01*
X400827Y760245D01*
X399543Y759109D01*
X398231Y758005D01*
X396893Y756934D01*
X395529Y755896D01*
X394139Y754892D01*
X392726Y753922D01*
X391289Y752987D01*
X389829Y752088D01*
X388348Y751224D01*
X386846Y750398D01*
X385324Y749608D01*
X383784Y748856D01*
X382225Y748142D01*
X380649Y747467D01*
X379058Y746830D01*
X377451Y746233D01*
X375830Y745675D01*
X374195Y745158D01*
X372549Y744680D01*
X370891Y744243D01*
X369223Y743847D01*
X367546Y743492D01*
X365861Y743178D01*
X364168Y742906D01*
X362469Y742675D01*
X360765Y742486D01*
X359057Y742339D01*
X357346Y742234D01*
X355633Y742171D01*
X353919Y742150D01*
X352205Y742171D01*
X350492Y742234D01*
X348781Y742339D01*
X347073Y742486D01*
X345369Y742675D01*
X343670Y742906D01*
X341977Y743178D01*
X340292Y743492D01*
X338615Y743847D01*
X336947Y744243D01*
X335289Y744680D01*
X333643Y745158D01*
X332008Y745675D01*
X330387Y746233D01*
X328780Y746830D01*
X327189Y747467D01*
X325613Y748142D01*
X324054Y748856D01*
X322514Y749608D01*
X320992Y750398D01*
X319490Y751224D01*
X318009Y752088D01*
X316549Y752987D01*
X315112Y753922D01*
X313699Y754892D01*
X312309Y755896D01*
X310945Y756934D01*
X309607Y758005D01*
X308295Y759109D01*
X307011Y760245D01*
X305755Y761411D01*
X304528Y762609D01*
X303330Y763836D01*
X302164Y765092D01*
X301028Y766376D01*
X299924Y767688D01*
X298853Y769026D01*
X297815Y770390D01*
X296811Y771780D01*
X295841Y773193D01*
X294906Y774630D01*
X294007Y776090D01*
X293143Y777571D01*
X292317Y779073D01*
X291527Y780595D01*
X290775Y782135D01*
X290061Y783694D01*
X289386Y785270D01*
X288749Y786861D01*
X288152Y788468D01*
X287594Y790089D01*
X287077Y791724D01*
X286599Y793370D01*
X286162Y795028D01*
X285766Y796696D01*
X285411Y798373D01*
X285097Y800058D01*
X284825Y801751D01*
X284594Y803450D01*
X284405Y805154D01*
X284258Y806862D01*
X284153Y808573D01*
X284090Y810286D01*
X284069Y812000D01*
D56*
X353919Y817715D03*
D54*
X297123Y812000D02*
X297140Y813394D01*
X297191Y814787D01*
X297277Y816178D01*
X297396Y817567D01*
X297550Y818952D01*
X297738Y820334D01*
X297959Y821710D01*
X298214Y823080D01*
X298503Y824444D01*
X298825Y825800D01*
X299180Y827148D01*
X299569Y828487D01*
X299990Y829816D01*
X300443Y831134D01*
X300929Y832441D01*
X301446Y833735D01*
X301996Y835016D01*
X302576Y836283D01*
X303187Y837536D01*
X303829Y838773D01*
X304502Y839995D01*
X305203Y841199D01*
X305935Y842386D01*
X306695Y843554D01*
X307483Y844704D01*
X308300Y845833D01*
X309144Y846943D01*
X310015Y848031D01*
X310913Y849098D01*
X311836Y850142D01*
X312785Y851163D01*
X313758Y852161D01*
X314756Y853134D01*
X315777Y854083D01*
X316821Y855006D01*
X317888Y855904D01*
X318976Y856775D01*
X320086Y857619D01*
X321215Y858436D01*
X322365Y859224D01*
X323533Y859984D01*
X324720Y860716D01*
X325924Y861417D01*
X327146Y862090D01*
X328383Y862732D01*
X329636Y863343D01*
X330903Y863923D01*
X332184Y864473D01*
X333478Y864990D01*
X334785Y865476D01*
X336103Y865929D01*
X337432Y866350D01*
X338771Y866739D01*
X340119Y867094D01*
X341475Y867416D01*
X342839Y867705D01*
X344209Y867960D01*
X345585Y868181D01*
X346967Y868369D01*
X348352Y868523D01*
X349741Y868642D01*
X351132Y868728D01*
X352525Y868779D01*
X353919Y868796D01*
X355313Y868779D01*
X356706Y868728D01*
X358097Y868642D01*
X359486Y868523D01*
X360871Y868369D01*
X362253Y868181D01*
X363629Y867960D01*
X364999Y867705D01*
X366363Y867416D01*
X367719Y867094D01*
X369067Y866739D01*
X370406Y866350D01*
X371735Y865929D01*
X373053Y865476D01*
X374360Y864990D01*
X375654Y864473D01*
X376935Y863923D01*
X378202Y863343D01*
X379455Y862732D01*
X380692Y862090D01*
X381914Y861417D01*
X383118Y860716D01*
X384305Y859984D01*
X385473Y859224D01*
X386623Y858436D01*
X387752Y857619D01*
X388862Y856775D01*
X389950Y855904D01*
X391017Y855006D01*
X392061Y854083D01*
X393082Y853134D01*
X394080Y852161D01*
X395053Y851163D01*
X396002Y850142D01*
X396925Y849098D01*
X397823Y848031D01*
X398694Y846943D01*
X399538Y845833D01*
X400355Y844704D01*
X401143Y843554D01*
X401903Y842386D01*
X402635Y841199D01*
X403336Y839995D01*
X404009Y838773D01*
X404651Y837536D01*
X405262Y836283D01*
X405842Y835016D01*
X406392Y833735D01*
X406909Y832441D01*
X407395Y831134D01*
X407848Y829816D01*
X408269Y828487D01*
X408658Y827148D01*
X409013Y825800D01*
X409335Y824444D01*
X409624Y823080D01*
X409879Y821710D01*
X410100Y820334D01*
X410288Y818952D01*
X410442Y817567D01*
X410561Y816178D01*
X410647Y814787D01*
X410698Y813394D01*
X410715Y812000D01*
X410698Y810606D01*
X410647Y809213D01*
X410561Y807822D01*
X410442Y806433D01*
X410288Y805048D01*
X410100Y803666D01*
X409879Y802290D01*
X409624Y800920D01*
X409335Y799556D01*
X409013Y798200D01*
X408658Y796852D01*
X408269Y795513D01*
X407848Y794184D01*
X407395Y792866D01*
X406909Y791559D01*
X406392Y790265D01*
X405842Y788984D01*
X405262Y787717D01*
X404651Y786464D01*
X404009Y785227D01*
X403336Y784005D01*
X402635Y782801D01*
X401903Y781614D01*
X401143Y780446D01*
X400355Y779296D01*
X399538Y778167D01*
X398694Y777057D01*
X397823Y775969D01*
X396925Y774902D01*
X396002Y773858D01*
X395053Y772837D01*
X394080Y771839D01*
X393082Y770866D01*
X392061Y769917D01*
X391017Y768994D01*
X389950Y768096D01*
X388862Y767225D01*
X387752Y766381D01*
X386623Y765564D01*
X385473Y764776D01*
X384305Y764016D01*
X383118Y763284D01*
X381914Y762583D01*
X380692Y761910D01*
X379455Y761268D01*
X378202Y760657D01*
X376935Y760077D01*
X375654Y759527D01*
X374360Y759010D01*
X373053Y758524D01*
X371735Y758071D01*
X370406Y757650D01*
X369067Y757261D01*
X367719Y756906D01*
X366363Y756584D01*
X364999Y756295D01*
X363629Y756040D01*
X362253Y755819D01*
X360871Y755631D01*
X359486Y755477D01*
X358097Y755358D01*
X356706Y755272D01*
X355313Y755221D01*
X353919Y755204D01*
X352525Y755221D01*
X351132Y755272D01*
X349741Y755358D01*
X348352Y755477D01*
X346967Y755631D01*
X345585Y755819D01*
X344209Y756040D01*
X342839Y756295D01*
X341475Y756584D01*
X340119Y756906D01*
X338771Y757261D01*
X337432Y757650D01*
X336103Y758071D01*
X334785Y758524D01*
X333478Y759010D01*
X332184Y759527D01*
X330903Y760077D01*
X329636Y760657D01*
X328383Y761268D01*
X327146Y761910D01*
X325924Y762583D01*
X324720Y763284D01*
X323533Y764016D01*
X322365Y764776D01*
X321215Y765564D01*
X320086Y766381D01*
X318976Y767225D01*
X317888Y768096D01*
X316821Y768994D01*
X315777Y769917D01*
X314756Y770866D01*
X313758Y771839D01*
X312785Y772837D01*
X311836Y773858D01*
X310913Y774902D01*
X310015Y775969D01*
X309144Y777057D01*
X308300Y778167D01*
X307483Y779296D01*
X306695Y780446D01*
X305935Y781614D01*
X305203Y782801D01*
X304502Y784005D01*
X303829Y785227D01*
X303187Y786464D01*
X302576Y787717D01*
X301996Y788984D01*
X301446Y790265D01*
X300929Y791559D01*
X300443Y792866D01*
X299990Y794184D01*
X299569Y795513D01*
X299180Y796852D01*
X298825Y798200D01*
X298503Y799556D01*
X298214Y800920D01*
X297959Y802290D01*
X297738Y803666D01*
X297550Y805048D01*
X297396Y806433D01*
X297277Y807822D01*
X297191Y809213D01*
X297140Y810606D01*
X297123Y812000D01*
D53*
X355824Y569430D02*
X355824Y566890D01*
X355824Y569430D02*
X368524Y569430D01*
X368524Y575780D01*
X343124Y575780D01*
X343124Y569430D01*
X355824Y569430D01*
X355824Y584670D02*
X355824Y589750D01*
X336774Y540220D02*
X336774Y527520D01*
X343124Y533870D02*
X330424Y533870D01*
X285974Y578320D02*
X285995Y580034D01*
X286058Y581747D01*
X286163Y583458D01*
X286310Y585166D01*
X286499Y586870D01*
X286730Y588569D01*
X287002Y590262D01*
X287316Y591947D01*
X287671Y593624D01*
X288067Y595292D01*
X288504Y596950D01*
X288982Y598596D01*
X289499Y600231D01*
X290057Y601852D01*
X290654Y603459D01*
X291291Y605050D01*
X291966Y606626D01*
X292680Y608185D01*
X293432Y609725D01*
X294222Y611247D01*
X295048Y612749D01*
X295912Y614230D01*
X296811Y615690D01*
X297746Y617127D01*
X298716Y618540D01*
X299720Y619930D01*
X300758Y621294D01*
X301829Y622632D01*
X302933Y623944D01*
X304069Y625228D01*
X305235Y626484D01*
X306433Y627711D01*
X307660Y628909D01*
X308916Y630075D01*
X310200Y631211D01*
X311512Y632315D01*
X312850Y633386D01*
X314214Y634424D01*
X315604Y635428D01*
X317017Y636398D01*
X318454Y637333D01*
X319914Y638232D01*
X321395Y639096D01*
X322897Y639922D01*
X324419Y640712D01*
X325959Y641464D01*
X327518Y642178D01*
X329094Y642853D01*
X330685Y643490D01*
X332292Y644087D01*
X333913Y644645D01*
X335548Y645162D01*
X337194Y645640D01*
X338852Y646077D01*
X340520Y646473D01*
X342197Y646828D01*
X343882Y647142D01*
X345575Y647414D01*
X347274Y647645D01*
X348978Y647834D01*
X350686Y647981D01*
X352397Y648086D01*
X354110Y648149D01*
X355824Y648170D01*
X357538Y648149D01*
X359251Y648086D01*
X360962Y647981D01*
X362670Y647834D01*
X364374Y647645D01*
X366073Y647414D01*
X367766Y647142D01*
X369451Y646828D01*
X371128Y646473D01*
X372796Y646077D01*
X374454Y645640D01*
X376100Y645162D01*
X377735Y644645D01*
X379356Y644087D01*
X380963Y643490D01*
X382554Y642853D01*
X384130Y642178D01*
X385689Y641464D01*
X387229Y640712D01*
X388751Y639922D01*
X390253Y639096D01*
X391734Y638232D01*
X393194Y637333D01*
X394631Y636398D01*
X396044Y635428D01*
X397434Y634424D01*
X398798Y633386D01*
X400136Y632315D01*
X401448Y631211D01*
X402732Y630075D01*
X403988Y628909D01*
X405215Y627711D01*
X406413Y626484D01*
X407579Y625228D01*
X408715Y623944D01*
X409819Y622632D01*
X410890Y621294D01*
X411928Y619930D01*
X412932Y618540D01*
X413902Y617127D01*
X414837Y615690D01*
X415736Y614230D01*
X416600Y612749D01*
X417426Y611247D01*
X418216Y609725D01*
X418968Y608185D01*
X419682Y606626D01*
X420357Y605050D01*
X420994Y603459D01*
X421591Y601852D01*
X422149Y600231D01*
X422666Y598596D01*
X423144Y596950D01*
X423581Y595292D01*
X423977Y593624D01*
X424332Y591947D01*
X424646Y590262D01*
X424918Y588569D01*
X425149Y586870D01*
X425338Y585166D01*
X425485Y583458D01*
X425590Y581747D01*
X425653Y580034D01*
X425674Y578320D01*
X425653Y576606D01*
X425590Y574893D01*
X425485Y573182D01*
X425338Y571474D01*
X425149Y569770D01*
X424918Y568071D01*
X424646Y566378D01*
X424332Y564693D01*
X423977Y563016D01*
X423581Y561348D01*
X423144Y559690D01*
X422666Y558044D01*
X422149Y556409D01*
X421591Y554788D01*
X420994Y553181D01*
X420357Y551590D01*
X419682Y550014D01*
X418968Y548455D01*
X418216Y546915D01*
X417426Y545393D01*
X416600Y543891D01*
X415736Y542410D01*
X414837Y540950D01*
X413902Y539513D01*
X412932Y538100D01*
X411928Y536710D01*
X410890Y535346D01*
X409819Y534008D01*
X408715Y532696D01*
X407579Y531412D01*
X406413Y530156D01*
X405215Y528929D01*
X403988Y527731D01*
X402732Y526565D01*
X401448Y525429D01*
X400136Y524325D01*
X398798Y523254D01*
X397434Y522216D01*
X396044Y521212D01*
X394631Y520242D01*
X393194Y519307D01*
X391734Y518408D01*
X390253Y517544D01*
X388751Y516718D01*
X387229Y515928D01*
X385689Y515176D01*
X384130Y514462D01*
X382554Y513787D01*
X380963Y513150D01*
X379356Y512553D01*
X377735Y511995D01*
X376100Y511478D01*
X374454Y511000D01*
X372796Y510563D01*
X371128Y510167D01*
X369451Y509812D01*
X367766Y509498D01*
X366073Y509226D01*
X364374Y508995D01*
X362670Y508806D01*
X360962Y508659D01*
X359251Y508554D01*
X357538Y508491D01*
X355824Y508470D01*
X354110Y508491D01*
X352397Y508554D01*
X350686Y508659D01*
X348978Y508806D01*
X347274Y508995D01*
X345575Y509226D01*
X343882Y509498D01*
X342197Y509812D01*
X340520Y510167D01*
X338852Y510563D01*
X337194Y511000D01*
X335548Y511478D01*
X333913Y511995D01*
X332292Y512553D01*
X330685Y513150D01*
X329094Y513787D01*
X327518Y514462D01*
X325959Y515176D01*
X324419Y515928D01*
X322897Y516718D01*
X321395Y517544D01*
X319914Y518408D01*
X318454Y519307D01*
X317017Y520242D01*
X315604Y521212D01*
X314214Y522216D01*
X312850Y523254D01*
X311512Y524325D01*
X310200Y525429D01*
X308916Y526565D01*
X307660Y527731D01*
X306433Y528929D01*
X305235Y530156D01*
X304069Y531412D01*
X302933Y532696D01*
X301829Y534008D01*
X300758Y535346D01*
X299720Y536710D01*
X298716Y538100D01*
X297746Y539513D01*
X296811Y540950D01*
X295912Y542410D01*
X295048Y543891D01*
X294222Y545393D01*
X293432Y546915D01*
X292680Y548455D01*
X291966Y550014D01*
X291291Y551590D01*
X290654Y553181D01*
X290057Y554788D01*
X289499Y556409D01*
X288982Y558044D01*
X288504Y559690D01*
X288067Y561348D01*
X287671Y563016D01*
X287316Y564693D01*
X287002Y566378D01*
X286730Y568071D01*
X286499Y569770D01*
X286310Y571474D01*
X286163Y573182D01*
X286058Y574893D01*
X285995Y576606D01*
X285974Y578320D01*
D56*
X355824Y584035D03*
D54*
X299028Y578320D02*
X299045Y579714D01*
X299096Y581107D01*
X299182Y582498D01*
X299301Y583887D01*
X299455Y585272D01*
X299643Y586654D01*
X299864Y588030D01*
X300119Y589400D01*
X300408Y590764D01*
X300730Y592120D01*
X301085Y593468D01*
X301474Y594807D01*
X301895Y596136D01*
X302348Y597454D01*
X302834Y598761D01*
X303351Y600055D01*
X303901Y601336D01*
X304481Y602603D01*
X305092Y603856D01*
X305734Y605093D01*
X306407Y606315D01*
X307108Y607519D01*
X307840Y608706D01*
X308600Y609874D01*
X309388Y611024D01*
X310205Y612153D01*
X311049Y613263D01*
X311920Y614351D01*
X312818Y615418D01*
X313741Y616462D01*
X314690Y617483D01*
X315663Y618481D01*
X316661Y619454D01*
X317682Y620403D01*
X318726Y621326D01*
X319793Y622224D01*
X320881Y623095D01*
X321991Y623939D01*
X323120Y624756D01*
X324270Y625544D01*
X325438Y626304D01*
X326625Y627036D01*
X327829Y627737D01*
X329051Y628410D01*
X330288Y629052D01*
X331541Y629663D01*
X332808Y630243D01*
X334089Y630793D01*
X335383Y631310D01*
X336690Y631796D01*
X338008Y632249D01*
X339337Y632670D01*
X340676Y633059D01*
X342024Y633414D01*
X343380Y633736D01*
X344744Y634025D01*
X346114Y634280D01*
X347490Y634501D01*
X348872Y634689D01*
X350257Y634843D01*
X351646Y634962D01*
X353037Y635048D01*
X354430Y635099D01*
X355824Y635116D01*
X357218Y635099D01*
X358611Y635048D01*
X360002Y634962D01*
X361391Y634843D01*
X362776Y634689D01*
X364158Y634501D01*
X365534Y634280D01*
X366904Y634025D01*
X368268Y633736D01*
X369624Y633414D01*
X370972Y633059D01*
X372311Y632670D01*
X373640Y632249D01*
X374958Y631796D01*
X376265Y631310D01*
X377559Y630793D01*
X378840Y630243D01*
X380107Y629663D01*
X381360Y629052D01*
X382597Y628410D01*
X383819Y627737D01*
X385023Y627036D01*
X386210Y626304D01*
X387378Y625544D01*
X388528Y624756D01*
X389657Y623939D01*
X390767Y623095D01*
X391855Y622224D01*
X392922Y621326D01*
X393966Y620403D01*
X394987Y619454D01*
X395985Y618481D01*
X396958Y617483D01*
X397907Y616462D01*
X398830Y615418D01*
X399728Y614351D01*
X400599Y613263D01*
X401443Y612153D01*
X402260Y611024D01*
X403048Y609874D01*
X403808Y608706D01*
X404540Y607519D01*
X405241Y606315D01*
X405914Y605093D01*
X406556Y603856D01*
X407167Y602603D01*
X407747Y601336D01*
X408297Y600055D01*
X408814Y598761D01*
X409300Y597454D01*
X409753Y596136D01*
X410174Y594807D01*
X410563Y593468D01*
X410918Y592120D01*
X411240Y590764D01*
X411529Y589400D01*
X411784Y588030D01*
X412005Y586654D01*
X412193Y585272D01*
X412347Y583887D01*
X412466Y582498D01*
X412552Y581107D01*
X412603Y579714D01*
X412620Y578320D01*
X412603Y576926D01*
X412552Y575533D01*
X412466Y574142D01*
X412347Y572753D01*
X412193Y571368D01*
X412005Y569986D01*
X411784Y568610D01*
X411529Y567240D01*
X411240Y565876D01*
X410918Y564520D01*
X410563Y563172D01*
X410174Y561833D01*
X409753Y560504D01*
X409300Y559186D01*
X408814Y557879D01*
X408297Y556585D01*
X407747Y555304D01*
X407167Y554037D01*
X406556Y552784D01*
X405914Y551547D01*
X405241Y550325D01*
X404540Y549121D01*
X403808Y547934D01*
X403048Y546766D01*
X402260Y545616D01*
X401443Y544487D01*
X400599Y543377D01*
X399728Y542289D01*
X398830Y541222D01*
X397907Y540178D01*
X396958Y539157D01*
X395985Y538159D01*
X394987Y537186D01*
X393966Y536237D01*
X392922Y535314D01*
X391855Y534416D01*
X390767Y533545D01*
X389657Y532701D01*
X388528Y531884D01*
X387378Y531096D01*
X386210Y530336D01*
X385023Y529604D01*
X383819Y528903D01*
X382597Y528230D01*
X381360Y527588D01*
X380107Y526977D01*
X378840Y526397D01*
X377559Y525847D01*
X376265Y525330D01*
X374958Y524844D01*
X373640Y524391D01*
X372311Y523970D01*
X370972Y523581D01*
X369624Y523226D01*
X368268Y522904D01*
X366904Y522615D01*
X365534Y522360D01*
X364158Y522139D01*
X362776Y521951D01*
X361391Y521797D01*
X360002Y521678D01*
X358611Y521592D01*
X357218Y521541D01*
X355824Y521524D01*
X354430Y521541D01*
X353037Y521592D01*
X351646Y521678D01*
X350257Y521797D01*
X348872Y521951D01*
X347490Y522139D01*
X346114Y522360D01*
X344744Y522615D01*
X343380Y522904D01*
X342024Y523226D01*
X340676Y523581D01*
X339337Y523970D01*
X338008Y524391D01*
X336690Y524844D01*
X335383Y525330D01*
X334089Y525847D01*
X332808Y526397D01*
X331541Y526977D01*
X330288Y527588D01*
X329051Y528230D01*
X327829Y528903D01*
X326625Y529604D01*
X325438Y530336D01*
X324270Y531096D01*
X323120Y531884D01*
X321991Y532701D01*
X320881Y533545D01*
X319793Y534416D01*
X318726Y535314D01*
X317682Y536237D01*
X316661Y537186D01*
X315663Y538159D01*
X314690Y539157D01*
X313741Y540178D01*
X312818Y541222D01*
X311920Y542289D01*
X311049Y543377D01*
X310205Y544487D01*
X309388Y545616D01*
X308600Y546766D01*
X307840Y547934D01*
X307108Y549121D01*
X306407Y550325D01*
X305734Y551547D01*
X305092Y552784D01*
X304481Y554037D01*
X303901Y555304D01*
X303351Y556585D01*
X302834Y557879D01*
X302348Y559186D01*
X301895Y560504D01*
X301474Y561833D01*
X301085Y563172D01*
X300730Y564520D01*
X300408Y565876D01*
X300119Y567240D01*
X299864Y568610D01*
X299643Y569986D01*
X299455Y571368D01*
X299301Y572753D01*
X299182Y574142D01*
X299096Y575533D01*
X299045Y576926D01*
X299028Y578320D01*
D53*
X587599Y765010D02*
X587599Y772630D01*
X591409Y768820D02*
X583789Y768820D01*
X558389Y799300D02*
X558401Y800297D01*
X558438Y801294D01*
X558499Y802290D01*
X558585Y803283D01*
X558695Y804275D01*
X558829Y805263D01*
X558987Y806248D01*
X559170Y807228D01*
X559376Y808204D01*
X559607Y809175D01*
X559861Y810139D01*
X560139Y811097D01*
X560440Y812048D01*
X560765Y812991D01*
X561112Y813926D01*
X561483Y814852D01*
X561876Y815769D01*
X562291Y816676D01*
X562728Y817572D01*
X563188Y818458D01*
X563669Y819331D01*
X564171Y820193D01*
X564694Y821042D01*
X565238Y821878D01*
X565802Y822701D01*
X566387Y823509D01*
X566991Y824303D01*
X567614Y825082D01*
X568256Y825845D01*
X568917Y826592D01*
X569596Y827323D01*
X570292Y828037D01*
X571006Y828733D01*
X571737Y829412D01*
X572484Y830073D01*
X573247Y830715D01*
X574026Y831338D01*
X574820Y831942D01*
X575628Y832527D01*
X576451Y833091D01*
X577287Y833635D01*
X578136Y834158D01*
X578998Y834660D01*
X579871Y835141D01*
X580757Y835601D01*
X581653Y836038D01*
X582560Y836453D01*
X583477Y836846D01*
X584403Y837217D01*
X585338Y837564D01*
X586281Y837889D01*
X587232Y838190D01*
X588190Y838468D01*
X589154Y838722D01*
X590125Y838953D01*
X591101Y839159D01*
X592081Y839342D01*
X593066Y839500D01*
X594054Y839634D01*
X595046Y839744D01*
X596039Y839830D01*
X597035Y839891D01*
X598032Y839928D01*
X599029Y839940D01*
X600026Y839928D01*
X601023Y839891D01*
X602019Y839830D01*
X603012Y839744D01*
X604004Y839634D01*
X604992Y839500D01*
X605977Y839342D01*
X606957Y839159D01*
X607933Y838953D01*
X608904Y838722D01*
X609868Y838468D01*
X610826Y838190D01*
X611777Y837889D01*
X612720Y837564D01*
X613655Y837217D01*
X614581Y836846D01*
X615498Y836453D01*
X616405Y836038D01*
X617301Y835601D01*
X618187Y835141D01*
X619060Y834660D01*
X619922Y834158D01*
X620771Y833635D01*
X621607Y833091D01*
X622430Y832527D01*
X623238Y831942D01*
X624032Y831338D01*
X624811Y830715D01*
X625574Y830073D01*
X626321Y829412D01*
X627052Y828733D01*
X627766Y828037D01*
X628462Y827323D01*
X629141Y826592D01*
X629802Y825845D01*
X630444Y825082D01*
X631067Y824303D01*
X631671Y823509D01*
X632256Y822701D01*
X632820Y821878D01*
X633364Y821042D01*
X633887Y820193D01*
X634389Y819331D01*
X634870Y818458D01*
X635330Y817572D01*
X635767Y816676D01*
X636182Y815769D01*
X636575Y814852D01*
X636946Y813926D01*
X637293Y812991D01*
X637618Y812048D01*
X637919Y811097D01*
X638197Y810139D01*
X638451Y809175D01*
X638682Y808204D01*
X638888Y807228D01*
X639071Y806248D01*
X639229Y805263D01*
X639363Y804275D01*
X639473Y803283D01*
X639559Y802290D01*
X639620Y801294D01*
X639657Y800297D01*
X639669Y799300D01*
X639657Y798303D01*
X639620Y797306D01*
X639559Y796310D01*
X639473Y795317D01*
X639363Y794325D01*
X639229Y793337D01*
X639071Y792352D01*
X638888Y791372D01*
X638682Y790396D01*
X638451Y789425D01*
X638197Y788461D01*
X637919Y787503D01*
X637618Y786552D01*
X637293Y785609D01*
X636946Y784674D01*
X636575Y783748D01*
X636182Y782831D01*
X635767Y781924D01*
X635330Y781028D01*
X634870Y780142D01*
X634389Y779269D01*
X633887Y778407D01*
X633364Y777558D01*
X632820Y776722D01*
X632256Y775899D01*
X631671Y775091D01*
X631067Y774297D01*
X630444Y773518D01*
X629802Y772755D01*
X629141Y772008D01*
X628462Y771277D01*
X627766Y770563D01*
X627052Y769867D01*
X626321Y769188D01*
X625574Y768527D01*
X624811Y767885D01*
X624032Y767262D01*
X623238Y766658D01*
X622430Y766073D01*
X621607Y765509D01*
X620771Y764965D01*
X619922Y764442D01*
X619060Y763940D01*
X618187Y763459D01*
X617301Y762999D01*
X616405Y762562D01*
X615498Y762147D01*
X614581Y761754D01*
X613655Y761383D01*
X612720Y761036D01*
X611777Y760711D01*
X610826Y760410D01*
X609868Y760132D01*
X608904Y759878D01*
X607933Y759647D01*
X606957Y759441D01*
X605977Y759258D01*
X604992Y759100D01*
X604004Y758966D01*
X603012Y758856D01*
X602019Y758770D01*
X601023Y758709D01*
X600026Y758672D01*
X599029Y758660D01*
X598032Y758672D01*
X597035Y758709D01*
X596039Y758770D01*
X595046Y758856D01*
X594054Y758966D01*
X593066Y759100D01*
X592081Y759258D01*
X591101Y759441D01*
X590125Y759647D01*
X589154Y759878D01*
X588190Y760132D01*
X587232Y760410D01*
X586281Y760711D01*
X585338Y761036D01*
X584403Y761383D01*
X583477Y761754D01*
X582560Y762147D01*
X581653Y762562D01*
X580757Y762999D01*
X579871Y763459D01*
X578998Y763940D01*
X578136Y764442D01*
X577287Y764965D01*
X576451Y765509D01*
X575628Y766073D01*
X574820Y766658D01*
X574026Y767262D01*
X573247Y767885D01*
X572484Y768527D01*
X571737Y769188D01*
X571006Y769867D01*
X570292Y770563D01*
X569596Y771277D01*
X568917Y772008D01*
X568256Y772755D01*
X567614Y773518D01*
X566991Y774297D01*
X566387Y775091D01*
X565802Y775899D01*
X565238Y776722D01*
X564694Y777558D01*
X564171Y778407D01*
X563669Y779269D01*
X563188Y780142D01*
X562728Y781028D01*
X562291Y781924D01*
X561876Y782831D01*
X561483Y783748D01*
X561112Y784674D01*
X560765Y785609D01*
X560440Y786552D01*
X560139Y787503D01*
X559861Y788461D01*
X559607Y789425D01*
X559376Y790396D01*
X559170Y791372D01*
X558987Y792352D01*
X558829Y793337D01*
X558695Y794325D01*
X558585Y795317D01*
X558499Y796310D01*
X558438Y797306D01*
X558401Y798303D01*
X558389Y799300D01*
X586964Y576415D02*
X586964Y568795D01*
X590774Y572605D02*
X583154Y572605D01*
X557754Y603085D02*
X557766Y604082D01*
X557803Y605079D01*
X557864Y606075D01*
X557950Y607068D01*
X558060Y608060D01*
X558194Y609048D01*
X558352Y610033D01*
X558535Y611013D01*
X558741Y611989D01*
X558972Y612960D01*
X559226Y613924D01*
X559504Y614882D01*
X559805Y615833D01*
X560130Y616776D01*
X560477Y617711D01*
X560848Y618637D01*
X561241Y619554D01*
X561656Y620461D01*
X562093Y621357D01*
X562553Y622243D01*
X563034Y623116D01*
X563536Y623978D01*
X564059Y624827D01*
X564603Y625663D01*
X565167Y626486D01*
X565752Y627294D01*
X566356Y628088D01*
X566979Y628867D01*
X567621Y629630D01*
X568282Y630377D01*
X568961Y631108D01*
X569657Y631822D01*
X570371Y632518D01*
X571102Y633197D01*
X571849Y633858D01*
X572612Y634500D01*
X573391Y635123D01*
X574185Y635727D01*
X574993Y636312D01*
X575816Y636876D01*
X576652Y637420D01*
X577501Y637943D01*
X578363Y638445D01*
X579236Y638926D01*
X580122Y639386D01*
X581018Y639823D01*
X581925Y640238D01*
X582842Y640631D01*
X583768Y641002D01*
X584703Y641349D01*
X585646Y641674D01*
X586597Y641975D01*
X587555Y642253D01*
X588519Y642507D01*
X589490Y642738D01*
X590466Y642944D01*
X591446Y643127D01*
X592431Y643285D01*
X593419Y643419D01*
X594411Y643529D01*
X595404Y643615D01*
X596400Y643676D01*
X597397Y643713D01*
X598394Y643725D01*
X599391Y643713D01*
X600388Y643676D01*
X601384Y643615D01*
X602377Y643529D01*
X603369Y643419D01*
X604357Y643285D01*
X605342Y643127D01*
X606322Y642944D01*
X607298Y642738D01*
X608269Y642507D01*
X609233Y642253D01*
X610191Y641975D01*
X611142Y641674D01*
X612085Y641349D01*
X613020Y641002D01*
X613946Y640631D01*
X614863Y640238D01*
X615770Y639823D01*
X616666Y639386D01*
X617552Y638926D01*
X618425Y638445D01*
X619287Y637943D01*
X620136Y637420D01*
X620972Y636876D01*
X621795Y636312D01*
X622603Y635727D01*
X623397Y635123D01*
X624176Y634500D01*
X624939Y633858D01*
X625686Y633197D01*
X626417Y632518D01*
X627131Y631822D01*
X627827Y631108D01*
X628506Y630377D01*
X629167Y629630D01*
X629809Y628867D01*
X630432Y628088D01*
X631036Y627294D01*
X631621Y626486D01*
X632185Y625663D01*
X632729Y624827D01*
X633252Y623978D01*
X633754Y623116D01*
X634235Y622243D01*
X634695Y621357D01*
X635132Y620461D01*
X635547Y619554D01*
X635940Y618637D01*
X636311Y617711D01*
X636658Y616776D01*
X636983Y615833D01*
X637284Y614882D01*
X637562Y613924D01*
X637816Y612960D01*
X638047Y611989D01*
X638253Y611013D01*
X638436Y610033D01*
X638594Y609048D01*
X638728Y608060D01*
X638838Y607068D01*
X638924Y606075D01*
X638985Y605079D01*
X639022Y604082D01*
X639034Y603085D01*
X639022Y602088D01*
X638985Y601091D01*
X638924Y600095D01*
X638838Y599102D01*
X638728Y598110D01*
X638594Y597122D01*
X638436Y596137D01*
X638253Y595157D01*
X638047Y594181D01*
X637816Y593210D01*
X637562Y592246D01*
X637284Y591288D01*
X636983Y590337D01*
X636658Y589394D01*
X636311Y588459D01*
X635940Y587533D01*
X635547Y586616D01*
X635132Y585709D01*
X634695Y584813D01*
X634235Y583927D01*
X633754Y583054D01*
X633252Y582192D01*
X632729Y581343D01*
X632185Y580507D01*
X631621Y579684D01*
X631036Y578876D01*
X630432Y578082D01*
X629809Y577303D01*
X629167Y576540D01*
X628506Y575793D01*
X627827Y575062D01*
X627131Y574348D01*
X626417Y573652D01*
X625686Y572973D01*
X624939Y572312D01*
X624176Y571670D01*
X623397Y571047D01*
X622603Y570443D01*
X621795Y569858D01*
X620972Y569294D01*
X620136Y568750D01*
X619287Y568227D01*
X618425Y567725D01*
X617552Y567244D01*
X616666Y566784D01*
X615770Y566347D01*
X614863Y565932D01*
X613946Y565539D01*
X613020Y565168D01*
X612085Y564821D01*
X611142Y564496D01*
X610191Y564195D01*
X609233Y563917D01*
X608269Y563663D01*
X607298Y563432D01*
X606322Y563226D01*
X605342Y563043D01*
X604357Y562885D01*
X603369Y562751D01*
X602377Y562641D01*
X601384Y562555D01*
X600388Y562494D01*
X599391Y562457D01*
X598394Y562445D01*
X597397Y562457D01*
X596400Y562494D01*
X595404Y562555D01*
X594411Y562641D01*
X593419Y562751D01*
X592431Y562885D01*
X591446Y563043D01*
X590466Y563226D01*
X589490Y563432D01*
X588519Y563663D01*
X587555Y563917D01*
X586597Y564195D01*
X585646Y564496D01*
X584703Y564821D01*
X583768Y565168D01*
X582842Y565539D01*
X581925Y565932D01*
X581018Y566347D01*
X580122Y566784D01*
X579236Y567244D01*
X578363Y567725D01*
X577501Y568227D01*
X576652Y568750D01*
X575816Y569294D01*
X574993Y569858D01*
X574185Y570443D01*
X573391Y571047D01*
X572612Y571670D01*
X571849Y572312D01*
X571102Y572973D01*
X570371Y573652D01*
X569657Y574348D01*
X568961Y575062D01*
X568282Y575793D01*
X567621Y576540D01*
X566979Y577303D01*
X566356Y578082D01*
X565752Y578876D01*
X565167Y579684D01*
X564603Y580507D01*
X564059Y581343D01*
X563536Y582192D01*
X563034Y583054D01*
X562553Y583927D01*
X562093Y584813D01*
X561656Y585709D01*
X561241Y586616D01*
X560848Y587533D01*
X560477Y588459D01*
X560130Y589394D01*
X559805Y590337D01*
X559504Y591288D01*
X559226Y592246D01*
X558972Y593210D01*
X558741Y594181D01*
X558535Y595157D01*
X558352Y596137D01*
X558194Y597122D01*
X558060Y598110D01*
X557950Y599102D01*
X557864Y600095D01*
X557803Y601091D01*
X557766Y602088D01*
X557754Y603085D01*
D55*
X579014Y719880D02*
X579014Y759340D01*
X559354Y759340D02*
X559354Y719880D01*
X559354Y759340D02*
X579014Y759340D01*
X579014Y719880D02*
X559354Y719880D01*
D54*
X550134Y712940D02*
X550134Y763740D01*
X550134Y712940D02*
X519654Y712940D01*
X519654Y763740D01*
X550134Y763740D01*
D51*
X517881Y805205D02*
X517881Y812578D01*
X521567Y812578D01*
X522795Y811349D01*
X522795Y808892D01*
X521567Y807663D01*
X517881Y807663D01*
X520338Y807663D02*
X522795Y805205D01*
X525365Y810120D02*
X527822Y812578D01*
X527822Y805205D01*
X525365Y805205D02*
X530280Y805205D01*
X508559Y879704D02*
X508559Y887076D01*
X512245Y887076D01*
X513474Y885847D01*
X513474Y883390D01*
X512245Y882161D01*
X508559Y882161D01*
X511016Y882161D02*
X513474Y879704D01*
X516043Y879704D02*
X520958Y879704D01*
X520958Y884618D02*
X516043Y879704D01*
X520958Y884618D02*
X520958Y885847D01*
X519729Y887076D01*
X517272Y887076D01*
X516043Y885847D01*
X521437Y584486D02*
X521437Y577113D01*
X521437Y584486D02*
X525123Y584486D01*
X526351Y583257D01*
X526351Y580800D01*
X525123Y579571D01*
X521437Y579571D01*
X523894Y579571D02*
X526351Y577113D01*
X528921Y583257D02*
X530149Y584486D01*
X532607Y584486D01*
X533836Y583257D01*
X533836Y582028D01*
X532607Y580800D01*
X531378Y580800D01*
X532607Y580800D02*
X533836Y579571D01*
X533836Y578342D01*
X532607Y577113D01*
X530149Y577113D01*
X528921Y578342D01*
X513385Y653136D02*
X513385Y660508D01*
X517071Y660508D01*
X518300Y659279D01*
X518300Y656822D01*
X517071Y655593D01*
X513385Y655593D01*
X515842Y655593D02*
X518300Y653136D01*
X524555Y653136D02*
X524555Y660508D01*
X520869Y656822D01*
X525784Y656822D01*
D53*
X463837Y862178D02*
X463837Y872338D01*
X489745Y798170D02*
X489745Y788264D01*
X495333Y804520D02*
X502699Y804520D01*
X451391Y804520D02*
X451391Y811886D01*
X451391Y855828D02*
X458757Y855828D01*
X497619Y811886D02*
X495333Y809600D01*
X495333Y855828D02*
X502699Y855828D01*
X451391Y855828D02*
X451391Y848462D01*
X451391Y804520D02*
X458757Y804520D01*
X502699Y804520D02*
X502699Y811886D01*
X502699Y848462D02*
X502699Y855828D01*
D51*
X509593Y814085D02*
X517558Y806120D01*
X517558Y814085D02*
X509593Y806120D01*
X509593Y810103D02*
X517558Y810103D01*
X513575Y814085D02*
X513575Y806120D01*
D53*
X463837Y643738D02*
X463837Y633578D01*
X489745Y569570D02*
X489745Y559664D01*
X495333Y575920D02*
X502699Y575920D01*
X451391Y575920D02*
X451391Y583286D01*
X451391Y627228D02*
X458757Y627228D01*
X497619Y583286D02*
X495333Y581000D01*
X495333Y627228D02*
X502699Y627228D01*
X451391Y627228D02*
X451391Y619862D01*
X451391Y575920D02*
X458757Y575920D01*
X502699Y575920D02*
X502699Y583286D01*
X502699Y619862D02*
X502699Y627228D01*
D51*
X509593Y585485D02*
X517558Y577520D01*
X517558Y585485D02*
X509593Y577520D01*
X509593Y581503D02*
X517558Y581503D01*
X513575Y585485D02*
X513575Y577520D01*
D57*
X104890Y748076D02*
X104890Y849676D01*
X170633Y849676D02*
X170633Y748076D01*
X125835Y849676D02*
X120911Y849676D01*
X112120Y849676D02*
X112120Y850963D01*
X116260Y850963D02*
X116260Y849676D01*
X114111Y849676D01*
X112120Y849676D01*
X117760Y852746D02*
X117760Y855376D01*
X110620Y855376D02*
X110620Y852746D01*
X116260Y849676D02*
X120911Y849676D01*
X112120Y850963D02*
X110620Y852746D01*
X110620Y855376D02*
X117760Y855376D01*
X165803Y849676D02*
X170633Y849676D01*
X165803Y849676D02*
X125835Y849676D01*
X117760Y852746D02*
X116260Y850963D01*
X120911Y849676D02*
X120911Y748076D01*
X125835Y748076D01*
X114111Y748076D02*
X114111Y849676D01*
X114111Y748076D02*
X120911Y748076D01*
X125835Y748076D02*
X165803Y748076D01*
X170633Y748076D01*
X185890Y748076D01*
X112120Y849676D02*
X107890Y849676D01*
X107890Y748076D02*
X114111Y748076D01*
X185890Y748076D02*
X185890Y849676D01*
X170633Y849676D01*
X107890Y849676D02*
X107890Y748076D01*
X107890Y849676D02*
X104890Y849676D01*
X104890Y748076D02*
X107890Y748076D01*
X126490Y824276D02*
X126496Y824746D01*
X126513Y825216D01*
X126542Y825685D01*
X126582Y826153D01*
X126634Y826620D01*
X126697Y827086D01*
X126772Y827550D01*
X126858Y828012D01*
X126955Y828472D01*
X127064Y828929D01*
X127184Y829384D01*
X127315Y829835D01*
X127457Y830283D01*
X127609Y830727D01*
X127773Y831168D01*
X127948Y831604D01*
X128133Y832036D01*
X128329Y832464D01*
X128535Y832886D01*
X128751Y833303D01*
X128978Y833715D01*
X129214Y834121D01*
X129461Y834521D01*
X129717Y834915D01*
X129983Y835303D01*
X130259Y835684D01*
X130543Y836058D01*
X130837Y836425D01*
X131139Y836784D01*
X131451Y837136D01*
X131771Y837481D01*
X132099Y837817D01*
X132435Y838145D01*
X132780Y838465D01*
X133132Y838777D01*
X133491Y839079D01*
X133858Y839373D01*
X134232Y839657D01*
X134613Y839933D01*
X135001Y840199D01*
X135395Y840455D01*
X135795Y840702D01*
X136201Y840938D01*
X136613Y841165D01*
X137030Y841381D01*
X137452Y841587D01*
X137880Y841783D01*
X138312Y841968D01*
X138748Y842143D01*
X139189Y842307D01*
X139633Y842459D01*
X140081Y842601D01*
X140532Y842732D01*
X140987Y842852D01*
X141444Y842961D01*
X141904Y843058D01*
X142366Y843144D01*
X142830Y843219D01*
X143296Y843282D01*
X143763Y843334D01*
X144231Y843374D01*
X144700Y843403D01*
X145170Y843420D01*
X145640Y843426D01*
X146110Y843420D01*
X146580Y843403D01*
X147049Y843374D01*
X147517Y843334D01*
X147984Y843282D01*
X148450Y843219D01*
X148914Y843144D01*
X149376Y843058D01*
X149836Y842961D01*
X150293Y842852D01*
X150748Y842732D01*
X151199Y842601D01*
X151647Y842459D01*
X152091Y842307D01*
X152532Y842143D01*
X152968Y841968D01*
X153400Y841783D01*
X153828Y841587D01*
X154250Y841381D01*
X154667Y841165D01*
X155079Y840938D01*
X155485Y840702D01*
X155885Y840455D01*
X156279Y840199D01*
X156667Y839933D01*
X157048Y839657D01*
X157422Y839373D01*
X157789Y839079D01*
X158148Y838777D01*
X158500Y838465D01*
X158845Y838145D01*
X159181Y837817D01*
X159509Y837481D01*
X159829Y837136D01*
X160141Y836784D01*
X160443Y836425D01*
X160737Y836058D01*
X161021Y835684D01*
X161297Y835303D01*
X161563Y834915D01*
X161819Y834521D01*
X162066Y834121D01*
X162302Y833715D01*
X162529Y833303D01*
X162745Y832886D01*
X162951Y832464D01*
X163147Y832036D01*
X163332Y831604D01*
X163507Y831168D01*
X163671Y830727D01*
X163823Y830283D01*
X163965Y829835D01*
X164096Y829384D01*
X164216Y828929D01*
X164325Y828472D01*
X164422Y828012D01*
X164508Y827550D01*
X164583Y827086D01*
X164646Y826620D01*
X164698Y826153D01*
X164738Y825685D01*
X164767Y825216D01*
X164784Y824746D01*
X164790Y824276D01*
X164784Y823806D01*
X164767Y823336D01*
X164738Y822867D01*
X164698Y822399D01*
X164646Y821932D01*
X164583Y821466D01*
X164508Y821002D01*
X164422Y820540D01*
X164325Y820080D01*
X164216Y819623D01*
X164096Y819168D01*
X163965Y818717D01*
X163823Y818269D01*
X163671Y817825D01*
X163507Y817384D01*
X163332Y816948D01*
X163147Y816516D01*
X162951Y816088D01*
X162745Y815666D01*
X162529Y815249D01*
X162302Y814837D01*
X162066Y814431D01*
X161819Y814031D01*
X161563Y813637D01*
X161297Y813249D01*
X161021Y812868D01*
X160737Y812494D01*
X160443Y812127D01*
X160141Y811768D01*
X159829Y811416D01*
X159509Y811071D01*
X159181Y810735D01*
X158845Y810407D01*
X158500Y810087D01*
X158148Y809775D01*
X157789Y809473D01*
X157422Y809179D01*
X157048Y808895D01*
X156667Y808619D01*
X156279Y808353D01*
X155885Y808097D01*
X155485Y807850D01*
X155079Y807614D01*
X154667Y807387D01*
X154250Y807171D01*
X153828Y806965D01*
X153400Y806769D01*
X152968Y806584D01*
X152532Y806409D01*
X152091Y806245D01*
X151647Y806093D01*
X151199Y805951D01*
X150748Y805820D01*
X150293Y805700D01*
X149836Y805591D01*
X149376Y805494D01*
X148914Y805408D01*
X148450Y805333D01*
X147984Y805270D01*
X147517Y805218D01*
X147049Y805178D01*
X146580Y805149D01*
X146110Y805132D01*
X145640Y805126D01*
X145170Y805132D01*
X144700Y805149D01*
X144231Y805178D01*
X143763Y805218D01*
X143296Y805270D01*
X142830Y805333D01*
X142366Y805408D01*
X141904Y805494D01*
X141444Y805591D01*
X140987Y805700D01*
X140532Y805820D01*
X140081Y805951D01*
X139633Y806093D01*
X139189Y806245D01*
X138748Y806409D01*
X138312Y806584D01*
X137880Y806769D01*
X137452Y806965D01*
X137030Y807171D01*
X136613Y807387D01*
X136201Y807614D01*
X135795Y807850D01*
X135395Y808097D01*
X135001Y808353D01*
X134613Y808619D01*
X134232Y808895D01*
X133858Y809179D01*
X133491Y809473D01*
X133132Y809775D01*
X132780Y810087D01*
X132435Y810407D01*
X132099Y810735D01*
X131771Y811071D01*
X131451Y811416D01*
X131139Y811768D01*
X130837Y812127D01*
X130543Y812494D01*
X130259Y812868D01*
X129983Y813249D01*
X129717Y813637D01*
X129461Y814031D01*
X129214Y814431D01*
X128978Y814837D01*
X128751Y815249D01*
X128535Y815666D01*
X128329Y816088D01*
X128133Y816516D01*
X127948Y816948D01*
X127773Y817384D01*
X127609Y817825D01*
X127457Y818269D01*
X127315Y818717D01*
X127184Y819168D01*
X127064Y819623D01*
X126955Y820080D01*
X126858Y820540D01*
X126772Y821002D01*
X126697Y821466D01*
X126634Y821932D01*
X126582Y822399D01*
X126542Y822867D01*
X126513Y823336D01*
X126496Y823806D01*
X126490Y824276D01*
X126490Y773476D02*
X126496Y773946D01*
X126513Y774416D01*
X126542Y774885D01*
X126582Y775353D01*
X126634Y775820D01*
X126697Y776286D01*
X126772Y776750D01*
X126858Y777212D01*
X126955Y777672D01*
X127064Y778129D01*
X127184Y778584D01*
X127315Y779035D01*
X127457Y779483D01*
X127609Y779927D01*
X127773Y780368D01*
X127948Y780804D01*
X128133Y781236D01*
X128329Y781664D01*
X128535Y782086D01*
X128751Y782503D01*
X128978Y782915D01*
X129214Y783321D01*
X129461Y783721D01*
X129717Y784115D01*
X129983Y784503D01*
X130259Y784884D01*
X130543Y785258D01*
X130837Y785625D01*
X131139Y785984D01*
X131451Y786336D01*
X131771Y786681D01*
X132099Y787017D01*
X132435Y787345D01*
X132780Y787665D01*
X133132Y787977D01*
X133491Y788279D01*
X133858Y788573D01*
X134232Y788857D01*
X134613Y789133D01*
X135001Y789399D01*
X135395Y789655D01*
X135795Y789902D01*
X136201Y790138D01*
X136613Y790365D01*
X137030Y790581D01*
X137452Y790787D01*
X137880Y790983D01*
X138312Y791168D01*
X138748Y791343D01*
X139189Y791507D01*
X139633Y791659D01*
X140081Y791801D01*
X140532Y791932D01*
X140987Y792052D01*
X141444Y792161D01*
X141904Y792258D01*
X142366Y792344D01*
X142830Y792419D01*
X143296Y792482D01*
X143763Y792534D01*
X144231Y792574D01*
X144700Y792603D01*
X145170Y792620D01*
X145640Y792626D01*
X146110Y792620D01*
X146580Y792603D01*
X147049Y792574D01*
X147517Y792534D01*
X147984Y792482D01*
X148450Y792419D01*
X148914Y792344D01*
X149376Y792258D01*
X149836Y792161D01*
X150293Y792052D01*
X150748Y791932D01*
X151199Y791801D01*
X151647Y791659D01*
X152091Y791507D01*
X152532Y791343D01*
X152968Y791168D01*
X153400Y790983D01*
X153828Y790787D01*
X154250Y790581D01*
X154667Y790365D01*
X155079Y790138D01*
X155485Y789902D01*
X155885Y789655D01*
X156279Y789399D01*
X156667Y789133D01*
X157048Y788857D01*
X157422Y788573D01*
X157789Y788279D01*
X158148Y787977D01*
X158500Y787665D01*
X158845Y787345D01*
X159181Y787017D01*
X159509Y786681D01*
X159829Y786336D01*
X160141Y785984D01*
X160443Y785625D01*
X160737Y785258D01*
X161021Y784884D01*
X161297Y784503D01*
X161563Y784115D01*
X161819Y783721D01*
X162066Y783321D01*
X162302Y782915D01*
X162529Y782503D01*
X162745Y782086D01*
X162951Y781664D01*
X163147Y781236D01*
X163332Y780804D01*
X163507Y780368D01*
X163671Y779927D01*
X163823Y779483D01*
X163965Y779035D01*
X164096Y778584D01*
X164216Y778129D01*
X164325Y777672D01*
X164422Y777212D01*
X164508Y776750D01*
X164583Y776286D01*
X164646Y775820D01*
X164698Y775353D01*
X164738Y774885D01*
X164767Y774416D01*
X164784Y773946D01*
X164790Y773476D01*
X164784Y773006D01*
X164767Y772536D01*
X164738Y772067D01*
X164698Y771599D01*
X164646Y771132D01*
X164583Y770666D01*
X164508Y770202D01*
X164422Y769740D01*
X164325Y769280D01*
X164216Y768823D01*
X164096Y768368D01*
X163965Y767917D01*
X163823Y767469D01*
X163671Y767025D01*
X163507Y766584D01*
X163332Y766148D01*
X163147Y765716D01*
X162951Y765288D01*
X162745Y764866D01*
X162529Y764449D01*
X162302Y764037D01*
X162066Y763631D01*
X161819Y763231D01*
X161563Y762837D01*
X161297Y762449D01*
X161021Y762068D01*
X160737Y761694D01*
X160443Y761327D01*
X160141Y760968D01*
X159829Y760616D01*
X159509Y760271D01*
X159181Y759935D01*
X158845Y759607D01*
X158500Y759287D01*
X158148Y758975D01*
X157789Y758673D01*
X157422Y758379D01*
X157048Y758095D01*
X156667Y757819D01*
X156279Y757553D01*
X155885Y757297D01*
X155485Y757050D01*
X155079Y756814D01*
X154667Y756587D01*
X154250Y756371D01*
X153828Y756165D01*
X153400Y755969D01*
X152968Y755784D01*
X152532Y755609D01*
X152091Y755445D01*
X151647Y755293D01*
X151199Y755151D01*
X150748Y755020D01*
X150293Y754900D01*
X149836Y754791D01*
X149376Y754694D01*
X148914Y754608D01*
X148450Y754533D01*
X147984Y754470D01*
X147517Y754418D01*
X147049Y754378D01*
X146580Y754349D01*
X146110Y754332D01*
X145640Y754326D01*
X145170Y754332D01*
X144700Y754349D01*
X144231Y754378D01*
X143763Y754418D01*
X143296Y754470D01*
X142830Y754533D01*
X142366Y754608D01*
X141904Y754694D01*
X141444Y754791D01*
X140987Y754900D01*
X140532Y755020D01*
X140081Y755151D01*
X139633Y755293D01*
X139189Y755445D01*
X138748Y755609D01*
X138312Y755784D01*
X137880Y755969D01*
X137452Y756165D01*
X137030Y756371D01*
X136613Y756587D01*
X136201Y756814D01*
X135795Y757050D01*
X135395Y757297D01*
X135001Y757553D01*
X134613Y757819D01*
X134232Y758095D01*
X133858Y758379D01*
X133491Y758673D01*
X133132Y758975D01*
X132780Y759287D01*
X132435Y759607D01*
X132099Y759935D01*
X131771Y760271D01*
X131451Y760616D01*
X131139Y760968D01*
X130837Y761327D01*
X130543Y761694D01*
X130259Y762068D01*
X129983Y762449D01*
X129717Y762837D01*
X129461Y763231D01*
X129214Y763631D01*
X128978Y764037D01*
X128751Y764449D01*
X128535Y764866D01*
X128329Y765288D01*
X128133Y765716D01*
X127948Y766148D01*
X127773Y766584D01*
X127609Y767025D01*
X127457Y767469D01*
X127315Y767917D01*
X127184Y768368D01*
X127064Y768823D01*
X126955Y769280D01*
X126858Y769740D01*
X126772Y770202D01*
X126697Y770666D01*
X126634Y771132D01*
X126582Y771599D01*
X126542Y772067D01*
X126513Y772536D01*
X126496Y773006D01*
X126490Y773476D01*
X103874Y668066D02*
X103874Y566466D01*
X169617Y566466D02*
X169617Y668066D01*
X124819Y668066D02*
X119895Y668066D01*
X111104Y668066D02*
X111104Y669353D01*
X115244Y669353D02*
X115244Y668066D01*
X113095Y668066D01*
X111104Y668066D01*
X116744Y671136D02*
X116744Y673766D01*
X109604Y673766D02*
X109604Y671136D01*
X115244Y668066D02*
X119895Y668066D01*
X111104Y669353D02*
X109604Y671136D01*
X109604Y673766D02*
X116744Y673766D01*
X164787Y668066D02*
X169617Y668066D01*
X164787Y668066D02*
X124819Y668066D01*
X116744Y671136D02*
X115244Y669353D01*
X119895Y668066D02*
X119895Y566466D01*
X124819Y566466D01*
X113095Y566466D02*
X113095Y668066D01*
X113095Y566466D02*
X119895Y566466D01*
X124819Y566466D02*
X164787Y566466D01*
X169617Y566466D01*
X184874Y566466D01*
X111104Y668066D02*
X106874Y668066D01*
X106874Y566466D02*
X113095Y566466D01*
X184874Y566466D02*
X184874Y668066D01*
X169617Y668066D01*
X106874Y668066D02*
X106874Y566466D01*
X106874Y668066D02*
X103874Y668066D01*
X103874Y566466D02*
X106874Y566466D01*
X125474Y642666D02*
X125480Y643136D01*
X125497Y643606D01*
X125526Y644075D01*
X125566Y644543D01*
X125618Y645010D01*
X125681Y645476D01*
X125756Y645940D01*
X125842Y646402D01*
X125939Y646862D01*
X126048Y647319D01*
X126168Y647774D01*
X126299Y648225D01*
X126441Y648673D01*
X126593Y649117D01*
X126757Y649558D01*
X126932Y649994D01*
X127117Y650426D01*
X127313Y650854D01*
X127519Y651276D01*
X127735Y651693D01*
X127962Y652105D01*
X128198Y652511D01*
X128445Y652911D01*
X128701Y653305D01*
X128967Y653693D01*
X129243Y654074D01*
X129527Y654448D01*
X129821Y654815D01*
X130123Y655174D01*
X130435Y655526D01*
X130755Y655871D01*
X131083Y656207D01*
X131419Y656535D01*
X131764Y656855D01*
X132116Y657167D01*
X132475Y657469D01*
X132842Y657763D01*
X133216Y658047D01*
X133597Y658323D01*
X133985Y658589D01*
X134379Y658845D01*
X134779Y659092D01*
X135185Y659328D01*
X135597Y659555D01*
X136014Y659771D01*
X136436Y659977D01*
X136864Y660173D01*
X137296Y660358D01*
X137732Y660533D01*
X138173Y660697D01*
X138617Y660849D01*
X139065Y660991D01*
X139516Y661122D01*
X139971Y661242D01*
X140428Y661351D01*
X140888Y661448D01*
X141350Y661534D01*
X141814Y661609D01*
X142280Y661672D01*
X142747Y661724D01*
X143215Y661764D01*
X143684Y661793D01*
X144154Y661810D01*
X144624Y661816D01*
X145094Y661810D01*
X145564Y661793D01*
X146033Y661764D01*
X146501Y661724D01*
X146968Y661672D01*
X147434Y661609D01*
X147898Y661534D01*
X148360Y661448D01*
X148820Y661351D01*
X149277Y661242D01*
X149732Y661122D01*
X150183Y660991D01*
X150631Y660849D01*
X151075Y660697D01*
X151516Y660533D01*
X151952Y660358D01*
X152384Y660173D01*
X152812Y659977D01*
X153234Y659771D01*
X153651Y659555D01*
X154063Y659328D01*
X154469Y659092D01*
X154869Y658845D01*
X155263Y658589D01*
X155651Y658323D01*
X156032Y658047D01*
X156406Y657763D01*
X156773Y657469D01*
X157132Y657167D01*
X157484Y656855D01*
X157829Y656535D01*
X158165Y656207D01*
X158493Y655871D01*
X158813Y655526D01*
X159125Y655174D01*
X159427Y654815D01*
X159721Y654448D01*
X160005Y654074D01*
X160281Y653693D01*
X160547Y653305D01*
X160803Y652911D01*
X161050Y652511D01*
X161286Y652105D01*
X161513Y651693D01*
X161729Y651276D01*
X161935Y650854D01*
X162131Y650426D01*
X162316Y649994D01*
X162491Y649558D01*
X162655Y649117D01*
X162807Y648673D01*
X162949Y648225D01*
X163080Y647774D01*
X163200Y647319D01*
X163309Y646862D01*
X163406Y646402D01*
X163492Y645940D01*
X163567Y645476D01*
X163630Y645010D01*
X163682Y644543D01*
X163722Y644075D01*
X163751Y643606D01*
X163768Y643136D01*
X163774Y642666D01*
X163768Y642196D01*
X163751Y641726D01*
X163722Y641257D01*
X163682Y640789D01*
X163630Y640322D01*
X163567Y639856D01*
X163492Y639392D01*
X163406Y638930D01*
X163309Y638470D01*
X163200Y638013D01*
X163080Y637558D01*
X162949Y637107D01*
X162807Y636659D01*
X162655Y636215D01*
X162491Y635774D01*
X162316Y635338D01*
X162131Y634906D01*
X161935Y634478D01*
X161729Y634056D01*
X161513Y633639D01*
X161286Y633227D01*
X161050Y632821D01*
X160803Y632421D01*
X160547Y632027D01*
X160281Y631639D01*
X160005Y631258D01*
X159721Y630884D01*
X159427Y630517D01*
X159125Y630158D01*
X158813Y629806D01*
X158493Y629461D01*
X158165Y629125D01*
X157829Y628797D01*
X157484Y628477D01*
X157132Y628165D01*
X156773Y627863D01*
X156406Y627569D01*
X156032Y627285D01*
X155651Y627009D01*
X155263Y626743D01*
X154869Y626487D01*
X154469Y626240D01*
X154063Y626004D01*
X153651Y625777D01*
X153234Y625561D01*
X152812Y625355D01*
X152384Y625159D01*
X151952Y624974D01*
X151516Y624799D01*
X151075Y624635D01*
X150631Y624483D01*
X150183Y624341D01*
X149732Y624210D01*
X149277Y624090D01*
X148820Y623981D01*
X148360Y623884D01*
X147898Y623798D01*
X147434Y623723D01*
X146968Y623660D01*
X146501Y623608D01*
X146033Y623568D01*
X145564Y623539D01*
X145094Y623522D01*
X144624Y623516D01*
X144154Y623522D01*
X143684Y623539D01*
X143215Y623568D01*
X142747Y623608D01*
X142280Y623660D01*
X141814Y623723D01*
X141350Y623798D01*
X140888Y623884D01*
X140428Y623981D01*
X139971Y624090D01*
X139516Y624210D01*
X139065Y624341D01*
X138617Y624483D01*
X138173Y624635D01*
X137732Y624799D01*
X137296Y624974D01*
X136864Y625159D01*
X136436Y625355D01*
X136014Y625561D01*
X135597Y625777D01*
X135185Y626004D01*
X134779Y626240D01*
X134379Y626487D01*
X133985Y626743D01*
X133597Y627009D01*
X133216Y627285D01*
X132842Y627569D01*
X132475Y627863D01*
X132116Y628165D01*
X131764Y628477D01*
X131419Y628797D01*
X131083Y629125D01*
X130755Y629461D01*
X130435Y629806D01*
X130123Y630158D01*
X129821Y630517D01*
X129527Y630884D01*
X129243Y631258D01*
X128967Y631639D01*
X128701Y632027D01*
X128445Y632421D01*
X128198Y632821D01*
X127962Y633227D01*
X127735Y633639D01*
X127519Y634056D01*
X127313Y634478D01*
X127117Y634906D01*
X126932Y635338D01*
X126757Y635774D01*
X126593Y636215D01*
X126441Y636659D01*
X126299Y637107D01*
X126168Y637558D01*
X126048Y638013D01*
X125939Y638470D01*
X125842Y638930D01*
X125756Y639392D01*
X125681Y639856D01*
X125618Y640322D01*
X125566Y640789D01*
X125526Y641257D01*
X125497Y641726D01*
X125480Y642196D01*
X125474Y642666D01*
X125474Y591866D02*
X125480Y592336D01*
X125497Y592806D01*
X125526Y593275D01*
X125566Y593743D01*
X125618Y594210D01*
X125681Y594676D01*
X125756Y595140D01*
X125842Y595602D01*
X125939Y596062D01*
X126048Y596519D01*
X126168Y596974D01*
X126299Y597425D01*
X126441Y597873D01*
X126593Y598317D01*
X126757Y598758D01*
X126932Y599194D01*
X127117Y599626D01*
X127313Y600054D01*
X127519Y600476D01*
X127735Y600893D01*
X127962Y601305D01*
X128198Y601711D01*
X128445Y602111D01*
X128701Y602505D01*
X128967Y602893D01*
X129243Y603274D01*
X129527Y603648D01*
X129821Y604015D01*
X130123Y604374D01*
X130435Y604726D01*
X130755Y605071D01*
X131083Y605407D01*
X131419Y605735D01*
X131764Y606055D01*
X132116Y606367D01*
X132475Y606669D01*
X132842Y606963D01*
X133216Y607247D01*
X133597Y607523D01*
X133985Y607789D01*
X134379Y608045D01*
X134779Y608292D01*
X135185Y608528D01*
X135597Y608755D01*
X136014Y608971D01*
X136436Y609177D01*
X136864Y609373D01*
X137296Y609558D01*
X137732Y609733D01*
X138173Y609897D01*
X138617Y610049D01*
X139065Y610191D01*
X139516Y610322D01*
X139971Y610442D01*
X140428Y610551D01*
X140888Y610648D01*
X141350Y610734D01*
X141814Y610809D01*
X142280Y610872D01*
X142747Y610924D01*
X143215Y610964D01*
X143684Y610993D01*
X144154Y611010D01*
X144624Y611016D01*
X145094Y611010D01*
X145564Y610993D01*
X146033Y610964D01*
X146501Y610924D01*
X146968Y610872D01*
X147434Y610809D01*
X147898Y610734D01*
X148360Y610648D01*
X148820Y610551D01*
X149277Y610442D01*
X149732Y610322D01*
X150183Y610191D01*
X150631Y610049D01*
X151075Y609897D01*
X151516Y609733D01*
X151952Y609558D01*
X152384Y609373D01*
X152812Y609177D01*
X153234Y608971D01*
X153651Y608755D01*
X154063Y608528D01*
X154469Y608292D01*
X154869Y608045D01*
X155263Y607789D01*
X155651Y607523D01*
X156032Y607247D01*
X156406Y606963D01*
X156773Y606669D01*
X157132Y606367D01*
X157484Y606055D01*
X157829Y605735D01*
X158165Y605407D01*
X158493Y605071D01*
X158813Y604726D01*
X159125Y604374D01*
X159427Y604015D01*
X159721Y603648D01*
X160005Y603274D01*
X160281Y602893D01*
X160547Y602505D01*
X160803Y602111D01*
X161050Y601711D01*
X161286Y601305D01*
X161513Y600893D01*
X161729Y600476D01*
X161935Y600054D01*
X162131Y599626D01*
X162316Y599194D01*
X162491Y598758D01*
X162655Y598317D01*
X162807Y597873D01*
X162949Y597425D01*
X163080Y596974D01*
X163200Y596519D01*
X163309Y596062D01*
X163406Y595602D01*
X163492Y595140D01*
X163567Y594676D01*
X163630Y594210D01*
X163682Y593743D01*
X163722Y593275D01*
X163751Y592806D01*
X163768Y592336D01*
X163774Y591866D01*
X163768Y591396D01*
X163751Y590926D01*
X163722Y590457D01*
X163682Y589989D01*
X163630Y589522D01*
X163567Y589056D01*
X163492Y588592D01*
X163406Y588130D01*
X163309Y587670D01*
X163200Y587213D01*
X163080Y586758D01*
X162949Y586307D01*
X162807Y585859D01*
X162655Y585415D01*
X162491Y584974D01*
X162316Y584538D01*
X162131Y584106D01*
X161935Y583678D01*
X161729Y583256D01*
X161513Y582839D01*
X161286Y582427D01*
X161050Y582021D01*
X160803Y581621D01*
X160547Y581227D01*
X160281Y580839D01*
X160005Y580458D01*
X159721Y580084D01*
X159427Y579717D01*
X159125Y579358D01*
X158813Y579006D01*
X158493Y578661D01*
X158165Y578325D01*
X157829Y577997D01*
X157484Y577677D01*
X157132Y577365D01*
X156773Y577063D01*
X156406Y576769D01*
X156032Y576485D01*
X155651Y576209D01*
X155263Y575943D01*
X154869Y575687D01*
X154469Y575440D01*
X154063Y575204D01*
X153651Y574977D01*
X153234Y574761D01*
X152812Y574555D01*
X152384Y574359D01*
X151952Y574174D01*
X151516Y573999D01*
X151075Y573835D01*
X150631Y573683D01*
X150183Y573541D01*
X149732Y573410D01*
X149277Y573290D01*
X148820Y573181D01*
X148360Y573084D01*
X147898Y572998D01*
X147434Y572923D01*
X146968Y572860D01*
X146501Y572808D01*
X146033Y572768D01*
X145564Y572739D01*
X145094Y572722D01*
X144624Y572716D01*
X144154Y572722D01*
X143684Y572739D01*
X143215Y572768D01*
X142747Y572808D01*
X142280Y572860D01*
X141814Y572923D01*
X141350Y572998D01*
X140888Y573084D01*
X140428Y573181D01*
X139971Y573290D01*
X139516Y573410D01*
X139065Y573541D01*
X138617Y573683D01*
X138173Y573835D01*
X137732Y573999D01*
X137296Y574174D01*
X136864Y574359D01*
X136436Y574555D01*
X136014Y574761D01*
X135597Y574977D01*
X135185Y575204D01*
X134779Y575440D01*
X134379Y575687D01*
X133985Y575943D01*
X133597Y576209D01*
X133216Y576485D01*
X132842Y576769D01*
X132475Y577063D01*
X132116Y577365D01*
X131764Y577677D01*
X131419Y577997D01*
X131083Y578325D01*
X130755Y578661D01*
X130435Y579006D01*
X130123Y579358D01*
X129821Y579717D01*
X129527Y580084D01*
X129243Y580458D01*
X128967Y580839D01*
X128701Y581227D01*
X128445Y581621D01*
X128198Y582021D01*
X127962Y582427D01*
X127735Y582839D01*
X127519Y583256D01*
X127313Y583678D01*
X127117Y584106D01*
X126932Y584538D01*
X126757Y584974D01*
X126593Y585415D01*
X126441Y585859D01*
X126299Y586307D01*
X126168Y586758D01*
X126048Y587213D01*
X125939Y587670D01*
X125842Y588130D01*
X125756Y588592D01*
X125681Y589056D01*
X125618Y589522D01*
X125566Y589989D01*
X125526Y590457D01*
X125497Y590926D01*
X125480Y591396D01*
X125474Y591866D01*
D53*
X214224Y811365D02*
X213218Y811998D01*
X212227Y812656D01*
X211253Y813338D01*
X210295Y814044D01*
X209355Y814772D01*
X208434Y815524D01*
X207531Y816298D01*
X206647Y817093D01*
X205783Y817910D01*
X204939Y818748D01*
X204116Y819607D01*
X203314Y820485D01*
X202534Y821382D01*
X201775Y822299D01*
X201040Y823233D01*
X200328Y824185D01*
X199639Y825155D01*
X198974Y826141D01*
X198333Y827143D01*
X197717Y828160D01*
X197127Y829192D01*
X196561Y830238D01*
X196021Y831298D01*
X195508Y832370D01*
X195020Y833455D01*
X194560Y834552D01*
X194126Y835659D01*
X193720Y836777D01*
X193341Y837904D01*
X192989Y839040D01*
X192666Y840184D01*
X192371Y841336D01*
X192104Y842495D01*
X191865Y843660D01*
X191655Y844831D01*
X191473Y846006D01*
X191321Y847185D01*
X191197Y848368D01*
X191102Y849553D01*
X191036Y850741D01*
X190999Y851930D01*
X190992Y853119D01*
X191013Y854308D01*
X191064Y855496D01*
X191143Y856682D01*
X191252Y857867D01*
X191389Y859048D01*
X191555Y860225D01*
X191750Y861399D01*
X191974Y862567D01*
X192226Y863729D01*
X192507Y864884D01*
X192815Y866033D01*
X193152Y867174D01*
X193516Y868306D01*
X193908Y869428D01*
X194328Y870541D01*
X194774Y871643D01*
X195247Y872734D01*
X195747Y873813D01*
X196273Y874880D01*
X196825Y875933D01*
X197402Y876973D01*
X198005Y877998D01*
X198633Y879008D01*
X199285Y880003D01*
X199961Y880981D01*
X200661Y881942D01*
X201384Y882886D01*
X202131Y883812D01*
X202899Y884720D01*
X203690Y885608D01*
X204502Y886477D01*
X205335Y887326D01*
X206188Y888154D01*
X207062Y888961D01*
X207955Y889746D01*
X208867Y890510D01*
X209797Y891250D01*
X210745Y891968D01*
X211710Y892663D01*
X212693Y893333D01*
X213691Y893980D01*
X214704Y894601D01*
X215733Y895198D01*
X216776Y895770D01*
X217833Y896316D01*
X218902Y896835D01*
X219984Y897329D01*
X221078Y897796D01*
X222183Y898236D01*
X223298Y898649D01*
X224423Y899034D01*
X225557Y899392D01*
X226699Y899722D01*
X227850Y900024D01*
X229007Y900298D01*
X230171Y900543D01*
X231340Y900760D01*
X232514Y900948D01*
X233693Y901108D01*
X234875Y901239D01*
X236059Y901340D01*
X237246Y901413D01*
X238435Y901456D01*
X239624Y901471D01*
X240813Y901456D01*
X242002Y901413D01*
X243189Y901340D01*
X244373Y901239D01*
X245555Y901108D01*
X246734Y900948D01*
X247908Y900760D01*
X249077Y900543D01*
X250241Y900298D01*
X251398Y900024D01*
X252549Y899722D01*
X253691Y899392D01*
X254825Y899034D01*
X255950Y898649D01*
X257065Y898236D01*
X258170Y897796D01*
X259264Y897329D01*
X260346Y896835D01*
X261415Y896316D01*
X262472Y895770D01*
X263515Y895198D01*
X264544Y894601D01*
X265557Y893980D01*
X266555Y893333D01*
X267538Y892663D01*
X268503Y891968D01*
X269451Y891250D01*
X270381Y890510D01*
X271293Y889746D01*
X272186Y888961D01*
X273060Y888154D01*
X273913Y887326D01*
X274746Y886477D01*
X275558Y885608D01*
X276349Y884720D01*
X277117Y883812D01*
X277864Y882886D01*
X278587Y881942D01*
X279287Y880981D01*
X279963Y880003D01*
X280615Y879008D01*
X281243Y877998D01*
X281846Y876973D01*
X282423Y875933D01*
X282975Y874880D01*
X283501Y873813D01*
X284001Y872734D01*
X284474Y871643D01*
X284920Y870541D01*
X285340Y869428D01*
X285732Y868306D01*
X286096Y867174D01*
X286433Y866033D01*
X286741Y864884D01*
X287022Y863729D01*
X287274Y862567D01*
X287498Y861399D01*
X287693Y860225D01*
X287859Y859048D01*
X287996Y857867D01*
X288105Y856682D01*
X288184Y855496D01*
X288235Y854308D01*
X288256Y853119D01*
X288249Y851930D01*
X288212Y850741D01*
X288146Y849553D01*
X288051Y848368D01*
X287927Y847185D01*
X287775Y846006D01*
X287593Y844831D01*
X287383Y843660D01*
X287144Y842495D01*
X286877Y841336D01*
X286582Y840184D01*
X286259Y839040D01*
X285907Y837904D01*
X285528Y836777D01*
X285122Y835659D01*
X284688Y834552D01*
X284228Y833455D01*
X283740Y832370D01*
X283227Y831298D01*
X282687Y830238D01*
X282121Y829192D01*
X281531Y828160D01*
X280915Y827143D01*
X280274Y826141D01*
X279609Y825155D01*
X278920Y824185D01*
X278208Y823233D01*
X277473Y822299D01*
X276714Y821382D01*
X275934Y820485D01*
X275132Y819607D01*
X274309Y818748D01*
X273465Y817910D01*
X272601Y817093D01*
X271717Y816298D01*
X270814Y815524D01*
X269893Y814772D01*
X268953Y814044D01*
X267995Y813338D01*
X267021Y812656D01*
X266030Y811998D01*
X265024Y811365D01*
X214224Y811365D01*
X214224Y839305D02*
X214224Y849465D01*
X219304Y844385D02*
X209144Y844385D01*
X265024Y854545D02*
X265024Y864705D01*
X265024Y582765D02*
X266030Y583398D01*
X267021Y584056D01*
X267995Y584738D01*
X268953Y585444D01*
X269893Y586172D01*
X270814Y586924D01*
X271717Y587698D01*
X272601Y588493D01*
X273465Y589310D01*
X274309Y590148D01*
X275132Y591007D01*
X275934Y591885D01*
X276714Y592782D01*
X277473Y593699D01*
X278208Y594633D01*
X278920Y595585D01*
X279609Y596555D01*
X280274Y597541D01*
X280915Y598543D01*
X281531Y599560D01*
X282121Y600592D01*
X282687Y601638D01*
X283227Y602698D01*
X283740Y603770D01*
X284228Y604855D01*
X284688Y605952D01*
X285122Y607059D01*
X285528Y608177D01*
X285907Y609304D01*
X286259Y610440D01*
X286582Y611584D01*
X286877Y612736D01*
X287144Y613895D01*
X287383Y615060D01*
X287593Y616231D01*
X287775Y617406D01*
X287927Y618585D01*
X288051Y619768D01*
X288146Y620953D01*
X288212Y622141D01*
X288249Y623330D01*
X288256Y624519D01*
X288235Y625708D01*
X288184Y626896D01*
X288105Y628082D01*
X287996Y629267D01*
X287859Y630448D01*
X287693Y631625D01*
X287498Y632799D01*
X287274Y633967D01*
X287022Y635129D01*
X286741Y636284D01*
X286433Y637433D01*
X286096Y638574D01*
X285732Y639706D01*
X285340Y640828D01*
X284920Y641941D01*
X284474Y643043D01*
X284001Y644134D01*
X283501Y645213D01*
X282975Y646280D01*
X282423Y647333D01*
X281846Y648373D01*
X281243Y649398D01*
X280615Y650408D01*
X279963Y651403D01*
X279287Y652381D01*
X278587Y653342D01*
X277864Y654286D01*
X277117Y655212D01*
X276349Y656120D01*
X275558Y657008D01*
X274746Y657877D01*
X273913Y658726D01*
X273060Y659554D01*
X272186Y660361D01*
X271293Y661146D01*
X270381Y661910D01*
X269451Y662650D01*
X268503Y663368D01*
X267538Y664063D01*
X266555Y664733D01*
X265557Y665380D01*
X264544Y666001D01*
X263515Y666598D01*
X262472Y667170D01*
X261415Y667716D01*
X260346Y668235D01*
X259264Y668729D01*
X258170Y669196D01*
X257065Y669636D01*
X255950Y670049D01*
X254825Y670434D01*
X253691Y670792D01*
X252549Y671122D01*
X251398Y671424D01*
X250241Y671698D01*
X249077Y671943D01*
X247908Y672160D01*
X246734Y672348D01*
X245555Y672508D01*
X244373Y672639D01*
X243189Y672740D01*
X242002Y672813D01*
X240813Y672856D01*
X239624Y672871D01*
X238435Y672856D01*
X237246Y672813D01*
X236059Y672740D01*
X234875Y672639D01*
X233693Y672508D01*
X232514Y672348D01*
X231340Y672160D01*
X230171Y671943D01*
X229007Y671698D01*
X227850Y671424D01*
X226699Y671122D01*
X225557Y670792D01*
X224423Y670434D01*
X223298Y670049D01*
X222183Y669636D01*
X221078Y669196D01*
X219984Y668729D01*
X218902Y668235D01*
X217833Y667716D01*
X216776Y667170D01*
X215733Y666598D01*
X214704Y666001D01*
X213691Y665380D01*
X212693Y664733D01*
X211710Y664063D01*
X210745Y663368D01*
X209797Y662650D01*
X208867Y661910D01*
X207955Y661146D01*
X207062Y660361D01*
X206188Y659554D01*
X205335Y658726D01*
X204502Y657877D01*
X203690Y657008D01*
X202899Y656120D01*
X202131Y655212D01*
X201384Y654286D01*
X200661Y653342D01*
X199961Y652381D01*
X199285Y651403D01*
X198633Y650408D01*
X198005Y649398D01*
X197402Y648373D01*
X196825Y647333D01*
X196273Y646280D01*
X195747Y645213D01*
X195247Y644134D01*
X194774Y643043D01*
X194328Y641941D01*
X193908Y640828D01*
X193516Y639706D01*
X193152Y638574D01*
X192815Y637433D01*
X192507Y636284D01*
X192226Y635129D01*
X191974Y633967D01*
X191750Y632799D01*
X191555Y631625D01*
X191389Y630448D01*
X191252Y629267D01*
X191143Y628082D01*
X191064Y626896D01*
X191013Y625708D01*
X190992Y624519D01*
X190999Y623330D01*
X191036Y622141D01*
X191102Y620953D01*
X191197Y619768D01*
X191321Y618585D01*
X191473Y617406D01*
X191655Y616231D01*
X191865Y615060D01*
X192104Y613895D01*
X192371Y612736D01*
X192666Y611584D01*
X192989Y610440D01*
X193341Y609304D01*
X193720Y608177D01*
X194126Y607059D01*
X194560Y605952D01*
X195020Y604855D01*
X195508Y603770D01*
X196021Y602698D01*
X196561Y601638D01*
X197127Y600592D01*
X197717Y599560D01*
X198333Y598543D01*
X198974Y597541D01*
X199639Y596555D01*
X200328Y595585D01*
X201040Y594633D01*
X201775Y593699D01*
X202534Y592782D01*
X203314Y591885D01*
X204116Y591007D01*
X204939Y590148D01*
X205783Y589310D01*
X206647Y588493D01*
X207531Y587698D01*
X208434Y586924D01*
X209355Y586172D01*
X210295Y585444D01*
X211253Y584738D01*
X212227Y584056D01*
X213218Y583398D01*
X214224Y582765D01*
X265024Y582765D01*
X214224Y610705D02*
X214224Y620865D01*
X219304Y615785D02*
X209144Y615785D01*
X265024Y625945D02*
X265024Y636105D01*
D54*
X236449Y554825D02*
X236449Y504025D01*
X205969Y504025D01*
X205969Y554825D01*
X236449Y554825D01*
X226289Y730085D02*
X226289Y780885D01*
X226289Y730085D02*
X195809Y730085D01*
X195809Y780885D01*
X226289Y780885D01*
D55*
X252629Y777755D02*
X252629Y738295D01*
X232969Y738295D02*
X232969Y777755D01*
X252629Y777755D01*
X252629Y738295D02*
X232969Y738295D01*
X262789Y545980D02*
X262789Y506520D01*
X243129Y506520D02*
X243129Y545980D01*
X262789Y545980D01*
X262789Y506520D02*
X243129Y506520D01*
D53*
X335275Y685165D02*
X335277Y685265D01*
X335283Y685364D01*
X335293Y685464D01*
X335306Y685562D01*
X335324Y685661D01*
X335345Y685758D01*
X335370Y685854D01*
X335399Y685950D01*
X335432Y686044D01*
X335468Y686137D01*
X335508Y686228D01*
X335552Y686318D01*
X335599Y686406D01*
X335649Y686492D01*
X335703Y686576D01*
X335760Y686658D01*
X335820Y686737D01*
X335884Y686815D01*
X335950Y686889D01*
X336019Y686961D01*
X336091Y687030D01*
X336165Y687096D01*
X336243Y687160D01*
X336322Y687220D01*
X336404Y687277D01*
X336488Y687331D01*
X336574Y687381D01*
X336662Y687428D01*
X336752Y687472D01*
X336843Y687512D01*
X336936Y687548D01*
X337030Y687581D01*
X337126Y687610D01*
X337222Y687635D01*
X337319Y687656D01*
X337418Y687674D01*
X337516Y687687D01*
X337616Y687697D01*
X337715Y687703D01*
X337815Y687705D01*
X335275Y667385D02*
X335277Y667285D01*
X335283Y667186D01*
X335293Y667086D01*
X335306Y666988D01*
X335324Y666889D01*
X335345Y666792D01*
X335370Y666696D01*
X335399Y666600D01*
X335432Y666506D01*
X335468Y666413D01*
X335508Y666322D01*
X335552Y666232D01*
X335599Y666144D01*
X335649Y666058D01*
X335703Y665974D01*
X335760Y665892D01*
X335820Y665813D01*
X335884Y665735D01*
X335950Y665661D01*
X336019Y665589D01*
X336091Y665520D01*
X336165Y665454D01*
X336243Y665390D01*
X336322Y665330D01*
X336404Y665273D01*
X336488Y665219D01*
X336574Y665169D01*
X336662Y665122D01*
X336752Y665078D01*
X336843Y665038D01*
X336936Y665002D01*
X337030Y664969D01*
X337126Y664940D01*
X337222Y664915D01*
X337319Y664894D01*
X337418Y664876D01*
X337516Y664863D01*
X337616Y664853D01*
X337715Y664847D01*
X337815Y664845D01*
X396235Y664845D02*
X396335Y664847D01*
X396434Y664853D01*
X396534Y664863D01*
X396632Y664876D01*
X396731Y664894D01*
X396828Y664915D01*
X396924Y664940D01*
X397020Y664969D01*
X397114Y665002D01*
X397207Y665038D01*
X397298Y665078D01*
X397388Y665122D01*
X397476Y665169D01*
X397562Y665219D01*
X397646Y665273D01*
X397728Y665330D01*
X397807Y665390D01*
X397885Y665454D01*
X397959Y665520D01*
X398031Y665589D01*
X398100Y665661D01*
X398166Y665735D01*
X398230Y665813D01*
X398290Y665892D01*
X398347Y665974D01*
X398401Y666058D01*
X398451Y666144D01*
X398498Y666232D01*
X398542Y666322D01*
X398582Y666413D01*
X398618Y666506D01*
X398651Y666600D01*
X398680Y666696D01*
X398705Y666792D01*
X398726Y666889D01*
X398744Y666988D01*
X398757Y667086D01*
X398767Y667186D01*
X398773Y667285D01*
X398775Y667385D01*
X398775Y685165D02*
X398773Y685265D01*
X398767Y685364D01*
X398757Y685464D01*
X398744Y685562D01*
X398726Y685661D01*
X398705Y685758D01*
X398680Y685854D01*
X398651Y685950D01*
X398618Y686044D01*
X398582Y686137D01*
X398542Y686228D01*
X398498Y686318D01*
X398451Y686406D01*
X398401Y686492D01*
X398347Y686576D01*
X398290Y686658D01*
X398230Y686737D01*
X398166Y686815D01*
X398100Y686889D01*
X398031Y686961D01*
X397959Y687030D01*
X397885Y687096D01*
X397807Y687160D01*
X397728Y687220D01*
X397646Y687277D01*
X397562Y687331D01*
X397476Y687381D01*
X397388Y687428D01*
X397298Y687472D01*
X397207Y687512D01*
X397114Y687548D01*
X397020Y687581D01*
X396924Y687610D01*
X396828Y687635D01*
X396731Y687656D01*
X396632Y687674D01*
X396534Y687687D01*
X396434Y687697D01*
X396335Y687703D01*
X396235Y687705D01*
X335275Y685165D02*
X335275Y667385D01*
X337815Y687705D02*
X341625Y687705D01*
X342895Y686435D01*
X341625Y664845D02*
X337815Y664845D01*
X341625Y664845D02*
X342895Y666115D01*
X391155Y686435D02*
X392425Y687705D01*
X391155Y686435D02*
X342895Y686435D01*
X391155Y666115D02*
X392425Y664845D01*
X391155Y666115D02*
X342895Y666115D01*
X392425Y687705D02*
X396235Y687705D01*
X396235Y664845D02*
X392425Y664845D01*
X398775Y667385D02*
X398775Y685165D01*
D58*
X407665Y676275D02*
X411475Y676275D01*
X326385Y676275D02*
X322575Y676275D01*
D59*
X403093Y676275D03*
X330957Y676275D03*
X415793Y676275D03*
X318257Y676275D03*
D53*
X320035Y694055D02*
X416555Y694055D01*
X419095Y696595D02*
X419095Y732155D01*
X416555Y734695D02*
X320035Y734695D01*
X317495Y732155D02*
X317495Y696595D01*
X317497Y696495D01*
X317503Y696396D01*
X317513Y696296D01*
X317526Y696198D01*
X317544Y696099D01*
X317565Y696002D01*
X317590Y695906D01*
X317619Y695810D01*
X317652Y695716D01*
X317688Y695623D01*
X317728Y695532D01*
X317772Y695442D01*
X317819Y695354D01*
X317869Y695268D01*
X317923Y695184D01*
X317980Y695102D01*
X318040Y695023D01*
X318104Y694945D01*
X318170Y694871D01*
X318239Y694799D01*
X318311Y694730D01*
X318385Y694664D01*
X318463Y694600D01*
X318542Y694540D01*
X318624Y694483D01*
X318708Y694429D01*
X318794Y694379D01*
X318882Y694332D01*
X318972Y694288D01*
X319063Y694248D01*
X319156Y694212D01*
X319250Y694179D01*
X319346Y694150D01*
X319442Y694125D01*
X319539Y694104D01*
X319638Y694086D01*
X319736Y694073D01*
X319836Y694063D01*
X319935Y694057D01*
X320035Y694055D01*
X317495Y732155D02*
X317497Y732255D01*
X317503Y732354D01*
X317513Y732454D01*
X317526Y732552D01*
X317544Y732651D01*
X317565Y732748D01*
X317590Y732844D01*
X317619Y732940D01*
X317652Y733034D01*
X317688Y733127D01*
X317728Y733218D01*
X317772Y733308D01*
X317819Y733396D01*
X317869Y733482D01*
X317923Y733566D01*
X317980Y733648D01*
X318040Y733727D01*
X318104Y733805D01*
X318170Y733879D01*
X318239Y733951D01*
X318311Y734020D01*
X318385Y734086D01*
X318463Y734150D01*
X318542Y734210D01*
X318624Y734267D01*
X318708Y734321D01*
X318794Y734371D01*
X318882Y734418D01*
X318972Y734462D01*
X319063Y734502D01*
X319156Y734538D01*
X319250Y734571D01*
X319346Y734600D01*
X319442Y734625D01*
X319539Y734646D01*
X319638Y734664D01*
X319736Y734677D01*
X319836Y734687D01*
X319935Y734693D01*
X320035Y734695D01*
X416555Y734695D02*
X416655Y734693D01*
X416754Y734687D01*
X416854Y734677D01*
X416952Y734664D01*
X417051Y734646D01*
X417148Y734625D01*
X417244Y734600D01*
X417340Y734571D01*
X417434Y734538D01*
X417527Y734502D01*
X417618Y734462D01*
X417708Y734418D01*
X417796Y734371D01*
X417882Y734321D01*
X417966Y734267D01*
X418048Y734210D01*
X418127Y734150D01*
X418205Y734086D01*
X418279Y734020D01*
X418351Y733951D01*
X418420Y733879D01*
X418486Y733805D01*
X418550Y733727D01*
X418610Y733648D01*
X418667Y733566D01*
X418721Y733482D01*
X418771Y733396D01*
X418818Y733308D01*
X418862Y733218D01*
X418902Y733127D01*
X418938Y733034D01*
X418971Y732940D01*
X419000Y732844D01*
X419025Y732748D01*
X419046Y732651D01*
X419064Y732552D01*
X419077Y732454D01*
X419087Y732354D01*
X419093Y732255D01*
X419095Y732155D01*
X419095Y696595D02*
X419093Y696495D01*
X419087Y696396D01*
X419077Y696296D01*
X419064Y696198D01*
X419046Y696099D01*
X419025Y696002D01*
X419000Y695906D01*
X418971Y695810D01*
X418938Y695716D01*
X418902Y695623D01*
X418862Y695532D01*
X418818Y695442D01*
X418771Y695354D01*
X418721Y695268D01*
X418667Y695184D01*
X418610Y695102D01*
X418550Y695023D01*
X418486Y694945D01*
X418420Y694871D01*
X418351Y694799D01*
X418279Y694730D01*
X418205Y694664D01*
X418127Y694600D01*
X418048Y694540D01*
X417966Y694483D01*
X417882Y694429D01*
X417796Y694379D01*
X417708Y694332D01*
X417618Y694288D01*
X417527Y694248D01*
X417434Y694212D01*
X417340Y694179D01*
X417244Y694150D01*
X417148Y694125D01*
X417051Y694104D01*
X416952Y694086D01*
X416854Y694073D01*
X416754Y694063D01*
X416655Y694057D01*
X416555Y694055D01*
X380995Y714375D02*
X341625Y714375D01*
X389885Y714375D02*
X394965Y714375D01*
D60*
X389885Y714375D02*
X389885Y701675D01*
X389885Y714375D02*
X389885Y727075D01*
X380995Y714375D02*
X380995Y701675D01*
X380995Y714375D02*
X380995Y727075D01*
D10*
X291079Y712355D02*
X290825Y712355D01*
X290825Y712270D02*
X290825Y712440D01*
X290825Y712504D02*
X291079Y712504D01*
X290825Y712504D02*
X290825Y712631D01*
X290867Y712673D01*
X290952Y712673D01*
X290994Y712631D01*
X290994Y712504D01*
X291079Y712738D02*
X290825Y712738D01*
X290825Y712865D01*
X290867Y712907D01*
X290952Y712907D01*
X290994Y712865D01*
X290994Y712738D01*
X291079Y712972D02*
X290910Y712972D01*
X290825Y713056D01*
X290910Y713141D01*
X291079Y713141D01*
X290952Y713141D02*
X290952Y712972D01*
X290825Y713206D02*
X291079Y713206D01*
X291079Y713333D01*
X291037Y713375D01*
X290867Y713375D01*
X290825Y713333D01*
X290825Y713206D01*
X290910Y713439D02*
X290825Y713524D01*
X291079Y713524D01*
X291079Y713439D02*
X291079Y713609D01*
X290952Y713673D02*
X290952Y713843D01*
X290910Y713907D02*
X290825Y713992D01*
X291079Y713992D01*
X291079Y713907D02*
X291079Y714077D01*
X290867Y714141D02*
X290825Y714183D01*
X290825Y714268D01*
X290867Y714311D01*
X290910Y714311D01*
X290952Y714268D01*
X290952Y714226D01*
X290952Y714268D02*
X290994Y714311D01*
X291037Y714311D01*
X291079Y714268D01*
X291079Y714183D01*
X291037Y714141D01*
D53*
X304800Y317500D02*
X406400Y317500D01*
X406400Y215900D02*
X304800Y215900D01*
X406400Y292100D02*
X406400Y317500D01*
X304800Y317500D02*
X304800Y292100D01*
X304800Y241300D02*
X304800Y215900D01*
X304800Y256540D02*
X305047Y256543D01*
X305295Y256552D01*
X305542Y256567D01*
X305788Y256588D01*
X306034Y256615D01*
X306279Y256648D01*
X306524Y256687D01*
X306767Y256732D01*
X307009Y256783D01*
X307250Y256840D01*
X307489Y256902D01*
X307727Y256971D01*
X307963Y257045D01*
X308197Y257125D01*
X308429Y257210D01*
X308659Y257302D01*
X308887Y257398D01*
X309112Y257501D01*
X309335Y257608D01*
X309555Y257722D01*
X309772Y257840D01*
X309987Y257964D01*
X310198Y258093D01*
X310406Y258227D01*
X310611Y258366D01*
X310812Y258510D01*
X311010Y258658D01*
X311204Y258812D01*
X311394Y258970D01*
X311580Y259133D01*
X311762Y259300D01*
X311940Y259472D01*
X312114Y259648D01*
X312284Y259828D01*
X312449Y260013D01*
X312609Y260201D01*
X312765Y260393D01*
X312917Y260589D01*
X313063Y260788D01*
X313205Y260991D01*
X313341Y261198D01*
X313473Y261407D01*
X313599Y261620D01*
X313720Y261836D01*
X313836Y262054D01*
X313946Y262276D01*
X314051Y262500D01*
X314151Y262726D01*
X314245Y262955D01*
X314333Y263186D01*
X314416Y263420D01*
X314493Y263655D01*
X314564Y263892D01*
X314630Y264130D01*
X314689Y264370D01*
X314743Y264612D01*
X314791Y264855D01*
X314833Y265098D01*
X314869Y265343D01*
X314899Y265589D01*
X314923Y265835D01*
X314941Y266082D01*
X314953Y266329D01*
X314959Y266576D01*
X314959Y266824D01*
X314953Y267071D01*
X314941Y267318D01*
X314923Y267565D01*
X314899Y267811D01*
X314869Y268057D01*
X314833Y268302D01*
X314791Y268545D01*
X314743Y268788D01*
X314689Y269030D01*
X314630Y269270D01*
X314564Y269508D01*
X314493Y269745D01*
X314416Y269980D01*
X314333Y270214D01*
X314245Y270445D01*
X314151Y270674D01*
X314051Y270900D01*
X313946Y271124D01*
X313836Y271346D01*
X313720Y271564D01*
X313599Y271780D01*
X313473Y271993D01*
X313341Y272202D01*
X313205Y272409D01*
X313063Y272612D01*
X312917Y272811D01*
X312765Y273007D01*
X312609Y273199D01*
X312449Y273387D01*
X312284Y273572D01*
X312114Y273752D01*
X311940Y273928D01*
X311762Y274100D01*
X311580Y274267D01*
X311394Y274430D01*
X311204Y274588D01*
X311010Y274742D01*
X310812Y274890D01*
X310611Y275034D01*
X310406Y275173D01*
X310198Y275307D01*
X309987Y275436D01*
X309772Y275560D01*
X309555Y275678D01*
X309335Y275792D01*
X309112Y275899D01*
X308887Y276002D01*
X308659Y276098D01*
X308429Y276190D01*
X308197Y276275D01*
X307963Y276355D01*
X307727Y276429D01*
X307489Y276498D01*
X307250Y276560D01*
X307009Y276617D01*
X306767Y276668D01*
X306524Y276713D01*
X306279Y276752D01*
X306034Y276785D01*
X305788Y276812D01*
X305542Y276833D01*
X305295Y276848D01*
X305047Y276857D01*
X304800Y276860D01*
X304800Y292100D02*
X406400Y292100D01*
X304800Y292100D02*
X304800Y276860D01*
X406400Y292100D02*
X406400Y241300D01*
X304800Y241300D01*
X304800Y256540D01*
X406400Y241300D02*
X406400Y215900D01*
D54*
X286475Y244592D02*
X286475Y248405D01*
X286475Y244592D02*
X288382Y242685D01*
X296008Y242685D01*
X297915Y244592D01*
X297915Y248405D01*
X296008Y250312D01*
X288382Y250312D01*
X286475Y248405D01*
X286475Y254379D02*
X297915Y254379D01*
X286475Y254379D02*
X286475Y260099D01*
X288382Y262005D01*
X292195Y262005D01*
X294102Y260099D01*
X294102Y254379D01*
X290289Y266073D02*
X286475Y269886D01*
X297915Y269886D01*
X297915Y266073D02*
X297915Y273699D01*
D53*
X377190Y184150D02*
X377290Y184148D01*
X377389Y184142D01*
X377489Y184132D01*
X377587Y184119D01*
X377686Y184101D01*
X377783Y184080D01*
X377879Y184055D01*
X377975Y184026D01*
X378069Y183993D01*
X378162Y183957D01*
X378253Y183917D01*
X378343Y183873D01*
X378431Y183826D01*
X378517Y183776D01*
X378601Y183722D01*
X378683Y183665D01*
X378762Y183605D01*
X378840Y183541D01*
X378914Y183475D01*
X378986Y183406D01*
X379055Y183334D01*
X379121Y183260D01*
X379185Y183182D01*
X379245Y183103D01*
X379302Y183021D01*
X379356Y182937D01*
X379406Y182851D01*
X379453Y182763D01*
X379497Y182673D01*
X379537Y182582D01*
X379573Y182489D01*
X379606Y182395D01*
X379635Y182299D01*
X379660Y182203D01*
X379681Y182106D01*
X379699Y182007D01*
X379712Y181909D01*
X379722Y181809D01*
X379728Y181710D01*
X379730Y181610D01*
X359410Y184150D02*
X359310Y184148D01*
X359211Y184142D01*
X359111Y184132D01*
X359013Y184119D01*
X358914Y184101D01*
X358817Y184080D01*
X358721Y184055D01*
X358625Y184026D01*
X358531Y183993D01*
X358438Y183957D01*
X358347Y183917D01*
X358257Y183873D01*
X358169Y183826D01*
X358083Y183776D01*
X357999Y183722D01*
X357917Y183665D01*
X357838Y183605D01*
X357760Y183541D01*
X357686Y183475D01*
X357614Y183406D01*
X357545Y183334D01*
X357479Y183260D01*
X357415Y183182D01*
X357355Y183103D01*
X357298Y183021D01*
X357244Y182937D01*
X357194Y182851D01*
X357147Y182763D01*
X357103Y182673D01*
X357063Y182582D01*
X357027Y182489D01*
X356994Y182395D01*
X356965Y182299D01*
X356940Y182203D01*
X356919Y182106D01*
X356901Y182007D01*
X356888Y181909D01*
X356878Y181809D01*
X356872Y181710D01*
X356870Y181610D01*
X356870Y123190D02*
X356872Y123090D01*
X356878Y122991D01*
X356888Y122891D01*
X356901Y122793D01*
X356919Y122694D01*
X356940Y122597D01*
X356965Y122501D01*
X356994Y122405D01*
X357027Y122311D01*
X357063Y122218D01*
X357103Y122127D01*
X357147Y122037D01*
X357194Y121949D01*
X357244Y121863D01*
X357298Y121779D01*
X357355Y121697D01*
X357415Y121618D01*
X357479Y121540D01*
X357545Y121466D01*
X357614Y121394D01*
X357686Y121325D01*
X357760Y121259D01*
X357838Y121195D01*
X357917Y121135D01*
X357999Y121078D01*
X358083Y121024D01*
X358169Y120974D01*
X358257Y120927D01*
X358347Y120883D01*
X358438Y120843D01*
X358531Y120807D01*
X358625Y120774D01*
X358721Y120745D01*
X358817Y120720D01*
X358914Y120699D01*
X359013Y120681D01*
X359111Y120668D01*
X359211Y120658D01*
X359310Y120652D01*
X359410Y120650D01*
X377190Y120650D02*
X377290Y120652D01*
X377389Y120658D01*
X377489Y120668D01*
X377587Y120681D01*
X377686Y120699D01*
X377783Y120720D01*
X377879Y120745D01*
X377975Y120774D01*
X378069Y120807D01*
X378162Y120843D01*
X378253Y120883D01*
X378343Y120927D01*
X378431Y120974D01*
X378517Y121024D01*
X378601Y121078D01*
X378683Y121135D01*
X378762Y121195D01*
X378840Y121259D01*
X378914Y121325D01*
X378986Y121394D01*
X379055Y121466D01*
X379121Y121540D01*
X379185Y121618D01*
X379245Y121697D01*
X379302Y121779D01*
X379356Y121863D01*
X379406Y121949D01*
X379453Y122037D01*
X379497Y122127D01*
X379537Y122218D01*
X379573Y122311D01*
X379606Y122405D01*
X379635Y122501D01*
X379660Y122597D01*
X379681Y122694D01*
X379699Y122793D01*
X379712Y122891D01*
X379722Y122991D01*
X379728Y123090D01*
X379730Y123190D01*
X377190Y184150D02*
X359410Y184150D01*
X379730Y181610D02*
X379730Y177800D01*
X378460Y176530D01*
X356870Y177800D02*
X356870Y181610D01*
X356870Y177800D02*
X358140Y176530D01*
X378460Y128270D02*
X379730Y127000D01*
X378460Y128270D02*
X378460Y176530D01*
X358140Y128270D02*
X356870Y127000D01*
X358140Y128270D02*
X358140Y176530D01*
X379730Y127000D02*
X379730Y123190D01*
X356870Y123190D02*
X356870Y127000D01*
X359410Y120650D02*
X377190Y120650D01*
D61*
X368300Y116332D03*
X368300Y188468D03*
D54*
X374005Y141227D02*
X362565Y141227D01*
X362565Y146947D01*
X364472Y148854D01*
X368285Y148854D01*
X370192Y146947D01*
X370192Y141227D01*
X370192Y145040D02*
X374005Y148854D01*
X364472Y156734D02*
X362565Y160548D01*
X364472Y156734D02*
X368285Y152921D01*
X372098Y152921D01*
X374005Y154828D01*
X374005Y158641D01*
X372098Y160548D01*
X370192Y160548D01*
X368285Y158641D01*
X368285Y152921D01*
D53*
X323850Y181610D02*
X323848Y181510D01*
X323842Y181411D01*
X323832Y181311D01*
X323819Y181213D01*
X323801Y181114D01*
X323780Y181017D01*
X323755Y180921D01*
X323726Y180825D01*
X323693Y180731D01*
X323657Y180638D01*
X323617Y180547D01*
X323573Y180457D01*
X323526Y180369D01*
X323476Y180283D01*
X323422Y180199D01*
X323365Y180117D01*
X323305Y180038D01*
X323241Y179960D01*
X323175Y179886D01*
X323106Y179814D01*
X323034Y179745D01*
X322960Y179679D01*
X322882Y179615D01*
X322803Y179555D01*
X322721Y179498D01*
X322637Y179444D01*
X322551Y179394D01*
X322463Y179347D01*
X322373Y179303D01*
X322282Y179263D01*
X322189Y179227D01*
X322095Y179194D01*
X321999Y179165D01*
X321903Y179140D01*
X321806Y179119D01*
X321707Y179101D01*
X321609Y179088D01*
X321509Y179078D01*
X321410Y179072D01*
X321310Y179070D01*
X323850Y199390D02*
X323848Y199490D01*
X323842Y199589D01*
X323832Y199689D01*
X323819Y199787D01*
X323801Y199886D01*
X323780Y199983D01*
X323755Y200079D01*
X323726Y200175D01*
X323693Y200269D01*
X323657Y200362D01*
X323617Y200453D01*
X323573Y200543D01*
X323526Y200631D01*
X323476Y200717D01*
X323422Y200801D01*
X323365Y200883D01*
X323305Y200962D01*
X323241Y201040D01*
X323175Y201114D01*
X323106Y201186D01*
X323034Y201255D01*
X322960Y201321D01*
X322882Y201385D01*
X322803Y201445D01*
X322721Y201502D01*
X322637Y201556D01*
X322551Y201606D01*
X322463Y201653D01*
X322373Y201697D01*
X322282Y201737D01*
X322189Y201773D01*
X322095Y201806D01*
X321999Y201835D01*
X321903Y201860D01*
X321806Y201881D01*
X321707Y201899D01*
X321609Y201912D01*
X321509Y201922D01*
X321410Y201928D01*
X321310Y201930D01*
X262890Y201930D02*
X262790Y201928D01*
X262691Y201922D01*
X262591Y201912D01*
X262493Y201899D01*
X262394Y201881D01*
X262297Y201860D01*
X262201Y201835D01*
X262105Y201806D01*
X262011Y201773D01*
X261918Y201737D01*
X261827Y201697D01*
X261737Y201653D01*
X261649Y201606D01*
X261563Y201556D01*
X261479Y201502D01*
X261397Y201445D01*
X261318Y201385D01*
X261240Y201321D01*
X261166Y201255D01*
X261094Y201186D01*
X261025Y201114D01*
X260959Y201040D01*
X260895Y200962D01*
X260835Y200883D01*
X260778Y200801D01*
X260724Y200717D01*
X260674Y200631D01*
X260627Y200543D01*
X260583Y200453D01*
X260543Y200362D01*
X260507Y200269D01*
X260474Y200175D01*
X260445Y200079D01*
X260420Y199983D01*
X260399Y199886D01*
X260381Y199787D01*
X260368Y199689D01*
X260358Y199589D01*
X260352Y199490D01*
X260350Y199390D01*
X260350Y181610D02*
X260352Y181510D01*
X260358Y181411D01*
X260368Y181311D01*
X260381Y181213D01*
X260399Y181114D01*
X260420Y181017D01*
X260445Y180921D01*
X260474Y180825D01*
X260507Y180731D01*
X260543Y180638D01*
X260583Y180547D01*
X260627Y180457D01*
X260674Y180369D01*
X260724Y180283D01*
X260778Y180199D01*
X260835Y180117D01*
X260895Y180038D01*
X260959Y179960D01*
X261025Y179886D01*
X261094Y179814D01*
X261166Y179745D01*
X261240Y179679D01*
X261318Y179615D01*
X261397Y179555D01*
X261479Y179498D01*
X261563Y179444D01*
X261649Y179394D01*
X261737Y179347D01*
X261827Y179303D01*
X261918Y179263D01*
X262011Y179227D01*
X262105Y179194D01*
X262201Y179165D01*
X262297Y179140D01*
X262394Y179119D01*
X262493Y179101D01*
X262591Y179088D01*
X262691Y179078D01*
X262790Y179072D01*
X262890Y179070D01*
X323850Y181610D02*
X323850Y199390D01*
X321310Y179070D02*
X317500Y179070D01*
X316230Y180340D01*
X317500Y201930D02*
X321310Y201930D01*
X317500Y201930D02*
X316230Y200660D01*
X267970Y180340D02*
X266700Y179070D01*
X267970Y180340D02*
X316230Y180340D01*
X267970Y200660D02*
X266700Y201930D01*
X267970Y200660D02*
X316230Y200660D01*
X266700Y179070D02*
X262890Y179070D01*
X262890Y201930D02*
X266700Y201930D01*
X260350Y199390D02*
X260350Y181610D01*
D59*
X256032Y190500D03*
X328168Y190500D03*
D54*
X271155Y210175D02*
X271155Y221615D01*
X276875Y221615D01*
X278782Y219708D01*
X278782Y215895D01*
X276875Y213988D01*
X271155Y213988D01*
X274968Y213988D02*
X278782Y210175D01*
X282849Y221615D02*
X290475Y221615D01*
X290475Y219708D01*
X282849Y212082D01*
X282849Y210175D01*
D53*
X379730Y410210D02*
X379728Y410310D01*
X379722Y410409D01*
X379712Y410509D01*
X379699Y410607D01*
X379681Y410706D01*
X379660Y410803D01*
X379635Y410899D01*
X379606Y410995D01*
X379573Y411089D01*
X379537Y411182D01*
X379497Y411273D01*
X379453Y411363D01*
X379406Y411451D01*
X379356Y411537D01*
X379302Y411621D01*
X379245Y411703D01*
X379185Y411782D01*
X379121Y411860D01*
X379055Y411934D01*
X378986Y412006D01*
X378914Y412075D01*
X378840Y412141D01*
X378762Y412205D01*
X378683Y412265D01*
X378601Y412322D01*
X378517Y412376D01*
X378431Y412426D01*
X378343Y412473D01*
X378253Y412517D01*
X378162Y412557D01*
X378069Y412593D01*
X377975Y412626D01*
X377879Y412655D01*
X377783Y412680D01*
X377686Y412701D01*
X377587Y412719D01*
X377489Y412732D01*
X377389Y412742D01*
X377290Y412748D01*
X377190Y412750D01*
X359410Y412750D02*
X359310Y412748D01*
X359211Y412742D01*
X359111Y412732D01*
X359013Y412719D01*
X358914Y412701D01*
X358817Y412680D01*
X358721Y412655D01*
X358625Y412626D01*
X358531Y412593D01*
X358438Y412557D01*
X358347Y412517D01*
X358257Y412473D01*
X358169Y412426D01*
X358083Y412376D01*
X357999Y412322D01*
X357917Y412265D01*
X357838Y412205D01*
X357760Y412141D01*
X357686Y412075D01*
X357614Y412006D01*
X357545Y411934D01*
X357479Y411860D01*
X357415Y411782D01*
X357355Y411703D01*
X357298Y411621D01*
X357244Y411537D01*
X357194Y411451D01*
X357147Y411363D01*
X357103Y411273D01*
X357063Y411182D01*
X357027Y411089D01*
X356994Y410995D01*
X356965Y410899D01*
X356940Y410803D01*
X356919Y410706D01*
X356901Y410607D01*
X356888Y410509D01*
X356878Y410409D01*
X356872Y410310D01*
X356870Y410210D01*
X356870Y351790D02*
X356872Y351690D01*
X356878Y351591D01*
X356888Y351491D01*
X356901Y351393D01*
X356919Y351294D01*
X356940Y351197D01*
X356965Y351101D01*
X356994Y351005D01*
X357027Y350911D01*
X357063Y350818D01*
X357103Y350727D01*
X357147Y350637D01*
X357194Y350549D01*
X357244Y350463D01*
X357298Y350379D01*
X357355Y350297D01*
X357415Y350218D01*
X357479Y350140D01*
X357545Y350066D01*
X357614Y349994D01*
X357686Y349925D01*
X357760Y349859D01*
X357838Y349795D01*
X357917Y349735D01*
X357999Y349678D01*
X358083Y349624D01*
X358169Y349574D01*
X358257Y349527D01*
X358347Y349483D01*
X358438Y349443D01*
X358531Y349407D01*
X358625Y349374D01*
X358721Y349345D01*
X358817Y349320D01*
X358914Y349299D01*
X359013Y349281D01*
X359111Y349268D01*
X359211Y349258D01*
X359310Y349252D01*
X359410Y349250D01*
X377190Y349250D02*
X377290Y349252D01*
X377389Y349258D01*
X377489Y349268D01*
X377587Y349281D01*
X377686Y349299D01*
X377783Y349320D01*
X377879Y349345D01*
X377975Y349374D01*
X378069Y349407D01*
X378162Y349443D01*
X378253Y349483D01*
X378343Y349527D01*
X378431Y349574D01*
X378517Y349624D01*
X378601Y349678D01*
X378683Y349735D01*
X378762Y349795D01*
X378840Y349859D01*
X378914Y349925D01*
X378986Y349994D01*
X379055Y350066D01*
X379121Y350140D01*
X379185Y350218D01*
X379245Y350297D01*
X379302Y350379D01*
X379356Y350463D01*
X379406Y350549D01*
X379453Y350637D01*
X379497Y350727D01*
X379537Y350818D01*
X379573Y350911D01*
X379606Y351005D01*
X379635Y351101D01*
X379660Y351197D01*
X379681Y351294D01*
X379699Y351393D01*
X379712Y351491D01*
X379722Y351591D01*
X379728Y351690D01*
X379730Y351790D01*
X377190Y412750D02*
X359410Y412750D01*
X379730Y410210D02*
X379730Y406400D01*
X378460Y405130D01*
X356870Y406400D02*
X356870Y410210D01*
X356870Y406400D02*
X358140Y405130D01*
X378460Y356870D02*
X379730Y355600D01*
X378460Y356870D02*
X378460Y405130D01*
X358140Y356870D02*
X356870Y355600D01*
X358140Y356870D02*
X358140Y405130D01*
X379730Y355600D02*
X379730Y351790D01*
X356870Y351790D02*
X356870Y355600D01*
X359410Y349250D02*
X377190Y349250D01*
D61*
X368300Y344932D03*
X368300Y417068D03*
D54*
X384165Y369827D02*
X395605Y369827D01*
X384165Y369827D02*
X384165Y375547D01*
X386072Y377454D01*
X389885Y377454D01*
X391792Y375547D01*
X391792Y369827D01*
X391792Y373640D02*
X395605Y377454D01*
X386072Y381521D02*
X384165Y383428D01*
X384165Y387241D01*
X386072Y389148D01*
X387979Y389148D01*
X389885Y387241D01*
X391792Y389148D01*
X393698Y389148D01*
X395605Y387241D01*
X395605Y383428D01*
X393698Y381521D01*
X391792Y381521D01*
X389885Y383428D01*
X387979Y381521D01*
X386072Y381521D01*
X389885Y383428D02*
X389885Y387241D01*
D53*
X323850Y92710D02*
X323848Y92610D01*
X323842Y92511D01*
X323832Y92411D01*
X323819Y92313D01*
X323801Y92214D01*
X323780Y92117D01*
X323755Y92021D01*
X323726Y91925D01*
X323693Y91831D01*
X323657Y91738D01*
X323617Y91647D01*
X323573Y91557D01*
X323526Y91469D01*
X323476Y91383D01*
X323422Y91299D01*
X323365Y91217D01*
X323305Y91138D01*
X323241Y91060D01*
X323175Y90986D01*
X323106Y90914D01*
X323034Y90845D01*
X322960Y90779D01*
X322882Y90715D01*
X322803Y90655D01*
X322721Y90598D01*
X322637Y90544D01*
X322551Y90494D01*
X322463Y90447D01*
X322373Y90403D01*
X322282Y90363D01*
X322189Y90327D01*
X322095Y90294D01*
X321999Y90265D01*
X321903Y90240D01*
X321806Y90219D01*
X321707Y90201D01*
X321609Y90188D01*
X321509Y90178D01*
X321410Y90172D01*
X321310Y90170D01*
X323850Y110490D02*
X323848Y110590D01*
X323842Y110689D01*
X323832Y110789D01*
X323819Y110887D01*
X323801Y110986D01*
X323780Y111083D01*
X323755Y111179D01*
X323726Y111275D01*
X323693Y111369D01*
X323657Y111462D01*
X323617Y111553D01*
X323573Y111643D01*
X323526Y111731D01*
X323476Y111817D01*
X323422Y111901D01*
X323365Y111983D01*
X323305Y112062D01*
X323241Y112140D01*
X323175Y112214D01*
X323106Y112286D01*
X323034Y112355D01*
X322960Y112421D01*
X322882Y112485D01*
X322803Y112545D01*
X322721Y112602D01*
X322637Y112656D01*
X322551Y112706D01*
X322463Y112753D01*
X322373Y112797D01*
X322282Y112837D01*
X322189Y112873D01*
X322095Y112906D01*
X321999Y112935D01*
X321903Y112960D01*
X321806Y112981D01*
X321707Y112999D01*
X321609Y113012D01*
X321509Y113022D01*
X321410Y113028D01*
X321310Y113030D01*
X262890Y113030D02*
X262790Y113028D01*
X262691Y113022D01*
X262591Y113012D01*
X262493Y112999D01*
X262394Y112981D01*
X262297Y112960D01*
X262201Y112935D01*
X262105Y112906D01*
X262011Y112873D01*
X261918Y112837D01*
X261827Y112797D01*
X261737Y112753D01*
X261649Y112706D01*
X261563Y112656D01*
X261479Y112602D01*
X261397Y112545D01*
X261318Y112485D01*
X261240Y112421D01*
X261166Y112355D01*
X261094Y112286D01*
X261025Y112214D01*
X260959Y112140D01*
X260895Y112062D01*
X260835Y111983D01*
X260778Y111901D01*
X260724Y111817D01*
X260674Y111731D01*
X260627Y111643D01*
X260583Y111553D01*
X260543Y111462D01*
X260507Y111369D01*
X260474Y111275D01*
X260445Y111179D01*
X260420Y111083D01*
X260399Y110986D01*
X260381Y110887D01*
X260368Y110789D01*
X260358Y110689D01*
X260352Y110590D01*
X260350Y110490D01*
X260350Y92710D02*
X260352Y92610D01*
X260358Y92511D01*
X260368Y92411D01*
X260381Y92313D01*
X260399Y92214D01*
X260420Y92117D01*
X260445Y92021D01*
X260474Y91925D01*
X260507Y91831D01*
X260543Y91738D01*
X260583Y91647D01*
X260627Y91557D01*
X260674Y91469D01*
X260724Y91383D01*
X260778Y91299D01*
X260835Y91217D01*
X260895Y91138D01*
X260959Y91060D01*
X261025Y90986D01*
X261094Y90914D01*
X261166Y90845D01*
X261240Y90779D01*
X261318Y90715D01*
X261397Y90655D01*
X261479Y90598D01*
X261563Y90544D01*
X261649Y90494D01*
X261737Y90447D01*
X261827Y90403D01*
X261918Y90363D01*
X262011Y90327D01*
X262105Y90294D01*
X262201Y90265D01*
X262297Y90240D01*
X262394Y90219D01*
X262493Y90201D01*
X262591Y90188D01*
X262691Y90178D01*
X262790Y90172D01*
X262890Y90170D01*
X323850Y92710D02*
X323850Y110490D01*
X321310Y90170D02*
X317500Y90170D01*
X316230Y91440D01*
X317500Y113030D02*
X321310Y113030D01*
X317500Y113030D02*
X316230Y111760D01*
X267970Y91440D02*
X266700Y90170D01*
X267970Y91440D02*
X316230Y91440D01*
X267970Y111760D02*
X266700Y113030D01*
X267970Y111760D02*
X316230Y111760D01*
X266700Y90170D02*
X262890Y90170D01*
X262890Y113030D02*
X266700Y113030D01*
X260350Y110490D02*
X260350Y92710D01*
D59*
X256032Y101600D03*
X328168Y101600D03*
D54*
X268227Y81935D02*
X268227Y70495D01*
X268227Y81935D02*
X273947Y81935D01*
X275854Y80028D01*
X275854Y76215D01*
X273947Y74308D01*
X268227Y74308D01*
X272040Y74308D02*
X275854Y70495D01*
X279921Y72402D02*
X281828Y70495D01*
X285641Y70495D01*
X287548Y72402D01*
X287548Y80028D01*
X285641Y81935D01*
X281828Y81935D01*
X279921Y80028D01*
X279921Y78122D01*
X281828Y76215D01*
X287548Y76215D01*
X361795Y7915D02*
X365608Y7915D01*
X363702Y7915D02*
X363702Y19355D01*
X365608Y19355D02*
X361795Y19355D01*
X369591Y19355D02*
X369591Y7915D01*
X377217Y7915D02*
X369591Y19355D01*
X377217Y19355D02*
X377217Y7915D01*
D10*
X368300Y38100D02*
X368300Y38354D01*
X368427Y38354D01*
X368469Y38312D01*
X368469Y38227D01*
X368427Y38185D01*
X368300Y38185D01*
X368619Y38100D02*
X368619Y38354D01*
X368703Y38354D02*
X368534Y38354D01*
X368768Y38354D02*
X368768Y38100D01*
X368768Y38354D02*
X368895Y38354D01*
X368937Y38312D01*
X368937Y38227D01*
X368895Y38185D01*
X368768Y38185D01*
X368852Y38185D02*
X368937Y38100D01*
X369002Y38269D02*
X369086Y38354D01*
X369086Y38100D01*
X369002Y38100D02*
X369171Y38100D01*
X369236Y38100D02*
X369236Y38354D01*
X369363Y38354D01*
X369405Y38312D01*
X369405Y38227D01*
X369363Y38185D01*
X369236Y38185D01*
X369469Y38269D02*
X369469Y38100D01*
X369469Y38269D02*
X369554Y38354D01*
X369639Y38269D01*
X369639Y38100D01*
X369639Y38227D02*
X369469Y38227D01*
X369703Y38354D02*
X369703Y38100D01*
X369830Y38100D01*
X369873Y38142D01*
X369873Y38312D01*
X369830Y38354D01*
X369703Y38354D01*
X369937Y38269D02*
X370022Y38354D01*
X370022Y38100D01*
X369937Y38100D02*
X370107Y38100D01*
X370171Y38227D02*
X370340Y38227D01*
X370405Y38100D02*
X370574Y38100D01*
X370405Y38100D02*
X370574Y38269D01*
X370574Y38312D01*
X370532Y38354D01*
X370447Y38354D01*
X370405Y38312D01*
X370639Y38312D02*
X370639Y38142D01*
X370639Y38312D02*
X370681Y38354D01*
X370766Y38354D01*
X370808Y38312D01*
X370808Y38142D01*
X370766Y38100D01*
X370681Y38100D01*
X370639Y38142D01*
X370808Y38312D01*
X317500Y38100D02*
X317500Y38354D01*
X317627Y38354D01*
X317669Y38312D01*
X317669Y38227D01*
X317627Y38185D01*
X317500Y38185D01*
X317819Y38100D02*
X317819Y38354D01*
X317903Y38354D02*
X317734Y38354D01*
X317968Y38354D02*
X317968Y38100D01*
X317968Y38354D02*
X318095Y38354D01*
X318137Y38312D01*
X318137Y38227D01*
X318095Y38185D01*
X317968Y38185D01*
X318052Y38185D02*
X318137Y38100D01*
X318202Y38269D02*
X318286Y38354D01*
X318286Y38100D01*
X318202Y38100D02*
X318371Y38100D01*
X318436Y38100D02*
X318436Y38354D01*
X318563Y38354D01*
X318605Y38312D01*
X318605Y38227D01*
X318563Y38185D01*
X318436Y38185D01*
X318669Y38269D02*
X318669Y38100D01*
X318669Y38269D02*
X318754Y38354D01*
X318839Y38269D01*
X318839Y38100D01*
X318839Y38227D02*
X318669Y38227D01*
X318903Y38354D02*
X318903Y38100D01*
X319030Y38100D01*
X319073Y38142D01*
X319073Y38312D01*
X319030Y38354D01*
X318903Y38354D01*
X319137Y38269D02*
X319222Y38354D01*
X319222Y38100D01*
X319137Y38100D02*
X319307Y38100D01*
X319371Y38227D02*
X319540Y38227D01*
X319605Y38100D02*
X319774Y38100D01*
X319605Y38100D02*
X319774Y38269D01*
X319774Y38312D01*
X319732Y38354D01*
X319647Y38354D01*
X319605Y38312D01*
X319839Y38312D02*
X319839Y38142D01*
X319839Y38312D02*
X319881Y38354D01*
X319966Y38354D01*
X320008Y38312D01*
X320008Y38142D01*
X319966Y38100D01*
X319881Y38100D01*
X319839Y38142D01*
X320008Y38312D01*
X419100Y431800D02*
X419100Y432054D01*
X419227Y432054D01*
X419269Y432012D01*
X419269Y431927D01*
X419227Y431885D01*
X419100Y431885D01*
X419419Y431800D02*
X419419Y432054D01*
X419503Y432054D02*
X419334Y432054D01*
X419568Y432054D02*
X419568Y431800D01*
X419568Y432054D02*
X419695Y432054D01*
X419737Y432012D01*
X419737Y431927D01*
X419695Y431885D01*
X419568Y431885D01*
X419652Y431885D02*
X419737Y431800D01*
X419802Y431969D02*
X419886Y432054D01*
X419886Y431800D01*
X419802Y431800D02*
X419971Y431800D01*
X420036Y431800D02*
X420036Y432054D01*
X420163Y432054D01*
X420205Y432012D01*
X420205Y431927D01*
X420163Y431885D01*
X420036Y431885D01*
X420269Y431969D02*
X420269Y431800D01*
X420269Y431969D02*
X420354Y432054D01*
X420439Y431969D01*
X420439Y431800D01*
X420439Y431927D02*
X420269Y431927D01*
X420503Y432054D02*
X420503Y431800D01*
X420630Y431800D01*
X420673Y431842D01*
X420673Y432012D01*
X420630Y432054D01*
X420503Y432054D01*
X420737Y431969D02*
X420822Y432054D01*
X420822Y431800D01*
X420737Y431800D02*
X420907Y431800D01*
X420971Y431927D02*
X421140Y431927D01*
X421205Y431800D02*
X421374Y431800D01*
X421205Y431800D02*
X421374Y431969D01*
X421374Y432012D01*
X421332Y432054D01*
X421247Y432054D01*
X421205Y432012D01*
X421439Y432012D02*
X421439Y431842D01*
X421439Y432012D02*
X421481Y432054D01*
X421566Y432054D01*
X421608Y432012D01*
X421608Y431842D01*
X421566Y431800D01*
X421481Y431800D01*
X421439Y431842D01*
X421608Y432012D01*
X419100Y343154D02*
X419100Y342900D01*
X419100Y343154D02*
X419227Y343154D01*
X419269Y343112D01*
X419269Y343027D01*
X419227Y342985D01*
X419100Y342985D01*
X419419Y342900D02*
X419419Y343154D01*
X419503Y343154D02*
X419334Y343154D01*
X419568Y343154D02*
X419568Y342900D01*
X419568Y343154D02*
X419695Y343154D01*
X419737Y343112D01*
X419737Y343027D01*
X419695Y342985D01*
X419568Y342985D01*
X419652Y342985D02*
X419737Y342900D01*
X419802Y343069D02*
X419886Y343154D01*
X419886Y342900D01*
X419802Y342900D02*
X419971Y342900D01*
X420036Y342900D02*
X420036Y343154D01*
X420163Y343154D01*
X420205Y343112D01*
X420205Y343027D01*
X420163Y342985D01*
X420036Y342985D01*
X420269Y343069D02*
X420269Y342900D01*
X420269Y343069D02*
X420354Y343154D01*
X420439Y343069D01*
X420439Y342900D01*
X420439Y343027D02*
X420269Y343027D01*
X420503Y343154D02*
X420503Y342900D01*
X420630Y342900D01*
X420673Y342942D01*
X420673Y343112D01*
X420630Y343154D01*
X420503Y343154D01*
X420737Y343069D02*
X420822Y343154D01*
X420822Y342900D01*
X420737Y342900D02*
X420907Y342900D01*
X420971Y343027D02*
X421140Y343027D01*
X421205Y342900D02*
X421374Y342900D01*
X421205Y342900D02*
X421374Y343069D01*
X421374Y343112D01*
X421332Y343154D01*
X421247Y343154D01*
X421205Y343112D01*
X421439Y343112D02*
X421439Y342942D01*
X421439Y343112D02*
X421481Y343154D01*
X421566Y343154D01*
X421608Y343112D01*
X421608Y342942D01*
X421566Y342900D01*
X421481Y342900D01*
X421439Y342942D01*
X421608Y343112D01*
D62*
X289052Y150650D02*
X289052Y144300D01*
X289052Y137950D01*
D53*
X289052Y144300D02*
X276860Y144300D01*
D62*
X295402Y144300D02*
X295402Y150650D01*
X295402Y144300D02*
X295402Y137950D01*
D53*
X295402Y144300D02*
X307340Y144300D01*
X255270Y164620D02*
X255270Y123980D01*
X257810Y121440D02*
X326390Y121440D01*
X328930Y123980D02*
X328930Y164620D01*
X326390Y167160D02*
X257810Y167160D01*
X326390Y167160D02*
X326490Y167158D01*
X326589Y167152D01*
X326689Y167142D01*
X326787Y167129D01*
X326886Y167111D01*
X326983Y167090D01*
X327079Y167065D01*
X327175Y167036D01*
X327269Y167003D01*
X327362Y166967D01*
X327453Y166927D01*
X327543Y166883D01*
X327631Y166836D01*
X327717Y166786D01*
X327801Y166732D01*
X327883Y166675D01*
X327962Y166615D01*
X328040Y166551D01*
X328114Y166485D01*
X328186Y166416D01*
X328255Y166344D01*
X328321Y166270D01*
X328385Y166192D01*
X328445Y166113D01*
X328502Y166031D01*
X328556Y165947D01*
X328606Y165861D01*
X328653Y165773D01*
X328697Y165683D01*
X328737Y165592D01*
X328773Y165499D01*
X328806Y165405D01*
X328835Y165309D01*
X328860Y165213D01*
X328881Y165116D01*
X328899Y165017D01*
X328912Y164919D01*
X328922Y164819D01*
X328928Y164720D01*
X328930Y164620D01*
X328930Y123980D02*
X328928Y123880D01*
X328922Y123781D01*
X328912Y123681D01*
X328899Y123583D01*
X328881Y123484D01*
X328860Y123387D01*
X328835Y123291D01*
X328806Y123195D01*
X328773Y123101D01*
X328737Y123008D01*
X328697Y122917D01*
X328653Y122827D01*
X328606Y122739D01*
X328556Y122653D01*
X328502Y122569D01*
X328445Y122487D01*
X328385Y122408D01*
X328321Y122330D01*
X328255Y122256D01*
X328186Y122184D01*
X328114Y122115D01*
X328040Y122049D01*
X327962Y121985D01*
X327883Y121925D01*
X327801Y121868D01*
X327717Y121814D01*
X327631Y121764D01*
X327543Y121717D01*
X327453Y121673D01*
X327362Y121633D01*
X327269Y121597D01*
X327175Y121564D01*
X327079Y121535D01*
X326983Y121510D01*
X326886Y121489D01*
X326787Y121471D01*
X326689Y121458D01*
X326589Y121448D01*
X326490Y121442D01*
X326390Y121440D01*
X257810Y121440D02*
X257710Y121442D01*
X257611Y121448D01*
X257511Y121458D01*
X257413Y121471D01*
X257314Y121489D01*
X257217Y121510D01*
X257121Y121535D01*
X257025Y121564D01*
X256931Y121597D01*
X256838Y121633D01*
X256747Y121673D01*
X256657Y121717D01*
X256569Y121764D01*
X256483Y121814D01*
X256399Y121868D01*
X256317Y121925D01*
X256238Y121985D01*
X256160Y122049D01*
X256086Y122115D01*
X256014Y122184D01*
X255945Y122256D01*
X255879Y122330D01*
X255815Y122408D01*
X255755Y122487D01*
X255698Y122569D01*
X255644Y122653D01*
X255594Y122739D01*
X255547Y122827D01*
X255503Y122917D01*
X255463Y123008D01*
X255427Y123101D01*
X255394Y123195D01*
X255365Y123291D01*
X255340Y123387D01*
X255319Y123484D01*
X255301Y123583D01*
X255288Y123681D01*
X255278Y123781D01*
X255272Y123880D01*
X255270Y123980D01*
X255270Y164620D02*
X255272Y164720D01*
X255278Y164819D01*
X255288Y164919D01*
X255301Y165017D01*
X255319Y165116D01*
X255340Y165213D01*
X255365Y165309D01*
X255394Y165405D01*
X255427Y165499D01*
X255463Y165592D01*
X255503Y165683D01*
X255547Y165773D01*
X255594Y165861D01*
X255644Y165947D01*
X255698Y166031D01*
X255755Y166113D01*
X255815Y166192D01*
X255879Y166270D01*
X255945Y166344D01*
X256014Y166416D01*
X256086Y166485D01*
X256160Y166551D01*
X256238Y166615D01*
X256317Y166675D01*
X256399Y166732D01*
X256483Y166786D01*
X256569Y166836D01*
X256657Y166883D01*
X256747Y166927D01*
X256838Y166967D01*
X256931Y167003D01*
X257025Y167036D01*
X257121Y167065D01*
X257217Y167090D01*
X257314Y167111D01*
X257413Y167129D01*
X257511Y167142D01*
X257611Y167152D01*
X257710Y167158D01*
X257810Y167160D01*
D54*
X237362Y143302D02*
X235455Y141395D01*
X235455Y137582D01*
X237362Y135675D01*
X244988Y135675D01*
X246895Y137582D01*
X246895Y141395D01*
X244988Y143302D01*
X235455Y147369D02*
X235455Y154995D01*
X235455Y147369D02*
X241175Y147369D01*
X239269Y151182D01*
X239269Y153089D01*
X241175Y154995D01*
X244988Y154995D01*
X246895Y153089D01*
X246895Y149276D01*
X244988Y147369D01*
D53*
X316090Y410300D02*
X318630Y410300D01*
X316090Y410300D02*
X316090Y421730D01*
X309740Y421730D01*
X309740Y398870D01*
X316090Y398870D01*
X316090Y410300D01*
X300850Y410300D02*
X295770Y410300D01*
X340220Y397600D02*
X340220Y389980D01*
X344030Y393790D02*
X336410Y393790D01*
X262750Y410300D02*
X262763Y411391D01*
X262804Y412481D01*
X262870Y413570D01*
X262964Y414657D01*
X263084Y415741D01*
X263231Y416822D01*
X263404Y417899D01*
X263604Y418972D01*
X263830Y420039D01*
X264082Y421100D01*
X264360Y422155D01*
X264664Y423203D01*
X264993Y424243D01*
X265348Y425275D01*
X265728Y426297D01*
X266134Y427310D01*
X266563Y428313D01*
X267018Y429305D01*
X267496Y430285D01*
X267999Y431254D01*
X268525Y432209D01*
X269074Y433152D01*
X269646Y434081D01*
X270241Y434995D01*
X270858Y435895D01*
X271497Y436779D01*
X272158Y437647D01*
X272840Y438499D01*
X273542Y439334D01*
X274265Y440151D01*
X275007Y440950D01*
X275769Y441731D01*
X276550Y442493D01*
X277349Y443235D01*
X278166Y443958D01*
X279001Y444660D01*
X279853Y445342D01*
X280721Y446003D01*
X281605Y446642D01*
X282505Y447259D01*
X283419Y447854D01*
X284348Y448426D01*
X285291Y448975D01*
X286246Y449501D01*
X287215Y450004D01*
X288195Y450482D01*
X289187Y450937D01*
X290190Y451366D01*
X291203Y451772D01*
X292225Y452152D01*
X293257Y452507D01*
X294297Y452836D01*
X295345Y453140D01*
X296400Y453418D01*
X297461Y453670D01*
X298528Y453896D01*
X299601Y454096D01*
X300678Y454269D01*
X301759Y454416D01*
X302843Y454536D01*
X303930Y454630D01*
X305019Y454696D01*
X306109Y454737D01*
X307200Y454750D01*
X308291Y454737D01*
X309381Y454696D01*
X310470Y454630D01*
X311557Y454536D01*
X312641Y454416D01*
X313722Y454269D01*
X314799Y454096D01*
X315872Y453896D01*
X316939Y453670D01*
X318000Y453418D01*
X319055Y453140D01*
X320103Y452836D01*
X321143Y452507D01*
X322175Y452152D01*
X323197Y451772D01*
X324210Y451366D01*
X325213Y450937D01*
X326205Y450482D01*
X327185Y450004D01*
X328154Y449501D01*
X329109Y448975D01*
X330052Y448426D01*
X330981Y447854D01*
X331895Y447259D01*
X332795Y446642D01*
X333679Y446003D01*
X334547Y445342D01*
X335399Y444660D01*
X336234Y443958D01*
X337051Y443235D01*
X337850Y442493D01*
X338631Y441731D01*
X339393Y440950D01*
X340135Y440151D01*
X340858Y439334D01*
X341560Y438499D01*
X342242Y437647D01*
X342903Y436779D01*
X343542Y435895D01*
X344159Y434995D01*
X344754Y434081D01*
X345326Y433152D01*
X345875Y432209D01*
X346401Y431254D01*
X346904Y430285D01*
X347382Y429305D01*
X347837Y428313D01*
X348266Y427310D01*
X348672Y426297D01*
X349052Y425275D01*
X349407Y424243D01*
X349736Y423203D01*
X350040Y422155D01*
X350318Y421100D01*
X350570Y420039D01*
X350796Y418972D01*
X350996Y417899D01*
X351169Y416822D01*
X351316Y415741D01*
X351436Y414657D01*
X351530Y413570D01*
X351596Y412481D01*
X351637Y411391D01*
X351650Y410300D01*
X351637Y409209D01*
X351596Y408119D01*
X351530Y407030D01*
X351436Y405943D01*
X351316Y404859D01*
X351169Y403778D01*
X350996Y402701D01*
X350796Y401628D01*
X350570Y400561D01*
X350318Y399500D01*
X350040Y398445D01*
X349736Y397397D01*
X349407Y396357D01*
X349052Y395325D01*
X348672Y394303D01*
X348266Y393290D01*
X347837Y392287D01*
X347382Y391295D01*
X346904Y390315D01*
X346401Y389346D01*
X345875Y388391D01*
X345326Y387448D01*
X344754Y386519D01*
X344159Y385605D01*
X343542Y384705D01*
X342903Y383821D01*
X342242Y382953D01*
X341560Y382101D01*
X340858Y381266D01*
X340135Y380449D01*
X339393Y379650D01*
X338631Y378869D01*
X337850Y378107D01*
X337051Y377365D01*
X336234Y376642D01*
X335399Y375940D01*
X334547Y375258D01*
X333679Y374597D01*
X332795Y373958D01*
X331895Y373341D01*
X330981Y372746D01*
X330052Y372174D01*
X329109Y371625D01*
X328154Y371099D01*
X327185Y370596D01*
X326205Y370118D01*
X325213Y369663D01*
X324210Y369234D01*
X323197Y368828D01*
X322175Y368448D01*
X321143Y368093D01*
X320103Y367764D01*
X319055Y367460D01*
X318000Y367182D01*
X316939Y366930D01*
X315872Y366704D01*
X314799Y366504D01*
X313722Y366331D01*
X312641Y366184D01*
X311557Y366064D01*
X310470Y365970D01*
X309381Y365904D01*
X308291Y365863D01*
X307200Y365850D01*
X306109Y365863D01*
X305019Y365904D01*
X303930Y365970D01*
X302843Y366064D01*
X301759Y366184D01*
X300678Y366331D01*
X299601Y366504D01*
X298528Y366704D01*
X297461Y366930D01*
X296400Y367182D01*
X295345Y367460D01*
X294297Y367764D01*
X293257Y368093D01*
X292225Y368448D01*
X291203Y368828D01*
X290190Y369234D01*
X289187Y369663D01*
X288195Y370118D01*
X287215Y370596D01*
X286246Y371099D01*
X285291Y371625D01*
X284348Y372174D01*
X283419Y372746D01*
X282505Y373341D01*
X281605Y373958D01*
X280721Y374597D01*
X279853Y375258D01*
X279001Y375940D01*
X278166Y376642D01*
X277349Y377365D01*
X276550Y378107D01*
X275769Y378869D01*
X275007Y379650D01*
X274265Y380449D01*
X273542Y381266D01*
X272840Y382101D01*
X272158Y382953D01*
X271497Y383821D01*
X270858Y384705D01*
X270241Y385605D01*
X269646Y386519D01*
X269074Y387448D01*
X268525Y388391D01*
X267999Y389346D01*
X267496Y390315D01*
X267018Y391295D01*
X266563Y392287D01*
X266134Y393290D01*
X265728Y394303D01*
X265348Y395325D01*
X264993Y396357D01*
X264664Y397397D01*
X264360Y398445D01*
X264082Y399500D01*
X263830Y400561D01*
X263604Y401628D01*
X263404Y402701D01*
X263231Y403778D01*
X263084Y404859D01*
X262964Y405943D01*
X262870Y407030D01*
X262804Y408119D01*
X262763Y409209D01*
X262750Y410300D01*
D63*
X301485Y410300D03*
D54*
X246892Y400978D02*
X244985Y399071D01*
X244985Y395258D01*
X246892Y393351D01*
X254518Y393351D01*
X256425Y395258D01*
X256425Y399071D01*
X254518Y400978D01*
X248799Y405045D02*
X244985Y408858D01*
X256425Y408858D01*
X256425Y405045D02*
X256425Y412672D01*
X254518Y416739D02*
X246892Y416739D01*
X244985Y418646D01*
X244985Y422459D01*
X246892Y424365D01*
X254518Y424365D01*
X256425Y422459D01*
X256425Y418646D01*
X254518Y416739D01*
X246892Y424365D01*
D53*
X465390Y162600D02*
X467930Y162600D01*
X465390Y162600D02*
X465390Y174030D01*
X459040Y174030D01*
X459040Y151170D01*
X465390Y151170D01*
X465390Y162600D01*
X450150Y162600D02*
X445070Y162600D01*
X489520Y149900D02*
X489520Y142280D01*
X493330Y146090D02*
X485710Y146090D01*
X412050Y162600D02*
X412063Y163691D01*
X412104Y164781D01*
X412170Y165870D01*
X412264Y166957D01*
X412384Y168041D01*
X412531Y169122D01*
X412704Y170199D01*
X412904Y171272D01*
X413130Y172339D01*
X413382Y173400D01*
X413660Y174455D01*
X413964Y175503D01*
X414293Y176543D01*
X414648Y177575D01*
X415028Y178597D01*
X415434Y179610D01*
X415863Y180613D01*
X416318Y181605D01*
X416796Y182585D01*
X417299Y183554D01*
X417825Y184509D01*
X418374Y185452D01*
X418946Y186381D01*
X419541Y187295D01*
X420158Y188195D01*
X420797Y189079D01*
X421458Y189947D01*
X422140Y190799D01*
X422842Y191634D01*
X423565Y192451D01*
X424307Y193250D01*
X425069Y194031D01*
X425850Y194793D01*
X426649Y195535D01*
X427466Y196258D01*
X428301Y196960D01*
X429153Y197642D01*
X430021Y198303D01*
X430905Y198942D01*
X431805Y199559D01*
X432719Y200154D01*
X433648Y200726D01*
X434591Y201275D01*
X435546Y201801D01*
X436515Y202304D01*
X437495Y202782D01*
X438487Y203237D01*
X439490Y203666D01*
X440503Y204072D01*
X441525Y204452D01*
X442557Y204807D01*
X443597Y205136D01*
X444645Y205440D01*
X445700Y205718D01*
X446761Y205970D01*
X447828Y206196D01*
X448901Y206396D01*
X449978Y206569D01*
X451059Y206716D01*
X452143Y206836D01*
X453230Y206930D01*
X454319Y206996D01*
X455409Y207037D01*
X456500Y207050D01*
X457591Y207037D01*
X458681Y206996D01*
X459770Y206930D01*
X460857Y206836D01*
X461941Y206716D01*
X463022Y206569D01*
X464099Y206396D01*
X465172Y206196D01*
X466239Y205970D01*
X467300Y205718D01*
X468355Y205440D01*
X469403Y205136D01*
X470443Y204807D01*
X471475Y204452D01*
X472497Y204072D01*
X473510Y203666D01*
X474513Y203237D01*
X475505Y202782D01*
X476485Y202304D01*
X477454Y201801D01*
X478409Y201275D01*
X479352Y200726D01*
X480281Y200154D01*
X481195Y199559D01*
X482095Y198942D01*
X482979Y198303D01*
X483847Y197642D01*
X484699Y196960D01*
X485534Y196258D01*
X486351Y195535D01*
X487150Y194793D01*
X487931Y194031D01*
X488693Y193250D01*
X489435Y192451D01*
X490158Y191634D01*
X490860Y190799D01*
X491542Y189947D01*
X492203Y189079D01*
X492842Y188195D01*
X493459Y187295D01*
X494054Y186381D01*
X494626Y185452D01*
X495175Y184509D01*
X495701Y183554D01*
X496204Y182585D01*
X496682Y181605D01*
X497137Y180613D01*
X497566Y179610D01*
X497972Y178597D01*
X498352Y177575D01*
X498707Y176543D01*
X499036Y175503D01*
X499340Y174455D01*
X499618Y173400D01*
X499870Y172339D01*
X500096Y171272D01*
X500296Y170199D01*
X500469Y169122D01*
X500616Y168041D01*
X500736Y166957D01*
X500830Y165870D01*
X500896Y164781D01*
X500937Y163691D01*
X500950Y162600D01*
X500937Y161509D01*
X500896Y160419D01*
X500830Y159330D01*
X500736Y158243D01*
X500616Y157159D01*
X500469Y156078D01*
X500296Y155001D01*
X500096Y153928D01*
X499870Y152861D01*
X499618Y151800D01*
X499340Y150745D01*
X499036Y149697D01*
X498707Y148657D01*
X498352Y147625D01*
X497972Y146603D01*
X497566Y145590D01*
X497137Y144587D01*
X496682Y143595D01*
X496204Y142615D01*
X495701Y141646D01*
X495175Y140691D01*
X494626Y139748D01*
X494054Y138819D01*
X493459Y137905D01*
X492842Y137005D01*
X492203Y136121D01*
X491542Y135253D01*
X490860Y134401D01*
X490158Y133566D01*
X489435Y132749D01*
X488693Y131950D01*
X487931Y131169D01*
X487150Y130407D01*
X486351Y129665D01*
X485534Y128942D01*
X484699Y128240D01*
X483847Y127558D01*
X482979Y126897D01*
X482095Y126258D01*
X481195Y125641D01*
X480281Y125046D01*
X479352Y124474D01*
X478409Y123925D01*
X477454Y123399D01*
X476485Y122896D01*
X475505Y122418D01*
X474513Y121963D01*
X473510Y121534D01*
X472497Y121128D01*
X471475Y120748D01*
X470443Y120393D01*
X469403Y120064D01*
X468355Y119760D01*
X467300Y119482D01*
X466239Y119230D01*
X465172Y119004D01*
X464099Y118804D01*
X463022Y118631D01*
X461941Y118484D01*
X460857Y118364D01*
X459770Y118270D01*
X458681Y118204D01*
X457591Y118163D01*
X456500Y118150D01*
X455409Y118163D01*
X454319Y118204D01*
X453230Y118270D01*
X452143Y118364D01*
X451059Y118484D01*
X449978Y118631D01*
X448901Y118804D01*
X447828Y119004D01*
X446761Y119230D01*
X445700Y119482D01*
X444645Y119760D01*
X443597Y120064D01*
X442557Y120393D01*
X441525Y120748D01*
X440503Y121128D01*
X439490Y121534D01*
X438487Y121963D01*
X437495Y122418D01*
X436515Y122896D01*
X435546Y123399D01*
X434591Y123925D01*
X433648Y124474D01*
X432719Y125046D01*
X431805Y125641D01*
X430905Y126258D01*
X430021Y126897D01*
X429153Y127558D01*
X428301Y128240D01*
X427466Y128942D01*
X426649Y129665D01*
X425850Y130407D01*
X425069Y131169D01*
X424307Y131950D01*
X423565Y132749D01*
X422842Y133566D01*
X422140Y134401D01*
X421458Y135253D01*
X420797Y136121D01*
X420158Y137005D01*
X419541Y137905D01*
X418946Y138819D01*
X418374Y139748D01*
X417825Y140691D01*
X417299Y141646D01*
X416796Y142615D01*
X416318Y143595D01*
X415863Y144587D01*
X415434Y145590D01*
X415028Y146603D01*
X414648Y147625D01*
X414293Y148657D01*
X413964Y149697D01*
X413660Y150745D01*
X413382Y151800D01*
X413130Y152861D01*
X412904Y153928D01*
X412704Y155001D01*
X412531Y156078D01*
X412384Y157159D01*
X412264Y158243D01*
X412170Y159330D01*
X412104Y160419D01*
X412063Y161509D01*
X412050Y162600D01*
D63*
X450785Y162600D03*
D54*
X503485Y146071D02*
X505392Y147978D01*
X503485Y146071D02*
X503485Y142258D01*
X505392Y140351D01*
X513018Y140351D01*
X514925Y142258D01*
X514925Y146071D01*
X513018Y147978D01*
X514925Y152045D02*
X514925Y159672D01*
X507299Y159672D02*
X514925Y152045D01*
X507299Y159672D02*
X505392Y159672D01*
X503485Y157765D01*
X503485Y153952D01*
X505392Y152045D01*
X505392Y167552D02*
X503485Y171365D01*
X505392Y167552D02*
X509205Y163739D01*
X513018Y163739D01*
X514925Y165646D01*
X514925Y169459D01*
X513018Y171365D01*
X511112Y171365D01*
X509205Y169459D01*
X509205Y163739D01*
D62*
X303652Y341000D02*
X303652Y347350D01*
X303652Y341000D02*
X303652Y334650D01*
D53*
X303652Y341000D02*
X291460Y341000D01*
D62*
X310002Y341000D02*
X310002Y347350D01*
X310002Y341000D02*
X310002Y334650D01*
D53*
X310002Y341000D02*
X321940Y341000D01*
X269870Y353700D02*
X269870Y328300D01*
X272410Y325760D02*
X340990Y325760D01*
X343530Y328300D02*
X343530Y353700D01*
X340990Y356240D02*
X272410Y356240D01*
X340990Y356240D02*
X341090Y356238D01*
X341189Y356232D01*
X341289Y356222D01*
X341387Y356209D01*
X341486Y356191D01*
X341583Y356170D01*
X341679Y356145D01*
X341775Y356116D01*
X341869Y356083D01*
X341962Y356047D01*
X342053Y356007D01*
X342143Y355963D01*
X342231Y355916D01*
X342317Y355866D01*
X342401Y355812D01*
X342483Y355755D01*
X342562Y355695D01*
X342640Y355631D01*
X342714Y355565D01*
X342786Y355496D01*
X342855Y355424D01*
X342921Y355350D01*
X342985Y355272D01*
X343045Y355193D01*
X343102Y355111D01*
X343156Y355027D01*
X343206Y354941D01*
X343253Y354853D01*
X343297Y354763D01*
X343337Y354672D01*
X343373Y354579D01*
X343406Y354485D01*
X343435Y354389D01*
X343460Y354293D01*
X343481Y354196D01*
X343499Y354097D01*
X343512Y353999D01*
X343522Y353899D01*
X343528Y353800D01*
X343530Y353700D01*
X343530Y328300D02*
X343528Y328200D01*
X343522Y328101D01*
X343512Y328001D01*
X343499Y327903D01*
X343481Y327804D01*
X343460Y327707D01*
X343435Y327611D01*
X343406Y327515D01*
X343373Y327421D01*
X343337Y327328D01*
X343297Y327237D01*
X343253Y327147D01*
X343206Y327059D01*
X343156Y326973D01*
X343102Y326889D01*
X343045Y326807D01*
X342985Y326728D01*
X342921Y326650D01*
X342855Y326576D01*
X342786Y326504D01*
X342714Y326435D01*
X342640Y326369D01*
X342562Y326305D01*
X342483Y326245D01*
X342401Y326188D01*
X342317Y326134D01*
X342231Y326084D01*
X342143Y326037D01*
X342053Y325993D01*
X341962Y325953D01*
X341869Y325917D01*
X341775Y325884D01*
X341679Y325855D01*
X341583Y325830D01*
X341486Y325809D01*
X341387Y325791D01*
X341289Y325778D01*
X341189Y325768D01*
X341090Y325762D01*
X340990Y325760D01*
X272410Y325760D02*
X272310Y325762D01*
X272211Y325768D01*
X272111Y325778D01*
X272013Y325791D01*
X271914Y325809D01*
X271817Y325830D01*
X271721Y325855D01*
X271625Y325884D01*
X271531Y325917D01*
X271438Y325953D01*
X271347Y325993D01*
X271257Y326037D01*
X271169Y326084D01*
X271083Y326134D01*
X270999Y326188D01*
X270917Y326245D01*
X270838Y326305D01*
X270760Y326369D01*
X270686Y326435D01*
X270614Y326504D01*
X270545Y326576D01*
X270479Y326650D01*
X270415Y326728D01*
X270355Y326807D01*
X270298Y326889D01*
X270244Y326973D01*
X270194Y327059D01*
X270147Y327147D01*
X270103Y327237D01*
X270063Y327328D01*
X270027Y327421D01*
X269994Y327515D01*
X269965Y327611D01*
X269940Y327707D01*
X269919Y327804D01*
X269901Y327903D01*
X269888Y328001D01*
X269878Y328101D01*
X269872Y328200D01*
X269870Y328300D01*
X269870Y353700D02*
X269872Y353800D01*
X269878Y353899D01*
X269888Y353999D01*
X269901Y354097D01*
X269919Y354196D01*
X269940Y354293D01*
X269965Y354389D01*
X269994Y354485D01*
X270027Y354579D01*
X270063Y354672D01*
X270103Y354763D01*
X270147Y354853D01*
X270194Y354941D01*
X270244Y355027D01*
X270298Y355111D01*
X270355Y355193D01*
X270415Y355272D01*
X270479Y355350D01*
X270545Y355424D01*
X270614Y355496D01*
X270686Y355565D01*
X270760Y355631D01*
X270838Y355695D01*
X270917Y355755D01*
X270999Y355812D01*
X271083Y355866D01*
X271169Y355916D01*
X271257Y355963D01*
X271347Y356007D01*
X271438Y356047D01*
X271531Y356083D01*
X271625Y356116D01*
X271721Y356145D01*
X271817Y356170D01*
X271914Y356191D01*
X272013Y356209D01*
X272111Y356222D01*
X272211Y356232D01*
X272310Y356238D01*
X272410Y356240D01*
D54*
X253482Y333402D02*
X251575Y331495D01*
X251575Y327682D01*
X253482Y325775D01*
X261108Y325775D01*
X263015Y327682D01*
X263015Y331495D01*
X261108Y333402D01*
X263015Y337469D02*
X263015Y345095D01*
X263015Y337469D02*
X255389Y345095D01*
X253482Y345095D01*
X251575Y343189D01*
X251575Y339376D01*
X253482Y337469D01*
X251575Y349163D02*
X251575Y356789D01*
X253482Y356789D01*
X261108Y349163D01*
X263015Y349163D01*
D62*
X460248Y228600D02*
X460248Y222250D01*
X460248Y228600D02*
X460248Y234950D01*
D53*
X460248Y228600D02*
X472440Y228600D01*
D62*
X453898Y228600D02*
X453898Y222250D01*
X453898Y228600D02*
X453898Y234950D01*
D53*
X453898Y228600D02*
X441960Y228600D01*
X494030Y215900D02*
X494030Y241300D01*
X491490Y243840D02*
X422910Y243840D01*
X420370Y241300D02*
X420370Y215900D01*
X422910Y213360D02*
X491490Y213360D01*
X422910Y213360D02*
X422810Y213362D01*
X422711Y213368D01*
X422611Y213378D01*
X422513Y213391D01*
X422414Y213409D01*
X422317Y213430D01*
X422221Y213455D01*
X422125Y213484D01*
X422031Y213517D01*
X421938Y213553D01*
X421847Y213593D01*
X421757Y213637D01*
X421669Y213684D01*
X421583Y213734D01*
X421499Y213788D01*
X421417Y213845D01*
X421338Y213905D01*
X421260Y213969D01*
X421186Y214035D01*
X421114Y214104D01*
X421045Y214176D01*
X420979Y214250D01*
X420915Y214328D01*
X420855Y214407D01*
X420798Y214489D01*
X420744Y214573D01*
X420694Y214659D01*
X420647Y214747D01*
X420603Y214837D01*
X420563Y214928D01*
X420527Y215021D01*
X420494Y215115D01*
X420465Y215211D01*
X420440Y215307D01*
X420419Y215404D01*
X420401Y215503D01*
X420388Y215601D01*
X420378Y215701D01*
X420372Y215800D01*
X420370Y215900D01*
X420370Y241300D02*
X420372Y241400D01*
X420378Y241499D01*
X420388Y241599D01*
X420401Y241697D01*
X420419Y241796D01*
X420440Y241893D01*
X420465Y241989D01*
X420494Y242085D01*
X420527Y242179D01*
X420563Y242272D01*
X420603Y242363D01*
X420647Y242453D01*
X420694Y242541D01*
X420744Y242627D01*
X420798Y242711D01*
X420855Y242793D01*
X420915Y242872D01*
X420979Y242950D01*
X421045Y243024D01*
X421114Y243096D01*
X421186Y243165D01*
X421260Y243231D01*
X421338Y243295D01*
X421417Y243355D01*
X421499Y243412D01*
X421583Y243466D01*
X421669Y243516D01*
X421757Y243563D01*
X421847Y243607D01*
X421938Y243647D01*
X422031Y243683D01*
X422125Y243716D01*
X422221Y243745D01*
X422317Y243770D01*
X422414Y243791D01*
X422513Y243809D01*
X422611Y243822D01*
X422711Y243832D01*
X422810Y243838D01*
X422910Y243840D01*
X491490Y243840D02*
X491590Y243838D01*
X491689Y243832D01*
X491789Y243822D01*
X491887Y243809D01*
X491986Y243791D01*
X492083Y243770D01*
X492179Y243745D01*
X492275Y243716D01*
X492369Y243683D01*
X492462Y243647D01*
X492553Y243607D01*
X492643Y243563D01*
X492731Y243516D01*
X492817Y243466D01*
X492901Y243412D01*
X492983Y243355D01*
X493062Y243295D01*
X493140Y243231D01*
X493214Y243165D01*
X493286Y243096D01*
X493355Y243024D01*
X493421Y242950D01*
X493485Y242872D01*
X493545Y242793D01*
X493602Y242711D01*
X493656Y242627D01*
X493706Y242541D01*
X493753Y242453D01*
X493797Y242363D01*
X493837Y242272D01*
X493873Y242179D01*
X493906Y242085D01*
X493935Y241989D01*
X493960Y241893D01*
X493981Y241796D01*
X493999Y241697D01*
X494012Y241599D01*
X494022Y241499D01*
X494028Y241400D01*
X494030Y241300D01*
X494030Y215900D02*
X494028Y215800D01*
X494022Y215701D01*
X494012Y215601D01*
X493999Y215503D01*
X493981Y215404D01*
X493960Y215307D01*
X493935Y215211D01*
X493906Y215115D01*
X493873Y215021D01*
X493837Y214928D01*
X493797Y214837D01*
X493753Y214747D01*
X493706Y214659D01*
X493656Y214573D01*
X493602Y214489D01*
X493545Y214407D01*
X493485Y214328D01*
X493421Y214250D01*
X493355Y214176D01*
X493286Y214104D01*
X493214Y214035D01*
X493140Y213969D01*
X493062Y213905D01*
X492983Y213845D01*
X492901Y213788D01*
X492817Y213734D01*
X492731Y213684D01*
X492643Y213637D01*
X492553Y213593D01*
X492462Y213553D01*
X492369Y213517D01*
X492275Y213484D01*
X492179Y213455D01*
X492083Y213430D01*
X491986Y213409D01*
X491887Y213391D01*
X491789Y213378D01*
X491689Y213368D01*
X491590Y213362D01*
X491490Y213360D01*
D54*
X501175Y215633D02*
X503082Y217540D01*
X501175Y215633D02*
X501175Y211820D01*
X503082Y209913D01*
X510708Y209913D01*
X512615Y211820D01*
X512615Y215633D01*
X510708Y217540D01*
X503082Y221607D02*
X501175Y223514D01*
X501175Y227327D01*
X503082Y229234D01*
X504989Y229234D01*
X506895Y227327D01*
X506895Y225420D01*
X506895Y227327D02*
X508802Y229234D01*
X510708Y229234D01*
X512615Y227327D01*
X512615Y223514D01*
X510708Y221607D01*
X510708Y233301D02*
X503082Y233301D01*
X501175Y235208D01*
X501175Y239021D01*
X503082Y240927D01*
X510708Y240927D01*
X512615Y239021D01*
X512615Y235208D01*
X510708Y233301D01*
X503082Y240927D01*
M02*
