G75*
%MOIN*%
%OFA0B0*%
%FSLAX25Y25*%
%IPPOS*%
%LPD*%
%AMOC8*
5,1,8,0,0,1.08239X$1,22.5*
%
%ADD10C,0.13398*%
%ADD11C,0.06400*%
%ADD12C,0.10800*%
%ADD13C,0.18900*%
%ADD14C,0.07400*%
%ADD15C,0.06800*%
%ADD16C,0.07493*%
%ADD17C,0.06000*%
%ADD18C,0.08400*%
%ADD19C,0.20800*%
%ADD20C,0.13200*%
%ADD21C,0.05156*%
D10*
X0021800Y0031800D03*
X0124300Y0021800D03*
X0013050Y0096800D03*
X0013050Y0266800D03*
X0021800Y0331800D03*
X0124300Y0331800D03*
X0479300Y0331800D03*
X0581800Y0331800D03*
X0590550Y0266800D03*
X0590550Y0096800D03*
X0581800Y0031800D03*
X0479300Y0021800D03*
D11*
X0336800Y0056800D03*
X0336800Y0066800D03*
X0336800Y0076800D03*
X0336800Y0096800D03*
X0336800Y0106800D03*
X0336800Y0116800D03*
X0266800Y0116800D03*
X0266800Y0106800D03*
X0266800Y0096800D03*
X0266800Y0076800D03*
X0266800Y0066800D03*
X0266800Y0056800D03*
X0176800Y0156800D03*
X0176800Y0166800D03*
X0176800Y0176800D03*
X0176800Y0221800D03*
X0186800Y0221800D03*
X0196800Y0221800D03*
X0196800Y0239300D03*
X0186800Y0239300D03*
X0176800Y0239300D03*
X0166800Y0239300D03*
X0156800Y0239300D03*
X0146800Y0239300D03*
X0146800Y0221800D03*
X0156800Y0221800D03*
X0166800Y0221800D03*
X0166800Y0256800D03*
X0156800Y0256800D03*
X0146800Y0256800D03*
X0236800Y0251800D03*
X0236800Y0241800D03*
X0261800Y0256800D03*
X0281800Y0256800D03*
X0286800Y0249300D03*
X0291800Y0256800D03*
X0306800Y0256800D03*
X0326800Y0256800D03*
X0336800Y0256800D03*
X0331800Y0249300D03*
X0326800Y0239300D03*
X0336800Y0239300D03*
X0331800Y0231800D03*
X0306800Y0239300D03*
X0366800Y0241800D03*
X0366800Y0251800D03*
X0366800Y0261800D03*
X0406800Y0239300D03*
X0416800Y0239300D03*
X0426800Y0239300D03*
X0436800Y0239300D03*
X0446800Y0239300D03*
X0456800Y0239300D03*
X0456800Y0221800D03*
X0446800Y0221800D03*
X0436800Y0221800D03*
X0426800Y0221800D03*
X0416800Y0221800D03*
X0406800Y0221800D03*
X0441800Y0191800D03*
X0456800Y0176800D03*
X0441800Y0171800D03*
X0434300Y0166800D03*
X0424300Y0166800D03*
X0424300Y0156800D03*
X0441800Y0161800D03*
X0424300Y0176800D03*
X0456800Y0206800D03*
X0456800Y0256800D03*
X0446800Y0256800D03*
X0436800Y0256800D03*
X0236800Y0261800D03*
D12*
X0236800Y0211800D03*
X0236800Y0191800D03*
X0261800Y0166800D03*
X0281800Y0166800D03*
X0321800Y0166800D03*
X0341800Y0166800D03*
X0371800Y0146800D03*
X0371800Y0126800D03*
X0366800Y0191800D03*
X0366800Y0211800D03*
X0311800Y0201800D03*
X0291800Y0201800D03*
X0231800Y0146800D03*
X0231800Y0126800D03*
X0271717Y0019398D03*
X0291717Y0019398D03*
X0311717Y0019398D03*
X0331717Y0019398D03*
X0331883Y0316702D03*
X0311883Y0316702D03*
X0291883Y0316702D03*
X0271883Y0316702D03*
X0251883Y0316702D03*
X0231883Y0316702D03*
X0211883Y0316702D03*
X0191883Y0316702D03*
X0171883Y0316702D03*
X0351883Y0316702D03*
X0371883Y0316702D03*
X0391883Y0316702D03*
X0411883Y0316702D03*
X0431883Y0316702D03*
D13*
X0416800Y0076800D03*
X0416800Y0036800D03*
X0181800Y0036800D03*
X0181800Y0076800D03*
D14*
X0151800Y0116800D03*
X0151800Y0136800D03*
X0186800Y0256800D03*
X0186800Y0276800D03*
X0161800Y0284300D03*
X0141800Y0284300D03*
X0411800Y0276800D03*
X0441800Y0284300D03*
X0461800Y0284300D03*
X0411800Y0256800D03*
X0446800Y0136800D03*
X0446800Y0116800D03*
D15*
X0533800Y0106800D02*
X0539800Y0106800D01*
X0539800Y0096800D02*
X0533800Y0096800D01*
X0533800Y0086800D02*
X0539800Y0086800D01*
X0311800Y0079800D02*
X0311800Y0073800D01*
X0291800Y0073800D02*
X0291800Y0079800D01*
X0291800Y0093800D02*
X0291800Y0099800D01*
X0311800Y0099800D02*
X0311800Y0093800D01*
X0311800Y0113800D02*
X0311800Y0119800D01*
X0291800Y0119800D02*
X0291800Y0113800D01*
X0291800Y0059800D02*
X0291800Y0053800D01*
X0311800Y0053800D02*
X0311800Y0059800D01*
X0069800Y0086800D02*
X0063800Y0086800D01*
X0063800Y0096800D02*
X0069800Y0096800D01*
X0069800Y0106800D02*
X0063800Y0106800D01*
X0063800Y0256800D02*
X0069800Y0256800D01*
X0069800Y0266800D02*
X0063800Y0266800D01*
X0063800Y0276800D02*
X0069800Y0276800D01*
X0533800Y0276800D02*
X0539800Y0276800D01*
X0539800Y0266800D02*
X0533800Y0266800D01*
X0533800Y0256800D02*
X0539800Y0256800D01*
D16*
X0424300Y0146800D03*
X0424300Y0116800D03*
X0176800Y0116800D03*
X0176800Y0146800D03*
D17*
X0191800Y0146800D03*
X0191800Y0186800D03*
X0216800Y0241800D03*
X0251800Y0271800D03*
X0241800Y0286800D03*
X0216800Y0281800D03*
X0281800Y0286800D03*
X0296800Y0286800D03*
X0306800Y0286800D03*
X0321800Y0286800D03*
X0311800Y0271800D03*
X0291800Y0271800D03*
X0351800Y0271800D03*
X0361800Y0286800D03*
X0386800Y0281800D03*
X0386800Y0241800D03*
X0401800Y0204300D03*
X0406800Y0186800D03*
X0441800Y0204300D03*
X0514300Y0246800D03*
X0514300Y0286800D03*
X0406800Y0146800D03*
X0514300Y0116800D03*
X0514300Y0076800D03*
X0089300Y0076800D03*
X0089300Y0116800D03*
X0089300Y0246800D03*
X0089300Y0286800D03*
D18*
X0121800Y0261800D03*
X0121800Y0191800D03*
X0121800Y0171800D03*
X0121800Y0101800D03*
X0481800Y0101800D03*
X0481800Y0171800D03*
X0481800Y0191800D03*
X0481800Y0261800D03*
D19*
X0550300Y0216800D03*
X0550300Y0146800D03*
X0550300Y0046800D03*
X0550300Y0316800D03*
X0053300Y0316800D03*
X0053300Y0216800D03*
X0053300Y0146800D03*
X0053300Y0046800D03*
D20*
X0146800Y0041800D03*
X0146800Y0071800D03*
X0216800Y0071800D03*
X0216800Y0041800D03*
X0381800Y0041800D03*
X0381800Y0071800D03*
X0451800Y0071800D03*
X0451800Y0041800D03*
D21*
X0466800Y0101800D03*
X0166800Y0271800D03*
M02*
