M48
;GenerationSoftware,Autodesk,EAGLE,9.3.1*%
;CreationDate,2019-06-30T21:59:46Z*%
FMAT,2
ICI,OFF
METRIC,TZ,000.000
T7C0.350
T6C0.813
T5C1.000
T4C1.016
T3C1.676
T2C2.000
T1C3.200
%
G90
M71
T1
X23820Y52500
X81820Y52500
X23820Y3500
X81820Y3500
T2
X5313Y4978
X233Y4978
X15473Y4978
X10393Y4978
X5313Y27838
X233Y27838
X15473Y27838
X10393Y27838
T3
X32156Y34290
X40081Y34290
X44044Y34290
X36119Y34290
T4
X28677Y53772
X52070Y16510
X54610Y16510
X57150Y16510
X49530Y16510
X46990Y16510
X50800Y8890
X50800Y3810
X73660Y8890
X73660Y3810
X62230Y8890
X62230Y3810
X43180Y60960
X45720Y60960
X48260Y60960
X40640Y60960
X38100Y60960
X54610Y60960
X57150Y60960
X59690Y60960
X73660Y60960
X508Y47244
X3048Y47244
X5588Y47244
X59157Y53772
X13208Y47244
X15748Y47244
X18288Y47244
X8128Y47244
X10668Y47244
X33020Y3810
X30480Y3810
X40640Y8890
X43180Y8890
X4953Y36957
X7493Y36957
X10033Y36957
X12573Y36957
X28690Y51230
X31217Y51232
X31217Y53772
X33757Y51232
X33757Y53772
X36297Y51232
X36297Y53772
X38837Y51232
X38837Y53772
X41377Y51232
X41377Y53772
X43917Y51232
X43917Y53772
X46457Y51232
X46457Y53772
X48997Y51232
X48997Y53772
X51537Y51232
X51537Y53772
X54077Y51232
X54077Y53772
X56617Y51232
X56617Y53772
X59157Y51232
X61697Y51232
X61697Y53772
X64237Y51232
X64237Y53772
X66777Y51232
X66777Y53772
X69317Y51232
X69317Y53772
X71857Y51232
X71857Y53772
X74397Y51232
X74397Y53772
X76937Y51232
X76937Y53772
X41377Y2228
X41377Y4768
X38837Y2228
X38837Y4768
X76200Y60960
X77470Y44577
X77470Y41783
X74930Y44577
X74930Y41783
X72390Y44577
X72390Y41783
X69850Y44577
X69850Y41783
X67310Y44577
X67310Y41783
X34290Y44450
X36830Y44450
X39370Y44450
X31750Y44450
X29210Y44450
X45720Y44450
X48260Y44450
X50800Y44450
X53340Y44450
X55880Y44450
X58420Y44450
X77470Y30480
X82550Y30480
X77978Y16383
X80518Y16383
X83058Y16383
X62738Y16383
X75438Y16383
X72898Y16383
X65278Y16383
X67818Y16383
X70358Y16383
T5
X5715Y12319
X635Y12319
X18415Y12319
X18415Y19939
X10795Y19939
X5715Y19939
X635Y19939
X10795Y12319
T6
X26670Y12780
X26670Y10780
X26670Y16780
X26670Y18780
X26670Y20780
X26670Y22780
X26670Y14780
X26670Y24780
T7
X3556Y61976
X7366Y53975
X9906Y53975
X7747Y59309
X7747Y60325
X11049Y63373
X13970Y41910
X3810Y41910
X-1270Y41910
X14859Y52324
X2540Y52324
X3810Y63500
X62611Y59690
X21590Y60960
X44704Y22225
X62865Y26162
X44704Y20955
X42037Y45466
X8890Y58420
X27940Y64008
X30607Y57912
X66040Y60960
X28194Y58039
X31623Y24765
X35052Y52451
X8890Y41910
X31496Y17145
X36576Y12954
X26670Y33655
X48895Y30099
X60960Y27432
X60960Y37719
X47117Y27559
X44704Y24765
X44577Y17145
X33020Y57785
X58039Y49657
X50165Y30226
X53975Y26670
X43307Y45593
X44831Y13970
X57150Y20320
X60960Y29210
X39751Y12827
X49530Y39497
X13716Y61976
X27940Y6350
M30