G75*
%MOIN*%
%OFA0B0*%
%FSLAX25Y25*%
%IPPOS*%
%LPD*%
%AMOC8*
5,1,8,0,0,1.08239X$1,22.5*
%
%ADD10C,0.13398*%
%ADD11OC8,0.06400*%
%ADD12OC8,0.06000*%
%ADD13C,0.10800*%
%ADD14OC8,0.10800*%
%ADD15OC8,0.07100*%
%ADD16C,0.07100*%
%ADD17C,0.06000*%
%ADD18R,0.07099X0.07898*%
%ADD19OC8,0.13200*%
%ADD20R,0.02170X0.06300*%
%ADD21C,0.06737*%
%ADD22C,0.07887*%
%ADD23C,0.10249*%
%ADD24C,0.07099*%
%ADD25R,0.07100X0.05400*%
%ADD26R,0.07200X0.00600*%
%ADD27R,0.07099X0.07887*%
%ADD28C,0.05156*%
D10*
X0014100Y0012850D03*
X0189100Y0012850D03*
X0214100Y0012850D03*
X0389100Y0012850D03*
X0389100Y0307850D03*
X0214100Y0307850D03*
X0189100Y0307850D03*
X0014100Y0307850D03*
D11*
X0091600Y0091600D03*
X0091600Y0061600D03*
X0146600Y0061600D03*
X0146600Y0091600D03*
X0291600Y0091600D03*
X0291600Y0061600D03*
X0346600Y0061600D03*
X0346600Y0091600D03*
D12*
X0331600Y0111600D03*
X0311600Y0111600D03*
X0252850Y0151600D03*
X0252850Y0171600D03*
X0256600Y0191600D03*
X0256600Y0211600D03*
X0271600Y0226600D03*
X0301600Y0226600D03*
X0321600Y0226600D03*
X0351600Y0226600D03*
X0360350Y0211600D03*
X0360350Y0191600D03*
X0324100Y0175350D03*
X0324100Y0165350D03*
X0310350Y0165350D03*
X0310350Y0175350D03*
X0225350Y0084100D03*
X0225350Y0064100D03*
X0251600Y0046600D03*
X0256600Y0031600D03*
X0271600Y0046600D03*
X0286600Y0031600D03*
X0306600Y0041600D03*
X0326600Y0041600D03*
X0351600Y0031600D03*
X0366600Y0051600D03*
X0386600Y0051600D03*
X0381600Y0031600D03*
X0186600Y0051600D03*
X0166600Y0051600D03*
X0151600Y0031600D03*
X0126600Y0041600D03*
X0106600Y0041600D03*
X0086600Y0031600D03*
X0071600Y0046600D03*
X0051600Y0046600D03*
X0056600Y0031600D03*
X0025350Y0064100D03*
X0025350Y0084100D03*
X0052850Y0151600D03*
X0052850Y0171600D03*
X0056600Y0191600D03*
X0056600Y0211600D03*
X0071600Y0226600D03*
X0101600Y0226600D03*
X0121600Y0226600D03*
X0151600Y0226600D03*
X0160350Y0211600D03*
X0160350Y0191600D03*
X0124100Y0175350D03*
X0124100Y0165350D03*
X0110350Y0165350D03*
X0110350Y0175350D03*
X0111600Y0111600D03*
X0131600Y0111600D03*
X0181600Y0031600D03*
D13*
X0166600Y0086600D03*
X0151600Y0126600D03*
X0222850Y0115350D03*
X0271600Y0081600D03*
X0276600Y0136600D03*
X0351600Y0126600D03*
X0366600Y0086600D03*
X0329100Y0211600D03*
X0286600Y0211600D03*
X0226600Y0212850D03*
X0129100Y0211600D03*
X0086600Y0211600D03*
X0026600Y0212850D03*
X0076600Y0136600D03*
X0022850Y0115350D03*
X0071600Y0081600D03*
D14*
X0051600Y0081600D03*
X0042850Y0115350D03*
X0076600Y0116600D03*
X0086600Y0191600D03*
X0129100Y0191600D03*
X0171600Y0126600D03*
X0186600Y0086600D03*
X0242850Y0115350D03*
X0276600Y0116600D03*
X0251600Y0081600D03*
X0371600Y0126600D03*
X0386600Y0086600D03*
X0329100Y0191600D03*
X0286600Y0191600D03*
X0226600Y0192850D03*
X0026600Y0192850D03*
D15*
X0081600Y0154600D03*
X0091600Y0194600D03*
X0125350Y0194600D03*
X0183600Y0081600D03*
X0254600Y0076600D03*
X0281600Y0154600D03*
X0291600Y0194600D03*
X0325350Y0194600D03*
X0383600Y0081600D03*
X0054600Y0076600D03*
D16*
X0068600Y0076600D03*
X0169600Y0081600D03*
X0268600Y0076600D03*
X0369600Y0081600D03*
X0281600Y0168600D03*
X0291600Y0208600D03*
X0325350Y0208600D03*
X0125350Y0208600D03*
X0091600Y0208600D03*
X0081600Y0168600D03*
D17*
X0101600Y0091600D03*
X0101600Y0081600D03*
X0101600Y0071600D03*
X0101600Y0061600D03*
X0131600Y0061600D03*
X0131600Y0071600D03*
X0131600Y0081600D03*
X0131600Y0091600D03*
X0301600Y0091600D03*
X0301600Y0081600D03*
X0301600Y0071600D03*
X0301600Y0061600D03*
X0331600Y0061600D03*
X0331600Y0071600D03*
X0331600Y0081600D03*
X0331600Y0091600D03*
D18*
X0351002Y0156600D03*
X0362198Y0156600D03*
X0343448Y0176600D03*
X0332252Y0176600D03*
X0162198Y0156600D03*
X0151002Y0156600D03*
X0143448Y0176600D03*
X0132252Y0176600D03*
D19*
X0166600Y0226600D03*
X0176600Y0246600D03*
X0251600Y0246600D03*
X0256600Y0226600D03*
X0366600Y0226600D03*
X0376600Y0246600D03*
X0351600Y0016600D03*
X0331600Y0016600D03*
X0306600Y0016600D03*
X0286600Y0016600D03*
X0151600Y0016600D03*
X0131600Y0016600D03*
X0106600Y0016600D03*
X0086600Y0016600D03*
X0056600Y0226600D03*
X0051600Y0246600D03*
D20*
X0099966Y0155994D03*
X0102525Y0155994D03*
X0105084Y0155994D03*
X0107643Y0155994D03*
X0110202Y0155994D03*
X0112761Y0155994D03*
X0115320Y0155994D03*
X0117880Y0155994D03*
X0120439Y0155994D03*
X0122998Y0155994D03*
X0125557Y0155994D03*
X0128116Y0155994D03*
X0130675Y0155994D03*
X0133234Y0155994D03*
X0135793Y0155994D03*
X0138352Y0155994D03*
X0138352Y0127206D03*
X0135793Y0127206D03*
X0133234Y0127206D03*
X0130675Y0127206D03*
X0128116Y0127206D03*
X0125557Y0127206D03*
X0122998Y0127206D03*
X0120439Y0127206D03*
X0117880Y0127206D03*
X0115320Y0127206D03*
X0112761Y0127206D03*
X0110202Y0127206D03*
X0107643Y0127206D03*
X0105084Y0127206D03*
X0102525Y0127206D03*
X0099966Y0127206D03*
X0299966Y0127206D03*
X0302525Y0127206D03*
X0305084Y0127206D03*
X0307643Y0127206D03*
X0310202Y0127206D03*
X0312761Y0127206D03*
X0315320Y0127206D03*
X0317880Y0127206D03*
X0320439Y0127206D03*
X0322998Y0127206D03*
X0325557Y0127206D03*
X0328116Y0127206D03*
X0330675Y0127206D03*
X0333234Y0127206D03*
X0335793Y0127206D03*
X0338352Y0127206D03*
X0338352Y0155994D03*
X0335793Y0155994D03*
X0333234Y0155994D03*
X0330675Y0155994D03*
X0328116Y0155994D03*
X0325557Y0155994D03*
X0322998Y0155994D03*
X0320439Y0155994D03*
X0317880Y0155994D03*
X0315320Y0155994D03*
X0312761Y0155994D03*
X0310202Y0155994D03*
X0307643Y0155994D03*
X0305084Y0155994D03*
X0302525Y0155994D03*
X0299966Y0155994D03*
D21*
X0224569Y0151600D02*
X0218631Y0151600D01*
X0218631Y0161600D02*
X0224569Y0161600D01*
X0224569Y0171600D02*
X0218631Y0171600D01*
X0187069Y0172850D02*
X0181131Y0172850D01*
X0181131Y0162850D02*
X0187069Y0162850D01*
X0187069Y0152850D02*
X0181131Y0152850D01*
X0181131Y0182850D02*
X0187069Y0182850D01*
X0187069Y0192850D02*
X0181131Y0192850D01*
X0024569Y0171600D02*
X0018631Y0171600D01*
X0018631Y0161600D02*
X0024569Y0161600D01*
X0024569Y0151600D02*
X0018631Y0151600D01*
X0381131Y0152850D02*
X0387069Y0152850D01*
X0387069Y0162850D02*
X0381131Y0162850D01*
X0381131Y0172850D02*
X0387069Y0172850D01*
X0387069Y0182850D02*
X0381131Y0182850D01*
X0381131Y0192850D02*
X0387069Y0192850D01*
D22*
X0311600Y0246600D03*
X0311600Y0266600D03*
X0111600Y0266600D03*
X0111600Y0246600D03*
D23*
X0126600Y0246600D03*
X0096600Y0246600D03*
X0296600Y0246600D03*
X0326600Y0246600D03*
D24*
X0326600Y0281600D03*
X0296600Y0301600D03*
X0126600Y0281600D03*
X0096600Y0301600D03*
D25*
X0186600Y0143350D03*
X0186600Y0137350D03*
X0386600Y0137350D03*
X0386600Y0143350D03*
D26*
X0386600Y0140350D03*
X0186600Y0140350D03*
D27*
X0164612Y0147850D03*
X0153588Y0147850D03*
X0353588Y0147850D03*
X0364612Y0147850D03*
D28*
X0346600Y0149100D03*
X0346600Y0144100D03*
X0319100Y0146600D03*
X0300350Y0164100D03*
X0300350Y0174100D03*
X0239100Y0162850D03*
X0186600Y0204100D03*
X0176600Y0204100D03*
X0146600Y0149100D03*
X0146600Y0144100D03*
X0119100Y0146600D03*
X0100350Y0164100D03*
X0100350Y0174100D03*
X0039100Y0162850D03*
X0059100Y0112850D03*
X0089100Y0102850D03*
X0149100Y0102850D03*
X0184100Y0117850D03*
X0184100Y0127850D03*
X0259100Y0112850D03*
X0289100Y0102850D03*
X0349100Y0102850D03*
X0384100Y0117850D03*
X0384100Y0127850D03*
X0386600Y0204100D03*
X0376600Y0204100D03*
X0299100Y0267850D03*
X0099100Y0267850D03*
M02*
