G75*
%MOIN*%
%OFA0B0*%
%FSLAX25Y25*%
%IPPOS*%
%LPD*%
%AMOC8*
5,1,8,0,0,1.08239X$1,22.5*
%
%ADD10C,0.00000*%
%ADD11C,0.00400*%
%ADD12C,0.00600*%
D10*
X0004100Y0002850D02*
X0004100Y0315301D01*
X0397801Y0315301D01*
X0397801Y0002850D01*
X0004100Y0002850D01*
X0007801Y0012850D02*
X0007803Y0013008D01*
X0007809Y0013166D01*
X0007819Y0013324D01*
X0007833Y0013482D01*
X0007851Y0013639D01*
X0007872Y0013796D01*
X0007898Y0013952D01*
X0007928Y0014108D01*
X0007961Y0014263D01*
X0007999Y0014416D01*
X0008040Y0014569D01*
X0008085Y0014721D01*
X0008134Y0014872D01*
X0008187Y0015021D01*
X0008243Y0015169D01*
X0008303Y0015315D01*
X0008367Y0015460D01*
X0008435Y0015603D01*
X0008506Y0015745D01*
X0008580Y0015885D01*
X0008658Y0016022D01*
X0008740Y0016158D01*
X0008824Y0016292D01*
X0008913Y0016423D01*
X0009004Y0016552D01*
X0009099Y0016679D01*
X0009196Y0016804D01*
X0009297Y0016926D01*
X0009401Y0017045D01*
X0009508Y0017162D01*
X0009618Y0017276D01*
X0009731Y0017387D01*
X0009846Y0017496D01*
X0009964Y0017601D01*
X0010085Y0017703D01*
X0010208Y0017803D01*
X0010334Y0017899D01*
X0010462Y0017992D01*
X0010592Y0018082D01*
X0010725Y0018168D01*
X0010860Y0018252D01*
X0010996Y0018331D01*
X0011135Y0018408D01*
X0011276Y0018480D01*
X0011418Y0018550D01*
X0011562Y0018615D01*
X0011708Y0018677D01*
X0011855Y0018735D01*
X0012004Y0018790D01*
X0012154Y0018841D01*
X0012305Y0018888D01*
X0012457Y0018931D01*
X0012610Y0018970D01*
X0012765Y0019006D01*
X0012920Y0019037D01*
X0013076Y0019065D01*
X0013232Y0019089D01*
X0013389Y0019109D01*
X0013547Y0019125D01*
X0013704Y0019137D01*
X0013863Y0019145D01*
X0014021Y0019149D01*
X0014179Y0019149D01*
X0014337Y0019145D01*
X0014496Y0019137D01*
X0014653Y0019125D01*
X0014811Y0019109D01*
X0014968Y0019089D01*
X0015124Y0019065D01*
X0015280Y0019037D01*
X0015435Y0019006D01*
X0015590Y0018970D01*
X0015743Y0018931D01*
X0015895Y0018888D01*
X0016046Y0018841D01*
X0016196Y0018790D01*
X0016345Y0018735D01*
X0016492Y0018677D01*
X0016638Y0018615D01*
X0016782Y0018550D01*
X0016924Y0018480D01*
X0017065Y0018408D01*
X0017204Y0018331D01*
X0017340Y0018252D01*
X0017475Y0018168D01*
X0017608Y0018082D01*
X0017738Y0017992D01*
X0017866Y0017899D01*
X0017992Y0017803D01*
X0018115Y0017703D01*
X0018236Y0017601D01*
X0018354Y0017496D01*
X0018469Y0017387D01*
X0018582Y0017276D01*
X0018692Y0017162D01*
X0018799Y0017045D01*
X0018903Y0016926D01*
X0019004Y0016804D01*
X0019101Y0016679D01*
X0019196Y0016552D01*
X0019287Y0016423D01*
X0019376Y0016292D01*
X0019460Y0016158D01*
X0019542Y0016022D01*
X0019620Y0015885D01*
X0019694Y0015745D01*
X0019765Y0015603D01*
X0019833Y0015460D01*
X0019897Y0015315D01*
X0019957Y0015169D01*
X0020013Y0015021D01*
X0020066Y0014872D01*
X0020115Y0014721D01*
X0020160Y0014569D01*
X0020201Y0014416D01*
X0020239Y0014263D01*
X0020272Y0014108D01*
X0020302Y0013952D01*
X0020328Y0013796D01*
X0020349Y0013639D01*
X0020367Y0013482D01*
X0020381Y0013324D01*
X0020391Y0013166D01*
X0020397Y0013008D01*
X0020399Y0012850D01*
X0020397Y0012692D01*
X0020391Y0012534D01*
X0020381Y0012376D01*
X0020367Y0012218D01*
X0020349Y0012061D01*
X0020328Y0011904D01*
X0020302Y0011748D01*
X0020272Y0011592D01*
X0020239Y0011437D01*
X0020201Y0011284D01*
X0020160Y0011131D01*
X0020115Y0010979D01*
X0020066Y0010828D01*
X0020013Y0010679D01*
X0019957Y0010531D01*
X0019897Y0010385D01*
X0019833Y0010240D01*
X0019765Y0010097D01*
X0019694Y0009955D01*
X0019620Y0009815D01*
X0019542Y0009678D01*
X0019460Y0009542D01*
X0019376Y0009408D01*
X0019287Y0009277D01*
X0019196Y0009148D01*
X0019101Y0009021D01*
X0019004Y0008896D01*
X0018903Y0008774D01*
X0018799Y0008655D01*
X0018692Y0008538D01*
X0018582Y0008424D01*
X0018469Y0008313D01*
X0018354Y0008204D01*
X0018236Y0008099D01*
X0018115Y0007997D01*
X0017992Y0007897D01*
X0017866Y0007801D01*
X0017738Y0007708D01*
X0017608Y0007618D01*
X0017475Y0007532D01*
X0017340Y0007448D01*
X0017204Y0007369D01*
X0017065Y0007292D01*
X0016924Y0007220D01*
X0016782Y0007150D01*
X0016638Y0007085D01*
X0016492Y0007023D01*
X0016345Y0006965D01*
X0016196Y0006910D01*
X0016046Y0006859D01*
X0015895Y0006812D01*
X0015743Y0006769D01*
X0015590Y0006730D01*
X0015435Y0006694D01*
X0015280Y0006663D01*
X0015124Y0006635D01*
X0014968Y0006611D01*
X0014811Y0006591D01*
X0014653Y0006575D01*
X0014496Y0006563D01*
X0014337Y0006555D01*
X0014179Y0006551D01*
X0014021Y0006551D01*
X0013863Y0006555D01*
X0013704Y0006563D01*
X0013547Y0006575D01*
X0013389Y0006591D01*
X0013232Y0006611D01*
X0013076Y0006635D01*
X0012920Y0006663D01*
X0012765Y0006694D01*
X0012610Y0006730D01*
X0012457Y0006769D01*
X0012305Y0006812D01*
X0012154Y0006859D01*
X0012004Y0006910D01*
X0011855Y0006965D01*
X0011708Y0007023D01*
X0011562Y0007085D01*
X0011418Y0007150D01*
X0011276Y0007220D01*
X0011135Y0007292D01*
X0010996Y0007369D01*
X0010860Y0007448D01*
X0010725Y0007532D01*
X0010592Y0007618D01*
X0010462Y0007708D01*
X0010334Y0007801D01*
X0010208Y0007897D01*
X0010085Y0007997D01*
X0009964Y0008099D01*
X0009846Y0008204D01*
X0009731Y0008313D01*
X0009618Y0008424D01*
X0009508Y0008538D01*
X0009401Y0008655D01*
X0009297Y0008774D01*
X0009196Y0008896D01*
X0009099Y0009021D01*
X0009004Y0009148D01*
X0008913Y0009277D01*
X0008824Y0009408D01*
X0008740Y0009542D01*
X0008658Y0009678D01*
X0008580Y0009815D01*
X0008506Y0009955D01*
X0008435Y0010097D01*
X0008367Y0010240D01*
X0008303Y0010385D01*
X0008243Y0010531D01*
X0008187Y0010679D01*
X0008134Y0010828D01*
X0008085Y0010979D01*
X0008040Y0011131D01*
X0007999Y0011284D01*
X0007961Y0011437D01*
X0007928Y0011592D01*
X0007898Y0011748D01*
X0007872Y0011904D01*
X0007851Y0012061D01*
X0007833Y0012218D01*
X0007819Y0012376D01*
X0007809Y0012534D01*
X0007803Y0012692D01*
X0007801Y0012850D01*
X0182801Y0012850D02*
X0182803Y0013008D01*
X0182809Y0013166D01*
X0182819Y0013324D01*
X0182833Y0013482D01*
X0182851Y0013639D01*
X0182872Y0013796D01*
X0182898Y0013952D01*
X0182928Y0014108D01*
X0182961Y0014263D01*
X0182999Y0014416D01*
X0183040Y0014569D01*
X0183085Y0014721D01*
X0183134Y0014872D01*
X0183187Y0015021D01*
X0183243Y0015169D01*
X0183303Y0015315D01*
X0183367Y0015460D01*
X0183435Y0015603D01*
X0183506Y0015745D01*
X0183580Y0015885D01*
X0183658Y0016022D01*
X0183740Y0016158D01*
X0183824Y0016292D01*
X0183913Y0016423D01*
X0184004Y0016552D01*
X0184099Y0016679D01*
X0184196Y0016804D01*
X0184297Y0016926D01*
X0184401Y0017045D01*
X0184508Y0017162D01*
X0184618Y0017276D01*
X0184731Y0017387D01*
X0184846Y0017496D01*
X0184964Y0017601D01*
X0185085Y0017703D01*
X0185208Y0017803D01*
X0185334Y0017899D01*
X0185462Y0017992D01*
X0185592Y0018082D01*
X0185725Y0018168D01*
X0185860Y0018252D01*
X0185996Y0018331D01*
X0186135Y0018408D01*
X0186276Y0018480D01*
X0186418Y0018550D01*
X0186562Y0018615D01*
X0186708Y0018677D01*
X0186855Y0018735D01*
X0187004Y0018790D01*
X0187154Y0018841D01*
X0187305Y0018888D01*
X0187457Y0018931D01*
X0187610Y0018970D01*
X0187765Y0019006D01*
X0187920Y0019037D01*
X0188076Y0019065D01*
X0188232Y0019089D01*
X0188389Y0019109D01*
X0188547Y0019125D01*
X0188704Y0019137D01*
X0188863Y0019145D01*
X0189021Y0019149D01*
X0189179Y0019149D01*
X0189337Y0019145D01*
X0189496Y0019137D01*
X0189653Y0019125D01*
X0189811Y0019109D01*
X0189968Y0019089D01*
X0190124Y0019065D01*
X0190280Y0019037D01*
X0190435Y0019006D01*
X0190590Y0018970D01*
X0190743Y0018931D01*
X0190895Y0018888D01*
X0191046Y0018841D01*
X0191196Y0018790D01*
X0191345Y0018735D01*
X0191492Y0018677D01*
X0191638Y0018615D01*
X0191782Y0018550D01*
X0191924Y0018480D01*
X0192065Y0018408D01*
X0192204Y0018331D01*
X0192340Y0018252D01*
X0192475Y0018168D01*
X0192608Y0018082D01*
X0192738Y0017992D01*
X0192866Y0017899D01*
X0192992Y0017803D01*
X0193115Y0017703D01*
X0193236Y0017601D01*
X0193354Y0017496D01*
X0193469Y0017387D01*
X0193582Y0017276D01*
X0193692Y0017162D01*
X0193799Y0017045D01*
X0193903Y0016926D01*
X0194004Y0016804D01*
X0194101Y0016679D01*
X0194196Y0016552D01*
X0194287Y0016423D01*
X0194376Y0016292D01*
X0194460Y0016158D01*
X0194542Y0016022D01*
X0194620Y0015885D01*
X0194694Y0015745D01*
X0194765Y0015603D01*
X0194833Y0015460D01*
X0194897Y0015315D01*
X0194957Y0015169D01*
X0195013Y0015021D01*
X0195066Y0014872D01*
X0195115Y0014721D01*
X0195160Y0014569D01*
X0195201Y0014416D01*
X0195239Y0014263D01*
X0195272Y0014108D01*
X0195302Y0013952D01*
X0195328Y0013796D01*
X0195349Y0013639D01*
X0195367Y0013482D01*
X0195381Y0013324D01*
X0195391Y0013166D01*
X0195397Y0013008D01*
X0195399Y0012850D01*
X0195397Y0012692D01*
X0195391Y0012534D01*
X0195381Y0012376D01*
X0195367Y0012218D01*
X0195349Y0012061D01*
X0195328Y0011904D01*
X0195302Y0011748D01*
X0195272Y0011592D01*
X0195239Y0011437D01*
X0195201Y0011284D01*
X0195160Y0011131D01*
X0195115Y0010979D01*
X0195066Y0010828D01*
X0195013Y0010679D01*
X0194957Y0010531D01*
X0194897Y0010385D01*
X0194833Y0010240D01*
X0194765Y0010097D01*
X0194694Y0009955D01*
X0194620Y0009815D01*
X0194542Y0009678D01*
X0194460Y0009542D01*
X0194376Y0009408D01*
X0194287Y0009277D01*
X0194196Y0009148D01*
X0194101Y0009021D01*
X0194004Y0008896D01*
X0193903Y0008774D01*
X0193799Y0008655D01*
X0193692Y0008538D01*
X0193582Y0008424D01*
X0193469Y0008313D01*
X0193354Y0008204D01*
X0193236Y0008099D01*
X0193115Y0007997D01*
X0192992Y0007897D01*
X0192866Y0007801D01*
X0192738Y0007708D01*
X0192608Y0007618D01*
X0192475Y0007532D01*
X0192340Y0007448D01*
X0192204Y0007369D01*
X0192065Y0007292D01*
X0191924Y0007220D01*
X0191782Y0007150D01*
X0191638Y0007085D01*
X0191492Y0007023D01*
X0191345Y0006965D01*
X0191196Y0006910D01*
X0191046Y0006859D01*
X0190895Y0006812D01*
X0190743Y0006769D01*
X0190590Y0006730D01*
X0190435Y0006694D01*
X0190280Y0006663D01*
X0190124Y0006635D01*
X0189968Y0006611D01*
X0189811Y0006591D01*
X0189653Y0006575D01*
X0189496Y0006563D01*
X0189337Y0006555D01*
X0189179Y0006551D01*
X0189021Y0006551D01*
X0188863Y0006555D01*
X0188704Y0006563D01*
X0188547Y0006575D01*
X0188389Y0006591D01*
X0188232Y0006611D01*
X0188076Y0006635D01*
X0187920Y0006663D01*
X0187765Y0006694D01*
X0187610Y0006730D01*
X0187457Y0006769D01*
X0187305Y0006812D01*
X0187154Y0006859D01*
X0187004Y0006910D01*
X0186855Y0006965D01*
X0186708Y0007023D01*
X0186562Y0007085D01*
X0186418Y0007150D01*
X0186276Y0007220D01*
X0186135Y0007292D01*
X0185996Y0007369D01*
X0185860Y0007448D01*
X0185725Y0007532D01*
X0185592Y0007618D01*
X0185462Y0007708D01*
X0185334Y0007801D01*
X0185208Y0007897D01*
X0185085Y0007997D01*
X0184964Y0008099D01*
X0184846Y0008204D01*
X0184731Y0008313D01*
X0184618Y0008424D01*
X0184508Y0008538D01*
X0184401Y0008655D01*
X0184297Y0008774D01*
X0184196Y0008896D01*
X0184099Y0009021D01*
X0184004Y0009148D01*
X0183913Y0009277D01*
X0183824Y0009408D01*
X0183740Y0009542D01*
X0183658Y0009678D01*
X0183580Y0009815D01*
X0183506Y0009955D01*
X0183435Y0010097D01*
X0183367Y0010240D01*
X0183303Y0010385D01*
X0183243Y0010531D01*
X0183187Y0010679D01*
X0183134Y0010828D01*
X0183085Y0010979D01*
X0183040Y0011131D01*
X0182999Y0011284D01*
X0182961Y0011437D01*
X0182928Y0011592D01*
X0182898Y0011748D01*
X0182872Y0011904D01*
X0182851Y0012061D01*
X0182833Y0012218D01*
X0182819Y0012376D01*
X0182809Y0012534D01*
X0182803Y0012692D01*
X0182801Y0012850D01*
X0207801Y0012850D02*
X0207803Y0013008D01*
X0207809Y0013166D01*
X0207819Y0013324D01*
X0207833Y0013482D01*
X0207851Y0013639D01*
X0207872Y0013796D01*
X0207898Y0013952D01*
X0207928Y0014108D01*
X0207961Y0014263D01*
X0207999Y0014416D01*
X0208040Y0014569D01*
X0208085Y0014721D01*
X0208134Y0014872D01*
X0208187Y0015021D01*
X0208243Y0015169D01*
X0208303Y0015315D01*
X0208367Y0015460D01*
X0208435Y0015603D01*
X0208506Y0015745D01*
X0208580Y0015885D01*
X0208658Y0016022D01*
X0208740Y0016158D01*
X0208824Y0016292D01*
X0208913Y0016423D01*
X0209004Y0016552D01*
X0209099Y0016679D01*
X0209196Y0016804D01*
X0209297Y0016926D01*
X0209401Y0017045D01*
X0209508Y0017162D01*
X0209618Y0017276D01*
X0209731Y0017387D01*
X0209846Y0017496D01*
X0209964Y0017601D01*
X0210085Y0017703D01*
X0210208Y0017803D01*
X0210334Y0017899D01*
X0210462Y0017992D01*
X0210592Y0018082D01*
X0210725Y0018168D01*
X0210860Y0018252D01*
X0210996Y0018331D01*
X0211135Y0018408D01*
X0211276Y0018480D01*
X0211418Y0018550D01*
X0211562Y0018615D01*
X0211708Y0018677D01*
X0211855Y0018735D01*
X0212004Y0018790D01*
X0212154Y0018841D01*
X0212305Y0018888D01*
X0212457Y0018931D01*
X0212610Y0018970D01*
X0212765Y0019006D01*
X0212920Y0019037D01*
X0213076Y0019065D01*
X0213232Y0019089D01*
X0213389Y0019109D01*
X0213547Y0019125D01*
X0213704Y0019137D01*
X0213863Y0019145D01*
X0214021Y0019149D01*
X0214179Y0019149D01*
X0214337Y0019145D01*
X0214496Y0019137D01*
X0214653Y0019125D01*
X0214811Y0019109D01*
X0214968Y0019089D01*
X0215124Y0019065D01*
X0215280Y0019037D01*
X0215435Y0019006D01*
X0215590Y0018970D01*
X0215743Y0018931D01*
X0215895Y0018888D01*
X0216046Y0018841D01*
X0216196Y0018790D01*
X0216345Y0018735D01*
X0216492Y0018677D01*
X0216638Y0018615D01*
X0216782Y0018550D01*
X0216924Y0018480D01*
X0217065Y0018408D01*
X0217204Y0018331D01*
X0217340Y0018252D01*
X0217475Y0018168D01*
X0217608Y0018082D01*
X0217738Y0017992D01*
X0217866Y0017899D01*
X0217992Y0017803D01*
X0218115Y0017703D01*
X0218236Y0017601D01*
X0218354Y0017496D01*
X0218469Y0017387D01*
X0218582Y0017276D01*
X0218692Y0017162D01*
X0218799Y0017045D01*
X0218903Y0016926D01*
X0219004Y0016804D01*
X0219101Y0016679D01*
X0219196Y0016552D01*
X0219287Y0016423D01*
X0219376Y0016292D01*
X0219460Y0016158D01*
X0219542Y0016022D01*
X0219620Y0015885D01*
X0219694Y0015745D01*
X0219765Y0015603D01*
X0219833Y0015460D01*
X0219897Y0015315D01*
X0219957Y0015169D01*
X0220013Y0015021D01*
X0220066Y0014872D01*
X0220115Y0014721D01*
X0220160Y0014569D01*
X0220201Y0014416D01*
X0220239Y0014263D01*
X0220272Y0014108D01*
X0220302Y0013952D01*
X0220328Y0013796D01*
X0220349Y0013639D01*
X0220367Y0013482D01*
X0220381Y0013324D01*
X0220391Y0013166D01*
X0220397Y0013008D01*
X0220399Y0012850D01*
X0220397Y0012692D01*
X0220391Y0012534D01*
X0220381Y0012376D01*
X0220367Y0012218D01*
X0220349Y0012061D01*
X0220328Y0011904D01*
X0220302Y0011748D01*
X0220272Y0011592D01*
X0220239Y0011437D01*
X0220201Y0011284D01*
X0220160Y0011131D01*
X0220115Y0010979D01*
X0220066Y0010828D01*
X0220013Y0010679D01*
X0219957Y0010531D01*
X0219897Y0010385D01*
X0219833Y0010240D01*
X0219765Y0010097D01*
X0219694Y0009955D01*
X0219620Y0009815D01*
X0219542Y0009678D01*
X0219460Y0009542D01*
X0219376Y0009408D01*
X0219287Y0009277D01*
X0219196Y0009148D01*
X0219101Y0009021D01*
X0219004Y0008896D01*
X0218903Y0008774D01*
X0218799Y0008655D01*
X0218692Y0008538D01*
X0218582Y0008424D01*
X0218469Y0008313D01*
X0218354Y0008204D01*
X0218236Y0008099D01*
X0218115Y0007997D01*
X0217992Y0007897D01*
X0217866Y0007801D01*
X0217738Y0007708D01*
X0217608Y0007618D01*
X0217475Y0007532D01*
X0217340Y0007448D01*
X0217204Y0007369D01*
X0217065Y0007292D01*
X0216924Y0007220D01*
X0216782Y0007150D01*
X0216638Y0007085D01*
X0216492Y0007023D01*
X0216345Y0006965D01*
X0216196Y0006910D01*
X0216046Y0006859D01*
X0215895Y0006812D01*
X0215743Y0006769D01*
X0215590Y0006730D01*
X0215435Y0006694D01*
X0215280Y0006663D01*
X0215124Y0006635D01*
X0214968Y0006611D01*
X0214811Y0006591D01*
X0214653Y0006575D01*
X0214496Y0006563D01*
X0214337Y0006555D01*
X0214179Y0006551D01*
X0214021Y0006551D01*
X0213863Y0006555D01*
X0213704Y0006563D01*
X0213547Y0006575D01*
X0213389Y0006591D01*
X0213232Y0006611D01*
X0213076Y0006635D01*
X0212920Y0006663D01*
X0212765Y0006694D01*
X0212610Y0006730D01*
X0212457Y0006769D01*
X0212305Y0006812D01*
X0212154Y0006859D01*
X0212004Y0006910D01*
X0211855Y0006965D01*
X0211708Y0007023D01*
X0211562Y0007085D01*
X0211418Y0007150D01*
X0211276Y0007220D01*
X0211135Y0007292D01*
X0210996Y0007369D01*
X0210860Y0007448D01*
X0210725Y0007532D01*
X0210592Y0007618D01*
X0210462Y0007708D01*
X0210334Y0007801D01*
X0210208Y0007897D01*
X0210085Y0007997D01*
X0209964Y0008099D01*
X0209846Y0008204D01*
X0209731Y0008313D01*
X0209618Y0008424D01*
X0209508Y0008538D01*
X0209401Y0008655D01*
X0209297Y0008774D01*
X0209196Y0008896D01*
X0209099Y0009021D01*
X0209004Y0009148D01*
X0208913Y0009277D01*
X0208824Y0009408D01*
X0208740Y0009542D01*
X0208658Y0009678D01*
X0208580Y0009815D01*
X0208506Y0009955D01*
X0208435Y0010097D01*
X0208367Y0010240D01*
X0208303Y0010385D01*
X0208243Y0010531D01*
X0208187Y0010679D01*
X0208134Y0010828D01*
X0208085Y0010979D01*
X0208040Y0011131D01*
X0207999Y0011284D01*
X0207961Y0011437D01*
X0207928Y0011592D01*
X0207898Y0011748D01*
X0207872Y0011904D01*
X0207851Y0012061D01*
X0207833Y0012218D01*
X0207819Y0012376D01*
X0207809Y0012534D01*
X0207803Y0012692D01*
X0207801Y0012850D01*
X0382801Y0012850D02*
X0382803Y0013008D01*
X0382809Y0013166D01*
X0382819Y0013324D01*
X0382833Y0013482D01*
X0382851Y0013639D01*
X0382872Y0013796D01*
X0382898Y0013952D01*
X0382928Y0014108D01*
X0382961Y0014263D01*
X0382999Y0014416D01*
X0383040Y0014569D01*
X0383085Y0014721D01*
X0383134Y0014872D01*
X0383187Y0015021D01*
X0383243Y0015169D01*
X0383303Y0015315D01*
X0383367Y0015460D01*
X0383435Y0015603D01*
X0383506Y0015745D01*
X0383580Y0015885D01*
X0383658Y0016022D01*
X0383740Y0016158D01*
X0383824Y0016292D01*
X0383913Y0016423D01*
X0384004Y0016552D01*
X0384099Y0016679D01*
X0384196Y0016804D01*
X0384297Y0016926D01*
X0384401Y0017045D01*
X0384508Y0017162D01*
X0384618Y0017276D01*
X0384731Y0017387D01*
X0384846Y0017496D01*
X0384964Y0017601D01*
X0385085Y0017703D01*
X0385208Y0017803D01*
X0385334Y0017899D01*
X0385462Y0017992D01*
X0385592Y0018082D01*
X0385725Y0018168D01*
X0385860Y0018252D01*
X0385996Y0018331D01*
X0386135Y0018408D01*
X0386276Y0018480D01*
X0386418Y0018550D01*
X0386562Y0018615D01*
X0386708Y0018677D01*
X0386855Y0018735D01*
X0387004Y0018790D01*
X0387154Y0018841D01*
X0387305Y0018888D01*
X0387457Y0018931D01*
X0387610Y0018970D01*
X0387765Y0019006D01*
X0387920Y0019037D01*
X0388076Y0019065D01*
X0388232Y0019089D01*
X0388389Y0019109D01*
X0388547Y0019125D01*
X0388704Y0019137D01*
X0388863Y0019145D01*
X0389021Y0019149D01*
X0389179Y0019149D01*
X0389337Y0019145D01*
X0389496Y0019137D01*
X0389653Y0019125D01*
X0389811Y0019109D01*
X0389968Y0019089D01*
X0390124Y0019065D01*
X0390280Y0019037D01*
X0390435Y0019006D01*
X0390590Y0018970D01*
X0390743Y0018931D01*
X0390895Y0018888D01*
X0391046Y0018841D01*
X0391196Y0018790D01*
X0391345Y0018735D01*
X0391492Y0018677D01*
X0391638Y0018615D01*
X0391782Y0018550D01*
X0391924Y0018480D01*
X0392065Y0018408D01*
X0392204Y0018331D01*
X0392340Y0018252D01*
X0392475Y0018168D01*
X0392608Y0018082D01*
X0392738Y0017992D01*
X0392866Y0017899D01*
X0392992Y0017803D01*
X0393115Y0017703D01*
X0393236Y0017601D01*
X0393354Y0017496D01*
X0393469Y0017387D01*
X0393582Y0017276D01*
X0393692Y0017162D01*
X0393799Y0017045D01*
X0393903Y0016926D01*
X0394004Y0016804D01*
X0394101Y0016679D01*
X0394196Y0016552D01*
X0394287Y0016423D01*
X0394376Y0016292D01*
X0394460Y0016158D01*
X0394542Y0016022D01*
X0394620Y0015885D01*
X0394694Y0015745D01*
X0394765Y0015603D01*
X0394833Y0015460D01*
X0394897Y0015315D01*
X0394957Y0015169D01*
X0395013Y0015021D01*
X0395066Y0014872D01*
X0395115Y0014721D01*
X0395160Y0014569D01*
X0395201Y0014416D01*
X0395239Y0014263D01*
X0395272Y0014108D01*
X0395302Y0013952D01*
X0395328Y0013796D01*
X0395349Y0013639D01*
X0395367Y0013482D01*
X0395381Y0013324D01*
X0395391Y0013166D01*
X0395397Y0013008D01*
X0395399Y0012850D01*
X0395397Y0012692D01*
X0395391Y0012534D01*
X0395381Y0012376D01*
X0395367Y0012218D01*
X0395349Y0012061D01*
X0395328Y0011904D01*
X0395302Y0011748D01*
X0395272Y0011592D01*
X0395239Y0011437D01*
X0395201Y0011284D01*
X0395160Y0011131D01*
X0395115Y0010979D01*
X0395066Y0010828D01*
X0395013Y0010679D01*
X0394957Y0010531D01*
X0394897Y0010385D01*
X0394833Y0010240D01*
X0394765Y0010097D01*
X0394694Y0009955D01*
X0394620Y0009815D01*
X0394542Y0009678D01*
X0394460Y0009542D01*
X0394376Y0009408D01*
X0394287Y0009277D01*
X0394196Y0009148D01*
X0394101Y0009021D01*
X0394004Y0008896D01*
X0393903Y0008774D01*
X0393799Y0008655D01*
X0393692Y0008538D01*
X0393582Y0008424D01*
X0393469Y0008313D01*
X0393354Y0008204D01*
X0393236Y0008099D01*
X0393115Y0007997D01*
X0392992Y0007897D01*
X0392866Y0007801D01*
X0392738Y0007708D01*
X0392608Y0007618D01*
X0392475Y0007532D01*
X0392340Y0007448D01*
X0392204Y0007369D01*
X0392065Y0007292D01*
X0391924Y0007220D01*
X0391782Y0007150D01*
X0391638Y0007085D01*
X0391492Y0007023D01*
X0391345Y0006965D01*
X0391196Y0006910D01*
X0391046Y0006859D01*
X0390895Y0006812D01*
X0390743Y0006769D01*
X0390590Y0006730D01*
X0390435Y0006694D01*
X0390280Y0006663D01*
X0390124Y0006635D01*
X0389968Y0006611D01*
X0389811Y0006591D01*
X0389653Y0006575D01*
X0389496Y0006563D01*
X0389337Y0006555D01*
X0389179Y0006551D01*
X0389021Y0006551D01*
X0388863Y0006555D01*
X0388704Y0006563D01*
X0388547Y0006575D01*
X0388389Y0006591D01*
X0388232Y0006611D01*
X0388076Y0006635D01*
X0387920Y0006663D01*
X0387765Y0006694D01*
X0387610Y0006730D01*
X0387457Y0006769D01*
X0387305Y0006812D01*
X0387154Y0006859D01*
X0387004Y0006910D01*
X0386855Y0006965D01*
X0386708Y0007023D01*
X0386562Y0007085D01*
X0386418Y0007150D01*
X0386276Y0007220D01*
X0386135Y0007292D01*
X0385996Y0007369D01*
X0385860Y0007448D01*
X0385725Y0007532D01*
X0385592Y0007618D01*
X0385462Y0007708D01*
X0385334Y0007801D01*
X0385208Y0007897D01*
X0385085Y0007997D01*
X0384964Y0008099D01*
X0384846Y0008204D01*
X0384731Y0008313D01*
X0384618Y0008424D01*
X0384508Y0008538D01*
X0384401Y0008655D01*
X0384297Y0008774D01*
X0384196Y0008896D01*
X0384099Y0009021D01*
X0384004Y0009148D01*
X0383913Y0009277D01*
X0383824Y0009408D01*
X0383740Y0009542D01*
X0383658Y0009678D01*
X0383580Y0009815D01*
X0383506Y0009955D01*
X0383435Y0010097D01*
X0383367Y0010240D01*
X0383303Y0010385D01*
X0383243Y0010531D01*
X0383187Y0010679D01*
X0383134Y0010828D01*
X0383085Y0010979D01*
X0383040Y0011131D01*
X0382999Y0011284D01*
X0382961Y0011437D01*
X0382928Y0011592D01*
X0382898Y0011748D01*
X0382872Y0011904D01*
X0382851Y0012061D01*
X0382833Y0012218D01*
X0382819Y0012376D01*
X0382809Y0012534D01*
X0382803Y0012692D01*
X0382801Y0012850D01*
X0323450Y0281600D02*
X0323452Y0281712D01*
X0323458Y0281823D01*
X0323468Y0281935D01*
X0323482Y0282046D01*
X0323499Y0282156D01*
X0323521Y0282266D01*
X0323547Y0282375D01*
X0323576Y0282483D01*
X0323609Y0282589D01*
X0323646Y0282695D01*
X0323687Y0282799D01*
X0323732Y0282902D01*
X0323780Y0283003D01*
X0323831Y0283102D01*
X0323886Y0283199D01*
X0323945Y0283294D01*
X0324006Y0283388D01*
X0324071Y0283479D01*
X0324140Y0283567D01*
X0324211Y0283653D01*
X0324285Y0283737D01*
X0324363Y0283817D01*
X0324443Y0283895D01*
X0324526Y0283971D01*
X0324611Y0284043D01*
X0324699Y0284112D01*
X0324789Y0284178D01*
X0324882Y0284240D01*
X0324977Y0284300D01*
X0325074Y0284356D01*
X0325172Y0284408D01*
X0325273Y0284457D01*
X0325375Y0284502D01*
X0325479Y0284544D01*
X0325584Y0284582D01*
X0325691Y0284616D01*
X0325798Y0284646D01*
X0325907Y0284673D01*
X0326016Y0284695D01*
X0326127Y0284714D01*
X0326237Y0284729D01*
X0326349Y0284740D01*
X0326460Y0284747D01*
X0326572Y0284750D01*
X0326684Y0284749D01*
X0326796Y0284744D01*
X0326907Y0284735D01*
X0327018Y0284722D01*
X0327129Y0284705D01*
X0327239Y0284685D01*
X0327348Y0284660D01*
X0327456Y0284632D01*
X0327563Y0284599D01*
X0327669Y0284563D01*
X0327773Y0284523D01*
X0327876Y0284480D01*
X0327978Y0284433D01*
X0328077Y0284382D01*
X0328175Y0284328D01*
X0328271Y0284270D01*
X0328365Y0284209D01*
X0328456Y0284145D01*
X0328545Y0284078D01*
X0328632Y0284007D01*
X0328716Y0283933D01*
X0328798Y0283857D01*
X0328876Y0283777D01*
X0328952Y0283695D01*
X0329025Y0283610D01*
X0329095Y0283523D01*
X0329161Y0283433D01*
X0329225Y0283341D01*
X0329285Y0283247D01*
X0329342Y0283151D01*
X0329395Y0283052D01*
X0329445Y0282952D01*
X0329491Y0282851D01*
X0329534Y0282747D01*
X0329573Y0282642D01*
X0329608Y0282536D01*
X0329639Y0282429D01*
X0329667Y0282320D01*
X0329690Y0282211D01*
X0329710Y0282101D01*
X0329726Y0281990D01*
X0329738Y0281879D01*
X0329746Y0281768D01*
X0329750Y0281656D01*
X0329750Y0281544D01*
X0329746Y0281432D01*
X0329738Y0281321D01*
X0329726Y0281210D01*
X0329710Y0281099D01*
X0329690Y0280989D01*
X0329667Y0280880D01*
X0329639Y0280771D01*
X0329608Y0280664D01*
X0329573Y0280558D01*
X0329534Y0280453D01*
X0329491Y0280349D01*
X0329445Y0280248D01*
X0329395Y0280148D01*
X0329342Y0280049D01*
X0329285Y0279953D01*
X0329225Y0279859D01*
X0329161Y0279767D01*
X0329095Y0279677D01*
X0329025Y0279590D01*
X0328952Y0279505D01*
X0328876Y0279423D01*
X0328798Y0279343D01*
X0328716Y0279267D01*
X0328632Y0279193D01*
X0328545Y0279122D01*
X0328456Y0279055D01*
X0328365Y0278991D01*
X0328271Y0278930D01*
X0328175Y0278872D01*
X0328077Y0278818D01*
X0327978Y0278767D01*
X0327876Y0278720D01*
X0327773Y0278677D01*
X0327669Y0278637D01*
X0327563Y0278601D01*
X0327456Y0278568D01*
X0327348Y0278540D01*
X0327239Y0278515D01*
X0327129Y0278495D01*
X0327018Y0278478D01*
X0326907Y0278465D01*
X0326796Y0278456D01*
X0326684Y0278451D01*
X0326572Y0278450D01*
X0326460Y0278453D01*
X0326349Y0278460D01*
X0326237Y0278471D01*
X0326127Y0278486D01*
X0326016Y0278505D01*
X0325907Y0278527D01*
X0325798Y0278554D01*
X0325691Y0278584D01*
X0325584Y0278618D01*
X0325479Y0278656D01*
X0325375Y0278698D01*
X0325273Y0278743D01*
X0325172Y0278792D01*
X0325074Y0278844D01*
X0324977Y0278900D01*
X0324882Y0278960D01*
X0324789Y0279022D01*
X0324699Y0279088D01*
X0324611Y0279157D01*
X0324526Y0279229D01*
X0324443Y0279305D01*
X0324363Y0279383D01*
X0324285Y0279463D01*
X0324211Y0279547D01*
X0324140Y0279633D01*
X0324071Y0279721D01*
X0324006Y0279812D01*
X0323945Y0279906D01*
X0323886Y0280001D01*
X0323831Y0280098D01*
X0323780Y0280197D01*
X0323732Y0280298D01*
X0323687Y0280401D01*
X0323646Y0280505D01*
X0323609Y0280611D01*
X0323576Y0280717D01*
X0323547Y0280825D01*
X0323521Y0280934D01*
X0323499Y0281044D01*
X0323482Y0281154D01*
X0323468Y0281265D01*
X0323458Y0281377D01*
X0323452Y0281488D01*
X0323450Y0281600D01*
X0293450Y0301600D02*
X0293452Y0301712D01*
X0293458Y0301823D01*
X0293468Y0301935D01*
X0293482Y0302046D01*
X0293499Y0302156D01*
X0293521Y0302266D01*
X0293547Y0302375D01*
X0293576Y0302483D01*
X0293609Y0302589D01*
X0293646Y0302695D01*
X0293687Y0302799D01*
X0293732Y0302902D01*
X0293780Y0303003D01*
X0293831Y0303102D01*
X0293886Y0303199D01*
X0293945Y0303294D01*
X0294006Y0303388D01*
X0294071Y0303479D01*
X0294140Y0303567D01*
X0294211Y0303653D01*
X0294285Y0303737D01*
X0294363Y0303817D01*
X0294443Y0303895D01*
X0294526Y0303971D01*
X0294611Y0304043D01*
X0294699Y0304112D01*
X0294789Y0304178D01*
X0294882Y0304240D01*
X0294977Y0304300D01*
X0295074Y0304356D01*
X0295172Y0304408D01*
X0295273Y0304457D01*
X0295375Y0304502D01*
X0295479Y0304544D01*
X0295584Y0304582D01*
X0295691Y0304616D01*
X0295798Y0304646D01*
X0295907Y0304673D01*
X0296016Y0304695D01*
X0296127Y0304714D01*
X0296237Y0304729D01*
X0296349Y0304740D01*
X0296460Y0304747D01*
X0296572Y0304750D01*
X0296684Y0304749D01*
X0296796Y0304744D01*
X0296907Y0304735D01*
X0297018Y0304722D01*
X0297129Y0304705D01*
X0297239Y0304685D01*
X0297348Y0304660D01*
X0297456Y0304632D01*
X0297563Y0304599D01*
X0297669Y0304563D01*
X0297773Y0304523D01*
X0297876Y0304480D01*
X0297978Y0304433D01*
X0298077Y0304382D01*
X0298175Y0304328D01*
X0298271Y0304270D01*
X0298365Y0304209D01*
X0298456Y0304145D01*
X0298545Y0304078D01*
X0298632Y0304007D01*
X0298716Y0303933D01*
X0298798Y0303857D01*
X0298876Y0303777D01*
X0298952Y0303695D01*
X0299025Y0303610D01*
X0299095Y0303523D01*
X0299161Y0303433D01*
X0299225Y0303341D01*
X0299285Y0303247D01*
X0299342Y0303151D01*
X0299395Y0303052D01*
X0299445Y0302952D01*
X0299491Y0302851D01*
X0299534Y0302747D01*
X0299573Y0302642D01*
X0299608Y0302536D01*
X0299639Y0302429D01*
X0299667Y0302320D01*
X0299690Y0302211D01*
X0299710Y0302101D01*
X0299726Y0301990D01*
X0299738Y0301879D01*
X0299746Y0301768D01*
X0299750Y0301656D01*
X0299750Y0301544D01*
X0299746Y0301432D01*
X0299738Y0301321D01*
X0299726Y0301210D01*
X0299710Y0301099D01*
X0299690Y0300989D01*
X0299667Y0300880D01*
X0299639Y0300771D01*
X0299608Y0300664D01*
X0299573Y0300558D01*
X0299534Y0300453D01*
X0299491Y0300349D01*
X0299445Y0300248D01*
X0299395Y0300148D01*
X0299342Y0300049D01*
X0299285Y0299953D01*
X0299225Y0299859D01*
X0299161Y0299767D01*
X0299095Y0299677D01*
X0299025Y0299590D01*
X0298952Y0299505D01*
X0298876Y0299423D01*
X0298798Y0299343D01*
X0298716Y0299267D01*
X0298632Y0299193D01*
X0298545Y0299122D01*
X0298456Y0299055D01*
X0298365Y0298991D01*
X0298271Y0298930D01*
X0298175Y0298872D01*
X0298077Y0298818D01*
X0297978Y0298767D01*
X0297876Y0298720D01*
X0297773Y0298677D01*
X0297669Y0298637D01*
X0297563Y0298601D01*
X0297456Y0298568D01*
X0297348Y0298540D01*
X0297239Y0298515D01*
X0297129Y0298495D01*
X0297018Y0298478D01*
X0296907Y0298465D01*
X0296796Y0298456D01*
X0296684Y0298451D01*
X0296572Y0298450D01*
X0296460Y0298453D01*
X0296349Y0298460D01*
X0296237Y0298471D01*
X0296127Y0298486D01*
X0296016Y0298505D01*
X0295907Y0298527D01*
X0295798Y0298554D01*
X0295691Y0298584D01*
X0295584Y0298618D01*
X0295479Y0298656D01*
X0295375Y0298698D01*
X0295273Y0298743D01*
X0295172Y0298792D01*
X0295074Y0298844D01*
X0294977Y0298900D01*
X0294882Y0298960D01*
X0294789Y0299022D01*
X0294699Y0299088D01*
X0294611Y0299157D01*
X0294526Y0299229D01*
X0294443Y0299305D01*
X0294363Y0299383D01*
X0294285Y0299463D01*
X0294211Y0299547D01*
X0294140Y0299633D01*
X0294071Y0299721D01*
X0294006Y0299812D01*
X0293945Y0299906D01*
X0293886Y0300001D01*
X0293831Y0300098D01*
X0293780Y0300197D01*
X0293732Y0300298D01*
X0293687Y0300401D01*
X0293646Y0300505D01*
X0293609Y0300611D01*
X0293576Y0300717D01*
X0293547Y0300825D01*
X0293521Y0300934D01*
X0293499Y0301044D01*
X0293482Y0301154D01*
X0293468Y0301265D01*
X0293458Y0301377D01*
X0293452Y0301488D01*
X0293450Y0301600D01*
X0207801Y0307850D02*
X0207803Y0308008D01*
X0207809Y0308166D01*
X0207819Y0308324D01*
X0207833Y0308482D01*
X0207851Y0308639D01*
X0207872Y0308796D01*
X0207898Y0308952D01*
X0207928Y0309108D01*
X0207961Y0309263D01*
X0207999Y0309416D01*
X0208040Y0309569D01*
X0208085Y0309721D01*
X0208134Y0309872D01*
X0208187Y0310021D01*
X0208243Y0310169D01*
X0208303Y0310315D01*
X0208367Y0310460D01*
X0208435Y0310603D01*
X0208506Y0310745D01*
X0208580Y0310885D01*
X0208658Y0311022D01*
X0208740Y0311158D01*
X0208824Y0311292D01*
X0208913Y0311423D01*
X0209004Y0311552D01*
X0209099Y0311679D01*
X0209196Y0311804D01*
X0209297Y0311926D01*
X0209401Y0312045D01*
X0209508Y0312162D01*
X0209618Y0312276D01*
X0209731Y0312387D01*
X0209846Y0312496D01*
X0209964Y0312601D01*
X0210085Y0312703D01*
X0210208Y0312803D01*
X0210334Y0312899D01*
X0210462Y0312992D01*
X0210592Y0313082D01*
X0210725Y0313168D01*
X0210860Y0313252D01*
X0210996Y0313331D01*
X0211135Y0313408D01*
X0211276Y0313480D01*
X0211418Y0313550D01*
X0211562Y0313615D01*
X0211708Y0313677D01*
X0211855Y0313735D01*
X0212004Y0313790D01*
X0212154Y0313841D01*
X0212305Y0313888D01*
X0212457Y0313931D01*
X0212610Y0313970D01*
X0212765Y0314006D01*
X0212920Y0314037D01*
X0213076Y0314065D01*
X0213232Y0314089D01*
X0213389Y0314109D01*
X0213547Y0314125D01*
X0213704Y0314137D01*
X0213863Y0314145D01*
X0214021Y0314149D01*
X0214179Y0314149D01*
X0214337Y0314145D01*
X0214496Y0314137D01*
X0214653Y0314125D01*
X0214811Y0314109D01*
X0214968Y0314089D01*
X0215124Y0314065D01*
X0215280Y0314037D01*
X0215435Y0314006D01*
X0215590Y0313970D01*
X0215743Y0313931D01*
X0215895Y0313888D01*
X0216046Y0313841D01*
X0216196Y0313790D01*
X0216345Y0313735D01*
X0216492Y0313677D01*
X0216638Y0313615D01*
X0216782Y0313550D01*
X0216924Y0313480D01*
X0217065Y0313408D01*
X0217204Y0313331D01*
X0217340Y0313252D01*
X0217475Y0313168D01*
X0217608Y0313082D01*
X0217738Y0312992D01*
X0217866Y0312899D01*
X0217992Y0312803D01*
X0218115Y0312703D01*
X0218236Y0312601D01*
X0218354Y0312496D01*
X0218469Y0312387D01*
X0218582Y0312276D01*
X0218692Y0312162D01*
X0218799Y0312045D01*
X0218903Y0311926D01*
X0219004Y0311804D01*
X0219101Y0311679D01*
X0219196Y0311552D01*
X0219287Y0311423D01*
X0219376Y0311292D01*
X0219460Y0311158D01*
X0219542Y0311022D01*
X0219620Y0310885D01*
X0219694Y0310745D01*
X0219765Y0310603D01*
X0219833Y0310460D01*
X0219897Y0310315D01*
X0219957Y0310169D01*
X0220013Y0310021D01*
X0220066Y0309872D01*
X0220115Y0309721D01*
X0220160Y0309569D01*
X0220201Y0309416D01*
X0220239Y0309263D01*
X0220272Y0309108D01*
X0220302Y0308952D01*
X0220328Y0308796D01*
X0220349Y0308639D01*
X0220367Y0308482D01*
X0220381Y0308324D01*
X0220391Y0308166D01*
X0220397Y0308008D01*
X0220399Y0307850D01*
X0220397Y0307692D01*
X0220391Y0307534D01*
X0220381Y0307376D01*
X0220367Y0307218D01*
X0220349Y0307061D01*
X0220328Y0306904D01*
X0220302Y0306748D01*
X0220272Y0306592D01*
X0220239Y0306437D01*
X0220201Y0306284D01*
X0220160Y0306131D01*
X0220115Y0305979D01*
X0220066Y0305828D01*
X0220013Y0305679D01*
X0219957Y0305531D01*
X0219897Y0305385D01*
X0219833Y0305240D01*
X0219765Y0305097D01*
X0219694Y0304955D01*
X0219620Y0304815D01*
X0219542Y0304678D01*
X0219460Y0304542D01*
X0219376Y0304408D01*
X0219287Y0304277D01*
X0219196Y0304148D01*
X0219101Y0304021D01*
X0219004Y0303896D01*
X0218903Y0303774D01*
X0218799Y0303655D01*
X0218692Y0303538D01*
X0218582Y0303424D01*
X0218469Y0303313D01*
X0218354Y0303204D01*
X0218236Y0303099D01*
X0218115Y0302997D01*
X0217992Y0302897D01*
X0217866Y0302801D01*
X0217738Y0302708D01*
X0217608Y0302618D01*
X0217475Y0302532D01*
X0217340Y0302448D01*
X0217204Y0302369D01*
X0217065Y0302292D01*
X0216924Y0302220D01*
X0216782Y0302150D01*
X0216638Y0302085D01*
X0216492Y0302023D01*
X0216345Y0301965D01*
X0216196Y0301910D01*
X0216046Y0301859D01*
X0215895Y0301812D01*
X0215743Y0301769D01*
X0215590Y0301730D01*
X0215435Y0301694D01*
X0215280Y0301663D01*
X0215124Y0301635D01*
X0214968Y0301611D01*
X0214811Y0301591D01*
X0214653Y0301575D01*
X0214496Y0301563D01*
X0214337Y0301555D01*
X0214179Y0301551D01*
X0214021Y0301551D01*
X0213863Y0301555D01*
X0213704Y0301563D01*
X0213547Y0301575D01*
X0213389Y0301591D01*
X0213232Y0301611D01*
X0213076Y0301635D01*
X0212920Y0301663D01*
X0212765Y0301694D01*
X0212610Y0301730D01*
X0212457Y0301769D01*
X0212305Y0301812D01*
X0212154Y0301859D01*
X0212004Y0301910D01*
X0211855Y0301965D01*
X0211708Y0302023D01*
X0211562Y0302085D01*
X0211418Y0302150D01*
X0211276Y0302220D01*
X0211135Y0302292D01*
X0210996Y0302369D01*
X0210860Y0302448D01*
X0210725Y0302532D01*
X0210592Y0302618D01*
X0210462Y0302708D01*
X0210334Y0302801D01*
X0210208Y0302897D01*
X0210085Y0302997D01*
X0209964Y0303099D01*
X0209846Y0303204D01*
X0209731Y0303313D01*
X0209618Y0303424D01*
X0209508Y0303538D01*
X0209401Y0303655D01*
X0209297Y0303774D01*
X0209196Y0303896D01*
X0209099Y0304021D01*
X0209004Y0304148D01*
X0208913Y0304277D01*
X0208824Y0304408D01*
X0208740Y0304542D01*
X0208658Y0304678D01*
X0208580Y0304815D01*
X0208506Y0304955D01*
X0208435Y0305097D01*
X0208367Y0305240D01*
X0208303Y0305385D01*
X0208243Y0305531D01*
X0208187Y0305679D01*
X0208134Y0305828D01*
X0208085Y0305979D01*
X0208040Y0306131D01*
X0207999Y0306284D01*
X0207961Y0306437D01*
X0207928Y0306592D01*
X0207898Y0306748D01*
X0207872Y0306904D01*
X0207851Y0307061D01*
X0207833Y0307218D01*
X0207819Y0307376D01*
X0207809Y0307534D01*
X0207803Y0307692D01*
X0207801Y0307850D01*
X0182801Y0307850D02*
X0182803Y0308008D01*
X0182809Y0308166D01*
X0182819Y0308324D01*
X0182833Y0308482D01*
X0182851Y0308639D01*
X0182872Y0308796D01*
X0182898Y0308952D01*
X0182928Y0309108D01*
X0182961Y0309263D01*
X0182999Y0309416D01*
X0183040Y0309569D01*
X0183085Y0309721D01*
X0183134Y0309872D01*
X0183187Y0310021D01*
X0183243Y0310169D01*
X0183303Y0310315D01*
X0183367Y0310460D01*
X0183435Y0310603D01*
X0183506Y0310745D01*
X0183580Y0310885D01*
X0183658Y0311022D01*
X0183740Y0311158D01*
X0183824Y0311292D01*
X0183913Y0311423D01*
X0184004Y0311552D01*
X0184099Y0311679D01*
X0184196Y0311804D01*
X0184297Y0311926D01*
X0184401Y0312045D01*
X0184508Y0312162D01*
X0184618Y0312276D01*
X0184731Y0312387D01*
X0184846Y0312496D01*
X0184964Y0312601D01*
X0185085Y0312703D01*
X0185208Y0312803D01*
X0185334Y0312899D01*
X0185462Y0312992D01*
X0185592Y0313082D01*
X0185725Y0313168D01*
X0185860Y0313252D01*
X0185996Y0313331D01*
X0186135Y0313408D01*
X0186276Y0313480D01*
X0186418Y0313550D01*
X0186562Y0313615D01*
X0186708Y0313677D01*
X0186855Y0313735D01*
X0187004Y0313790D01*
X0187154Y0313841D01*
X0187305Y0313888D01*
X0187457Y0313931D01*
X0187610Y0313970D01*
X0187765Y0314006D01*
X0187920Y0314037D01*
X0188076Y0314065D01*
X0188232Y0314089D01*
X0188389Y0314109D01*
X0188547Y0314125D01*
X0188704Y0314137D01*
X0188863Y0314145D01*
X0189021Y0314149D01*
X0189179Y0314149D01*
X0189337Y0314145D01*
X0189496Y0314137D01*
X0189653Y0314125D01*
X0189811Y0314109D01*
X0189968Y0314089D01*
X0190124Y0314065D01*
X0190280Y0314037D01*
X0190435Y0314006D01*
X0190590Y0313970D01*
X0190743Y0313931D01*
X0190895Y0313888D01*
X0191046Y0313841D01*
X0191196Y0313790D01*
X0191345Y0313735D01*
X0191492Y0313677D01*
X0191638Y0313615D01*
X0191782Y0313550D01*
X0191924Y0313480D01*
X0192065Y0313408D01*
X0192204Y0313331D01*
X0192340Y0313252D01*
X0192475Y0313168D01*
X0192608Y0313082D01*
X0192738Y0312992D01*
X0192866Y0312899D01*
X0192992Y0312803D01*
X0193115Y0312703D01*
X0193236Y0312601D01*
X0193354Y0312496D01*
X0193469Y0312387D01*
X0193582Y0312276D01*
X0193692Y0312162D01*
X0193799Y0312045D01*
X0193903Y0311926D01*
X0194004Y0311804D01*
X0194101Y0311679D01*
X0194196Y0311552D01*
X0194287Y0311423D01*
X0194376Y0311292D01*
X0194460Y0311158D01*
X0194542Y0311022D01*
X0194620Y0310885D01*
X0194694Y0310745D01*
X0194765Y0310603D01*
X0194833Y0310460D01*
X0194897Y0310315D01*
X0194957Y0310169D01*
X0195013Y0310021D01*
X0195066Y0309872D01*
X0195115Y0309721D01*
X0195160Y0309569D01*
X0195201Y0309416D01*
X0195239Y0309263D01*
X0195272Y0309108D01*
X0195302Y0308952D01*
X0195328Y0308796D01*
X0195349Y0308639D01*
X0195367Y0308482D01*
X0195381Y0308324D01*
X0195391Y0308166D01*
X0195397Y0308008D01*
X0195399Y0307850D01*
X0195397Y0307692D01*
X0195391Y0307534D01*
X0195381Y0307376D01*
X0195367Y0307218D01*
X0195349Y0307061D01*
X0195328Y0306904D01*
X0195302Y0306748D01*
X0195272Y0306592D01*
X0195239Y0306437D01*
X0195201Y0306284D01*
X0195160Y0306131D01*
X0195115Y0305979D01*
X0195066Y0305828D01*
X0195013Y0305679D01*
X0194957Y0305531D01*
X0194897Y0305385D01*
X0194833Y0305240D01*
X0194765Y0305097D01*
X0194694Y0304955D01*
X0194620Y0304815D01*
X0194542Y0304678D01*
X0194460Y0304542D01*
X0194376Y0304408D01*
X0194287Y0304277D01*
X0194196Y0304148D01*
X0194101Y0304021D01*
X0194004Y0303896D01*
X0193903Y0303774D01*
X0193799Y0303655D01*
X0193692Y0303538D01*
X0193582Y0303424D01*
X0193469Y0303313D01*
X0193354Y0303204D01*
X0193236Y0303099D01*
X0193115Y0302997D01*
X0192992Y0302897D01*
X0192866Y0302801D01*
X0192738Y0302708D01*
X0192608Y0302618D01*
X0192475Y0302532D01*
X0192340Y0302448D01*
X0192204Y0302369D01*
X0192065Y0302292D01*
X0191924Y0302220D01*
X0191782Y0302150D01*
X0191638Y0302085D01*
X0191492Y0302023D01*
X0191345Y0301965D01*
X0191196Y0301910D01*
X0191046Y0301859D01*
X0190895Y0301812D01*
X0190743Y0301769D01*
X0190590Y0301730D01*
X0190435Y0301694D01*
X0190280Y0301663D01*
X0190124Y0301635D01*
X0189968Y0301611D01*
X0189811Y0301591D01*
X0189653Y0301575D01*
X0189496Y0301563D01*
X0189337Y0301555D01*
X0189179Y0301551D01*
X0189021Y0301551D01*
X0188863Y0301555D01*
X0188704Y0301563D01*
X0188547Y0301575D01*
X0188389Y0301591D01*
X0188232Y0301611D01*
X0188076Y0301635D01*
X0187920Y0301663D01*
X0187765Y0301694D01*
X0187610Y0301730D01*
X0187457Y0301769D01*
X0187305Y0301812D01*
X0187154Y0301859D01*
X0187004Y0301910D01*
X0186855Y0301965D01*
X0186708Y0302023D01*
X0186562Y0302085D01*
X0186418Y0302150D01*
X0186276Y0302220D01*
X0186135Y0302292D01*
X0185996Y0302369D01*
X0185860Y0302448D01*
X0185725Y0302532D01*
X0185592Y0302618D01*
X0185462Y0302708D01*
X0185334Y0302801D01*
X0185208Y0302897D01*
X0185085Y0302997D01*
X0184964Y0303099D01*
X0184846Y0303204D01*
X0184731Y0303313D01*
X0184618Y0303424D01*
X0184508Y0303538D01*
X0184401Y0303655D01*
X0184297Y0303774D01*
X0184196Y0303896D01*
X0184099Y0304021D01*
X0184004Y0304148D01*
X0183913Y0304277D01*
X0183824Y0304408D01*
X0183740Y0304542D01*
X0183658Y0304678D01*
X0183580Y0304815D01*
X0183506Y0304955D01*
X0183435Y0305097D01*
X0183367Y0305240D01*
X0183303Y0305385D01*
X0183243Y0305531D01*
X0183187Y0305679D01*
X0183134Y0305828D01*
X0183085Y0305979D01*
X0183040Y0306131D01*
X0182999Y0306284D01*
X0182961Y0306437D01*
X0182928Y0306592D01*
X0182898Y0306748D01*
X0182872Y0306904D01*
X0182851Y0307061D01*
X0182833Y0307218D01*
X0182819Y0307376D01*
X0182809Y0307534D01*
X0182803Y0307692D01*
X0182801Y0307850D01*
X0123450Y0281600D02*
X0123452Y0281712D01*
X0123458Y0281823D01*
X0123468Y0281935D01*
X0123482Y0282046D01*
X0123499Y0282156D01*
X0123521Y0282266D01*
X0123547Y0282375D01*
X0123576Y0282483D01*
X0123609Y0282589D01*
X0123646Y0282695D01*
X0123687Y0282799D01*
X0123732Y0282902D01*
X0123780Y0283003D01*
X0123831Y0283102D01*
X0123886Y0283199D01*
X0123945Y0283294D01*
X0124006Y0283388D01*
X0124071Y0283479D01*
X0124140Y0283567D01*
X0124211Y0283653D01*
X0124285Y0283737D01*
X0124363Y0283817D01*
X0124443Y0283895D01*
X0124526Y0283971D01*
X0124611Y0284043D01*
X0124699Y0284112D01*
X0124789Y0284178D01*
X0124882Y0284240D01*
X0124977Y0284300D01*
X0125074Y0284356D01*
X0125172Y0284408D01*
X0125273Y0284457D01*
X0125375Y0284502D01*
X0125479Y0284544D01*
X0125584Y0284582D01*
X0125691Y0284616D01*
X0125798Y0284646D01*
X0125907Y0284673D01*
X0126016Y0284695D01*
X0126127Y0284714D01*
X0126237Y0284729D01*
X0126349Y0284740D01*
X0126460Y0284747D01*
X0126572Y0284750D01*
X0126684Y0284749D01*
X0126796Y0284744D01*
X0126907Y0284735D01*
X0127018Y0284722D01*
X0127129Y0284705D01*
X0127239Y0284685D01*
X0127348Y0284660D01*
X0127456Y0284632D01*
X0127563Y0284599D01*
X0127669Y0284563D01*
X0127773Y0284523D01*
X0127876Y0284480D01*
X0127978Y0284433D01*
X0128077Y0284382D01*
X0128175Y0284328D01*
X0128271Y0284270D01*
X0128365Y0284209D01*
X0128456Y0284145D01*
X0128545Y0284078D01*
X0128632Y0284007D01*
X0128716Y0283933D01*
X0128798Y0283857D01*
X0128876Y0283777D01*
X0128952Y0283695D01*
X0129025Y0283610D01*
X0129095Y0283523D01*
X0129161Y0283433D01*
X0129225Y0283341D01*
X0129285Y0283247D01*
X0129342Y0283151D01*
X0129395Y0283052D01*
X0129445Y0282952D01*
X0129491Y0282851D01*
X0129534Y0282747D01*
X0129573Y0282642D01*
X0129608Y0282536D01*
X0129639Y0282429D01*
X0129667Y0282320D01*
X0129690Y0282211D01*
X0129710Y0282101D01*
X0129726Y0281990D01*
X0129738Y0281879D01*
X0129746Y0281768D01*
X0129750Y0281656D01*
X0129750Y0281544D01*
X0129746Y0281432D01*
X0129738Y0281321D01*
X0129726Y0281210D01*
X0129710Y0281099D01*
X0129690Y0280989D01*
X0129667Y0280880D01*
X0129639Y0280771D01*
X0129608Y0280664D01*
X0129573Y0280558D01*
X0129534Y0280453D01*
X0129491Y0280349D01*
X0129445Y0280248D01*
X0129395Y0280148D01*
X0129342Y0280049D01*
X0129285Y0279953D01*
X0129225Y0279859D01*
X0129161Y0279767D01*
X0129095Y0279677D01*
X0129025Y0279590D01*
X0128952Y0279505D01*
X0128876Y0279423D01*
X0128798Y0279343D01*
X0128716Y0279267D01*
X0128632Y0279193D01*
X0128545Y0279122D01*
X0128456Y0279055D01*
X0128365Y0278991D01*
X0128271Y0278930D01*
X0128175Y0278872D01*
X0128077Y0278818D01*
X0127978Y0278767D01*
X0127876Y0278720D01*
X0127773Y0278677D01*
X0127669Y0278637D01*
X0127563Y0278601D01*
X0127456Y0278568D01*
X0127348Y0278540D01*
X0127239Y0278515D01*
X0127129Y0278495D01*
X0127018Y0278478D01*
X0126907Y0278465D01*
X0126796Y0278456D01*
X0126684Y0278451D01*
X0126572Y0278450D01*
X0126460Y0278453D01*
X0126349Y0278460D01*
X0126237Y0278471D01*
X0126127Y0278486D01*
X0126016Y0278505D01*
X0125907Y0278527D01*
X0125798Y0278554D01*
X0125691Y0278584D01*
X0125584Y0278618D01*
X0125479Y0278656D01*
X0125375Y0278698D01*
X0125273Y0278743D01*
X0125172Y0278792D01*
X0125074Y0278844D01*
X0124977Y0278900D01*
X0124882Y0278960D01*
X0124789Y0279022D01*
X0124699Y0279088D01*
X0124611Y0279157D01*
X0124526Y0279229D01*
X0124443Y0279305D01*
X0124363Y0279383D01*
X0124285Y0279463D01*
X0124211Y0279547D01*
X0124140Y0279633D01*
X0124071Y0279721D01*
X0124006Y0279812D01*
X0123945Y0279906D01*
X0123886Y0280001D01*
X0123831Y0280098D01*
X0123780Y0280197D01*
X0123732Y0280298D01*
X0123687Y0280401D01*
X0123646Y0280505D01*
X0123609Y0280611D01*
X0123576Y0280717D01*
X0123547Y0280825D01*
X0123521Y0280934D01*
X0123499Y0281044D01*
X0123482Y0281154D01*
X0123468Y0281265D01*
X0123458Y0281377D01*
X0123452Y0281488D01*
X0123450Y0281600D01*
X0093450Y0301600D02*
X0093452Y0301712D01*
X0093458Y0301823D01*
X0093468Y0301935D01*
X0093482Y0302046D01*
X0093499Y0302156D01*
X0093521Y0302266D01*
X0093547Y0302375D01*
X0093576Y0302483D01*
X0093609Y0302589D01*
X0093646Y0302695D01*
X0093687Y0302799D01*
X0093732Y0302902D01*
X0093780Y0303003D01*
X0093831Y0303102D01*
X0093886Y0303199D01*
X0093945Y0303294D01*
X0094006Y0303388D01*
X0094071Y0303479D01*
X0094140Y0303567D01*
X0094211Y0303653D01*
X0094285Y0303737D01*
X0094363Y0303817D01*
X0094443Y0303895D01*
X0094526Y0303971D01*
X0094611Y0304043D01*
X0094699Y0304112D01*
X0094789Y0304178D01*
X0094882Y0304240D01*
X0094977Y0304300D01*
X0095074Y0304356D01*
X0095172Y0304408D01*
X0095273Y0304457D01*
X0095375Y0304502D01*
X0095479Y0304544D01*
X0095584Y0304582D01*
X0095691Y0304616D01*
X0095798Y0304646D01*
X0095907Y0304673D01*
X0096016Y0304695D01*
X0096127Y0304714D01*
X0096237Y0304729D01*
X0096349Y0304740D01*
X0096460Y0304747D01*
X0096572Y0304750D01*
X0096684Y0304749D01*
X0096796Y0304744D01*
X0096907Y0304735D01*
X0097018Y0304722D01*
X0097129Y0304705D01*
X0097239Y0304685D01*
X0097348Y0304660D01*
X0097456Y0304632D01*
X0097563Y0304599D01*
X0097669Y0304563D01*
X0097773Y0304523D01*
X0097876Y0304480D01*
X0097978Y0304433D01*
X0098077Y0304382D01*
X0098175Y0304328D01*
X0098271Y0304270D01*
X0098365Y0304209D01*
X0098456Y0304145D01*
X0098545Y0304078D01*
X0098632Y0304007D01*
X0098716Y0303933D01*
X0098798Y0303857D01*
X0098876Y0303777D01*
X0098952Y0303695D01*
X0099025Y0303610D01*
X0099095Y0303523D01*
X0099161Y0303433D01*
X0099225Y0303341D01*
X0099285Y0303247D01*
X0099342Y0303151D01*
X0099395Y0303052D01*
X0099445Y0302952D01*
X0099491Y0302851D01*
X0099534Y0302747D01*
X0099573Y0302642D01*
X0099608Y0302536D01*
X0099639Y0302429D01*
X0099667Y0302320D01*
X0099690Y0302211D01*
X0099710Y0302101D01*
X0099726Y0301990D01*
X0099738Y0301879D01*
X0099746Y0301768D01*
X0099750Y0301656D01*
X0099750Y0301544D01*
X0099746Y0301432D01*
X0099738Y0301321D01*
X0099726Y0301210D01*
X0099710Y0301099D01*
X0099690Y0300989D01*
X0099667Y0300880D01*
X0099639Y0300771D01*
X0099608Y0300664D01*
X0099573Y0300558D01*
X0099534Y0300453D01*
X0099491Y0300349D01*
X0099445Y0300248D01*
X0099395Y0300148D01*
X0099342Y0300049D01*
X0099285Y0299953D01*
X0099225Y0299859D01*
X0099161Y0299767D01*
X0099095Y0299677D01*
X0099025Y0299590D01*
X0098952Y0299505D01*
X0098876Y0299423D01*
X0098798Y0299343D01*
X0098716Y0299267D01*
X0098632Y0299193D01*
X0098545Y0299122D01*
X0098456Y0299055D01*
X0098365Y0298991D01*
X0098271Y0298930D01*
X0098175Y0298872D01*
X0098077Y0298818D01*
X0097978Y0298767D01*
X0097876Y0298720D01*
X0097773Y0298677D01*
X0097669Y0298637D01*
X0097563Y0298601D01*
X0097456Y0298568D01*
X0097348Y0298540D01*
X0097239Y0298515D01*
X0097129Y0298495D01*
X0097018Y0298478D01*
X0096907Y0298465D01*
X0096796Y0298456D01*
X0096684Y0298451D01*
X0096572Y0298450D01*
X0096460Y0298453D01*
X0096349Y0298460D01*
X0096237Y0298471D01*
X0096127Y0298486D01*
X0096016Y0298505D01*
X0095907Y0298527D01*
X0095798Y0298554D01*
X0095691Y0298584D01*
X0095584Y0298618D01*
X0095479Y0298656D01*
X0095375Y0298698D01*
X0095273Y0298743D01*
X0095172Y0298792D01*
X0095074Y0298844D01*
X0094977Y0298900D01*
X0094882Y0298960D01*
X0094789Y0299022D01*
X0094699Y0299088D01*
X0094611Y0299157D01*
X0094526Y0299229D01*
X0094443Y0299305D01*
X0094363Y0299383D01*
X0094285Y0299463D01*
X0094211Y0299547D01*
X0094140Y0299633D01*
X0094071Y0299721D01*
X0094006Y0299812D01*
X0093945Y0299906D01*
X0093886Y0300001D01*
X0093831Y0300098D01*
X0093780Y0300197D01*
X0093732Y0300298D01*
X0093687Y0300401D01*
X0093646Y0300505D01*
X0093609Y0300611D01*
X0093576Y0300717D01*
X0093547Y0300825D01*
X0093521Y0300934D01*
X0093499Y0301044D01*
X0093482Y0301154D01*
X0093468Y0301265D01*
X0093458Y0301377D01*
X0093452Y0301488D01*
X0093450Y0301600D01*
X0007801Y0307850D02*
X0007803Y0308008D01*
X0007809Y0308166D01*
X0007819Y0308324D01*
X0007833Y0308482D01*
X0007851Y0308639D01*
X0007872Y0308796D01*
X0007898Y0308952D01*
X0007928Y0309108D01*
X0007961Y0309263D01*
X0007999Y0309416D01*
X0008040Y0309569D01*
X0008085Y0309721D01*
X0008134Y0309872D01*
X0008187Y0310021D01*
X0008243Y0310169D01*
X0008303Y0310315D01*
X0008367Y0310460D01*
X0008435Y0310603D01*
X0008506Y0310745D01*
X0008580Y0310885D01*
X0008658Y0311022D01*
X0008740Y0311158D01*
X0008824Y0311292D01*
X0008913Y0311423D01*
X0009004Y0311552D01*
X0009099Y0311679D01*
X0009196Y0311804D01*
X0009297Y0311926D01*
X0009401Y0312045D01*
X0009508Y0312162D01*
X0009618Y0312276D01*
X0009731Y0312387D01*
X0009846Y0312496D01*
X0009964Y0312601D01*
X0010085Y0312703D01*
X0010208Y0312803D01*
X0010334Y0312899D01*
X0010462Y0312992D01*
X0010592Y0313082D01*
X0010725Y0313168D01*
X0010860Y0313252D01*
X0010996Y0313331D01*
X0011135Y0313408D01*
X0011276Y0313480D01*
X0011418Y0313550D01*
X0011562Y0313615D01*
X0011708Y0313677D01*
X0011855Y0313735D01*
X0012004Y0313790D01*
X0012154Y0313841D01*
X0012305Y0313888D01*
X0012457Y0313931D01*
X0012610Y0313970D01*
X0012765Y0314006D01*
X0012920Y0314037D01*
X0013076Y0314065D01*
X0013232Y0314089D01*
X0013389Y0314109D01*
X0013547Y0314125D01*
X0013704Y0314137D01*
X0013863Y0314145D01*
X0014021Y0314149D01*
X0014179Y0314149D01*
X0014337Y0314145D01*
X0014496Y0314137D01*
X0014653Y0314125D01*
X0014811Y0314109D01*
X0014968Y0314089D01*
X0015124Y0314065D01*
X0015280Y0314037D01*
X0015435Y0314006D01*
X0015590Y0313970D01*
X0015743Y0313931D01*
X0015895Y0313888D01*
X0016046Y0313841D01*
X0016196Y0313790D01*
X0016345Y0313735D01*
X0016492Y0313677D01*
X0016638Y0313615D01*
X0016782Y0313550D01*
X0016924Y0313480D01*
X0017065Y0313408D01*
X0017204Y0313331D01*
X0017340Y0313252D01*
X0017475Y0313168D01*
X0017608Y0313082D01*
X0017738Y0312992D01*
X0017866Y0312899D01*
X0017992Y0312803D01*
X0018115Y0312703D01*
X0018236Y0312601D01*
X0018354Y0312496D01*
X0018469Y0312387D01*
X0018582Y0312276D01*
X0018692Y0312162D01*
X0018799Y0312045D01*
X0018903Y0311926D01*
X0019004Y0311804D01*
X0019101Y0311679D01*
X0019196Y0311552D01*
X0019287Y0311423D01*
X0019376Y0311292D01*
X0019460Y0311158D01*
X0019542Y0311022D01*
X0019620Y0310885D01*
X0019694Y0310745D01*
X0019765Y0310603D01*
X0019833Y0310460D01*
X0019897Y0310315D01*
X0019957Y0310169D01*
X0020013Y0310021D01*
X0020066Y0309872D01*
X0020115Y0309721D01*
X0020160Y0309569D01*
X0020201Y0309416D01*
X0020239Y0309263D01*
X0020272Y0309108D01*
X0020302Y0308952D01*
X0020328Y0308796D01*
X0020349Y0308639D01*
X0020367Y0308482D01*
X0020381Y0308324D01*
X0020391Y0308166D01*
X0020397Y0308008D01*
X0020399Y0307850D01*
X0020397Y0307692D01*
X0020391Y0307534D01*
X0020381Y0307376D01*
X0020367Y0307218D01*
X0020349Y0307061D01*
X0020328Y0306904D01*
X0020302Y0306748D01*
X0020272Y0306592D01*
X0020239Y0306437D01*
X0020201Y0306284D01*
X0020160Y0306131D01*
X0020115Y0305979D01*
X0020066Y0305828D01*
X0020013Y0305679D01*
X0019957Y0305531D01*
X0019897Y0305385D01*
X0019833Y0305240D01*
X0019765Y0305097D01*
X0019694Y0304955D01*
X0019620Y0304815D01*
X0019542Y0304678D01*
X0019460Y0304542D01*
X0019376Y0304408D01*
X0019287Y0304277D01*
X0019196Y0304148D01*
X0019101Y0304021D01*
X0019004Y0303896D01*
X0018903Y0303774D01*
X0018799Y0303655D01*
X0018692Y0303538D01*
X0018582Y0303424D01*
X0018469Y0303313D01*
X0018354Y0303204D01*
X0018236Y0303099D01*
X0018115Y0302997D01*
X0017992Y0302897D01*
X0017866Y0302801D01*
X0017738Y0302708D01*
X0017608Y0302618D01*
X0017475Y0302532D01*
X0017340Y0302448D01*
X0017204Y0302369D01*
X0017065Y0302292D01*
X0016924Y0302220D01*
X0016782Y0302150D01*
X0016638Y0302085D01*
X0016492Y0302023D01*
X0016345Y0301965D01*
X0016196Y0301910D01*
X0016046Y0301859D01*
X0015895Y0301812D01*
X0015743Y0301769D01*
X0015590Y0301730D01*
X0015435Y0301694D01*
X0015280Y0301663D01*
X0015124Y0301635D01*
X0014968Y0301611D01*
X0014811Y0301591D01*
X0014653Y0301575D01*
X0014496Y0301563D01*
X0014337Y0301555D01*
X0014179Y0301551D01*
X0014021Y0301551D01*
X0013863Y0301555D01*
X0013704Y0301563D01*
X0013547Y0301575D01*
X0013389Y0301591D01*
X0013232Y0301611D01*
X0013076Y0301635D01*
X0012920Y0301663D01*
X0012765Y0301694D01*
X0012610Y0301730D01*
X0012457Y0301769D01*
X0012305Y0301812D01*
X0012154Y0301859D01*
X0012004Y0301910D01*
X0011855Y0301965D01*
X0011708Y0302023D01*
X0011562Y0302085D01*
X0011418Y0302150D01*
X0011276Y0302220D01*
X0011135Y0302292D01*
X0010996Y0302369D01*
X0010860Y0302448D01*
X0010725Y0302532D01*
X0010592Y0302618D01*
X0010462Y0302708D01*
X0010334Y0302801D01*
X0010208Y0302897D01*
X0010085Y0302997D01*
X0009964Y0303099D01*
X0009846Y0303204D01*
X0009731Y0303313D01*
X0009618Y0303424D01*
X0009508Y0303538D01*
X0009401Y0303655D01*
X0009297Y0303774D01*
X0009196Y0303896D01*
X0009099Y0304021D01*
X0009004Y0304148D01*
X0008913Y0304277D01*
X0008824Y0304408D01*
X0008740Y0304542D01*
X0008658Y0304678D01*
X0008580Y0304815D01*
X0008506Y0304955D01*
X0008435Y0305097D01*
X0008367Y0305240D01*
X0008303Y0305385D01*
X0008243Y0305531D01*
X0008187Y0305679D01*
X0008134Y0305828D01*
X0008085Y0305979D01*
X0008040Y0306131D01*
X0007999Y0306284D01*
X0007961Y0306437D01*
X0007928Y0306592D01*
X0007898Y0306748D01*
X0007872Y0306904D01*
X0007851Y0307061D01*
X0007833Y0307218D01*
X0007819Y0307376D01*
X0007809Y0307534D01*
X0007803Y0307692D01*
X0007801Y0307850D01*
X0382801Y0307850D02*
X0382803Y0308008D01*
X0382809Y0308166D01*
X0382819Y0308324D01*
X0382833Y0308482D01*
X0382851Y0308639D01*
X0382872Y0308796D01*
X0382898Y0308952D01*
X0382928Y0309108D01*
X0382961Y0309263D01*
X0382999Y0309416D01*
X0383040Y0309569D01*
X0383085Y0309721D01*
X0383134Y0309872D01*
X0383187Y0310021D01*
X0383243Y0310169D01*
X0383303Y0310315D01*
X0383367Y0310460D01*
X0383435Y0310603D01*
X0383506Y0310745D01*
X0383580Y0310885D01*
X0383658Y0311022D01*
X0383740Y0311158D01*
X0383824Y0311292D01*
X0383913Y0311423D01*
X0384004Y0311552D01*
X0384099Y0311679D01*
X0384196Y0311804D01*
X0384297Y0311926D01*
X0384401Y0312045D01*
X0384508Y0312162D01*
X0384618Y0312276D01*
X0384731Y0312387D01*
X0384846Y0312496D01*
X0384964Y0312601D01*
X0385085Y0312703D01*
X0385208Y0312803D01*
X0385334Y0312899D01*
X0385462Y0312992D01*
X0385592Y0313082D01*
X0385725Y0313168D01*
X0385860Y0313252D01*
X0385996Y0313331D01*
X0386135Y0313408D01*
X0386276Y0313480D01*
X0386418Y0313550D01*
X0386562Y0313615D01*
X0386708Y0313677D01*
X0386855Y0313735D01*
X0387004Y0313790D01*
X0387154Y0313841D01*
X0387305Y0313888D01*
X0387457Y0313931D01*
X0387610Y0313970D01*
X0387765Y0314006D01*
X0387920Y0314037D01*
X0388076Y0314065D01*
X0388232Y0314089D01*
X0388389Y0314109D01*
X0388547Y0314125D01*
X0388704Y0314137D01*
X0388863Y0314145D01*
X0389021Y0314149D01*
X0389179Y0314149D01*
X0389337Y0314145D01*
X0389496Y0314137D01*
X0389653Y0314125D01*
X0389811Y0314109D01*
X0389968Y0314089D01*
X0390124Y0314065D01*
X0390280Y0314037D01*
X0390435Y0314006D01*
X0390590Y0313970D01*
X0390743Y0313931D01*
X0390895Y0313888D01*
X0391046Y0313841D01*
X0391196Y0313790D01*
X0391345Y0313735D01*
X0391492Y0313677D01*
X0391638Y0313615D01*
X0391782Y0313550D01*
X0391924Y0313480D01*
X0392065Y0313408D01*
X0392204Y0313331D01*
X0392340Y0313252D01*
X0392475Y0313168D01*
X0392608Y0313082D01*
X0392738Y0312992D01*
X0392866Y0312899D01*
X0392992Y0312803D01*
X0393115Y0312703D01*
X0393236Y0312601D01*
X0393354Y0312496D01*
X0393469Y0312387D01*
X0393582Y0312276D01*
X0393692Y0312162D01*
X0393799Y0312045D01*
X0393903Y0311926D01*
X0394004Y0311804D01*
X0394101Y0311679D01*
X0394196Y0311552D01*
X0394287Y0311423D01*
X0394376Y0311292D01*
X0394460Y0311158D01*
X0394542Y0311022D01*
X0394620Y0310885D01*
X0394694Y0310745D01*
X0394765Y0310603D01*
X0394833Y0310460D01*
X0394897Y0310315D01*
X0394957Y0310169D01*
X0395013Y0310021D01*
X0395066Y0309872D01*
X0395115Y0309721D01*
X0395160Y0309569D01*
X0395201Y0309416D01*
X0395239Y0309263D01*
X0395272Y0309108D01*
X0395302Y0308952D01*
X0395328Y0308796D01*
X0395349Y0308639D01*
X0395367Y0308482D01*
X0395381Y0308324D01*
X0395391Y0308166D01*
X0395397Y0308008D01*
X0395399Y0307850D01*
X0395397Y0307692D01*
X0395391Y0307534D01*
X0395381Y0307376D01*
X0395367Y0307218D01*
X0395349Y0307061D01*
X0395328Y0306904D01*
X0395302Y0306748D01*
X0395272Y0306592D01*
X0395239Y0306437D01*
X0395201Y0306284D01*
X0395160Y0306131D01*
X0395115Y0305979D01*
X0395066Y0305828D01*
X0395013Y0305679D01*
X0394957Y0305531D01*
X0394897Y0305385D01*
X0394833Y0305240D01*
X0394765Y0305097D01*
X0394694Y0304955D01*
X0394620Y0304815D01*
X0394542Y0304678D01*
X0394460Y0304542D01*
X0394376Y0304408D01*
X0394287Y0304277D01*
X0394196Y0304148D01*
X0394101Y0304021D01*
X0394004Y0303896D01*
X0393903Y0303774D01*
X0393799Y0303655D01*
X0393692Y0303538D01*
X0393582Y0303424D01*
X0393469Y0303313D01*
X0393354Y0303204D01*
X0393236Y0303099D01*
X0393115Y0302997D01*
X0392992Y0302897D01*
X0392866Y0302801D01*
X0392738Y0302708D01*
X0392608Y0302618D01*
X0392475Y0302532D01*
X0392340Y0302448D01*
X0392204Y0302369D01*
X0392065Y0302292D01*
X0391924Y0302220D01*
X0391782Y0302150D01*
X0391638Y0302085D01*
X0391492Y0302023D01*
X0391345Y0301965D01*
X0391196Y0301910D01*
X0391046Y0301859D01*
X0390895Y0301812D01*
X0390743Y0301769D01*
X0390590Y0301730D01*
X0390435Y0301694D01*
X0390280Y0301663D01*
X0390124Y0301635D01*
X0389968Y0301611D01*
X0389811Y0301591D01*
X0389653Y0301575D01*
X0389496Y0301563D01*
X0389337Y0301555D01*
X0389179Y0301551D01*
X0389021Y0301551D01*
X0388863Y0301555D01*
X0388704Y0301563D01*
X0388547Y0301575D01*
X0388389Y0301591D01*
X0388232Y0301611D01*
X0388076Y0301635D01*
X0387920Y0301663D01*
X0387765Y0301694D01*
X0387610Y0301730D01*
X0387457Y0301769D01*
X0387305Y0301812D01*
X0387154Y0301859D01*
X0387004Y0301910D01*
X0386855Y0301965D01*
X0386708Y0302023D01*
X0386562Y0302085D01*
X0386418Y0302150D01*
X0386276Y0302220D01*
X0386135Y0302292D01*
X0385996Y0302369D01*
X0385860Y0302448D01*
X0385725Y0302532D01*
X0385592Y0302618D01*
X0385462Y0302708D01*
X0385334Y0302801D01*
X0385208Y0302897D01*
X0385085Y0302997D01*
X0384964Y0303099D01*
X0384846Y0303204D01*
X0384731Y0303313D01*
X0384618Y0303424D01*
X0384508Y0303538D01*
X0384401Y0303655D01*
X0384297Y0303774D01*
X0384196Y0303896D01*
X0384099Y0304021D01*
X0384004Y0304148D01*
X0383913Y0304277D01*
X0383824Y0304408D01*
X0383740Y0304542D01*
X0383658Y0304678D01*
X0383580Y0304815D01*
X0383506Y0304955D01*
X0383435Y0305097D01*
X0383367Y0305240D01*
X0383303Y0305385D01*
X0383243Y0305531D01*
X0383187Y0305679D01*
X0383134Y0305828D01*
X0383085Y0305979D01*
X0383040Y0306131D01*
X0382999Y0306284D01*
X0382961Y0306437D01*
X0382928Y0306592D01*
X0382898Y0306748D01*
X0382872Y0306904D01*
X0382851Y0307061D01*
X0382833Y0307218D01*
X0382819Y0307376D01*
X0382809Y0307534D01*
X0382803Y0307692D01*
X0382801Y0307850D01*
D11*
X0343904Y0276515D02*
X0339300Y0276515D01*
X0339300Y0274213D01*
X0340067Y0273446D01*
X0341602Y0273446D01*
X0342369Y0274213D01*
X0342369Y0276515D01*
X0341602Y0271911D02*
X0339300Y0271911D01*
X0341602Y0271911D02*
X0342369Y0271144D01*
X0342369Y0268842D01*
X0339300Y0268842D01*
X0340067Y0267307D02*
X0341602Y0267307D01*
X0341602Y0265773D01*
X0343137Y0267307D02*
X0343904Y0266540D01*
X0343904Y0265005D01*
X0343137Y0264238D01*
X0340067Y0264238D01*
X0339300Y0265005D01*
X0339300Y0266540D01*
X0340067Y0267307D01*
X0340835Y0262704D02*
X0340835Y0259634D01*
X0341602Y0259634D02*
X0340067Y0259634D01*
X0339300Y0260402D01*
X0339300Y0261936D01*
X0340835Y0262704D02*
X0341602Y0262704D01*
X0342369Y0261936D01*
X0342369Y0260402D01*
X0341602Y0259634D01*
X0342369Y0258100D02*
X0342369Y0255798D01*
X0341602Y0255030D01*
X0340835Y0255798D01*
X0340835Y0257332D01*
X0340067Y0258100D01*
X0339300Y0257332D01*
X0339300Y0255030D01*
X0339300Y0253496D02*
X0339300Y0251194D01*
X0340067Y0250426D01*
X0340835Y0251194D01*
X0340835Y0253496D01*
X0341602Y0253496D02*
X0339300Y0253496D01*
X0341602Y0253496D02*
X0342369Y0252728D01*
X0342369Y0251194D01*
X0342369Y0248892D02*
X0342369Y0246590D01*
X0341602Y0245822D01*
X0340067Y0245822D01*
X0339300Y0246590D01*
X0339300Y0248892D01*
X0143904Y0265005D02*
X0143137Y0264238D01*
X0140067Y0264238D01*
X0139300Y0265005D01*
X0139300Y0266540D01*
X0140067Y0267307D01*
X0141602Y0267307D01*
X0141602Y0265773D01*
X0143137Y0267307D02*
X0143904Y0266540D01*
X0143904Y0265005D01*
X0141602Y0262704D02*
X0142369Y0261936D01*
X0142369Y0260402D01*
X0141602Y0259634D01*
X0140067Y0259634D01*
X0139300Y0260402D01*
X0139300Y0261936D01*
X0140835Y0262704D02*
X0140835Y0259634D01*
X0140067Y0258100D02*
X0139300Y0257332D01*
X0139300Y0255030D01*
X0139300Y0253496D02*
X0139300Y0251194D01*
X0140067Y0250426D01*
X0140835Y0251194D01*
X0140835Y0253496D01*
X0141602Y0253496D02*
X0139300Y0253496D01*
X0141602Y0253496D02*
X0142369Y0252728D01*
X0142369Y0251194D01*
X0142369Y0248892D02*
X0142369Y0246590D01*
X0141602Y0245822D01*
X0140067Y0245822D01*
X0139300Y0246590D01*
X0139300Y0248892D01*
X0141602Y0255030D02*
X0142369Y0255798D01*
X0142369Y0258100D01*
X0140835Y0257332D02*
X0140835Y0255798D01*
X0141602Y0255030D01*
X0140835Y0257332D02*
X0140067Y0258100D01*
X0140835Y0262704D02*
X0141602Y0262704D01*
X0142369Y0268842D02*
X0139300Y0268842D01*
X0142369Y0268842D02*
X0142369Y0271144D01*
X0141602Y0271911D01*
X0139300Y0271911D01*
X0140067Y0273446D02*
X0139300Y0274213D01*
X0139300Y0276515D01*
X0143904Y0276515D01*
X0142369Y0276515D02*
X0142369Y0274213D01*
X0141602Y0273446D01*
X0140067Y0273446D01*
D12*
X0134600Y0268100D02*
X0128600Y0268100D01*
X0128540Y0268098D01*
X0128479Y0268093D01*
X0128420Y0268084D01*
X0128361Y0268071D01*
X0128302Y0268055D01*
X0128245Y0268035D01*
X0128190Y0268012D01*
X0128135Y0267985D01*
X0128083Y0267956D01*
X0128032Y0267923D01*
X0127983Y0267887D01*
X0127937Y0267849D01*
X0127893Y0267807D01*
X0127851Y0267763D01*
X0127813Y0267717D01*
X0127777Y0267668D01*
X0127744Y0267617D01*
X0127715Y0267565D01*
X0127688Y0267510D01*
X0127665Y0267455D01*
X0127645Y0267398D01*
X0127629Y0267339D01*
X0127616Y0267280D01*
X0127607Y0267221D01*
X0127602Y0267160D01*
X0127600Y0267100D01*
X0127600Y0256100D01*
X0127602Y0256040D01*
X0127607Y0255979D01*
X0127616Y0255920D01*
X0127629Y0255861D01*
X0127645Y0255802D01*
X0127665Y0255745D01*
X0127688Y0255690D01*
X0127715Y0255635D01*
X0127744Y0255583D01*
X0127777Y0255532D01*
X0127813Y0255483D01*
X0127851Y0255437D01*
X0127893Y0255393D01*
X0127937Y0255351D01*
X0127983Y0255313D01*
X0128032Y0255277D01*
X0128083Y0255244D01*
X0128135Y0255215D01*
X0128190Y0255188D01*
X0128245Y0255165D01*
X0128302Y0255145D01*
X0128361Y0255129D01*
X0128420Y0255116D01*
X0128479Y0255107D01*
X0128540Y0255102D01*
X0128600Y0255100D01*
X0134600Y0255100D01*
X0134660Y0255102D01*
X0134721Y0255107D01*
X0134780Y0255116D01*
X0134839Y0255129D01*
X0134898Y0255145D01*
X0134955Y0255165D01*
X0135010Y0255188D01*
X0135065Y0255215D01*
X0135117Y0255244D01*
X0135168Y0255277D01*
X0135217Y0255313D01*
X0135263Y0255351D01*
X0135307Y0255393D01*
X0135349Y0255437D01*
X0135387Y0255483D01*
X0135423Y0255532D01*
X0135456Y0255583D01*
X0135485Y0255635D01*
X0135512Y0255690D01*
X0135535Y0255745D01*
X0135555Y0255802D01*
X0135571Y0255861D01*
X0135584Y0255920D01*
X0135593Y0255979D01*
X0135598Y0256040D01*
X0135600Y0256100D01*
X0135600Y0267100D01*
X0135598Y0267160D01*
X0135593Y0267221D01*
X0135584Y0267280D01*
X0135571Y0267339D01*
X0135555Y0267398D01*
X0135535Y0267455D01*
X0135512Y0267510D01*
X0135485Y0267565D01*
X0135456Y0267617D01*
X0135423Y0267668D01*
X0135387Y0267717D01*
X0135349Y0267763D01*
X0135307Y0267807D01*
X0135263Y0267849D01*
X0135217Y0267887D01*
X0135168Y0267923D01*
X0135117Y0267956D01*
X0135065Y0267985D01*
X0135010Y0268012D01*
X0134955Y0268035D01*
X0134898Y0268055D01*
X0134839Y0268071D01*
X0134780Y0268084D01*
X0134721Y0268093D01*
X0134660Y0268098D01*
X0134600Y0268100D01*
X0327600Y0267100D02*
X0327600Y0256100D01*
X0327602Y0256040D01*
X0327607Y0255979D01*
X0327616Y0255920D01*
X0327629Y0255861D01*
X0327645Y0255802D01*
X0327665Y0255745D01*
X0327688Y0255690D01*
X0327715Y0255635D01*
X0327744Y0255583D01*
X0327777Y0255532D01*
X0327813Y0255483D01*
X0327851Y0255437D01*
X0327893Y0255393D01*
X0327937Y0255351D01*
X0327983Y0255313D01*
X0328032Y0255277D01*
X0328083Y0255244D01*
X0328135Y0255215D01*
X0328190Y0255188D01*
X0328245Y0255165D01*
X0328302Y0255145D01*
X0328361Y0255129D01*
X0328420Y0255116D01*
X0328479Y0255107D01*
X0328540Y0255102D01*
X0328600Y0255100D01*
X0334600Y0255100D01*
X0334660Y0255102D01*
X0334721Y0255107D01*
X0334780Y0255116D01*
X0334839Y0255129D01*
X0334898Y0255145D01*
X0334955Y0255165D01*
X0335010Y0255188D01*
X0335065Y0255215D01*
X0335117Y0255244D01*
X0335168Y0255277D01*
X0335217Y0255313D01*
X0335263Y0255351D01*
X0335307Y0255393D01*
X0335349Y0255437D01*
X0335387Y0255483D01*
X0335423Y0255532D01*
X0335456Y0255583D01*
X0335485Y0255635D01*
X0335512Y0255690D01*
X0335535Y0255745D01*
X0335555Y0255802D01*
X0335571Y0255861D01*
X0335584Y0255920D01*
X0335593Y0255979D01*
X0335598Y0256040D01*
X0335600Y0256100D01*
X0335600Y0267100D01*
X0335598Y0267160D01*
X0335593Y0267221D01*
X0335584Y0267280D01*
X0335571Y0267339D01*
X0335555Y0267398D01*
X0335535Y0267455D01*
X0335512Y0267510D01*
X0335485Y0267565D01*
X0335456Y0267617D01*
X0335423Y0267668D01*
X0335387Y0267717D01*
X0335349Y0267763D01*
X0335307Y0267807D01*
X0335263Y0267849D01*
X0335217Y0267887D01*
X0335168Y0267923D01*
X0335117Y0267956D01*
X0335065Y0267985D01*
X0335010Y0268012D01*
X0334955Y0268035D01*
X0334898Y0268055D01*
X0334839Y0268071D01*
X0334780Y0268084D01*
X0334721Y0268093D01*
X0334660Y0268098D01*
X0334600Y0268100D01*
X0328600Y0268100D01*
X0328540Y0268098D01*
X0328479Y0268093D01*
X0328420Y0268084D01*
X0328361Y0268071D01*
X0328302Y0268055D01*
X0328245Y0268035D01*
X0328190Y0268012D01*
X0328135Y0267985D01*
X0328083Y0267956D01*
X0328032Y0267923D01*
X0327983Y0267887D01*
X0327937Y0267849D01*
X0327893Y0267807D01*
X0327851Y0267763D01*
X0327813Y0267717D01*
X0327777Y0267668D01*
X0327744Y0267617D01*
X0327715Y0267565D01*
X0327688Y0267510D01*
X0327665Y0267455D01*
X0327645Y0267398D01*
X0327629Y0267339D01*
X0327616Y0267280D01*
X0327607Y0267221D01*
X0327602Y0267160D01*
X0327600Y0267100D01*
M02*
