%
M48
M72
T01C0.02362
T02C0.02953
T03C0.03200
T04C0.03600
T05C0.04000
T06C0.04724
T07C0.05118
T08C0.05200
T09C0.05906
T10C0.12598
%
T01
X14300Y94300
X14300Y104300
X14300Y114300
X14300Y124300
X14300Y134300
X14300Y146800
X14300Y156800
X14300Y166800
X14300Y176800
X14300Y186800
X14300Y196800
X14300Y206800
X14300Y216800
X14300Y226800
X24300Y226800
X24300Y216800
X24300Y206800
X24300Y196800
X37895Y162025
X37895Y157025
X42895Y157025
X42895Y162025
X24300Y144300
X24300Y134300
X24300Y124300
X24300Y114300
X24300Y104300
X24300Y94300
X66800Y161800
X74300Y161800
X99300Y161800
X99300Y154300
X109300Y154300
X109300Y161800
X109300Y144300
X109300Y134300
X109300Y124300
X109300Y114300
X119300Y124300
X119300Y134300
X127895Y157025
X127895Y162025
X132895Y162025
X132895Y157025
X154300Y161800
X164300Y161800
X164300Y171800
X164300Y151800
X164300Y141800
X164300Y131800
X164300Y121800
X164300Y201800
X164300Y211800
X164300Y221800
X164300Y231800
X154300Y231800
X154300Y221800
X154300Y211800
X154300Y201800
X109300Y204300
X109300Y214300
X109300Y194300
X109300Y184300
X99300Y184300
X99300Y194300
T02
X85985Y131710
X85985Y101710
T03
X59550Y207550
X45550Y207550
X122800Y207300
X136800Y207300
T04
X95550Y211800
X85550Y211800
T05
X111800Y71800
X111800Y51800
X131800Y51800
X131800Y71800
X41800Y71800
X41800Y51800
X21800Y51800
X21800Y71800
T06
X100985Y91210
X100985Y141210
T07
X111717Y241898
X131717Y241898
X65967Y241898
X45967Y241898
X42717Y24798
X62717Y24798
X114217Y24398
X134217Y24398
T08
X85985Y86210
T09
X57550Y111050
X37550Y111050
X129550Y111800
X149550Y111800
T10
X20100Y17900
X159300Y19300
X156800Y246800
X21800Y246800
M30
