G75*
%MOIN*%
%OFA0B0*%
%FSLAX25Y25*%
%IPPOS*%
%LPD*%
%AMOC8*
5,1,8,0,0,1.08239X$1,22.5*
%
%ADD10R,0.06299X0.10630*%
%ADD11R,0.05118X0.05906*%
%ADD12C,0.15000*%
%ADD13OC8,0.15000*%
%ADD14R,0.03937X0.04331*%
%ADD15OC8,0.06300*%
%ADD16C,0.06300*%
%ADD17R,0.05906X0.05118*%
%ADD18R,0.01500X0.03800*%
%ADD19R,0.03800X0.01500*%
%ADD20R,0.10600X0.10600*%
%ADD21C,0.10000*%
%ADD22R,0.04331X0.03937*%
%ADD23C,0.07600*%
%ADD24OC8,0.07600*%
%ADD25C,0.05400*%
%ADD26OC8,0.08600*%
%ADD27OC8,0.06600*%
%ADD28OC8,0.08500*%
%ADD29C,0.01200*%
%ADD30C,0.07874*%
%ADD31C,0.00800*%
%ADD32C,0.10000*%
%ADD33C,0.02400*%
%ADD34C,0.01600*%
%ADD35C,0.03562*%
%ADD36C,0.04000*%
%ADD37C,0.16598*%
%ADD38C,0.01000*%
D10*
X0064288Y0050550D03*
X0075312Y0050550D03*
X0153288Y0054550D03*
X0164312Y0054550D03*
X0157312Y0179300D03*
X0146288Y0179300D03*
X0082062Y0182300D03*
X0071038Y0182300D03*
D11*
X0072310Y0195800D03*
X0079790Y0195800D03*
X0044135Y0179525D03*
X0036655Y0179525D03*
X0065060Y0063050D03*
X0072540Y0063050D03*
X0126655Y0179525D03*
X0134135Y0179525D03*
X0147060Y0191300D03*
X0154540Y0191300D03*
X0156310Y0067050D03*
X0163790Y0067050D03*
D12*
X0149550Y0111800D03*
X0057550Y0111050D03*
D13*
X0037550Y0111050D03*
X0129550Y0111800D03*
D14*
X0147325Y0150799D03*
X0147325Y0157491D03*
X0147325Y0163049D03*
X0147325Y0169741D03*
X0055575Y0169741D03*
X0055575Y0163049D03*
X0055825Y0157991D03*
X0055825Y0151299D03*
D15*
X0045550Y0207550D03*
X0122800Y0207300D03*
D16*
X0136800Y0207300D03*
X0059550Y0207550D03*
D17*
X0025395Y0180765D03*
X0025395Y0173285D03*
X0115395Y0173285D03*
X0115395Y0180765D03*
D18*
X0125295Y0169025D03*
X0127795Y0169025D03*
X0130395Y0169025D03*
X0132995Y0169025D03*
X0135495Y0169025D03*
X0135495Y0150025D03*
X0132995Y0150025D03*
X0130395Y0150025D03*
X0127795Y0150025D03*
X0125295Y0150025D03*
X0045495Y0150025D03*
X0042995Y0150025D03*
X0040395Y0150025D03*
X0037795Y0150025D03*
X0035295Y0150025D03*
X0035295Y0169025D03*
X0037795Y0169025D03*
X0040395Y0169025D03*
X0042995Y0169025D03*
X0045495Y0169025D03*
D19*
X0049895Y0164625D03*
X0049895Y0162125D03*
X0049895Y0159525D03*
X0049895Y0156925D03*
X0049895Y0154425D03*
X0030895Y0154425D03*
X0030895Y0156925D03*
X0030895Y0159525D03*
X0030895Y0162125D03*
X0030895Y0164625D03*
X0120895Y0164625D03*
X0120895Y0162125D03*
X0120895Y0159525D03*
X0120895Y0156925D03*
X0120895Y0154425D03*
X0139895Y0154425D03*
X0139895Y0156925D03*
X0139895Y0159525D03*
X0139895Y0162125D03*
X0139895Y0164625D03*
D20*
X0130395Y0159525D03*
X0040395Y0159525D03*
D21*
X0045967Y0241898D03*
X0065967Y0241898D03*
X0111717Y0241898D03*
X0131717Y0241898D03*
X0134217Y0024398D03*
X0114217Y0024398D03*
X0062717Y0024798D03*
X0042717Y0024798D03*
D22*
X0043093Y0145068D03*
X0036400Y0145068D03*
X0037049Y0187025D03*
X0043741Y0187025D03*
X0127049Y0187025D03*
X0133741Y0187025D03*
X0133575Y0145300D03*
X0126882Y0145300D03*
D23*
X0131800Y0051800D03*
X0041800Y0051800D03*
D24*
X0041800Y0071800D03*
X0021800Y0071800D03*
X0021800Y0051800D03*
X0111800Y0051800D03*
X0111800Y0071800D03*
X0131800Y0071800D03*
D25*
X0095550Y0209100D02*
X0095550Y0214500D01*
X0085550Y0214500D02*
X0085550Y0209100D01*
D26*
X0100985Y0141210D03*
X0100985Y0091210D03*
D27*
X0085985Y0101710D03*
X0085985Y0131710D03*
D28*
X0085985Y0086210D03*
D29*
X0067485Y0086562D02*
X0050005Y0086562D01*
X0050006Y0087760D02*
X0067485Y0087760D01*
X0067485Y0088959D02*
X0050007Y0088959D01*
X0050007Y0090157D02*
X0067485Y0090157D01*
X0067485Y0091356D02*
X0050008Y0091356D01*
X0050008Y0092554D02*
X0067485Y0092554D01*
X0067485Y0093753D02*
X0050009Y0093753D01*
X0050009Y0094951D02*
X0067485Y0094951D01*
X0067485Y0096150D02*
X0050010Y0096150D01*
X0050011Y0097348D02*
X0067485Y0097348D01*
X0067485Y0098547D02*
X0050011Y0098547D01*
X0050012Y0099745D02*
X0067485Y0099745D01*
X0067485Y0100944D02*
X0050012Y0100944D01*
X0050013Y0102142D02*
X0067485Y0102142D01*
X0067485Y0103341D02*
X0050013Y0103341D01*
X0050014Y0104539D02*
X0067485Y0104539D01*
X0067485Y0105738D02*
X0050015Y0105738D01*
X0050015Y0106936D02*
X0067485Y0106936D01*
X0067485Y0108135D02*
X0050016Y0108135D01*
X0050016Y0109333D02*
X0067485Y0109333D01*
X0067485Y0110532D02*
X0050017Y0110532D01*
X0050017Y0111730D02*
X0067485Y0111730D01*
X0067485Y0112929D02*
X0050018Y0112929D01*
X0050019Y0114128D02*
X0067485Y0114128D01*
X0067485Y0115326D02*
X0050019Y0115326D01*
X0050020Y0116525D02*
X0067485Y0116525D01*
X0067485Y0117723D02*
X0050020Y0117723D01*
X0050021Y0118922D02*
X0067485Y0118922D01*
X0067485Y0120120D02*
X0050022Y0120120D01*
X0050022Y0121319D02*
X0067485Y0121319D01*
X0067485Y0122517D02*
X0050023Y0122517D01*
X0050023Y0123716D02*
X0067485Y0123716D01*
X0067485Y0124914D02*
X0050024Y0124914D01*
X0050024Y0126113D02*
X0067485Y0126113D01*
X0067485Y0127311D02*
X0050025Y0127311D01*
X0050026Y0128510D02*
X0067485Y0128510D01*
X0067485Y0129708D02*
X0050026Y0129708D01*
X0050027Y0130907D02*
X0067485Y0130907D01*
X0067485Y0132105D02*
X0050027Y0132105D01*
X0050028Y0133304D02*
X0067485Y0133304D01*
X0067485Y0134502D02*
X0050028Y0134502D01*
X0050029Y0135701D02*
X0067485Y0135701D01*
X0067485Y0136899D02*
X0050030Y0136899D01*
X0050030Y0138098D02*
X0067485Y0138098D01*
X0067485Y0139296D02*
X0050031Y0139296D01*
X0050031Y0140495D02*
X0067485Y0140495D01*
X0067485Y0141693D02*
X0050032Y0141693D01*
X0050032Y0142892D02*
X0067485Y0142892D01*
X0067485Y0144090D02*
X0050033Y0144090D01*
X0050034Y0145289D02*
X0067485Y0145289D01*
X0067485Y0146487D02*
X0050034Y0146487D01*
X0050035Y0147686D02*
X0067485Y0147686D01*
X0067485Y0148884D02*
X0045235Y0148884D01*
X0045235Y0148336D02*
X0045235Y0151460D01*
X0048735Y0151460D01*
X0048735Y0154460D01*
X0067485Y0154460D01*
X0067485Y0043960D01*
X0049985Y0043960D01*
X0050035Y0148235D01*
X0045920Y0148214D01*
X0045797Y0148336D01*
X0045235Y0148336D01*
X0045235Y0150083D02*
X0067485Y0150083D01*
X0067485Y0151281D02*
X0045235Y0151281D01*
X0048735Y0152480D02*
X0067485Y0152480D01*
X0067485Y0153678D02*
X0048735Y0153678D01*
X0048235Y0164460D02*
X0048235Y0167710D01*
X0045235Y0167710D01*
X0045235Y0175710D01*
X0041985Y0178960D01*
X0042235Y0192460D01*
X0054735Y0192460D01*
X0054735Y0234960D01*
X0062235Y0247460D01*
X0069735Y0247460D01*
X0074735Y0234960D01*
X0074735Y0167460D01*
X0051735Y0167460D01*
X0051735Y0164460D01*
X0048235Y0164460D01*
X0048235Y0164465D02*
X0051735Y0164465D01*
X0051735Y0165663D02*
X0048235Y0165663D01*
X0048235Y0166862D02*
X0051735Y0166862D01*
X0049895Y0167525D02*
X0049895Y0164625D01*
X0049895Y0167525D02*
X0047895Y0169525D01*
X0045995Y0169525D01*
X0045495Y0169025D01*
X0045495Y0178719D01*
X0044135Y0179525D01*
X0043296Y0177649D02*
X0074735Y0177649D01*
X0074735Y0178847D02*
X0042098Y0178847D01*
X0042005Y0180046D02*
X0074735Y0180046D01*
X0074735Y0181244D02*
X0042027Y0181244D01*
X0042049Y0182443D02*
X0074735Y0182443D01*
X0074735Y0183641D02*
X0042072Y0183641D01*
X0042094Y0184840D02*
X0074735Y0184840D01*
X0074735Y0186038D02*
X0042116Y0186038D01*
X0042138Y0187237D02*
X0074735Y0187237D01*
X0074735Y0188435D02*
X0042160Y0188435D01*
X0042183Y0189634D02*
X0074735Y0189634D01*
X0074735Y0190832D02*
X0042205Y0190832D01*
X0042227Y0192031D02*
X0074735Y0192031D01*
X0074735Y0193229D02*
X0054735Y0193229D01*
X0054735Y0194428D02*
X0074735Y0194428D01*
X0074735Y0195626D02*
X0054735Y0195626D01*
X0054735Y0196825D02*
X0074735Y0196825D01*
X0074735Y0198023D02*
X0054735Y0198023D01*
X0054735Y0199222D02*
X0074735Y0199222D01*
X0074735Y0200420D02*
X0054735Y0200420D01*
X0054735Y0201619D02*
X0074735Y0201619D01*
X0074735Y0202817D02*
X0054735Y0202817D01*
X0054735Y0204016D02*
X0074735Y0204016D01*
X0074735Y0205214D02*
X0054735Y0205214D01*
X0054735Y0206413D02*
X0074735Y0206413D01*
X0074735Y0207611D02*
X0054735Y0207611D01*
X0054735Y0208810D02*
X0074735Y0208810D01*
X0074735Y0210008D02*
X0054735Y0210008D01*
X0054735Y0211207D02*
X0074735Y0211207D01*
X0074735Y0212405D02*
X0054735Y0212405D01*
X0054735Y0213604D02*
X0074735Y0213604D01*
X0074735Y0214802D02*
X0054735Y0214802D01*
X0054735Y0216001D02*
X0074735Y0216001D01*
X0074735Y0217199D02*
X0054735Y0217199D01*
X0054735Y0218398D02*
X0074735Y0218398D01*
X0074735Y0219597D02*
X0054735Y0219597D01*
X0054735Y0220795D02*
X0074735Y0220795D01*
X0074735Y0221994D02*
X0054735Y0221994D01*
X0054735Y0223192D02*
X0074735Y0223192D01*
X0074735Y0224391D02*
X0054735Y0224391D01*
X0054735Y0225589D02*
X0074735Y0225589D01*
X0074735Y0226788D02*
X0054735Y0226788D01*
X0054735Y0227986D02*
X0074735Y0227986D01*
X0074735Y0229185D02*
X0054735Y0229185D01*
X0054735Y0230383D02*
X0074735Y0230383D01*
X0074735Y0231582D02*
X0054735Y0231582D01*
X0054735Y0232780D02*
X0074735Y0232780D01*
X0074735Y0233979D02*
X0054735Y0233979D01*
X0054865Y0235177D02*
X0074648Y0235177D01*
X0074169Y0236376D02*
X0055584Y0236376D01*
X0056304Y0237574D02*
X0073689Y0237574D01*
X0073210Y0238773D02*
X0057023Y0238773D01*
X0057742Y0239971D02*
X0072731Y0239971D01*
X0072251Y0241170D02*
X0058461Y0241170D01*
X0059180Y0242368D02*
X0071772Y0242368D01*
X0071292Y0243567D02*
X0059899Y0243567D01*
X0060618Y0244765D02*
X0070813Y0244765D01*
X0070334Y0245964D02*
X0061337Y0245964D01*
X0062056Y0247162D02*
X0069854Y0247162D01*
X0074735Y0176450D02*
X0044495Y0176450D01*
X0045235Y0175252D02*
X0074735Y0175252D01*
X0074735Y0174053D02*
X0045235Y0174053D01*
X0045235Y0172855D02*
X0074735Y0172855D01*
X0074735Y0171656D02*
X0045235Y0171656D01*
X0045235Y0170458D02*
X0074735Y0170458D01*
X0074735Y0169259D02*
X0045235Y0169259D01*
X0045235Y0168061D02*
X0074735Y0168061D01*
X0037895Y0162025D02*
X0037795Y0162125D01*
X0030895Y0162125D01*
X0050005Y0085363D02*
X0067485Y0085363D01*
X0067485Y0084165D02*
X0050004Y0084165D01*
X0050004Y0082966D02*
X0067485Y0082966D01*
X0067485Y0081768D02*
X0050003Y0081768D01*
X0050003Y0080569D02*
X0067485Y0080569D01*
X0067485Y0079371D02*
X0050002Y0079371D01*
X0050001Y0078172D02*
X0067485Y0078172D01*
X0067485Y0076974D02*
X0050001Y0076974D01*
X0050000Y0075775D02*
X0067485Y0075775D01*
X0067485Y0074577D02*
X0050000Y0074577D01*
X0049999Y0073378D02*
X0067485Y0073378D01*
X0067485Y0072180D02*
X0049999Y0072180D01*
X0049998Y0070981D02*
X0067485Y0070981D01*
X0067485Y0069783D02*
X0049997Y0069783D01*
X0049997Y0068584D02*
X0067485Y0068584D01*
X0067485Y0067386D02*
X0049996Y0067386D01*
X0049996Y0066187D02*
X0067485Y0066187D01*
X0067485Y0064989D02*
X0049995Y0064989D01*
X0049995Y0063790D02*
X0067485Y0063790D01*
X0067485Y0062592D02*
X0049994Y0062592D01*
X0049993Y0061393D02*
X0067485Y0061393D01*
X0067485Y0060195D02*
X0049993Y0060195D01*
X0049992Y0058996D02*
X0067485Y0058996D01*
X0067485Y0057797D02*
X0049992Y0057797D01*
X0049991Y0056599D02*
X0067485Y0056599D01*
X0067485Y0055400D02*
X0049990Y0055400D01*
X0049990Y0054202D02*
X0067485Y0054202D01*
X0067485Y0053003D02*
X0049989Y0053003D01*
X0049989Y0051805D02*
X0067485Y0051805D01*
X0067485Y0050606D02*
X0049988Y0050606D01*
X0049988Y0049408D02*
X0067485Y0049408D01*
X0067485Y0048209D02*
X0049987Y0048209D01*
X0049986Y0047011D02*
X0067485Y0047011D01*
X0067485Y0045812D02*
X0049986Y0045812D01*
X0049985Y0044614D02*
X0067485Y0044614D01*
X0120895Y0162125D02*
X0127795Y0162125D01*
X0127895Y0162025D01*
X0135485Y0167710D02*
X0135485Y0179460D01*
X0132235Y0182710D01*
X0132235Y0229960D01*
X0124735Y0229960D01*
X0124735Y0247460D01*
X0132235Y0247460D01*
X0149235Y0234960D01*
X0149235Y0167710D01*
X0143485Y0167710D01*
X0143485Y0164460D01*
X0137985Y0164460D01*
X0137985Y0167710D01*
X0135485Y0167710D01*
X0135485Y0168061D02*
X0149235Y0168061D01*
X0149235Y0169259D02*
X0135485Y0169259D01*
X0135495Y0169025D02*
X0135495Y0178719D01*
X0134135Y0179525D01*
X0134899Y0180046D02*
X0149235Y0180046D01*
X0149235Y0181244D02*
X0133701Y0181244D01*
X0132502Y0182443D02*
X0149235Y0182443D01*
X0149235Y0183641D02*
X0132235Y0183641D01*
X0132235Y0184840D02*
X0149235Y0184840D01*
X0149235Y0186038D02*
X0132235Y0186038D01*
X0132235Y0187237D02*
X0149235Y0187237D01*
X0149235Y0188435D02*
X0132235Y0188435D01*
X0132235Y0189634D02*
X0149235Y0189634D01*
X0149235Y0190832D02*
X0132235Y0190832D01*
X0132235Y0192031D02*
X0149235Y0192031D01*
X0149235Y0193229D02*
X0132235Y0193229D01*
X0132235Y0194428D02*
X0149235Y0194428D01*
X0149235Y0195626D02*
X0132235Y0195626D01*
X0132235Y0196825D02*
X0149235Y0196825D01*
X0149235Y0198023D02*
X0132235Y0198023D01*
X0132235Y0199222D02*
X0149235Y0199222D01*
X0149235Y0200420D02*
X0132235Y0200420D01*
X0132235Y0201619D02*
X0149235Y0201619D01*
X0149235Y0202817D02*
X0132235Y0202817D01*
X0132235Y0204016D02*
X0149235Y0204016D01*
X0149235Y0205214D02*
X0132235Y0205214D01*
X0132235Y0206413D02*
X0149235Y0206413D01*
X0149235Y0207611D02*
X0132235Y0207611D01*
X0132235Y0208810D02*
X0149235Y0208810D01*
X0149235Y0210008D02*
X0132235Y0210008D01*
X0132235Y0211207D02*
X0149235Y0211207D01*
X0149235Y0212405D02*
X0132235Y0212405D01*
X0132235Y0213604D02*
X0149235Y0213604D01*
X0149235Y0214802D02*
X0132235Y0214802D01*
X0132235Y0216001D02*
X0149235Y0216001D01*
X0149235Y0217199D02*
X0132235Y0217199D01*
X0132235Y0218398D02*
X0149235Y0218398D01*
X0149235Y0219597D02*
X0132235Y0219597D01*
X0132235Y0220795D02*
X0149235Y0220795D01*
X0149235Y0221994D02*
X0132235Y0221994D01*
X0132235Y0223192D02*
X0149235Y0223192D01*
X0149235Y0224391D02*
X0132235Y0224391D01*
X0132235Y0225589D02*
X0149235Y0225589D01*
X0149235Y0226788D02*
X0132235Y0226788D01*
X0132235Y0227986D02*
X0149235Y0227986D01*
X0149235Y0229185D02*
X0132235Y0229185D01*
X0124735Y0241170D02*
X0140790Y0241170D01*
X0139160Y0242368D02*
X0124735Y0242368D01*
X0124735Y0243567D02*
X0137530Y0243567D01*
X0135900Y0244765D02*
X0124735Y0244765D01*
X0124735Y0245964D02*
X0134270Y0245964D01*
X0132640Y0247162D02*
X0124735Y0247162D01*
X0124735Y0239971D02*
X0142420Y0239971D01*
X0144050Y0238773D02*
X0124735Y0238773D01*
X0124735Y0237574D02*
X0145680Y0237574D01*
X0147310Y0236376D02*
X0124735Y0236376D01*
X0124735Y0235177D02*
X0148940Y0235177D01*
X0149235Y0233979D02*
X0124735Y0233979D01*
X0124735Y0232780D02*
X0149235Y0232780D01*
X0149235Y0231582D02*
X0124735Y0231582D01*
X0124735Y0230383D02*
X0149235Y0230383D01*
X0149235Y0178847D02*
X0135485Y0178847D01*
X0135485Y0177649D02*
X0149235Y0177649D01*
X0149235Y0176450D02*
X0135485Y0176450D01*
X0135485Y0175252D02*
X0149235Y0175252D01*
X0149235Y0174053D02*
X0135485Y0174053D01*
X0135485Y0172855D02*
X0149235Y0172855D01*
X0149235Y0171656D02*
X0135485Y0171656D01*
X0135485Y0170458D02*
X0149235Y0170458D01*
X0143485Y0166862D02*
X0137985Y0166862D01*
X0137985Y0165663D02*
X0143485Y0165663D01*
X0143485Y0164465D02*
X0137985Y0164465D01*
X0139895Y0164625D02*
X0139895Y0167525D01*
X0137895Y0169525D01*
X0135995Y0169525D01*
X0135495Y0169025D01*
D30*
X0056825Y0114325D02*
X0057550Y0111050D01*
X0057235Y0052460D02*
X0056575Y0051800D01*
X0041800Y0051800D01*
X0131800Y0051800D02*
X0146575Y0051800D01*
X0147235Y0052460D01*
D31*
X0140717Y0141460D02*
X0131735Y0141460D01*
X0130964Y0142231D01*
X0130954Y0142231D01*
X0130310Y0142876D01*
X0130310Y0147724D01*
X0130395Y0147809D01*
X0130395Y0150025D01*
X0137985Y0149210D02*
X0138235Y0149460D01*
X0141601Y0141826D02*
X0141550Y0141778D01*
X0141496Y0141733D01*
X0141440Y0141691D01*
X0141382Y0141652D01*
X0141322Y0141616D01*
X0141259Y0141584D01*
X0141195Y0141555D01*
X0141130Y0141530D01*
X0141063Y0141509D01*
X0140995Y0141491D01*
X0140926Y0141478D01*
X0140857Y0141468D01*
X0140787Y0141462D01*
X0140717Y0141460D01*
X0141601Y0141826D02*
X0142235Y0142460D01*
X0052235Y0142460D02*
X0052140Y0142365D01*
X0051256Y0141999D02*
X0040472Y0141999D01*
X0039828Y0142644D01*
X0039828Y0147492D01*
X0040395Y0148059D01*
X0040395Y0150025D01*
X0045495Y0150025D02*
X0047235Y0148285D01*
X0051256Y0141999D02*
X0051326Y0142001D01*
X0051396Y0142007D01*
X0051465Y0142017D01*
X0051534Y0142030D01*
X0051602Y0142048D01*
X0051669Y0142069D01*
X0051734Y0142094D01*
X0051798Y0142123D01*
X0051861Y0142155D01*
X0051921Y0142191D01*
X0051979Y0142230D01*
X0052035Y0142272D01*
X0052089Y0142317D01*
X0052140Y0142365D01*
D32*
X0067235Y0207460D02*
X0065967Y0208728D01*
X0065967Y0241898D01*
X0131717Y0241898D02*
X0132797Y0241898D01*
X0137235Y0237460D01*
X0137235Y0202460D01*
D33*
X0127049Y0187025D02*
X0126655Y0186631D01*
X0126655Y0179525D01*
X0125415Y0180765D01*
X0115395Y0180765D01*
X0037049Y0187025D02*
X0036655Y0186631D01*
X0036655Y0179525D01*
X0035415Y0180765D01*
X0025395Y0180765D01*
D34*
X0008600Y0258701D02*
X0008600Y0008600D01*
X0016010Y0008600D01*
X0013899Y0009819D01*
X0012019Y0011699D01*
X0010689Y0014002D01*
X0010001Y0016570D01*
X0010001Y0019230D01*
X0010689Y0021798D01*
X0012019Y0024101D01*
X0013899Y0025981D01*
X0016202Y0027311D01*
X0018770Y0027999D01*
X0021430Y0027999D01*
X0023998Y0027311D01*
X0026301Y0025981D01*
X0028181Y0024101D01*
X0029511Y0021798D01*
X0030199Y0019230D01*
X0030199Y0016570D01*
X0029511Y0014002D01*
X0028181Y0011699D01*
X0026301Y0009819D01*
X0024190Y0008600D01*
X0089200Y0008600D01*
X0089200Y0074610D01*
X0077822Y0074610D01*
X0076885Y0075547D01*
X0076885Y0141873D01*
X0077822Y0142810D01*
X0089200Y0142810D01*
X0089200Y0206386D01*
X0088099Y0205285D01*
X0086445Y0204600D01*
X0084655Y0204600D01*
X0083001Y0205285D01*
X0081735Y0206551D01*
X0081135Y0208000D01*
X0078149Y0208000D01*
X0077135Y0206986D01*
X0077135Y0166983D01*
X0076770Y0166101D01*
X0076094Y0165425D01*
X0075212Y0165060D01*
X0054135Y0165060D01*
X0054135Y0163983D01*
X0053770Y0163101D01*
X0053094Y0162425D01*
X0052747Y0162281D01*
X0052541Y0162075D01*
X0052249Y0162075D01*
X0052212Y0162060D01*
X0047758Y0162060D01*
X0047721Y0162075D01*
X0047249Y0162075D01*
X0046916Y0162409D01*
X0046876Y0162425D01*
X0046200Y0163101D01*
X0045835Y0163983D01*
X0045835Y0165310D01*
X0044758Y0165310D01*
X0044721Y0165325D01*
X0034595Y0165325D01*
X0034595Y0163129D01*
X0033541Y0162075D01*
X0028249Y0162075D01*
X0027195Y0161021D01*
X0027195Y0152929D01*
X0028249Y0151875D01*
X0032745Y0151875D01*
X0032745Y0147379D01*
X0033799Y0146325D01*
X0037628Y0146325D01*
X0037628Y0141732D01*
X0038272Y0141088D01*
X0039561Y0139799D01*
X0047631Y0139799D01*
X0047592Y0057537D01*
X0040659Y0057537D01*
X0038550Y0056664D01*
X0036936Y0055050D01*
X0036063Y0052941D01*
X0036063Y0050659D01*
X0036936Y0048550D01*
X0038550Y0046936D01*
X0040659Y0046063D01*
X0047586Y0046063D01*
X0047585Y0044438D01*
X0047585Y0044437D01*
X0047585Y0043971D01*
X0047585Y0043484D01*
X0047585Y0043483D01*
X0047585Y0043483D01*
X0047766Y0043047D01*
X0047950Y0042601D01*
X0047950Y0042601D01*
X0047950Y0042601D01*
X0048287Y0042264D01*
X0048625Y0041926D01*
X0048626Y0041925D01*
X0049069Y0041742D01*
X0049506Y0041560D01*
X0049507Y0041560D01*
X0049508Y0041560D01*
X0049984Y0041560D01*
X0050461Y0041560D01*
X0050462Y0041560D01*
X0067962Y0041560D01*
X0068844Y0041925D01*
X0069520Y0042601D01*
X0069885Y0043483D01*
X0069885Y0154937D01*
X0069520Y0155819D01*
X0068844Y0156495D01*
X0067962Y0156860D01*
X0052656Y0156860D01*
X0052541Y0156975D01*
X0047249Y0156975D01*
X0046195Y0155921D01*
X0046195Y0153860D01*
X0044758Y0153860D01*
X0044432Y0153725D01*
X0034595Y0153725D01*
X0034595Y0161021D01*
X0033541Y0162075D01*
X0028249Y0162075D01*
X0027195Y0163129D01*
X0027195Y0166121D01*
X0028249Y0167175D01*
X0032745Y0167175D01*
X0032745Y0171671D01*
X0033799Y0172725D01*
X0035793Y0172725D01*
X0035762Y0172756D01*
X0035762Y0172756D01*
X0035031Y0173487D01*
X0034635Y0174443D01*
X0034635Y0174772D01*
X0033350Y0174772D01*
X0032296Y0175827D01*
X0032296Y0177765D01*
X0030148Y0177765D01*
X0030148Y0177461D01*
X0029093Y0176406D01*
X0021697Y0176406D01*
X0020642Y0177461D01*
X0020642Y0184070D01*
X0021697Y0185124D01*
X0029093Y0185124D01*
X0030148Y0184070D01*
X0030148Y0183765D01*
X0032838Y0183765D01*
X0033233Y0184161D01*
X0033083Y0184311D01*
X0033083Y0189739D01*
X0034138Y0190793D01*
X0039804Y0190793D01*
X0039835Y0192482D01*
X0039835Y0192937D01*
X0039844Y0192959D01*
X0039844Y0192982D01*
X0040026Y0193399D01*
X0040200Y0193819D01*
X0040217Y0193836D01*
X0040226Y0193857D01*
X0040554Y0194173D01*
X0040876Y0194495D01*
X0040897Y0194503D01*
X0040913Y0194519D01*
X0041337Y0194686D01*
X0041758Y0194860D01*
X0041781Y0194860D01*
X0041802Y0194868D01*
X0042257Y0194860D01*
X0052335Y0194860D01*
X0052335Y0234665D01*
X0052291Y0234841D01*
X0052335Y0235138D01*
X0052335Y0235437D01*
X0052405Y0235605D01*
X0052431Y0235785D01*
X0052586Y0236042D01*
X0052700Y0236319D01*
X0052829Y0236448D01*
X0060086Y0248543D01*
X0060200Y0248819D01*
X0060329Y0248948D01*
X0060423Y0249104D01*
X0060664Y0249283D01*
X0060876Y0249495D01*
X0061044Y0249564D01*
X0061190Y0249673D01*
X0061481Y0249745D01*
X0061758Y0249860D01*
X0061940Y0249860D01*
X0062116Y0249904D01*
X0062413Y0249860D01*
X0069273Y0249860D01*
X0069287Y0249866D01*
X0069750Y0249860D01*
X0070212Y0249860D01*
X0070226Y0249854D01*
X0070242Y0249854D01*
X0070667Y0249672D01*
X0071094Y0249495D01*
X0071105Y0249484D01*
X0071119Y0249478D01*
X0071442Y0249147D01*
X0071770Y0248819D01*
X0071775Y0248805D01*
X0071786Y0248795D01*
X0071958Y0248365D01*
X0072135Y0247937D01*
X0072135Y0247922D01*
X0076958Y0235864D01*
X0077135Y0235437D01*
X0077135Y0235422D01*
X0077141Y0235408D01*
X0077135Y0234945D01*
X0077135Y0215600D01*
X0081135Y0215600D01*
X0081735Y0217049D01*
X0083001Y0218315D01*
X0084655Y0219000D01*
X0086445Y0219000D01*
X0088099Y0218315D01*
X0089200Y0217214D01*
X0089200Y0258701D01*
X0008600Y0258701D01*
X0008600Y0258426D02*
X0089200Y0258426D01*
X0089200Y0256828D02*
X0023396Y0256828D01*
X0023130Y0256899D02*
X0020470Y0256899D01*
X0017902Y0256211D01*
X0015599Y0254881D01*
X0013719Y0253001D01*
X0012389Y0250698D01*
X0011701Y0248130D01*
X0011701Y0245470D01*
X0012389Y0242902D01*
X0013719Y0240599D01*
X0015599Y0238719D01*
X0017902Y0237389D01*
X0020470Y0236701D01*
X0023130Y0236701D01*
X0025698Y0237389D01*
X0028001Y0238719D01*
X0029881Y0240599D01*
X0031211Y0242902D01*
X0031899Y0245470D01*
X0031899Y0248130D01*
X0031211Y0250698D01*
X0029881Y0253001D01*
X0028001Y0254881D01*
X0025698Y0256211D01*
X0023130Y0256899D01*
X0020204Y0256828D02*
X0008600Y0256828D01*
X0008600Y0255229D02*
X0016201Y0255229D01*
X0014348Y0253631D02*
X0008600Y0253631D01*
X0008600Y0252032D02*
X0013159Y0252032D01*
X0012318Y0250434D02*
X0008600Y0250434D01*
X0008600Y0248835D02*
X0011890Y0248835D01*
X0011701Y0247237D02*
X0008600Y0247237D01*
X0008600Y0245638D02*
X0011701Y0245638D01*
X0012084Y0244040D02*
X0008600Y0244040D01*
X0008600Y0242441D02*
X0012655Y0242441D01*
X0013578Y0240843D02*
X0008600Y0240843D01*
X0008600Y0239244D02*
X0015073Y0239244D01*
X0017457Y0237646D02*
X0008600Y0237646D01*
X0008600Y0236047D02*
X0052588Y0236047D01*
X0052335Y0234449D02*
X0008600Y0234449D01*
X0008600Y0232850D02*
X0052335Y0232850D01*
X0052335Y0231252D02*
X0008600Y0231252D01*
X0008600Y0229653D02*
X0052335Y0229653D01*
X0052335Y0228055D02*
X0008600Y0228055D01*
X0008600Y0226456D02*
X0052335Y0226456D01*
X0052335Y0224858D02*
X0008600Y0224858D01*
X0008600Y0223259D02*
X0052335Y0223259D01*
X0052335Y0221661D02*
X0008600Y0221661D01*
X0008600Y0220062D02*
X0052335Y0220062D01*
X0052335Y0218463D02*
X0008600Y0218463D01*
X0008600Y0216865D02*
X0052335Y0216865D01*
X0052335Y0215266D02*
X0008600Y0215266D01*
X0008600Y0213668D02*
X0052335Y0213668D01*
X0052335Y0212069D02*
X0008600Y0212069D01*
X0008600Y0210471D02*
X0052335Y0210471D01*
X0052335Y0208872D02*
X0008600Y0208872D01*
X0008600Y0207274D02*
X0052335Y0207274D01*
X0052335Y0205675D02*
X0008600Y0205675D01*
X0008600Y0204077D02*
X0052335Y0204077D01*
X0052335Y0202478D02*
X0008600Y0202478D01*
X0008600Y0200880D02*
X0052335Y0200880D01*
X0052335Y0199281D02*
X0008600Y0199281D01*
X0008600Y0197683D02*
X0052335Y0197683D01*
X0052335Y0196084D02*
X0008600Y0196084D01*
X0008600Y0194486D02*
X0040867Y0194486D01*
X0039835Y0192887D02*
X0008600Y0192887D01*
X0008600Y0191289D02*
X0039813Y0191289D01*
X0033083Y0189690D02*
X0008600Y0189690D01*
X0008600Y0188092D02*
X0033083Y0188092D01*
X0033083Y0186493D02*
X0008600Y0186493D01*
X0008600Y0184895D02*
X0021467Y0184895D01*
X0020642Y0183296D02*
X0008600Y0183296D01*
X0008600Y0181698D02*
X0020642Y0181698D01*
X0020642Y0180099D02*
X0008600Y0180099D01*
X0008600Y0178501D02*
X0020642Y0178501D01*
X0021201Y0176902D02*
X0008600Y0176902D01*
X0008600Y0175304D02*
X0032819Y0175304D01*
X0032296Y0176902D02*
X0029589Y0176902D01*
X0033181Y0172107D02*
X0008600Y0172107D01*
X0008600Y0173705D02*
X0034941Y0173705D01*
X0037235Y0174960D02*
X0037235Y0178945D01*
X0036655Y0179525D01*
X0037235Y0174960D02*
X0040395Y0171800D01*
X0040395Y0169025D01*
X0045835Y0164114D02*
X0034595Y0164114D01*
X0033981Y0162516D02*
X0046785Y0162516D01*
X0046396Y0156122D02*
X0034595Y0156122D01*
X0034595Y0157720D02*
X0089200Y0157720D01*
X0089200Y0156122D02*
X0069218Y0156122D01*
X0069885Y0154523D02*
X0089200Y0154523D01*
X0089200Y0152925D02*
X0069885Y0152925D01*
X0069885Y0151326D02*
X0089200Y0151326D01*
X0089200Y0149728D02*
X0069885Y0149728D01*
X0069885Y0148129D02*
X0089200Y0148129D01*
X0089200Y0146530D02*
X0069885Y0146530D01*
X0069885Y0144932D02*
X0089200Y0144932D01*
X0089200Y0143333D02*
X0069885Y0143333D01*
X0069885Y0141735D02*
X0076885Y0141735D01*
X0076885Y0140136D02*
X0069885Y0140136D01*
X0069885Y0138538D02*
X0076885Y0138538D01*
X0076885Y0136939D02*
X0069885Y0136939D01*
X0069885Y0135341D02*
X0076885Y0135341D01*
X0076885Y0133742D02*
X0069885Y0133742D01*
X0069885Y0132144D02*
X0076885Y0132144D01*
X0076885Y0130545D02*
X0069885Y0130545D01*
X0069885Y0128947D02*
X0076885Y0128947D01*
X0076885Y0127348D02*
X0069885Y0127348D01*
X0069885Y0125750D02*
X0076885Y0125750D01*
X0076885Y0124151D02*
X0069885Y0124151D01*
X0069885Y0122553D02*
X0076885Y0122553D01*
X0076885Y0120954D02*
X0069885Y0120954D01*
X0069885Y0119356D02*
X0076885Y0119356D01*
X0076885Y0117757D02*
X0069885Y0117757D01*
X0069885Y0116159D02*
X0076885Y0116159D01*
X0076885Y0114560D02*
X0069885Y0114560D01*
X0069885Y0112962D02*
X0076885Y0112962D01*
X0076885Y0111363D02*
X0069885Y0111363D01*
X0069885Y0109765D02*
X0076885Y0109765D01*
X0076885Y0108166D02*
X0069885Y0108166D01*
X0069885Y0106568D02*
X0076885Y0106568D01*
X0076885Y0104969D02*
X0069885Y0104969D01*
X0069885Y0103371D02*
X0076885Y0103371D01*
X0076885Y0101772D02*
X0069885Y0101772D01*
X0069885Y0100174D02*
X0076885Y0100174D01*
X0076885Y0098575D02*
X0069885Y0098575D01*
X0069885Y0096977D02*
X0076885Y0096977D01*
X0076885Y0095378D02*
X0069885Y0095378D01*
X0069885Y0093780D02*
X0076885Y0093780D01*
X0076885Y0092181D02*
X0069885Y0092181D01*
X0069885Y0090583D02*
X0076885Y0090583D01*
X0076885Y0088984D02*
X0069885Y0088984D01*
X0069885Y0087386D02*
X0076885Y0087386D01*
X0076885Y0085787D02*
X0069885Y0085787D01*
X0069885Y0084189D02*
X0076885Y0084189D01*
X0076885Y0082590D02*
X0069885Y0082590D01*
X0069885Y0080992D02*
X0076885Y0080992D01*
X0076885Y0079393D02*
X0069885Y0079393D01*
X0069885Y0077795D02*
X0076885Y0077795D01*
X0076885Y0076196D02*
X0069885Y0076196D01*
X0069885Y0074597D02*
X0089200Y0074597D01*
X0089200Y0072999D02*
X0069885Y0072999D01*
X0069885Y0071400D02*
X0089200Y0071400D01*
X0089200Y0069802D02*
X0069885Y0069802D01*
X0069885Y0068203D02*
X0089200Y0068203D01*
X0089200Y0066605D02*
X0069885Y0066605D01*
X0069885Y0065006D02*
X0089200Y0065006D01*
X0089200Y0063408D02*
X0069885Y0063408D01*
X0069885Y0061809D02*
X0089200Y0061809D01*
X0089200Y0060211D02*
X0069885Y0060211D01*
X0069885Y0058612D02*
X0089200Y0058612D01*
X0089200Y0057014D02*
X0069885Y0057014D01*
X0069885Y0055415D02*
X0089200Y0055415D01*
X0089200Y0053817D02*
X0069885Y0053817D01*
X0069885Y0052218D02*
X0089200Y0052218D01*
X0089200Y0050620D02*
X0069885Y0050620D01*
X0069885Y0049021D02*
X0089200Y0049021D01*
X0089200Y0047423D02*
X0069885Y0047423D01*
X0069885Y0045824D02*
X0089200Y0045824D01*
X0089200Y0044226D02*
X0069885Y0044226D01*
X0069531Y0042627D02*
X0089200Y0042627D01*
X0089200Y0041029D02*
X0008600Y0041029D01*
X0008600Y0042627D02*
X0047939Y0042627D01*
X0048625Y0041926D02*
X0048625Y0041926D01*
X0047585Y0044226D02*
X0008600Y0044226D01*
X0008600Y0045824D02*
X0047586Y0045824D01*
X0047592Y0058612D02*
X0008600Y0058612D01*
X0008600Y0057014D02*
X0019094Y0057014D01*
X0019480Y0057400D02*
X0016200Y0054120D01*
X0016200Y0049480D01*
X0019480Y0046200D01*
X0024120Y0046200D01*
X0027400Y0049480D01*
X0027400Y0054120D01*
X0024120Y0057400D01*
X0019480Y0057400D01*
X0017496Y0055415D02*
X0008600Y0055415D01*
X0008600Y0053817D02*
X0016200Y0053817D01*
X0016200Y0052218D02*
X0008600Y0052218D01*
X0008600Y0050620D02*
X0016200Y0050620D01*
X0016659Y0049021D02*
X0008600Y0049021D01*
X0008600Y0047423D02*
X0018258Y0047423D01*
X0025342Y0047423D02*
X0038064Y0047423D01*
X0036741Y0049021D02*
X0026941Y0049021D01*
X0027400Y0050620D02*
X0036079Y0050620D01*
X0036063Y0052218D02*
X0027400Y0052218D01*
X0027400Y0053817D02*
X0036426Y0053817D01*
X0037302Y0055415D02*
X0026104Y0055415D01*
X0024506Y0057014D02*
X0039396Y0057014D01*
X0039480Y0066200D02*
X0044120Y0066200D01*
X0047400Y0069480D01*
X0047400Y0074120D01*
X0044120Y0077400D01*
X0039480Y0077400D01*
X0036200Y0074120D01*
X0036200Y0069480D01*
X0039480Y0066200D01*
X0039075Y0066605D02*
X0008600Y0066605D01*
X0008600Y0068203D02*
X0037477Y0068203D01*
X0036200Y0069802D02*
X0008600Y0069802D01*
X0008600Y0071400D02*
X0036200Y0071400D01*
X0036200Y0072999D02*
X0008600Y0072999D01*
X0008600Y0074597D02*
X0036678Y0074597D01*
X0038276Y0076196D02*
X0008600Y0076196D01*
X0008600Y0077795D02*
X0047601Y0077795D01*
X0047602Y0079393D02*
X0008600Y0079393D01*
X0008600Y0080992D02*
X0047603Y0080992D01*
X0047604Y0082590D02*
X0008600Y0082590D01*
X0008600Y0084189D02*
X0047604Y0084189D01*
X0047605Y0085787D02*
X0008600Y0085787D01*
X0008600Y0087386D02*
X0047606Y0087386D01*
X0047607Y0088984D02*
X0008600Y0088984D01*
X0008600Y0090583D02*
X0047607Y0090583D01*
X0047608Y0092181D02*
X0008600Y0092181D01*
X0008600Y0093780D02*
X0047609Y0093780D01*
X0047610Y0095378D02*
X0008600Y0095378D01*
X0008600Y0096977D02*
X0047610Y0096977D01*
X0047611Y0098575D02*
X0008600Y0098575D01*
X0008600Y0100174D02*
X0047612Y0100174D01*
X0047613Y0101772D02*
X0008600Y0101772D01*
X0008600Y0103371D02*
X0047613Y0103371D01*
X0047614Y0104969D02*
X0008600Y0104969D01*
X0008600Y0106568D02*
X0047615Y0106568D01*
X0047616Y0108166D02*
X0008600Y0108166D01*
X0008600Y0109765D02*
X0047617Y0109765D01*
X0047617Y0111363D02*
X0008600Y0111363D01*
X0008600Y0112962D02*
X0047618Y0112962D01*
X0047619Y0114560D02*
X0008600Y0114560D01*
X0008600Y0116159D02*
X0047620Y0116159D01*
X0047620Y0117757D02*
X0008600Y0117757D01*
X0008600Y0119356D02*
X0047621Y0119356D01*
X0047622Y0120954D02*
X0008600Y0120954D01*
X0008600Y0122553D02*
X0047623Y0122553D01*
X0047623Y0124151D02*
X0008600Y0124151D01*
X0008600Y0125750D02*
X0047624Y0125750D01*
X0047625Y0127348D02*
X0008600Y0127348D01*
X0008600Y0128947D02*
X0047626Y0128947D01*
X0047627Y0130545D02*
X0008600Y0130545D01*
X0008600Y0132144D02*
X0047627Y0132144D01*
X0047628Y0133742D02*
X0008600Y0133742D01*
X0008600Y0135341D02*
X0047629Y0135341D01*
X0047630Y0136939D02*
X0008600Y0136939D01*
X0008600Y0138538D02*
X0047630Y0138538D01*
X0043093Y0145068D02*
X0042995Y0145166D01*
X0042995Y0150025D01*
X0046195Y0154523D02*
X0034595Y0154523D01*
X0032745Y0151326D02*
X0008600Y0151326D01*
X0008600Y0149728D02*
X0032745Y0149728D01*
X0032745Y0148129D02*
X0008600Y0148129D01*
X0008600Y0146530D02*
X0033594Y0146530D01*
X0037628Y0144932D02*
X0008600Y0144932D01*
X0008600Y0143333D02*
X0037628Y0143333D01*
X0037628Y0141735D02*
X0008600Y0141735D01*
X0008600Y0140136D02*
X0039224Y0140136D01*
X0038272Y0141088D02*
X0038272Y0141088D01*
X0027200Y0152925D02*
X0008600Y0152925D01*
X0008600Y0154523D02*
X0027195Y0154523D01*
X0027195Y0156122D02*
X0008600Y0156122D01*
X0008600Y0157720D02*
X0027195Y0157720D01*
X0027195Y0159319D02*
X0008600Y0159319D01*
X0008600Y0160917D02*
X0027195Y0160917D01*
X0027809Y0162516D02*
X0008600Y0162516D01*
X0008600Y0164114D02*
X0027195Y0164114D01*
X0027195Y0165713D02*
X0008600Y0165713D01*
X0008600Y0167311D02*
X0032745Y0167311D01*
X0032745Y0168910D02*
X0008600Y0168910D01*
X0008600Y0170508D02*
X0032745Y0170508D01*
X0034595Y0160917D02*
X0089200Y0160917D01*
X0089200Y0159319D02*
X0034595Y0159319D01*
X0033083Y0184895D02*
X0029323Y0184895D01*
X0053185Y0162516D02*
X0089200Y0162516D01*
X0089200Y0164114D02*
X0054135Y0164114D01*
X0076382Y0165713D02*
X0089200Y0165713D01*
X0089200Y0167311D02*
X0077135Y0167311D01*
X0077135Y0168910D02*
X0089200Y0168910D01*
X0089200Y0170508D02*
X0077135Y0170508D01*
X0077135Y0172107D02*
X0089200Y0172107D01*
X0089200Y0173705D02*
X0077135Y0173705D01*
X0077135Y0175304D02*
X0089200Y0175304D01*
X0089200Y0176902D02*
X0077135Y0176902D01*
X0077135Y0178501D02*
X0089200Y0178501D01*
X0089200Y0180099D02*
X0077135Y0180099D01*
X0077135Y0181698D02*
X0089200Y0181698D01*
X0089200Y0183296D02*
X0077135Y0183296D01*
X0077135Y0184895D02*
X0089200Y0184895D01*
X0089200Y0186493D02*
X0077135Y0186493D01*
X0077135Y0188092D02*
X0089200Y0188092D01*
X0089200Y0189690D02*
X0077135Y0189690D01*
X0077135Y0191289D02*
X0089200Y0191289D01*
X0089200Y0192887D02*
X0077135Y0192887D01*
X0077135Y0194486D02*
X0089200Y0194486D01*
X0089200Y0196084D02*
X0077135Y0196084D01*
X0077135Y0197683D02*
X0089200Y0197683D01*
X0089200Y0199281D02*
X0077135Y0199281D01*
X0077135Y0200880D02*
X0089200Y0200880D01*
X0089200Y0202478D02*
X0077135Y0202478D01*
X0077135Y0204077D02*
X0089200Y0204077D01*
X0089200Y0205675D02*
X0088489Y0205675D01*
X0091800Y0205675D02*
X0129835Y0205675D01*
X0129835Y0204077D02*
X0091800Y0204077D01*
X0091800Y0202478D02*
X0129835Y0202478D01*
X0129835Y0200880D02*
X0091800Y0200880D01*
X0091800Y0199281D02*
X0129835Y0199281D01*
X0129835Y0197683D02*
X0091800Y0197683D01*
X0091800Y0196084D02*
X0129835Y0196084D01*
X0129835Y0194486D02*
X0091800Y0194486D01*
X0091800Y0192887D02*
X0129835Y0192887D01*
X0129835Y0191289D02*
X0091800Y0191289D01*
X0091800Y0189690D02*
X0123083Y0189690D01*
X0123083Y0189739D02*
X0123083Y0184311D01*
X0123233Y0184161D01*
X0122838Y0183765D01*
X0120148Y0183765D01*
X0120148Y0184070D01*
X0119093Y0185124D01*
X0111697Y0185124D01*
X0110642Y0184070D01*
X0110642Y0177461D01*
X0111697Y0176406D01*
X0119093Y0176406D01*
X0120148Y0177461D01*
X0120148Y0177765D01*
X0122296Y0177765D01*
X0122296Y0175827D01*
X0123350Y0174772D01*
X0124635Y0174772D01*
X0124635Y0174443D01*
X0125031Y0173487D01*
X0125762Y0172756D01*
X0125762Y0172756D01*
X0125793Y0172725D01*
X0123799Y0172725D01*
X0122745Y0171671D01*
X0122745Y0167175D01*
X0118249Y0167175D01*
X0117195Y0166121D01*
X0117195Y0163129D01*
X0118249Y0162075D01*
X0123541Y0162075D01*
X0124595Y0163129D01*
X0124595Y0165325D01*
X0134971Y0165325D01*
X0135008Y0165310D01*
X0135585Y0165310D01*
X0135585Y0163983D01*
X0135950Y0163101D01*
X0136626Y0162425D01*
X0137092Y0162232D01*
X0137249Y0162075D01*
X0137471Y0162075D01*
X0137508Y0162060D01*
X0143962Y0162060D01*
X0144844Y0162425D01*
X0145520Y0163101D01*
X0145885Y0163983D01*
X0145885Y0165310D01*
X0149712Y0165310D01*
X0150594Y0165675D01*
X0151270Y0166351D01*
X0151635Y0167233D01*
X0151635Y0234669D01*
X0151680Y0234850D01*
X0151635Y0235142D01*
X0151635Y0235437D01*
X0151564Y0235610D01*
X0151536Y0235794D01*
X0151383Y0236047D01*
X0151270Y0236319D01*
X0151138Y0236451D01*
X0151041Y0236611D01*
X0150803Y0236786D01*
X0150594Y0236995D01*
X0150422Y0237066D01*
X0138422Y0245890D01*
X0136648Y0247663D01*
X0135186Y0248269D01*
X0133803Y0249286D01*
X0133594Y0249495D01*
X0133422Y0249566D01*
X0133272Y0249676D01*
X0132985Y0249747D01*
X0132712Y0249860D01*
X0132526Y0249860D01*
X0132345Y0249905D01*
X0132053Y0249860D01*
X0124258Y0249860D01*
X0123376Y0249495D01*
X0122700Y0248819D01*
X0122335Y0247937D01*
X0122335Y0229483D01*
X0122700Y0228601D01*
X0123376Y0227925D01*
X0124258Y0227560D01*
X0129835Y0227560D01*
X0129835Y0190793D01*
X0124138Y0190793D01*
X0123083Y0189739D01*
X0123083Y0188092D02*
X0091800Y0188092D01*
X0091800Y0186493D02*
X0123083Y0186493D01*
X0123083Y0184895D02*
X0119323Y0184895D01*
X0119589Y0176902D02*
X0122296Y0176902D01*
X0122819Y0175304D02*
X0091800Y0175304D01*
X0091800Y0176902D02*
X0111201Y0176902D01*
X0110642Y0178501D02*
X0091800Y0178501D01*
X0091800Y0180099D02*
X0110642Y0180099D01*
X0110642Y0181698D02*
X0091800Y0181698D01*
X0091800Y0183296D02*
X0110642Y0183296D01*
X0111467Y0184895D02*
X0091800Y0184895D01*
X0091800Y0173705D02*
X0124941Y0173705D01*
X0123181Y0172107D02*
X0091800Y0172107D01*
X0091800Y0170508D02*
X0122745Y0170508D01*
X0122745Y0168910D02*
X0091800Y0168910D01*
X0091800Y0167311D02*
X0122745Y0167311D01*
X0124595Y0164114D02*
X0135585Y0164114D01*
X0136535Y0162516D02*
X0123981Y0162516D01*
X0123541Y0162075D02*
X0118249Y0162075D01*
X0117195Y0161021D01*
X0117195Y0152929D01*
X0118249Y0151875D01*
X0122745Y0151875D01*
X0122745Y0147379D01*
X0123799Y0146325D01*
X0128110Y0146325D01*
X0128110Y0141965D01*
X0128754Y0141320D01*
X0130043Y0140031D01*
X0130052Y0140031D01*
X0130824Y0139260D01*
X0137935Y0139260D01*
X0137935Y0057537D01*
X0130659Y0057537D01*
X0128550Y0056664D01*
X0126936Y0055050D01*
X0126063Y0052941D01*
X0126063Y0050659D01*
X0126936Y0048550D01*
X0128550Y0046936D01*
X0130659Y0046063D01*
X0138629Y0046063D01*
X0139282Y0045410D01*
X0159438Y0045410D01*
X0160785Y0046757D01*
X0160785Y0153663D01*
X0159438Y0155010D01*
X0145535Y0155010D01*
X0145535Y0155610D01*
X0144188Y0156957D01*
X0142558Y0156957D01*
X0142541Y0156975D01*
X0137249Y0156975D01*
X0136195Y0155921D01*
X0136195Y0155620D01*
X0136185Y0155610D01*
X0136185Y0154010D01*
X0134282Y0154010D01*
X0133997Y0153725D01*
X0124595Y0153725D01*
X0124595Y0161021D01*
X0123541Y0162075D01*
X0124595Y0160917D02*
X0169921Y0160917D01*
X0169921Y0159319D02*
X0124595Y0159319D01*
X0124595Y0157720D02*
X0169921Y0157720D01*
X0169921Y0156122D02*
X0145023Y0156122D01*
X0144935Y0162516D02*
X0169921Y0162516D01*
X0169921Y0164114D02*
X0145885Y0164114D01*
X0150632Y0165713D02*
X0169921Y0165713D01*
X0169921Y0167311D02*
X0151635Y0167311D01*
X0151635Y0168910D02*
X0169921Y0168910D01*
X0169921Y0170508D02*
X0151635Y0170508D01*
X0151635Y0172107D02*
X0169921Y0172107D01*
X0169921Y0173705D02*
X0151635Y0173705D01*
X0151635Y0175304D02*
X0169921Y0175304D01*
X0169921Y0176902D02*
X0151635Y0176902D01*
X0151635Y0178501D02*
X0169921Y0178501D01*
X0169921Y0180099D02*
X0151635Y0180099D01*
X0151635Y0181698D02*
X0169921Y0181698D01*
X0169921Y0183296D02*
X0151635Y0183296D01*
X0151635Y0184895D02*
X0169921Y0184895D01*
X0169921Y0186493D02*
X0151635Y0186493D01*
X0151635Y0188092D02*
X0169921Y0188092D01*
X0169921Y0189690D02*
X0151635Y0189690D01*
X0151635Y0191289D02*
X0169921Y0191289D01*
X0169921Y0192887D02*
X0151635Y0192887D01*
X0151635Y0194486D02*
X0169921Y0194486D01*
X0169921Y0196084D02*
X0151635Y0196084D01*
X0151635Y0197683D02*
X0169921Y0197683D01*
X0169921Y0199281D02*
X0151635Y0199281D01*
X0151635Y0200880D02*
X0169921Y0200880D01*
X0169921Y0202478D02*
X0151635Y0202478D01*
X0151635Y0204077D02*
X0169921Y0204077D01*
X0169921Y0205675D02*
X0151635Y0205675D01*
X0151635Y0207274D02*
X0169921Y0207274D01*
X0169921Y0208872D02*
X0151635Y0208872D01*
X0151635Y0210471D02*
X0169921Y0210471D01*
X0169921Y0212069D02*
X0151635Y0212069D01*
X0151635Y0213668D02*
X0169921Y0213668D01*
X0169921Y0215266D02*
X0151635Y0215266D01*
X0151635Y0216865D02*
X0169921Y0216865D01*
X0169921Y0218463D02*
X0151635Y0218463D01*
X0151635Y0220062D02*
X0169921Y0220062D01*
X0169921Y0221661D02*
X0151635Y0221661D01*
X0151635Y0223259D02*
X0169921Y0223259D01*
X0169921Y0224858D02*
X0151635Y0224858D01*
X0151635Y0226456D02*
X0169921Y0226456D01*
X0169921Y0228055D02*
X0151635Y0228055D01*
X0151635Y0229653D02*
X0169921Y0229653D01*
X0169921Y0231252D02*
X0151635Y0231252D01*
X0151635Y0232850D02*
X0169921Y0232850D01*
X0169921Y0234449D02*
X0151635Y0234449D01*
X0151382Y0236047D02*
X0169921Y0236047D01*
X0169921Y0237646D02*
X0161143Y0237646D01*
X0160698Y0237389D02*
X0163001Y0238719D01*
X0164881Y0240599D01*
X0166211Y0242902D01*
X0166899Y0245470D01*
X0166899Y0248130D01*
X0166211Y0250698D01*
X0164881Y0253001D01*
X0163001Y0254881D01*
X0160698Y0256211D01*
X0158130Y0256899D01*
X0155470Y0256899D01*
X0152902Y0256211D01*
X0150599Y0254881D01*
X0148719Y0253001D01*
X0147389Y0250698D01*
X0146701Y0248130D01*
X0146701Y0245470D01*
X0147389Y0242902D01*
X0148719Y0240599D01*
X0150599Y0238719D01*
X0152902Y0237389D01*
X0155470Y0236701D01*
X0158130Y0236701D01*
X0160698Y0237389D01*
X0163527Y0239244D02*
X0169921Y0239244D01*
X0169921Y0240843D02*
X0165022Y0240843D01*
X0165945Y0242441D02*
X0169921Y0242441D01*
X0169921Y0244040D02*
X0166516Y0244040D01*
X0166899Y0245638D02*
X0169921Y0245638D01*
X0169921Y0247237D02*
X0166899Y0247237D01*
X0166710Y0248835D02*
X0169921Y0248835D01*
X0169921Y0250434D02*
X0166282Y0250434D01*
X0165441Y0252032D02*
X0169921Y0252032D01*
X0169921Y0253631D02*
X0164252Y0253631D01*
X0162399Y0255229D02*
X0169921Y0255229D01*
X0169921Y0256828D02*
X0158396Y0256828D01*
X0155204Y0256828D02*
X0091800Y0256828D01*
X0091800Y0258426D02*
X0169921Y0258426D01*
X0169921Y0258701D02*
X0169921Y0008600D01*
X0091800Y0008600D01*
X0091800Y0074610D01*
X0106648Y0074610D01*
X0107585Y0075547D01*
X0107585Y0109373D01*
X0106648Y0110310D01*
X0095085Y0110310D01*
X0095085Y0141873D01*
X0094148Y0142810D01*
X0091800Y0142810D01*
X0091800Y0258701D01*
X0169921Y0258701D01*
X0152457Y0237646D02*
X0149634Y0237646D01*
X0150073Y0239244D02*
X0147460Y0239244D01*
X0148578Y0240843D02*
X0145286Y0240843D01*
X0143112Y0242441D02*
X0147655Y0242441D01*
X0147084Y0244040D02*
X0140938Y0244040D01*
X0138764Y0245638D02*
X0146701Y0245638D01*
X0146701Y0247237D02*
X0137075Y0247237D01*
X0134416Y0248835D02*
X0146890Y0248835D01*
X0147318Y0250434D02*
X0091800Y0250434D01*
X0091800Y0252032D02*
X0148159Y0252032D01*
X0149348Y0253631D02*
X0091800Y0253631D01*
X0091800Y0255229D02*
X0151201Y0255229D01*
X0129835Y0226456D02*
X0091800Y0226456D01*
X0091800Y0224858D02*
X0129835Y0224858D01*
X0129835Y0223259D02*
X0091800Y0223259D01*
X0091800Y0221661D02*
X0129835Y0221661D01*
X0129835Y0220062D02*
X0091800Y0220062D01*
X0091800Y0218463D02*
X0129835Y0218463D01*
X0129835Y0216865D02*
X0091800Y0216865D01*
X0091800Y0215266D02*
X0129835Y0215266D01*
X0129835Y0213668D02*
X0091800Y0213668D01*
X0091800Y0212069D02*
X0129835Y0212069D01*
X0129835Y0210471D02*
X0091800Y0210471D01*
X0091800Y0208872D02*
X0129835Y0208872D01*
X0129835Y0207274D02*
X0091800Y0207274D01*
X0089200Y0218463D02*
X0087740Y0218463D01*
X0089200Y0220062D02*
X0077135Y0220062D01*
X0077135Y0218463D02*
X0083360Y0218463D01*
X0081659Y0216865D02*
X0077135Y0216865D01*
X0077135Y0221661D02*
X0089200Y0221661D01*
X0089200Y0223259D02*
X0077135Y0223259D01*
X0077135Y0224858D02*
X0089200Y0224858D01*
X0089200Y0226456D02*
X0077135Y0226456D01*
X0077135Y0228055D02*
X0089200Y0228055D01*
X0089200Y0229653D02*
X0077135Y0229653D01*
X0077135Y0231252D02*
X0089200Y0231252D01*
X0089200Y0232850D02*
X0077135Y0232850D01*
X0077135Y0234449D02*
X0089200Y0234449D01*
X0089200Y0236047D02*
X0076885Y0236047D01*
X0076246Y0237646D02*
X0089200Y0237646D01*
X0089200Y0239244D02*
X0075606Y0239244D01*
X0074967Y0240843D02*
X0089200Y0240843D01*
X0089200Y0242441D02*
X0074327Y0242441D01*
X0073688Y0244040D02*
X0089200Y0244040D01*
X0089200Y0245638D02*
X0073049Y0245638D01*
X0072409Y0247237D02*
X0089200Y0247237D01*
X0089200Y0248835D02*
X0071754Y0248835D01*
X0060216Y0248835D02*
X0031710Y0248835D01*
X0031899Y0247237D02*
X0059302Y0247237D01*
X0058343Y0245638D02*
X0031899Y0245638D01*
X0031516Y0244040D02*
X0057384Y0244040D01*
X0056425Y0242441D02*
X0030945Y0242441D01*
X0030022Y0240843D02*
X0055466Y0240843D01*
X0054507Y0239244D02*
X0028527Y0239244D01*
X0026143Y0237646D02*
X0053548Y0237646D01*
X0031282Y0250434D02*
X0089200Y0250434D01*
X0089200Y0252032D02*
X0030441Y0252032D01*
X0029252Y0253631D02*
X0089200Y0253631D01*
X0089200Y0255229D02*
X0027399Y0255229D01*
X0077423Y0207274D02*
X0081436Y0207274D01*
X0082611Y0205675D02*
X0077135Y0205675D01*
X0091800Y0228055D02*
X0123246Y0228055D01*
X0122335Y0229653D02*
X0091800Y0229653D01*
X0091800Y0231252D02*
X0122335Y0231252D01*
X0122335Y0232850D02*
X0091800Y0232850D01*
X0091800Y0234449D02*
X0122335Y0234449D01*
X0122335Y0236047D02*
X0091800Y0236047D01*
X0091800Y0237646D02*
X0122335Y0237646D01*
X0122335Y0239244D02*
X0091800Y0239244D01*
X0091800Y0240843D02*
X0122335Y0240843D01*
X0122335Y0242441D02*
X0091800Y0242441D01*
X0091800Y0244040D02*
X0122335Y0244040D01*
X0122335Y0245638D02*
X0091800Y0245638D01*
X0091800Y0247237D02*
X0122335Y0247237D01*
X0122716Y0248835D02*
X0091800Y0248835D01*
X0126655Y0179525D02*
X0127235Y0178945D01*
X0127235Y0174960D01*
X0130395Y0171800D01*
X0130395Y0169025D01*
X0124595Y0156122D02*
X0136396Y0156122D01*
X0136185Y0154523D02*
X0124595Y0154523D01*
X0122745Y0151326D02*
X0091800Y0151326D01*
X0091800Y0149728D02*
X0122745Y0149728D01*
X0122745Y0148129D02*
X0091800Y0148129D01*
X0091800Y0146530D02*
X0123594Y0146530D01*
X0128110Y0144932D02*
X0091800Y0144932D01*
X0091800Y0143333D02*
X0128110Y0143333D01*
X0128340Y0141735D02*
X0095085Y0141735D01*
X0095085Y0140136D02*
X0129938Y0140136D01*
X0133575Y0145300D02*
X0132995Y0145880D01*
X0132995Y0150025D01*
X0137935Y0138538D02*
X0095085Y0138538D01*
X0095085Y0136939D02*
X0137935Y0136939D01*
X0137935Y0135341D02*
X0095085Y0135341D01*
X0095085Y0133742D02*
X0137935Y0133742D01*
X0137935Y0132144D02*
X0095085Y0132144D01*
X0095085Y0130545D02*
X0137935Y0130545D01*
X0137935Y0128947D02*
X0095085Y0128947D01*
X0095085Y0127348D02*
X0137935Y0127348D01*
X0137935Y0125750D02*
X0095085Y0125750D01*
X0095085Y0124151D02*
X0137935Y0124151D01*
X0137935Y0122553D02*
X0095085Y0122553D01*
X0095085Y0120954D02*
X0137935Y0120954D01*
X0137935Y0119356D02*
X0095085Y0119356D01*
X0095085Y0117757D02*
X0137935Y0117757D01*
X0137935Y0116159D02*
X0095085Y0116159D01*
X0095085Y0114560D02*
X0137935Y0114560D01*
X0137935Y0112962D02*
X0095085Y0112962D01*
X0095085Y0111363D02*
X0137935Y0111363D01*
X0137935Y0109765D02*
X0107193Y0109765D01*
X0107585Y0108166D02*
X0137935Y0108166D01*
X0137935Y0106568D02*
X0107585Y0106568D01*
X0107585Y0104969D02*
X0137935Y0104969D01*
X0137935Y0103371D02*
X0107585Y0103371D01*
X0107585Y0101772D02*
X0137935Y0101772D01*
X0137935Y0100174D02*
X0107585Y0100174D01*
X0107585Y0098575D02*
X0137935Y0098575D01*
X0137935Y0096977D02*
X0107585Y0096977D01*
X0107585Y0095378D02*
X0137935Y0095378D01*
X0137935Y0093780D02*
X0107585Y0093780D01*
X0107585Y0092181D02*
X0137935Y0092181D01*
X0137935Y0090583D02*
X0107585Y0090583D01*
X0107585Y0088984D02*
X0137935Y0088984D01*
X0137935Y0087386D02*
X0107585Y0087386D01*
X0107585Y0085787D02*
X0137935Y0085787D01*
X0137935Y0084189D02*
X0107585Y0084189D01*
X0107585Y0082590D02*
X0137935Y0082590D01*
X0137935Y0080992D02*
X0107585Y0080992D01*
X0107585Y0079393D02*
X0137935Y0079393D01*
X0137935Y0077795D02*
X0107585Y0077795D01*
X0107585Y0076196D02*
X0128276Y0076196D01*
X0129480Y0077400D02*
X0126200Y0074120D01*
X0126200Y0069480D01*
X0129480Y0066200D01*
X0134120Y0066200D01*
X0137400Y0069480D01*
X0137400Y0074120D01*
X0134120Y0077400D01*
X0129480Y0077400D01*
X0126678Y0074597D02*
X0091800Y0074597D01*
X0091800Y0072999D02*
X0126200Y0072999D01*
X0126200Y0071400D02*
X0091800Y0071400D01*
X0091800Y0069802D02*
X0126200Y0069802D01*
X0127477Y0068203D02*
X0091800Y0068203D01*
X0091800Y0066605D02*
X0129075Y0066605D01*
X0134525Y0066605D02*
X0137935Y0066605D01*
X0137935Y0068203D02*
X0136123Y0068203D01*
X0137400Y0069802D02*
X0137935Y0069802D01*
X0137935Y0071400D02*
X0137400Y0071400D01*
X0137400Y0072999D02*
X0137935Y0072999D01*
X0137935Y0074597D02*
X0136922Y0074597D01*
X0137935Y0076196D02*
X0135324Y0076196D01*
X0137935Y0065006D02*
X0091800Y0065006D01*
X0091800Y0063408D02*
X0137935Y0063408D01*
X0137935Y0061809D02*
X0091800Y0061809D01*
X0091800Y0060211D02*
X0137935Y0060211D01*
X0137935Y0058612D02*
X0091800Y0058612D01*
X0091800Y0057014D02*
X0109094Y0057014D01*
X0109480Y0057400D02*
X0106200Y0054120D01*
X0106200Y0049480D01*
X0109480Y0046200D01*
X0114120Y0046200D01*
X0117400Y0049480D01*
X0117400Y0054120D01*
X0114120Y0057400D01*
X0109480Y0057400D01*
X0107496Y0055415D02*
X0091800Y0055415D01*
X0091800Y0053817D02*
X0106200Y0053817D01*
X0106200Y0052218D02*
X0091800Y0052218D01*
X0091800Y0050620D02*
X0106200Y0050620D01*
X0106659Y0049021D02*
X0091800Y0049021D01*
X0091800Y0047423D02*
X0108258Y0047423D01*
X0115342Y0047423D02*
X0128064Y0047423D01*
X0126741Y0049021D02*
X0116941Y0049021D01*
X0117400Y0050620D02*
X0126079Y0050620D01*
X0126063Y0052218D02*
X0117400Y0052218D01*
X0117400Y0053817D02*
X0126426Y0053817D01*
X0127302Y0055415D02*
X0116104Y0055415D01*
X0114506Y0057014D02*
X0129396Y0057014D01*
X0138868Y0045824D02*
X0091800Y0045824D01*
X0091800Y0044226D02*
X0169921Y0044226D01*
X0169921Y0045824D02*
X0159852Y0045824D01*
X0160785Y0047423D02*
X0169921Y0047423D01*
X0169921Y0049021D02*
X0160785Y0049021D01*
X0160785Y0050620D02*
X0169921Y0050620D01*
X0169921Y0052218D02*
X0160785Y0052218D01*
X0160785Y0053817D02*
X0169921Y0053817D01*
X0169921Y0055415D02*
X0160785Y0055415D01*
X0160785Y0057014D02*
X0169921Y0057014D01*
X0169921Y0058612D02*
X0160785Y0058612D01*
X0160785Y0060211D02*
X0169921Y0060211D01*
X0169921Y0061809D02*
X0160785Y0061809D01*
X0160785Y0063408D02*
X0169921Y0063408D01*
X0169921Y0065006D02*
X0160785Y0065006D01*
X0160785Y0066605D02*
X0169921Y0066605D01*
X0169921Y0068203D02*
X0160785Y0068203D01*
X0160785Y0069802D02*
X0169921Y0069802D01*
X0169921Y0071400D02*
X0160785Y0071400D01*
X0160785Y0072999D02*
X0169921Y0072999D01*
X0169921Y0074597D02*
X0160785Y0074597D01*
X0160785Y0076196D02*
X0169921Y0076196D01*
X0169921Y0077795D02*
X0160785Y0077795D01*
X0160785Y0079393D02*
X0169921Y0079393D01*
X0169921Y0080992D02*
X0160785Y0080992D01*
X0160785Y0082590D02*
X0169921Y0082590D01*
X0169921Y0084189D02*
X0160785Y0084189D01*
X0160785Y0085787D02*
X0169921Y0085787D01*
X0169921Y0087386D02*
X0160785Y0087386D01*
X0160785Y0088984D02*
X0169921Y0088984D01*
X0169921Y0090583D02*
X0160785Y0090583D01*
X0160785Y0092181D02*
X0169921Y0092181D01*
X0169921Y0093780D02*
X0160785Y0093780D01*
X0160785Y0095378D02*
X0169921Y0095378D01*
X0169921Y0096977D02*
X0160785Y0096977D01*
X0160785Y0098575D02*
X0169921Y0098575D01*
X0169921Y0100174D02*
X0160785Y0100174D01*
X0160785Y0101772D02*
X0169921Y0101772D01*
X0169921Y0103371D02*
X0160785Y0103371D01*
X0160785Y0104969D02*
X0169921Y0104969D01*
X0169921Y0106568D02*
X0160785Y0106568D01*
X0160785Y0108166D02*
X0169921Y0108166D01*
X0169921Y0109765D02*
X0160785Y0109765D01*
X0160785Y0111363D02*
X0169921Y0111363D01*
X0169921Y0112962D02*
X0160785Y0112962D01*
X0160785Y0114560D02*
X0169921Y0114560D01*
X0169921Y0116159D02*
X0160785Y0116159D01*
X0160785Y0117757D02*
X0169921Y0117757D01*
X0169921Y0119356D02*
X0160785Y0119356D01*
X0160785Y0120954D02*
X0169921Y0120954D01*
X0169921Y0122553D02*
X0160785Y0122553D01*
X0160785Y0124151D02*
X0169921Y0124151D01*
X0169921Y0125750D02*
X0160785Y0125750D01*
X0160785Y0127348D02*
X0169921Y0127348D01*
X0169921Y0128947D02*
X0160785Y0128947D01*
X0160785Y0130545D02*
X0169921Y0130545D01*
X0169921Y0132144D02*
X0160785Y0132144D01*
X0160785Y0133742D02*
X0169921Y0133742D01*
X0169921Y0135341D02*
X0160785Y0135341D01*
X0160785Y0136939D02*
X0169921Y0136939D01*
X0169921Y0138538D02*
X0160785Y0138538D01*
X0160785Y0140136D02*
X0169921Y0140136D01*
X0169921Y0141735D02*
X0160785Y0141735D01*
X0160785Y0143333D02*
X0169921Y0143333D01*
X0169921Y0144932D02*
X0160785Y0144932D01*
X0160785Y0146530D02*
X0169921Y0146530D01*
X0169921Y0148129D02*
X0160785Y0148129D01*
X0160785Y0149728D02*
X0169921Y0149728D01*
X0169921Y0151326D02*
X0160785Y0151326D01*
X0160785Y0152925D02*
X0169921Y0152925D01*
X0169921Y0154523D02*
X0159925Y0154523D01*
X0117809Y0162516D02*
X0091800Y0162516D01*
X0091800Y0164114D02*
X0117195Y0164114D01*
X0117195Y0165713D02*
X0091800Y0165713D01*
X0091800Y0160917D02*
X0117195Y0160917D01*
X0117195Y0159319D02*
X0091800Y0159319D01*
X0091800Y0157720D02*
X0117195Y0157720D01*
X0117195Y0156122D02*
X0091800Y0156122D01*
X0091800Y0154523D02*
X0117195Y0154523D01*
X0117200Y0152925D02*
X0091800Y0152925D01*
X0047600Y0076196D02*
X0045324Y0076196D01*
X0046922Y0074597D02*
X0047600Y0074597D01*
X0047599Y0072999D02*
X0047400Y0072999D01*
X0047400Y0071400D02*
X0047598Y0071400D01*
X0047597Y0069802D02*
X0047400Y0069802D01*
X0047597Y0068203D02*
X0046123Y0068203D01*
X0047596Y0066605D02*
X0044525Y0066605D01*
X0047595Y0065006D02*
X0008600Y0065006D01*
X0008600Y0063408D02*
X0047594Y0063408D01*
X0047594Y0061809D02*
X0008600Y0061809D01*
X0008600Y0060211D02*
X0047593Y0060211D01*
X0044070Y0031598D02*
X0041364Y0031598D01*
X0038865Y0030563D01*
X0036952Y0028650D01*
X0035917Y0026151D01*
X0035917Y0023446D01*
X0036952Y0020947D01*
X0038865Y0019034D01*
X0041364Y0017998D01*
X0044070Y0017998D01*
X0046569Y0019034D01*
X0048482Y0020947D01*
X0049517Y0023446D01*
X0049517Y0026151D01*
X0048482Y0028650D01*
X0046569Y0030563D01*
X0044070Y0031598D01*
X0044458Y0031438D02*
X0060976Y0031438D01*
X0061364Y0031598D02*
X0058865Y0030563D01*
X0056952Y0028650D01*
X0055917Y0026151D01*
X0055917Y0023446D01*
X0056952Y0020947D01*
X0058865Y0019034D01*
X0061364Y0017998D01*
X0064070Y0017998D01*
X0066569Y0019034D01*
X0068482Y0020947D01*
X0069517Y0023446D01*
X0069517Y0026151D01*
X0068482Y0028650D01*
X0066569Y0030563D01*
X0064070Y0031598D01*
X0061364Y0031598D01*
X0064458Y0031438D02*
X0089200Y0031438D01*
X0089200Y0033036D02*
X0008600Y0033036D01*
X0008600Y0031438D02*
X0040976Y0031438D01*
X0038141Y0029839D02*
X0008600Y0029839D01*
X0008600Y0028241D02*
X0036782Y0028241D01*
X0036120Y0026642D02*
X0025157Y0026642D01*
X0027239Y0025044D02*
X0035917Y0025044D01*
X0035917Y0023445D02*
X0028560Y0023445D01*
X0029483Y0021847D02*
X0036579Y0021847D01*
X0037651Y0020248D02*
X0029926Y0020248D01*
X0030199Y0018650D02*
X0039792Y0018650D01*
X0045642Y0018650D02*
X0059792Y0018650D01*
X0057651Y0020248D02*
X0047783Y0020248D01*
X0048854Y0021847D02*
X0056579Y0021847D01*
X0055917Y0023445D02*
X0049517Y0023445D01*
X0049517Y0025044D02*
X0055917Y0025044D01*
X0056120Y0026642D02*
X0049313Y0026642D01*
X0048651Y0028241D02*
X0056782Y0028241D01*
X0058141Y0029839D02*
X0047293Y0029839D01*
X0030199Y0017051D02*
X0089200Y0017051D01*
X0089200Y0015453D02*
X0029900Y0015453D01*
X0029426Y0013854D02*
X0089200Y0013854D01*
X0089200Y0012256D02*
X0028503Y0012256D01*
X0027139Y0010657D02*
X0089200Y0010657D01*
X0089200Y0009059D02*
X0024984Y0009059D01*
X0015215Y0009059D02*
X0008600Y0009059D01*
X0008600Y0010657D02*
X0013061Y0010657D01*
X0011697Y0012256D02*
X0008600Y0012256D01*
X0008600Y0013854D02*
X0010774Y0013854D01*
X0010300Y0015453D02*
X0008600Y0015453D01*
X0008600Y0017051D02*
X0010001Y0017051D01*
X0010001Y0018650D02*
X0008600Y0018650D01*
X0008600Y0020248D02*
X0010274Y0020248D01*
X0010717Y0021847D02*
X0008600Y0021847D01*
X0008600Y0023445D02*
X0011640Y0023445D01*
X0012961Y0025044D02*
X0008600Y0025044D01*
X0008600Y0026642D02*
X0015043Y0026642D01*
X0008600Y0034635D02*
X0089200Y0034635D01*
X0089200Y0036233D02*
X0008600Y0036233D01*
X0008600Y0037832D02*
X0089200Y0037832D01*
X0089200Y0039430D02*
X0008600Y0039430D01*
X0065642Y0018650D02*
X0089200Y0018650D01*
X0089200Y0020248D02*
X0067783Y0020248D01*
X0068854Y0021847D02*
X0089200Y0021847D01*
X0089200Y0023445D02*
X0069517Y0023445D01*
X0069517Y0025044D02*
X0089200Y0025044D01*
X0089200Y0026642D02*
X0069313Y0026642D01*
X0068651Y0028241D02*
X0089200Y0028241D01*
X0089200Y0029839D02*
X0067293Y0029839D01*
X0091800Y0029839D02*
X0110041Y0029839D01*
X0110365Y0030163D02*
X0108452Y0028250D01*
X0107417Y0025751D01*
X0107417Y0023046D01*
X0108452Y0020547D01*
X0110365Y0018634D01*
X0112864Y0017598D01*
X0115570Y0017598D01*
X0118069Y0018634D01*
X0119982Y0020547D01*
X0121017Y0023046D01*
X0121017Y0025751D01*
X0119982Y0028250D01*
X0118069Y0030163D01*
X0115570Y0031198D01*
X0112864Y0031198D01*
X0110365Y0030163D01*
X0108448Y0028241D02*
X0091800Y0028241D01*
X0091800Y0026642D02*
X0107786Y0026642D01*
X0107417Y0025044D02*
X0091800Y0025044D01*
X0091800Y0023445D02*
X0107417Y0023445D01*
X0107914Y0021847D02*
X0091800Y0021847D01*
X0091800Y0020248D02*
X0108751Y0020248D01*
X0110349Y0018650D02*
X0091800Y0018650D01*
X0091800Y0017051D02*
X0149447Y0017051D01*
X0149201Y0017970D02*
X0149889Y0015402D01*
X0151219Y0013099D01*
X0153099Y0011219D01*
X0155402Y0009889D01*
X0157970Y0009201D01*
X0160630Y0009201D01*
X0163198Y0009889D01*
X0165501Y0011219D01*
X0167381Y0013099D01*
X0168711Y0015402D01*
X0169399Y0017970D01*
X0169399Y0020630D01*
X0168711Y0023198D01*
X0167381Y0025501D01*
X0165501Y0027381D01*
X0163198Y0028711D01*
X0160630Y0029399D01*
X0157970Y0029399D01*
X0155402Y0028711D01*
X0153099Y0027381D01*
X0151219Y0025501D01*
X0149889Y0023198D01*
X0149201Y0020630D01*
X0149201Y0017970D01*
X0149201Y0018650D02*
X0138085Y0018650D01*
X0138069Y0018634D02*
X0139982Y0020547D01*
X0141017Y0023046D01*
X0141017Y0025751D01*
X0139982Y0028250D01*
X0138069Y0030163D01*
X0135570Y0031198D01*
X0132864Y0031198D01*
X0130365Y0030163D01*
X0128452Y0028250D01*
X0127417Y0025751D01*
X0127417Y0023046D01*
X0128452Y0020547D01*
X0130365Y0018634D01*
X0132864Y0017598D01*
X0135570Y0017598D01*
X0138069Y0018634D01*
X0139683Y0020248D02*
X0149201Y0020248D01*
X0149527Y0021847D02*
X0140520Y0021847D01*
X0141017Y0023445D02*
X0150032Y0023445D01*
X0150955Y0025044D02*
X0141017Y0025044D01*
X0140648Y0026642D02*
X0152360Y0026642D01*
X0154587Y0028241D02*
X0139986Y0028241D01*
X0138393Y0029839D02*
X0169921Y0029839D01*
X0169921Y0028241D02*
X0164013Y0028241D01*
X0166240Y0026642D02*
X0169921Y0026642D01*
X0169921Y0025044D02*
X0167645Y0025044D01*
X0168568Y0023445D02*
X0169921Y0023445D01*
X0169921Y0021847D02*
X0169073Y0021847D01*
X0169399Y0020248D02*
X0169921Y0020248D01*
X0169921Y0018650D02*
X0169399Y0018650D01*
X0169153Y0017051D02*
X0169921Y0017051D01*
X0169921Y0015453D02*
X0168725Y0015453D01*
X0167817Y0013854D02*
X0169921Y0013854D01*
X0169921Y0012256D02*
X0166538Y0012256D01*
X0164528Y0010657D02*
X0169921Y0010657D01*
X0169921Y0009059D02*
X0091800Y0009059D01*
X0091800Y0010657D02*
X0154072Y0010657D01*
X0152062Y0012256D02*
X0091800Y0012256D01*
X0091800Y0013854D02*
X0150783Y0013854D01*
X0149875Y0015453D02*
X0091800Y0015453D01*
X0091800Y0031438D02*
X0169921Y0031438D01*
X0169921Y0033036D02*
X0091800Y0033036D01*
X0091800Y0034635D02*
X0169921Y0034635D01*
X0169921Y0036233D02*
X0091800Y0036233D01*
X0091800Y0037832D02*
X0169921Y0037832D01*
X0169921Y0039430D02*
X0091800Y0039430D01*
X0091800Y0041029D02*
X0169921Y0041029D01*
X0169921Y0042627D02*
X0091800Y0042627D01*
X0118393Y0029839D02*
X0130041Y0029839D01*
X0128448Y0028241D02*
X0119986Y0028241D01*
X0120648Y0026642D02*
X0127786Y0026642D01*
X0127417Y0025044D02*
X0121017Y0025044D01*
X0121017Y0023445D02*
X0127417Y0023445D01*
X0127914Y0021847D02*
X0120520Y0021847D01*
X0119683Y0020248D02*
X0128751Y0020248D01*
X0130349Y0018650D02*
X0118085Y0018650D01*
D35*
X0109300Y0114300D03*
X0109300Y0124300D03*
X0109300Y0134300D03*
X0109300Y0144300D03*
X0109300Y0154300D03*
X0109300Y0161800D03*
X0099300Y0161800D03*
X0099300Y0154300D03*
X0119300Y0134300D03*
X0119300Y0124300D03*
X0127895Y0157025D03*
X0127895Y0162025D03*
X0132895Y0162025D03*
X0132895Y0157025D03*
X0154300Y0161800D03*
X0164300Y0161800D03*
X0164300Y0171800D03*
X0164300Y0151800D03*
X0164300Y0141800D03*
X0164300Y0131800D03*
X0164300Y0121800D03*
X0164300Y0201800D03*
X0164300Y0211800D03*
X0164300Y0221800D03*
X0164300Y0231800D03*
X0154300Y0231800D03*
X0154300Y0221800D03*
X0154300Y0211800D03*
X0154300Y0201800D03*
X0109300Y0204300D03*
X0109300Y0214300D03*
X0109300Y0194300D03*
X0109300Y0184300D03*
X0099300Y0184300D03*
X0099300Y0194300D03*
X0074300Y0161800D03*
X0066800Y0161800D03*
X0042895Y0162025D03*
X0042895Y0157025D03*
X0037895Y0157025D03*
X0037895Y0162025D03*
X0024300Y0144300D03*
X0024300Y0134300D03*
X0024300Y0124300D03*
X0024300Y0114300D03*
X0024300Y0104300D03*
X0024300Y0094300D03*
X0014300Y0094300D03*
X0014300Y0104300D03*
X0014300Y0114300D03*
X0014300Y0124300D03*
X0014300Y0134300D03*
X0014300Y0146800D03*
X0014300Y0156800D03*
X0014300Y0166800D03*
X0014300Y0176800D03*
X0014300Y0186800D03*
X0014300Y0196800D03*
X0014300Y0206800D03*
X0014300Y0216800D03*
X0014300Y0226800D03*
X0024300Y0226800D03*
X0024300Y0216800D03*
X0024300Y0206800D03*
X0024300Y0196800D03*
D36*
X0072235Y0207460D02*
X0076575Y0211800D01*
X0085550Y0211800D01*
D37*
X0021800Y0246800D03*
X0156800Y0246800D03*
X0159300Y0019300D03*
X0020100Y0017900D03*
D38*
X0135235Y0148468D02*
X0135235Y0151710D01*
X0138485Y0151710D01*
X0138485Y0154657D01*
X0143235Y0154657D01*
X0143235Y0152710D01*
X0158485Y0152710D01*
X0158485Y0047710D01*
X0140235Y0047710D01*
X0140235Y0148460D01*
X0136246Y0148460D01*
X0136238Y0148468D01*
X0135235Y0148468D01*
X0135235Y0149249D02*
X0158485Y0149249D01*
X0158485Y0150247D02*
X0135235Y0150247D01*
X0135495Y0150025D02*
X0139895Y0154425D01*
X0138485Y0154241D02*
X0143235Y0154241D01*
X0143235Y0153243D02*
X0138485Y0153243D01*
X0138485Y0152244D02*
X0158485Y0152244D01*
X0158485Y0151246D02*
X0135235Y0151246D01*
X0140235Y0148250D02*
X0158485Y0148250D01*
X0158485Y0147252D02*
X0140235Y0147252D01*
X0140235Y0146253D02*
X0158485Y0146253D01*
X0158485Y0145255D02*
X0140235Y0145255D01*
X0140235Y0144256D02*
X0158485Y0144256D01*
X0158485Y0143258D02*
X0140235Y0143258D01*
X0140235Y0142259D02*
X0158485Y0142259D01*
X0158485Y0141261D02*
X0140235Y0141261D01*
X0140235Y0140262D02*
X0158485Y0140262D01*
X0158485Y0139263D02*
X0140235Y0139263D01*
X0140235Y0138265D02*
X0158485Y0138265D01*
X0158485Y0137266D02*
X0140235Y0137266D01*
X0140235Y0136268D02*
X0158485Y0136268D01*
X0158485Y0135269D02*
X0140235Y0135269D01*
X0140235Y0134271D02*
X0158485Y0134271D01*
X0158485Y0133272D02*
X0140235Y0133272D01*
X0140235Y0132274D02*
X0158485Y0132274D01*
X0158485Y0131275D02*
X0140235Y0131275D01*
X0140235Y0130277D02*
X0158485Y0130277D01*
X0158485Y0129278D02*
X0140235Y0129278D01*
X0140235Y0128280D02*
X0158485Y0128280D01*
X0158485Y0127281D02*
X0140235Y0127281D01*
X0140235Y0126283D02*
X0158485Y0126283D01*
X0158485Y0125284D02*
X0140235Y0125284D01*
X0140235Y0124286D02*
X0158485Y0124286D01*
X0158485Y0123287D02*
X0140235Y0123287D01*
X0140235Y0122289D02*
X0158485Y0122289D01*
X0158485Y0121290D02*
X0140235Y0121290D01*
X0140235Y0120292D02*
X0158485Y0120292D01*
X0158485Y0119293D02*
X0140235Y0119293D01*
X0140235Y0118295D02*
X0158485Y0118295D01*
X0158485Y0117296D02*
X0140235Y0117296D01*
X0140235Y0116298D02*
X0158485Y0116298D01*
X0158485Y0115299D02*
X0140235Y0115299D01*
X0140235Y0114301D02*
X0158485Y0114301D01*
X0158485Y0113302D02*
X0140235Y0113302D01*
X0140235Y0112304D02*
X0158485Y0112304D01*
X0158485Y0111305D02*
X0140235Y0111305D01*
X0140235Y0110307D02*
X0158485Y0110307D01*
X0158485Y0109308D02*
X0140235Y0109308D01*
X0140235Y0108310D02*
X0158485Y0108310D01*
X0158485Y0107311D02*
X0140235Y0107311D01*
X0140235Y0106313D02*
X0158485Y0106313D01*
X0158485Y0105314D02*
X0140235Y0105314D01*
X0140235Y0104316D02*
X0158485Y0104316D01*
X0158485Y0103317D02*
X0140235Y0103317D01*
X0140235Y0102319D02*
X0158485Y0102319D01*
X0158485Y0101320D02*
X0140235Y0101320D01*
X0140235Y0100322D02*
X0158485Y0100322D01*
X0158485Y0099323D02*
X0140235Y0099323D01*
X0140235Y0098325D02*
X0158485Y0098325D01*
X0158485Y0097326D02*
X0140235Y0097326D01*
X0140235Y0096328D02*
X0158485Y0096328D01*
X0158485Y0095329D02*
X0140235Y0095329D01*
X0140235Y0094330D02*
X0158485Y0094330D01*
X0158485Y0093332D02*
X0140235Y0093332D01*
X0140235Y0092333D02*
X0158485Y0092333D01*
X0158485Y0091335D02*
X0140235Y0091335D01*
X0140235Y0090336D02*
X0158485Y0090336D01*
X0158485Y0089338D02*
X0140235Y0089338D01*
X0140235Y0088339D02*
X0158485Y0088339D01*
X0158485Y0087341D02*
X0140235Y0087341D01*
X0140235Y0086342D02*
X0158485Y0086342D01*
X0158485Y0085344D02*
X0140235Y0085344D01*
X0140235Y0084345D02*
X0158485Y0084345D01*
X0158485Y0083347D02*
X0140235Y0083347D01*
X0140235Y0082348D02*
X0158485Y0082348D01*
X0158485Y0081350D02*
X0140235Y0081350D01*
X0140235Y0080351D02*
X0158485Y0080351D01*
X0158485Y0079353D02*
X0140235Y0079353D01*
X0140235Y0078354D02*
X0158485Y0078354D01*
X0158485Y0077356D02*
X0140235Y0077356D01*
X0140235Y0076357D02*
X0158485Y0076357D01*
X0158485Y0075359D02*
X0140235Y0075359D01*
X0140235Y0074360D02*
X0158485Y0074360D01*
X0158485Y0073362D02*
X0140235Y0073362D01*
X0140235Y0072363D02*
X0158485Y0072363D01*
X0158485Y0071365D02*
X0140235Y0071365D01*
X0140235Y0070366D02*
X0158485Y0070366D01*
X0158485Y0069368D02*
X0140235Y0069368D01*
X0140235Y0068369D02*
X0158485Y0068369D01*
X0158485Y0067371D02*
X0140235Y0067371D01*
X0140235Y0066372D02*
X0158485Y0066372D01*
X0158485Y0065374D02*
X0140235Y0065374D01*
X0140235Y0064375D02*
X0158485Y0064375D01*
X0158485Y0063377D02*
X0140235Y0063377D01*
X0140235Y0062378D02*
X0158485Y0062378D01*
X0158485Y0061380D02*
X0140235Y0061380D01*
X0140235Y0060381D02*
X0158485Y0060381D01*
X0158485Y0059383D02*
X0140235Y0059383D01*
X0140235Y0058384D02*
X0158485Y0058384D01*
X0158485Y0057386D02*
X0140235Y0057386D01*
X0140235Y0056387D02*
X0158485Y0056387D01*
X0158485Y0055389D02*
X0140235Y0055389D01*
X0140235Y0054390D02*
X0158485Y0054390D01*
X0158485Y0053392D02*
X0140235Y0053392D01*
X0140235Y0052393D02*
X0158485Y0052393D01*
X0158485Y0051395D02*
X0140235Y0051395D01*
X0140235Y0050396D02*
X0158485Y0050396D01*
X0158485Y0049397D02*
X0140235Y0049397D01*
X0140235Y0048399D02*
X0158485Y0048399D01*
M02*
