G75*
%MOIN*%
%OFA0B0*%
%FSLAX25Y25*%
%IPPOS*%
%LPD*%
%AMOC8*
5,1,8,0,0,1.08239X$1,22.5*
%
%ADD10C,0.00000*%
%ADD11C,0.00300*%
%ADD12R,0.00050X0.00800*%
%ADD13R,0.00050X0.01350*%
%ADD14R,0.00050X0.00600*%
%ADD15R,0.00050X0.00350*%
%ADD16R,0.00050X0.00550*%
%ADD17R,0.00050X0.00300*%
%ADD18R,0.00050X0.00450*%
%ADD19R,0.00050X0.00250*%
%ADD20R,0.00050X0.00400*%
%ADD21R,0.00050X0.00500*%
%ADD22R,0.00050X0.00650*%
%ADD23R,0.00050X0.00750*%
%ADD24R,0.00050X0.01800*%
%ADD25R,0.00050X0.02000*%
%ADD26R,0.00050X0.02100*%
%ADD27R,0.00050X0.02150*%
%ADD28R,0.00050X0.00100*%
%ADD29R,0.00050X0.00050*%
%ADD30R,0.00050X0.00150*%
%ADD31R,0.00050X0.00900*%
%ADD32R,0.00050X0.00200*%
%ADD33R,0.00050X0.01550*%
%ADD34R,0.00050X0.00700*%
%ADD35R,0.00050X0.01100*%
%ADD36R,0.00050X0.00850*%
%ADD37R,0.00050X0.01000*%
%ADD38R,0.00050X0.01150*%
%ADD39R,0.00050X0.01050*%
%ADD40R,0.00050X0.01300*%
%ADD41R,0.00050X0.00950*%
%ADD42R,0.00050X0.01950*%
%ADD43R,0.00050X0.01600*%
%ADD44R,0.00050X0.01650*%
%ADD45R,0.00050X0.01250*%
%ADD46R,0.00050X0.01200*%
%ADD47R,0.00050X0.01700*%
%ADD48R,0.00050X0.03900*%
%ADD49R,0.00050X0.03250*%
%ADD50R,0.00050X0.03850*%
%ADD51R,0.00050X0.02600*%
%ADD52C,0.00500*%
%ADD53C,0.00200*%
%ADD54C,0.00400*%
%ADD55R,0.02953X0.05709*%
%ADD56C,0.00600*%
%ADD57R,0.02500X0.10000*%
%ADD58R,0.03740X0.01969*%
%ADD59R,0.02000X0.10000*%
%ADD60R,0.02559X0.05512*%
%ADD61R,0.05512X0.02559*%
%ADD62C,0.00800*%
%ADD63R,0.01969X0.03740*%
%ADD64R,0.02400X0.02400*%
%ADD65C,0.02400*%
%ADD66R,0.02400X0.03400*%
%ADD67C,0.01600*%
%ADD68R,0.02600X0.02600*%
D10*
X0006800Y0006800D02*
X0006800Y0260501D01*
X0171721Y0260501D01*
X0171721Y0006800D01*
X0006800Y0006800D01*
X0086018Y0086210D02*
X0086018Y0086310D01*
X0085985Y0086310D02*
X0086052Y0086310D01*
X0086077Y0086310D02*
X0086127Y0086310D01*
X0086144Y0086293D01*
X0086144Y0086260D01*
X0086127Y0086243D01*
X0086077Y0086243D01*
X0086077Y0086210D02*
X0086077Y0086310D01*
X0086169Y0086310D02*
X0086219Y0086310D01*
X0086236Y0086293D01*
X0086236Y0086260D01*
X0086219Y0086243D01*
X0086169Y0086243D01*
X0086169Y0086210D02*
X0086169Y0086310D01*
X0086261Y0086277D02*
X0086295Y0086310D01*
X0086328Y0086277D01*
X0086328Y0086210D01*
X0086353Y0086210D02*
X0086403Y0086210D01*
X0086420Y0086227D01*
X0086420Y0086293D01*
X0086403Y0086310D01*
X0086353Y0086310D01*
X0086353Y0086210D01*
X0086328Y0086260D02*
X0086261Y0086260D01*
X0086261Y0086277D02*
X0086261Y0086210D01*
X0086445Y0086210D02*
X0086512Y0086210D01*
X0086479Y0086210D02*
X0086479Y0086310D01*
X0086445Y0086277D01*
X0086537Y0086260D02*
X0086604Y0086260D01*
X0086630Y0086277D02*
X0086663Y0086310D01*
X0086663Y0086210D01*
X0086630Y0086210D02*
X0086696Y0086210D01*
X0086722Y0086227D02*
X0086738Y0086210D01*
X0086772Y0086210D01*
X0086788Y0086227D01*
X0086788Y0086243D01*
X0086772Y0086260D01*
X0086755Y0086260D01*
X0086772Y0086260D02*
X0086788Y0086277D01*
X0086788Y0086293D01*
X0086772Y0086310D01*
X0086738Y0086310D01*
X0086722Y0086293D01*
X0120295Y0149425D02*
X0140495Y0149425D01*
X0140495Y0169625D01*
X0120295Y0169625D01*
X0120295Y0149425D01*
X0120295Y0153625D02*
X0120295Y0155125D01*
X0120295Y0156225D02*
X0120295Y0157725D01*
X0120295Y0158825D02*
X0120295Y0160225D01*
X0120295Y0161325D02*
X0120295Y0162825D01*
X0120295Y0163925D02*
X0120295Y0165425D01*
X0124495Y0169625D02*
X0125995Y0169625D01*
X0127095Y0169625D02*
X0128595Y0169625D01*
X0129695Y0169625D02*
X0131095Y0169625D01*
X0132195Y0169625D02*
X0133695Y0169625D01*
X0134795Y0169625D02*
X0136295Y0169625D01*
X0135495Y0169625D02*
X0140495Y0164625D01*
X0140495Y0163925D02*
X0140495Y0165425D01*
X0140495Y0162825D02*
X0140495Y0161325D01*
X0140495Y0160225D02*
X0140495Y0158825D01*
X0140495Y0157725D02*
X0140495Y0156225D01*
X0140495Y0155125D02*
X0140495Y0153625D01*
X0136295Y0149425D02*
X0134795Y0149425D01*
X0133695Y0149425D02*
X0132195Y0149425D01*
X0131095Y0149425D02*
X0129695Y0149425D01*
X0128595Y0149425D02*
X0127095Y0149425D01*
X0125995Y0149425D02*
X0124495Y0149425D01*
X0050495Y0149425D02*
X0050495Y0169625D01*
X0030295Y0169625D01*
X0030295Y0149425D01*
X0050495Y0149425D01*
X0050495Y0153625D02*
X0050495Y0155125D01*
X0050495Y0156225D02*
X0050495Y0157725D01*
X0050495Y0158825D02*
X0050495Y0160225D01*
X0050495Y0161325D02*
X0050495Y0162825D01*
X0050495Y0163925D02*
X0050495Y0165425D01*
X0050495Y0164625D02*
X0045495Y0169625D01*
X0044795Y0169625D02*
X0046295Y0169625D01*
X0043695Y0169625D02*
X0042195Y0169625D01*
X0041095Y0169625D02*
X0039695Y0169625D01*
X0038595Y0169625D02*
X0037095Y0169625D01*
X0035995Y0169625D02*
X0034495Y0169625D01*
X0030295Y0165425D02*
X0030295Y0163925D01*
X0030295Y0162825D02*
X0030295Y0161325D01*
X0030295Y0160225D02*
X0030295Y0158825D01*
X0030295Y0157725D02*
X0030295Y0156225D01*
X0030295Y0155125D02*
X0030295Y0153625D01*
X0034495Y0149425D02*
X0035995Y0149425D01*
X0037095Y0149425D02*
X0038595Y0149425D01*
X0039695Y0149425D02*
X0041095Y0149425D01*
X0042195Y0149425D02*
X0043695Y0149425D01*
X0044795Y0149425D02*
X0046295Y0149425D01*
D11*
X0033535Y0141913D02*
X0030633Y0141913D01*
X0030633Y0143848D01*
X0032084Y0142881D02*
X0032084Y0141913D01*
X0031600Y0140902D02*
X0033535Y0140902D01*
X0033535Y0139451D01*
X0033051Y0138967D01*
X0031600Y0138967D01*
X0033535Y0137955D02*
X0033535Y0136020D01*
X0033535Y0136988D02*
X0030633Y0136988D01*
X0031600Y0136020D01*
X0020895Y0171932D02*
X0017993Y0171932D01*
X0017993Y0173383D01*
X0018476Y0173867D01*
X0019444Y0173867D01*
X0019928Y0173383D01*
X0019928Y0171932D01*
X0019928Y0172899D02*
X0020895Y0173867D01*
X0020895Y0174878D02*
X0018960Y0176813D01*
X0018476Y0176813D01*
X0017993Y0176330D01*
X0017993Y0175362D01*
X0018476Y0174878D01*
X0020895Y0174878D02*
X0020895Y0176813D01*
X0046729Y0175475D02*
X0049865Y0172339D01*
X0046729Y0175475D01*
X0047323Y0175602D02*
X0047323Y0177053D01*
X0047806Y0177537D01*
X0048774Y0177537D01*
X0049258Y0177053D01*
X0049258Y0175602D01*
X0049865Y0175475D02*
X0046729Y0172339D01*
X0049865Y0175475D01*
X0050225Y0175602D02*
X0047323Y0175602D01*
X0048297Y0175475D02*
X0048297Y0172339D01*
X0048297Y0175475D01*
X0049258Y0176569D02*
X0050225Y0177537D01*
X0050225Y0178548D02*
X0050225Y0180483D01*
X0050225Y0179516D02*
X0047323Y0179516D01*
X0048290Y0178548D01*
X0046729Y0173907D02*
X0049865Y0173907D01*
X0046729Y0173907D01*
X0080359Y0120562D02*
X0081327Y0120562D01*
X0081811Y0120079D01*
X0079876Y0118144D01*
X0080359Y0117660D01*
X0081327Y0117660D01*
X0081811Y0118144D01*
X0081811Y0120079D01*
X0080359Y0120562D02*
X0079876Y0120079D01*
X0079876Y0118144D01*
X0082822Y0118144D02*
X0083306Y0118144D01*
X0083306Y0117660D01*
X0082822Y0117660D01*
X0082822Y0118144D01*
X0084295Y0117660D02*
X0086230Y0117660D01*
X0085263Y0117660D02*
X0085263Y0120562D01*
X0084295Y0119595D01*
X0087242Y0119595D02*
X0087242Y0118144D01*
X0087726Y0117660D01*
X0089177Y0117660D01*
X0089177Y0119595D01*
X0090188Y0119111D02*
X0091156Y0119111D01*
X0090188Y0117660D02*
X0090188Y0120562D01*
X0092123Y0120562D01*
X0097933Y0121204D02*
X0097933Y0119753D01*
X0100835Y0119753D01*
X0099868Y0119753D02*
X0099868Y0121204D01*
X0099384Y0121688D01*
X0098416Y0121688D01*
X0097933Y0121204D01*
X0099868Y0120721D02*
X0100835Y0121688D01*
X0100351Y0118741D02*
X0098416Y0118741D01*
X0100351Y0116807D01*
X0100835Y0117290D01*
X0100835Y0118258D01*
X0100351Y0118741D01*
X0100351Y0116807D02*
X0098416Y0116807D01*
X0097933Y0117290D01*
X0097933Y0118258D01*
X0098416Y0118741D01*
X0100835Y0115795D02*
X0100835Y0113860D01*
X0100835Y0114827D02*
X0097933Y0114827D01*
X0098900Y0113860D01*
X0122383Y0137488D02*
X0125285Y0137488D01*
X0125285Y0138455D02*
X0125285Y0136520D01*
X0123350Y0136520D02*
X0122383Y0137488D01*
X0123350Y0139467D02*
X0124801Y0139467D01*
X0125285Y0139951D01*
X0125285Y0141402D01*
X0123350Y0141402D01*
X0123834Y0142413D02*
X0123834Y0143381D01*
X0125285Y0142413D02*
X0122383Y0142413D01*
X0122383Y0144348D01*
X0136729Y0172339D02*
X0139865Y0175475D01*
X0136729Y0172339D01*
X0136729Y0173907D02*
X0139865Y0173907D01*
X0136729Y0173907D01*
X0136729Y0175475D02*
X0139865Y0172339D01*
X0136729Y0175475D01*
X0138297Y0175475D02*
X0138297Y0172339D01*
X0138297Y0175475D01*
X0139058Y0177002D02*
X0139058Y0178453D01*
X0138574Y0178937D01*
X0137606Y0178937D01*
X0137123Y0178453D01*
X0137123Y0177002D01*
X0140025Y0177002D01*
X0139058Y0177969D02*
X0140025Y0178937D01*
X0139541Y0179948D02*
X0140025Y0180432D01*
X0140025Y0181400D01*
X0139541Y0181883D01*
X0139058Y0181883D01*
X0138574Y0181400D01*
X0138574Y0180916D01*
X0138574Y0181400D02*
X0138090Y0181883D01*
X0137606Y0181883D01*
X0137123Y0181400D01*
X0137123Y0180432D01*
X0137606Y0179948D01*
X0110095Y0178230D02*
X0107193Y0178230D01*
X0108644Y0176778D01*
X0108644Y0178713D01*
X0108644Y0175767D02*
X0107676Y0175767D01*
X0107193Y0175283D01*
X0107193Y0173832D01*
X0110095Y0173832D01*
X0109128Y0173832D02*
X0109128Y0175283D01*
X0108644Y0175767D01*
X0109128Y0174799D02*
X0110095Y0175767D01*
X0143442Y0235259D02*
X0145911Y0235259D01*
X0147145Y0236493D01*
X0145911Y0237727D01*
X0143442Y0237727D01*
X0145293Y0238942D02*
X0145293Y0241411D01*
X0144059Y0240176D02*
X0146528Y0240176D01*
X0087195Y0239743D02*
X0085961Y0240977D01*
X0083492Y0240977D01*
X0085343Y0242192D02*
X0085343Y0244661D01*
X0084109Y0243426D02*
X0086578Y0243426D01*
X0087195Y0239743D02*
X0085961Y0238509D01*
X0083492Y0238509D01*
X0084119Y0019813D02*
X0085354Y0018579D01*
X0085354Y0016110D01*
X0086568Y0016727D02*
X0087185Y0016110D01*
X0088420Y0016110D01*
X0089037Y0016727D01*
X0090251Y0015493D02*
X0092720Y0015493D01*
X0093934Y0016110D02*
X0095169Y0016110D01*
X0094552Y0016110D02*
X0094552Y0019813D01*
X0095169Y0019813D02*
X0093934Y0019813D01*
X0096390Y0019813D02*
X0098859Y0016110D01*
X0098859Y0019813D01*
X0096390Y0019813D02*
X0096390Y0016110D01*
X0089037Y0019196D02*
X0088420Y0019813D01*
X0087185Y0019813D01*
X0086568Y0019196D01*
X0086568Y0016727D01*
X0085354Y0017962D02*
X0082885Y0017962D01*
X0082885Y0018579D02*
X0084119Y0019813D01*
X0082885Y0018579D02*
X0082885Y0016110D01*
D12*
X0084185Y0147785D03*
X0087485Y0152935D03*
X0084135Y0156085D03*
X0084135Y0158185D03*
X0087585Y0163535D03*
X0089185Y0158885D03*
X0093085Y0166135D03*
X0093085Y0168935D03*
X0093235Y0170235D03*
X0097035Y0168785D03*
X0087735Y0173585D03*
X0085385Y0171185D03*
X0085335Y0171185D03*
D13*
X0091435Y0160460D03*
X0096985Y0168810D03*
D14*
X0096935Y0168285D03*
X0093135Y0170235D03*
X0093335Y0165235D03*
X0091635Y0165085D03*
X0093785Y0162485D03*
X0094885Y0163085D03*
X0094885Y0161585D03*
X0094935Y0161585D03*
X0093235Y0160835D03*
X0091285Y0160435D03*
X0091235Y0160385D03*
X0090385Y0159735D03*
X0090035Y0159585D03*
X0089235Y0158935D03*
X0091385Y0158835D03*
X0093235Y0157785D03*
X0094985Y0158635D03*
X0094885Y0155785D03*
X0093785Y0155185D03*
X0094885Y0154285D03*
X0094935Y0154285D03*
X0093235Y0153535D03*
X0094985Y0151335D03*
X0093235Y0150485D03*
X0087185Y0148885D03*
X0087135Y0148885D03*
X0087185Y0146735D03*
X0085285Y0145885D03*
X0085185Y0145835D03*
X0085085Y0145785D03*
X0085035Y0145785D03*
X0084935Y0145735D03*
X0084835Y0145685D03*
X0084785Y0145685D03*
X0084735Y0145635D03*
X0084685Y0145635D03*
X0084635Y0145585D03*
X0084585Y0145585D03*
X0084485Y0145535D03*
X0084485Y0147835D03*
X0084535Y0147835D03*
X0084635Y0147885D03*
X0084685Y0147885D03*
X0084835Y0147935D03*
X0084885Y0147935D03*
X0084935Y0147935D03*
X0084185Y0151285D03*
X0084135Y0152935D03*
X0084085Y0152935D03*
X0084185Y0154585D03*
X0084335Y0156135D03*
X0084385Y0156135D03*
X0084435Y0156135D03*
X0084485Y0156135D03*
X0084535Y0156135D03*
X0084585Y0156135D03*
X0087285Y0156135D03*
X0087335Y0156135D03*
X0087385Y0156135D03*
X0087435Y0156135D03*
X0087485Y0156135D03*
X0087585Y0160985D03*
X0087185Y0163435D03*
X0087335Y0163485D03*
X0087385Y0163485D03*
X0087585Y0165435D03*
X0087235Y0166735D03*
X0087635Y0169935D03*
X0084385Y0162335D03*
X0084335Y0162335D03*
X0087185Y0152935D03*
X0087235Y0152935D03*
X0087285Y0152935D03*
D15*
X0087485Y0148860D03*
X0084335Y0150060D03*
X0084335Y0151160D03*
X0084435Y0154760D03*
X0084435Y0158460D03*
X0087785Y0156810D03*
X0087435Y0161010D03*
X0085835Y0168160D03*
X0085785Y0168160D03*
X0085735Y0168210D03*
X0085585Y0168310D03*
X0085535Y0168360D03*
X0087785Y0168810D03*
X0086285Y0171410D03*
X0086235Y0171410D03*
X0086185Y0171410D03*
X0086135Y0171410D03*
X0086085Y0171410D03*
X0086035Y0171410D03*
X0085985Y0171410D03*
X0085935Y0171410D03*
X0085885Y0171410D03*
X0085835Y0172760D03*
X0085735Y0172810D03*
X0085685Y0172860D03*
X0085635Y0172910D03*
X0085485Y0173060D03*
X0085485Y0174160D03*
X0087035Y0174560D03*
X0087135Y0174510D03*
X0087235Y0174460D03*
X0087285Y0174410D03*
X0087385Y0174360D03*
X0087435Y0174310D03*
X0087685Y0173960D03*
X0087585Y0173060D03*
X0087535Y0173010D03*
X0084285Y0171310D03*
X0093185Y0169310D03*
X0093235Y0169360D03*
X0093335Y0169460D03*
X0093235Y0168410D03*
X0093285Y0168360D03*
X0093335Y0168310D03*
X0093385Y0168260D03*
X0093435Y0168260D03*
X0093485Y0168210D03*
X0094835Y0168460D03*
X0095185Y0168060D03*
X0095785Y0168610D03*
X0096235Y0167910D03*
X0096335Y0167860D03*
X0096385Y0167860D03*
X0096435Y0167860D03*
X0096485Y0167860D03*
X0096535Y0167860D03*
X0096935Y0169460D03*
X0096085Y0170160D03*
X0096035Y0170160D03*
X0094685Y0169260D03*
X0094635Y0169310D03*
X0094585Y0169410D03*
X0094535Y0169460D03*
X0094385Y0169560D03*
X0095035Y0166810D03*
X0095185Y0166710D03*
X0095235Y0166660D03*
X0095285Y0166610D03*
X0095335Y0166560D03*
X0095435Y0165610D03*
X0095285Y0165360D03*
X0095235Y0163110D03*
X0095185Y0163110D03*
X0095235Y0161560D03*
X0095235Y0158610D03*
X0095235Y0155810D03*
X0095185Y0155810D03*
X0095235Y0154260D03*
X0095235Y0151310D03*
X0093185Y0166510D03*
D16*
X0093385Y0165210D03*
X0093435Y0165210D03*
X0095235Y0165210D03*
X0094935Y0163110D03*
X0093735Y0162510D03*
X0093285Y0162410D03*
X0093235Y0162410D03*
X0093285Y0160860D03*
X0093335Y0160860D03*
X0094985Y0161560D03*
X0091185Y0160360D03*
X0091135Y0160310D03*
X0090985Y0160210D03*
X0090335Y0159710D03*
X0090085Y0159560D03*
X0089685Y0159260D03*
X0089485Y0159110D03*
X0089335Y0159010D03*
X0089285Y0158960D03*
X0087235Y0156110D03*
X0085835Y0157310D03*
X0085635Y0157310D03*
X0085135Y0156160D03*
X0085085Y0156160D03*
X0085035Y0156160D03*
X0084985Y0156160D03*
X0084935Y0156160D03*
X0084885Y0156160D03*
X0084835Y0156160D03*
X0084785Y0156160D03*
X0084735Y0156160D03*
X0084685Y0156160D03*
X0084635Y0156160D03*
X0084235Y0158310D03*
X0084285Y0162360D03*
X0084535Y0162460D03*
X0084585Y0162460D03*
X0084685Y0162510D03*
X0084735Y0162510D03*
X0084785Y0162560D03*
X0084835Y0162560D03*
X0084935Y0162610D03*
X0084985Y0162610D03*
X0085035Y0162660D03*
X0085085Y0162660D03*
X0085185Y0162710D03*
X0085235Y0162710D03*
X0085335Y0162760D03*
X0085435Y0162810D03*
X0085485Y0162810D03*
X0085585Y0162860D03*
X0085735Y0162910D03*
X0085885Y0162960D03*
X0085985Y0163010D03*
X0086285Y0163110D03*
X0086435Y0163160D03*
X0086535Y0163210D03*
X0086585Y0163210D03*
X0086685Y0163260D03*
X0086735Y0163260D03*
X0086835Y0163310D03*
X0086885Y0163310D03*
X0086935Y0163360D03*
X0086985Y0163360D03*
X0087035Y0163360D03*
X0087085Y0163410D03*
X0087135Y0163410D03*
X0087235Y0163460D03*
X0087285Y0163460D03*
X0087535Y0165360D03*
X0087635Y0166860D03*
X0087585Y0168510D03*
X0087235Y0169760D03*
X0087185Y0169760D03*
X0085635Y0169760D03*
X0085435Y0171310D03*
X0084085Y0171310D03*
X0084035Y0171310D03*
X0083885Y0169760D03*
X0085435Y0166760D03*
X0087635Y0171410D03*
X0096885Y0168160D03*
X0093285Y0157810D03*
X0094935Y0155810D03*
X0093735Y0155210D03*
X0093285Y0155110D03*
X0093235Y0155110D03*
X0093285Y0153560D03*
X0093335Y0153560D03*
X0094985Y0154260D03*
X0093285Y0150510D03*
X0087235Y0148860D03*
X0086935Y0148760D03*
X0086835Y0148710D03*
X0086785Y0148710D03*
X0086735Y0148660D03*
X0086685Y0148660D03*
X0086585Y0148610D03*
X0086485Y0148560D03*
X0086435Y0148560D03*
X0086385Y0148510D03*
X0086335Y0148510D03*
X0086235Y0148460D03*
X0086185Y0148460D03*
X0086135Y0148410D03*
X0086085Y0148410D03*
X0085985Y0148360D03*
X0085935Y0148360D03*
X0085835Y0148310D03*
X0085735Y0148260D03*
X0085685Y0148260D03*
X0085585Y0148210D03*
X0085485Y0148160D03*
X0085435Y0148160D03*
X0085335Y0148110D03*
X0085285Y0148110D03*
X0085235Y0148060D03*
X0085185Y0148060D03*
X0085135Y0148060D03*
X0084785Y0147910D03*
X0084735Y0147910D03*
X0084585Y0147860D03*
X0085535Y0146010D03*
X0085585Y0146010D03*
X0085635Y0146010D03*
X0085685Y0146060D03*
X0085735Y0146060D03*
X0085785Y0146110D03*
X0085835Y0146110D03*
X0085885Y0146160D03*
X0085935Y0146160D03*
X0085985Y0146160D03*
X0086035Y0146210D03*
X0086085Y0146210D03*
X0086135Y0146260D03*
X0086185Y0146260D03*
X0086285Y0146310D03*
X0086335Y0146310D03*
X0086385Y0146360D03*
X0086435Y0146360D03*
X0086485Y0146410D03*
X0086535Y0146410D03*
X0086635Y0146460D03*
X0086685Y0146460D03*
X0086735Y0146510D03*
X0086785Y0146510D03*
X0086835Y0146560D03*
X0086885Y0146560D03*
X0086935Y0146610D03*
X0086985Y0146610D03*
X0087235Y0146710D03*
X0085485Y0145960D03*
X0085435Y0145960D03*
X0085385Y0145910D03*
X0085335Y0145910D03*
X0085235Y0145860D03*
X0085135Y0145810D03*
X0084985Y0145760D03*
X0084885Y0145710D03*
X0084185Y0150110D03*
X0084185Y0152910D03*
X0084235Y0152910D03*
X0084285Y0152910D03*
X0084335Y0152910D03*
X0084385Y0152910D03*
X0084435Y0152910D03*
X0084485Y0152910D03*
X0084535Y0152910D03*
X0084585Y0152910D03*
X0084635Y0152910D03*
X0084685Y0152910D03*
X0084735Y0152910D03*
X0084785Y0152910D03*
X0084835Y0152910D03*
X0086785Y0152960D03*
X0086835Y0152960D03*
X0086885Y0152960D03*
X0086935Y0152960D03*
X0086985Y0152960D03*
X0087035Y0152960D03*
X0087085Y0152960D03*
X0087135Y0152960D03*
D17*
X0087785Y0155535D03*
X0085935Y0157435D03*
X0085535Y0157435D03*
X0084485Y0158485D03*
X0084035Y0162335D03*
X0083985Y0162335D03*
X0085685Y0168235D03*
X0085635Y0168285D03*
X0085485Y0168435D03*
X0085435Y0168485D03*
X0085385Y0168585D03*
X0085585Y0172935D03*
X0085535Y0172985D03*
X0085435Y0173135D03*
X0085385Y0173235D03*
X0087335Y0174385D03*
X0087485Y0174285D03*
X0087535Y0174185D03*
X0087585Y0174135D03*
X0087635Y0174085D03*
X0093485Y0170435D03*
X0093135Y0168585D03*
X0093185Y0168485D03*
X0095085Y0168085D03*
X0095135Y0168085D03*
X0095835Y0168435D03*
X0095885Y0168335D03*
X0095935Y0168235D03*
X0095985Y0168135D03*
X0096035Y0168085D03*
X0096085Y0168035D03*
X0096135Y0167985D03*
X0096185Y0167935D03*
X0096285Y0167885D03*
X0096885Y0169635D03*
X0096835Y0169735D03*
X0096735Y0169885D03*
X0096685Y0169935D03*
X0096635Y0169985D03*
X0096585Y0170035D03*
X0096435Y0170135D03*
X0096385Y0170135D03*
X0096285Y0170185D03*
X0096235Y0170185D03*
X0096185Y0170185D03*
X0096135Y0170185D03*
X0095385Y0165535D03*
X0095335Y0165435D03*
X0095285Y0161585D03*
X0093235Y0159585D03*
X0091285Y0158885D03*
X0089235Y0160335D03*
X0084535Y0154785D03*
X0084485Y0154785D03*
X0084385Y0151135D03*
X0084435Y0151085D03*
X0087535Y0148885D03*
X0087585Y0148885D03*
X0087585Y0146735D03*
X0087535Y0146735D03*
X0093235Y0152285D03*
X0095285Y0151335D03*
X0095335Y0151335D03*
X0095285Y0154285D03*
X0095285Y0158635D03*
X0095335Y0158635D03*
D18*
X0095135Y0158610D03*
X0094885Y0158510D03*
X0094835Y0158510D03*
X0094785Y0158460D03*
X0094735Y0158460D03*
X0094685Y0158410D03*
X0094635Y0158410D03*
X0094585Y0158360D03*
X0094535Y0158360D03*
X0094485Y0158310D03*
X0094435Y0158310D03*
X0094335Y0158260D03*
X0094235Y0158210D03*
X0094135Y0158160D03*
X0094085Y0158160D03*
X0094035Y0158110D03*
X0093985Y0158110D03*
X0093885Y0158060D03*
X0093785Y0158010D03*
X0093735Y0158010D03*
X0093685Y0157960D03*
X0093635Y0157960D03*
X0093585Y0157910D03*
X0093535Y0157910D03*
X0093435Y0157860D03*
X0093185Y0156610D03*
X0093835Y0155310D03*
X0093885Y0155310D03*
X0093935Y0155310D03*
X0093985Y0155360D03*
X0094035Y0155360D03*
X0094085Y0155410D03*
X0094135Y0155410D03*
X0094235Y0155460D03*
X0094285Y0155460D03*
X0094335Y0155510D03*
X0094385Y0155510D03*
X0094485Y0155560D03*
X0094585Y0155610D03*
X0094635Y0155610D03*
X0094685Y0155660D03*
X0094735Y0155660D03*
X0094835Y0155710D03*
X0095035Y0155810D03*
X0095085Y0155810D03*
X0095085Y0154260D03*
X0094835Y0154160D03*
X0094785Y0154160D03*
X0094735Y0154110D03*
X0094685Y0154110D03*
X0094585Y0154060D03*
X0094535Y0154060D03*
X0094485Y0154010D03*
X0094435Y0154010D03*
X0094385Y0153960D03*
X0094335Y0153960D03*
X0094285Y0153960D03*
X0094235Y0153910D03*
X0094185Y0153910D03*
X0094135Y0153860D03*
X0094085Y0153860D03*
X0094035Y0153810D03*
X0093985Y0153810D03*
X0093935Y0153810D03*
X0093885Y0153760D03*
X0093835Y0153760D03*
X0093785Y0153710D03*
X0093735Y0153710D03*
X0093635Y0153660D03*
X0093585Y0153660D03*
X0093485Y0153610D03*
X0093185Y0152310D03*
X0093735Y0150710D03*
X0093785Y0150710D03*
X0093685Y0150660D03*
X0093635Y0150660D03*
X0093585Y0150610D03*
X0093535Y0150610D03*
X0093435Y0150560D03*
X0093885Y0150760D03*
X0093985Y0150810D03*
X0094035Y0150810D03*
X0094085Y0150860D03*
X0094135Y0150860D03*
X0094235Y0150910D03*
X0094335Y0150960D03*
X0094435Y0151010D03*
X0094485Y0151010D03*
X0094535Y0151060D03*
X0094585Y0151060D03*
X0094635Y0151110D03*
X0094685Y0151110D03*
X0094735Y0151160D03*
X0094785Y0151160D03*
X0094835Y0151210D03*
X0094885Y0151210D03*
X0095135Y0151310D03*
X0093535Y0155160D03*
X0093485Y0155160D03*
X0093435Y0155160D03*
X0093385Y0155110D03*
X0093335Y0155110D03*
X0091335Y0158860D03*
X0090635Y0159960D03*
X0090435Y0159810D03*
X0093185Y0159610D03*
X0093485Y0160910D03*
X0093585Y0160960D03*
X0093635Y0160960D03*
X0093735Y0161010D03*
X0093785Y0161010D03*
X0093835Y0161060D03*
X0093885Y0161060D03*
X0093935Y0161110D03*
X0093985Y0161110D03*
X0094035Y0161110D03*
X0094085Y0161160D03*
X0094135Y0161160D03*
X0094185Y0161210D03*
X0094235Y0161210D03*
X0094285Y0161260D03*
X0094335Y0161260D03*
X0094385Y0161260D03*
X0094435Y0161310D03*
X0094485Y0161310D03*
X0094535Y0161360D03*
X0094585Y0161360D03*
X0094685Y0161410D03*
X0094735Y0161410D03*
X0094785Y0161460D03*
X0094835Y0161460D03*
X0095085Y0161560D03*
X0094635Y0162910D03*
X0094585Y0162910D03*
X0094485Y0162860D03*
X0094385Y0162810D03*
X0094335Y0162810D03*
X0094285Y0162760D03*
X0094235Y0162760D03*
X0094135Y0162710D03*
X0094085Y0162710D03*
X0094035Y0162660D03*
X0093985Y0162660D03*
X0093935Y0162610D03*
X0093885Y0162610D03*
X0093835Y0162610D03*
X0093535Y0162460D03*
X0093485Y0162460D03*
X0093435Y0162460D03*
X0093385Y0162410D03*
X0093335Y0162410D03*
X0094685Y0162960D03*
X0094735Y0162960D03*
X0094835Y0163010D03*
X0095035Y0163110D03*
X0095085Y0163110D03*
X0095085Y0165160D03*
X0095035Y0165160D03*
X0094985Y0165160D03*
X0093885Y0165160D03*
X0093835Y0165160D03*
X0093785Y0165160D03*
X0093735Y0165160D03*
X0093685Y0165160D03*
X0093635Y0165160D03*
X0093235Y0165160D03*
X0093035Y0166110D03*
X0093135Y0166410D03*
X0093585Y0166860D03*
X0093685Y0166910D03*
X0093735Y0166910D03*
X0093835Y0166960D03*
X0093885Y0166960D03*
X0094185Y0167010D03*
X0094235Y0167010D03*
X0094285Y0167010D03*
X0094335Y0167010D03*
X0094385Y0167010D03*
X0094435Y0167010D03*
X0094585Y0166960D03*
X0094635Y0166960D03*
X0094685Y0166960D03*
X0094785Y0166910D03*
X0094835Y0166910D03*
X0094935Y0166860D03*
X0095285Y0168110D03*
X0094635Y0168410D03*
X0094585Y0168360D03*
X0094535Y0168310D03*
X0094485Y0168260D03*
X0094435Y0168210D03*
X0094385Y0168210D03*
X0094335Y0168160D03*
X0094285Y0168160D03*
X0094185Y0168110D03*
X0094135Y0168110D03*
X0094085Y0168110D03*
X0094035Y0168110D03*
X0093985Y0168110D03*
X0093935Y0168110D03*
X0093885Y0168110D03*
X0093835Y0168110D03*
X0093785Y0168110D03*
X0093735Y0168110D03*
X0093435Y0169560D03*
X0093585Y0169610D03*
X0093635Y0169610D03*
X0093685Y0169660D03*
X0093735Y0169660D03*
X0093785Y0169660D03*
X0093835Y0169660D03*
X0093885Y0169660D03*
X0093935Y0169660D03*
X0093985Y0169660D03*
X0094035Y0169660D03*
X0094085Y0169660D03*
X0094135Y0169660D03*
X0094235Y0169610D03*
X0094285Y0169610D03*
X0093335Y0170410D03*
X0093085Y0170260D03*
X0095935Y0170110D03*
X0096835Y0168060D03*
X0096785Y0168010D03*
X0096735Y0167960D03*
X0096685Y0167910D03*
X0093185Y0163910D03*
X0091835Y0165160D03*
X0091785Y0165160D03*
X0091735Y0165160D03*
X0087435Y0165310D03*
X0087335Y0165260D03*
X0087285Y0165260D03*
X0086935Y0165210D03*
X0086885Y0165210D03*
X0086835Y0165210D03*
X0086785Y0165210D03*
X0086735Y0165210D03*
X0086685Y0165210D03*
X0086635Y0165210D03*
X0086585Y0165210D03*
X0086535Y0165210D03*
X0086485Y0165210D03*
X0086435Y0165210D03*
X0086385Y0165210D03*
X0086335Y0165210D03*
X0086285Y0165210D03*
X0086235Y0165210D03*
X0085435Y0165160D03*
X0085535Y0166810D03*
X0085585Y0166810D03*
X0085635Y0166810D03*
X0085685Y0166810D03*
X0086535Y0166810D03*
X0086585Y0166810D03*
X0086635Y0166810D03*
X0086685Y0166810D03*
X0086735Y0166810D03*
X0086785Y0166810D03*
X0086835Y0166810D03*
X0086885Y0166810D03*
X0086935Y0166810D03*
X0086985Y0166810D03*
X0087135Y0166760D03*
X0087285Y0166810D03*
X0087335Y0166810D03*
X0087385Y0166810D03*
X0087485Y0166810D03*
X0087535Y0166810D03*
X0087035Y0168060D03*
X0087135Y0168110D03*
X0087185Y0168110D03*
X0087235Y0168160D03*
X0087285Y0168160D03*
X0087335Y0168210D03*
X0087385Y0168260D03*
X0087435Y0168310D03*
X0087485Y0168360D03*
X0087535Y0168410D03*
X0086785Y0168010D03*
X0086735Y0168010D03*
X0086485Y0168010D03*
X0086435Y0168010D03*
X0086385Y0168010D03*
X0086335Y0168010D03*
X0086285Y0168010D03*
X0086235Y0168010D03*
X0086185Y0168060D03*
X0086135Y0168060D03*
X0086085Y0168060D03*
X0085985Y0169810D03*
X0085935Y0169810D03*
X0085885Y0169810D03*
X0085835Y0169810D03*
X0086835Y0169810D03*
X0086885Y0169810D03*
X0086935Y0169810D03*
X0086985Y0169810D03*
X0087035Y0169810D03*
X0087535Y0169860D03*
X0087535Y0171410D03*
X0087585Y0171410D03*
X0087085Y0172660D03*
X0087035Y0172660D03*
X0086985Y0172660D03*
X0086935Y0172610D03*
X0086885Y0172610D03*
X0086835Y0172610D03*
X0086785Y0172610D03*
X0087135Y0172710D03*
X0087235Y0172760D03*
X0086335Y0172610D03*
X0086285Y0172610D03*
X0086235Y0172610D03*
X0086185Y0172610D03*
X0086085Y0172660D03*
X0086035Y0172660D03*
X0085535Y0171360D03*
X0085485Y0171360D03*
X0084235Y0171310D03*
X0084035Y0169810D03*
X0083985Y0169810D03*
X0083935Y0169810D03*
X0085735Y0174410D03*
X0085785Y0174460D03*
X0085885Y0174510D03*
X0085935Y0174510D03*
X0085985Y0174560D03*
X0086035Y0174560D03*
X0086085Y0174610D03*
X0086135Y0174610D03*
X0086185Y0174610D03*
X0086235Y0174610D03*
X0086335Y0174660D03*
X0086385Y0174660D03*
X0086435Y0174660D03*
X0086485Y0174660D03*
X0086535Y0174660D03*
X0086585Y0174660D03*
X0086635Y0174660D03*
X0086685Y0174660D03*
X0086835Y0174610D03*
X0086885Y0174610D03*
X0087785Y0173560D03*
X0084185Y0162360D03*
X0087535Y0161010D03*
X0084335Y0154710D03*
X0084235Y0150110D03*
X0087335Y0148860D03*
X0087385Y0148860D03*
X0087385Y0146710D03*
D19*
X0087635Y0146760D03*
X0087635Y0148860D03*
X0084535Y0150010D03*
X0084435Y0150060D03*
X0084385Y0150060D03*
X0084485Y0151060D03*
X0084535Y0151060D03*
X0084585Y0154810D03*
X0085485Y0157460D03*
X0085985Y0157460D03*
X0084535Y0158510D03*
X0087235Y0161060D03*
X0087335Y0161010D03*
X0087385Y0161010D03*
X0089285Y0160310D03*
X0093285Y0159560D03*
X0095335Y0161560D03*
X0095335Y0163110D03*
X0095285Y0163110D03*
X0093235Y0163910D03*
X0095035Y0168110D03*
X0094985Y0168160D03*
X0094885Y0168310D03*
X0096335Y0170160D03*
X0096485Y0170110D03*
X0096535Y0170060D03*
X0096785Y0169810D03*
X0093035Y0170260D03*
X0087585Y0169210D03*
X0087785Y0164260D03*
X0084335Y0171310D03*
X0093235Y0156610D03*
X0095285Y0155810D03*
X0095335Y0155810D03*
X0095335Y0154260D03*
X0093285Y0152260D03*
D20*
X0093935Y0150785D03*
X0093835Y0150735D03*
X0094185Y0150885D03*
X0094285Y0150935D03*
X0094385Y0150985D03*
X0094935Y0151235D03*
X0095185Y0151335D03*
X0094635Y0154085D03*
X0095135Y0154285D03*
X0095185Y0154285D03*
X0095135Y0155785D03*
X0094185Y0158185D03*
X0094285Y0158235D03*
X0094385Y0158285D03*
X0093935Y0158085D03*
X0093835Y0158035D03*
X0094935Y0158535D03*
X0095185Y0158635D03*
X0094635Y0161385D03*
X0095135Y0161585D03*
X0095185Y0161585D03*
X0095135Y0163085D03*
X0094935Y0165135D03*
X0094885Y0165135D03*
X0094835Y0165135D03*
X0094785Y0165135D03*
X0094735Y0165135D03*
X0094685Y0165135D03*
X0094635Y0165135D03*
X0094585Y0165135D03*
X0094535Y0165135D03*
X0094485Y0165135D03*
X0094435Y0165135D03*
X0094385Y0165135D03*
X0094335Y0165135D03*
X0094285Y0165135D03*
X0094235Y0165135D03*
X0094185Y0165135D03*
X0094135Y0165135D03*
X0094085Y0165135D03*
X0094035Y0165135D03*
X0093985Y0165135D03*
X0093935Y0165135D03*
X0093185Y0165185D03*
X0093135Y0165185D03*
X0093085Y0165185D03*
X0093035Y0165185D03*
X0092985Y0165185D03*
X0092935Y0165185D03*
X0092885Y0165185D03*
X0092835Y0165185D03*
X0092785Y0165185D03*
X0092735Y0165185D03*
X0092685Y0165185D03*
X0092635Y0165185D03*
X0092585Y0165185D03*
X0092535Y0165185D03*
X0092485Y0165185D03*
X0092435Y0165185D03*
X0092385Y0165185D03*
X0092335Y0165185D03*
X0092285Y0165185D03*
X0092235Y0165185D03*
X0092185Y0165185D03*
X0092135Y0165185D03*
X0092085Y0165185D03*
X0092035Y0165185D03*
X0091985Y0165185D03*
X0091935Y0165185D03*
X0091885Y0165185D03*
X0093235Y0166585D03*
X0093285Y0166635D03*
X0093335Y0166685D03*
X0093385Y0166735D03*
X0093435Y0166785D03*
X0093485Y0166785D03*
X0093535Y0166835D03*
X0093635Y0166885D03*
X0094735Y0166935D03*
X0094885Y0166885D03*
X0094985Y0166835D03*
X0095085Y0166785D03*
X0095135Y0166735D03*
X0095385Y0166485D03*
X0095435Y0166385D03*
X0095235Y0168085D03*
X0096585Y0167885D03*
X0096635Y0167885D03*
X0095985Y0170135D03*
X0094485Y0169485D03*
X0094435Y0169535D03*
X0094335Y0169585D03*
X0094185Y0169635D03*
X0093535Y0169585D03*
X0093485Y0169585D03*
X0093285Y0169435D03*
X0093135Y0169235D03*
X0093035Y0168935D03*
X0093535Y0168185D03*
X0093585Y0168185D03*
X0093635Y0168135D03*
X0093685Y0168135D03*
X0093435Y0170435D03*
X0093385Y0170435D03*
X0087485Y0169835D03*
X0087435Y0169835D03*
X0087385Y0169835D03*
X0087335Y0169835D03*
X0087285Y0169835D03*
X0086785Y0169835D03*
X0086735Y0169835D03*
X0086685Y0169835D03*
X0086635Y0169835D03*
X0086585Y0169835D03*
X0086535Y0169835D03*
X0086485Y0169835D03*
X0086435Y0169835D03*
X0086385Y0169835D03*
X0086335Y0169835D03*
X0086285Y0169835D03*
X0086235Y0169835D03*
X0086185Y0169835D03*
X0086135Y0169835D03*
X0086085Y0169835D03*
X0086035Y0169835D03*
X0085585Y0169835D03*
X0085535Y0169835D03*
X0085485Y0169835D03*
X0085435Y0169835D03*
X0085385Y0169835D03*
X0085335Y0169835D03*
X0085285Y0169835D03*
X0085235Y0169835D03*
X0085185Y0169835D03*
X0085135Y0169835D03*
X0085085Y0169835D03*
X0085035Y0169835D03*
X0084985Y0169835D03*
X0084935Y0169835D03*
X0084885Y0169835D03*
X0084835Y0169835D03*
X0084785Y0169835D03*
X0084735Y0169835D03*
X0084685Y0169835D03*
X0084635Y0169835D03*
X0084585Y0169835D03*
X0084535Y0169835D03*
X0084485Y0169835D03*
X0084435Y0169835D03*
X0084385Y0169835D03*
X0084335Y0169835D03*
X0084285Y0169835D03*
X0084235Y0169835D03*
X0084185Y0169835D03*
X0084135Y0169835D03*
X0084085Y0169835D03*
X0083885Y0171285D03*
X0083835Y0171285D03*
X0085285Y0171385D03*
X0085585Y0171385D03*
X0085635Y0171385D03*
X0085685Y0171385D03*
X0085735Y0171385D03*
X0085785Y0171385D03*
X0085835Y0171385D03*
X0086335Y0171385D03*
X0086385Y0171385D03*
X0086435Y0171385D03*
X0086485Y0171385D03*
X0086535Y0171385D03*
X0086585Y0171385D03*
X0086635Y0171385D03*
X0086685Y0171385D03*
X0086735Y0171385D03*
X0086785Y0171385D03*
X0086835Y0171385D03*
X0086885Y0171385D03*
X0086935Y0171385D03*
X0086985Y0171385D03*
X0087035Y0171385D03*
X0087085Y0171385D03*
X0087135Y0171385D03*
X0087185Y0171385D03*
X0087235Y0171385D03*
X0087285Y0171385D03*
X0087335Y0171385D03*
X0087385Y0171385D03*
X0087435Y0171385D03*
X0087485Y0171385D03*
X0087185Y0172735D03*
X0087285Y0172785D03*
X0087335Y0172835D03*
X0087385Y0172835D03*
X0087435Y0172885D03*
X0087485Y0172935D03*
X0087635Y0173135D03*
X0087685Y0173235D03*
X0087185Y0174485D03*
X0087085Y0174535D03*
X0086985Y0174585D03*
X0086935Y0174585D03*
X0086785Y0174635D03*
X0086735Y0174635D03*
X0085835Y0174485D03*
X0085685Y0174385D03*
X0085635Y0174335D03*
X0085585Y0174285D03*
X0085535Y0174235D03*
X0085435Y0174085D03*
X0085385Y0173985D03*
X0085785Y0172785D03*
X0085885Y0172735D03*
X0085935Y0172685D03*
X0085985Y0172685D03*
X0086135Y0172635D03*
X0085285Y0168885D03*
X0085885Y0168135D03*
X0085935Y0168085D03*
X0085985Y0168085D03*
X0086035Y0168085D03*
X0086035Y0166835D03*
X0085985Y0166835D03*
X0085935Y0166835D03*
X0085885Y0166835D03*
X0085835Y0166835D03*
X0085785Y0166835D03*
X0085735Y0166835D03*
X0086085Y0166835D03*
X0086135Y0166835D03*
X0086185Y0166835D03*
X0086235Y0166835D03*
X0086285Y0166835D03*
X0086335Y0166835D03*
X0086385Y0166835D03*
X0086435Y0166835D03*
X0086485Y0166835D03*
X0087435Y0166835D03*
X0087785Y0165635D03*
X0087235Y0165235D03*
X0087185Y0165235D03*
X0087135Y0165235D03*
X0087085Y0165235D03*
X0087035Y0165235D03*
X0086985Y0165235D03*
X0086185Y0165185D03*
X0086135Y0165185D03*
X0086085Y0165185D03*
X0086035Y0165185D03*
X0085985Y0165185D03*
X0085935Y0165185D03*
X0085885Y0165185D03*
X0085835Y0165185D03*
X0085785Y0165185D03*
X0085735Y0165185D03*
X0085685Y0165185D03*
X0085635Y0165185D03*
X0085585Y0165185D03*
X0085535Y0165185D03*
X0085485Y0165185D03*
X0084135Y0162335D03*
X0084085Y0162335D03*
X0087485Y0160985D03*
X0085885Y0157385D03*
X0085585Y0157385D03*
X0084385Y0158435D03*
X0084335Y0158385D03*
X0084385Y0154735D03*
X0084285Y0151185D03*
X0084285Y0150085D03*
X0087435Y0148885D03*
X0087435Y0146735D03*
X0087485Y0146735D03*
D21*
X0087335Y0146735D03*
X0087285Y0146735D03*
X0086585Y0146435D03*
X0086235Y0146285D03*
X0085535Y0148185D03*
X0085635Y0148235D03*
X0085785Y0148285D03*
X0085885Y0148335D03*
X0086035Y0148385D03*
X0086285Y0148485D03*
X0086535Y0148585D03*
X0086635Y0148635D03*
X0086885Y0148735D03*
X0087285Y0148885D03*
X0085385Y0148135D03*
X0084235Y0151235D03*
X0084885Y0152935D03*
X0084935Y0152935D03*
X0084985Y0152935D03*
X0085035Y0152935D03*
X0085085Y0152935D03*
X0085135Y0152935D03*
X0085185Y0152935D03*
X0085235Y0152935D03*
X0085285Y0152935D03*
X0085335Y0152935D03*
X0085385Y0152935D03*
X0085435Y0152935D03*
X0085485Y0152935D03*
X0085535Y0152935D03*
X0085585Y0152935D03*
X0085635Y0152935D03*
X0085685Y0152935D03*
X0085735Y0152935D03*
X0085785Y0152935D03*
X0085835Y0152935D03*
X0085885Y0152935D03*
X0085935Y0152935D03*
X0085985Y0152935D03*
X0086035Y0152935D03*
X0086085Y0152935D03*
X0086135Y0152935D03*
X0086185Y0152935D03*
X0086235Y0152935D03*
X0086285Y0152935D03*
X0086335Y0152935D03*
X0086385Y0152935D03*
X0086435Y0152935D03*
X0086485Y0152935D03*
X0086535Y0152935D03*
X0086585Y0152935D03*
X0086635Y0152935D03*
X0086685Y0152935D03*
X0086735Y0152935D03*
X0084285Y0154685D03*
X0084235Y0154635D03*
X0085185Y0156135D03*
X0085235Y0156135D03*
X0085285Y0156135D03*
X0085335Y0156135D03*
X0085385Y0156135D03*
X0085435Y0156135D03*
X0085485Y0156135D03*
X0085535Y0156135D03*
X0085585Y0156135D03*
X0085635Y0156135D03*
X0085835Y0156135D03*
X0085885Y0156135D03*
X0085935Y0156135D03*
X0085985Y0156135D03*
X0086035Y0156135D03*
X0086085Y0156135D03*
X0086135Y0156135D03*
X0086185Y0156135D03*
X0086235Y0156135D03*
X0086285Y0156135D03*
X0086335Y0156135D03*
X0086385Y0156135D03*
X0086435Y0156135D03*
X0086485Y0156135D03*
X0086535Y0156135D03*
X0086585Y0156135D03*
X0086635Y0156135D03*
X0086685Y0156135D03*
X0086735Y0156135D03*
X0086785Y0156135D03*
X0086835Y0156135D03*
X0086885Y0156135D03*
X0086935Y0156135D03*
X0086985Y0156135D03*
X0087035Y0156135D03*
X0087085Y0156135D03*
X0087135Y0156135D03*
X0087185Y0156135D03*
X0089385Y0159035D03*
X0089435Y0159085D03*
X0089535Y0159135D03*
X0089585Y0159185D03*
X0089635Y0159235D03*
X0089735Y0159285D03*
X0089785Y0159335D03*
X0089835Y0159385D03*
X0089885Y0159385D03*
X0089935Y0159435D03*
X0089985Y0159485D03*
X0090135Y0159585D03*
X0090185Y0159635D03*
X0090235Y0159685D03*
X0090285Y0159685D03*
X0090485Y0159835D03*
X0090535Y0159885D03*
X0090585Y0159935D03*
X0090685Y0159985D03*
X0090735Y0160035D03*
X0090785Y0160085D03*
X0090835Y0160085D03*
X0090885Y0160135D03*
X0090935Y0160185D03*
X0091035Y0160235D03*
X0091085Y0160285D03*
X0089185Y0160335D03*
X0086785Y0163285D03*
X0086635Y0163235D03*
X0086485Y0163185D03*
X0086385Y0163135D03*
X0086335Y0163135D03*
X0086085Y0163035D03*
X0086035Y0163035D03*
X0085935Y0162985D03*
X0085835Y0162935D03*
X0085785Y0162935D03*
X0085685Y0162885D03*
X0085635Y0162885D03*
X0085535Y0162835D03*
X0085385Y0162785D03*
X0085285Y0162735D03*
X0085135Y0162685D03*
X0084885Y0162585D03*
X0084635Y0162485D03*
X0084235Y0162335D03*
X0084285Y0158335D03*
X0087385Y0165285D03*
X0087485Y0165335D03*
X0087185Y0166735D03*
X0087085Y0166785D03*
X0087035Y0166785D03*
X0087585Y0166835D03*
X0086985Y0168035D03*
X0086935Y0168035D03*
X0086885Y0168035D03*
X0086835Y0168035D03*
X0086685Y0167985D03*
X0086635Y0167985D03*
X0086585Y0167985D03*
X0086535Y0167985D03*
X0087085Y0168085D03*
X0087085Y0169785D03*
X0087135Y0169785D03*
X0087585Y0169885D03*
X0085785Y0169785D03*
X0085735Y0169785D03*
X0085685Y0169785D03*
X0084185Y0171285D03*
X0084135Y0171285D03*
X0083985Y0171285D03*
X0083935Y0171285D03*
X0085285Y0173635D03*
X0086285Y0174635D03*
X0086385Y0172585D03*
X0086435Y0172585D03*
X0086485Y0172585D03*
X0086535Y0172585D03*
X0086585Y0172585D03*
X0086635Y0172585D03*
X0086685Y0172585D03*
X0086735Y0172585D03*
X0085485Y0166785D03*
X0091685Y0165135D03*
X0093485Y0165185D03*
X0093535Y0165185D03*
X0093585Y0165185D03*
X0095135Y0165185D03*
X0095185Y0165185D03*
X0095535Y0166035D03*
X0094535Y0166985D03*
X0094485Y0166985D03*
X0094135Y0166985D03*
X0094085Y0166985D03*
X0094035Y0166985D03*
X0093985Y0166985D03*
X0093935Y0166985D03*
X0093785Y0166935D03*
X0094235Y0168135D03*
X0094685Y0168535D03*
X0093385Y0169585D03*
X0093285Y0170385D03*
X0095885Y0170085D03*
X0094985Y0163085D03*
X0094785Y0162985D03*
X0094535Y0162885D03*
X0094435Y0162835D03*
X0094185Y0162735D03*
X0093685Y0162485D03*
X0093635Y0162485D03*
X0093585Y0162485D03*
X0093685Y0160985D03*
X0093535Y0160935D03*
X0093435Y0160885D03*
X0093385Y0160885D03*
X0095035Y0161585D03*
X0095035Y0158635D03*
X0095085Y0158635D03*
X0093485Y0157885D03*
X0093385Y0157835D03*
X0093335Y0157835D03*
X0094185Y0155435D03*
X0094435Y0155535D03*
X0094535Y0155585D03*
X0094785Y0155685D03*
X0094985Y0155785D03*
X0093685Y0155185D03*
X0093635Y0155185D03*
X0093585Y0155185D03*
X0093685Y0153685D03*
X0093535Y0153635D03*
X0093435Y0153585D03*
X0093385Y0153585D03*
X0095035Y0154285D03*
X0095035Y0151335D03*
X0095085Y0151335D03*
X0093485Y0150585D03*
X0093385Y0150535D03*
X0093335Y0150535D03*
D22*
X0087085Y0148860D03*
X0087085Y0146710D03*
X0087135Y0146710D03*
X0084535Y0145560D03*
X0084435Y0145510D03*
X0084435Y0147810D03*
X0084385Y0147810D03*
X0084135Y0150110D03*
X0087335Y0152960D03*
X0083885Y0154560D03*
X0084235Y0156110D03*
X0084285Y0156110D03*
X0087435Y0163510D03*
X0087735Y0165660D03*
X0087735Y0166960D03*
X0087735Y0168810D03*
X0085385Y0165060D03*
X0085335Y0165060D03*
X0093285Y0165260D03*
X0095335Y0168210D03*
X0094785Y0168760D03*
X0095835Y0170010D03*
D23*
X0095785Y0169910D03*
X0093085Y0163910D03*
X0093185Y0162410D03*
X0093185Y0160860D03*
X0093085Y0156610D03*
X0093185Y0155110D03*
X0093185Y0153560D03*
X0087585Y0156160D03*
X0084135Y0154510D03*
X0083885Y0151410D03*
X0084235Y0147760D03*
X0084285Y0145460D03*
X0087035Y0146710D03*
X0086985Y0148860D03*
X0085385Y0166660D03*
X0085335Y0168910D03*
X0083835Y0169660D03*
X0083785Y0169660D03*
X0087685Y0170010D03*
X0087735Y0170010D03*
X0087685Y0171360D03*
D24*
X0095735Y0169385D03*
D25*
X0095685Y0169235D03*
X0095435Y0168885D03*
X0086235Y0162335D03*
X0086185Y0162335D03*
D26*
X0095635Y0169135D03*
D27*
X0095585Y0169060D03*
X0095535Y0169010D03*
X0095485Y0168960D03*
D28*
X0095435Y0164985D03*
X0095385Y0164985D03*
X0094785Y0163385D03*
X0094735Y0163385D03*
X0094635Y0163435D03*
X0094585Y0163435D03*
X0094535Y0163485D03*
X0094485Y0163485D03*
X0094385Y0163535D03*
X0094335Y0163535D03*
X0094235Y0163585D03*
X0094185Y0163585D03*
X0094085Y0163635D03*
X0094035Y0163635D03*
X0093985Y0163685D03*
X0093935Y0163685D03*
X0093885Y0163685D03*
X0093835Y0163735D03*
X0093785Y0163735D03*
X0093735Y0163735D03*
X0093635Y0163785D03*
X0093585Y0163785D03*
X0093485Y0163835D03*
X0093435Y0163835D03*
X0093835Y0162235D03*
X0093885Y0162235D03*
X0093985Y0162185D03*
X0094135Y0162135D03*
X0094235Y0162085D03*
X0094285Y0162085D03*
X0094385Y0162035D03*
X0094485Y0161985D03*
X0094635Y0161935D03*
X0094735Y0161885D03*
X0094835Y0161835D03*
X0093785Y0159385D03*
X0093735Y0159385D03*
X0093835Y0159335D03*
X0093885Y0159335D03*
X0093935Y0159285D03*
X0093985Y0159285D03*
X0094035Y0159285D03*
X0094085Y0159235D03*
X0094135Y0159235D03*
X0094185Y0159185D03*
X0094235Y0159185D03*
X0094285Y0159185D03*
X0094335Y0159135D03*
X0094385Y0159135D03*
X0094435Y0159085D03*
X0094485Y0159085D03*
X0094535Y0159085D03*
X0094585Y0159035D03*
X0094635Y0159035D03*
X0094685Y0158985D03*
X0094735Y0158985D03*
X0094835Y0158935D03*
X0094935Y0158885D03*
X0095485Y0158635D03*
X0095535Y0158635D03*
X0094535Y0156185D03*
X0094485Y0156185D03*
X0094385Y0156235D03*
X0094335Y0156235D03*
X0094235Y0156285D03*
X0094185Y0156285D03*
X0094085Y0156335D03*
X0094035Y0156335D03*
X0093985Y0156385D03*
X0093935Y0156385D03*
X0093885Y0156385D03*
X0093835Y0156435D03*
X0093785Y0156435D03*
X0093735Y0156435D03*
X0093635Y0156485D03*
X0093585Y0156485D03*
X0093485Y0156535D03*
X0093435Y0156535D03*
X0094585Y0156135D03*
X0094635Y0156135D03*
X0094735Y0156085D03*
X0094785Y0156085D03*
X0094285Y0154785D03*
X0094235Y0154785D03*
X0094135Y0154835D03*
X0093985Y0154885D03*
X0093885Y0154935D03*
X0093835Y0154935D03*
X0094385Y0154735D03*
X0094485Y0154685D03*
X0094635Y0154635D03*
X0094735Y0154585D03*
X0094835Y0154535D03*
X0093785Y0152085D03*
X0093735Y0152085D03*
X0093835Y0152035D03*
X0093885Y0152035D03*
X0093935Y0151985D03*
X0093985Y0151985D03*
X0094035Y0151985D03*
X0094085Y0151935D03*
X0094135Y0151935D03*
X0094185Y0151885D03*
X0094235Y0151885D03*
X0094285Y0151885D03*
X0094335Y0151835D03*
X0094385Y0151835D03*
X0094435Y0151785D03*
X0094485Y0151785D03*
X0094535Y0151785D03*
X0094585Y0151735D03*
X0094635Y0151735D03*
X0094685Y0151685D03*
X0094735Y0151685D03*
X0094835Y0151635D03*
X0094935Y0151585D03*
X0095485Y0151335D03*
X0095535Y0151335D03*
X0093635Y0152135D03*
X0093585Y0152135D03*
X0087835Y0148885D03*
X0087835Y0146735D03*
X0086335Y0147235D03*
X0086185Y0147285D03*
X0084835Y0150985D03*
X0084785Y0150985D03*
X0084735Y0150985D03*
X0084785Y0154885D03*
X0084835Y0154885D03*
X0085285Y0157535D03*
X0085185Y0157585D03*
X0085135Y0157585D03*
X0085085Y0157585D03*
X0085035Y0157585D03*
X0084835Y0158635D03*
X0084785Y0158635D03*
X0086235Y0157535D03*
X0086285Y0157535D03*
X0086335Y0157535D03*
X0086385Y0157535D03*
X0086435Y0157535D03*
X0089585Y0160135D03*
X0089785Y0159985D03*
X0089985Y0159835D03*
X0090535Y0159385D03*
X0090685Y0159285D03*
X0093585Y0159435D03*
X0093635Y0159435D03*
X0087335Y0166435D03*
X0087285Y0166485D03*
X0085585Y0161635D03*
X0085435Y0161685D03*
X0085835Y0161535D03*
X0085985Y0161485D03*
X0085535Y0169485D03*
X0087335Y0169485D03*
D29*
X0095485Y0164960D03*
X0095535Y0163110D03*
X0095535Y0161560D03*
X0095535Y0155810D03*
X0095535Y0154260D03*
D30*
X0095485Y0154260D03*
X0095435Y0154260D03*
X0094785Y0154560D03*
X0094685Y0154610D03*
X0094585Y0154660D03*
X0094535Y0154660D03*
X0094435Y0154710D03*
X0094335Y0154760D03*
X0094185Y0154810D03*
X0094085Y0154860D03*
X0094035Y0154860D03*
X0093935Y0154910D03*
X0094435Y0156210D03*
X0094285Y0156260D03*
X0094135Y0156310D03*
X0093685Y0156460D03*
X0093535Y0156510D03*
X0093385Y0156560D03*
X0094685Y0156110D03*
X0094835Y0156060D03*
X0095385Y0155810D03*
X0095435Y0155810D03*
X0095485Y0155810D03*
X0094885Y0158910D03*
X0094785Y0158960D03*
X0093685Y0159410D03*
X0093535Y0159460D03*
X0093485Y0159460D03*
X0093435Y0159510D03*
X0093385Y0159510D03*
X0091135Y0159010D03*
X0091035Y0159060D03*
X0090985Y0159110D03*
X0090935Y0159110D03*
X0090885Y0159160D03*
X0090835Y0159210D03*
X0090785Y0159210D03*
X0090735Y0159260D03*
X0090635Y0159310D03*
X0090585Y0159360D03*
X0090485Y0159410D03*
X0090435Y0159460D03*
X0089935Y0159860D03*
X0089885Y0159910D03*
X0089835Y0159960D03*
X0089735Y0160010D03*
X0089685Y0160060D03*
X0089635Y0160110D03*
X0089535Y0160160D03*
X0089485Y0160210D03*
X0089385Y0160260D03*
X0087785Y0160460D03*
X0087085Y0161110D03*
X0087035Y0161110D03*
X0086935Y0161160D03*
X0086885Y0161160D03*
X0086835Y0161210D03*
X0086785Y0161210D03*
X0086735Y0161210D03*
X0086685Y0161260D03*
X0086635Y0161260D03*
X0086585Y0161260D03*
X0086535Y0161310D03*
X0086485Y0161310D03*
X0086435Y0161310D03*
X0086385Y0161360D03*
X0086335Y0161360D03*
X0086285Y0161410D03*
X0086085Y0161460D03*
X0086035Y0161460D03*
X0085935Y0161510D03*
X0085885Y0161510D03*
X0085785Y0161560D03*
X0085735Y0161560D03*
X0085685Y0161610D03*
X0085635Y0161610D03*
X0085535Y0161660D03*
X0085485Y0161660D03*
X0085385Y0161710D03*
X0085335Y0161710D03*
X0085285Y0161760D03*
X0085235Y0161760D03*
X0085185Y0161760D03*
X0085135Y0161810D03*
X0085085Y0161810D03*
X0085035Y0161860D03*
X0084985Y0161860D03*
X0084935Y0161860D03*
X0084885Y0161910D03*
X0084835Y0161910D03*
X0084785Y0161960D03*
X0084735Y0161960D03*
X0084635Y0162010D03*
X0084585Y0162010D03*
X0084535Y0162060D03*
X0083835Y0162360D03*
X0084735Y0158610D03*
X0084635Y0158560D03*
X0085235Y0157560D03*
X0085335Y0157510D03*
X0085385Y0157510D03*
X0086135Y0157510D03*
X0086185Y0157510D03*
X0084735Y0154860D03*
X0084685Y0151010D03*
X0084635Y0151010D03*
X0084735Y0149960D03*
X0084835Y0149910D03*
X0084885Y0149910D03*
X0084985Y0149860D03*
X0085035Y0149860D03*
X0085085Y0149810D03*
X0085135Y0149810D03*
X0085185Y0149810D03*
X0085235Y0149760D03*
X0085285Y0149760D03*
X0085335Y0149760D03*
X0085385Y0149710D03*
X0085435Y0149710D03*
X0085485Y0149660D03*
X0085535Y0149660D03*
X0085585Y0149660D03*
X0085635Y0149610D03*
X0085685Y0149610D03*
X0085735Y0149610D03*
X0085785Y0149560D03*
X0085835Y0149560D03*
X0085885Y0149560D03*
X0085935Y0149510D03*
X0085985Y0149510D03*
X0086035Y0149510D03*
X0086085Y0149460D03*
X0086135Y0149460D03*
X0086185Y0149460D03*
X0086235Y0149410D03*
X0086285Y0149410D03*
X0086335Y0149360D03*
X0086385Y0149360D03*
X0086435Y0149360D03*
X0086485Y0149310D03*
X0086535Y0149310D03*
X0086585Y0149310D03*
X0086635Y0149260D03*
X0086685Y0149260D03*
X0086735Y0149260D03*
X0086785Y0149210D03*
X0086835Y0149210D03*
X0086935Y0149160D03*
X0087735Y0148860D03*
X0087785Y0148860D03*
X0086885Y0147060D03*
X0086835Y0147060D03*
X0086785Y0147060D03*
X0086735Y0147110D03*
X0086685Y0147110D03*
X0086635Y0147110D03*
X0086585Y0147160D03*
X0086535Y0147160D03*
X0086485Y0147160D03*
X0086435Y0147210D03*
X0086385Y0147210D03*
X0086285Y0147260D03*
X0086235Y0147260D03*
X0086135Y0147310D03*
X0086085Y0147310D03*
X0086035Y0147360D03*
X0085985Y0147360D03*
X0085935Y0147360D03*
X0085885Y0147410D03*
X0085835Y0147410D03*
X0085785Y0147410D03*
X0085735Y0147460D03*
X0085685Y0147460D03*
X0085635Y0147460D03*
X0085585Y0147510D03*
X0085535Y0147510D03*
X0085485Y0147510D03*
X0085435Y0147560D03*
X0085385Y0147560D03*
X0085335Y0147560D03*
X0085285Y0147610D03*
X0085235Y0147610D03*
X0085185Y0147610D03*
X0085135Y0147660D03*
X0086935Y0147010D03*
X0086985Y0147010D03*
X0087785Y0146760D03*
X0093385Y0152210D03*
X0093435Y0152210D03*
X0093485Y0152160D03*
X0093535Y0152160D03*
X0093685Y0152110D03*
X0094785Y0151660D03*
X0094885Y0151610D03*
X0095435Y0161560D03*
X0095485Y0161560D03*
X0094785Y0161860D03*
X0094685Y0161910D03*
X0094585Y0161960D03*
X0094535Y0161960D03*
X0094435Y0162010D03*
X0094335Y0162060D03*
X0094185Y0162110D03*
X0094085Y0162160D03*
X0094035Y0162160D03*
X0093935Y0162210D03*
X0094435Y0163510D03*
X0094285Y0163560D03*
X0094135Y0163610D03*
X0093685Y0163760D03*
X0093535Y0163810D03*
X0093385Y0163860D03*
X0094685Y0163410D03*
X0094835Y0163360D03*
X0095385Y0163110D03*
X0095435Y0163110D03*
X0095485Y0163110D03*
X0095335Y0165010D03*
X0093185Y0165610D03*
X0093335Y0169810D03*
X0087785Y0170860D03*
X0087285Y0169510D03*
X0087385Y0169460D03*
X0087435Y0169410D03*
X0085585Y0169510D03*
X0085485Y0169410D03*
X0085435Y0169360D03*
X0087385Y0166410D03*
X0087435Y0166360D03*
X0087485Y0166310D03*
D31*
X0089085Y0160385D03*
X0089135Y0160385D03*
X0087535Y0152935D03*
X0084085Y0151435D03*
X0084185Y0145435D03*
X0095485Y0166035D03*
X0094735Y0168835D03*
X0085335Y0173635D03*
D32*
X0083785Y0171285D03*
X0085385Y0169285D03*
X0087485Y0169335D03*
X0087535Y0169285D03*
X0087785Y0171935D03*
X0087535Y0166235D03*
X0087585Y0166135D03*
X0087785Y0162785D03*
X0087785Y0161585D03*
X0087285Y0161035D03*
X0087185Y0161085D03*
X0087135Y0161085D03*
X0086985Y0161135D03*
X0084685Y0161985D03*
X0083935Y0162335D03*
X0083885Y0162335D03*
X0084685Y0158585D03*
X0084585Y0158535D03*
X0085435Y0157485D03*
X0086035Y0157485D03*
X0086085Y0157485D03*
X0084685Y0154835D03*
X0084635Y0154835D03*
X0084585Y0151035D03*
X0084485Y0150035D03*
X0084585Y0149985D03*
X0084635Y0149985D03*
X0084685Y0149985D03*
X0084785Y0149935D03*
X0084935Y0149885D03*
X0086885Y0149185D03*
X0087685Y0148885D03*
X0087685Y0146735D03*
X0087735Y0146735D03*
X0093335Y0152235D03*
X0095385Y0151335D03*
X0095435Y0151335D03*
X0095385Y0154285D03*
X0093335Y0156585D03*
X0093285Y0156585D03*
X0095385Y0158635D03*
X0095435Y0158635D03*
X0093335Y0159535D03*
X0091235Y0158935D03*
X0091185Y0158985D03*
X0091085Y0159035D03*
X0089435Y0160235D03*
X0089335Y0160285D03*
X0093285Y0163885D03*
X0093335Y0163885D03*
X0093235Y0165535D03*
X0093135Y0165685D03*
X0095285Y0165035D03*
X0094935Y0168235D03*
X0093285Y0169885D03*
X0093535Y0170435D03*
X0095385Y0161585D03*
D33*
X0095385Y0168660D03*
X0084035Y0147760D03*
D34*
X0084285Y0147785D03*
X0084335Y0147785D03*
X0084985Y0147935D03*
X0085035Y0147935D03*
X0085085Y0147935D03*
X0087035Y0148885D03*
X0087385Y0152935D03*
X0087435Y0152935D03*
X0087535Y0156135D03*
X0087635Y0160985D03*
X0087535Y0163535D03*
X0087485Y0163535D03*
X0084485Y0162335D03*
X0084435Y0162335D03*
X0084185Y0158235D03*
X0084185Y0156085D03*
X0084135Y0151335D03*
X0084335Y0145485D03*
X0084385Y0145485D03*
X0093185Y0150485D03*
X0093135Y0156585D03*
X0093185Y0157785D03*
X0091335Y0160435D03*
X0093135Y0163885D03*
X0091585Y0165035D03*
X0091535Y0164985D03*
X0087685Y0166935D03*
X0085335Y0166635D03*
X0093185Y0170235D03*
D35*
X0093135Y0160835D03*
X0093135Y0157785D03*
X0093085Y0157785D03*
X0093135Y0153535D03*
X0093135Y0150485D03*
X0093085Y0150485D03*
X0084085Y0156135D03*
D36*
X0087635Y0156160D03*
X0093085Y0159610D03*
X0093135Y0159610D03*
X0093135Y0152310D03*
X0093085Y0152310D03*
X0084085Y0150110D03*
X0084235Y0145460D03*
X0087685Y0165660D03*
X0087685Y0168810D03*
D37*
X0087635Y0168785D03*
X0087635Y0165685D03*
X0093085Y0162385D03*
X0093135Y0162385D03*
X0093135Y0155085D03*
X0093085Y0155085D03*
X0084135Y0145435D03*
D38*
X0084085Y0147760D03*
X0093085Y0153560D03*
X0093085Y0160860D03*
D39*
X0091485Y0158860D03*
X0091435Y0158860D03*
X0087685Y0156160D03*
X0087585Y0152960D03*
X0084085Y0154360D03*
D40*
X0087635Y0152935D03*
X0089085Y0158885D03*
X0089135Y0158885D03*
X0087735Y0161035D03*
X0091485Y0160485D03*
D41*
X0091385Y0160460D03*
X0087685Y0161010D03*
X0087635Y0163560D03*
X0084085Y0158060D03*
X0084135Y0147760D03*
D42*
X0087685Y0152960D03*
X0087735Y0152960D03*
X0086135Y0162360D03*
D43*
X0087735Y0156185D03*
X0083985Y0147785D03*
D44*
X0083985Y0145460D03*
X0084035Y0145460D03*
X0087735Y0163510D03*
D45*
X0087735Y0171410D03*
X0084035Y0150110D03*
X0083985Y0150110D03*
D46*
X0084085Y0145435D03*
X0087685Y0163535D03*
D47*
X0085785Y0156735D03*
X0085735Y0156735D03*
X0085685Y0156735D03*
D48*
X0084035Y0152935D03*
D49*
X0084035Y0156910D03*
X0083985Y0156910D03*
D50*
X0083985Y0152960D03*
X0083935Y0152960D03*
D51*
X0083935Y0157235D03*
D52*
X0086550Y0176300D02*
X0066550Y0176300D01*
X0066550Y0188300D01*
X0086550Y0188300D01*
X0086550Y0176300D01*
X0025189Y0111050D02*
X0025196Y0111599D01*
X0025216Y0112147D01*
X0025250Y0112695D01*
X0025297Y0113242D01*
X0025357Y0113787D01*
X0025431Y0114331D01*
X0025518Y0114873D01*
X0025619Y0115412D01*
X0025732Y0115949D01*
X0025859Y0116483D01*
X0025999Y0117014D01*
X0026152Y0117541D01*
X0026318Y0118064D01*
X0026496Y0118583D01*
X0026687Y0119098D01*
X0026891Y0119607D01*
X0027107Y0120112D01*
X0027336Y0120611D01*
X0027577Y0121104D01*
X0027829Y0121591D01*
X0028094Y0122072D01*
X0028370Y0122546D01*
X0028658Y0123013D01*
X0028958Y0123473D01*
X0029268Y0123926D01*
X0029589Y0124370D01*
X0029922Y0124807D01*
X0030265Y0125236D01*
X0030618Y0125656D01*
X0030982Y0126067D01*
X0031355Y0126469D01*
X0031738Y0126862D01*
X0032131Y0127245D01*
X0032533Y0127618D01*
X0032944Y0127982D01*
X0033364Y0128335D01*
X0033793Y0128678D01*
X0034230Y0129011D01*
X0034674Y0129332D01*
X0035127Y0129642D01*
X0035587Y0129942D01*
X0036054Y0130230D01*
X0036528Y0130506D01*
X0037009Y0130771D01*
X0037496Y0131023D01*
X0037989Y0131264D01*
X0038488Y0131493D01*
X0038993Y0131709D01*
X0039502Y0131913D01*
X0040017Y0132104D01*
X0040536Y0132282D01*
X0041059Y0132448D01*
X0041586Y0132601D01*
X0042117Y0132741D01*
X0042651Y0132868D01*
X0043188Y0132981D01*
X0043727Y0133082D01*
X0044269Y0133169D01*
X0044813Y0133243D01*
X0045358Y0133303D01*
X0045905Y0133350D01*
X0046453Y0133384D01*
X0047001Y0133404D01*
X0047550Y0133411D01*
X0048099Y0133404D01*
X0048647Y0133384D01*
X0049195Y0133350D01*
X0049742Y0133303D01*
X0050287Y0133243D01*
X0050831Y0133169D01*
X0051373Y0133082D01*
X0051912Y0132981D01*
X0052449Y0132868D01*
X0052983Y0132741D01*
X0053514Y0132601D01*
X0054041Y0132448D01*
X0054564Y0132282D01*
X0055083Y0132104D01*
X0055598Y0131913D01*
X0056107Y0131709D01*
X0056612Y0131493D01*
X0057111Y0131264D01*
X0057604Y0131023D01*
X0058091Y0130771D01*
X0058572Y0130506D01*
X0059046Y0130230D01*
X0059513Y0129942D01*
X0059973Y0129642D01*
X0060426Y0129332D01*
X0060870Y0129011D01*
X0061307Y0128678D01*
X0061736Y0128335D01*
X0062156Y0127982D01*
X0062567Y0127618D01*
X0062969Y0127245D01*
X0063362Y0126862D01*
X0063745Y0126469D01*
X0064118Y0126067D01*
X0064482Y0125656D01*
X0064835Y0125236D01*
X0065178Y0124807D01*
X0065511Y0124370D01*
X0065832Y0123926D01*
X0066142Y0123473D01*
X0066442Y0123013D01*
X0066730Y0122546D01*
X0067006Y0122072D01*
X0067271Y0121591D01*
X0067523Y0121104D01*
X0067764Y0120611D01*
X0067993Y0120112D01*
X0068209Y0119607D01*
X0068413Y0119098D01*
X0068604Y0118583D01*
X0068782Y0118064D01*
X0068948Y0117541D01*
X0069101Y0117014D01*
X0069241Y0116483D01*
X0069368Y0115949D01*
X0069481Y0115412D01*
X0069582Y0114873D01*
X0069669Y0114331D01*
X0069743Y0113787D01*
X0069803Y0113242D01*
X0069850Y0112695D01*
X0069884Y0112147D01*
X0069904Y0111599D01*
X0069911Y0111050D01*
X0069904Y0110501D01*
X0069884Y0109953D01*
X0069850Y0109405D01*
X0069803Y0108858D01*
X0069743Y0108313D01*
X0069669Y0107769D01*
X0069582Y0107227D01*
X0069481Y0106688D01*
X0069368Y0106151D01*
X0069241Y0105617D01*
X0069101Y0105086D01*
X0068948Y0104559D01*
X0068782Y0104036D01*
X0068604Y0103517D01*
X0068413Y0103002D01*
X0068209Y0102493D01*
X0067993Y0101988D01*
X0067764Y0101489D01*
X0067523Y0100996D01*
X0067271Y0100509D01*
X0067006Y0100028D01*
X0066730Y0099554D01*
X0066442Y0099087D01*
X0066142Y0098627D01*
X0065832Y0098174D01*
X0065511Y0097730D01*
X0065178Y0097293D01*
X0064835Y0096864D01*
X0064482Y0096444D01*
X0064118Y0096033D01*
X0063745Y0095631D01*
X0063362Y0095238D01*
X0062969Y0094855D01*
X0062567Y0094482D01*
X0062156Y0094118D01*
X0061736Y0093765D01*
X0061307Y0093422D01*
X0060870Y0093089D01*
X0060426Y0092768D01*
X0059973Y0092458D01*
X0059513Y0092158D01*
X0059046Y0091870D01*
X0058572Y0091594D01*
X0058091Y0091329D01*
X0057604Y0091077D01*
X0057111Y0090836D01*
X0056612Y0090607D01*
X0056107Y0090391D01*
X0055598Y0090187D01*
X0055083Y0089996D01*
X0054564Y0089818D01*
X0054041Y0089652D01*
X0053514Y0089499D01*
X0052983Y0089359D01*
X0052449Y0089232D01*
X0051912Y0089119D01*
X0051373Y0089018D01*
X0050831Y0088931D01*
X0050287Y0088857D01*
X0049742Y0088797D01*
X0049195Y0088750D01*
X0048647Y0088716D01*
X0048099Y0088696D01*
X0047550Y0088689D01*
X0047001Y0088696D01*
X0046453Y0088716D01*
X0045905Y0088750D01*
X0045358Y0088797D01*
X0044813Y0088857D01*
X0044269Y0088931D01*
X0043727Y0089018D01*
X0043188Y0089119D01*
X0042651Y0089232D01*
X0042117Y0089359D01*
X0041586Y0089499D01*
X0041059Y0089652D01*
X0040536Y0089818D01*
X0040017Y0089996D01*
X0039502Y0090187D01*
X0038993Y0090391D01*
X0038488Y0090607D01*
X0037989Y0090836D01*
X0037496Y0091077D01*
X0037009Y0091329D01*
X0036528Y0091594D01*
X0036054Y0091870D01*
X0035587Y0092158D01*
X0035127Y0092458D01*
X0034674Y0092768D01*
X0034230Y0093089D01*
X0033793Y0093422D01*
X0033364Y0093765D01*
X0032944Y0094118D01*
X0032533Y0094482D01*
X0032131Y0094855D01*
X0031738Y0095238D01*
X0031355Y0095631D01*
X0030982Y0096033D01*
X0030618Y0096444D01*
X0030265Y0096864D01*
X0029922Y0097293D01*
X0029589Y0097730D01*
X0029268Y0098174D01*
X0028958Y0098627D01*
X0028658Y0099087D01*
X0028370Y0099554D01*
X0028094Y0100028D01*
X0027829Y0100509D01*
X0027577Y0100996D01*
X0027336Y0101489D01*
X0027107Y0101988D01*
X0026891Y0102493D01*
X0026687Y0103002D01*
X0026496Y0103517D01*
X0026318Y0104036D01*
X0026152Y0104559D01*
X0025999Y0105086D01*
X0025859Y0105617D01*
X0025732Y0106151D01*
X0025619Y0106688D01*
X0025518Y0107227D01*
X0025431Y0107769D01*
X0025357Y0108313D01*
X0025297Y0108858D01*
X0025250Y0109405D01*
X0025216Y0109953D01*
X0025196Y0110501D01*
X0025189Y0111050D01*
X0059800Y0056550D02*
X0059800Y0044550D01*
X0079800Y0044550D01*
X0079800Y0056550D01*
X0059800Y0056550D01*
X0117189Y0111800D02*
X0117196Y0112349D01*
X0117216Y0112897D01*
X0117250Y0113445D01*
X0117297Y0113992D01*
X0117357Y0114537D01*
X0117431Y0115081D01*
X0117518Y0115623D01*
X0117619Y0116162D01*
X0117732Y0116699D01*
X0117859Y0117233D01*
X0117999Y0117764D01*
X0118152Y0118291D01*
X0118318Y0118814D01*
X0118496Y0119333D01*
X0118687Y0119848D01*
X0118891Y0120357D01*
X0119107Y0120862D01*
X0119336Y0121361D01*
X0119577Y0121854D01*
X0119829Y0122341D01*
X0120094Y0122822D01*
X0120370Y0123296D01*
X0120658Y0123763D01*
X0120958Y0124223D01*
X0121268Y0124676D01*
X0121589Y0125120D01*
X0121922Y0125557D01*
X0122265Y0125986D01*
X0122618Y0126406D01*
X0122982Y0126817D01*
X0123355Y0127219D01*
X0123738Y0127612D01*
X0124131Y0127995D01*
X0124533Y0128368D01*
X0124944Y0128732D01*
X0125364Y0129085D01*
X0125793Y0129428D01*
X0126230Y0129761D01*
X0126674Y0130082D01*
X0127127Y0130392D01*
X0127587Y0130692D01*
X0128054Y0130980D01*
X0128528Y0131256D01*
X0129009Y0131521D01*
X0129496Y0131773D01*
X0129989Y0132014D01*
X0130488Y0132243D01*
X0130993Y0132459D01*
X0131502Y0132663D01*
X0132017Y0132854D01*
X0132536Y0133032D01*
X0133059Y0133198D01*
X0133586Y0133351D01*
X0134117Y0133491D01*
X0134651Y0133618D01*
X0135188Y0133731D01*
X0135727Y0133832D01*
X0136269Y0133919D01*
X0136813Y0133993D01*
X0137358Y0134053D01*
X0137905Y0134100D01*
X0138453Y0134134D01*
X0139001Y0134154D01*
X0139550Y0134161D01*
X0140099Y0134154D01*
X0140647Y0134134D01*
X0141195Y0134100D01*
X0141742Y0134053D01*
X0142287Y0133993D01*
X0142831Y0133919D01*
X0143373Y0133832D01*
X0143912Y0133731D01*
X0144449Y0133618D01*
X0144983Y0133491D01*
X0145514Y0133351D01*
X0146041Y0133198D01*
X0146564Y0133032D01*
X0147083Y0132854D01*
X0147598Y0132663D01*
X0148107Y0132459D01*
X0148612Y0132243D01*
X0149111Y0132014D01*
X0149604Y0131773D01*
X0150091Y0131521D01*
X0150572Y0131256D01*
X0151046Y0130980D01*
X0151513Y0130692D01*
X0151973Y0130392D01*
X0152426Y0130082D01*
X0152870Y0129761D01*
X0153307Y0129428D01*
X0153736Y0129085D01*
X0154156Y0128732D01*
X0154567Y0128368D01*
X0154969Y0127995D01*
X0155362Y0127612D01*
X0155745Y0127219D01*
X0156118Y0126817D01*
X0156482Y0126406D01*
X0156835Y0125986D01*
X0157178Y0125557D01*
X0157511Y0125120D01*
X0157832Y0124676D01*
X0158142Y0124223D01*
X0158442Y0123763D01*
X0158730Y0123296D01*
X0159006Y0122822D01*
X0159271Y0122341D01*
X0159523Y0121854D01*
X0159764Y0121361D01*
X0159993Y0120862D01*
X0160209Y0120357D01*
X0160413Y0119848D01*
X0160604Y0119333D01*
X0160782Y0118814D01*
X0160948Y0118291D01*
X0161101Y0117764D01*
X0161241Y0117233D01*
X0161368Y0116699D01*
X0161481Y0116162D01*
X0161582Y0115623D01*
X0161669Y0115081D01*
X0161743Y0114537D01*
X0161803Y0113992D01*
X0161850Y0113445D01*
X0161884Y0112897D01*
X0161904Y0112349D01*
X0161911Y0111800D01*
X0161904Y0111251D01*
X0161884Y0110703D01*
X0161850Y0110155D01*
X0161803Y0109608D01*
X0161743Y0109063D01*
X0161669Y0108519D01*
X0161582Y0107977D01*
X0161481Y0107438D01*
X0161368Y0106901D01*
X0161241Y0106367D01*
X0161101Y0105836D01*
X0160948Y0105309D01*
X0160782Y0104786D01*
X0160604Y0104267D01*
X0160413Y0103752D01*
X0160209Y0103243D01*
X0159993Y0102738D01*
X0159764Y0102239D01*
X0159523Y0101746D01*
X0159271Y0101259D01*
X0159006Y0100778D01*
X0158730Y0100304D01*
X0158442Y0099837D01*
X0158142Y0099377D01*
X0157832Y0098924D01*
X0157511Y0098480D01*
X0157178Y0098043D01*
X0156835Y0097614D01*
X0156482Y0097194D01*
X0156118Y0096783D01*
X0155745Y0096381D01*
X0155362Y0095988D01*
X0154969Y0095605D01*
X0154567Y0095232D01*
X0154156Y0094868D01*
X0153736Y0094515D01*
X0153307Y0094172D01*
X0152870Y0093839D01*
X0152426Y0093518D01*
X0151973Y0093208D01*
X0151513Y0092908D01*
X0151046Y0092620D01*
X0150572Y0092344D01*
X0150091Y0092079D01*
X0149604Y0091827D01*
X0149111Y0091586D01*
X0148612Y0091357D01*
X0148107Y0091141D01*
X0147598Y0090937D01*
X0147083Y0090746D01*
X0146564Y0090568D01*
X0146041Y0090402D01*
X0145514Y0090249D01*
X0144983Y0090109D01*
X0144449Y0089982D01*
X0143912Y0089869D01*
X0143373Y0089768D01*
X0142831Y0089681D01*
X0142287Y0089607D01*
X0141742Y0089547D01*
X0141195Y0089500D01*
X0140647Y0089466D01*
X0140099Y0089446D01*
X0139550Y0089439D01*
X0139001Y0089446D01*
X0138453Y0089466D01*
X0137905Y0089500D01*
X0137358Y0089547D01*
X0136813Y0089607D01*
X0136269Y0089681D01*
X0135727Y0089768D01*
X0135188Y0089869D01*
X0134651Y0089982D01*
X0134117Y0090109D01*
X0133586Y0090249D01*
X0133059Y0090402D01*
X0132536Y0090568D01*
X0132017Y0090746D01*
X0131502Y0090937D01*
X0130993Y0091141D01*
X0130488Y0091357D01*
X0129989Y0091586D01*
X0129496Y0091827D01*
X0129009Y0092079D01*
X0128528Y0092344D01*
X0128054Y0092620D01*
X0127587Y0092908D01*
X0127127Y0093208D01*
X0126674Y0093518D01*
X0126230Y0093839D01*
X0125793Y0094172D01*
X0125364Y0094515D01*
X0124944Y0094868D01*
X0124533Y0095232D01*
X0124131Y0095605D01*
X0123738Y0095988D01*
X0123355Y0096381D01*
X0122982Y0096783D01*
X0122618Y0097194D01*
X0122265Y0097614D01*
X0121922Y0098043D01*
X0121589Y0098480D01*
X0121268Y0098924D01*
X0120958Y0099377D01*
X0120658Y0099837D01*
X0120370Y0100304D01*
X0120094Y0100778D01*
X0119829Y0101259D01*
X0119577Y0101746D01*
X0119336Y0102239D01*
X0119107Y0102738D01*
X0118891Y0103243D01*
X0118687Y0103752D01*
X0118496Y0104267D01*
X0118318Y0104786D01*
X0118152Y0105309D01*
X0117999Y0105836D01*
X0117859Y0106367D01*
X0117732Y0106901D01*
X0117619Y0107438D01*
X0117518Y0107977D01*
X0117431Y0108519D01*
X0117357Y0109063D01*
X0117297Y0109608D01*
X0117250Y0110155D01*
X0117216Y0110703D01*
X0117196Y0111251D01*
X0117189Y0111800D01*
X0148800Y0060550D02*
X0148800Y0048550D01*
X0168800Y0048550D01*
X0168800Y0060550D01*
X0148800Y0060550D01*
X0141800Y0173300D02*
X0141800Y0185300D01*
X0161800Y0185300D01*
X0161800Y0173300D01*
X0141800Y0173300D01*
D53*
X0143032Y0187430D02*
X0143032Y0195170D01*
X0158568Y0195170D01*
X0158568Y0187430D01*
X0143032Y0187430D01*
X0083818Y0191930D02*
X0083818Y0199670D01*
X0068282Y0199670D01*
X0068282Y0191930D01*
X0083818Y0191930D01*
X0152282Y0070920D02*
X0152282Y0063180D01*
X0167818Y0063180D01*
X0167818Y0070920D01*
X0152282Y0070920D01*
X0076568Y0066920D02*
X0076568Y0059180D01*
X0061032Y0059180D01*
X0061032Y0066920D01*
X0076568Y0066920D01*
D54*
X0070300Y0065648D02*
X0067300Y0065648D01*
X0067398Y0060452D02*
X0070300Y0060452D01*
X0041148Y0143367D02*
X0038345Y0143367D01*
X0038345Y0146717D02*
X0041148Y0146717D01*
X0054124Y0153243D02*
X0054124Y0156047D01*
X0057475Y0156047D02*
X0057475Y0153243D01*
X0057276Y0164993D02*
X0057276Y0167797D01*
X0053925Y0167797D02*
X0053925Y0164993D01*
X0041797Y0185324D02*
X0038993Y0185324D01*
X0038993Y0188675D02*
X0041797Y0188675D01*
X0074648Y0193202D02*
X0077550Y0193202D01*
X0077550Y0198398D02*
X0074550Y0198398D01*
X0128993Y0188675D02*
X0131797Y0188675D01*
X0131797Y0185324D02*
X0128993Y0185324D01*
X0145675Y0167797D02*
X0145675Y0164993D01*
X0149026Y0164993D02*
X0149026Y0167797D01*
X0148975Y0155547D02*
X0148975Y0152743D01*
X0145624Y0152743D02*
X0145624Y0155547D01*
X0131630Y0146950D02*
X0128827Y0146950D01*
X0128827Y0143599D02*
X0131630Y0143599D01*
X0149398Y0188702D02*
X0152300Y0188702D01*
X0152300Y0193898D02*
X0149300Y0193898D01*
X0158550Y0069648D02*
X0161550Y0069648D01*
X0161550Y0064452D02*
X0158648Y0064452D01*
D55*
X0157227Y0067055D03*
X0162927Y0067055D03*
X0153677Y0191305D03*
X0147977Y0191305D03*
X0078927Y0195805D03*
X0073227Y0195805D03*
X0071677Y0063055D03*
X0065977Y0063055D03*
D56*
X0047800Y0071800D02*
X0047800Y0051800D01*
X0036800Y0051800D02*
X0032800Y0051800D01*
X0034800Y0053800D02*
X0034800Y0049800D01*
X0025800Y0051800D02*
X0025798Y0051730D01*
X0025792Y0051659D01*
X0025783Y0051590D01*
X0025770Y0051521D01*
X0025753Y0051452D01*
X0025732Y0051385D01*
X0025708Y0051319D01*
X0025680Y0051254D01*
X0025649Y0051191D01*
X0025614Y0051130D01*
X0025576Y0051070D01*
X0025535Y0051013D01*
X0025491Y0050958D01*
X0025444Y0050906D01*
X0025394Y0050856D01*
X0025342Y0050809D01*
X0025287Y0050765D01*
X0025230Y0050724D01*
X0025170Y0050686D01*
X0025109Y0050651D01*
X0025046Y0050620D01*
X0024981Y0050592D01*
X0024915Y0050568D01*
X0024848Y0050547D01*
X0024779Y0050530D01*
X0024710Y0050517D01*
X0024641Y0050508D01*
X0024570Y0050502D01*
X0024500Y0050500D01*
X0024430Y0050502D01*
X0024359Y0050508D01*
X0024290Y0050517D01*
X0024221Y0050530D01*
X0024152Y0050547D01*
X0024085Y0050568D01*
X0024019Y0050592D01*
X0023954Y0050620D01*
X0023891Y0050651D01*
X0023830Y0050686D01*
X0023770Y0050724D01*
X0023713Y0050765D01*
X0023658Y0050809D01*
X0023606Y0050856D01*
X0023556Y0050906D01*
X0023509Y0050958D01*
X0023465Y0051013D01*
X0023424Y0051070D01*
X0023386Y0051130D01*
X0023351Y0051191D01*
X0023320Y0051254D01*
X0023292Y0051319D01*
X0023268Y0051385D01*
X0023247Y0051452D01*
X0023230Y0051521D01*
X0023217Y0051590D01*
X0023208Y0051659D01*
X0023202Y0051730D01*
X0023200Y0051800D01*
X0023198Y0051870D01*
X0023192Y0051941D01*
X0023183Y0052010D01*
X0023170Y0052079D01*
X0023153Y0052148D01*
X0023132Y0052215D01*
X0023108Y0052281D01*
X0023080Y0052346D01*
X0023049Y0052409D01*
X0023014Y0052470D01*
X0022976Y0052530D01*
X0022935Y0052587D01*
X0022891Y0052642D01*
X0022844Y0052694D01*
X0022794Y0052744D01*
X0022742Y0052791D01*
X0022687Y0052835D01*
X0022630Y0052876D01*
X0022570Y0052914D01*
X0022509Y0052949D01*
X0022446Y0052980D01*
X0022381Y0053008D01*
X0022315Y0053032D01*
X0022248Y0053053D01*
X0022179Y0053070D01*
X0022110Y0053083D01*
X0022041Y0053092D01*
X0021970Y0053098D01*
X0021900Y0053100D01*
X0021830Y0053098D01*
X0021759Y0053092D01*
X0021690Y0053083D01*
X0021621Y0053070D01*
X0021552Y0053053D01*
X0021485Y0053032D01*
X0021419Y0053008D01*
X0021354Y0052980D01*
X0021291Y0052949D01*
X0021230Y0052914D01*
X0021170Y0052876D01*
X0021113Y0052835D01*
X0021058Y0052791D01*
X0021006Y0052744D01*
X0020956Y0052694D01*
X0020909Y0052642D01*
X0020865Y0052587D01*
X0020824Y0052530D01*
X0020786Y0052470D01*
X0020751Y0052409D01*
X0020720Y0052346D01*
X0020692Y0052281D01*
X0020668Y0052215D01*
X0020647Y0052148D01*
X0020630Y0052079D01*
X0020617Y0052010D01*
X0020608Y0051941D01*
X0020602Y0051870D01*
X0020600Y0051800D01*
X0047800Y0051800D02*
X0047551Y0051404D01*
X0047292Y0051014D01*
X0047023Y0050630D01*
X0046745Y0050253D01*
X0046459Y0049883D01*
X0046163Y0049520D01*
X0045858Y0049165D01*
X0045545Y0048817D01*
X0045223Y0048477D01*
X0044893Y0048144D01*
X0044555Y0047820D01*
X0044210Y0047505D01*
X0043856Y0047197D01*
X0043496Y0046899D01*
X0043128Y0046609D01*
X0042753Y0046329D01*
X0042371Y0046058D01*
X0041983Y0045796D01*
X0041588Y0045544D01*
X0041188Y0045301D01*
X0040782Y0045069D01*
X0040370Y0044846D01*
X0039952Y0044633D01*
X0039530Y0044431D01*
X0039103Y0044239D01*
X0038671Y0044058D01*
X0038235Y0043887D01*
X0037795Y0043727D01*
X0037352Y0043578D01*
X0036904Y0043440D01*
X0036454Y0043312D01*
X0036000Y0043196D01*
X0035544Y0043091D01*
X0035085Y0042997D01*
X0034625Y0042914D01*
X0034162Y0042843D01*
X0033697Y0042783D01*
X0033232Y0042734D01*
X0032765Y0042697D01*
X0032298Y0042671D01*
X0031830Y0042656D01*
X0031361Y0042653D01*
X0030893Y0042662D01*
X0030426Y0042682D01*
X0029958Y0042713D01*
X0029492Y0042756D01*
X0029027Y0042810D01*
X0028564Y0042875D01*
X0028102Y0042952D01*
X0027642Y0043040D01*
X0027184Y0043139D01*
X0026729Y0043250D01*
X0026277Y0043371D01*
X0025828Y0043504D01*
X0025382Y0043647D01*
X0024940Y0043802D01*
X0024502Y0043967D01*
X0024068Y0044142D01*
X0023639Y0044329D01*
X0023214Y0044525D01*
X0022794Y0044733D01*
X0022379Y0044950D01*
X0021970Y0045177D01*
X0021566Y0045414D01*
X0021169Y0045662D01*
X0020777Y0045918D01*
X0020392Y0046185D01*
X0020014Y0046460D01*
X0019642Y0046745D01*
X0019277Y0047039D01*
X0018920Y0047341D01*
X0018570Y0047653D01*
X0018228Y0047972D01*
X0017894Y0048300D01*
X0017568Y0048636D01*
X0017250Y0048980D01*
X0016941Y0049332D01*
X0016641Y0049691D01*
X0016349Y0050057D01*
X0016066Y0050430D01*
X0015793Y0050810D01*
X0015529Y0051197D01*
X0015274Y0051590D01*
X0015030Y0051989D01*
X0014795Y0052394D01*
X0014570Y0052805D01*
X0014355Y0053221D01*
X0014150Y0053642D01*
X0013956Y0054068D01*
X0013772Y0054498D01*
X0013599Y0054933D01*
X0013436Y0055372D01*
X0013284Y0055815D01*
X0013143Y0056262D01*
X0013014Y0056712D01*
X0012895Y0057164D01*
X0012787Y0057620D01*
X0012690Y0058078D01*
X0012605Y0058539D01*
X0012531Y0059001D01*
X0012468Y0059465D01*
X0012417Y0059930D01*
X0012376Y0060397D01*
X0012348Y0060864D01*
X0012331Y0061332D01*
X0012325Y0061800D01*
X0012331Y0062268D01*
X0012348Y0062736D01*
X0012376Y0063203D01*
X0012417Y0063670D01*
X0012468Y0064135D01*
X0012531Y0064599D01*
X0012605Y0065061D01*
X0012690Y0065522D01*
X0012787Y0065980D01*
X0012895Y0066436D01*
X0013014Y0066888D01*
X0013143Y0067338D01*
X0013284Y0067785D01*
X0013436Y0068228D01*
X0013599Y0068667D01*
X0013772Y0069102D01*
X0013956Y0069532D01*
X0014150Y0069958D01*
X0014355Y0070379D01*
X0014570Y0070795D01*
X0014795Y0071206D01*
X0015030Y0071611D01*
X0015274Y0072010D01*
X0015529Y0072403D01*
X0015793Y0072790D01*
X0016066Y0073170D01*
X0016349Y0073543D01*
X0016641Y0073909D01*
X0016941Y0074268D01*
X0017250Y0074620D01*
X0017568Y0074964D01*
X0017894Y0075300D01*
X0018228Y0075628D01*
X0018570Y0075947D01*
X0018920Y0076259D01*
X0019277Y0076561D01*
X0019642Y0076855D01*
X0020014Y0077140D01*
X0020392Y0077415D01*
X0020777Y0077682D01*
X0021169Y0077938D01*
X0021566Y0078186D01*
X0021970Y0078423D01*
X0022379Y0078650D01*
X0022794Y0078867D01*
X0023214Y0079075D01*
X0023639Y0079271D01*
X0024068Y0079458D01*
X0024502Y0079633D01*
X0024940Y0079798D01*
X0025382Y0079953D01*
X0025828Y0080096D01*
X0026277Y0080229D01*
X0026729Y0080350D01*
X0027184Y0080461D01*
X0027642Y0080560D01*
X0028102Y0080648D01*
X0028564Y0080725D01*
X0029027Y0080790D01*
X0029492Y0080844D01*
X0029958Y0080887D01*
X0030426Y0080918D01*
X0030893Y0080938D01*
X0031361Y0080947D01*
X0031830Y0080944D01*
X0032298Y0080929D01*
X0032765Y0080903D01*
X0033232Y0080866D01*
X0033697Y0080817D01*
X0034162Y0080757D01*
X0034625Y0080686D01*
X0035085Y0080603D01*
X0035544Y0080509D01*
X0036000Y0080404D01*
X0036454Y0080288D01*
X0036904Y0080160D01*
X0037352Y0080022D01*
X0037795Y0079873D01*
X0038235Y0079713D01*
X0038671Y0079542D01*
X0039103Y0079361D01*
X0039530Y0079169D01*
X0039952Y0078967D01*
X0040370Y0078754D01*
X0040782Y0078531D01*
X0041188Y0078299D01*
X0041588Y0078056D01*
X0041983Y0077804D01*
X0042371Y0077542D01*
X0042753Y0077271D01*
X0043128Y0076991D01*
X0043496Y0076701D01*
X0043856Y0076403D01*
X0044210Y0076095D01*
X0044555Y0075780D01*
X0044893Y0075456D01*
X0045223Y0075123D01*
X0045545Y0074783D01*
X0045858Y0074435D01*
X0046163Y0074080D01*
X0046459Y0073717D01*
X0046745Y0073347D01*
X0047023Y0072970D01*
X0047292Y0072586D01*
X0047551Y0072196D01*
X0047800Y0071800D01*
X0043300Y0071800D02*
X0043298Y0071730D01*
X0043292Y0071659D01*
X0043283Y0071590D01*
X0043270Y0071521D01*
X0043253Y0071452D01*
X0043232Y0071385D01*
X0043208Y0071319D01*
X0043180Y0071254D01*
X0043149Y0071191D01*
X0043114Y0071130D01*
X0043076Y0071070D01*
X0043035Y0071013D01*
X0042991Y0070958D01*
X0042944Y0070906D01*
X0042894Y0070856D01*
X0042842Y0070809D01*
X0042787Y0070765D01*
X0042730Y0070724D01*
X0042670Y0070686D01*
X0042609Y0070651D01*
X0042546Y0070620D01*
X0042481Y0070592D01*
X0042415Y0070568D01*
X0042348Y0070547D01*
X0042279Y0070530D01*
X0042210Y0070517D01*
X0042141Y0070508D01*
X0042070Y0070502D01*
X0042000Y0070500D01*
X0041930Y0070502D01*
X0041859Y0070508D01*
X0041790Y0070517D01*
X0041721Y0070530D01*
X0041652Y0070547D01*
X0041585Y0070568D01*
X0041519Y0070592D01*
X0041454Y0070620D01*
X0041391Y0070651D01*
X0041330Y0070686D01*
X0041270Y0070724D01*
X0041213Y0070765D01*
X0041158Y0070809D01*
X0041106Y0070856D01*
X0041056Y0070906D01*
X0041009Y0070958D01*
X0040965Y0071013D01*
X0040924Y0071070D01*
X0040886Y0071130D01*
X0040851Y0071191D01*
X0040820Y0071254D01*
X0040792Y0071319D01*
X0040768Y0071385D01*
X0040747Y0071452D01*
X0040730Y0071521D01*
X0040717Y0071590D01*
X0040708Y0071659D01*
X0040702Y0071730D01*
X0040700Y0071800D01*
X0040698Y0071870D01*
X0040692Y0071941D01*
X0040683Y0072010D01*
X0040670Y0072079D01*
X0040653Y0072148D01*
X0040632Y0072215D01*
X0040608Y0072281D01*
X0040580Y0072346D01*
X0040549Y0072409D01*
X0040514Y0072470D01*
X0040476Y0072530D01*
X0040435Y0072587D01*
X0040391Y0072642D01*
X0040344Y0072694D01*
X0040294Y0072744D01*
X0040242Y0072791D01*
X0040187Y0072835D01*
X0040130Y0072876D01*
X0040070Y0072914D01*
X0040009Y0072949D01*
X0039946Y0072980D01*
X0039881Y0073008D01*
X0039815Y0073032D01*
X0039748Y0073053D01*
X0039679Y0073070D01*
X0039610Y0073083D01*
X0039541Y0073092D01*
X0039470Y0073098D01*
X0039400Y0073100D01*
X0039330Y0073098D01*
X0039259Y0073092D01*
X0039190Y0073083D01*
X0039121Y0073070D01*
X0039052Y0073053D01*
X0038985Y0073032D01*
X0038919Y0073008D01*
X0038854Y0072980D01*
X0038791Y0072949D01*
X0038730Y0072914D01*
X0038670Y0072876D01*
X0038613Y0072835D01*
X0038558Y0072791D01*
X0038506Y0072744D01*
X0038456Y0072694D01*
X0038409Y0072642D01*
X0038365Y0072587D01*
X0038324Y0072530D01*
X0038286Y0072470D01*
X0038251Y0072409D01*
X0038220Y0072346D01*
X0038192Y0072281D01*
X0038168Y0072215D01*
X0038147Y0072148D01*
X0038130Y0072079D01*
X0038117Y0072010D01*
X0038108Y0071941D01*
X0038102Y0071870D01*
X0038100Y0071800D01*
X0030800Y0071800D02*
X0026800Y0071800D01*
X0048550Y0106050D02*
X0051050Y0106050D01*
X0051050Y0111050D01*
X0051050Y0116050D01*
X0048550Y0116050D01*
X0048550Y0106050D01*
X0020050Y0111050D02*
X0020058Y0111725D01*
X0020083Y0112399D01*
X0020125Y0113073D01*
X0020182Y0113745D01*
X0020257Y0114416D01*
X0020348Y0115085D01*
X0020455Y0115751D01*
X0020578Y0116415D01*
X0020718Y0117075D01*
X0020874Y0117732D01*
X0021046Y0118385D01*
X0021234Y0119033D01*
X0021438Y0119676D01*
X0021658Y0120314D01*
X0021893Y0120947D01*
X0022143Y0121574D01*
X0022409Y0122194D01*
X0022690Y0122808D01*
X0022986Y0123414D01*
X0023297Y0124013D01*
X0023623Y0124605D01*
X0023962Y0125188D01*
X0024317Y0125762D01*
X0024685Y0126328D01*
X0025066Y0126885D01*
X0025462Y0127432D01*
X0025870Y0127969D01*
X0026292Y0128496D01*
X0026727Y0129012D01*
X0027174Y0129518D01*
X0027633Y0130012D01*
X0028105Y0130495D01*
X0028588Y0130967D01*
X0029082Y0131426D01*
X0029588Y0131873D01*
X0030104Y0132308D01*
X0030631Y0132730D01*
X0031168Y0133138D01*
X0031715Y0133534D01*
X0032272Y0133915D01*
X0032838Y0134283D01*
X0033412Y0134638D01*
X0033995Y0134977D01*
X0034587Y0135303D01*
X0035186Y0135614D01*
X0035792Y0135910D01*
X0036406Y0136191D01*
X0037026Y0136457D01*
X0037653Y0136707D01*
X0038286Y0136942D01*
X0038924Y0137162D01*
X0039567Y0137366D01*
X0040215Y0137554D01*
X0040868Y0137726D01*
X0041525Y0137882D01*
X0042185Y0138022D01*
X0042849Y0138145D01*
X0043515Y0138252D01*
X0044184Y0138343D01*
X0044855Y0138418D01*
X0045527Y0138475D01*
X0046201Y0138517D01*
X0046875Y0138542D01*
X0047550Y0138550D01*
X0048225Y0138542D01*
X0048899Y0138517D01*
X0049573Y0138475D01*
X0050245Y0138418D01*
X0050916Y0138343D01*
X0051585Y0138252D01*
X0052251Y0138145D01*
X0052915Y0138022D01*
X0053575Y0137882D01*
X0054232Y0137726D01*
X0054885Y0137554D01*
X0055533Y0137366D01*
X0056176Y0137162D01*
X0056814Y0136942D01*
X0057447Y0136707D01*
X0058074Y0136457D01*
X0058694Y0136191D01*
X0059308Y0135910D01*
X0059914Y0135614D01*
X0060513Y0135303D01*
X0061105Y0134977D01*
X0061688Y0134638D01*
X0062262Y0134283D01*
X0062828Y0133915D01*
X0063385Y0133534D01*
X0063932Y0133138D01*
X0064469Y0132730D01*
X0064996Y0132308D01*
X0065512Y0131873D01*
X0066018Y0131426D01*
X0066512Y0130967D01*
X0066995Y0130495D01*
X0067467Y0130012D01*
X0067926Y0129518D01*
X0068373Y0129012D01*
X0068808Y0128496D01*
X0069230Y0127969D01*
X0069638Y0127432D01*
X0070034Y0126885D01*
X0070415Y0126328D01*
X0070783Y0125762D01*
X0071138Y0125188D01*
X0071477Y0124605D01*
X0071803Y0124013D01*
X0072114Y0123414D01*
X0072410Y0122808D01*
X0072691Y0122194D01*
X0072957Y0121574D01*
X0073207Y0120947D01*
X0073442Y0120314D01*
X0073662Y0119676D01*
X0073866Y0119033D01*
X0074054Y0118385D01*
X0074226Y0117732D01*
X0074382Y0117075D01*
X0074522Y0116415D01*
X0074645Y0115751D01*
X0074752Y0115085D01*
X0074843Y0114416D01*
X0074918Y0113745D01*
X0074975Y0113073D01*
X0075017Y0112399D01*
X0075042Y0111725D01*
X0075050Y0111050D01*
X0075042Y0110375D01*
X0075017Y0109701D01*
X0074975Y0109027D01*
X0074918Y0108355D01*
X0074843Y0107684D01*
X0074752Y0107015D01*
X0074645Y0106349D01*
X0074522Y0105685D01*
X0074382Y0105025D01*
X0074226Y0104368D01*
X0074054Y0103715D01*
X0073866Y0103067D01*
X0073662Y0102424D01*
X0073442Y0101786D01*
X0073207Y0101153D01*
X0072957Y0100526D01*
X0072691Y0099906D01*
X0072410Y0099292D01*
X0072114Y0098686D01*
X0071803Y0098087D01*
X0071477Y0097495D01*
X0071138Y0096912D01*
X0070783Y0096338D01*
X0070415Y0095772D01*
X0070034Y0095215D01*
X0069638Y0094668D01*
X0069230Y0094131D01*
X0068808Y0093604D01*
X0068373Y0093088D01*
X0067926Y0092582D01*
X0067467Y0092088D01*
X0066995Y0091605D01*
X0066512Y0091133D01*
X0066018Y0090674D01*
X0065512Y0090227D01*
X0064996Y0089792D01*
X0064469Y0089370D01*
X0063932Y0088962D01*
X0063385Y0088566D01*
X0062828Y0088185D01*
X0062262Y0087817D01*
X0061688Y0087462D01*
X0061105Y0087123D01*
X0060513Y0086797D01*
X0059914Y0086486D01*
X0059308Y0086190D01*
X0058694Y0085909D01*
X0058074Y0085643D01*
X0057447Y0085393D01*
X0056814Y0085158D01*
X0056176Y0084938D01*
X0055533Y0084734D01*
X0054885Y0084546D01*
X0054232Y0084374D01*
X0053575Y0084218D01*
X0052915Y0084078D01*
X0052251Y0083955D01*
X0051585Y0083848D01*
X0050916Y0083757D01*
X0050245Y0083682D01*
X0049573Y0083625D01*
X0048899Y0083583D01*
X0048225Y0083558D01*
X0047550Y0083550D01*
X0046875Y0083558D01*
X0046201Y0083583D01*
X0045527Y0083625D01*
X0044855Y0083682D01*
X0044184Y0083757D01*
X0043515Y0083848D01*
X0042849Y0083955D01*
X0042185Y0084078D01*
X0041525Y0084218D01*
X0040868Y0084374D01*
X0040215Y0084546D01*
X0039567Y0084734D01*
X0038924Y0084938D01*
X0038286Y0085158D01*
X0037653Y0085393D01*
X0037026Y0085643D01*
X0036406Y0085909D01*
X0035792Y0086190D01*
X0035186Y0086486D01*
X0034587Y0086797D01*
X0033995Y0087123D01*
X0033412Y0087462D01*
X0032838Y0087817D01*
X0032272Y0088185D01*
X0031715Y0088566D01*
X0031168Y0088962D01*
X0030631Y0089370D01*
X0030104Y0089792D01*
X0029588Y0090227D01*
X0029082Y0090674D01*
X0028588Y0091133D01*
X0028105Y0091605D01*
X0027633Y0092088D01*
X0027174Y0092582D01*
X0026727Y0093088D01*
X0026292Y0093604D01*
X0025870Y0094131D01*
X0025462Y0094668D01*
X0025066Y0095215D01*
X0024685Y0095772D01*
X0024317Y0096338D01*
X0023962Y0096912D01*
X0023623Y0097495D01*
X0023297Y0098087D01*
X0022986Y0098686D01*
X0022690Y0099292D01*
X0022409Y0099906D01*
X0022143Y0100526D01*
X0021893Y0101153D01*
X0021658Y0101786D01*
X0021438Y0102424D01*
X0021234Y0103067D01*
X0021046Y0103715D01*
X0020874Y0104368D01*
X0020718Y0105025D01*
X0020578Y0105685D01*
X0020455Y0106349D01*
X0020348Y0107015D01*
X0020257Y0107684D01*
X0020182Y0108355D01*
X0020125Y0109027D01*
X0020083Y0109701D01*
X0020058Y0110375D01*
X0020050Y0111050D01*
X0041550Y0111050D02*
X0043550Y0111050D01*
X0043050Y0111050D02*
X0045050Y0111050D01*
X0051050Y0111050D02*
X0052050Y0111050D01*
X0054050Y0111050D01*
X0062550Y0103550D02*
X0067550Y0103550D01*
X0065050Y0106050D02*
X0065050Y0101050D01*
X0077985Y0097710D02*
X0077985Y0135710D01*
X0077987Y0135770D01*
X0077992Y0135831D01*
X0078001Y0135890D01*
X0078014Y0135949D01*
X0078030Y0136008D01*
X0078050Y0136065D01*
X0078073Y0136120D01*
X0078100Y0136175D01*
X0078129Y0136227D01*
X0078162Y0136278D01*
X0078198Y0136327D01*
X0078236Y0136373D01*
X0078278Y0136417D01*
X0078322Y0136459D01*
X0078368Y0136497D01*
X0078417Y0136533D01*
X0078468Y0136566D01*
X0078520Y0136595D01*
X0078575Y0136622D01*
X0078630Y0136645D01*
X0078687Y0136665D01*
X0078746Y0136681D01*
X0078805Y0136694D01*
X0078864Y0136703D01*
X0078925Y0136708D01*
X0078985Y0136710D01*
X0092985Y0136710D01*
X0093045Y0136708D01*
X0093106Y0136703D01*
X0093165Y0136694D01*
X0093224Y0136681D01*
X0093283Y0136665D01*
X0093340Y0136645D01*
X0093395Y0136622D01*
X0093450Y0136595D01*
X0093502Y0136566D01*
X0093553Y0136533D01*
X0093602Y0136497D01*
X0093648Y0136459D01*
X0093692Y0136417D01*
X0093734Y0136373D01*
X0093772Y0136327D01*
X0093808Y0136278D01*
X0093841Y0136227D01*
X0093870Y0136175D01*
X0093897Y0136120D01*
X0093920Y0136065D01*
X0093940Y0136008D01*
X0093956Y0135949D01*
X0093969Y0135890D01*
X0093978Y0135831D01*
X0093983Y0135770D01*
X0093985Y0135710D01*
X0093985Y0097710D01*
X0093983Y0097650D01*
X0093978Y0097589D01*
X0093969Y0097530D01*
X0093956Y0097471D01*
X0093940Y0097412D01*
X0093920Y0097355D01*
X0093897Y0097300D01*
X0093870Y0097245D01*
X0093841Y0097193D01*
X0093808Y0097142D01*
X0093772Y0097093D01*
X0093734Y0097047D01*
X0093692Y0097003D01*
X0093648Y0096961D01*
X0093602Y0096923D01*
X0093553Y0096887D01*
X0093502Y0096854D01*
X0093450Y0096825D01*
X0093395Y0096798D01*
X0093340Y0096775D01*
X0093283Y0096755D01*
X0093224Y0096739D01*
X0093165Y0096726D01*
X0093106Y0096717D01*
X0093045Y0096712D01*
X0092985Y0096710D01*
X0078985Y0096710D01*
X0078925Y0096712D01*
X0078864Y0096717D01*
X0078805Y0096726D01*
X0078746Y0096739D01*
X0078687Y0096755D01*
X0078630Y0096775D01*
X0078575Y0096798D01*
X0078520Y0096825D01*
X0078468Y0096854D01*
X0078417Y0096887D01*
X0078368Y0096923D01*
X0078322Y0096961D01*
X0078278Y0097003D01*
X0078236Y0097047D01*
X0078198Y0097093D01*
X0078162Y0097142D01*
X0078129Y0097193D01*
X0078100Y0097245D01*
X0078073Y0097300D01*
X0078050Y0097355D01*
X0078030Y0097412D01*
X0078014Y0097471D01*
X0078001Y0097530D01*
X0077992Y0097589D01*
X0077987Y0097650D01*
X0077985Y0097710D01*
X0085985Y0106210D02*
X0085985Y0121710D01*
X0085985Y0125210D02*
X0085985Y0127210D01*
X0096485Y0127710D02*
X0096485Y0126210D01*
X0096985Y0125710D01*
X0096985Y0106710D01*
X0096485Y0106210D01*
X0096485Y0104710D01*
X0096487Y0104650D01*
X0096492Y0104589D01*
X0096501Y0104530D01*
X0096514Y0104471D01*
X0096530Y0104412D01*
X0096550Y0104355D01*
X0096573Y0104300D01*
X0096600Y0104245D01*
X0096629Y0104193D01*
X0096662Y0104142D01*
X0096698Y0104093D01*
X0096736Y0104047D01*
X0096778Y0104003D01*
X0096822Y0103961D01*
X0096868Y0103923D01*
X0096917Y0103887D01*
X0096968Y0103854D01*
X0097020Y0103825D01*
X0097075Y0103798D01*
X0097130Y0103775D01*
X0097187Y0103755D01*
X0097246Y0103739D01*
X0097305Y0103726D01*
X0097364Y0103717D01*
X0097425Y0103712D01*
X0097485Y0103710D01*
X0104485Y0103710D01*
X0104545Y0103712D01*
X0104606Y0103717D01*
X0104665Y0103726D01*
X0104724Y0103739D01*
X0104783Y0103755D01*
X0104840Y0103775D01*
X0104895Y0103798D01*
X0104950Y0103825D01*
X0105002Y0103854D01*
X0105053Y0103887D01*
X0105102Y0103923D01*
X0105148Y0103961D01*
X0105192Y0104003D01*
X0105234Y0104047D01*
X0105272Y0104093D01*
X0105308Y0104142D01*
X0105341Y0104193D01*
X0105370Y0104245D01*
X0105397Y0104300D01*
X0105420Y0104355D01*
X0105440Y0104412D01*
X0105456Y0104471D01*
X0105469Y0104530D01*
X0105478Y0104589D01*
X0105483Y0104650D01*
X0105485Y0104710D01*
X0105485Y0106210D01*
X0104985Y0106710D01*
X0104985Y0125710D01*
X0105485Y0126210D01*
X0105485Y0127710D01*
X0105483Y0127770D01*
X0105478Y0127831D01*
X0105469Y0127890D01*
X0105456Y0127949D01*
X0105440Y0128008D01*
X0105420Y0128065D01*
X0105397Y0128120D01*
X0105370Y0128175D01*
X0105341Y0128227D01*
X0105308Y0128278D01*
X0105272Y0128327D01*
X0105234Y0128373D01*
X0105192Y0128417D01*
X0105148Y0128459D01*
X0105102Y0128497D01*
X0105053Y0128533D01*
X0105002Y0128566D01*
X0104950Y0128595D01*
X0104895Y0128622D01*
X0104840Y0128645D01*
X0104783Y0128665D01*
X0104724Y0128681D01*
X0104665Y0128694D01*
X0104606Y0128703D01*
X0104545Y0128708D01*
X0104485Y0128710D01*
X0097485Y0128710D01*
X0097425Y0128708D01*
X0097364Y0128703D01*
X0097305Y0128694D01*
X0097246Y0128681D01*
X0097187Y0128665D01*
X0097130Y0128645D01*
X0097075Y0128622D01*
X0097020Y0128595D01*
X0096968Y0128566D01*
X0096917Y0128533D01*
X0096868Y0128497D01*
X0096822Y0128459D01*
X0096778Y0128417D01*
X0096736Y0128373D01*
X0096698Y0128327D01*
X0096662Y0128278D01*
X0096629Y0128227D01*
X0096600Y0128175D01*
X0096573Y0128120D01*
X0096550Y0128065D01*
X0096530Y0128008D01*
X0096514Y0127949D01*
X0096501Y0127890D01*
X0096492Y0127831D01*
X0096487Y0127770D01*
X0096485Y0127710D01*
X0113795Y0154325D02*
X0117795Y0154325D01*
X0120295Y0152325D02*
X0120295Y0149425D01*
X0123195Y0149425D01*
X0137595Y0149425D02*
X0140495Y0149425D01*
X0140495Y0152325D01*
X0142995Y0164525D02*
X0146895Y0164525D01*
X0140495Y0166725D02*
X0140495Y0169625D01*
X0137595Y0169625D01*
X0137595Y0167625D02*
X0138495Y0166725D01*
X0132009Y0177025D02*
X0128781Y0177025D01*
X0128781Y0182025D02*
X0132009Y0182025D01*
X0123195Y0169625D02*
X0120295Y0169625D01*
X0120295Y0166725D01*
X0117895Y0175411D02*
X0117895Y0178639D01*
X0112895Y0178639D02*
X0112895Y0175411D01*
X0130800Y0202300D02*
X0132800Y0202300D01*
X0132800Y0207300D01*
X0132800Y0212300D01*
X0130800Y0212300D01*
X0130800Y0202300D01*
X0113800Y0207300D02*
X0113805Y0207693D01*
X0113819Y0208085D01*
X0113843Y0208477D01*
X0113877Y0208868D01*
X0113920Y0209259D01*
X0113973Y0209648D01*
X0114036Y0210035D01*
X0114107Y0210421D01*
X0114189Y0210806D01*
X0114279Y0211188D01*
X0114380Y0211567D01*
X0114489Y0211945D01*
X0114608Y0212319D01*
X0114735Y0212690D01*
X0114872Y0213058D01*
X0115018Y0213423D01*
X0115173Y0213784D01*
X0115336Y0214141D01*
X0115508Y0214494D01*
X0115689Y0214842D01*
X0115879Y0215186D01*
X0116076Y0215526D01*
X0116282Y0215860D01*
X0116496Y0216189D01*
X0116719Y0216513D01*
X0116949Y0216831D01*
X0117186Y0217144D01*
X0117432Y0217450D01*
X0117685Y0217751D01*
X0117945Y0218045D01*
X0118212Y0218333D01*
X0118486Y0218614D01*
X0118767Y0218888D01*
X0119055Y0219155D01*
X0119349Y0219415D01*
X0119650Y0219668D01*
X0119956Y0219914D01*
X0120269Y0220151D01*
X0120587Y0220381D01*
X0120911Y0220604D01*
X0121240Y0220818D01*
X0121574Y0221024D01*
X0121914Y0221221D01*
X0122258Y0221411D01*
X0122606Y0221592D01*
X0122959Y0221764D01*
X0123316Y0221927D01*
X0123677Y0222082D01*
X0124042Y0222228D01*
X0124410Y0222365D01*
X0124781Y0222492D01*
X0125155Y0222611D01*
X0125533Y0222720D01*
X0125912Y0222821D01*
X0126294Y0222911D01*
X0126679Y0222993D01*
X0127065Y0223064D01*
X0127452Y0223127D01*
X0127841Y0223180D01*
X0128232Y0223223D01*
X0128623Y0223257D01*
X0129015Y0223281D01*
X0129407Y0223295D01*
X0129800Y0223300D01*
X0130193Y0223295D01*
X0130585Y0223281D01*
X0130977Y0223257D01*
X0131368Y0223223D01*
X0131759Y0223180D01*
X0132148Y0223127D01*
X0132535Y0223064D01*
X0132921Y0222993D01*
X0133306Y0222911D01*
X0133688Y0222821D01*
X0134067Y0222720D01*
X0134445Y0222611D01*
X0134819Y0222492D01*
X0135190Y0222365D01*
X0135558Y0222228D01*
X0135923Y0222082D01*
X0136284Y0221927D01*
X0136641Y0221764D01*
X0136994Y0221592D01*
X0137342Y0221411D01*
X0137686Y0221221D01*
X0138026Y0221024D01*
X0138360Y0220818D01*
X0138689Y0220604D01*
X0139013Y0220381D01*
X0139331Y0220151D01*
X0139644Y0219914D01*
X0139950Y0219668D01*
X0140251Y0219415D01*
X0140545Y0219155D01*
X0140833Y0218888D01*
X0141114Y0218614D01*
X0141388Y0218333D01*
X0141655Y0218045D01*
X0141915Y0217751D01*
X0142168Y0217450D01*
X0142414Y0217144D01*
X0142651Y0216831D01*
X0142881Y0216513D01*
X0143104Y0216189D01*
X0143318Y0215860D01*
X0143524Y0215526D01*
X0143721Y0215186D01*
X0143911Y0214842D01*
X0144092Y0214494D01*
X0144264Y0214141D01*
X0144427Y0213784D01*
X0144582Y0213423D01*
X0144728Y0213058D01*
X0144865Y0212690D01*
X0144992Y0212319D01*
X0145111Y0211945D01*
X0145220Y0211567D01*
X0145321Y0211188D01*
X0145411Y0210806D01*
X0145493Y0210421D01*
X0145564Y0210035D01*
X0145627Y0209648D01*
X0145680Y0209259D01*
X0145723Y0208868D01*
X0145757Y0208477D01*
X0145781Y0208085D01*
X0145795Y0207693D01*
X0145800Y0207300D01*
X0145795Y0206907D01*
X0145781Y0206515D01*
X0145757Y0206123D01*
X0145723Y0205732D01*
X0145680Y0205341D01*
X0145627Y0204952D01*
X0145564Y0204565D01*
X0145493Y0204179D01*
X0145411Y0203794D01*
X0145321Y0203412D01*
X0145220Y0203033D01*
X0145111Y0202655D01*
X0144992Y0202281D01*
X0144865Y0201910D01*
X0144728Y0201542D01*
X0144582Y0201177D01*
X0144427Y0200816D01*
X0144264Y0200459D01*
X0144092Y0200106D01*
X0143911Y0199758D01*
X0143721Y0199414D01*
X0143524Y0199074D01*
X0143318Y0198740D01*
X0143104Y0198411D01*
X0142881Y0198087D01*
X0142651Y0197769D01*
X0142414Y0197456D01*
X0142168Y0197150D01*
X0141915Y0196849D01*
X0141655Y0196555D01*
X0141388Y0196267D01*
X0141114Y0195986D01*
X0140833Y0195712D01*
X0140545Y0195445D01*
X0140251Y0195185D01*
X0139950Y0194932D01*
X0139644Y0194686D01*
X0139331Y0194449D01*
X0139013Y0194219D01*
X0138689Y0193996D01*
X0138360Y0193782D01*
X0138026Y0193576D01*
X0137686Y0193379D01*
X0137342Y0193189D01*
X0136994Y0193008D01*
X0136641Y0192836D01*
X0136284Y0192673D01*
X0135923Y0192518D01*
X0135558Y0192372D01*
X0135190Y0192235D01*
X0134819Y0192108D01*
X0134445Y0191989D01*
X0134067Y0191880D01*
X0133688Y0191779D01*
X0133306Y0191689D01*
X0132921Y0191607D01*
X0132535Y0191536D01*
X0132148Y0191473D01*
X0131759Y0191420D01*
X0131368Y0191377D01*
X0130977Y0191343D01*
X0130585Y0191319D01*
X0130193Y0191305D01*
X0129800Y0191300D01*
X0129407Y0191305D01*
X0129015Y0191319D01*
X0128623Y0191343D01*
X0128232Y0191377D01*
X0127841Y0191420D01*
X0127452Y0191473D01*
X0127065Y0191536D01*
X0126679Y0191607D01*
X0126294Y0191689D01*
X0125912Y0191779D01*
X0125533Y0191880D01*
X0125155Y0191989D01*
X0124781Y0192108D01*
X0124410Y0192235D01*
X0124042Y0192372D01*
X0123677Y0192518D01*
X0123316Y0192673D01*
X0122959Y0192836D01*
X0122606Y0193008D01*
X0122258Y0193189D01*
X0121914Y0193379D01*
X0121574Y0193576D01*
X0121240Y0193782D01*
X0120911Y0193996D01*
X0120587Y0194219D01*
X0120269Y0194449D01*
X0119956Y0194686D01*
X0119650Y0194932D01*
X0119349Y0195185D01*
X0119055Y0195445D01*
X0118767Y0195712D01*
X0118486Y0195986D01*
X0118212Y0196267D01*
X0117945Y0196555D01*
X0117685Y0196849D01*
X0117432Y0197150D01*
X0117186Y0197456D01*
X0116949Y0197769D01*
X0116719Y0198087D01*
X0116496Y0198411D01*
X0116282Y0198740D01*
X0116076Y0199074D01*
X0115879Y0199414D01*
X0115689Y0199758D01*
X0115508Y0200106D01*
X0115336Y0200459D01*
X0115173Y0200816D01*
X0115018Y0201177D01*
X0114872Y0201542D01*
X0114735Y0201910D01*
X0114608Y0202281D01*
X0114489Y0202655D01*
X0114380Y0203033D01*
X0114279Y0203412D01*
X0114189Y0203794D01*
X0114107Y0204179D01*
X0114036Y0204565D01*
X0113973Y0204952D01*
X0113920Y0205341D01*
X0113877Y0205732D01*
X0113843Y0206123D01*
X0113819Y0206515D01*
X0113805Y0206907D01*
X0113800Y0207300D01*
X0123300Y0207300D02*
X0127300Y0207300D01*
X0132800Y0207300D02*
X0136300Y0207300D01*
X0140300Y0202800D02*
X0143300Y0202800D01*
X0141800Y0204300D02*
X0141800Y0201300D01*
X0100550Y0207800D02*
X0099550Y0206800D01*
X0091550Y0206800D01*
X0090550Y0207800D01*
X0089550Y0206800D01*
X0081550Y0206800D01*
X0080550Y0207800D01*
X0080550Y0215800D01*
X0081550Y0216800D01*
X0089550Y0216800D01*
X0090550Y0215800D01*
X0091550Y0216800D01*
X0099550Y0216800D01*
X0100550Y0215800D01*
X0100550Y0207800D01*
X0066050Y0203050D02*
X0063050Y0203050D01*
X0064550Y0204550D02*
X0064550Y0201550D01*
X0059050Y0207550D02*
X0055550Y0207550D01*
X0055550Y0202550D01*
X0053550Y0202550D01*
X0053550Y0212550D01*
X0055550Y0212550D01*
X0055550Y0207550D01*
X0036550Y0207550D02*
X0036555Y0207943D01*
X0036569Y0208335D01*
X0036593Y0208727D01*
X0036627Y0209118D01*
X0036670Y0209509D01*
X0036723Y0209898D01*
X0036786Y0210285D01*
X0036857Y0210671D01*
X0036939Y0211056D01*
X0037029Y0211438D01*
X0037130Y0211817D01*
X0037239Y0212195D01*
X0037358Y0212569D01*
X0037485Y0212940D01*
X0037622Y0213308D01*
X0037768Y0213673D01*
X0037923Y0214034D01*
X0038086Y0214391D01*
X0038258Y0214744D01*
X0038439Y0215092D01*
X0038629Y0215436D01*
X0038826Y0215776D01*
X0039032Y0216110D01*
X0039246Y0216439D01*
X0039469Y0216763D01*
X0039699Y0217081D01*
X0039936Y0217394D01*
X0040182Y0217700D01*
X0040435Y0218001D01*
X0040695Y0218295D01*
X0040962Y0218583D01*
X0041236Y0218864D01*
X0041517Y0219138D01*
X0041805Y0219405D01*
X0042099Y0219665D01*
X0042400Y0219918D01*
X0042706Y0220164D01*
X0043019Y0220401D01*
X0043337Y0220631D01*
X0043661Y0220854D01*
X0043990Y0221068D01*
X0044324Y0221274D01*
X0044664Y0221471D01*
X0045008Y0221661D01*
X0045356Y0221842D01*
X0045709Y0222014D01*
X0046066Y0222177D01*
X0046427Y0222332D01*
X0046792Y0222478D01*
X0047160Y0222615D01*
X0047531Y0222742D01*
X0047905Y0222861D01*
X0048283Y0222970D01*
X0048662Y0223071D01*
X0049044Y0223161D01*
X0049429Y0223243D01*
X0049815Y0223314D01*
X0050202Y0223377D01*
X0050591Y0223430D01*
X0050982Y0223473D01*
X0051373Y0223507D01*
X0051765Y0223531D01*
X0052157Y0223545D01*
X0052550Y0223550D01*
X0052943Y0223545D01*
X0053335Y0223531D01*
X0053727Y0223507D01*
X0054118Y0223473D01*
X0054509Y0223430D01*
X0054898Y0223377D01*
X0055285Y0223314D01*
X0055671Y0223243D01*
X0056056Y0223161D01*
X0056438Y0223071D01*
X0056817Y0222970D01*
X0057195Y0222861D01*
X0057569Y0222742D01*
X0057940Y0222615D01*
X0058308Y0222478D01*
X0058673Y0222332D01*
X0059034Y0222177D01*
X0059391Y0222014D01*
X0059744Y0221842D01*
X0060092Y0221661D01*
X0060436Y0221471D01*
X0060776Y0221274D01*
X0061110Y0221068D01*
X0061439Y0220854D01*
X0061763Y0220631D01*
X0062081Y0220401D01*
X0062394Y0220164D01*
X0062700Y0219918D01*
X0063001Y0219665D01*
X0063295Y0219405D01*
X0063583Y0219138D01*
X0063864Y0218864D01*
X0064138Y0218583D01*
X0064405Y0218295D01*
X0064665Y0218001D01*
X0064918Y0217700D01*
X0065164Y0217394D01*
X0065401Y0217081D01*
X0065631Y0216763D01*
X0065854Y0216439D01*
X0066068Y0216110D01*
X0066274Y0215776D01*
X0066471Y0215436D01*
X0066661Y0215092D01*
X0066842Y0214744D01*
X0067014Y0214391D01*
X0067177Y0214034D01*
X0067332Y0213673D01*
X0067478Y0213308D01*
X0067615Y0212940D01*
X0067742Y0212569D01*
X0067861Y0212195D01*
X0067970Y0211817D01*
X0068071Y0211438D01*
X0068161Y0211056D01*
X0068243Y0210671D01*
X0068314Y0210285D01*
X0068377Y0209898D01*
X0068430Y0209509D01*
X0068473Y0209118D01*
X0068507Y0208727D01*
X0068531Y0208335D01*
X0068545Y0207943D01*
X0068550Y0207550D01*
X0068545Y0207157D01*
X0068531Y0206765D01*
X0068507Y0206373D01*
X0068473Y0205982D01*
X0068430Y0205591D01*
X0068377Y0205202D01*
X0068314Y0204815D01*
X0068243Y0204429D01*
X0068161Y0204044D01*
X0068071Y0203662D01*
X0067970Y0203283D01*
X0067861Y0202905D01*
X0067742Y0202531D01*
X0067615Y0202160D01*
X0067478Y0201792D01*
X0067332Y0201427D01*
X0067177Y0201066D01*
X0067014Y0200709D01*
X0066842Y0200356D01*
X0066661Y0200008D01*
X0066471Y0199664D01*
X0066274Y0199324D01*
X0066068Y0198990D01*
X0065854Y0198661D01*
X0065631Y0198337D01*
X0065401Y0198019D01*
X0065164Y0197706D01*
X0064918Y0197400D01*
X0064665Y0197099D01*
X0064405Y0196805D01*
X0064138Y0196517D01*
X0063864Y0196236D01*
X0063583Y0195962D01*
X0063295Y0195695D01*
X0063001Y0195435D01*
X0062700Y0195182D01*
X0062394Y0194936D01*
X0062081Y0194699D01*
X0061763Y0194469D01*
X0061439Y0194246D01*
X0061110Y0194032D01*
X0060776Y0193826D01*
X0060436Y0193629D01*
X0060092Y0193439D01*
X0059744Y0193258D01*
X0059391Y0193086D01*
X0059034Y0192923D01*
X0058673Y0192768D01*
X0058308Y0192622D01*
X0057940Y0192485D01*
X0057569Y0192358D01*
X0057195Y0192239D01*
X0056817Y0192130D01*
X0056438Y0192029D01*
X0056056Y0191939D01*
X0055671Y0191857D01*
X0055285Y0191786D01*
X0054898Y0191723D01*
X0054509Y0191670D01*
X0054118Y0191627D01*
X0053727Y0191593D01*
X0053335Y0191569D01*
X0052943Y0191555D01*
X0052550Y0191550D01*
X0052157Y0191555D01*
X0051765Y0191569D01*
X0051373Y0191593D01*
X0050982Y0191627D01*
X0050591Y0191670D01*
X0050202Y0191723D01*
X0049815Y0191786D01*
X0049429Y0191857D01*
X0049044Y0191939D01*
X0048662Y0192029D01*
X0048283Y0192130D01*
X0047905Y0192239D01*
X0047531Y0192358D01*
X0047160Y0192485D01*
X0046792Y0192622D01*
X0046427Y0192768D01*
X0046066Y0192923D01*
X0045709Y0193086D01*
X0045356Y0193258D01*
X0045008Y0193439D01*
X0044664Y0193629D01*
X0044324Y0193826D01*
X0043990Y0194032D01*
X0043661Y0194246D01*
X0043337Y0194469D01*
X0043019Y0194699D01*
X0042706Y0194936D01*
X0042400Y0195182D01*
X0042099Y0195435D01*
X0041805Y0195695D01*
X0041517Y0195962D01*
X0041236Y0196236D01*
X0040962Y0196517D01*
X0040695Y0196805D01*
X0040435Y0197099D01*
X0040182Y0197400D01*
X0039936Y0197706D01*
X0039699Y0198019D01*
X0039469Y0198337D01*
X0039246Y0198661D01*
X0039032Y0198990D01*
X0038826Y0199324D01*
X0038629Y0199664D01*
X0038439Y0200008D01*
X0038258Y0200356D01*
X0038086Y0200709D01*
X0037923Y0201066D01*
X0037768Y0201427D01*
X0037622Y0201792D01*
X0037485Y0202160D01*
X0037358Y0202531D01*
X0037239Y0202905D01*
X0037130Y0203283D01*
X0037029Y0203662D01*
X0036939Y0204044D01*
X0036857Y0204429D01*
X0036786Y0204815D01*
X0036723Y0205202D01*
X0036670Y0205591D01*
X0036627Y0205982D01*
X0036593Y0206373D01*
X0036569Y0206765D01*
X0036555Y0207157D01*
X0036550Y0207550D01*
X0046050Y0207550D02*
X0050050Y0207550D01*
X0042009Y0182025D02*
X0038781Y0182025D01*
X0038781Y0177025D02*
X0042009Y0177025D01*
X0047595Y0169625D02*
X0050495Y0169625D01*
X0050495Y0166725D01*
X0048495Y0166725D02*
X0047595Y0167625D01*
X0052995Y0164525D02*
X0056895Y0164525D01*
X0050495Y0152325D02*
X0050495Y0149425D01*
X0047595Y0149425D01*
X0033195Y0149425D02*
X0030295Y0149425D01*
X0030295Y0152325D01*
X0027795Y0154325D02*
X0023795Y0154325D01*
X0030295Y0166725D02*
X0030295Y0169625D01*
X0033195Y0169625D01*
X0027895Y0175411D02*
X0027895Y0178639D01*
X0022895Y0178639D02*
X0022895Y0175411D01*
X0082985Y0086210D02*
X0082987Y0086319D01*
X0082993Y0086428D01*
X0083003Y0086536D01*
X0083017Y0086644D01*
X0083034Y0086752D01*
X0083056Y0086859D01*
X0083081Y0086965D01*
X0083111Y0087069D01*
X0083144Y0087173D01*
X0083181Y0087276D01*
X0083221Y0087377D01*
X0083265Y0087476D01*
X0083313Y0087574D01*
X0083365Y0087671D01*
X0083419Y0087765D01*
X0083477Y0087857D01*
X0083539Y0087947D01*
X0083604Y0088034D01*
X0083671Y0088120D01*
X0083742Y0088203D01*
X0083816Y0088283D01*
X0083893Y0088360D01*
X0083972Y0088435D01*
X0084054Y0088506D01*
X0084139Y0088575D01*
X0084226Y0088640D01*
X0084315Y0088703D01*
X0084407Y0088761D01*
X0084501Y0088817D01*
X0084596Y0088869D01*
X0084694Y0088918D01*
X0084793Y0088963D01*
X0084894Y0089005D01*
X0084996Y0089042D01*
X0085099Y0089076D01*
X0085204Y0089107D01*
X0085310Y0089133D01*
X0085416Y0089156D01*
X0085524Y0089174D01*
X0085632Y0089189D01*
X0085740Y0089200D01*
X0085849Y0089207D01*
X0085958Y0089210D01*
X0086067Y0089209D01*
X0086176Y0089204D01*
X0086284Y0089195D01*
X0086392Y0089182D01*
X0086500Y0089165D01*
X0086607Y0089145D01*
X0086713Y0089120D01*
X0086818Y0089092D01*
X0086922Y0089060D01*
X0087025Y0089024D01*
X0087127Y0088984D01*
X0087227Y0088941D01*
X0087325Y0088894D01*
X0087422Y0088844D01*
X0087516Y0088790D01*
X0087609Y0088732D01*
X0087700Y0088672D01*
X0087788Y0088608D01*
X0087874Y0088541D01*
X0087957Y0088471D01*
X0088038Y0088398D01*
X0088116Y0088322D01*
X0088191Y0088243D01*
X0088264Y0088161D01*
X0088333Y0088077D01*
X0088399Y0087991D01*
X0088462Y0087902D01*
X0088522Y0087811D01*
X0088579Y0087718D01*
X0088632Y0087623D01*
X0088681Y0087526D01*
X0088727Y0087427D01*
X0088769Y0087327D01*
X0088808Y0087225D01*
X0088843Y0087121D01*
X0088874Y0087017D01*
X0088902Y0086912D01*
X0088925Y0086805D01*
X0088945Y0086698D01*
X0088961Y0086590D01*
X0088973Y0086482D01*
X0088981Y0086373D01*
X0088985Y0086264D01*
X0088985Y0086156D01*
X0088981Y0086047D01*
X0088973Y0085938D01*
X0088961Y0085830D01*
X0088945Y0085722D01*
X0088925Y0085615D01*
X0088902Y0085508D01*
X0088874Y0085403D01*
X0088843Y0085299D01*
X0088808Y0085195D01*
X0088769Y0085093D01*
X0088727Y0084993D01*
X0088681Y0084894D01*
X0088632Y0084797D01*
X0088579Y0084702D01*
X0088522Y0084609D01*
X0088462Y0084518D01*
X0088399Y0084429D01*
X0088333Y0084343D01*
X0088264Y0084259D01*
X0088191Y0084177D01*
X0088116Y0084098D01*
X0088038Y0084022D01*
X0087957Y0083949D01*
X0087874Y0083879D01*
X0087788Y0083812D01*
X0087700Y0083748D01*
X0087609Y0083688D01*
X0087516Y0083630D01*
X0087422Y0083576D01*
X0087325Y0083526D01*
X0087227Y0083479D01*
X0087127Y0083436D01*
X0087025Y0083396D01*
X0086922Y0083360D01*
X0086818Y0083328D01*
X0086713Y0083300D01*
X0086607Y0083275D01*
X0086500Y0083255D01*
X0086392Y0083238D01*
X0086284Y0083225D01*
X0086176Y0083216D01*
X0086067Y0083211D01*
X0085958Y0083210D01*
X0085849Y0083213D01*
X0085740Y0083220D01*
X0085632Y0083231D01*
X0085524Y0083246D01*
X0085416Y0083264D01*
X0085310Y0083287D01*
X0085204Y0083313D01*
X0085099Y0083344D01*
X0084996Y0083378D01*
X0084894Y0083415D01*
X0084793Y0083457D01*
X0084694Y0083502D01*
X0084596Y0083551D01*
X0084501Y0083603D01*
X0084407Y0083659D01*
X0084315Y0083717D01*
X0084226Y0083780D01*
X0084139Y0083845D01*
X0084054Y0083914D01*
X0083972Y0083985D01*
X0083893Y0084060D01*
X0083816Y0084137D01*
X0083742Y0084217D01*
X0083671Y0084300D01*
X0083604Y0084386D01*
X0083539Y0084473D01*
X0083477Y0084563D01*
X0083419Y0084655D01*
X0083365Y0084749D01*
X0083313Y0084846D01*
X0083265Y0084944D01*
X0083221Y0085043D01*
X0083181Y0085144D01*
X0083144Y0085247D01*
X0083111Y0085351D01*
X0083081Y0085455D01*
X0083056Y0085561D01*
X0083034Y0085668D01*
X0083017Y0085776D01*
X0083003Y0085884D01*
X0082993Y0085992D01*
X0082987Y0086101D01*
X0082985Y0086210D01*
X0110600Y0051800D02*
X0110602Y0051870D01*
X0110608Y0051941D01*
X0110617Y0052010D01*
X0110630Y0052079D01*
X0110647Y0052148D01*
X0110668Y0052215D01*
X0110692Y0052281D01*
X0110720Y0052346D01*
X0110751Y0052409D01*
X0110786Y0052470D01*
X0110824Y0052530D01*
X0110865Y0052587D01*
X0110909Y0052642D01*
X0110956Y0052694D01*
X0111006Y0052744D01*
X0111058Y0052791D01*
X0111113Y0052835D01*
X0111170Y0052876D01*
X0111230Y0052914D01*
X0111291Y0052949D01*
X0111354Y0052980D01*
X0111419Y0053008D01*
X0111485Y0053032D01*
X0111552Y0053053D01*
X0111621Y0053070D01*
X0111690Y0053083D01*
X0111759Y0053092D01*
X0111830Y0053098D01*
X0111900Y0053100D01*
X0111970Y0053098D01*
X0112041Y0053092D01*
X0112110Y0053083D01*
X0112179Y0053070D01*
X0112248Y0053053D01*
X0112315Y0053032D01*
X0112381Y0053008D01*
X0112446Y0052980D01*
X0112509Y0052949D01*
X0112570Y0052914D01*
X0112630Y0052876D01*
X0112687Y0052835D01*
X0112742Y0052791D01*
X0112794Y0052744D01*
X0112844Y0052694D01*
X0112891Y0052642D01*
X0112935Y0052587D01*
X0112976Y0052530D01*
X0113014Y0052470D01*
X0113049Y0052409D01*
X0113080Y0052346D01*
X0113108Y0052281D01*
X0113132Y0052215D01*
X0113153Y0052148D01*
X0113170Y0052079D01*
X0113183Y0052010D01*
X0113192Y0051941D01*
X0113198Y0051870D01*
X0113200Y0051800D01*
X0113202Y0051730D01*
X0113208Y0051659D01*
X0113217Y0051590D01*
X0113230Y0051521D01*
X0113247Y0051452D01*
X0113268Y0051385D01*
X0113292Y0051319D01*
X0113320Y0051254D01*
X0113351Y0051191D01*
X0113386Y0051130D01*
X0113424Y0051070D01*
X0113465Y0051013D01*
X0113509Y0050958D01*
X0113556Y0050906D01*
X0113606Y0050856D01*
X0113658Y0050809D01*
X0113713Y0050765D01*
X0113770Y0050724D01*
X0113830Y0050686D01*
X0113891Y0050651D01*
X0113954Y0050620D01*
X0114019Y0050592D01*
X0114085Y0050568D01*
X0114152Y0050547D01*
X0114221Y0050530D01*
X0114290Y0050517D01*
X0114359Y0050508D01*
X0114430Y0050502D01*
X0114500Y0050500D01*
X0114570Y0050502D01*
X0114641Y0050508D01*
X0114710Y0050517D01*
X0114779Y0050530D01*
X0114848Y0050547D01*
X0114915Y0050568D01*
X0114981Y0050592D01*
X0115046Y0050620D01*
X0115109Y0050651D01*
X0115170Y0050686D01*
X0115230Y0050724D01*
X0115287Y0050765D01*
X0115342Y0050809D01*
X0115394Y0050856D01*
X0115444Y0050906D01*
X0115491Y0050958D01*
X0115535Y0051013D01*
X0115576Y0051070D01*
X0115614Y0051130D01*
X0115649Y0051191D01*
X0115680Y0051254D01*
X0115708Y0051319D01*
X0115732Y0051385D01*
X0115753Y0051452D01*
X0115770Y0051521D01*
X0115783Y0051590D01*
X0115792Y0051659D01*
X0115798Y0051730D01*
X0115800Y0051800D01*
X0122800Y0051800D02*
X0126800Y0051800D01*
X0124800Y0053800D02*
X0124800Y0049800D01*
X0137800Y0051800D02*
X0137551Y0051404D01*
X0137292Y0051014D01*
X0137023Y0050630D01*
X0136745Y0050253D01*
X0136459Y0049883D01*
X0136163Y0049520D01*
X0135858Y0049165D01*
X0135545Y0048817D01*
X0135223Y0048477D01*
X0134893Y0048144D01*
X0134555Y0047820D01*
X0134210Y0047505D01*
X0133856Y0047197D01*
X0133496Y0046899D01*
X0133128Y0046609D01*
X0132753Y0046329D01*
X0132371Y0046058D01*
X0131983Y0045796D01*
X0131588Y0045544D01*
X0131188Y0045301D01*
X0130782Y0045069D01*
X0130370Y0044846D01*
X0129952Y0044633D01*
X0129530Y0044431D01*
X0129103Y0044239D01*
X0128671Y0044058D01*
X0128235Y0043887D01*
X0127795Y0043727D01*
X0127352Y0043578D01*
X0126904Y0043440D01*
X0126454Y0043312D01*
X0126000Y0043196D01*
X0125544Y0043091D01*
X0125085Y0042997D01*
X0124625Y0042914D01*
X0124162Y0042843D01*
X0123697Y0042783D01*
X0123232Y0042734D01*
X0122765Y0042697D01*
X0122298Y0042671D01*
X0121830Y0042656D01*
X0121361Y0042653D01*
X0120893Y0042662D01*
X0120426Y0042682D01*
X0119958Y0042713D01*
X0119492Y0042756D01*
X0119027Y0042810D01*
X0118564Y0042875D01*
X0118102Y0042952D01*
X0117642Y0043040D01*
X0117184Y0043139D01*
X0116729Y0043250D01*
X0116277Y0043371D01*
X0115828Y0043504D01*
X0115382Y0043647D01*
X0114940Y0043802D01*
X0114502Y0043967D01*
X0114068Y0044142D01*
X0113639Y0044329D01*
X0113214Y0044525D01*
X0112794Y0044733D01*
X0112379Y0044950D01*
X0111970Y0045177D01*
X0111566Y0045414D01*
X0111169Y0045662D01*
X0110777Y0045918D01*
X0110392Y0046185D01*
X0110014Y0046460D01*
X0109642Y0046745D01*
X0109277Y0047039D01*
X0108920Y0047341D01*
X0108570Y0047653D01*
X0108228Y0047972D01*
X0107894Y0048300D01*
X0107568Y0048636D01*
X0107250Y0048980D01*
X0106941Y0049332D01*
X0106641Y0049691D01*
X0106349Y0050057D01*
X0106066Y0050430D01*
X0105793Y0050810D01*
X0105529Y0051197D01*
X0105274Y0051590D01*
X0105030Y0051989D01*
X0104795Y0052394D01*
X0104570Y0052805D01*
X0104355Y0053221D01*
X0104150Y0053642D01*
X0103956Y0054068D01*
X0103772Y0054498D01*
X0103599Y0054933D01*
X0103436Y0055372D01*
X0103284Y0055815D01*
X0103143Y0056262D01*
X0103014Y0056712D01*
X0102895Y0057164D01*
X0102787Y0057620D01*
X0102690Y0058078D01*
X0102605Y0058539D01*
X0102531Y0059001D01*
X0102468Y0059465D01*
X0102417Y0059930D01*
X0102376Y0060397D01*
X0102348Y0060864D01*
X0102331Y0061332D01*
X0102325Y0061800D01*
X0102331Y0062268D01*
X0102348Y0062736D01*
X0102376Y0063203D01*
X0102417Y0063670D01*
X0102468Y0064135D01*
X0102531Y0064599D01*
X0102605Y0065061D01*
X0102690Y0065522D01*
X0102787Y0065980D01*
X0102895Y0066436D01*
X0103014Y0066888D01*
X0103143Y0067338D01*
X0103284Y0067785D01*
X0103436Y0068228D01*
X0103599Y0068667D01*
X0103772Y0069102D01*
X0103956Y0069532D01*
X0104150Y0069958D01*
X0104355Y0070379D01*
X0104570Y0070795D01*
X0104795Y0071206D01*
X0105030Y0071611D01*
X0105274Y0072010D01*
X0105529Y0072403D01*
X0105793Y0072790D01*
X0106066Y0073170D01*
X0106349Y0073543D01*
X0106641Y0073909D01*
X0106941Y0074268D01*
X0107250Y0074620D01*
X0107568Y0074964D01*
X0107894Y0075300D01*
X0108228Y0075628D01*
X0108570Y0075947D01*
X0108920Y0076259D01*
X0109277Y0076561D01*
X0109642Y0076855D01*
X0110014Y0077140D01*
X0110392Y0077415D01*
X0110777Y0077682D01*
X0111169Y0077938D01*
X0111566Y0078186D01*
X0111970Y0078423D01*
X0112379Y0078650D01*
X0112794Y0078867D01*
X0113214Y0079075D01*
X0113639Y0079271D01*
X0114068Y0079458D01*
X0114502Y0079633D01*
X0114940Y0079798D01*
X0115382Y0079953D01*
X0115828Y0080096D01*
X0116277Y0080229D01*
X0116729Y0080350D01*
X0117184Y0080461D01*
X0117642Y0080560D01*
X0118102Y0080648D01*
X0118564Y0080725D01*
X0119027Y0080790D01*
X0119492Y0080844D01*
X0119958Y0080887D01*
X0120426Y0080918D01*
X0120893Y0080938D01*
X0121361Y0080947D01*
X0121830Y0080944D01*
X0122298Y0080929D01*
X0122765Y0080903D01*
X0123232Y0080866D01*
X0123697Y0080817D01*
X0124162Y0080757D01*
X0124625Y0080686D01*
X0125085Y0080603D01*
X0125544Y0080509D01*
X0126000Y0080404D01*
X0126454Y0080288D01*
X0126904Y0080160D01*
X0127352Y0080022D01*
X0127795Y0079873D01*
X0128235Y0079713D01*
X0128671Y0079542D01*
X0129103Y0079361D01*
X0129530Y0079169D01*
X0129952Y0078967D01*
X0130370Y0078754D01*
X0130782Y0078531D01*
X0131188Y0078299D01*
X0131588Y0078056D01*
X0131983Y0077804D01*
X0132371Y0077542D01*
X0132753Y0077271D01*
X0133128Y0076991D01*
X0133496Y0076701D01*
X0133856Y0076403D01*
X0134210Y0076095D01*
X0134555Y0075780D01*
X0134893Y0075456D01*
X0135223Y0075123D01*
X0135545Y0074783D01*
X0135858Y0074435D01*
X0136163Y0074080D01*
X0136459Y0073717D01*
X0136745Y0073347D01*
X0137023Y0072970D01*
X0137292Y0072586D01*
X0137551Y0072196D01*
X0137800Y0071800D01*
X0137800Y0051800D01*
X0133300Y0071800D02*
X0133298Y0071730D01*
X0133292Y0071659D01*
X0133283Y0071590D01*
X0133270Y0071521D01*
X0133253Y0071452D01*
X0133232Y0071385D01*
X0133208Y0071319D01*
X0133180Y0071254D01*
X0133149Y0071191D01*
X0133114Y0071130D01*
X0133076Y0071070D01*
X0133035Y0071013D01*
X0132991Y0070958D01*
X0132944Y0070906D01*
X0132894Y0070856D01*
X0132842Y0070809D01*
X0132787Y0070765D01*
X0132730Y0070724D01*
X0132670Y0070686D01*
X0132609Y0070651D01*
X0132546Y0070620D01*
X0132481Y0070592D01*
X0132415Y0070568D01*
X0132348Y0070547D01*
X0132279Y0070530D01*
X0132210Y0070517D01*
X0132141Y0070508D01*
X0132070Y0070502D01*
X0132000Y0070500D01*
X0131930Y0070502D01*
X0131859Y0070508D01*
X0131790Y0070517D01*
X0131721Y0070530D01*
X0131652Y0070547D01*
X0131585Y0070568D01*
X0131519Y0070592D01*
X0131454Y0070620D01*
X0131391Y0070651D01*
X0131330Y0070686D01*
X0131270Y0070724D01*
X0131213Y0070765D01*
X0131158Y0070809D01*
X0131106Y0070856D01*
X0131056Y0070906D01*
X0131009Y0070958D01*
X0130965Y0071013D01*
X0130924Y0071070D01*
X0130886Y0071130D01*
X0130851Y0071191D01*
X0130820Y0071254D01*
X0130792Y0071319D01*
X0130768Y0071385D01*
X0130747Y0071452D01*
X0130730Y0071521D01*
X0130717Y0071590D01*
X0130708Y0071659D01*
X0130702Y0071730D01*
X0130700Y0071800D01*
X0130698Y0071870D01*
X0130692Y0071941D01*
X0130683Y0072010D01*
X0130670Y0072079D01*
X0130653Y0072148D01*
X0130632Y0072215D01*
X0130608Y0072281D01*
X0130580Y0072346D01*
X0130549Y0072409D01*
X0130514Y0072470D01*
X0130476Y0072530D01*
X0130435Y0072587D01*
X0130391Y0072642D01*
X0130344Y0072694D01*
X0130294Y0072744D01*
X0130242Y0072791D01*
X0130187Y0072835D01*
X0130130Y0072876D01*
X0130070Y0072914D01*
X0130009Y0072949D01*
X0129946Y0072980D01*
X0129881Y0073008D01*
X0129815Y0073032D01*
X0129748Y0073053D01*
X0129679Y0073070D01*
X0129610Y0073083D01*
X0129541Y0073092D01*
X0129470Y0073098D01*
X0129400Y0073100D01*
X0129330Y0073098D01*
X0129259Y0073092D01*
X0129190Y0073083D01*
X0129121Y0073070D01*
X0129052Y0073053D01*
X0128985Y0073032D01*
X0128919Y0073008D01*
X0128854Y0072980D01*
X0128791Y0072949D01*
X0128730Y0072914D01*
X0128670Y0072876D01*
X0128613Y0072835D01*
X0128558Y0072791D01*
X0128506Y0072744D01*
X0128456Y0072694D01*
X0128409Y0072642D01*
X0128365Y0072587D01*
X0128324Y0072530D01*
X0128286Y0072470D01*
X0128251Y0072409D01*
X0128220Y0072346D01*
X0128192Y0072281D01*
X0128168Y0072215D01*
X0128147Y0072148D01*
X0128130Y0072079D01*
X0128117Y0072010D01*
X0128108Y0071941D01*
X0128102Y0071870D01*
X0128100Y0071800D01*
X0120800Y0071800D02*
X0116800Y0071800D01*
X0140550Y0106800D02*
X0143050Y0106800D01*
X0143050Y0111800D01*
X0143050Y0116800D01*
X0140550Y0116800D01*
X0140550Y0106800D01*
X0112050Y0111800D02*
X0112058Y0112475D01*
X0112083Y0113149D01*
X0112125Y0113823D01*
X0112182Y0114495D01*
X0112257Y0115166D01*
X0112348Y0115835D01*
X0112455Y0116501D01*
X0112578Y0117165D01*
X0112718Y0117825D01*
X0112874Y0118482D01*
X0113046Y0119135D01*
X0113234Y0119783D01*
X0113438Y0120426D01*
X0113658Y0121064D01*
X0113893Y0121697D01*
X0114143Y0122324D01*
X0114409Y0122944D01*
X0114690Y0123558D01*
X0114986Y0124164D01*
X0115297Y0124763D01*
X0115623Y0125355D01*
X0115962Y0125938D01*
X0116317Y0126512D01*
X0116685Y0127078D01*
X0117066Y0127635D01*
X0117462Y0128182D01*
X0117870Y0128719D01*
X0118292Y0129246D01*
X0118727Y0129762D01*
X0119174Y0130268D01*
X0119633Y0130762D01*
X0120105Y0131245D01*
X0120588Y0131717D01*
X0121082Y0132176D01*
X0121588Y0132623D01*
X0122104Y0133058D01*
X0122631Y0133480D01*
X0123168Y0133888D01*
X0123715Y0134284D01*
X0124272Y0134665D01*
X0124838Y0135033D01*
X0125412Y0135388D01*
X0125995Y0135727D01*
X0126587Y0136053D01*
X0127186Y0136364D01*
X0127792Y0136660D01*
X0128406Y0136941D01*
X0129026Y0137207D01*
X0129653Y0137457D01*
X0130286Y0137692D01*
X0130924Y0137912D01*
X0131567Y0138116D01*
X0132215Y0138304D01*
X0132868Y0138476D01*
X0133525Y0138632D01*
X0134185Y0138772D01*
X0134849Y0138895D01*
X0135515Y0139002D01*
X0136184Y0139093D01*
X0136855Y0139168D01*
X0137527Y0139225D01*
X0138201Y0139267D01*
X0138875Y0139292D01*
X0139550Y0139300D01*
X0140225Y0139292D01*
X0140899Y0139267D01*
X0141573Y0139225D01*
X0142245Y0139168D01*
X0142916Y0139093D01*
X0143585Y0139002D01*
X0144251Y0138895D01*
X0144915Y0138772D01*
X0145575Y0138632D01*
X0146232Y0138476D01*
X0146885Y0138304D01*
X0147533Y0138116D01*
X0148176Y0137912D01*
X0148814Y0137692D01*
X0149447Y0137457D01*
X0150074Y0137207D01*
X0150694Y0136941D01*
X0151308Y0136660D01*
X0151914Y0136364D01*
X0152513Y0136053D01*
X0153105Y0135727D01*
X0153688Y0135388D01*
X0154262Y0135033D01*
X0154828Y0134665D01*
X0155385Y0134284D01*
X0155932Y0133888D01*
X0156469Y0133480D01*
X0156996Y0133058D01*
X0157512Y0132623D01*
X0158018Y0132176D01*
X0158512Y0131717D01*
X0158995Y0131245D01*
X0159467Y0130762D01*
X0159926Y0130268D01*
X0160373Y0129762D01*
X0160808Y0129246D01*
X0161230Y0128719D01*
X0161638Y0128182D01*
X0162034Y0127635D01*
X0162415Y0127078D01*
X0162783Y0126512D01*
X0163138Y0125938D01*
X0163477Y0125355D01*
X0163803Y0124763D01*
X0164114Y0124164D01*
X0164410Y0123558D01*
X0164691Y0122944D01*
X0164957Y0122324D01*
X0165207Y0121697D01*
X0165442Y0121064D01*
X0165662Y0120426D01*
X0165866Y0119783D01*
X0166054Y0119135D01*
X0166226Y0118482D01*
X0166382Y0117825D01*
X0166522Y0117165D01*
X0166645Y0116501D01*
X0166752Y0115835D01*
X0166843Y0115166D01*
X0166918Y0114495D01*
X0166975Y0113823D01*
X0167017Y0113149D01*
X0167042Y0112475D01*
X0167050Y0111800D01*
X0167042Y0111125D01*
X0167017Y0110451D01*
X0166975Y0109777D01*
X0166918Y0109105D01*
X0166843Y0108434D01*
X0166752Y0107765D01*
X0166645Y0107099D01*
X0166522Y0106435D01*
X0166382Y0105775D01*
X0166226Y0105118D01*
X0166054Y0104465D01*
X0165866Y0103817D01*
X0165662Y0103174D01*
X0165442Y0102536D01*
X0165207Y0101903D01*
X0164957Y0101276D01*
X0164691Y0100656D01*
X0164410Y0100042D01*
X0164114Y0099436D01*
X0163803Y0098837D01*
X0163477Y0098245D01*
X0163138Y0097662D01*
X0162783Y0097088D01*
X0162415Y0096522D01*
X0162034Y0095965D01*
X0161638Y0095418D01*
X0161230Y0094881D01*
X0160808Y0094354D01*
X0160373Y0093838D01*
X0159926Y0093332D01*
X0159467Y0092838D01*
X0158995Y0092355D01*
X0158512Y0091883D01*
X0158018Y0091424D01*
X0157512Y0090977D01*
X0156996Y0090542D01*
X0156469Y0090120D01*
X0155932Y0089712D01*
X0155385Y0089316D01*
X0154828Y0088935D01*
X0154262Y0088567D01*
X0153688Y0088212D01*
X0153105Y0087873D01*
X0152513Y0087547D01*
X0151914Y0087236D01*
X0151308Y0086940D01*
X0150694Y0086659D01*
X0150074Y0086393D01*
X0149447Y0086143D01*
X0148814Y0085908D01*
X0148176Y0085688D01*
X0147533Y0085484D01*
X0146885Y0085296D01*
X0146232Y0085124D01*
X0145575Y0084968D01*
X0144915Y0084828D01*
X0144251Y0084705D01*
X0143585Y0084598D01*
X0142916Y0084507D01*
X0142245Y0084432D01*
X0141573Y0084375D01*
X0140899Y0084333D01*
X0140225Y0084308D01*
X0139550Y0084300D01*
X0138875Y0084308D01*
X0138201Y0084333D01*
X0137527Y0084375D01*
X0136855Y0084432D01*
X0136184Y0084507D01*
X0135515Y0084598D01*
X0134849Y0084705D01*
X0134185Y0084828D01*
X0133525Y0084968D01*
X0132868Y0085124D01*
X0132215Y0085296D01*
X0131567Y0085484D01*
X0130924Y0085688D01*
X0130286Y0085908D01*
X0129653Y0086143D01*
X0129026Y0086393D01*
X0128406Y0086659D01*
X0127792Y0086940D01*
X0127186Y0087236D01*
X0126587Y0087547D01*
X0125995Y0087873D01*
X0125412Y0088212D01*
X0124838Y0088567D01*
X0124272Y0088935D01*
X0123715Y0089316D01*
X0123168Y0089712D01*
X0122631Y0090120D01*
X0122104Y0090542D01*
X0121588Y0090977D01*
X0121082Y0091424D01*
X0120588Y0091883D01*
X0120105Y0092355D01*
X0119633Y0092838D01*
X0119174Y0093332D01*
X0118727Y0093838D01*
X0118292Y0094354D01*
X0117870Y0094881D01*
X0117462Y0095418D01*
X0117066Y0095965D01*
X0116685Y0096522D01*
X0116317Y0097088D01*
X0115962Y0097662D01*
X0115623Y0098245D01*
X0115297Y0098837D01*
X0114986Y0099436D01*
X0114690Y0100042D01*
X0114409Y0100656D01*
X0114143Y0101276D01*
X0113893Y0101903D01*
X0113658Y0102536D01*
X0113438Y0103174D01*
X0113234Y0103817D01*
X0113046Y0104465D01*
X0112874Y0105118D01*
X0112718Y0105775D01*
X0112578Y0106435D01*
X0112455Y0107099D01*
X0112348Y0107765D01*
X0112257Y0108434D01*
X0112182Y0109105D01*
X0112125Y0109777D01*
X0112083Y0110451D01*
X0112058Y0111125D01*
X0112050Y0111800D01*
X0133550Y0111800D02*
X0135550Y0111800D01*
X0135050Y0111800D02*
X0137050Y0111800D01*
X0143050Y0111800D02*
X0144050Y0111800D01*
X0146050Y0111800D01*
X0154550Y0104300D02*
X0159550Y0104300D01*
X0157050Y0106800D02*
X0157050Y0101800D01*
D57*
X0137300Y0111800D03*
X0045300Y0111050D03*
D58*
X0055805Y0152329D03*
X0055805Y0156929D03*
X0055595Y0164111D03*
X0055595Y0168711D03*
X0147345Y0168711D03*
X0147345Y0164111D03*
X0147305Y0156429D03*
X0147305Y0151829D03*
D59*
X0127800Y0207300D03*
X0050550Y0207550D03*
D60*
X0043275Y0179531D03*
X0037475Y0179531D03*
X0127475Y0179531D03*
X0133275Y0179531D03*
D61*
X0115389Y0179905D03*
X0115389Y0174105D03*
X0025389Y0174105D03*
X0025389Y0179905D03*
D62*
X0035967Y0225855D02*
X0035967Y0227036D01*
X0075967Y0227036D01*
X0075967Y0225855D01*
X0035967Y0225855D01*
X0035967Y0227036D02*
X0035967Y0228702D01*
X0035967Y0229485D01*
X0075967Y0229485D01*
X0075967Y0227036D01*
X0075967Y0229485D02*
X0075967Y0232163D01*
X0075967Y0234101D01*
X0075967Y0249837D01*
X0075967Y0251738D01*
X0075967Y0257745D01*
X0035967Y0257745D01*
X0035967Y0251738D01*
X0035967Y0249837D01*
X0035967Y0234101D01*
X0035967Y0232163D01*
X0075967Y0232163D01*
X0065967Y0239950D02*
X0068447Y0242430D01*
X0072140Y0246123D01*
X0070191Y0248072D02*
X0066435Y0244316D01*
X0065967Y0243847D01*
X0063451Y0241331D01*
X0059794Y0237674D01*
X0061743Y0235725D02*
X0065337Y0239320D01*
X0065967Y0239950D01*
X0065337Y0239320D02*
X0065240Y0239346D01*
X0065145Y0239377D01*
X0065050Y0239411D01*
X0064957Y0239449D01*
X0064866Y0239490D01*
X0064776Y0239535D01*
X0064688Y0239584D01*
X0064602Y0239635D01*
X0064518Y0239691D01*
X0064436Y0239749D01*
X0064357Y0239811D01*
X0064280Y0239875D01*
X0064206Y0239943D01*
X0064135Y0240014D01*
X0064066Y0240087D01*
X0064000Y0240163D01*
X0063938Y0240241D01*
X0063878Y0240322D01*
X0063822Y0240405D01*
X0063769Y0240490D01*
X0063719Y0240578D01*
X0063673Y0240667D01*
X0063630Y0240758D01*
X0063591Y0240850D01*
X0063555Y0240944D01*
X0063524Y0241039D01*
X0063496Y0241136D01*
X0063472Y0241233D01*
X0063451Y0241332D01*
X0066435Y0244316D02*
X0066534Y0244295D01*
X0066631Y0244271D01*
X0066728Y0244243D01*
X0066823Y0244212D01*
X0066917Y0244176D01*
X0067009Y0244137D01*
X0067100Y0244094D01*
X0067189Y0244048D01*
X0067277Y0243998D01*
X0067362Y0243945D01*
X0067445Y0243889D01*
X0067526Y0243829D01*
X0067604Y0243767D01*
X0067680Y0243701D01*
X0067753Y0243632D01*
X0067824Y0243561D01*
X0067892Y0243487D01*
X0067956Y0243410D01*
X0068018Y0243331D01*
X0068076Y0243249D01*
X0068132Y0243165D01*
X0068183Y0243079D01*
X0068232Y0242991D01*
X0068277Y0242901D01*
X0068318Y0242810D01*
X0068356Y0242717D01*
X0068390Y0242622D01*
X0068421Y0242527D01*
X0068447Y0242430D01*
X0058428Y0241898D02*
X0058430Y0242083D01*
X0058437Y0242268D01*
X0058448Y0242453D01*
X0058464Y0242637D01*
X0058485Y0242821D01*
X0058510Y0243004D01*
X0058539Y0243187D01*
X0058573Y0243369D01*
X0058611Y0243550D01*
X0058654Y0243730D01*
X0058701Y0243909D01*
X0058753Y0244086D01*
X0058809Y0244263D01*
X0058869Y0244438D01*
X0058933Y0244611D01*
X0059002Y0244783D01*
X0059075Y0244953D01*
X0059152Y0245121D01*
X0059233Y0245288D01*
X0059318Y0245452D01*
X0059407Y0245614D01*
X0059501Y0245774D01*
X0059598Y0245931D01*
X0059699Y0246086D01*
X0059803Y0246239D01*
X0059912Y0246389D01*
X0060024Y0246536D01*
X0060139Y0246681D01*
X0060258Y0246822D01*
X0060381Y0246961D01*
X0060507Y0247096D01*
X0060636Y0247229D01*
X0060769Y0247358D01*
X0060904Y0247484D01*
X0061043Y0247607D01*
X0061184Y0247726D01*
X0061329Y0247841D01*
X0061476Y0247953D01*
X0061626Y0248062D01*
X0061779Y0248166D01*
X0061934Y0248267D01*
X0062091Y0248364D01*
X0062251Y0248458D01*
X0062413Y0248547D01*
X0062577Y0248632D01*
X0062744Y0248713D01*
X0062912Y0248790D01*
X0063082Y0248863D01*
X0063254Y0248932D01*
X0063427Y0248996D01*
X0063602Y0249056D01*
X0063779Y0249112D01*
X0063956Y0249164D01*
X0064135Y0249211D01*
X0064315Y0249254D01*
X0064496Y0249292D01*
X0064678Y0249326D01*
X0064861Y0249355D01*
X0065044Y0249380D01*
X0065228Y0249401D01*
X0065412Y0249417D01*
X0065597Y0249428D01*
X0065782Y0249435D01*
X0065967Y0249437D01*
X0066152Y0249435D01*
X0066337Y0249428D01*
X0066522Y0249417D01*
X0066706Y0249401D01*
X0066890Y0249380D01*
X0067073Y0249355D01*
X0067256Y0249326D01*
X0067438Y0249292D01*
X0067619Y0249254D01*
X0067799Y0249211D01*
X0067978Y0249164D01*
X0068155Y0249112D01*
X0068332Y0249056D01*
X0068507Y0248996D01*
X0068680Y0248932D01*
X0068852Y0248863D01*
X0069022Y0248790D01*
X0069190Y0248713D01*
X0069357Y0248632D01*
X0069521Y0248547D01*
X0069683Y0248458D01*
X0069843Y0248364D01*
X0070000Y0248267D01*
X0070155Y0248166D01*
X0070308Y0248062D01*
X0070458Y0247953D01*
X0070605Y0247841D01*
X0070750Y0247726D01*
X0070891Y0247607D01*
X0071030Y0247484D01*
X0071165Y0247358D01*
X0071298Y0247229D01*
X0071427Y0247096D01*
X0071553Y0246961D01*
X0071676Y0246822D01*
X0071795Y0246681D01*
X0071910Y0246536D01*
X0072022Y0246389D01*
X0072131Y0246239D01*
X0072235Y0246086D01*
X0072336Y0245931D01*
X0072433Y0245774D01*
X0072527Y0245614D01*
X0072616Y0245452D01*
X0072701Y0245288D01*
X0072782Y0245121D01*
X0072859Y0244953D01*
X0072932Y0244783D01*
X0073001Y0244611D01*
X0073065Y0244438D01*
X0073125Y0244263D01*
X0073181Y0244086D01*
X0073233Y0243909D01*
X0073280Y0243730D01*
X0073323Y0243550D01*
X0073361Y0243369D01*
X0073395Y0243187D01*
X0073424Y0243004D01*
X0073449Y0242821D01*
X0073470Y0242637D01*
X0073486Y0242453D01*
X0073497Y0242268D01*
X0073504Y0242083D01*
X0073506Y0241898D01*
X0073504Y0241713D01*
X0073497Y0241528D01*
X0073486Y0241343D01*
X0073470Y0241159D01*
X0073449Y0240975D01*
X0073424Y0240792D01*
X0073395Y0240609D01*
X0073361Y0240427D01*
X0073323Y0240246D01*
X0073280Y0240066D01*
X0073233Y0239887D01*
X0073181Y0239710D01*
X0073125Y0239533D01*
X0073065Y0239358D01*
X0073001Y0239185D01*
X0072932Y0239013D01*
X0072859Y0238843D01*
X0072782Y0238675D01*
X0072701Y0238508D01*
X0072616Y0238344D01*
X0072527Y0238182D01*
X0072433Y0238022D01*
X0072336Y0237865D01*
X0072235Y0237710D01*
X0072131Y0237557D01*
X0072022Y0237407D01*
X0071910Y0237260D01*
X0071795Y0237115D01*
X0071676Y0236974D01*
X0071553Y0236835D01*
X0071427Y0236700D01*
X0071298Y0236567D01*
X0071165Y0236438D01*
X0071030Y0236312D01*
X0070891Y0236189D01*
X0070750Y0236070D01*
X0070605Y0235955D01*
X0070458Y0235843D01*
X0070308Y0235734D01*
X0070155Y0235630D01*
X0070000Y0235529D01*
X0069843Y0235432D01*
X0069683Y0235338D01*
X0069521Y0235249D01*
X0069357Y0235164D01*
X0069190Y0235083D01*
X0069022Y0235006D01*
X0068852Y0234933D01*
X0068680Y0234864D01*
X0068507Y0234800D01*
X0068332Y0234740D01*
X0068155Y0234684D01*
X0067978Y0234632D01*
X0067799Y0234585D01*
X0067619Y0234542D01*
X0067438Y0234504D01*
X0067256Y0234470D01*
X0067073Y0234441D01*
X0066890Y0234416D01*
X0066706Y0234395D01*
X0066522Y0234379D01*
X0066337Y0234368D01*
X0066152Y0234361D01*
X0065967Y0234359D01*
X0065782Y0234361D01*
X0065597Y0234368D01*
X0065412Y0234379D01*
X0065228Y0234395D01*
X0065044Y0234416D01*
X0064861Y0234441D01*
X0064678Y0234470D01*
X0064496Y0234504D01*
X0064315Y0234542D01*
X0064135Y0234585D01*
X0063956Y0234632D01*
X0063779Y0234684D01*
X0063602Y0234740D01*
X0063427Y0234800D01*
X0063254Y0234864D01*
X0063082Y0234933D01*
X0062912Y0235006D01*
X0062744Y0235083D01*
X0062577Y0235164D01*
X0062413Y0235249D01*
X0062251Y0235338D01*
X0062091Y0235432D01*
X0061934Y0235529D01*
X0061779Y0235630D01*
X0061626Y0235734D01*
X0061476Y0235843D01*
X0061329Y0235955D01*
X0061184Y0236070D01*
X0061043Y0236189D01*
X0060904Y0236312D01*
X0060769Y0236438D01*
X0060636Y0236567D01*
X0060507Y0236700D01*
X0060381Y0236835D01*
X0060258Y0236974D01*
X0060139Y0237115D01*
X0060024Y0237260D01*
X0059912Y0237407D01*
X0059803Y0237557D01*
X0059699Y0237710D01*
X0059598Y0237865D01*
X0059501Y0238022D01*
X0059407Y0238182D01*
X0059318Y0238344D01*
X0059233Y0238508D01*
X0059152Y0238675D01*
X0059075Y0238843D01*
X0059002Y0239013D01*
X0058933Y0239185D01*
X0058869Y0239358D01*
X0058809Y0239533D01*
X0058753Y0239710D01*
X0058701Y0239887D01*
X0058654Y0240066D01*
X0058611Y0240246D01*
X0058573Y0240427D01*
X0058539Y0240609D01*
X0058510Y0240792D01*
X0058485Y0240975D01*
X0058464Y0241159D01*
X0058448Y0241343D01*
X0058437Y0241528D01*
X0058430Y0241713D01*
X0058428Y0241898D01*
X0052140Y0246123D02*
X0048447Y0242430D01*
X0045967Y0239950D01*
X0045337Y0239320D01*
X0041743Y0235725D01*
X0039794Y0237674D02*
X0043451Y0241331D01*
X0045967Y0243847D01*
X0046435Y0244316D01*
X0050191Y0248072D01*
X0038428Y0241898D02*
X0038430Y0242083D01*
X0038437Y0242268D01*
X0038448Y0242453D01*
X0038464Y0242637D01*
X0038485Y0242821D01*
X0038510Y0243004D01*
X0038539Y0243187D01*
X0038573Y0243369D01*
X0038611Y0243550D01*
X0038654Y0243730D01*
X0038701Y0243909D01*
X0038753Y0244086D01*
X0038809Y0244263D01*
X0038869Y0244438D01*
X0038933Y0244611D01*
X0039002Y0244783D01*
X0039075Y0244953D01*
X0039152Y0245121D01*
X0039233Y0245288D01*
X0039318Y0245452D01*
X0039407Y0245614D01*
X0039501Y0245774D01*
X0039598Y0245931D01*
X0039699Y0246086D01*
X0039803Y0246239D01*
X0039912Y0246389D01*
X0040024Y0246536D01*
X0040139Y0246681D01*
X0040258Y0246822D01*
X0040381Y0246961D01*
X0040507Y0247096D01*
X0040636Y0247229D01*
X0040769Y0247358D01*
X0040904Y0247484D01*
X0041043Y0247607D01*
X0041184Y0247726D01*
X0041329Y0247841D01*
X0041476Y0247953D01*
X0041626Y0248062D01*
X0041779Y0248166D01*
X0041934Y0248267D01*
X0042091Y0248364D01*
X0042251Y0248458D01*
X0042413Y0248547D01*
X0042577Y0248632D01*
X0042744Y0248713D01*
X0042912Y0248790D01*
X0043082Y0248863D01*
X0043254Y0248932D01*
X0043427Y0248996D01*
X0043602Y0249056D01*
X0043779Y0249112D01*
X0043956Y0249164D01*
X0044135Y0249211D01*
X0044315Y0249254D01*
X0044496Y0249292D01*
X0044678Y0249326D01*
X0044861Y0249355D01*
X0045044Y0249380D01*
X0045228Y0249401D01*
X0045412Y0249417D01*
X0045597Y0249428D01*
X0045782Y0249435D01*
X0045967Y0249437D01*
X0046152Y0249435D01*
X0046337Y0249428D01*
X0046522Y0249417D01*
X0046706Y0249401D01*
X0046890Y0249380D01*
X0047073Y0249355D01*
X0047256Y0249326D01*
X0047438Y0249292D01*
X0047619Y0249254D01*
X0047799Y0249211D01*
X0047978Y0249164D01*
X0048155Y0249112D01*
X0048332Y0249056D01*
X0048507Y0248996D01*
X0048680Y0248932D01*
X0048852Y0248863D01*
X0049022Y0248790D01*
X0049190Y0248713D01*
X0049357Y0248632D01*
X0049521Y0248547D01*
X0049683Y0248458D01*
X0049843Y0248364D01*
X0050000Y0248267D01*
X0050155Y0248166D01*
X0050308Y0248062D01*
X0050458Y0247953D01*
X0050605Y0247841D01*
X0050750Y0247726D01*
X0050891Y0247607D01*
X0051030Y0247484D01*
X0051165Y0247358D01*
X0051298Y0247229D01*
X0051427Y0247096D01*
X0051553Y0246961D01*
X0051676Y0246822D01*
X0051795Y0246681D01*
X0051910Y0246536D01*
X0052022Y0246389D01*
X0052131Y0246239D01*
X0052235Y0246086D01*
X0052336Y0245931D01*
X0052433Y0245774D01*
X0052527Y0245614D01*
X0052616Y0245452D01*
X0052701Y0245288D01*
X0052782Y0245121D01*
X0052859Y0244953D01*
X0052932Y0244783D01*
X0053001Y0244611D01*
X0053065Y0244438D01*
X0053125Y0244263D01*
X0053181Y0244086D01*
X0053233Y0243909D01*
X0053280Y0243730D01*
X0053323Y0243550D01*
X0053361Y0243369D01*
X0053395Y0243187D01*
X0053424Y0243004D01*
X0053449Y0242821D01*
X0053470Y0242637D01*
X0053486Y0242453D01*
X0053497Y0242268D01*
X0053504Y0242083D01*
X0053506Y0241898D01*
X0053504Y0241713D01*
X0053497Y0241528D01*
X0053486Y0241343D01*
X0053470Y0241159D01*
X0053449Y0240975D01*
X0053424Y0240792D01*
X0053395Y0240609D01*
X0053361Y0240427D01*
X0053323Y0240246D01*
X0053280Y0240066D01*
X0053233Y0239887D01*
X0053181Y0239710D01*
X0053125Y0239533D01*
X0053065Y0239358D01*
X0053001Y0239185D01*
X0052932Y0239013D01*
X0052859Y0238843D01*
X0052782Y0238675D01*
X0052701Y0238508D01*
X0052616Y0238344D01*
X0052527Y0238182D01*
X0052433Y0238022D01*
X0052336Y0237865D01*
X0052235Y0237710D01*
X0052131Y0237557D01*
X0052022Y0237407D01*
X0051910Y0237260D01*
X0051795Y0237115D01*
X0051676Y0236974D01*
X0051553Y0236835D01*
X0051427Y0236700D01*
X0051298Y0236567D01*
X0051165Y0236438D01*
X0051030Y0236312D01*
X0050891Y0236189D01*
X0050750Y0236070D01*
X0050605Y0235955D01*
X0050458Y0235843D01*
X0050308Y0235734D01*
X0050155Y0235630D01*
X0050000Y0235529D01*
X0049843Y0235432D01*
X0049683Y0235338D01*
X0049521Y0235249D01*
X0049357Y0235164D01*
X0049190Y0235083D01*
X0049022Y0235006D01*
X0048852Y0234933D01*
X0048680Y0234864D01*
X0048507Y0234800D01*
X0048332Y0234740D01*
X0048155Y0234684D01*
X0047978Y0234632D01*
X0047799Y0234585D01*
X0047619Y0234542D01*
X0047438Y0234504D01*
X0047256Y0234470D01*
X0047073Y0234441D01*
X0046890Y0234416D01*
X0046706Y0234395D01*
X0046522Y0234379D01*
X0046337Y0234368D01*
X0046152Y0234361D01*
X0045967Y0234359D01*
X0045782Y0234361D01*
X0045597Y0234368D01*
X0045412Y0234379D01*
X0045228Y0234395D01*
X0045044Y0234416D01*
X0044861Y0234441D01*
X0044678Y0234470D01*
X0044496Y0234504D01*
X0044315Y0234542D01*
X0044135Y0234585D01*
X0043956Y0234632D01*
X0043779Y0234684D01*
X0043602Y0234740D01*
X0043427Y0234800D01*
X0043254Y0234864D01*
X0043082Y0234933D01*
X0042912Y0235006D01*
X0042744Y0235083D01*
X0042577Y0235164D01*
X0042413Y0235249D01*
X0042251Y0235338D01*
X0042091Y0235432D01*
X0041934Y0235529D01*
X0041779Y0235630D01*
X0041626Y0235734D01*
X0041476Y0235843D01*
X0041329Y0235955D01*
X0041184Y0236070D01*
X0041043Y0236189D01*
X0040904Y0236312D01*
X0040769Y0236438D01*
X0040636Y0236567D01*
X0040507Y0236700D01*
X0040381Y0236835D01*
X0040258Y0236974D01*
X0040139Y0237115D01*
X0040024Y0237260D01*
X0039912Y0237407D01*
X0039803Y0237557D01*
X0039699Y0237710D01*
X0039598Y0237865D01*
X0039501Y0238022D01*
X0039407Y0238182D01*
X0039318Y0238344D01*
X0039233Y0238508D01*
X0039152Y0238675D01*
X0039075Y0238843D01*
X0039002Y0239013D01*
X0038933Y0239185D01*
X0038869Y0239358D01*
X0038809Y0239533D01*
X0038753Y0239710D01*
X0038701Y0239887D01*
X0038654Y0240066D01*
X0038611Y0240246D01*
X0038573Y0240427D01*
X0038539Y0240609D01*
X0038510Y0240792D01*
X0038485Y0240975D01*
X0038464Y0241159D01*
X0038448Y0241343D01*
X0038437Y0241528D01*
X0038430Y0241713D01*
X0038428Y0241898D01*
X0035967Y0251738D02*
X0075967Y0251738D01*
X0099473Y0230922D02*
X0099473Y0228111D01*
X0100508Y0228111D01*
X0101210Y0228702D01*
X0101717Y0228702D01*
X0101717Y0227036D01*
X0101717Y0225855D01*
X0141717Y0225855D01*
X0141717Y0227036D01*
X0101717Y0227036D01*
X0101717Y0228702D02*
X0101717Y0229485D01*
X0141717Y0229485D01*
X0141717Y0227036D01*
X0141717Y0229485D02*
X0141717Y0232163D01*
X0141717Y0234101D01*
X0141717Y0249837D01*
X0141717Y0251738D01*
X0141717Y0257745D01*
X0101717Y0257745D01*
X0101717Y0251738D01*
X0101717Y0249837D01*
X0101717Y0234101D01*
X0101717Y0232163D01*
X0141717Y0232163D01*
X0131717Y0239950D02*
X0134197Y0242430D01*
X0137890Y0246123D01*
X0135941Y0248072D02*
X0132185Y0244316D01*
X0131717Y0243847D01*
X0129201Y0241331D01*
X0125544Y0237674D01*
X0127493Y0235725D02*
X0131087Y0239320D01*
X0131717Y0239950D01*
X0131087Y0239320D02*
X0130990Y0239346D01*
X0130895Y0239377D01*
X0130800Y0239411D01*
X0130707Y0239449D01*
X0130616Y0239490D01*
X0130526Y0239535D01*
X0130438Y0239584D01*
X0130352Y0239635D01*
X0130268Y0239691D01*
X0130186Y0239749D01*
X0130107Y0239811D01*
X0130030Y0239875D01*
X0129956Y0239943D01*
X0129885Y0240014D01*
X0129816Y0240087D01*
X0129750Y0240163D01*
X0129688Y0240241D01*
X0129628Y0240322D01*
X0129572Y0240405D01*
X0129519Y0240490D01*
X0129469Y0240578D01*
X0129423Y0240667D01*
X0129380Y0240758D01*
X0129341Y0240850D01*
X0129305Y0240944D01*
X0129274Y0241039D01*
X0129246Y0241136D01*
X0129222Y0241233D01*
X0129201Y0241332D01*
X0132185Y0244316D02*
X0132284Y0244295D01*
X0132381Y0244271D01*
X0132478Y0244243D01*
X0132573Y0244212D01*
X0132667Y0244176D01*
X0132759Y0244137D01*
X0132850Y0244094D01*
X0132939Y0244048D01*
X0133027Y0243998D01*
X0133112Y0243945D01*
X0133195Y0243889D01*
X0133276Y0243829D01*
X0133354Y0243767D01*
X0133430Y0243701D01*
X0133503Y0243632D01*
X0133574Y0243561D01*
X0133642Y0243487D01*
X0133706Y0243410D01*
X0133768Y0243331D01*
X0133826Y0243249D01*
X0133882Y0243165D01*
X0133933Y0243079D01*
X0133982Y0242991D01*
X0134027Y0242901D01*
X0134068Y0242810D01*
X0134106Y0242717D01*
X0134140Y0242622D01*
X0134171Y0242527D01*
X0134197Y0242430D01*
X0124178Y0241898D02*
X0124180Y0242083D01*
X0124187Y0242268D01*
X0124198Y0242453D01*
X0124214Y0242637D01*
X0124235Y0242821D01*
X0124260Y0243004D01*
X0124289Y0243187D01*
X0124323Y0243369D01*
X0124361Y0243550D01*
X0124404Y0243730D01*
X0124451Y0243909D01*
X0124503Y0244086D01*
X0124559Y0244263D01*
X0124619Y0244438D01*
X0124683Y0244611D01*
X0124752Y0244783D01*
X0124825Y0244953D01*
X0124902Y0245121D01*
X0124983Y0245288D01*
X0125068Y0245452D01*
X0125157Y0245614D01*
X0125251Y0245774D01*
X0125348Y0245931D01*
X0125449Y0246086D01*
X0125553Y0246239D01*
X0125662Y0246389D01*
X0125774Y0246536D01*
X0125889Y0246681D01*
X0126008Y0246822D01*
X0126131Y0246961D01*
X0126257Y0247096D01*
X0126386Y0247229D01*
X0126519Y0247358D01*
X0126654Y0247484D01*
X0126793Y0247607D01*
X0126934Y0247726D01*
X0127079Y0247841D01*
X0127226Y0247953D01*
X0127376Y0248062D01*
X0127529Y0248166D01*
X0127684Y0248267D01*
X0127841Y0248364D01*
X0128001Y0248458D01*
X0128163Y0248547D01*
X0128327Y0248632D01*
X0128494Y0248713D01*
X0128662Y0248790D01*
X0128832Y0248863D01*
X0129004Y0248932D01*
X0129177Y0248996D01*
X0129352Y0249056D01*
X0129529Y0249112D01*
X0129706Y0249164D01*
X0129885Y0249211D01*
X0130065Y0249254D01*
X0130246Y0249292D01*
X0130428Y0249326D01*
X0130611Y0249355D01*
X0130794Y0249380D01*
X0130978Y0249401D01*
X0131162Y0249417D01*
X0131347Y0249428D01*
X0131532Y0249435D01*
X0131717Y0249437D01*
X0131902Y0249435D01*
X0132087Y0249428D01*
X0132272Y0249417D01*
X0132456Y0249401D01*
X0132640Y0249380D01*
X0132823Y0249355D01*
X0133006Y0249326D01*
X0133188Y0249292D01*
X0133369Y0249254D01*
X0133549Y0249211D01*
X0133728Y0249164D01*
X0133905Y0249112D01*
X0134082Y0249056D01*
X0134257Y0248996D01*
X0134430Y0248932D01*
X0134602Y0248863D01*
X0134772Y0248790D01*
X0134940Y0248713D01*
X0135107Y0248632D01*
X0135271Y0248547D01*
X0135433Y0248458D01*
X0135593Y0248364D01*
X0135750Y0248267D01*
X0135905Y0248166D01*
X0136058Y0248062D01*
X0136208Y0247953D01*
X0136355Y0247841D01*
X0136500Y0247726D01*
X0136641Y0247607D01*
X0136780Y0247484D01*
X0136915Y0247358D01*
X0137048Y0247229D01*
X0137177Y0247096D01*
X0137303Y0246961D01*
X0137426Y0246822D01*
X0137545Y0246681D01*
X0137660Y0246536D01*
X0137772Y0246389D01*
X0137881Y0246239D01*
X0137985Y0246086D01*
X0138086Y0245931D01*
X0138183Y0245774D01*
X0138277Y0245614D01*
X0138366Y0245452D01*
X0138451Y0245288D01*
X0138532Y0245121D01*
X0138609Y0244953D01*
X0138682Y0244783D01*
X0138751Y0244611D01*
X0138815Y0244438D01*
X0138875Y0244263D01*
X0138931Y0244086D01*
X0138983Y0243909D01*
X0139030Y0243730D01*
X0139073Y0243550D01*
X0139111Y0243369D01*
X0139145Y0243187D01*
X0139174Y0243004D01*
X0139199Y0242821D01*
X0139220Y0242637D01*
X0139236Y0242453D01*
X0139247Y0242268D01*
X0139254Y0242083D01*
X0139256Y0241898D01*
X0139254Y0241713D01*
X0139247Y0241528D01*
X0139236Y0241343D01*
X0139220Y0241159D01*
X0139199Y0240975D01*
X0139174Y0240792D01*
X0139145Y0240609D01*
X0139111Y0240427D01*
X0139073Y0240246D01*
X0139030Y0240066D01*
X0138983Y0239887D01*
X0138931Y0239710D01*
X0138875Y0239533D01*
X0138815Y0239358D01*
X0138751Y0239185D01*
X0138682Y0239013D01*
X0138609Y0238843D01*
X0138532Y0238675D01*
X0138451Y0238508D01*
X0138366Y0238344D01*
X0138277Y0238182D01*
X0138183Y0238022D01*
X0138086Y0237865D01*
X0137985Y0237710D01*
X0137881Y0237557D01*
X0137772Y0237407D01*
X0137660Y0237260D01*
X0137545Y0237115D01*
X0137426Y0236974D01*
X0137303Y0236835D01*
X0137177Y0236700D01*
X0137048Y0236567D01*
X0136915Y0236438D01*
X0136780Y0236312D01*
X0136641Y0236189D01*
X0136500Y0236070D01*
X0136355Y0235955D01*
X0136208Y0235843D01*
X0136058Y0235734D01*
X0135905Y0235630D01*
X0135750Y0235529D01*
X0135593Y0235432D01*
X0135433Y0235338D01*
X0135271Y0235249D01*
X0135107Y0235164D01*
X0134940Y0235083D01*
X0134772Y0235006D01*
X0134602Y0234933D01*
X0134430Y0234864D01*
X0134257Y0234800D01*
X0134082Y0234740D01*
X0133905Y0234684D01*
X0133728Y0234632D01*
X0133549Y0234585D01*
X0133369Y0234542D01*
X0133188Y0234504D01*
X0133006Y0234470D01*
X0132823Y0234441D01*
X0132640Y0234416D01*
X0132456Y0234395D01*
X0132272Y0234379D01*
X0132087Y0234368D01*
X0131902Y0234361D01*
X0131717Y0234359D01*
X0131532Y0234361D01*
X0131347Y0234368D01*
X0131162Y0234379D01*
X0130978Y0234395D01*
X0130794Y0234416D01*
X0130611Y0234441D01*
X0130428Y0234470D01*
X0130246Y0234504D01*
X0130065Y0234542D01*
X0129885Y0234585D01*
X0129706Y0234632D01*
X0129529Y0234684D01*
X0129352Y0234740D01*
X0129177Y0234800D01*
X0129004Y0234864D01*
X0128832Y0234933D01*
X0128662Y0235006D01*
X0128494Y0235083D01*
X0128327Y0235164D01*
X0128163Y0235249D01*
X0128001Y0235338D01*
X0127841Y0235432D01*
X0127684Y0235529D01*
X0127529Y0235630D01*
X0127376Y0235734D01*
X0127226Y0235843D01*
X0127079Y0235955D01*
X0126934Y0236070D01*
X0126793Y0236189D01*
X0126654Y0236312D01*
X0126519Y0236438D01*
X0126386Y0236567D01*
X0126257Y0236700D01*
X0126131Y0236835D01*
X0126008Y0236974D01*
X0125889Y0237115D01*
X0125774Y0237260D01*
X0125662Y0237407D01*
X0125553Y0237557D01*
X0125449Y0237710D01*
X0125348Y0237865D01*
X0125251Y0238022D01*
X0125157Y0238182D01*
X0125068Y0238344D01*
X0124983Y0238508D01*
X0124902Y0238675D01*
X0124825Y0238843D01*
X0124752Y0239013D01*
X0124683Y0239185D01*
X0124619Y0239358D01*
X0124559Y0239533D01*
X0124503Y0239710D01*
X0124451Y0239887D01*
X0124404Y0240066D01*
X0124361Y0240246D01*
X0124323Y0240427D01*
X0124289Y0240609D01*
X0124260Y0240792D01*
X0124235Y0240975D01*
X0124214Y0241159D01*
X0124198Y0241343D01*
X0124187Y0241528D01*
X0124180Y0241713D01*
X0124178Y0241898D01*
X0117890Y0246123D02*
X0114197Y0242430D01*
X0111717Y0239950D01*
X0111087Y0239320D01*
X0107493Y0235725D01*
X0105544Y0237674D02*
X0109201Y0241331D01*
X0111717Y0243847D01*
X0112185Y0244316D01*
X0115941Y0248072D01*
X0104178Y0241898D02*
X0104180Y0242083D01*
X0104187Y0242268D01*
X0104198Y0242453D01*
X0104214Y0242637D01*
X0104235Y0242821D01*
X0104260Y0243004D01*
X0104289Y0243187D01*
X0104323Y0243369D01*
X0104361Y0243550D01*
X0104404Y0243730D01*
X0104451Y0243909D01*
X0104503Y0244086D01*
X0104559Y0244263D01*
X0104619Y0244438D01*
X0104683Y0244611D01*
X0104752Y0244783D01*
X0104825Y0244953D01*
X0104902Y0245121D01*
X0104983Y0245288D01*
X0105068Y0245452D01*
X0105157Y0245614D01*
X0105251Y0245774D01*
X0105348Y0245931D01*
X0105449Y0246086D01*
X0105553Y0246239D01*
X0105662Y0246389D01*
X0105774Y0246536D01*
X0105889Y0246681D01*
X0106008Y0246822D01*
X0106131Y0246961D01*
X0106257Y0247096D01*
X0106386Y0247229D01*
X0106519Y0247358D01*
X0106654Y0247484D01*
X0106793Y0247607D01*
X0106934Y0247726D01*
X0107079Y0247841D01*
X0107226Y0247953D01*
X0107376Y0248062D01*
X0107529Y0248166D01*
X0107684Y0248267D01*
X0107841Y0248364D01*
X0108001Y0248458D01*
X0108163Y0248547D01*
X0108327Y0248632D01*
X0108494Y0248713D01*
X0108662Y0248790D01*
X0108832Y0248863D01*
X0109004Y0248932D01*
X0109177Y0248996D01*
X0109352Y0249056D01*
X0109529Y0249112D01*
X0109706Y0249164D01*
X0109885Y0249211D01*
X0110065Y0249254D01*
X0110246Y0249292D01*
X0110428Y0249326D01*
X0110611Y0249355D01*
X0110794Y0249380D01*
X0110978Y0249401D01*
X0111162Y0249417D01*
X0111347Y0249428D01*
X0111532Y0249435D01*
X0111717Y0249437D01*
X0111902Y0249435D01*
X0112087Y0249428D01*
X0112272Y0249417D01*
X0112456Y0249401D01*
X0112640Y0249380D01*
X0112823Y0249355D01*
X0113006Y0249326D01*
X0113188Y0249292D01*
X0113369Y0249254D01*
X0113549Y0249211D01*
X0113728Y0249164D01*
X0113905Y0249112D01*
X0114082Y0249056D01*
X0114257Y0248996D01*
X0114430Y0248932D01*
X0114602Y0248863D01*
X0114772Y0248790D01*
X0114940Y0248713D01*
X0115107Y0248632D01*
X0115271Y0248547D01*
X0115433Y0248458D01*
X0115593Y0248364D01*
X0115750Y0248267D01*
X0115905Y0248166D01*
X0116058Y0248062D01*
X0116208Y0247953D01*
X0116355Y0247841D01*
X0116500Y0247726D01*
X0116641Y0247607D01*
X0116780Y0247484D01*
X0116915Y0247358D01*
X0117048Y0247229D01*
X0117177Y0247096D01*
X0117303Y0246961D01*
X0117426Y0246822D01*
X0117545Y0246681D01*
X0117660Y0246536D01*
X0117772Y0246389D01*
X0117881Y0246239D01*
X0117985Y0246086D01*
X0118086Y0245931D01*
X0118183Y0245774D01*
X0118277Y0245614D01*
X0118366Y0245452D01*
X0118451Y0245288D01*
X0118532Y0245121D01*
X0118609Y0244953D01*
X0118682Y0244783D01*
X0118751Y0244611D01*
X0118815Y0244438D01*
X0118875Y0244263D01*
X0118931Y0244086D01*
X0118983Y0243909D01*
X0119030Y0243730D01*
X0119073Y0243550D01*
X0119111Y0243369D01*
X0119145Y0243187D01*
X0119174Y0243004D01*
X0119199Y0242821D01*
X0119220Y0242637D01*
X0119236Y0242453D01*
X0119247Y0242268D01*
X0119254Y0242083D01*
X0119256Y0241898D01*
X0119254Y0241713D01*
X0119247Y0241528D01*
X0119236Y0241343D01*
X0119220Y0241159D01*
X0119199Y0240975D01*
X0119174Y0240792D01*
X0119145Y0240609D01*
X0119111Y0240427D01*
X0119073Y0240246D01*
X0119030Y0240066D01*
X0118983Y0239887D01*
X0118931Y0239710D01*
X0118875Y0239533D01*
X0118815Y0239358D01*
X0118751Y0239185D01*
X0118682Y0239013D01*
X0118609Y0238843D01*
X0118532Y0238675D01*
X0118451Y0238508D01*
X0118366Y0238344D01*
X0118277Y0238182D01*
X0118183Y0238022D01*
X0118086Y0237865D01*
X0117985Y0237710D01*
X0117881Y0237557D01*
X0117772Y0237407D01*
X0117660Y0237260D01*
X0117545Y0237115D01*
X0117426Y0236974D01*
X0117303Y0236835D01*
X0117177Y0236700D01*
X0117048Y0236567D01*
X0116915Y0236438D01*
X0116780Y0236312D01*
X0116641Y0236189D01*
X0116500Y0236070D01*
X0116355Y0235955D01*
X0116208Y0235843D01*
X0116058Y0235734D01*
X0115905Y0235630D01*
X0115750Y0235529D01*
X0115593Y0235432D01*
X0115433Y0235338D01*
X0115271Y0235249D01*
X0115107Y0235164D01*
X0114940Y0235083D01*
X0114772Y0235006D01*
X0114602Y0234933D01*
X0114430Y0234864D01*
X0114257Y0234800D01*
X0114082Y0234740D01*
X0113905Y0234684D01*
X0113728Y0234632D01*
X0113549Y0234585D01*
X0113369Y0234542D01*
X0113188Y0234504D01*
X0113006Y0234470D01*
X0112823Y0234441D01*
X0112640Y0234416D01*
X0112456Y0234395D01*
X0112272Y0234379D01*
X0112087Y0234368D01*
X0111902Y0234361D01*
X0111717Y0234359D01*
X0111532Y0234361D01*
X0111347Y0234368D01*
X0111162Y0234379D01*
X0110978Y0234395D01*
X0110794Y0234416D01*
X0110611Y0234441D01*
X0110428Y0234470D01*
X0110246Y0234504D01*
X0110065Y0234542D01*
X0109885Y0234585D01*
X0109706Y0234632D01*
X0109529Y0234684D01*
X0109352Y0234740D01*
X0109177Y0234800D01*
X0109004Y0234864D01*
X0108832Y0234933D01*
X0108662Y0235006D01*
X0108494Y0235083D01*
X0108327Y0235164D01*
X0108163Y0235249D01*
X0108001Y0235338D01*
X0107841Y0235432D01*
X0107684Y0235529D01*
X0107529Y0235630D01*
X0107376Y0235734D01*
X0107226Y0235843D01*
X0107079Y0235955D01*
X0106934Y0236070D01*
X0106793Y0236189D01*
X0106654Y0236312D01*
X0106519Y0236438D01*
X0106386Y0236567D01*
X0106257Y0236700D01*
X0106131Y0236835D01*
X0106008Y0236974D01*
X0105889Y0237115D01*
X0105774Y0237260D01*
X0105662Y0237407D01*
X0105553Y0237557D01*
X0105449Y0237710D01*
X0105348Y0237865D01*
X0105251Y0238022D01*
X0105157Y0238182D01*
X0105068Y0238344D01*
X0104983Y0238508D01*
X0104902Y0238675D01*
X0104825Y0238843D01*
X0104752Y0239013D01*
X0104683Y0239185D01*
X0104619Y0239358D01*
X0104559Y0239533D01*
X0104503Y0239710D01*
X0104451Y0239887D01*
X0104404Y0240066D01*
X0104361Y0240246D01*
X0104323Y0240427D01*
X0104289Y0240609D01*
X0104260Y0240792D01*
X0104235Y0240975D01*
X0104214Y0241159D01*
X0104198Y0241343D01*
X0104187Y0241528D01*
X0104180Y0241713D01*
X0104178Y0241898D01*
X0101717Y0251738D02*
X0141717Y0251738D01*
X0114197Y0242430D02*
X0114171Y0242527D01*
X0114140Y0242622D01*
X0114106Y0242717D01*
X0114068Y0242810D01*
X0114027Y0242901D01*
X0113982Y0242991D01*
X0113933Y0243079D01*
X0113882Y0243165D01*
X0113826Y0243249D01*
X0113768Y0243331D01*
X0113706Y0243410D01*
X0113642Y0243487D01*
X0113574Y0243561D01*
X0113503Y0243632D01*
X0113430Y0243701D01*
X0113354Y0243767D01*
X0113276Y0243829D01*
X0113195Y0243889D01*
X0113112Y0243945D01*
X0113027Y0243998D01*
X0112939Y0244048D01*
X0112850Y0244094D01*
X0112759Y0244137D01*
X0112667Y0244176D01*
X0112573Y0244212D01*
X0112478Y0244243D01*
X0112381Y0244271D01*
X0112284Y0244295D01*
X0112185Y0244316D01*
X0109201Y0241332D02*
X0109222Y0241233D01*
X0109246Y0241136D01*
X0109274Y0241039D01*
X0109305Y0240944D01*
X0109341Y0240850D01*
X0109380Y0240758D01*
X0109423Y0240667D01*
X0109469Y0240578D01*
X0109519Y0240490D01*
X0109572Y0240405D01*
X0109628Y0240322D01*
X0109688Y0240241D01*
X0109750Y0240163D01*
X0109816Y0240087D01*
X0109885Y0240014D01*
X0109956Y0239943D01*
X0110030Y0239875D01*
X0110107Y0239811D01*
X0110186Y0239749D01*
X0110268Y0239691D01*
X0110352Y0239635D01*
X0110438Y0239584D01*
X0110526Y0239535D01*
X0110616Y0239490D01*
X0110707Y0239449D01*
X0110800Y0239411D01*
X0110895Y0239377D01*
X0110990Y0239346D01*
X0111087Y0239320D01*
X0101717Y0232163D02*
X0101717Y0230331D01*
X0101717Y0229485D01*
X0101717Y0230331D02*
X0101210Y0230331D01*
X0100508Y0230922D01*
X0099473Y0230922D01*
X0048447Y0242430D02*
X0048421Y0242527D01*
X0048390Y0242622D01*
X0048356Y0242717D01*
X0048318Y0242810D01*
X0048277Y0242901D01*
X0048232Y0242991D01*
X0048183Y0243079D01*
X0048132Y0243165D01*
X0048076Y0243249D01*
X0048018Y0243331D01*
X0047956Y0243410D01*
X0047892Y0243487D01*
X0047824Y0243561D01*
X0047753Y0243632D01*
X0047680Y0243701D01*
X0047604Y0243767D01*
X0047526Y0243829D01*
X0047445Y0243889D01*
X0047362Y0243945D01*
X0047277Y0243998D01*
X0047189Y0244048D01*
X0047100Y0244094D01*
X0047009Y0244137D01*
X0046917Y0244176D01*
X0046823Y0244212D01*
X0046728Y0244243D01*
X0046631Y0244271D01*
X0046534Y0244295D01*
X0046435Y0244316D01*
X0043451Y0241332D02*
X0043472Y0241233D01*
X0043496Y0241136D01*
X0043524Y0241039D01*
X0043555Y0240944D01*
X0043591Y0240850D01*
X0043630Y0240758D01*
X0043673Y0240667D01*
X0043719Y0240578D01*
X0043769Y0240490D01*
X0043822Y0240405D01*
X0043878Y0240322D01*
X0043938Y0240241D01*
X0044000Y0240163D01*
X0044066Y0240087D01*
X0044135Y0240014D01*
X0044206Y0239943D01*
X0044280Y0239875D01*
X0044357Y0239811D01*
X0044436Y0239749D01*
X0044518Y0239691D01*
X0044602Y0239635D01*
X0044688Y0239584D01*
X0044776Y0239535D01*
X0044866Y0239490D01*
X0044957Y0239449D01*
X0045050Y0239411D01*
X0045145Y0239377D01*
X0045240Y0239346D01*
X0045337Y0239320D01*
X0035967Y0232163D02*
X0035967Y0230331D01*
X0035967Y0229485D01*
X0035967Y0228702D02*
X0035460Y0228702D01*
X0034758Y0228111D01*
X0033723Y0228111D01*
X0033723Y0230922D01*
X0034758Y0230922D01*
X0035460Y0230331D01*
X0035967Y0230331D01*
X0032717Y0040645D02*
X0032717Y0034638D01*
X0032717Y0032737D01*
X0032717Y0017001D01*
X0032717Y0015063D01*
X0072717Y0015063D01*
X0072717Y0012385D01*
X0072717Y0009936D01*
X0072717Y0008755D01*
X0032717Y0008755D01*
X0032717Y0009936D01*
X0072717Y0009936D01*
X0072717Y0012385D02*
X0032717Y0012385D01*
X0032717Y0011602D01*
X0032717Y0009936D01*
X0031508Y0011011D02*
X0030473Y0011011D01*
X0030473Y0013822D01*
X0031508Y0013822D01*
X0032210Y0013231D01*
X0032717Y0013231D01*
X0032717Y0015063D01*
X0032717Y0013231D02*
X0032717Y0012385D01*
X0032717Y0011602D02*
X0032210Y0011602D01*
X0031508Y0011011D01*
X0038493Y0018625D02*
X0042087Y0022220D01*
X0042717Y0022850D01*
X0045197Y0025330D01*
X0048890Y0029023D01*
X0046941Y0030972D02*
X0043185Y0027216D01*
X0042717Y0026747D01*
X0040201Y0024231D01*
X0036544Y0020574D01*
X0040201Y0024232D02*
X0040222Y0024133D01*
X0040246Y0024036D01*
X0040274Y0023939D01*
X0040305Y0023844D01*
X0040341Y0023750D01*
X0040380Y0023658D01*
X0040423Y0023567D01*
X0040469Y0023478D01*
X0040519Y0023390D01*
X0040572Y0023305D01*
X0040628Y0023222D01*
X0040688Y0023141D01*
X0040750Y0023063D01*
X0040816Y0022987D01*
X0040885Y0022914D01*
X0040956Y0022843D01*
X0041030Y0022775D01*
X0041107Y0022711D01*
X0041186Y0022649D01*
X0041268Y0022591D01*
X0041352Y0022535D01*
X0041438Y0022484D01*
X0041526Y0022435D01*
X0041616Y0022390D01*
X0041707Y0022349D01*
X0041800Y0022311D01*
X0041895Y0022277D01*
X0041990Y0022246D01*
X0042087Y0022220D01*
X0045197Y0025330D02*
X0045171Y0025427D01*
X0045140Y0025522D01*
X0045106Y0025617D01*
X0045068Y0025710D01*
X0045027Y0025801D01*
X0044982Y0025891D01*
X0044933Y0025979D01*
X0044882Y0026065D01*
X0044826Y0026149D01*
X0044768Y0026231D01*
X0044706Y0026310D01*
X0044642Y0026387D01*
X0044574Y0026461D01*
X0044503Y0026532D01*
X0044430Y0026601D01*
X0044354Y0026667D01*
X0044276Y0026729D01*
X0044195Y0026789D01*
X0044112Y0026845D01*
X0044027Y0026898D01*
X0043939Y0026948D01*
X0043850Y0026994D01*
X0043759Y0027037D01*
X0043667Y0027076D01*
X0043573Y0027112D01*
X0043478Y0027143D01*
X0043381Y0027171D01*
X0043284Y0027195D01*
X0043185Y0027216D01*
X0035178Y0024798D02*
X0035180Y0024983D01*
X0035187Y0025168D01*
X0035198Y0025353D01*
X0035214Y0025537D01*
X0035235Y0025721D01*
X0035260Y0025904D01*
X0035289Y0026087D01*
X0035323Y0026269D01*
X0035361Y0026450D01*
X0035404Y0026630D01*
X0035451Y0026809D01*
X0035503Y0026986D01*
X0035559Y0027163D01*
X0035619Y0027338D01*
X0035683Y0027511D01*
X0035752Y0027683D01*
X0035825Y0027853D01*
X0035902Y0028021D01*
X0035983Y0028188D01*
X0036068Y0028352D01*
X0036157Y0028514D01*
X0036251Y0028674D01*
X0036348Y0028831D01*
X0036449Y0028986D01*
X0036553Y0029139D01*
X0036662Y0029289D01*
X0036774Y0029436D01*
X0036889Y0029581D01*
X0037008Y0029722D01*
X0037131Y0029861D01*
X0037257Y0029996D01*
X0037386Y0030129D01*
X0037519Y0030258D01*
X0037654Y0030384D01*
X0037793Y0030507D01*
X0037934Y0030626D01*
X0038079Y0030741D01*
X0038226Y0030853D01*
X0038376Y0030962D01*
X0038529Y0031066D01*
X0038684Y0031167D01*
X0038841Y0031264D01*
X0039001Y0031358D01*
X0039163Y0031447D01*
X0039327Y0031532D01*
X0039494Y0031613D01*
X0039662Y0031690D01*
X0039832Y0031763D01*
X0040004Y0031832D01*
X0040177Y0031896D01*
X0040352Y0031956D01*
X0040529Y0032012D01*
X0040706Y0032064D01*
X0040885Y0032111D01*
X0041065Y0032154D01*
X0041246Y0032192D01*
X0041428Y0032226D01*
X0041611Y0032255D01*
X0041794Y0032280D01*
X0041978Y0032301D01*
X0042162Y0032317D01*
X0042347Y0032328D01*
X0042532Y0032335D01*
X0042717Y0032337D01*
X0042902Y0032335D01*
X0043087Y0032328D01*
X0043272Y0032317D01*
X0043456Y0032301D01*
X0043640Y0032280D01*
X0043823Y0032255D01*
X0044006Y0032226D01*
X0044188Y0032192D01*
X0044369Y0032154D01*
X0044549Y0032111D01*
X0044728Y0032064D01*
X0044905Y0032012D01*
X0045082Y0031956D01*
X0045257Y0031896D01*
X0045430Y0031832D01*
X0045602Y0031763D01*
X0045772Y0031690D01*
X0045940Y0031613D01*
X0046107Y0031532D01*
X0046271Y0031447D01*
X0046433Y0031358D01*
X0046593Y0031264D01*
X0046750Y0031167D01*
X0046905Y0031066D01*
X0047058Y0030962D01*
X0047208Y0030853D01*
X0047355Y0030741D01*
X0047500Y0030626D01*
X0047641Y0030507D01*
X0047780Y0030384D01*
X0047915Y0030258D01*
X0048048Y0030129D01*
X0048177Y0029996D01*
X0048303Y0029861D01*
X0048426Y0029722D01*
X0048545Y0029581D01*
X0048660Y0029436D01*
X0048772Y0029289D01*
X0048881Y0029139D01*
X0048985Y0028986D01*
X0049086Y0028831D01*
X0049183Y0028674D01*
X0049277Y0028514D01*
X0049366Y0028352D01*
X0049451Y0028188D01*
X0049532Y0028021D01*
X0049609Y0027853D01*
X0049682Y0027683D01*
X0049751Y0027511D01*
X0049815Y0027338D01*
X0049875Y0027163D01*
X0049931Y0026986D01*
X0049983Y0026809D01*
X0050030Y0026630D01*
X0050073Y0026450D01*
X0050111Y0026269D01*
X0050145Y0026087D01*
X0050174Y0025904D01*
X0050199Y0025721D01*
X0050220Y0025537D01*
X0050236Y0025353D01*
X0050247Y0025168D01*
X0050254Y0024983D01*
X0050256Y0024798D01*
X0050254Y0024613D01*
X0050247Y0024428D01*
X0050236Y0024243D01*
X0050220Y0024059D01*
X0050199Y0023875D01*
X0050174Y0023692D01*
X0050145Y0023509D01*
X0050111Y0023327D01*
X0050073Y0023146D01*
X0050030Y0022966D01*
X0049983Y0022787D01*
X0049931Y0022610D01*
X0049875Y0022433D01*
X0049815Y0022258D01*
X0049751Y0022085D01*
X0049682Y0021913D01*
X0049609Y0021743D01*
X0049532Y0021575D01*
X0049451Y0021408D01*
X0049366Y0021244D01*
X0049277Y0021082D01*
X0049183Y0020922D01*
X0049086Y0020765D01*
X0048985Y0020610D01*
X0048881Y0020457D01*
X0048772Y0020307D01*
X0048660Y0020160D01*
X0048545Y0020015D01*
X0048426Y0019874D01*
X0048303Y0019735D01*
X0048177Y0019600D01*
X0048048Y0019467D01*
X0047915Y0019338D01*
X0047780Y0019212D01*
X0047641Y0019089D01*
X0047500Y0018970D01*
X0047355Y0018855D01*
X0047208Y0018743D01*
X0047058Y0018634D01*
X0046905Y0018530D01*
X0046750Y0018429D01*
X0046593Y0018332D01*
X0046433Y0018238D01*
X0046271Y0018149D01*
X0046107Y0018064D01*
X0045940Y0017983D01*
X0045772Y0017906D01*
X0045602Y0017833D01*
X0045430Y0017764D01*
X0045257Y0017700D01*
X0045082Y0017640D01*
X0044905Y0017584D01*
X0044728Y0017532D01*
X0044549Y0017485D01*
X0044369Y0017442D01*
X0044188Y0017404D01*
X0044006Y0017370D01*
X0043823Y0017341D01*
X0043640Y0017316D01*
X0043456Y0017295D01*
X0043272Y0017279D01*
X0043087Y0017268D01*
X0042902Y0017261D01*
X0042717Y0017259D01*
X0042532Y0017261D01*
X0042347Y0017268D01*
X0042162Y0017279D01*
X0041978Y0017295D01*
X0041794Y0017316D01*
X0041611Y0017341D01*
X0041428Y0017370D01*
X0041246Y0017404D01*
X0041065Y0017442D01*
X0040885Y0017485D01*
X0040706Y0017532D01*
X0040529Y0017584D01*
X0040352Y0017640D01*
X0040177Y0017700D01*
X0040004Y0017764D01*
X0039832Y0017833D01*
X0039662Y0017906D01*
X0039494Y0017983D01*
X0039327Y0018064D01*
X0039163Y0018149D01*
X0039001Y0018238D01*
X0038841Y0018332D01*
X0038684Y0018429D01*
X0038529Y0018530D01*
X0038376Y0018634D01*
X0038226Y0018743D01*
X0038079Y0018855D01*
X0037934Y0018970D01*
X0037793Y0019089D01*
X0037654Y0019212D01*
X0037519Y0019338D01*
X0037386Y0019467D01*
X0037257Y0019600D01*
X0037131Y0019735D01*
X0037008Y0019874D01*
X0036889Y0020015D01*
X0036774Y0020160D01*
X0036662Y0020307D01*
X0036553Y0020457D01*
X0036449Y0020610D01*
X0036348Y0020765D01*
X0036251Y0020922D01*
X0036157Y0021082D01*
X0036068Y0021244D01*
X0035983Y0021408D01*
X0035902Y0021575D01*
X0035825Y0021743D01*
X0035752Y0021913D01*
X0035683Y0022085D01*
X0035619Y0022258D01*
X0035559Y0022433D01*
X0035503Y0022610D01*
X0035451Y0022787D01*
X0035404Y0022966D01*
X0035361Y0023146D01*
X0035323Y0023327D01*
X0035289Y0023509D01*
X0035260Y0023692D01*
X0035235Y0023875D01*
X0035214Y0024059D01*
X0035198Y0024243D01*
X0035187Y0024428D01*
X0035180Y0024613D01*
X0035178Y0024798D01*
X0032717Y0034638D02*
X0072717Y0034638D01*
X0072717Y0040645D01*
X0032717Y0040645D01*
X0056544Y0020574D02*
X0060201Y0024231D01*
X0062717Y0026747D01*
X0063185Y0027216D01*
X0066941Y0030972D01*
X0068890Y0029023D02*
X0065197Y0025330D01*
X0062717Y0022850D01*
X0062087Y0022220D01*
X0058493Y0018625D01*
X0062087Y0022220D02*
X0061990Y0022246D01*
X0061895Y0022277D01*
X0061800Y0022311D01*
X0061707Y0022349D01*
X0061616Y0022390D01*
X0061526Y0022435D01*
X0061438Y0022484D01*
X0061352Y0022535D01*
X0061268Y0022591D01*
X0061186Y0022649D01*
X0061107Y0022711D01*
X0061030Y0022775D01*
X0060956Y0022843D01*
X0060885Y0022914D01*
X0060816Y0022987D01*
X0060750Y0023063D01*
X0060688Y0023141D01*
X0060628Y0023222D01*
X0060572Y0023305D01*
X0060519Y0023390D01*
X0060469Y0023478D01*
X0060423Y0023567D01*
X0060380Y0023658D01*
X0060341Y0023750D01*
X0060305Y0023844D01*
X0060274Y0023939D01*
X0060246Y0024036D01*
X0060222Y0024133D01*
X0060201Y0024232D01*
X0063185Y0027216D02*
X0063284Y0027195D01*
X0063381Y0027171D01*
X0063478Y0027143D01*
X0063573Y0027112D01*
X0063667Y0027076D01*
X0063759Y0027037D01*
X0063850Y0026994D01*
X0063939Y0026948D01*
X0064027Y0026898D01*
X0064112Y0026845D01*
X0064195Y0026789D01*
X0064276Y0026729D01*
X0064354Y0026667D01*
X0064430Y0026601D01*
X0064503Y0026532D01*
X0064574Y0026461D01*
X0064642Y0026387D01*
X0064706Y0026310D01*
X0064768Y0026231D01*
X0064826Y0026149D01*
X0064882Y0026065D01*
X0064933Y0025979D01*
X0064982Y0025891D01*
X0065027Y0025801D01*
X0065068Y0025710D01*
X0065106Y0025617D01*
X0065140Y0025522D01*
X0065171Y0025427D01*
X0065197Y0025330D01*
X0055178Y0024798D02*
X0055180Y0024983D01*
X0055187Y0025168D01*
X0055198Y0025353D01*
X0055214Y0025537D01*
X0055235Y0025721D01*
X0055260Y0025904D01*
X0055289Y0026087D01*
X0055323Y0026269D01*
X0055361Y0026450D01*
X0055404Y0026630D01*
X0055451Y0026809D01*
X0055503Y0026986D01*
X0055559Y0027163D01*
X0055619Y0027338D01*
X0055683Y0027511D01*
X0055752Y0027683D01*
X0055825Y0027853D01*
X0055902Y0028021D01*
X0055983Y0028188D01*
X0056068Y0028352D01*
X0056157Y0028514D01*
X0056251Y0028674D01*
X0056348Y0028831D01*
X0056449Y0028986D01*
X0056553Y0029139D01*
X0056662Y0029289D01*
X0056774Y0029436D01*
X0056889Y0029581D01*
X0057008Y0029722D01*
X0057131Y0029861D01*
X0057257Y0029996D01*
X0057386Y0030129D01*
X0057519Y0030258D01*
X0057654Y0030384D01*
X0057793Y0030507D01*
X0057934Y0030626D01*
X0058079Y0030741D01*
X0058226Y0030853D01*
X0058376Y0030962D01*
X0058529Y0031066D01*
X0058684Y0031167D01*
X0058841Y0031264D01*
X0059001Y0031358D01*
X0059163Y0031447D01*
X0059327Y0031532D01*
X0059494Y0031613D01*
X0059662Y0031690D01*
X0059832Y0031763D01*
X0060004Y0031832D01*
X0060177Y0031896D01*
X0060352Y0031956D01*
X0060529Y0032012D01*
X0060706Y0032064D01*
X0060885Y0032111D01*
X0061065Y0032154D01*
X0061246Y0032192D01*
X0061428Y0032226D01*
X0061611Y0032255D01*
X0061794Y0032280D01*
X0061978Y0032301D01*
X0062162Y0032317D01*
X0062347Y0032328D01*
X0062532Y0032335D01*
X0062717Y0032337D01*
X0062902Y0032335D01*
X0063087Y0032328D01*
X0063272Y0032317D01*
X0063456Y0032301D01*
X0063640Y0032280D01*
X0063823Y0032255D01*
X0064006Y0032226D01*
X0064188Y0032192D01*
X0064369Y0032154D01*
X0064549Y0032111D01*
X0064728Y0032064D01*
X0064905Y0032012D01*
X0065082Y0031956D01*
X0065257Y0031896D01*
X0065430Y0031832D01*
X0065602Y0031763D01*
X0065772Y0031690D01*
X0065940Y0031613D01*
X0066107Y0031532D01*
X0066271Y0031447D01*
X0066433Y0031358D01*
X0066593Y0031264D01*
X0066750Y0031167D01*
X0066905Y0031066D01*
X0067058Y0030962D01*
X0067208Y0030853D01*
X0067355Y0030741D01*
X0067500Y0030626D01*
X0067641Y0030507D01*
X0067780Y0030384D01*
X0067915Y0030258D01*
X0068048Y0030129D01*
X0068177Y0029996D01*
X0068303Y0029861D01*
X0068426Y0029722D01*
X0068545Y0029581D01*
X0068660Y0029436D01*
X0068772Y0029289D01*
X0068881Y0029139D01*
X0068985Y0028986D01*
X0069086Y0028831D01*
X0069183Y0028674D01*
X0069277Y0028514D01*
X0069366Y0028352D01*
X0069451Y0028188D01*
X0069532Y0028021D01*
X0069609Y0027853D01*
X0069682Y0027683D01*
X0069751Y0027511D01*
X0069815Y0027338D01*
X0069875Y0027163D01*
X0069931Y0026986D01*
X0069983Y0026809D01*
X0070030Y0026630D01*
X0070073Y0026450D01*
X0070111Y0026269D01*
X0070145Y0026087D01*
X0070174Y0025904D01*
X0070199Y0025721D01*
X0070220Y0025537D01*
X0070236Y0025353D01*
X0070247Y0025168D01*
X0070254Y0024983D01*
X0070256Y0024798D01*
X0070254Y0024613D01*
X0070247Y0024428D01*
X0070236Y0024243D01*
X0070220Y0024059D01*
X0070199Y0023875D01*
X0070174Y0023692D01*
X0070145Y0023509D01*
X0070111Y0023327D01*
X0070073Y0023146D01*
X0070030Y0022966D01*
X0069983Y0022787D01*
X0069931Y0022610D01*
X0069875Y0022433D01*
X0069815Y0022258D01*
X0069751Y0022085D01*
X0069682Y0021913D01*
X0069609Y0021743D01*
X0069532Y0021575D01*
X0069451Y0021408D01*
X0069366Y0021244D01*
X0069277Y0021082D01*
X0069183Y0020922D01*
X0069086Y0020765D01*
X0068985Y0020610D01*
X0068881Y0020457D01*
X0068772Y0020307D01*
X0068660Y0020160D01*
X0068545Y0020015D01*
X0068426Y0019874D01*
X0068303Y0019735D01*
X0068177Y0019600D01*
X0068048Y0019467D01*
X0067915Y0019338D01*
X0067780Y0019212D01*
X0067641Y0019089D01*
X0067500Y0018970D01*
X0067355Y0018855D01*
X0067208Y0018743D01*
X0067058Y0018634D01*
X0066905Y0018530D01*
X0066750Y0018429D01*
X0066593Y0018332D01*
X0066433Y0018238D01*
X0066271Y0018149D01*
X0066107Y0018064D01*
X0065940Y0017983D01*
X0065772Y0017906D01*
X0065602Y0017833D01*
X0065430Y0017764D01*
X0065257Y0017700D01*
X0065082Y0017640D01*
X0064905Y0017584D01*
X0064728Y0017532D01*
X0064549Y0017485D01*
X0064369Y0017442D01*
X0064188Y0017404D01*
X0064006Y0017370D01*
X0063823Y0017341D01*
X0063640Y0017316D01*
X0063456Y0017295D01*
X0063272Y0017279D01*
X0063087Y0017268D01*
X0062902Y0017261D01*
X0062717Y0017259D01*
X0062532Y0017261D01*
X0062347Y0017268D01*
X0062162Y0017279D01*
X0061978Y0017295D01*
X0061794Y0017316D01*
X0061611Y0017341D01*
X0061428Y0017370D01*
X0061246Y0017404D01*
X0061065Y0017442D01*
X0060885Y0017485D01*
X0060706Y0017532D01*
X0060529Y0017584D01*
X0060352Y0017640D01*
X0060177Y0017700D01*
X0060004Y0017764D01*
X0059832Y0017833D01*
X0059662Y0017906D01*
X0059494Y0017983D01*
X0059327Y0018064D01*
X0059163Y0018149D01*
X0059001Y0018238D01*
X0058841Y0018332D01*
X0058684Y0018429D01*
X0058529Y0018530D01*
X0058376Y0018634D01*
X0058226Y0018743D01*
X0058079Y0018855D01*
X0057934Y0018970D01*
X0057793Y0019089D01*
X0057654Y0019212D01*
X0057519Y0019338D01*
X0057386Y0019467D01*
X0057257Y0019600D01*
X0057131Y0019735D01*
X0057008Y0019874D01*
X0056889Y0020015D01*
X0056774Y0020160D01*
X0056662Y0020307D01*
X0056553Y0020457D01*
X0056449Y0020610D01*
X0056348Y0020765D01*
X0056251Y0020922D01*
X0056157Y0021082D01*
X0056068Y0021244D01*
X0055983Y0021408D01*
X0055902Y0021575D01*
X0055825Y0021743D01*
X0055752Y0021913D01*
X0055683Y0022085D01*
X0055619Y0022258D01*
X0055559Y0022433D01*
X0055503Y0022610D01*
X0055451Y0022787D01*
X0055404Y0022966D01*
X0055361Y0023146D01*
X0055323Y0023327D01*
X0055289Y0023509D01*
X0055260Y0023692D01*
X0055235Y0023875D01*
X0055214Y0024059D01*
X0055198Y0024243D01*
X0055187Y0024428D01*
X0055180Y0024613D01*
X0055178Y0024798D01*
X0072717Y0017001D02*
X0072717Y0015063D01*
X0072717Y0017001D02*
X0072717Y0032737D01*
X0072717Y0034638D01*
X0101973Y0013422D02*
X0101973Y0010611D01*
X0103008Y0010611D01*
X0103710Y0011202D01*
X0104217Y0011202D01*
X0104217Y0009536D01*
X0104217Y0008355D01*
X0144217Y0008355D01*
X0144217Y0009536D01*
X0104217Y0009536D01*
X0104217Y0011202D02*
X0104217Y0011985D01*
X0144217Y0011985D01*
X0144217Y0009536D01*
X0144217Y0011985D02*
X0144217Y0014663D01*
X0144217Y0016601D01*
X0144217Y0032337D01*
X0144217Y0034238D01*
X0144217Y0040245D01*
X0104217Y0040245D01*
X0104217Y0034238D01*
X0104217Y0032337D01*
X0104217Y0016601D01*
X0104217Y0014663D01*
X0144217Y0014663D01*
X0134217Y0022450D02*
X0136697Y0024930D01*
X0140390Y0028623D01*
X0138441Y0030572D02*
X0134685Y0026816D01*
X0134217Y0026347D01*
X0131701Y0023831D01*
X0128044Y0020174D01*
X0129993Y0018225D02*
X0133587Y0021820D01*
X0134217Y0022450D01*
X0133587Y0021820D02*
X0133490Y0021846D01*
X0133395Y0021877D01*
X0133300Y0021911D01*
X0133207Y0021949D01*
X0133116Y0021990D01*
X0133026Y0022035D01*
X0132938Y0022084D01*
X0132852Y0022135D01*
X0132768Y0022191D01*
X0132686Y0022249D01*
X0132607Y0022311D01*
X0132530Y0022375D01*
X0132456Y0022443D01*
X0132385Y0022514D01*
X0132316Y0022587D01*
X0132250Y0022663D01*
X0132188Y0022741D01*
X0132128Y0022822D01*
X0132072Y0022905D01*
X0132019Y0022990D01*
X0131969Y0023078D01*
X0131923Y0023167D01*
X0131880Y0023258D01*
X0131841Y0023350D01*
X0131805Y0023444D01*
X0131774Y0023539D01*
X0131746Y0023636D01*
X0131722Y0023733D01*
X0131701Y0023832D01*
X0134685Y0026816D02*
X0134784Y0026795D01*
X0134881Y0026771D01*
X0134978Y0026743D01*
X0135073Y0026712D01*
X0135167Y0026676D01*
X0135259Y0026637D01*
X0135350Y0026594D01*
X0135439Y0026548D01*
X0135527Y0026498D01*
X0135612Y0026445D01*
X0135695Y0026389D01*
X0135776Y0026329D01*
X0135854Y0026267D01*
X0135930Y0026201D01*
X0136003Y0026132D01*
X0136074Y0026061D01*
X0136142Y0025987D01*
X0136206Y0025910D01*
X0136268Y0025831D01*
X0136326Y0025749D01*
X0136382Y0025665D01*
X0136433Y0025579D01*
X0136482Y0025491D01*
X0136527Y0025401D01*
X0136568Y0025310D01*
X0136606Y0025217D01*
X0136640Y0025122D01*
X0136671Y0025027D01*
X0136697Y0024930D01*
X0126678Y0024398D02*
X0126680Y0024583D01*
X0126687Y0024768D01*
X0126698Y0024953D01*
X0126714Y0025137D01*
X0126735Y0025321D01*
X0126760Y0025504D01*
X0126789Y0025687D01*
X0126823Y0025869D01*
X0126861Y0026050D01*
X0126904Y0026230D01*
X0126951Y0026409D01*
X0127003Y0026586D01*
X0127059Y0026763D01*
X0127119Y0026938D01*
X0127183Y0027111D01*
X0127252Y0027283D01*
X0127325Y0027453D01*
X0127402Y0027621D01*
X0127483Y0027788D01*
X0127568Y0027952D01*
X0127657Y0028114D01*
X0127751Y0028274D01*
X0127848Y0028431D01*
X0127949Y0028586D01*
X0128053Y0028739D01*
X0128162Y0028889D01*
X0128274Y0029036D01*
X0128389Y0029181D01*
X0128508Y0029322D01*
X0128631Y0029461D01*
X0128757Y0029596D01*
X0128886Y0029729D01*
X0129019Y0029858D01*
X0129154Y0029984D01*
X0129293Y0030107D01*
X0129434Y0030226D01*
X0129579Y0030341D01*
X0129726Y0030453D01*
X0129876Y0030562D01*
X0130029Y0030666D01*
X0130184Y0030767D01*
X0130341Y0030864D01*
X0130501Y0030958D01*
X0130663Y0031047D01*
X0130827Y0031132D01*
X0130994Y0031213D01*
X0131162Y0031290D01*
X0131332Y0031363D01*
X0131504Y0031432D01*
X0131677Y0031496D01*
X0131852Y0031556D01*
X0132029Y0031612D01*
X0132206Y0031664D01*
X0132385Y0031711D01*
X0132565Y0031754D01*
X0132746Y0031792D01*
X0132928Y0031826D01*
X0133111Y0031855D01*
X0133294Y0031880D01*
X0133478Y0031901D01*
X0133662Y0031917D01*
X0133847Y0031928D01*
X0134032Y0031935D01*
X0134217Y0031937D01*
X0134402Y0031935D01*
X0134587Y0031928D01*
X0134772Y0031917D01*
X0134956Y0031901D01*
X0135140Y0031880D01*
X0135323Y0031855D01*
X0135506Y0031826D01*
X0135688Y0031792D01*
X0135869Y0031754D01*
X0136049Y0031711D01*
X0136228Y0031664D01*
X0136405Y0031612D01*
X0136582Y0031556D01*
X0136757Y0031496D01*
X0136930Y0031432D01*
X0137102Y0031363D01*
X0137272Y0031290D01*
X0137440Y0031213D01*
X0137607Y0031132D01*
X0137771Y0031047D01*
X0137933Y0030958D01*
X0138093Y0030864D01*
X0138250Y0030767D01*
X0138405Y0030666D01*
X0138558Y0030562D01*
X0138708Y0030453D01*
X0138855Y0030341D01*
X0139000Y0030226D01*
X0139141Y0030107D01*
X0139280Y0029984D01*
X0139415Y0029858D01*
X0139548Y0029729D01*
X0139677Y0029596D01*
X0139803Y0029461D01*
X0139926Y0029322D01*
X0140045Y0029181D01*
X0140160Y0029036D01*
X0140272Y0028889D01*
X0140381Y0028739D01*
X0140485Y0028586D01*
X0140586Y0028431D01*
X0140683Y0028274D01*
X0140777Y0028114D01*
X0140866Y0027952D01*
X0140951Y0027788D01*
X0141032Y0027621D01*
X0141109Y0027453D01*
X0141182Y0027283D01*
X0141251Y0027111D01*
X0141315Y0026938D01*
X0141375Y0026763D01*
X0141431Y0026586D01*
X0141483Y0026409D01*
X0141530Y0026230D01*
X0141573Y0026050D01*
X0141611Y0025869D01*
X0141645Y0025687D01*
X0141674Y0025504D01*
X0141699Y0025321D01*
X0141720Y0025137D01*
X0141736Y0024953D01*
X0141747Y0024768D01*
X0141754Y0024583D01*
X0141756Y0024398D01*
X0141754Y0024213D01*
X0141747Y0024028D01*
X0141736Y0023843D01*
X0141720Y0023659D01*
X0141699Y0023475D01*
X0141674Y0023292D01*
X0141645Y0023109D01*
X0141611Y0022927D01*
X0141573Y0022746D01*
X0141530Y0022566D01*
X0141483Y0022387D01*
X0141431Y0022210D01*
X0141375Y0022033D01*
X0141315Y0021858D01*
X0141251Y0021685D01*
X0141182Y0021513D01*
X0141109Y0021343D01*
X0141032Y0021175D01*
X0140951Y0021008D01*
X0140866Y0020844D01*
X0140777Y0020682D01*
X0140683Y0020522D01*
X0140586Y0020365D01*
X0140485Y0020210D01*
X0140381Y0020057D01*
X0140272Y0019907D01*
X0140160Y0019760D01*
X0140045Y0019615D01*
X0139926Y0019474D01*
X0139803Y0019335D01*
X0139677Y0019200D01*
X0139548Y0019067D01*
X0139415Y0018938D01*
X0139280Y0018812D01*
X0139141Y0018689D01*
X0139000Y0018570D01*
X0138855Y0018455D01*
X0138708Y0018343D01*
X0138558Y0018234D01*
X0138405Y0018130D01*
X0138250Y0018029D01*
X0138093Y0017932D01*
X0137933Y0017838D01*
X0137771Y0017749D01*
X0137607Y0017664D01*
X0137440Y0017583D01*
X0137272Y0017506D01*
X0137102Y0017433D01*
X0136930Y0017364D01*
X0136757Y0017300D01*
X0136582Y0017240D01*
X0136405Y0017184D01*
X0136228Y0017132D01*
X0136049Y0017085D01*
X0135869Y0017042D01*
X0135688Y0017004D01*
X0135506Y0016970D01*
X0135323Y0016941D01*
X0135140Y0016916D01*
X0134956Y0016895D01*
X0134772Y0016879D01*
X0134587Y0016868D01*
X0134402Y0016861D01*
X0134217Y0016859D01*
X0134032Y0016861D01*
X0133847Y0016868D01*
X0133662Y0016879D01*
X0133478Y0016895D01*
X0133294Y0016916D01*
X0133111Y0016941D01*
X0132928Y0016970D01*
X0132746Y0017004D01*
X0132565Y0017042D01*
X0132385Y0017085D01*
X0132206Y0017132D01*
X0132029Y0017184D01*
X0131852Y0017240D01*
X0131677Y0017300D01*
X0131504Y0017364D01*
X0131332Y0017433D01*
X0131162Y0017506D01*
X0130994Y0017583D01*
X0130827Y0017664D01*
X0130663Y0017749D01*
X0130501Y0017838D01*
X0130341Y0017932D01*
X0130184Y0018029D01*
X0130029Y0018130D01*
X0129876Y0018234D01*
X0129726Y0018343D01*
X0129579Y0018455D01*
X0129434Y0018570D01*
X0129293Y0018689D01*
X0129154Y0018812D01*
X0129019Y0018938D01*
X0128886Y0019067D01*
X0128757Y0019200D01*
X0128631Y0019335D01*
X0128508Y0019474D01*
X0128389Y0019615D01*
X0128274Y0019760D01*
X0128162Y0019907D01*
X0128053Y0020057D01*
X0127949Y0020210D01*
X0127848Y0020365D01*
X0127751Y0020522D01*
X0127657Y0020682D01*
X0127568Y0020844D01*
X0127483Y0021008D01*
X0127402Y0021175D01*
X0127325Y0021343D01*
X0127252Y0021513D01*
X0127183Y0021685D01*
X0127119Y0021858D01*
X0127059Y0022033D01*
X0127003Y0022210D01*
X0126951Y0022387D01*
X0126904Y0022566D01*
X0126861Y0022746D01*
X0126823Y0022927D01*
X0126789Y0023109D01*
X0126760Y0023292D01*
X0126735Y0023475D01*
X0126714Y0023659D01*
X0126698Y0023843D01*
X0126687Y0024028D01*
X0126680Y0024213D01*
X0126678Y0024398D01*
X0120390Y0028623D02*
X0116697Y0024930D01*
X0114217Y0022450D01*
X0113587Y0021820D01*
X0109993Y0018225D01*
X0108044Y0020174D02*
X0111701Y0023831D01*
X0114217Y0026347D01*
X0114685Y0026816D01*
X0118441Y0030572D01*
X0106678Y0024398D02*
X0106680Y0024583D01*
X0106687Y0024768D01*
X0106698Y0024953D01*
X0106714Y0025137D01*
X0106735Y0025321D01*
X0106760Y0025504D01*
X0106789Y0025687D01*
X0106823Y0025869D01*
X0106861Y0026050D01*
X0106904Y0026230D01*
X0106951Y0026409D01*
X0107003Y0026586D01*
X0107059Y0026763D01*
X0107119Y0026938D01*
X0107183Y0027111D01*
X0107252Y0027283D01*
X0107325Y0027453D01*
X0107402Y0027621D01*
X0107483Y0027788D01*
X0107568Y0027952D01*
X0107657Y0028114D01*
X0107751Y0028274D01*
X0107848Y0028431D01*
X0107949Y0028586D01*
X0108053Y0028739D01*
X0108162Y0028889D01*
X0108274Y0029036D01*
X0108389Y0029181D01*
X0108508Y0029322D01*
X0108631Y0029461D01*
X0108757Y0029596D01*
X0108886Y0029729D01*
X0109019Y0029858D01*
X0109154Y0029984D01*
X0109293Y0030107D01*
X0109434Y0030226D01*
X0109579Y0030341D01*
X0109726Y0030453D01*
X0109876Y0030562D01*
X0110029Y0030666D01*
X0110184Y0030767D01*
X0110341Y0030864D01*
X0110501Y0030958D01*
X0110663Y0031047D01*
X0110827Y0031132D01*
X0110994Y0031213D01*
X0111162Y0031290D01*
X0111332Y0031363D01*
X0111504Y0031432D01*
X0111677Y0031496D01*
X0111852Y0031556D01*
X0112029Y0031612D01*
X0112206Y0031664D01*
X0112385Y0031711D01*
X0112565Y0031754D01*
X0112746Y0031792D01*
X0112928Y0031826D01*
X0113111Y0031855D01*
X0113294Y0031880D01*
X0113478Y0031901D01*
X0113662Y0031917D01*
X0113847Y0031928D01*
X0114032Y0031935D01*
X0114217Y0031937D01*
X0114402Y0031935D01*
X0114587Y0031928D01*
X0114772Y0031917D01*
X0114956Y0031901D01*
X0115140Y0031880D01*
X0115323Y0031855D01*
X0115506Y0031826D01*
X0115688Y0031792D01*
X0115869Y0031754D01*
X0116049Y0031711D01*
X0116228Y0031664D01*
X0116405Y0031612D01*
X0116582Y0031556D01*
X0116757Y0031496D01*
X0116930Y0031432D01*
X0117102Y0031363D01*
X0117272Y0031290D01*
X0117440Y0031213D01*
X0117607Y0031132D01*
X0117771Y0031047D01*
X0117933Y0030958D01*
X0118093Y0030864D01*
X0118250Y0030767D01*
X0118405Y0030666D01*
X0118558Y0030562D01*
X0118708Y0030453D01*
X0118855Y0030341D01*
X0119000Y0030226D01*
X0119141Y0030107D01*
X0119280Y0029984D01*
X0119415Y0029858D01*
X0119548Y0029729D01*
X0119677Y0029596D01*
X0119803Y0029461D01*
X0119926Y0029322D01*
X0120045Y0029181D01*
X0120160Y0029036D01*
X0120272Y0028889D01*
X0120381Y0028739D01*
X0120485Y0028586D01*
X0120586Y0028431D01*
X0120683Y0028274D01*
X0120777Y0028114D01*
X0120866Y0027952D01*
X0120951Y0027788D01*
X0121032Y0027621D01*
X0121109Y0027453D01*
X0121182Y0027283D01*
X0121251Y0027111D01*
X0121315Y0026938D01*
X0121375Y0026763D01*
X0121431Y0026586D01*
X0121483Y0026409D01*
X0121530Y0026230D01*
X0121573Y0026050D01*
X0121611Y0025869D01*
X0121645Y0025687D01*
X0121674Y0025504D01*
X0121699Y0025321D01*
X0121720Y0025137D01*
X0121736Y0024953D01*
X0121747Y0024768D01*
X0121754Y0024583D01*
X0121756Y0024398D01*
X0121754Y0024213D01*
X0121747Y0024028D01*
X0121736Y0023843D01*
X0121720Y0023659D01*
X0121699Y0023475D01*
X0121674Y0023292D01*
X0121645Y0023109D01*
X0121611Y0022927D01*
X0121573Y0022746D01*
X0121530Y0022566D01*
X0121483Y0022387D01*
X0121431Y0022210D01*
X0121375Y0022033D01*
X0121315Y0021858D01*
X0121251Y0021685D01*
X0121182Y0021513D01*
X0121109Y0021343D01*
X0121032Y0021175D01*
X0120951Y0021008D01*
X0120866Y0020844D01*
X0120777Y0020682D01*
X0120683Y0020522D01*
X0120586Y0020365D01*
X0120485Y0020210D01*
X0120381Y0020057D01*
X0120272Y0019907D01*
X0120160Y0019760D01*
X0120045Y0019615D01*
X0119926Y0019474D01*
X0119803Y0019335D01*
X0119677Y0019200D01*
X0119548Y0019067D01*
X0119415Y0018938D01*
X0119280Y0018812D01*
X0119141Y0018689D01*
X0119000Y0018570D01*
X0118855Y0018455D01*
X0118708Y0018343D01*
X0118558Y0018234D01*
X0118405Y0018130D01*
X0118250Y0018029D01*
X0118093Y0017932D01*
X0117933Y0017838D01*
X0117771Y0017749D01*
X0117607Y0017664D01*
X0117440Y0017583D01*
X0117272Y0017506D01*
X0117102Y0017433D01*
X0116930Y0017364D01*
X0116757Y0017300D01*
X0116582Y0017240D01*
X0116405Y0017184D01*
X0116228Y0017132D01*
X0116049Y0017085D01*
X0115869Y0017042D01*
X0115688Y0017004D01*
X0115506Y0016970D01*
X0115323Y0016941D01*
X0115140Y0016916D01*
X0114956Y0016895D01*
X0114772Y0016879D01*
X0114587Y0016868D01*
X0114402Y0016861D01*
X0114217Y0016859D01*
X0114032Y0016861D01*
X0113847Y0016868D01*
X0113662Y0016879D01*
X0113478Y0016895D01*
X0113294Y0016916D01*
X0113111Y0016941D01*
X0112928Y0016970D01*
X0112746Y0017004D01*
X0112565Y0017042D01*
X0112385Y0017085D01*
X0112206Y0017132D01*
X0112029Y0017184D01*
X0111852Y0017240D01*
X0111677Y0017300D01*
X0111504Y0017364D01*
X0111332Y0017433D01*
X0111162Y0017506D01*
X0110994Y0017583D01*
X0110827Y0017664D01*
X0110663Y0017749D01*
X0110501Y0017838D01*
X0110341Y0017932D01*
X0110184Y0018029D01*
X0110029Y0018130D01*
X0109876Y0018234D01*
X0109726Y0018343D01*
X0109579Y0018455D01*
X0109434Y0018570D01*
X0109293Y0018689D01*
X0109154Y0018812D01*
X0109019Y0018938D01*
X0108886Y0019067D01*
X0108757Y0019200D01*
X0108631Y0019335D01*
X0108508Y0019474D01*
X0108389Y0019615D01*
X0108274Y0019760D01*
X0108162Y0019907D01*
X0108053Y0020057D01*
X0107949Y0020210D01*
X0107848Y0020365D01*
X0107751Y0020522D01*
X0107657Y0020682D01*
X0107568Y0020844D01*
X0107483Y0021008D01*
X0107402Y0021175D01*
X0107325Y0021343D01*
X0107252Y0021513D01*
X0107183Y0021685D01*
X0107119Y0021858D01*
X0107059Y0022033D01*
X0107003Y0022210D01*
X0106951Y0022387D01*
X0106904Y0022566D01*
X0106861Y0022746D01*
X0106823Y0022927D01*
X0106789Y0023109D01*
X0106760Y0023292D01*
X0106735Y0023475D01*
X0106714Y0023659D01*
X0106698Y0023843D01*
X0106687Y0024028D01*
X0106680Y0024213D01*
X0106678Y0024398D01*
X0104217Y0034238D02*
X0144217Y0034238D01*
X0116697Y0024930D02*
X0116671Y0025027D01*
X0116640Y0025122D01*
X0116606Y0025217D01*
X0116568Y0025310D01*
X0116527Y0025401D01*
X0116482Y0025491D01*
X0116433Y0025579D01*
X0116382Y0025665D01*
X0116326Y0025749D01*
X0116268Y0025831D01*
X0116206Y0025910D01*
X0116142Y0025987D01*
X0116074Y0026061D01*
X0116003Y0026132D01*
X0115930Y0026201D01*
X0115854Y0026267D01*
X0115776Y0026329D01*
X0115695Y0026389D01*
X0115612Y0026445D01*
X0115527Y0026498D01*
X0115439Y0026548D01*
X0115350Y0026594D01*
X0115259Y0026637D01*
X0115167Y0026676D01*
X0115073Y0026712D01*
X0114978Y0026743D01*
X0114881Y0026771D01*
X0114784Y0026795D01*
X0114685Y0026816D01*
X0111701Y0023832D02*
X0111722Y0023733D01*
X0111746Y0023636D01*
X0111774Y0023539D01*
X0111805Y0023444D01*
X0111841Y0023350D01*
X0111880Y0023258D01*
X0111923Y0023167D01*
X0111969Y0023078D01*
X0112019Y0022990D01*
X0112072Y0022905D01*
X0112128Y0022822D01*
X0112188Y0022741D01*
X0112250Y0022663D01*
X0112316Y0022587D01*
X0112385Y0022514D01*
X0112456Y0022443D01*
X0112530Y0022375D01*
X0112607Y0022311D01*
X0112686Y0022249D01*
X0112768Y0022191D01*
X0112852Y0022135D01*
X0112938Y0022084D01*
X0113026Y0022035D01*
X0113116Y0021990D01*
X0113207Y0021949D01*
X0113300Y0021911D01*
X0113395Y0021877D01*
X0113490Y0021846D01*
X0113587Y0021820D01*
X0104217Y0014663D02*
X0104217Y0012831D01*
X0104217Y0011985D01*
X0104217Y0012831D02*
X0103710Y0012831D01*
X0103008Y0013422D01*
X0101973Y0013422D01*
D63*
X0127944Y0145280D03*
X0132544Y0145280D03*
X0132711Y0187005D03*
X0128111Y0187005D03*
X0042711Y0187005D03*
X0038111Y0187005D03*
X0037462Y0145048D03*
X0042062Y0145048D03*
D64*
X0085550Y0211800D03*
X0095550Y0211800D03*
D65*
X0100985Y0141210D02*
X0100985Y0137210D01*
X0100985Y0133710D02*
X0100985Y0132210D01*
X0100985Y0100210D02*
X0100985Y0098710D01*
X0100985Y0095210D02*
X0100985Y0091210D01*
D66*
X0100985Y0097010D03*
X0100985Y0102010D03*
X0100985Y0130410D03*
X0100985Y0135410D03*
D67*
X0090985Y0125210D02*
X0085985Y0125210D01*
X0080985Y0125210D01*
X0080985Y0121710D02*
X0085985Y0121710D01*
X0090985Y0121710D01*
D68*
X0085985Y0086210D03*
M02*
