G04 EAGLE Gerber RS-274X export*
G75*
%MOMM*%
%FSLAX34Y34*%
%LPD*%
%INBottom Copper*%
%IPPOS*%
%AMOC8*
5,1,8,0,0,1.08239X$1,22.5*%
G01*
%ADD10R,1.524000X1.524000*%
%ADD11C,1.524000*%
%ADD12C,5.000000*%
%ADD13C,2.514600*%
%ADD14C,1.879600*%
%ADD15C,1.524000*%
%ADD16C,2.540000*%
%ADD17C,1.800000*%
%ADD18P,1.814519X8X112.500000*%
%ADD19C,3.810000*%
%ADD20C,0.254000*%
%ADD21C,0.756400*%
%ADD22C,0.508000*%
%ADD23C,0.152400*%
%ADD24C,1.270000*%

G36*
X808185Y8675D02*
X808185Y8675D01*
X808207Y8678D01*
X808230Y8676D01*
X808328Y8699D01*
X808428Y8715D01*
X808447Y8726D01*
X808469Y8731D01*
X808556Y8784D01*
X808645Y8831D01*
X808660Y8848D01*
X808679Y8859D01*
X808744Y8937D01*
X808813Y9011D01*
X808822Y9031D01*
X808837Y9048D01*
X808874Y9142D01*
X808916Y9234D01*
X808918Y9256D01*
X808926Y9277D01*
X808931Y9378D01*
X808942Y9479D01*
X808937Y9501D01*
X808938Y9523D01*
X808911Y9620D01*
X808889Y9719D01*
X808877Y9738D01*
X808871Y9760D01*
X808814Y9843D01*
X808761Y9929D01*
X808744Y9944D01*
X808732Y9962D01*
X808651Y10023D01*
X808574Y10088D01*
X808553Y10097D01*
X808535Y10110D01*
X808379Y10171D01*
X807962Y10283D01*
X801913Y13775D01*
X796975Y18713D01*
X793483Y24762D01*
X791675Y31508D01*
X791675Y38492D01*
X793483Y45238D01*
X796975Y51287D01*
X801913Y56225D01*
X807962Y59717D01*
X814708Y61525D01*
X821692Y61525D01*
X828438Y59717D01*
X834487Y56225D01*
X839425Y51287D01*
X842917Y45238D01*
X844725Y38492D01*
X844725Y31508D01*
X842917Y24762D01*
X839425Y18713D01*
X834487Y13775D01*
X828438Y10283D01*
X828349Y10259D01*
X828325Y10248D01*
X828300Y10244D01*
X828214Y10198D01*
X828125Y10158D01*
X828106Y10140D01*
X828083Y10128D01*
X828016Y10057D01*
X827944Y9990D01*
X827932Y9968D01*
X827915Y9949D01*
X827874Y9860D01*
X827827Y9774D01*
X827823Y9749D01*
X827812Y9725D01*
X827801Y9628D01*
X827785Y9532D01*
X827789Y9506D01*
X827786Y9481D01*
X827807Y9385D01*
X827822Y9289D01*
X827834Y9266D01*
X827839Y9241D01*
X827890Y9157D01*
X827934Y9070D01*
X827953Y9052D01*
X827966Y9030D01*
X828041Y8967D01*
X828111Y8899D01*
X828134Y8888D01*
X828154Y8871D01*
X828245Y8835D01*
X828333Y8793D01*
X828358Y8790D01*
X828382Y8780D01*
X828549Y8762D01*
X852481Y8866D01*
X852499Y8869D01*
X852517Y8867D01*
X852620Y8889D01*
X852724Y8906D01*
X852740Y8915D01*
X852758Y8919D01*
X852848Y8973D01*
X852941Y9022D01*
X852953Y9036D01*
X852969Y9045D01*
X853037Y9125D01*
X853109Y9201D01*
X853117Y9218D01*
X853129Y9232D01*
X853168Y9330D01*
X853212Y9425D01*
X853214Y9443D01*
X853221Y9460D01*
X853239Y9627D01*
X853239Y655043D01*
X853236Y655064D01*
X853238Y655086D01*
X853216Y655185D01*
X853200Y655286D01*
X853189Y655305D01*
X853185Y655326D01*
X853132Y655413D01*
X853084Y655503D01*
X853069Y655518D01*
X853058Y655536D01*
X852980Y655602D01*
X852906Y655672D01*
X852887Y655681D01*
X852870Y655695D01*
X852775Y655733D01*
X852683Y655776D01*
X852662Y655778D01*
X852642Y655786D01*
X852475Y655804D01*
X-16513Y652058D01*
X-16531Y652055D01*
X-16549Y652057D01*
X-16652Y652034D01*
X-16756Y652017D01*
X-16772Y652008D01*
X-16790Y652004D01*
X-16880Y651950D01*
X-16973Y651901D01*
X-16985Y651887D01*
X-17001Y651878D01*
X-17069Y651798D01*
X-17141Y651722D01*
X-17149Y651705D01*
X-17161Y651691D01*
X-17200Y651593D01*
X-17244Y651498D01*
X-17246Y651480D01*
X-17253Y651463D01*
X-17271Y651296D01*
X-17271Y332232D01*
X-17268Y332212D01*
X-17270Y332193D01*
X-17248Y332091D01*
X-17232Y331989D01*
X-17222Y331972D01*
X-17218Y331952D01*
X-17165Y331863D01*
X-17116Y331772D01*
X-17102Y331758D01*
X-17092Y331741D01*
X-17013Y331674D01*
X-16938Y331602D01*
X-16920Y331594D01*
X-16905Y331581D01*
X-16809Y331542D01*
X-16715Y331499D01*
X-16695Y331497D01*
X-16677Y331489D01*
X-16510Y331471D01*
X191026Y331471D01*
X191771Y330726D01*
X191771Y206969D01*
X191773Y206958D01*
X191772Y206951D01*
X191780Y206915D01*
X191785Y206879D01*
X191793Y206788D01*
X191805Y206758D01*
X191810Y206726D01*
X191853Y206645D01*
X191889Y206562D01*
X191915Y206529D01*
X191926Y206509D01*
X191949Y206487D01*
X191994Y206431D01*
X193072Y205352D01*
X194675Y201483D01*
X194675Y197297D01*
X193072Y193428D01*
X191994Y192349D01*
X191941Y192276D01*
X191881Y192206D01*
X191869Y192176D01*
X191850Y192150D01*
X191823Y192063D01*
X191789Y191978D01*
X191785Y191937D01*
X191778Y191915D01*
X191779Y191882D01*
X191771Y191811D01*
X191771Y130769D01*
X191785Y130679D01*
X191793Y130588D01*
X191805Y130558D01*
X191810Y130526D01*
X191853Y130445D01*
X191889Y130362D01*
X191915Y130329D01*
X191926Y130309D01*
X191949Y130287D01*
X191994Y130231D01*
X193072Y129152D01*
X194675Y125283D01*
X194675Y121097D01*
X193072Y117228D01*
X191994Y116149D01*
X191947Y116085D01*
X191932Y116068D01*
X191928Y116061D01*
X191881Y116006D01*
X191869Y115976D01*
X191850Y115950D01*
X191823Y115863D01*
X191789Y115778D01*
X191785Y115737D01*
X191778Y115715D01*
X191779Y115682D01*
X191771Y115611D01*
X191771Y6782D01*
X191774Y6760D01*
X191772Y6739D01*
X191794Y6639D01*
X191810Y6539D01*
X191821Y6520D01*
X191825Y6499D01*
X191878Y6411D01*
X191926Y6321D01*
X191941Y6307D01*
X191952Y6288D01*
X192030Y6222D01*
X192104Y6152D01*
X192123Y6143D01*
X192140Y6129D01*
X192235Y6091D01*
X192327Y6048D01*
X192348Y6046D01*
X192368Y6038D01*
X192535Y6020D01*
X808185Y8675D01*
G37*
%LPC*%
G36*
X198443Y73913D02*
X198443Y73913D01*
X197103Y75253D01*
X197103Y374327D01*
X198443Y375667D01*
X381947Y375667D01*
X383287Y374327D01*
X383287Y75253D01*
X381947Y73913D01*
X198443Y73913D01*
G37*
%LPD*%
G36*
X381020Y75442D02*
X381020Y75442D01*
X381039Y75440D01*
X381141Y75462D01*
X381243Y75479D01*
X381260Y75488D01*
X381280Y75492D01*
X381369Y75545D01*
X381460Y75594D01*
X381474Y75608D01*
X381491Y75618D01*
X381558Y75697D01*
X381630Y75772D01*
X381638Y75790D01*
X381651Y75805D01*
X381690Y75901D01*
X381733Y75995D01*
X381735Y76015D01*
X381743Y76033D01*
X381761Y76200D01*
X381761Y373380D01*
X381758Y373400D01*
X381760Y373419D01*
X381738Y373521D01*
X381722Y373623D01*
X381712Y373640D01*
X381708Y373660D01*
X381655Y373749D01*
X381606Y373840D01*
X381592Y373854D01*
X381582Y373871D01*
X381503Y373938D01*
X381428Y374010D01*
X381410Y374018D01*
X381395Y374031D01*
X381299Y374070D01*
X381205Y374113D01*
X381185Y374115D01*
X381167Y374123D01*
X381000Y374141D01*
X199390Y374141D01*
X199370Y374138D01*
X199351Y374140D01*
X199249Y374118D01*
X199147Y374102D01*
X199130Y374092D01*
X199110Y374088D01*
X199021Y374035D01*
X198930Y373986D01*
X198916Y373972D01*
X198899Y373962D01*
X198832Y373883D01*
X198761Y373808D01*
X198752Y373790D01*
X198739Y373775D01*
X198700Y373679D01*
X198657Y373585D01*
X198655Y373565D01*
X198647Y373547D01*
X198629Y373380D01*
X198629Y76200D01*
X198632Y76180D01*
X198630Y76161D01*
X198652Y76059D01*
X198669Y75957D01*
X198678Y75940D01*
X198682Y75920D01*
X198735Y75831D01*
X198784Y75740D01*
X198798Y75726D01*
X198808Y75709D01*
X198887Y75642D01*
X198962Y75571D01*
X198980Y75562D01*
X198995Y75549D01*
X199091Y75510D01*
X199185Y75467D01*
X199205Y75465D01*
X199223Y75457D01*
X199390Y75439D01*
X381000Y75439D01*
X381020Y75442D01*
G37*
%LPC*%
G36*
X73111Y352805D02*
X73111Y352805D01*
X69750Y354197D01*
X67177Y356770D01*
X65785Y360131D01*
X65785Y379009D01*
X67177Y382370D01*
X69750Y384943D01*
X72935Y386262D01*
X73035Y386323D01*
X73135Y386383D01*
X73139Y386388D01*
X73144Y386392D01*
X73219Y386482D01*
X73295Y386570D01*
X73297Y386576D01*
X73301Y386581D01*
X73343Y386689D01*
X73387Y386799D01*
X73388Y386806D01*
X73389Y386811D01*
X73390Y386829D01*
X73405Y386965D01*
X73405Y394858D01*
X83932Y405385D01*
X178867Y405385D01*
X178957Y405399D01*
X179048Y405407D01*
X179078Y405419D01*
X179110Y405424D01*
X179190Y405467D01*
X179274Y405503D01*
X179306Y405529D01*
X179327Y405540D01*
X179349Y405563D01*
X179405Y405608D01*
X261732Y487935D01*
X294437Y487935D01*
X294527Y487949D01*
X294618Y487957D01*
X294648Y487969D01*
X294680Y487974D01*
X294760Y488017D01*
X294844Y488053D01*
X294876Y488079D01*
X294897Y488090D01*
X294919Y488113D01*
X294975Y488158D01*
X308259Y501442D01*
X308312Y501516D01*
X308372Y501585D01*
X308384Y501615D01*
X308403Y501641D01*
X308430Y501728D01*
X308464Y501813D01*
X308468Y501854D01*
X308475Y501876D01*
X308474Y501909D01*
X308482Y501980D01*
X308482Y503437D01*
X308463Y503552D01*
X308446Y503668D01*
X308444Y503674D01*
X308443Y503680D01*
X308388Y503782D01*
X308335Y503887D01*
X308330Y503892D01*
X308327Y503897D01*
X308243Y503977D01*
X308159Y504059D01*
X308153Y504063D01*
X308149Y504067D01*
X308132Y504074D01*
X308012Y504140D01*
X306986Y504565D01*
X304413Y507138D01*
X303021Y510499D01*
X303021Y514137D01*
X303815Y516052D01*
X303841Y516165D01*
X303870Y516280D01*
X303869Y516286D01*
X303871Y516292D01*
X303860Y516408D01*
X303851Y516525D01*
X303848Y516530D01*
X303848Y516537D01*
X303800Y516644D01*
X303754Y516751D01*
X303750Y516757D01*
X303748Y516761D01*
X303735Y516775D01*
X303650Y516882D01*
X299039Y521492D01*
X298965Y521545D01*
X298896Y521605D01*
X298866Y521617D01*
X298840Y521636D01*
X298752Y521663D01*
X298668Y521697D01*
X298627Y521701D01*
X298605Y521708D01*
X298572Y521707D01*
X298570Y521708D01*
X296925Y523352D01*
X296925Y534521D01*
X296910Y534617D01*
X296900Y534714D01*
X296890Y534738D01*
X296886Y534764D01*
X296840Y534850D01*
X296800Y534939D01*
X296783Y534958D01*
X296770Y534981D01*
X296700Y535048D01*
X296634Y535120D01*
X296611Y535133D01*
X296592Y535151D01*
X296504Y535192D01*
X296418Y535239D01*
X296393Y535243D01*
X296369Y535254D01*
X296272Y535265D01*
X296176Y535282D01*
X296150Y535279D01*
X296125Y535282D01*
X296029Y535261D01*
X295933Y535247D01*
X295910Y535235D01*
X295884Y535229D01*
X295801Y535179D01*
X295714Y535135D01*
X295695Y535116D01*
X295673Y535103D01*
X295610Y535029D01*
X295542Y534960D01*
X295526Y534931D01*
X295513Y534916D01*
X295501Y534885D01*
X295461Y534813D01*
X294519Y532538D01*
X291946Y529965D01*
X288585Y528573D01*
X284947Y528573D01*
X281586Y529965D01*
X279013Y532538D01*
X277621Y535899D01*
X277621Y539537D01*
X279013Y542898D01*
X281586Y545471D01*
X284947Y546863D01*
X288585Y546863D01*
X291946Y545471D01*
X294519Y542898D01*
X295461Y540623D01*
X295512Y540540D01*
X295558Y540455D01*
X295576Y540437D01*
X295590Y540414D01*
X295666Y540352D01*
X295736Y540285D01*
X295760Y540274D01*
X295780Y540258D01*
X295871Y540223D01*
X295959Y540182D01*
X295985Y540179D01*
X296009Y540169D01*
X296107Y540165D01*
X296203Y540154D01*
X296229Y540160D01*
X296255Y540159D01*
X296349Y540186D01*
X296444Y540207D01*
X296466Y540220D01*
X296491Y540227D01*
X296571Y540283D01*
X296655Y540333D01*
X296672Y540353D01*
X296693Y540368D01*
X296752Y540446D01*
X296815Y540520D01*
X296825Y540544D01*
X296840Y540565D01*
X296870Y540658D01*
X296907Y540748D01*
X296910Y540780D01*
X296916Y540799D01*
X296916Y540832D01*
X296925Y540915D01*
X296925Y559867D01*
X296911Y559957D01*
X296903Y560048D01*
X296891Y560078D01*
X296886Y560110D01*
X296843Y560190D01*
X296807Y560274D01*
X296781Y560306D01*
X296770Y560327D01*
X296747Y560349D01*
X296702Y560405D01*
X282247Y574860D01*
X282173Y574913D01*
X282104Y574973D01*
X282074Y574985D01*
X282048Y575004D01*
X281961Y575031D01*
X281876Y575065D01*
X281835Y575069D01*
X281813Y575076D01*
X281780Y575075D01*
X281709Y575083D01*
X279742Y575083D01*
X276633Y578192D01*
X276633Y582588D01*
X279742Y585697D01*
X284138Y585697D01*
X287247Y582588D01*
X287247Y578081D01*
X287261Y577991D01*
X287269Y577900D01*
X287281Y577870D01*
X287286Y577838D01*
X287329Y577758D01*
X287365Y577674D01*
X287391Y577642D01*
X287402Y577621D01*
X287425Y577599D01*
X287470Y577543D01*
X302515Y562498D01*
X302515Y542141D01*
X302530Y542045D01*
X302540Y541948D01*
X302550Y541924D01*
X302554Y541898D01*
X302600Y541812D01*
X302640Y541723D01*
X302657Y541704D01*
X302670Y541681D01*
X302740Y541614D01*
X302806Y541542D01*
X302829Y541530D01*
X302848Y541512D01*
X302936Y541471D01*
X303022Y541424D01*
X303047Y541419D01*
X303071Y541408D01*
X303168Y541397D01*
X303264Y541380D01*
X303290Y541384D01*
X303315Y541381D01*
X303410Y541402D01*
X303507Y541416D01*
X303530Y541428D01*
X303556Y541433D01*
X303640Y541483D01*
X303726Y541527D01*
X303744Y541546D01*
X303767Y541559D01*
X303830Y541633D01*
X303898Y541703D01*
X303914Y541731D01*
X303927Y541746D01*
X303939Y541777D01*
X303979Y541850D01*
X304413Y542898D01*
X306986Y545471D01*
X310347Y546863D01*
X313985Y546863D01*
X317346Y545471D01*
X319919Y542898D01*
X320861Y540623D01*
X320912Y540540D01*
X320958Y540455D01*
X320976Y540437D01*
X320990Y540414D01*
X321066Y540352D01*
X321136Y540285D01*
X321160Y540274D01*
X321180Y540258D01*
X321271Y540223D01*
X321359Y540182D01*
X321385Y540179D01*
X321409Y540169D01*
X321507Y540165D01*
X321603Y540154D01*
X321629Y540160D01*
X321655Y540159D01*
X321749Y540186D01*
X321844Y540207D01*
X321866Y540220D01*
X321891Y540227D01*
X321971Y540283D01*
X322055Y540333D01*
X322072Y540353D01*
X322093Y540368D01*
X322152Y540446D01*
X322215Y540520D01*
X322225Y540544D01*
X322240Y540565D01*
X322270Y540658D01*
X322307Y540748D01*
X322310Y540780D01*
X322316Y540799D01*
X322316Y540832D01*
X322325Y540915D01*
X322325Y558597D01*
X322311Y558687D01*
X322303Y558778D01*
X322291Y558808D01*
X322286Y558840D01*
X322243Y558920D01*
X322207Y559004D01*
X322181Y559036D01*
X322170Y559057D01*
X322147Y559079D01*
X322102Y559135D01*
X307647Y573590D01*
X307573Y573643D01*
X307504Y573703D01*
X307474Y573715D01*
X307448Y573734D01*
X307361Y573761D01*
X307276Y573795D01*
X307235Y573799D01*
X307213Y573806D01*
X307180Y573805D01*
X307109Y573813D01*
X303872Y573813D01*
X300763Y576922D01*
X300763Y581318D01*
X303872Y584427D01*
X308268Y584427D01*
X311377Y581318D01*
X311377Y578081D01*
X311391Y577991D01*
X311399Y577900D01*
X311411Y577870D01*
X311416Y577838D01*
X311459Y577758D01*
X311495Y577674D01*
X311521Y577642D01*
X311532Y577621D01*
X311555Y577599D01*
X311600Y577543D01*
X327915Y561228D01*
X327915Y544064D01*
X327916Y544056D01*
X327915Y544048D01*
X327936Y543934D01*
X327954Y543821D01*
X327958Y543814D01*
X327960Y543806D01*
X328016Y543705D01*
X328070Y543603D01*
X328075Y543598D01*
X328079Y543591D01*
X328164Y543513D01*
X328248Y543434D01*
X328255Y543431D01*
X328261Y543425D01*
X328367Y543379D01*
X328471Y543330D01*
X328479Y543330D01*
X328486Y543326D01*
X328601Y543316D01*
X328715Y543303D01*
X328723Y543305D01*
X328731Y543304D01*
X328844Y543331D01*
X328956Y543356D01*
X328963Y543360D01*
X328970Y543362D01*
X329069Y543423D01*
X329167Y543482D01*
X329172Y543488D01*
X329179Y543492D01*
X329292Y543616D01*
X329816Y544337D01*
X330947Y545468D01*
X332241Y546408D01*
X333666Y547134D01*
X335187Y547629D01*
X336043Y547764D01*
X336043Y538480D01*
X336046Y538460D01*
X336044Y538441D01*
X336066Y538339D01*
X336083Y538237D01*
X336092Y538220D01*
X336096Y538200D01*
X336149Y538111D01*
X336198Y538020D01*
X336212Y538006D01*
X336222Y537989D01*
X336301Y537922D01*
X336376Y537851D01*
X336394Y537842D01*
X336409Y537829D01*
X336505Y537791D01*
X336599Y537747D01*
X336619Y537745D01*
X336637Y537737D01*
X336804Y537719D01*
X338328Y537719D01*
X338348Y537722D01*
X338367Y537720D01*
X338469Y537742D01*
X338571Y537759D01*
X338588Y537768D01*
X338608Y537772D01*
X338697Y537825D01*
X338788Y537874D01*
X338802Y537888D01*
X338819Y537898D01*
X338886Y537977D01*
X338957Y538052D01*
X338966Y538070D01*
X338979Y538085D01*
X339018Y538181D01*
X339061Y538275D01*
X339063Y538295D01*
X339071Y538313D01*
X339089Y538480D01*
X339089Y547764D01*
X339945Y547629D01*
X341466Y547134D01*
X342891Y546408D01*
X344185Y545468D01*
X345316Y544337D01*
X346256Y543043D01*
X346286Y542986D01*
X346326Y542931D01*
X346358Y542871D01*
X346398Y542832D01*
X346431Y542787D01*
X346487Y542748D01*
X346536Y542702D01*
X346587Y542678D01*
X346632Y542646D01*
X346697Y542627D01*
X346759Y542598D01*
X346815Y542592D01*
X346868Y542576D01*
X346936Y542578D01*
X347003Y542571D01*
X347058Y542583D01*
X347114Y542585D01*
X347177Y542609D01*
X347244Y542623D01*
X347292Y542652D01*
X347344Y542672D01*
X347397Y542714D01*
X347455Y542749D01*
X347491Y542792D01*
X347535Y542827D01*
X347571Y542885D01*
X347615Y542936D01*
X347636Y542988D01*
X347666Y543035D01*
X347681Y543101D01*
X347707Y543164D01*
X347715Y543243D01*
X347723Y543275D01*
X347721Y543295D01*
X347725Y543331D01*
X347725Y556057D01*
X347711Y556147D01*
X347703Y556238D01*
X347691Y556268D01*
X347686Y556300D01*
X347643Y556380D01*
X347607Y556464D01*
X347581Y556496D01*
X347570Y556517D01*
X347547Y556539D01*
X347502Y556595D01*
X331777Y572320D01*
X331703Y572373D01*
X331634Y572433D01*
X331604Y572445D01*
X331578Y572464D01*
X331491Y572491D01*
X331406Y572525D01*
X331365Y572529D01*
X331343Y572536D01*
X331310Y572535D01*
X331239Y572543D01*
X328002Y572543D01*
X324893Y575652D01*
X324893Y580048D01*
X328002Y583157D01*
X332398Y583157D01*
X335507Y580048D01*
X335507Y576811D01*
X335521Y576721D01*
X335529Y576630D01*
X335541Y576600D01*
X335546Y576568D01*
X335589Y576488D01*
X335625Y576404D01*
X335651Y576372D01*
X335662Y576351D01*
X335685Y576329D01*
X335730Y576273D01*
X353315Y558688D01*
X353315Y542141D01*
X353330Y542045D01*
X353340Y541948D01*
X353350Y541924D01*
X353354Y541898D01*
X353400Y541813D01*
X353440Y541723D01*
X353457Y541704D01*
X353470Y541681D01*
X353540Y541614D01*
X353606Y541542D01*
X353629Y541530D01*
X353648Y541512D01*
X353736Y541471D01*
X353822Y541424D01*
X353847Y541419D01*
X353871Y541408D01*
X353968Y541397D01*
X354064Y541380D01*
X354090Y541384D01*
X354115Y541381D01*
X354211Y541402D01*
X354307Y541416D01*
X354330Y541428D01*
X354356Y541433D01*
X354439Y541483D01*
X354526Y541527D01*
X354545Y541546D01*
X354567Y541559D01*
X354630Y541633D01*
X354698Y541703D01*
X354714Y541731D01*
X354727Y541746D01*
X354739Y541777D01*
X354779Y541850D01*
X355213Y542898D01*
X357786Y545471D01*
X361147Y546863D01*
X364785Y546863D01*
X368146Y545471D01*
X370719Y542898D01*
X371661Y540623D01*
X371712Y540540D01*
X371758Y540455D01*
X371776Y540437D01*
X371790Y540414D01*
X371866Y540352D01*
X371936Y540285D01*
X371960Y540274D01*
X371980Y540258D01*
X372071Y540223D01*
X372159Y540182D01*
X372185Y540179D01*
X372209Y540169D01*
X372307Y540165D01*
X372403Y540154D01*
X372429Y540160D01*
X372455Y540159D01*
X372549Y540186D01*
X372644Y540207D01*
X372666Y540220D01*
X372691Y540227D01*
X372771Y540283D01*
X372855Y540333D01*
X372872Y540353D01*
X372893Y540368D01*
X372952Y540446D01*
X373015Y540520D01*
X373025Y540544D01*
X373040Y540565D01*
X373070Y540658D01*
X373107Y540748D01*
X373110Y540780D01*
X373116Y540799D01*
X373116Y540832D01*
X373125Y540915D01*
X373125Y552338D01*
X403382Y582595D01*
X403435Y582669D01*
X403495Y582738D01*
X403507Y582768D01*
X403526Y582794D01*
X403553Y582881D01*
X403587Y582966D01*
X403591Y583007D01*
X403598Y583029D01*
X403597Y583062D01*
X403605Y583133D01*
X403605Y592731D01*
X403586Y592846D01*
X403569Y592962D01*
X403567Y592967D01*
X403566Y592974D01*
X403511Y593076D01*
X403458Y593181D01*
X403453Y593185D01*
X403450Y593191D01*
X403366Y593271D01*
X403282Y593353D01*
X403276Y593357D01*
X403272Y593360D01*
X403255Y593368D01*
X403135Y593434D01*
X401220Y594227D01*
X398647Y596800D01*
X397255Y600161D01*
X397255Y619039D01*
X398647Y622400D01*
X401220Y624973D01*
X404581Y626365D01*
X408219Y626365D01*
X411580Y624973D01*
X414153Y622400D01*
X415545Y619039D01*
X415545Y600161D01*
X414153Y596800D01*
X411580Y594227D01*
X409665Y593434D01*
X409565Y593372D01*
X409465Y593313D01*
X409461Y593308D01*
X409456Y593304D01*
X409381Y593214D01*
X409305Y593126D01*
X409303Y593120D01*
X409299Y593115D01*
X409257Y593007D01*
X409213Y592897D01*
X409212Y592890D01*
X409211Y592885D01*
X409210Y592867D01*
X409195Y592731D01*
X409195Y580502D01*
X378938Y550245D01*
X378885Y550171D01*
X378825Y550102D01*
X378813Y550072D01*
X378794Y550046D01*
X378767Y549959D01*
X378733Y549874D01*
X378729Y549833D01*
X378722Y549811D01*
X378723Y549778D01*
X378715Y549707D01*
X378715Y542141D01*
X378730Y542045D01*
X378740Y541948D01*
X378750Y541924D01*
X378754Y541898D01*
X378800Y541813D01*
X378840Y541723D01*
X378857Y541704D01*
X378870Y541681D01*
X378940Y541614D01*
X379006Y541542D01*
X379029Y541530D01*
X379048Y541512D01*
X379136Y541471D01*
X379222Y541424D01*
X379247Y541419D01*
X379271Y541408D01*
X379368Y541397D01*
X379464Y541380D01*
X379490Y541384D01*
X379515Y541381D01*
X379611Y541402D01*
X379707Y541416D01*
X379730Y541428D01*
X379756Y541433D01*
X379839Y541483D01*
X379926Y541527D01*
X379945Y541546D01*
X379967Y541559D01*
X380030Y541633D01*
X380098Y541703D01*
X380114Y541731D01*
X380127Y541746D01*
X380139Y541777D01*
X380179Y541850D01*
X380613Y542898D01*
X383186Y545471D01*
X386547Y546863D01*
X390185Y546863D01*
X393546Y545471D01*
X396119Y542898D01*
X397511Y539537D01*
X397511Y535899D01*
X396119Y532538D01*
X393546Y529965D01*
X390185Y528573D01*
X386547Y528573D01*
X383186Y529965D01*
X380613Y532538D01*
X380179Y533586D01*
X380128Y533669D01*
X380082Y533755D01*
X380064Y533773D01*
X380050Y533795D01*
X379974Y533857D01*
X379904Y533924D01*
X379880Y533935D01*
X379860Y533952D01*
X379769Y533987D01*
X379681Y534028D01*
X379655Y534031D01*
X379631Y534040D01*
X379533Y534044D01*
X379437Y534055D01*
X379411Y534050D01*
X379385Y534051D01*
X379291Y534024D01*
X379196Y534003D01*
X379174Y533989D01*
X379149Y533982D01*
X379069Y533927D01*
X378985Y533877D01*
X378968Y533857D01*
X378947Y533842D01*
X378888Y533764D01*
X378825Y533690D01*
X378815Y533665D01*
X378800Y533644D01*
X378770Y533552D01*
X378733Y533462D01*
X378730Y533429D01*
X378724Y533411D01*
X378724Y533378D01*
X378715Y533295D01*
X378715Y524114D01*
X376855Y522254D01*
X371482Y516882D01*
X371415Y516788D01*
X371344Y516693D01*
X371342Y516687D01*
X371339Y516682D01*
X371305Y516571D01*
X371268Y516459D01*
X371268Y516453D01*
X371266Y516447D01*
X371269Y516330D01*
X371271Y516214D01*
X371273Y516206D01*
X371273Y516201D01*
X371279Y516184D01*
X371317Y516052D01*
X372111Y514137D01*
X372111Y510499D01*
X370719Y507138D01*
X368146Y504565D01*
X364785Y503173D01*
X361147Y503173D01*
X357786Y504565D01*
X355213Y507138D01*
X353821Y510499D01*
X353821Y514137D01*
X355213Y517498D01*
X357786Y520071D01*
X361147Y521463D01*
X364785Y521463D01*
X366700Y520669D01*
X366766Y520654D01*
X366791Y520644D01*
X366824Y520640D01*
X366928Y520614D01*
X366934Y520615D01*
X366940Y520613D01*
X367056Y520624D01*
X367173Y520633D01*
X367178Y520636D01*
X367185Y520636D01*
X367292Y520684D01*
X367399Y520730D01*
X367405Y520734D01*
X367409Y520736D01*
X367423Y520749D01*
X367455Y520775D01*
X367466Y520780D01*
X367477Y520792D01*
X367530Y520834D01*
X372902Y526207D01*
X372949Y526271D01*
X372964Y526287D01*
X372967Y526294D01*
X373015Y526350D01*
X373027Y526380D01*
X373046Y526406D01*
X373073Y526493D01*
X373107Y526578D01*
X373111Y526619D01*
X373118Y526641D01*
X373117Y526674D01*
X373125Y526745D01*
X373125Y534521D01*
X373110Y534617D01*
X373100Y534714D01*
X373090Y534738D01*
X373086Y534764D01*
X373040Y534850D01*
X373000Y534939D01*
X372983Y534958D01*
X372970Y534981D01*
X372900Y535048D01*
X372834Y535120D01*
X372811Y535133D01*
X372792Y535151D01*
X372704Y535192D01*
X372618Y535239D01*
X372593Y535243D01*
X372569Y535254D01*
X372472Y535265D01*
X372376Y535282D01*
X372350Y535279D01*
X372325Y535282D01*
X372229Y535261D01*
X372133Y535247D01*
X372110Y535235D01*
X372084Y535229D01*
X372001Y535179D01*
X371914Y535135D01*
X371895Y535116D01*
X371873Y535103D01*
X371810Y535029D01*
X371742Y534960D01*
X371726Y534931D01*
X371713Y534916D01*
X371701Y534885D01*
X371661Y534813D01*
X370719Y532538D01*
X368146Y529965D01*
X364785Y528573D01*
X361147Y528573D01*
X357786Y529965D01*
X355213Y532538D01*
X354779Y533586D01*
X354728Y533669D01*
X354682Y533755D01*
X354664Y533773D01*
X354650Y533795D01*
X354574Y533857D01*
X354504Y533924D01*
X354480Y533935D01*
X354460Y533952D01*
X354369Y533987D01*
X354281Y534028D01*
X354255Y534031D01*
X354231Y534040D01*
X354133Y534044D01*
X354037Y534055D01*
X354011Y534050D01*
X353985Y534051D01*
X353891Y534024D01*
X353796Y534003D01*
X353774Y533989D01*
X353749Y533982D01*
X353669Y533927D01*
X353585Y533877D01*
X353568Y533857D01*
X353547Y533842D01*
X353488Y533764D01*
X353425Y533690D01*
X353415Y533665D01*
X353400Y533644D01*
X353370Y533552D01*
X353333Y533462D01*
X353330Y533429D01*
X353324Y533411D01*
X353324Y533378D01*
X353315Y533295D01*
X353315Y529535D01*
X353329Y529445D01*
X353337Y529354D01*
X353349Y529325D01*
X353354Y529293D01*
X353397Y529212D01*
X353433Y529128D01*
X353459Y529096D01*
X353470Y529075D01*
X353493Y529053D01*
X353538Y528997D01*
X355827Y526708D01*
X355827Y522312D01*
X352718Y519203D01*
X348322Y519203D01*
X345213Y522312D01*
X345213Y526708D01*
X347502Y528997D01*
X347555Y529071D01*
X347615Y529141D01*
X347627Y529171D01*
X347646Y529197D01*
X347673Y529284D01*
X347707Y529369D01*
X347711Y529410D01*
X347718Y529432D01*
X347717Y529464D01*
X347725Y529535D01*
X347725Y532105D01*
X347714Y532172D01*
X347713Y532240D01*
X347695Y532293D01*
X347686Y532348D01*
X347654Y532408D01*
X347631Y532472D01*
X347597Y532516D01*
X347570Y532565D01*
X347521Y532612D01*
X347479Y532665D01*
X347433Y532696D01*
X347392Y532734D01*
X347331Y532763D01*
X347274Y532800D01*
X347220Y532815D01*
X347169Y532838D01*
X347102Y532846D01*
X347036Y532863D01*
X346980Y532859D01*
X346925Y532865D01*
X346858Y532851D01*
X346791Y532846D01*
X346739Y532825D01*
X346684Y532813D01*
X346626Y532778D01*
X346563Y532752D01*
X346521Y532715D01*
X346473Y532687D01*
X346429Y532635D01*
X346378Y532591D01*
X346335Y532525D01*
X346313Y532500D01*
X346305Y532480D01*
X346286Y532450D01*
X346256Y532393D01*
X345316Y531099D01*
X344185Y529968D01*
X342891Y529028D01*
X341466Y528302D01*
X339945Y527807D01*
X339089Y527672D01*
X339089Y536956D01*
X339086Y536976D01*
X339088Y536995D01*
X339066Y537097D01*
X339049Y537199D01*
X339040Y537216D01*
X339036Y537236D01*
X338983Y537325D01*
X338934Y537416D01*
X338920Y537430D01*
X338910Y537447D01*
X338831Y537514D01*
X338756Y537585D01*
X338738Y537594D01*
X338723Y537607D01*
X338627Y537645D01*
X338533Y537689D01*
X338513Y537691D01*
X338495Y537699D01*
X338328Y537717D01*
X336804Y537717D01*
X336784Y537714D01*
X336765Y537716D01*
X336663Y537694D01*
X336561Y537677D01*
X336544Y537668D01*
X336524Y537664D01*
X336435Y537611D01*
X336344Y537562D01*
X336330Y537548D01*
X336313Y537538D01*
X336246Y537459D01*
X336175Y537384D01*
X336166Y537366D01*
X336153Y537351D01*
X336114Y537255D01*
X336071Y537161D01*
X336069Y537141D01*
X336061Y537123D01*
X336043Y536956D01*
X336043Y527672D01*
X335187Y527807D01*
X333666Y528302D01*
X332241Y529028D01*
X330947Y529968D01*
X329816Y531099D01*
X329292Y531820D01*
X329286Y531826D01*
X329282Y531833D01*
X329199Y531912D01*
X329117Y531993D01*
X329110Y531996D01*
X329104Y532002D01*
X329000Y532050D01*
X328896Y532101D01*
X328888Y532102D01*
X328881Y532106D01*
X328767Y532118D01*
X328652Y532133D01*
X328644Y532132D01*
X328637Y532133D01*
X328524Y532108D01*
X328411Y532086D01*
X328404Y532082D01*
X328396Y532080D01*
X328298Y532022D01*
X328197Y531964D01*
X328192Y531958D01*
X328185Y531954D01*
X328110Y531867D01*
X328033Y531781D01*
X328030Y531773D01*
X328025Y531767D01*
X327982Y531660D01*
X327937Y531555D01*
X327936Y531547D01*
X327933Y531539D01*
X327915Y531372D01*
X327915Y526237D01*
X327929Y526147D01*
X327937Y526056D01*
X327949Y526026D01*
X327954Y525994D01*
X327997Y525914D01*
X328033Y525830D01*
X328059Y525798D01*
X328070Y525777D01*
X328093Y525755D01*
X328138Y525699D01*
X333002Y520834D01*
X333091Y520771D01*
X333131Y520736D01*
X333145Y520730D01*
X333191Y520696D01*
X333197Y520694D01*
X333202Y520691D01*
X333313Y520657D01*
X333425Y520620D01*
X333431Y520620D01*
X333437Y520618D01*
X333554Y520621D01*
X333671Y520623D01*
X333678Y520625D01*
X333683Y520625D01*
X333700Y520631D01*
X333832Y520669D01*
X335747Y521463D01*
X339385Y521463D01*
X342746Y520071D01*
X345319Y517498D01*
X346711Y514137D01*
X346711Y510499D01*
X345319Y507138D01*
X342746Y504565D01*
X339385Y503173D01*
X335747Y503173D01*
X333832Y503967D01*
X333718Y503993D01*
X333605Y504022D01*
X333598Y504021D01*
X333592Y504023D01*
X333476Y504012D01*
X333359Y504003D01*
X333354Y504000D01*
X333347Y504000D01*
X333240Y503952D01*
X333133Y503906D01*
X333127Y503902D01*
X333123Y503900D01*
X333109Y503887D01*
X333002Y503802D01*
X301386Y472185D01*
X274523Y472185D01*
X274433Y472171D01*
X274342Y472163D01*
X274312Y472151D01*
X274280Y472146D01*
X274200Y472103D01*
X274116Y472067D01*
X274084Y472041D01*
X274063Y472030D01*
X274041Y472007D01*
X273985Y471962D01*
X192928Y390905D01*
X115773Y390905D01*
X115683Y390891D01*
X115592Y390883D01*
X115562Y390871D01*
X115530Y390866D01*
X115450Y390823D01*
X115366Y390787D01*
X115334Y390761D01*
X115313Y390750D01*
X115291Y390727D01*
X115235Y390682D01*
X108041Y383488D01*
X108029Y383472D01*
X108014Y383460D01*
X107957Y383372D01*
X107897Y383289D01*
X107891Y383270D01*
X107881Y383253D01*
X107855Y383152D01*
X107825Y383054D01*
X107825Y383034D01*
X107821Y383014D01*
X107829Y382911D01*
X107831Y382808D01*
X107838Y382789D01*
X107840Y382769D01*
X107880Y382674D01*
X107916Y382577D01*
X107928Y382561D01*
X107936Y382543D01*
X108041Y382412D01*
X108083Y382370D01*
X109475Y379009D01*
X109475Y360131D01*
X108083Y356770D01*
X105510Y354197D01*
X102149Y352805D01*
X98511Y352805D01*
X95150Y354197D01*
X92577Y356770D01*
X91185Y360131D01*
X91185Y379009D01*
X92577Y382370D01*
X95150Y384943D01*
X98511Y386335D01*
X102149Y386335D01*
X102268Y386285D01*
X102382Y386259D01*
X102495Y386230D01*
X102502Y386231D01*
X102508Y386229D01*
X102624Y386240D01*
X102741Y386249D01*
X102746Y386252D01*
X102753Y386252D01*
X102860Y386300D01*
X102967Y386345D01*
X102973Y386350D01*
X102977Y386352D01*
X102991Y386365D01*
X103098Y386450D01*
X113142Y396495D01*
X190297Y396495D01*
X190387Y396509D01*
X190478Y396517D01*
X190508Y396529D01*
X190540Y396534D01*
X190620Y396577D01*
X190704Y396613D01*
X190736Y396639D01*
X190757Y396650D01*
X190779Y396673D01*
X190835Y396718D01*
X271892Y477775D01*
X298755Y477775D01*
X298845Y477789D01*
X298936Y477797D01*
X298966Y477809D01*
X298998Y477814D01*
X299078Y477857D01*
X299162Y477893D01*
X299194Y477919D01*
X299215Y477930D01*
X299237Y477953D01*
X299293Y477998D01*
X329050Y507754D01*
X329117Y507848D01*
X329188Y507943D01*
X329190Y507949D01*
X329193Y507954D01*
X329227Y508065D01*
X329264Y508177D01*
X329264Y508183D01*
X329266Y508189D01*
X329263Y508306D01*
X329261Y508423D01*
X329259Y508430D01*
X329259Y508435D01*
X329253Y508452D01*
X329215Y508584D01*
X328421Y510499D01*
X328421Y514137D01*
X329215Y516052D01*
X329241Y516165D01*
X329270Y516279D01*
X329269Y516286D01*
X329271Y516292D01*
X329260Y516408D01*
X329251Y516525D01*
X329248Y516530D01*
X329248Y516537D01*
X329200Y516644D01*
X329154Y516751D01*
X329150Y516757D01*
X329148Y516761D01*
X329135Y516775D01*
X329050Y516882D01*
X322325Y523606D01*
X322325Y534521D01*
X322310Y534617D01*
X322300Y534714D01*
X322290Y534738D01*
X322286Y534764D01*
X322240Y534850D01*
X322200Y534939D01*
X322183Y534958D01*
X322170Y534981D01*
X322100Y535048D01*
X322034Y535120D01*
X322011Y535133D01*
X321992Y535151D01*
X321904Y535192D01*
X321818Y535239D01*
X321793Y535243D01*
X321769Y535254D01*
X321672Y535265D01*
X321576Y535282D01*
X321550Y535279D01*
X321525Y535282D01*
X321429Y535261D01*
X321333Y535247D01*
X321310Y535235D01*
X321284Y535229D01*
X321201Y535179D01*
X321114Y535135D01*
X321095Y535116D01*
X321073Y535103D01*
X321010Y535029D01*
X320942Y534960D01*
X320926Y534931D01*
X320913Y534916D01*
X320901Y534885D01*
X320861Y534813D01*
X319919Y532538D01*
X317346Y529965D01*
X313985Y528573D01*
X310347Y528573D01*
X306986Y529965D01*
X304413Y532538D01*
X303979Y533586D01*
X303928Y533669D01*
X303882Y533755D01*
X303863Y533773D01*
X303850Y533795D01*
X303775Y533857D01*
X303704Y533924D01*
X303680Y533935D01*
X303660Y533952D01*
X303569Y533987D01*
X303481Y534028D01*
X303455Y534031D01*
X303431Y534040D01*
X303333Y534044D01*
X303237Y534055D01*
X303211Y534050D01*
X303185Y534051D01*
X303091Y534024D01*
X302996Y534003D01*
X302974Y533989D01*
X302949Y533982D01*
X302869Y533927D01*
X302785Y533877D01*
X302768Y533857D01*
X302747Y533842D01*
X302688Y533764D01*
X302625Y533690D01*
X302615Y533665D01*
X302600Y533645D01*
X302570Y533552D01*
X302533Y533462D01*
X302530Y533429D01*
X302524Y533411D01*
X302524Y533378D01*
X302515Y533295D01*
X302515Y526237D01*
X302529Y526147D01*
X302537Y526056D01*
X302549Y526026D01*
X302554Y525994D01*
X302597Y525914D01*
X302633Y525830D01*
X302659Y525798D01*
X302670Y525777D01*
X302693Y525755D01*
X302738Y525699D01*
X302992Y525445D01*
X307602Y520834D01*
X307691Y520770D01*
X307731Y520736D01*
X307745Y520730D01*
X307791Y520696D01*
X307797Y520694D01*
X307802Y520691D01*
X307913Y520657D01*
X308025Y520620D01*
X308031Y520620D01*
X308037Y520618D01*
X308154Y520621D01*
X308270Y520623D01*
X308278Y520625D01*
X308283Y520625D01*
X308300Y520631D01*
X308432Y520669D01*
X310347Y521463D01*
X313985Y521463D01*
X317346Y520071D01*
X319919Y517498D01*
X321311Y514137D01*
X321311Y510499D01*
X319919Y507138D01*
X317346Y504565D01*
X314542Y503404D01*
X314442Y503342D01*
X314342Y503282D01*
X314338Y503278D01*
X314333Y503274D01*
X314258Y503184D01*
X314182Y503095D01*
X314180Y503090D01*
X314176Y503085D01*
X314134Y502976D01*
X314090Y502867D01*
X314089Y502860D01*
X314088Y502855D01*
X314087Y502837D01*
X314072Y502701D01*
X314072Y499349D01*
X297068Y482345D01*
X264363Y482345D01*
X264273Y482331D01*
X264182Y482323D01*
X264152Y482311D01*
X264120Y482306D01*
X264040Y482263D01*
X263956Y482227D01*
X263924Y482201D01*
X263903Y482190D01*
X263881Y482167D01*
X263825Y482122D01*
X181498Y399795D01*
X86563Y399795D01*
X86473Y399781D01*
X86382Y399773D01*
X86352Y399761D01*
X86320Y399756D01*
X86240Y399713D01*
X86156Y399677D01*
X86124Y399651D01*
X86103Y399640D01*
X86081Y399617D01*
X86025Y399572D01*
X79218Y392765D01*
X79165Y392691D01*
X79105Y392622D01*
X79093Y392592D01*
X79074Y392566D01*
X79047Y392479D01*
X79013Y392394D01*
X79009Y392353D01*
X79002Y392331D01*
X79003Y392298D01*
X78995Y392227D01*
X78995Y385913D01*
X79014Y385798D01*
X79031Y385682D01*
X79033Y385677D01*
X79034Y385670D01*
X79089Y385568D01*
X79142Y385463D01*
X79147Y385459D01*
X79150Y385453D01*
X79234Y385373D01*
X79318Y385291D01*
X79324Y385287D01*
X79328Y385284D01*
X79345Y385276D01*
X79465Y385210D01*
X80110Y384943D01*
X82683Y382370D01*
X84075Y379009D01*
X84075Y360131D01*
X82683Y356770D01*
X80110Y354197D01*
X76749Y352805D01*
X73111Y352805D01*
G37*
%LPD*%
%LPC*%
G36*
X315681Y427735D02*
X315681Y427735D01*
X312320Y429127D01*
X309747Y431700D01*
X308355Y435061D01*
X308355Y453939D01*
X309747Y457300D01*
X312320Y459873D01*
X314235Y460666D01*
X314335Y460728D01*
X314435Y460787D01*
X314439Y460792D01*
X314444Y460795D01*
X314519Y460886D01*
X314595Y460974D01*
X314597Y460980D01*
X314601Y460985D01*
X314643Y461093D01*
X314687Y461202D01*
X314688Y461210D01*
X314689Y461215D01*
X314690Y461233D01*
X314705Y461369D01*
X314705Y462168D01*
X350632Y498095D01*
X468427Y498095D01*
X468517Y498109D01*
X468608Y498117D01*
X468638Y498129D01*
X468670Y498134D01*
X468750Y498177D01*
X468834Y498213D01*
X468866Y498239D01*
X468887Y498250D01*
X468909Y498273D01*
X468965Y498318D01*
X475772Y505125D01*
X475825Y505199D01*
X475885Y505268D01*
X475897Y505298D01*
X475916Y505324D01*
X475943Y505411D01*
X475977Y505496D01*
X475981Y505537D01*
X475988Y505559D01*
X475987Y505592D01*
X475995Y505663D01*
X475995Y520588D01*
X482712Y527305D01*
X487382Y527305D01*
X487479Y527320D01*
X487576Y527330D01*
X487599Y527340D01*
X487625Y527344D01*
X487711Y527390D01*
X487800Y527430D01*
X487820Y527447D01*
X487843Y527460D01*
X487910Y527530D01*
X487981Y527596D01*
X487994Y527619D01*
X488012Y527638D01*
X488053Y527726D01*
X488100Y527812D01*
X488105Y527837D01*
X488116Y527861D01*
X488126Y527958D01*
X488144Y528054D01*
X488140Y528080D01*
X488143Y528105D01*
X488122Y528201D01*
X488108Y528297D01*
X488096Y528320D01*
X488090Y528346D01*
X488041Y528429D01*
X487996Y528516D01*
X487978Y528535D01*
X487964Y528557D01*
X487890Y528620D01*
X487821Y528688D01*
X487792Y528704D01*
X487777Y528717D01*
X487747Y528729D01*
X487674Y528769D01*
X484786Y529965D01*
X482884Y531867D01*
X482826Y531909D01*
X482774Y531958D01*
X482727Y531980D01*
X482685Y532011D01*
X482616Y532032D01*
X482551Y532062D01*
X482499Y532068D01*
X482449Y532083D01*
X482378Y532081D01*
X482307Y532089D01*
X482256Y532078D01*
X482204Y532077D01*
X482136Y532052D01*
X482066Y532037D01*
X482021Y532010D01*
X481973Y531992D01*
X481917Y531947D01*
X481855Y531911D01*
X481821Y531871D01*
X481781Y531839D01*
X481742Y531778D01*
X481695Y531724D01*
X481676Y531675D01*
X481648Y531632D01*
X481630Y531562D01*
X481603Y531496D01*
X481595Y531424D01*
X481587Y531393D01*
X481589Y531370D01*
X481585Y531329D01*
X481585Y529702D01*
X471388Y519505D01*
X471376Y519489D01*
X471361Y519477D01*
X471305Y519390D01*
X471244Y519306D01*
X471238Y519287D01*
X471228Y519270D01*
X471202Y519169D01*
X471172Y519071D01*
X471172Y519051D01*
X471168Y519031D01*
X471176Y518928D01*
X471178Y518825D01*
X471185Y518806D01*
X471187Y518786D01*
X471227Y518691D01*
X471263Y518594D01*
X471275Y518578D01*
X471283Y518560D01*
X471388Y518429D01*
X472319Y517498D01*
X473711Y514137D01*
X473711Y510499D01*
X472319Y507138D01*
X469746Y504565D01*
X466385Y503173D01*
X462747Y503173D01*
X459386Y504565D01*
X456813Y507138D01*
X455421Y510499D01*
X455421Y514137D01*
X456813Y517498D01*
X459386Y520071D01*
X462747Y521463D01*
X465125Y521463D01*
X465215Y521477D01*
X465306Y521485D01*
X465336Y521497D01*
X465368Y521502D01*
X465449Y521545D01*
X465532Y521581D01*
X465565Y521607D01*
X465585Y521618D01*
X465607Y521641D01*
X465663Y521686D01*
X475772Y531795D01*
X475825Y531869D01*
X475885Y531938D01*
X475897Y531968D01*
X475916Y531994D01*
X475943Y532081D01*
X475977Y532166D01*
X475981Y532207D01*
X475988Y532229D01*
X475987Y532262D01*
X475995Y532333D01*
X475995Y547258D01*
X487792Y559055D01*
X524307Y559055D01*
X524397Y559069D01*
X524488Y559077D01*
X524518Y559089D01*
X524550Y559094D01*
X524630Y559137D01*
X524714Y559173D01*
X524746Y559199D01*
X524767Y559210D01*
X524789Y559233D01*
X524845Y559278D01*
X536052Y570485D01*
X644957Y570485D01*
X645047Y570499D01*
X645138Y570507D01*
X645168Y570519D01*
X645200Y570524D01*
X645280Y570567D01*
X645364Y570603D01*
X645396Y570629D01*
X645417Y570640D01*
X645439Y570663D01*
X645495Y570708D01*
X657382Y582595D01*
X657435Y582669D01*
X657495Y582738D01*
X657507Y582768D01*
X657526Y582794D01*
X657553Y582881D01*
X657587Y582966D01*
X657591Y583007D01*
X657598Y583029D01*
X657597Y583062D01*
X657605Y583133D01*
X657605Y604575D01*
X657591Y604665D01*
X657583Y604756D01*
X657571Y604785D01*
X657566Y604817D01*
X657523Y604898D01*
X657487Y604982D01*
X657461Y605014D01*
X657450Y605035D01*
X657427Y605057D01*
X657382Y605113D01*
X655093Y607402D01*
X655093Y611798D01*
X658202Y614907D01*
X662598Y614907D01*
X665707Y611798D01*
X665707Y607402D01*
X663418Y605113D01*
X663365Y605039D01*
X663305Y604969D01*
X663293Y604939D01*
X663274Y604913D01*
X663247Y604826D01*
X663213Y604741D01*
X663209Y604700D01*
X663202Y604678D01*
X663203Y604646D01*
X663195Y604575D01*
X663195Y580502D01*
X647588Y564895D01*
X538683Y564895D01*
X538593Y564881D01*
X538502Y564873D01*
X538472Y564861D01*
X538440Y564856D01*
X538360Y564813D01*
X538276Y564777D01*
X538244Y564751D01*
X538223Y564740D01*
X538201Y564717D01*
X538145Y564672D01*
X526938Y553465D01*
X490423Y553465D01*
X490333Y553451D01*
X490242Y553443D01*
X490212Y553431D01*
X490180Y553426D01*
X490100Y553383D01*
X490016Y553347D01*
X489984Y553321D01*
X489963Y553310D01*
X489941Y553287D01*
X489885Y553242D01*
X481808Y545165D01*
X481755Y545091D01*
X481695Y545022D01*
X481683Y544992D01*
X481664Y544966D01*
X481637Y544879D01*
X481603Y544794D01*
X481599Y544753D01*
X481592Y544731D01*
X481593Y544698D01*
X481585Y544627D01*
X481585Y544107D01*
X481596Y544036D01*
X481598Y543965D01*
X481616Y543916D01*
X481624Y543864D01*
X481658Y543801D01*
X481683Y543734D01*
X481715Y543693D01*
X481740Y543647D01*
X481792Y543598D01*
X481836Y543542D01*
X481880Y543513D01*
X481918Y543478D01*
X481983Y543447D01*
X482043Y543409D01*
X482094Y543396D01*
X482141Y543374D01*
X482212Y543366D01*
X482282Y543349D01*
X482334Y543353D01*
X482385Y543347D01*
X482456Y543362D01*
X482527Y543368D01*
X482575Y543388D01*
X482626Y543399D01*
X482687Y543436D01*
X482753Y543464D01*
X482809Y543509D01*
X482837Y543525D01*
X482852Y543543D01*
X482884Y543569D01*
X484786Y545471D01*
X488147Y546863D01*
X491785Y546863D01*
X495146Y545471D01*
X497719Y542898D01*
X499111Y539537D01*
X499111Y535899D01*
X497719Y532538D01*
X495146Y529965D01*
X492258Y528769D01*
X492175Y528718D01*
X492089Y528672D01*
X492071Y528653D01*
X492049Y528640D01*
X491987Y528565D01*
X491920Y528494D01*
X491909Y528470D01*
X491892Y528450D01*
X491857Y528359D01*
X491816Y528271D01*
X491814Y528245D01*
X491804Y528221D01*
X491800Y528123D01*
X491789Y528027D01*
X491795Y528001D01*
X491794Y527975D01*
X491821Y527881D01*
X491842Y527786D01*
X491855Y527764D01*
X491862Y527739D01*
X491918Y527659D01*
X491968Y527575D01*
X491988Y527558D01*
X492003Y527537D01*
X492081Y527478D01*
X492155Y527415D01*
X492179Y527405D01*
X492200Y527390D01*
X492292Y527360D01*
X492383Y527323D01*
X492415Y527320D01*
X492434Y527314D01*
X492467Y527314D01*
X492550Y527305D01*
X510251Y527305D01*
X510318Y527316D01*
X510386Y527317D01*
X510439Y527335D01*
X510494Y527344D01*
X510554Y527376D01*
X510618Y527399D01*
X510662Y527433D01*
X510712Y527460D01*
X510758Y527509D01*
X510812Y527550D01*
X510842Y527597D01*
X510881Y527638D01*
X510909Y527699D01*
X510947Y527756D01*
X510961Y527810D01*
X510985Y527861D01*
X510992Y527928D01*
X511009Y527994D01*
X511005Y528050D01*
X511012Y528105D01*
X510997Y528172D01*
X510993Y528239D01*
X510971Y528291D01*
X510959Y528346D01*
X510925Y528404D01*
X510899Y528467D01*
X510862Y528509D01*
X510833Y528557D01*
X510782Y528601D01*
X510737Y528652D01*
X510671Y528695D01*
X510646Y528717D01*
X510627Y528725D01*
X510597Y528744D01*
X510041Y529028D01*
X508747Y529968D01*
X507616Y531099D01*
X506676Y532393D01*
X505950Y533818D01*
X505455Y535339D01*
X505320Y536195D01*
X514604Y536195D01*
X514624Y536198D01*
X514643Y536196D01*
X514745Y536218D01*
X514847Y536235D01*
X514864Y536244D01*
X514884Y536248D01*
X514973Y536301D01*
X515064Y536350D01*
X515078Y536364D01*
X515095Y536374D01*
X515162Y536453D01*
X515233Y536528D01*
X515242Y536546D01*
X515255Y536561D01*
X515293Y536657D01*
X515337Y536751D01*
X515339Y536771D01*
X515347Y536789D01*
X515365Y536956D01*
X515365Y537719D01*
X515367Y537719D01*
X515367Y536956D01*
X515370Y536936D01*
X515368Y536917D01*
X515390Y536815D01*
X515407Y536713D01*
X515416Y536696D01*
X515420Y536676D01*
X515473Y536587D01*
X515522Y536496D01*
X515536Y536482D01*
X515546Y536465D01*
X515625Y536398D01*
X515700Y536327D01*
X515718Y536318D01*
X515733Y536305D01*
X515829Y536266D01*
X515923Y536223D01*
X515943Y536221D01*
X515961Y536213D01*
X516128Y536195D01*
X525412Y536195D01*
X525277Y535339D01*
X524782Y533818D01*
X524056Y532393D01*
X523116Y531099D01*
X521985Y529968D01*
X520691Y529028D01*
X520135Y528744D01*
X520080Y528704D01*
X520020Y528672D01*
X519982Y528632D01*
X519937Y528599D01*
X519898Y528543D01*
X519851Y528494D01*
X519827Y528443D01*
X519795Y528397D01*
X519776Y528333D01*
X519747Y528271D01*
X519741Y528215D01*
X519725Y528162D01*
X519728Y528094D01*
X519720Y528027D01*
X519732Y527972D01*
X519734Y527916D01*
X519758Y527852D01*
X519773Y527786D01*
X519801Y527738D01*
X519821Y527686D01*
X519864Y527633D01*
X519899Y527575D01*
X519941Y527539D01*
X519977Y527495D01*
X520034Y527459D01*
X520086Y527415D01*
X520138Y527394D01*
X520185Y527364D01*
X520251Y527349D01*
X520314Y527323D01*
X520392Y527315D01*
X520424Y527307D01*
X520445Y527309D01*
X520481Y527305D01*
X538183Y527305D01*
X538279Y527320D01*
X538376Y527330D01*
X538399Y527340D01*
X538425Y527344D01*
X538511Y527390D01*
X538600Y527430D01*
X538620Y527447D01*
X538643Y527460D01*
X538710Y527530D01*
X538781Y527596D01*
X538794Y527619D01*
X538812Y527638D01*
X538853Y527726D01*
X538900Y527812D01*
X538905Y527837D01*
X538916Y527861D01*
X538926Y527958D01*
X538944Y528054D01*
X538940Y528080D01*
X538943Y528105D01*
X538922Y528201D01*
X538908Y528297D01*
X538896Y528320D01*
X538890Y528346D01*
X538841Y528429D01*
X538796Y528516D01*
X538778Y528535D01*
X538764Y528557D01*
X538690Y528620D01*
X538621Y528688D01*
X538592Y528704D01*
X538577Y528717D01*
X538547Y528729D01*
X538474Y528769D01*
X535586Y529965D01*
X533013Y532538D01*
X531621Y535899D01*
X531621Y539537D01*
X533013Y542898D01*
X535586Y545471D01*
X537501Y546264D01*
X537601Y546326D01*
X537701Y546385D01*
X537705Y546390D01*
X537710Y546393D01*
X537785Y546484D01*
X537861Y546572D01*
X537863Y546578D01*
X537867Y546583D01*
X537909Y546691D01*
X537953Y546800D01*
X537954Y546808D01*
X537955Y546813D01*
X537956Y546831D01*
X537971Y546967D01*
X537971Y548274D01*
X544942Y555245D01*
X572658Y555245D01*
X583185Y544718D01*
X583185Y544107D01*
X583196Y544036D01*
X583198Y543965D01*
X583216Y543916D01*
X583224Y543864D01*
X583258Y543801D01*
X583283Y543734D01*
X583315Y543693D01*
X583340Y543647D01*
X583392Y543598D01*
X583436Y543542D01*
X583480Y543513D01*
X583518Y543478D01*
X583583Y543447D01*
X583643Y543409D01*
X583694Y543396D01*
X583741Y543374D01*
X583812Y543366D01*
X583882Y543349D01*
X583934Y543353D01*
X583985Y543347D01*
X584056Y543362D01*
X584127Y543368D01*
X584175Y543388D01*
X584226Y543399D01*
X584287Y543436D01*
X584353Y543464D01*
X584409Y543509D01*
X584437Y543525D01*
X584452Y543543D01*
X584484Y543569D01*
X586386Y545471D01*
X589747Y546863D01*
X593385Y546863D01*
X596746Y545471D01*
X599319Y542898D01*
X600711Y539537D01*
X600711Y535899D01*
X599319Y532538D01*
X596746Y529965D01*
X593385Y528573D01*
X589747Y528573D01*
X586386Y529965D01*
X584484Y531867D01*
X584426Y531909D01*
X584374Y531958D01*
X584327Y531980D01*
X584285Y532011D01*
X584216Y532032D01*
X584151Y532062D01*
X584099Y532068D01*
X584049Y532083D01*
X583978Y532081D01*
X583907Y532089D01*
X583856Y532078D01*
X583804Y532077D01*
X583736Y532052D01*
X583666Y532037D01*
X583621Y532010D01*
X583573Y531992D01*
X583517Y531947D01*
X583455Y531911D01*
X583421Y531871D01*
X583381Y531839D01*
X583342Y531778D01*
X583295Y531724D01*
X583276Y531675D01*
X583248Y531632D01*
X583230Y531562D01*
X583203Y531496D01*
X583195Y531424D01*
X583187Y531393D01*
X583189Y531370D01*
X583185Y531329D01*
X583185Y520144D01*
X583196Y520073D01*
X583198Y520002D01*
X583216Y519953D01*
X583224Y519901D01*
X583258Y519838D01*
X583283Y519771D01*
X583315Y519730D01*
X583340Y519684D01*
X583392Y519634D01*
X583436Y519579D01*
X583480Y519550D01*
X583518Y519514D01*
X583583Y519484D01*
X583643Y519446D01*
X583694Y519433D01*
X583741Y519411D01*
X583812Y519403D01*
X583882Y519385D01*
X583934Y519390D01*
X583985Y519384D01*
X584056Y519399D01*
X584127Y519405D01*
X584175Y519425D01*
X584226Y519436D01*
X584287Y519473D01*
X584353Y519501D01*
X584409Y519546D01*
X584437Y519562D01*
X584452Y519580D01*
X584484Y519606D01*
X584947Y520068D01*
X586241Y521008D01*
X587666Y521734D01*
X589187Y522229D01*
X590043Y522364D01*
X590043Y513080D01*
X590046Y513060D01*
X590044Y513041D01*
X590066Y512939D01*
X590083Y512837D01*
X590092Y512820D01*
X590096Y512800D01*
X590149Y512711D01*
X590198Y512620D01*
X590212Y512606D01*
X590222Y512589D01*
X590301Y512522D01*
X590376Y512451D01*
X590394Y512442D01*
X590409Y512429D01*
X590505Y512391D01*
X590599Y512347D01*
X590619Y512345D01*
X590637Y512337D01*
X590804Y512319D01*
X591567Y512319D01*
X591567Y512317D01*
X590804Y512317D01*
X590784Y512314D01*
X590765Y512316D01*
X590663Y512294D01*
X590561Y512277D01*
X590544Y512268D01*
X590524Y512264D01*
X590435Y512211D01*
X590344Y512162D01*
X590330Y512148D01*
X590313Y512138D01*
X590246Y512059D01*
X590175Y511984D01*
X590166Y511966D01*
X590153Y511951D01*
X590114Y511855D01*
X590071Y511761D01*
X590069Y511741D01*
X590061Y511723D01*
X590043Y511556D01*
X590043Y502272D01*
X589187Y502407D01*
X587666Y502902D01*
X586241Y503628D01*
X584947Y504568D01*
X584484Y505030D01*
X584426Y505072D01*
X584374Y505122D01*
X584327Y505143D01*
X584285Y505174D01*
X584216Y505195D01*
X584151Y505225D01*
X584099Y505231D01*
X584049Y505246D01*
X583978Y505244D01*
X583907Y505252D01*
X583856Y505241D01*
X583804Y505240D01*
X583736Y505215D01*
X583666Y505200D01*
X583621Y505173D01*
X583573Y505155D01*
X583517Y505111D01*
X583455Y505074D01*
X583421Y505034D01*
X583381Y505002D01*
X583342Y504941D01*
X583295Y504887D01*
X583276Y504838D01*
X583248Y504795D01*
X583230Y504725D01*
X583203Y504659D01*
X583195Y504587D01*
X583187Y504556D01*
X583189Y504533D01*
X583185Y504492D01*
X583185Y501595D01*
X583189Y501570D01*
X583187Y501555D01*
X583200Y501494D01*
X583207Y501414D01*
X583219Y501385D01*
X583224Y501353D01*
X583236Y501332D01*
X583239Y501314D01*
X583274Y501257D01*
X583303Y501188D01*
X583329Y501156D01*
X583340Y501135D01*
X583355Y501120D01*
X583366Y501103D01*
X583383Y501089D01*
X583408Y501057D01*
X585697Y498768D01*
X585697Y494372D01*
X582588Y491263D01*
X578192Y491263D01*
X575083Y494372D01*
X575083Y498768D01*
X577372Y501057D01*
X577414Y501116D01*
X577462Y501166D01*
X577470Y501184D01*
X577485Y501201D01*
X577497Y501231D01*
X577516Y501257D01*
X577538Y501330D01*
X577566Y501389D01*
X577568Y501406D01*
X577577Y501429D01*
X577581Y501470D01*
X577588Y501492D01*
X577587Y501524D01*
X577595Y501595D01*
X577595Y542087D01*
X577581Y542177D01*
X577573Y542268D01*
X577561Y542298D01*
X577556Y542330D01*
X577513Y542410D01*
X577477Y542494D01*
X577451Y542526D01*
X577440Y542547D01*
X577417Y542569D01*
X577372Y542625D01*
X570565Y549432D01*
X570491Y549485D01*
X570422Y549545D01*
X570392Y549557D01*
X570366Y549576D01*
X570279Y549603D01*
X570194Y549637D01*
X570153Y549641D01*
X570131Y549648D01*
X570098Y549647D01*
X570027Y549655D01*
X547573Y549655D01*
X547483Y549641D01*
X547392Y549633D01*
X547362Y549621D01*
X547330Y549616D01*
X547250Y549573D01*
X547166Y549537D01*
X547134Y549511D01*
X547113Y549500D01*
X547091Y549477D01*
X547035Y549432D01*
X544720Y547118D01*
X544693Y547080D01*
X544659Y547049D01*
X544622Y546981D01*
X544576Y546918D01*
X544563Y546874D01*
X544541Y546834D01*
X544527Y546757D01*
X544504Y546683D01*
X544505Y546637D01*
X544497Y546592D01*
X544508Y546515D01*
X544510Y546437D01*
X544526Y546394D01*
X544533Y546348D01*
X544568Y546279D01*
X544595Y546206D01*
X544624Y546170D01*
X544644Y546129D01*
X544700Y546075D01*
X544749Y546014D01*
X544787Y545989D01*
X544820Y545957D01*
X544940Y545891D01*
X544956Y545881D01*
X544960Y545880D01*
X544967Y545876D01*
X545946Y545471D01*
X548519Y542898D01*
X549911Y539537D01*
X549911Y535899D01*
X548519Y532538D01*
X545946Y529965D01*
X543058Y528769D01*
X542975Y528718D01*
X542889Y528672D01*
X542871Y528654D01*
X542849Y528640D01*
X542787Y528564D01*
X542720Y528494D01*
X542709Y528470D01*
X542692Y528450D01*
X542657Y528359D01*
X542616Y528271D01*
X542613Y528245D01*
X542604Y528221D01*
X542600Y528123D01*
X542589Y528027D01*
X542595Y528001D01*
X542594Y527975D01*
X542621Y527881D01*
X542642Y527786D01*
X542655Y527764D01*
X542662Y527739D01*
X542718Y527659D01*
X542768Y527575D01*
X542788Y527558D01*
X542802Y527537D01*
X542881Y527478D01*
X542955Y527415D01*
X542979Y527405D01*
X543000Y527390D01*
X543092Y527360D01*
X543183Y527323D01*
X543215Y527320D01*
X543234Y527314D01*
X543267Y527314D01*
X543349Y527305D01*
X556057Y527305D01*
X556147Y527319D01*
X556238Y527327D01*
X556268Y527339D01*
X556300Y527344D01*
X556380Y527387D01*
X556464Y527423D01*
X556496Y527449D01*
X556517Y527460D01*
X556539Y527483D01*
X556595Y527528D01*
X559471Y530404D01*
X559483Y530420D01*
X559498Y530432D01*
X559555Y530519D01*
X559615Y530603D01*
X559621Y530622D01*
X559631Y530639D01*
X559657Y530740D01*
X559687Y530838D01*
X559687Y530858D01*
X559691Y530878D01*
X559683Y530981D01*
X559681Y531084D01*
X559674Y531103D01*
X559672Y531123D01*
X559632Y531218D01*
X559596Y531315D01*
X559584Y531331D01*
X559576Y531349D01*
X559471Y531480D01*
X558413Y532538D01*
X557021Y535899D01*
X557021Y539537D01*
X558413Y542898D01*
X560986Y545471D01*
X564347Y546863D01*
X567985Y546863D01*
X571346Y545471D01*
X573919Y542898D01*
X575311Y539537D01*
X575311Y535899D01*
X573919Y532538D01*
X571346Y529965D01*
X567985Y528573D01*
X565861Y528573D01*
X565771Y528559D01*
X565680Y528551D01*
X565650Y528539D01*
X565618Y528534D01*
X565538Y528491D01*
X565454Y528455D01*
X565422Y528429D01*
X565401Y528418D01*
X565379Y528395D01*
X565323Y528350D01*
X558688Y521715D01*
X545802Y521715D01*
X545706Y521700D01*
X545609Y521690D01*
X545585Y521680D01*
X545560Y521676D01*
X545474Y521630D01*
X545385Y521590D01*
X545365Y521573D01*
X545342Y521560D01*
X545275Y521490D01*
X545203Y521424D01*
X545191Y521401D01*
X545173Y521382D01*
X545132Y521294D01*
X545085Y521208D01*
X545080Y521183D01*
X545069Y521159D01*
X545059Y521062D01*
X545041Y520966D01*
X545045Y520940D01*
X545042Y520915D01*
X545063Y520820D01*
X545077Y520723D01*
X545089Y520700D01*
X545094Y520674D01*
X545144Y520591D01*
X545189Y520504D01*
X545207Y520485D01*
X545221Y520463D01*
X545295Y520400D01*
X545364Y520332D01*
X545393Y520316D01*
X545407Y520303D01*
X545438Y520291D01*
X545511Y520251D01*
X545946Y520071D01*
X548519Y517498D01*
X549911Y514137D01*
X549911Y510499D01*
X548519Y507138D01*
X545946Y504565D01*
X542585Y503173D01*
X538947Y503173D01*
X535586Y504565D01*
X533013Y507138D01*
X531621Y510499D01*
X531621Y514137D01*
X533013Y517498D01*
X535586Y520071D01*
X536021Y520251D01*
X536104Y520302D01*
X536190Y520348D01*
X536208Y520367D01*
X536230Y520380D01*
X536292Y520455D01*
X536359Y520526D01*
X536370Y520550D01*
X536387Y520570D01*
X536422Y520661D01*
X536463Y520749D01*
X536466Y520775D01*
X536475Y520799D01*
X536479Y520897D01*
X536490Y520993D01*
X536484Y521019D01*
X536485Y521045D01*
X536458Y521139D01*
X536438Y521234D01*
X536424Y521256D01*
X536417Y521281D01*
X536361Y521361D01*
X536311Y521445D01*
X536292Y521462D01*
X536277Y521483D01*
X536199Y521541D01*
X536125Y521605D01*
X536100Y521615D01*
X536079Y521630D01*
X535987Y521660D01*
X535896Y521697D01*
X535864Y521700D01*
X535845Y521706D01*
X535812Y521706D01*
X535730Y521715D01*
X520402Y521715D01*
X520306Y521700D01*
X520209Y521690D01*
X520185Y521680D01*
X520160Y521676D01*
X520074Y521630D01*
X519985Y521590D01*
X519965Y521573D01*
X519942Y521560D01*
X519875Y521490D01*
X519803Y521424D01*
X519791Y521401D01*
X519773Y521382D01*
X519732Y521294D01*
X519685Y521208D01*
X519680Y521183D01*
X519669Y521159D01*
X519659Y521062D01*
X519641Y520966D01*
X519645Y520940D01*
X519642Y520915D01*
X519663Y520820D01*
X519677Y520723D01*
X519689Y520700D01*
X519694Y520674D01*
X519744Y520591D01*
X519789Y520504D01*
X519807Y520485D01*
X519821Y520463D01*
X519895Y520400D01*
X519964Y520332D01*
X519993Y520316D01*
X520007Y520303D01*
X520038Y520291D01*
X520111Y520251D01*
X520546Y520071D01*
X523119Y517498D01*
X524511Y514137D01*
X524511Y510499D01*
X523119Y507138D01*
X520546Y504565D01*
X518631Y503772D01*
X518531Y503711D01*
X518431Y503651D01*
X518427Y503646D01*
X518422Y503642D01*
X518347Y503553D01*
X518271Y503464D01*
X518269Y503458D01*
X518265Y503453D01*
X518223Y503345D01*
X518179Y503235D01*
X518178Y503228D01*
X518177Y503223D01*
X518176Y503205D01*
X518161Y503069D01*
X518161Y501508D01*
X496458Y479805D01*
X369773Y479805D01*
X369683Y479791D01*
X369592Y479783D01*
X369562Y479771D01*
X369530Y479766D01*
X369450Y479723D01*
X369366Y479687D01*
X369334Y479661D01*
X369313Y479650D01*
X369291Y479627D01*
X369235Y479582D01*
X349341Y459688D01*
X349329Y459672D01*
X349314Y459660D01*
X349257Y459572D01*
X349197Y459489D01*
X349191Y459470D01*
X349181Y459453D01*
X349155Y459352D01*
X349125Y459254D01*
X349125Y459234D01*
X349121Y459214D01*
X349129Y459111D01*
X349131Y459008D01*
X349138Y458989D01*
X349140Y458969D01*
X349180Y458874D01*
X349216Y458777D01*
X349228Y458761D01*
X349236Y458743D01*
X349341Y458612D01*
X350653Y457300D01*
X352045Y453939D01*
X352045Y435061D01*
X350653Y431700D01*
X348080Y429127D01*
X344719Y427735D01*
X341081Y427735D01*
X337720Y429127D01*
X335147Y431700D01*
X333755Y435061D01*
X333755Y453939D01*
X335147Y457300D01*
X337720Y459873D01*
X341081Y461265D01*
X342697Y461265D01*
X342787Y461279D01*
X342878Y461287D01*
X342908Y461299D01*
X342940Y461304D01*
X343020Y461347D01*
X343104Y461383D01*
X343136Y461409D01*
X343157Y461420D01*
X343179Y461443D01*
X343235Y461488D01*
X367142Y485395D01*
X493827Y485395D01*
X493917Y485409D01*
X494008Y485417D01*
X494038Y485429D01*
X494070Y485434D01*
X494150Y485477D01*
X494234Y485513D01*
X494266Y485539D01*
X494287Y485550D01*
X494309Y485573D01*
X494365Y485618D01*
X511592Y502844D01*
X511618Y502881D01*
X511652Y502912D01*
X511690Y502981D01*
X511735Y503044D01*
X511749Y503087D01*
X511771Y503128D01*
X511785Y503204D01*
X511807Y503279D01*
X511806Y503325D01*
X511814Y503370D01*
X511803Y503447D01*
X511801Y503525D01*
X511785Y503568D01*
X511779Y503613D01*
X511743Y503682D01*
X511717Y503756D01*
X511688Y503792D01*
X511667Y503832D01*
X511612Y503887D01*
X511563Y503948D01*
X511524Y503973D01*
X511492Y504005D01*
X511372Y504071D01*
X511356Y504081D01*
X511351Y504082D01*
X511345Y504086D01*
X510186Y504565D01*
X507613Y507138D01*
X506221Y510499D01*
X506221Y514137D01*
X507613Y517498D01*
X510186Y520071D01*
X510621Y520251D01*
X510704Y520302D01*
X510790Y520348D01*
X510808Y520367D01*
X510830Y520380D01*
X510892Y520455D01*
X510959Y520526D01*
X510970Y520550D01*
X510987Y520570D01*
X511022Y520661D01*
X511063Y520749D01*
X511066Y520775D01*
X511075Y520799D01*
X511079Y520897D01*
X511090Y520993D01*
X511084Y521019D01*
X511085Y521045D01*
X511058Y521139D01*
X511038Y521234D01*
X511024Y521256D01*
X511017Y521281D01*
X510961Y521361D01*
X510911Y521445D01*
X510892Y521462D01*
X510877Y521483D01*
X510799Y521541D01*
X510725Y521605D01*
X510700Y521615D01*
X510679Y521630D01*
X510587Y521660D01*
X510496Y521697D01*
X510464Y521700D01*
X510445Y521706D01*
X510412Y521706D01*
X510330Y521715D01*
X495002Y521715D01*
X494906Y521700D01*
X494809Y521690D01*
X494785Y521680D01*
X494760Y521676D01*
X494674Y521630D01*
X494585Y521590D01*
X494565Y521573D01*
X494542Y521560D01*
X494475Y521490D01*
X494403Y521424D01*
X494391Y521401D01*
X494373Y521382D01*
X494332Y521294D01*
X494285Y521208D01*
X494280Y521183D01*
X494269Y521159D01*
X494259Y521062D01*
X494241Y520966D01*
X494245Y520940D01*
X494242Y520915D01*
X494263Y520820D01*
X494277Y520723D01*
X494289Y520700D01*
X494294Y520674D01*
X494344Y520591D01*
X494389Y520504D01*
X494407Y520485D01*
X494421Y520463D01*
X494495Y520400D01*
X494564Y520332D01*
X494593Y520316D01*
X494607Y520303D01*
X494638Y520291D01*
X494711Y520251D01*
X495146Y520071D01*
X497719Y517498D01*
X499111Y514137D01*
X499111Y510499D01*
X497719Y507138D01*
X495146Y504565D01*
X491785Y503173D01*
X488147Y503173D01*
X484786Y504565D01*
X482884Y506467D01*
X482826Y506509D01*
X482774Y506558D01*
X482727Y506580D01*
X482685Y506611D01*
X482616Y506632D01*
X482551Y506662D01*
X482499Y506668D01*
X482449Y506683D01*
X482378Y506681D01*
X482307Y506689D01*
X482256Y506678D01*
X482204Y506677D01*
X482136Y506652D01*
X482066Y506637D01*
X482021Y506610D01*
X481973Y506592D01*
X481917Y506547D01*
X481855Y506511D01*
X481821Y506471D01*
X481781Y506439D01*
X481742Y506378D01*
X481695Y506324D01*
X481676Y506275D01*
X481648Y506232D01*
X481630Y506162D01*
X481603Y506096D01*
X481595Y506024D01*
X481587Y505993D01*
X481589Y505970D01*
X481585Y505929D01*
X481585Y503032D01*
X471058Y492505D01*
X353263Y492505D01*
X353173Y492491D01*
X353082Y492483D01*
X353052Y492471D01*
X353020Y492466D01*
X352940Y492423D01*
X352856Y492387D01*
X352824Y492361D01*
X352803Y492350D01*
X352781Y492327D01*
X352725Y492282D01*
X321813Y461371D01*
X321786Y461334D01*
X321753Y461303D01*
X321715Y461234D01*
X321670Y461171D01*
X321656Y461127D01*
X321634Y461087D01*
X321620Y461010D01*
X321597Y460936D01*
X321599Y460890D01*
X321590Y460845D01*
X321602Y460768D01*
X321604Y460690D01*
X321619Y460647D01*
X321626Y460602D01*
X321661Y460532D01*
X321688Y460459D01*
X321717Y460423D01*
X321738Y460382D01*
X321793Y460328D01*
X321842Y460267D01*
X321881Y460242D01*
X321913Y460210D01*
X322033Y460144D01*
X322049Y460134D01*
X322054Y460133D01*
X322060Y460129D01*
X322680Y459873D01*
X325253Y457300D01*
X326645Y453939D01*
X326645Y435061D01*
X325253Y431700D01*
X322680Y429127D01*
X319319Y427735D01*
X315681Y427735D01*
G37*
%LPD*%
%LPC*%
G36*
X670927Y434847D02*
X670927Y434847D01*
X666913Y436510D01*
X663840Y439583D01*
X662177Y443597D01*
X662177Y447943D01*
X663840Y451957D01*
X666913Y455030D01*
X669835Y456240D01*
X669935Y456302D01*
X670035Y456362D01*
X670039Y456367D01*
X670044Y456370D01*
X670119Y456460D01*
X670195Y456549D01*
X670197Y456555D01*
X670201Y456559D01*
X670243Y456668D01*
X670287Y456777D01*
X670288Y456785D01*
X670289Y456789D01*
X670290Y456807D01*
X670305Y456944D01*
X670305Y460898D01*
X710042Y500635D01*
X719887Y500635D01*
X719977Y500649D01*
X720068Y500657D01*
X720098Y500669D01*
X720130Y500674D01*
X720210Y500717D01*
X720294Y500753D01*
X720326Y500779D01*
X720347Y500790D01*
X720369Y500813D01*
X720425Y500858D01*
X721701Y502133D01*
X721757Y502212D01*
X721820Y502287D01*
X721829Y502312D01*
X721844Y502333D01*
X721873Y502426D01*
X721908Y502517D01*
X721909Y502543D01*
X721917Y502568D01*
X721914Y502665D01*
X721918Y502763D01*
X721911Y502788D01*
X721910Y502814D01*
X721877Y502905D01*
X721850Y502999D01*
X721835Y503020D01*
X721826Y503045D01*
X721765Y503121D01*
X721709Y503201D01*
X721688Y503216D01*
X721672Y503237D01*
X721590Y503290D01*
X721512Y503348D01*
X721487Y503356D01*
X721465Y503370D01*
X721371Y503394D01*
X721278Y503424D01*
X721252Y503423D01*
X721227Y503430D01*
X721130Y503422D01*
X721032Y503421D01*
X721001Y503412D01*
X720981Y503411D01*
X720951Y503398D01*
X720871Y503375D01*
X720385Y503173D01*
X716747Y503173D01*
X713386Y504565D01*
X710813Y507138D01*
X709421Y510499D01*
X709421Y514137D01*
X710813Y517498D01*
X713386Y520071D01*
X716747Y521463D01*
X720385Y521463D01*
X723746Y520071D01*
X726319Y517498D01*
X727711Y514137D01*
X727711Y510499D01*
X727509Y510013D01*
X727487Y509918D01*
X727458Y509825D01*
X727459Y509799D01*
X727453Y509773D01*
X727462Y509677D01*
X727465Y509579D01*
X727474Y509555D01*
X727476Y509529D01*
X727516Y509440D01*
X727549Y509348D01*
X727566Y509328D01*
X727576Y509304D01*
X727642Y509232D01*
X727703Y509156D01*
X727725Y509142D01*
X727743Y509123D01*
X727828Y509076D01*
X727910Y509023D01*
X727935Y509017D01*
X727958Y509004D01*
X728054Y508987D01*
X728148Y508963D01*
X728174Y508965D01*
X728200Y508960D01*
X728297Y508975D01*
X728394Y508982D01*
X728418Y508992D01*
X728444Y508996D01*
X728530Y509040D01*
X728620Y509079D01*
X728645Y509099D01*
X728663Y509108D01*
X728686Y509131D01*
X728751Y509183D01*
X734680Y515113D01*
X734717Y515113D01*
X734832Y515132D01*
X734948Y515149D01*
X734953Y515151D01*
X734960Y515152D01*
X735062Y515207D01*
X735167Y515260D01*
X735171Y515265D01*
X735177Y515268D01*
X735257Y515352D01*
X735339Y515436D01*
X735343Y515442D01*
X735346Y515446D01*
X735354Y515463D01*
X735420Y515583D01*
X736213Y517498D01*
X738786Y520071D01*
X742147Y521463D01*
X745785Y521463D01*
X749146Y520071D01*
X751719Y517498D01*
X753111Y514137D01*
X753111Y510499D01*
X751719Y507138D01*
X749146Y504565D01*
X747843Y504026D01*
X747760Y503974D01*
X747674Y503929D01*
X747656Y503910D01*
X747634Y503896D01*
X747572Y503821D01*
X747505Y503750D01*
X747494Y503727D01*
X747477Y503707D01*
X747442Y503616D01*
X747401Y503527D01*
X747398Y503501D01*
X747389Y503477D01*
X747385Y503380D01*
X747374Y503283D01*
X747380Y503257D01*
X747378Y503231D01*
X747406Y503138D01*
X747426Y503043D01*
X747440Y503020D01*
X747447Y502995D01*
X747502Y502915D01*
X747552Y502831D01*
X747572Y502814D01*
X747587Y502793D01*
X747665Y502735D01*
X747739Y502672D01*
X747764Y502662D01*
X747785Y502646D01*
X747877Y502616D01*
X747968Y502580D01*
X748000Y502576D01*
X748018Y502570D01*
X748052Y502570D01*
X748104Y502565D01*
X750880Y500962D01*
X752480Y498191D01*
X752480Y468990D01*
X752483Y468970D01*
X752481Y468950D01*
X752503Y468849D01*
X752519Y468747D01*
X752529Y468729D01*
X752533Y468710D01*
X752586Y468621D01*
X752634Y468529D01*
X752649Y468516D01*
X752659Y468499D01*
X752738Y468431D01*
X752813Y468360D01*
X752831Y468352D01*
X752846Y468339D01*
X752942Y468300D01*
X753036Y468256D01*
X753056Y468254D01*
X753074Y468247D01*
X753241Y468228D01*
X753409Y468228D01*
X753429Y468232D01*
X753448Y468229D01*
X753550Y468251D01*
X753652Y468268D01*
X753669Y468277D01*
X753689Y468282D01*
X753778Y468335D01*
X753869Y468383D01*
X753883Y468398D01*
X753900Y468408D01*
X753967Y468487D01*
X754038Y468562D01*
X754047Y468580D01*
X754060Y468595D01*
X754099Y468691D01*
X754142Y468785D01*
X754144Y468804D01*
X754152Y468823D01*
X754170Y468990D01*
X754170Y498191D01*
X755770Y500962D01*
X758540Y502561D01*
X762670Y502561D01*
X765440Y500962D01*
X767040Y498191D01*
X767040Y468990D01*
X767043Y468970D01*
X767041Y468950D01*
X767063Y468849D01*
X767079Y468747D01*
X767089Y468729D01*
X767093Y468710D01*
X767146Y468621D01*
X767195Y468529D01*
X767209Y468516D01*
X767219Y468499D01*
X767298Y468431D01*
X767373Y468360D01*
X767391Y468352D01*
X767406Y468339D01*
X767502Y468300D01*
X767596Y468256D01*
X767616Y468254D01*
X767634Y468247D01*
X767801Y468228D01*
X767969Y468228D01*
X767989Y468232D01*
X768008Y468229D01*
X768110Y468251D01*
X768212Y468268D01*
X768229Y468277D01*
X768249Y468282D01*
X768338Y468335D01*
X768429Y468383D01*
X768443Y468398D01*
X768460Y468408D01*
X768527Y468487D01*
X768599Y468562D01*
X768607Y468580D01*
X768620Y468595D01*
X768659Y468691D01*
X768702Y468785D01*
X768704Y468804D01*
X768712Y468823D01*
X768730Y468990D01*
X768730Y481025D01*
X770330Y483795D01*
X773100Y485395D01*
X773227Y485395D01*
X773317Y485409D01*
X773408Y485417D01*
X773438Y485429D01*
X773470Y485434D01*
X773550Y485477D01*
X773634Y485513D01*
X773666Y485539D01*
X773687Y485550D01*
X773709Y485573D01*
X773765Y485618D01*
X784382Y496235D01*
X784435Y496309D01*
X784495Y496378D01*
X784507Y496408D01*
X784526Y496434D01*
X784553Y496521D01*
X784587Y496606D01*
X784591Y496647D01*
X784598Y496669D01*
X784597Y496702D01*
X784605Y496773D01*
X784605Y531927D01*
X784591Y532017D01*
X784583Y532108D01*
X784571Y532138D01*
X784566Y532170D01*
X784523Y532250D01*
X784487Y532334D01*
X784461Y532366D01*
X784450Y532387D01*
X784427Y532409D01*
X784382Y532465D01*
X782147Y534700D01*
X782073Y534753D01*
X782004Y534813D01*
X781974Y534825D01*
X781948Y534844D01*
X781861Y534871D01*
X781776Y534905D01*
X781735Y534909D01*
X781713Y534916D01*
X781680Y534915D01*
X781609Y534923D01*
X778615Y534923D01*
X778500Y534904D01*
X778384Y534887D01*
X778379Y534885D01*
X778372Y534884D01*
X778270Y534829D01*
X778165Y534776D01*
X778161Y534771D01*
X778155Y534768D01*
X778075Y534684D01*
X777993Y534600D01*
X777989Y534594D01*
X777986Y534590D01*
X777978Y534573D01*
X777912Y534453D01*
X777119Y532538D01*
X774546Y529965D01*
X771185Y528573D01*
X767547Y528573D01*
X764186Y529965D01*
X761613Y532538D01*
X760221Y535899D01*
X760221Y539537D01*
X761613Y542898D01*
X764186Y545471D01*
X767547Y546863D01*
X771185Y546863D01*
X774546Y545471D01*
X777119Y542898D01*
X777912Y540983D01*
X777974Y540883D01*
X778033Y540783D01*
X778038Y540779D01*
X778041Y540774D01*
X778132Y540699D01*
X778220Y540623D01*
X778226Y540621D01*
X778231Y540617D01*
X778339Y540575D01*
X778448Y540531D01*
X778456Y540530D01*
X778461Y540529D01*
X778479Y540528D01*
X778615Y540513D01*
X784240Y540513D01*
X790195Y534558D01*
X790195Y528749D01*
X790199Y528725D01*
X790196Y528701D01*
X790218Y528604D01*
X790234Y528506D01*
X790246Y528485D01*
X790251Y528461D01*
X790303Y528376D01*
X790350Y528289D01*
X790367Y528272D01*
X790380Y528252D01*
X790456Y528188D01*
X790528Y528119D01*
X790550Y528109D01*
X790568Y528094D01*
X790661Y528058D01*
X790751Y528016D01*
X790775Y528013D01*
X790797Y528004D01*
X790897Y528000D01*
X790995Y527989D01*
X791019Y527994D01*
X791043Y527993D01*
X791139Y528020D01*
X791236Y528041D01*
X791256Y528053D01*
X791280Y528060D01*
X791362Y528116D01*
X791447Y528167D01*
X791463Y528185D01*
X791482Y528199D01*
X791542Y528278D01*
X791607Y528354D01*
X791616Y528376D01*
X791630Y528396D01*
X791691Y528552D01*
X793483Y535238D01*
X796975Y541287D01*
X801913Y546225D01*
X807962Y549717D01*
X814708Y551525D01*
X821692Y551525D01*
X828438Y549717D01*
X834487Y546225D01*
X839425Y541287D01*
X842917Y535238D01*
X844725Y528492D01*
X844725Y521508D01*
X842917Y514762D01*
X839425Y508713D01*
X834487Y503775D01*
X828438Y500283D01*
X821692Y498475D01*
X814708Y498475D01*
X807962Y500283D01*
X801913Y503775D01*
X796975Y508713D01*
X793483Y514762D01*
X791691Y521448D01*
X791681Y521470D01*
X791677Y521494D01*
X791631Y521582D01*
X791590Y521672D01*
X791574Y521690D01*
X791562Y521711D01*
X791490Y521780D01*
X791423Y521853D01*
X791402Y521864D01*
X791384Y521881D01*
X791294Y521923D01*
X791207Y521970D01*
X791183Y521974D01*
X791161Y521984D01*
X791062Y521995D01*
X790964Y522012D01*
X790940Y522009D01*
X790917Y522011D01*
X790819Y521990D01*
X790721Y521975D01*
X790700Y521964D01*
X790676Y521959D01*
X790591Y521908D01*
X790502Y521863D01*
X790486Y521845D01*
X790465Y521833D01*
X790400Y521757D01*
X790331Y521686D01*
X790321Y521664D01*
X790305Y521646D01*
X790268Y521554D01*
X790225Y521464D01*
X790222Y521440D01*
X790213Y521418D01*
X790195Y521251D01*
X790195Y494142D01*
X775858Y479805D01*
X775081Y479805D01*
X775061Y479802D01*
X775042Y479804D01*
X774940Y479782D01*
X774838Y479766D01*
X774821Y479756D01*
X774801Y479752D01*
X774712Y479699D01*
X774621Y479650D01*
X774607Y479636D01*
X774590Y479626D01*
X774523Y479547D01*
X774451Y479472D01*
X774443Y479454D01*
X774430Y479439D01*
X774391Y479343D01*
X774348Y479249D01*
X774346Y479229D01*
X774338Y479211D01*
X774320Y479044D01*
X774320Y467009D01*
X772720Y464238D01*
X769950Y462639D01*
X765820Y462639D01*
X763050Y464238D01*
X761450Y467009D01*
X761450Y496210D01*
X761447Y496230D01*
X761449Y496250D01*
X761427Y496351D01*
X761410Y496453D01*
X761401Y496471D01*
X761397Y496490D01*
X761344Y496579D01*
X761295Y496671D01*
X761281Y496684D01*
X761271Y496701D01*
X761192Y496769D01*
X761117Y496840D01*
X761099Y496848D01*
X761084Y496861D01*
X760988Y496900D01*
X760894Y496944D01*
X760874Y496946D01*
X760856Y496953D01*
X760689Y496972D01*
X760521Y496972D01*
X760501Y496968D01*
X760481Y496971D01*
X760380Y496949D01*
X760278Y496932D01*
X760261Y496923D01*
X760241Y496918D01*
X760152Y496865D01*
X760061Y496817D01*
X760047Y496802D01*
X760030Y496792D01*
X759963Y496713D01*
X759891Y496638D01*
X759883Y496620D01*
X759870Y496605D01*
X759831Y496509D01*
X759788Y496415D01*
X759786Y496396D01*
X759778Y496377D01*
X759760Y496210D01*
X759760Y467009D01*
X758160Y464238D01*
X755390Y462639D01*
X751260Y462639D01*
X748490Y464238D01*
X746890Y467009D01*
X746890Y496210D01*
X746887Y496230D01*
X746889Y496250D01*
X746867Y496351D01*
X746850Y496453D01*
X746841Y496471D01*
X746837Y496490D01*
X746784Y496579D01*
X746735Y496671D01*
X746721Y496684D01*
X746711Y496701D01*
X746632Y496769D01*
X746557Y496840D01*
X746539Y496848D01*
X746524Y496861D01*
X746428Y496900D01*
X746334Y496944D01*
X746314Y496946D01*
X746296Y496953D01*
X746129Y496972D01*
X745961Y496972D01*
X745941Y496968D01*
X745921Y496971D01*
X745820Y496949D01*
X745718Y496932D01*
X745701Y496923D01*
X745681Y496918D01*
X745592Y496865D01*
X745501Y496817D01*
X745487Y496802D01*
X745470Y496792D01*
X745403Y496713D01*
X745331Y496638D01*
X745323Y496620D01*
X745310Y496605D01*
X745271Y496509D01*
X745228Y496415D01*
X745226Y496396D01*
X745218Y496377D01*
X745200Y496210D01*
X745200Y467009D01*
X743600Y464238D01*
X740830Y462639D01*
X736700Y462639D01*
X733930Y464238D01*
X732330Y467009D01*
X732330Y496210D01*
X732327Y496230D01*
X732329Y496250D01*
X732307Y496351D01*
X732290Y496453D01*
X732281Y496471D01*
X732277Y496490D01*
X732224Y496579D01*
X732175Y496671D01*
X732161Y496684D01*
X732151Y496701D01*
X732072Y496769D01*
X731997Y496840D01*
X731979Y496848D01*
X731964Y496861D01*
X731868Y496900D01*
X731774Y496944D01*
X731754Y496946D01*
X731736Y496953D01*
X731569Y496972D01*
X731401Y496972D01*
X731381Y496968D01*
X731361Y496971D01*
X731260Y496949D01*
X731158Y496932D01*
X731141Y496923D01*
X731121Y496918D01*
X731032Y496865D01*
X730941Y496817D01*
X730927Y496802D01*
X730910Y496792D01*
X730843Y496713D01*
X730771Y496638D01*
X730763Y496620D01*
X730750Y496605D01*
X730711Y496509D01*
X730668Y496415D01*
X730666Y496396D01*
X730658Y496377D01*
X730640Y496210D01*
X730640Y467009D01*
X729040Y464238D01*
X726269Y462639D01*
X722140Y462639D01*
X719370Y464238D01*
X717770Y467009D01*
X717770Y479044D01*
X717767Y479064D01*
X717769Y479083D01*
X717747Y479185D01*
X717730Y479287D01*
X717721Y479304D01*
X717717Y479324D01*
X717664Y479413D01*
X717615Y479504D01*
X717601Y479518D01*
X717591Y479535D01*
X717512Y479602D01*
X717437Y479674D01*
X717419Y479682D01*
X717404Y479695D01*
X717307Y479734D01*
X717214Y479777D01*
X717194Y479779D01*
X717176Y479787D01*
X717009Y479805D01*
X712673Y479805D01*
X712583Y479791D01*
X712492Y479783D01*
X712462Y479771D01*
X712430Y479766D01*
X712350Y479723D01*
X712266Y479687D01*
X712234Y479661D01*
X712213Y479650D01*
X712191Y479627D01*
X712135Y479582D01*
X701518Y468965D01*
X701465Y468891D01*
X701405Y468822D01*
X701393Y468792D01*
X701374Y468766D01*
X701347Y468679D01*
X701313Y468594D01*
X701309Y468553D01*
X701302Y468531D01*
X701303Y468498D01*
X701295Y468427D01*
X701295Y456944D01*
X701314Y456829D01*
X701331Y456713D01*
X701333Y456707D01*
X701334Y456701D01*
X701389Y456598D01*
X701442Y456494D01*
X701447Y456489D01*
X701450Y456484D01*
X701534Y456404D01*
X701618Y456321D01*
X701624Y456318D01*
X701628Y456314D01*
X701645Y456306D01*
X701765Y456240D01*
X704687Y455030D01*
X707760Y451957D01*
X709423Y447943D01*
X709423Y443597D01*
X707760Y439583D01*
X704687Y436510D01*
X700673Y434847D01*
X696327Y434847D01*
X692313Y436510D01*
X689240Y439583D01*
X687577Y443597D01*
X687577Y447943D01*
X689240Y451957D01*
X692313Y455030D01*
X695235Y456240D01*
X695335Y456302D01*
X695435Y456362D01*
X695439Y456367D01*
X695444Y456370D01*
X695519Y456460D01*
X695595Y456549D01*
X695597Y456555D01*
X695601Y456559D01*
X695643Y456668D01*
X695687Y456777D01*
X695688Y456785D01*
X695689Y456789D01*
X695690Y456807D01*
X695705Y456944D01*
X695705Y471058D01*
X710042Y485395D01*
X718989Y485395D01*
X721760Y483795D01*
X723360Y481025D01*
X723360Y468990D01*
X723363Y468970D01*
X723361Y468950D01*
X723383Y468849D01*
X723399Y468747D01*
X723409Y468729D01*
X723413Y468710D01*
X723466Y468621D01*
X723514Y468529D01*
X723529Y468516D01*
X723539Y468499D01*
X723618Y468431D01*
X723693Y468360D01*
X723711Y468352D01*
X723726Y468339D01*
X723822Y468300D01*
X723916Y468256D01*
X723936Y468254D01*
X723954Y468247D01*
X724121Y468228D01*
X724289Y468228D01*
X724309Y468232D01*
X724328Y468229D01*
X724430Y468251D01*
X724532Y468268D01*
X724549Y468277D01*
X724569Y468282D01*
X724658Y468335D01*
X724749Y468383D01*
X724763Y468398D01*
X724780Y468408D01*
X724847Y468487D01*
X724918Y468562D01*
X724927Y468580D01*
X724940Y468595D01*
X724978Y468691D01*
X725022Y468785D01*
X725024Y468804D01*
X725032Y468823D01*
X725050Y468990D01*
X725050Y495740D01*
X725039Y495811D01*
X725037Y495882D01*
X725019Y495931D01*
X725010Y495983D01*
X724977Y496046D01*
X724952Y496113D01*
X724920Y496154D01*
X724895Y496200D01*
X724843Y496249D01*
X724799Y496305D01*
X724755Y496334D01*
X724717Y496369D01*
X724652Y496400D01*
X724592Y496438D01*
X724541Y496451D01*
X724494Y496473D01*
X724423Y496481D01*
X724353Y496498D01*
X724301Y496494D01*
X724249Y496500D01*
X724179Y496485D01*
X724108Y496479D01*
X724060Y496459D01*
X724009Y496448D01*
X723947Y496411D01*
X723882Y496383D01*
X723826Y496338D01*
X723798Y496322D01*
X723783Y496304D01*
X723751Y496278D01*
X722518Y495045D01*
X712673Y495045D01*
X712583Y495031D01*
X712492Y495023D01*
X712462Y495011D01*
X712430Y495006D01*
X712350Y494963D01*
X712266Y494927D01*
X712234Y494901D01*
X712213Y494890D01*
X712191Y494867D01*
X712135Y494822D01*
X676118Y458805D01*
X676065Y458731D01*
X676005Y458662D01*
X675993Y458632D01*
X675974Y458606D01*
X675947Y458519D01*
X675913Y458434D01*
X675909Y458393D01*
X675902Y458371D01*
X675903Y458338D01*
X675895Y458267D01*
X675895Y456944D01*
X675914Y456829D01*
X675931Y456713D01*
X675933Y456707D01*
X675934Y456701D01*
X675989Y456598D01*
X676042Y456494D01*
X676047Y456489D01*
X676050Y456484D01*
X676134Y456404D01*
X676218Y456321D01*
X676224Y456318D01*
X676228Y456314D01*
X676245Y456306D01*
X676365Y456240D01*
X679287Y455030D01*
X682360Y451957D01*
X684023Y447943D01*
X684023Y443597D01*
X682360Y439583D01*
X679287Y436510D01*
X675273Y434847D01*
X670927Y434847D01*
G37*
%LPD*%
%LPC*%
G36*
X181061Y455675D02*
X181061Y455675D01*
X177700Y457067D01*
X175127Y459640D01*
X173735Y463001D01*
X173735Y481879D01*
X175127Y485240D01*
X177700Y487813D01*
X179615Y488606D01*
X179715Y488668D01*
X179815Y488727D01*
X179819Y488732D01*
X179824Y488735D01*
X179899Y488826D01*
X179975Y488914D01*
X179977Y488920D01*
X179981Y488925D01*
X180023Y489033D01*
X180067Y489142D01*
X180068Y489150D01*
X180069Y489155D01*
X180070Y489173D01*
X180085Y489309D01*
X180085Y539638D01*
X207853Y567406D01*
X207895Y567464D01*
X207945Y567516D01*
X207967Y567563D01*
X207997Y567605D01*
X208018Y567674D01*
X208048Y567739D01*
X208054Y567791D01*
X208069Y567841D01*
X208067Y567912D01*
X208075Y567983D01*
X208064Y568034D01*
X208063Y568086D01*
X208038Y568154D01*
X208023Y568224D01*
X207996Y568269D01*
X207978Y568317D01*
X207934Y568373D01*
X207897Y568435D01*
X207857Y568469D01*
X207825Y568509D01*
X207764Y568548D01*
X207710Y568595D01*
X207662Y568614D01*
X207618Y568642D01*
X207548Y568660D01*
X207482Y568687D01*
X207410Y568695D01*
X207379Y568703D01*
X207356Y568701D01*
X207315Y568705D01*
X100442Y568705D01*
X90477Y578670D01*
X90403Y578723D01*
X90334Y578783D01*
X90304Y578795D01*
X90278Y578814D01*
X90191Y578841D01*
X90106Y578875D01*
X90065Y578879D01*
X90043Y578886D01*
X90010Y578885D01*
X89939Y578893D01*
X86702Y578893D01*
X83593Y582002D01*
X83593Y586398D01*
X86702Y589507D01*
X91098Y589507D01*
X94207Y586398D01*
X94207Y583161D01*
X94221Y583071D01*
X94229Y582980D01*
X94241Y582950D01*
X94246Y582918D01*
X94289Y582838D01*
X94325Y582754D01*
X94351Y582722D01*
X94362Y582701D01*
X94385Y582679D01*
X94430Y582623D01*
X102535Y574518D01*
X102609Y574465D01*
X102678Y574405D01*
X102708Y574393D01*
X102734Y574374D01*
X102821Y574347D01*
X102906Y574313D01*
X102947Y574309D01*
X102969Y574302D01*
X103002Y574303D01*
X103073Y574295D01*
X263144Y574295D01*
X263164Y574298D01*
X263183Y574296D01*
X263285Y574318D01*
X263387Y574334D01*
X263404Y574344D01*
X263424Y574348D01*
X263513Y574401D01*
X263604Y574450D01*
X263618Y574464D01*
X263635Y574474D01*
X263702Y574553D01*
X263774Y574628D01*
X263782Y574646D01*
X263795Y574661D01*
X263834Y574757D01*
X263877Y574851D01*
X263879Y574871D01*
X263887Y574889D01*
X263905Y575056D01*
X263905Y623458D01*
X275673Y635225D01*
X275685Y635242D01*
X275700Y635254D01*
X275756Y635341D01*
X275817Y635425D01*
X275822Y635444D01*
X275833Y635461D01*
X275859Y635561D01*
X275889Y635660D01*
X275888Y635680D01*
X275893Y635700D01*
X275885Y635802D01*
X275883Y635906D01*
X275876Y635925D01*
X275874Y635945D01*
X275834Y636040D01*
X275798Y636137D01*
X275786Y636153D01*
X275778Y636171D01*
X275673Y636302D01*
X274093Y637882D01*
X274093Y642278D01*
X277202Y645387D01*
X281598Y645387D01*
X284707Y642278D01*
X284707Y637882D01*
X282418Y635593D01*
X282365Y635519D01*
X282305Y635449D01*
X282293Y635419D01*
X282274Y635393D01*
X282247Y635306D01*
X282213Y635221D01*
X282209Y635180D01*
X282202Y635158D01*
X282203Y635126D01*
X282195Y635055D01*
X282195Y633842D01*
X269718Y621365D01*
X269665Y621291D01*
X269605Y621222D01*
X269593Y621192D01*
X269574Y621166D01*
X269547Y621079D01*
X269513Y620994D01*
X269509Y620953D01*
X269502Y620931D01*
X269503Y620898D01*
X269495Y620827D01*
X269495Y533973D01*
X269509Y533883D01*
X269517Y533792D01*
X269529Y533762D01*
X269534Y533730D01*
X269577Y533650D01*
X269613Y533566D01*
X269639Y533534D01*
X269650Y533513D01*
X269673Y533491D01*
X269718Y533435D01*
X281485Y521668D01*
X281559Y521615D01*
X281628Y521555D01*
X281658Y521543D01*
X281684Y521524D01*
X281771Y521497D01*
X281856Y521463D01*
X281897Y521459D01*
X281919Y521452D01*
X281952Y521453D01*
X282023Y521445D01*
X295152Y521445D01*
X296045Y520552D01*
X296045Y504048D01*
X295152Y503155D01*
X278648Y503155D01*
X277755Y504048D01*
X277755Y517177D01*
X277741Y517267D01*
X277733Y517358D01*
X277721Y517388D01*
X277716Y517420D01*
X277673Y517500D01*
X277637Y517584D01*
X277611Y517616D01*
X277600Y517637D01*
X277577Y517659D01*
X277532Y517715D01*
X265990Y529257D01*
X265951Y529285D01*
X265919Y529321D01*
X265852Y529357D01*
X265791Y529401D01*
X265745Y529415D01*
X265702Y529438D01*
X265628Y529451D01*
X265555Y529473D01*
X265507Y529472D01*
X265460Y529480D01*
X265385Y529469D01*
X265310Y529467D01*
X265264Y529450D01*
X265217Y529443D01*
X265150Y529408D01*
X265079Y529382D01*
X265041Y529352D01*
X264998Y529330D01*
X264946Y529276D01*
X264887Y529229D01*
X264861Y529188D01*
X264827Y529154D01*
X264794Y529085D01*
X264754Y529022D01*
X264742Y528975D01*
X264721Y528932D01*
X264712Y528857D01*
X264693Y528783D01*
X264697Y528735D01*
X264691Y528688D01*
X264711Y528560D01*
X264713Y528538D01*
X264715Y528532D01*
X264717Y528522D01*
X264725Y528492D01*
X264725Y521508D01*
X262917Y514762D01*
X259425Y508713D01*
X254487Y503775D01*
X248438Y500283D01*
X241692Y498475D01*
X234708Y498475D01*
X227962Y500283D01*
X221913Y503775D01*
X216975Y508713D01*
X213483Y514762D01*
X211675Y521508D01*
X211675Y528492D01*
X213483Y535238D01*
X216975Y541287D01*
X221913Y546225D01*
X227962Y549717D01*
X234708Y551525D01*
X241692Y551525D01*
X248438Y549717D01*
X254487Y546225D01*
X259425Y541287D01*
X262485Y535987D01*
X262515Y535950D01*
X262538Y535908D01*
X262593Y535855D01*
X262641Y535797D01*
X262681Y535771D01*
X262716Y535738D01*
X262785Y535706D01*
X262849Y535666D01*
X262896Y535655D01*
X262939Y535635D01*
X263014Y535626D01*
X263088Y535608D01*
X263136Y535613D01*
X263183Y535607D01*
X263258Y535624D01*
X263333Y535630D01*
X263377Y535649D01*
X263424Y535660D01*
X263489Y535699D01*
X263558Y535729D01*
X263594Y535761D01*
X263635Y535786D01*
X263684Y535843D01*
X263740Y535894D01*
X263764Y535936D01*
X263795Y535973D01*
X263823Y536043D01*
X263860Y536109D01*
X263869Y536156D01*
X263887Y536201D01*
X263901Y536329D01*
X263905Y536351D01*
X263904Y536358D01*
X263905Y536368D01*
X263905Y567944D01*
X263902Y567964D01*
X263904Y567983D01*
X263882Y568085D01*
X263866Y568187D01*
X263856Y568204D01*
X263852Y568224D01*
X263799Y568313D01*
X263750Y568404D01*
X263736Y568418D01*
X263726Y568435D01*
X263647Y568502D01*
X263572Y568574D01*
X263554Y568582D01*
X263539Y568595D01*
X263443Y568634D01*
X263349Y568677D01*
X263329Y568679D01*
X263311Y568687D01*
X263144Y568705D01*
X217373Y568705D01*
X217283Y568691D01*
X217192Y568683D01*
X217162Y568671D01*
X217130Y568666D01*
X217050Y568623D01*
X216966Y568587D01*
X216934Y568561D01*
X216913Y568550D01*
X216891Y568527D01*
X216835Y568482D01*
X185898Y537545D01*
X185845Y537471D01*
X185785Y537402D01*
X185773Y537372D01*
X185754Y537346D01*
X185727Y537259D01*
X185693Y537174D01*
X185689Y537133D01*
X185682Y537111D01*
X185683Y537078D01*
X185675Y537007D01*
X185675Y489309D01*
X185694Y489194D01*
X185711Y489078D01*
X185713Y489073D01*
X185714Y489066D01*
X185769Y488964D01*
X185822Y488859D01*
X185827Y488855D01*
X185830Y488849D01*
X185914Y488769D01*
X185998Y488687D01*
X186004Y488683D01*
X186008Y488680D01*
X186025Y488672D01*
X186145Y488606D01*
X188060Y487813D01*
X190633Y485240D01*
X192025Y481879D01*
X192025Y463001D01*
X190633Y459640D01*
X188060Y457067D01*
X184699Y455675D01*
X181061Y455675D01*
G37*
%LPD*%
%LPC*%
G36*
X411947Y503173D02*
X411947Y503173D01*
X408586Y504565D01*
X406013Y507138D01*
X404621Y510499D01*
X404621Y514137D01*
X406013Y517498D01*
X408586Y520071D01*
X411947Y521463D01*
X415585Y521463D01*
X417500Y520669D01*
X417566Y520654D01*
X417591Y520644D01*
X417624Y520640D01*
X417728Y520614D01*
X417734Y520615D01*
X417740Y520613D01*
X417856Y520624D01*
X417973Y520633D01*
X417978Y520636D01*
X417985Y520636D01*
X418092Y520684D01*
X418199Y520730D01*
X418205Y520734D01*
X418209Y520736D01*
X418223Y520749D01*
X418255Y520775D01*
X418266Y520780D01*
X418277Y520792D01*
X418330Y520834D01*
X423702Y526207D01*
X423749Y526271D01*
X423764Y526287D01*
X423767Y526294D01*
X423815Y526350D01*
X423827Y526380D01*
X423846Y526406D01*
X423873Y526493D01*
X423907Y526578D01*
X423911Y526619D01*
X423918Y526641D01*
X423917Y526674D01*
X423925Y526745D01*
X423925Y534521D01*
X423910Y534617D01*
X423900Y534714D01*
X423890Y534738D01*
X423886Y534764D01*
X423840Y534850D01*
X423800Y534939D01*
X423783Y534958D01*
X423770Y534981D01*
X423700Y535048D01*
X423634Y535120D01*
X423611Y535133D01*
X423592Y535151D01*
X423504Y535192D01*
X423418Y535239D01*
X423393Y535243D01*
X423369Y535254D01*
X423272Y535265D01*
X423176Y535282D01*
X423150Y535279D01*
X423125Y535282D01*
X423029Y535261D01*
X422933Y535247D01*
X422910Y535235D01*
X422884Y535229D01*
X422801Y535179D01*
X422714Y535135D01*
X422695Y535116D01*
X422673Y535103D01*
X422610Y535029D01*
X422542Y534960D01*
X422526Y534931D01*
X422513Y534916D01*
X422501Y534885D01*
X422461Y534813D01*
X421519Y532538D01*
X418946Y529965D01*
X415585Y528573D01*
X411947Y528573D01*
X408586Y529965D01*
X406013Y532538D01*
X404621Y535899D01*
X404621Y539537D01*
X406013Y542898D01*
X408586Y545471D01*
X411947Y546863D01*
X415585Y546863D01*
X418946Y545471D01*
X421519Y542898D01*
X422461Y540623D01*
X422512Y540540D01*
X422558Y540455D01*
X422576Y540437D01*
X422590Y540414D01*
X422666Y540352D01*
X422736Y540285D01*
X422760Y540274D01*
X422780Y540258D01*
X422871Y540223D01*
X422959Y540182D01*
X422985Y540179D01*
X423009Y540169D01*
X423107Y540165D01*
X423203Y540154D01*
X423229Y540160D01*
X423255Y540159D01*
X423349Y540186D01*
X423444Y540207D01*
X423466Y540220D01*
X423491Y540227D01*
X423571Y540283D01*
X423655Y540333D01*
X423672Y540353D01*
X423693Y540368D01*
X423752Y540446D01*
X423815Y540520D01*
X423825Y540544D01*
X423840Y540565D01*
X423870Y540658D01*
X423907Y540748D01*
X423910Y540780D01*
X423916Y540799D01*
X423916Y540832D01*
X423925Y540915D01*
X423925Y596944D01*
X423915Y597008D01*
X423914Y597074D01*
X423891Y597154D01*
X423886Y597186D01*
X423876Y597203D01*
X423867Y597235D01*
X422655Y600161D01*
X422655Y619039D01*
X424047Y622400D01*
X426620Y624973D01*
X429981Y626365D01*
X433619Y626365D01*
X436980Y624973D01*
X439553Y622400D01*
X440945Y619039D01*
X440945Y600161D01*
X439553Y596800D01*
X436980Y594227D01*
X433619Y592835D01*
X430276Y592835D01*
X430256Y592832D01*
X430237Y592834D01*
X430135Y592812D01*
X430033Y592796D01*
X430016Y592786D01*
X429996Y592782D01*
X429907Y592729D01*
X429816Y592680D01*
X429802Y592666D01*
X429785Y592656D01*
X429718Y592577D01*
X429646Y592502D01*
X429638Y592484D01*
X429625Y592469D01*
X429586Y592373D01*
X429543Y592279D01*
X429541Y592259D01*
X429533Y592241D01*
X429515Y592074D01*
X429515Y544064D01*
X429516Y544056D01*
X429515Y544048D01*
X429536Y543934D01*
X429554Y543821D01*
X429558Y543814D01*
X429560Y543806D01*
X429616Y543705D01*
X429670Y543603D01*
X429675Y543598D01*
X429679Y543591D01*
X429764Y543513D01*
X429848Y543434D01*
X429855Y543431D01*
X429861Y543425D01*
X429967Y543379D01*
X430071Y543330D01*
X430079Y543330D01*
X430086Y543326D01*
X430201Y543316D01*
X430315Y543303D01*
X430323Y543305D01*
X430331Y543304D01*
X430444Y543331D01*
X430556Y543356D01*
X430563Y543360D01*
X430570Y543362D01*
X430669Y543423D01*
X430767Y543482D01*
X430772Y543488D01*
X430779Y543492D01*
X430892Y543616D01*
X431416Y544337D01*
X432547Y545468D01*
X433841Y546408D01*
X435266Y547134D01*
X436787Y547629D01*
X437643Y547764D01*
X437643Y538480D01*
X437646Y538460D01*
X437644Y538441D01*
X437666Y538339D01*
X437683Y538237D01*
X437692Y538220D01*
X437696Y538200D01*
X437749Y538111D01*
X437798Y538020D01*
X437812Y538006D01*
X437822Y537989D01*
X437901Y537922D01*
X437976Y537851D01*
X437994Y537842D01*
X438009Y537829D01*
X438105Y537791D01*
X438199Y537747D01*
X438219Y537745D01*
X438237Y537737D01*
X438404Y537719D01*
X439928Y537719D01*
X439948Y537722D01*
X439967Y537720D01*
X440069Y537742D01*
X440171Y537759D01*
X440188Y537768D01*
X440208Y537772D01*
X440297Y537825D01*
X440388Y537874D01*
X440402Y537888D01*
X440419Y537898D01*
X440486Y537977D01*
X440557Y538052D01*
X440566Y538070D01*
X440579Y538085D01*
X440618Y538181D01*
X440661Y538275D01*
X440663Y538295D01*
X440671Y538313D01*
X440689Y538480D01*
X440689Y547764D01*
X441545Y547629D01*
X443066Y547134D01*
X444491Y546408D01*
X445785Y545468D01*
X446916Y544337D01*
X447856Y543043D01*
X447886Y542986D01*
X447926Y542931D01*
X447958Y542871D01*
X447998Y542832D01*
X448031Y542787D01*
X448087Y542748D01*
X448136Y542702D01*
X448187Y542678D01*
X448232Y542646D01*
X448297Y542627D01*
X448359Y542598D01*
X448415Y542592D01*
X448468Y542576D01*
X448536Y542578D01*
X448603Y542571D01*
X448658Y542583D01*
X448714Y542585D01*
X448777Y542609D01*
X448844Y542623D01*
X448892Y542652D01*
X448944Y542672D01*
X448997Y542714D01*
X449055Y542749D01*
X449091Y542792D01*
X449135Y542827D01*
X449171Y542885D01*
X449215Y542936D01*
X449236Y542988D01*
X449266Y543035D01*
X449281Y543101D01*
X449307Y543164D01*
X449315Y543243D01*
X449323Y543275D01*
X449321Y543295D01*
X449325Y543331D01*
X449325Y596944D01*
X449315Y597008D01*
X449314Y597074D01*
X449291Y597154D01*
X449286Y597186D01*
X449276Y597203D01*
X449267Y597235D01*
X448055Y600161D01*
X448055Y619039D01*
X449447Y622400D01*
X452020Y624973D01*
X455381Y626365D01*
X459019Y626365D01*
X462380Y624973D01*
X464953Y622400D01*
X466345Y619039D01*
X466345Y600161D01*
X464953Y596800D01*
X462380Y594227D01*
X459019Y592835D01*
X455676Y592835D01*
X455656Y592832D01*
X455637Y592834D01*
X455535Y592812D01*
X455433Y592796D01*
X455416Y592786D01*
X455396Y592782D01*
X455307Y592729D01*
X455216Y592680D01*
X455202Y592666D01*
X455185Y592656D01*
X455118Y592577D01*
X455046Y592502D01*
X455038Y592484D01*
X455025Y592469D01*
X454986Y592373D01*
X454943Y592279D01*
X454941Y592259D01*
X454933Y592241D01*
X454915Y592074D01*
X454915Y542141D01*
X454930Y542045D01*
X454940Y541948D01*
X454950Y541924D01*
X454954Y541898D01*
X455000Y541813D01*
X455040Y541723D01*
X455057Y541704D01*
X455070Y541681D01*
X455140Y541614D01*
X455206Y541542D01*
X455229Y541530D01*
X455248Y541512D01*
X455336Y541471D01*
X455422Y541424D01*
X455447Y541419D01*
X455471Y541408D01*
X455568Y541397D01*
X455664Y541380D01*
X455690Y541384D01*
X455715Y541381D01*
X455811Y541402D01*
X455907Y541416D01*
X455930Y541428D01*
X455956Y541433D01*
X456039Y541483D01*
X456126Y541527D01*
X456145Y541546D01*
X456167Y541559D01*
X456230Y541633D01*
X456298Y541703D01*
X456314Y541731D01*
X456327Y541746D01*
X456339Y541777D01*
X456379Y541850D01*
X456813Y542898D01*
X459386Y545471D01*
X462747Y546863D01*
X466385Y546863D01*
X469746Y545471D01*
X472319Y542898D01*
X473711Y539537D01*
X473711Y535899D01*
X472319Y532538D01*
X469746Y529965D01*
X466385Y528573D01*
X462747Y528573D01*
X459386Y529965D01*
X456813Y532538D01*
X456379Y533586D01*
X456328Y533669D01*
X456282Y533755D01*
X456264Y533773D01*
X456250Y533795D01*
X456174Y533857D01*
X456104Y533924D01*
X456080Y533935D01*
X456060Y533952D01*
X455969Y533987D01*
X455881Y534028D01*
X455855Y534031D01*
X455831Y534040D01*
X455733Y534044D01*
X455637Y534055D01*
X455611Y534050D01*
X455585Y534051D01*
X455491Y534024D01*
X455396Y534003D01*
X455374Y533989D01*
X455349Y533982D01*
X455269Y533927D01*
X455185Y533877D01*
X455168Y533857D01*
X455147Y533842D01*
X455088Y533764D01*
X455025Y533690D01*
X455015Y533665D01*
X455000Y533644D01*
X454970Y533552D01*
X454933Y533462D01*
X454930Y533429D01*
X454924Y533411D01*
X454924Y533378D01*
X454915Y533295D01*
X454915Y524114D01*
X453055Y522254D01*
X447682Y516882D01*
X447615Y516788D01*
X447544Y516693D01*
X447542Y516687D01*
X447539Y516682D01*
X447505Y516571D01*
X447468Y516459D01*
X447468Y516453D01*
X447466Y516447D01*
X447469Y516330D01*
X447471Y516214D01*
X447473Y516206D01*
X447473Y516201D01*
X447479Y516184D01*
X447517Y516052D01*
X448311Y514137D01*
X448311Y510499D01*
X446919Y507138D01*
X444346Y504565D01*
X440985Y503173D01*
X437347Y503173D01*
X433986Y504565D01*
X431413Y507138D01*
X430021Y510499D01*
X430021Y514137D01*
X431413Y517498D01*
X433986Y520071D01*
X437347Y521463D01*
X440985Y521463D01*
X442900Y520669D01*
X442966Y520654D01*
X442991Y520644D01*
X443024Y520640D01*
X443128Y520614D01*
X443134Y520615D01*
X443140Y520613D01*
X443256Y520624D01*
X443373Y520633D01*
X443378Y520636D01*
X443385Y520636D01*
X443492Y520684D01*
X443599Y520730D01*
X443605Y520734D01*
X443609Y520736D01*
X443623Y520749D01*
X443655Y520775D01*
X443666Y520780D01*
X443677Y520792D01*
X443730Y520834D01*
X449102Y526207D01*
X449149Y526271D01*
X449164Y526287D01*
X449167Y526294D01*
X449215Y526350D01*
X449227Y526380D01*
X449246Y526406D01*
X449273Y526493D01*
X449307Y526578D01*
X449311Y526619D01*
X449318Y526641D01*
X449317Y526674D01*
X449325Y526745D01*
X449325Y532105D01*
X449314Y532172D01*
X449313Y532240D01*
X449295Y532293D01*
X449286Y532348D01*
X449254Y532408D01*
X449231Y532472D01*
X449197Y532516D01*
X449170Y532565D01*
X449121Y532612D01*
X449079Y532665D01*
X449033Y532696D01*
X448992Y532734D01*
X448931Y532763D01*
X448874Y532800D01*
X448820Y532815D01*
X448769Y532838D01*
X448702Y532846D01*
X448636Y532863D01*
X448580Y532859D01*
X448525Y532865D01*
X448458Y532851D01*
X448391Y532846D01*
X448339Y532825D01*
X448284Y532813D01*
X448226Y532778D01*
X448163Y532752D01*
X448121Y532715D01*
X448073Y532687D01*
X448029Y532635D01*
X447978Y532591D01*
X447935Y532525D01*
X447913Y532500D01*
X447905Y532480D01*
X447886Y532450D01*
X447856Y532393D01*
X446916Y531099D01*
X445785Y529968D01*
X444491Y529028D01*
X443066Y528302D01*
X441545Y527807D01*
X440689Y527672D01*
X440689Y536956D01*
X440686Y536976D01*
X440688Y536995D01*
X440666Y537097D01*
X440649Y537199D01*
X440640Y537216D01*
X440636Y537236D01*
X440583Y537325D01*
X440534Y537416D01*
X440520Y537430D01*
X440510Y537447D01*
X440431Y537514D01*
X440356Y537585D01*
X440338Y537594D01*
X440323Y537607D01*
X440227Y537645D01*
X440133Y537689D01*
X440113Y537691D01*
X440095Y537699D01*
X439928Y537717D01*
X438404Y537717D01*
X438384Y537714D01*
X438365Y537716D01*
X438263Y537694D01*
X438161Y537677D01*
X438144Y537668D01*
X438124Y537664D01*
X438035Y537611D01*
X437944Y537562D01*
X437930Y537548D01*
X437913Y537538D01*
X437846Y537459D01*
X437775Y537384D01*
X437766Y537366D01*
X437753Y537351D01*
X437714Y537255D01*
X437671Y537161D01*
X437669Y537141D01*
X437661Y537123D01*
X437643Y536956D01*
X437643Y527672D01*
X436787Y527807D01*
X435266Y528302D01*
X433841Y529028D01*
X432547Y529968D01*
X431416Y531099D01*
X430892Y531820D01*
X430886Y531826D01*
X430882Y531833D01*
X430799Y531912D01*
X430717Y531993D01*
X430710Y531996D01*
X430704Y532002D01*
X430600Y532050D01*
X430496Y532101D01*
X430488Y532102D01*
X430481Y532106D01*
X430367Y532118D01*
X430252Y532133D01*
X430244Y532132D01*
X430237Y532133D01*
X430124Y532108D01*
X430011Y532086D01*
X430004Y532082D01*
X429996Y532080D01*
X429898Y532022D01*
X429797Y531964D01*
X429792Y531958D01*
X429785Y531954D01*
X429710Y531867D01*
X429633Y531781D01*
X429630Y531773D01*
X429625Y531767D01*
X429582Y531660D01*
X429537Y531555D01*
X429536Y531547D01*
X429533Y531539D01*
X429515Y531372D01*
X429515Y524114D01*
X427655Y522254D01*
X422282Y516882D01*
X422215Y516788D01*
X422144Y516693D01*
X422142Y516687D01*
X422139Y516682D01*
X422105Y516571D01*
X422068Y516459D01*
X422068Y516453D01*
X422066Y516447D01*
X422069Y516330D01*
X422071Y516214D01*
X422073Y516206D01*
X422073Y516201D01*
X422079Y516184D01*
X422117Y516052D01*
X422911Y514137D01*
X422911Y510499D01*
X421519Y507138D01*
X418946Y504565D01*
X415585Y503173D01*
X411947Y503173D01*
G37*
%LPD*%
%LPC*%
G36*
X366481Y427735D02*
X366481Y427735D01*
X363120Y429127D01*
X360547Y431700D01*
X359155Y435061D01*
X359155Y453939D01*
X360547Y457300D01*
X363120Y459873D01*
X365035Y460666D01*
X365135Y460728D01*
X365235Y460787D01*
X365239Y460792D01*
X365244Y460795D01*
X365319Y460886D01*
X365395Y460974D01*
X365397Y460980D01*
X365401Y460985D01*
X365443Y461093D01*
X365487Y461202D01*
X365488Y461210D01*
X365489Y461215D01*
X365490Y461233D01*
X365505Y461369D01*
X365505Y463438D01*
X377302Y475235D01*
X503987Y475235D01*
X504077Y475249D01*
X504168Y475257D01*
X504198Y475269D01*
X504230Y475274D01*
X504310Y475317D01*
X504394Y475353D01*
X504426Y475379D01*
X504447Y475390D01*
X504469Y475413D01*
X504525Y475458D01*
X528432Y499365D01*
X548945Y499365D01*
X549035Y499379D01*
X549126Y499387D01*
X549156Y499399D01*
X549188Y499404D01*
X549268Y499447D01*
X549352Y499483D01*
X549384Y499509D01*
X549405Y499520D01*
X549427Y499543D01*
X549483Y499588D01*
X557650Y507754D01*
X557717Y507848D01*
X557788Y507943D01*
X557790Y507949D01*
X557793Y507954D01*
X557827Y508065D01*
X557864Y508177D01*
X557864Y508183D01*
X557866Y508189D01*
X557863Y508306D01*
X557861Y508422D01*
X557859Y508430D01*
X557859Y508435D01*
X557853Y508452D01*
X557815Y508584D01*
X557021Y510499D01*
X557021Y514137D01*
X558413Y517498D01*
X560986Y520071D01*
X564347Y521463D01*
X567985Y521463D01*
X571346Y520071D01*
X573919Y517498D01*
X575311Y514137D01*
X575311Y510499D01*
X573919Y507138D01*
X571346Y504565D01*
X569304Y503719D01*
X569204Y503658D01*
X569104Y503598D01*
X569100Y503593D01*
X569095Y503590D01*
X569020Y503500D01*
X568944Y503411D01*
X568942Y503405D01*
X568938Y503400D01*
X568896Y503292D01*
X568852Y503183D01*
X568851Y503175D01*
X568850Y503171D01*
X568849Y503152D01*
X568834Y503016D01*
X568834Y491221D01*
X562498Y484885D01*
X536143Y484885D01*
X536053Y484871D01*
X535962Y484863D01*
X535932Y484851D01*
X535900Y484846D01*
X535820Y484803D01*
X535736Y484767D01*
X535704Y484741D01*
X535683Y484730D01*
X535661Y484707D01*
X535605Y484662D01*
X512313Y461371D01*
X512286Y461334D01*
X512253Y461303D01*
X512215Y461234D01*
X512170Y461171D01*
X512156Y461127D01*
X512134Y461087D01*
X512120Y461010D01*
X512097Y460936D01*
X512099Y460890D01*
X512090Y460845D01*
X512102Y460768D01*
X512104Y460690D01*
X512119Y460647D01*
X512126Y460602D01*
X512161Y460532D01*
X512188Y460459D01*
X512217Y460423D01*
X512238Y460382D01*
X512293Y460328D01*
X512342Y460267D01*
X512381Y460242D01*
X512413Y460210D01*
X512533Y460144D01*
X512549Y460134D01*
X512554Y460133D01*
X512560Y460129D01*
X513180Y459873D01*
X515753Y457300D01*
X517145Y453939D01*
X517145Y435061D01*
X515753Y431700D01*
X513180Y429127D01*
X509819Y427735D01*
X506181Y427735D01*
X502820Y429127D01*
X500247Y431700D01*
X498855Y435061D01*
X498855Y453939D01*
X500247Y457300D01*
X502820Y459873D01*
X504735Y460666D01*
X504835Y460728D01*
X504935Y460787D01*
X504939Y460792D01*
X504944Y460795D01*
X505019Y460886D01*
X505095Y460974D01*
X505097Y460980D01*
X505101Y460985D01*
X505143Y461093D01*
X505187Y461202D01*
X505188Y461210D01*
X505189Y461215D01*
X505190Y461233D01*
X505205Y461369D01*
X505205Y462168D01*
X533512Y490475D01*
X559867Y490475D01*
X559957Y490489D01*
X560048Y490497D01*
X560078Y490509D01*
X560110Y490514D01*
X560190Y490557D01*
X560274Y490593D01*
X560306Y490619D01*
X560327Y490630D01*
X560349Y490653D01*
X560405Y490698D01*
X563021Y493314D01*
X563074Y493388D01*
X563134Y493457D01*
X563146Y493487D01*
X563165Y493513D01*
X563192Y493600D01*
X563226Y493685D01*
X563230Y493726D01*
X563237Y493748D01*
X563236Y493781D01*
X563244Y493852D01*
X563244Y503121D01*
X563241Y503139D01*
X563243Y503156D01*
X563225Y503241D01*
X563208Y503352D01*
X563206Y503358D01*
X563205Y503364D01*
X563193Y503385D01*
X563191Y503396D01*
X563160Y503448D01*
X563150Y503467D01*
X563097Y503572D01*
X563092Y503576D01*
X563089Y503582D01*
X563068Y503602D01*
X563065Y503608D01*
X563037Y503631D01*
X563005Y503661D01*
X562921Y503744D01*
X562915Y503747D01*
X562911Y503751D01*
X562894Y503759D01*
X562774Y503825D01*
X562432Y503967D01*
X562318Y503993D01*
X562204Y504022D01*
X562198Y504021D01*
X562192Y504023D01*
X562076Y504012D01*
X561959Y504003D01*
X561954Y504000D01*
X561947Y504000D01*
X561840Y503952D01*
X561733Y503906D01*
X561727Y503902D01*
X561723Y503900D01*
X561709Y503887D01*
X561602Y503802D01*
X553436Y495635D01*
X551576Y493775D01*
X531063Y493775D01*
X530973Y493761D01*
X530882Y493753D01*
X530852Y493741D01*
X530820Y493736D01*
X530740Y493693D01*
X530656Y493657D01*
X530624Y493631D01*
X530603Y493620D01*
X530581Y493597D01*
X530525Y493552D01*
X506618Y469645D01*
X379933Y469645D01*
X379843Y469631D01*
X379752Y469623D01*
X379722Y469611D01*
X379690Y469606D01*
X379610Y469563D01*
X379526Y469527D01*
X379494Y469501D01*
X379473Y469490D01*
X379452Y469468D01*
X379449Y469467D01*
X379446Y469463D01*
X379395Y469422D01*
X371715Y461743D01*
X371688Y461706D01*
X371655Y461674D01*
X371617Y461606D01*
X371572Y461543D01*
X371558Y461499D01*
X371536Y461459D01*
X371522Y461382D01*
X371499Y461308D01*
X371500Y461262D01*
X371492Y461217D01*
X371504Y461140D01*
X371506Y461062D01*
X371521Y461019D01*
X371528Y460974D01*
X371563Y460904D01*
X371590Y460831D01*
X371619Y460795D01*
X371640Y460754D01*
X371695Y460700D01*
X371744Y460639D01*
X371782Y460614D01*
X371815Y460582D01*
X371935Y460516D01*
X371951Y460506D01*
X371956Y460505D01*
X371962Y460501D01*
X373480Y459873D01*
X376053Y457300D01*
X377445Y453939D01*
X377445Y435061D01*
X376053Y431700D01*
X373480Y429127D01*
X370119Y427735D01*
X366481Y427735D01*
G37*
%LPD*%
%LPC*%
G36*
X444842Y216943D02*
X444842Y216943D01*
X441733Y220052D01*
X441733Y224448D01*
X444842Y227557D01*
X448079Y227557D01*
X448169Y227571D01*
X448260Y227579D01*
X448290Y227591D01*
X448322Y227596D01*
X448403Y227639D01*
X448486Y227675D01*
X448519Y227701D01*
X448539Y227712D01*
X448561Y227735D01*
X448617Y227780D01*
X456722Y235885D01*
X456775Y235959D01*
X456835Y236028D01*
X456847Y236058D01*
X456866Y236084D01*
X456893Y236171D01*
X456927Y236256D01*
X456931Y236297D01*
X456938Y236319D01*
X456937Y236352D01*
X456945Y236423D01*
X456945Y360477D01*
X456931Y360567D01*
X456923Y360658D01*
X456911Y360688D01*
X456906Y360720D01*
X456863Y360801D01*
X456827Y360884D01*
X456801Y360917D01*
X456790Y360937D01*
X456767Y360959D01*
X456722Y361015D01*
X453756Y363982D01*
X453677Y364038D01*
X453602Y364100D01*
X453578Y364110D01*
X453556Y364125D01*
X453463Y364154D01*
X453372Y364189D01*
X453346Y364190D01*
X453321Y364197D01*
X453224Y364195D01*
X453127Y364199D01*
X453102Y364192D01*
X453075Y364191D01*
X452984Y364158D01*
X452890Y364130D01*
X452869Y364116D01*
X452844Y364107D01*
X452768Y364046D01*
X452688Y363990D01*
X452673Y363969D01*
X452652Y363953D01*
X452600Y363871D01*
X452542Y363793D01*
X452534Y363768D01*
X452519Y363746D01*
X452496Y363652D01*
X452465Y363559D01*
X452466Y363533D01*
X452459Y363507D01*
X452467Y363411D01*
X452468Y363313D01*
X452477Y363282D01*
X452478Y363262D01*
X452491Y363232D01*
X452515Y363152D01*
X454534Y358277D01*
X454534Y327523D01*
X452387Y322341D01*
X448422Y318376D01*
X443240Y316229D01*
X437632Y316229D01*
X432450Y318376D01*
X428485Y322341D01*
X426338Y327523D01*
X426338Y358277D01*
X428485Y363459D01*
X432450Y367424D01*
X437632Y369571D01*
X443240Y369571D01*
X448115Y367552D01*
X448210Y367529D01*
X448303Y367501D01*
X448329Y367501D01*
X448354Y367495D01*
X448451Y367505D01*
X448549Y367507D01*
X448573Y367516D01*
X448599Y367518D01*
X448688Y367558D01*
X448780Y367591D01*
X448800Y367608D01*
X448824Y367618D01*
X448896Y367684D01*
X448972Y367745D01*
X448986Y367767D01*
X449005Y367785D01*
X449052Y367870D01*
X449105Y367952D01*
X449111Y367977D01*
X449124Y368000D01*
X449141Y368096D01*
X449165Y368191D01*
X449163Y368217D01*
X449167Y368242D01*
X449153Y368339D01*
X449146Y368436D01*
X449135Y368460D01*
X449132Y368486D01*
X449087Y368573D01*
X449049Y368662D01*
X449029Y368688D01*
X449020Y368705D01*
X448996Y368728D01*
X448945Y368793D01*
X432135Y385602D01*
X430275Y387462D01*
X430275Y450905D01*
X430261Y450995D01*
X430253Y451086D01*
X430241Y451115D01*
X430236Y451147D01*
X430193Y451228D01*
X430157Y451312D01*
X430131Y451344D01*
X430120Y451365D01*
X430097Y451387D01*
X430052Y451443D01*
X427763Y453732D01*
X427763Y458128D01*
X430872Y461237D01*
X435268Y461237D01*
X438377Y458128D01*
X438377Y453732D01*
X436088Y451443D01*
X436035Y451369D01*
X435975Y451299D01*
X435963Y451269D01*
X435944Y451243D01*
X435917Y451156D01*
X435883Y451071D01*
X435879Y451030D01*
X435872Y451008D01*
X435873Y450976D01*
X435865Y450905D01*
X435865Y390093D01*
X435879Y390003D01*
X435887Y389912D01*
X435899Y389882D01*
X435904Y389850D01*
X435947Y389769D01*
X435983Y389686D01*
X436009Y389653D01*
X436020Y389633D01*
X436043Y389611D01*
X436088Y389555D01*
X460675Y364968D01*
X462535Y363108D01*
X462535Y233792D01*
X452570Y223827D01*
X452517Y223753D01*
X452457Y223684D01*
X452445Y223654D01*
X452426Y223628D01*
X452399Y223541D01*
X452365Y223456D01*
X452361Y223415D01*
X452354Y223393D01*
X452355Y223360D01*
X452347Y223289D01*
X452347Y220052D01*
X449238Y216943D01*
X444842Y216943D01*
G37*
%LPD*%
%LPC*%
G36*
X625561Y147065D02*
X625561Y147065D01*
X622200Y148457D01*
X619627Y151030D01*
X618235Y154391D01*
X618235Y159004D01*
X618232Y159024D01*
X618234Y159043D01*
X618212Y159145D01*
X618196Y159247D01*
X618186Y159264D01*
X618182Y159284D01*
X618129Y159373D01*
X618080Y159464D01*
X618066Y159478D01*
X618056Y159495D01*
X617977Y159562D01*
X617902Y159634D01*
X617884Y159642D01*
X617869Y159655D01*
X617773Y159694D01*
X617679Y159737D01*
X617659Y159739D01*
X617641Y159747D01*
X617474Y159765D01*
X581406Y159765D01*
X581386Y159762D01*
X581367Y159764D01*
X581265Y159742D01*
X581163Y159726D01*
X581146Y159716D01*
X581126Y159712D01*
X581037Y159659D01*
X580946Y159610D01*
X580932Y159596D01*
X580915Y159586D01*
X580848Y159507D01*
X580776Y159432D01*
X580768Y159414D01*
X580755Y159399D01*
X580716Y159303D01*
X580673Y159209D01*
X580671Y159189D01*
X580663Y159171D01*
X580645Y159004D01*
X580645Y155661D01*
X579253Y152300D01*
X576680Y149727D01*
X573319Y148335D01*
X569681Y148335D01*
X566320Y149727D01*
X563747Y152300D01*
X562355Y155661D01*
X562355Y160274D01*
X562352Y160294D01*
X562354Y160313D01*
X562332Y160415D01*
X562316Y160517D01*
X562306Y160534D01*
X562302Y160554D01*
X562249Y160643D01*
X562200Y160734D01*
X562186Y160748D01*
X562176Y160765D01*
X562097Y160832D01*
X562022Y160904D01*
X562004Y160912D01*
X561989Y160925D01*
X561893Y160964D01*
X561799Y161007D01*
X561779Y161009D01*
X561761Y161017D01*
X561594Y161035D01*
X556006Y161035D01*
X555986Y161032D01*
X555967Y161034D01*
X555865Y161012D01*
X555763Y160996D01*
X555746Y160986D01*
X555726Y160982D01*
X555637Y160929D01*
X555546Y160880D01*
X555532Y160866D01*
X555515Y160856D01*
X555448Y160777D01*
X555376Y160702D01*
X555368Y160684D01*
X555355Y160669D01*
X555316Y160573D01*
X555273Y160479D01*
X555271Y160459D01*
X555263Y160441D01*
X555245Y160274D01*
X555245Y155661D01*
X553853Y152300D01*
X551280Y149727D01*
X547919Y148335D01*
X544281Y148335D01*
X540920Y149727D01*
X538347Y152300D01*
X536955Y155661D01*
X536955Y174539D01*
X538347Y177900D01*
X540920Y180473D01*
X544281Y181865D01*
X547919Y181865D01*
X551280Y180473D01*
X553853Y177900D01*
X555245Y174539D01*
X555245Y169926D01*
X555248Y169906D01*
X555246Y169887D01*
X555268Y169785D01*
X555284Y169683D01*
X555294Y169666D01*
X555298Y169646D01*
X555351Y169557D01*
X555400Y169466D01*
X555414Y169452D01*
X555424Y169435D01*
X555503Y169368D01*
X555578Y169296D01*
X555596Y169288D01*
X555611Y169275D01*
X555707Y169236D01*
X555801Y169193D01*
X555821Y169191D01*
X555839Y169183D01*
X556006Y169165D01*
X561594Y169165D01*
X561614Y169168D01*
X561633Y169166D01*
X561735Y169188D01*
X561837Y169204D01*
X561854Y169214D01*
X561874Y169218D01*
X561963Y169271D01*
X562054Y169320D01*
X562068Y169334D01*
X562085Y169344D01*
X562152Y169423D01*
X562224Y169498D01*
X562232Y169516D01*
X562245Y169531D01*
X562284Y169627D01*
X562327Y169721D01*
X562329Y169741D01*
X562337Y169759D01*
X562355Y169926D01*
X562355Y174539D01*
X563747Y177900D01*
X566320Y180473D01*
X569681Y181865D01*
X573319Y181865D01*
X576680Y180473D01*
X579253Y177900D01*
X580645Y174539D01*
X580645Y168656D01*
X580648Y168636D01*
X580646Y168617D01*
X580668Y168515D01*
X580684Y168413D01*
X580694Y168396D01*
X580698Y168376D01*
X580751Y168287D01*
X580800Y168196D01*
X580814Y168182D01*
X580824Y168165D01*
X580903Y168098D01*
X580978Y168026D01*
X580996Y168018D01*
X581011Y168005D01*
X581107Y167966D01*
X581201Y167923D01*
X581221Y167921D01*
X581239Y167913D01*
X581406Y167895D01*
X617474Y167895D01*
X617494Y167898D01*
X617513Y167896D01*
X617615Y167918D01*
X617717Y167934D01*
X617734Y167944D01*
X617754Y167948D01*
X617843Y168001D01*
X617934Y168050D01*
X617948Y168064D01*
X617965Y168074D01*
X618032Y168153D01*
X618104Y168228D01*
X618112Y168246D01*
X618125Y168261D01*
X618164Y168357D01*
X618207Y168451D01*
X618209Y168471D01*
X618217Y168489D01*
X618235Y168656D01*
X618235Y173269D01*
X619627Y176630D01*
X622200Y179203D01*
X625561Y180595D01*
X629199Y180595D01*
X632560Y179203D01*
X635133Y176630D01*
X636525Y173269D01*
X636525Y168656D01*
X636528Y168636D01*
X636526Y168617D01*
X636548Y168515D01*
X636564Y168413D01*
X636574Y168396D01*
X636578Y168376D01*
X636631Y168287D01*
X636680Y168196D01*
X636694Y168182D01*
X636704Y168165D01*
X636783Y168098D01*
X636858Y168026D01*
X636876Y168018D01*
X636891Y168005D01*
X636987Y167966D01*
X637081Y167923D01*
X637101Y167921D01*
X637119Y167913D01*
X637286Y167895D01*
X642874Y167895D01*
X642894Y167898D01*
X642913Y167896D01*
X643015Y167918D01*
X643117Y167934D01*
X643134Y167944D01*
X643154Y167948D01*
X643243Y168001D01*
X643334Y168050D01*
X643348Y168064D01*
X643365Y168074D01*
X643432Y168153D01*
X643504Y168228D01*
X643512Y168246D01*
X643525Y168261D01*
X643564Y168357D01*
X643607Y168451D01*
X643609Y168471D01*
X643617Y168489D01*
X643635Y168656D01*
X643635Y173269D01*
X645027Y176630D01*
X647600Y179203D01*
X650961Y180595D01*
X654599Y180595D01*
X657960Y179203D01*
X660533Y176630D01*
X661925Y173269D01*
X661925Y154391D01*
X660533Y151030D01*
X657960Y148457D01*
X654599Y147065D01*
X650961Y147065D01*
X647600Y148457D01*
X645027Y151030D01*
X643635Y154391D01*
X643635Y159004D01*
X643632Y159024D01*
X643634Y159043D01*
X643612Y159145D01*
X643596Y159247D01*
X643586Y159264D01*
X643582Y159284D01*
X643529Y159373D01*
X643480Y159464D01*
X643466Y159478D01*
X643456Y159495D01*
X643377Y159562D01*
X643302Y159634D01*
X643284Y159642D01*
X643269Y159655D01*
X643173Y159694D01*
X643079Y159737D01*
X643059Y159739D01*
X643041Y159747D01*
X642874Y159765D01*
X637286Y159765D01*
X637266Y159762D01*
X637247Y159764D01*
X637145Y159742D01*
X637043Y159726D01*
X637026Y159716D01*
X637006Y159712D01*
X636917Y159659D01*
X636826Y159610D01*
X636812Y159596D01*
X636795Y159586D01*
X636728Y159507D01*
X636656Y159432D01*
X636648Y159414D01*
X636635Y159399D01*
X636596Y159303D01*
X636553Y159209D01*
X636551Y159189D01*
X636543Y159171D01*
X636525Y159004D01*
X636525Y154391D01*
X635133Y151030D01*
X632560Y148457D01*
X629199Y147065D01*
X625561Y147065D01*
G37*
%LPD*%
%LPC*%
G36*
X234708Y8475D02*
X234708Y8475D01*
X227962Y10283D01*
X221913Y13775D01*
X216975Y18713D01*
X213483Y24762D01*
X211675Y31508D01*
X211675Y38492D01*
X213483Y45238D01*
X216975Y51287D01*
X221913Y56225D01*
X227962Y59717D01*
X234708Y61525D01*
X241692Y61525D01*
X248438Y59717D01*
X254487Y56225D01*
X259425Y51287D01*
X262917Y45238D01*
X264725Y38492D01*
X264725Y31508D01*
X262917Y24762D01*
X259425Y18713D01*
X254487Y13775D01*
X248438Y10283D01*
X241692Y8475D01*
X234708Y8475D01*
G37*
%LPD*%
%LPC*%
G36*
X266699Y127799D02*
X266699Y127799D01*
X266699Y128562D01*
X266696Y128582D01*
X266698Y128601D01*
X266676Y128703D01*
X266659Y128805D01*
X266650Y128822D01*
X266646Y128842D01*
X266593Y128931D01*
X266544Y129022D01*
X266530Y129036D01*
X266520Y129053D01*
X266441Y129120D01*
X266366Y129191D01*
X266348Y129200D01*
X266333Y129213D01*
X266237Y129252D01*
X266143Y129295D01*
X266123Y129297D01*
X266105Y129305D01*
X265938Y129323D01*
X255777Y129323D01*
X255777Y132324D01*
X261433Y137980D01*
X261445Y137996D01*
X261460Y138009D01*
X261516Y138096D01*
X261577Y138180D01*
X261582Y138199D01*
X261593Y138216D01*
X261619Y138316D01*
X261649Y138415D01*
X261648Y138435D01*
X261653Y138454D01*
X261645Y138557D01*
X261643Y138661D01*
X261636Y138680D01*
X261634Y138699D01*
X261594Y138794D01*
X261558Y138892D01*
X261546Y138908D01*
X261538Y138926D01*
X261433Y139057D01*
X256793Y143696D01*
X256793Y151904D01*
X262151Y157262D01*
X262163Y157278D01*
X262179Y157290D01*
X262235Y157378D01*
X262295Y157461D01*
X262301Y157480D01*
X262312Y157497D01*
X262337Y157598D01*
X262367Y157697D01*
X262367Y157716D01*
X262372Y157736D01*
X262364Y157839D01*
X262361Y157942D01*
X262354Y157961D01*
X262353Y157981D01*
X262312Y158076D01*
X262277Y158173D01*
X262264Y158189D01*
X262256Y158207D01*
X262151Y158338D01*
X256793Y163696D01*
X256793Y171904D01*
X262151Y177262D01*
X262163Y177278D01*
X262179Y177290D01*
X262235Y177378D01*
X262295Y177461D01*
X262301Y177480D01*
X262312Y177497D01*
X262337Y177598D01*
X262367Y177697D01*
X262367Y177716D01*
X262372Y177736D01*
X262364Y177839D01*
X262361Y177942D01*
X262354Y177961D01*
X262353Y177981D01*
X262312Y178076D01*
X262277Y178173D01*
X262264Y178189D01*
X262256Y178207D01*
X262151Y178338D01*
X256793Y183696D01*
X256793Y191904D01*
X262151Y197262D01*
X262163Y197278D01*
X262179Y197290D01*
X262235Y197378D01*
X262295Y197461D01*
X262301Y197480D01*
X262312Y197497D01*
X262337Y197598D01*
X262367Y197697D01*
X262367Y197716D01*
X262372Y197736D01*
X262364Y197839D01*
X262361Y197942D01*
X262354Y197961D01*
X262353Y197981D01*
X262312Y198076D01*
X262277Y198173D01*
X262264Y198189D01*
X262256Y198207D01*
X262151Y198338D01*
X256793Y203696D01*
X256793Y211904D01*
X262151Y217262D01*
X262163Y217278D01*
X262179Y217290D01*
X262208Y217335D01*
X262235Y217364D01*
X262253Y217403D01*
X262295Y217461D01*
X262301Y217480D01*
X262312Y217497D01*
X262329Y217567D01*
X262339Y217588D01*
X262342Y217613D01*
X262367Y217697D01*
X262367Y217716D01*
X262372Y217736D01*
X262365Y217823D01*
X262366Y217832D01*
X262364Y217843D01*
X262361Y217942D01*
X262354Y217961D01*
X262353Y217981D01*
X262312Y218076D01*
X262277Y218173D01*
X262264Y218189D01*
X262256Y218207D01*
X262151Y218338D01*
X256793Y223696D01*
X256793Y231904D01*
X262151Y237262D01*
X262163Y237278D01*
X262179Y237290D01*
X262235Y237378D01*
X262295Y237461D01*
X262301Y237480D01*
X262312Y237497D01*
X262337Y237598D01*
X262367Y237697D01*
X262367Y237716D01*
X262372Y237736D01*
X262364Y237839D01*
X262361Y237942D01*
X262354Y237961D01*
X262353Y237981D01*
X262312Y238076D01*
X262277Y238173D01*
X262264Y238189D01*
X262256Y238207D01*
X262151Y238338D01*
X256793Y243696D01*
X256793Y251904D01*
X262596Y257707D01*
X270804Y257707D01*
X276607Y251904D01*
X276607Y243696D01*
X271249Y238338D01*
X271237Y238322D01*
X271221Y238310D01*
X271165Y238222D01*
X271105Y238139D01*
X271099Y238120D01*
X271088Y238103D01*
X271063Y238002D01*
X271033Y237903D01*
X271033Y237884D01*
X271028Y237864D01*
X271036Y237761D01*
X271039Y237658D01*
X271046Y237639D01*
X271047Y237619D01*
X271088Y237524D01*
X271123Y237427D01*
X271136Y237411D01*
X271144Y237393D01*
X271249Y237262D01*
X276607Y231904D01*
X276607Y223696D01*
X271249Y218338D01*
X271237Y218322D01*
X271221Y218310D01*
X271165Y218222D01*
X271105Y218139D01*
X271099Y218120D01*
X271088Y218103D01*
X271063Y218002D01*
X271062Y218000D01*
X271061Y217998D01*
X271061Y217995D01*
X271033Y217903D01*
X271033Y217884D01*
X271028Y217864D01*
X271036Y217768D01*
X271034Y217753D01*
X271037Y217740D01*
X271039Y217658D01*
X271046Y217639D01*
X271047Y217619D01*
X271080Y217543D01*
X271086Y217513D01*
X271101Y217489D01*
X271123Y217427D01*
X271136Y217411D01*
X271144Y217393D01*
X271200Y217322D01*
X271213Y217302D01*
X271225Y217290D01*
X271249Y217262D01*
X276607Y211904D01*
X276607Y203696D01*
X271249Y198338D01*
X271237Y198322D01*
X271221Y198310D01*
X271165Y198222D01*
X271105Y198139D01*
X271099Y198120D01*
X271088Y198103D01*
X271063Y198002D01*
X271033Y197903D01*
X271033Y197884D01*
X271028Y197864D01*
X271036Y197761D01*
X271039Y197658D01*
X271046Y197639D01*
X271047Y197619D01*
X271088Y197524D01*
X271123Y197427D01*
X271136Y197411D01*
X271144Y197393D01*
X271249Y197262D01*
X276607Y191904D01*
X276607Y183696D01*
X271249Y178338D01*
X271237Y178322D01*
X271221Y178310D01*
X271165Y178222D01*
X271105Y178139D01*
X271099Y178120D01*
X271088Y178103D01*
X271063Y178002D01*
X271033Y177903D01*
X271033Y177884D01*
X271028Y177864D01*
X271036Y177761D01*
X271039Y177658D01*
X271046Y177639D01*
X271047Y177619D01*
X271088Y177524D01*
X271123Y177427D01*
X271136Y177411D01*
X271144Y177393D01*
X271249Y177262D01*
X276607Y171904D01*
X276607Y163696D01*
X271249Y158338D01*
X271237Y158322D01*
X271221Y158310D01*
X271165Y158222D01*
X271105Y158139D01*
X271099Y158120D01*
X271088Y158103D01*
X271063Y158002D01*
X271033Y157903D01*
X271033Y157884D01*
X271028Y157864D01*
X271036Y157761D01*
X271039Y157658D01*
X271046Y157639D01*
X271047Y157619D01*
X271088Y157524D01*
X271123Y157427D01*
X271136Y157411D01*
X271144Y157393D01*
X271249Y157262D01*
X276607Y151904D01*
X276607Y143696D01*
X271967Y139057D01*
X271955Y139041D01*
X271940Y139028D01*
X271884Y138941D01*
X271823Y138857D01*
X271818Y138838D01*
X271807Y138821D01*
X271781Y138721D01*
X271751Y138622D01*
X271752Y138602D01*
X271747Y138583D01*
X271755Y138480D01*
X271757Y138376D01*
X271764Y138357D01*
X271766Y138337D01*
X271806Y138243D01*
X271842Y138145D01*
X271854Y138129D01*
X271862Y138111D01*
X271967Y137980D01*
X277623Y132324D01*
X277623Y129323D01*
X267462Y129323D01*
X267442Y129320D01*
X267423Y129322D01*
X267321Y129300D01*
X267219Y129283D01*
X267202Y129274D01*
X267182Y129270D01*
X267093Y129217D01*
X267002Y129168D01*
X266988Y129154D01*
X266971Y129144D01*
X266904Y129065D01*
X266833Y128990D01*
X266824Y128972D01*
X266811Y128957D01*
X266773Y128861D01*
X266729Y128767D01*
X266727Y128747D01*
X266719Y128729D01*
X266701Y128562D01*
X266701Y127799D01*
X266699Y127799D01*
G37*
%LPD*%
%LPC*%
G36*
X499452Y296953D02*
X499452Y296953D01*
X496343Y300062D01*
X496343Y304458D01*
X498632Y306747D01*
X498685Y306821D01*
X498745Y306891D01*
X498757Y306921D01*
X498776Y306947D01*
X498803Y307034D01*
X498837Y307119D01*
X498841Y307160D01*
X498848Y307182D01*
X498847Y307214D01*
X498855Y307285D01*
X498855Y314848D01*
X597692Y413685D01*
X597745Y413759D01*
X597805Y413828D01*
X597817Y413858D01*
X597836Y413884D01*
X597863Y413971D01*
X597897Y414056D01*
X597901Y414097D01*
X597908Y414119D01*
X597907Y414152D01*
X597915Y414223D01*
X597915Y471820D01*
X599775Y473680D01*
X633850Y507754D01*
X633917Y507848D01*
X633988Y507943D01*
X633990Y507949D01*
X633993Y507954D01*
X634027Y508065D01*
X634064Y508177D01*
X634064Y508183D01*
X634066Y508189D01*
X634063Y508306D01*
X634061Y508422D01*
X634059Y508430D01*
X634059Y508435D01*
X634053Y508452D01*
X634015Y508584D01*
X633221Y510499D01*
X633221Y514137D01*
X634613Y517498D01*
X637186Y520071D01*
X640547Y521463D01*
X644185Y521463D01*
X647546Y520071D01*
X650119Y517498D01*
X651511Y514137D01*
X651511Y510499D01*
X650119Y507138D01*
X647546Y504565D01*
X644185Y503173D01*
X640547Y503173D01*
X638632Y503967D01*
X638518Y503993D01*
X638404Y504022D01*
X638398Y504021D01*
X638392Y504023D01*
X638276Y504012D01*
X638159Y504003D01*
X638154Y504000D01*
X638147Y504000D01*
X638040Y503952D01*
X637933Y503906D01*
X637927Y503902D01*
X637923Y503900D01*
X637909Y503887D01*
X637802Y503802D01*
X603728Y469727D01*
X603675Y469653D01*
X603615Y469584D01*
X603603Y469554D01*
X603584Y469528D01*
X603557Y469441D01*
X603523Y469356D01*
X603519Y469315D01*
X603512Y469293D01*
X603513Y469260D01*
X603505Y469189D01*
X603505Y411592D01*
X504668Y312755D01*
X504615Y312681D01*
X504555Y312612D01*
X504543Y312582D01*
X504524Y312556D01*
X504497Y312469D01*
X504463Y312384D01*
X504459Y312343D01*
X504452Y312321D01*
X504453Y312288D01*
X504445Y312217D01*
X504445Y307285D01*
X504459Y307195D01*
X504467Y307104D01*
X504479Y307075D01*
X504484Y307043D01*
X504527Y306962D01*
X504563Y306878D01*
X504589Y306846D01*
X504600Y306825D01*
X504623Y306803D01*
X504668Y306747D01*
X506957Y304458D01*
X506957Y300062D01*
X503848Y296953D01*
X499452Y296953D01*
G37*
%LPD*%
%LPC*%
G36*
X537552Y261393D02*
X537552Y261393D01*
X534443Y264502D01*
X534443Y268898D01*
X537240Y271695D01*
X537293Y271769D01*
X537353Y271839D01*
X537365Y271869D01*
X537384Y271895D01*
X537411Y271982D01*
X537445Y272067D01*
X537449Y272108D01*
X537456Y272130D01*
X537455Y272162D01*
X537463Y272233D01*
X537463Y337497D01*
X607090Y407124D01*
X607143Y407198D01*
X607203Y407268D01*
X607215Y407298D01*
X607234Y407324D01*
X607261Y407411D01*
X607295Y407496D01*
X607299Y407537D01*
X607306Y407559D01*
X607305Y407591D01*
X607313Y407663D01*
X607313Y455099D01*
X608876Y456662D01*
X659460Y507246D01*
X659528Y507340D01*
X659598Y507435D01*
X659600Y507441D01*
X659604Y507446D01*
X659638Y507557D01*
X659674Y507669D01*
X659674Y507675D01*
X659676Y507681D01*
X659673Y507798D01*
X659672Y507914D01*
X659670Y507922D01*
X659670Y507927D01*
X659663Y507944D01*
X659625Y508076D01*
X658621Y510499D01*
X658621Y514137D01*
X660013Y517498D01*
X662586Y520071D01*
X665947Y521463D01*
X669585Y521463D01*
X672946Y520071D01*
X675519Y517498D01*
X676911Y514137D01*
X676911Y510499D01*
X675519Y507138D01*
X672946Y504565D01*
X669585Y503173D01*
X665947Y503173D01*
X663524Y504177D01*
X663410Y504204D01*
X663296Y504232D01*
X663290Y504232D01*
X663284Y504233D01*
X663168Y504222D01*
X663051Y504213D01*
X663046Y504211D01*
X663039Y504210D01*
X662932Y504162D01*
X662825Y504117D01*
X662819Y504112D01*
X662815Y504110D01*
X662801Y504097D01*
X662694Y504012D01*
X612110Y453428D01*
X612057Y453354D01*
X611997Y453284D01*
X611985Y453254D01*
X611966Y453228D01*
X611939Y453141D01*
X611905Y453056D01*
X611901Y453015D01*
X611894Y452993D01*
X611895Y452961D01*
X611887Y452889D01*
X611887Y405453D01*
X542260Y335826D01*
X542207Y335752D01*
X542147Y335682D01*
X542135Y335652D01*
X542116Y335626D01*
X542089Y335539D01*
X542055Y335454D01*
X542051Y335413D01*
X542044Y335391D01*
X542045Y335359D01*
X542037Y335287D01*
X542037Y272233D01*
X542051Y272143D01*
X542059Y272052D01*
X542071Y272023D01*
X542076Y271991D01*
X542119Y271910D01*
X542155Y271826D01*
X542181Y271794D01*
X542192Y271773D01*
X542215Y271751D01*
X542260Y271695D01*
X545057Y268898D01*
X545057Y264502D01*
X541948Y261393D01*
X537552Y261393D01*
G37*
%LPD*%
%LPC*%
G36*
X444842Y204243D02*
X444842Y204243D01*
X442553Y206532D01*
X442479Y206585D01*
X442409Y206645D01*
X442379Y206657D01*
X442353Y206676D01*
X442266Y206703D01*
X442181Y206737D01*
X442140Y206741D01*
X442118Y206748D01*
X442086Y206747D01*
X442015Y206755D01*
X429372Y206755D01*
X417575Y218552D01*
X417575Y449635D01*
X417561Y449725D01*
X417553Y449816D01*
X417541Y449845D01*
X417536Y449877D01*
X417493Y449958D01*
X417457Y450042D01*
X417431Y450074D01*
X417420Y450095D01*
X417397Y450117D01*
X417352Y450173D01*
X415063Y452462D01*
X415063Y456858D01*
X418172Y459967D01*
X422568Y459967D01*
X425677Y456858D01*
X425677Y452462D01*
X423388Y450173D01*
X423335Y450099D01*
X423275Y450029D01*
X423263Y449999D01*
X423244Y449973D01*
X423217Y449886D01*
X423183Y449801D01*
X423179Y449760D01*
X423172Y449738D01*
X423173Y449706D01*
X423165Y449635D01*
X423165Y221183D01*
X423179Y221093D01*
X423187Y221002D01*
X423199Y220972D01*
X423204Y220940D01*
X423247Y220860D01*
X423283Y220776D01*
X423309Y220744D01*
X423320Y220723D01*
X423343Y220701D01*
X423388Y220645D01*
X431465Y212568D01*
X431539Y212515D01*
X431608Y212455D01*
X431638Y212443D01*
X431664Y212424D01*
X431751Y212397D01*
X431836Y212363D01*
X431877Y212359D01*
X431899Y212352D01*
X431932Y212353D01*
X432003Y212345D01*
X442015Y212345D01*
X442105Y212359D01*
X442196Y212367D01*
X442225Y212379D01*
X442257Y212384D01*
X442338Y212427D01*
X442422Y212463D01*
X442454Y212489D01*
X442475Y212500D01*
X442497Y212523D01*
X442553Y212568D01*
X444842Y214857D01*
X449238Y214857D01*
X452347Y211748D01*
X452347Y207352D01*
X449238Y204243D01*
X444842Y204243D01*
G37*
%LPD*%
%LPC*%
G36*
X277202Y58193D02*
X277202Y58193D01*
X274093Y61302D01*
X274093Y65698D01*
X277202Y68807D01*
X281598Y68807D01*
X283887Y66518D01*
X283961Y66465D01*
X284031Y66405D01*
X284061Y66393D01*
X284087Y66374D01*
X284174Y66347D01*
X284259Y66313D01*
X284300Y66309D01*
X284322Y66302D01*
X284354Y66303D01*
X284425Y66295D01*
X437947Y66295D01*
X438037Y66309D01*
X438128Y66317D01*
X438158Y66329D01*
X438190Y66334D01*
X438270Y66377D01*
X438354Y66413D01*
X438386Y66439D01*
X438407Y66450D01*
X438429Y66473D01*
X438485Y66518D01*
X445292Y73325D01*
X445345Y73399D01*
X445405Y73468D01*
X445417Y73498D01*
X445436Y73524D01*
X445463Y73611D01*
X445497Y73696D01*
X445501Y73737D01*
X445508Y73759D01*
X445507Y73792D01*
X445515Y73863D01*
X445515Y134675D01*
X445512Y134693D01*
X445514Y134711D01*
X445499Y134779D01*
X445493Y134856D01*
X445481Y134885D01*
X445476Y134917D01*
X445465Y134937D01*
X445462Y134951D01*
X445430Y135006D01*
X445397Y135082D01*
X445371Y135114D01*
X445360Y135135D01*
X445342Y135152D01*
X445336Y135163D01*
X445326Y135171D01*
X445292Y135213D01*
X443003Y137502D01*
X443003Y141898D01*
X446112Y145007D01*
X450508Y145007D01*
X453617Y141898D01*
X453617Y137502D01*
X451328Y135213D01*
X451277Y135142D01*
X451236Y135100D01*
X451231Y135088D01*
X451215Y135069D01*
X451203Y135039D01*
X451184Y135013D01*
X451160Y134936D01*
X451133Y134877D01*
X451131Y134861D01*
X451123Y134841D01*
X451119Y134800D01*
X451112Y134778D01*
X451113Y134746D01*
X451105Y134675D01*
X451105Y71232D01*
X440578Y60705D01*
X284425Y60705D01*
X284335Y60691D01*
X284244Y60683D01*
X284215Y60671D01*
X284183Y60666D01*
X284102Y60623D01*
X284018Y60587D01*
X283986Y60561D01*
X283965Y60550D01*
X283943Y60527D01*
X283887Y60482D01*
X281598Y58193D01*
X277202Y58193D01*
G37*
%LPD*%
%LPC*%
G36*
X358384Y316229D02*
X358384Y316229D01*
X353202Y318376D01*
X349237Y322341D01*
X347090Y327523D01*
X347090Y358277D01*
X349237Y363459D01*
X353202Y367424D01*
X358384Y369571D01*
X363992Y369571D01*
X369174Y367424D01*
X373139Y363459D01*
X375286Y358277D01*
X375286Y327523D01*
X373139Y322341D01*
X369174Y318376D01*
X363992Y316229D01*
X358384Y316229D01*
G37*
%LPD*%
%LPC*%
G36*
X468081Y148335D02*
X468081Y148335D01*
X464720Y149727D01*
X462147Y152300D01*
X460755Y155661D01*
X460755Y174539D01*
X462147Y177900D01*
X464720Y180473D01*
X468081Y181865D01*
X469697Y181865D01*
X469787Y181879D01*
X469878Y181887D01*
X469908Y181899D01*
X469940Y181904D01*
X470021Y181947D01*
X470104Y181983D01*
X470137Y182009D01*
X470157Y182020D01*
X470161Y182024D01*
X470162Y182024D01*
X470180Y182044D01*
X470235Y182088D01*
X481442Y193295D01*
X557327Y193295D01*
X557417Y193309D01*
X557508Y193317D01*
X557538Y193329D01*
X557570Y193334D01*
X557650Y193377D01*
X557734Y193413D01*
X557766Y193439D01*
X557787Y193450D01*
X557809Y193473D01*
X557865Y193518D01*
X565970Y201623D01*
X566023Y201697D01*
X566083Y201766D01*
X566095Y201796D01*
X566114Y201822D01*
X566141Y201909D01*
X566175Y201994D01*
X566179Y202035D01*
X566186Y202057D01*
X566185Y202090D01*
X566193Y202161D01*
X566193Y205398D01*
X569302Y208507D01*
X573698Y208507D01*
X576807Y205398D01*
X576807Y201002D01*
X573698Y197893D01*
X570461Y197893D01*
X570371Y197879D01*
X570280Y197871D01*
X570250Y197859D01*
X570218Y197854D01*
X570138Y197811D01*
X570054Y197775D01*
X570022Y197749D01*
X570001Y197738D01*
X569979Y197715D01*
X569923Y197670D01*
X559958Y187705D01*
X484073Y187705D01*
X483983Y187691D01*
X483892Y187683D01*
X483862Y187671D01*
X483830Y187666D01*
X483750Y187623D01*
X483666Y187587D01*
X483634Y187561D01*
X483613Y187550D01*
X483591Y187527D01*
X483535Y187482D01*
X476341Y180288D01*
X476329Y180272D01*
X476314Y180260D01*
X476258Y180173D01*
X476197Y180089D01*
X476191Y180070D01*
X476181Y180053D01*
X476155Y179952D01*
X476125Y179854D01*
X476125Y179834D01*
X476121Y179814D01*
X476129Y179711D01*
X476131Y179608D01*
X476138Y179589D01*
X476140Y179569D01*
X476180Y179474D01*
X476216Y179377D01*
X476228Y179361D01*
X476236Y179343D01*
X476341Y179212D01*
X477653Y177900D01*
X479045Y174539D01*
X479045Y155661D01*
X477653Y152300D01*
X475080Y149727D01*
X471719Y148335D01*
X468081Y148335D01*
G37*
%LPD*%
%LPC*%
G36*
X607402Y286793D02*
X607402Y286793D01*
X604293Y289902D01*
X604293Y294298D01*
X607402Y297407D01*
X611358Y297407D01*
X611448Y297421D01*
X611539Y297429D01*
X611568Y297441D01*
X611600Y297446D01*
X611681Y297489D01*
X611765Y297525D01*
X611797Y297551D01*
X611818Y297562D01*
X611840Y297585D01*
X611896Y297630D01*
X720530Y406264D01*
X720557Y406301D01*
X720591Y406332D01*
X720628Y406401D01*
X720674Y406464D01*
X720687Y406507D01*
X720709Y406548D01*
X720723Y406624D01*
X720746Y406699D01*
X720745Y406745D01*
X720753Y406790D01*
X720742Y406867D01*
X720740Y406945D01*
X720724Y406988D01*
X720717Y407033D01*
X720682Y407102D01*
X720655Y407176D01*
X720626Y407211D01*
X720606Y407252D01*
X720550Y407307D01*
X720501Y407368D01*
X720463Y407392D01*
X720430Y407425D01*
X720310Y407491D01*
X720294Y407501D01*
X720290Y407502D01*
X720283Y407506D01*
X717713Y408570D01*
X714640Y411643D01*
X712977Y415657D01*
X712977Y420003D01*
X714640Y424017D01*
X717713Y427090D01*
X721727Y428753D01*
X726073Y428753D01*
X730087Y427090D01*
X733160Y424017D01*
X734823Y420003D01*
X734823Y415657D01*
X733160Y411643D01*
X730087Y408570D01*
X726657Y407149D01*
X726557Y407088D01*
X726457Y407028D01*
X726453Y407023D01*
X726448Y407020D01*
X726373Y406930D01*
X726320Y406868D01*
X726318Y406866D01*
X726318Y406865D01*
X726297Y406841D01*
X726295Y406835D01*
X726291Y406830D01*
X726249Y406722D01*
X726234Y406684D01*
X726215Y406643D01*
X726214Y406634D01*
X726205Y406613D01*
X726204Y406605D01*
X726203Y406600D01*
X726202Y406582D01*
X726187Y406446D01*
X726187Y405453D01*
X615130Y294396D01*
X615077Y294322D01*
X615017Y294252D01*
X615005Y294222D01*
X614986Y294196D01*
X614959Y294109D01*
X614925Y294024D01*
X614921Y293983D01*
X614914Y293961D01*
X614915Y293929D01*
X614907Y293858D01*
X614907Y289902D01*
X611798Y286793D01*
X607402Y286793D01*
G37*
%LPD*%
%LPC*%
G36*
X619471Y74675D02*
X619471Y74675D01*
X614242Y76841D01*
X610241Y80842D01*
X608075Y86071D01*
X608075Y91729D01*
X610241Y96958D01*
X614242Y100959D01*
X619471Y103125D01*
X625129Y103125D01*
X630358Y100959D01*
X634359Y96958D01*
X636525Y91729D01*
X636525Y86071D01*
X634359Y80842D01*
X630358Y76841D01*
X625129Y74675D01*
X619471Y74675D01*
G37*
%LPD*%
%LPC*%
G36*
X505171Y74675D02*
X505171Y74675D01*
X499942Y76841D01*
X495941Y80842D01*
X493775Y86071D01*
X493775Y91729D01*
X495941Y96958D01*
X499942Y100959D01*
X505171Y103125D01*
X510829Y103125D01*
X516058Y100959D01*
X520059Y96958D01*
X522225Y91729D01*
X522225Y86071D01*
X520059Y80842D01*
X516058Y76841D01*
X510829Y74675D01*
X505171Y74675D01*
G37*
%LPD*%
%LPC*%
G36*
X733771Y74675D02*
X733771Y74675D01*
X728542Y76841D01*
X724541Y80842D01*
X722375Y86071D01*
X722375Y91729D01*
X724541Y96958D01*
X728542Y100959D01*
X733771Y103125D01*
X739429Y103125D01*
X744658Y100959D01*
X748659Y96958D01*
X750825Y91729D01*
X750825Y86071D01*
X748659Y80842D01*
X744658Y76841D01*
X739429Y74675D01*
X733771Y74675D01*
G37*
%LPD*%
%LPC*%
G36*
X771871Y290575D02*
X771871Y290575D01*
X766642Y292741D01*
X762641Y296742D01*
X760475Y301971D01*
X760475Y307629D01*
X762641Y312858D01*
X766642Y316859D01*
X771871Y319025D01*
X777529Y319025D01*
X782758Y316859D01*
X786759Y312858D01*
X788925Y307629D01*
X788925Y301971D01*
X786759Y296742D01*
X782758Y292741D01*
X777529Y290575D01*
X771871Y290575D01*
G37*
%LPD*%
%LPC*%
G36*
X104861Y455675D02*
X104861Y455675D01*
X101500Y457067D01*
X98927Y459640D01*
X97535Y463001D01*
X97535Y481879D01*
X98927Y485240D01*
X101500Y487813D01*
X104861Y489205D01*
X108499Y489205D01*
X111860Y487813D01*
X114433Y485240D01*
X115825Y481879D01*
X115825Y463001D01*
X114433Y459640D01*
X111860Y457067D01*
X108499Y455675D01*
X104861Y455675D01*
G37*
%LPD*%
%LPC*%
G36*
X518881Y148335D02*
X518881Y148335D01*
X515520Y149727D01*
X512947Y152300D01*
X511555Y155661D01*
X511555Y174539D01*
X512947Y177900D01*
X515520Y180473D01*
X518881Y181865D01*
X522519Y181865D01*
X525880Y180473D01*
X528453Y177900D01*
X529845Y174539D01*
X529845Y155661D01*
X528453Y152300D01*
X525880Y149727D01*
X522519Y148335D01*
X518881Y148335D01*
G37*
%LPD*%
%LPC*%
G36*
X595081Y592835D02*
X595081Y592835D01*
X591720Y594227D01*
X589147Y596800D01*
X587755Y600161D01*
X587755Y619039D01*
X589147Y622400D01*
X591720Y624973D01*
X595081Y626365D01*
X598719Y626365D01*
X602080Y624973D01*
X604653Y622400D01*
X606045Y619039D01*
X606045Y600161D01*
X604653Y596800D01*
X602080Y594227D01*
X598719Y592835D01*
X595081Y592835D01*
G37*
%LPD*%
%LPC*%
G36*
X760181Y592835D02*
X760181Y592835D01*
X756820Y594227D01*
X754247Y596800D01*
X752855Y600161D01*
X752855Y619039D01*
X754247Y622400D01*
X756820Y624973D01*
X760181Y626365D01*
X763819Y626365D01*
X767180Y624973D01*
X769753Y622400D01*
X771145Y619039D01*
X771145Y600161D01*
X769753Y596800D01*
X767180Y594227D01*
X763819Y592835D01*
X760181Y592835D01*
G37*
%LPD*%
%LPC*%
G36*
X569681Y592835D02*
X569681Y592835D01*
X566320Y594227D01*
X563747Y596800D01*
X562355Y600161D01*
X562355Y619039D01*
X563747Y622400D01*
X566320Y624973D01*
X569681Y626365D01*
X573319Y626365D01*
X576680Y624973D01*
X579253Y622400D01*
X580645Y619039D01*
X580645Y600161D01*
X579253Y596800D01*
X576680Y594227D01*
X573319Y592835D01*
X569681Y592835D01*
G37*
%LPD*%
%LPC*%
G36*
X734781Y592835D02*
X734781Y592835D01*
X731420Y594227D01*
X728847Y596800D01*
X727455Y600161D01*
X727455Y619039D01*
X728847Y622400D01*
X731420Y624973D01*
X734781Y626365D01*
X738419Y626365D01*
X741780Y624973D01*
X744353Y622400D01*
X745745Y619039D01*
X745745Y600161D01*
X744353Y596800D01*
X741780Y594227D01*
X738419Y592835D01*
X734781Y592835D01*
G37*
%LPD*%
%LPC*%
G36*
X480781Y592835D02*
X480781Y592835D01*
X477420Y594227D01*
X474847Y596800D01*
X473455Y600161D01*
X473455Y619039D01*
X474847Y622400D01*
X477420Y624973D01*
X480781Y626365D01*
X484419Y626365D01*
X487780Y624973D01*
X490353Y622400D01*
X491745Y619039D01*
X491745Y600161D01*
X490353Y596800D01*
X487780Y594227D01*
X484419Y592835D01*
X480781Y592835D01*
G37*
%LPD*%
%LPC*%
G36*
X455381Y427735D02*
X455381Y427735D01*
X452020Y429127D01*
X449447Y431700D01*
X448055Y435061D01*
X448055Y453939D01*
X449447Y457300D01*
X452020Y459873D01*
X455381Y461265D01*
X459019Y461265D01*
X462380Y459873D01*
X464953Y457300D01*
X466345Y453939D01*
X466345Y435061D01*
X464953Y431700D01*
X462380Y429127D01*
X459019Y427735D01*
X455381Y427735D01*
G37*
%LPD*%
%LPC*%
G36*
X480781Y427735D02*
X480781Y427735D01*
X477420Y429127D01*
X474847Y431700D01*
X473455Y435061D01*
X473455Y453939D01*
X474847Y457300D01*
X477420Y459873D01*
X480781Y461265D01*
X484419Y461265D01*
X487780Y459873D01*
X490353Y457300D01*
X491745Y453939D01*
X491745Y435061D01*
X490353Y431700D01*
X487780Y429127D01*
X484419Y427735D01*
X480781Y427735D01*
G37*
%LPD*%
%LPC*%
G36*
X302981Y21335D02*
X302981Y21335D01*
X299620Y22727D01*
X297047Y25300D01*
X295655Y28661D01*
X295655Y47539D01*
X297047Y50900D01*
X299620Y53473D01*
X302981Y54865D01*
X306619Y54865D01*
X309980Y53473D01*
X312553Y50900D01*
X313945Y47539D01*
X313945Y28661D01*
X312553Y25300D01*
X309980Y22727D01*
X306619Y21335D01*
X302981Y21335D01*
G37*
%LPD*%
%LPC*%
G36*
X328381Y21335D02*
X328381Y21335D01*
X325020Y22727D01*
X322447Y25300D01*
X321055Y28661D01*
X321055Y47539D01*
X322447Y50900D01*
X325020Y53473D01*
X328381Y54865D01*
X332019Y54865D01*
X335380Y53473D01*
X337953Y50900D01*
X339345Y47539D01*
X339345Y28661D01*
X337953Y25300D01*
X335380Y22727D01*
X332019Y21335D01*
X328381Y21335D01*
G37*
%LPD*%
%LPC*%
G36*
X47711Y352805D02*
X47711Y352805D01*
X44350Y354197D01*
X41777Y356770D01*
X40385Y360131D01*
X40385Y379009D01*
X41777Y382370D01*
X44350Y384943D01*
X47711Y386335D01*
X51349Y386335D01*
X54710Y384943D01*
X57283Y382370D01*
X58675Y379009D01*
X58675Y360131D01*
X57283Y356770D01*
X54710Y354197D01*
X51349Y352805D01*
X47711Y352805D01*
G37*
%LPD*%
%LPC*%
G36*
X130261Y455675D02*
X130261Y455675D01*
X126900Y457067D01*
X124327Y459640D01*
X122935Y463001D01*
X122935Y481879D01*
X124327Y485240D01*
X126900Y487813D01*
X130261Y489205D01*
X133899Y489205D01*
X137260Y487813D01*
X139833Y485240D01*
X141225Y481879D01*
X141225Y463001D01*
X139833Y459640D01*
X137260Y457067D01*
X133899Y455675D01*
X130261Y455675D01*
G37*
%LPD*%
%LPC*%
G36*
X155661Y455675D02*
X155661Y455675D01*
X152300Y457067D01*
X149727Y459640D01*
X148335Y463001D01*
X148335Y481879D01*
X149727Y485240D01*
X152300Y487813D01*
X155661Y489205D01*
X159299Y489205D01*
X162660Y487813D01*
X165233Y485240D01*
X166625Y481879D01*
X166625Y463001D01*
X165233Y459640D01*
X162660Y457067D01*
X159299Y455675D01*
X155661Y455675D01*
G37*
%LPD*%
%LPC*%
G36*
X28661Y455675D02*
X28661Y455675D01*
X25300Y457067D01*
X22727Y459640D01*
X21335Y463001D01*
X21335Y481879D01*
X22727Y485240D01*
X25300Y487813D01*
X28661Y489205D01*
X32299Y489205D01*
X35660Y487813D01*
X38233Y485240D01*
X39625Y481879D01*
X39625Y463001D01*
X38233Y459640D01*
X35660Y457067D01*
X32299Y455675D01*
X28661Y455675D01*
G37*
%LPD*%
%LPC*%
G36*
X404581Y72135D02*
X404581Y72135D01*
X401220Y73527D01*
X398647Y76100D01*
X397255Y79461D01*
X397255Y98339D01*
X398647Y101700D01*
X401220Y104273D01*
X404581Y105665D01*
X408219Y105665D01*
X411580Y104273D01*
X414153Y101700D01*
X415545Y98339D01*
X415545Y79461D01*
X414153Y76100D01*
X411580Y73527D01*
X408219Y72135D01*
X404581Y72135D01*
G37*
%LPD*%
%LPC*%
G36*
X429981Y72135D02*
X429981Y72135D01*
X426620Y73527D01*
X424047Y76100D01*
X422655Y79461D01*
X422655Y98339D01*
X424047Y101700D01*
X426620Y104273D01*
X429981Y105665D01*
X433619Y105665D01*
X436980Y104273D01*
X439553Y101700D01*
X440945Y98339D01*
X440945Y79461D01*
X439553Y76100D01*
X436980Y73527D01*
X433619Y72135D01*
X429981Y72135D01*
G37*
%LPD*%
%LPC*%
G36*
X79461Y455675D02*
X79461Y455675D01*
X76100Y457067D01*
X73527Y459640D01*
X72135Y463001D01*
X72135Y481879D01*
X73527Y485240D01*
X76100Y487813D01*
X79461Y489205D01*
X83099Y489205D01*
X86460Y487813D01*
X89033Y485240D01*
X90425Y481879D01*
X90425Y463001D01*
X89033Y459640D01*
X86460Y457067D01*
X83099Y455675D01*
X79461Y455675D01*
G37*
%LPD*%
%LPC*%
G36*
X727161Y147065D02*
X727161Y147065D01*
X723800Y148457D01*
X721227Y151030D01*
X719835Y154391D01*
X719835Y173269D01*
X721227Y176630D01*
X723800Y179203D01*
X727161Y180595D01*
X730799Y180595D01*
X734160Y179203D01*
X736733Y176630D01*
X738125Y173269D01*
X738125Y154391D01*
X736733Y151030D01*
X734160Y148457D01*
X730799Y147065D01*
X727161Y147065D01*
G37*
%LPD*%
%LPC*%
G36*
X290281Y427735D02*
X290281Y427735D01*
X286920Y429127D01*
X284347Y431700D01*
X282955Y435061D01*
X282955Y453939D01*
X284347Y457300D01*
X286920Y459873D01*
X290281Y461265D01*
X293919Y461265D01*
X297280Y459873D01*
X299853Y457300D01*
X301245Y453939D01*
X301245Y435061D01*
X299853Y431700D01*
X297280Y429127D01*
X293919Y427735D01*
X290281Y427735D01*
G37*
%LPD*%
%LPC*%
G36*
X556981Y427735D02*
X556981Y427735D01*
X553620Y429127D01*
X551047Y431700D01*
X549655Y435061D01*
X549655Y453939D01*
X551047Y457300D01*
X553620Y459873D01*
X556981Y461265D01*
X560619Y461265D01*
X563980Y459873D01*
X566553Y457300D01*
X567945Y453939D01*
X567945Y435061D01*
X566553Y431700D01*
X563980Y429127D01*
X560619Y427735D01*
X556981Y427735D01*
G37*
%LPD*%
%LPC*%
G36*
X676361Y147065D02*
X676361Y147065D01*
X673000Y148457D01*
X670427Y151030D01*
X669035Y154391D01*
X669035Y173269D01*
X670427Y176630D01*
X673000Y179203D01*
X676361Y180595D01*
X679999Y180595D01*
X683360Y179203D01*
X685933Y176630D01*
X687325Y173269D01*
X687325Y154391D01*
X685933Y151030D01*
X683360Y148457D01*
X679999Y147065D01*
X676361Y147065D01*
G37*
%LPD*%
%LPC*%
G36*
X701761Y147065D02*
X701761Y147065D01*
X698400Y148457D01*
X695827Y151030D01*
X694435Y154391D01*
X694435Y173269D01*
X695827Y176630D01*
X698400Y179203D01*
X701761Y180595D01*
X705399Y180595D01*
X708760Y179203D01*
X711333Y176630D01*
X712725Y173269D01*
X712725Y154391D01*
X711333Y151030D01*
X708760Y148457D01*
X705399Y147065D01*
X701761Y147065D01*
G37*
%LPD*%
%LPC*%
G36*
X752561Y147065D02*
X752561Y147065D01*
X749200Y148457D01*
X746627Y151030D01*
X745235Y154391D01*
X745235Y173269D01*
X746627Y176630D01*
X749200Y179203D01*
X752561Y180595D01*
X756199Y180595D01*
X759560Y179203D01*
X762133Y176630D01*
X763525Y173269D01*
X763525Y154391D01*
X762133Y151030D01*
X759560Y148457D01*
X756199Y147065D01*
X752561Y147065D01*
G37*
%LPD*%
%LPC*%
G36*
X777961Y147065D02*
X777961Y147065D01*
X774600Y148457D01*
X772027Y151030D01*
X770635Y154391D01*
X770635Y173269D01*
X772027Y176630D01*
X774600Y179203D01*
X777961Y180595D01*
X781599Y180595D01*
X784960Y179203D01*
X787533Y176630D01*
X788925Y173269D01*
X788925Y154391D01*
X787533Y151030D01*
X784960Y148457D01*
X781599Y147065D01*
X777961Y147065D01*
G37*
%LPD*%
%LPC*%
G36*
X803361Y147065D02*
X803361Y147065D01*
X800000Y148457D01*
X797427Y151030D01*
X796035Y154391D01*
X796035Y173269D01*
X797427Y176630D01*
X800000Y179203D01*
X803361Y180595D01*
X806999Y180595D01*
X810360Y179203D01*
X812933Y176630D01*
X814325Y173269D01*
X814325Y154391D01*
X812933Y151030D01*
X810360Y148457D01*
X806999Y147065D01*
X803361Y147065D01*
G37*
%LPD*%
%LPC*%
G36*
X828761Y147065D02*
X828761Y147065D01*
X825400Y148457D01*
X822827Y151030D01*
X821435Y154391D01*
X821435Y173269D01*
X822827Y176630D01*
X825400Y179203D01*
X828761Y180595D01*
X832399Y180595D01*
X835760Y179203D01*
X838333Y176630D01*
X839725Y173269D01*
X839725Y154391D01*
X838333Y151030D01*
X835760Y148457D01*
X832399Y147065D01*
X828761Y147065D01*
G37*
%LPD*%
%LPC*%
G36*
X493481Y148335D02*
X493481Y148335D01*
X490120Y149727D01*
X487547Y152300D01*
X486155Y155661D01*
X486155Y174539D01*
X487547Y177900D01*
X490120Y180473D01*
X493481Y181865D01*
X497119Y181865D01*
X500480Y180473D01*
X503053Y177900D01*
X504445Y174539D01*
X504445Y155661D01*
X503053Y152300D01*
X500480Y149727D01*
X497119Y148335D01*
X493481Y148335D01*
G37*
%LPD*%
%LPC*%
G36*
X531581Y427735D02*
X531581Y427735D01*
X528220Y429127D01*
X525647Y431700D01*
X524255Y435061D01*
X524255Y453939D01*
X525647Y457300D01*
X528220Y459873D01*
X531581Y461265D01*
X535219Y461265D01*
X538580Y459873D01*
X541153Y457300D01*
X542545Y453939D01*
X542545Y435061D01*
X541153Y431700D01*
X538580Y429127D01*
X535219Y427735D01*
X531581Y427735D01*
G37*
%LPD*%
%LPC*%
G36*
X54061Y455675D02*
X54061Y455675D01*
X50700Y457067D01*
X48127Y459640D01*
X46735Y463001D01*
X46735Y481879D01*
X48127Y485240D01*
X50700Y487813D01*
X54061Y489205D01*
X57699Y489205D01*
X61060Y487813D01*
X63633Y485240D01*
X65025Y481879D01*
X65025Y463001D01*
X63633Y459640D01*
X61060Y457067D01*
X57699Y455675D01*
X54061Y455675D01*
G37*
%LPD*%
%LPC*%
G36*
X3261Y455675D02*
X3261Y455675D01*
X-100Y457067D01*
X-2673Y459640D01*
X-4065Y463001D01*
X-4065Y481879D01*
X-2673Y485240D01*
X-100Y487813D01*
X3261Y489205D01*
X6899Y489205D01*
X10260Y487813D01*
X12833Y485240D01*
X14225Y481879D01*
X14225Y463001D01*
X12833Y459640D01*
X10260Y457067D01*
X6899Y455675D01*
X3261Y455675D01*
G37*
%LPD*%
%LPC*%
G36*
X747127Y406907D02*
X747127Y406907D01*
X743113Y408570D01*
X740040Y411643D01*
X738377Y415657D01*
X738377Y420003D01*
X740040Y424017D01*
X743113Y427090D01*
X747127Y428753D01*
X751473Y428753D01*
X755487Y427090D01*
X758560Y424017D01*
X760223Y420003D01*
X760223Y415657D01*
X758560Y411643D01*
X755487Y408570D01*
X751473Y406907D01*
X747127Y406907D01*
G37*
%LPD*%
%LPC*%
G36*
X772527Y406907D02*
X772527Y406907D01*
X768513Y408570D01*
X765440Y411643D01*
X763777Y415657D01*
X763777Y420003D01*
X765440Y424017D01*
X768513Y427090D01*
X772527Y428753D01*
X776873Y428753D01*
X780887Y427090D01*
X783960Y424017D01*
X785623Y420003D01*
X785623Y415657D01*
X783960Y411643D01*
X780887Y408570D01*
X776873Y406907D01*
X772527Y406907D01*
G37*
%LPD*%
%LPC*%
G36*
X670927Y406907D02*
X670927Y406907D01*
X666913Y408570D01*
X663840Y411643D01*
X662177Y415657D01*
X662177Y420003D01*
X663840Y424017D01*
X666913Y427090D01*
X670927Y428753D01*
X675273Y428753D01*
X679287Y427090D01*
X682360Y424017D01*
X684023Y420003D01*
X684023Y415657D01*
X682360Y411643D01*
X679287Y408570D01*
X675273Y406907D01*
X670927Y406907D01*
G37*
%LPD*%
%LPC*%
G36*
X721727Y434847D02*
X721727Y434847D01*
X717713Y436510D01*
X714640Y439583D01*
X712977Y443597D01*
X712977Y447943D01*
X714640Y451957D01*
X717713Y455030D01*
X721727Y456693D01*
X726073Y456693D01*
X730087Y455030D01*
X733160Y451957D01*
X734823Y447943D01*
X734823Y443597D01*
X733160Y439583D01*
X730087Y436510D01*
X726073Y434847D01*
X721727Y434847D01*
G37*
%LPD*%
%LPC*%
G36*
X747127Y434847D02*
X747127Y434847D01*
X743113Y436510D01*
X740040Y439583D01*
X738377Y443597D01*
X738377Y447943D01*
X740040Y451957D01*
X743113Y455030D01*
X747127Y456693D01*
X751473Y456693D01*
X755487Y455030D01*
X758560Y451957D01*
X760223Y447943D01*
X760223Y443597D01*
X758560Y439583D01*
X755487Y436510D01*
X751473Y434847D01*
X747127Y434847D01*
G37*
%LPD*%
%LPC*%
G36*
X380114Y13137D02*
X380114Y13137D01*
X379221Y14030D01*
X379221Y30534D01*
X380114Y31427D01*
X396618Y31427D01*
X397511Y30534D01*
X397511Y14030D01*
X396618Y13137D01*
X380114Y13137D01*
G37*
%LPD*%
%LPC*%
G36*
X323087Y344423D02*
X323087Y344423D01*
X323087Y370534D01*
X325103Y370215D01*
X327366Y369479D01*
X329485Y368399D01*
X331410Y367001D01*
X333092Y365319D01*
X334490Y363394D01*
X335570Y361275D01*
X336306Y359012D01*
X336678Y356662D01*
X336678Y344423D01*
X323087Y344423D01*
G37*
%LPD*%
%LPC*%
G36*
X402335Y344423D02*
X402335Y344423D01*
X402335Y370534D01*
X404351Y370215D01*
X406614Y369479D01*
X408733Y368399D01*
X410658Y367001D01*
X412340Y365319D01*
X413738Y363394D01*
X414818Y361275D01*
X415554Y359012D01*
X415926Y356662D01*
X415926Y344423D01*
X402335Y344423D01*
G37*
%LPD*%
%LPC*%
G36*
X323087Y341377D02*
X323087Y341377D01*
X336678Y341377D01*
X336678Y329138D01*
X336306Y326788D01*
X335570Y324525D01*
X334490Y322406D01*
X333092Y320481D01*
X331410Y318799D01*
X329485Y317401D01*
X327366Y316321D01*
X325103Y315585D01*
X323087Y315266D01*
X323087Y341377D01*
G37*
%LPD*%
%LPC*%
G36*
X402335Y341377D02*
X402335Y341377D01*
X415926Y341377D01*
X415926Y329138D01*
X415554Y326788D01*
X414818Y324525D01*
X413738Y322406D01*
X412340Y320481D01*
X410658Y318799D01*
X408733Y317401D01*
X406614Y316321D01*
X404351Y315585D01*
X402335Y315266D01*
X402335Y341377D01*
G37*
%LPD*%
%LPC*%
G36*
X306450Y344423D02*
X306450Y344423D01*
X306450Y356662D01*
X306822Y359012D01*
X307558Y361275D01*
X308638Y363394D01*
X310036Y365319D01*
X311718Y367001D01*
X313643Y368399D01*
X315762Y369479D01*
X318025Y370215D01*
X320041Y370534D01*
X320041Y344423D01*
X306450Y344423D01*
G37*
%LPD*%
%LPC*%
G36*
X385698Y344423D02*
X385698Y344423D01*
X385698Y356662D01*
X386070Y359012D01*
X386806Y361275D01*
X387886Y363394D01*
X389284Y365319D01*
X390966Y367001D01*
X392891Y368399D01*
X395010Y369479D01*
X397273Y370215D01*
X399289Y370534D01*
X399289Y344423D01*
X385698Y344423D01*
G37*
%LPD*%
%LPC*%
G36*
X318025Y315585D02*
X318025Y315585D01*
X315762Y316321D01*
X313643Y317401D01*
X311718Y318799D01*
X310036Y320481D01*
X308638Y322406D01*
X307558Y324525D01*
X306822Y326788D01*
X306450Y329138D01*
X306450Y341377D01*
X320041Y341377D01*
X320041Y315266D01*
X318025Y315585D01*
G37*
%LPD*%
%LPC*%
G36*
X397273Y315585D02*
X397273Y315585D01*
X395010Y316321D01*
X392891Y317401D01*
X390966Y318799D01*
X389284Y320481D01*
X387886Y322406D01*
X386806Y324525D01*
X386070Y326788D01*
X385698Y329138D01*
X385698Y341377D01*
X399289Y341377D01*
X399289Y315266D01*
X397273Y315585D01*
G37*
%LPD*%
%LPC*%
G36*
X386547Y38537D02*
X386547Y38537D01*
X383186Y39929D01*
X380613Y42502D01*
X379221Y45863D01*
X379221Y49501D01*
X380613Y52862D01*
X383186Y55435D01*
X386547Y56827D01*
X390185Y56827D01*
X393546Y55435D01*
X396119Y52862D01*
X397511Y49501D01*
X397511Y45863D01*
X396119Y42502D01*
X393546Y39929D01*
X390185Y38537D01*
X386547Y38537D01*
G37*
%LPD*%
%LPC*%
G36*
X411947Y38537D02*
X411947Y38537D01*
X408586Y39929D01*
X406013Y42502D01*
X404621Y45863D01*
X404621Y49501D01*
X406013Y52862D01*
X408586Y55435D01*
X411947Y56827D01*
X415585Y56827D01*
X418946Y55435D01*
X421519Y52862D01*
X422911Y49501D01*
X422911Y45863D01*
X421519Y42502D01*
X418946Y39929D01*
X415585Y38537D01*
X411947Y38537D01*
G37*
%LPD*%
%LPC*%
G36*
X691347Y503173D02*
X691347Y503173D01*
X687986Y504565D01*
X685413Y507138D01*
X684021Y510499D01*
X684021Y514137D01*
X685413Y517498D01*
X687986Y520071D01*
X691347Y521463D01*
X694985Y521463D01*
X698346Y520071D01*
X700919Y517498D01*
X702311Y514137D01*
X702311Y510499D01*
X700919Y507138D01*
X698346Y504565D01*
X694985Y503173D01*
X691347Y503173D01*
G37*
%LPD*%
%LPC*%
G36*
X615147Y503173D02*
X615147Y503173D01*
X611786Y504565D01*
X609213Y507138D01*
X607821Y510499D01*
X607821Y514137D01*
X609213Y517498D01*
X611786Y520071D01*
X615147Y521463D01*
X618785Y521463D01*
X622146Y520071D01*
X624719Y517498D01*
X626111Y514137D01*
X626111Y510499D01*
X624719Y507138D01*
X622146Y504565D01*
X618785Y503173D01*
X615147Y503173D01*
G37*
%LPD*%
%LPC*%
G36*
X411947Y13137D02*
X411947Y13137D01*
X408586Y14529D01*
X406013Y17102D01*
X404621Y20463D01*
X404621Y24101D01*
X406013Y27462D01*
X408586Y30035D01*
X411947Y31427D01*
X415585Y31427D01*
X418946Y30035D01*
X421519Y27462D01*
X422911Y24101D01*
X422911Y20463D01*
X421519Y17102D01*
X418946Y14529D01*
X415585Y13137D01*
X411947Y13137D01*
G37*
%LPD*%
%LPC*%
G36*
X665947Y528573D02*
X665947Y528573D01*
X662586Y529965D01*
X660013Y532538D01*
X658621Y535899D01*
X658621Y539537D01*
X660013Y542898D01*
X662586Y545471D01*
X665947Y546863D01*
X669585Y546863D01*
X672946Y545471D01*
X675519Y542898D01*
X676911Y539537D01*
X676911Y535899D01*
X675519Y532538D01*
X672946Y529965D01*
X669585Y528573D01*
X665947Y528573D01*
G37*
%LPD*%
%LPC*%
G36*
X716747Y528573D02*
X716747Y528573D01*
X713386Y529965D01*
X710813Y532538D01*
X709421Y535899D01*
X709421Y539537D01*
X710813Y542898D01*
X713386Y545471D01*
X716747Y546863D01*
X720385Y546863D01*
X723746Y545471D01*
X726319Y542898D01*
X727711Y539537D01*
X727711Y535899D01*
X726319Y532538D01*
X723746Y529965D01*
X720385Y528573D01*
X716747Y528573D01*
G37*
%LPD*%
%LPC*%
G36*
X742147Y528573D02*
X742147Y528573D01*
X738786Y529965D01*
X736213Y532538D01*
X734821Y535899D01*
X734821Y539537D01*
X736213Y542898D01*
X738786Y545471D01*
X742147Y546863D01*
X745785Y546863D01*
X749146Y545471D01*
X751719Y542898D01*
X753111Y539537D01*
X753111Y535899D01*
X751719Y532538D01*
X749146Y529965D01*
X745785Y528573D01*
X742147Y528573D01*
G37*
%LPD*%
%LPC*%
G36*
X615147Y528573D02*
X615147Y528573D01*
X611786Y529965D01*
X609213Y532538D01*
X607821Y535899D01*
X607821Y539537D01*
X609213Y542898D01*
X611786Y545471D01*
X615147Y546863D01*
X618785Y546863D01*
X622146Y545471D01*
X624719Y542898D01*
X626111Y539537D01*
X626111Y535899D01*
X624719Y532538D01*
X622146Y529965D01*
X618785Y528573D01*
X615147Y528573D01*
G37*
%LPD*%
%LPC*%
G36*
X623823Y39623D02*
X623823Y39623D01*
X623823Y53289D01*
X625869Y52965D01*
X628150Y52224D01*
X630288Y51135D01*
X632229Y49725D01*
X633925Y48029D01*
X635335Y46088D01*
X636424Y43950D01*
X637165Y41669D01*
X637489Y39623D01*
X623823Y39623D01*
G37*
%LPD*%
%LPC*%
G36*
X509523Y39623D02*
X509523Y39623D01*
X509523Y53289D01*
X511569Y52965D01*
X513850Y52224D01*
X515988Y51135D01*
X517929Y49725D01*
X519625Y48029D01*
X521035Y46088D01*
X522124Y43950D01*
X522865Y41669D01*
X523189Y39623D01*
X509523Y39623D01*
G37*
%LPD*%
%LPC*%
G36*
X827023Y306323D02*
X827023Y306323D01*
X827023Y319989D01*
X829069Y319665D01*
X831350Y318924D01*
X833488Y317835D01*
X835429Y316425D01*
X837125Y314729D01*
X838535Y312788D01*
X839624Y310650D01*
X840365Y308369D01*
X840689Y306323D01*
X827023Y306323D01*
G37*
%LPD*%
%LPC*%
G36*
X738123Y39623D02*
X738123Y39623D01*
X738123Y53289D01*
X740169Y52965D01*
X742450Y52224D01*
X744588Y51135D01*
X746529Y49725D01*
X748225Y48029D01*
X749635Y46088D01*
X750724Y43950D01*
X751465Y41669D01*
X751789Y39623D01*
X738123Y39623D01*
G37*
%LPD*%
%LPC*%
G36*
X827023Y303277D02*
X827023Y303277D01*
X840689Y303277D01*
X840365Y301231D01*
X839624Y298950D01*
X838535Y296812D01*
X837125Y294871D01*
X835429Y293175D01*
X833488Y291765D01*
X831350Y290676D01*
X829069Y289935D01*
X827023Y289611D01*
X827023Y303277D01*
G37*
%LPD*%
%LPC*%
G36*
X492811Y39623D02*
X492811Y39623D01*
X493135Y41669D01*
X493876Y43950D01*
X494965Y46088D01*
X496375Y48029D01*
X498071Y49725D01*
X500012Y51135D01*
X502150Y52224D01*
X504431Y52965D01*
X506477Y53289D01*
X506477Y39623D01*
X492811Y39623D01*
G37*
%LPD*%
%LPC*%
G36*
X721411Y39623D02*
X721411Y39623D01*
X721735Y41669D01*
X722476Y43950D01*
X723565Y46088D01*
X724975Y48029D01*
X726671Y49725D01*
X728612Y51135D01*
X730750Y52224D01*
X733031Y52965D01*
X735077Y53289D01*
X735077Y39623D01*
X721411Y39623D01*
G37*
%LPD*%
%LPC*%
G36*
X623823Y36577D02*
X623823Y36577D01*
X637489Y36577D01*
X637165Y34531D01*
X636424Y32250D01*
X635335Y30112D01*
X633925Y28171D01*
X632229Y26475D01*
X630288Y25065D01*
X628150Y23976D01*
X625869Y23235D01*
X623823Y22911D01*
X623823Y36577D01*
G37*
%LPD*%
%LPC*%
G36*
X738123Y36577D02*
X738123Y36577D01*
X751789Y36577D01*
X751465Y34531D01*
X750724Y32250D01*
X749635Y30112D01*
X748225Y28171D01*
X746529Y26475D01*
X744588Y25065D01*
X742450Y23976D01*
X740169Y23235D01*
X738123Y22911D01*
X738123Y36577D01*
G37*
%LPD*%
%LPC*%
G36*
X509523Y36577D02*
X509523Y36577D01*
X523189Y36577D01*
X522865Y34531D01*
X522124Y32250D01*
X521035Y30112D01*
X519625Y28171D01*
X517929Y26475D01*
X515988Y25065D01*
X513850Y23976D01*
X511569Y23235D01*
X509523Y22911D01*
X509523Y36577D01*
G37*
%LPD*%
%LPC*%
G36*
X607111Y39623D02*
X607111Y39623D01*
X607435Y41669D01*
X608176Y43950D01*
X609265Y46088D01*
X610675Y48029D01*
X612371Y49725D01*
X614312Y51135D01*
X616450Y52224D01*
X618731Y52965D01*
X620777Y53289D01*
X620777Y39623D01*
X607111Y39623D01*
G37*
%LPD*%
%LPC*%
G36*
X810311Y306323D02*
X810311Y306323D01*
X810635Y308369D01*
X811376Y310650D01*
X812465Y312788D01*
X813875Y314729D01*
X815571Y316425D01*
X817512Y317835D01*
X819650Y318924D01*
X821931Y319665D01*
X823977Y319989D01*
X823977Y306323D01*
X810311Y306323D01*
G37*
%LPD*%
%LPC*%
G36*
X618731Y23235D02*
X618731Y23235D01*
X616450Y23976D01*
X614312Y25065D01*
X612371Y26475D01*
X610675Y28171D01*
X609265Y30112D01*
X608176Y32250D01*
X607435Y34531D01*
X607111Y36577D01*
X620777Y36577D01*
X620777Y22911D01*
X618731Y23235D01*
G37*
%LPD*%
%LPC*%
G36*
X733031Y23235D02*
X733031Y23235D01*
X730750Y23976D01*
X728612Y25065D01*
X726671Y26475D01*
X724975Y28171D01*
X723565Y30112D01*
X722476Y32250D01*
X721735Y34531D01*
X721411Y36577D01*
X735077Y36577D01*
X735077Y22911D01*
X733031Y23235D01*
G37*
%LPD*%
%LPC*%
G36*
X821931Y289935D02*
X821931Y289935D01*
X819650Y290676D01*
X817512Y291765D01*
X815571Y293175D01*
X813875Y294871D01*
X812465Y296812D01*
X811376Y298950D01*
X810635Y301231D01*
X810311Y303277D01*
X823977Y303277D01*
X823977Y289611D01*
X821931Y289935D01*
G37*
%LPD*%
%LPC*%
G36*
X504431Y23235D02*
X504431Y23235D01*
X502150Y23976D01*
X500012Y25065D01*
X498071Y26475D01*
X496375Y28171D01*
X494965Y30112D01*
X493876Y32250D01*
X493135Y34531D01*
X492811Y36577D01*
X506477Y36577D01*
X506477Y22911D01*
X504431Y23235D01*
G37*
%LPD*%
%LPC*%
G36*
X268223Y109323D02*
X268223Y109323D01*
X268223Y126277D01*
X277623Y126277D01*
X277623Y123276D01*
X272685Y118338D01*
X272674Y118322D01*
X272658Y118310D01*
X272602Y118222D01*
X272542Y118139D01*
X272536Y118120D01*
X272525Y118103D01*
X272500Y118002D01*
X272469Y117903D01*
X272470Y117884D01*
X272465Y117864D01*
X272473Y117761D01*
X272476Y117658D01*
X272483Y117639D01*
X272484Y117619D01*
X272525Y117524D01*
X272560Y117427D01*
X272573Y117411D01*
X272581Y117393D01*
X272685Y117262D01*
X277623Y112324D01*
X277623Y109323D01*
X268223Y109323D01*
G37*
%LPD*%
%LPC*%
G36*
X255777Y109323D02*
X255777Y109323D01*
X255777Y112324D01*
X260715Y117262D01*
X260726Y117278D01*
X260742Y117290D01*
X260798Y117378D01*
X260858Y117461D01*
X260864Y117480D01*
X260875Y117497D01*
X260900Y117598D01*
X260931Y117697D01*
X260930Y117716D01*
X260935Y117736D01*
X260927Y117839D01*
X260924Y117942D01*
X260917Y117961D01*
X260916Y117981D01*
X260875Y118076D01*
X260840Y118173D01*
X260827Y118189D01*
X260819Y118207D01*
X260715Y118338D01*
X255777Y123276D01*
X255777Y126277D01*
X265177Y126277D01*
X265177Y109323D01*
X255777Y109323D01*
G37*
%LPD*%
%LPC*%
G36*
X382523Y611123D02*
X382523Y611123D01*
X382523Y627266D01*
X383379Y627131D01*
X384900Y626636D01*
X386325Y625910D01*
X387619Y624970D01*
X388750Y623839D01*
X389690Y622545D01*
X390416Y621120D01*
X390911Y619599D01*
X391161Y618020D01*
X391161Y611123D01*
X382523Y611123D01*
G37*
%LPD*%
%LPC*%
G36*
X127253Y371093D02*
X127253Y371093D01*
X127253Y387236D01*
X128109Y387101D01*
X129630Y386606D01*
X131055Y385880D01*
X132349Y384940D01*
X133480Y383809D01*
X134420Y382515D01*
X135146Y381090D01*
X135641Y379569D01*
X135891Y377990D01*
X135891Y371093D01*
X127253Y371093D01*
G37*
%LPD*%
%LPC*%
G36*
X395223Y446023D02*
X395223Y446023D01*
X395223Y462166D01*
X396079Y462031D01*
X397600Y461536D01*
X399025Y460810D01*
X400319Y459870D01*
X401450Y458739D01*
X402390Y457445D01*
X403116Y456020D01*
X403611Y454499D01*
X403861Y452920D01*
X403861Y446023D01*
X395223Y446023D01*
G37*
%LPD*%
%LPC*%
G36*
X547623Y611123D02*
X547623Y611123D01*
X547623Y627266D01*
X548479Y627131D01*
X550000Y626636D01*
X551425Y625910D01*
X552719Y624970D01*
X553850Y623839D01*
X554790Y622545D01*
X555516Y621120D01*
X556011Y619599D01*
X556261Y618020D01*
X556261Y611123D01*
X547623Y611123D01*
G37*
%LPD*%
%LPC*%
G36*
X585723Y446023D02*
X585723Y446023D01*
X585723Y462166D01*
X586579Y462031D01*
X588100Y461536D01*
X589525Y460810D01*
X590819Y459870D01*
X591950Y458739D01*
X592890Y457445D01*
X593616Y456020D01*
X594111Y454499D01*
X594361Y452920D01*
X594361Y446023D01*
X585723Y446023D01*
G37*
%LPD*%
%LPC*%
G36*
X127253Y368047D02*
X127253Y368047D01*
X135891Y368047D01*
X135891Y361150D01*
X135641Y359571D01*
X135146Y358050D01*
X134420Y356625D01*
X133480Y355331D01*
X132349Y354200D01*
X131055Y353260D01*
X129630Y352534D01*
X128109Y352039D01*
X127253Y351904D01*
X127253Y368047D01*
G37*
%LPD*%
%LPC*%
G36*
X547623Y608077D02*
X547623Y608077D01*
X556261Y608077D01*
X556261Y601180D01*
X556011Y599601D01*
X555516Y598080D01*
X554790Y596655D01*
X553850Y595361D01*
X552719Y594230D01*
X551425Y593290D01*
X550000Y592564D01*
X548479Y592069D01*
X547623Y591934D01*
X547623Y608077D01*
G37*
%LPD*%
%LPC*%
G36*
X382523Y608077D02*
X382523Y608077D01*
X391161Y608077D01*
X391161Y601180D01*
X390911Y599601D01*
X390416Y598080D01*
X389690Y596655D01*
X388750Y595361D01*
X387619Y594230D01*
X386325Y593290D01*
X384900Y592564D01*
X383379Y592069D01*
X382523Y591934D01*
X382523Y608077D01*
G37*
%LPD*%
%LPC*%
G36*
X395223Y442977D02*
X395223Y442977D01*
X403861Y442977D01*
X403861Y436080D01*
X403611Y434501D01*
X403116Y432980D01*
X402390Y431555D01*
X401450Y430261D01*
X400319Y429130D01*
X399025Y428190D01*
X397600Y427464D01*
X396079Y426969D01*
X395223Y426834D01*
X395223Y442977D01*
G37*
%LPD*%
%LPC*%
G36*
X585723Y442977D02*
X585723Y442977D01*
X594361Y442977D01*
X594361Y436080D01*
X594111Y434501D01*
X593616Y432980D01*
X592890Y431555D01*
X591950Y430261D01*
X590819Y429130D01*
X589525Y428190D01*
X588100Y427464D01*
X586579Y426969D01*
X585723Y426834D01*
X585723Y442977D01*
G37*
%LPD*%
%LPC*%
G36*
X370839Y611123D02*
X370839Y611123D01*
X370839Y618020D01*
X371089Y619599D01*
X371584Y621120D01*
X372310Y622545D01*
X373250Y623839D01*
X374381Y624970D01*
X375675Y625910D01*
X377100Y626636D01*
X378621Y627131D01*
X379477Y627266D01*
X379477Y611123D01*
X370839Y611123D01*
G37*
%LPD*%
%LPC*%
G36*
X535939Y611123D02*
X535939Y611123D01*
X535939Y618020D01*
X536189Y619599D01*
X536684Y621120D01*
X537410Y622545D01*
X538350Y623839D01*
X539481Y624970D01*
X540775Y625910D01*
X542200Y626636D01*
X543721Y627131D01*
X544577Y627266D01*
X544577Y611123D01*
X535939Y611123D01*
G37*
%LPD*%
%LPC*%
G36*
X383539Y446023D02*
X383539Y446023D01*
X383539Y452920D01*
X383789Y454499D01*
X384284Y456020D01*
X385010Y457445D01*
X385950Y458739D01*
X387081Y459870D01*
X388375Y460810D01*
X389800Y461536D01*
X391321Y462031D01*
X392177Y462166D01*
X392177Y446023D01*
X383539Y446023D01*
G37*
%LPD*%
%LPC*%
G36*
X115569Y371093D02*
X115569Y371093D01*
X115569Y377990D01*
X115819Y379569D01*
X116314Y381090D01*
X117040Y382515D01*
X117980Y383809D01*
X119111Y384940D01*
X120405Y385880D01*
X121830Y386606D01*
X123351Y387101D01*
X124207Y387236D01*
X124207Y371093D01*
X115569Y371093D01*
G37*
%LPD*%
%LPC*%
G36*
X574039Y446023D02*
X574039Y446023D01*
X574039Y452920D01*
X574289Y454499D01*
X574784Y456020D01*
X575510Y457445D01*
X576450Y458739D01*
X577581Y459870D01*
X578875Y460810D01*
X580300Y461536D01*
X581821Y462031D01*
X582677Y462166D01*
X582677Y446023D01*
X574039Y446023D01*
G37*
%LPD*%
%LPC*%
G36*
X123351Y352039D02*
X123351Y352039D01*
X121830Y352534D01*
X120405Y353260D01*
X119111Y354200D01*
X117980Y355331D01*
X117040Y356625D01*
X116314Y358050D01*
X115819Y359571D01*
X115569Y361150D01*
X115569Y368047D01*
X124207Y368047D01*
X124207Y351904D01*
X123351Y352039D01*
G37*
%LPD*%
%LPC*%
G36*
X543721Y592069D02*
X543721Y592069D01*
X542200Y592564D01*
X540775Y593290D01*
X539481Y594230D01*
X538350Y595361D01*
X537410Y596655D01*
X536684Y598080D01*
X536189Y599601D01*
X535939Y601180D01*
X535939Y608077D01*
X544577Y608077D01*
X544577Y591934D01*
X543721Y592069D01*
G37*
%LPD*%
%LPC*%
G36*
X378621Y592069D02*
X378621Y592069D01*
X377100Y592564D01*
X375675Y593290D01*
X374381Y594230D01*
X373250Y595361D01*
X372310Y596655D01*
X371584Y598080D01*
X371089Y599601D01*
X370839Y601180D01*
X370839Y608077D01*
X379477Y608077D01*
X379477Y591934D01*
X378621Y592069D01*
G37*
%LPD*%
%LPC*%
G36*
X581821Y426969D02*
X581821Y426969D01*
X580300Y427464D01*
X578875Y428190D01*
X577581Y429130D01*
X576450Y430261D01*
X575510Y431555D01*
X574784Y432980D01*
X574289Y434501D01*
X574039Y436080D01*
X574039Y442977D01*
X582677Y442977D01*
X582677Y426834D01*
X581821Y426969D01*
G37*
%LPD*%
%LPC*%
G36*
X391321Y426969D02*
X391321Y426969D01*
X389800Y427464D01*
X388375Y428190D01*
X387081Y429130D01*
X385950Y430261D01*
X385010Y431555D01*
X384284Y432980D01*
X383789Y434501D01*
X383539Y436080D01*
X383539Y442977D01*
X392177Y442977D01*
X392177Y426834D01*
X391321Y426969D01*
G37*
%LPD*%
%LPC*%
G36*
X700023Y419353D02*
X700023Y419353D01*
X700023Y429676D01*
X701296Y429475D01*
X703083Y428894D01*
X704757Y428041D01*
X706278Y426936D01*
X707606Y425608D01*
X708711Y424087D01*
X709564Y422413D01*
X710145Y420626D01*
X710346Y419353D01*
X700023Y419353D01*
G37*
%LPD*%
%LPC*%
G36*
X776223Y447293D02*
X776223Y447293D01*
X776223Y457616D01*
X777496Y457415D01*
X779283Y456834D01*
X780957Y455981D01*
X782478Y454876D01*
X783806Y453548D01*
X784911Y452027D01*
X785764Y450353D01*
X786345Y448566D01*
X786546Y447293D01*
X776223Y447293D01*
G37*
%LPD*%
%LPC*%
G36*
X776223Y444247D02*
X776223Y444247D01*
X786546Y444247D01*
X786345Y442974D01*
X785764Y441187D01*
X784911Y439513D01*
X783806Y437992D01*
X782478Y436664D01*
X780957Y435559D01*
X779283Y434706D01*
X777496Y434125D01*
X776223Y433924D01*
X776223Y444247D01*
G37*
%LPD*%
%LPC*%
G36*
X700023Y416307D02*
X700023Y416307D01*
X710346Y416307D01*
X710145Y415034D01*
X709564Y413247D01*
X708711Y411573D01*
X707606Y410052D01*
X706278Y408724D01*
X704757Y407619D01*
X703083Y406766D01*
X701296Y406185D01*
X700023Y405984D01*
X700023Y416307D01*
G37*
%LPD*%
%LPC*%
G36*
X686654Y419353D02*
X686654Y419353D01*
X686855Y420626D01*
X687436Y422413D01*
X688289Y424087D01*
X689394Y425608D01*
X690722Y426936D01*
X692243Y428041D01*
X693917Y428894D01*
X695704Y429475D01*
X696977Y429676D01*
X696977Y419353D01*
X686654Y419353D01*
G37*
%LPD*%
%LPC*%
G36*
X762854Y447293D02*
X762854Y447293D01*
X763055Y448566D01*
X763636Y450353D01*
X764489Y452027D01*
X765594Y453548D01*
X766922Y454876D01*
X768443Y455981D01*
X770117Y456834D01*
X771904Y457415D01*
X773177Y457616D01*
X773177Y447293D01*
X762854Y447293D01*
G37*
%LPD*%
%LPC*%
G36*
X771904Y434125D02*
X771904Y434125D01*
X770117Y434706D01*
X768443Y435559D01*
X766922Y436664D01*
X765594Y437992D01*
X764489Y439513D01*
X763636Y441187D01*
X763055Y442974D01*
X762854Y444247D01*
X773177Y444247D01*
X773177Y433924D01*
X771904Y434125D01*
G37*
%LPD*%
%LPC*%
G36*
X695704Y406185D02*
X695704Y406185D01*
X693917Y406766D01*
X692243Y407619D01*
X690722Y408724D01*
X689394Y410052D01*
X688289Y411573D01*
X687436Y413247D01*
X686855Y415034D01*
X686654Y416307D01*
X696977Y416307D01*
X696977Y405984D01*
X695704Y406185D01*
G37*
%LPD*%
%LPC*%
G36*
X268223Y96877D02*
X268223Y96877D01*
X268223Y106277D01*
X277623Y106277D01*
X277623Y103276D01*
X271224Y96877D01*
X268223Y96877D01*
G37*
%LPD*%
%LPC*%
G36*
X262176Y96877D02*
X262176Y96877D01*
X255777Y103276D01*
X255777Y106277D01*
X265177Y106277D01*
X265177Y96877D01*
X262176Y96877D01*
G37*
%LPD*%
%LPC*%
G36*
X593089Y513841D02*
X593089Y513841D01*
X593089Y522364D01*
X593945Y522229D01*
X595466Y521734D01*
X596891Y521008D01*
X598185Y520068D01*
X599316Y518937D01*
X600256Y517643D01*
X600982Y516218D01*
X601477Y514697D01*
X601612Y513841D01*
X593089Y513841D01*
G37*
%LPD*%
%LPC*%
G36*
X770889Y513841D02*
X770889Y513841D01*
X770889Y522364D01*
X771745Y522229D01*
X773266Y521734D01*
X774691Y521008D01*
X775985Y520068D01*
X777116Y518937D01*
X778056Y517643D01*
X778782Y516218D01*
X779277Y514697D01*
X779412Y513841D01*
X770889Y513841D01*
G37*
%LPD*%
%LPC*%
G36*
X389889Y513841D02*
X389889Y513841D01*
X389889Y522364D01*
X390745Y522229D01*
X392266Y521734D01*
X393691Y521008D01*
X394985Y520068D01*
X396116Y518937D01*
X397056Y517643D01*
X397782Y516218D01*
X398277Y514697D01*
X398412Y513841D01*
X389889Y513841D01*
G37*
%LPD*%
%LPC*%
G36*
X694689Y539241D02*
X694689Y539241D01*
X694689Y547764D01*
X695545Y547629D01*
X697066Y547134D01*
X698491Y546408D01*
X699785Y545468D01*
X700916Y544337D01*
X701856Y543043D01*
X702582Y541618D01*
X703077Y540097D01*
X703212Y539241D01*
X694689Y539241D01*
G37*
%LPD*%
%LPC*%
G36*
X643889Y539241D02*
X643889Y539241D01*
X643889Y547764D01*
X644745Y547629D01*
X646266Y547134D01*
X647691Y546408D01*
X648985Y545468D01*
X650116Y544337D01*
X651056Y543043D01*
X651782Y541618D01*
X652277Y540097D01*
X652412Y539241D01*
X643889Y539241D01*
G37*
%LPD*%
%LPC*%
G36*
X516889Y539241D02*
X516889Y539241D01*
X516889Y547764D01*
X517745Y547629D01*
X519266Y547134D01*
X520691Y546408D01*
X521985Y545468D01*
X523116Y544337D01*
X524056Y543043D01*
X524782Y541618D01*
X525277Y540097D01*
X525412Y539241D01*
X516889Y539241D01*
G37*
%LPD*%
%LPC*%
G36*
X389889Y510795D02*
X389889Y510795D01*
X398412Y510795D01*
X398277Y509939D01*
X397782Y508418D01*
X397056Y506993D01*
X396116Y505699D01*
X394985Y504568D01*
X393691Y503628D01*
X392266Y502902D01*
X390745Y502407D01*
X389889Y502272D01*
X389889Y510795D01*
G37*
%LPD*%
%LPC*%
G36*
X593089Y510795D02*
X593089Y510795D01*
X601612Y510795D01*
X601477Y509939D01*
X600982Y508418D01*
X600256Y506993D01*
X599316Y505699D01*
X598185Y504568D01*
X596891Y503628D01*
X595466Y502902D01*
X593945Y502407D01*
X593089Y502272D01*
X593089Y510795D01*
G37*
%LPD*%
%LPC*%
G36*
X759320Y513841D02*
X759320Y513841D01*
X759455Y514697D01*
X759950Y516218D01*
X760676Y517643D01*
X761616Y518937D01*
X762747Y520068D01*
X764041Y521008D01*
X765466Y521734D01*
X766987Y522229D01*
X767843Y522364D01*
X767843Y513841D01*
X759320Y513841D01*
G37*
%LPD*%
%LPC*%
G36*
X770889Y510795D02*
X770889Y510795D01*
X779412Y510795D01*
X779277Y509939D01*
X778782Y508418D01*
X778056Y506993D01*
X777116Y505699D01*
X775985Y504568D01*
X774691Y503628D01*
X773266Y502902D01*
X771745Y502407D01*
X770889Y502272D01*
X770889Y510795D01*
G37*
%LPD*%
%LPC*%
G36*
X694689Y536195D02*
X694689Y536195D01*
X703212Y536195D01*
X703077Y535339D01*
X702582Y533818D01*
X701856Y532393D01*
X700916Y531099D01*
X699785Y529968D01*
X698491Y529028D01*
X697066Y528302D01*
X695545Y527807D01*
X694689Y527672D01*
X694689Y536195D01*
G37*
%LPD*%
%LPC*%
G36*
X378320Y513841D02*
X378320Y513841D01*
X378455Y514697D01*
X378950Y516218D01*
X379676Y517643D01*
X380616Y518937D01*
X381747Y520068D01*
X383041Y521008D01*
X384466Y521734D01*
X385987Y522229D01*
X386843Y522364D01*
X386843Y513841D01*
X378320Y513841D01*
G37*
%LPD*%
%LPC*%
G36*
X683120Y539241D02*
X683120Y539241D01*
X683255Y540097D01*
X683750Y541618D01*
X684476Y543043D01*
X685416Y544337D01*
X686547Y545468D01*
X687841Y546408D01*
X689266Y547134D01*
X690787Y547629D01*
X691643Y547764D01*
X691643Y539241D01*
X683120Y539241D01*
G37*
%LPD*%
%LPC*%
G36*
X643889Y536195D02*
X643889Y536195D01*
X652412Y536195D01*
X652277Y535339D01*
X651782Y533818D01*
X651056Y532393D01*
X650116Y531099D01*
X648985Y529968D01*
X647691Y529028D01*
X646266Y528302D01*
X644745Y527807D01*
X643889Y527672D01*
X643889Y536195D01*
G37*
%LPD*%
%LPC*%
G36*
X632320Y539241D02*
X632320Y539241D01*
X632455Y540097D01*
X632950Y541618D01*
X633676Y543043D01*
X634616Y544337D01*
X635747Y545468D01*
X637041Y546408D01*
X638466Y547134D01*
X639987Y547629D01*
X640843Y547764D01*
X640843Y539241D01*
X632320Y539241D01*
G37*
%LPD*%
%LPC*%
G36*
X505320Y539241D02*
X505320Y539241D01*
X505455Y540097D01*
X505950Y541618D01*
X506676Y543043D01*
X507616Y544337D01*
X508747Y545468D01*
X510041Y546408D01*
X511466Y547134D01*
X512987Y547629D01*
X513843Y547764D01*
X513843Y539241D01*
X505320Y539241D01*
G37*
%LPD*%
%LPC*%
G36*
X639987Y527807D02*
X639987Y527807D01*
X638466Y528302D01*
X637041Y529028D01*
X635747Y529968D01*
X634616Y531099D01*
X633676Y532393D01*
X632950Y533818D01*
X632455Y535339D01*
X632320Y536195D01*
X640843Y536195D01*
X640843Y527672D01*
X639987Y527807D01*
G37*
%LPD*%
%LPC*%
G36*
X766987Y502407D02*
X766987Y502407D01*
X765466Y502902D01*
X764041Y503628D01*
X762747Y504568D01*
X761616Y505699D01*
X760676Y506993D01*
X759950Y508418D01*
X759455Y509939D01*
X759320Y510795D01*
X767843Y510795D01*
X767843Y502272D01*
X766987Y502407D01*
G37*
%LPD*%
%LPC*%
G36*
X385987Y502407D02*
X385987Y502407D01*
X384466Y502902D01*
X383041Y503628D01*
X381747Y504568D01*
X380616Y505699D01*
X379676Y506993D01*
X378950Y508418D01*
X378455Y509939D01*
X378320Y510795D01*
X386843Y510795D01*
X386843Y502272D01*
X385987Y502407D01*
G37*
%LPD*%
%LPC*%
G36*
X690787Y527807D02*
X690787Y527807D01*
X689266Y528302D01*
X687841Y529028D01*
X686547Y529968D01*
X685416Y531099D01*
X684476Y532393D01*
X683750Y533818D01*
X683255Y535339D01*
X683120Y536195D01*
X691643Y536195D01*
X691643Y527672D01*
X690787Y527807D01*
G37*
%LPD*%
%LPC*%
G36*
X546099Y609599D02*
X546099Y609599D01*
X546099Y609601D01*
X546101Y609601D01*
X546101Y609599D01*
X546099Y609599D01*
G37*
%LPD*%
%LPC*%
G36*
X584199Y444499D02*
X584199Y444499D01*
X584199Y444501D01*
X584201Y444501D01*
X584201Y444499D01*
X584199Y444499D01*
G37*
%LPD*%
%LPC*%
G36*
X388365Y512317D02*
X388365Y512317D01*
X388365Y512319D01*
X388367Y512319D01*
X388367Y512317D01*
X388365Y512317D01*
G37*
%LPD*%
%LPC*%
G36*
X774699Y445769D02*
X774699Y445769D01*
X774699Y445771D01*
X774701Y445771D01*
X774701Y445769D01*
X774699Y445769D01*
G37*
%LPD*%
%LPC*%
G36*
X642365Y537717D02*
X642365Y537717D01*
X642365Y537719D01*
X642367Y537719D01*
X642367Y537717D01*
X642365Y537717D01*
G37*
%LPD*%
%LPC*%
G36*
X693165Y537717D02*
X693165Y537717D01*
X693165Y537719D01*
X693167Y537719D01*
X693167Y537717D01*
X693165Y537717D01*
G37*
%LPD*%
%LPC*%
G36*
X825499Y304799D02*
X825499Y304799D01*
X825499Y304801D01*
X825501Y304801D01*
X825501Y304799D01*
X825499Y304799D01*
G37*
%LPD*%
%LPC*%
G36*
X736599Y38099D02*
X736599Y38099D01*
X736599Y38101D01*
X736601Y38101D01*
X736601Y38099D01*
X736599Y38099D01*
G37*
%LPD*%
%LPC*%
G36*
X266699Y107799D02*
X266699Y107799D01*
X266699Y107801D01*
X266701Y107801D01*
X266701Y107799D01*
X266699Y107799D01*
G37*
%LPD*%
%LPC*%
G36*
X507999Y38099D02*
X507999Y38099D01*
X507999Y38101D01*
X508001Y38101D01*
X508001Y38099D01*
X507999Y38099D01*
G37*
%LPD*%
%LPC*%
G36*
X400811Y342899D02*
X400811Y342899D01*
X400811Y342901D01*
X400813Y342901D01*
X400813Y342899D01*
X400811Y342899D01*
G37*
%LPD*%
%LPC*%
G36*
X769365Y512317D02*
X769365Y512317D01*
X769365Y512319D01*
X769367Y512319D01*
X769367Y512317D01*
X769365Y512317D01*
G37*
%LPD*%
%LPC*%
G36*
X321563Y342899D02*
X321563Y342899D01*
X321563Y342901D01*
X321565Y342901D01*
X321565Y342899D01*
X321563Y342899D01*
G37*
%LPD*%
%LPC*%
G36*
X698499Y417829D02*
X698499Y417829D01*
X698499Y417831D01*
X698501Y417831D01*
X698501Y417829D01*
X698499Y417829D01*
G37*
%LPD*%
%LPC*%
G36*
X125729Y369569D02*
X125729Y369569D01*
X125729Y369571D01*
X125731Y369571D01*
X125731Y369569D01*
X125729Y369569D01*
G37*
%LPD*%
%LPC*%
G36*
X380999Y609599D02*
X380999Y609599D01*
X380999Y609601D01*
X381001Y609601D01*
X381001Y609599D01*
X380999Y609599D01*
G37*
%LPD*%
%LPC*%
G36*
X393699Y444499D02*
X393699Y444499D01*
X393699Y444501D01*
X393701Y444501D01*
X393701Y444499D01*
X393699Y444499D01*
G37*
%LPD*%
%LPC*%
G36*
X622299Y38099D02*
X622299Y38099D01*
X622299Y38101D01*
X622301Y38101D01*
X622301Y38099D01*
X622299Y38099D01*
G37*
%LPD*%
D10*
X286900Y512300D03*
D11*
X286766Y537718D03*
X312166Y512318D03*
X312166Y537718D03*
X337566Y512318D03*
X337566Y537718D03*
X362966Y512318D03*
X362966Y537718D03*
X388366Y512318D03*
X388366Y537718D03*
X413766Y512318D03*
X413766Y537718D03*
X439166Y512318D03*
X439166Y537718D03*
X464566Y512318D03*
X464566Y537718D03*
X489966Y512318D03*
X489966Y537718D03*
X515366Y512318D03*
X515366Y537718D03*
X540766Y512318D03*
X540766Y537718D03*
X566166Y512318D03*
X566166Y537718D03*
X591566Y512318D03*
X591566Y537718D03*
X616966Y512318D03*
X616966Y537718D03*
X642366Y512318D03*
X642366Y537718D03*
X667766Y512318D03*
X667766Y537718D03*
X693166Y512318D03*
X693166Y537718D03*
X718566Y512318D03*
X718566Y537718D03*
X743966Y512318D03*
X743966Y537718D03*
X769366Y512318D03*
X769366Y537718D03*
X413766Y22282D03*
X413766Y47682D03*
D10*
X388366Y22282D03*
D11*
X388366Y47682D03*
D12*
X238200Y35000D03*
X818200Y35000D03*
X238200Y525000D03*
X818200Y525000D03*
D13*
X400812Y355473D02*
X400812Y330327D01*
X361188Y330327D02*
X361188Y355473D01*
X321564Y355473D02*
X321564Y330327D01*
X440436Y330327D02*
X440436Y355473D01*
D14*
X774700Y445770D03*
X774700Y417830D03*
X749300Y445770D03*
X749300Y417830D03*
X723900Y445770D03*
X723900Y417830D03*
X698500Y445770D03*
X698500Y417830D03*
X673100Y445770D03*
X673100Y417830D03*
D15*
X342900Y436880D02*
X342900Y452120D01*
X368300Y452120D02*
X368300Y436880D01*
X393700Y436880D02*
X393700Y452120D01*
X317500Y452120D02*
X317500Y436880D01*
X292100Y436880D02*
X292100Y452120D01*
X457200Y452120D02*
X457200Y436880D01*
X482600Y436880D02*
X482600Y452120D01*
X508000Y452120D02*
X508000Y436880D01*
X533400Y436880D02*
X533400Y452120D01*
X558800Y452120D02*
X558800Y436880D01*
X584200Y436880D02*
X584200Y452120D01*
D16*
X774700Y304800D03*
X825500Y304800D03*
D17*
X184150Y123190D03*
X184150Y199390D03*
X107950Y199390D03*
X57150Y199390D03*
X6350Y199390D03*
X107950Y123190D03*
X57150Y123190D03*
X6350Y123190D03*
D15*
X779780Y156210D02*
X779780Y171450D01*
X805180Y171450D02*
X805180Y156210D01*
X830580Y156210D02*
X830580Y171450D01*
X627380Y171450D02*
X627380Y156210D01*
X754380Y156210D02*
X754380Y171450D01*
X728980Y171450D02*
X728980Y156210D01*
X652780Y156210D02*
X652780Y171450D01*
X678180Y171450D02*
X678180Y156210D01*
X703580Y156210D02*
X703580Y171450D01*
X520700Y172720D02*
X520700Y157480D01*
X546100Y157480D02*
X546100Y172720D01*
X571500Y172720D02*
X571500Y157480D01*
X495300Y157480D02*
X495300Y172720D01*
X469900Y172720D02*
X469900Y157480D01*
D16*
X508000Y88900D03*
X508000Y38100D03*
X736600Y88900D03*
X736600Y38100D03*
X622300Y88900D03*
X622300Y38100D03*
D15*
X431800Y601980D02*
X431800Y617220D01*
X457200Y617220D02*
X457200Y601980D01*
X482600Y601980D02*
X482600Y617220D01*
X406400Y617220D02*
X406400Y601980D01*
X381000Y601980D02*
X381000Y617220D01*
X546100Y617220D02*
X546100Y601980D01*
X571500Y601980D02*
X571500Y617220D01*
X596900Y617220D02*
X596900Y601980D01*
D18*
X266700Y167800D03*
X266700Y187800D03*
X266700Y207800D03*
X266700Y227800D03*
X266700Y147800D03*
X266700Y247800D03*
X266700Y127800D03*
X266700Y107800D03*
D15*
X736600Y601980D02*
X736600Y617220D01*
X762000Y617220D02*
X762000Y601980D01*
X5080Y480060D02*
X5080Y464820D01*
X30480Y464820D02*
X30480Y480060D01*
X55880Y480060D02*
X55880Y464820D01*
X132080Y464820D02*
X132080Y480060D01*
X157480Y480060D02*
X157480Y464820D01*
X182880Y464820D02*
X182880Y480060D01*
X81280Y480060D02*
X81280Y464820D01*
X106680Y464820D02*
X106680Y480060D01*
X330200Y45720D02*
X330200Y30480D01*
X304800Y30480D02*
X304800Y45720D01*
X406400Y81280D02*
X406400Y96520D01*
X431800Y96520D02*
X431800Y81280D01*
D19*
X103929Y278380D03*
X154729Y278380D03*
X2329Y278380D03*
X53129Y278380D03*
X103929Y49780D03*
X154729Y49780D03*
X2329Y49780D03*
X53129Y49780D03*
D15*
X49530Y361950D02*
X49530Y377190D01*
X74930Y377190D02*
X74930Y361950D01*
X100330Y361950D02*
X100330Y377190D01*
X125730Y377190D02*
X125730Y361950D01*
D20*
X311277Y513207D02*
X312166Y512318D01*
X311277Y513207D02*
X299974Y524510D01*
X299720Y524510D01*
X299720Y561340D01*
X281940Y579120D01*
X281940Y580390D01*
D21*
X281940Y580390D03*
D20*
X76200Y370840D02*
X74930Y369570D01*
X76200Y370840D02*
X76200Y393700D01*
X85090Y402590D01*
X262890Y485140D02*
X295910Y485140D01*
X311277Y500507D01*
X311277Y513207D01*
X180340Y402590D02*
X85090Y402590D01*
X180340Y402590D02*
X262890Y485140D01*
X325120Y524764D02*
X337566Y512318D01*
X325120Y560070D02*
X306070Y579120D01*
D21*
X306070Y579120D03*
D20*
X325120Y560070D02*
X325120Y524764D01*
X337566Y512318D02*
X300228Y474980D01*
X273050Y474980D01*
X191770Y393700D01*
X114300Y393700D02*
X100330Y379730D01*
X100330Y369570D01*
X114300Y393700D02*
X191770Y393700D01*
X362966Y512318D02*
X375920Y525272D01*
X375920Y551180D01*
X406400Y581660D01*
X406400Y609600D01*
X452120Y525272D02*
X439166Y512318D01*
X452120Y604520D02*
X457200Y609600D01*
X452120Y604520D02*
X452120Y525272D01*
X426720Y604520D02*
X431800Y609600D01*
X426720Y525272D02*
X413766Y512318D01*
X426720Y525272D02*
X426720Y604520D01*
D21*
X660400Y609600D03*
D20*
X464566Y516636D02*
X464566Y512318D01*
X478790Y530860D02*
X478790Y546100D01*
X488950Y556260D01*
X525780Y556260D02*
X537210Y567690D01*
X646430Y567690D01*
X660400Y581660D01*
X660400Y609600D01*
X478790Y530860D02*
X464566Y516636D01*
X488950Y556260D02*
X525780Y556260D01*
D21*
X316230Y247650D03*
X314960Y171450D03*
X365760Y129540D03*
X266700Y336550D03*
D22*
X546100Y165100D02*
X571500Y165100D01*
X572770Y163830D01*
X627380Y163830D01*
X652780Y163830D01*
D21*
X488950Y300990D03*
X628650Y261620D03*
X609600Y274320D03*
X609600Y377190D03*
X471170Y275590D03*
X447040Y247650D03*
X445770Y171450D03*
X397510Y128270D03*
X495300Y394970D03*
X137160Y619760D03*
X35560Y619760D03*
X73660Y539750D03*
X99060Y539750D03*
X77470Y593090D03*
X77470Y603250D03*
X110490Y633730D03*
X139700Y419100D03*
X88900Y419100D03*
X38100Y419100D03*
X-12700Y419100D03*
X148590Y523240D03*
D20*
X149860Y523240D01*
X152400Y520700D01*
D21*
X25400Y523240D03*
D20*
X25400Y520700D01*
D21*
X38100Y635000D03*
X626110Y596900D03*
X215900Y609600D03*
X447040Y222250D03*
X433070Y455930D03*
D20*
X433070Y388620D01*
X459740Y361950D01*
X459740Y234950D01*
X447040Y222250D01*
D21*
X447040Y209550D03*
X420370Y454660D03*
D20*
X420370Y219710D01*
X430530Y209550D01*
X447040Y209550D01*
X698500Y445770D02*
X698500Y469900D01*
X711200Y482600D01*
X717390Y482600D01*
X717501Y482598D01*
X717611Y482592D01*
X717722Y482583D01*
X717832Y482569D01*
X717941Y482552D01*
X718050Y482531D01*
X718158Y482506D01*
X718265Y482477D01*
X718371Y482445D01*
X718476Y482409D01*
X718579Y482369D01*
X718681Y482326D01*
X718782Y482279D01*
X718881Y482228D01*
X718978Y482175D01*
X719072Y482118D01*
X719165Y482057D01*
X719256Y481994D01*
X719345Y481927D01*
X719431Y481857D01*
X719514Y481784D01*
X719596Y481709D01*
X719674Y481631D01*
X719749Y481549D01*
X719822Y481466D01*
X719892Y481380D01*
X719959Y481291D01*
X720022Y481200D01*
X720083Y481107D01*
X720140Y481013D01*
X720193Y480916D01*
X720244Y480817D01*
X720291Y480716D01*
X720334Y480614D01*
X720374Y480511D01*
X720410Y480406D01*
X720442Y480300D01*
X720471Y480193D01*
X720496Y480085D01*
X720517Y479976D01*
X720534Y479867D01*
X720548Y479757D01*
X720557Y479646D01*
X720563Y479536D01*
X720565Y479425D01*
X720565Y468609D01*
X720567Y468498D01*
X720573Y468388D01*
X720582Y468277D01*
X720596Y468167D01*
X720613Y468058D01*
X720634Y467949D01*
X720659Y467841D01*
X720688Y467734D01*
X720720Y467628D01*
X720756Y467523D01*
X720796Y467420D01*
X720839Y467318D01*
X720886Y467217D01*
X720937Y467118D01*
X720990Y467022D01*
X721047Y466927D01*
X721108Y466834D01*
X721171Y466743D01*
X721238Y466654D01*
X721308Y466568D01*
X721381Y466485D01*
X721456Y466403D01*
X721534Y466325D01*
X721616Y466250D01*
X721699Y466177D01*
X721785Y466107D01*
X721874Y466040D01*
X721965Y465977D01*
X722058Y465916D01*
X722153Y465859D01*
X722249Y465806D01*
X722348Y465755D01*
X722449Y465708D01*
X722551Y465665D01*
X722654Y465625D01*
X722759Y465589D01*
X722865Y465557D01*
X722972Y465528D01*
X723080Y465503D01*
X723189Y465482D01*
X723298Y465465D01*
X723408Y465451D01*
X723519Y465442D01*
X723629Y465436D01*
X723740Y465434D01*
X724670Y465434D01*
X724781Y465436D01*
X724891Y465442D01*
X725002Y465451D01*
X725112Y465465D01*
X725221Y465482D01*
X725330Y465503D01*
X725438Y465528D01*
X725545Y465557D01*
X725651Y465589D01*
X725756Y465625D01*
X725859Y465665D01*
X725961Y465708D01*
X726062Y465755D01*
X726161Y465806D01*
X726258Y465859D01*
X726352Y465916D01*
X726445Y465977D01*
X726536Y466040D01*
X726625Y466107D01*
X726711Y466177D01*
X726794Y466250D01*
X726876Y466325D01*
X726954Y466403D01*
X727029Y466485D01*
X727102Y466568D01*
X727172Y466654D01*
X727239Y466743D01*
X727302Y466834D01*
X727363Y466927D01*
X727420Y467021D01*
X727473Y467118D01*
X727524Y467217D01*
X727571Y467318D01*
X727614Y467420D01*
X727654Y467523D01*
X727690Y467628D01*
X727722Y467734D01*
X727751Y467841D01*
X727776Y467949D01*
X727797Y468058D01*
X727814Y468167D01*
X727828Y468277D01*
X727837Y468388D01*
X727843Y468498D01*
X727845Y468609D01*
X727845Y496591D01*
X727847Y496702D01*
X727853Y496812D01*
X727862Y496923D01*
X727876Y497033D01*
X727893Y497142D01*
X727914Y497251D01*
X727939Y497359D01*
X727968Y497466D01*
X728000Y497572D01*
X728036Y497677D01*
X728076Y497780D01*
X728119Y497882D01*
X728166Y497983D01*
X728217Y498082D01*
X728270Y498179D01*
X728327Y498273D01*
X728388Y498366D01*
X728451Y498457D01*
X728518Y498546D01*
X728588Y498632D01*
X728661Y498715D01*
X728736Y498797D01*
X728814Y498875D01*
X728896Y498950D01*
X728979Y499023D01*
X729065Y499093D01*
X729154Y499160D01*
X729245Y499223D01*
X729338Y499284D01*
X729433Y499341D01*
X729529Y499394D01*
X729628Y499445D01*
X729729Y499492D01*
X729831Y499535D01*
X729934Y499575D01*
X730039Y499611D01*
X730145Y499643D01*
X730252Y499672D01*
X730360Y499697D01*
X730469Y499718D01*
X730578Y499735D01*
X730688Y499749D01*
X730799Y499758D01*
X730909Y499764D01*
X731020Y499766D01*
X731950Y499766D01*
X732061Y499764D01*
X732171Y499758D01*
X732282Y499749D01*
X732392Y499735D01*
X732501Y499718D01*
X732610Y499697D01*
X732718Y499672D01*
X732825Y499643D01*
X732931Y499611D01*
X733036Y499575D01*
X733139Y499535D01*
X733241Y499492D01*
X733342Y499445D01*
X733441Y499394D01*
X733538Y499341D01*
X733632Y499284D01*
X733725Y499223D01*
X733816Y499160D01*
X733905Y499093D01*
X733991Y499023D01*
X734074Y498950D01*
X734156Y498875D01*
X734234Y498797D01*
X734309Y498715D01*
X734382Y498632D01*
X734452Y498546D01*
X734519Y498457D01*
X734582Y498366D01*
X734643Y498273D01*
X734700Y498179D01*
X734753Y498082D01*
X734804Y497983D01*
X734851Y497882D01*
X734894Y497780D01*
X734934Y497677D01*
X734970Y497572D01*
X735002Y497466D01*
X735031Y497359D01*
X735056Y497251D01*
X735077Y497142D01*
X735094Y497033D01*
X735108Y496923D01*
X735117Y496812D01*
X735123Y496702D01*
X735125Y496591D01*
X735125Y468609D01*
X735127Y468498D01*
X735133Y468388D01*
X735142Y468277D01*
X735156Y468167D01*
X735173Y468058D01*
X735194Y467949D01*
X735219Y467841D01*
X735248Y467734D01*
X735280Y467628D01*
X735316Y467523D01*
X735356Y467420D01*
X735399Y467318D01*
X735446Y467217D01*
X735497Y467118D01*
X735550Y467022D01*
X735607Y466927D01*
X735668Y466834D01*
X735731Y466743D01*
X735798Y466654D01*
X735868Y466568D01*
X735941Y466485D01*
X736016Y466403D01*
X736094Y466325D01*
X736176Y466250D01*
X736259Y466177D01*
X736345Y466107D01*
X736434Y466040D01*
X736525Y465977D01*
X736618Y465916D01*
X736713Y465859D01*
X736809Y465806D01*
X736908Y465755D01*
X737009Y465708D01*
X737111Y465665D01*
X737214Y465625D01*
X737319Y465589D01*
X737425Y465557D01*
X737532Y465528D01*
X737640Y465503D01*
X737749Y465482D01*
X737858Y465465D01*
X737968Y465451D01*
X738079Y465442D01*
X738189Y465436D01*
X738300Y465434D01*
X739230Y465434D01*
X739341Y465436D01*
X739451Y465442D01*
X739562Y465451D01*
X739672Y465465D01*
X739781Y465482D01*
X739890Y465503D01*
X739998Y465528D01*
X740105Y465557D01*
X740211Y465589D01*
X740316Y465625D01*
X740419Y465665D01*
X740521Y465708D01*
X740622Y465755D01*
X740721Y465806D01*
X740818Y465859D01*
X740912Y465916D01*
X741005Y465977D01*
X741096Y466040D01*
X741185Y466107D01*
X741271Y466177D01*
X741354Y466250D01*
X741436Y466325D01*
X741514Y466403D01*
X741589Y466485D01*
X741662Y466568D01*
X741732Y466654D01*
X741799Y466743D01*
X741862Y466834D01*
X741923Y466927D01*
X741980Y467021D01*
X742033Y467118D01*
X742084Y467217D01*
X742131Y467318D01*
X742174Y467420D01*
X742214Y467523D01*
X742250Y467628D01*
X742282Y467734D01*
X742311Y467841D01*
X742336Y467949D01*
X742357Y468058D01*
X742374Y468167D01*
X742388Y468277D01*
X742397Y468388D01*
X742403Y468498D01*
X742405Y468609D01*
X742405Y496591D01*
X742407Y496702D01*
X742413Y496812D01*
X742422Y496923D01*
X742436Y497033D01*
X742453Y497142D01*
X742474Y497251D01*
X742499Y497359D01*
X742528Y497466D01*
X742560Y497572D01*
X742596Y497677D01*
X742636Y497780D01*
X742679Y497882D01*
X742726Y497983D01*
X742777Y498082D01*
X742830Y498179D01*
X742887Y498273D01*
X742948Y498366D01*
X743011Y498457D01*
X743078Y498546D01*
X743148Y498632D01*
X743221Y498715D01*
X743296Y498797D01*
X743374Y498875D01*
X743456Y498950D01*
X743539Y499023D01*
X743625Y499093D01*
X743714Y499160D01*
X743805Y499223D01*
X743898Y499284D01*
X743993Y499341D01*
X744089Y499394D01*
X744188Y499445D01*
X744289Y499492D01*
X744391Y499535D01*
X744494Y499575D01*
X744599Y499611D01*
X744705Y499643D01*
X744812Y499672D01*
X744920Y499697D01*
X745029Y499718D01*
X745138Y499735D01*
X745248Y499749D01*
X745359Y499758D01*
X745469Y499764D01*
X745580Y499766D01*
X746510Y499766D01*
X746621Y499764D01*
X746731Y499758D01*
X746842Y499749D01*
X746952Y499735D01*
X747061Y499718D01*
X747170Y499697D01*
X747278Y499672D01*
X747385Y499643D01*
X747491Y499611D01*
X747596Y499575D01*
X747699Y499535D01*
X747801Y499492D01*
X747902Y499445D01*
X748001Y499394D01*
X748098Y499341D01*
X748192Y499284D01*
X748285Y499223D01*
X748376Y499160D01*
X748465Y499093D01*
X748551Y499023D01*
X748634Y498950D01*
X748716Y498875D01*
X748794Y498797D01*
X748869Y498715D01*
X748942Y498632D01*
X749012Y498546D01*
X749079Y498457D01*
X749142Y498366D01*
X749203Y498273D01*
X749260Y498179D01*
X749313Y498082D01*
X749364Y497983D01*
X749411Y497882D01*
X749454Y497780D01*
X749494Y497677D01*
X749530Y497572D01*
X749562Y497466D01*
X749591Y497359D01*
X749616Y497251D01*
X749637Y497142D01*
X749654Y497033D01*
X749668Y496923D01*
X749677Y496812D01*
X749683Y496702D01*
X749685Y496591D01*
X749685Y468609D01*
X749687Y468498D01*
X749693Y468388D01*
X749702Y468277D01*
X749716Y468167D01*
X749733Y468058D01*
X749754Y467949D01*
X749779Y467841D01*
X749808Y467734D01*
X749840Y467628D01*
X749876Y467523D01*
X749916Y467420D01*
X749959Y467318D01*
X750006Y467217D01*
X750057Y467118D01*
X750110Y467022D01*
X750167Y466927D01*
X750228Y466834D01*
X750291Y466743D01*
X750358Y466654D01*
X750428Y466568D01*
X750501Y466485D01*
X750576Y466403D01*
X750654Y466325D01*
X750736Y466250D01*
X750819Y466177D01*
X750905Y466107D01*
X750994Y466040D01*
X751085Y465977D01*
X751178Y465916D01*
X751273Y465859D01*
X751369Y465806D01*
X751468Y465755D01*
X751569Y465708D01*
X751671Y465665D01*
X751774Y465625D01*
X751879Y465589D01*
X751985Y465557D01*
X752092Y465528D01*
X752200Y465503D01*
X752309Y465482D01*
X752418Y465465D01*
X752528Y465451D01*
X752639Y465442D01*
X752749Y465436D01*
X752860Y465434D01*
X753790Y465434D01*
X753901Y465436D01*
X754011Y465442D01*
X754122Y465451D01*
X754232Y465465D01*
X754341Y465482D01*
X754450Y465503D01*
X754558Y465528D01*
X754665Y465557D01*
X754771Y465589D01*
X754876Y465625D01*
X754979Y465665D01*
X755081Y465708D01*
X755182Y465755D01*
X755281Y465806D01*
X755378Y465859D01*
X755472Y465916D01*
X755565Y465977D01*
X755656Y466040D01*
X755745Y466107D01*
X755831Y466177D01*
X755914Y466250D01*
X755996Y466325D01*
X756074Y466403D01*
X756149Y466485D01*
X756222Y466568D01*
X756292Y466654D01*
X756359Y466743D01*
X756422Y466834D01*
X756483Y466927D01*
X756540Y467021D01*
X756593Y467118D01*
X756644Y467217D01*
X756691Y467318D01*
X756734Y467420D01*
X756774Y467523D01*
X756810Y467628D01*
X756842Y467734D01*
X756871Y467841D01*
X756896Y467949D01*
X756917Y468058D01*
X756934Y468167D01*
X756948Y468277D01*
X756957Y468388D01*
X756963Y468498D01*
X756965Y468609D01*
X756965Y496591D01*
X756967Y496702D01*
X756973Y496812D01*
X756982Y496923D01*
X756996Y497033D01*
X757013Y497142D01*
X757034Y497251D01*
X757059Y497359D01*
X757088Y497466D01*
X757120Y497572D01*
X757156Y497677D01*
X757196Y497780D01*
X757239Y497882D01*
X757286Y497983D01*
X757337Y498082D01*
X757390Y498179D01*
X757447Y498273D01*
X757508Y498366D01*
X757571Y498457D01*
X757638Y498546D01*
X757708Y498632D01*
X757781Y498715D01*
X757856Y498797D01*
X757934Y498875D01*
X758016Y498950D01*
X758099Y499023D01*
X758185Y499093D01*
X758274Y499160D01*
X758365Y499223D01*
X758458Y499284D01*
X758553Y499341D01*
X758649Y499394D01*
X758748Y499445D01*
X758849Y499492D01*
X758951Y499535D01*
X759054Y499575D01*
X759159Y499611D01*
X759265Y499643D01*
X759372Y499672D01*
X759480Y499697D01*
X759589Y499718D01*
X759698Y499735D01*
X759808Y499749D01*
X759919Y499758D01*
X760029Y499764D01*
X760140Y499766D01*
X761070Y499766D01*
X761181Y499764D01*
X761291Y499758D01*
X761402Y499749D01*
X761512Y499735D01*
X761621Y499718D01*
X761730Y499697D01*
X761838Y499672D01*
X761945Y499643D01*
X762051Y499611D01*
X762156Y499575D01*
X762259Y499535D01*
X762361Y499492D01*
X762462Y499445D01*
X762561Y499394D01*
X762658Y499341D01*
X762752Y499284D01*
X762845Y499223D01*
X762936Y499160D01*
X763025Y499093D01*
X763111Y499023D01*
X763194Y498950D01*
X763276Y498875D01*
X763354Y498797D01*
X763429Y498715D01*
X763502Y498632D01*
X763572Y498546D01*
X763639Y498457D01*
X763702Y498366D01*
X763763Y498273D01*
X763820Y498179D01*
X763873Y498082D01*
X763924Y497983D01*
X763971Y497882D01*
X764014Y497780D01*
X764054Y497677D01*
X764090Y497572D01*
X764122Y497466D01*
X764151Y497359D01*
X764176Y497251D01*
X764197Y497142D01*
X764214Y497033D01*
X764228Y496923D01*
X764237Y496812D01*
X764243Y496702D01*
X764245Y496591D01*
X764245Y468609D01*
X764247Y468498D01*
X764253Y468388D01*
X764262Y468277D01*
X764276Y468167D01*
X764293Y468058D01*
X764314Y467949D01*
X764339Y467841D01*
X764368Y467734D01*
X764400Y467628D01*
X764436Y467523D01*
X764476Y467420D01*
X764519Y467318D01*
X764566Y467217D01*
X764617Y467118D01*
X764670Y467022D01*
X764727Y466927D01*
X764788Y466834D01*
X764851Y466743D01*
X764918Y466654D01*
X764988Y466568D01*
X765061Y466485D01*
X765136Y466403D01*
X765214Y466325D01*
X765296Y466250D01*
X765379Y466177D01*
X765465Y466107D01*
X765554Y466040D01*
X765645Y465977D01*
X765738Y465916D01*
X765833Y465859D01*
X765929Y465806D01*
X766028Y465755D01*
X766129Y465708D01*
X766231Y465665D01*
X766334Y465625D01*
X766439Y465589D01*
X766545Y465557D01*
X766652Y465528D01*
X766760Y465503D01*
X766869Y465482D01*
X766978Y465465D01*
X767088Y465451D01*
X767199Y465442D01*
X767309Y465436D01*
X767420Y465434D01*
X768350Y465434D01*
X768461Y465436D01*
X768571Y465442D01*
X768682Y465451D01*
X768792Y465465D01*
X768901Y465482D01*
X769010Y465503D01*
X769118Y465528D01*
X769225Y465557D01*
X769331Y465589D01*
X769436Y465625D01*
X769539Y465665D01*
X769641Y465708D01*
X769742Y465755D01*
X769841Y465806D01*
X769938Y465859D01*
X770032Y465916D01*
X770125Y465977D01*
X770216Y466040D01*
X770305Y466107D01*
X770391Y466177D01*
X770474Y466250D01*
X770556Y466325D01*
X770634Y466403D01*
X770709Y466485D01*
X770782Y466568D01*
X770852Y466654D01*
X770919Y466743D01*
X770982Y466834D01*
X771043Y466927D01*
X771100Y467021D01*
X771153Y467118D01*
X771204Y467217D01*
X771251Y467318D01*
X771294Y467420D01*
X771334Y467523D01*
X771370Y467628D01*
X771402Y467734D01*
X771431Y467841D01*
X771456Y467949D01*
X771477Y468058D01*
X771494Y468167D01*
X771508Y468277D01*
X771517Y468388D01*
X771523Y468498D01*
X771525Y468609D01*
X771525Y479425D01*
X771527Y479536D01*
X771533Y479646D01*
X771542Y479757D01*
X771556Y479867D01*
X771573Y479976D01*
X771594Y480085D01*
X771619Y480193D01*
X771648Y480300D01*
X771680Y480406D01*
X771716Y480511D01*
X771756Y480614D01*
X771799Y480716D01*
X771846Y480817D01*
X771897Y480916D01*
X771950Y481013D01*
X772007Y481107D01*
X772068Y481200D01*
X772131Y481291D01*
X772198Y481380D01*
X772268Y481466D01*
X772341Y481549D01*
X772416Y481631D01*
X772494Y481709D01*
X772576Y481784D01*
X772659Y481857D01*
X772745Y481927D01*
X772834Y481994D01*
X772925Y482057D01*
X773018Y482118D01*
X773113Y482175D01*
X773209Y482228D01*
X773308Y482279D01*
X773409Y482326D01*
X773511Y482369D01*
X773614Y482409D01*
X773719Y482445D01*
X773825Y482477D01*
X773932Y482506D01*
X774040Y482531D01*
X774149Y482552D01*
X774258Y482569D01*
X774368Y482583D01*
X774479Y482592D01*
X774589Y482598D01*
X774700Y482600D01*
X787400Y495300D01*
X787400Y533400D01*
X783082Y537718D02*
X769366Y537718D01*
X783082Y537718D02*
X787400Y533400D01*
X673100Y459740D02*
X673100Y445770D01*
X711200Y497840D02*
X721360Y497840D01*
X711200Y497840D02*
X673100Y459740D01*
X735838Y512318D02*
X743966Y512318D01*
X735838Y512318D02*
X721360Y497840D01*
D21*
X88900Y584200D03*
D20*
X101600Y571500D01*
X266700Y532500D02*
X286900Y512300D01*
X266700Y532500D02*
X266700Y571500D01*
X215900Y571500D02*
X101600Y571500D01*
X215900Y571500D02*
X266700Y571500D01*
X182880Y538480D02*
X182880Y472440D01*
X182880Y538480D02*
X215900Y571500D01*
X266700Y571500D02*
X266700Y622300D01*
X279400Y635000D01*
X279400Y640080D01*
D21*
X279400Y640080D03*
X609600Y292100D03*
D23*
X723900Y406400D02*
X723900Y417830D01*
X723900Y406400D02*
X609600Y292100D01*
D21*
X571500Y203200D03*
D20*
X558800Y190500D01*
X482600Y190500D01*
X469900Y177800D01*
X469900Y165100D01*
D21*
X448310Y139700D03*
D20*
X448310Y72390D01*
X439420Y63500D01*
X279400Y63500D01*
D21*
X279400Y63500D03*
D23*
X609600Y454152D02*
X667766Y512318D01*
X539750Y336550D02*
X539750Y266700D01*
D21*
X539750Y266700D03*
D23*
X609600Y406400D02*
X609600Y454152D01*
X609600Y406400D02*
X539750Y336550D01*
D20*
X600710Y470662D02*
X642366Y512318D01*
X600710Y470662D02*
X600710Y412750D01*
X501650Y313690D01*
X501650Y302260D01*
D21*
X501650Y302260D03*
X580390Y496570D03*
D20*
X580390Y543560D01*
X571500Y552450D01*
X546100Y552450D01*
X540766Y547116D01*
X540766Y537718D01*
D21*
X330200Y577850D03*
D20*
X350520Y557530D01*
D21*
X350520Y524510D03*
D20*
X350520Y557530D01*
D24*
X2329Y74719D02*
X2329Y49780D01*
X2329Y74719D02*
X27940Y100330D01*
X27940Y170180D02*
X57150Y199390D01*
X27940Y170180D02*
X27940Y100330D01*
X154729Y49780D02*
X154729Y278380D01*
X78740Y75391D02*
X53129Y49780D01*
X53129Y252941D02*
X53129Y278380D01*
X78740Y227330D02*
X78740Y75391D01*
X78740Y227330D02*
X53129Y252941D01*
D20*
X342900Y444500D02*
X342900Y457200D01*
X368300Y482600D02*
X495300Y482600D01*
X515366Y502666D01*
X515366Y512318D01*
X368300Y482600D02*
X342900Y457200D01*
X368300Y462280D02*
X368300Y444500D01*
X368300Y462280D02*
X378460Y472440D01*
X505460Y472440D01*
X529590Y496570D01*
X550418Y496570D02*
X566039Y512191D01*
X566166Y512318D01*
X550418Y496570D02*
X529590Y496570D01*
X508000Y461010D02*
X508000Y444500D01*
X508000Y461010D02*
X534670Y487680D01*
X561340Y487680D01*
X566039Y492379D01*
X566039Y512191D01*
X351790Y495300D02*
X317500Y461010D01*
X317500Y444500D01*
X351790Y495300D02*
X469900Y495300D01*
X478790Y504190D01*
X478790Y519430D01*
X483870Y524510D02*
X557530Y524510D01*
X566166Y533146D01*
X566166Y537718D01*
X483870Y524510D02*
X478790Y519430D01*
M02*
