G04 EAGLE Gerber RS-274X export*
G75*
%MOMM*%
%FSLAX34Y34*%
%LPD*%
%INTop Copper*%
%IPPOS*%
%AMOC8*
5,1,8,0,0,1.08239X$1,22.5*%
G01*
%ADD10R,1.524000X1.524000*%
%ADD11C,1.524000*%
%ADD12C,5.000000*%
%ADD13R,0.660400X2.032000*%
%ADD14R,2.200000X0.600000*%
%ADD15C,2.514600*%
%ADD16C,1.879600*%
%ADD17C,1.524000*%
%ADD18R,0.609600X2.057400*%
%ADD19R,1.000000X1.100000*%
%ADD20R,1.100000X1.000000*%
%ADD21R,2.400000X2.062000*%
%ADD22C,2.540000*%
%ADD23C,1.800000*%
%ADD24P,1.814519X8X112.500000*%
%ADD25R,1.422400X0.279400*%
%ADD26R,1.600000X1.200000*%
%ADD27R,1.200000X0.800000*%
%ADD28C,3.810000*%
%ADD29C,0.254000*%
%ADD30C,0.756400*%
%ADD31C,0.508000*%
%ADD32C,1.270000*%
%ADD33C,2.540000*%
%ADD34C,0.152400*%


D10*
X286900Y512300D03*
D11*
X286766Y537718D03*
X312166Y512318D03*
X312166Y537718D03*
X337566Y512318D03*
X337566Y537718D03*
X362966Y512318D03*
X362966Y537718D03*
X388366Y512318D03*
X388366Y537718D03*
X413766Y512318D03*
X413766Y537718D03*
X439166Y512318D03*
X439166Y537718D03*
X464566Y512318D03*
X464566Y537718D03*
X489966Y512318D03*
X489966Y537718D03*
X515366Y512318D03*
X515366Y537718D03*
X540766Y512318D03*
X540766Y537718D03*
X566166Y512318D03*
X566166Y537718D03*
X591566Y512318D03*
X591566Y537718D03*
X616966Y512318D03*
X616966Y537718D03*
X642366Y512318D03*
X642366Y537718D03*
X667766Y512318D03*
X667766Y537718D03*
X693166Y512318D03*
X693166Y537718D03*
X718566Y512318D03*
X718566Y537718D03*
X743966Y512318D03*
X743966Y537718D03*
X769366Y512318D03*
X769366Y537718D03*
X413766Y22282D03*
X413766Y47682D03*
D10*
X388366Y22282D03*
D11*
X388366Y47682D03*
D12*
X238200Y35000D03*
X818200Y35000D03*
X238200Y525000D03*
X818200Y525000D03*
D13*
X717550Y284734D03*
X717550Y223266D03*
X704850Y284734D03*
X692150Y284734D03*
X704850Y223266D03*
X692150Y223266D03*
X679450Y284734D03*
X679450Y223266D03*
X666750Y284734D03*
X666750Y223266D03*
X654050Y284734D03*
X641350Y284734D03*
X654050Y223266D03*
X641350Y223266D03*
X628650Y284734D03*
X628650Y223266D03*
X577850Y284734D03*
X577850Y223266D03*
X565150Y284734D03*
X552450Y284734D03*
X565150Y223266D03*
X552450Y223266D03*
X539750Y284734D03*
X539750Y223266D03*
X527050Y284734D03*
X527050Y223266D03*
X514350Y284734D03*
X501650Y284734D03*
X514350Y223266D03*
X501650Y223266D03*
X488950Y284734D03*
X488950Y223266D03*
D14*
X427000Y171450D03*
X335000Y196850D03*
X427000Y158750D03*
X427000Y184150D03*
X427000Y196850D03*
X335000Y184150D03*
X335000Y209550D03*
X335000Y222250D03*
X427000Y222250D03*
X335000Y247650D03*
X427000Y209550D03*
X427000Y234950D03*
X335000Y234950D03*
X427000Y247650D03*
X335000Y171450D03*
X335000Y158750D03*
D15*
X400812Y330327D02*
X400812Y355473D01*
X361188Y355473D02*
X361188Y330327D01*
X321564Y330327D02*
X321564Y355473D01*
X440436Y355473D02*
X440436Y330327D01*
D16*
X774700Y445770D03*
X774700Y417830D03*
X749300Y445770D03*
X749300Y417830D03*
X723900Y445770D03*
X723900Y417830D03*
X698500Y445770D03*
X698500Y417830D03*
X673100Y445770D03*
X673100Y417830D03*
D17*
X342900Y436880D02*
X342900Y452120D01*
X368300Y452120D02*
X368300Y436880D01*
X393700Y436880D02*
X393700Y452120D01*
X317500Y452120D02*
X317500Y436880D01*
X292100Y436880D02*
X292100Y452120D01*
X457200Y452120D02*
X457200Y436880D01*
X482600Y436880D02*
X482600Y452120D01*
X508000Y452120D02*
X508000Y436880D01*
X533400Y436880D02*
X533400Y452120D01*
X558800Y452120D02*
X558800Y436880D01*
X584200Y436880D02*
X584200Y452120D01*
D18*
X584200Y378206D03*
X571500Y378206D03*
X558800Y378206D03*
X546100Y378206D03*
X533400Y378206D03*
X520700Y378206D03*
X508000Y378206D03*
X495300Y378206D03*
X495300Y330200D03*
X508000Y330200D03*
X520700Y330200D03*
X533400Y330200D03*
X546100Y330200D03*
X558800Y330200D03*
X571500Y330200D03*
X584200Y330200D03*
D19*
X609600Y245500D03*
X609600Y262500D03*
X469900Y245500D03*
X469900Y262500D03*
X609600Y347100D03*
X609600Y364100D03*
D20*
X427600Y128270D03*
X410600Y128270D03*
X334400Y129540D03*
X351400Y129540D03*
D21*
X266700Y289960D03*
X266700Y354565D03*
D22*
X774700Y304800D03*
X825500Y304800D03*
D23*
X184150Y123190D03*
X184150Y199390D03*
X107950Y199390D03*
X57150Y199390D03*
X6350Y199390D03*
X107950Y123190D03*
X57150Y123190D03*
X6350Y123190D03*
D17*
X779780Y156210D02*
X779780Y171450D01*
X805180Y171450D02*
X805180Y156210D01*
X830580Y156210D02*
X830580Y171450D01*
X627380Y171450D02*
X627380Y156210D01*
X754380Y156210D02*
X754380Y171450D01*
X728980Y171450D02*
X728980Y156210D01*
X652780Y156210D02*
X652780Y171450D01*
X678180Y171450D02*
X678180Y156210D01*
X703580Y156210D02*
X703580Y171450D01*
X520700Y172720D02*
X520700Y157480D01*
X546100Y157480D02*
X546100Y172720D01*
X571500Y172720D02*
X571500Y157480D01*
X495300Y157480D02*
X495300Y172720D01*
X469900Y172720D02*
X469900Y157480D01*
D22*
X508000Y88900D03*
X508000Y38100D03*
X736600Y88900D03*
X736600Y38100D03*
X622300Y88900D03*
X622300Y38100D03*
D17*
X431800Y601980D02*
X431800Y617220D01*
X457200Y617220D02*
X457200Y601980D01*
X482600Y601980D02*
X482600Y617220D01*
X406400Y617220D02*
X406400Y601980D01*
X381000Y601980D02*
X381000Y617220D01*
X546100Y617220D02*
X546100Y601980D01*
X571500Y601980D02*
X571500Y617220D01*
X596900Y617220D02*
X596900Y601980D01*
D24*
X266700Y167800D03*
X266700Y187800D03*
X266700Y207800D03*
X266700Y227800D03*
X266700Y147800D03*
X266700Y247800D03*
X266700Y127800D03*
X266700Y107800D03*
D21*
X220980Y289960D03*
X220980Y354565D03*
D25*
X64516Y602996D03*
X64516Y598170D03*
X64516Y593090D03*
X64516Y588010D03*
X64516Y583184D03*
X108204Y583184D03*
X108204Y588010D03*
X108204Y593090D03*
X108204Y598170D03*
X108204Y602996D03*
D26*
X330200Y594600D03*
X330200Y624600D03*
X279400Y594600D03*
X279400Y624600D03*
X304800Y594600D03*
X304800Y624600D03*
D27*
X643100Y622300D03*
X643100Y596900D03*
X703100Y596900D03*
X703100Y622300D03*
D17*
X736600Y617220D02*
X736600Y601980D01*
X762000Y601980D02*
X762000Y617220D01*
X5080Y480060D02*
X5080Y464820D01*
X30480Y464820D02*
X30480Y480060D01*
X55880Y480060D02*
X55880Y464820D01*
X132080Y464820D02*
X132080Y480060D01*
X157480Y480060D02*
X157480Y464820D01*
X182880Y464820D02*
X182880Y480060D01*
X81280Y480060D02*
X81280Y464820D01*
X106680Y464820D02*
X106680Y480060D01*
D26*
X137160Y608090D03*
X137160Y578090D03*
X99060Y527290D03*
X99060Y557290D03*
X73660Y527290D03*
X73660Y557290D03*
X35560Y608090D03*
X35560Y578090D03*
X10160Y608090D03*
X10160Y578090D03*
X48260Y557290D03*
X48260Y527290D03*
X124460Y557290D03*
X124460Y527290D03*
X162560Y608090D03*
X162560Y578090D03*
D20*
X93100Y622300D03*
X110100Y622300D03*
X21200Y419100D03*
X4200Y419100D03*
X72000Y419100D03*
X55000Y419100D03*
X122800Y419100D03*
X105800Y419100D03*
X173600Y419100D03*
X156600Y419100D03*
X182000Y609600D03*
X199000Y609600D03*
D19*
X148590Y555870D03*
X148590Y538870D03*
X25400Y554600D03*
X25400Y537600D03*
D20*
X4200Y635000D03*
X21200Y635000D03*
D17*
X330200Y45720D02*
X330200Y30480D01*
X304800Y30480D02*
X304800Y45720D01*
X406400Y81280D02*
X406400Y96520D01*
X431800Y96520D02*
X431800Y81280D01*
D28*
X103929Y278380D03*
X154729Y278380D03*
X2329Y278380D03*
X53129Y278380D03*
X103929Y49780D03*
X154729Y49780D03*
X2329Y49780D03*
X53129Y49780D03*
D17*
X49530Y361950D02*
X49530Y377190D01*
X74930Y377190D02*
X74930Y361950D01*
X100330Y361950D02*
X100330Y377190D01*
X125730Y377190D02*
X125730Y361950D01*
D29*
X279400Y594600D02*
X268464Y605536D01*
X239617Y605536D01*
X214245Y630908D01*
X128655Y630908D01*
X122458Y624711D01*
X116473Y598805D02*
X108839Y598805D01*
X108204Y598170D01*
X122458Y604790D02*
X122458Y624711D01*
X122458Y604790D02*
X116473Y598805D01*
D30*
X281940Y580390D03*
D29*
X281940Y592060D01*
X279400Y594600D01*
X118394Y613186D02*
X108204Y602996D01*
X118394Y626394D02*
X126972Y634972D01*
X215928Y634972D02*
X241300Y609600D01*
X285750Y609600D01*
X300750Y594600D01*
X304800Y594600D01*
X118394Y613186D02*
X118394Y626394D01*
X126972Y634972D02*
X215928Y634972D01*
D30*
X306070Y579120D03*
D29*
X306070Y593330D01*
X304800Y594600D01*
X718566Y551434D02*
X718566Y537718D01*
X698500Y571500D02*
X584200Y571500D01*
X571500Y584200D01*
X571500Y609600D01*
X698500Y571500D02*
X718566Y551434D01*
D30*
X660400Y609600D03*
D31*
X647700Y622300D01*
X643100Y622300D01*
X361950Y158750D02*
X335000Y158750D01*
X361950Y158750D02*
X368300Y165100D01*
X368300Y215900D01*
X349250Y234950D01*
X335000Y234950D01*
X368300Y335788D02*
X361188Y342900D01*
X368300Y335788D02*
X368300Y215900D01*
X334400Y158150D02*
X334400Y129540D01*
X334400Y158150D02*
X335000Y158750D01*
D32*
X361188Y297688D02*
X361188Y342900D01*
X353460Y289960D02*
X266700Y289960D01*
X353460Y289960D02*
X361188Y297688D01*
X266700Y289960D02*
X220980Y289960D01*
X266700Y289960D02*
X266700Y247800D01*
D31*
X311150Y222250D02*
X335000Y222250D01*
X276700Y187800D02*
X266700Y187800D01*
X276700Y187800D02*
X311150Y222250D01*
X282100Y167800D02*
X266700Y167800D01*
X323850Y209550D02*
X335000Y209550D01*
X323850Y209550D02*
X282100Y167800D01*
X316230Y247650D02*
X335000Y247650D01*
D30*
X316230Y247650D03*
D31*
X314960Y171450D02*
X335000Y171450D01*
D30*
X314960Y171450D03*
D31*
X351400Y129540D02*
X365760Y129540D01*
D30*
X365760Y129540D03*
D31*
X266700Y336550D02*
X266700Y354565D01*
D30*
X266700Y336550D03*
D31*
X266700Y354565D02*
X220980Y354565D01*
D29*
X584200Y330200D02*
X592700Y330200D01*
X609600Y347100D01*
D31*
X628650Y223266D02*
X628650Y165100D01*
X627380Y163830D01*
X628650Y223266D02*
X623316Y228600D01*
X609600Y228600D01*
X609600Y245500D01*
X488950Y223266D02*
X475234Y223266D01*
X469900Y228600D01*
X469900Y241300D01*
X469900Y245500D01*
X463550Y234950D02*
X427000Y234950D01*
X463550Y234950D02*
X469900Y241300D01*
X427000Y234950D02*
X412750Y234950D01*
X406400Y228600D01*
X406400Y165100D01*
X412750Y158750D01*
X427000Y158750D01*
X406400Y228600D02*
X406400Y279400D01*
X440436Y313436D02*
X440436Y342900D01*
X440436Y313436D02*
X406400Y279400D01*
X546100Y165100D02*
X546100Y127000D01*
X508000Y88900D01*
X622300Y88900D01*
X736600Y88900D01*
X774700Y279400D02*
X774700Y304800D01*
X736600Y241300D02*
X613800Y241300D01*
X609600Y245500D01*
X736600Y241300D02*
X774700Y279400D01*
X609600Y347100D02*
X444636Y347100D01*
X440436Y342900D01*
X427000Y158750D02*
X427000Y128870D01*
X427600Y128270D01*
X544830Y128270D01*
X546100Y127000D01*
D33*
X252984Y571500D02*
X215900Y571500D01*
X190500Y546100D01*
X252984Y571500D02*
X286766Y537718D01*
X312166Y537718D01*
D31*
X184150Y374650D02*
X184150Y199390D01*
X184150Y374650D02*
X203200Y393700D01*
D33*
X190500Y503332D02*
X190500Y546100D01*
D31*
X312166Y537718D02*
X333248Y558800D01*
X457200Y558800D02*
X482600Y584200D01*
X482600Y609600D01*
X457200Y558800D02*
X333248Y558800D01*
X482600Y609600D02*
X508000Y635000D01*
X584200Y635000D01*
X596900Y622300D01*
X596900Y609600D01*
X228600Y393700D02*
X203200Y393700D01*
D33*
X440436Y359664D02*
X440436Y342900D01*
X300132Y393700D02*
X277066Y416766D01*
X190500Y503332D01*
X406400Y393700D02*
X440436Y359664D01*
X406400Y393700D02*
X300132Y393700D01*
D31*
X277066Y429466D02*
X292100Y444500D01*
X277066Y429466D02*
X277066Y416766D01*
X251666Y416766D02*
X228600Y393700D01*
X251666Y416766D02*
X277066Y416766D01*
X488950Y300990D02*
X488950Y284734D01*
D30*
X488950Y300990D03*
D31*
X628650Y284734D02*
X628650Y261620D01*
D30*
X628650Y261620D03*
D31*
X609600Y262500D02*
X609600Y274320D01*
D30*
X609600Y274320D03*
D31*
X609600Y364100D02*
X609600Y377190D01*
D30*
X609600Y377190D03*
D31*
X471170Y263770D02*
X469900Y262500D01*
X471170Y263770D02*
X471170Y275590D01*
D30*
X471170Y275590D03*
D31*
X447040Y247650D02*
X427000Y247650D01*
D30*
X447040Y247650D03*
D31*
X445770Y171450D02*
X427000Y171450D01*
D30*
X445770Y171450D03*
D31*
X410600Y128270D02*
X397510Y128270D01*
D30*
X397510Y128270D03*
D29*
X495300Y378206D02*
X495300Y394970D01*
D30*
X495300Y394970D03*
D29*
X137160Y608090D02*
X137160Y619760D01*
D30*
X137160Y619760D03*
D29*
X35560Y619760D02*
X35560Y608090D01*
D30*
X35560Y619760D03*
D29*
X73660Y539750D02*
X73660Y527290D01*
D30*
X73660Y539750D03*
D29*
X99060Y539750D02*
X99060Y527290D01*
D30*
X99060Y539750D03*
D29*
X77470Y593090D02*
X64516Y593090D01*
D30*
X77470Y593090D03*
D29*
X77216Y602996D02*
X64516Y602996D01*
X77216Y602996D02*
X77470Y603250D01*
D30*
X77470Y603250D03*
D29*
X110100Y622300D02*
X110100Y633340D01*
X110490Y633730D01*
D30*
X110490Y633730D03*
D29*
X139700Y419100D02*
X156600Y419100D01*
D30*
X139700Y419100D03*
D29*
X105800Y419100D02*
X88900Y419100D01*
D30*
X88900Y419100D03*
D29*
X55000Y419100D02*
X38100Y419100D01*
D30*
X38100Y419100D03*
D29*
X4200Y419100D02*
X-12700Y419100D01*
D30*
X-12700Y419100D03*
D29*
X148590Y523240D02*
X148590Y538870D01*
D30*
X148590Y523240D03*
D29*
X25400Y523240D02*
X25400Y537600D01*
D30*
X25400Y523240D03*
D29*
X21200Y635000D02*
X38100Y635000D01*
D30*
X38100Y635000D03*
D31*
X626110Y596900D02*
X643100Y596900D01*
D30*
X626110Y596900D03*
D29*
X215900Y609600D02*
X199000Y609600D01*
D30*
X215900Y609600D03*
X447040Y222250D03*
D29*
X427000Y222250D01*
X401320Y524764D02*
X388366Y537718D01*
X401320Y488950D02*
X434340Y455930D01*
X433070Y455930D01*
D30*
X433070Y455930D03*
D29*
X401320Y488950D02*
X401320Y524764D01*
D30*
X447040Y209550D03*
D29*
X427000Y209550D01*
X373380Y527304D02*
X362966Y537718D01*
X373380Y527304D02*
X373380Y482600D01*
X387350Y468630D01*
X407670Y468630D01*
X420370Y455930D01*
X420370Y454660D01*
D30*
X420370Y454660D03*
D29*
X783431Y479901D02*
X787400Y483870D01*
X783431Y479902D02*
X783351Y479825D01*
X783269Y479751D01*
X783184Y479680D01*
X783097Y479611D01*
X783007Y479546D01*
X782915Y479484D01*
X782821Y479425D01*
X782725Y479370D01*
X782627Y479318D01*
X782528Y479269D01*
X782427Y479224D01*
X782324Y479183D01*
X782220Y479145D01*
X782114Y479111D01*
X782008Y479080D01*
X781900Y479053D01*
X781792Y479030D01*
X781683Y479011D01*
X781573Y478996D01*
X781463Y478984D01*
X781352Y478976D01*
X781241Y478972D01*
X781131Y478972D01*
X781020Y478976D01*
X780909Y478984D01*
X780799Y478996D01*
X780689Y479011D01*
X780580Y479030D01*
X780472Y479053D01*
X780364Y479080D01*
X780258Y479111D01*
X780152Y479145D01*
X780048Y479183D01*
X779945Y479224D01*
X779844Y479269D01*
X779745Y479318D01*
X779647Y479370D01*
X779551Y479425D01*
X779457Y479484D01*
X779365Y479546D01*
X779275Y479611D01*
X779188Y479680D01*
X779103Y479751D01*
X779021Y479825D01*
X778941Y479902D01*
X778941Y479901D02*
X768820Y490023D01*
X768740Y490100D01*
X768658Y490174D01*
X768573Y490245D01*
X768486Y490314D01*
X768396Y490379D01*
X768304Y490441D01*
X768210Y490500D01*
X768114Y490555D01*
X768016Y490607D01*
X767917Y490656D01*
X767816Y490701D01*
X767713Y490742D01*
X767609Y490780D01*
X767503Y490814D01*
X767397Y490845D01*
X767289Y490872D01*
X767181Y490895D01*
X767072Y490914D01*
X766962Y490929D01*
X766852Y490941D01*
X766741Y490949D01*
X766630Y490953D01*
X766520Y490953D01*
X766409Y490949D01*
X766298Y490941D01*
X766188Y490929D01*
X766078Y490914D01*
X765969Y490895D01*
X765861Y490872D01*
X765753Y490845D01*
X765647Y490814D01*
X765541Y490780D01*
X765437Y490742D01*
X765334Y490701D01*
X765233Y490656D01*
X765134Y490607D01*
X765036Y490555D01*
X764940Y490500D01*
X764846Y490441D01*
X764754Y490379D01*
X764664Y490314D01*
X764577Y490245D01*
X764492Y490174D01*
X764410Y490100D01*
X764330Y490023D01*
X764035Y489728D01*
X763958Y489648D01*
X763884Y489566D01*
X763813Y489481D01*
X763744Y489394D01*
X763679Y489304D01*
X763617Y489212D01*
X763558Y489118D01*
X763503Y489022D01*
X763451Y488924D01*
X763402Y488825D01*
X763357Y488724D01*
X763316Y488621D01*
X763278Y488517D01*
X763244Y488411D01*
X763213Y488305D01*
X763186Y488197D01*
X763163Y488089D01*
X763144Y487980D01*
X763129Y487870D01*
X763117Y487760D01*
X763109Y487649D01*
X763105Y487538D01*
X763105Y487428D01*
X763109Y487317D01*
X763117Y487206D01*
X763129Y487096D01*
X763144Y486986D01*
X763163Y486877D01*
X763186Y486769D01*
X763213Y486661D01*
X763244Y486555D01*
X763278Y486449D01*
X763316Y486345D01*
X763357Y486242D01*
X763402Y486141D01*
X763451Y486042D01*
X763503Y485944D01*
X763558Y485848D01*
X763617Y485754D01*
X763679Y485662D01*
X763744Y485572D01*
X763813Y485485D01*
X763884Y485400D01*
X763958Y485318D01*
X764035Y485238D01*
X774156Y475116D01*
X774233Y475036D01*
X774307Y474954D01*
X774378Y474869D01*
X774447Y474782D01*
X774512Y474692D01*
X774574Y474600D01*
X774633Y474506D01*
X774688Y474410D01*
X774740Y474312D01*
X774789Y474213D01*
X774834Y474112D01*
X774875Y474009D01*
X774913Y473905D01*
X774947Y473799D01*
X774978Y473693D01*
X775005Y473585D01*
X775028Y473477D01*
X775047Y473368D01*
X775062Y473258D01*
X775074Y473148D01*
X775082Y473037D01*
X775086Y472926D01*
X775086Y472816D01*
X775082Y472705D01*
X775074Y472594D01*
X775062Y472484D01*
X775047Y472374D01*
X775028Y472265D01*
X775005Y472157D01*
X774978Y472049D01*
X774947Y471943D01*
X774913Y471837D01*
X774875Y471733D01*
X774834Y471630D01*
X774789Y471529D01*
X774740Y471430D01*
X774688Y471332D01*
X774633Y471236D01*
X774574Y471142D01*
X774512Y471050D01*
X774447Y470960D01*
X774378Y470873D01*
X774307Y470788D01*
X774233Y470706D01*
X774156Y470626D01*
X773861Y470331D01*
X773781Y470254D01*
X773699Y470180D01*
X773614Y470109D01*
X773527Y470040D01*
X773437Y469975D01*
X773345Y469913D01*
X773251Y469854D01*
X773155Y469799D01*
X773057Y469747D01*
X772958Y469698D01*
X772857Y469653D01*
X772754Y469612D01*
X772650Y469574D01*
X772544Y469540D01*
X772438Y469509D01*
X772330Y469482D01*
X772222Y469459D01*
X772113Y469440D01*
X772003Y469425D01*
X771893Y469413D01*
X771782Y469405D01*
X771671Y469401D01*
X771561Y469401D01*
X771450Y469405D01*
X771339Y469413D01*
X771229Y469425D01*
X771119Y469440D01*
X771010Y469459D01*
X770902Y469482D01*
X770794Y469509D01*
X770688Y469540D01*
X770582Y469574D01*
X770478Y469612D01*
X770375Y469653D01*
X770274Y469698D01*
X770175Y469747D01*
X770077Y469799D01*
X769981Y469854D01*
X769887Y469913D01*
X769795Y469975D01*
X769705Y470040D01*
X769618Y470109D01*
X769533Y470180D01*
X769451Y470254D01*
X769371Y470331D01*
X759249Y480452D01*
X759169Y480529D01*
X759087Y480603D01*
X759002Y480674D01*
X758915Y480743D01*
X758825Y480808D01*
X758733Y480870D01*
X758639Y480929D01*
X758543Y480984D01*
X758445Y481036D01*
X758346Y481085D01*
X758245Y481130D01*
X758142Y481171D01*
X758038Y481209D01*
X757932Y481243D01*
X757826Y481274D01*
X757718Y481301D01*
X757610Y481324D01*
X757501Y481343D01*
X757391Y481358D01*
X757281Y481370D01*
X757170Y481378D01*
X757059Y481382D01*
X756949Y481382D01*
X756838Y481378D01*
X756727Y481370D01*
X756617Y481358D01*
X756507Y481343D01*
X756398Y481324D01*
X756290Y481301D01*
X756182Y481274D01*
X756076Y481243D01*
X755970Y481209D01*
X755866Y481171D01*
X755763Y481130D01*
X755662Y481085D01*
X755563Y481036D01*
X755465Y480984D01*
X755369Y480929D01*
X755275Y480870D01*
X755183Y480808D01*
X755093Y480743D01*
X755006Y480674D01*
X754921Y480603D01*
X754839Y480529D01*
X754759Y480452D01*
X754464Y480157D01*
X754387Y480077D01*
X754313Y479995D01*
X754242Y479910D01*
X754173Y479823D01*
X754108Y479733D01*
X754046Y479641D01*
X753987Y479547D01*
X753932Y479451D01*
X753880Y479353D01*
X753831Y479254D01*
X753786Y479153D01*
X753745Y479050D01*
X753707Y478946D01*
X753673Y478840D01*
X753642Y478734D01*
X753615Y478626D01*
X753592Y478518D01*
X753573Y478409D01*
X753558Y478299D01*
X753546Y478189D01*
X753538Y478078D01*
X753534Y477967D01*
X753534Y477857D01*
X753538Y477746D01*
X753546Y477635D01*
X753558Y477525D01*
X753573Y477415D01*
X753592Y477306D01*
X753615Y477198D01*
X753642Y477090D01*
X753673Y476984D01*
X753707Y476878D01*
X753745Y476774D01*
X753786Y476671D01*
X753831Y476570D01*
X753880Y476471D01*
X753932Y476373D01*
X753987Y476277D01*
X754046Y476183D01*
X754108Y476091D01*
X754173Y476001D01*
X754242Y475914D01*
X754313Y475829D01*
X754387Y475747D01*
X754464Y475667D01*
X764586Y465546D01*
X764585Y465546D02*
X764662Y465466D01*
X764736Y465384D01*
X764807Y465299D01*
X764876Y465212D01*
X764941Y465122D01*
X765003Y465030D01*
X765062Y464936D01*
X765117Y464840D01*
X765169Y464742D01*
X765218Y464643D01*
X765263Y464542D01*
X765304Y464439D01*
X765342Y464335D01*
X765376Y464229D01*
X765407Y464123D01*
X765434Y464015D01*
X765457Y463907D01*
X765476Y463798D01*
X765491Y463688D01*
X765503Y463578D01*
X765511Y463467D01*
X765515Y463356D01*
X765515Y463246D01*
X765511Y463135D01*
X765503Y463024D01*
X765491Y462914D01*
X765476Y462804D01*
X765457Y462695D01*
X765434Y462587D01*
X765407Y462479D01*
X765376Y462373D01*
X765342Y462267D01*
X765304Y462163D01*
X765263Y462060D01*
X765218Y461959D01*
X765169Y461860D01*
X765117Y461762D01*
X765062Y461666D01*
X765003Y461572D01*
X764941Y461480D01*
X764876Y461390D01*
X764807Y461303D01*
X764736Y461218D01*
X764662Y461136D01*
X764585Y461056D01*
X764586Y461056D02*
X764290Y460760D01*
X764210Y460683D01*
X764128Y460609D01*
X764043Y460538D01*
X763956Y460469D01*
X763866Y460404D01*
X763774Y460342D01*
X763680Y460283D01*
X763584Y460228D01*
X763486Y460176D01*
X763387Y460127D01*
X763286Y460082D01*
X763183Y460041D01*
X763079Y460003D01*
X762973Y459969D01*
X762867Y459938D01*
X762759Y459911D01*
X762651Y459888D01*
X762542Y459869D01*
X762432Y459854D01*
X762322Y459842D01*
X762211Y459834D01*
X762100Y459830D01*
X761990Y459830D01*
X761879Y459834D01*
X761768Y459842D01*
X761658Y459854D01*
X761548Y459869D01*
X761439Y459888D01*
X761331Y459911D01*
X761223Y459938D01*
X761117Y459969D01*
X761011Y460003D01*
X760907Y460041D01*
X760804Y460082D01*
X760703Y460127D01*
X760604Y460176D01*
X760506Y460228D01*
X760410Y460283D01*
X760316Y460342D01*
X760224Y460404D01*
X760134Y460469D01*
X760047Y460538D01*
X759962Y460609D01*
X759880Y460683D01*
X759800Y460760D01*
X749679Y470882D01*
X749599Y470959D01*
X749517Y471033D01*
X749432Y471104D01*
X749345Y471173D01*
X749255Y471238D01*
X749163Y471300D01*
X749069Y471359D01*
X748973Y471414D01*
X748875Y471466D01*
X748776Y471515D01*
X748675Y471560D01*
X748572Y471601D01*
X748468Y471639D01*
X748362Y471673D01*
X748256Y471704D01*
X748148Y471731D01*
X748040Y471754D01*
X747931Y471773D01*
X747821Y471788D01*
X747711Y471800D01*
X747600Y471808D01*
X747489Y471812D01*
X747379Y471812D01*
X747268Y471808D01*
X747157Y471800D01*
X747047Y471788D01*
X746937Y471773D01*
X746828Y471754D01*
X746720Y471731D01*
X746612Y471704D01*
X746506Y471673D01*
X746400Y471639D01*
X746296Y471601D01*
X746193Y471560D01*
X746092Y471515D01*
X745993Y471466D01*
X745895Y471414D01*
X745799Y471359D01*
X745705Y471300D01*
X745613Y471238D01*
X745523Y471173D01*
X745436Y471104D01*
X745351Y471033D01*
X745269Y470959D01*
X745189Y470882D01*
X744894Y470587D01*
X744817Y470507D01*
X744743Y470425D01*
X744672Y470340D01*
X744603Y470253D01*
X744538Y470163D01*
X744476Y470071D01*
X744417Y469977D01*
X744362Y469881D01*
X744310Y469783D01*
X744261Y469684D01*
X744216Y469583D01*
X744175Y469480D01*
X744137Y469376D01*
X744103Y469270D01*
X744072Y469164D01*
X744045Y469056D01*
X744022Y468948D01*
X744003Y468839D01*
X743988Y468729D01*
X743976Y468619D01*
X743968Y468508D01*
X743964Y468397D01*
X743964Y468287D01*
X743968Y468176D01*
X743976Y468065D01*
X743988Y467955D01*
X744003Y467845D01*
X744022Y467736D01*
X744045Y467628D01*
X744072Y467520D01*
X744103Y467414D01*
X744137Y467308D01*
X744175Y467204D01*
X744216Y467101D01*
X744261Y467000D01*
X744310Y466901D01*
X744362Y466803D01*
X744417Y466707D01*
X744476Y466613D01*
X744538Y466521D01*
X744603Y466431D01*
X744672Y466344D01*
X744743Y466259D01*
X744817Y466177D01*
X744894Y466097D01*
X755015Y455975D01*
X755092Y455895D01*
X755166Y455813D01*
X755237Y455728D01*
X755306Y455641D01*
X755371Y455551D01*
X755433Y455459D01*
X755492Y455365D01*
X755547Y455269D01*
X755599Y455171D01*
X755648Y455072D01*
X755693Y454971D01*
X755734Y454868D01*
X755772Y454764D01*
X755806Y454658D01*
X755837Y454552D01*
X755864Y454444D01*
X755887Y454336D01*
X755906Y454227D01*
X755921Y454117D01*
X755933Y454007D01*
X755941Y453896D01*
X755945Y453785D01*
X755945Y453675D01*
X755941Y453564D01*
X755933Y453453D01*
X755921Y453343D01*
X755906Y453233D01*
X755887Y453124D01*
X755864Y453016D01*
X755837Y452908D01*
X755806Y452802D01*
X755772Y452696D01*
X755734Y452592D01*
X755693Y452489D01*
X755648Y452388D01*
X755599Y452289D01*
X755547Y452191D01*
X755492Y452095D01*
X755433Y452001D01*
X755371Y451909D01*
X755306Y451819D01*
X755237Y451732D01*
X755166Y451647D01*
X755092Y451565D01*
X755015Y451485D01*
X749300Y445770D01*
X787400Y546100D02*
X774700Y558800D01*
X734060Y558800D02*
X730250Y554990D01*
X726948Y512318D02*
X718566Y512318D01*
X787400Y483870D02*
X787400Y546100D01*
X774700Y558800D02*
X774589Y558802D01*
X774479Y558808D01*
X774368Y558817D01*
X774258Y558831D01*
X774149Y558848D01*
X774040Y558869D01*
X773932Y558894D01*
X773825Y558923D01*
X773719Y558955D01*
X773614Y558991D01*
X773511Y559031D01*
X773409Y559074D01*
X773308Y559121D01*
X773209Y559172D01*
X773113Y559225D01*
X773018Y559282D01*
X772925Y559343D01*
X772834Y559406D01*
X772745Y559473D01*
X772659Y559543D01*
X772576Y559616D01*
X772494Y559691D01*
X772416Y559769D01*
X772341Y559851D01*
X772268Y559934D01*
X772198Y560020D01*
X772131Y560109D01*
X772068Y560200D01*
X772007Y560293D01*
X771950Y560388D01*
X771897Y560484D01*
X771846Y560583D01*
X771799Y560684D01*
X771756Y560786D01*
X771716Y560889D01*
X771680Y560994D01*
X771648Y561100D01*
X771619Y561207D01*
X771594Y561315D01*
X771573Y561424D01*
X771556Y561533D01*
X771542Y561643D01*
X771533Y561754D01*
X771527Y561864D01*
X771525Y561975D01*
X771525Y568325D01*
X771523Y568436D01*
X771517Y568546D01*
X771508Y568657D01*
X771494Y568767D01*
X771477Y568876D01*
X771456Y568985D01*
X771431Y569093D01*
X771402Y569200D01*
X771370Y569306D01*
X771334Y569411D01*
X771294Y569514D01*
X771251Y569616D01*
X771204Y569717D01*
X771153Y569816D01*
X771100Y569913D01*
X771043Y570007D01*
X770982Y570100D01*
X770919Y570191D01*
X770852Y570280D01*
X770782Y570366D01*
X770709Y570449D01*
X770634Y570531D01*
X770556Y570609D01*
X770474Y570684D01*
X770391Y570757D01*
X770305Y570827D01*
X770216Y570894D01*
X770125Y570957D01*
X770032Y571018D01*
X769938Y571075D01*
X769841Y571128D01*
X769742Y571179D01*
X769641Y571226D01*
X769539Y571269D01*
X769436Y571309D01*
X769331Y571345D01*
X769225Y571377D01*
X769118Y571406D01*
X769010Y571431D01*
X768901Y571452D01*
X768792Y571469D01*
X768682Y571483D01*
X768571Y571492D01*
X768461Y571498D01*
X768350Y571500D01*
X767842Y571500D01*
X767731Y571498D01*
X767621Y571492D01*
X767510Y571483D01*
X767400Y571469D01*
X767291Y571452D01*
X767182Y571431D01*
X767074Y571406D01*
X766967Y571377D01*
X766861Y571345D01*
X766756Y571309D01*
X766653Y571269D01*
X766551Y571226D01*
X766450Y571179D01*
X766351Y571128D01*
X766255Y571075D01*
X766160Y571018D01*
X766067Y570957D01*
X765976Y570894D01*
X765887Y570827D01*
X765801Y570757D01*
X765718Y570684D01*
X765636Y570609D01*
X765558Y570531D01*
X765483Y570449D01*
X765410Y570366D01*
X765340Y570280D01*
X765273Y570191D01*
X765210Y570100D01*
X765149Y570007D01*
X765092Y569913D01*
X765039Y569816D01*
X764988Y569717D01*
X764941Y569616D01*
X764898Y569514D01*
X764858Y569411D01*
X764822Y569306D01*
X764790Y569200D01*
X764761Y569093D01*
X764736Y568985D01*
X764715Y568876D01*
X764698Y568767D01*
X764684Y568657D01*
X764675Y568546D01*
X764669Y568436D01*
X764667Y568325D01*
X764667Y561975D01*
X764665Y561864D01*
X764659Y561754D01*
X764650Y561643D01*
X764636Y561533D01*
X764619Y561424D01*
X764598Y561315D01*
X764573Y561207D01*
X764544Y561100D01*
X764512Y560994D01*
X764476Y560889D01*
X764436Y560786D01*
X764393Y560684D01*
X764346Y560583D01*
X764295Y560484D01*
X764242Y560388D01*
X764185Y560293D01*
X764124Y560200D01*
X764061Y560109D01*
X763994Y560020D01*
X763924Y559934D01*
X763851Y559851D01*
X763776Y559769D01*
X763698Y559691D01*
X763616Y559616D01*
X763533Y559543D01*
X763447Y559473D01*
X763358Y559406D01*
X763267Y559343D01*
X763174Y559282D01*
X763080Y559225D01*
X762983Y559172D01*
X762884Y559121D01*
X762783Y559074D01*
X762681Y559031D01*
X762578Y558991D01*
X762473Y558955D01*
X762367Y558923D01*
X762260Y558894D01*
X762152Y558869D01*
X762043Y558848D01*
X761934Y558831D01*
X761824Y558817D01*
X761713Y558808D01*
X761603Y558802D01*
X761492Y558800D01*
X760984Y558800D01*
X760873Y558802D01*
X760763Y558808D01*
X760652Y558817D01*
X760542Y558831D01*
X760433Y558848D01*
X760324Y558869D01*
X760216Y558894D01*
X760109Y558923D01*
X760003Y558955D01*
X759898Y558991D01*
X759795Y559031D01*
X759693Y559074D01*
X759592Y559121D01*
X759493Y559172D01*
X759397Y559225D01*
X759302Y559282D01*
X759209Y559343D01*
X759118Y559406D01*
X759029Y559473D01*
X758943Y559543D01*
X758860Y559616D01*
X758778Y559691D01*
X758700Y559769D01*
X758625Y559851D01*
X758552Y559934D01*
X758482Y560020D01*
X758415Y560109D01*
X758352Y560200D01*
X758291Y560293D01*
X758234Y560388D01*
X758181Y560484D01*
X758130Y560583D01*
X758083Y560684D01*
X758040Y560786D01*
X758000Y560889D01*
X757964Y560994D01*
X757932Y561100D01*
X757903Y561207D01*
X757878Y561315D01*
X757857Y561424D01*
X757840Y561533D01*
X757826Y561643D01*
X757817Y561754D01*
X757811Y561864D01*
X757809Y561975D01*
X757809Y568325D01*
X757807Y568436D01*
X757801Y568546D01*
X757792Y568657D01*
X757778Y568767D01*
X757761Y568876D01*
X757740Y568985D01*
X757715Y569093D01*
X757686Y569200D01*
X757654Y569306D01*
X757618Y569411D01*
X757578Y569514D01*
X757535Y569616D01*
X757488Y569717D01*
X757437Y569816D01*
X757384Y569913D01*
X757327Y570007D01*
X757266Y570100D01*
X757203Y570191D01*
X757136Y570280D01*
X757066Y570366D01*
X756993Y570449D01*
X756918Y570531D01*
X756840Y570609D01*
X756758Y570684D01*
X756675Y570757D01*
X756589Y570827D01*
X756500Y570894D01*
X756409Y570957D01*
X756316Y571018D01*
X756222Y571075D01*
X756125Y571128D01*
X756026Y571179D01*
X755925Y571226D01*
X755823Y571269D01*
X755720Y571309D01*
X755615Y571345D01*
X755509Y571377D01*
X755402Y571406D01*
X755294Y571431D01*
X755185Y571452D01*
X755076Y571469D01*
X754966Y571483D01*
X754855Y571492D01*
X754745Y571498D01*
X754634Y571500D01*
X754126Y571500D01*
X754015Y571498D01*
X753905Y571492D01*
X753794Y571483D01*
X753684Y571469D01*
X753575Y571452D01*
X753466Y571431D01*
X753358Y571406D01*
X753251Y571377D01*
X753145Y571345D01*
X753040Y571309D01*
X752937Y571269D01*
X752835Y571226D01*
X752734Y571179D01*
X752635Y571128D01*
X752539Y571075D01*
X752444Y571018D01*
X752351Y570957D01*
X752260Y570894D01*
X752171Y570827D01*
X752085Y570757D01*
X752002Y570684D01*
X751920Y570609D01*
X751842Y570531D01*
X751767Y570449D01*
X751694Y570366D01*
X751624Y570280D01*
X751557Y570191D01*
X751494Y570100D01*
X751433Y570007D01*
X751376Y569913D01*
X751323Y569816D01*
X751272Y569717D01*
X751225Y569616D01*
X751182Y569514D01*
X751142Y569411D01*
X751106Y569306D01*
X751074Y569200D01*
X751045Y569093D01*
X751020Y568985D01*
X750999Y568876D01*
X750982Y568767D01*
X750968Y568657D01*
X750959Y568546D01*
X750953Y568436D01*
X750951Y568325D01*
X750951Y561975D01*
X750949Y561864D01*
X750943Y561754D01*
X750934Y561643D01*
X750920Y561533D01*
X750903Y561424D01*
X750882Y561315D01*
X750857Y561207D01*
X750828Y561100D01*
X750796Y560994D01*
X750760Y560889D01*
X750720Y560786D01*
X750677Y560684D01*
X750630Y560583D01*
X750579Y560484D01*
X750526Y560388D01*
X750469Y560293D01*
X750408Y560200D01*
X750345Y560109D01*
X750278Y560020D01*
X750208Y559934D01*
X750135Y559851D01*
X750060Y559769D01*
X749982Y559691D01*
X749900Y559616D01*
X749817Y559543D01*
X749731Y559473D01*
X749642Y559406D01*
X749551Y559343D01*
X749458Y559282D01*
X749364Y559225D01*
X749267Y559172D01*
X749168Y559121D01*
X749067Y559074D01*
X748965Y559031D01*
X748862Y558991D01*
X748757Y558955D01*
X748651Y558923D01*
X748544Y558894D01*
X748436Y558869D01*
X748327Y558848D01*
X748218Y558831D01*
X748108Y558817D01*
X747997Y558808D01*
X747887Y558802D01*
X747776Y558800D01*
X747268Y558800D01*
X747157Y558802D01*
X747047Y558808D01*
X746936Y558817D01*
X746826Y558831D01*
X746717Y558848D01*
X746608Y558869D01*
X746500Y558894D01*
X746393Y558923D01*
X746287Y558955D01*
X746182Y558991D01*
X746079Y559031D01*
X745977Y559074D01*
X745876Y559121D01*
X745777Y559172D01*
X745681Y559225D01*
X745586Y559282D01*
X745493Y559343D01*
X745402Y559406D01*
X745313Y559473D01*
X745227Y559543D01*
X745144Y559616D01*
X745062Y559691D01*
X744984Y559769D01*
X744909Y559851D01*
X744836Y559934D01*
X744766Y560020D01*
X744699Y560109D01*
X744636Y560200D01*
X744575Y560293D01*
X744518Y560388D01*
X744465Y560484D01*
X744414Y560583D01*
X744367Y560684D01*
X744324Y560786D01*
X744284Y560889D01*
X744248Y560994D01*
X744216Y561100D01*
X744187Y561207D01*
X744162Y561315D01*
X744141Y561424D01*
X744124Y561533D01*
X744110Y561643D01*
X744101Y561754D01*
X744095Y561864D01*
X744093Y561975D01*
X744093Y568325D01*
X744091Y568436D01*
X744085Y568546D01*
X744076Y568657D01*
X744062Y568767D01*
X744045Y568876D01*
X744024Y568985D01*
X743999Y569093D01*
X743970Y569200D01*
X743938Y569306D01*
X743902Y569411D01*
X743862Y569514D01*
X743819Y569616D01*
X743772Y569717D01*
X743721Y569816D01*
X743668Y569913D01*
X743611Y570007D01*
X743550Y570100D01*
X743487Y570191D01*
X743420Y570280D01*
X743350Y570366D01*
X743277Y570449D01*
X743202Y570531D01*
X743124Y570609D01*
X743042Y570684D01*
X742959Y570757D01*
X742873Y570827D01*
X742784Y570894D01*
X742693Y570957D01*
X742600Y571018D01*
X742506Y571075D01*
X742409Y571128D01*
X742310Y571179D01*
X742209Y571226D01*
X742107Y571269D01*
X742004Y571309D01*
X741899Y571345D01*
X741793Y571377D01*
X741686Y571406D01*
X741578Y571431D01*
X741469Y571452D01*
X741360Y571469D01*
X741250Y571483D01*
X741139Y571492D01*
X741029Y571498D01*
X740918Y571500D01*
X740410Y571500D01*
X740299Y571498D01*
X740189Y571492D01*
X740078Y571483D01*
X739968Y571469D01*
X739859Y571452D01*
X739750Y571431D01*
X739642Y571406D01*
X739535Y571377D01*
X739429Y571345D01*
X739324Y571309D01*
X739221Y571269D01*
X739119Y571226D01*
X739018Y571179D01*
X738919Y571128D01*
X738823Y571075D01*
X738728Y571018D01*
X738635Y570957D01*
X738544Y570894D01*
X738455Y570827D01*
X738369Y570757D01*
X738286Y570684D01*
X738204Y570609D01*
X738126Y570531D01*
X738051Y570449D01*
X737978Y570366D01*
X737908Y570280D01*
X737841Y570191D01*
X737778Y570100D01*
X737717Y570007D01*
X737660Y569913D01*
X737607Y569816D01*
X737556Y569717D01*
X737509Y569616D01*
X737466Y569514D01*
X737426Y569411D01*
X737390Y569306D01*
X737358Y569200D01*
X737329Y569093D01*
X737304Y568985D01*
X737283Y568876D01*
X737266Y568767D01*
X737252Y568657D01*
X737243Y568546D01*
X737237Y568436D01*
X737235Y568325D01*
X737235Y561975D01*
X737233Y561864D01*
X737227Y561754D01*
X737218Y561643D01*
X737204Y561533D01*
X737187Y561424D01*
X737166Y561315D01*
X737141Y561207D01*
X737112Y561100D01*
X737080Y560994D01*
X737044Y560889D01*
X737004Y560786D01*
X736961Y560684D01*
X736914Y560583D01*
X736863Y560484D01*
X736810Y560388D01*
X736753Y560293D01*
X736692Y560200D01*
X736629Y560109D01*
X736562Y560020D01*
X736492Y559934D01*
X736419Y559851D01*
X736344Y559769D01*
X736266Y559691D01*
X736184Y559616D01*
X736101Y559543D01*
X736015Y559473D01*
X735926Y559406D01*
X735835Y559343D01*
X735742Y559282D01*
X735648Y559225D01*
X735551Y559172D01*
X735452Y559121D01*
X735351Y559074D01*
X735249Y559031D01*
X735146Y558991D01*
X735041Y558955D01*
X734935Y558923D01*
X734828Y558894D01*
X734720Y558869D01*
X734611Y558848D01*
X734502Y558831D01*
X734392Y558817D01*
X734281Y558808D01*
X734171Y558802D01*
X734060Y558800D01*
X730250Y554990D02*
X730250Y515620D01*
X726948Y512318D01*
X424438Y537718D02*
X413766Y537718D01*
X424438Y537718D02*
X434852Y548132D01*
X706120Y544830D02*
X706120Y486410D01*
X723900Y468630D01*
X723900Y445770D01*
X706120Y544830D02*
X702818Y548132D01*
X434852Y548132D01*
X108204Y593090D02*
X97790Y593090D01*
X96520Y593090D01*
X92710Y596900D01*
X92710Y621910D01*
X93100Y622300D01*
X97790Y593090D02*
X88900Y584200D01*
D30*
X88900Y584200D03*
D29*
X279400Y624600D02*
X280670Y624600D01*
X304800Y624600D01*
X330200Y624600D01*
X30480Y428380D02*
X21200Y419100D01*
X30480Y428380D02*
X30480Y444500D01*
X30480Y472440D01*
X81280Y428380D02*
X72000Y419100D01*
X81280Y428380D02*
X81280Y444500D01*
X81280Y472440D01*
X132080Y428380D02*
X122800Y419100D01*
X132080Y428380D02*
X132080Y444500D01*
X132080Y472440D01*
X182880Y428380D02*
X173600Y419100D01*
X182880Y428380D02*
X182880Y444500D01*
X182880Y472440D01*
X81280Y444500D02*
X30480Y444500D01*
X81280Y444500D02*
X132080Y444500D01*
X182880Y444500D01*
D30*
X279400Y640080D03*
D29*
X279400Y625870D01*
X280670Y624600D01*
X633730Y417830D02*
X673100Y417830D01*
X633730Y417830D02*
X596900Y381000D01*
X596900Y368300D01*
X584200Y355600D01*
X469900Y355600D01*
X457200Y368300D01*
X457200Y381000D01*
X421640Y416560D01*
X307340Y416560D01*
X304800Y419100D01*
X304800Y494400D02*
X286900Y512300D01*
X304800Y494400D02*
X304800Y419100D01*
X72000Y419100D02*
X72000Y414900D01*
X49530Y392430D02*
X49530Y369570D01*
X49530Y392430D02*
X72000Y414900D01*
D34*
X501650Y234950D02*
X501650Y223266D01*
X525780Y259080D02*
X572770Y259080D01*
X605790Y292100D02*
X609600Y292100D01*
X605790Y292100D02*
X572770Y259080D01*
D30*
X609600Y292100D03*
D34*
X525780Y259080D02*
X501650Y234950D01*
D29*
X693450Y433578D02*
X686308Y440720D01*
X693450Y433578D02*
X758952Y433578D01*
X693420Y462280D02*
X686308Y455168D01*
X693420Y462280D02*
X693420Y463035D01*
X693422Y463146D01*
X693428Y463256D01*
X693437Y463367D01*
X693451Y463477D01*
X693468Y463586D01*
X693489Y463695D01*
X693514Y463803D01*
X693543Y463910D01*
X693575Y464016D01*
X693611Y464121D01*
X693651Y464224D01*
X693694Y464326D01*
X693741Y464427D01*
X693792Y464526D01*
X693845Y464623D01*
X693902Y464717D01*
X693963Y464810D01*
X694026Y464901D01*
X694093Y464990D01*
X694163Y465076D01*
X694236Y465159D01*
X694311Y465241D01*
X694389Y465319D01*
X694471Y465394D01*
X694554Y465467D01*
X694640Y465537D01*
X694729Y465604D01*
X694820Y465667D01*
X694913Y465728D01*
X695008Y465785D01*
X695104Y465838D01*
X695203Y465889D01*
X695304Y465936D01*
X695406Y465979D01*
X695509Y466019D01*
X695614Y466055D01*
X695720Y466087D01*
X695827Y466116D01*
X695935Y466141D01*
X696044Y466162D01*
X696153Y466179D01*
X696263Y466193D01*
X696374Y466202D01*
X696484Y466208D01*
X696595Y466210D01*
X697628Y466210D01*
X697739Y466212D01*
X697849Y466218D01*
X697960Y466227D01*
X698070Y466241D01*
X698179Y466258D01*
X698288Y466279D01*
X698396Y466304D01*
X698503Y466333D01*
X698609Y466365D01*
X698714Y466401D01*
X698817Y466441D01*
X698919Y466484D01*
X699020Y466531D01*
X699119Y466582D01*
X699216Y466635D01*
X699310Y466692D01*
X699403Y466753D01*
X699494Y466816D01*
X699583Y466883D01*
X699669Y466953D01*
X699752Y467026D01*
X699834Y467101D01*
X699912Y467179D01*
X699987Y467261D01*
X700060Y467344D01*
X700130Y467430D01*
X700197Y467519D01*
X700260Y467610D01*
X700321Y467703D01*
X700378Y467797D01*
X700431Y467894D01*
X700482Y467993D01*
X700529Y468094D01*
X700572Y468196D01*
X700612Y468299D01*
X700648Y468404D01*
X700680Y468510D01*
X700709Y468617D01*
X700734Y468725D01*
X700755Y468834D01*
X700772Y468943D01*
X700786Y469053D01*
X700795Y469164D01*
X700801Y469274D01*
X700803Y469385D01*
X700803Y470758D01*
X700801Y470869D01*
X700795Y470979D01*
X700786Y471090D01*
X700772Y471200D01*
X700755Y471309D01*
X700734Y471418D01*
X700709Y471526D01*
X700680Y471633D01*
X700648Y471739D01*
X700612Y471844D01*
X700572Y471947D01*
X700529Y472049D01*
X700482Y472150D01*
X700431Y472249D01*
X700378Y472346D01*
X700321Y472440D01*
X700260Y472533D01*
X700197Y472624D01*
X700130Y472713D01*
X700060Y472799D01*
X699987Y472882D01*
X699912Y472964D01*
X699834Y473042D01*
X699752Y473117D01*
X699669Y473190D01*
X699583Y473260D01*
X699494Y473327D01*
X699403Y473390D01*
X699310Y473451D01*
X699216Y473508D01*
X699119Y473561D01*
X699020Y473612D01*
X698919Y473659D01*
X698817Y473702D01*
X698714Y473742D01*
X698609Y473778D01*
X698503Y473810D01*
X698396Y473839D01*
X698288Y473864D01*
X698179Y473885D01*
X698070Y473902D01*
X697960Y473916D01*
X697849Y473925D01*
X697739Y473931D01*
X697628Y473933D01*
X689212Y473933D01*
X689101Y473935D01*
X688991Y473941D01*
X688880Y473950D01*
X688770Y473964D01*
X688661Y473981D01*
X688552Y474002D01*
X688444Y474027D01*
X688337Y474056D01*
X688231Y474088D01*
X688126Y474124D01*
X688023Y474164D01*
X687921Y474207D01*
X687820Y474254D01*
X687721Y474305D01*
X687625Y474358D01*
X687530Y474415D01*
X687437Y474476D01*
X687346Y474539D01*
X687257Y474606D01*
X687171Y474676D01*
X687088Y474749D01*
X687006Y474824D01*
X686928Y474902D01*
X686853Y474984D01*
X686780Y475067D01*
X686710Y475153D01*
X686643Y475242D01*
X686580Y475333D01*
X686519Y475426D01*
X686462Y475521D01*
X686409Y475617D01*
X686358Y475716D01*
X686311Y475817D01*
X686268Y475919D01*
X686228Y476022D01*
X686192Y476127D01*
X686160Y476233D01*
X686131Y476340D01*
X686106Y476448D01*
X686085Y476557D01*
X686068Y476666D01*
X686054Y476776D01*
X686045Y476887D01*
X686039Y476997D01*
X686037Y477108D01*
X686037Y478481D01*
X686039Y478592D01*
X686045Y478702D01*
X686054Y478813D01*
X686068Y478923D01*
X686085Y479032D01*
X686106Y479141D01*
X686131Y479249D01*
X686160Y479356D01*
X686192Y479462D01*
X686228Y479567D01*
X686268Y479670D01*
X686311Y479772D01*
X686358Y479873D01*
X686409Y479972D01*
X686462Y480069D01*
X686519Y480163D01*
X686580Y480256D01*
X686643Y480347D01*
X686710Y480436D01*
X686780Y480522D01*
X686853Y480605D01*
X686928Y480687D01*
X687006Y480765D01*
X687088Y480840D01*
X687171Y480913D01*
X687257Y480983D01*
X687346Y481050D01*
X687437Y481113D01*
X687530Y481174D01*
X687625Y481231D01*
X687721Y481284D01*
X687820Y481335D01*
X687921Y481382D01*
X688023Y481425D01*
X688126Y481465D01*
X688231Y481501D01*
X688337Y481533D01*
X688444Y481562D01*
X688552Y481587D01*
X688661Y481608D01*
X688770Y481625D01*
X688880Y481639D01*
X688991Y481648D01*
X689101Y481654D01*
X689212Y481656D01*
X697628Y481656D01*
X697739Y481658D01*
X697849Y481664D01*
X697960Y481673D01*
X698070Y481687D01*
X698179Y481704D01*
X698288Y481725D01*
X698396Y481750D01*
X698503Y481779D01*
X698609Y481811D01*
X698714Y481847D01*
X698817Y481887D01*
X698919Y481930D01*
X699020Y481977D01*
X699119Y482028D01*
X699216Y482081D01*
X699310Y482138D01*
X699403Y482199D01*
X699494Y482262D01*
X699583Y482329D01*
X699669Y482399D01*
X699752Y482472D01*
X699834Y482547D01*
X699912Y482625D01*
X699987Y482707D01*
X700060Y482790D01*
X700130Y482876D01*
X700197Y482965D01*
X700260Y483056D01*
X700321Y483149D01*
X700378Y483243D01*
X700431Y483340D01*
X700482Y483439D01*
X700529Y483540D01*
X700572Y483642D01*
X700612Y483745D01*
X700648Y483850D01*
X700680Y483956D01*
X700709Y484063D01*
X700734Y484171D01*
X700755Y484280D01*
X700772Y484389D01*
X700786Y484499D01*
X700795Y484610D01*
X700801Y484720D01*
X700803Y484831D01*
X700803Y486204D01*
X700801Y486315D01*
X700795Y486425D01*
X700786Y486536D01*
X700772Y486646D01*
X700755Y486755D01*
X700734Y486864D01*
X700709Y486972D01*
X700680Y487079D01*
X700648Y487185D01*
X700612Y487290D01*
X700572Y487393D01*
X700529Y487495D01*
X700482Y487596D01*
X700431Y487695D01*
X700378Y487792D01*
X700321Y487886D01*
X700260Y487979D01*
X700197Y488070D01*
X700130Y488159D01*
X700060Y488245D01*
X699987Y488328D01*
X699912Y488410D01*
X699834Y488488D01*
X699752Y488563D01*
X699669Y488636D01*
X699583Y488706D01*
X699494Y488773D01*
X699403Y488836D01*
X699310Y488897D01*
X699216Y488954D01*
X699119Y489007D01*
X699020Y489058D01*
X698919Y489105D01*
X698817Y489148D01*
X698714Y489188D01*
X698609Y489224D01*
X698503Y489256D01*
X698396Y489285D01*
X698288Y489310D01*
X698179Y489331D01*
X698070Y489348D01*
X697960Y489362D01*
X697849Y489371D01*
X697739Y489377D01*
X697628Y489379D01*
X689212Y489379D01*
X689101Y489381D01*
X688991Y489387D01*
X688880Y489396D01*
X688770Y489410D01*
X688661Y489427D01*
X688552Y489448D01*
X688444Y489473D01*
X688337Y489502D01*
X688231Y489534D01*
X688126Y489570D01*
X688023Y489610D01*
X687921Y489653D01*
X687820Y489700D01*
X687721Y489751D01*
X687625Y489804D01*
X687530Y489861D01*
X687437Y489922D01*
X687346Y489985D01*
X687257Y490052D01*
X687171Y490122D01*
X687088Y490195D01*
X687006Y490270D01*
X686928Y490348D01*
X686853Y490430D01*
X686780Y490513D01*
X686710Y490599D01*
X686643Y490688D01*
X686580Y490779D01*
X686519Y490872D01*
X686462Y490967D01*
X686409Y491063D01*
X686358Y491162D01*
X686311Y491263D01*
X686268Y491365D01*
X686228Y491468D01*
X686192Y491573D01*
X686160Y491679D01*
X686131Y491786D01*
X686106Y491894D01*
X686085Y492003D01*
X686068Y492112D01*
X686054Y492222D01*
X686045Y492333D01*
X686039Y492443D01*
X686037Y492554D01*
X686037Y493927D01*
X686039Y494038D01*
X686045Y494148D01*
X686054Y494259D01*
X686068Y494369D01*
X686085Y494478D01*
X686106Y494587D01*
X686131Y494695D01*
X686160Y494802D01*
X686192Y494908D01*
X686228Y495013D01*
X686268Y495116D01*
X686311Y495218D01*
X686358Y495319D01*
X686409Y495418D01*
X686462Y495515D01*
X686519Y495609D01*
X686580Y495702D01*
X686643Y495793D01*
X686710Y495882D01*
X686780Y495968D01*
X686853Y496051D01*
X686928Y496133D01*
X687006Y496211D01*
X687088Y496286D01*
X687171Y496359D01*
X687257Y496429D01*
X687346Y496496D01*
X687437Y496559D01*
X687530Y496620D01*
X687625Y496677D01*
X687721Y496730D01*
X687820Y496781D01*
X687921Y496828D01*
X688023Y496871D01*
X688126Y496911D01*
X688231Y496947D01*
X688337Y496979D01*
X688444Y497008D01*
X688552Y497033D01*
X688661Y497054D01*
X688770Y497071D01*
X688880Y497085D01*
X688991Y497094D01*
X689101Y497100D01*
X689212Y497102D01*
X697628Y497102D01*
X697739Y497104D01*
X697849Y497110D01*
X697960Y497119D01*
X698070Y497133D01*
X698179Y497150D01*
X698288Y497171D01*
X698396Y497196D01*
X698503Y497225D01*
X698609Y497257D01*
X698714Y497293D01*
X698817Y497333D01*
X698919Y497376D01*
X699020Y497423D01*
X699119Y497474D01*
X699216Y497527D01*
X699310Y497584D01*
X699403Y497645D01*
X699494Y497708D01*
X699583Y497775D01*
X699669Y497845D01*
X699752Y497918D01*
X699834Y497993D01*
X699912Y498071D01*
X699987Y498153D01*
X700060Y498236D01*
X700130Y498322D01*
X700197Y498411D01*
X700260Y498502D01*
X700321Y498595D01*
X700378Y498689D01*
X700431Y498786D01*
X700482Y498885D01*
X700529Y498986D01*
X700572Y499088D01*
X700612Y499191D01*
X700648Y499296D01*
X700680Y499402D01*
X700709Y499509D01*
X700734Y499617D01*
X700755Y499726D01*
X700772Y499835D01*
X700786Y499945D01*
X700795Y500056D01*
X700801Y500166D01*
X700803Y500277D01*
X700803Y501650D01*
X700801Y501761D01*
X700795Y501871D01*
X700786Y501982D01*
X700772Y502092D01*
X700755Y502201D01*
X700734Y502310D01*
X700709Y502418D01*
X700680Y502525D01*
X700648Y502631D01*
X700612Y502736D01*
X700572Y502839D01*
X700529Y502941D01*
X700482Y503042D01*
X700431Y503141D01*
X700378Y503238D01*
X700321Y503332D01*
X700260Y503425D01*
X700197Y503516D01*
X700130Y503605D01*
X700060Y503691D01*
X699987Y503774D01*
X699912Y503856D01*
X699834Y503934D01*
X699752Y504009D01*
X699669Y504082D01*
X699583Y504152D01*
X699494Y504219D01*
X699403Y504282D01*
X699310Y504343D01*
X699216Y504400D01*
X699119Y504453D01*
X699020Y504504D01*
X698919Y504551D01*
X698817Y504594D01*
X698714Y504634D01*
X698609Y504670D01*
X698503Y504702D01*
X698396Y504731D01*
X698288Y504756D01*
X698179Y504777D01*
X698070Y504794D01*
X697960Y504808D01*
X697849Y504817D01*
X697739Y504823D01*
X697628Y504825D01*
X696595Y504825D01*
X696484Y504827D01*
X696374Y504833D01*
X696263Y504842D01*
X696153Y504856D01*
X696044Y504873D01*
X695935Y504894D01*
X695827Y504919D01*
X695720Y504948D01*
X695614Y504980D01*
X695509Y505016D01*
X695406Y505056D01*
X695304Y505099D01*
X695203Y505146D01*
X695104Y505197D01*
X695008Y505250D01*
X694913Y505307D01*
X694820Y505368D01*
X694729Y505431D01*
X694640Y505498D01*
X694554Y505568D01*
X694471Y505641D01*
X694389Y505716D01*
X694311Y505794D01*
X694236Y505876D01*
X694163Y505959D01*
X694093Y506045D01*
X694026Y506134D01*
X693963Y506225D01*
X693902Y506318D01*
X693845Y506413D01*
X693792Y506509D01*
X693741Y506608D01*
X693694Y506709D01*
X693651Y506811D01*
X693611Y506914D01*
X693575Y507019D01*
X693543Y507125D01*
X693514Y507232D01*
X693489Y507340D01*
X693468Y507449D01*
X693451Y507558D01*
X693437Y507668D01*
X693428Y507779D01*
X693422Y507889D01*
X693420Y508000D01*
X693420Y512064D01*
X693166Y512318D01*
X758952Y433578D02*
X774700Y417830D01*
X686308Y440720D02*
X686308Y455168D01*
D34*
X571500Y330200D02*
X571500Y320040D01*
X694690Y316230D02*
X711200Y299720D01*
X711200Y284480D01*
X705104Y284480D01*
X704850Y284734D01*
X575310Y316230D02*
X571500Y320040D01*
X575310Y316230D02*
X694690Y316230D01*
X711200Y284480D02*
X717296Y284480D01*
X717550Y284734D01*
X558800Y317500D02*
X558800Y330200D01*
X558800Y317500D02*
X563372Y312928D01*
X671322Y312928D02*
X685800Y298450D01*
X685800Y284480D01*
X679704Y284480D01*
X679450Y284734D01*
X671322Y312928D02*
X563372Y312928D01*
X685800Y284480D02*
X691896Y284480D01*
X692150Y284734D01*
X660400Y300990D02*
X651510Y309880D01*
X660400Y300990D02*
X660400Y284480D01*
X654304Y284480D01*
X654050Y284734D01*
X546100Y313690D02*
X546100Y330200D01*
X546100Y313690D02*
X549910Y309880D01*
X651510Y309880D01*
X660400Y284480D02*
X666496Y284480D01*
X666750Y284734D01*
X536702Y306578D02*
X533400Y309880D01*
X634492Y306578D02*
X641350Y299720D01*
X641350Y284734D01*
X533400Y309880D02*
X533400Y330200D01*
X536702Y306578D02*
X634492Y306578D01*
D29*
X717550Y223266D02*
X717550Y215900D01*
X723900Y209550D01*
X800100Y209550D01*
X830580Y179070D02*
X830580Y163830D01*
X830580Y179070D02*
X800100Y209550D01*
X704850Y209550D02*
X704850Y223266D01*
X765810Y203200D02*
X805180Y163830D01*
X711200Y203200D02*
X704850Y209550D01*
X711200Y203200D02*
X765810Y203200D01*
X692150Y210820D02*
X692150Y223266D01*
X746760Y196850D02*
X779780Y163830D01*
X706120Y196850D02*
X692150Y210820D01*
X706120Y196850D02*
X746760Y196850D01*
X679450Y209550D02*
X679450Y223266D01*
X679450Y209550D02*
X689610Y199390D01*
X694690Y199390D01*
X702310Y191770D01*
X726440Y191770D02*
X754380Y163830D01*
X726440Y191770D02*
X702310Y191770D01*
X666750Y208280D02*
X666750Y223266D01*
X681990Y193040D02*
X689610Y193040D01*
X697230Y185420D01*
X707390Y185420D02*
X728980Y163830D01*
X681990Y193040D02*
X666750Y208280D01*
X697230Y185420D02*
X707390Y185420D01*
X654050Y209550D02*
X654050Y223266D01*
X703580Y166370D02*
X703580Y163830D01*
X678180Y185420D02*
X654050Y209550D01*
X678180Y185420D02*
X684530Y185420D01*
X703580Y166370D01*
X641350Y209550D02*
X641350Y223266D01*
X678180Y172720D02*
X678180Y163830D01*
X678180Y172720D02*
X641350Y209550D01*
X577850Y209550D02*
X577850Y223266D01*
X577850Y209550D02*
X571500Y203200D01*
D30*
X571500Y203200D03*
D29*
X565150Y209550D02*
X520700Y165100D01*
X565150Y209550D02*
X565150Y223266D01*
X539750Y223266D02*
X539750Y209550D01*
X533400Y203200D01*
X469900Y203200D01*
X457200Y190500D01*
X457200Y149860D01*
X448310Y140970D01*
X448310Y139700D01*
D30*
X448310Y139700D03*
X279400Y63500D03*
D29*
X266700Y63500D01*
X254000Y76200D01*
X191770Y76200D01*
X184150Y83820D01*
X184150Y123190D01*
X565150Y284734D02*
X565404Y284480D01*
X577596Y284480D02*
X577850Y284734D01*
D34*
X520700Y309880D02*
X520700Y330200D01*
X527050Y303530D02*
X565150Y303530D01*
X571500Y297180D01*
X571500Y284480D02*
X565404Y284480D01*
X527050Y303530D02*
X520700Y309880D01*
X571500Y297180D02*
X571500Y284480D01*
X577596Y284480D01*
D29*
X552450Y284734D02*
X551180Y286004D01*
D34*
X514350Y299720D02*
X508000Y306070D01*
X514350Y299720D02*
X547370Y299720D01*
X552450Y294640D01*
X551180Y293370D01*
X551180Y286004D01*
X508000Y306070D02*
X508000Y330200D01*
D30*
X539750Y266700D03*
D34*
X539750Y284734D01*
D30*
X501650Y302260D03*
D29*
X501650Y284734D01*
X680720Y495300D02*
X680720Y524764D01*
X667766Y537718D01*
X744220Y417830D02*
X749300Y417830D01*
X744220Y417830D02*
X728980Y402590D01*
X692150Y402590D01*
X685800Y408940D01*
X685800Y429260D01*
X681990Y433070D01*
X665480Y433070D01*
X655320Y443230D01*
X655320Y469900D02*
X680720Y495300D01*
X655320Y469900D02*
X655320Y443230D01*
X457200Y444500D02*
X457200Y419100D01*
X469900Y406400D01*
X533400Y406400D02*
X546100Y393700D01*
X546100Y378206D01*
X533400Y406400D02*
X469900Y406400D01*
X584200Y394970D02*
X604520Y415290D01*
X584200Y394970D02*
X584200Y378206D01*
X604520Y525272D02*
X616966Y537718D01*
X604520Y525272D02*
X604520Y415290D01*
X571500Y378206D02*
X571500Y482600D01*
X580390Y491490D01*
X580390Y496570D01*
D30*
X580390Y496570D03*
D29*
X558800Y393700D02*
X558800Y378206D01*
X558800Y393700D02*
X533400Y419100D01*
X477520Y419100D02*
X469900Y426720D01*
X469900Y487680D01*
X477520Y525272D02*
X489966Y537718D01*
X477520Y419100D02*
X533400Y419100D01*
X469900Y487680D02*
X477520Y495300D01*
X477520Y525272D01*
X495300Y402336D02*
X501156Y402336D01*
X495300Y402336D02*
X468217Y402336D01*
X444500Y426053D01*
X452120Y502920D02*
X452120Y524510D01*
X464566Y536956D01*
X464566Y537718D01*
X444500Y495300D02*
X444500Y426053D01*
X444500Y495300D02*
X452120Y502920D01*
X501156Y402336D02*
X512064Y402336D01*
X520700Y393700D01*
X520700Y378206D01*
X552450Y223266D02*
X552450Y209550D01*
X533400Y190500D02*
X508000Y190500D01*
X495300Y177800D01*
X495300Y165100D01*
X533400Y190500D02*
X552450Y209550D01*
X64516Y566434D02*
X64516Y583184D01*
X64516Y566434D02*
X73660Y557290D01*
X50800Y557290D01*
X48260Y557290D01*
X28090Y557290D02*
X25400Y554600D01*
X28090Y557290D02*
X48260Y557290D01*
X108204Y566434D02*
X108204Y583184D01*
X108204Y566434D02*
X99060Y557290D01*
X124460Y557290D01*
X125880Y555870D02*
X148590Y555870D01*
X125880Y555870D02*
X124460Y557290D01*
X162560Y603490D02*
X162560Y608090D01*
X162560Y603490D02*
X137160Y578090D01*
X127240Y588010D02*
X108204Y588010D01*
X127240Y588010D02*
X137160Y578090D01*
X164070Y609600D02*
X182000Y609600D01*
X164070Y609600D02*
X162560Y608090D01*
X330200Y594600D02*
X330715Y595115D01*
X56882Y598170D02*
X50800Y604252D01*
X50800Y622300D01*
X56882Y598170D02*
X64516Y598170D01*
X433483Y423164D02*
X461264Y395383D01*
X461264Y382683D01*
X481997Y361950D02*
X532130Y361950D01*
X533400Y363220D01*
X533400Y378206D01*
X481997Y361950D02*
X461264Y382683D01*
X113440Y640080D02*
X113214Y640306D01*
X68806Y640306D01*
X50800Y622300D01*
X113440Y640080D02*
X216567Y640080D01*
X242983Y613664D01*
X312166Y613664D02*
X330715Y595115D01*
X312166Y613664D02*
X242983Y613664D01*
X330200Y594600D02*
X330200Y577850D01*
D30*
X330200Y577850D03*
X350520Y524510D03*
D29*
X350520Y499110D01*
X330200Y427990D02*
X335026Y423164D01*
X330200Y427990D02*
X330200Y478790D01*
X350520Y499110D01*
X335026Y423164D02*
X433483Y423164D01*
D32*
X6350Y199390D02*
X2329Y203411D01*
X2329Y278380D01*
X57150Y96559D02*
X103929Y49780D01*
X57150Y96559D02*
X57150Y123190D01*
X103929Y265219D02*
X103929Y278380D01*
X103929Y265219D02*
X66040Y227330D01*
X53340Y227330D01*
X27940Y201930D01*
X27940Y144780D02*
X6350Y123190D01*
X27940Y144780D02*
X27940Y201930D01*
D29*
X703100Y622300D02*
X715800Y635000D01*
X749300Y635000D02*
X762000Y622300D01*
X762000Y609600D01*
X749300Y635000D02*
X715800Y635000D01*
X736600Y609600D02*
X723900Y596900D01*
X703100Y596900D01*
X64516Y588010D02*
X45480Y588010D01*
X35560Y578090D01*
X35560Y582690D02*
X10160Y608090D01*
X35560Y582690D02*
X35560Y578090D01*
X10160Y608090D02*
X4200Y614050D01*
X4200Y635000D01*
X157480Y500380D02*
X157480Y472440D01*
X157480Y500380D02*
X165100Y508000D01*
X165100Y575550D01*
X162560Y578090D01*
X124460Y527290D02*
X124460Y516890D01*
X106680Y499110D01*
X106680Y472440D01*
X48260Y480060D02*
X48260Y527290D01*
X48260Y480060D02*
X55880Y472440D01*
X10160Y477520D02*
X10160Y578090D01*
X10160Y477520D02*
X5080Y472440D01*
X388366Y22282D02*
X378784Y12700D01*
X317500Y12700D02*
X304800Y25400D01*
X304800Y38100D01*
X317500Y12700D02*
X378784Y12700D01*
X374650Y34290D02*
X370840Y38100D01*
X330200Y38100D01*
X374650Y34290D02*
X401758Y34290D01*
X413766Y22282D01*
X388366Y47682D02*
X406400Y65716D01*
X406400Y88900D01*
X431800Y65716D02*
X413766Y47682D01*
X431800Y65716D02*
X431800Y88900D01*
X533400Y494284D02*
X515366Y512318D01*
X533400Y494284D02*
X533400Y444500D01*
X558800Y444500D02*
X558800Y494284D01*
X540766Y512318D01*
X502920Y500380D02*
X482600Y480060D01*
X502920Y500380D02*
X502920Y516890D01*
X510540Y524510D01*
X578358Y524510D02*
X591566Y537718D01*
X482600Y480060D02*
X482600Y444500D01*
X510540Y524510D02*
X578358Y524510D01*
M02*
