G04 EAGLE Gerber RS-274X export*
G75*
%MOMM*%
%FSLAX34Y34*%
%LPD*%
%INSilkscreen Bottom*%
%IPPOS*%
%AMOC8*
5,1,8,0,0,1.08239X$1,22.5*%
G01*
%ADD10C,0.127000*%
%ADD11C,0.076200*%
%ADD12C,0.203200*%


D10*
X203200Y530000D02*
X203200Y30000D01*
X203209Y29275D01*
X203235Y28551D01*
X203279Y27827D01*
X203340Y27105D01*
X203419Y26384D01*
X203515Y25665D01*
X203628Y24949D01*
X203759Y24236D01*
X203907Y23526D01*
X204072Y22821D01*
X204254Y22119D01*
X204453Y21422D01*
X204668Y20729D01*
X204901Y20043D01*
X205150Y19362D01*
X205415Y18687D01*
X205696Y18019D01*
X205994Y17358D01*
X206307Y16704D01*
X206636Y16058D01*
X206981Y15420D01*
X207341Y14791D01*
X207716Y14171D01*
X208106Y13560D01*
X208510Y12958D01*
X208929Y12366D01*
X209363Y11785D01*
X209810Y11214D01*
X210271Y10655D01*
X210745Y10106D01*
X211232Y9570D01*
X211732Y9045D01*
X212245Y8532D01*
X212770Y8032D01*
X213306Y7545D01*
X213855Y7071D01*
X214414Y6610D01*
X214985Y6163D01*
X215566Y5729D01*
X216158Y5310D01*
X216760Y4906D01*
X217371Y4516D01*
X217991Y4141D01*
X218620Y3781D01*
X219258Y3436D01*
X219904Y3107D01*
X220558Y2794D01*
X221219Y2496D01*
X221887Y2215D01*
X222562Y1950D01*
X223243Y1701D01*
X223929Y1468D01*
X224622Y1253D01*
X225319Y1054D01*
X226021Y872D01*
X226726Y707D01*
X227436Y559D01*
X228149Y428D01*
X228865Y315D01*
X229584Y219D01*
X230305Y140D01*
X231027Y79D01*
X231751Y35D01*
X232475Y9D01*
X233200Y0D01*
X1023200Y0D01*
X1023925Y9D01*
X1024649Y35D01*
X1025373Y79D01*
X1026095Y140D01*
X1026816Y219D01*
X1027535Y315D01*
X1028251Y428D01*
X1028964Y559D01*
X1029674Y707D01*
X1030379Y872D01*
X1031081Y1054D01*
X1031778Y1253D01*
X1032471Y1468D01*
X1033157Y1701D01*
X1033838Y1950D01*
X1034513Y2215D01*
X1035181Y2496D01*
X1035842Y2794D01*
X1036496Y3107D01*
X1037142Y3436D01*
X1037780Y3781D01*
X1038409Y4141D01*
X1039029Y4516D01*
X1039640Y4906D01*
X1040242Y5310D01*
X1040834Y5729D01*
X1041415Y6163D01*
X1041986Y6610D01*
X1042545Y7071D01*
X1043094Y7545D01*
X1043630Y8032D01*
X1044155Y8532D01*
X1044668Y9045D01*
X1045168Y9570D01*
X1045655Y10106D01*
X1046129Y10655D01*
X1046590Y11214D01*
X1047037Y11785D01*
X1047471Y12366D01*
X1047890Y12958D01*
X1048294Y13560D01*
X1048684Y14171D01*
X1049059Y14791D01*
X1049419Y15420D01*
X1049764Y16058D01*
X1050093Y16704D01*
X1050406Y17358D01*
X1050704Y18019D01*
X1050985Y18687D01*
X1051250Y19362D01*
X1051499Y20043D01*
X1051732Y20729D01*
X1051947Y21422D01*
X1052146Y22119D01*
X1052328Y22821D01*
X1052493Y23526D01*
X1052641Y24236D01*
X1052772Y24949D01*
X1052885Y25665D01*
X1052981Y26384D01*
X1053060Y27105D01*
X1053121Y27827D01*
X1053165Y28551D01*
X1053191Y29275D01*
X1053200Y30000D01*
X1053200Y530000D01*
X1053191Y530725D01*
X1053165Y531449D01*
X1053121Y532173D01*
X1053060Y532895D01*
X1052981Y533616D01*
X1052885Y534335D01*
X1052772Y535051D01*
X1052641Y535764D01*
X1052493Y536474D01*
X1052328Y537179D01*
X1052146Y537881D01*
X1051947Y538578D01*
X1051732Y539271D01*
X1051499Y539957D01*
X1051250Y540638D01*
X1050985Y541313D01*
X1050704Y541981D01*
X1050406Y542642D01*
X1050093Y543296D01*
X1049764Y543942D01*
X1049419Y544580D01*
X1049059Y545209D01*
X1048684Y545829D01*
X1048294Y546440D01*
X1047890Y547042D01*
X1047471Y547634D01*
X1047037Y548215D01*
X1046590Y548786D01*
X1046129Y549345D01*
X1045655Y549894D01*
X1045168Y550430D01*
X1044668Y550955D01*
X1044155Y551468D01*
X1043630Y551968D01*
X1043094Y552455D01*
X1042545Y552929D01*
X1041986Y553390D01*
X1041415Y553837D01*
X1040834Y554271D01*
X1040242Y554690D01*
X1039640Y555094D01*
X1039029Y555484D01*
X1038409Y555859D01*
X1037780Y556219D01*
X1037142Y556564D01*
X1036496Y556893D01*
X1035842Y557206D01*
X1035181Y557504D01*
X1034513Y557785D01*
X1033838Y558050D01*
X1033157Y558299D01*
X1032471Y558532D01*
X1031778Y558747D01*
X1031081Y558946D01*
X1030379Y559128D01*
X1029674Y559293D01*
X1028964Y559441D01*
X1028251Y559572D01*
X1027535Y559685D01*
X1026816Y559781D01*
X1026095Y559860D01*
X1025373Y559921D01*
X1024649Y559965D01*
X1023925Y559991D01*
X1023200Y560000D01*
X233200Y560000D01*
X232475Y559991D01*
X231751Y559965D01*
X231027Y559921D01*
X230305Y559860D01*
X229584Y559781D01*
X228865Y559685D01*
X228149Y559572D01*
X227436Y559441D01*
X226726Y559293D01*
X226021Y559128D01*
X225319Y558946D01*
X224622Y558747D01*
X223929Y558532D01*
X223243Y558299D01*
X222562Y558050D01*
X221887Y557785D01*
X221219Y557504D01*
X220558Y557206D01*
X219904Y556893D01*
X219258Y556564D01*
X218620Y556219D01*
X217991Y555859D01*
X217371Y555484D01*
X216760Y555094D01*
X216158Y554690D01*
X215566Y554271D01*
X214985Y553837D01*
X214414Y553390D01*
X213855Y552929D01*
X213306Y552455D01*
X212770Y551968D01*
X212245Y551468D01*
X211732Y550955D01*
X211232Y550430D01*
X210745Y549894D01*
X210271Y549345D01*
X209810Y548786D01*
X209363Y548215D01*
X208929Y547634D01*
X208510Y547042D01*
X208106Y546440D01*
X207716Y545829D01*
X207341Y545209D01*
X206981Y544580D01*
X206636Y543942D01*
X206307Y543296D01*
X205994Y542642D01*
X205696Y541981D01*
X205415Y541313D01*
X205150Y540638D01*
X204901Y539957D01*
X204668Y539271D01*
X204453Y538578D01*
X204254Y537881D01*
X204072Y537179D01*
X203907Y536474D01*
X203759Y535764D01*
X203628Y535051D01*
X203515Y534335D01*
X203419Y533616D01*
X203340Y532895D01*
X203279Y532173D01*
X203235Y531449D01*
X203209Y530725D01*
X203200Y530000D01*
X207720Y35000D02*
X207729Y35748D01*
X207757Y36496D01*
X207803Y37242D01*
X207867Y37988D01*
X207949Y38731D01*
X208050Y39472D01*
X208169Y40211D01*
X208306Y40946D01*
X208461Y41678D01*
X208633Y42406D01*
X208824Y43129D01*
X209032Y43848D01*
X209258Y44561D01*
X209502Y45268D01*
X209762Y45970D01*
X210040Y46664D01*
X210335Y47352D01*
X210646Y48032D01*
X210975Y48704D01*
X211319Y49368D01*
X211680Y50024D01*
X212056Y50670D01*
X212449Y51307D01*
X212857Y51934D01*
X213280Y52551D01*
X213718Y53157D01*
X214171Y53752D01*
X214639Y54336D01*
X215120Y54909D01*
X215616Y55469D01*
X216125Y56017D01*
X216647Y56553D01*
X217183Y57075D01*
X217731Y57584D01*
X218291Y58080D01*
X218864Y58561D01*
X219448Y59029D01*
X220043Y59482D01*
X220649Y59920D01*
X221266Y60343D01*
X221893Y60751D01*
X222530Y61144D01*
X223176Y61520D01*
X223832Y61881D01*
X224496Y62225D01*
X225168Y62554D01*
X225848Y62865D01*
X226536Y63160D01*
X227230Y63438D01*
X227932Y63698D01*
X228639Y63942D01*
X229352Y64168D01*
X230071Y64376D01*
X230794Y64567D01*
X231522Y64739D01*
X232254Y64894D01*
X232989Y65031D01*
X233728Y65150D01*
X234469Y65251D01*
X235212Y65333D01*
X235958Y65397D01*
X236704Y65443D01*
X237452Y65471D01*
X238200Y65480D01*
X238948Y65471D01*
X239696Y65443D01*
X240442Y65397D01*
X241188Y65333D01*
X241931Y65251D01*
X242672Y65150D01*
X243411Y65031D01*
X244146Y64894D01*
X244878Y64739D01*
X245606Y64567D01*
X246329Y64376D01*
X247048Y64168D01*
X247761Y63942D01*
X248468Y63698D01*
X249170Y63438D01*
X249864Y63160D01*
X250552Y62865D01*
X251232Y62554D01*
X251904Y62225D01*
X252568Y61881D01*
X253224Y61520D01*
X253870Y61144D01*
X254507Y60751D01*
X255134Y60343D01*
X255751Y59920D01*
X256357Y59482D01*
X256952Y59029D01*
X257536Y58561D01*
X258109Y58080D01*
X258669Y57584D01*
X259217Y57075D01*
X259753Y56553D01*
X260275Y56017D01*
X260784Y55469D01*
X261280Y54909D01*
X261761Y54336D01*
X262229Y53752D01*
X262682Y53157D01*
X263120Y52551D01*
X263543Y51934D01*
X263951Y51307D01*
X264344Y50670D01*
X264720Y50024D01*
X265081Y49368D01*
X265425Y48704D01*
X265754Y48032D01*
X266065Y47352D01*
X266360Y46664D01*
X266638Y45970D01*
X266898Y45268D01*
X267142Y44561D01*
X267368Y43848D01*
X267576Y43129D01*
X267767Y42406D01*
X267939Y41678D01*
X268094Y40946D01*
X268231Y40211D01*
X268350Y39472D01*
X268451Y38731D01*
X268533Y37988D01*
X268597Y37242D01*
X268643Y36496D01*
X268671Y35748D01*
X268680Y35000D01*
X268671Y34252D01*
X268643Y33504D01*
X268597Y32758D01*
X268533Y32012D01*
X268451Y31269D01*
X268350Y30528D01*
X268231Y29789D01*
X268094Y29054D01*
X267939Y28322D01*
X267767Y27594D01*
X267576Y26871D01*
X267368Y26152D01*
X267142Y25439D01*
X266898Y24732D01*
X266638Y24030D01*
X266360Y23336D01*
X266065Y22648D01*
X265754Y21968D01*
X265425Y21296D01*
X265081Y20632D01*
X264720Y19976D01*
X264344Y19330D01*
X263951Y18693D01*
X263543Y18066D01*
X263120Y17449D01*
X262682Y16843D01*
X262229Y16248D01*
X261761Y15664D01*
X261280Y15091D01*
X260784Y14531D01*
X260275Y13983D01*
X259753Y13447D01*
X259217Y12925D01*
X258669Y12416D01*
X258109Y11920D01*
X257536Y11439D01*
X256952Y10971D01*
X256357Y10518D01*
X255751Y10080D01*
X255134Y9657D01*
X254507Y9249D01*
X253870Y8856D01*
X253224Y8480D01*
X252568Y8119D01*
X251904Y7775D01*
X251232Y7446D01*
X250552Y7135D01*
X249864Y6840D01*
X249170Y6562D01*
X248468Y6302D01*
X247761Y6058D01*
X247048Y5832D01*
X246329Y5624D01*
X245606Y5433D01*
X244878Y5261D01*
X244146Y5106D01*
X243411Y4969D01*
X242672Y4850D01*
X241931Y4749D01*
X241188Y4667D01*
X240442Y4603D01*
X239696Y4557D01*
X238948Y4529D01*
X238200Y4520D01*
X237452Y4529D01*
X236704Y4557D01*
X235958Y4603D01*
X235212Y4667D01*
X234469Y4749D01*
X233728Y4850D01*
X232989Y4969D01*
X232254Y5106D01*
X231522Y5261D01*
X230794Y5433D01*
X230071Y5624D01*
X229352Y5832D01*
X228639Y6058D01*
X227932Y6302D01*
X227230Y6562D01*
X226536Y6840D01*
X225848Y7135D01*
X225168Y7446D01*
X224496Y7775D01*
X223832Y8119D01*
X223176Y8480D01*
X222530Y8856D01*
X221893Y9249D01*
X221266Y9657D01*
X220649Y10080D01*
X220043Y10518D01*
X219448Y10971D01*
X218864Y11439D01*
X218291Y11920D01*
X217731Y12416D01*
X217183Y12925D01*
X216647Y13447D01*
X216125Y13983D01*
X215616Y14531D01*
X215120Y15091D01*
X214639Y15664D01*
X214171Y16248D01*
X213718Y16843D01*
X213280Y17449D01*
X212857Y18066D01*
X212449Y18693D01*
X212056Y19330D01*
X211680Y19976D01*
X211319Y20632D01*
X210975Y21296D01*
X210646Y21968D01*
X210335Y22648D01*
X210040Y23336D01*
X209762Y24030D01*
X209502Y24732D01*
X209258Y25439D01*
X209032Y26152D01*
X208824Y26871D01*
X208633Y27594D01*
X208461Y28322D01*
X208306Y29054D01*
X208169Y29789D01*
X208050Y30528D01*
X207949Y31269D01*
X207867Y32012D01*
X207803Y32758D01*
X207757Y33504D01*
X207729Y34252D01*
X207720Y35000D01*
X788200Y35000D02*
X788209Y35736D01*
X788236Y36472D01*
X788281Y37207D01*
X788344Y37941D01*
X788426Y38672D01*
X788525Y39402D01*
X788642Y40129D01*
X788776Y40853D01*
X788929Y41573D01*
X789099Y42289D01*
X789287Y43001D01*
X789492Y43709D01*
X789714Y44410D01*
X789954Y45107D01*
X790210Y45797D01*
X790484Y46481D01*
X790774Y47157D01*
X791080Y47827D01*
X791403Y48488D01*
X791742Y49142D01*
X792097Y49787D01*
X792468Y50423D01*
X792854Y51050D01*
X793256Y51667D01*
X793672Y52274D01*
X794104Y52871D01*
X794550Y53457D01*
X795010Y54032D01*
X795484Y54595D01*
X795971Y55147D01*
X796473Y55686D01*
X796987Y56213D01*
X797514Y56727D01*
X798053Y57229D01*
X798605Y57716D01*
X799168Y58190D01*
X799743Y58650D01*
X800329Y59096D01*
X800926Y59528D01*
X801533Y59944D01*
X802150Y60346D01*
X802777Y60732D01*
X803413Y61103D01*
X804058Y61458D01*
X804712Y61797D01*
X805373Y62120D01*
X806043Y62426D01*
X806719Y62716D01*
X807403Y62990D01*
X808093Y63246D01*
X808790Y63486D01*
X809491Y63708D01*
X810199Y63913D01*
X810911Y64101D01*
X811627Y64271D01*
X812347Y64424D01*
X813071Y64558D01*
X813798Y64675D01*
X814528Y64774D01*
X815259Y64856D01*
X815993Y64919D01*
X816728Y64964D01*
X817464Y64991D01*
X818200Y65000D01*
X818936Y64991D01*
X819672Y64964D01*
X820407Y64919D01*
X821141Y64856D01*
X821872Y64774D01*
X822602Y64675D01*
X823329Y64558D01*
X824053Y64424D01*
X824773Y64271D01*
X825489Y64101D01*
X826201Y63913D01*
X826909Y63708D01*
X827610Y63486D01*
X828307Y63246D01*
X828997Y62990D01*
X829681Y62716D01*
X830357Y62426D01*
X831027Y62120D01*
X831688Y61797D01*
X832342Y61458D01*
X832987Y61103D01*
X833623Y60732D01*
X834250Y60346D01*
X834867Y59944D01*
X835474Y59528D01*
X836071Y59096D01*
X836657Y58650D01*
X837232Y58190D01*
X837795Y57716D01*
X838347Y57229D01*
X838886Y56727D01*
X839413Y56213D01*
X839927Y55686D01*
X840429Y55147D01*
X840916Y54595D01*
X841390Y54032D01*
X841850Y53457D01*
X842296Y52871D01*
X842728Y52274D01*
X843144Y51667D01*
X843546Y51050D01*
X843932Y50423D01*
X844303Y49787D01*
X844658Y49142D01*
X844997Y48488D01*
X845320Y47827D01*
X845626Y47157D01*
X845916Y46481D01*
X846190Y45797D01*
X846446Y45107D01*
X846686Y44410D01*
X846908Y43709D01*
X847113Y43001D01*
X847301Y42289D01*
X847471Y41573D01*
X847624Y40853D01*
X847758Y40129D01*
X847875Y39402D01*
X847974Y38672D01*
X848056Y37941D01*
X848119Y37207D01*
X848164Y36472D01*
X848191Y35736D01*
X848200Y35000D01*
X848191Y34264D01*
X848164Y33528D01*
X848119Y32793D01*
X848056Y32059D01*
X847974Y31328D01*
X847875Y30598D01*
X847758Y29871D01*
X847624Y29147D01*
X847471Y28427D01*
X847301Y27711D01*
X847113Y26999D01*
X846908Y26291D01*
X846686Y25590D01*
X846446Y24893D01*
X846190Y24203D01*
X845916Y23519D01*
X845626Y22843D01*
X845320Y22173D01*
X844997Y21512D01*
X844658Y20858D01*
X844303Y20213D01*
X843932Y19577D01*
X843546Y18950D01*
X843144Y18333D01*
X842728Y17726D01*
X842296Y17129D01*
X841850Y16543D01*
X841390Y15968D01*
X840916Y15405D01*
X840429Y14853D01*
X839927Y14314D01*
X839413Y13787D01*
X838886Y13273D01*
X838347Y12771D01*
X837795Y12284D01*
X837232Y11810D01*
X836657Y11350D01*
X836071Y10904D01*
X835474Y10472D01*
X834867Y10056D01*
X834250Y9654D01*
X833623Y9268D01*
X832987Y8897D01*
X832342Y8542D01*
X831688Y8203D01*
X831027Y7880D01*
X830357Y7574D01*
X829681Y7284D01*
X828997Y7010D01*
X828307Y6754D01*
X827610Y6514D01*
X826909Y6292D01*
X826201Y6087D01*
X825489Y5899D01*
X824773Y5729D01*
X824053Y5576D01*
X823329Y5442D01*
X822602Y5325D01*
X821872Y5226D01*
X821141Y5144D01*
X820407Y5081D01*
X819672Y5036D01*
X818936Y5009D01*
X818200Y5000D01*
X817464Y5009D01*
X816728Y5036D01*
X815993Y5081D01*
X815259Y5144D01*
X814528Y5226D01*
X813798Y5325D01*
X813071Y5442D01*
X812347Y5576D01*
X811627Y5729D01*
X810911Y5899D01*
X810199Y6087D01*
X809491Y6292D01*
X808790Y6514D01*
X808093Y6754D01*
X807403Y7010D01*
X806719Y7284D01*
X806043Y7574D01*
X805373Y7880D01*
X804712Y8203D01*
X804058Y8542D01*
X803413Y8897D01*
X802777Y9268D01*
X802150Y9654D01*
X801533Y10056D01*
X800926Y10472D01*
X800329Y10904D01*
X799743Y11350D01*
X799168Y11810D01*
X798605Y12284D01*
X798053Y12771D01*
X797514Y13273D01*
X796987Y13787D01*
X796473Y14314D01*
X795971Y14853D01*
X795484Y15405D01*
X795010Y15968D01*
X794550Y16543D01*
X794104Y17129D01*
X793672Y17726D01*
X793256Y18333D01*
X792854Y18950D01*
X792468Y19577D01*
X792097Y20213D01*
X791742Y20858D01*
X791403Y21512D01*
X791080Y22173D01*
X790774Y22843D01*
X790484Y23519D01*
X790210Y24203D01*
X789954Y24893D01*
X789714Y25590D01*
X789492Y26291D01*
X789287Y26999D01*
X789099Y27711D01*
X788929Y28427D01*
X788776Y29147D01*
X788642Y29871D01*
X788525Y30598D01*
X788426Y31328D01*
X788344Y32059D01*
X788281Y32793D01*
X788236Y33528D01*
X788209Y34264D01*
X788200Y35000D01*
X788200Y525000D02*
X788209Y525736D01*
X788236Y526472D01*
X788281Y527207D01*
X788344Y527941D01*
X788426Y528672D01*
X788525Y529402D01*
X788642Y530129D01*
X788776Y530853D01*
X788929Y531573D01*
X789099Y532289D01*
X789287Y533001D01*
X789492Y533709D01*
X789714Y534410D01*
X789954Y535107D01*
X790210Y535797D01*
X790484Y536481D01*
X790774Y537157D01*
X791080Y537827D01*
X791403Y538488D01*
X791742Y539142D01*
X792097Y539787D01*
X792468Y540423D01*
X792854Y541050D01*
X793256Y541667D01*
X793672Y542274D01*
X794104Y542871D01*
X794550Y543457D01*
X795010Y544032D01*
X795484Y544595D01*
X795971Y545147D01*
X796473Y545686D01*
X796987Y546213D01*
X797514Y546727D01*
X798053Y547229D01*
X798605Y547716D01*
X799168Y548190D01*
X799743Y548650D01*
X800329Y549096D01*
X800926Y549528D01*
X801533Y549944D01*
X802150Y550346D01*
X802777Y550732D01*
X803413Y551103D01*
X804058Y551458D01*
X804712Y551797D01*
X805373Y552120D01*
X806043Y552426D01*
X806719Y552716D01*
X807403Y552990D01*
X808093Y553246D01*
X808790Y553486D01*
X809491Y553708D01*
X810199Y553913D01*
X810911Y554101D01*
X811627Y554271D01*
X812347Y554424D01*
X813071Y554558D01*
X813798Y554675D01*
X814528Y554774D01*
X815259Y554856D01*
X815993Y554919D01*
X816728Y554964D01*
X817464Y554991D01*
X818200Y555000D01*
X818936Y554991D01*
X819672Y554964D01*
X820407Y554919D01*
X821141Y554856D01*
X821872Y554774D01*
X822602Y554675D01*
X823329Y554558D01*
X824053Y554424D01*
X824773Y554271D01*
X825489Y554101D01*
X826201Y553913D01*
X826909Y553708D01*
X827610Y553486D01*
X828307Y553246D01*
X828997Y552990D01*
X829681Y552716D01*
X830357Y552426D01*
X831027Y552120D01*
X831688Y551797D01*
X832342Y551458D01*
X832987Y551103D01*
X833623Y550732D01*
X834250Y550346D01*
X834867Y549944D01*
X835474Y549528D01*
X836071Y549096D01*
X836657Y548650D01*
X837232Y548190D01*
X837795Y547716D01*
X838347Y547229D01*
X838886Y546727D01*
X839413Y546213D01*
X839927Y545686D01*
X840429Y545147D01*
X840916Y544595D01*
X841390Y544032D01*
X841850Y543457D01*
X842296Y542871D01*
X842728Y542274D01*
X843144Y541667D01*
X843546Y541050D01*
X843932Y540423D01*
X844303Y539787D01*
X844658Y539142D01*
X844997Y538488D01*
X845320Y537827D01*
X845626Y537157D01*
X845916Y536481D01*
X846190Y535797D01*
X846446Y535107D01*
X846686Y534410D01*
X846908Y533709D01*
X847113Y533001D01*
X847301Y532289D01*
X847471Y531573D01*
X847624Y530853D01*
X847758Y530129D01*
X847875Y529402D01*
X847974Y528672D01*
X848056Y527941D01*
X848119Y527207D01*
X848164Y526472D01*
X848191Y525736D01*
X848200Y525000D01*
X848191Y524264D01*
X848164Y523528D01*
X848119Y522793D01*
X848056Y522059D01*
X847974Y521328D01*
X847875Y520598D01*
X847758Y519871D01*
X847624Y519147D01*
X847471Y518427D01*
X847301Y517711D01*
X847113Y516999D01*
X846908Y516291D01*
X846686Y515590D01*
X846446Y514893D01*
X846190Y514203D01*
X845916Y513519D01*
X845626Y512843D01*
X845320Y512173D01*
X844997Y511512D01*
X844658Y510858D01*
X844303Y510213D01*
X843932Y509577D01*
X843546Y508950D01*
X843144Y508333D01*
X842728Y507726D01*
X842296Y507129D01*
X841850Y506543D01*
X841390Y505968D01*
X840916Y505405D01*
X840429Y504853D01*
X839927Y504314D01*
X839413Y503787D01*
X838886Y503273D01*
X838347Y502771D01*
X837795Y502284D01*
X837232Y501810D01*
X836657Y501350D01*
X836071Y500904D01*
X835474Y500472D01*
X834867Y500056D01*
X834250Y499654D01*
X833623Y499268D01*
X832987Y498897D01*
X832342Y498542D01*
X831688Y498203D01*
X831027Y497880D01*
X830357Y497574D01*
X829681Y497284D01*
X828997Y497010D01*
X828307Y496754D01*
X827610Y496514D01*
X826909Y496292D01*
X826201Y496087D01*
X825489Y495899D01*
X824773Y495729D01*
X824053Y495576D01*
X823329Y495442D01*
X822602Y495325D01*
X821872Y495226D01*
X821141Y495144D01*
X820407Y495081D01*
X819672Y495036D01*
X818936Y495009D01*
X818200Y495000D01*
X817464Y495009D01*
X816728Y495036D01*
X815993Y495081D01*
X815259Y495144D01*
X814528Y495226D01*
X813798Y495325D01*
X813071Y495442D01*
X812347Y495576D01*
X811627Y495729D01*
X810911Y495899D01*
X810199Y496087D01*
X809491Y496292D01*
X808790Y496514D01*
X808093Y496754D01*
X807403Y497010D01*
X806719Y497284D01*
X806043Y497574D01*
X805373Y497880D01*
X804712Y498203D01*
X804058Y498542D01*
X803413Y498897D01*
X802777Y499268D01*
X802150Y499654D01*
X801533Y500056D01*
X800926Y500472D01*
X800329Y500904D01*
X799743Y501350D01*
X799168Y501810D01*
X798605Y502284D01*
X798053Y502771D01*
X797514Y503273D01*
X796987Y503787D01*
X796473Y504314D01*
X795971Y504853D01*
X795484Y505405D01*
X795010Y505968D01*
X794550Y506543D01*
X794104Y507129D01*
X793672Y507726D01*
X793256Y508333D01*
X792854Y508950D01*
X792468Y509577D01*
X792097Y510213D01*
X791742Y510858D01*
X791403Y511512D01*
X791080Y512173D01*
X790774Y512843D01*
X790484Y513519D01*
X790210Y514203D01*
X789954Y514893D01*
X789714Y515590D01*
X789492Y516291D01*
X789287Y516999D01*
X789099Y517711D01*
X788929Y518427D01*
X788776Y519147D01*
X788642Y519871D01*
X788525Y520598D01*
X788426Y521328D01*
X788344Y522059D01*
X788281Y522793D01*
X788236Y523528D01*
X788209Y524264D01*
X788200Y525000D01*
X208200Y525000D02*
X208209Y525736D01*
X208236Y526472D01*
X208281Y527207D01*
X208344Y527941D01*
X208426Y528672D01*
X208525Y529402D01*
X208642Y530129D01*
X208776Y530853D01*
X208929Y531573D01*
X209099Y532289D01*
X209287Y533001D01*
X209492Y533709D01*
X209714Y534410D01*
X209954Y535107D01*
X210210Y535797D01*
X210484Y536481D01*
X210774Y537157D01*
X211080Y537827D01*
X211403Y538488D01*
X211742Y539142D01*
X212097Y539787D01*
X212468Y540423D01*
X212854Y541050D01*
X213256Y541667D01*
X213672Y542274D01*
X214104Y542871D01*
X214550Y543457D01*
X215010Y544032D01*
X215484Y544595D01*
X215971Y545147D01*
X216473Y545686D01*
X216987Y546213D01*
X217514Y546727D01*
X218053Y547229D01*
X218605Y547716D01*
X219168Y548190D01*
X219743Y548650D01*
X220329Y549096D01*
X220926Y549528D01*
X221533Y549944D01*
X222150Y550346D01*
X222777Y550732D01*
X223413Y551103D01*
X224058Y551458D01*
X224712Y551797D01*
X225373Y552120D01*
X226043Y552426D01*
X226719Y552716D01*
X227403Y552990D01*
X228093Y553246D01*
X228790Y553486D01*
X229491Y553708D01*
X230199Y553913D01*
X230911Y554101D01*
X231627Y554271D01*
X232347Y554424D01*
X233071Y554558D01*
X233798Y554675D01*
X234528Y554774D01*
X235259Y554856D01*
X235993Y554919D01*
X236728Y554964D01*
X237464Y554991D01*
X238200Y555000D01*
X238936Y554991D01*
X239672Y554964D01*
X240407Y554919D01*
X241141Y554856D01*
X241872Y554774D01*
X242602Y554675D01*
X243329Y554558D01*
X244053Y554424D01*
X244773Y554271D01*
X245489Y554101D01*
X246201Y553913D01*
X246909Y553708D01*
X247610Y553486D01*
X248307Y553246D01*
X248997Y552990D01*
X249681Y552716D01*
X250357Y552426D01*
X251027Y552120D01*
X251688Y551797D01*
X252342Y551458D01*
X252987Y551103D01*
X253623Y550732D01*
X254250Y550346D01*
X254867Y549944D01*
X255474Y549528D01*
X256071Y549096D01*
X256657Y548650D01*
X257232Y548190D01*
X257795Y547716D01*
X258347Y547229D01*
X258886Y546727D01*
X259413Y546213D01*
X259927Y545686D01*
X260429Y545147D01*
X260916Y544595D01*
X261390Y544032D01*
X261850Y543457D01*
X262296Y542871D01*
X262728Y542274D01*
X263144Y541667D01*
X263546Y541050D01*
X263932Y540423D01*
X264303Y539787D01*
X264658Y539142D01*
X264997Y538488D01*
X265320Y537827D01*
X265626Y537157D01*
X265916Y536481D01*
X266190Y535797D01*
X266446Y535107D01*
X266686Y534410D01*
X266908Y533709D01*
X267113Y533001D01*
X267301Y532289D01*
X267471Y531573D01*
X267624Y530853D01*
X267758Y530129D01*
X267875Y529402D01*
X267974Y528672D01*
X268056Y527941D01*
X268119Y527207D01*
X268164Y526472D01*
X268191Y525736D01*
X268200Y525000D01*
X268191Y524264D01*
X268164Y523528D01*
X268119Y522793D01*
X268056Y522059D01*
X267974Y521328D01*
X267875Y520598D01*
X267758Y519871D01*
X267624Y519147D01*
X267471Y518427D01*
X267301Y517711D01*
X267113Y516999D01*
X266908Y516291D01*
X266686Y515590D01*
X266446Y514893D01*
X266190Y514203D01*
X265916Y513519D01*
X265626Y512843D01*
X265320Y512173D01*
X264997Y511512D01*
X264658Y510858D01*
X264303Y510213D01*
X263932Y509577D01*
X263546Y508950D01*
X263144Y508333D01*
X262728Y507726D01*
X262296Y507129D01*
X261850Y506543D01*
X261390Y505968D01*
X260916Y505405D01*
X260429Y504853D01*
X259927Y504314D01*
X259413Y503787D01*
X258886Y503273D01*
X258347Y502771D01*
X257795Y502284D01*
X257232Y501810D01*
X256657Y501350D01*
X256071Y500904D01*
X255474Y500472D01*
X254867Y500056D01*
X254250Y499654D01*
X253623Y499268D01*
X252987Y498897D01*
X252342Y498542D01*
X251688Y498203D01*
X251027Y497880D01*
X250357Y497574D01*
X249681Y497284D01*
X248997Y497010D01*
X248307Y496754D01*
X247610Y496514D01*
X246909Y496292D01*
X246201Y496087D01*
X245489Y495899D01*
X244773Y495729D01*
X244053Y495576D01*
X243329Y495442D01*
X242602Y495325D01*
X241872Y495226D01*
X241141Y495144D01*
X240407Y495081D01*
X239672Y495036D01*
X238936Y495009D01*
X238200Y495000D01*
X237464Y495009D01*
X236728Y495036D01*
X235993Y495081D01*
X235259Y495144D01*
X234528Y495226D01*
X233798Y495325D01*
X233071Y495442D01*
X232347Y495576D01*
X231627Y495729D01*
X230911Y495899D01*
X230199Y496087D01*
X229491Y496292D01*
X228790Y496514D01*
X228093Y496754D01*
X227403Y497010D01*
X226719Y497284D01*
X226043Y497574D01*
X225373Y497880D01*
X224712Y498203D01*
X224058Y498542D01*
X223413Y498897D01*
X222777Y499268D01*
X222150Y499654D01*
X221533Y500056D01*
X220926Y500472D01*
X220329Y500904D01*
X219743Y501350D01*
X219168Y501810D01*
X218605Y502284D01*
X218053Y502771D01*
X217514Y503273D01*
X216987Y503787D01*
X216473Y504314D01*
X215971Y504853D01*
X215484Y505405D01*
X215010Y505968D01*
X214550Y506543D01*
X214104Y507129D01*
X213672Y507726D01*
X213256Y508333D01*
X212854Y508950D01*
X212468Y509577D01*
X212097Y510213D01*
X211742Y510858D01*
X211403Y511512D01*
X211080Y512173D01*
X210774Y512843D01*
X210484Y513519D01*
X210210Y514203D01*
X209954Y514893D01*
X209714Y515590D01*
X209492Y516291D01*
X209287Y516999D01*
X209099Y517711D01*
X208929Y518427D01*
X208776Y519147D01*
X208642Y519871D01*
X208525Y520598D01*
X208426Y521328D01*
X208344Y522059D01*
X208281Y522793D01*
X208236Y523528D01*
X208209Y524264D01*
X208200Y525000D01*
X1073200Y350000D02*
X1073200Y220000D01*
X1073200Y410000D02*
X1073200Y540000D01*
X1073200Y183000D02*
X1073200Y23000D01*
X785590Y550018D02*
X270590Y550018D01*
X270590Y510018D01*
X280590Y500018D01*
X785590Y500018D01*
X785590Y550018D01*
X708200Y0D02*
X703200Y0D01*
X768200Y0D02*
X773200Y0D01*
X863200Y23000D02*
X1073200Y23000D01*
X863200Y23000D02*
X863200Y183000D01*
X1073200Y183000D01*
X1073200Y220000D02*
X903200Y220000D01*
X903200Y350000D01*
X1073200Y350000D01*
X1073200Y540000D02*
X903200Y540000D01*
X903200Y410000D01*
X1073200Y410000D01*
D11*
X972052Y10221D02*
X967875Y10221D01*
X967875Y19619D01*
X972052Y19619D01*
X971007Y15442D02*
X967875Y15442D01*
X977478Y19619D02*
X977478Y10221D01*
X974868Y19619D02*
X980089Y19619D01*
X983707Y19619D02*
X983707Y10221D01*
X983707Y15442D02*
X988928Y15442D01*
X988928Y19619D02*
X988928Y10221D01*
X993478Y10221D02*
X997655Y10221D01*
X993478Y10221D02*
X993478Y19619D01*
X997655Y19619D01*
X996611Y15442D02*
X993478Y15442D01*
X1001442Y19619D02*
X1001442Y10221D01*
X1001442Y19619D02*
X1004053Y19619D01*
X1004154Y19617D01*
X1004255Y19611D01*
X1004356Y19601D01*
X1004456Y19588D01*
X1004556Y19570D01*
X1004655Y19549D01*
X1004753Y19523D01*
X1004850Y19494D01*
X1004946Y19462D01*
X1005040Y19425D01*
X1005133Y19385D01*
X1005225Y19341D01*
X1005314Y19294D01*
X1005402Y19243D01*
X1005488Y19189D01*
X1005571Y19132D01*
X1005653Y19072D01*
X1005731Y19008D01*
X1005808Y18942D01*
X1005881Y18872D01*
X1005952Y18800D01*
X1006020Y18725D01*
X1006085Y18647D01*
X1006147Y18567D01*
X1006206Y18485D01*
X1006262Y18400D01*
X1006314Y18313D01*
X1006363Y18225D01*
X1006409Y18134D01*
X1006450Y18042D01*
X1006489Y17948D01*
X1006523Y17853D01*
X1006554Y17757D01*
X1006581Y17659D01*
X1006605Y17561D01*
X1006624Y17461D01*
X1006640Y17361D01*
X1006652Y17261D01*
X1006660Y17160D01*
X1006664Y17059D01*
X1006664Y16957D01*
X1006660Y16856D01*
X1006652Y16755D01*
X1006640Y16655D01*
X1006624Y16555D01*
X1006605Y16455D01*
X1006581Y16357D01*
X1006554Y16259D01*
X1006523Y16163D01*
X1006489Y16068D01*
X1006450Y15974D01*
X1006409Y15882D01*
X1006363Y15791D01*
X1006314Y15702D01*
X1006262Y15616D01*
X1006206Y15531D01*
X1006147Y15449D01*
X1006085Y15369D01*
X1006020Y15291D01*
X1005952Y15216D01*
X1005881Y15144D01*
X1005808Y15074D01*
X1005731Y15008D01*
X1005653Y14944D01*
X1005571Y14884D01*
X1005488Y14827D01*
X1005402Y14773D01*
X1005314Y14722D01*
X1005225Y14675D01*
X1005133Y14631D01*
X1005040Y14591D01*
X1004946Y14554D01*
X1004850Y14522D01*
X1004753Y14493D01*
X1004655Y14467D01*
X1004556Y14446D01*
X1004456Y14428D01*
X1004356Y14415D01*
X1004255Y14405D01*
X1004154Y14399D01*
X1004053Y14397D01*
X1004053Y14398D02*
X1001442Y14398D01*
X1004575Y14398D02*
X1006663Y10221D01*
X1010834Y10221D02*
X1010834Y19619D01*
X1016055Y10221D01*
X1016055Y19619D01*
X1020605Y10221D02*
X1024782Y10221D01*
X1020605Y10221D02*
X1020605Y19619D01*
X1024782Y19619D01*
X1023738Y15442D02*
X1020605Y15442D01*
X1030208Y19619D02*
X1030208Y10221D01*
X1027598Y19619D02*
X1032819Y19619D01*
X1024179Y209832D02*
X1024179Y216619D01*
X1024178Y209832D02*
X1024180Y209731D01*
X1024186Y209630D01*
X1024196Y209529D01*
X1024209Y209429D01*
X1024227Y209329D01*
X1024248Y209230D01*
X1024274Y209132D01*
X1024303Y209035D01*
X1024335Y208939D01*
X1024372Y208845D01*
X1024412Y208752D01*
X1024456Y208660D01*
X1024503Y208571D01*
X1024554Y208483D01*
X1024608Y208397D01*
X1024665Y208314D01*
X1024725Y208232D01*
X1024789Y208154D01*
X1024855Y208077D01*
X1024925Y208004D01*
X1024997Y207933D01*
X1025072Y207865D01*
X1025150Y207800D01*
X1025230Y207738D01*
X1025312Y207679D01*
X1025397Y207623D01*
X1025484Y207571D01*
X1025572Y207522D01*
X1025663Y207476D01*
X1025755Y207435D01*
X1025849Y207396D01*
X1025944Y207362D01*
X1026040Y207331D01*
X1026138Y207304D01*
X1026236Y207280D01*
X1026336Y207261D01*
X1026436Y207245D01*
X1026536Y207233D01*
X1026637Y207225D01*
X1026738Y207221D01*
X1026840Y207221D01*
X1026941Y207225D01*
X1027042Y207233D01*
X1027142Y207245D01*
X1027242Y207261D01*
X1027342Y207280D01*
X1027440Y207304D01*
X1027538Y207331D01*
X1027634Y207362D01*
X1027729Y207396D01*
X1027823Y207435D01*
X1027915Y207476D01*
X1028006Y207522D01*
X1028095Y207571D01*
X1028181Y207623D01*
X1028266Y207679D01*
X1028348Y207738D01*
X1028428Y207800D01*
X1028506Y207865D01*
X1028581Y207933D01*
X1028653Y208004D01*
X1028723Y208077D01*
X1028789Y208154D01*
X1028853Y208232D01*
X1028913Y208314D01*
X1028970Y208397D01*
X1029024Y208483D01*
X1029075Y208571D01*
X1029122Y208660D01*
X1029166Y208752D01*
X1029206Y208845D01*
X1029243Y208939D01*
X1029275Y209035D01*
X1029304Y209132D01*
X1029330Y209230D01*
X1029351Y209329D01*
X1029369Y209429D01*
X1029382Y209529D01*
X1029392Y209630D01*
X1029398Y209731D01*
X1029400Y209832D01*
X1029400Y216619D01*
X1038543Y209309D02*
X1038541Y209220D01*
X1038535Y209132D01*
X1038526Y209044D01*
X1038513Y208956D01*
X1038496Y208869D01*
X1038476Y208783D01*
X1038451Y208698D01*
X1038424Y208613D01*
X1038392Y208530D01*
X1038358Y208449D01*
X1038319Y208369D01*
X1038278Y208291D01*
X1038233Y208214D01*
X1038185Y208140D01*
X1038134Y208067D01*
X1038080Y207997D01*
X1038022Y207930D01*
X1037962Y207864D01*
X1037900Y207802D01*
X1037834Y207742D01*
X1037767Y207684D01*
X1037697Y207630D01*
X1037624Y207579D01*
X1037550Y207531D01*
X1037473Y207486D01*
X1037395Y207445D01*
X1037315Y207406D01*
X1037234Y207372D01*
X1037151Y207340D01*
X1037066Y207313D01*
X1036981Y207288D01*
X1036895Y207268D01*
X1036808Y207251D01*
X1036720Y207238D01*
X1036632Y207229D01*
X1036544Y207223D01*
X1036455Y207221D01*
X1036326Y207223D01*
X1036197Y207229D01*
X1036068Y207238D01*
X1035940Y207251D01*
X1035812Y207268D01*
X1035685Y207289D01*
X1035558Y207313D01*
X1035432Y207341D01*
X1035307Y207373D01*
X1035183Y207408D01*
X1035060Y207447D01*
X1034938Y207490D01*
X1034818Y207536D01*
X1034699Y207586D01*
X1034581Y207639D01*
X1034465Y207695D01*
X1034351Y207755D01*
X1034238Y207818D01*
X1034128Y207885D01*
X1034019Y207954D01*
X1033913Y208027D01*
X1033808Y208103D01*
X1033706Y208182D01*
X1033607Y208264D01*
X1033509Y208348D01*
X1033414Y208436D01*
X1033322Y208526D01*
X1033584Y214531D02*
X1033586Y214620D01*
X1033592Y214708D01*
X1033601Y214796D01*
X1033614Y214884D01*
X1033631Y214971D01*
X1033651Y215057D01*
X1033676Y215142D01*
X1033703Y215227D01*
X1033735Y215310D01*
X1033769Y215391D01*
X1033808Y215471D01*
X1033849Y215549D01*
X1033894Y215626D01*
X1033942Y215700D01*
X1033993Y215773D01*
X1034047Y215843D01*
X1034105Y215910D01*
X1034165Y215976D01*
X1034227Y216038D01*
X1034293Y216098D01*
X1034360Y216156D01*
X1034430Y216210D01*
X1034503Y216261D01*
X1034577Y216309D01*
X1034654Y216354D01*
X1034732Y216395D01*
X1034812Y216434D01*
X1034893Y216468D01*
X1034976Y216500D01*
X1035061Y216527D01*
X1035146Y216552D01*
X1035232Y216572D01*
X1035319Y216589D01*
X1035407Y216602D01*
X1035495Y216611D01*
X1035583Y216617D01*
X1035672Y216619D01*
X1035792Y216617D01*
X1035912Y216612D01*
X1036032Y216602D01*
X1036151Y216590D01*
X1036270Y216573D01*
X1036388Y216553D01*
X1036506Y216529D01*
X1036622Y216502D01*
X1036738Y216471D01*
X1036853Y216437D01*
X1036967Y216399D01*
X1037080Y216357D01*
X1037191Y216312D01*
X1037301Y216264D01*
X1037409Y216213D01*
X1037516Y216158D01*
X1037621Y216100D01*
X1037724Y216038D01*
X1037825Y215974D01*
X1037925Y215906D01*
X1038022Y215836D01*
X1034628Y212704D02*
X1034550Y212752D01*
X1034474Y212804D01*
X1034401Y212858D01*
X1034330Y212916D01*
X1034261Y212977D01*
X1034195Y213041D01*
X1034132Y213108D01*
X1034072Y213177D01*
X1034015Y213249D01*
X1033961Y213323D01*
X1033911Y213400D01*
X1033863Y213479D01*
X1033820Y213559D01*
X1033779Y213642D01*
X1033743Y213726D01*
X1033710Y213811D01*
X1033681Y213898D01*
X1033655Y213987D01*
X1033633Y214076D01*
X1033616Y214166D01*
X1033602Y214256D01*
X1033592Y214348D01*
X1033586Y214439D01*
X1033584Y214531D01*
X1037500Y211136D02*
X1037578Y211088D01*
X1037654Y211036D01*
X1037727Y210982D01*
X1037798Y210924D01*
X1037867Y210863D01*
X1037933Y210799D01*
X1037996Y210732D01*
X1038056Y210663D01*
X1038113Y210591D01*
X1038167Y210517D01*
X1038217Y210440D01*
X1038265Y210361D01*
X1038308Y210281D01*
X1038349Y210198D01*
X1038385Y210114D01*
X1038418Y210029D01*
X1038447Y209942D01*
X1038473Y209853D01*
X1038495Y209764D01*
X1038512Y209674D01*
X1038526Y209584D01*
X1038536Y209492D01*
X1038542Y209401D01*
X1038544Y209309D01*
X1037500Y211137D02*
X1034628Y212703D01*
X1042598Y212442D02*
X1045208Y212442D01*
X1045208Y212443D02*
X1045309Y212441D01*
X1045410Y212435D01*
X1045511Y212425D01*
X1045611Y212412D01*
X1045711Y212394D01*
X1045810Y212373D01*
X1045908Y212347D01*
X1046005Y212318D01*
X1046101Y212286D01*
X1046195Y212249D01*
X1046288Y212209D01*
X1046380Y212165D01*
X1046469Y212118D01*
X1046557Y212067D01*
X1046643Y212013D01*
X1046726Y211956D01*
X1046808Y211896D01*
X1046886Y211832D01*
X1046963Y211766D01*
X1047036Y211696D01*
X1047107Y211624D01*
X1047175Y211549D01*
X1047240Y211471D01*
X1047302Y211391D01*
X1047361Y211309D01*
X1047417Y211224D01*
X1047469Y211137D01*
X1047518Y211049D01*
X1047564Y210958D01*
X1047605Y210866D01*
X1047644Y210772D01*
X1047678Y210677D01*
X1047709Y210581D01*
X1047736Y210483D01*
X1047760Y210385D01*
X1047779Y210285D01*
X1047795Y210185D01*
X1047807Y210085D01*
X1047815Y209984D01*
X1047819Y209883D01*
X1047819Y209781D01*
X1047815Y209680D01*
X1047807Y209579D01*
X1047795Y209479D01*
X1047779Y209379D01*
X1047760Y209279D01*
X1047736Y209181D01*
X1047709Y209083D01*
X1047678Y208987D01*
X1047644Y208892D01*
X1047605Y208798D01*
X1047564Y208706D01*
X1047518Y208615D01*
X1047469Y208526D01*
X1047417Y208440D01*
X1047361Y208355D01*
X1047302Y208273D01*
X1047240Y208193D01*
X1047175Y208115D01*
X1047107Y208040D01*
X1047036Y207968D01*
X1046963Y207898D01*
X1046886Y207832D01*
X1046808Y207768D01*
X1046726Y207708D01*
X1046643Y207651D01*
X1046557Y207597D01*
X1046469Y207546D01*
X1046380Y207499D01*
X1046288Y207455D01*
X1046195Y207415D01*
X1046101Y207378D01*
X1046005Y207346D01*
X1045908Y207317D01*
X1045810Y207291D01*
X1045711Y207270D01*
X1045611Y207252D01*
X1045511Y207239D01*
X1045410Y207229D01*
X1045309Y207223D01*
X1045208Y207221D01*
X1042598Y207221D01*
X1042598Y216619D01*
X1045208Y216619D01*
X1045298Y216617D01*
X1045387Y216611D01*
X1045477Y216602D01*
X1045566Y216588D01*
X1045654Y216571D01*
X1045741Y216550D01*
X1045828Y216525D01*
X1045913Y216496D01*
X1045997Y216464D01*
X1046079Y216429D01*
X1046160Y216389D01*
X1046239Y216347D01*
X1046316Y216301D01*
X1046391Y216251D01*
X1046464Y216199D01*
X1046535Y216143D01*
X1046603Y216085D01*
X1046668Y216023D01*
X1046731Y215959D01*
X1046791Y215892D01*
X1046848Y215823D01*
X1046902Y215751D01*
X1046953Y215677D01*
X1047001Y215601D01*
X1047045Y215523D01*
X1047086Y215443D01*
X1047124Y215361D01*
X1047158Y215278D01*
X1047188Y215193D01*
X1047215Y215107D01*
X1047238Y215021D01*
X1047257Y214933D01*
X1047272Y214844D01*
X1047284Y214755D01*
X1047292Y214666D01*
X1047296Y214576D01*
X1047296Y214486D01*
X1047292Y214396D01*
X1047284Y214307D01*
X1047272Y214218D01*
X1047257Y214129D01*
X1047238Y214041D01*
X1047215Y213955D01*
X1047188Y213869D01*
X1047158Y213784D01*
X1047124Y213701D01*
X1047086Y213619D01*
X1047045Y213539D01*
X1047001Y213461D01*
X1046953Y213385D01*
X1046902Y213311D01*
X1046848Y213239D01*
X1046791Y213170D01*
X1046731Y213103D01*
X1046668Y213039D01*
X1046603Y212977D01*
X1046535Y212919D01*
X1046464Y212863D01*
X1046391Y212811D01*
X1046316Y212761D01*
X1046239Y212715D01*
X1046160Y212673D01*
X1046079Y212633D01*
X1045997Y212598D01*
X1045913Y212566D01*
X1045828Y212537D01*
X1045741Y212512D01*
X1045654Y212491D01*
X1045566Y212474D01*
X1045477Y212460D01*
X1045387Y212451D01*
X1045298Y212445D01*
X1045208Y212443D01*
X1019581Y398992D02*
X1019581Y405779D01*
X1019581Y398992D02*
X1019583Y398891D01*
X1019589Y398790D01*
X1019599Y398689D01*
X1019612Y398589D01*
X1019630Y398489D01*
X1019651Y398390D01*
X1019677Y398292D01*
X1019706Y398195D01*
X1019738Y398099D01*
X1019775Y398005D01*
X1019815Y397912D01*
X1019859Y397820D01*
X1019906Y397731D01*
X1019957Y397643D01*
X1020011Y397557D01*
X1020068Y397474D01*
X1020128Y397392D01*
X1020192Y397314D01*
X1020258Y397237D01*
X1020328Y397164D01*
X1020400Y397093D01*
X1020475Y397025D01*
X1020553Y396960D01*
X1020633Y396898D01*
X1020715Y396839D01*
X1020800Y396783D01*
X1020887Y396731D01*
X1020975Y396682D01*
X1021066Y396636D01*
X1021158Y396595D01*
X1021252Y396556D01*
X1021347Y396522D01*
X1021443Y396491D01*
X1021541Y396464D01*
X1021639Y396440D01*
X1021739Y396421D01*
X1021839Y396405D01*
X1021939Y396393D01*
X1022040Y396385D01*
X1022141Y396381D01*
X1022243Y396381D01*
X1022344Y396385D01*
X1022445Y396393D01*
X1022545Y396405D01*
X1022645Y396421D01*
X1022745Y396440D01*
X1022843Y396464D01*
X1022941Y396491D01*
X1023037Y396522D01*
X1023132Y396556D01*
X1023226Y396595D01*
X1023318Y396636D01*
X1023409Y396682D01*
X1023498Y396731D01*
X1023584Y396783D01*
X1023669Y396839D01*
X1023751Y396898D01*
X1023831Y396960D01*
X1023909Y397025D01*
X1023984Y397093D01*
X1024056Y397164D01*
X1024126Y397237D01*
X1024192Y397314D01*
X1024256Y397392D01*
X1024316Y397474D01*
X1024373Y397557D01*
X1024427Y397643D01*
X1024478Y397731D01*
X1024525Y397820D01*
X1024569Y397912D01*
X1024609Y398005D01*
X1024646Y398099D01*
X1024678Y398195D01*
X1024707Y398292D01*
X1024733Y398390D01*
X1024754Y398489D01*
X1024772Y398589D01*
X1024785Y398689D01*
X1024795Y398790D01*
X1024801Y398891D01*
X1024803Y398992D01*
X1024802Y398992D02*
X1024802Y405779D01*
X1033946Y398469D02*
X1033944Y398380D01*
X1033938Y398292D01*
X1033929Y398204D01*
X1033916Y398116D01*
X1033899Y398029D01*
X1033879Y397943D01*
X1033854Y397858D01*
X1033827Y397773D01*
X1033795Y397690D01*
X1033761Y397609D01*
X1033722Y397529D01*
X1033681Y397451D01*
X1033636Y397374D01*
X1033588Y397300D01*
X1033537Y397227D01*
X1033483Y397157D01*
X1033425Y397090D01*
X1033365Y397024D01*
X1033303Y396962D01*
X1033237Y396902D01*
X1033170Y396844D01*
X1033100Y396790D01*
X1033027Y396739D01*
X1032953Y396691D01*
X1032876Y396646D01*
X1032798Y396605D01*
X1032718Y396566D01*
X1032637Y396532D01*
X1032554Y396500D01*
X1032469Y396473D01*
X1032384Y396448D01*
X1032298Y396428D01*
X1032211Y396411D01*
X1032123Y396398D01*
X1032035Y396389D01*
X1031947Y396383D01*
X1031858Y396381D01*
X1031729Y396383D01*
X1031600Y396389D01*
X1031471Y396398D01*
X1031343Y396411D01*
X1031215Y396428D01*
X1031088Y396449D01*
X1030961Y396473D01*
X1030835Y396501D01*
X1030710Y396533D01*
X1030586Y396568D01*
X1030463Y396607D01*
X1030341Y396650D01*
X1030221Y396696D01*
X1030102Y396746D01*
X1029984Y396799D01*
X1029868Y396855D01*
X1029754Y396915D01*
X1029641Y396978D01*
X1029531Y397045D01*
X1029422Y397114D01*
X1029316Y397187D01*
X1029211Y397263D01*
X1029109Y397342D01*
X1029010Y397424D01*
X1028912Y397508D01*
X1028817Y397596D01*
X1028725Y397686D01*
X1028986Y403691D02*
X1028988Y403780D01*
X1028994Y403868D01*
X1029003Y403956D01*
X1029016Y404044D01*
X1029033Y404131D01*
X1029053Y404217D01*
X1029078Y404302D01*
X1029105Y404387D01*
X1029137Y404470D01*
X1029171Y404551D01*
X1029210Y404631D01*
X1029251Y404709D01*
X1029296Y404786D01*
X1029344Y404860D01*
X1029395Y404933D01*
X1029449Y405003D01*
X1029507Y405070D01*
X1029567Y405136D01*
X1029629Y405198D01*
X1029695Y405258D01*
X1029762Y405316D01*
X1029832Y405370D01*
X1029905Y405421D01*
X1029979Y405469D01*
X1030056Y405514D01*
X1030134Y405555D01*
X1030214Y405594D01*
X1030295Y405628D01*
X1030378Y405660D01*
X1030463Y405687D01*
X1030548Y405712D01*
X1030634Y405732D01*
X1030721Y405749D01*
X1030809Y405762D01*
X1030897Y405771D01*
X1030985Y405777D01*
X1031074Y405779D01*
X1031194Y405777D01*
X1031314Y405772D01*
X1031434Y405762D01*
X1031553Y405750D01*
X1031672Y405733D01*
X1031790Y405713D01*
X1031908Y405689D01*
X1032024Y405662D01*
X1032140Y405631D01*
X1032255Y405597D01*
X1032369Y405559D01*
X1032482Y405517D01*
X1032593Y405472D01*
X1032703Y405424D01*
X1032811Y405373D01*
X1032918Y405318D01*
X1033023Y405260D01*
X1033126Y405198D01*
X1033227Y405134D01*
X1033327Y405066D01*
X1033424Y404996D01*
X1030030Y401864D02*
X1029952Y401912D01*
X1029876Y401964D01*
X1029803Y402018D01*
X1029732Y402076D01*
X1029663Y402137D01*
X1029597Y402201D01*
X1029534Y402268D01*
X1029474Y402337D01*
X1029417Y402409D01*
X1029363Y402483D01*
X1029313Y402560D01*
X1029265Y402639D01*
X1029222Y402719D01*
X1029181Y402802D01*
X1029145Y402886D01*
X1029112Y402971D01*
X1029083Y403058D01*
X1029057Y403147D01*
X1029035Y403236D01*
X1029018Y403326D01*
X1029004Y403416D01*
X1028994Y403508D01*
X1028988Y403599D01*
X1028986Y403691D01*
X1032902Y400296D02*
X1032980Y400248D01*
X1033056Y400196D01*
X1033129Y400142D01*
X1033200Y400084D01*
X1033269Y400023D01*
X1033335Y399959D01*
X1033398Y399892D01*
X1033458Y399823D01*
X1033515Y399751D01*
X1033569Y399677D01*
X1033619Y399600D01*
X1033667Y399521D01*
X1033710Y399441D01*
X1033751Y399358D01*
X1033787Y399274D01*
X1033820Y399189D01*
X1033849Y399102D01*
X1033875Y399013D01*
X1033897Y398924D01*
X1033914Y398834D01*
X1033928Y398744D01*
X1033938Y398652D01*
X1033944Y398561D01*
X1033946Y398469D01*
X1032902Y400297D02*
X1030030Y401863D01*
X1038000Y401602D02*
X1040611Y401602D01*
X1040611Y401603D02*
X1040712Y401601D01*
X1040813Y401595D01*
X1040914Y401585D01*
X1041014Y401572D01*
X1041114Y401554D01*
X1041213Y401533D01*
X1041311Y401507D01*
X1041408Y401478D01*
X1041504Y401446D01*
X1041598Y401409D01*
X1041691Y401369D01*
X1041783Y401325D01*
X1041872Y401278D01*
X1041960Y401227D01*
X1042046Y401173D01*
X1042129Y401116D01*
X1042211Y401056D01*
X1042289Y400992D01*
X1042366Y400926D01*
X1042439Y400856D01*
X1042510Y400784D01*
X1042578Y400709D01*
X1042643Y400631D01*
X1042705Y400551D01*
X1042764Y400469D01*
X1042820Y400384D01*
X1042872Y400297D01*
X1042921Y400209D01*
X1042967Y400118D01*
X1043008Y400026D01*
X1043047Y399932D01*
X1043081Y399837D01*
X1043112Y399741D01*
X1043139Y399643D01*
X1043163Y399545D01*
X1043182Y399445D01*
X1043198Y399345D01*
X1043210Y399245D01*
X1043218Y399144D01*
X1043222Y399043D01*
X1043222Y398941D01*
X1043218Y398840D01*
X1043210Y398739D01*
X1043198Y398639D01*
X1043182Y398539D01*
X1043163Y398439D01*
X1043139Y398341D01*
X1043112Y398243D01*
X1043081Y398147D01*
X1043047Y398052D01*
X1043008Y397958D01*
X1042967Y397866D01*
X1042921Y397775D01*
X1042872Y397687D01*
X1042820Y397600D01*
X1042764Y397515D01*
X1042705Y397433D01*
X1042643Y397353D01*
X1042578Y397275D01*
X1042510Y397200D01*
X1042439Y397128D01*
X1042366Y397058D01*
X1042289Y396992D01*
X1042211Y396928D01*
X1042129Y396868D01*
X1042046Y396811D01*
X1041960Y396757D01*
X1041872Y396706D01*
X1041783Y396659D01*
X1041691Y396615D01*
X1041598Y396575D01*
X1041504Y396538D01*
X1041408Y396506D01*
X1041311Y396477D01*
X1041213Y396451D01*
X1041114Y396430D01*
X1041014Y396412D01*
X1040914Y396399D01*
X1040813Y396389D01*
X1040712Y396383D01*
X1040611Y396381D01*
X1038000Y396381D01*
X1038000Y405779D01*
X1040611Y405779D01*
X1040701Y405777D01*
X1040790Y405771D01*
X1040880Y405762D01*
X1040969Y405748D01*
X1041057Y405731D01*
X1041144Y405710D01*
X1041231Y405685D01*
X1041316Y405656D01*
X1041400Y405624D01*
X1041482Y405589D01*
X1041563Y405549D01*
X1041642Y405507D01*
X1041719Y405461D01*
X1041794Y405411D01*
X1041867Y405359D01*
X1041938Y405303D01*
X1042006Y405245D01*
X1042071Y405183D01*
X1042134Y405119D01*
X1042194Y405052D01*
X1042251Y404983D01*
X1042305Y404911D01*
X1042356Y404837D01*
X1042404Y404761D01*
X1042448Y404683D01*
X1042489Y404603D01*
X1042527Y404521D01*
X1042561Y404438D01*
X1042591Y404353D01*
X1042618Y404267D01*
X1042641Y404181D01*
X1042660Y404093D01*
X1042675Y404004D01*
X1042687Y403915D01*
X1042695Y403826D01*
X1042699Y403736D01*
X1042699Y403646D01*
X1042695Y403556D01*
X1042687Y403467D01*
X1042675Y403378D01*
X1042660Y403289D01*
X1042641Y403201D01*
X1042618Y403115D01*
X1042591Y403029D01*
X1042561Y402944D01*
X1042527Y402861D01*
X1042489Y402779D01*
X1042448Y402699D01*
X1042404Y402621D01*
X1042356Y402545D01*
X1042305Y402471D01*
X1042251Y402399D01*
X1042194Y402330D01*
X1042134Y402263D01*
X1042071Y402199D01*
X1042006Y402137D01*
X1041938Y402079D01*
X1041867Y402023D01*
X1041794Y401971D01*
X1041719Y401921D01*
X1041642Y401875D01*
X1041563Y401833D01*
X1041482Y401793D01*
X1041400Y401758D01*
X1041316Y401726D01*
X1041231Y401697D01*
X1041144Y401672D01*
X1041057Y401651D01*
X1040969Y401634D01*
X1040880Y401620D01*
X1040790Y401611D01*
X1040701Y401605D01*
X1040611Y401603D01*
D12*
X781050Y459930D02*
X768350Y459930D01*
M02*
