M48
INCH
T01C0.0450
T02C0.0600
T03C0.1574
T04C0.0400
T05C0.0300
T06C0.0250
T07C0.1500
T08C0.2000
%
T01
X-024000Y+013000
X-030000Y+013000
X-026000Y+013000
X-028000Y+013000
X-030000Y+007000
X-024000Y+007000
X-028000Y+007000
X-026000Y+007000
X+011500Y+012000
X+011500Y+014000
X+011500Y+006250
X+011500Y+008250
X+018500Y+022000
X+018500Y+020000
X+018750Y+000500
X+018750Y-001500
T02
X-027000Y+018500
X-027000Y+022437
X-027000Y-003250
X-027000Y+000687
X-012049Y+019002
X-009022Y+022029
X-012049Y-000997
X-009022Y+002029
X+020750Y+012000
X+020750Y+010000
X+020750Y+008000
X-034000Y+013500
X-034000Y+011500
X-034000Y+008250
X-034000Y+006250
X+022500Y-009000
X-022000Y+010000
X+007500Y+010000
T03
X-005848Y+015828
X-014191Y+024171
X-005848Y-004171
X-014191Y+004171
T04
X+001250Y+011000
X+001250Y+016000
X+003250Y+011000
X+003250Y+016000
X+001250Y+004000
X+001250Y+009000
X+003250Y+004000
X+003250Y+009000
X+005250Y+016000
X+005250Y+011000
X+005250Y+009000
X+005250Y+004000
X+011500Y+016000
X+006500Y+016000
X+001000Y+019000
X+001000Y+020000
X+001000Y+021000
X+001000Y-001000
X+001000Y+000000
X+001000Y+001000
X+005250Y-003250
X+005250Y-008250
X+007250Y-003250
X+007250Y-008250
X+005250Y+028000
X+005250Y+023000
X+007500Y+028000
X+007500Y+023000
X+014500Y-008250
X+014500Y-003250
X+017500Y-009000
X+017500Y-004000
X+019250Y-009000
X+019250Y-004000
X+021250Y-009000
X+021250Y-004000
X+014500Y+023000
X+014500Y+028000
X-029000Y-010000
X-029000Y-011000
X+006500Y+004000
X+011500Y+004000
T05
X+005250Y-000800
X+005250Y+000000
X+005250Y+000800
X+005250Y+020800
X+005250Y+020000
X+005250Y+019200
X+003250Y-005300
X+003250Y-004500
X+003250Y-003700
X+003250Y+023700
X+003250Y+024500
X+003250Y+025300
X+012500Y+021500
X+011500Y+021500
X+010500Y+021500
X+009500Y+021500
X+009500Y+018500
X+010500Y+018500
X+011500Y+018500
X+012500Y+018500
X+012500Y+001500
X+011500Y+001500
X+010500Y+001500
X+009500Y+001500
X+009500Y-001500
X+010500Y-001500
X+011500Y-001500
X+012500Y-001500
X+018557Y+015797
X+020525Y+015797
X+018750Y+004547
X+020718Y+004547
T06
X+007250Y+000750
X+007250Y-000627
X+007500Y+020750
X+007500Y+019372
T07
X-017500Y+027500
X-002500Y+027500
X-017500Y+012500
X-002500Y+012500
X-017500Y+007500
X-002500Y+007500
X-017500Y-007500
X-002500Y-007500
T08
X-035500Y+031500
X+023000Y+031500
X+023000Y-012500
X-035500Y-012500
M30
