G75*
%MOIN*%
%OFA0B0*%
%FSLAX25Y25*%
%IPPOS*%
%LPD*%
%AMOC8*
5,1,8,0,0,1.08239X$1,22.5*
%
%ADD10C,0.05200*%
%ADD11C,0.06600*%
%ADD12C,0.03200*%
D10*
X0012250Y0016000D03*
X0012250Y0026000D03*
X0022250Y0026000D03*
X0022250Y0016000D03*
X0032250Y0016000D03*
X0032250Y0026000D03*
X0032250Y0056000D03*
X0032250Y0066000D03*
X0022250Y0066000D03*
X0022250Y0056000D03*
X0012250Y0056000D03*
X0012250Y0066000D03*
D11*
X0007250Y0011000D03*
X0007250Y0021000D03*
X0007250Y0031000D03*
X0007250Y0041000D03*
X0007250Y0051000D03*
X0007250Y0061000D03*
X0007250Y0071000D03*
X0037250Y0071000D03*
X0037250Y0061000D03*
X0037250Y0051000D03*
X0037250Y0041000D03*
X0037250Y0031000D03*
X0037250Y0021000D03*
X0037250Y0011000D03*
D12*
X0032250Y0016000D02*
X0027250Y0021000D01*
X0020179Y0021000D01*
X0017250Y0023929D01*
X0017250Y0028071D01*
X0014321Y0031000D01*
X0007250Y0031000D01*
X0019750Y0051000D02*
X0017036Y0053714D01*
X0017250Y0053929D01*
X0017250Y0061000D01*
X0012250Y0066000D01*
X0019750Y0051000D02*
X0037250Y0051000D01*
M02*
