%
M48
M72
T01C0.03200
T02C0.04400
%
T01
X12250Y16000
X12250Y26000
X22250Y26000
X22250Y16000
X32250Y16000
X32250Y26000
X32250Y56000
X32250Y66000
X22250Y66000
X22250Y56000
X12250Y56000
X12250Y66000
T02
X7250Y11000
X7250Y21000
X7250Y31000
X7250Y41000
X7250Y51000
X7250Y61000
X7250Y71000
X37250Y71000
X37250Y61000
X37250Y51000
X37250Y41000
X37250Y31000
X37250Y21000
X37250Y11000
M30
