%
M48
M72
T01C0.07874
T02C0.12598
T03C0.13780
%
T01
X43739Y25068
X63739Y25068
X83739Y25068
X113558Y55084
X113558Y75084
X113558Y95084
X113558Y115084
X113755Y190250
X113755Y210250
X113755Y230250
X113755Y250250
X83739Y280068
X63739Y280068
X43739Y280068
T02
X58656Y225639
X48656Y155167
X81156Y155167
X113656Y155167
X58656Y83907
T03
X58656Y58907
X58656Y108907
X58656Y200639
X58656Y250639
M30
