G75*
%MOIN*%
%OFA0B0*%
%FSLAX25Y25*%
%IPPOS*%
%LPD*%
%AMOC8*
5,1,8,0,0,1.08239X$1,22.5*
%
%ADD10C,0.15000*%
%ADD11OC8,0.19685*%
%ADD12C,0.01600*%
%ADD13OC8,0.25400*%
D10*
X0043739Y0025068D03*
X0063739Y0025068D03*
X0083739Y0025068D03*
X0113558Y0055084D03*
X0113558Y0075084D03*
X0113558Y0095084D03*
X0113558Y0115084D03*
X0113755Y0190250D03*
X0113755Y0210250D03*
X0113755Y0230250D03*
X0113755Y0250250D03*
X0083739Y0280068D03*
X0063739Y0280068D03*
X0043739Y0280068D03*
D11*
X0058656Y0250639D03*
X0058656Y0225639D03*
X0058656Y0200639D03*
X0058656Y0108907D03*
X0058656Y0083907D03*
X0058656Y0058907D03*
D12*
X0033456Y0009967D02*
X0033456Y0294067D01*
X0128778Y0294067D01*
X0128778Y0009967D01*
X0033456Y0009967D01*
X0033456Y0011561D02*
X0128778Y0011561D01*
X0128778Y0013159D02*
X0033456Y0013159D01*
X0033456Y0014758D02*
X0128778Y0014758D01*
X0128778Y0016356D02*
X0086486Y0016356D01*
X0085550Y0015968D02*
X0088894Y0017354D01*
X0091454Y0019913D01*
X0092839Y0023258D01*
X0092839Y0026878D01*
X0091454Y0030223D01*
X0088894Y0032783D01*
X0085550Y0034168D01*
X0081929Y0034168D01*
X0078585Y0032783D01*
X0076025Y0030223D01*
X0074639Y0026878D01*
X0074639Y0023258D01*
X0076025Y0019913D01*
X0078585Y0017354D01*
X0081929Y0015968D01*
X0085550Y0015968D01*
X0089495Y0017955D02*
X0128778Y0017955D01*
X0128778Y0019553D02*
X0091094Y0019553D01*
X0091967Y0021152D02*
X0128778Y0021152D01*
X0128778Y0022750D02*
X0092629Y0022750D01*
X0092839Y0024349D02*
X0128778Y0024349D01*
X0128778Y0025947D02*
X0092839Y0025947D01*
X0092563Y0027546D02*
X0128778Y0027546D01*
X0128778Y0029144D02*
X0091901Y0029144D01*
X0090934Y0030743D02*
X0128778Y0030743D01*
X0128778Y0032341D02*
X0089336Y0032341D01*
X0086101Y0033940D02*
X0128778Y0033940D01*
X0128778Y0035538D02*
X0033456Y0035538D01*
X0033456Y0033940D02*
X0041378Y0033940D01*
X0041929Y0034168D02*
X0038585Y0032783D01*
X0036025Y0030223D01*
X0034639Y0026878D01*
X0034639Y0023258D01*
X0036025Y0019913D01*
X0038585Y0017354D01*
X0041929Y0015968D01*
X0045550Y0015968D01*
X0048894Y0017354D01*
X0051454Y0019913D01*
X0052839Y0023258D01*
X0052839Y0026878D01*
X0051454Y0030223D01*
X0048894Y0032783D01*
X0045550Y0034168D01*
X0041929Y0034168D01*
X0046101Y0033940D02*
X0081378Y0033940D01*
X0078143Y0032341D02*
X0049336Y0032341D01*
X0050934Y0030743D02*
X0076545Y0030743D01*
X0075578Y0029144D02*
X0051901Y0029144D01*
X0052563Y0027546D02*
X0074916Y0027546D01*
X0074639Y0025947D02*
X0052839Y0025947D01*
X0052839Y0024349D02*
X0074639Y0024349D01*
X0074850Y0022750D02*
X0052629Y0022750D01*
X0051967Y0021152D02*
X0075512Y0021152D01*
X0076385Y0019553D02*
X0051094Y0019553D01*
X0049495Y0017955D02*
X0077984Y0017955D01*
X0080993Y0016356D02*
X0046486Y0016356D01*
X0040993Y0016356D02*
X0033456Y0016356D01*
X0033456Y0017955D02*
X0037984Y0017955D01*
X0036385Y0019553D02*
X0033456Y0019553D01*
X0033456Y0021152D02*
X0035512Y0021152D01*
X0034850Y0022750D02*
X0033456Y0022750D01*
X0033456Y0024349D02*
X0034639Y0024349D01*
X0034639Y0025947D02*
X0033456Y0025947D01*
X0033456Y0027546D02*
X0034916Y0027546D01*
X0035578Y0029144D02*
X0033456Y0029144D01*
X0033456Y0030743D02*
X0036545Y0030743D01*
X0038143Y0032341D02*
X0033456Y0032341D01*
X0033456Y0037137D02*
X0128778Y0037137D01*
X0128778Y0038735D02*
X0033456Y0038735D01*
X0033456Y0040334D02*
X0128778Y0040334D01*
X0128778Y0041932D02*
X0033456Y0041932D01*
X0033456Y0043531D02*
X0128778Y0043531D01*
X0128778Y0045129D02*
X0033456Y0045129D01*
X0033456Y0046728D02*
X0109951Y0046728D01*
X0108403Y0047369D02*
X0111748Y0045984D01*
X0115368Y0045984D01*
X0118713Y0047369D01*
X0121273Y0049929D01*
X0122658Y0053273D01*
X0122658Y0056894D01*
X0121273Y0060238D01*
X0118713Y0062798D01*
X0115368Y0064184D01*
X0111748Y0064184D01*
X0108403Y0062798D01*
X0105843Y0060238D01*
X0104458Y0056894D01*
X0104458Y0053273D01*
X0105843Y0049929D01*
X0108403Y0047369D01*
X0107446Y0048326D02*
X0033456Y0048326D01*
X0033456Y0049925D02*
X0105847Y0049925D01*
X0105183Y0051523D02*
X0033456Y0051523D01*
X0033456Y0053122D02*
X0104521Y0053122D01*
X0104458Y0054721D02*
X0033456Y0054721D01*
X0033456Y0056319D02*
X0104458Y0056319D01*
X0104882Y0057918D02*
X0033456Y0057918D01*
X0033456Y0059516D02*
X0105544Y0059516D01*
X0106720Y0061115D02*
X0033456Y0061115D01*
X0033456Y0062713D02*
X0108318Y0062713D01*
X0118798Y0062713D02*
X0128778Y0062713D01*
X0128778Y0061115D02*
X0120396Y0061115D01*
X0121572Y0059516D02*
X0128778Y0059516D01*
X0128778Y0057918D02*
X0122234Y0057918D01*
X0122658Y0056319D02*
X0128778Y0056319D01*
X0128778Y0054721D02*
X0122658Y0054721D01*
X0122595Y0053122D02*
X0128778Y0053122D01*
X0128778Y0051523D02*
X0121933Y0051523D01*
X0121269Y0049925D02*
X0128778Y0049925D01*
X0128778Y0048326D02*
X0119670Y0048326D01*
X0117165Y0046728D02*
X0128778Y0046728D01*
X0128778Y0064312D02*
X0033456Y0064312D01*
X0033456Y0065910D02*
X0128778Y0065910D01*
X0128778Y0067509D02*
X0033456Y0067509D01*
X0033456Y0069107D02*
X0128778Y0069107D01*
X0128778Y0070706D02*
X0033456Y0070706D01*
X0033456Y0072304D02*
X0128778Y0072304D01*
X0128778Y0073903D02*
X0064834Y0073903D01*
X0063396Y0072464D02*
X0070099Y0079167D01*
X0070099Y0088646D01*
X0063396Y0095349D01*
X0053917Y0095349D01*
X0047214Y0088646D01*
X0047214Y0079167D01*
X0053917Y0072464D01*
X0063396Y0072464D01*
X0066433Y0075501D02*
X0128778Y0075501D01*
X0128778Y0077100D02*
X0068031Y0077100D01*
X0069630Y0078698D02*
X0128778Y0078698D01*
X0128778Y0080297D02*
X0070099Y0080297D01*
X0070099Y0081895D02*
X0128778Y0081895D01*
X0128778Y0083494D02*
X0070099Y0083494D01*
X0070099Y0085092D02*
X0128778Y0085092D01*
X0128778Y0086691D02*
X0070099Y0086691D01*
X0070099Y0088289D02*
X0128778Y0088289D01*
X0128778Y0089888D02*
X0068858Y0089888D01*
X0067259Y0091486D02*
X0128778Y0091486D01*
X0128778Y0093085D02*
X0065661Y0093085D01*
X0064062Y0094683D02*
X0128778Y0094683D01*
X0128778Y0096282D02*
X0033456Y0096282D01*
X0033456Y0097880D02*
X0128778Y0097880D01*
X0128778Y0099479D02*
X0033456Y0099479D01*
X0033456Y0101077D02*
X0128778Y0101077D01*
X0128778Y0102676D02*
X0033456Y0102676D01*
X0033456Y0104274D02*
X0128778Y0104274D01*
X0128778Y0105873D02*
X0033456Y0105873D01*
X0033456Y0107471D02*
X0108301Y0107471D01*
X0108403Y0107369D02*
X0111748Y0105984D01*
X0115368Y0105984D01*
X0118713Y0107369D01*
X0121273Y0109929D01*
X0122658Y0113273D01*
X0122658Y0116894D01*
X0121273Y0120238D01*
X0118713Y0122798D01*
X0115368Y0124184D01*
X0111748Y0124184D01*
X0108403Y0122798D01*
X0105843Y0120238D01*
X0104458Y0116894D01*
X0104458Y0113273D01*
X0105843Y0109929D01*
X0108403Y0107369D01*
X0106702Y0109070D02*
X0033456Y0109070D01*
X0033456Y0110668D02*
X0105537Y0110668D01*
X0104875Y0112267D02*
X0033456Y0112267D01*
X0033456Y0113865D02*
X0104458Y0113865D01*
X0104458Y0115464D02*
X0033456Y0115464D01*
X0033456Y0117062D02*
X0104528Y0117062D01*
X0105190Y0118661D02*
X0033456Y0118661D01*
X0033456Y0120259D02*
X0105865Y0120259D01*
X0107463Y0121858D02*
X0033456Y0121858D01*
X0033456Y0123456D02*
X0109993Y0123456D01*
X0117123Y0123456D02*
X0128778Y0123456D01*
X0128778Y0121858D02*
X0119653Y0121858D01*
X0121251Y0120259D02*
X0128778Y0120259D01*
X0128778Y0118661D02*
X0121926Y0118661D01*
X0122588Y0117062D02*
X0128778Y0117062D01*
X0128778Y0115464D02*
X0122658Y0115464D01*
X0122658Y0113865D02*
X0128778Y0113865D01*
X0128778Y0112267D02*
X0122241Y0112267D01*
X0121579Y0110668D02*
X0128778Y0110668D01*
X0128778Y0109070D02*
X0120414Y0109070D01*
X0118815Y0107471D02*
X0128778Y0107471D01*
X0128778Y0125055D02*
X0033456Y0125055D01*
X0033456Y0126654D02*
X0128778Y0126654D01*
X0128778Y0128252D02*
X0033456Y0128252D01*
X0033456Y0129851D02*
X0128778Y0129851D01*
X0128778Y0131449D02*
X0033456Y0131449D01*
X0033456Y0133048D02*
X0128778Y0133048D01*
X0128778Y0134646D02*
X0033456Y0134646D01*
X0033456Y0136245D02*
X0128778Y0136245D01*
X0128778Y0137843D02*
X0033456Y0137843D01*
X0033456Y0139442D02*
X0128778Y0139442D01*
X0128778Y0141040D02*
X0033456Y0141040D01*
X0033456Y0142639D02*
X0128778Y0142639D01*
X0128778Y0144237D02*
X0033456Y0144237D01*
X0033456Y0145836D02*
X0128778Y0145836D01*
X0128778Y0147434D02*
X0033456Y0147434D01*
X0033456Y0149033D02*
X0128778Y0149033D01*
X0128778Y0150631D02*
X0033456Y0150631D01*
X0033456Y0152230D02*
X0128778Y0152230D01*
X0128778Y0153828D02*
X0033456Y0153828D01*
X0033456Y0155427D02*
X0128778Y0155427D01*
X0128778Y0157025D02*
X0033456Y0157025D01*
X0033456Y0158624D02*
X0128778Y0158624D01*
X0128778Y0160222D02*
X0033456Y0160222D01*
X0033456Y0161821D02*
X0128778Y0161821D01*
X0128778Y0163419D02*
X0033456Y0163419D01*
X0033456Y0165018D02*
X0128778Y0165018D01*
X0128778Y0166616D02*
X0033456Y0166616D01*
X0033456Y0168215D02*
X0128778Y0168215D01*
X0128778Y0169813D02*
X0033456Y0169813D01*
X0033456Y0171412D02*
X0128778Y0171412D01*
X0128778Y0173010D02*
X0033456Y0173010D01*
X0033456Y0174609D02*
X0128778Y0174609D01*
X0128778Y0176207D02*
X0033456Y0176207D01*
X0033456Y0177806D02*
X0128778Y0177806D01*
X0128778Y0179404D02*
X0033456Y0179404D01*
X0033456Y0181003D02*
X0128778Y0181003D01*
X0128778Y0182601D02*
X0118976Y0182601D01*
X0118910Y0182535D02*
X0121469Y0185095D01*
X0122855Y0188440D01*
X0122855Y0192060D01*
X0121469Y0195404D01*
X0118910Y0197964D01*
X0115565Y0199350D01*
X0111945Y0199350D01*
X0108600Y0197964D01*
X0106040Y0195404D01*
X0104655Y0192060D01*
X0104655Y0188440D01*
X0106040Y0185095D01*
X0108600Y0182535D01*
X0111945Y0181150D01*
X0115565Y0181150D01*
X0118910Y0182535D01*
X0120574Y0184200D02*
X0128778Y0184200D01*
X0128778Y0185798D02*
X0121761Y0185798D01*
X0122423Y0187397D02*
X0128778Y0187397D01*
X0128778Y0188995D02*
X0122855Y0188995D01*
X0122855Y0190594D02*
X0128778Y0190594D01*
X0128778Y0192192D02*
X0122800Y0192192D01*
X0122138Y0193791D02*
X0128778Y0193791D01*
X0128778Y0195390D02*
X0121476Y0195390D01*
X0119886Y0196988D02*
X0128778Y0196988D01*
X0128778Y0198587D02*
X0117407Y0198587D01*
X0110102Y0198587D02*
X0033456Y0198587D01*
X0033456Y0200185D02*
X0128778Y0200185D01*
X0128778Y0201784D02*
X0033456Y0201784D01*
X0033456Y0203382D02*
X0128778Y0203382D01*
X0128778Y0204981D02*
X0033456Y0204981D01*
X0033456Y0206579D02*
X0128778Y0206579D01*
X0128778Y0208178D02*
X0033456Y0208178D01*
X0033456Y0209776D02*
X0128778Y0209776D01*
X0128778Y0211375D02*
X0033456Y0211375D01*
X0033456Y0212973D02*
X0128778Y0212973D01*
X0128778Y0214572D02*
X0063771Y0214572D01*
X0063396Y0214197D02*
X0070099Y0220899D01*
X0070099Y0230379D01*
X0063396Y0237082D01*
X0053917Y0237082D01*
X0047214Y0230379D01*
X0047214Y0220899D01*
X0053917Y0214197D01*
X0063396Y0214197D01*
X0065370Y0216170D02*
X0128778Y0216170D01*
X0128778Y0217769D02*
X0066968Y0217769D01*
X0068567Y0219367D02*
X0128778Y0219367D01*
X0128778Y0220966D02*
X0070099Y0220966D01*
X0070099Y0222564D02*
X0128778Y0222564D01*
X0128778Y0224163D02*
X0070099Y0224163D01*
X0070099Y0225761D02*
X0128778Y0225761D01*
X0128778Y0227360D02*
X0070099Y0227360D01*
X0070099Y0228958D02*
X0128778Y0228958D01*
X0128778Y0230557D02*
X0069921Y0230557D01*
X0068322Y0232155D02*
X0128778Y0232155D01*
X0128778Y0233754D02*
X0066724Y0233754D01*
X0065125Y0235352D02*
X0128778Y0235352D01*
X0128778Y0236951D02*
X0063527Y0236951D01*
X0053786Y0236951D02*
X0033456Y0236951D01*
X0033456Y0238549D02*
X0128778Y0238549D01*
X0128778Y0240148D02*
X0033456Y0240148D01*
X0033456Y0241746D02*
X0110504Y0241746D01*
X0111945Y0241150D02*
X0115565Y0241150D01*
X0118910Y0242535D01*
X0121469Y0245095D01*
X0122855Y0248440D01*
X0122855Y0252060D01*
X0121469Y0255404D01*
X0118910Y0257964D01*
X0115565Y0259350D01*
X0111945Y0259350D01*
X0108600Y0257964D01*
X0106040Y0255404D01*
X0104655Y0252060D01*
X0104655Y0248440D01*
X0106040Y0245095D01*
X0108600Y0242535D01*
X0111945Y0241150D01*
X0107790Y0243345D02*
X0033456Y0243345D01*
X0033456Y0244943D02*
X0106192Y0244943D01*
X0105441Y0246542D02*
X0033456Y0246542D01*
X0033456Y0248140D02*
X0104779Y0248140D01*
X0104655Y0249739D02*
X0033456Y0249739D01*
X0033456Y0251337D02*
X0104655Y0251337D01*
X0105018Y0252936D02*
X0033456Y0252936D01*
X0033456Y0254534D02*
X0105680Y0254534D01*
X0106769Y0256133D02*
X0033456Y0256133D01*
X0033456Y0257731D02*
X0108367Y0257731D01*
X0111897Y0259330D02*
X0033456Y0259330D01*
X0033456Y0260928D02*
X0128778Y0260928D01*
X0128778Y0259330D02*
X0115613Y0259330D01*
X0119142Y0257731D02*
X0128778Y0257731D01*
X0128778Y0256133D02*
X0120741Y0256133D01*
X0121830Y0254534D02*
X0128778Y0254534D01*
X0128778Y0252936D02*
X0122492Y0252936D01*
X0122855Y0251337D02*
X0128778Y0251337D01*
X0128778Y0249739D02*
X0122855Y0249739D01*
X0122731Y0248140D02*
X0128778Y0248140D01*
X0128778Y0246542D02*
X0122069Y0246542D01*
X0121318Y0244943D02*
X0128778Y0244943D01*
X0128778Y0243345D02*
X0119719Y0243345D01*
X0117005Y0241746D02*
X0128778Y0241746D01*
X0128778Y0262527D02*
X0033456Y0262527D01*
X0033456Y0264125D02*
X0128778Y0264125D01*
X0128778Y0265724D02*
X0033456Y0265724D01*
X0033456Y0267323D02*
X0128778Y0267323D01*
X0128778Y0268921D02*
X0033456Y0268921D01*
X0033456Y0270520D02*
X0128778Y0270520D01*
X0128778Y0272118D02*
X0088325Y0272118D01*
X0088894Y0272354D02*
X0085550Y0270968D01*
X0081929Y0270968D01*
X0078585Y0272354D01*
X0076025Y0274913D01*
X0074639Y0278258D01*
X0074639Y0281878D01*
X0076025Y0285223D01*
X0078585Y0287783D01*
X0081929Y0289168D01*
X0085550Y0289168D01*
X0088894Y0287783D01*
X0091454Y0285223D01*
X0092839Y0281878D01*
X0092839Y0278258D01*
X0091454Y0274913D01*
X0088894Y0272354D01*
X0090257Y0273717D02*
X0128778Y0273717D01*
X0128778Y0275315D02*
X0091620Y0275315D01*
X0092283Y0276914D02*
X0128778Y0276914D01*
X0128778Y0278512D02*
X0092839Y0278512D01*
X0092839Y0280111D02*
X0128778Y0280111D01*
X0128778Y0281709D02*
X0092839Y0281709D01*
X0092247Y0283308D02*
X0128778Y0283308D01*
X0128778Y0284906D02*
X0091585Y0284906D01*
X0090172Y0286505D02*
X0128778Y0286505D01*
X0128778Y0288103D02*
X0088121Y0288103D01*
X0079358Y0288103D02*
X0048121Y0288103D01*
X0048894Y0287783D02*
X0045550Y0289168D01*
X0041929Y0289168D01*
X0038585Y0287783D01*
X0036025Y0285223D01*
X0034639Y0281878D01*
X0034639Y0278258D01*
X0036025Y0274913D01*
X0038585Y0272354D01*
X0041929Y0270968D01*
X0045550Y0270968D01*
X0048894Y0272354D01*
X0051454Y0274913D01*
X0052839Y0278258D01*
X0052839Y0281878D01*
X0051454Y0285223D01*
X0048894Y0287783D01*
X0050172Y0286505D02*
X0077307Y0286505D01*
X0075894Y0284906D02*
X0051585Y0284906D01*
X0052247Y0283308D02*
X0075231Y0283308D01*
X0074639Y0281709D02*
X0052839Y0281709D01*
X0052839Y0280111D02*
X0074639Y0280111D01*
X0074639Y0278512D02*
X0052839Y0278512D01*
X0052283Y0276914D02*
X0075196Y0276914D01*
X0075859Y0275315D02*
X0051620Y0275315D01*
X0050257Y0273717D02*
X0077222Y0273717D01*
X0079153Y0272118D02*
X0048325Y0272118D01*
X0039153Y0272118D02*
X0033456Y0272118D01*
X0033456Y0273717D02*
X0037222Y0273717D01*
X0035859Y0275315D02*
X0033456Y0275315D01*
X0033456Y0276914D02*
X0035196Y0276914D01*
X0034639Y0278512D02*
X0033456Y0278512D01*
X0033456Y0280111D02*
X0034639Y0280111D01*
X0034639Y0281709D02*
X0033456Y0281709D01*
X0033456Y0283308D02*
X0035231Y0283308D01*
X0035894Y0284906D02*
X0033456Y0284906D01*
X0033456Y0286505D02*
X0037307Y0286505D01*
X0039358Y0288103D02*
X0033456Y0288103D01*
X0033456Y0289702D02*
X0128778Y0289702D01*
X0128778Y0291300D02*
X0033456Y0291300D01*
X0033456Y0292899D02*
X0128778Y0292899D01*
X0107624Y0196988D02*
X0033456Y0196988D01*
X0033456Y0195390D02*
X0106034Y0195390D01*
X0105372Y0193791D02*
X0033456Y0193791D01*
X0033456Y0192192D02*
X0104710Y0192192D01*
X0104655Y0190594D02*
X0033456Y0190594D01*
X0033456Y0188995D02*
X0104655Y0188995D01*
X0105087Y0187397D02*
X0033456Y0187397D01*
X0033456Y0185798D02*
X0105749Y0185798D01*
X0106935Y0184200D02*
X0033456Y0184200D01*
X0033456Y0182601D02*
X0108534Y0182601D01*
X0053542Y0214572D02*
X0033456Y0214572D01*
X0033456Y0216170D02*
X0051943Y0216170D01*
X0050345Y0217769D02*
X0033456Y0217769D01*
X0033456Y0219367D02*
X0048746Y0219367D01*
X0047214Y0220966D02*
X0033456Y0220966D01*
X0033456Y0222564D02*
X0047214Y0222564D01*
X0047214Y0224163D02*
X0033456Y0224163D01*
X0033456Y0225761D02*
X0047214Y0225761D01*
X0047214Y0227360D02*
X0033456Y0227360D01*
X0033456Y0228958D02*
X0047214Y0228958D01*
X0047392Y0230557D02*
X0033456Y0230557D01*
X0033456Y0232155D02*
X0048990Y0232155D01*
X0050589Y0233754D02*
X0033456Y0233754D01*
X0033456Y0235352D02*
X0052187Y0235352D01*
X0053251Y0094683D02*
X0033456Y0094683D01*
X0033456Y0093085D02*
X0051652Y0093085D01*
X0050054Y0091486D02*
X0033456Y0091486D01*
X0033456Y0089888D02*
X0048455Y0089888D01*
X0047214Y0088289D02*
X0033456Y0088289D01*
X0033456Y0086691D02*
X0047214Y0086691D01*
X0047214Y0085092D02*
X0033456Y0085092D01*
X0033456Y0083494D02*
X0047214Y0083494D01*
X0047214Y0081895D02*
X0033456Y0081895D01*
X0033456Y0080297D02*
X0047214Y0080297D01*
X0047683Y0078698D02*
X0033456Y0078698D01*
X0033456Y0077100D02*
X0049281Y0077100D01*
X0050880Y0075501D02*
X0033456Y0075501D01*
X0033456Y0073903D02*
X0052478Y0073903D01*
D13*
X0048656Y0155167D03*
X0081156Y0155167D03*
X0113656Y0155167D03*
M02*
