G75*
%MOIN*%
%OFA0B0*%
%FSLAX25Y25*%
%IPPOS*%
%LPD*%
%AMOC8*
5,1,8,0,0,1.08239X$1,22.5*
%
%ADD10C,0.00000*%
%ADD11C,0.00800*%
%ADD12C,0.00500*%
D10*
X0028656Y0005167D02*
X0028656Y0298867D01*
X0133578Y0298867D01*
X0133578Y0005167D01*
X0028656Y0005167D01*
D11*
X0033739Y0009222D02*
X0093739Y0009222D01*
X0093739Y0015228D01*
X0093739Y0017130D01*
X0093739Y0032865D01*
X0093739Y0034804D01*
X0033739Y0034804D01*
X0033739Y0037481D01*
X0033739Y0039930D01*
X0033739Y0041112D01*
X0093739Y0041112D01*
X0093739Y0039930D01*
X0093739Y0038265D01*
X0093739Y0037481D01*
X0093739Y0036635D01*
X0093739Y0034804D01*
X0089913Y0029293D02*
X0086255Y0025635D01*
X0083739Y0023119D01*
X0083271Y0022651D01*
X0079515Y0018895D01*
X0077566Y0020844D02*
X0081259Y0024537D01*
X0083739Y0027017D01*
X0084369Y0027647D01*
X0087964Y0031241D01*
X0084369Y0027647D02*
X0084466Y0027621D01*
X0084561Y0027590D01*
X0084656Y0027556D01*
X0084749Y0027518D01*
X0084840Y0027477D01*
X0084930Y0027432D01*
X0085018Y0027383D01*
X0085104Y0027332D01*
X0085188Y0027276D01*
X0085270Y0027218D01*
X0085349Y0027156D01*
X0085426Y0027092D01*
X0085500Y0027024D01*
X0085571Y0026953D01*
X0085640Y0026880D01*
X0085706Y0026804D01*
X0085768Y0026726D01*
X0085828Y0026645D01*
X0085884Y0026562D01*
X0085937Y0026477D01*
X0085987Y0026389D01*
X0086033Y0026300D01*
X0086076Y0026209D01*
X0086115Y0026117D01*
X0086151Y0026023D01*
X0086182Y0025928D01*
X0086210Y0025831D01*
X0086234Y0025734D01*
X0086255Y0025635D01*
X0083271Y0022651D02*
X0083172Y0022672D01*
X0083075Y0022696D01*
X0082978Y0022724D01*
X0082883Y0022755D01*
X0082789Y0022791D01*
X0082697Y0022830D01*
X0082606Y0022873D01*
X0082517Y0022919D01*
X0082429Y0022969D01*
X0082344Y0023022D01*
X0082261Y0023078D01*
X0082180Y0023138D01*
X0082102Y0023200D01*
X0082026Y0023266D01*
X0081953Y0023335D01*
X0081882Y0023406D01*
X0081814Y0023480D01*
X0081750Y0023557D01*
X0081688Y0023636D01*
X0081630Y0023718D01*
X0081574Y0023802D01*
X0081523Y0023888D01*
X0081474Y0023976D01*
X0081429Y0024066D01*
X0081388Y0024157D01*
X0081350Y0024250D01*
X0081316Y0024345D01*
X0081285Y0024440D01*
X0081259Y0024537D01*
X0076200Y0025068D02*
X0076202Y0025253D01*
X0076209Y0025438D01*
X0076220Y0025623D01*
X0076236Y0025807D01*
X0076257Y0025991D01*
X0076282Y0026174D01*
X0076311Y0026357D01*
X0076345Y0026539D01*
X0076383Y0026720D01*
X0076426Y0026900D01*
X0076473Y0027079D01*
X0076525Y0027256D01*
X0076581Y0027433D01*
X0076641Y0027608D01*
X0076705Y0027781D01*
X0076774Y0027953D01*
X0076847Y0028123D01*
X0076924Y0028291D01*
X0077005Y0028458D01*
X0077090Y0028622D01*
X0077179Y0028784D01*
X0077273Y0028944D01*
X0077370Y0029101D01*
X0077471Y0029256D01*
X0077575Y0029409D01*
X0077684Y0029559D01*
X0077796Y0029706D01*
X0077911Y0029851D01*
X0078030Y0029992D01*
X0078153Y0030131D01*
X0078279Y0030266D01*
X0078408Y0030399D01*
X0078541Y0030528D01*
X0078676Y0030654D01*
X0078815Y0030777D01*
X0078956Y0030896D01*
X0079101Y0031011D01*
X0079248Y0031123D01*
X0079398Y0031232D01*
X0079551Y0031336D01*
X0079706Y0031437D01*
X0079863Y0031534D01*
X0080023Y0031628D01*
X0080185Y0031717D01*
X0080349Y0031802D01*
X0080516Y0031883D01*
X0080684Y0031960D01*
X0080854Y0032033D01*
X0081026Y0032102D01*
X0081199Y0032166D01*
X0081374Y0032226D01*
X0081551Y0032282D01*
X0081728Y0032334D01*
X0081907Y0032381D01*
X0082087Y0032424D01*
X0082268Y0032462D01*
X0082450Y0032496D01*
X0082633Y0032525D01*
X0082816Y0032550D01*
X0083000Y0032571D01*
X0083184Y0032587D01*
X0083369Y0032598D01*
X0083554Y0032605D01*
X0083739Y0032607D01*
X0083924Y0032605D01*
X0084109Y0032598D01*
X0084294Y0032587D01*
X0084478Y0032571D01*
X0084662Y0032550D01*
X0084845Y0032525D01*
X0085028Y0032496D01*
X0085210Y0032462D01*
X0085391Y0032424D01*
X0085571Y0032381D01*
X0085750Y0032334D01*
X0085927Y0032282D01*
X0086104Y0032226D01*
X0086279Y0032166D01*
X0086452Y0032102D01*
X0086624Y0032033D01*
X0086794Y0031960D01*
X0086962Y0031883D01*
X0087129Y0031802D01*
X0087293Y0031717D01*
X0087455Y0031628D01*
X0087615Y0031534D01*
X0087772Y0031437D01*
X0087927Y0031336D01*
X0088080Y0031232D01*
X0088230Y0031123D01*
X0088377Y0031011D01*
X0088522Y0030896D01*
X0088663Y0030777D01*
X0088802Y0030654D01*
X0088937Y0030528D01*
X0089070Y0030399D01*
X0089199Y0030266D01*
X0089325Y0030131D01*
X0089448Y0029992D01*
X0089567Y0029851D01*
X0089682Y0029706D01*
X0089794Y0029559D01*
X0089903Y0029409D01*
X0090007Y0029256D01*
X0090108Y0029101D01*
X0090205Y0028944D01*
X0090299Y0028784D01*
X0090388Y0028622D01*
X0090473Y0028458D01*
X0090554Y0028291D01*
X0090631Y0028123D01*
X0090704Y0027953D01*
X0090773Y0027781D01*
X0090837Y0027608D01*
X0090897Y0027433D01*
X0090953Y0027256D01*
X0091005Y0027079D01*
X0091052Y0026900D01*
X0091095Y0026720D01*
X0091133Y0026539D01*
X0091167Y0026357D01*
X0091196Y0026174D01*
X0091221Y0025991D01*
X0091242Y0025807D01*
X0091258Y0025623D01*
X0091269Y0025438D01*
X0091276Y0025253D01*
X0091278Y0025068D01*
X0091276Y0024883D01*
X0091269Y0024698D01*
X0091258Y0024513D01*
X0091242Y0024329D01*
X0091221Y0024145D01*
X0091196Y0023962D01*
X0091167Y0023779D01*
X0091133Y0023597D01*
X0091095Y0023416D01*
X0091052Y0023236D01*
X0091005Y0023057D01*
X0090953Y0022880D01*
X0090897Y0022703D01*
X0090837Y0022528D01*
X0090773Y0022355D01*
X0090704Y0022183D01*
X0090631Y0022013D01*
X0090554Y0021845D01*
X0090473Y0021678D01*
X0090388Y0021514D01*
X0090299Y0021352D01*
X0090205Y0021192D01*
X0090108Y0021035D01*
X0090007Y0020880D01*
X0089903Y0020727D01*
X0089794Y0020577D01*
X0089682Y0020430D01*
X0089567Y0020285D01*
X0089448Y0020144D01*
X0089325Y0020005D01*
X0089199Y0019870D01*
X0089070Y0019737D01*
X0088937Y0019608D01*
X0088802Y0019482D01*
X0088663Y0019359D01*
X0088522Y0019240D01*
X0088377Y0019125D01*
X0088230Y0019013D01*
X0088080Y0018904D01*
X0087927Y0018800D01*
X0087772Y0018699D01*
X0087615Y0018602D01*
X0087455Y0018508D01*
X0087293Y0018419D01*
X0087129Y0018334D01*
X0086962Y0018253D01*
X0086794Y0018176D01*
X0086624Y0018103D01*
X0086452Y0018034D01*
X0086279Y0017970D01*
X0086104Y0017910D01*
X0085927Y0017854D01*
X0085750Y0017802D01*
X0085571Y0017755D01*
X0085391Y0017712D01*
X0085210Y0017674D01*
X0085028Y0017640D01*
X0084845Y0017611D01*
X0084662Y0017586D01*
X0084478Y0017565D01*
X0084294Y0017549D01*
X0084109Y0017538D01*
X0083924Y0017531D01*
X0083739Y0017529D01*
X0083554Y0017531D01*
X0083369Y0017538D01*
X0083184Y0017549D01*
X0083000Y0017565D01*
X0082816Y0017586D01*
X0082633Y0017611D01*
X0082450Y0017640D01*
X0082268Y0017674D01*
X0082087Y0017712D01*
X0081907Y0017755D01*
X0081728Y0017802D01*
X0081551Y0017854D01*
X0081374Y0017910D01*
X0081199Y0017970D01*
X0081026Y0018034D01*
X0080854Y0018103D01*
X0080684Y0018176D01*
X0080516Y0018253D01*
X0080349Y0018334D01*
X0080185Y0018419D01*
X0080023Y0018508D01*
X0079863Y0018602D01*
X0079706Y0018699D01*
X0079551Y0018800D01*
X0079398Y0018904D01*
X0079248Y0019013D01*
X0079101Y0019125D01*
X0078956Y0019240D01*
X0078815Y0019359D01*
X0078676Y0019482D01*
X0078541Y0019608D01*
X0078408Y0019737D01*
X0078279Y0019870D01*
X0078153Y0020005D01*
X0078030Y0020144D01*
X0077911Y0020285D01*
X0077796Y0020430D01*
X0077684Y0020577D01*
X0077575Y0020727D01*
X0077471Y0020880D01*
X0077370Y0021035D01*
X0077273Y0021192D01*
X0077179Y0021352D01*
X0077090Y0021514D01*
X0077005Y0021678D01*
X0076924Y0021845D01*
X0076847Y0022013D01*
X0076774Y0022183D01*
X0076705Y0022355D01*
X0076641Y0022528D01*
X0076581Y0022703D01*
X0076525Y0022880D01*
X0076473Y0023057D01*
X0076426Y0023236D01*
X0076383Y0023416D01*
X0076345Y0023597D01*
X0076311Y0023779D01*
X0076282Y0023962D01*
X0076257Y0024145D01*
X0076236Y0024329D01*
X0076220Y0024513D01*
X0076209Y0024698D01*
X0076202Y0024883D01*
X0076200Y0025068D01*
X0069913Y0029293D02*
X0066255Y0025635D01*
X0063739Y0023119D01*
X0063271Y0022651D01*
X0059515Y0018895D01*
X0057566Y0020844D02*
X0061259Y0024537D01*
X0063739Y0027017D01*
X0064369Y0027647D01*
X0067964Y0031241D01*
X0064369Y0027647D02*
X0064466Y0027621D01*
X0064561Y0027590D01*
X0064656Y0027556D01*
X0064749Y0027518D01*
X0064840Y0027477D01*
X0064930Y0027432D01*
X0065018Y0027383D01*
X0065104Y0027332D01*
X0065188Y0027276D01*
X0065270Y0027218D01*
X0065349Y0027156D01*
X0065426Y0027092D01*
X0065500Y0027024D01*
X0065571Y0026953D01*
X0065640Y0026880D01*
X0065706Y0026804D01*
X0065768Y0026726D01*
X0065828Y0026645D01*
X0065884Y0026562D01*
X0065937Y0026477D01*
X0065987Y0026389D01*
X0066033Y0026300D01*
X0066076Y0026209D01*
X0066115Y0026117D01*
X0066151Y0026023D01*
X0066182Y0025928D01*
X0066210Y0025831D01*
X0066234Y0025734D01*
X0066255Y0025635D01*
X0063271Y0022651D02*
X0063172Y0022672D01*
X0063075Y0022696D01*
X0062978Y0022724D01*
X0062883Y0022755D01*
X0062789Y0022791D01*
X0062697Y0022830D01*
X0062606Y0022873D01*
X0062517Y0022919D01*
X0062429Y0022969D01*
X0062344Y0023022D01*
X0062261Y0023078D01*
X0062180Y0023138D01*
X0062102Y0023200D01*
X0062026Y0023266D01*
X0061953Y0023335D01*
X0061882Y0023406D01*
X0061814Y0023480D01*
X0061750Y0023557D01*
X0061688Y0023636D01*
X0061630Y0023718D01*
X0061574Y0023802D01*
X0061523Y0023888D01*
X0061474Y0023976D01*
X0061429Y0024066D01*
X0061388Y0024157D01*
X0061350Y0024250D01*
X0061316Y0024345D01*
X0061285Y0024440D01*
X0061259Y0024537D01*
X0056200Y0025068D02*
X0056202Y0025253D01*
X0056209Y0025438D01*
X0056220Y0025623D01*
X0056236Y0025807D01*
X0056257Y0025991D01*
X0056282Y0026174D01*
X0056311Y0026357D01*
X0056345Y0026539D01*
X0056383Y0026720D01*
X0056426Y0026900D01*
X0056473Y0027079D01*
X0056525Y0027256D01*
X0056581Y0027433D01*
X0056641Y0027608D01*
X0056705Y0027781D01*
X0056774Y0027953D01*
X0056847Y0028123D01*
X0056924Y0028291D01*
X0057005Y0028458D01*
X0057090Y0028622D01*
X0057179Y0028784D01*
X0057273Y0028944D01*
X0057370Y0029101D01*
X0057471Y0029256D01*
X0057575Y0029409D01*
X0057684Y0029559D01*
X0057796Y0029706D01*
X0057911Y0029851D01*
X0058030Y0029992D01*
X0058153Y0030131D01*
X0058279Y0030266D01*
X0058408Y0030399D01*
X0058541Y0030528D01*
X0058676Y0030654D01*
X0058815Y0030777D01*
X0058956Y0030896D01*
X0059101Y0031011D01*
X0059248Y0031123D01*
X0059398Y0031232D01*
X0059551Y0031336D01*
X0059706Y0031437D01*
X0059863Y0031534D01*
X0060023Y0031628D01*
X0060185Y0031717D01*
X0060349Y0031802D01*
X0060516Y0031883D01*
X0060684Y0031960D01*
X0060854Y0032033D01*
X0061026Y0032102D01*
X0061199Y0032166D01*
X0061374Y0032226D01*
X0061551Y0032282D01*
X0061728Y0032334D01*
X0061907Y0032381D01*
X0062087Y0032424D01*
X0062268Y0032462D01*
X0062450Y0032496D01*
X0062633Y0032525D01*
X0062816Y0032550D01*
X0063000Y0032571D01*
X0063184Y0032587D01*
X0063369Y0032598D01*
X0063554Y0032605D01*
X0063739Y0032607D01*
X0063924Y0032605D01*
X0064109Y0032598D01*
X0064294Y0032587D01*
X0064478Y0032571D01*
X0064662Y0032550D01*
X0064845Y0032525D01*
X0065028Y0032496D01*
X0065210Y0032462D01*
X0065391Y0032424D01*
X0065571Y0032381D01*
X0065750Y0032334D01*
X0065927Y0032282D01*
X0066104Y0032226D01*
X0066279Y0032166D01*
X0066452Y0032102D01*
X0066624Y0032033D01*
X0066794Y0031960D01*
X0066962Y0031883D01*
X0067129Y0031802D01*
X0067293Y0031717D01*
X0067455Y0031628D01*
X0067615Y0031534D01*
X0067772Y0031437D01*
X0067927Y0031336D01*
X0068080Y0031232D01*
X0068230Y0031123D01*
X0068377Y0031011D01*
X0068522Y0030896D01*
X0068663Y0030777D01*
X0068802Y0030654D01*
X0068937Y0030528D01*
X0069070Y0030399D01*
X0069199Y0030266D01*
X0069325Y0030131D01*
X0069448Y0029992D01*
X0069567Y0029851D01*
X0069682Y0029706D01*
X0069794Y0029559D01*
X0069903Y0029409D01*
X0070007Y0029256D01*
X0070108Y0029101D01*
X0070205Y0028944D01*
X0070299Y0028784D01*
X0070388Y0028622D01*
X0070473Y0028458D01*
X0070554Y0028291D01*
X0070631Y0028123D01*
X0070704Y0027953D01*
X0070773Y0027781D01*
X0070837Y0027608D01*
X0070897Y0027433D01*
X0070953Y0027256D01*
X0071005Y0027079D01*
X0071052Y0026900D01*
X0071095Y0026720D01*
X0071133Y0026539D01*
X0071167Y0026357D01*
X0071196Y0026174D01*
X0071221Y0025991D01*
X0071242Y0025807D01*
X0071258Y0025623D01*
X0071269Y0025438D01*
X0071276Y0025253D01*
X0071278Y0025068D01*
X0071276Y0024883D01*
X0071269Y0024698D01*
X0071258Y0024513D01*
X0071242Y0024329D01*
X0071221Y0024145D01*
X0071196Y0023962D01*
X0071167Y0023779D01*
X0071133Y0023597D01*
X0071095Y0023416D01*
X0071052Y0023236D01*
X0071005Y0023057D01*
X0070953Y0022880D01*
X0070897Y0022703D01*
X0070837Y0022528D01*
X0070773Y0022355D01*
X0070704Y0022183D01*
X0070631Y0022013D01*
X0070554Y0021845D01*
X0070473Y0021678D01*
X0070388Y0021514D01*
X0070299Y0021352D01*
X0070205Y0021192D01*
X0070108Y0021035D01*
X0070007Y0020880D01*
X0069903Y0020727D01*
X0069794Y0020577D01*
X0069682Y0020430D01*
X0069567Y0020285D01*
X0069448Y0020144D01*
X0069325Y0020005D01*
X0069199Y0019870D01*
X0069070Y0019737D01*
X0068937Y0019608D01*
X0068802Y0019482D01*
X0068663Y0019359D01*
X0068522Y0019240D01*
X0068377Y0019125D01*
X0068230Y0019013D01*
X0068080Y0018904D01*
X0067927Y0018800D01*
X0067772Y0018699D01*
X0067615Y0018602D01*
X0067455Y0018508D01*
X0067293Y0018419D01*
X0067129Y0018334D01*
X0066962Y0018253D01*
X0066794Y0018176D01*
X0066624Y0018103D01*
X0066452Y0018034D01*
X0066279Y0017970D01*
X0066104Y0017910D01*
X0065927Y0017854D01*
X0065750Y0017802D01*
X0065571Y0017755D01*
X0065391Y0017712D01*
X0065210Y0017674D01*
X0065028Y0017640D01*
X0064845Y0017611D01*
X0064662Y0017586D01*
X0064478Y0017565D01*
X0064294Y0017549D01*
X0064109Y0017538D01*
X0063924Y0017531D01*
X0063739Y0017529D01*
X0063554Y0017531D01*
X0063369Y0017538D01*
X0063184Y0017549D01*
X0063000Y0017565D01*
X0062816Y0017586D01*
X0062633Y0017611D01*
X0062450Y0017640D01*
X0062268Y0017674D01*
X0062087Y0017712D01*
X0061907Y0017755D01*
X0061728Y0017802D01*
X0061551Y0017854D01*
X0061374Y0017910D01*
X0061199Y0017970D01*
X0061026Y0018034D01*
X0060854Y0018103D01*
X0060684Y0018176D01*
X0060516Y0018253D01*
X0060349Y0018334D01*
X0060185Y0018419D01*
X0060023Y0018508D01*
X0059863Y0018602D01*
X0059706Y0018699D01*
X0059551Y0018800D01*
X0059398Y0018904D01*
X0059248Y0019013D01*
X0059101Y0019125D01*
X0058956Y0019240D01*
X0058815Y0019359D01*
X0058676Y0019482D01*
X0058541Y0019608D01*
X0058408Y0019737D01*
X0058279Y0019870D01*
X0058153Y0020005D01*
X0058030Y0020144D01*
X0057911Y0020285D01*
X0057796Y0020430D01*
X0057684Y0020577D01*
X0057575Y0020727D01*
X0057471Y0020880D01*
X0057370Y0021035D01*
X0057273Y0021192D01*
X0057179Y0021352D01*
X0057090Y0021514D01*
X0057005Y0021678D01*
X0056924Y0021845D01*
X0056847Y0022013D01*
X0056774Y0022183D01*
X0056705Y0022355D01*
X0056641Y0022528D01*
X0056581Y0022703D01*
X0056525Y0022880D01*
X0056473Y0023057D01*
X0056426Y0023236D01*
X0056383Y0023416D01*
X0056345Y0023597D01*
X0056311Y0023779D01*
X0056282Y0023962D01*
X0056257Y0024145D01*
X0056236Y0024329D01*
X0056220Y0024513D01*
X0056209Y0024698D01*
X0056202Y0024883D01*
X0056200Y0025068D01*
X0049913Y0029293D02*
X0046255Y0025635D01*
X0043739Y0023119D01*
X0043271Y0022651D01*
X0039515Y0018895D01*
X0037566Y0020844D02*
X0041259Y0024537D01*
X0043739Y0027017D01*
X0044369Y0027647D01*
X0047964Y0031241D01*
X0044369Y0027647D02*
X0044466Y0027621D01*
X0044561Y0027590D01*
X0044656Y0027556D01*
X0044749Y0027518D01*
X0044840Y0027477D01*
X0044930Y0027432D01*
X0045018Y0027383D01*
X0045104Y0027332D01*
X0045188Y0027276D01*
X0045270Y0027218D01*
X0045349Y0027156D01*
X0045426Y0027092D01*
X0045500Y0027024D01*
X0045571Y0026953D01*
X0045640Y0026880D01*
X0045706Y0026804D01*
X0045768Y0026726D01*
X0045828Y0026645D01*
X0045884Y0026562D01*
X0045937Y0026477D01*
X0045987Y0026389D01*
X0046033Y0026300D01*
X0046076Y0026209D01*
X0046115Y0026117D01*
X0046151Y0026023D01*
X0046182Y0025928D01*
X0046210Y0025831D01*
X0046234Y0025734D01*
X0046255Y0025635D01*
X0043271Y0022651D02*
X0043172Y0022672D01*
X0043075Y0022696D01*
X0042978Y0022724D01*
X0042883Y0022755D01*
X0042789Y0022791D01*
X0042697Y0022830D01*
X0042606Y0022873D01*
X0042517Y0022919D01*
X0042429Y0022969D01*
X0042344Y0023022D01*
X0042261Y0023078D01*
X0042180Y0023138D01*
X0042102Y0023200D01*
X0042026Y0023266D01*
X0041953Y0023335D01*
X0041882Y0023406D01*
X0041814Y0023480D01*
X0041750Y0023557D01*
X0041688Y0023636D01*
X0041630Y0023718D01*
X0041574Y0023802D01*
X0041523Y0023888D01*
X0041474Y0023976D01*
X0041429Y0024066D01*
X0041388Y0024157D01*
X0041350Y0024250D01*
X0041316Y0024345D01*
X0041285Y0024440D01*
X0041259Y0024537D01*
X0036200Y0025068D02*
X0036202Y0025253D01*
X0036209Y0025438D01*
X0036220Y0025623D01*
X0036236Y0025807D01*
X0036257Y0025991D01*
X0036282Y0026174D01*
X0036311Y0026357D01*
X0036345Y0026539D01*
X0036383Y0026720D01*
X0036426Y0026900D01*
X0036473Y0027079D01*
X0036525Y0027256D01*
X0036581Y0027433D01*
X0036641Y0027608D01*
X0036705Y0027781D01*
X0036774Y0027953D01*
X0036847Y0028123D01*
X0036924Y0028291D01*
X0037005Y0028458D01*
X0037090Y0028622D01*
X0037179Y0028784D01*
X0037273Y0028944D01*
X0037370Y0029101D01*
X0037471Y0029256D01*
X0037575Y0029409D01*
X0037684Y0029559D01*
X0037796Y0029706D01*
X0037911Y0029851D01*
X0038030Y0029992D01*
X0038153Y0030131D01*
X0038279Y0030266D01*
X0038408Y0030399D01*
X0038541Y0030528D01*
X0038676Y0030654D01*
X0038815Y0030777D01*
X0038956Y0030896D01*
X0039101Y0031011D01*
X0039248Y0031123D01*
X0039398Y0031232D01*
X0039551Y0031336D01*
X0039706Y0031437D01*
X0039863Y0031534D01*
X0040023Y0031628D01*
X0040185Y0031717D01*
X0040349Y0031802D01*
X0040516Y0031883D01*
X0040684Y0031960D01*
X0040854Y0032033D01*
X0041026Y0032102D01*
X0041199Y0032166D01*
X0041374Y0032226D01*
X0041551Y0032282D01*
X0041728Y0032334D01*
X0041907Y0032381D01*
X0042087Y0032424D01*
X0042268Y0032462D01*
X0042450Y0032496D01*
X0042633Y0032525D01*
X0042816Y0032550D01*
X0043000Y0032571D01*
X0043184Y0032587D01*
X0043369Y0032598D01*
X0043554Y0032605D01*
X0043739Y0032607D01*
X0043924Y0032605D01*
X0044109Y0032598D01*
X0044294Y0032587D01*
X0044478Y0032571D01*
X0044662Y0032550D01*
X0044845Y0032525D01*
X0045028Y0032496D01*
X0045210Y0032462D01*
X0045391Y0032424D01*
X0045571Y0032381D01*
X0045750Y0032334D01*
X0045927Y0032282D01*
X0046104Y0032226D01*
X0046279Y0032166D01*
X0046452Y0032102D01*
X0046624Y0032033D01*
X0046794Y0031960D01*
X0046962Y0031883D01*
X0047129Y0031802D01*
X0047293Y0031717D01*
X0047455Y0031628D01*
X0047615Y0031534D01*
X0047772Y0031437D01*
X0047927Y0031336D01*
X0048080Y0031232D01*
X0048230Y0031123D01*
X0048377Y0031011D01*
X0048522Y0030896D01*
X0048663Y0030777D01*
X0048802Y0030654D01*
X0048937Y0030528D01*
X0049070Y0030399D01*
X0049199Y0030266D01*
X0049325Y0030131D01*
X0049448Y0029992D01*
X0049567Y0029851D01*
X0049682Y0029706D01*
X0049794Y0029559D01*
X0049903Y0029409D01*
X0050007Y0029256D01*
X0050108Y0029101D01*
X0050205Y0028944D01*
X0050299Y0028784D01*
X0050388Y0028622D01*
X0050473Y0028458D01*
X0050554Y0028291D01*
X0050631Y0028123D01*
X0050704Y0027953D01*
X0050773Y0027781D01*
X0050837Y0027608D01*
X0050897Y0027433D01*
X0050953Y0027256D01*
X0051005Y0027079D01*
X0051052Y0026900D01*
X0051095Y0026720D01*
X0051133Y0026539D01*
X0051167Y0026357D01*
X0051196Y0026174D01*
X0051221Y0025991D01*
X0051242Y0025807D01*
X0051258Y0025623D01*
X0051269Y0025438D01*
X0051276Y0025253D01*
X0051278Y0025068D01*
X0051276Y0024883D01*
X0051269Y0024698D01*
X0051258Y0024513D01*
X0051242Y0024329D01*
X0051221Y0024145D01*
X0051196Y0023962D01*
X0051167Y0023779D01*
X0051133Y0023597D01*
X0051095Y0023416D01*
X0051052Y0023236D01*
X0051005Y0023057D01*
X0050953Y0022880D01*
X0050897Y0022703D01*
X0050837Y0022528D01*
X0050773Y0022355D01*
X0050704Y0022183D01*
X0050631Y0022013D01*
X0050554Y0021845D01*
X0050473Y0021678D01*
X0050388Y0021514D01*
X0050299Y0021352D01*
X0050205Y0021192D01*
X0050108Y0021035D01*
X0050007Y0020880D01*
X0049903Y0020727D01*
X0049794Y0020577D01*
X0049682Y0020430D01*
X0049567Y0020285D01*
X0049448Y0020144D01*
X0049325Y0020005D01*
X0049199Y0019870D01*
X0049070Y0019737D01*
X0048937Y0019608D01*
X0048802Y0019482D01*
X0048663Y0019359D01*
X0048522Y0019240D01*
X0048377Y0019125D01*
X0048230Y0019013D01*
X0048080Y0018904D01*
X0047927Y0018800D01*
X0047772Y0018699D01*
X0047615Y0018602D01*
X0047455Y0018508D01*
X0047293Y0018419D01*
X0047129Y0018334D01*
X0046962Y0018253D01*
X0046794Y0018176D01*
X0046624Y0018103D01*
X0046452Y0018034D01*
X0046279Y0017970D01*
X0046104Y0017910D01*
X0045927Y0017854D01*
X0045750Y0017802D01*
X0045571Y0017755D01*
X0045391Y0017712D01*
X0045210Y0017674D01*
X0045028Y0017640D01*
X0044845Y0017611D01*
X0044662Y0017586D01*
X0044478Y0017565D01*
X0044294Y0017549D01*
X0044109Y0017538D01*
X0043924Y0017531D01*
X0043739Y0017529D01*
X0043554Y0017531D01*
X0043369Y0017538D01*
X0043184Y0017549D01*
X0043000Y0017565D01*
X0042816Y0017586D01*
X0042633Y0017611D01*
X0042450Y0017640D01*
X0042268Y0017674D01*
X0042087Y0017712D01*
X0041907Y0017755D01*
X0041728Y0017802D01*
X0041551Y0017854D01*
X0041374Y0017910D01*
X0041199Y0017970D01*
X0041026Y0018034D01*
X0040854Y0018103D01*
X0040684Y0018176D01*
X0040516Y0018253D01*
X0040349Y0018334D01*
X0040185Y0018419D01*
X0040023Y0018508D01*
X0039863Y0018602D01*
X0039706Y0018699D01*
X0039551Y0018800D01*
X0039398Y0018904D01*
X0039248Y0019013D01*
X0039101Y0019125D01*
X0038956Y0019240D01*
X0038815Y0019359D01*
X0038676Y0019482D01*
X0038541Y0019608D01*
X0038408Y0019737D01*
X0038279Y0019870D01*
X0038153Y0020005D01*
X0038030Y0020144D01*
X0037911Y0020285D01*
X0037796Y0020430D01*
X0037684Y0020577D01*
X0037575Y0020727D01*
X0037471Y0020880D01*
X0037370Y0021035D01*
X0037273Y0021192D01*
X0037179Y0021352D01*
X0037090Y0021514D01*
X0037005Y0021678D01*
X0036924Y0021845D01*
X0036847Y0022013D01*
X0036774Y0022183D01*
X0036705Y0022355D01*
X0036641Y0022528D01*
X0036581Y0022703D01*
X0036525Y0022880D01*
X0036473Y0023057D01*
X0036426Y0023236D01*
X0036383Y0023416D01*
X0036345Y0023597D01*
X0036311Y0023779D01*
X0036282Y0023962D01*
X0036257Y0024145D01*
X0036236Y0024329D01*
X0036220Y0024513D01*
X0036209Y0024698D01*
X0036202Y0024883D01*
X0036200Y0025068D01*
X0033739Y0032865D02*
X0033739Y0017130D01*
X0033739Y0015228D01*
X0033739Y0009222D01*
X0033739Y0032865D02*
X0033739Y0034804D01*
X0088794Y0058474D02*
X0093519Y0058474D01*
X0093519Y0071860D01*
X0088794Y0071860D01*
X0088794Y0058474D01*
X0088794Y0062474D02*
X0088794Y0067860D01*
X0093519Y0067860D02*
X0093519Y0062474D01*
X0107385Y0059308D02*
X0111141Y0055552D01*
X0114125Y0052568D01*
X0117782Y0048910D01*
X0119731Y0050859D02*
X0116137Y0054454D01*
X0113026Y0057564D01*
X0109334Y0061257D01*
X0106019Y0055084D02*
X0106021Y0055269D01*
X0106028Y0055454D01*
X0106039Y0055639D01*
X0106055Y0055823D01*
X0106076Y0056007D01*
X0106101Y0056190D01*
X0106130Y0056373D01*
X0106164Y0056555D01*
X0106202Y0056736D01*
X0106245Y0056916D01*
X0106292Y0057095D01*
X0106344Y0057272D01*
X0106400Y0057449D01*
X0106460Y0057624D01*
X0106524Y0057797D01*
X0106593Y0057969D01*
X0106666Y0058139D01*
X0106743Y0058307D01*
X0106824Y0058474D01*
X0106909Y0058638D01*
X0106998Y0058800D01*
X0107092Y0058960D01*
X0107189Y0059117D01*
X0107290Y0059272D01*
X0107394Y0059425D01*
X0107503Y0059575D01*
X0107615Y0059722D01*
X0107730Y0059867D01*
X0107849Y0060008D01*
X0107972Y0060147D01*
X0108098Y0060282D01*
X0108227Y0060415D01*
X0108360Y0060544D01*
X0108495Y0060670D01*
X0108634Y0060793D01*
X0108775Y0060912D01*
X0108920Y0061027D01*
X0109067Y0061139D01*
X0109217Y0061248D01*
X0109370Y0061352D01*
X0109525Y0061453D01*
X0109682Y0061550D01*
X0109842Y0061644D01*
X0110004Y0061733D01*
X0110168Y0061818D01*
X0110335Y0061899D01*
X0110503Y0061976D01*
X0110673Y0062049D01*
X0110845Y0062118D01*
X0111018Y0062182D01*
X0111193Y0062242D01*
X0111370Y0062298D01*
X0111547Y0062350D01*
X0111726Y0062397D01*
X0111906Y0062440D01*
X0112087Y0062478D01*
X0112269Y0062512D01*
X0112452Y0062541D01*
X0112635Y0062566D01*
X0112819Y0062587D01*
X0113003Y0062603D01*
X0113188Y0062614D01*
X0113373Y0062621D01*
X0113558Y0062623D01*
X0113743Y0062621D01*
X0113928Y0062614D01*
X0114113Y0062603D01*
X0114297Y0062587D01*
X0114481Y0062566D01*
X0114664Y0062541D01*
X0114847Y0062512D01*
X0115029Y0062478D01*
X0115210Y0062440D01*
X0115390Y0062397D01*
X0115569Y0062350D01*
X0115746Y0062298D01*
X0115923Y0062242D01*
X0116098Y0062182D01*
X0116271Y0062118D01*
X0116443Y0062049D01*
X0116613Y0061976D01*
X0116781Y0061899D01*
X0116948Y0061818D01*
X0117112Y0061733D01*
X0117274Y0061644D01*
X0117434Y0061550D01*
X0117591Y0061453D01*
X0117746Y0061352D01*
X0117899Y0061248D01*
X0118049Y0061139D01*
X0118196Y0061027D01*
X0118341Y0060912D01*
X0118482Y0060793D01*
X0118621Y0060670D01*
X0118756Y0060544D01*
X0118889Y0060415D01*
X0119018Y0060282D01*
X0119144Y0060147D01*
X0119267Y0060008D01*
X0119386Y0059867D01*
X0119501Y0059722D01*
X0119613Y0059575D01*
X0119722Y0059425D01*
X0119826Y0059272D01*
X0119927Y0059117D01*
X0120024Y0058960D01*
X0120118Y0058800D01*
X0120207Y0058638D01*
X0120292Y0058474D01*
X0120373Y0058307D01*
X0120450Y0058139D01*
X0120523Y0057969D01*
X0120592Y0057797D01*
X0120656Y0057624D01*
X0120716Y0057449D01*
X0120772Y0057272D01*
X0120824Y0057095D01*
X0120871Y0056916D01*
X0120914Y0056736D01*
X0120952Y0056555D01*
X0120986Y0056373D01*
X0121015Y0056190D01*
X0121040Y0056007D01*
X0121061Y0055823D01*
X0121077Y0055639D01*
X0121088Y0055454D01*
X0121095Y0055269D01*
X0121097Y0055084D01*
X0121095Y0054899D01*
X0121088Y0054714D01*
X0121077Y0054529D01*
X0121061Y0054345D01*
X0121040Y0054161D01*
X0121015Y0053978D01*
X0120986Y0053795D01*
X0120952Y0053613D01*
X0120914Y0053432D01*
X0120871Y0053252D01*
X0120824Y0053073D01*
X0120772Y0052896D01*
X0120716Y0052719D01*
X0120656Y0052544D01*
X0120592Y0052371D01*
X0120523Y0052199D01*
X0120450Y0052029D01*
X0120373Y0051861D01*
X0120292Y0051694D01*
X0120207Y0051530D01*
X0120118Y0051368D01*
X0120024Y0051208D01*
X0119927Y0051051D01*
X0119826Y0050896D01*
X0119722Y0050743D01*
X0119613Y0050593D01*
X0119501Y0050446D01*
X0119386Y0050301D01*
X0119267Y0050160D01*
X0119144Y0050021D01*
X0119018Y0049886D01*
X0118889Y0049753D01*
X0118756Y0049624D01*
X0118621Y0049498D01*
X0118482Y0049375D01*
X0118341Y0049256D01*
X0118196Y0049141D01*
X0118049Y0049029D01*
X0117899Y0048920D01*
X0117746Y0048816D01*
X0117591Y0048715D01*
X0117434Y0048618D01*
X0117274Y0048524D01*
X0117112Y0048435D01*
X0116948Y0048350D01*
X0116781Y0048269D01*
X0116613Y0048192D01*
X0116443Y0048119D01*
X0116271Y0048050D01*
X0116098Y0047986D01*
X0115923Y0047926D01*
X0115746Y0047870D01*
X0115569Y0047818D01*
X0115390Y0047771D01*
X0115210Y0047728D01*
X0115029Y0047690D01*
X0114847Y0047656D01*
X0114664Y0047627D01*
X0114481Y0047602D01*
X0114297Y0047581D01*
X0114113Y0047565D01*
X0113928Y0047554D01*
X0113743Y0047547D01*
X0113558Y0047545D01*
X0113373Y0047547D01*
X0113188Y0047554D01*
X0113003Y0047565D01*
X0112819Y0047581D01*
X0112635Y0047602D01*
X0112452Y0047627D01*
X0112269Y0047656D01*
X0112087Y0047690D01*
X0111906Y0047728D01*
X0111726Y0047771D01*
X0111547Y0047818D01*
X0111370Y0047870D01*
X0111193Y0047926D01*
X0111018Y0047986D01*
X0110845Y0048050D01*
X0110673Y0048119D01*
X0110503Y0048192D01*
X0110335Y0048269D01*
X0110168Y0048350D01*
X0110004Y0048435D01*
X0109842Y0048524D01*
X0109682Y0048618D01*
X0109525Y0048715D01*
X0109370Y0048816D01*
X0109217Y0048920D01*
X0109067Y0049029D01*
X0108920Y0049141D01*
X0108775Y0049256D01*
X0108634Y0049375D01*
X0108495Y0049498D01*
X0108360Y0049624D01*
X0108227Y0049753D01*
X0108098Y0049886D01*
X0107972Y0050021D01*
X0107849Y0050160D01*
X0107730Y0050301D01*
X0107615Y0050446D01*
X0107503Y0050593D01*
X0107394Y0050743D01*
X0107290Y0050896D01*
X0107189Y0051051D01*
X0107092Y0051208D01*
X0106998Y0051368D01*
X0106909Y0051530D01*
X0106824Y0051694D01*
X0106743Y0051861D01*
X0106666Y0052029D01*
X0106593Y0052199D01*
X0106524Y0052371D01*
X0106460Y0052544D01*
X0106400Y0052719D01*
X0106344Y0052896D01*
X0106292Y0053073D01*
X0106245Y0053252D01*
X0106202Y0053432D01*
X0106164Y0053613D01*
X0106130Y0053795D01*
X0106101Y0053978D01*
X0106076Y0054161D01*
X0106055Y0054345D01*
X0106039Y0054529D01*
X0106028Y0054714D01*
X0106021Y0054899D01*
X0106019Y0055084D01*
X0111140Y0055552D02*
X0111161Y0055651D01*
X0111185Y0055748D01*
X0111213Y0055845D01*
X0111244Y0055940D01*
X0111280Y0056034D01*
X0111319Y0056126D01*
X0111362Y0056217D01*
X0111408Y0056306D01*
X0111458Y0056394D01*
X0111511Y0056479D01*
X0111567Y0056562D01*
X0111627Y0056643D01*
X0111689Y0056721D01*
X0111755Y0056797D01*
X0111824Y0056870D01*
X0111895Y0056941D01*
X0111969Y0057009D01*
X0112046Y0057073D01*
X0112125Y0057135D01*
X0112207Y0057193D01*
X0112291Y0057249D01*
X0112377Y0057300D01*
X0112465Y0057349D01*
X0112555Y0057394D01*
X0112646Y0057435D01*
X0112739Y0057473D01*
X0112834Y0057507D01*
X0112929Y0057538D01*
X0113026Y0057564D01*
X0116136Y0054454D02*
X0116110Y0054357D01*
X0116079Y0054262D01*
X0116045Y0054167D01*
X0116007Y0054074D01*
X0115966Y0053983D01*
X0115921Y0053893D01*
X0115872Y0053805D01*
X0115821Y0053719D01*
X0115765Y0053635D01*
X0115707Y0053553D01*
X0115645Y0053474D01*
X0115581Y0053397D01*
X0115513Y0053323D01*
X0115442Y0053252D01*
X0115369Y0053183D01*
X0115293Y0053117D01*
X0115215Y0053055D01*
X0115134Y0052995D01*
X0115051Y0052939D01*
X0114966Y0052886D01*
X0114878Y0052836D01*
X0114789Y0052790D01*
X0114698Y0052747D01*
X0114606Y0052708D01*
X0114512Y0052672D01*
X0114417Y0052641D01*
X0114320Y0052613D01*
X0114223Y0052589D01*
X0114124Y0052568D01*
X0123294Y0045167D02*
X0123294Y0085167D01*
X0123294Y0125167D01*
X0129601Y0125084D02*
X0097712Y0125084D01*
X0097712Y0085084D01*
X0097712Y0045084D01*
X0129601Y0045084D01*
X0129601Y0085084D01*
X0097712Y0085084D01*
X0129601Y0085084D01*
X0129601Y0125084D01*
X0116137Y0114454D02*
X0119731Y0110859D01*
X0117782Y0108910D02*
X0114125Y0112568D01*
X0111141Y0115552D01*
X0107385Y0119308D01*
X0109334Y0121257D02*
X0113026Y0117564D01*
X0116137Y0114454D01*
X0116136Y0114454D02*
X0116110Y0114357D01*
X0116079Y0114262D01*
X0116045Y0114167D01*
X0116007Y0114074D01*
X0115966Y0113983D01*
X0115921Y0113893D01*
X0115872Y0113805D01*
X0115821Y0113719D01*
X0115765Y0113635D01*
X0115707Y0113553D01*
X0115645Y0113474D01*
X0115581Y0113397D01*
X0115513Y0113323D01*
X0115442Y0113252D01*
X0115369Y0113183D01*
X0115293Y0113117D01*
X0115215Y0113055D01*
X0115134Y0112995D01*
X0115051Y0112939D01*
X0114966Y0112886D01*
X0114878Y0112836D01*
X0114789Y0112790D01*
X0114698Y0112747D01*
X0114606Y0112708D01*
X0114512Y0112672D01*
X0114417Y0112641D01*
X0114320Y0112613D01*
X0114223Y0112589D01*
X0114124Y0112568D01*
X0111140Y0115552D02*
X0111161Y0115651D01*
X0111185Y0115748D01*
X0111213Y0115845D01*
X0111244Y0115940D01*
X0111280Y0116034D01*
X0111319Y0116126D01*
X0111362Y0116217D01*
X0111408Y0116306D01*
X0111458Y0116394D01*
X0111511Y0116479D01*
X0111567Y0116562D01*
X0111627Y0116643D01*
X0111689Y0116721D01*
X0111755Y0116797D01*
X0111824Y0116870D01*
X0111895Y0116941D01*
X0111969Y0117009D01*
X0112046Y0117073D01*
X0112125Y0117135D01*
X0112207Y0117193D01*
X0112291Y0117249D01*
X0112377Y0117300D01*
X0112465Y0117349D01*
X0112555Y0117394D01*
X0112646Y0117435D01*
X0112739Y0117473D01*
X0112834Y0117507D01*
X0112929Y0117538D01*
X0113026Y0117564D01*
X0106019Y0115084D02*
X0106021Y0115269D01*
X0106028Y0115454D01*
X0106039Y0115639D01*
X0106055Y0115823D01*
X0106076Y0116007D01*
X0106101Y0116190D01*
X0106130Y0116373D01*
X0106164Y0116555D01*
X0106202Y0116736D01*
X0106245Y0116916D01*
X0106292Y0117095D01*
X0106344Y0117272D01*
X0106400Y0117449D01*
X0106460Y0117624D01*
X0106524Y0117797D01*
X0106593Y0117969D01*
X0106666Y0118139D01*
X0106743Y0118307D01*
X0106824Y0118474D01*
X0106909Y0118638D01*
X0106998Y0118800D01*
X0107092Y0118960D01*
X0107189Y0119117D01*
X0107290Y0119272D01*
X0107394Y0119425D01*
X0107503Y0119575D01*
X0107615Y0119722D01*
X0107730Y0119867D01*
X0107849Y0120008D01*
X0107972Y0120147D01*
X0108098Y0120282D01*
X0108227Y0120415D01*
X0108360Y0120544D01*
X0108495Y0120670D01*
X0108634Y0120793D01*
X0108775Y0120912D01*
X0108920Y0121027D01*
X0109067Y0121139D01*
X0109217Y0121248D01*
X0109370Y0121352D01*
X0109525Y0121453D01*
X0109682Y0121550D01*
X0109842Y0121644D01*
X0110004Y0121733D01*
X0110168Y0121818D01*
X0110335Y0121899D01*
X0110503Y0121976D01*
X0110673Y0122049D01*
X0110845Y0122118D01*
X0111018Y0122182D01*
X0111193Y0122242D01*
X0111370Y0122298D01*
X0111547Y0122350D01*
X0111726Y0122397D01*
X0111906Y0122440D01*
X0112087Y0122478D01*
X0112269Y0122512D01*
X0112452Y0122541D01*
X0112635Y0122566D01*
X0112819Y0122587D01*
X0113003Y0122603D01*
X0113188Y0122614D01*
X0113373Y0122621D01*
X0113558Y0122623D01*
X0113743Y0122621D01*
X0113928Y0122614D01*
X0114113Y0122603D01*
X0114297Y0122587D01*
X0114481Y0122566D01*
X0114664Y0122541D01*
X0114847Y0122512D01*
X0115029Y0122478D01*
X0115210Y0122440D01*
X0115390Y0122397D01*
X0115569Y0122350D01*
X0115746Y0122298D01*
X0115923Y0122242D01*
X0116098Y0122182D01*
X0116271Y0122118D01*
X0116443Y0122049D01*
X0116613Y0121976D01*
X0116781Y0121899D01*
X0116948Y0121818D01*
X0117112Y0121733D01*
X0117274Y0121644D01*
X0117434Y0121550D01*
X0117591Y0121453D01*
X0117746Y0121352D01*
X0117899Y0121248D01*
X0118049Y0121139D01*
X0118196Y0121027D01*
X0118341Y0120912D01*
X0118482Y0120793D01*
X0118621Y0120670D01*
X0118756Y0120544D01*
X0118889Y0120415D01*
X0119018Y0120282D01*
X0119144Y0120147D01*
X0119267Y0120008D01*
X0119386Y0119867D01*
X0119501Y0119722D01*
X0119613Y0119575D01*
X0119722Y0119425D01*
X0119826Y0119272D01*
X0119927Y0119117D01*
X0120024Y0118960D01*
X0120118Y0118800D01*
X0120207Y0118638D01*
X0120292Y0118474D01*
X0120373Y0118307D01*
X0120450Y0118139D01*
X0120523Y0117969D01*
X0120592Y0117797D01*
X0120656Y0117624D01*
X0120716Y0117449D01*
X0120772Y0117272D01*
X0120824Y0117095D01*
X0120871Y0116916D01*
X0120914Y0116736D01*
X0120952Y0116555D01*
X0120986Y0116373D01*
X0121015Y0116190D01*
X0121040Y0116007D01*
X0121061Y0115823D01*
X0121077Y0115639D01*
X0121088Y0115454D01*
X0121095Y0115269D01*
X0121097Y0115084D01*
X0121095Y0114899D01*
X0121088Y0114714D01*
X0121077Y0114529D01*
X0121061Y0114345D01*
X0121040Y0114161D01*
X0121015Y0113978D01*
X0120986Y0113795D01*
X0120952Y0113613D01*
X0120914Y0113432D01*
X0120871Y0113252D01*
X0120824Y0113073D01*
X0120772Y0112896D01*
X0120716Y0112719D01*
X0120656Y0112544D01*
X0120592Y0112371D01*
X0120523Y0112199D01*
X0120450Y0112029D01*
X0120373Y0111861D01*
X0120292Y0111694D01*
X0120207Y0111530D01*
X0120118Y0111368D01*
X0120024Y0111208D01*
X0119927Y0111051D01*
X0119826Y0110896D01*
X0119722Y0110743D01*
X0119613Y0110593D01*
X0119501Y0110446D01*
X0119386Y0110301D01*
X0119267Y0110160D01*
X0119144Y0110021D01*
X0119018Y0109886D01*
X0118889Y0109753D01*
X0118756Y0109624D01*
X0118621Y0109498D01*
X0118482Y0109375D01*
X0118341Y0109256D01*
X0118196Y0109141D01*
X0118049Y0109029D01*
X0117899Y0108920D01*
X0117746Y0108816D01*
X0117591Y0108715D01*
X0117434Y0108618D01*
X0117274Y0108524D01*
X0117112Y0108435D01*
X0116948Y0108350D01*
X0116781Y0108269D01*
X0116613Y0108192D01*
X0116443Y0108119D01*
X0116271Y0108050D01*
X0116098Y0107986D01*
X0115923Y0107926D01*
X0115746Y0107870D01*
X0115569Y0107818D01*
X0115390Y0107771D01*
X0115210Y0107728D01*
X0115029Y0107690D01*
X0114847Y0107656D01*
X0114664Y0107627D01*
X0114481Y0107602D01*
X0114297Y0107581D01*
X0114113Y0107565D01*
X0113928Y0107554D01*
X0113743Y0107547D01*
X0113558Y0107545D01*
X0113373Y0107547D01*
X0113188Y0107554D01*
X0113003Y0107565D01*
X0112819Y0107581D01*
X0112635Y0107602D01*
X0112452Y0107627D01*
X0112269Y0107656D01*
X0112087Y0107690D01*
X0111906Y0107728D01*
X0111726Y0107771D01*
X0111547Y0107818D01*
X0111370Y0107870D01*
X0111193Y0107926D01*
X0111018Y0107986D01*
X0110845Y0108050D01*
X0110673Y0108119D01*
X0110503Y0108192D01*
X0110335Y0108269D01*
X0110168Y0108350D01*
X0110004Y0108435D01*
X0109842Y0108524D01*
X0109682Y0108618D01*
X0109525Y0108715D01*
X0109370Y0108816D01*
X0109217Y0108920D01*
X0109067Y0109029D01*
X0108920Y0109141D01*
X0108775Y0109256D01*
X0108634Y0109375D01*
X0108495Y0109498D01*
X0108360Y0109624D01*
X0108227Y0109753D01*
X0108098Y0109886D01*
X0107972Y0110021D01*
X0107849Y0110160D01*
X0107730Y0110301D01*
X0107615Y0110446D01*
X0107503Y0110593D01*
X0107394Y0110743D01*
X0107290Y0110896D01*
X0107189Y0111051D01*
X0107092Y0111208D01*
X0106998Y0111368D01*
X0106909Y0111530D01*
X0106824Y0111694D01*
X0106743Y0111861D01*
X0106666Y0112029D01*
X0106593Y0112199D01*
X0106524Y0112371D01*
X0106460Y0112544D01*
X0106400Y0112719D01*
X0106344Y0112896D01*
X0106292Y0113073D01*
X0106245Y0113252D01*
X0106202Y0113432D01*
X0106164Y0113613D01*
X0106130Y0113795D01*
X0106101Y0113978D01*
X0106076Y0114161D01*
X0106055Y0114345D01*
X0106039Y0114529D01*
X0106028Y0114714D01*
X0106021Y0114899D01*
X0106019Y0115084D01*
X0109334Y0101257D02*
X0113026Y0097564D01*
X0116137Y0094454D01*
X0119731Y0090859D01*
X0117782Y0088910D02*
X0114125Y0092568D01*
X0111141Y0095552D01*
X0107385Y0099308D01*
X0106019Y0095084D02*
X0106021Y0095269D01*
X0106028Y0095454D01*
X0106039Y0095639D01*
X0106055Y0095823D01*
X0106076Y0096007D01*
X0106101Y0096190D01*
X0106130Y0096373D01*
X0106164Y0096555D01*
X0106202Y0096736D01*
X0106245Y0096916D01*
X0106292Y0097095D01*
X0106344Y0097272D01*
X0106400Y0097449D01*
X0106460Y0097624D01*
X0106524Y0097797D01*
X0106593Y0097969D01*
X0106666Y0098139D01*
X0106743Y0098307D01*
X0106824Y0098474D01*
X0106909Y0098638D01*
X0106998Y0098800D01*
X0107092Y0098960D01*
X0107189Y0099117D01*
X0107290Y0099272D01*
X0107394Y0099425D01*
X0107503Y0099575D01*
X0107615Y0099722D01*
X0107730Y0099867D01*
X0107849Y0100008D01*
X0107972Y0100147D01*
X0108098Y0100282D01*
X0108227Y0100415D01*
X0108360Y0100544D01*
X0108495Y0100670D01*
X0108634Y0100793D01*
X0108775Y0100912D01*
X0108920Y0101027D01*
X0109067Y0101139D01*
X0109217Y0101248D01*
X0109370Y0101352D01*
X0109525Y0101453D01*
X0109682Y0101550D01*
X0109842Y0101644D01*
X0110004Y0101733D01*
X0110168Y0101818D01*
X0110335Y0101899D01*
X0110503Y0101976D01*
X0110673Y0102049D01*
X0110845Y0102118D01*
X0111018Y0102182D01*
X0111193Y0102242D01*
X0111370Y0102298D01*
X0111547Y0102350D01*
X0111726Y0102397D01*
X0111906Y0102440D01*
X0112087Y0102478D01*
X0112269Y0102512D01*
X0112452Y0102541D01*
X0112635Y0102566D01*
X0112819Y0102587D01*
X0113003Y0102603D01*
X0113188Y0102614D01*
X0113373Y0102621D01*
X0113558Y0102623D01*
X0113743Y0102621D01*
X0113928Y0102614D01*
X0114113Y0102603D01*
X0114297Y0102587D01*
X0114481Y0102566D01*
X0114664Y0102541D01*
X0114847Y0102512D01*
X0115029Y0102478D01*
X0115210Y0102440D01*
X0115390Y0102397D01*
X0115569Y0102350D01*
X0115746Y0102298D01*
X0115923Y0102242D01*
X0116098Y0102182D01*
X0116271Y0102118D01*
X0116443Y0102049D01*
X0116613Y0101976D01*
X0116781Y0101899D01*
X0116948Y0101818D01*
X0117112Y0101733D01*
X0117274Y0101644D01*
X0117434Y0101550D01*
X0117591Y0101453D01*
X0117746Y0101352D01*
X0117899Y0101248D01*
X0118049Y0101139D01*
X0118196Y0101027D01*
X0118341Y0100912D01*
X0118482Y0100793D01*
X0118621Y0100670D01*
X0118756Y0100544D01*
X0118889Y0100415D01*
X0119018Y0100282D01*
X0119144Y0100147D01*
X0119267Y0100008D01*
X0119386Y0099867D01*
X0119501Y0099722D01*
X0119613Y0099575D01*
X0119722Y0099425D01*
X0119826Y0099272D01*
X0119927Y0099117D01*
X0120024Y0098960D01*
X0120118Y0098800D01*
X0120207Y0098638D01*
X0120292Y0098474D01*
X0120373Y0098307D01*
X0120450Y0098139D01*
X0120523Y0097969D01*
X0120592Y0097797D01*
X0120656Y0097624D01*
X0120716Y0097449D01*
X0120772Y0097272D01*
X0120824Y0097095D01*
X0120871Y0096916D01*
X0120914Y0096736D01*
X0120952Y0096555D01*
X0120986Y0096373D01*
X0121015Y0096190D01*
X0121040Y0096007D01*
X0121061Y0095823D01*
X0121077Y0095639D01*
X0121088Y0095454D01*
X0121095Y0095269D01*
X0121097Y0095084D01*
X0121095Y0094899D01*
X0121088Y0094714D01*
X0121077Y0094529D01*
X0121061Y0094345D01*
X0121040Y0094161D01*
X0121015Y0093978D01*
X0120986Y0093795D01*
X0120952Y0093613D01*
X0120914Y0093432D01*
X0120871Y0093252D01*
X0120824Y0093073D01*
X0120772Y0092896D01*
X0120716Y0092719D01*
X0120656Y0092544D01*
X0120592Y0092371D01*
X0120523Y0092199D01*
X0120450Y0092029D01*
X0120373Y0091861D01*
X0120292Y0091694D01*
X0120207Y0091530D01*
X0120118Y0091368D01*
X0120024Y0091208D01*
X0119927Y0091051D01*
X0119826Y0090896D01*
X0119722Y0090743D01*
X0119613Y0090593D01*
X0119501Y0090446D01*
X0119386Y0090301D01*
X0119267Y0090160D01*
X0119144Y0090021D01*
X0119018Y0089886D01*
X0118889Y0089753D01*
X0118756Y0089624D01*
X0118621Y0089498D01*
X0118482Y0089375D01*
X0118341Y0089256D01*
X0118196Y0089141D01*
X0118049Y0089029D01*
X0117899Y0088920D01*
X0117746Y0088816D01*
X0117591Y0088715D01*
X0117434Y0088618D01*
X0117274Y0088524D01*
X0117112Y0088435D01*
X0116948Y0088350D01*
X0116781Y0088269D01*
X0116613Y0088192D01*
X0116443Y0088119D01*
X0116271Y0088050D01*
X0116098Y0087986D01*
X0115923Y0087926D01*
X0115746Y0087870D01*
X0115569Y0087818D01*
X0115390Y0087771D01*
X0115210Y0087728D01*
X0115029Y0087690D01*
X0114847Y0087656D01*
X0114664Y0087627D01*
X0114481Y0087602D01*
X0114297Y0087581D01*
X0114113Y0087565D01*
X0113928Y0087554D01*
X0113743Y0087547D01*
X0113558Y0087545D01*
X0113373Y0087547D01*
X0113188Y0087554D01*
X0113003Y0087565D01*
X0112819Y0087581D01*
X0112635Y0087602D01*
X0112452Y0087627D01*
X0112269Y0087656D01*
X0112087Y0087690D01*
X0111906Y0087728D01*
X0111726Y0087771D01*
X0111547Y0087818D01*
X0111370Y0087870D01*
X0111193Y0087926D01*
X0111018Y0087986D01*
X0110845Y0088050D01*
X0110673Y0088119D01*
X0110503Y0088192D01*
X0110335Y0088269D01*
X0110168Y0088350D01*
X0110004Y0088435D01*
X0109842Y0088524D01*
X0109682Y0088618D01*
X0109525Y0088715D01*
X0109370Y0088816D01*
X0109217Y0088920D01*
X0109067Y0089029D01*
X0108920Y0089141D01*
X0108775Y0089256D01*
X0108634Y0089375D01*
X0108495Y0089498D01*
X0108360Y0089624D01*
X0108227Y0089753D01*
X0108098Y0089886D01*
X0107972Y0090021D01*
X0107849Y0090160D01*
X0107730Y0090301D01*
X0107615Y0090446D01*
X0107503Y0090593D01*
X0107394Y0090743D01*
X0107290Y0090896D01*
X0107189Y0091051D01*
X0107092Y0091208D01*
X0106998Y0091368D01*
X0106909Y0091530D01*
X0106824Y0091694D01*
X0106743Y0091861D01*
X0106666Y0092029D01*
X0106593Y0092199D01*
X0106524Y0092371D01*
X0106460Y0092544D01*
X0106400Y0092719D01*
X0106344Y0092896D01*
X0106292Y0093073D01*
X0106245Y0093252D01*
X0106202Y0093432D01*
X0106164Y0093613D01*
X0106130Y0093795D01*
X0106101Y0093978D01*
X0106076Y0094161D01*
X0106055Y0094345D01*
X0106039Y0094529D01*
X0106028Y0094714D01*
X0106021Y0094899D01*
X0106019Y0095084D01*
X0111140Y0095552D02*
X0111161Y0095651D01*
X0111185Y0095748D01*
X0111213Y0095845D01*
X0111244Y0095940D01*
X0111280Y0096034D01*
X0111319Y0096126D01*
X0111362Y0096217D01*
X0111408Y0096306D01*
X0111458Y0096394D01*
X0111511Y0096479D01*
X0111567Y0096562D01*
X0111627Y0096643D01*
X0111689Y0096721D01*
X0111755Y0096797D01*
X0111824Y0096870D01*
X0111895Y0096941D01*
X0111969Y0097009D01*
X0112046Y0097073D01*
X0112125Y0097135D01*
X0112207Y0097193D01*
X0112291Y0097249D01*
X0112377Y0097300D01*
X0112465Y0097349D01*
X0112555Y0097394D01*
X0112646Y0097435D01*
X0112739Y0097473D01*
X0112834Y0097507D01*
X0112929Y0097538D01*
X0113026Y0097564D01*
X0116136Y0094454D02*
X0116110Y0094357D01*
X0116079Y0094262D01*
X0116045Y0094167D01*
X0116007Y0094074D01*
X0115966Y0093983D01*
X0115921Y0093893D01*
X0115872Y0093805D01*
X0115821Y0093719D01*
X0115765Y0093635D01*
X0115707Y0093553D01*
X0115645Y0093474D01*
X0115581Y0093397D01*
X0115513Y0093323D01*
X0115442Y0093252D01*
X0115369Y0093183D01*
X0115293Y0093117D01*
X0115215Y0093055D01*
X0115134Y0092995D01*
X0115051Y0092939D01*
X0114966Y0092886D01*
X0114878Y0092836D01*
X0114789Y0092790D01*
X0114698Y0092747D01*
X0114606Y0092708D01*
X0114512Y0092672D01*
X0114417Y0092641D01*
X0114320Y0092613D01*
X0114223Y0092589D01*
X0114124Y0092568D01*
X0109334Y0081257D02*
X0113026Y0077564D01*
X0116137Y0074454D01*
X0119731Y0070859D01*
X0117782Y0068910D02*
X0114125Y0072568D01*
X0111141Y0075552D01*
X0107385Y0079308D01*
X0106019Y0075084D02*
X0106021Y0075269D01*
X0106028Y0075454D01*
X0106039Y0075639D01*
X0106055Y0075823D01*
X0106076Y0076007D01*
X0106101Y0076190D01*
X0106130Y0076373D01*
X0106164Y0076555D01*
X0106202Y0076736D01*
X0106245Y0076916D01*
X0106292Y0077095D01*
X0106344Y0077272D01*
X0106400Y0077449D01*
X0106460Y0077624D01*
X0106524Y0077797D01*
X0106593Y0077969D01*
X0106666Y0078139D01*
X0106743Y0078307D01*
X0106824Y0078474D01*
X0106909Y0078638D01*
X0106998Y0078800D01*
X0107092Y0078960D01*
X0107189Y0079117D01*
X0107290Y0079272D01*
X0107394Y0079425D01*
X0107503Y0079575D01*
X0107615Y0079722D01*
X0107730Y0079867D01*
X0107849Y0080008D01*
X0107972Y0080147D01*
X0108098Y0080282D01*
X0108227Y0080415D01*
X0108360Y0080544D01*
X0108495Y0080670D01*
X0108634Y0080793D01*
X0108775Y0080912D01*
X0108920Y0081027D01*
X0109067Y0081139D01*
X0109217Y0081248D01*
X0109370Y0081352D01*
X0109525Y0081453D01*
X0109682Y0081550D01*
X0109842Y0081644D01*
X0110004Y0081733D01*
X0110168Y0081818D01*
X0110335Y0081899D01*
X0110503Y0081976D01*
X0110673Y0082049D01*
X0110845Y0082118D01*
X0111018Y0082182D01*
X0111193Y0082242D01*
X0111370Y0082298D01*
X0111547Y0082350D01*
X0111726Y0082397D01*
X0111906Y0082440D01*
X0112087Y0082478D01*
X0112269Y0082512D01*
X0112452Y0082541D01*
X0112635Y0082566D01*
X0112819Y0082587D01*
X0113003Y0082603D01*
X0113188Y0082614D01*
X0113373Y0082621D01*
X0113558Y0082623D01*
X0113743Y0082621D01*
X0113928Y0082614D01*
X0114113Y0082603D01*
X0114297Y0082587D01*
X0114481Y0082566D01*
X0114664Y0082541D01*
X0114847Y0082512D01*
X0115029Y0082478D01*
X0115210Y0082440D01*
X0115390Y0082397D01*
X0115569Y0082350D01*
X0115746Y0082298D01*
X0115923Y0082242D01*
X0116098Y0082182D01*
X0116271Y0082118D01*
X0116443Y0082049D01*
X0116613Y0081976D01*
X0116781Y0081899D01*
X0116948Y0081818D01*
X0117112Y0081733D01*
X0117274Y0081644D01*
X0117434Y0081550D01*
X0117591Y0081453D01*
X0117746Y0081352D01*
X0117899Y0081248D01*
X0118049Y0081139D01*
X0118196Y0081027D01*
X0118341Y0080912D01*
X0118482Y0080793D01*
X0118621Y0080670D01*
X0118756Y0080544D01*
X0118889Y0080415D01*
X0119018Y0080282D01*
X0119144Y0080147D01*
X0119267Y0080008D01*
X0119386Y0079867D01*
X0119501Y0079722D01*
X0119613Y0079575D01*
X0119722Y0079425D01*
X0119826Y0079272D01*
X0119927Y0079117D01*
X0120024Y0078960D01*
X0120118Y0078800D01*
X0120207Y0078638D01*
X0120292Y0078474D01*
X0120373Y0078307D01*
X0120450Y0078139D01*
X0120523Y0077969D01*
X0120592Y0077797D01*
X0120656Y0077624D01*
X0120716Y0077449D01*
X0120772Y0077272D01*
X0120824Y0077095D01*
X0120871Y0076916D01*
X0120914Y0076736D01*
X0120952Y0076555D01*
X0120986Y0076373D01*
X0121015Y0076190D01*
X0121040Y0076007D01*
X0121061Y0075823D01*
X0121077Y0075639D01*
X0121088Y0075454D01*
X0121095Y0075269D01*
X0121097Y0075084D01*
X0121095Y0074899D01*
X0121088Y0074714D01*
X0121077Y0074529D01*
X0121061Y0074345D01*
X0121040Y0074161D01*
X0121015Y0073978D01*
X0120986Y0073795D01*
X0120952Y0073613D01*
X0120914Y0073432D01*
X0120871Y0073252D01*
X0120824Y0073073D01*
X0120772Y0072896D01*
X0120716Y0072719D01*
X0120656Y0072544D01*
X0120592Y0072371D01*
X0120523Y0072199D01*
X0120450Y0072029D01*
X0120373Y0071861D01*
X0120292Y0071694D01*
X0120207Y0071530D01*
X0120118Y0071368D01*
X0120024Y0071208D01*
X0119927Y0071051D01*
X0119826Y0070896D01*
X0119722Y0070743D01*
X0119613Y0070593D01*
X0119501Y0070446D01*
X0119386Y0070301D01*
X0119267Y0070160D01*
X0119144Y0070021D01*
X0119018Y0069886D01*
X0118889Y0069753D01*
X0118756Y0069624D01*
X0118621Y0069498D01*
X0118482Y0069375D01*
X0118341Y0069256D01*
X0118196Y0069141D01*
X0118049Y0069029D01*
X0117899Y0068920D01*
X0117746Y0068816D01*
X0117591Y0068715D01*
X0117434Y0068618D01*
X0117274Y0068524D01*
X0117112Y0068435D01*
X0116948Y0068350D01*
X0116781Y0068269D01*
X0116613Y0068192D01*
X0116443Y0068119D01*
X0116271Y0068050D01*
X0116098Y0067986D01*
X0115923Y0067926D01*
X0115746Y0067870D01*
X0115569Y0067818D01*
X0115390Y0067771D01*
X0115210Y0067728D01*
X0115029Y0067690D01*
X0114847Y0067656D01*
X0114664Y0067627D01*
X0114481Y0067602D01*
X0114297Y0067581D01*
X0114113Y0067565D01*
X0113928Y0067554D01*
X0113743Y0067547D01*
X0113558Y0067545D01*
X0113373Y0067547D01*
X0113188Y0067554D01*
X0113003Y0067565D01*
X0112819Y0067581D01*
X0112635Y0067602D01*
X0112452Y0067627D01*
X0112269Y0067656D01*
X0112087Y0067690D01*
X0111906Y0067728D01*
X0111726Y0067771D01*
X0111547Y0067818D01*
X0111370Y0067870D01*
X0111193Y0067926D01*
X0111018Y0067986D01*
X0110845Y0068050D01*
X0110673Y0068119D01*
X0110503Y0068192D01*
X0110335Y0068269D01*
X0110168Y0068350D01*
X0110004Y0068435D01*
X0109842Y0068524D01*
X0109682Y0068618D01*
X0109525Y0068715D01*
X0109370Y0068816D01*
X0109217Y0068920D01*
X0109067Y0069029D01*
X0108920Y0069141D01*
X0108775Y0069256D01*
X0108634Y0069375D01*
X0108495Y0069498D01*
X0108360Y0069624D01*
X0108227Y0069753D01*
X0108098Y0069886D01*
X0107972Y0070021D01*
X0107849Y0070160D01*
X0107730Y0070301D01*
X0107615Y0070446D01*
X0107503Y0070593D01*
X0107394Y0070743D01*
X0107290Y0070896D01*
X0107189Y0071051D01*
X0107092Y0071208D01*
X0106998Y0071368D01*
X0106909Y0071530D01*
X0106824Y0071694D01*
X0106743Y0071861D01*
X0106666Y0072029D01*
X0106593Y0072199D01*
X0106524Y0072371D01*
X0106460Y0072544D01*
X0106400Y0072719D01*
X0106344Y0072896D01*
X0106292Y0073073D01*
X0106245Y0073252D01*
X0106202Y0073432D01*
X0106164Y0073613D01*
X0106130Y0073795D01*
X0106101Y0073978D01*
X0106076Y0074161D01*
X0106055Y0074345D01*
X0106039Y0074529D01*
X0106028Y0074714D01*
X0106021Y0074899D01*
X0106019Y0075084D01*
X0111140Y0075552D02*
X0111161Y0075651D01*
X0111185Y0075748D01*
X0111213Y0075845D01*
X0111244Y0075940D01*
X0111280Y0076034D01*
X0111319Y0076126D01*
X0111362Y0076217D01*
X0111408Y0076306D01*
X0111458Y0076394D01*
X0111511Y0076479D01*
X0111567Y0076562D01*
X0111627Y0076643D01*
X0111689Y0076721D01*
X0111755Y0076797D01*
X0111824Y0076870D01*
X0111895Y0076941D01*
X0111969Y0077009D01*
X0112046Y0077073D01*
X0112125Y0077135D01*
X0112207Y0077193D01*
X0112291Y0077249D01*
X0112377Y0077300D01*
X0112465Y0077349D01*
X0112555Y0077394D01*
X0112646Y0077435D01*
X0112739Y0077473D01*
X0112834Y0077507D01*
X0112929Y0077538D01*
X0113026Y0077564D01*
X0116136Y0074454D02*
X0116110Y0074357D01*
X0116079Y0074262D01*
X0116045Y0074167D01*
X0116007Y0074074D01*
X0115966Y0073983D01*
X0115921Y0073893D01*
X0115872Y0073805D01*
X0115821Y0073719D01*
X0115765Y0073635D01*
X0115707Y0073553D01*
X0115645Y0073474D01*
X0115581Y0073397D01*
X0115513Y0073323D01*
X0115442Y0073252D01*
X0115369Y0073183D01*
X0115293Y0073117D01*
X0115215Y0073055D01*
X0115134Y0072995D01*
X0115051Y0072939D01*
X0114966Y0072886D01*
X0114878Y0072836D01*
X0114789Y0072790D01*
X0114698Y0072747D01*
X0114606Y0072708D01*
X0114512Y0072672D01*
X0114417Y0072641D01*
X0114320Y0072613D01*
X0114223Y0072589D01*
X0114124Y0072568D01*
X0093519Y0098474D02*
X0093519Y0111860D01*
X0088794Y0111860D01*
X0088794Y0098474D01*
X0093519Y0098474D01*
X0093519Y0102474D02*
X0093519Y0107860D01*
X0088794Y0107860D02*
X0088794Y0102474D01*
X0097712Y0180250D02*
X0129601Y0180250D01*
X0129601Y0220250D01*
X0097712Y0220250D01*
X0097712Y0180250D01*
X0104019Y0180167D02*
X0104019Y0220167D01*
X0104019Y0260167D01*
X0109530Y0256423D02*
X0113188Y0252765D01*
X0116172Y0249781D01*
X0119928Y0246025D01*
X0117979Y0244077D02*
X0114286Y0247769D01*
X0111176Y0250880D01*
X0107582Y0254474D01*
X0111176Y0250880D02*
X0111202Y0250977D01*
X0111233Y0251072D01*
X0111267Y0251167D01*
X0111305Y0251260D01*
X0111346Y0251351D01*
X0111391Y0251441D01*
X0111440Y0251529D01*
X0111491Y0251615D01*
X0111547Y0251699D01*
X0111605Y0251781D01*
X0111667Y0251860D01*
X0111731Y0251937D01*
X0111799Y0252011D01*
X0111870Y0252082D01*
X0111943Y0252151D01*
X0112019Y0252217D01*
X0112097Y0252279D01*
X0112178Y0252339D01*
X0112261Y0252395D01*
X0112346Y0252448D01*
X0112434Y0252498D01*
X0112523Y0252544D01*
X0112614Y0252587D01*
X0112706Y0252626D01*
X0112800Y0252662D01*
X0112895Y0252693D01*
X0112992Y0252721D01*
X0113089Y0252745D01*
X0113188Y0252766D01*
X0116172Y0249782D02*
X0116151Y0249683D01*
X0116127Y0249586D01*
X0116099Y0249489D01*
X0116068Y0249394D01*
X0116032Y0249300D01*
X0115993Y0249208D01*
X0115950Y0249117D01*
X0115904Y0249028D01*
X0115854Y0248940D01*
X0115801Y0248855D01*
X0115745Y0248772D01*
X0115685Y0248691D01*
X0115623Y0248613D01*
X0115557Y0248537D01*
X0115488Y0248464D01*
X0115417Y0248393D01*
X0115343Y0248325D01*
X0115266Y0248261D01*
X0115187Y0248199D01*
X0115105Y0248141D01*
X0115021Y0248085D01*
X0114935Y0248034D01*
X0114847Y0247985D01*
X0114757Y0247940D01*
X0114666Y0247899D01*
X0114573Y0247861D01*
X0114478Y0247827D01*
X0114383Y0247796D01*
X0114286Y0247770D01*
X0106216Y0250250D02*
X0106218Y0250435D01*
X0106225Y0250620D01*
X0106236Y0250805D01*
X0106252Y0250989D01*
X0106273Y0251173D01*
X0106298Y0251356D01*
X0106327Y0251539D01*
X0106361Y0251721D01*
X0106399Y0251902D01*
X0106442Y0252082D01*
X0106489Y0252261D01*
X0106541Y0252438D01*
X0106597Y0252615D01*
X0106657Y0252790D01*
X0106721Y0252963D01*
X0106790Y0253135D01*
X0106863Y0253305D01*
X0106940Y0253473D01*
X0107021Y0253640D01*
X0107106Y0253804D01*
X0107195Y0253966D01*
X0107289Y0254126D01*
X0107386Y0254283D01*
X0107487Y0254438D01*
X0107591Y0254591D01*
X0107700Y0254741D01*
X0107812Y0254888D01*
X0107927Y0255033D01*
X0108046Y0255174D01*
X0108169Y0255313D01*
X0108295Y0255448D01*
X0108424Y0255581D01*
X0108557Y0255710D01*
X0108692Y0255836D01*
X0108831Y0255959D01*
X0108972Y0256078D01*
X0109117Y0256193D01*
X0109264Y0256305D01*
X0109414Y0256414D01*
X0109567Y0256518D01*
X0109722Y0256619D01*
X0109879Y0256716D01*
X0110039Y0256810D01*
X0110201Y0256899D01*
X0110365Y0256984D01*
X0110532Y0257065D01*
X0110700Y0257142D01*
X0110870Y0257215D01*
X0111042Y0257284D01*
X0111215Y0257348D01*
X0111390Y0257408D01*
X0111567Y0257464D01*
X0111744Y0257516D01*
X0111923Y0257563D01*
X0112103Y0257606D01*
X0112284Y0257644D01*
X0112466Y0257678D01*
X0112649Y0257707D01*
X0112832Y0257732D01*
X0113016Y0257753D01*
X0113200Y0257769D01*
X0113385Y0257780D01*
X0113570Y0257787D01*
X0113755Y0257789D01*
X0113940Y0257787D01*
X0114125Y0257780D01*
X0114310Y0257769D01*
X0114494Y0257753D01*
X0114678Y0257732D01*
X0114861Y0257707D01*
X0115044Y0257678D01*
X0115226Y0257644D01*
X0115407Y0257606D01*
X0115587Y0257563D01*
X0115766Y0257516D01*
X0115943Y0257464D01*
X0116120Y0257408D01*
X0116295Y0257348D01*
X0116468Y0257284D01*
X0116640Y0257215D01*
X0116810Y0257142D01*
X0116978Y0257065D01*
X0117145Y0256984D01*
X0117309Y0256899D01*
X0117471Y0256810D01*
X0117631Y0256716D01*
X0117788Y0256619D01*
X0117943Y0256518D01*
X0118096Y0256414D01*
X0118246Y0256305D01*
X0118393Y0256193D01*
X0118538Y0256078D01*
X0118679Y0255959D01*
X0118818Y0255836D01*
X0118953Y0255710D01*
X0119086Y0255581D01*
X0119215Y0255448D01*
X0119341Y0255313D01*
X0119464Y0255174D01*
X0119583Y0255033D01*
X0119698Y0254888D01*
X0119810Y0254741D01*
X0119919Y0254591D01*
X0120023Y0254438D01*
X0120124Y0254283D01*
X0120221Y0254126D01*
X0120315Y0253966D01*
X0120404Y0253804D01*
X0120489Y0253640D01*
X0120570Y0253473D01*
X0120647Y0253305D01*
X0120720Y0253135D01*
X0120789Y0252963D01*
X0120853Y0252790D01*
X0120913Y0252615D01*
X0120969Y0252438D01*
X0121021Y0252261D01*
X0121068Y0252082D01*
X0121111Y0251902D01*
X0121149Y0251721D01*
X0121183Y0251539D01*
X0121212Y0251356D01*
X0121237Y0251173D01*
X0121258Y0250989D01*
X0121274Y0250805D01*
X0121285Y0250620D01*
X0121292Y0250435D01*
X0121294Y0250250D01*
X0121292Y0250065D01*
X0121285Y0249880D01*
X0121274Y0249695D01*
X0121258Y0249511D01*
X0121237Y0249327D01*
X0121212Y0249144D01*
X0121183Y0248961D01*
X0121149Y0248779D01*
X0121111Y0248598D01*
X0121068Y0248418D01*
X0121021Y0248239D01*
X0120969Y0248062D01*
X0120913Y0247885D01*
X0120853Y0247710D01*
X0120789Y0247537D01*
X0120720Y0247365D01*
X0120647Y0247195D01*
X0120570Y0247027D01*
X0120489Y0246860D01*
X0120404Y0246696D01*
X0120315Y0246534D01*
X0120221Y0246374D01*
X0120124Y0246217D01*
X0120023Y0246062D01*
X0119919Y0245909D01*
X0119810Y0245759D01*
X0119698Y0245612D01*
X0119583Y0245467D01*
X0119464Y0245326D01*
X0119341Y0245187D01*
X0119215Y0245052D01*
X0119086Y0244919D01*
X0118953Y0244790D01*
X0118818Y0244664D01*
X0118679Y0244541D01*
X0118538Y0244422D01*
X0118393Y0244307D01*
X0118246Y0244195D01*
X0118096Y0244086D01*
X0117943Y0243982D01*
X0117788Y0243881D01*
X0117631Y0243784D01*
X0117471Y0243690D01*
X0117309Y0243601D01*
X0117145Y0243516D01*
X0116978Y0243435D01*
X0116810Y0243358D01*
X0116640Y0243285D01*
X0116468Y0243216D01*
X0116295Y0243152D01*
X0116120Y0243092D01*
X0115943Y0243036D01*
X0115766Y0242984D01*
X0115587Y0242937D01*
X0115407Y0242894D01*
X0115226Y0242856D01*
X0115044Y0242822D01*
X0114861Y0242793D01*
X0114678Y0242768D01*
X0114494Y0242747D01*
X0114310Y0242731D01*
X0114125Y0242720D01*
X0113940Y0242713D01*
X0113755Y0242711D01*
X0113570Y0242713D01*
X0113385Y0242720D01*
X0113200Y0242731D01*
X0113016Y0242747D01*
X0112832Y0242768D01*
X0112649Y0242793D01*
X0112466Y0242822D01*
X0112284Y0242856D01*
X0112103Y0242894D01*
X0111923Y0242937D01*
X0111744Y0242984D01*
X0111567Y0243036D01*
X0111390Y0243092D01*
X0111215Y0243152D01*
X0111042Y0243216D01*
X0110870Y0243285D01*
X0110700Y0243358D01*
X0110532Y0243435D01*
X0110365Y0243516D01*
X0110201Y0243601D01*
X0110039Y0243690D01*
X0109879Y0243784D01*
X0109722Y0243881D01*
X0109567Y0243982D01*
X0109414Y0244086D01*
X0109264Y0244195D01*
X0109117Y0244307D01*
X0108972Y0244422D01*
X0108831Y0244541D01*
X0108692Y0244664D01*
X0108557Y0244790D01*
X0108424Y0244919D01*
X0108295Y0245052D01*
X0108169Y0245187D01*
X0108046Y0245326D01*
X0107927Y0245467D01*
X0107812Y0245612D01*
X0107700Y0245759D01*
X0107591Y0245909D01*
X0107487Y0246062D01*
X0107386Y0246217D01*
X0107289Y0246374D01*
X0107195Y0246534D01*
X0107106Y0246696D01*
X0107021Y0246860D01*
X0106940Y0247027D01*
X0106863Y0247195D01*
X0106790Y0247365D01*
X0106721Y0247537D01*
X0106657Y0247710D01*
X0106597Y0247885D01*
X0106541Y0248062D01*
X0106489Y0248239D01*
X0106442Y0248418D01*
X0106399Y0248598D01*
X0106361Y0248779D01*
X0106327Y0248961D01*
X0106298Y0249144D01*
X0106273Y0249327D01*
X0106252Y0249511D01*
X0106236Y0249695D01*
X0106225Y0249880D01*
X0106218Y0250065D01*
X0106216Y0250250D01*
X0097712Y0260250D02*
X0129601Y0260250D01*
X0129601Y0220250D01*
X0097712Y0220250D01*
X0097712Y0260250D01*
X0093739Y0264222D02*
X0093739Y0270228D01*
X0093739Y0272130D01*
X0093739Y0287865D01*
X0093739Y0289804D01*
X0033739Y0289804D01*
X0033739Y0292481D01*
X0033739Y0294930D01*
X0033739Y0296112D01*
X0093739Y0296112D01*
X0093739Y0294930D01*
X0093739Y0293265D01*
X0093739Y0292481D01*
X0093739Y0291635D01*
X0093739Y0289804D01*
X0089913Y0284293D02*
X0086255Y0280635D01*
X0083739Y0278119D01*
X0083271Y0277651D01*
X0079515Y0273895D01*
X0077566Y0275844D02*
X0081259Y0279537D01*
X0083739Y0282017D01*
X0084369Y0282647D01*
X0087964Y0286241D01*
X0084369Y0282647D02*
X0084466Y0282621D01*
X0084561Y0282590D01*
X0084656Y0282556D01*
X0084749Y0282518D01*
X0084840Y0282477D01*
X0084930Y0282432D01*
X0085018Y0282383D01*
X0085104Y0282332D01*
X0085188Y0282276D01*
X0085270Y0282218D01*
X0085349Y0282156D01*
X0085426Y0282092D01*
X0085500Y0282024D01*
X0085571Y0281953D01*
X0085640Y0281880D01*
X0085706Y0281804D01*
X0085768Y0281726D01*
X0085828Y0281645D01*
X0085884Y0281562D01*
X0085937Y0281477D01*
X0085987Y0281389D01*
X0086033Y0281300D01*
X0086076Y0281209D01*
X0086115Y0281117D01*
X0086151Y0281023D01*
X0086182Y0280928D01*
X0086210Y0280831D01*
X0086234Y0280734D01*
X0086255Y0280635D01*
X0083271Y0277651D02*
X0083172Y0277672D01*
X0083075Y0277696D01*
X0082978Y0277724D01*
X0082883Y0277755D01*
X0082789Y0277791D01*
X0082697Y0277830D01*
X0082606Y0277873D01*
X0082517Y0277919D01*
X0082429Y0277969D01*
X0082344Y0278022D01*
X0082261Y0278078D01*
X0082180Y0278138D01*
X0082102Y0278200D01*
X0082026Y0278266D01*
X0081953Y0278335D01*
X0081882Y0278406D01*
X0081814Y0278480D01*
X0081750Y0278557D01*
X0081688Y0278636D01*
X0081630Y0278718D01*
X0081574Y0278802D01*
X0081523Y0278888D01*
X0081474Y0278976D01*
X0081429Y0279066D01*
X0081388Y0279157D01*
X0081350Y0279250D01*
X0081316Y0279345D01*
X0081285Y0279440D01*
X0081259Y0279537D01*
X0076200Y0280068D02*
X0076202Y0280253D01*
X0076209Y0280438D01*
X0076220Y0280623D01*
X0076236Y0280807D01*
X0076257Y0280991D01*
X0076282Y0281174D01*
X0076311Y0281357D01*
X0076345Y0281539D01*
X0076383Y0281720D01*
X0076426Y0281900D01*
X0076473Y0282079D01*
X0076525Y0282256D01*
X0076581Y0282433D01*
X0076641Y0282608D01*
X0076705Y0282781D01*
X0076774Y0282953D01*
X0076847Y0283123D01*
X0076924Y0283291D01*
X0077005Y0283458D01*
X0077090Y0283622D01*
X0077179Y0283784D01*
X0077273Y0283944D01*
X0077370Y0284101D01*
X0077471Y0284256D01*
X0077575Y0284409D01*
X0077684Y0284559D01*
X0077796Y0284706D01*
X0077911Y0284851D01*
X0078030Y0284992D01*
X0078153Y0285131D01*
X0078279Y0285266D01*
X0078408Y0285399D01*
X0078541Y0285528D01*
X0078676Y0285654D01*
X0078815Y0285777D01*
X0078956Y0285896D01*
X0079101Y0286011D01*
X0079248Y0286123D01*
X0079398Y0286232D01*
X0079551Y0286336D01*
X0079706Y0286437D01*
X0079863Y0286534D01*
X0080023Y0286628D01*
X0080185Y0286717D01*
X0080349Y0286802D01*
X0080516Y0286883D01*
X0080684Y0286960D01*
X0080854Y0287033D01*
X0081026Y0287102D01*
X0081199Y0287166D01*
X0081374Y0287226D01*
X0081551Y0287282D01*
X0081728Y0287334D01*
X0081907Y0287381D01*
X0082087Y0287424D01*
X0082268Y0287462D01*
X0082450Y0287496D01*
X0082633Y0287525D01*
X0082816Y0287550D01*
X0083000Y0287571D01*
X0083184Y0287587D01*
X0083369Y0287598D01*
X0083554Y0287605D01*
X0083739Y0287607D01*
X0083924Y0287605D01*
X0084109Y0287598D01*
X0084294Y0287587D01*
X0084478Y0287571D01*
X0084662Y0287550D01*
X0084845Y0287525D01*
X0085028Y0287496D01*
X0085210Y0287462D01*
X0085391Y0287424D01*
X0085571Y0287381D01*
X0085750Y0287334D01*
X0085927Y0287282D01*
X0086104Y0287226D01*
X0086279Y0287166D01*
X0086452Y0287102D01*
X0086624Y0287033D01*
X0086794Y0286960D01*
X0086962Y0286883D01*
X0087129Y0286802D01*
X0087293Y0286717D01*
X0087455Y0286628D01*
X0087615Y0286534D01*
X0087772Y0286437D01*
X0087927Y0286336D01*
X0088080Y0286232D01*
X0088230Y0286123D01*
X0088377Y0286011D01*
X0088522Y0285896D01*
X0088663Y0285777D01*
X0088802Y0285654D01*
X0088937Y0285528D01*
X0089070Y0285399D01*
X0089199Y0285266D01*
X0089325Y0285131D01*
X0089448Y0284992D01*
X0089567Y0284851D01*
X0089682Y0284706D01*
X0089794Y0284559D01*
X0089903Y0284409D01*
X0090007Y0284256D01*
X0090108Y0284101D01*
X0090205Y0283944D01*
X0090299Y0283784D01*
X0090388Y0283622D01*
X0090473Y0283458D01*
X0090554Y0283291D01*
X0090631Y0283123D01*
X0090704Y0282953D01*
X0090773Y0282781D01*
X0090837Y0282608D01*
X0090897Y0282433D01*
X0090953Y0282256D01*
X0091005Y0282079D01*
X0091052Y0281900D01*
X0091095Y0281720D01*
X0091133Y0281539D01*
X0091167Y0281357D01*
X0091196Y0281174D01*
X0091221Y0280991D01*
X0091242Y0280807D01*
X0091258Y0280623D01*
X0091269Y0280438D01*
X0091276Y0280253D01*
X0091278Y0280068D01*
X0091276Y0279883D01*
X0091269Y0279698D01*
X0091258Y0279513D01*
X0091242Y0279329D01*
X0091221Y0279145D01*
X0091196Y0278962D01*
X0091167Y0278779D01*
X0091133Y0278597D01*
X0091095Y0278416D01*
X0091052Y0278236D01*
X0091005Y0278057D01*
X0090953Y0277880D01*
X0090897Y0277703D01*
X0090837Y0277528D01*
X0090773Y0277355D01*
X0090704Y0277183D01*
X0090631Y0277013D01*
X0090554Y0276845D01*
X0090473Y0276678D01*
X0090388Y0276514D01*
X0090299Y0276352D01*
X0090205Y0276192D01*
X0090108Y0276035D01*
X0090007Y0275880D01*
X0089903Y0275727D01*
X0089794Y0275577D01*
X0089682Y0275430D01*
X0089567Y0275285D01*
X0089448Y0275144D01*
X0089325Y0275005D01*
X0089199Y0274870D01*
X0089070Y0274737D01*
X0088937Y0274608D01*
X0088802Y0274482D01*
X0088663Y0274359D01*
X0088522Y0274240D01*
X0088377Y0274125D01*
X0088230Y0274013D01*
X0088080Y0273904D01*
X0087927Y0273800D01*
X0087772Y0273699D01*
X0087615Y0273602D01*
X0087455Y0273508D01*
X0087293Y0273419D01*
X0087129Y0273334D01*
X0086962Y0273253D01*
X0086794Y0273176D01*
X0086624Y0273103D01*
X0086452Y0273034D01*
X0086279Y0272970D01*
X0086104Y0272910D01*
X0085927Y0272854D01*
X0085750Y0272802D01*
X0085571Y0272755D01*
X0085391Y0272712D01*
X0085210Y0272674D01*
X0085028Y0272640D01*
X0084845Y0272611D01*
X0084662Y0272586D01*
X0084478Y0272565D01*
X0084294Y0272549D01*
X0084109Y0272538D01*
X0083924Y0272531D01*
X0083739Y0272529D01*
X0083554Y0272531D01*
X0083369Y0272538D01*
X0083184Y0272549D01*
X0083000Y0272565D01*
X0082816Y0272586D01*
X0082633Y0272611D01*
X0082450Y0272640D01*
X0082268Y0272674D01*
X0082087Y0272712D01*
X0081907Y0272755D01*
X0081728Y0272802D01*
X0081551Y0272854D01*
X0081374Y0272910D01*
X0081199Y0272970D01*
X0081026Y0273034D01*
X0080854Y0273103D01*
X0080684Y0273176D01*
X0080516Y0273253D01*
X0080349Y0273334D01*
X0080185Y0273419D01*
X0080023Y0273508D01*
X0079863Y0273602D01*
X0079706Y0273699D01*
X0079551Y0273800D01*
X0079398Y0273904D01*
X0079248Y0274013D01*
X0079101Y0274125D01*
X0078956Y0274240D01*
X0078815Y0274359D01*
X0078676Y0274482D01*
X0078541Y0274608D01*
X0078408Y0274737D01*
X0078279Y0274870D01*
X0078153Y0275005D01*
X0078030Y0275144D01*
X0077911Y0275285D01*
X0077796Y0275430D01*
X0077684Y0275577D01*
X0077575Y0275727D01*
X0077471Y0275880D01*
X0077370Y0276035D01*
X0077273Y0276192D01*
X0077179Y0276352D01*
X0077090Y0276514D01*
X0077005Y0276678D01*
X0076924Y0276845D01*
X0076847Y0277013D01*
X0076774Y0277183D01*
X0076705Y0277355D01*
X0076641Y0277528D01*
X0076581Y0277703D01*
X0076525Y0277880D01*
X0076473Y0278057D01*
X0076426Y0278236D01*
X0076383Y0278416D01*
X0076345Y0278597D01*
X0076311Y0278779D01*
X0076282Y0278962D01*
X0076257Y0279145D01*
X0076236Y0279329D01*
X0076220Y0279513D01*
X0076209Y0279698D01*
X0076202Y0279883D01*
X0076200Y0280068D01*
X0069913Y0284293D02*
X0066255Y0280635D01*
X0063739Y0278119D01*
X0063271Y0277651D01*
X0059515Y0273895D01*
X0057566Y0275844D02*
X0061259Y0279537D01*
X0063739Y0282017D01*
X0064369Y0282647D01*
X0067964Y0286241D01*
X0064369Y0282647D02*
X0064466Y0282621D01*
X0064561Y0282590D01*
X0064656Y0282556D01*
X0064749Y0282518D01*
X0064840Y0282477D01*
X0064930Y0282432D01*
X0065018Y0282383D01*
X0065104Y0282332D01*
X0065188Y0282276D01*
X0065270Y0282218D01*
X0065349Y0282156D01*
X0065426Y0282092D01*
X0065500Y0282024D01*
X0065571Y0281953D01*
X0065640Y0281880D01*
X0065706Y0281804D01*
X0065768Y0281726D01*
X0065828Y0281645D01*
X0065884Y0281562D01*
X0065937Y0281477D01*
X0065987Y0281389D01*
X0066033Y0281300D01*
X0066076Y0281209D01*
X0066115Y0281117D01*
X0066151Y0281023D01*
X0066182Y0280928D01*
X0066210Y0280831D01*
X0066234Y0280734D01*
X0066255Y0280635D01*
X0063271Y0277651D02*
X0063172Y0277672D01*
X0063075Y0277696D01*
X0062978Y0277724D01*
X0062883Y0277755D01*
X0062789Y0277791D01*
X0062697Y0277830D01*
X0062606Y0277873D01*
X0062517Y0277919D01*
X0062429Y0277969D01*
X0062344Y0278022D01*
X0062261Y0278078D01*
X0062180Y0278138D01*
X0062102Y0278200D01*
X0062026Y0278266D01*
X0061953Y0278335D01*
X0061882Y0278406D01*
X0061814Y0278480D01*
X0061750Y0278557D01*
X0061688Y0278636D01*
X0061630Y0278718D01*
X0061574Y0278802D01*
X0061523Y0278888D01*
X0061474Y0278976D01*
X0061429Y0279066D01*
X0061388Y0279157D01*
X0061350Y0279250D01*
X0061316Y0279345D01*
X0061285Y0279440D01*
X0061259Y0279537D01*
X0056200Y0280068D02*
X0056202Y0280253D01*
X0056209Y0280438D01*
X0056220Y0280623D01*
X0056236Y0280807D01*
X0056257Y0280991D01*
X0056282Y0281174D01*
X0056311Y0281357D01*
X0056345Y0281539D01*
X0056383Y0281720D01*
X0056426Y0281900D01*
X0056473Y0282079D01*
X0056525Y0282256D01*
X0056581Y0282433D01*
X0056641Y0282608D01*
X0056705Y0282781D01*
X0056774Y0282953D01*
X0056847Y0283123D01*
X0056924Y0283291D01*
X0057005Y0283458D01*
X0057090Y0283622D01*
X0057179Y0283784D01*
X0057273Y0283944D01*
X0057370Y0284101D01*
X0057471Y0284256D01*
X0057575Y0284409D01*
X0057684Y0284559D01*
X0057796Y0284706D01*
X0057911Y0284851D01*
X0058030Y0284992D01*
X0058153Y0285131D01*
X0058279Y0285266D01*
X0058408Y0285399D01*
X0058541Y0285528D01*
X0058676Y0285654D01*
X0058815Y0285777D01*
X0058956Y0285896D01*
X0059101Y0286011D01*
X0059248Y0286123D01*
X0059398Y0286232D01*
X0059551Y0286336D01*
X0059706Y0286437D01*
X0059863Y0286534D01*
X0060023Y0286628D01*
X0060185Y0286717D01*
X0060349Y0286802D01*
X0060516Y0286883D01*
X0060684Y0286960D01*
X0060854Y0287033D01*
X0061026Y0287102D01*
X0061199Y0287166D01*
X0061374Y0287226D01*
X0061551Y0287282D01*
X0061728Y0287334D01*
X0061907Y0287381D01*
X0062087Y0287424D01*
X0062268Y0287462D01*
X0062450Y0287496D01*
X0062633Y0287525D01*
X0062816Y0287550D01*
X0063000Y0287571D01*
X0063184Y0287587D01*
X0063369Y0287598D01*
X0063554Y0287605D01*
X0063739Y0287607D01*
X0063924Y0287605D01*
X0064109Y0287598D01*
X0064294Y0287587D01*
X0064478Y0287571D01*
X0064662Y0287550D01*
X0064845Y0287525D01*
X0065028Y0287496D01*
X0065210Y0287462D01*
X0065391Y0287424D01*
X0065571Y0287381D01*
X0065750Y0287334D01*
X0065927Y0287282D01*
X0066104Y0287226D01*
X0066279Y0287166D01*
X0066452Y0287102D01*
X0066624Y0287033D01*
X0066794Y0286960D01*
X0066962Y0286883D01*
X0067129Y0286802D01*
X0067293Y0286717D01*
X0067455Y0286628D01*
X0067615Y0286534D01*
X0067772Y0286437D01*
X0067927Y0286336D01*
X0068080Y0286232D01*
X0068230Y0286123D01*
X0068377Y0286011D01*
X0068522Y0285896D01*
X0068663Y0285777D01*
X0068802Y0285654D01*
X0068937Y0285528D01*
X0069070Y0285399D01*
X0069199Y0285266D01*
X0069325Y0285131D01*
X0069448Y0284992D01*
X0069567Y0284851D01*
X0069682Y0284706D01*
X0069794Y0284559D01*
X0069903Y0284409D01*
X0070007Y0284256D01*
X0070108Y0284101D01*
X0070205Y0283944D01*
X0070299Y0283784D01*
X0070388Y0283622D01*
X0070473Y0283458D01*
X0070554Y0283291D01*
X0070631Y0283123D01*
X0070704Y0282953D01*
X0070773Y0282781D01*
X0070837Y0282608D01*
X0070897Y0282433D01*
X0070953Y0282256D01*
X0071005Y0282079D01*
X0071052Y0281900D01*
X0071095Y0281720D01*
X0071133Y0281539D01*
X0071167Y0281357D01*
X0071196Y0281174D01*
X0071221Y0280991D01*
X0071242Y0280807D01*
X0071258Y0280623D01*
X0071269Y0280438D01*
X0071276Y0280253D01*
X0071278Y0280068D01*
X0071276Y0279883D01*
X0071269Y0279698D01*
X0071258Y0279513D01*
X0071242Y0279329D01*
X0071221Y0279145D01*
X0071196Y0278962D01*
X0071167Y0278779D01*
X0071133Y0278597D01*
X0071095Y0278416D01*
X0071052Y0278236D01*
X0071005Y0278057D01*
X0070953Y0277880D01*
X0070897Y0277703D01*
X0070837Y0277528D01*
X0070773Y0277355D01*
X0070704Y0277183D01*
X0070631Y0277013D01*
X0070554Y0276845D01*
X0070473Y0276678D01*
X0070388Y0276514D01*
X0070299Y0276352D01*
X0070205Y0276192D01*
X0070108Y0276035D01*
X0070007Y0275880D01*
X0069903Y0275727D01*
X0069794Y0275577D01*
X0069682Y0275430D01*
X0069567Y0275285D01*
X0069448Y0275144D01*
X0069325Y0275005D01*
X0069199Y0274870D01*
X0069070Y0274737D01*
X0068937Y0274608D01*
X0068802Y0274482D01*
X0068663Y0274359D01*
X0068522Y0274240D01*
X0068377Y0274125D01*
X0068230Y0274013D01*
X0068080Y0273904D01*
X0067927Y0273800D01*
X0067772Y0273699D01*
X0067615Y0273602D01*
X0067455Y0273508D01*
X0067293Y0273419D01*
X0067129Y0273334D01*
X0066962Y0273253D01*
X0066794Y0273176D01*
X0066624Y0273103D01*
X0066452Y0273034D01*
X0066279Y0272970D01*
X0066104Y0272910D01*
X0065927Y0272854D01*
X0065750Y0272802D01*
X0065571Y0272755D01*
X0065391Y0272712D01*
X0065210Y0272674D01*
X0065028Y0272640D01*
X0064845Y0272611D01*
X0064662Y0272586D01*
X0064478Y0272565D01*
X0064294Y0272549D01*
X0064109Y0272538D01*
X0063924Y0272531D01*
X0063739Y0272529D01*
X0063554Y0272531D01*
X0063369Y0272538D01*
X0063184Y0272549D01*
X0063000Y0272565D01*
X0062816Y0272586D01*
X0062633Y0272611D01*
X0062450Y0272640D01*
X0062268Y0272674D01*
X0062087Y0272712D01*
X0061907Y0272755D01*
X0061728Y0272802D01*
X0061551Y0272854D01*
X0061374Y0272910D01*
X0061199Y0272970D01*
X0061026Y0273034D01*
X0060854Y0273103D01*
X0060684Y0273176D01*
X0060516Y0273253D01*
X0060349Y0273334D01*
X0060185Y0273419D01*
X0060023Y0273508D01*
X0059863Y0273602D01*
X0059706Y0273699D01*
X0059551Y0273800D01*
X0059398Y0273904D01*
X0059248Y0274013D01*
X0059101Y0274125D01*
X0058956Y0274240D01*
X0058815Y0274359D01*
X0058676Y0274482D01*
X0058541Y0274608D01*
X0058408Y0274737D01*
X0058279Y0274870D01*
X0058153Y0275005D01*
X0058030Y0275144D01*
X0057911Y0275285D01*
X0057796Y0275430D01*
X0057684Y0275577D01*
X0057575Y0275727D01*
X0057471Y0275880D01*
X0057370Y0276035D01*
X0057273Y0276192D01*
X0057179Y0276352D01*
X0057090Y0276514D01*
X0057005Y0276678D01*
X0056924Y0276845D01*
X0056847Y0277013D01*
X0056774Y0277183D01*
X0056705Y0277355D01*
X0056641Y0277528D01*
X0056581Y0277703D01*
X0056525Y0277880D01*
X0056473Y0278057D01*
X0056426Y0278236D01*
X0056383Y0278416D01*
X0056345Y0278597D01*
X0056311Y0278779D01*
X0056282Y0278962D01*
X0056257Y0279145D01*
X0056236Y0279329D01*
X0056220Y0279513D01*
X0056209Y0279698D01*
X0056202Y0279883D01*
X0056200Y0280068D01*
X0049913Y0284293D02*
X0046255Y0280635D01*
X0043739Y0278119D01*
X0043271Y0277651D01*
X0039515Y0273895D01*
X0037566Y0275844D02*
X0041259Y0279537D01*
X0043739Y0282017D01*
X0044369Y0282647D01*
X0047964Y0286241D01*
X0044369Y0282647D02*
X0044466Y0282621D01*
X0044561Y0282590D01*
X0044656Y0282556D01*
X0044749Y0282518D01*
X0044840Y0282477D01*
X0044930Y0282432D01*
X0045018Y0282383D01*
X0045104Y0282332D01*
X0045188Y0282276D01*
X0045270Y0282218D01*
X0045349Y0282156D01*
X0045426Y0282092D01*
X0045500Y0282024D01*
X0045571Y0281953D01*
X0045640Y0281880D01*
X0045706Y0281804D01*
X0045768Y0281726D01*
X0045828Y0281645D01*
X0045884Y0281562D01*
X0045937Y0281477D01*
X0045987Y0281389D01*
X0046033Y0281300D01*
X0046076Y0281209D01*
X0046115Y0281117D01*
X0046151Y0281023D01*
X0046182Y0280928D01*
X0046210Y0280831D01*
X0046234Y0280734D01*
X0046255Y0280635D01*
X0043271Y0277651D02*
X0043172Y0277672D01*
X0043075Y0277696D01*
X0042978Y0277724D01*
X0042883Y0277755D01*
X0042789Y0277791D01*
X0042697Y0277830D01*
X0042606Y0277873D01*
X0042517Y0277919D01*
X0042429Y0277969D01*
X0042344Y0278022D01*
X0042261Y0278078D01*
X0042180Y0278138D01*
X0042102Y0278200D01*
X0042026Y0278266D01*
X0041953Y0278335D01*
X0041882Y0278406D01*
X0041814Y0278480D01*
X0041750Y0278557D01*
X0041688Y0278636D01*
X0041630Y0278718D01*
X0041574Y0278802D01*
X0041523Y0278888D01*
X0041474Y0278976D01*
X0041429Y0279066D01*
X0041388Y0279157D01*
X0041350Y0279250D01*
X0041316Y0279345D01*
X0041285Y0279440D01*
X0041259Y0279537D01*
X0036200Y0280068D02*
X0036202Y0280253D01*
X0036209Y0280438D01*
X0036220Y0280623D01*
X0036236Y0280807D01*
X0036257Y0280991D01*
X0036282Y0281174D01*
X0036311Y0281357D01*
X0036345Y0281539D01*
X0036383Y0281720D01*
X0036426Y0281900D01*
X0036473Y0282079D01*
X0036525Y0282256D01*
X0036581Y0282433D01*
X0036641Y0282608D01*
X0036705Y0282781D01*
X0036774Y0282953D01*
X0036847Y0283123D01*
X0036924Y0283291D01*
X0037005Y0283458D01*
X0037090Y0283622D01*
X0037179Y0283784D01*
X0037273Y0283944D01*
X0037370Y0284101D01*
X0037471Y0284256D01*
X0037575Y0284409D01*
X0037684Y0284559D01*
X0037796Y0284706D01*
X0037911Y0284851D01*
X0038030Y0284992D01*
X0038153Y0285131D01*
X0038279Y0285266D01*
X0038408Y0285399D01*
X0038541Y0285528D01*
X0038676Y0285654D01*
X0038815Y0285777D01*
X0038956Y0285896D01*
X0039101Y0286011D01*
X0039248Y0286123D01*
X0039398Y0286232D01*
X0039551Y0286336D01*
X0039706Y0286437D01*
X0039863Y0286534D01*
X0040023Y0286628D01*
X0040185Y0286717D01*
X0040349Y0286802D01*
X0040516Y0286883D01*
X0040684Y0286960D01*
X0040854Y0287033D01*
X0041026Y0287102D01*
X0041199Y0287166D01*
X0041374Y0287226D01*
X0041551Y0287282D01*
X0041728Y0287334D01*
X0041907Y0287381D01*
X0042087Y0287424D01*
X0042268Y0287462D01*
X0042450Y0287496D01*
X0042633Y0287525D01*
X0042816Y0287550D01*
X0043000Y0287571D01*
X0043184Y0287587D01*
X0043369Y0287598D01*
X0043554Y0287605D01*
X0043739Y0287607D01*
X0043924Y0287605D01*
X0044109Y0287598D01*
X0044294Y0287587D01*
X0044478Y0287571D01*
X0044662Y0287550D01*
X0044845Y0287525D01*
X0045028Y0287496D01*
X0045210Y0287462D01*
X0045391Y0287424D01*
X0045571Y0287381D01*
X0045750Y0287334D01*
X0045927Y0287282D01*
X0046104Y0287226D01*
X0046279Y0287166D01*
X0046452Y0287102D01*
X0046624Y0287033D01*
X0046794Y0286960D01*
X0046962Y0286883D01*
X0047129Y0286802D01*
X0047293Y0286717D01*
X0047455Y0286628D01*
X0047615Y0286534D01*
X0047772Y0286437D01*
X0047927Y0286336D01*
X0048080Y0286232D01*
X0048230Y0286123D01*
X0048377Y0286011D01*
X0048522Y0285896D01*
X0048663Y0285777D01*
X0048802Y0285654D01*
X0048937Y0285528D01*
X0049070Y0285399D01*
X0049199Y0285266D01*
X0049325Y0285131D01*
X0049448Y0284992D01*
X0049567Y0284851D01*
X0049682Y0284706D01*
X0049794Y0284559D01*
X0049903Y0284409D01*
X0050007Y0284256D01*
X0050108Y0284101D01*
X0050205Y0283944D01*
X0050299Y0283784D01*
X0050388Y0283622D01*
X0050473Y0283458D01*
X0050554Y0283291D01*
X0050631Y0283123D01*
X0050704Y0282953D01*
X0050773Y0282781D01*
X0050837Y0282608D01*
X0050897Y0282433D01*
X0050953Y0282256D01*
X0051005Y0282079D01*
X0051052Y0281900D01*
X0051095Y0281720D01*
X0051133Y0281539D01*
X0051167Y0281357D01*
X0051196Y0281174D01*
X0051221Y0280991D01*
X0051242Y0280807D01*
X0051258Y0280623D01*
X0051269Y0280438D01*
X0051276Y0280253D01*
X0051278Y0280068D01*
X0051276Y0279883D01*
X0051269Y0279698D01*
X0051258Y0279513D01*
X0051242Y0279329D01*
X0051221Y0279145D01*
X0051196Y0278962D01*
X0051167Y0278779D01*
X0051133Y0278597D01*
X0051095Y0278416D01*
X0051052Y0278236D01*
X0051005Y0278057D01*
X0050953Y0277880D01*
X0050897Y0277703D01*
X0050837Y0277528D01*
X0050773Y0277355D01*
X0050704Y0277183D01*
X0050631Y0277013D01*
X0050554Y0276845D01*
X0050473Y0276678D01*
X0050388Y0276514D01*
X0050299Y0276352D01*
X0050205Y0276192D01*
X0050108Y0276035D01*
X0050007Y0275880D01*
X0049903Y0275727D01*
X0049794Y0275577D01*
X0049682Y0275430D01*
X0049567Y0275285D01*
X0049448Y0275144D01*
X0049325Y0275005D01*
X0049199Y0274870D01*
X0049070Y0274737D01*
X0048937Y0274608D01*
X0048802Y0274482D01*
X0048663Y0274359D01*
X0048522Y0274240D01*
X0048377Y0274125D01*
X0048230Y0274013D01*
X0048080Y0273904D01*
X0047927Y0273800D01*
X0047772Y0273699D01*
X0047615Y0273602D01*
X0047455Y0273508D01*
X0047293Y0273419D01*
X0047129Y0273334D01*
X0046962Y0273253D01*
X0046794Y0273176D01*
X0046624Y0273103D01*
X0046452Y0273034D01*
X0046279Y0272970D01*
X0046104Y0272910D01*
X0045927Y0272854D01*
X0045750Y0272802D01*
X0045571Y0272755D01*
X0045391Y0272712D01*
X0045210Y0272674D01*
X0045028Y0272640D01*
X0044845Y0272611D01*
X0044662Y0272586D01*
X0044478Y0272565D01*
X0044294Y0272549D01*
X0044109Y0272538D01*
X0043924Y0272531D01*
X0043739Y0272529D01*
X0043554Y0272531D01*
X0043369Y0272538D01*
X0043184Y0272549D01*
X0043000Y0272565D01*
X0042816Y0272586D01*
X0042633Y0272611D01*
X0042450Y0272640D01*
X0042268Y0272674D01*
X0042087Y0272712D01*
X0041907Y0272755D01*
X0041728Y0272802D01*
X0041551Y0272854D01*
X0041374Y0272910D01*
X0041199Y0272970D01*
X0041026Y0273034D01*
X0040854Y0273103D01*
X0040684Y0273176D01*
X0040516Y0273253D01*
X0040349Y0273334D01*
X0040185Y0273419D01*
X0040023Y0273508D01*
X0039863Y0273602D01*
X0039706Y0273699D01*
X0039551Y0273800D01*
X0039398Y0273904D01*
X0039248Y0274013D01*
X0039101Y0274125D01*
X0038956Y0274240D01*
X0038815Y0274359D01*
X0038676Y0274482D01*
X0038541Y0274608D01*
X0038408Y0274737D01*
X0038279Y0274870D01*
X0038153Y0275005D01*
X0038030Y0275144D01*
X0037911Y0275285D01*
X0037796Y0275430D01*
X0037684Y0275577D01*
X0037575Y0275727D01*
X0037471Y0275880D01*
X0037370Y0276035D01*
X0037273Y0276192D01*
X0037179Y0276352D01*
X0037090Y0276514D01*
X0037005Y0276678D01*
X0036924Y0276845D01*
X0036847Y0277013D01*
X0036774Y0277183D01*
X0036705Y0277355D01*
X0036641Y0277528D01*
X0036581Y0277703D01*
X0036525Y0277880D01*
X0036473Y0278057D01*
X0036426Y0278236D01*
X0036383Y0278416D01*
X0036345Y0278597D01*
X0036311Y0278779D01*
X0036282Y0278962D01*
X0036257Y0279145D01*
X0036236Y0279329D01*
X0036220Y0279513D01*
X0036209Y0279698D01*
X0036202Y0279883D01*
X0036200Y0280068D01*
X0033739Y0287865D02*
X0033739Y0272130D01*
X0033739Y0270228D01*
X0033739Y0264222D01*
X0093739Y0264222D01*
X0093519Y0246860D02*
X0088794Y0246860D01*
X0088794Y0233474D01*
X0093519Y0233474D01*
X0093519Y0246860D01*
X0093519Y0242860D02*
X0093519Y0237474D01*
X0088794Y0237474D02*
X0088794Y0242860D01*
X0107582Y0234474D02*
X0111176Y0230880D01*
X0114286Y0227769D01*
X0117979Y0224077D01*
X0119928Y0226025D02*
X0116172Y0229781D01*
X0113188Y0232765D01*
X0109530Y0236423D01*
X0113188Y0232766D02*
X0113089Y0232745D01*
X0112992Y0232721D01*
X0112895Y0232693D01*
X0112800Y0232662D01*
X0112706Y0232626D01*
X0112614Y0232587D01*
X0112523Y0232544D01*
X0112434Y0232498D01*
X0112346Y0232448D01*
X0112261Y0232395D01*
X0112178Y0232339D01*
X0112097Y0232279D01*
X0112019Y0232217D01*
X0111943Y0232151D01*
X0111870Y0232082D01*
X0111799Y0232011D01*
X0111731Y0231937D01*
X0111667Y0231860D01*
X0111605Y0231781D01*
X0111547Y0231699D01*
X0111491Y0231615D01*
X0111440Y0231529D01*
X0111391Y0231441D01*
X0111346Y0231351D01*
X0111305Y0231260D01*
X0111267Y0231167D01*
X0111233Y0231072D01*
X0111202Y0230977D01*
X0111176Y0230880D01*
X0114286Y0227770D02*
X0114383Y0227796D01*
X0114478Y0227827D01*
X0114573Y0227861D01*
X0114666Y0227899D01*
X0114757Y0227940D01*
X0114847Y0227985D01*
X0114935Y0228034D01*
X0115021Y0228085D01*
X0115105Y0228141D01*
X0115187Y0228199D01*
X0115266Y0228261D01*
X0115343Y0228325D01*
X0115417Y0228393D01*
X0115488Y0228464D01*
X0115557Y0228537D01*
X0115623Y0228613D01*
X0115685Y0228691D01*
X0115745Y0228772D01*
X0115801Y0228855D01*
X0115854Y0228940D01*
X0115904Y0229028D01*
X0115950Y0229117D01*
X0115993Y0229208D01*
X0116032Y0229300D01*
X0116068Y0229394D01*
X0116099Y0229489D01*
X0116127Y0229586D01*
X0116151Y0229683D01*
X0116172Y0229782D01*
X0106216Y0230250D02*
X0106218Y0230435D01*
X0106225Y0230620D01*
X0106236Y0230805D01*
X0106252Y0230989D01*
X0106273Y0231173D01*
X0106298Y0231356D01*
X0106327Y0231539D01*
X0106361Y0231721D01*
X0106399Y0231902D01*
X0106442Y0232082D01*
X0106489Y0232261D01*
X0106541Y0232438D01*
X0106597Y0232615D01*
X0106657Y0232790D01*
X0106721Y0232963D01*
X0106790Y0233135D01*
X0106863Y0233305D01*
X0106940Y0233473D01*
X0107021Y0233640D01*
X0107106Y0233804D01*
X0107195Y0233966D01*
X0107289Y0234126D01*
X0107386Y0234283D01*
X0107487Y0234438D01*
X0107591Y0234591D01*
X0107700Y0234741D01*
X0107812Y0234888D01*
X0107927Y0235033D01*
X0108046Y0235174D01*
X0108169Y0235313D01*
X0108295Y0235448D01*
X0108424Y0235581D01*
X0108557Y0235710D01*
X0108692Y0235836D01*
X0108831Y0235959D01*
X0108972Y0236078D01*
X0109117Y0236193D01*
X0109264Y0236305D01*
X0109414Y0236414D01*
X0109567Y0236518D01*
X0109722Y0236619D01*
X0109879Y0236716D01*
X0110039Y0236810D01*
X0110201Y0236899D01*
X0110365Y0236984D01*
X0110532Y0237065D01*
X0110700Y0237142D01*
X0110870Y0237215D01*
X0111042Y0237284D01*
X0111215Y0237348D01*
X0111390Y0237408D01*
X0111567Y0237464D01*
X0111744Y0237516D01*
X0111923Y0237563D01*
X0112103Y0237606D01*
X0112284Y0237644D01*
X0112466Y0237678D01*
X0112649Y0237707D01*
X0112832Y0237732D01*
X0113016Y0237753D01*
X0113200Y0237769D01*
X0113385Y0237780D01*
X0113570Y0237787D01*
X0113755Y0237789D01*
X0113940Y0237787D01*
X0114125Y0237780D01*
X0114310Y0237769D01*
X0114494Y0237753D01*
X0114678Y0237732D01*
X0114861Y0237707D01*
X0115044Y0237678D01*
X0115226Y0237644D01*
X0115407Y0237606D01*
X0115587Y0237563D01*
X0115766Y0237516D01*
X0115943Y0237464D01*
X0116120Y0237408D01*
X0116295Y0237348D01*
X0116468Y0237284D01*
X0116640Y0237215D01*
X0116810Y0237142D01*
X0116978Y0237065D01*
X0117145Y0236984D01*
X0117309Y0236899D01*
X0117471Y0236810D01*
X0117631Y0236716D01*
X0117788Y0236619D01*
X0117943Y0236518D01*
X0118096Y0236414D01*
X0118246Y0236305D01*
X0118393Y0236193D01*
X0118538Y0236078D01*
X0118679Y0235959D01*
X0118818Y0235836D01*
X0118953Y0235710D01*
X0119086Y0235581D01*
X0119215Y0235448D01*
X0119341Y0235313D01*
X0119464Y0235174D01*
X0119583Y0235033D01*
X0119698Y0234888D01*
X0119810Y0234741D01*
X0119919Y0234591D01*
X0120023Y0234438D01*
X0120124Y0234283D01*
X0120221Y0234126D01*
X0120315Y0233966D01*
X0120404Y0233804D01*
X0120489Y0233640D01*
X0120570Y0233473D01*
X0120647Y0233305D01*
X0120720Y0233135D01*
X0120789Y0232963D01*
X0120853Y0232790D01*
X0120913Y0232615D01*
X0120969Y0232438D01*
X0121021Y0232261D01*
X0121068Y0232082D01*
X0121111Y0231902D01*
X0121149Y0231721D01*
X0121183Y0231539D01*
X0121212Y0231356D01*
X0121237Y0231173D01*
X0121258Y0230989D01*
X0121274Y0230805D01*
X0121285Y0230620D01*
X0121292Y0230435D01*
X0121294Y0230250D01*
X0121292Y0230065D01*
X0121285Y0229880D01*
X0121274Y0229695D01*
X0121258Y0229511D01*
X0121237Y0229327D01*
X0121212Y0229144D01*
X0121183Y0228961D01*
X0121149Y0228779D01*
X0121111Y0228598D01*
X0121068Y0228418D01*
X0121021Y0228239D01*
X0120969Y0228062D01*
X0120913Y0227885D01*
X0120853Y0227710D01*
X0120789Y0227537D01*
X0120720Y0227365D01*
X0120647Y0227195D01*
X0120570Y0227027D01*
X0120489Y0226860D01*
X0120404Y0226696D01*
X0120315Y0226534D01*
X0120221Y0226374D01*
X0120124Y0226217D01*
X0120023Y0226062D01*
X0119919Y0225909D01*
X0119810Y0225759D01*
X0119698Y0225612D01*
X0119583Y0225467D01*
X0119464Y0225326D01*
X0119341Y0225187D01*
X0119215Y0225052D01*
X0119086Y0224919D01*
X0118953Y0224790D01*
X0118818Y0224664D01*
X0118679Y0224541D01*
X0118538Y0224422D01*
X0118393Y0224307D01*
X0118246Y0224195D01*
X0118096Y0224086D01*
X0117943Y0223982D01*
X0117788Y0223881D01*
X0117631Y0223784D01*
X0117471Y0223690D01*
X0117309Y0223601D01*
X0117145Y0223516D01*
X0116978Y0223435D01*
X0116810Y0223358D01*
X0116640Y0223285D01*
X0116468Y0223216D01*
X0116295Y0223152D01*
X0116120Y0223092D01*
X0115943Y0223036D01*
X0115766Y0222984D01*
X0115587Y0222937D01*
X0115407Y0222894D01*
X0115226Y0222856D01*
X0115044Y0222822D01*
X0114861Y0222793D01*
X0114678Y0222768D01*
X0114494Y0222747D01*
X0114310Y0222731D01*
X0114125Y0222720D01*
X0113940Y0222713D01*
X0113755Y0222711D01*
X0113570Y0222713D01*
X0113385Y0222720D01*
X0113200Y0222731D01*
X0113016Y0222747D01*
X0112832Y0222768D01*
X0112649Y0222793D01*
X0112466Y0222822D01*
X0112284Y0222856D01*
X0112103Y0222894D01*
X0111923Y0222937D01*
X0111744Y0222984D01*
X0111567Y0223036D01*
X0111390Y0223092D01*
X0111215Y0223152D01*
X0111042Y0223216D01*
X0110870Y0223285D01*
X0110700Y0223358D01*
X0110532Y0223435D01*
X0110365Y0223516D01*
X0110201Y0223601D01*
X0110039Y0223690D01*
X0109879Y0223784D01*
X0109722Y0223881D01*
X0109567Y0223982D01*
X0109414Y0224086D01*
X0109264Y0224195D01*
X0109117Y0224307D01*
X0108972Y0224422D01*
X0108831Y0224541D01*
X0108692Y0224664D01*
X0108557Y0224790D01*
X0108424Y0224919D01*
X0108295Y0225052D01*
X0108169Y0225187D01*
X0108046Y0225326D01*
X0107927Y0225467D01*
X0107812Y0225612D01*
X0107700Y0225759D01*
X0107591Y0225909D01*
X0107487Y0226062D01*
X0107386Y0226217D01*
X0107289Y0226374D01*
X0107195Y0226534D01*
X0107106Y0226696D01*
X0107021Y0226860D01*
X0106940Y0227027D01*
X0106863Y0227195D01*
X0106790Y0227365D01*
X0106721Y0227537D01*
X0106657Y0227710D01*
X0106597Y0227885D01*
X0106541Y0228062D01*
X0106489Y0228239D01*
X0106442Y0228418D01*
X0106399Y0228598D01*
X0106361Y0228779D01*
X0106327Y0228961D01*
X0106298Y0229144D01*
X0106273Y0229327D01*
X0106252Y0229511D01*
X0106236Y0229695D01*
X0106225Y0229880D01*
X0106218Y0230065D01*
X0106216Y0230250D01*
X0109530Y0216423D02*
X0113188Y0212765D01*
X0116172Y0209781D01*
X0119928Y0206025D01*
X0117979Y0204077D02*
X0114286Y0207769D01*
X0111176Y0210880D01*
X0107582Y0214474D01*
X0111176Y0210880D02*
X0111202Y0210977D01*
X0111233Y0211072D01*
X0111267Y0211167D01*
X0111305Y0211260D01*
X0111346Y0211351D01*
X0111391Y0211441D01*
X0111440Y0211529D01*
X0111491Y0211615D01*
X0111547Y0211699D01*
X0111605Y0211781D01*
X0111667Y0211860D01*
X0111731Y0211937D01*
X0111799Y0212011D01*
X0111870Y0212082D01*
X0111943Y0212151D01*
X0112019Y0212217D01*
X0112097Y0212279D01*
X0112178Y0212339D01*
X0112261Y0212395D01*
X0112346Y0212448D01*
X0112434Y0212498D01*
X0112523Y0212544D01*
X0112614Y0212587D01*
X0112706Y0212626D01*
X0112800Y0212662D01*
X0112895Y0212693D01*
X0112992Y0212721D01*
X0113089Y0212745D01*
X0113188Y0212766D01*
X0116172Y0209782D02*
X0116151Y0209683D01*
X0116127Y0209586D01*
X0116099Y0209489D01*
X0116068Y0209394D01*
X0116032Y0209300D01*
X0115993Y0209208D01*
X0115950Y0209117D01*
X0115904Y0209028D01*
X0115854Y0208940D01*
X0115801Y0208855D01*
X0115745Y0208772D01*
X0115685Y0208691D01*
X0115623Y0208613D01*
X0115557Y0208537D01*
X0115488Y0208464D01*
X0115417Y0208393D01*
X0115343Y0208325D01*
X0115266Y0208261D01*
X0115187Y0208199D01*
X0115105Y0208141D01*
X0115021Y0208085D01*
X0114935Y0208034D01*
X0114847Y0207985D01*
X0114757Y0207940D01*
X0114666Y0207899D01*
X0114573Y0207861D01*
X0114478Y0207827D01*
X0114383Y0207796D01*
X0114286Y0207770D01*
X0106216Y0210250D02*
X0106218Y0210435D01*
X0106225Y0210620D01*
X0106236Y0210805D01*
X0106252Y0210989D01*
X0106273Y0211173D01*
X0106298Y0211356D01*
X0106327Y0211539D01*
X0106361Y0211721D01*
X0106399Y0211902D01*
X0106442Y0212082D01*
X0106489Y0212261D01*
X0106541Y0212438D01*
X0106597Y0212615D01*
X0106657Y0212790D01*
X0106721Y0212963D01*
X0106790Y0213135D01*
X0106863Y0213305D01*
X0106940Y0213473D01*
X0107021Y0213640D01*
X0107106Y0213804D01*
X0107195Y0213966D01*
X0107289Y0214126D01*
X0107386Y0214283D01*
X0107487Y0214438D01*
X0107591Y0214591D01*
X0107700Y0214741D01*
X0107812Y0214888D01*
X0107927Y0215033D01*
X0108046Y0215174D01*
X0108169Y0215313D01*
X0108295Y0215448D01*
X0108424Y0215581D01*
X0108557Y0215710D01*
X0108692Y0215836D01*
X0108831Y0215959D01*
X0108972Y0216078D01*
X0109117Y0216193D01*
X0109264Y0216305D01*
X0109414Y0216414D01*
X0109567Y0216518D01*
X0109722Y0216619D01*
X0109879Y0216716D01*
X0110039Y0216810D01*
X0110201Y0216899D01*
X0110365Y0216984D01*
X0110532Y0217065D01*
X0110700Y0217142D01*
X0110870Y0217215D01*
X0111042Y0217284D01*
X0111215Y0217348D01*
X0111390Y0217408D01*
X0111567Y0217464D01*
X0111744Y0217516D01*
X0111923Y0217563D01*
X0112103Y0217606D01*
X0112284Y0217644D01*
X0112466Y0217678D01*
X0112649Y0217707D01*
X0112832Y0217732D01*
X0113016Y0217753D01*
X0113200Y0217769D01*
X0113385Y0217780D01*
X0113570Y0217787D01*
X0113755Y0217789D01*
X0113940Y0217787D01*
X0114125Y0217780D01*
X0114310Y0217769D01*
X0114494Y0217753D01*
X0114678Y0217732D01*
X0114861Y0217707D01*
X0115044Y0217678D01*
X0115226Y0217644D01*
X0115407Y0217606D01*
X0115587Y0217563D01*
X0115766Y0217516D01*
X0115943Y0217464D01*
X0116120Y0217408D01*
X0116295Y0217348D01*
X0116468Y0217284D01*
X0116640Y0217215D01*
X0116810Y0217142D01*
X0116978Y0217065D01*
X0117145Y0216984D01*
X0117309Y0216899D01*
X0117471Y0216810D01*
X0117631Y0216716D01*
X0117788Y0216619D01*
X0117943Y0216518D01*
X0118096Y0216414D01*
X0118246Y0216305D01*
X0118393Y0216193D01*
X0118538Y0216078D01*
X0118679Y0215959D01*
X0118818Y0215836D01*
X0118953Y0215710D01*
X0119086Y0215581D01*
X0119215Y0215448D01*
X0119341Y0215313D01*
X0119464Y0215174D01*
X0119583Y0215033D01*
X0119698Y0214888D01*
X0119810Y0214741D01*
X0119919Y0214591D01*
X0120023Y0214438D01*
X0120124Y0214283D01*
X0120221Y0214126D01*
X0120315Y0213966D01*
X0120404Y0213804D01*
X0120489Y0213640D01*
X0120570Y0213473D01*
X0120647Y0213305D01*
X0120720Y0213135D01*
X0120789Y0212963D01*
X0120853Y0212790D01*
X0120913Y0212615D01*
X0120969Y0212438D01*
X0121021Y0212261D01*
X0121068Y0212082D01*
X0121111Y0211902D01*
X0121149Y0211721D01*
X0121183Y0211539D01*
X0121212Y0211356D01*
X0121237Y0211173D01*
X0121258Y0210989D01*
X0121274Y0210805D01*
X0121285Y0210620D01*
X0121292Y0210435D01*
X0121294Y0210250D01*
X0121292Y0210065D01*
X0121285Y0209880D01*
X0121274Y0209695D01*
X0121258Y0209511D01*
X0121237Y0209327D01*
X0121212Y0209144D01*
X0121183Y0208961D01*
X0121149Y0208779D01*
X0121111Y0208598D01*
X0121068Y0208418D01*
X0121021Y0208239D01*
X0120969Y0208062D01*
X0120913Y0207885D01*
X0120853Y0207710D01*
X0120789Y0207537D01*
X0120720Y0207365D01*
X0120647Y0207195D01*
X0120570Y0207027D01*
X0120489Y0206860D01*
X0120404Y0206696D01*
X0120315Y0206534D01*
X0120221Y0206374D01*
X0120124Y0206217D01*
X0120023Y0206062D01*
X0119919Y0205909D01*
X0119810Y0205759D01*
X0119698Y0205612D01*
X0119583Y0205467D01*
X0119464Y0205326D01*
X0119341Y0205187D01*
X0119215Y0205052D01*
X0119086Y0204919D01*
X0118953Y0204790D01*
X0118818Y0204664D01*
X0118679Y0204541D01*
X0118538Y0204422D01*
X0118393Y0204307D01*
X0118246Y0204195D01*
X0118096Y0204086D01*
X0117943Y0203982D01*
X0117788Y0203881D01*
X0117631Y0203784D01*
X0117471Y0203690D01*
X0117309Y0203601D01*
X0117145Y0203516D01*
X0116978Y0203435D01*
X0116810Y0203358D01*
X0116640Y0203285D01*
X0116468Y0203216D01*
X0116295Y0203152D01*
X0116120Y0203092D01*
X0115943Y0203036D01*
X0115766Y0202984D01*
X0115587Y0202937D01*
X0115407Y0202894D01*
X0115226Y0202856D01*
X0115044Y0202822D01*
X0114861Y0202793D01*
X0114678Y0202768D01*
X0114494Y0202747D01*
X0114310Y0202731D01*
X0114125Y0202720D01*
X0113940Y0202713D01*
X0113755Y0202711D01*
X0113570Y0202713D01*
X0113385Y0202720D01*
X0113200Y0202731D01*
X0113016Y0202747D01*
X0112832Y0202768D01*
X0112649Y0202793D01*
X0112466Y0202822D01*
X0112284Y0202856D01*
X0112103Y0202894D01*
X0111923Y0202937D01*
X0111744Y0202984D01*
X0111567Y0203036D01*
X0111390Y0203092D01*
X0111215Y0203152D01*
X0111042Y0203216D01*
X0110870Y0203285D01*
X0110700Y0203358D01*
X0110532Y0203435D01*
X0110365Y0203516D01*
X0110201Y0203601D01*
X0110039Y0203690D01*
X0109879Y0203784D01*
X0109722Y0203881D01*
X0109567Y0203982D01*
X0109414Y0204086D01*
X0109264Y0204195D01*
X0109117Y0204307D01*
X0108972Y0204422D01*
X0108831Y0204541D01*
X0108692Y0204664D01*
X0108557Y0204790D01*
X0108424Y0204919D01*
X0108295Y0205052D01*
X0108169Y0205187D01*
X0108046Y0205326D01*
X0107927Y0205467D01*
X0107812Y0205612D01*
X0107700Y0205759D01*
X0107591Y0205909D01*
X0107487Y0206062D01*
X0107386Y0206217D01*
X0107289Y0206374D01*
X0107195Y0206534D01*
X0107106Y0206696D01*
X0107021Y0206860D01*
X0106940Y0207027D01*
X0106863Y0207195D01*
X0106790Y0207365D01*
X0106721Y0207537D01*
X0106657Y0207710D01*
X0106597Y0207885D01*
X0106541Y0208062D01*
X0106489Y0208239D01*
X0106442Y0208418D01*
X0106399Y0208598D01*
X0106361Y0208779D01*
X0106327Y0208961D01*
X0106298Y0209144D01*
X0106273Y0209327D01*
X0106252Y0209511D01*
X0106236Y0209695D01*
X0106225Y0209880D01*
X0106218Y0210065D01*
X0106216Y0210250D01*
X0109530Y0196423D02*
X0113188Y0192765D01*
X0116172Y0189781D01*
X0119928Y0186025D01*
X0117979Y0184077D02*
X0114286Y0187769D01*
X0111176Y0190880D01*
X0107582Y0194474D01*
X0111176Y0190880D02*
X0111202Y0190977D01*
X0111233Y0191072D01*
X0111267Y0191167D01*
X0111305Y0191260D01*
X0111346Y0191351D01*
X0111391Y0191441D01*
X0111440Y0191529D01*
X0111491Y0191615D01*
X0111547Y0191699D01*
X0111605Y0191781D01*
X0111667Y0191860D01*
X0111731Y0191937D01*
X0111799Y0192011D01*
X0111870Y0192082D01*
X0111943Y0192151D01*
X0112019Y0192217D01*
X0112097Y0192279D01*
X0112178Y0192339D01*
X0112261Y0192395D01*
X0112346Y0192448D01*
X0112434Y0192498D01*
X0112523Y0192544D01*
X0112614Y0192587D01*
X0112706Y0192626D01*
X0112800Y0192662D01*
X0112895Y0192693D01*
X0112992Y0192721D01*
X0113089Y0192745D01*
X0113188Y0192766D01*
X0116172Y0189782D02*
X0116151Y0189683D01*
X0116127Y0189586D01*
X0116099Y0189489D01*
X0116068Y0189394D01*
X0116032Y0189300D01*
X0115993Y0189208D01*
X0115950Y0189117D01*
X0115904Y0189028D01*
X0115854Y0188940D01*
X0115801Y0188855D01*
X0115745Y0188772D01*
X0115685Y0188691D01*
X0115623Y0188613D01*
X0115557Y0188537D01*
X0115488Y0188464D01*
X0115417Y0188393D01*
X0115343Y0188325D01*
X0115266Y0188261D01*
X0115187Y0188199D01*
X0115105Y0188141D01*
X0115021Y0188085D01*
X0114935Y0188034D01*
X0114847Y0187985D01*
X0114757Y0187940D01*
X0114666Y0187899D01*
X0114573Y0187861D01*
X0114478Y0187827D01*
X0114383Y0187796D01*
X0114286Y0187770D01*
X0106216Y0190250D02*
X0106218Y0190435D01*
X0106225Y0190620D01*
X0106236Y0190805D01*
X0106252Y0190989D01*
X0106273Y0191173D01*
X0106298Y0191356D01*
X0106327Y0191539D01*
X0106361Y0191721D01*
X0106399Y0191902D01*
X0106442Y0192082D01*
X0106489Y0192261D01*
X0106541Y0192438D01*
X0106597Y0192615D01*
X0106657Y0192790D01*
X0106721Y0192963D01*
X0106790Y0193135D01*
X0106863Y0193305D01*
X0106940Y0193473D01*
X0107021Y0193640D01*
X0107106Y0193804D01*
X0107195Y0193966D01*
X0107289Y0194126D01*
X0107386Y0194283D01*
X0107487Y0194438D01*
X0107591Y0194591D01*
X0107700Y0194741D01*
X0107812Y0194888D01*
X0107927Y0195033D01*
X0108046Y0195174D01*
X0108169Y0195313D01*
X0108295Y0195448D01*
X0108424Y0195581D01*
X0108557Y0195710D01*
X0108692Y0195836D01*
X0108831Y0195959D01*
X0108972Y0196078D01*
X0109117Y0196193D01*
X0109264Y0196305D01*
X0109414Y0196414D01*
X0109567Y0196518D01*
X0109722Y0196619D01*
X0109879Y0196716D01*
X0110039Y0196810D01*
X0110201Y0196899D01*
X0110365Y0196984D01*
X0110532Y0197065D01*
X0110700Y0197142D01*
X0110870Y0197215D01*
X0111042Y0197284D01*
X0111215Y0197348D01*
X0111390Y0197408D01*
X0111567Y0197464D01*
X0111744Y0197516D01*
X0111923Y0197563D01*
X0112103Y0197606D01*
X0112284Y0197644D01*
X0112466Y0197678D01*
X0112649Y0197707D01*
X0112832Y0197732D01*
X0113016Y0197753D01*
X0113200Y0197769D01*
X0113385Y0197780D01*
X0113570Y0197787D01*
X0113755Y0197789D01*
X0113940Y0197787D01*
X0114125Y0197780D01*
X0114310Y0197769D01*
X0114494Y0197753D01*
X0114678Y0197732D01*
X0114861Y0197707D01*
X0115044Y0197678D01*
X0115226Y0197644D01*
X0115407Y0197606D01*
X0115587Y0197563D01*
X0115766Y0197516D01*
X0115943Y0197464D01*
X0116120Y0197408D01*
X0116295Y0197348D01*
X0116468Y0197284D01*
X0116640Y0197215D01*
X0116810Y0197142D01*
X0116978Y0197065D01*
X0117145Y0196984D01*
X0117309Y0196899D01*
X0117471Y0196810D01*
X0117631Y0196716D01*
X0117788Y0196619D01*
X0117943Y0196518D01*
X0118096Y0196414D01*
X0118246Y0196305D01*
X0118393Y0196193D01*
X0118538Y0196078D01*
X0118679Y0195959D01*
X0118818Y0195836D01*
X0118953Y0195710D01*
X0119086Y0195581D01*
X0119215Y0195448D01*
X0119341Y0195313D01*
X0119464Y0195174D01*
X0119583Y0195033D01*
X0119698Y0194888D01*
X0119810Y0194741D01*
X0119919Y0194591D01*
X0120023Y0194438D01*
X0120124Y0194283D01*
X0120221Y0194126D01*
X0120315Y0193966D01*
X0120404Y0193804D01*
X0120489Y0193640D01*
X0120570Y0193473D01*
X0120647Y0193305D01*
X0120720Y0193135D01*
X0120789Y0192963D01*
X0120853Y0192790D01*
X0120913Y0192615D01*
X0120969Y0192438D01*
X0121021Y0192261D01*
X0121068Y0192082D01*
X0121111Y0191902D01*
X0121149Y0191721D01*
X0121183Y0191539D01*
X0121212Y0191356D01*
X0121237Y0191173D01*
X0121258Y0190989D01*
X0121274Y0190805D01*
X0121285Y0190620D01*
X0121292Y0190435D01*
X0121294Y0190250D01*
X0121292Y0190065D01*
X0121285Y0189880D01*
X0121274Y0189695D01*
X0121258Y0189511D01*
X0121237Y0189327D01*
X0121212Y0189144D01*
X0121183Y0188961D01*
X0121149Y0188779D01*
X0121111Y0188598D01*
X0121068Y0188418D01*
X0121021Y0188239D01*
X0120969Y0188062D01*
X0120913Y0187885D01*
X0120853Y0187710D01*
X0120789Y0187537D01*
X0120720Y0187365D01*
X0120647Y0187195D01*
X0120570Y0187027D01*
X0120489Y0186860D01*
X0120404Y0186696D01*
X0120315Y0186534D01*
X0120221Y0186374D01*
X0120124Y0186217D01*
X0120023Y0186062D01*
X0119919Y0185909D01*
X0119810Y0185759D01*
X0119698Y0185612D01*
X0119583Y0185467D01*
X0119464Y0185326D01*
X0119341Y0185187D01*
X0119215Y0185052D01*
X0119086Y0184919D01*
X0118953Y0184790D01*
X0118818Y0184664D01*
X0118679Y0184541D01*
X0118538Y0184422D01*
X0118393Y0184307D01*
X0118246Y0184195D01*
X0118096Y0184086D01*
X0117943Y0183982D01*
X0117788Y0183881D01*
X0117631Y0183784D01*
X0117471Y0183690D01*
X0117309Y0183601D01*
X0117145Y0183516D01*
X0116978Y0183435D01*
X0116810Y0183358D01*
X0116640Y0183285D01*
X0116468Y0183216D01*
X0116295Y0183152D01*
X0116120Y0183092D01*
X0115943Y0183036D01*
X0115766Y0182984D01*
X0115587Y0182937D01*
X0115407Y0182894D01*
X0115226Y0182856D01*
X0115044Y0182822D01*
X0114861Y0182793D01*
X0114678Y0182768D01*
X0114494Y0182747D01*
X0114310Y0182731D01*
X0114125Y0182720D01*
X0113940Y0182713D01*
X0113755Y0182711D01*
X0113570Y0182713D01*
X0113385Y0182720D01*
X0113200Y0182731D01*
X0113016Y0182747D01*
X0112832Y0182768D01*
X0112649Y0182793D01*
X0112466Y0182822D01*
X0112284Y0182856D01*
X0112103Y0182894D01*
X0111923Y0182937D01*
X0111744Y0182984D01*
X0111567Y0183036D01*
X0111390Y0183092D01*
X0111215Y0183152D01*
X0111042Y0183216D01*
X0110870Y0183285D01*
X0110700Y0183358D01*
X0110532Y0183435D01*
X0110365Y0183516D01*
X0110201Y0183601D01*
X0110039Y0183690D01*
X0109879Y0183784D01*
X0109722Y0183881D01*
X0109567Y0183982D01*
X0109414Y0184086D01*
X0109264Y0184195D01*
X0109117Y0184307D01*
X0108972Y0184422D01*
X0108831Y0184541D01*
X0108692Y0184664D01*
X0108557Y0184790D01*
X0108424Y0184919D01*
X0108295Y0185052D01*
X0108169Y0185187D01*
X0108046Y0185326D01*
X0107927Y0185467D01*
X0107812Y0185612D01*
X0107700Y0185759D01*
X0107591Y0185909D01*
X0107487Y0186062D01*
X0107386Y0186217D01*
X0107289Y0186374D01*
X0107195Y0186534D01*
X0107106Y0186696D01*
X0107021Y0186860D01*
X0106940Y0187027D01*
X0106863Y0187195D01*
X0106790Y0187365D01*
X0106721Y0187537D01*
X0106657Y0187710D01*
X0106597Y0187885D01*
X0106541Y0188062D01*
X0106489Y0188239D01*
X0106442Y0188418D01*
X0106399Y0188598D01*
X0106361Y0188779D01*
X0106327Y0188961D01*
X0106298Y0189144D01*
X0106273Y0189327D01*
X0106252Y0189511D01*
X0106236Y0189695D01*
X0106225Y0189880D01*
X0106218Y0190065D01*
X0106216Y0190250D01*
X0093519Y0193474D02*
X0088794Y0193474D01*
X0088794Y0206860D01*
X0093519Y0206860D01*
X0093519Y0193474D01*
X0093519Y0197474D02*
X0093519Y0202860D01*
X0088794Y0202860D02*
X0088794Y0197474D01*
X0033739Y0287865D02*
X0033739Y0289804D01*
D12*
X0029128Y0225639D02*
X0029137Y0226364D01*
X0029164Y0227088D01*
X0029208Y0227811D01*
X0029270Y0228533D01*
X0029350Y0229254D01*
X0029448Y0229972D01*
X0029563Y0230687D01*
X0029695Y0231400D01*
X0029845Y0232109D01*
X0030013Y0232814D01*
X0030198Y0233514D01*
X0030399Y0234211D01*
X0030618Y0234901D01*
X0030854Y0235587D01*
X0031107Y0236266D01*
X0031376Y0236939D01*
X0031661Y0237605D01*
X0031963Y0238264D01*
X0032281Y0238915D01*
X0032615Y0239558D01*
X0032964Y0240193D01*
X0033329Y0240819D01*
X0033709Y0241436D01*
X0034104Y0242044D01*
X0034514Y0242641D01*
X0034939Y0243229D01*
X0035378Y0243806D01*
X0035831Y0244371D01*
X0036297Y0244926D01*
X0036777Y0245469D01*
X0037270Y0246000D01*
X0037777Y0246518D01*
X0038295Y0247025D01*
X0038826Y0247518D01*
X0039369Y0247998D01*
X0039924Y0248464D01*
X0040489Y0248917D01*
X0041066Y0249356D01*
X0041654Y0249781D01*
X0042251Y0250191D01*
X0042859Y0250586D01*
X0043476Y0250966D01*
X0044102Y0251331D01*
X0044737Y0251680D01*
X0045380Y0252014D01*
X0046031Y0252332D01*
X0046690Y0252634D01*
X0047356Y0252919D01*
X0048029Y0253188D01*
X0048708Y0253441D01*
X0049394Y0253677D01*
X0050084Y0253896D01*
X0050781Y0254097D01*
X0051481Y0254282D01*
X0052186Y0254450D01*
X0052895Y0254600D01*
X0053608Y0254732D01*
X0054323Y0254847D01*
X0055041Y0254945D01*
X0055762Y0255025D01*
X0056484Y0255087D01*
X0057207Y0255131D01*
X0057931Y0255158D01*
X0058656Y0255167D01*
X0059381Y0255158D01*
X0060105Y0255131D01*
X0060828Y0255087D01*
X0061550Y0255025D01*
X0062271Y0254945D01*
X0062989Y0254847D01*
X0063704Y0254732D01*
X0064417Y0254600D01*
X0065126Y0254450D01*
X0065831Y0254282D01*
X0066531Y0254097D01*
X0067228Y0253896D01*
X0067918Y0253677D01*
X0068604Y0253441D01*
X0069283Y0253188D01*
X0069956Y0252919D01*
X0070622Y0252634D01*
X0071281Y0252332D01*
X0071932Y0252014D01*
X0072575Y0251680D01*
X0073210Y0251331D01*
X0073836Y0250966D01*
X0074453Y0250586D01*
X0075061Y0250191D01*
X0075658Y0249781D01*
X0076246Y0249356D01*
X0076823Y0248917D01*
X0077388Y0248464D01*
X0077943Y0247998D01*
X0078486Y0247518D01*
X0079017Y0247025D01*
X0079535Y0246518D01*
X0080042Y0246000D01*
X0080535Y0245469D01*
X0081015Y0244926D01*
X0081481Y0244371D01*
X0081934Y0243806D01*
X0082373Y0243229D01*
X0082798Y0242641D01*
X0083208Y0242044D01*
X0083603Y0241436D01*
X0083983Y0240819D01*
X0084348Y0240193D01*
X0084697Y0239558D01*
X0085031Y0238915D01*
X0085349Y0238264D01*
X0085651Y0237605D01*
X0085936Y0236939D01*
X0086205Y0236266D01*
X0086458Y0235587D01*
X0086694Y0234901D01*
X0086913Y0234211D01*
X0087114Y0233514D01*
X0087299Y0232814D01*
X0087467Y0232109D01*
X0087617Y0231400D01*
X0087749Y0230687D01*
X0087864Y0229972D01*
X0087962Y0229254D01*
X0088042Y0228533D01*
X0088104Y0227811D01*
X0088148Y0227088D01*
X0088175Y0226364D01*
X0088184Y0225639D01*
X0088175Y0224914D01*
X0088148Y0224190D01*
X0088104Y0223467D01*
X0088042Y0222745D01*
X0087962Y0222024D01*
X0087864Y0221306D01*
X0087749Y0220591D01*
X0087617Y0219878D01*
X0087467Y0219169D01*
X0087299Y0218464D01*
X0087114Y0217764D01*
X0086913Y0217067D01*
X0086694Y0216377D01*
X0086458Y0215691D01*
X0086205Y0215012D01*
X0085936Y0214339D01*
X0085651Y0213673D01*
X0085349Y0213014D01*
X0085031Y0212363D01*
X0084697Y0211720D01*
X0084348Y0211085D01*
X0083983Y0210459D01*
X0083603Y0209842D01*
X0083208Y0209234D01*
X0082798Y0208637D01*
X0082373Y0208049D01*
X0081934Y0207472D01*
X0081481Y0206907D01*
X0081015Y0206352D01*
X0080535Y0205809D01*
X0080042Y0205278D01*
X0079535Y0204760D01*
X0079017Y0204253D01*
X0078486Y0203760D01*
X0077943Y0203280D01*
X0077388Y0202814D01*
X0076823Y0202361D01*
X0076246Y0201922D01*
X0075658Y0201497D01*
X0075061Y0201087D01*
X0074453Y0200692D01*
X0073836Y0200312D01*
X0073210Y0199947D01*
X0072575Y0199598D01*
X0071932Y0199264D01*
X0071281Y0198946D01*
X0070622Y0198644D01*
X0069956Y0198359D01*
X0069283Y0198090D01*
X0068604Y0197837D01*
X0067918Y0197601D01*
X0067228Y0197382D01*
X0066531Y0197181D01*
X0065831Y0196996D01*
X0065126Y0196828D01*
X0064417Y0196678D01*
X0063704Y0196546D01*
X0062989Y0196431D01*
X0062271Y0196333D01*
X0061550Y0196253D01*
X0060828Y0196191D01*
X0060105Y0196147D01*
X0059381Y0196120D01*
X0058656Y0196111D01*
X0057931Y0196120D01*
X0057207Y0196147D01*
X0056484Y0196191D01*
X0055762Y0196253D01*
X0055041Y0196333D01*
X0054323Y0196431D01*
X0053608Y0196546D01*
X0052895Y0196678D01*
X0052186Y0196828D01*
X0051481Y0196996D01*
X0050781Y0197181D01*
X0050084Y0197382D01*
X0049394Y0197601D01*
X0048708Y0197837D01*
X0048029Y0198090D01*
X0047356Y0198359D01*
X0046690Y0198644D01*
X0046031Y0198946D01*
X0045380Y0199264D01*
X0044737Y0199598D01*
X0044102Y0199947D01*
X0043476Y0200312D01*
X0042859Y0200692D01*
X0042251Y0201087D01*
X0041654Y0201497D01*
X0041066Y0201922D01*
X0040489Y0202361D01*
X0039924Y0202814D01*
X0039369Y0203280D01*
X0038826Y0203760D01*
X0038295Y0204253D01*
X0037777Y0204760D01*
X0037270Y0205278D01*
X0036777Y0205809D01*
X0036297Y0206352D01*
X0035831Y0206907D01*
X0035378Y0207472D01*
X0034939Y0208049D01*
X0034514Y0208637D01*
X0034104Y0209234D01*
X0033709Y0209842D01*
X0033329Y0210459D01*
X0032964Y0211085D01*
X0032615Y0211720D01*
X0032281Y0212363D01*
X0031963Y0213014D01*
X0031661Y0213673D01*
X0031376Y0214339D01*
X0031107Y0215012D01*
X0030854Y0215691D01*
X0030618Y0216377D01*
X0030399Y0217067D01*
X0030198Y0217764D01*
X0030013Y0218464D01*
X0029845Y0219169D01*
X0029695Y0219878D01*
X0029563Y0220591D01*
X0029448Y0221306D01*
X0029350Y0222024D01*
X0029270Y0222745D01*
X0029208Y0223467D01*
X0029164Y0224190D01*
X0029137Y0224914D01*
X0029128Y0225639D01*
X0029128Y0083907D02*
X0029137Y0084632D01*
X0029164Y0085356D01*
X0029208Y0086079D01*
X0029270Y0086801D01*
X0029350Y0087522D01*
X0029448Y0088240D01*
X0029563Y0088955D01*
X0029695Y0089668D01*
X0029845Y0090377D01*
X0030013Y0091082D01*
X0030198Y0091782D01*
X0030399Y0092479D01*
X0030618Y0093169D01*
X0030854Y0093855D01*
X0031107Y0094534D01*
X0031376Y0095207D01*
X0031661Y0095873D01*
X0031963Y0096532D01*
X0032281Y0097183D01*
X0032615Y0097826D01*
X0032964Y0098461D01*
X0033329Y0099087D01*
X0033709Y0099704D01*
X0034104Y0100312D01*
X0034514Y0100909D01*
X0034939Y0101497D01*
X0035378Y0102074D01*
X0035831Y0102639D01*
X0036297Y0103194D01*
X0036777Y0103737D01*
X0037270Y0104268D01*
X0037777Y0104786D01*
X0038295Y0105293D01*
X0038826Y0105786D01*
X0039369Y0106266D01*
X0039924Y0106732D01*
X0040489Y0107185D01*
X0041066Y0107624D01*
X0041654Y0108049D01*
X0042251Y0108459D01*
X0042859Y0108854D01*
X0043476Y0109234D01*
X0044102Y0109599D01*
X0044737Y0109948D01*
X0045380Y0110282D01*
X0046031Y0110600D01*
X0046690Y0110902D01*
X0047356Y0111187D01*
X0048029Y0111456D01*
X0048708Y0111709D01*
X0049394Y0111945D01*
X0050084Y0112164D01*
X0050781Y0112365D01*
X0051481Y0112550D01*
X0052186Y0112718D01*
X0052895Y0112868D01*
X0053608Y0113000D01*
X0054323Y0113115D01*
X0055041Y0113213D01*
X0055762Y0113293D01*
X0056484Y0113355D01*
X0057207Y0113399D01*
X0057931Y0113426D01*
X0058656Y0113435D01*
X0059381Y0113426D01*
X0060105Y0113399D01*
X0060828Y0113355D01*
X0061550Y0113293D01*
X0062271Y0113213D01*
X0062989Y0113115D01*
X0063704Y0113000D01*
X0064417Y0112868D01*
X0065126Y0112718D01*
X0065831Y0112550D01*
X0066531Y0112365D01*
X0067228Y0112164D01*
X0067918Y0111945D01*
X0068604Y0111709D01*
X0069283Y0111456D01*
X0069956Y0111187D01*
X0070622Y0110902D01*
X0071281Y0110600D01*
X0071932Y0110282D01*
X0072575Y0109948D01*
X0073210Y0109599D01*
X0073836Y0109234D01*
X0074453Y0108854D01*
X0075061Y0108459D01*
X0075658Y0108049D01*
X0076246Y0107624D01*
X0076823Y0107185D01*
X0077388Y0106732D01*
X0077943Y0106266D01*
X0078486Y0105786D01*
X0079017Y0105293D01*
X0079535Y0104786D01*
X0080042Y0104268D01*
X0080535Y0103737D01*
X0081015Y0103194D01*
X0081481Y0102639D01*
X0081934Y0102074D01*
X0082373Y0101497D01*
X0082798Y0100909D01*
X0083208Y0100312D01*
X0083603Y0099704D01*
X0083983Y0099087D01*
X0084348Y0098461D01*
X0084697Y0097826D01*
X0085031Y0097183D01*
X0085349Y0096532D01*
X0085651Y0095873D01*
X0085936Y0095207D01*
X0086205Y0094534D01*
X0086458Y0093855D01*
X0086694Y0093169D01*
X0086913Y0092479D01*
X0087114Y0091782D01*
X0087299Y0091082D01*
X0087467Y0090377D01*
X0087617Y0089668D01*
X0087749Y0088955D01*
X0087864Y0088240D01*
X0087962Y0087522D01*
X0088042Y0086801D01*
X0088104Y0086079D01*
X0088148Y0085356D01*
X0088175Y0084632D01*
X0088184Y0083907D01*
X0088175Y0083182D01*
X0088148Y0082458D01*
X0088104Y0081735D01*
X0088042Y0081013D01*
X0087962Y0080292D01*
X0087864Y0079574D01*
X0087749Y0078859D01*
X0087617Y0078146D01*
X0087467Y0077437D01*
X0087299Y0076732D01*
X0087114Y0076032D01*
X0086913Y0075335D01*
X0086694Y0074645D01*
X0086458Y0073959D01*
X0086205Y0073280D01*
X0085936Y0072607D01*
X0085651Y0071941D01*
X0085349Y0071282D01*
X0085031Y0070631D01*
X0084697Y0069988D01*
X0084348Y0069353D01*
X0083983Y0068727D01*
X0083603Y0068110D01*
X0083208Y0067502D01*
X0082798Y0066905D01*
X0082373Y0066317D01*
X0081934Y0065740D01*
X0081481Y0065175D01*
X0081015Y0064620D01*
X0080535Y0064077D01*
X0080042Y0063546D01*
X0079535Y0063028D01*
X0079017Y0062521D01*
X0078486Y0062028D01*
X0077943Y0061548D01*
X0077388Y0061082D01*
X0076823Y0060629D01*
X0076246Y0060190D01*
X0075658Y0059765D01*
X0075061Y0059355D01*
X0074453Y0058960D01*
X0073836Y0058580D01*
X0073210Y0058215D01*
X0072575Y0057866D01*
X0071932Y0057532D01*
X0071281Y0057214D01*
X0070622Y0056912D01*
X0069956Y0056627D01*
X0069283Y0056358D01*
X0068604Y0056105D01*
X0067918Y0055869D01*
X0067228Y0055650D01*
X0066531Y0055449D01*
X0065831Y0055264D01*
X0065126Y0055096D01*
X0064417Y0054946D01*
X0063704Y0054814D01*
X0062989Y0054699D01*
X0062271Y0054601D01*
X0061550Y0054521D01*
X0060828Y0054459D01*
X0060105Y0054415D01*
X0059381Y0054388D01*
X0058656Y0054379D01*
X0057931Y0054388D01*
X0057207Y0054415D01*
X0056484Y0054459D01*
X0055762Y0054521D01*
X0055041Y0054601D01*
X0054323Y0054699D01*
X0053608Y0054814D01*
X0052895Y0054946D01*
X0052186Y0055096D01*
X0051481Y0055264D01*
X0050781Y0055449D01*
X0050084Y0055650D01*
X0049394Y0055869D01*
X0048708Y0056105D01*
X0048029Y0056358D01*
X0047356Y0056627D01*
X0046690Y0056912D01*
X0046031Y0057214D01*
X0045380Y0057532D01*
X0044737Y0057866D01*
X0044102Y0058215D01*
X0043476Y0058580D01*
X0042859Y0058960D01*
X0042251Y0059355D01*
X0041654Y0059765D01*
X0041066Y0060190D01*
X0040489Y0060629D01*
X0039924Y0061082D01*
X0039369Y0061548D01*
X0038826Y0062028D01*
X0038295Y0062521D01*
X0037777Y0063028D01*
X0037270Y0063546D01*
X0036777Y0064077D01*
X0036297Y0064620D01*
X0035831Y0065175D01*
X0035378Y0065740D01*
X0034939Y0066317D01*
X0034514Y0066905D01*
X0034104Y0067502D01*
X0033709Y0068110D01*
X0033329Y0068727D01*
X0032964Y0069353D01*
X0032615Y0069988D01*
X0032281Y0070631D01*
X0031963Y0071282D01*
X0031661Y0071941D01*
X0031376Y0072607D01*
X0031107Y0073280D01*
X0030854Y0073959D01*
X0030618Y0074645D01*
X0030399Y0075335D01*
X0030198Y0076032D01*
X0030013Y0076732D01*
X0029845Y0077437D01*
X0029695Y0078146D01*
X0029563Y0078859D01*
X0029448Y0079574D01*
X0029350Y0080292D01*
X0029270Y0081013D01*
X0029208Y0081735D01*
X0029164Y0082458D01*
X0029137Y0083182D01*
X0029128Y0083907D01*
M02*
