G75*
%MOIN*%
%OFA0B0*%
%FSLAX25Y25*%
%IPPOS*%
%LPD*%
%AMOC8*
5,1,8,0,0,1.08239X$1,22.5*
%
%ADD10C,0.00000*%
%ADD11R,0.00800X0.00050*%
%ADD12R,0.01350X0.00050*%
%ADD13R,0.00600X0.00050*%
%ADD14R,0.00350X0.00050*%
%ADD15R,0.00550X0.00050*%
%ADD16R,0.00300X0.00050*%
%ADD17R,0.00450X0.00050*%
%ADD18R,0.00250X0.00050*%
%ADD19R,0.00400X0.00050*%
%ADD20R,0.00500X0.00050*%
%ADD21R,0.00650X0.00050*%
%ADD22R,0.00750X0.00050*%
%ADD23R,0.01800X0.00050*%
%ADD24R,0.02000X0.00050*%
%ADD25R,0.02100X0.00050*%
%ADD26R,0.02150X0.00050*%
%ADD27R,0.00100X0.00050*%
%ADD28R,0.00050X0.00050*%
%ADD29R,0.00150X0.00050*%
%ADD30R,0.00900X0.00050*%
%ADD31R,0.00200X0.00050*%
%ADD32R,0.01550X0.00050*%
%ADD33R,0.00700X0.00050*%
%ADD34R,0.01100X0.00050*%
%ADD35R,0.00850X0.00050*%
%ADD36R,0.01000X0.00050*%
%ADD37R,0.01150X0.00050*%
%ADD38R,0.01050X0.00050*%
%ADD39R,0.01300X0.00050*%
%ADD40R,0.00950X0.00050*%
%ADD41R,0.01950X0.00050*%
%ADD42R,0.01600X0.00050*%
%ADD43R,0.01650X0.00050*%
%ADD44R,0.01250X0.00050*%
%ADD45R,0.01200X0.00050*%
%ADD46R,0.01700X0.00050*%
%ADD47R,0.03900X0.00050*%
%ADD48R,0.03250X0.00050*%
%ADD49R,0.03850X0.00050*%
%ADD50R,0.02600X0.00050*%
%ADD51C,0.00300*%
%ADD52C,0.00400*%
%ADD53C,0.00600*%
%ADD54C,0.00500*%
%ADD55C,0.00200*%
%ADD56R,0.10000X0.02500*%
%ADD57C,0.00800*%
%ADD58C,0.02400*%
%ADD59R,0.03400X0.02400*%
%ADD60C,0.01600*%
%ADD61R,0.02400X0.03400*%
%ADD62C,0.01200*%
%ADD63R,0.02500X0.09000*%
D10*
X0001000Y0001000D02*
X0296276Y0001000D01*
X0296276Y0367142D01*
X0001000Y0367142D01*
X0001000Y0001000D01*
D11*
X0198073Y0271200D03*
X0198223Y0275150D03*
X0199523Y0275000D03*
X0195423Y0275150D03*
X0192823Y0280650D03*
X0188173Y0279050D03*
X0187473Y0284100D03*
X0185373Y0284100D03*
X0182223Y0280750D03*
X0177073Y0284050D03*
X0200473Y0282900D03*
X0200473Y0282850D03*
X0202873Y0280500D03*
D12*
X0198098Y0271250D03*
X0189748Y0276800D03*
D13*
X0189723Y0276950D03*
X0189673Y0277000D03*
X0189023Y0277850D03*
X0188873Y0278200D03*
X0188223Y0279000D03*
X0188123Y0276850D03*
X0187073Y0275000D03*
X0187923Y0273250D03*
X0190123Y0275000D03*
X0191773Y0274450D03*
X0192373Y0273350D03*
X0190873Y0273350D03*
X0190873Y0273300D03*
X0194523Y0274900D03*
X0194373Y0276600D03*
X0194723Y0280650D03*
X0196023Y0281000D03*
X0192773Y0280900D03*
X0192773Y0280850D03*
X0192723Y0281050D03*
X0190273Y0280650D03*
X0191623Y0283850D03*
X0191623Y0283900D03*
X0185423Y0283900D03*
X0185423Y0283850D03*
X0185423Y0283800D03*
X0185423Y0283750D03*
X0185423Y0283700D03*
X0185423Y0283650D03*
X0183873Y0284050D03*
X0182223Y0284100D03*
X0182223Y0284150D03*
X0180573Y0284050D03*
X0177223Y0283400D03*
X0177223Y0283350D03*
X0177223Y0283300D03*
X0177173Y0283550D03*
X0177173Y0283600D03*
X0177123Y0283700D03*
X0177123Y0283750D03*
X0175173Y0282950D03*
X0175123Y0283050D03*
X0175073Y0283150D03*
X0175073Y0283200D03*
X0175023Y0283300D03*
X0174973Y0283400D03*
X0174973Y0283450D03*
X0174923Y0283500D03*
X0174923Y0283550D03*
X0174873Y0283600D03*
X0174873Y0283650D03*
X0174823Y0283750D03*
X0176023Y0281050D03*
X0178173Y0281050D03*
X0178173Y0281100D03*
X0182223Y0281050D03*
X0182223Y0281000D03*
X0182223Y0280950D03*
X0185423Y0280950D03*
X0185423Y0280900D03*
X0185423Y0280850D03*
X0185423Y0280800D03*
X0185423Y0280750D03*
X0182823Y0275000D03*
X0184473Y0274450D03*
X0185073Y0273350D03*
X0183573Y0273350D03*
X0183573Y0273300D03*
X0180623Y0273250D03*
X0179773Y0275000D03*
X0197573Y0271300D03*
X0199523Y0275100D03*
X0199223Y0280600D03*
D14*
X0198098Y0280450D03*
X0197448Y0282400D03*
X0197448Y0282450D03*
X0197498Y0282500D03*
X0197598Y0282650D03*
X0197648Y0282700D03*
X0200698Y0282350D03*
X0200698Y0282300D03*
X0200698Y0282250D03*
X0200698Y0282200D03*
X0200698Y0282150D03*
X0200698Y0282100D03*
X0200698Y0282050D03*
X0200698Y0282000D03*
X0200698Y0281950D03*
X0202048Y0282400D03*
X0202098Y0282500D03*
X0202148Y0282550D03*
X0202198Y0282600D03*
X0202348Y0282750D03*
X0203448Y0282750D03*
X0203848Y0281200D03*
X0203798Y0281100D03*
X0203748Y0281000D03*
X0203698Y0280950D03*
X0203648Y0280850D03*
X0203598Y0280800D03*
X0203248Y0280550D03*
X0202348Y0280650D03*
X0202298Y0280700D03*
X0200598Y0283950D03*
X0198598Y0275050D03*
X0198648Y0275000D03*
X0198748Y0274900D03*
X0197698Y0275000D03*
X0197648Y0274950D03*
X0197598Y0274900D03*
X0197548Y0274850D03*
X0197548Y0274800D03*
X0197498Y0274750D03*
X0197748Y0273400D03*
X0197348Y0273050D03*
X0197898Y0272450D03*
X0197198Y0272000D03*
X0197148Y0271900D03*
X0197148Y0271850D03*
X0197148Y0271800D03*
X0197148Y0271750D03*
X0197148Y0271700D03*
X0198748Y0271300D03*
X0199448Y0272150D03*
X0199448Y0272200D03*
X0198548Y0273550D03*
X0198598Y0273600D03*
X0198698Y0273650D03*
X0198748Y0273700D03*
X0198848Y0273850D03*
X0196098Y0273200D03*
X0195998Y0273050D03*
X0195948Y0273000D03*
X0195898Y0272950D03*
X0195848Y0272900D03*
X0194898Y0272800D03*
X0194648Y0272950D03*
X0192398Y0273000D03*
X0192398Y0273050D03*
X0190848Y0273000D03*
X0187898Y0273000D03*
X0185098Y0273000D03*
X0185098Y0273050D03*
X0183548Y0273000D03*
X0180598Y0273000D03*
X0178148Y0280750D03*
X0179348Y0283900D03*
X0180448Y0283900D03*
X0184048Y0283800D03*
X0186098Y0280450D03*
X0187748Y0283800D03*
X0190298Y0280800D03*
X0195798Y0275050D03*
D15*
X0194498Y0274850D03*
X0194498Y0274800D03*
X0194498Y0273000D03*
X0192398Y0273300D03*
X0191798Y0274500D03*
X0191698Y0274950D03*
X0191698Y0275000D03*
X0190148Y0274950D03*
X0190148Y0274900D03*
X0190848Y0273250D03*
X0189648Y0277050D03*
X0189598Y0277100D03*
X0189498Y0277250D03*
X0188998Y0277900D03*
X0188848Y0278150D03*
X0188548Y0278550D03*
X0188398Y0278750D03*
X0188298Y0278900D03*
X0188248Y0278950D03*
X0185398Y0281000D03*
X0186598Y0282400D03*
X0186598Y0282600D03*
X0185448Y0283100D03*
X0185448Y0283150D03*
X0185448Y0283200D03*
X0185448Y0283250D03*
X0185448Y0283300D03*
X0185448Y0283350D03*
X0185448Y0283400D03*
X0185448Y0283450D03*
X0185448Y0283500D03*
X0185448Y0283550D03*
X0185448Y0283600D03*
X0187598Y0284000D03*
X0191648Y0283950D03*
X0191748Y0283700D03*
X0191748Y0283650D03*
X0191798Y0283550D03*
X0191798Y0283500D03*
X0191848Y0283450D03*
X0191848Y0283400D03*
X0191898Y0283300D03*
X0191898Y0283250D03*
X0191948Y0283200D03*
X0191948Y0283150D03*
X0191998Y0283050D03*
X0191998Y0283000D03*
X0192048Y0282900D03*
X0192098Y0282800D03*
X0192098Y0282750D03*
X0192148Y0282650D03*
X0192198Y0282500D03*
X0192248Y0282350D03*
X0192298Y0282250D03*
X0192398Y0281950D03*
X0192448Y0281800D03*
X0192498Y0281700D03*
X0192498Y0281650D03*
X0192548Y0281550D03*
X0192548Y0281500D03*
X0192598Y0281400D03*
X0192598Y0281350D03*
X0192648Y0281300D03*
X0192648Y0281250D03*
X0192648Y0281200D03*
X0192698Y0281150D03*
X0192698Y0281100D03*
X0192748Y0281000D03*
X0192748Y0280950D03*
X0194648Y0280700D03*
X0196148Y0280600D03*
X0197798Y0280650D03*
X0199048Y0281000D03*
X0199048Y0281050D03*
X0199048Y0282600D03*
X0200598Y0282800D03*
X0200598Y0284150D03*
X0200598Y0284200D03*
X0199048Y0284350D03*
X0196048Y0282800D03*
X0200698Y0280600D03*
X0197448Y0271350D03*
X0187098Y0274950D03*
X0185098Y0273300D03*
X0184498Y0274500D03*
X0184398Y0274950D03*
X0184398Y0275000D03*
X0182848Y0274950D03*
X0182848Y0274900D03*
X0183548Y0273250D03*
X0179798Y0274950D03*
X0178148Y0281000D03*
X0178048Y0281300D03*
X0177998Y0281400D03*
X0177998Y0281450D03*
X0177948Y0281500D03*
X0177948Y0281550D03*
X0177898Y0281650D03*
X0177848Y0281750D03*
X0177848Y0281800D03*
X0177798Y0281850D03*
X0177798Y0281900D03*
X0177748Y0282000D03*
X0177748Y0282050D03*
X0177698Y0282100D03*
X0177698Y0282150D03*
X0177648Y0282250D03*
X0177648Y0282300D03*
X0177598Y0282400D03*
X0177548Y0282500D03*
X0177548Y0282550D03*
X0177498Y0282650D03*
X0177448Y0282750D03*
X0177448Y0282800D03*
X0177398Y0282900D03*
X0177398Y0282950D03*
X0177348Y0283000D03*
X0177348Y0283050D03*
X0177348Y0283100D03*
X0177198Y0283450D03*
X0177198Y0283500D03*
X0177148Y0283650D03*
X0175298Y0282700D03*
X0175298Y0282650D03*
X0175298Y0282600D03*
X0175348Y0282550D03*
X0175348Y0282500D03*
X0175398Y0282450D03*
X0175398Y0282400D03*
X0175448Y0282350D03*
X0175448Y0282300D03*
X0175448Y0282250D03*
X0175498Y0282200D03*
X0175498Y0282150D03*
X0175548Y0282100D03*
X0175548Y0282050D03*
X0175598Y0281950D03*
X0175598Y0281900D03*
X0175648Y0281850D03*
X0175648Y0281800D03*
X0175698Y0281750D03*
X0175698Y0281700D03*
X0175748Y0281600D03*
X0175748Y0281550D03*
X0175798Y0281500D03*
X0175798Y0281450D03*
X0175848Y0281400D03*
X0175848Y0281350D03*
X0175898Y0281300D03*
X0175898Y0281250D03*
X0175998Y0281000D03*
X0175248Y0282750D03*
X0175248Y0282800D03*
X0175198Y0282850D03*
X0175198Y0282900D03*
X0175148Y0283000D03*
X0175098Y0283100D03*
X0175048Y0283250D03*
X0174998Y0283350D03*
X0179398Y0284050D03*
X0182198Y0284050D03*
X0182198Y0284000D03*
X0182198Y0283950D03*
X0182198Y0283900D03*
X0182198Y0283850D03*
X0182198Y0283800D03*
X0182198Y0283750D03*
X0182198Y0283700D03*
X0182198Y0283650D03*
X0182198Y0283600D03*
X0182198Y0283550D03*
X0182198Y0283500D03*
X0182198Y0283450D03*
X0182198Y0283400D03*
X0182248Y0281450D03*
X0182248Y0281400D03*
X0182248Y0281350D03*
X0182248Y0281300D03*
X0182248Y0281250D03*
X0182248Y0281200D03*
X0182248Y0281150D03*
X0182248Y0281100D03*
D16*
X0184823Y0280450D03*
X0186723Y0282300D03*
X0186723Y0282700D03*
X0187773Y0283750D03*
X0191623Y0284200D03*
X0191623Y0284250D03*
X0189623Y0279000D03*
X0188173Y0276950D03*
X0188873Y0275000D03*
X0187923Y0272950D03*
X0187923Y0272900D03*
X0190873Y0272950D03*
X0194723Y0272900D03*
X0194823Y0272850D03*
X0197173Y0271950D03*
X0197223Y0272050D03*
X0197273Y0272100D03*
X0197323Y0272150D03*
X0197373Y0272200D03*
X0197423Y0272250D03*
X0197523Y0272300D03*
X0197623Y0272350D03*
X0197723Y0272400D03*
X0197373Y0273100D03*
X0197373Y0273150D03*
X0197773Y0275050D03*
X0197873Y0275100D03*
X0199723Y0274750D03*
X0199473Y0272100D03*
X0199473Y0272050D03*
X0199473Y0272000D03*
X0199473Y0271950D03*
X0199423Y0271850D03*
X0199423Y0271800D03*
X0199323Y0271650D03*
X0199273Y0271600D03*
X0199223Y0271550D03*
X0199173Y0271500D03*
X0199023Y0271400D03*
X0198923Y0271350D03*
X0203373Y0280600D03*
X0203423Y0280650D03*
X0203473Y0280700D03*
X0203573Y0280750D03*
X0203673Y0280900D03*
X0202523Y0282850D03*
X0202423Y0282800D03*
X0202273Y0282700D03*
X0202223Y0282650D03*
X0197873Y0282850D03*
X0197773Y0282800D03*
X0197723Y0282750D03*
X0197573Y0282600D03*
X0197523Y0282550D03*
X0184073Y0283700D03*
X0184073Y0283750D03*
X0180423Y0283850D03*
X0180373Y0283800D03*
X0178173Y0280700D03*
X0178173Y0280650D03*
X0176023Y0280650D03*
X0176023Y0280700D03*
X0181573Y0275000D03*
X0180623Y0272950D03*
X0180623Y0272900D03*
X0183573Y0272950D03*
D17*
X0183548Y0273150D03*
X0183448Y0273400D03*
X0183448Y0273450D03*
X0183398Y0273500D03*
X0183398Y0273550D03*
X0183348Y0273650D03*
X0183348Y0273700D03*
X0183298Y0273750D03*
X0183298Y0273800D03*
X0183248Y0273850D03*
X0183248Y0273900D03*
X0183248Y0273950D03*
X0183198Y0274000D03*
X0183198Y0274050D03*
X0183148Y0274100D03*
X0183148Y0274150D03*
X0183098Y0274200D03*
X0183098Y0274250D03*
X0183098Y0274300D03*
X0183048Y0274350D03*
X0183048Y0274400D03*
X0182998Y0274450D03*
X0182998Y0274500D03*
X0182948Y0274600D03*
X0182948Y0274650D03*
X0182898Y0274750D03*
X0181598Y0275050D03*
X0179998Y0274500D03*
X0179998Y0274450D03*
X0179948Y0274550D03*
X0179948Y0274600D03*
X0179898Y0274650D03*
X0179898Y0274700D03*
X0179848Y0274800D03*
X0180048Y0274350D03*
X0180098Y0274250D03*
X0180098Y0274200D03*
X0180148Y0274150D03*
X0180148Y0274100D03*
X0180198Y0274000D03*
X0180248Y0273900D03*
X0180298Y0273800D03*
X0180298Y0273750D03*
X0180348Y0273700D03*
X0180348Y0273650D03*
X0180398Y0273600D03*
X0180398Y0273550D03*
X0180448Y0273500D03*
X0180448Y0273450D03*
X0180498Y0273400D03*
X0180498Y0273350D03*
X0180598Y0273100D03*
X0184448Y0274700D03*
X0184448Y0274750D03*
X0184448Y0274800D03*
X0184398Y0274850D03*
X0184398Y0274900D03*
X0184598Y0274400D03*
X0184598Y0274350D03*
X0184598Y0274300D03*
X0184648Y0274250D03*
X0184648Y0274200D03*
X0184698Y0274150D03*
X0184698Y0274100D03*
X0184748Y0274000D03*
X0184748Y0273950D03*
X0184798Y0273900D03*
X0184798Y0273850D03*
X0184848Y0273750D03*
X0184898Y0273650D03*
X0184898Y0273600D03*
X0184948Y0273550D03*
X0184948Y0273500D03*
X0184998Y0273400D03*
X0185098Y0273200D03*
X0185098Y0273150D03*
X0185898Y0275050D03*
X0187148Y0274800D03*
X0187198Y0274700D03*
X0187198Y0274650D03*
X0187248Y0274600D03*
X0187248Y0274550D03*
X0187298Y0274500D03*
X0187298Y0274450D03*
X0187348Y0274350D03*
X0187398Y0274250D03*
X0187398Y0274200D03*
X0187448Y0274150D03*
X0187448Y0274100D03*
X0187498Y0274000D03*
X0187548Y0273900D03*
X0187598Y0273800D03*
X0187598Y0273750D03*
X0187648Y0273700D03*
X0187648Y0273650D03*
X0187698Y0273600D03*
X0187698Y0273550D03*
X0187748Y0273500D03*
X0187748Y0273450D03*
X0187798Y0273400D03*
X0187798Y0273350D03*
X0187898Y0273100D03*
X0188898Y0275050D03*
X0190198Y0274750D03*
X0190248Y0274650D03*
X0190248Y0274600D03*
X0190298Y0274500D03*
X0190298Y0274450D03*
X0190348Y0274400D03*
X0190348Y0274350D03*
X0190398Y0274300D03*
X0190398Y0274250D03*
X0190398Y0274200D03*
X0190448Y0274150D03*
X0190448Y0274100D03*
X0190498Y0274050D03*
X0190498Y0274000D03*
X0190548Y0273950D03*
X0190548Y0273900D03*
X0190548Y0273850D03*
X0190598Y0273800D03*
X0190598Y0273750D03*
X0190648Y0273700D03*
X0190648Y0273650D03*
X0190698Y0273550D03*
X0190698Y0273500D03*
X0190748Y0273450D03*
X0190748Y0273400D03*
X0190848Y0273150D03*
X0192198Y0273600D03*
X0192198Y0273650D03*
X0192148Y0273750D03*
X0192098Y0273850D03*
X0192098Y0273900D03*
X0192048Y0273950D03*
X0192048Y0274000D03*
X0191998Y0274100D03*
X0191998Y0274150D03*
X0191948Y0274200D03*
X0191948Y0274250D03*
X0191898Y0274300D03*
X0191898Y0274350D03*
X0191898Y0274400D03*
X0191748Y0274700D03*
X0191748Y0274750D03*
X0191748Y0274800D03*
X0191698Y0274850D03*
X0191698Y0274900D03*
X0192248Y0273550D03*
X0192248Y0273500D03*
X0192298Y0273400D03*
X0192398Y0273200D03*
X0192398Y0273150D03*
X0194448Y0273150D03*
X0194448Y0273200D03*
X0194448Y0273250D03*
X0194448Y0274350D03*
X0194448Y0274400D03*
X0194448Y0274450D03*
X0194448Y0274500D03*
X0194448Y0274550D03*
X0194448Y0274600D03*
X0194448Y0275000D03*
X0195398Y0275200D03*
X0195698Y0275100D03*
X0196148Y0274650D03*
X0196198Y0274550D03*
X0196198Y0274500D03*
X0196248Y0274400D03*
X0196248Y0274350D03*
X0196298Y0274050D03*
X0196298Y0274000D03*
X0196298Y0273950D03*
X0196298Y0273900D03*
X0196298Y0273850D03*
X0196298Y0273800D03*
X0196248Y0273650D03*
X0196248Y0273600D03*
X0196248Y0273550D03*
X0196198Y0273450D03*
X0196198Y0273400D03*
X0196148Y0273300D03*
X0197398Y0272950D03*
X0197698Y0273600D03*
X0197648Y0273650D03*
X0197598Y0273700D03*
X0197548Y0273750D03*
X0197498Y0273800D03*
X0197498Y0273850D03*
X0197448Y0273900D03*
X0197448Y0273950D03*
X0197398Y0274050D03*
X0197398Y0274100D03*
X0197398Y0274150D03*
X0197398Y0274200D03*
X0197398Y0274250D03*
X0197398Y0274300D03*
X0197398Y0274350D03*
X0197398Y0274400D03*
X0197398Y0274450D03*
X0197398Y0274500D03*
X0198848Y0274800D03*
X0198898Y0274650D03*
X0198898Y0274600D03*
X0198948Y0274550D03*
X0198948Y0274500D03*
X0198948Y0274450D03*
X0198948Y0274400D03*
X0198948Y0274350D03*
X0198948Y0274300D03*
X0198948Y0274250D03*
X0198948Y0274200D03*
X0198948Y0274150D03*
X0198948Y0274100D03*
X0198898Y0274000D03*
X0198898Y0273950D03*
X0199698Y0274900D03*
X0199548Y0275150D03*
X0199398Y0272300D03*
X0197348Y0271400D03*
X0197298Y0271450D03*
X0197248Y0271500D03*
X0197198Y0271550D03*
X0193198Y0275050D03*
X0194448Y0276400D03*
X0194448Y0276450D03*
X0194448Y0276500D03*
X0194598Y0280800D03*
X0194548Y0280900D03*
X0194548Y0280950D03*
X0194498Y0281300D03*
X0194498Y0281350D03*
X0194498Y0281400D03*
X0194498Y0281450D03*
X0194498Y0281500D03*
X0194498Y0281550D03*
X0194498Y0281600D03*
X0194498Y0281650D03*
X0194498Y0281700D03*
X0194498Y0281750D03*
X0194498Y0281800D03*
X0194498Y0281850D03*
X0194498Y0281900D03*
X0194498Y0281950D03*
X0194498Y0282000D03*
X0194448Y0282800D03*
X0196098Y0282700D03*
X0196098Y0282650D03*
X0196098Y0282600D03*
X0196098Y0282550D03*
X0196098Y0281700D03*
X0196098Y0281650D03*
X0196098Y0281600D03*
X0196098Y0281550D03*
X0196098Y0281500D03*
X0196098Y0281450D03*
X0196098Y0281400D03*
X0196098Y0281350D03*
X0196098Y0281300D03*
X0196098Y0281250D03*
X0196048Y0281100D03*
X0196098Y0280950D03*
X0196098Y0280900D03*
X0196098Y0280850D03*
X0196098Y0280750D03*
X0196098Y0280700D03*
X0197348Y0281200D03*
X0197398Y0281100D03*
X0197398Y0281050D03*
X0197448Y0281000D03*
X0197448Y0280950D03*
X0197498Y0280900D03*
X0197548Y0280850D03*
X0197598Y0280800D03*
X0197648Y0280750D03*
X0197698Y0280700D03*
X0197298Y0281450D03*
X0197298Y0281500D03*
X0197298Y0281750D03*
X0197298Y0281800D03*
X0197298Y0281850D03*
X0197298Y0281900D03*
X0197298Y0281950D03*
X0197298Y0282000D03*
X0197348Y0282050D03*
X0197348Y0282100D03*
X0197348Y0282150D03*
X0199098Y0282250D03*
X0199098Y0282300D03*
X0199098Y0282350D03*
X0199098Y0282400D03*
X0199098Y0281400D03*
X0199098Y0281350D03*
X0199098Y0281300D03*
X0199098Y0281250D03*
X0199098Y0281200D03*
X0199148Y0280700D03*
X0200698Y0280700D03*
X0200698Y0280650D03*
X0201948Y0281150D03*
X0201948Y0281200D03*
X0201948Y0281250D03*
X0201898Y0281300D03*
X0201898Y0281350D03*
X0201898Y0281400D03*
X0201898Y0281450D03*
X0201998Y0281100D03*
X0202048Y0281000D03*
X0201898Y0281900D03*
X0201898Y0281950D03*
X0201898Y0282000D03*
X0201898Y0282050D03*
X0201948Y0282150D03*
X0201948Y0282200D03*
X0200648Y0282700D03*
X0200648Y0282750D03*
X0200598Y0284000D03*
X0199098Y0284200D03*
X0199098Y0284250D03*
X0199098Y0284300D03*
X0203698Y0282500D03*
X0203748Y0282450D03*
X0203798Y0282350D03*
X0203798Y0282300D03*
X0203848Y0282250D03*
X0203848Y0282200D03*
X0203898Y0282150D03*
X0203898Y0282100D03*
X0203898Y0282050D03*
X0203898Y0282000D03*
X0203948Y0281900D03*
X0203948Y0281850D03*
X0203948Y0281800D03*
X0203948Y0281750D03*
X0203948Y0281700D03*
X0203948Y0281650D03*
X0203948Y0281600D03*
X0203948Y0281550D03*
X0203898Y0281400D03*
X0203898Y0281350D03*
X0202848Y0280450D03*
X0191648Y0284050D03*
X0190298Y0280700D03*
X0189098Y0277800D03*
X0189248Y0277600D03*
X0188148Y0276900D03*
X0183998Y0283900D03*
X0179398Y0284000D03*
X0178148Y0280900D03*
X0178148Y0280850D03*
X0175998Y0280850D03*
D18*
X0176048Y0280600D03*
X0178148Y0280600D03*
X0179298Y0283700D03*
X0179348Y0283800D03*
X0179348Y0283850D03*
X0180348Y0283750D03*
X0180348Y0283700D03*
X0184098Y0283650D03*
X0186748Y0282750D03*
X0186748Y0282250D03*
X0187798Y0283700D03*
X0190348Y0281000D03*
X0190298Y0280900D03*
X0190298Y0280850D03*
X0189598Y0278950D03*
X0188848Y0274950D03*
X0190848Y0272900D03*
X0192398Y0272900D03*
X0192398Y0272950D03*
X0193198Y0275000D03*
X0197398Y0273200D03*
X0197448Y0273250D03*
X0197598Y0273350D03*
X0199448Y0271900D03*
X0199398Y0271750D03*
X0199348Y0271700D03*
X0199098Y0271450D03*
X0199548Y0275200D03*
X0198498Y0280650D03*
X0200598Y0283900D03*
X0193548Y0280450D03*
X0185898Y0275000D03*
X0185098Y0272950D03*
X0185098Y0272900D03*
X0183548Y0272900D03*
X0181548Y0274950D03*
D19*
X0180073Y0274300D03*
X0180023Y0274400D03*
X0180173Y0274050D03*
X0180223Y0273950D03*
X0180273Y0273850D03*
X0180523Y0273300D03*
X0180623Y0273050D03*
X0183373Y0273600D03*
X0183573Y0273100D03*
X0183573Y0273050D03*
X0185073Y0273100D03*
X0187473Y0274050D03*
X0187523Y0273950D03*
X0187573Y0273850D03*
X0187373Y0274300D03*
X0187323Y0274400D03*
X0187823Y0273300D03*
X0187923Y0273050D03*
X0190673Y0273600D03*
X0190873Y0273100D03*
X0190873Y0273050D03*
X0192373Y0273100D03*
X0194423Y0273300D03*
X0194423Y0273350D03*
X0194423Y0273400D03*
X0194423Y0273450D03*
X0194423Y0273500D03*
X0194423Y0273550D03*
X0194423Y0273600D03*
X0194423Y0273650D03*
X0194423Y0273700D03*
X0194423Y0273750D03*
X0194423Y0273800D03*
X0194423Y0273850D03*
X0194423Y0273900D03*
X0194423Y0273950D03*
X0194423Y0274000D03*
X0194423Y0274050D03*
X0194423Y0274100D03*
X0194423Y0274150D03*
X0194423Y0274200D03*
X0194423Y0274250D03*
X0194423Y0274300D03*
X0194473Y0275050D03*
X0194473Y0275100D03*
X0194473Y0275150D03*
X0194473Y0275200D03*
X0194473Y0275250D03*
X0194473Y0275300D03*
X0194473Y0275350D03*
X0194473Y0275400D03*
X0194473Y0275450D03*
X0194473Y0275500D03*
X0194473Y0275550D03*
X0194473Y0275600D03*
X0194473Y0275650D03*
X0194473Y0275700D03*
X0194473Y0275750D03*
X0194473Y0275800D03*
X0194473Y0275850D03*
X0194473Y0275900D03*
X0194473Y0275950D03*
X0194473Y0276000D03*
X0194473Y0276050D03*
X0194473Y0276100D03*
X0194473Y0276150D03*
X0194473Y0276200D03*
X0194473Y0276250D03*
X0194473Y0276300D03*
X0194473Y0276350D03*
X0195873Y0275000D03*
X0195923Y0274950D03*
X0195973Y0274900D03*
X0196023Y0274850D03*
X0196073Y0274800D03*
X0196073Y0274750D03*
X0196123Y0274700D03*
X0196173Y0274600D03*
X0196223Y0273500D03*
X0196173Y0273350D03*
X0196123Y0273250D03*
X0196073Y0273150D03*
X0196023Y0273100D03*
X0195773Y0272850D03*
X0195673Y0272800D03*
X0197373Y0273000D03*
X0197173Y0271650D03*
X0197173Y0271600D03*
X0199423Y0272250D03*
X0198773Y0273750D03*
X0198823Y0273800D03*
X0198873Y0273900D03*
X0198923Y0274050D03*
X0198873Y0274700D03*
X0198873Y0274750D03*
X0198723Y0274950D03*
X0198523Y0275100D03*
X0198223Y0275200D03*
X0197473Y0274700D03*
X0197473Y0274650D03*
X0197423Y0274600D03*
X0197423Y0274550D03*
X0199723Y0274800D03*
X0199723Y0274850D03*
X0199123Y0280750D03*
X0199123Y0280800D03*
X0199123Y0280850D03*
X0199123Y0280900D03*
X0199123Y0280950D03*
X0199123Y0281450D03*
X0199123Y0281500D03*
X0199123Y0281550D03*
X0199123Y0281600D03*
X0199123Y0281650D03*
X0199123Y0281700D03*
X0199123Y0281750D03*
X0199123Y0281800D03*
X0199123Y0281850D03*
X0199123Y0281900D03*
X0199123Y0281950D03*
X0199123Y0282000D03*
X0199123Y0282050D03*
X0199123Y0282100D03*
X0199123Y0282150D03*
X0199123Y0282200D03*
X0199123Y0282650D03*
X0199123Y0282700D03*
X0199123Y0282750D03*
X0199123Y0282800D03*
X0199123Y0282850D03*
X0199123Y0282900D03*
X0199123Y0282950D03*
X0199123Y0283000D03*
X0199123Y0283050D03*
X0199123Y0283100D03*
X0199123Y0283150D03*
X0199123Y0283200D03*
X0199123Y0283250D03*
X0199123Y0283300D03*
X0199123Y0283350D03*
X0199123Y0283400D03*
X0199123Y0283450D03*
X0199123Y0283500D03*
X0199123Y0283550D03*
X0199123Y0283600D03*
X0199123Y0283650D03*
X0199123Y0283700D03*
X0199123Y0283750D03*
X0199123Y0283800D03*
X0199123Y0283850D03*
X0199123Y0283900D03*
X0199123Y0283950D03*
X0199123Y0284000D03*
X0199123Y0284050D03*
X0199123Y0284100D03*
X0199123Y0284150D03*
X0200573Y0284350D03*
X0200573Y0284400D03*
X0200673Y0282950D03*
X0200673Y0282650D03*
X0200673Y0282600D03*
X0200673Y0282550D03*
X0200673Y0282500D03*
X0200673Y0282450D03*
X0200673Y0282400D03*
X0200673Y0281900D03*
X0200673Y0281850D03*
X0200673Y0281800D03*
X0200673Y0281750D03*
X0200673Y0281700D03*
X0200673Y0281650D03*
X0200673Y0281600D03*
X0200673Y0281550D03*
X0200673Y0281500D03*
X0200673Y0281450D03*
X0200673Y0281400D03*
X0200673Y0281350D03*
X0200673Y0281300D03*
X0200673Y0281250D03*
X0200673Y0281200D03*
X0200673Y0281150D03*
X0200673Y0281100D03*
X0200673Y0281050D03*
X0200673Y0281000D03*
X0200673Y0280950D03*
X0200673Y0280900D03*
X0200673Y0280850D03*
X0200673Y0280800D03*
X0200673Y0280750D03*
X0202023Y0281050D03*
X0202073Y0280950D03*
X0202123Y0280900D03*
X0202123Y0280850D03*
X0202173Y0280800D03*
X0202223Y0280750D03*
X0202423Y0280600D03*
X0202523Y0280550D03*
X0203773Y0281050D03*
X0203823Y0281150D03*
X0203873Y0281250D03*
X0203873Y0281300D03*
X0203923Y0281450D03*
X0203923Y0281500D03*
X0203773Y0282400D03*
X0203673Y0282550D03*
X0203623Y0282600D03*
X0203573Y0282650D03*
X0203523Y0282700D03*
X0203373Y0282800D03*
X0203273Y0282850D03*
X0202073Y0282450D03*
X0202023Y0282350D03*
X0201973Y0282300D03*
X0201973Y0282250D03*
X0201923Y0282100D03*
X0198173Y0282950D03*
X0197423Y0282350D03*
X0197373Y0282300D03*
X0197373Y0282250D03*
X0197373Y0282200D03*
X0196123Y0282200D03*
X0196123Y0282250D03*
X0196123Y0282300D03*
X0196123Y0282350D03*
X0196123Y0282400D03*
X0196123Y0282450D03*
X0196123Y0282500D03*
X0196123Y0282150D03*
X0196123Y0282100D03*
X0196123Y0282050D03*
X0196123Y0282000D03*
X0196123Y0281950D03*
X0196123Y0281900D03*
X0196123Y0281850D03*
X0196123Y0281800D03*
X0196123Y0281750D03*
X0196123Y0280800D03*
X0194923Y0280450D03*
X0194523Y0281000D03*
X0194523Y0281050D03*
X0194523Y0281100D03*
X0194523Y0281150D03*
X0194523Y0281200D03*
X0194523Y0281250D03*
X0194473Y0282050D03*
X0194473Y0282100D03*
X0194473Y0282150D03*
X0194473Y0282200D03*
X0194473Y0282250D03*
X0194473Y0282300D03*
X0194473Y0282350D03*
X0194473Y0282400D03*
X0194473Y0282450D03*
X0194473Y0282500D03*
X0194473Y0282550D03*
X0194473Y0282600D03*
X0194473Y0282650D03*
X0194473Y0282700D03*
X0194473Y0282750D03*
X0191623Y0284100D03*
X0191623Y0284150D03*
X0190273Y0280750D03*
X0187723Y0283850D03*
X0187673Y0283900D03*
X0186673Y0282650D03*
X0186673Y0282350D03*
X0184023Y0283850D03*
X0180473Y0283950D03*
X0179373Y0283950D03*
X0178173Y0280800D03*
X0176023Y0280800D03*
X0176023Y0280750D03*
D20*
X0176023Y0280900D03*
X0176023Y0280950D03*
X0175723Y0281650D03*
X0175573Y0282000D03*
X0177473Y0282700D03*
X0177523Y0282600D03*
X0177573Y0282450D03*
X0177623Y0282350D03*
X0177673Y0282200D03*
X0177773Y0281950D03*
X0177873Y0281700D03*
X0177923Y0281600D03*
X0178023Y0281350D03*
X0178173Y0280950D03*
X0177423Y0282850D03*
X0180523Y0284000D03*
X0182223Y0283350D03*
X0182223Y0283300D03*
X0182223Y0283250D03*
X0182223Y0283200D03*
X0182223Y0283150D03*
X0182223Y0283100D03*
X0182223Y0283050D03*
X0182223Y0283000D03*
X0182223Y0282950D03*
X0182223Y0282900D03*
X0182223Y0282850D03*
X0182223Y0282800D03*
X0182223Y0282750D03*
X0182223Y0282700D03*
X0182223Y0282650D03*
X0182223Y0282600D03*
X0182223Y0282550D03*
X0182223Y0282500D03*
X0182223Y0282450D03*
X0182223Y0282400D03*
X0182223Y0282350D03*
X0182223Y0282300D03*
X0182223Y0282250D03*
X0182223Y0282200D03*
X0182223Y0282150D03*
X0182223Y0282100D03*
X0182223Y0282050D03*
X0182223Y0282000D03*
X0182223Y0281950D03*
X0182223Y0281900D03*
X0182223Y0281850D03*
X0182223Y0281800D03*
X0182223Y0281750D03*
X0182223Y0281700D03*
X0182223Y0281650D03*
X0182223Y0281600D03*
X0182223Y0281550D03*
X0182223Y0281500D03*
X0183973Y0283950D03*
X0183923Y0284000D03*
X0185423Y0283050D03*
X0185423Y0283000D03*
X0185423Y0282950D03*
X0185423Y0282900D03*
X0185423Y0282850D03*
X0185423Y0282800D03*
X0185423Y0282750D03*
X0185423Y0282700D03*
X0185423Y0282650D03*
X0185423Y0282600D03*
X0185423Y0282400D03*
X0185423Y0282350D03*
X0185423Y0282300D03*
X0185423Y0282250D03*
X0185423Y0282200D03*
X0185423Y0282150D03*
X0185423Y0282100D03*
X0185423Y0282050D03*
X0185423Y0282000D03*
X0185423Y0281950D03*
X0185423Y0281900D03*
X0185423Y0281850D03*
X0185423Y0281800D03*
X0185423Y0281750D03*
X0185423Y0281700D03*
X0185423Y0281650D03*
X0185423Y0281600D03*
X0185423Y0281550D03*
X0185423Y0281500D03*
X0185423Y0281450D03*
X0185423Y0281400D03*
X0185423Y0281350D03*
X0185423Y0281300D03*
X0185423Y0281250D03*
X0185423Y0281200D03*
X0185423Y0281150D03*
X0185423Y0281100D03*
X0185423Y0281050D03*
X0187623Y0283950D03*
X0191623Y0284000D03*
X0191773Y0283600D03*
X0191873Y0283350D03*
X0191973Y0283100D03*
X0192023Y0282950D03*
X0192073Y0282850D03*
X0192123Y0282700D03*
X0192173Y0282600D03*
X0192173Y0282550D03*
X0192223Y0282450D03*
X0192223Y0282400D03*
X0192273Y0282300D03*
X0192323Y0282200D03*
X0192323Y0282150D03*
X0192423Y0281900D03*
X0192423Y0281850D03*
X0192473Y0281750D03*
X0192523Y0281600D03*
X0192573Y0281450D03*
X0194573Y0280850D03*
X0194623Y0280750D03*
X0196023Y0281050D03*
X0196073Y0281150D03*
X0196073Y0281200D03*
X0196123Y0280650D03*
X0197323Y0281250D03*
X0197323Y0281300D03*
X0197323Y0281350D03*
X0197323Y0281400D03*
X0197273Y0281550D03*
X0197273Y0281600D03*
X0197273Y0281650D03*
X0197273Y0281700D03*
X0197373Y0281150D03*
X0199073Y0281150D03*
X0199073Y0281100D03*
X0199173Y0280650D03*
X0199073Y0282450D03*
X0199073Y0282500D03*
X0199073Y0282550D03*
X0200573Y0284050D03*
X0200573Y0284100D03*
X0200573Y0284250D03*
X0200573Y0284300D03*
X0202923Y0282950D03*
X0203923Y0281950D03*
X0201873Y0281850D03*
X0201873Y0281800D03*
X0201873Y0281750D03*
X0201873Y0281700D03*
X0201873Y0281650D03*
X0201873Y0281600D03*
X0201873Y0281550D03*
X0201873Y0281500D03*
X0196073Y0282750D03*
X0194423Y0276550D03*
X0194473Y0274750D03*
X0194473Y0274700D03*
X0194473Y0274650D03*
X0194473Y0273100D03*
X0194473Y0273050D03*
X0195323Y0272700D03*
X0196273Y0273700D03*
X0196273Y0273750D03*
X0196273Y0274100D03*
X0196273Y0274150D03*
X0196273Y0274200D03*
X0196273Y0274250D03*
X0196273Y0274300D03*
X0196223Y0274450D03*
X0197423Y0274000D03*
X0197823Y0273550D03*
X0198873Y0274850D03*
X0199673Y0274950D03*
X0199373Y0272350D03*
X0192373Y0273250D03*
X0192273Y0273450D03*
X0192173Y0273700D03*
X0192123Y0273800D03*
X0192023Y0274050D03*
X0191773Y0274550D03*
X0191773Y0274600D03*
X0191773Y0274650D03*
X0190273Y0274550D03*
X0190223Y0274700D03*
X0190173Y0274800D03*
X0190173Y0274850D03*
X0190873Y0273200D03*
X0187923Y0273200D03*
X0187923Y0273150D03*
X0187173Y0274750D03*
X0187123Y0274850D03*
X0187123Y0274900D03*
X0184723Y0274050D03*
X0184823Y0273800D03*
X0184873Y0273700D03*
X0184973Y0273450D03*
X0185073Y0273250D03*
X0184473Y0274550D03*
X0184473Y0274600D03*
X0184473Y0274650D03*
X0182973Y0274550D03*
X0182923Y0274700D03*
X0182873Y0274800D03*
X0182873Y0274850D03*
X0183573Y0273200D03*
X0180623Y0273200D03*
X0180623Y0273150D03*
X0179873Y0274750D03*
X0179823Y0274850D03*
X0179823Y0274900D03*
X0188323Y0278850D03*
X0188373Y0278800D03*
X0188423Y0278700D03*
X0188473Y0278650D03*
X0188523Y0278600D03*
X0188573Y0278500D03*
X0188623Y0278450D03*
X0188673Y0278400D03*
X0188673Y0278350D03*
X0188723Y0278300D03*
X0188773Y0278250D03*
X0188873Y0278100D03*
X0188923Y0278050D03*
X0188973Y0278000D03*
X0188973Y0277950D03*
X0189123Y0277750D03*
X0189173Y0277700D03*
X0189223Y0277650D03*
X0189273Y0277550D03*
X0189323Y0277500D03*
X0189373Y0277450D03*
X0189373Y0277400D03*
X0189423Y0277350D03*
X0189473Y0277300D03*
X0189523Y0277200D03*
X0189573Y0277150D03*
X0189623Y0279050D03*
D21*
X0192798Y0280800D03*
X0194948Y0280500D03*
X0196248Y0280500D03*
X0198098Y0280500D03*
X0194348Y0282850D03*
X0194348Y0282900D03*
X0194548Y0274950D03*
X0197498Y0272900D03*
X0198048Y0273450D03*
X0199298Y0272400D03*
X0185398Y0283950D03*
X0185398Y0284000D03*
X0183848Y0284350D03*
X0182248Y0280900D03*
X0179398Y0284100D03*
X0177098Y0283850D03*
X0177098Y0283800D03*
X0174848Y0283700D03*
X0174798Y0283800D03*
X0175998Y0281150D03*
X0175998Y0281100D03*
X0178148Y0281150D03*
D22*
X0178148Y0281250D03*
X0175998Y0281200D03*
X0177048Y0284000D03*
X0174748Y0283950D03*
X0180698Y0284350D03*
X0183798Y0284100D03*
X0185448Y0280650D03*
X0185898Y0275150D03*
X0184398Y0275050D03*
X0182848Y0275050D03*
X0190148Y0275050D03*
X0191698Y0275050D03*
X0193198Y0275150D03*
X0195948Y0282850D03*
X0198198Y0282900D03*
X0198948Y0284400D03*
X0198948Y0284450D03*
X0199298Y0280550D03*
X0199298Y0280500D03*
X0200648Y0280550D03*
X0199198Y0272450D03*
D23*
X0198673Y0272500D03*
D24*
X0198523Y0272550D03*
X0198173Y0272800D03*
X0191623Y0282000D03*
X0191623Y0282050D03*
D25*
X0198423Y0272600D03*
D26*
X0198348Y0272650D03*
X0198298Y0272700D03*
X0198248Y0272750D03*
D27*
X0194273Y0272800D03*
X0194273Y0272850D03*
X0192673Y0273450D03*
X0192673Y0273500D03*
X0192723Y0273600D03*
X0192723Y0273650D03*
X0192773Y0273700D03*
X0192773Y0273750D03*
X0192823Y0273850D03*
X0192823Y0273900D03*
X0192873Y0274000D03*
X0192873Y0274050D03*
X0192923Y0274150D03*
X0192923Y0274200D03*
X0192973Y0274250D03*
X0192973Y0274300D03*
X0192973Y0274350D03*
X0193023Y0274400D03*
X0193023Y0274450D03*
X0193023Y0274500D03*
X0193073Y0274600D03*
X0193073Y0274650D03*
X0193123Y0274750D03*
X0193123Y0274800D03*
X0191523Y0274400D03*
X0191523Y0274350D03*
X0191473Y0274250D03*
X0191423Y0274100D03*
X0191373Y0274000D03*
X0191373Y0273950D03*
X0191323Y0273850D03*
X0191273Y0273750D03*
X0191223Y0273600D03*
X0191173Y0273500D03*
X0191123Y0273400D03*
X0188673Y0274450D03*
X0188673Y0274500D03*
X0188623Y0274400D03*
X0188623Y0274350D03*
X0188573Y0274300D03*
X0188573Y0274250D03*
X0188573Y0274200D03*
X0188523Y0274150D03*
X0188523Y0274100D03*
X0188473Y0274050D03*
X0188473Y0274000D03*
X0188473Y0273950D03*
X0188423Y0273900D03*
X0188423Y0273850D03*
X0188373Y0273800D03*
X0188373Y0273750D03*
X0188373Y0273700D03*
X0188323Y0273650D03*
X0188323Y0273600D03*
X0188273Y0273550D03*
X0188273Y0273500D03*
X0188223Y0273400D03*
X0188173Y0273300D03*
X0187923Y0272750D03*
X0187923Y0272700D03*
X0188723Y0274600D03*
X0188723Y0274650D03*
X0185823Y0274750D03*
X0185823Y0274800D03*
X0185773Y0274650D03*
X0185773Y0274600D03*
X0185723Y0274500D03*
X0185723Y0274450D03*
X0185723Y0274400D03*
X0185673Y0274350D03*
X0185673Y0274300D03*
X0185673Y0274250D03*
X0185623Y0274200D03*
X0185623Y0274150D03*
X0185573Y0274050D03*
X0185573Y0274000D03*
X0185523Y0273900D03*
X0185523Y0273850D03*
X0185473Y0273750D03*
X0185473Y0273700D03*
X0185423Y0273650D03*
X0185423Y0273600D03*
X0185373Y0273500D03*
X0185373Y0273450D03*
X0184073Y0273950D03*
X0184073Y0274000D03*
X0184123Y0274100D03*
X0184173Y0274250D03*
X0184223Y0274350D03*
X0184223Y0274400D03*
X0184023Y0273850D03*
X0183973Y0273750D03*
X0183923Y0273600D03*
X0183873Y0273500D03*
X0183823Y0273400D03*
X0181373Y0274450D03*
X0181373Y0274500D03*
X0181323Y0274400D03*
X0181323Y0274350D03*
X0181273Y0274300D03*
X0181273Y0274250D03*
X0181273Y0274200D03*
X0181223Y0274150D03*
X0181223Y0274100D03*
X0181173Y0274050D03*
X0181173Y0274000D03*
X0181173Y0273950D03*
X0181123Y0273900D03*
X0181123Y0273850D03*
X0181073Y0273800D03*
X0181073Y0273750D03*
X0181073Y0273700D03*
X0181023Y0273650D03*
X0181023Y0273600D03*
X0180973Y0273550D03*
X0180973Y0273500D03*
X0180923Y0273400D03*
X0180873Y0273300D03*
X0180623Y0272750D03*
X0180623Y0272700D03*
X0181423Y0274600D03*
X0181423Y0274650D03*
X0178173Y0280400D03*
X0176023Y0280400D03*
X0176523Y0281900D03*
X0176573Y0282050D03*
X0180273Y0283400D03*
X0180273Y0283450D03*
X0180273Y0283500D03*
X0184173Y0283450D03*
X0184173Y0283400D03*
X0186823Y0282950D03*
X0186873Y0283050D03*
X0186873Y0283100D03*
X0186873Y0283150D03*
X0186873Y0283200D03*
X0187923Y0283400D03*
X0187923Y0283450D03*
X0186823Y0282000D03*
X0186823Y0281950D03*
X0186823Y0281900D03*
X0186823Y0281850D03*
X0186823Y0281800D03*
X0189423Y0278650D03*
X0189273Y0278450D03*
X0189123Y0278250D03*
X0188673Y0277700D03*
X0188573Y0277550D03*
X0190773Y0282250D03*
X0190823Y0282400D03*
X0190923Y0282650D03*
X0190973Y0282800D03*
X0195723Y0280900D03*
X0195773Y0280950D03*
X0198773Y0280900D03*
X0198773Y0282700D03*
D28*
X0194248Y0272750D03*
X0192398Y0272700D03*
X0190848Y0272700D03*
X0185098Y0272700D03*
X0183548Y0272700D03*
D29*
X0183548Y0272750D03*
X0183548Y0272800D03*
X0183848Y0273450D03*
X0183898Y0273550D03*
X0183948Y0273650D03*
X0183948Y0273700D03*
X0183998Y0273800D03*
X0184048Y0273900D03*
X0184098Y0274050D03*
X0184148Y0274150D03*
X0184148Y0274200D03*
X0184198Y0274300D03*
X0185498Y0273800D03*
X0185548Y0273950D03*
X0185598Y0274100D03*
X0185748Y0274550D03*
X0185798Y0274700D03*
X0185848Y0274850D03*
X0185398Y0273550D03*
X0185348Y0273400D03*
X0185098Y0272850D03*
X0185098Y0272800D03*
X0185098Y0272750D03*
X0188198Y0273350D03*
X0188248Y0273450D03*
X0188698Y0274550D03*
X0188748Y0274700D03*
X0188748Y0274750D03*
X0188798Y0274800D03*
X0188798Y0274850D03*
X0188298Y0277100D03*
X0188348Y0277200D03*
X0188398Y0277250D03*
X0188398Y0277300D03*
X0188448Y0277350D03*
X0188498Y0277400D03*
X0188498Y0277450D03*
X0188548Y0277500D03*
X0188598Y0277600D03*
X0188648Y0277650D03*
X0188698Y0277750D03*
X0188748Y0277800D03*
X0189148Y0278300D03*
X0189198Y0278350D03*
X0189248Y0278400D03*
X0189298Y0278500D03*
X0189348Y0278550D03*
X0189398Y0278600D03*
X0189448Y0278700D03*
X0189498Y0278750D03*
X0189548Y0278850D03*
X0189748Y0280450D03*
X0190398Y0281150D03*
X0190398Y0281200D03*
X0190448Y0281300D03*
X0190448Y0281350D03*
X0190498Y0281400D03*
X0190498Y0281450D03*
X0190498Y0281500D03*
X0190548Y0281550D03*
X0190548Y0281600D03*
X0190548Y0281650D03*
X0190598Y0281700D03*
X0190598Y0281750D03*
X0190598Y0281800D03*
X0190648Y0281850D03*
X0190648Y0281900D03*
X0190698Y0281950D03*
X0190748Y0282150D03*
X0190748Y0282200D03*
X0190798Y0282300D03*
X0190798Y0282350D03*
X0190848Y0282450D03*
X0190848Y0282500D03*
X0190898Y0282550D03*
X0190898Y0282600D03*
X0190948Y0282700D03*
X0190948Y0282750D03*
X0190998Y0282850D03*
X0190998Y0282900D03*
X0191048Y0282950D03*
X0191048Y0283000D03*
X0191048Y0283050D03*
X0191098Y0283100D03*
X0191098Y0283150D03*
X0191148Y0283200D03*
X0191148Y0283250D03*
X0191148Y0283300D03*
X0191198Y0283350D03*
X0191198Y0283400D03*
X0191248Y0283450D03*
X0191248Y0283500D03*
X0191298Y0283600D03*
X0191298Y0283650D03*
X0191348Y0283700D03*
X0191648Y0284400D03*
X0187898Y0283500D03*
X0187848Y0283600D03*
X0186848Y0283000D03*
X0186798Y0282900D03*
X0186798Y0282850D03*
X0186798Y0282100D03*
X0186798Y0282050D03*
X0184148Y0283500D03*
X0180298Y0283550D03*
X0180298Y0283600D03*
X0179248Y0283500D03*
X0179198Y0283400D03*
X0179198Y0283350D03*
X0179148Y0283250D03*
X0179148Y0283200D03*
X0179098Y0283150D03*
X0179098Y0283100D03*
X0179098Y0283050D03*
X0179048Y0283000D03*
X0179048Y0282950D03*
X0179048Y0282900D03*
X0178998Y0282850D03*
X0178998Y0282800D03*
X0178948Y0282750D03*
X0178948Y0282700D03*
X0178948Y0282650D03*
X0178898Y0282600D03*
X0178898Y0282550D03*
X0178898Y0282500D03*
X0178848Y0282450D03*
X0178848Y0282400D03*
X0178848Y0282350D03*
X0178798Y0282300D03*
X0178798Y0282250D03*
X0178798Y0282200D03*
X0178748Y0282150D03*
X0178748Y0282100D03*
X0178748Y0282050D03*
X0178698Y0282000D03*
X0178698Y0281950D03*
X0178648Y0281900D03*
X0178648Y0281850D03*
X0178648Y0281800D03*
X0178598Y0281750D03*
X0178598Y0281700D03*
X0178598Y0281650D03*
X0178548Y0281600D03*
X0178548Y0281550D03*
X0178548Y0281500D03*
X0178498Y0281450D03*
X0178498Y0281400D03*
X0178448Y0281300D03*
X0178148Y0280500D03*
X0178148Y0280450D03*
X0176348Y0281350D03*
X0176348Y0281400D03*
X0176348Y0281450D03*
X0176398Y0281500D03*
X0176398Y0281550D03*
X0176398Y0281600D03*
X0176448Y0281650D03*
X0176448Y0281700D03*
X0176448Y0281750D03*
X0176498Y0281800D03*
X0176498Y0281850D03*
X0176548Y0281950D03*
X0176548Y0282000D03*
X0176598Y0282100D03*
X0176598Y0282150D03*
X0176648Y0282200D03*
X0176648Y0282250D03*
X0176648Y0282300D03*
X0176698Y0282350D03*
X0176698Y0282400D03*
X0176698Y0282450D03*
X0176748Y0282500D03*
X0176748Y0282550D03*
X0176748Y0282600D03*
X0176798Y0282650D03*
X0176798Y0282700D03*
X0176798Y0282750D03*
X0176848Y0282800D03*
X0176848Y0282850D03*
X0176848Y0282900D03*
X0176898Y0282950D03*
X0176898Y0283000D03*
X0176898Y0283050D03*
X0176948Y0283100D03*
X0176298Y0281300D03*
X0176298Y0281250D03*
X0176048Y0280450D03*
X0181498Y0274850D03*
X0181498Y0274800D03*
X0181448Y0274750D03*
X0181448Y0274700D03*
X0181398Y0274550D03*
X0180948Y0273450D03*
X0180898Y0273350D03*
X0190848Y0272800D03*
X0190848Y0272750D03*
X0191148Y0273450D03*
X0191198Y0273550D03*
X0191248Y0273650D03*
X0191248Y0273700D03*
X0191298Y0273800D03*
X0191348Y0273900D03*
X0191398Y0274050D03*
X0191448Y0274150D03*
X0191448Y0274200D03*
X0191498Y0274300D03*
X0192798Y0273800D03*
X0192848Y0273950D03*
X0192898Y0274100D03*
X0193048Y0274550D03*
X0193098Y0274700D03*
X0193148Y0274850D03*
X0192698Y0273550D03*
X0192648Y0273400D03*
X0192398Y0272850D03*
X0192398Y0272800D03*
X0192398Y0272750D03*
X0194298Y0272900D03*
X0194898Y0275050D03*
X0199098Y0274900D03*
X0200148Y0280450D03*
X0198798Y0280950D03*
X0198748Y0280850D03*
X0198698Y0280800D03*
X0198798Y0282650D03*
X0198698Y0282750D03*
X0198648Y0282800D03*
X0195698Y0280850D03*
X0195648Y0280800D03*
X0195598Y0280750D03*
D30*
X0189673Y0279150D03*
X0189673Y0279100D03*
X0182223Y0280700D03*
X0180723Y0284150D03*
X0174723Y0284050D03*
X0195323Y0272750D03*
X0198123Y0273500D03*
X0202923Y0282900D03*
D31*
X0200573Y0284450D03*
X0198573Y0282850D03*
X0198623Y0280750D03*
X0198573Y0280700D03*
X0201223Y0280450D03*
X0195523Y0280700D03*
X0195423Y0280650D03*
X0192073Y0280450D03*
X0190873Y0280450D03*
X0190323Y0280950D03*
X0190373Y0281050D03*
X0190373Y0281100D03*
X0190423Y0281250D03*
X0191273Y0283550D03*
X0191623Y0284300D03*
X0191623Y0284350D03*
X0187873Y0283550D03*
X0187823Y0283650D03*
X0186773Y0282800D03*
X0186773Y0282200D03*
X0186773Y0282150D03*
X0184123Y0283550D03*
X0184123Y0283600D03*
X0180323Y0283650D03*
X0179323Y0283750D03*
X0179273Y0283650D03*
X0179273Y0283600D03*
X0179273Y0283550D03*
X0179223Y0283450D03*
X0179173Y0283300D03*
X0178473Y0281350D03*
X0178173Y0280550D03*
X0176023Y0280550D03*
X0176023Y0280500D03*
X0181523Y0274900D03*
X0180623Y0272850D03*
X0180623Y0272800D03*
X0183573Y0272850D03*
X0185873Y0274900D03*
X0185873Y0274950D03*
X0187923Y0272850D03*
X0187923Y0272800D03*
X0188823Y0274900D03*
X0188223Y0277000D03*
X0188273Y0277050D03*
X0188323Y0277150D03*
X0189523Y0278800D03*
X0189573Y0278900D03*
X0193173Y0274950D03*
X0193173Y0274900D03*
X0194823Y0275000D03*
X0194973Y0275100D03*
X0194323Y0272950D03*
X0197523Y0273300D03*
X0199173Y0274950D03*
X0199723Y0274700D03*
X0190873Y0272850D03*
D32*
X0197948Y0272850D03*
X0177048Y0284200D03*
D33*
X0177073Y0283950D03*
X0177073Y0283900D03*
X0177223Y0283250D03*
X0177223Y0283200D03*
X0177223Y0283150D03*
X0178173Y0281200D03*
X0180623Y0284100D03*
X0182223Y0280850D03*
X0182223Y0280800D03*
X0185423Y0280700D03*
X0185373Y0284050D03*
X0187523Y0284050D03*
X0191623Y0283800D03*
X0191623Y0283750D03*
X0192823Y0280750D03*
X0192823Y0280700D03*
X0190273Y0280600D03*
X0189723Y0276900D03*
X0187073Y0275050D03*
X0185873Y0275100D03*
X0179773Y0275050D03*
X0174773Y0283850D03*
X0174773Y0283900D03*
X0193173Y0275100D03*
X0194323Y0276650D03*
X0194273Y0276700D03*
X0196223Y0280550D03*
X0195923Y0282900D03*
X0199523Y0275050D03*
D34*
X0190123Y0275100D03*
X0187073Y0275100D03*
X0187073Y0275150D03*
X0182823Y0275100D03*
X0179773Y0275100D03*
X0179773Y0275150D03*
X0185423Y0284150D03*
D35*
X0185448Y0280600D03*
X0188898Y0275150D03*
X0188898Y0275100D03*
X0181598Y0275100D03*
X0181598Y0275150D03*
X0179398Y0284150D03*
X0174748Y0284000D03*
X0194948Y0280550D03*
X0198098Y0280550D03*
D36*
X0198073Y0280600D03*
X0194973Y0280600D03*
X0191673Y0275150D03*
X0191673Y0275100D03*
X0184373Y0275100D03*
X0184373Y0275150D03*
X0174723Y0284100D03*
D37*
X0177048Y0284150D03*
X0182848Y0275150D03*
X0190148Y0275150D03*
D38*
X0188148Y0276750D03*
X0188148Y0276800D03*
X0185448Y0280550D03*
X0182248Y0280650D03*
X0183648Y0284150D03*
D39*
X0182223Y0280600D03*
X0188173Y0279150D03*
X0188173Y0279100D03*
X0190323Y0280500D03*
X0189773Y0276750D03*
D40*
X0189748Y0276850D03*
X0190298Y0280550D03*
X0192848Y0280600D03*
X0187348Y0284150D03*
X0177048Y0284100D03*
D41*
X0182248Y0280550D03*
X0182248Y0280500D03*
X0191648Y0282100D03*
D42*
X0185473Y0280500D03*
X0177073Y0284250D03*
D43*
X0174748Y0284250D03*
X0174748Y0284200D03*
X0192798Y0280500D03*
D44*
X0200698Y0280500D03*
X0179398Y0284200D03*
X0179398Y0284250D03*
D45*
X0174723Y0284150D03*
X0192823Y0280550D03*
D46*
X0186023Y0282450D03*
X0186023Y0282500D03*
X0186023Y0282550D03*
D47*
X0182223Y0284200D03*
D48*
X0186198Y0284200D03*
X0186198Y0284250D03*
D49*
X0182248Y0284250D03*
X0182248Y0284300D03*
D50*
X0186523Y0284300D03*
D51*
X0201627Y0318370D02*
X0204763Y0321506D01*
X0203195Y0321506D02*
X0203195Y0318370D01*
X0204763Y0318370D02*
X0201627Y0321506D01*
X0201627Y0319938D02*
X0204763Y0319938D01*
X0173136Y0337602D02*
X0171202Y0337602D01*
X0171202Y0334700D01*
X0170190Y0334700D02*
X0170190Y0336635D01*
X0171202Y0336151D02*
X0172169Y0336151D01*
X0170190Y0334700D02*
X0168739Y0334700D01*
X0168255Y0335184D01*
X0168255Y0336635D01*
X0167243Y0334700D02*
X0165308Y0334700D01*
X0166276Y0334700D02*
X0166276Y0337602D01*
X0165308Y0336635D01*
X0146946Y0287648D02*
X0146946Y0285713D01*
X0149848Y0285713D01*
X0149848Y0284701D02*
X0147913Y0284701D01*
X0148397Y0285713D02*
X0148397Y0286680D01*
X0149848Y0284701D02*
X0149848Y0283250D01*
X0149364Y0282766D01*
X0147913Y0282766D01*
X0149848Y0281755D02*
X0149848Y0279820D01*
X0149848Y0280787D02*
X0146946Y0280787D01*
X0147913Y0279820D01*
X0149364Y0278830D02*
X0149848Y0278830D01*
X0149848Y0278347D01*
X0149364Y0278347D01*
X0149364Y0278830D01*
X0149364Y0277335D02*
X0149848Y0276851D01*
X0149848Y0275884D01*
X0149364Y0275400D01*
X0147429Y0277335D01*
X0149364Y0277335D01*
X0147429Y0277335D02*
X0146946Y0276851D01*
X0146946Y0275884D01*
X0147429Y0275400D01*
X0149364Y0275400D01*
X0149041Y0270302D02*
X0150492Y0270302D01*
X0150976Y0269819D01*
X0150976Y0268851D01*
X0150492Y0268367D01*
X0149041Y0268367D01*
X0149041Y0267400D02*
X0149041Y0270302D01*
X0148030Y0269819D02*
X0146095Y0267884D01*
X0146578Y0267400D01*
X0147546Y0267400D01*
X0148030Y0267884D01*
X0148030Y0269819D01*
X0147546Y0270302D01*
X0146578Y0270302D01*
X0146095Y0269819D01*
X0146095Y0267884D01*
X0145083Y0267400D02*
X0143148Y0267400D01*
X0144116Y0267400D02*
X0144116Y0270302D01*
X0143148Y0269335D01*
X0150009Y0268367D02*
X0150976Y0267400D01*
X0166776Y0245852D02*
X0165808Y0244885D01*
X0166776Y0245852D02*
X0166776Y0242950D01*
X0167743Y0242950D02*
X0165808Y0242950D01*
X0168755Y0243434D02*
X0169239Y0242950D01*
X0170690Y0242950D01*
X0170690Y0244885D01*
X0171702Y0244401D02*
X0172669Y0244401D01*
X0171702Y0242950D02*
X0171702Y0245852D01*
X0173636Y0245852D01*
X0168755Y0244885D02*
X0168755Y0243434D01*
X0201627Y0231506D02*
X0204763Y0228370D01*
X0203195Y0228370D02*
X0203195Y0231506D01*
X0204763Y0231506D02*
X0201627Y0228370D01*
X0201627Y0229938D02*
X0204763Y0229938D01*
X0053967Y0275828D02*
X0053967Y0278297D01*
X0053350Y0279511D02*
X0053350Y0280746D01*
X0053350Y0280129D02*
X0049647Y0280129D01*
X0049647Y0280746D02*
X0049647Y0279511D01*
X0049647Y0281967D02*
X0053350Y0284436D01*
X0049647Y0284436D01*
X0049647Y0281967D02*
X0053350Y0281967D01*
X0052733Y0274614D02*
X0053350Y0273997D01*
X0053350Y0272762D01*
X0052733Y0272145D01*
X0050264Y0272145D01*
X0049647Y0272762D01*
X0049647Y0273997D01*
X0050264Y0274614D01*
X0050881Y0270931D02*
X0049647Y0269696D01*
X0050881Y0268462D01*
X0053350Y0268462D01*
X0051498Y0268462D02*
X0051498Y0270931D01*
X0050881Y0270931D02*
X0053350Y0270931D01*
D52*
X0174070Y0174540D02*
X0174070Y0171471D01*
X0174070Y0173005D02*
X0178674Y0173005D01*
X0177907Y0169936D02*
X0178674Y0169169D01*
X0178674Y0167634D01*
X0177907Y0166867D01*
X0174070Y0166867D01*
X0174837Y0165332D02*
X0174070Y0164565D01*
X0174070Y0163030D01*
X0174837Y0162263D01*
X0177907Y0162263D01*
X0178674Y0163030D01*
X0178674Y0164565D01*
X0177907Y0165332D01*
X0174837Y0165332D01*
X0174070Y0169936D02*
X0177907Y0169936D01*
X0177907Y0139540D02*
X0174837Y0139540D01*
X0174070Y0138773D01*
X0174070Y0136471D01*
X0178674Y0136471D01*
X0178674Y0138773D01*
X0177907Y0139540D01*
X0178674Y0134936D02*
X0174070Y0134936D01*
X0174070Y0131867D02*
X0178674Y0134936D01*
X0178674Y0131867D02*
X0174070Y0131867D01*
X0174837Y0130332D02*
X0174070Y0129565D01*
X0174070Y0128030D01*
X0174837Y0127263D01*
X0177907Y0127263D01*
X0178674Y0128030D01*
X0178674Y0129565D01*
X0177907Y0130332D01*
X0176372Y0130332D01*
X0176372Y0128798D01*
X0132835Y0008678D02*
X0130533Y0008678D01*
X0130533Y0004074D01*
X0132835Y0004074D01*
X0133602Y0004841D01*
X0133602Y0007911D01*
X0132835Y0008678D01*
X0128998Y0008678D02*
X0128998Y0004074D01*
X0125929Y0008678D01*
X0125929Y0004074D01*
X0124394Y0004841D02*
X0124394Y0006376D01*
X0122860Y0006376D01*
X0124394Y0007911D02*
X0123627Y0008678D01*
X0122093Y0008678D01*
X0121325Y0007911D01*
X0121325Y0004841D01*
X0122093Y0004074D01*
X0123627Y0004074D01*
X0124394Y0004841D01*
D53*
X0126000Y0036500D02*
X0125500Y0037000D01*
X0106500Y0037000D01*
X0106000Y0036500D01*
X0104500Y0036500D01*
X0104440Y0036502D01*
X0104379Y0036507D01*
X0104320Y0036516D01*
X0104261Y0036529D01*
X0104202Y0036545D01*
X0104145Y0036565D01*
X0104090Y0036588D01*
X0104035Y0036615D01*
X0103983Y0036644D01*
X0103932Y0036677D01*
X0103883Y0036713D01*
X0103837Y0036751D01*
X0103793Y0036793D01*
X0103751Y0036837D01*
X0103713Y0036883D01*
X0103677Y0036932D01*
X0103644Y0036983D01*
X0103615Y0037035D01*
X0103588Y0037090D01*
X0103565Y0037145D01*
X0103545Y0037202D01*
X0103529Y0037261D01*
X0103516Y0037320D01*
X0103507Y0037379D01*
X0103502Y0037440D01*
X0103500Y0037500D01*
X0103500Y0044500D01*
X0103502Y0044560D01*
X0103507Y0044621D01*
X0103516Y0044680D01*
X0103529Y0044739D01*
X0103545Y0044798D01*
X0103565Y0044855D01*
X0103588Y0044910D01*
X0103615Y0044965D01*
X0103644Y0045017D01*
X0103677Y0045068D01*
X0103713Y0045117D01*
X0103751Y0045163D01*
X0103793Y0045207D01*
X0103837Y0045249D01*
X0103883Y0045287D01*
X0103932Y0045323D01*
X0103983Y0045356D01*
X0104035Y0045385D01*
X0104090Y0045412D01*
X0104145Y0045435D01*
X0104202Y0045455D01*
X0104261Y0045471D01*
X0104320Y0045484D01*
X0104379Y0045493D01*
X0104440Y0045498D01*
X0104500Y0045500D01*
X0106000Y0045500D01*
X0106500Y0045000D01*
X0125500Y0045000D01*
X0126000Y0045500D01*
X0127500Y0045500D01*
X0127560Y0045498D01*
X0127621Y0045493D01*
X0127680Y0045484D01*
X0127739Y0045471D01*
X0127798Y0045455D01*
X0127855Y0045435D01*
X0127910Y0045412D01*
X0127965Y0045385D01*
X0128017Y0045356D01*
X0128068Y0045323D01*
X0128117Y0045287D01*
X0128163Y0045249D01*
X0128207Y0045207D01*
X0128249Y0045163D01*
X0128287Y0045117D01*
X0128323Y0045068D01*
X0128356Y0045017D01*
X0128385Y0044965D01*
X0128412Y0044910D01*
X0128435Y0044855D01*
X0128455Y0044798D01*
X0128471Y0044739D01*
X0128484Y0044680D01*
X0128493Y0044621D01*
X0128498Y0044560D01*
X0128500Y0044500D01*
X0128500Y0037500D01*
X0128498Y0037440D01*
X0128493Y0037379D01*
X0128484Y0037320D01*
X0128471Y0037261D01*
X0128455Y0037202D01*
X0128435Y0037145D01*
X0128412Y0037090D01*
X0128385Y0037035D01*
X0128356Y0036983D01*
X0128323Y0036932D01*
X0128287Y0036883D01*
X0128249Y0036837D01*
X0128207Y0036793D01*
X0128163Y0036751D01*
X0128117Y0036713D01*
X0128068Y0036677D01*
X0128017Y0036644D01*
X0127965Y0036615D01*
X0127910Y0036588D01*
X0127855Y0036565D01*
X0127798Y0036545D01*
X0127739Y0036529D01*
X0127680Y0036516D01*
X0127621Y0036507D01*
X0127560Y0036502D01*
X0127500Y0036500D01*
X0126000Y0036500D01*
X0129500Y0048811D02*
X0102500Y0048811D01*
X0102440Y0048813D01*
X0102379Y0048818D01*
X0102320Y0048827D01*
X0102261Y0048840D01*
X0102202Y0048856D01*
X0102145Y0048876D01*
X0102090Y0048899D01*
X0102035Y0048926D01*
X0101983Y0048955D01*
X0101932Y0048988D01*
X0101883Y0049024D01*
X0101837Y0049062D01*
X0101793Y0049104D01*
X0101751Y0049148D01*
X0101713Y0049194D01*
X0101677Y0049243D01*
X0101644Y0049294D01*
X0101615Y0049346D01*
X0101588Y0049401D01*
X0101565Y0049456D01*
X0101545Y0049513D01*
X0101529Y0049572D01*
X0101516Y0049631D01*
X0101507Y0049690D01*
X0101502Y0049751D01*
X0101500Y0049811D01*
X0101500Y0065811D01*
X0101502Y0065871D01*
X0101507Y0065932D01*
X0101516Y0065991D01*
X0101529Y0066050D01*
X0101545Y0066109D01*
X0101565Y0066166D01*
X0101588Y0066221D01*
X0101615Y0066276D01*
X0101644Y0066328D01*
X0101677Y0066379D01*
X0101713Y0066428D01*
X0101751Y0066474D01*
X0101793Y0066518D01*
X0101837Y0066560D01*
X0101883Y0066598D01*
X0101932Y0066634D01*
X0101983Y0066667D01*
X0102035Y0066696D01*
X0102090Y0066723D01*
X0102145Y0066746D01*
X0102202Y0066766D01*
X0102261Y0066782D01*
X0102320Y0066795D01*
X0102379Y0066804D01*
X0102440Y0066809D01*
X0102500Y0066811D01*
X0129500Y0066811D01*
X0129560Y0066809D01*
X0129621Y0066804D01*
X0129680Y0066795D01*
X0129739Y0066782D01*
X0129798Y0066766D01*
X0129855Y0066746D01*
X0129910Y0066723D01*
X0129965Y0066696D01*
X0130017Y0066667D01*
X0130068Y0066634D01*
X0130117Y0066598D01*
X0130163Y0066560D01*
X0130207Y0066518D01*
X0130249Y0066474D01*
X0130287Y0066428D01*
X0130323Y0066379D01*
X0130356Y0066328D01*
X0130385Y0066276D01*
X0130412Y0066221D01*
X0130435Y0066166D01*
X0130455Y0066109D01*
X0130471Y0066050D01*
X0130484Y0065991D01*
X0130493Y0065932D01*
X0130498Y0065871D01*
X0130500Y0065811D01*
X0130500Y0049811D01*
X0130498Y0049751D01*
X0130493Y0049690D01*
X0130484Y0049631D01*
X0130471Y0049572D01*
X0130455Y0049513D01*
X0130435Y0049456D01*
X0130412Y0049401D01*
X0130385Y0049346D01*
X0130356Y0049294D01*
X0130323Y0049243D01*
X0130287Y0049194D01*
X0130249Y0049148D01*
X0130207Y0049104D01*
X0130163Y0049062D01*
X0130117Y0049024D01*
X0130068Y0048988D01*
X0130017Y0048955D01*
X0129965Y0048926D01*
X0129910Y0048899D01*
X0129855Y0048876D01*
X0129798Y0048856D01*
X0129739Y0048840D01*
X0129680Y0048827D01*
X0129621Y0048818D01*
X0129560Y0048813D01*
X0129500Y0048811D01*
X0122000Y0057811D02*
X0117300Y0057811D01*
X0114800Y0057811D02*
X0110000Y0057811D01*
X0106000Y0071500D02*
X0104500Y0071500D01*
X0104440Y0071502D01*
X0104379Y0071507D01*
X0104320Y0071516D01*
X0104261Y0071529D01*
X0104202Y0071545D01*
X0104145Y0071565D01*
X0104090Y0071588D01*
X0104035Y0071615D01*
X0103983Y0071644D01*
X0103932Y0071677D01*
X0103883Y0071713D01*
X0103837Y0071751D01*
X0103793Y0071793D01*
X0103751Y0071837D01*
X0103713Y0071883D01*
X0103677Y0071932D01*
X0103644Y0071983D01*
X0103615Y0072035D01*
X0103588Y0072090D01*
X0103565Y0072145D01*
X0103545Y0072202D01*
X0103529Y0072261D01*
X0103516Y0072320D01*
X0103507Y0072379D01*
X0103502Y0072440D01*
X0103500Y0072500D01*
X0103500Y0079500D01*
X0103502Y0079560D01*
X0103507Y0079621D01*
X0103516Y0079680D01*
X0103529Y0079739D01*
X0103545Y0079798D01*
X0103565Y0079855D01*
X0103588Y0079910D01*
X0103615Y0079965D01*
X0103644Y0080017D01*
X0103677Y0080068D01*
X0103713Y0080117D01*
X0103751Y0080163D01*
X0103793Y0080207D01*
X0103837Y0080249D01*
X0103883Y0080287D01*
X0103932Y0080323D01*
X0103983Y0080356D01*
X0104035Y0080385D01*
X0104090Y0080412D01*
X0104145Y0080435D01*
X0104202Y0080455D01*
X0104261Y0080471D01*
X0104320Y0080484D01*
X0104379Y0080493D01*
X0104440Y0080498D01*
X0104500Y0080500D01*
X0106000Y0080500D01*
X0106500Y0080000D01*
X0125500Y0080000D01*
X0126000Y0080500D01*
X0127500Y0080500D01*
X0127560Y0080498D01*
X0127621Y0080493D01*
X0127680Y0080484D01*
X0127739Y0080471D01*
X0127798Y0080455D01*
X0127855Y0080435D01*
X0127910Y0080412D01*
X0127965Y0080385D01*
X0128017Y0080356D01*
X0128068Y0080323D01*
X0128117Y0080287D01*
X0128163Y0080249D01*
X0128207Y0080207D01*
X0128249Y0080163D01*
X0128287Y0080117D01*
X0128323Y0080068D01*
X0128356Y0080017D01*
X0128385Y0079965D01*
X0128412Y0079910D01*
X0128435Y0079855D01*
X0128455Y0079798D01*
X0128471Y0079739D01*
X0128484Y0079680D01*
X0128493Y0079621D01*
X0128498Y0079560D01*
X0128500Y0079500D01*
X0128500Y0072500D01*
X0128498Y0072440D01*
X0128493Y0072379D01*
X0128484Y0072320D01*
X0128471Y0072261D01*
X0128455Y0072202D01*
X0128435Y0072145D01*
X0128412Y0072090D01*
X0128385Y0072035D01*
X0128356Y0071983D01*
X0128323Y0071932D01*
X0128287Y0071883D01*
X0128249Y0071837D01*
X0128207Y0071793D01*
X0128163Y0071751D01*
X0128117Y0071713D01*
X0128068Y0071677D01*
X0128017Y0071644D01*
X0127965Y0071615D01*
X0127910Y0071588D01*
X0127855Y0071565D01*
X0127798Y0071545D01*
X0127739Y0071529D01*
X0127680Y0071516D01*
X0127621Y0071507D01*
X0127560Y0071502D01*
X0127500Y0071500D01*
X0126000Y0071500D01*
X0125500Y0072000D01*
X0106500Y0072000D01*
X0106000Y0071500D01*
X0121000Y0086000D02*
X0121000Y0096000D01*
X0121000Y0102000D01*
X0121126Y0102002D01*
X0121251Y0102008D01*
X0121376Y0102018D01*
X0121501Y0102032D01*
X0121626Y0102049D01*
X0121750Y0102071D01*
X0121873Y0102096D01*
X0121995Y0102126D01*
X0122116Y0102159D01*
X0122236Y0102196D01*
X0122355Y0102236D01*
X0122472Y0102281D01*
X0122589Y0102329D01*
X0122703Y0102381D01*
X0122816Y0102436D01*
X0122927Y0102495D01*
X0123036Y0102557D01*
X0123143Y0102623D01*
X0123248Y0102692D01*
X0123351Y0102764D01*
X0123452Y0102839D01*
X0123550Y0102918D01*
X0123645Y0103000D01*
X0123738Y0103084D01*
X0123828Y0103172D01*
X0123916Y0103262D01*
X0124000Y0103355D01*
X0124082Y0103450D01*
X0124161Y0103548D01*
X0124236Y0103649D01*
X0124308Y0103752D01*
X0124377Y0103857D01*
X0124443Y0103964D01*
X0124505Y0104073D01*
X0124564Y0104184D01*
X0124619Y0104297D01*
X0124671Y0104411D01*
X0124719Y0104528D01*
X0124764Y0104645D01*
X0124804Y0104764D01*
X0124841Y0104884D01*
X0124874Y0105005D01*
X0124904Y0105127D01*
X0124929Y0105250D01*
X0124951Y0105374D01*
X0124968Y0105499D01*
X0124982Y0105624D01*
X0124992Y0105749D01*
X0124998Y0105874D01*
X0125000Y0106000D01*
X0124998Y0106126D01*
X0124992Y0106251D01*
X0124982Y0106376D01*
X0124968Y0106501D01*
X0124951Y0106626D01*
X0124929Y0106750D01*
X0124904Y0106873D01*
X0124874Y0106995D01*
X0124841Y0107116D01*
X0124804Y0107236D01*
X0124764Y0107355D01*
X0124719Y0107472D01*
X0124671Y0107589D01*
X0124619Y0107703D01*
X0124564Y0107816D01*
X0124505Y0107927D01*
X0124443Y0108036D01*
X0124377Y0108143D01*
X0124308Y0108248D01*
X0124236Y0108351D01*
X0124161Y0108452D01*
X0124082Y0108550D01*
X0124000Y0108645D01*
X0123916Y0108738D01*
X0123828Y0108828D01*
X0123738Y0108916D01*
X0123645Y0109000D01*
X0123550Y0109082D01*
X0123452Y0109161D01*
X0123351Y0109236D01*
X0123248Y0109308D01*
X0123143Y0109377D01*
X0123036Y0109443D01*
X0122927Y0109505D01*
X0122816Y0109564D01*
X0122703Y0109619D01*
X0122589Y0109671D01*
X0122472Y0109719D01*
X0122355Y0109764D01*
X0122236Y0109804D01*
X0122116Y0109841D01*
X0121995Y0109874D01*
X0121873Y0109904D01*
X0121750Y0109929D01*
X0121626Y0109951D01*
X0121501Y0109968D01*
X0121376Y0109982D01*
X0121251Y0109992D01*
X0121126Y0109998D01*
X0121000Y0110000D01*
X0121000Y0116000D01*
X0161000Y0116000D01*
X0161000Y0096000D01*
X0161000Y0086000D01*
X0121000Y0086000D01*
X0121000Y0096000D02*
X0161000Y0096000D01*
X0166500Y0096000D02*
X0166500Y0086000D01*
X0166502Y0085940D01*
X0166507Y0085879D01*
X0166516Y0085820D01*
X0166529Y0085761D01*
X0166545Y0085702D01*
X0166565Y0085645D01*
X0166588Y0085590D01*
X0166615Y0085535D01*
X0166644Y0085483D01*
X0166677Y0085432D01*
X0166713Y0085383D01*
X0166751Y0085337D01*
X0166793Y0085293D01*
X0166837Y0085251D01*
X0166883Y0085213D01*
X0166932Y0085177D01*
X0166983Y0085144D01*
X0167035Y0085115D01*
X0167090Y0085088D01*
X0167145Y0085065D01*
X0167202Y0085045D01*
X0167261Y0085029D01*
X0167320Y0085016D01*
X0167379Y0085007D01*
X0167440Y0085002D01*
X0167500Y0085000D01*
X0194500Y0085000D01*
X0194560Y0085002D01*
X0194621Y0085007D01*
X0194680Y0085016D01*
X0194739Y0085029D01*
X0194798Y0085045D01*
X0194855Y0085065D01*
X0194910Y0085088D01*
X0194965Y0085115D01*
X0195017Y0085144D01*
X0195068Y0085177D01*
X0195117Y0085213D01*
X0195163Y0085251D01*
X0195207Y0085293D01*
X0195249Y0085337D01*
X0195287Y0085383D01*
X0195323Y0085432D01*
X0195356Y0085483D01*
X0195385Y0085535D01*
X0195412Y0085590D01*
X0195435Y0085645D01*
X0195455Y0085702D01*
X0195471Y0085761D01*
X0195484Y0085820D01*
X0195493Y0085879D01*
X0195498Y0085940D01*
X0195500Y0086000D01*
X0195500Y0096000D01*
X0195498Y0096060D01*
X0195493Y0096121D01*
X0195484Y0096180D01*
X0195471Y0096239D01*
X0195455Y0096298D01*
X0195435Y0096355D01*
X0195412Y0096410D01*
X0195385Y0096465D01*
X0195356Y0096517D01*
X0195323Y0096568D01*
X0195287Y0096617D01*
X0195249Y0096663D01*
X0195207Y0096707D01*
X0195163Y0096749D01*
X0195117Y0096787D01*
X0195068Y0096823D01*
X0195017Y0096856D01*
X0194965Y0096885D01*
X0194910Y0096912D01*
X0194855Y0096935D01*
X0194798Y0096955D01*
X0194739Y0096971D01*
X0194680Y0096984D01*
X0194621Y0096993D01*
X0194560Y0096998D01*
X0194500Y0097000D01*
X0167500Y0097000D01*
X0167440Y0096998D01*
X0167379Y0096993D01*
X0167320Y0096984D01*
X0167261Y0096971D01*
X0167202Y0096955D01*
X0167145Y0096935D01*
X0167090Y0096912D01*
X0167035Y0096885D01*
X0166983Y0096856D01*
X0166932Y0096823D01*
X0166883Y0096787D01*
X0166837Y0096749D01*
X0166793Y0096707D01*
X0166751Y0096663D01*
X0166713Y0096617D01*
X0166677Y0096568D01*
X0166644Y0096517D01*
X0166615Y0096465D01*
X0166588Y0096410D01*
X0166565Y0096355D01*
X0166545Y0096298D01*
X0166529Y0096239D01*
X0166516Y0096180D01*
X0166507Y0096121D01*
X0166502Y0096060D01*
X0166500Y0096000D01*
X0175000Y0091000D02*
X0179700Y0091000D01*
X0182200Y0091000D02*
X0187000Y0091000D01*
X0184224Y0069516D02*
X0181724Y0069516D01*
X0181724Y0060516D01*
X0184224Y0060516D01*
X0184224Y0065016D01*
X0184224Y0069516D01*
X0184224Y0065016D02*
X0185224Y0065016D01*
X0163224Y0065016D02*
X0163229Y0065445D01*
X0163245Y0065875D01*
X0163271Y0066303D01*
X0163308Y0066731D01*
X0163356Y0067158D01*
X0163413Y0067584D01*
X0163482Y0068008D01*
X0163560Y0068430D01*
X0163649Y0068850D01*
X0163748Y0069268D01*
X0163858Y0069683D01*
X0163978Y0070096D01*
X0164107Y0070505D01*
X0164247Y0070912D01*
X0164397Y0071314D01*
X0164556Y0071713D01*
X0164725Y0072108D01*
X0164904Y0072498D01*
X0165093Y0072884D01*
X0165290Y0073265D01*
X0165497Y0073642D01*
X0165714Y0074013D01*
X0165939Y0074378D01*
X0166173Y0074738D01*
X0166416Y0075093D01*
X0166668Y0075441D01*
X0166928Y0075783D01*
X0167196Y0076118D01*
X0167473Y0076447D01*
X0167757Y0076768D01*
X0168050Y0077083D01*
X0168350Y0077390D01*
X0168657Y0077690D01*
X0168972Y0077983D01*
X0169293Y0078267D01*
X0169622Y0078544D01*
X0169957Y0078812D01*
X0170299Y0079072D01*
X0170647Y0079324D01*
X0171002Y0079567D01*
X0171362Y0079801D01*
X0171727Y0080026D01*
X0172098Y0080243D01*
X0172475Y0080450D01*
X0172856Y0080647D01*
X0173242Y0080836D01*
X0173632Y0081015D01*
X0174027Y0081184D01*
X0174426Y0081343D01*
X0174828Y0081493D01*
X0175235Y0081633D01*
X0175644Y0081762D01*
X0176057Y0081882D01*
X0176472Y0081992D01*
X0176890Y0082091D01*
X0177310Y0082180D01*
X0177732Y0082258D01*
X0178156Y0082327D01*
X0178582Y0082384D01*
X0179009Y0082432D01*
X0179437Y0082469D01*
X0179865Y0082495D01*
X0180295Y0082511D01*
X0180724Y0082516D01*
X0181153Y0082511D01*
X0181583Y0082495D01*
X0182011Y0082469D01*
X0182439Y0082432D01*
X0182866Y0082384D01*
X0183292Y0082327D01*
X0183716Y0082258D01*
X0184138Y0082180D01*
X0184558Y0082091D01*
X0184976Y0081992D01*
X0185391Y0081882D01*
X0185804Y0081762D01*
X0186213Y0081633D01*
X0186620Y0081493D01*
X0187022Y0081343D01*
X0187421Y0081184D01*
X0187816Y0081015D01*
X0188206Y0080836D01*
X0188592Y0080647D01*
X0188973Y0080450D01*
X0189350Y0080243D01*
X0189721Y0080026D01*
X0190086Y0079801D01*
X0190446Y0079567D01*
X0190801Y0079324D01*
X0191149Y0079072D01*
X0191491Y0078812D01*
X0191826Y0078544D01*
X0192155Y0078267D01*
X0192476Y0077983D01*
X0192791Y0077690D01*
X0193098Y0077390D01*
X0193398Y0077083D01*
X0193691Y0076768D01*
X0193975Y0076447D01*
X0194252Y0076118D01*
X0194520Y0075783D01*
X0194780Y0075441D01*
X0195032Y0075093D01*
X0195275Y0074738D01*
X0195509Y0074378D01*
X0195734Y0074013D01*
X0195951Y0073642D01*
X0196158Y0073265D01*
X0196355Y0072884D01*
X0196544Y0072498D01*
X0196723Y0072108D01*
X0196892Y0071713D01*
X0197051Y0071314D01*
X0197201Y0070912D01*
X0197341Y0070505D01*
X0197470Y0070096D01*
X0197590Y0069683D01*
X0197700Y0069268D01*
X0197799Y0068850D01*
X0197888Y0068430D01*
X0197966Y0068008D01*
X0198035Y0067584D01*
X0198092Y0067158D01*
X0198140Y0066731D01*
X0198177Y0066303D01*
X0198203Y0065875D01*
X0198219Y0065445D01*
X0198224Y0065016D01*
X0198219Y0064587D01*
X0198203Y0064157D01*
X0198177Y0063729D01*
X0198140Y0063301D01*
X0198092Y0062874D01*
X0198035Y0062448D01*
X0197966Y0062024D01*
X0197888Y0061602D01*
X0197799Y0061182D01*
X0197700Y0060764D01*
X0197590Y0060349D01*
X0197470Y0059936D01*
X0197341Y0059527D01*
X0197201Y0059120D01*
X0197051Y0058718D01*
X0196892Y0058319D01*
X0196723Y0057924D01*
X0196544Y0057534D01*
X0196355Y0057148D01*
X0196158Y0056767D01*
X0195951Y0056390D01*
X0195734Y0056019D01*
X0195509Y0055654D01*
X0195275Y0055294D01*
X0195032Y0054939D01*
X0194780Y0054591D01*
X0194520Y0054249D01*
X0194252Y0053914D01*
X0193975Y0053585D01*
X0193691Y0053264D01*
X0193398Y0052949D01*
X0193098Y0052642D01*
X0192791Y0052342D01*
X0192476Y0052049D01*
X0192155Y0051765D01*
X0191826Y0051488D01*
X0191491Y0051220D01*
X0191149Y0050960D01*
X0190801Y0050708D01*
X0190446Y0050465D01*
X0190086Y0050231D01*
X0189721Y0050006D01*
X0189350Y0049789D01*
X0188973Y0049582D01*
X0188592Y0049385D01*
X0188206Y0049196D01*
X0187816Y0049017D01*
X0187421Y0048848D01*
X0187022Y0048689D01*
X0186620Y0048539D01*
X0186213Y0048399D01*
X0185804Y0048270D01*
X0185391Y0048150D01*
X0184976Y0048040D01*
X0184558Y0047941D01*
X0184138Y0047852D01*
X0183716Y0047774D01*
X0183292Y0047705D01*
X0182866Y0047648D01*
X0182439Y0047600D01*
X0182011Y0047563D01*
X0181583Y0047537D01*
X0181153Y0047521D01*
X0180724Y0047516D01*
X0180295Y0047521D01*
X0179865Y0047537D01*
X0179437Y0047563D01*
X0179009Y0047600D01*
X0178582Y0047648D01*
X0178156Y0047705D01*
X0177732Y0047774D01*
X0177310Y0047852D01*
X0176890Y0047941D01*
X0176472Y0048040D01*
X0176057Y0048150D01*
X0175644Y0048270D01*
X0175235Y0048399D01*
X0174828Y0048539D01*
X0174426Y0048689D01*
X0174027Y0048848D01*
X0173632Y0049017D01*
X0173242Y0049196D01*
X0172856Y0049385D01*
X0172475Y0049582D01*
X0172098Y0049789D01*
X0171727Y0050006D01*
X0171362Y0050231D01*
X0171002Y0050465D01*
X0170647Y0050708D01*
X0170299Y0050960D01*
X0169957Y0051220D01*
X0169622Y0051488D01*
X0169293Y0051765D01*
X0168972Y0052049D01*
X0168657Y0052342D01*
X0168350Y0052642D01*
X0168050Y0052949D01*
X0167757Y0053264D01*
X0167473Y0053585D01*
X0167196Y0053914D01*
X0166928Y0054249D01*
X0166668Y0054591D01*
X0166416Y0054939D01*
X0166173Y0055294D01*
X0165939Y0055654D01*
X0165714Y0056019D01*
X0165497Y0056390D01*
X0165290Y0056767D01*
X0165093Y0057148D01*
X0164904Y0057534D01*
X0164725Y0057924D01*
X0164556Y0058319D01*
X0164397Y0058718D01*
X0164247Y0059120D01*
X0164107Y0059527D01*
X0163978Y0059936D01*
X0163858Y0060349D01*
X0163748Y0060764D01*
X0163649Y0061182D01*
X0163560Y0061602D01*
X0163482Y0062024D01*
X0163413Y0062448D01*
X0163356Y0062874D01*
X0163308Y0063301D01*
X0163271Y0063729D01*
X0163245Y0064157D01*
X0163229Y0064587D01*
X0163224Y0065016D01*
X0150500Y0071000D02*
X0150000Y0070500D01*
X0150000Y0051500D01*
X0150500Y0051000D01*
X0150500Y0049500D01*
X0150498Y0049440D01*
X0150493Y0049379D01*
X0150484Y0049320D01*
X0150471Y0049261D01*
X0150455Y0049202D01*
X0150435Y0049145D01*
X0150412Y0049090D01*
X0150385Y0049035D01*
X0150356Y0048983D01*
X0150323Y0048932D01*
X0150287Y0048883D01*
X0150249Y0048837D01*
X0150207Y0048793D01*
X0150163Y0048751D01*
X0150117Y0048713D01*
X0150068Y0048677D01*
X0150017Y0048644D01*
X0149965Y0048615D01*
X0149910Y0048588D01*
X0149855Y0048565D01*
X0149798Y0048545D01*
X0149739Y0048529D01*
X0149680Y0048516D01*
X0149621Y0048507D01*
X0149560Y0048502D01*
X0149500Y0048500D01*
X0142500Y0048500D01*
X0142440Y0048502D01*
X0142379Y0048507D01*
X0142320Y0048516D01*
X0142261Y0048529D01*
X0142202Y0048545D01*
X0142145Y0048565D01*
X0142090Y0048588D01*
X0142035Y0048615D01*
X0141983Y0048644D01*
X0141932Y0048677D01*
X0141883Y0048713D01*
X0141837Y0048751D01*
X0141793Y0048793D01*
X0141751Y0048837D01*
X0141713Y0048883D01*
X0141677Y0048932D01*
X0141644Y0048983D01*
X0141615Y0049035D01*
X0141588Y0049090D01*
X0141565Y0049145D01*
X0141545Y0049202D01*
X0141529Y0049261D01*
X0141516Y0049320D01*
X0141507Y0049379D01*
X0141502Y0049440D01*
X0141500Y0049500D01*
X0141500Y0051000D01*
X0142000Y0051500D01*
X0142000Y0070500D01*
X0141500Y0071000D01*
X0141500Y0072500D01*
X0141502Y0072560D01*
X0141507Y0072621D01*
X0141516Y0072680D01*
X0141529Y0072739D01*
X0141545Y0072798D01*
X0141565Y0072855D01*
X0141588Y0072910D01*
X0141615Y0072965D01*
X0141644Y0073017D01*
X0141677Y0073068D01*
X0141713Y0073117D01*
X0141751Y0073163D01*
X0141793Y0073207D01*
X0141837Y0073249D01*
X0141883Y0073287D01*
X0141932Y0073323D01*
X0141983Y0073356D01*
X0142035Y0073385D01*
X0142090Y0073412D01*
X0142145Y0073435D01*
X0142202Y0073455D01*
X0142261Y0073471D01*
X0142320Y0073484D01*
X0142379Y0073493D01*
X0142440Y0073498D01*
X0142500Y0073500D01*
X0149500Y0073500D01*
X0149560Y0073498D01*
X0149621Y0073493D01*
X0149680Y0073484D01*
X0149739Y0073471D01*
X0149798Y0073455D01*
X0149855Y0073435D01*
X0149910Y0073412D01*
X0149965Y0073385D01*
X0150017Y0073356D01*
X0150068Y0073323D01*
X0150117Y0073287D01*
X0150163Y0073249D01*
X0150207Y0073207D01*
X0150249Y0073163D01*
X0150287Y0073117D01*
X0150323Y0073068D01*
X0150356Y0073017D01*
X0150385Y0072965D01*
X0150412Y0072910D01*
X0150435Y0072855D01*
X0150455Y0072798D01*
X0150471Y0072739D01*
X0150484Y0072680D01*
X0150493Y0072621D01*
X0150498Y0072560D01*
X0150500Y0072500D01*
X0150500Y0071000D01*
X0176224Y0065016D02*
X0178224Y0065016D01*
X0192224Y0058516D02*
X0195224Y0058516D01*
X0193724Y0057016D02*
X0193724Y0060016D01*
X0161000Y0116000D02*
X0161000Y0126000D01*
X0121000Y0126000D01*
X0121000Y0116000D01*
X0108248Y0129252D02*
X0135248Y0129252D01*
X0135308Y0129254D01*
X0135369Y0129259D01*
X0135428Y0129268D01*
X0135487Y0129281D01*
X0135546Y0129297D01*
X0135603Y0129317D01*
X0135658Y0129340D01*
X0135713Y0129367D01*
X0135765Y0129396D01*
X0135816Y0129429D01*
X0135865Y0129465D01*
X0135911Y0129503D01*
X0135955Y0129545D01*
X0135997Y0129589D01*
X0136035Y0129635D01*
X0136071Y0129684D01*
X0136104Y0129735D01*
X0136133Y0129787D01*
X0136160Y0129842D01*
X0136183Y0129897D01*
X0136203Y0129954D01*
X0136219Y0130013D01*
X0136232Y0130072D01*
X0136241Y0130131D01*
X0136246Y0130192D01*
X0136248Y0130252D01*
X0136248Y0140252D01*
X0136246Y0140312D01*
X0136241Y0140373D01*
X0136232Y0140432D01*
X0136219Y0140491D01*
X0136203Y0140550D01*
X0136183Y0140607D01*
X0136160Y0140662D01*
X0136133Y0140717D01*
X0136104Y0140769D01*
X0136071Y0140820D01*
X0136035Y0140869D01*
X0135997Y0140915D01*
X0135955Y0140959D01*
X0135911Y0141001D01*
X0135865Y0141039D01*
X0135816Y0141075D01*
X0135765Y0141108D01*
X0135713Y0141137D01*
X0135658Y0141164D01*
X0135603Y0141187D01*
X0135546Y0141207D01*
X0135487Y0141223D01*
X0135428Y0141236D01*
X0135369Y0141245D01*
X0135308Y0141250D01*
X0135248Y0141252D01*
X0108248Y0141252D01*
X0108188Y0141250D01*
X0108127Y0141245D01*
X0108068Y0141236D01*
X0108009Y0141223D01*
X0107950Y0141207D01*
X0107893Y0141187D01*
X0107838Y0141164D01*
X0107783Y0141137D01*
X0107731Y0141108D01*
X0107680Y0141075D01*
X0107631Y0141039D01*
X0107585Y0141001D01*
X0107541Y0140959D01*
X0107499Y0140915D01*
X0107461Y0140869D01*
X0107425Y0140820D01*
X0107392Y0140769D01*
X0107363Y0140717D01*
X0107336Y0140662D01*
X0107313Y0140607D01*
X0107293Y0140550D01*
X0107277Y0140491D01*
X0107264Y0140432D01*
X0107255Y0140373D01*
X0107250Y0140312D01*
X0107248Y0140252D01*
X0107248Y0130252D01*
X0107250Y0130192D01*
X0107255Y0130131D01*
X0107264Y0130072D01*
X0107277Y0130013D01*
X0107293Y0129954D01*
X0107313Y0129897D01*
X0107336Y0129842D01*
X0107363Y0129787D01*
X0107392Y0129735D01*
X0107425Y0129684D01*
X0107461Y0129635D01*
X0107499Y0129589D01*
X0107541Y0129545D01*
X0107585Y0129503D01*
X0107631Y0129465D01*
X0107680Y0129429D01*
X0107731Y0129396D01*
X0107783Y0129367D01*
X0107838Y0129340D01*
X0107893Y0129317D01*
X0107950Y0129297D01*
X0108009Y0129281D01*
X0108068Y0129268D01*
X0108127Y0129259D01*
X0108188Y0129254D01*
X0108248Y0129252D01*
X0115748Y0135252D02*
X0120548Y0135252D01*
X0123048Y0135252D02*
X0127748Y0135252D01*
X0141500Y0139500D02*
X0141500Y0141000D01*
X0142000Y0141500D01*
X0142000Y0160500D01*
X0141500Y0161000D01*
X0141500Y0162500D01*
X0141502Y0162560D01*
X0141507Y0162621D01*
X0141516Y0162680D01*
X0141529Y0162739D01*
X0141545Y0162798D01*
X0141565Y0162855D01*
X0141588Y0162910D01*
X0141615Y0162965D01*
X0141644Y0163017D01*
X0141677Y0163068D01*
X0141713Y0163117D01*
X0141751Y0163163D01*
X0141793Y0163207D01*
X0141837Y0163249D01*
X0141883Y0163287D01*
X0141932Y0163323D01*
X0141983Y0163356D01*
X0142035Y0163385D01*
X0142090Y0163412D01*
X0142145Y0163435D01*
X0142202Y0163455D01*
X0142261Y0163471D01*
X0142320Y0163484D01*
X0142379Y0163493D01*
X0142440Y0163498D01*
X0142500Y0163500D01*
X0149500Y0163500D01*
X0149560Y0163498D01*
X0149621Y0163493D01*
X0149680Y0163484D01*
X0149739Y0163471D01*
X0149798Y0163455D01*
X0149855Y0163435D01*
X0149910Y0163412D01*
X0149965Y0163385D01*
X0150017Y0163356D01*
X0150068Y0163323D01*
X0150117Y0163287D01*
X0150163Y0163249D01*
X0150207Y0163207D01*
X0150249Y0163163D01*
X0150287Y0163117D01*
X0150323Y0163068D01*
X0150356Y0163017D01*
X0150385Y0162965D01*
X0150412Y0162910D01*
X0150435Y0162855D01*
X0150455Y0162798D01*
X0150471Y0162739D01*
X0150484Y0162680D01*
X0150493Y0162621D01*
X0150498Y0162560D01*
X0150500Y0162500D01*
X0150500Y0161000D01*
X0150000Y0160500D01*
X0150000Y0141500D01*
X0150500Y0141000D01*
X0150500Y0139500D01*
X0150498Y0139440D01*
X0150493Y0139379D01*
X0150484Y0139320D01*
X0150471Y0139261D01*
X0150455Y0139202D01*
X0150435Y0139145D01*
X0150412Y0139090D01*
X0150385Y0139035D01*
X0150356Y0138983D01*
X0150323Y0138932D01*
X0150287Y0138883D01*
X0150249Y0138837D01*
X0150207Y0138793D01*
X0150163Y0138751D01*
X0150117Y0138713D01*
X0150068Y0138677D01*
X0150017Y0138644D01*
X0149965Y0138615D01*
X0149910Y0138588D01*
X0149855Y0138565D01*
X0149798Y0138545D01*
X0149739Y0138529D01*
X0149680Y0138516D01*
X0149621Y0138507D01*
X0149560Y0138502D01*
X0149500Y0138500D01*
X0142500Y0138500D01*
X0142440Y0138502D01*
X0142379Y0138507D01*
X0142320Y0138516D01*
X0142261Y0138529D01*
X0142202Y0138545D01*
X0142145Y0138565D01*
X0142090Y0138588D01*
X0142035Y0138615D01*
X0141983Y0138644D01*
X0141932Y0138677D01*
X0141883Y0138713D01*
X0141837Y0138751D01*
X0141793Y0138793D01*
X0141751Y0138837D01*
X0141713Y0138883D01*
X0141677Y0138932D01*
X0141644Y0138983D01*
X0141615Y0139035D01*
X0141588Y0139090D01*
X0141565Y0139145D01*
X0141545Y0139202D01*
X0141529Y0139261D01*
X0141516Y0139320D01*
X0141507Y0139379D01*
X0141502Y0139440D01*
X0141500Y0139500D01*
X0134945Y0154535D02*
X0134945Y0157535D01*
X0136445Y0156035D02*
X0133445Y0156035D01*
X0125445Y0158035D02*
X0125445Y0162535D01*
X0125445Y0167035D01*
X0122945Y0167035D01*
X0122945Y0158035D01*
X0125445Y0158035D01*
X0125445Y0162535D02*
X0126445Y0162535D01*
X0104445Y0162535D02*
X0104450Y0162964D01*
X0104466Y0163394D01*
X0104492Y0163822D01*
X0104529Y0164250D01*
X0104577Y0164677D01*
X0104634Y0165103D01*
X0104703Y0165527D01*
X0104781Y0165949D01*
X0104870Y0166369D01*
X0104969Y0166787D01*
X0105079Y0167202D01*
X0105199Y0167615D01*
X0105328Y0168024D01*
X0105468Y0168431D01*
X0105618Y0168833D01*
X0105777Y0169232D01*
X0105946Y0169627D01*
X0106125Y0170017D01*
X0106314Y0170403D01*
X0106511Y0170784D01*
X0106718Y0171161D01*
X0106935Y0171532D01*
X0107160Y0171897D01*
X0107394Y0172257D01*
X0107637Y0172612D01*
X0107889Y0172960D01*
X0108149Y0173302D01*
X0108417Y0173637D01*
X0108694Y0173966D01*
X0108978Y0174287D01*
X0109271Y0174602D01*
X0109571Y0174909D01*
X0109878Y0175209D01*
X0110193Y0175502D01*
X0110514Y0175786D01*
X0110843Y0176063D01*
X0111178Y0176331D01*
X0111520Y0176591D01*
X0111868Y0176843D01*
X0112223Y0177086D01*
X0112583Y0177320D01*
X0112948Y0177545D01*
X0113319Y0177762D01*
X0113696Y0177969D01*
X0114077Y0178166D01*
X0114463Y0178355D01*
X0114853Y0178534D01*
X0115248Y0178703D01*
X0115647Y0178862D01*
X0116049Y0179012D01*
X0116456Y0179152D01*
X0116865Y0179281D01*
X0117278Y0179401D01*
X0117693Y0179511D01*
X0118111Y0179610D01*
X0118531Y0179699D01*
X0118953Y0179777D01*
X0119377Y0179846D01*
X0119803Y0179903D01*
X0120230Y0179951D01*
X0120658Y0179988D01*
X0121086Y0180014D01*
X0121516Y0180030D01*
X0121945Y0180035D01*
X0122374Y0180030D01*
X0122804Y0180014D01*
X0123232Y0179988D01*
X0123660Y0179951D01*
X0124087Y0179903D01*
X0124513Y0179846D01*
X0124937Y0179777D01*
X0125359Y0179699D01*
X0125779Y0179610D01*
X0126197Y0179511D01*
X0126612Y0179401D01*
X0127025Y0179281D01*
X0127434Y0179152D01*
X0127841Y0179012D01*
X0128243Y0178862D01*
X0128642Y0178703D01*
X0129037Y0178534D01*
X0129427Y0178355D01*
X0129813Y0178166D01*
X0130194Y0177969D01*
X0130571Y0177762D01*
X0130942Y0177545D01*
X0131307Y0177320D01*
X0131667Y0177086D01*
X0132022Y0176843D01*
X0132370Y0176591D01*
X0132712Y0176331D01*
X0133047Y0176063D01*
X0133376Y0175786D01*
X0133697Y0175502D01*
X0134012Y0175209D01*
X0134319Y0174909D01*
X0134619Y0174602D01*
X0134912Y0174287D01*
X0135196Y0173966D01*
X0135473Y0173637D01*
X0135741Y0173302D01*
X0136001Y0172960D01*
X0136253Y0172612D01*
X0136496Y0172257D01*
X0136730Y0171897D01*
X0136955Y0171532D01*
X0137172Y0171161D01*
X0137379Y0170784D01*
X0137576Y0170403D01*
X0137765Y0170017D01*
X0137944Y0169627D01*
X0138113Y0169232D01*
X0138272Y0168833D01*
X0138422Y0168431D01*
X0138562Y0168024D01*
X0138691Y0167615D01*
X0138811Y0167202D01*
X0138921Y0166787D01*
X0139020Y0166369D01*
X0139109Y0165949D01*
X0139187Y0165527D01*
X0139256Y0165103D01*
X0139313Y0164677D01*
X0139361Y0164250D01*
X0139398Y0163822D01*
X0139424Y0163394D01*
X0139440Y0162964D01*
X0139445Y0162535D01*
X0139440Y0162106D01*
X0139424Y0161676D01*
X0139398Y0161248D01*
X0139361Y0160820D01*
X0139313Y0160393D01*
X0139256Y0159967D01*
X0139187Y0159543D01*
X0139109Y0159121D01*
X0139020Y0158701D01*
X0138921Y0158283D01*
X0138811Y0157868D01*
X0138691Y0157455D01*
X0138562Y0157046D01*
X0138422Y0156639D01*
X0138272Y0156237D01*
X0138113Y0155838D01*
X0137944Y0155443D01*
X0137765Y0155053D01*
X0137576Y0154667D01*
X0137379Y0154286D01*
X0137172Y0153909D01*
X0136955Y0153538D01*
X0136730Y0153173D01*
X0136496Y0152813D01*
X0136253Y0152458D01*
X0136001Y0152110D01*
X0135741Y0151768D01*
X0135473Y0151433D01*
X0135196Y0151104D01*
X0134912Y0150783D01*
X0134619Y0150468D01*
X0134319Y0150161D01*
X0134012Y0149861D01*
X0133697Y0149568D01*
X0133376Y0149284D01*
X0133047Y0149007D01*
X0132712Y0148739D01*
X0132370Y0148479D01*
X0132022Y0148227D01*
X0131667Y0147984D01*
X0131307Y0147750D01*
X0130942Y0147525D01*
X0130571Y0147308D01*
X0130194Y0147101D01*
X0129813Y0146904D01*
X0129427Y0146715D01*
X0129037Y0146536D01*
X0128642Y0146367D01*
X0128243Y0146208D01*
X0127841Y0146058D01*
X0127434Y0145918D01*
X0127025Y0145789D01*
X0126612Y0145669D01*
X0126197Y0145559D01*
X0125779Y0145460D01*
X0125359Y0145371D01*
X0124937Y0145293D01*
X0124513Y0145224D01*
X0124087Y0145167D01*
X0123660Y0145119D01*
X0123232Y0145082D01*
X0122804Y0145056D01*
X0122374Y0145040D01*
X0121945Y0145035D01*
X0121516Y0145040D01*
X0121086Y0145056D01*
X0120658Y0145082D01*
X0120230Y0145119D01*
X0119803Y0145167D01*
X0119377Y0145224D01*
X0118953Y0145293D01*
X0118531Y0145371D01*
X0118111Y0145460D01*
X0117693Y0145559D01*
X0117278Y0145669D01*
X0116865Y0145789D01*
X0116456Y0145918D01*
X0116049Y0146058D01*
X0115647Y0146208D01*
X0115248Y0146367D01*
X0114853Y0146536D01*
X0114463Y0146715D01*
X0114077Y0146904D01*
X0113696Y0147101D01*
X0113319Y0147308D01*
X0112948Y0147525D01*
X0112583Y0147750D01*
X0112223Y0147984D01*
X0111868Y0148227D01*
X0111520Y0148479D01*
X0111178Y0148739D01*
X0110843Y0149007D01*
X0110514Y0149284D01*
X0110193Y0149568D01*
X0109878Y0149861D01*
X0109571Y0150161D01*
X0109271Y0150468D01*
X0108978Y0150783D01*
X0108694Y0151104D01*
X0108417Y0151433D01*
X0108149Y0151768D01*
X0107889Y0152110D01*
X0107637Y0152458D01*
X0107394Y0152813D01*
X0107160Y0153173D01*
X0106935Y0153538D01*
X0106718Y0153909D01*
X0106511Y0154286D01*
X0106314Y0154667D01*
X0106125Y0155053D01*
X0105946Y0155443D01*
X0105777Y0155838D01*
X0105618Y0156237D01*
X0105468Y0156639D01*
X0105328Y0157046D01*
X0105199Y0157455D01*
X0105079Y0157868D01*
X0104969Y0158283D01*
X0104870Y0158701D01*
X0104781Y0159121D01*
X0104703Y0159543D01*
X0104634Y0159967D01*
X0104577Y0160393D01*
X0104529Y0160820D01*
X0104492Y0161248D01*
X0104466Y0161676D01*
X0104450Y0162106D01*
X0104445Y0162535D01*
X0117445Y0162535D02*
X0119445Y0162535D01*
X0133588Y0208685D02*
X0133588Y0213685D01*
X0136088Y0211185D02*
X0131088Y0211185D01*
X0141088Y0224185D02*
X0141088Y0225185D01*
X0136088Y0225185D01*
X0136088Y0227685D01*
X0146088Y0227685D01*
X0146088Y0225185D01*
X0141088Y0225185D01*
X0113588Y0228685D02*
X0113596Y0229360D01*
X0113621Y0230034D01*
X0113663Y0230708D01*
X0113720Y0231380D01*
X0113795Y0232051D01*
X0113886Y0232720D01*
X0113993Y0233386D01*
X0114116Y0234050D01*
X0114256Y0234710D01*
X0114412Y0235367D01*
X0114584Y0236020D01*
X0114772Y0236668D01*
X0114976Y0237311D01*
X0115196Y0237949D01*
X0115431Y0238582D01*
X0115681Y0239209D01*
X0115947Y0239829D01*
X0116228Y0240443D01*
X0116524Y0241049D01*
X0116835Y0241648D01*
X0117161Y0242240D01*
X0117500Y0242823D01*
X0117855Y0243397D01*
X0118223Y0243963D01*
X0118604Y0244520D01*
X0119000Y0245067D01*
X0119408Y0245604D01*
X0119830Y0246131D01*
X0120265Y0246647D01*
X0120712Y0247153D01*
X0121171Y0247647D01*
X0121643Y0248130D01*
X0122126Y0248602D01*
X0122620Y0249061D01*
X0123126Y0249508D01*
X0123642Y0249943D01*
X0124169Y0250365D01*
X0124706Y0250773D01*
X0125253Y0251169D01*
X0125810Y0251550D01*
X0126376Y0251918D01*
X0126950Y0252273D01*
X0127533Y0252612D01*
X0128125Y0252938D01*
X0128724Y0253249D01*
X0129330Y0253545D01*
X0129944Y0253826D01*
X0130564Y0254092D01*
X0131191Y0254342D01*
X0131824Y0254577D01*
X0132462Y0254797D01*
X0133105Y0255001D01*
X0133753Y0255189D01*
X0134406Y0255361D01*
X0135063Y0255517D01*
X0135723Y0255657D01*
X0136387Y0255780D01*
X0137053Y0255887D01*
X0137722Y0255978D01*
X0138393Y0256053D01*
X0139065Y0256110D01*
X0139739Y0256152D01*
X0140413Y0256177D01*
X0141088Y0256185D01*
X0141763Y0256177D01*
X0142437Y0256152D01*
X0143111Y0256110D01*
X0143783Y0256053D01*
X0144454Y0255978D01*
X0145123Y0255887D01*
X0145789Y0255780D01*
X0146453Y0255657D01*
X0147113Y0255517D01*
X0147770Y0255361D01*
X0148423Y0255189D01*
X0149071Y0255001D01*
X0149714Y0254797D01*
X0150352Y0254577D01*
X0150985Y0254342D01*
X0151612Y0254092D01*
X0152232Y0253826D01*
X0152846Y0253545D01*
X0153452Y0253249D01*
X0154051Y0252938D01*
X0154643Y0252612D01*
X0155226Y0252273D01*
X0155800Y0251918D01*
X0156366Y0251550D01*
X0156923Y0251169D01*
X0157470Y0250773D01*
X0158007Y0250365D01*
X0158534Y0249943D01*
X0159050Y0249508D01*
X0159556Y0249061D01*
X0160050Y0248602D01*
X0160533Y0248130D01*
X0161005Y0247647D01*
X0161464Y0247153D01*
X0161911Y0246647D01*
X0162346Y0246131D01*
X0162768Y0245604D01*
X0163176Y0245067D01*
X0163572Y0244520D01*
X0163953Y0243963D01*
X0164321Y0243397D01*
X0164676Y0242823D01*
X0165015Y0242240D01*
X0165341Y0241648D01*
X0165652Y0241049D01*
X0165948Y0240443D01*
X0166229Y0239829D01*
X0166495Y0239209D01*
X0166745Y0238582D01*
X0166980Y0237949D01*
X0167200Y0237311D01*
X0167404Y0236668D01*
X0167592Y0236020D01*
X0167764Y0235367D01*
X0167920Y0234710D01*
X0168060Y0234050D01*
X0168183Y0233386D01*
X0168290Y0232720D01*
X0168381Y0232051D01*
X0168456Y0231380D01*
X0168513Y0230708D01*
X0168555Y0230034D01*
X0168580Y0229360D01*
X0168588Y0228685D01*
X0168580Y0228010D01*
X0168555Y0227336D01*
X0168513Y0226662D01*
X0168456Y0225990D01*
X0168381Y0225319D01*
X0168290Y0224650D01*
X0168183Y0223984D01*
X0168060Y0223320D01*
X0167920Y0222660D01*
X0167764Y0222003D01*
X0167592Y0221350D01*
X0167404Y0220702D01*
X0167200Y0220059D01*
X0166980Y0219421D01*
X0166745Y0218788D01*
X0166495Y0218161D01*
X0166229Y0217541D01*
X0165948Y0216927D01*
X0165652Y0216321D01*
X0165341Y0215722D01*
X0165015Y0215130D01*
X0164676Y0214547D01*
X0164321Y0213973D01*
X0163953Y0213407D01*
X0163572Y0212850D01*
X0163176Y0212303D01*
X0162768Y0211766D01*
X0162346Y0211239D01*
X0161911Y0210723D01*
X0161464Y0210217D01*
X0161005Y0209723D01*
X0160533Y0209240D01*
X0160050Y0208768D01*
X0159556Y0208309D01*
X0159050Y0207862D01*
X0158534Y0207427D01*
X0158007Y0207005D01*
X0157470Y0206597D01*
X0156923Y0206201D01*
X0156366Y0205820D01*
X0155800Y0205452D01*
X0155226Y0205097D01*
X0154643Y0204758D01*
X0154051Y0204432D01*
X0153452Y0204121D01*
X0152846Y0203825D01*
X0152232Y0203544D01*
X0151612Y0203278D01*
X0150985Y0203028D01*
X0150352Y0202793D01*
X0149714Y0202573D01*
X0149071Y0202369D01*
X0148423Y0202181D01*
X0147770Y0202009D01*
X0147113Y0201853D01*
X0146453Y0201713D01*
X0145789Y0201590D01*
X0145123Y0201483D01*
X0144454Y0201392D01*
X0143783Y0201317D01*
X0143111Y0201260D01*
X0142437Y0201218D01*
X0141763Y0201193D01*
X0141088Y0201185D01*
X0140413Y0201193D01*
X0139739Y0201218D01*
X0139065Y0201260D01*
X0138393Y0201317D01*
X0137722Y0201392D01*
X0137053Y0201483D01*
X0136387Y0201590D01*
X0135723Y0201713D01*
X0135063Y0201853D01*
X0134406Y0202009D01*
X0133753Y0202181D01*
X0133105Y0202369D01*
X0132462Y0202573D01*
X0131824Y0202793D01*
X0131191Y0203028D01*
X0130564Y0203278D01*
X0129944Y0203544D01*
X0129330Y0203825D01*
X0128724Y0204121D01*
X0128125Y0204432D01*
X0127533Y0204758D01*
X0126950Y0205097D01*
X0126376Y0205452D01*
X0125810Y0205820D01*
X0125253Y0206201D01*
X0124706Y0206597D01*
X0124169Y0207005D01*
X0123642Y0207427D01*
X0123126Y0207862D01*
X0122620Y0208309D01*
X0122126Y0208768D01*
X0121643Y0209240D01*
X0121171Y0209723D01*
X0120712Y0210217D01*
X0120265Y0210723D01*
X0119830Y0211239D01*
X0119408Y0211766D01*
X0119000Y0212303D01*
X0118604Y0212850D01*
X0118223Y0213407D01*
X0117855Y0213973D01*
X0117500Y0214547D01*
X0117161Y0215130D01*
X0116835Y0215722D01*
X0116524Y0216321D01*
X0116228Y0216927D01*
X0115947Y0217541D01*
X0115681Y0218161D01*
X0115431Y0218788D01*
X0115196Y0219421D01*
X0114976Y0220059D01*
X0114772Y0220702D01*
X0114584Y0221350D01*
X0114412Y0222003D01*
X0114256Y0222660D01*
X0114116Y0223320D01*
X0113993Y0223984D01*
X0113886Y0224650D01*
X0113795Y0225319D01*
X0113720Y0225990D01*
X0113663Y0226662D01*
X0113621Y0227336D01*
X0113596Y0228010D01*
X0113588Y0228685D01*
X0105340Y0230435D02*
X0085340Y0230435D01*
X0085340Y0241435D02*
X0085340Y0245435D01*
X0087340Y0243435D02*
X0083340Y0243435D01*
X0085340Y0230435D02*
X0084944Y0230684D01*
X0084554Y0230943D01*
X0084170Y0231212D01*
X0083793Y0231490D01*
X0083423Y0231776D01*
X0083060Y0232072D01*
X0082705Y0232377D01*
X0082357Y0232690D01*
X0082017Y0233012D01*
X0081684Y0233342D01*
X0081360Y0233680D01*
X0081045Y0234025D01*
X0080737Y0234379D01*
X0080439Y0234739D01*
X0080149Y0235107D01*
X0079869Y0235482D01*
X0079598Y0235864D01*
X0079336Y0236252D01*
X0079084Y0236647D01*
X0078841Y0237047D01*
X0078609Y0237453D01*
X0078386Y0237865D01*
X0078173Y0238283D01*
X0077971Y0238705D01*
X0077779Y0239132D01*
X0077598Y0239564D01*
X0077427Y0240000D01*
X0077267Y0240440D01*
X0077118Y0240883D01*
X0076980Y0241331D01*
X0076852Y0241781D01*
X0076736Y0242235D01*
X0076631Y0242691D01*
X0076537Y0243150D01*
X0076454Y0243610D01*
X0076383Y0244073D01*
X0076323Y0244538D01*
X0076274Y0245003D01*
X0076237Y0245470D01*
X0076211Y0245937D01*
X0076196Y0246405D01*
X0076193Y0246874D01*
X0076202Y0247342D01*
X0076222Y0247809D01*
X0076253Y0248277D01*
X0076296Y0248743D01*
X0076350Y0249208D01*
X0076415Y0249671D01*
X0076492Y0250133D01*
X0076580Y0250593D01*
X0076679Y0251051D01*
X0076790Y0251506D01*
X0076911Y0251958D01*
X0077044Y0252407D01*
X0077187Y0252853D01*
X0077342Y0253295D01*
X0077507Y0253733D01*
X0077682Y0254167D01*
X0077869Y0254596D01*
X0078065Y0255021D01*
X0078273Y0255441D01*
X0078490Y0255856D01*
X0078717Y0256265D01*
X0078954Y0256669D01*
X0079202Y0257066D01*
X0079458Y0257458D01*
X0079725Y0257843D01*
X0080000Y0258221D01*
X0080285Y0258593D01*
X0080579Y0258958D01*
X0080881Y0259315D01*
X0081193Y0259665D01*
X0081512Y0260007D01*
X0081840Y0260341D01*
X0082176Y0260667D01*
X0082520Y0260985D01*
X0082872Y0261294D01*
X0083231Y0261594D01*
X0083597Y0261886D01*
X0083970Y0262169D01*
X0084350Y0262442D01*
X0084737Y0262706D01*
X0085130Y0262961D01*
X0085529Y0263205D01*
X0085934Y0263440D01*
X0086345Y0263665D01*
X0086761Y0263880D01*
X0087182Y0264085D01*
X0087608Y0264279D01*
X0088038Y0264463D01*
X0088473Y0264636D01*
X0088912Y0264799D01*
X0089355Y0264951D01*
X0089802Y0265092D01*
X0090252Y0265221D01*
X0090704Y0265340D01*
X0091160Y0265448D01*
X0091618Y0265545D01*
X0092079Y0265630D01*
X0092541Y0265704D01*
X0093005Y0265767D01*
X0093470Y0265818D01*
X0093937Y0265859D01*
X0094404Y0265887D01*
X0094872Y0265904D01*
X0095340Y0265910D01*
X0095808Y0265904D01*
X0096276Y0265887D01*
X0096743Y0265859D01*
X0097210Y0265818D01*
X0097675Y0265767D01*
X0098139Y0265704D01*
X0098601Y0265630D01*
X0099062Y0265545D01*
X0099520Y0265448D01*
X0099976Y0265340D01*
X0100428Y0265221D01*
X0100878Y0265092D01*
X0101325Y0264951D01*
X0101768Y0264799D01*
X0102207Y0264636D01*
X0102642Y0264463D01*
X0103072Y0264279D01*
X0103498Y0264085D01*
X0103919Y0263880D01*
X0104335Y0263665D01*
X0104746Y0263440D01*
X0105151Y0263205D01*
X0105550Y0262961D01*
X0105943Y0262706D01*
X0106330Y0262442D01*
X0106710Y0262169D01*
X0107083Y0261886D01*
X0107449Y0261594D01*
X0107808Y0261294D01*
X0108160Y0260985D01*
X0108504Y0260667D01*
X0108840Y0260341D01*
X0109168Y0260007D01*
X0109487Y0259665D01*
X0109799Y0259315D01*
X0110101Y0258958D01*
X0110395Y0258593D01*
X0110680Y0258221D01*
X0110955Y0257843D01*
X0111222Y0257458D01*
X0111478Y0257066D01*
X0111726Y0256669D01*
X0111963Y0256265D01*
X0112190Y0255856D01*
X0112407Y0255441D01*
X0112615Y0255021D01*
X0112811Y0254596D01*
X0112998Y0254167D01*
X0113173Y0253733D01*
X0113338Y0253295D01*
X0113493Y0252853D01*
X0113636Y0252407D01*
X0113769Y0251958D01*
X0113890Y0251506D01*
X0114001Y0251051D01*
X0114100Y0250593D01*
X0114188Y0250133D01*
X0114265Y0249671D01*
X0114330Y0249208D01*
X0114384Y0248743D01*
X0114427Y0248277D01*
X0114458Y0247809D01*
X0114478Y0247342D01*
X0114487Y0246874D01*
X0114484Y0246405D01*
X0114469Y0245937D01*
X0114443Y0245470D01*
X0114406Y0245003D01*
X0114357Y0244538D01*
X0114297Y0244073D01*
X0114226Y0243610D01*
X0114143Y0243150D01*
X0114049Y0242691D01*
X0113944Y0242235D01*
X0113828Y0241781D01*
X0113700Y0241331D01*
X0113562Y0240883D01*
X0113413Y0240440D01*
X0113253Y0240000D01*
X0113082Y0239564D01*
X0112901Y0239132D01*
X0112709Y0238705D01*
X0112507Y0238283D01*
X0112294Y0237865D01*
X0112071Y0237453D01*
X0111839Y0237047D01*
X0111596Y0236647D01*
X0111344Y0236252D01*
X0111082Y0235864D01*
X0110811Y0235482D01*
X0110531Y0235107D01*
X0110241Y0234739D01*
X0109943Y0234379D01*
X0109635Y0234025D01*
X0109320Y0233680D01*
X0108996Y0233342D01*
X0108663Y0233012D01*
X0108323Y0232690D01*
X0107975Y0232377D01*
X0107620Y0232072D01*
X0107257Y0231776D01*
X0106887Y0231490D01*
X0106510Y0231212D01*
X0106126Y0230943D01*
X0105736Y0230684D01*
X0105340Y0230435D01*
X0105340Y0247435D02*
X0105340Y0251435D01*
X0126998Y0274250D02*
X0164998Y0274250D01*
X0165058Y0274252D01*
X0165119Y0274257D01*
X0165178Y0274266D01*
X0165237Y0274279D01*
X0165296Y0274295D01*
X0165353Y0274315D01*
X0165408Y0274338D01*
X0165463Y0274365D01*
X0165515Y0274394D01*
X0165566Y0274427D01*
X0165615Y0274463D01*
X0165661Y0274501D01*
X0165705Y0274543D01*
X0165747Y0274587D01*
X0165785Y0274633D01*
X0165821Y0274682D01*
X0165854Y0274733D01*
X0165883Y0274785D01*
X0165910Y0274840D01*
X0165933Y0274895D01*
X0165953Y0274952D01*
X0165969Y0275011D01*
X0165982Y0275070D01*
X0165991Y0275129D01*
X0165996Y0275190D01*
X0165998Y0275250D01*
X0165998Y0289250D01*
X0165996Y0289310D01*
X0165991Y0289371D01*
X0165982Y0289430D01*
X0165969Y0289489D01*
X0165953Y0289548D01*
X0165933Y0289605D01*
X0165910Y0289660D01*
X0165883Y0289715D01*
X0165854Y0289767D01*
X0165821Y0289818D01*
X0165785Y0289867D01*
X0165747Y0289913D01*
X0165705Y0289957D01*
X0165661Y0289999D01*
X0165615Y0290037D01*
X0165566Y0290073D01*
X0165515Y0290106D01*
X0165463Y0290135D01*
X0165408Y0290162D01*
X0165353Y0290185D01*
X0165296Y0290205D01*
X0165237Y0290221D01*
X0165178Y0290234D01*
X0165119Y0290243D01*
X0165058Y0290248D01*
X0164998Y0290250D01*
X0126998Y0290250D01*
X0126938Y0290248D01*
X0126877Y0290243D01*
X0126818Y0290234D01*
X0126759Y0290221D01*
X0126700Y0290205D01*
X0126643Y0290185D01*
X0126588Y0290162D01*
X0126533Y0290135D01*
X0126481Y0290106D01*
X0126430Y0290073D01*
X0126381Y0290037D01*
X0126335Y0289999D01*
X0126291Y0289957D01*
X0126249Y0289913D01*
X0126211Y0289867D01*
X0126175Y0289818D01*
X0126142Y0289767D01*
X0126113Y0289715D01*
X0126086Y0289660D01*
X0126063Y0289605D01*
X0126043Y0289548D01*
X0126027Y0289489D01*
X0126014Y0289430D01*
X0126005Y0289371D01*
X0126000Y0289310D01*
X0125998Y0289250D01*
X0125998Y0275250D01*
X0126000Y0275190D01*
X0126005Y0275129D01*
X0126014Y0275070D01*
X0126027Y0275011D01*
X0126043Y0274952D01*
X0126063Y0274895D01*
X0126086Y0274840D01*
X0126113Y0274785D01*
X0126142Y0274733D01*
X0126175Y0274682D01*
X0126211Y0274633D01*
X0126249Y0274587D01*
X0126291Y0274543D01*
X0126335Y0274501D01*
X0126381Y0274463D01*
X0126430Y0274427D01*
X0126481Y0274394D01*
X0126533Y0274365D01*
X0126588Y0274338D01*
X0126643Y0274315D01*
X0126700Y0274295D01*
X0126759Y0274279D01*
X0126818Y0274266D01*
X0126877Y0274257D01*
X0126938Y0274252D01*
X0126998Y0274250D01*
X0132998Y0270750D02*
X0132998Y0263750D01*
X0133000Y0263690D01*
X0133005Y0263629D01*
X0133014Y0263570D01*
X0133027Y0263511D01*
X0133043Y0263452D01*
X0133063Y0263395D01*
X0133086Y0263340D01*
X0133113Y0263285D01*
X0133142Y0263233D01*
X0133175Y0263182D01*
X0133211Y0263133D01*
X0133249Y0263087D01*
X0133291Y0263043D01*
X0133335Y0263001D01*
X0133381Y0262963D01*
X0133430Y0262927D01*
X0133481Y0262894D01*
X0133533Y0262865D01*
X0133588Y0262838D01*
X0133643Y0262815D01*
X0133700Y0262795D01*
X0133759Y0262779D01*
X0133818Y0262766D01*
X0133877Y0262757D01*
X0133938Y0262752D01*
X0133998Y0262750D01*
X0135498Y0262750D01*
X0135998Y0263250D01*
X0154998Y0263250D01*
X0155498Y0262750D01*
X0156998Y0262750D01*
X0157058Y0262752D01*
X0157119Y0262757D01*
X0157178Y0262766D01*
X0157237Y0262779D01*
X0157296Y0262795D01*
X0157353Y0262815D01*
X0157408Y0262838D01*
X0157463Y0262865D01*
X0157515Y0262894D01*
X0157566Y0262927D01*
X0157615Y0262963D01*
X0157661Y0263001D01*
X0157705Y0263043D01*
X0157747Y0263087D01*
X0157785Y0263133D01*
X0157821Y0263182D01*
X0157854Y0263233D01*
X0157883Y0263285D01*
X0157910Y0263340D01*
X0157933Y0263395D01*
X0157953Y0263452D01*
X0157969Y0263511D01*
X0157982Y0263570D01*
X0157991Y0263629D01*
X0157996Y0263690D01*
X0157998Y0263750D01*
X0157998Y0270750D01*
X0157996Y0270810D01*
X0157991Y0270871D01*
X0157982Y0270930D01*
X0157969Y0270989D01*
X0157953Y0271048D01*
X0157933Y0271105D01*
X0157910Y0271160D01*
X0157883Y0271215D01*
X0157854Y0271267D01*
X0157821Y0271318D01*
X0157785Y0271367D01*
X0157747Y0271413D01*
X0157705Y0271457D01*
X0157661Y0271499D01*
X0157615Y0271537D01*
X0157566Y0271573D01*
X0157515Y0271606D01*
X0157463Y0271635D01*
X0157408Y0271662D01*
X0157353Y0271685D01*
X0157296Y0271705D01*
X0157237Y0271721D01*
X0157178Y0271734D01*
X0157119Y0271743D01*
X0157058Y0271748D01*
X0156998Y0271750D01*
X0155498Y0271750D01*
X0154998Y0271250D01*
X0135998Y0271250D01*
X0135498Y0271750D01*
X0133998Y0271750D01*
X0133938Y0271748D01*
X0133877Y0271743D01*
X0133818Y0271734D01*
X0133759Y0271721D01*
X0133700Y0271705D01*
X0133643Y0271685D01*
X0133588Y0271662D01*
X0133533Y0271635D01*
X0133481Y0271606D01*
X0133430Y0271573D01*
X0133381Y0271537D01*
X0133335Y0271499D01*
X0133291Y0271457D01*
X0133249Y0271413D01*
X0133211Y0271367D01*
X0133175Y0271318D01*
X0133142Y0271267D01*
X0133113Y0271215D01*
X0133086Y0271160D01*
X0133063Y0271105D01*
X0133043Y0271048D01*
X0133027Y0270989D01*
X0133014Y0270930D01*
X0133005Y0270871D01*
X0133000Y0270810D01*
X0132998Y0270750D01*
X0135498Y0282250D02*
X0150998Y0282250D01*
X0154498Y0282250D02*
X0156498Y0282250D01*
X0135338Y0303185D02*
X0130338Y0303185D01*
X0132838Y0300685D02*
X0132838Y0305685D01*
X0135338Y0317185D02*
X0140338Y0317185D01*
X0145338Y0317185D01*
X0145338Y0319685D01*
X0135338Y0319685D01*
X0135338Y0317185D01*
X0140338Y0317185D02*
X0140338Y0316185D01*
X0112838Y0320685D02*
X0112846Y0321360D01*
X0112871Y0322034D01*
X0112913Y0322708D01*
X0112970Y0323380D01*
X0113045Y0324051D01*
X0113136Y0324720D01*
X0113243Y0325386D01*
X0113366Y0326050D01*
X0113506Y0326710D01*
X0113662Y0327367D01*
X0113834Y0328020D01*
X0114022Y0328668D01*
X0114226Y0329311D01*
X0114446Y0329949D01*
X0114681Y0330582D01*
X0114931Y0331209D01*
X0115197Y0331829D01*
X0115478Y0332443D01*
X0115774Y0333049D01*
X0116085Y0333648D01*
X0116411Y0334240D01*
X0116750Y0334823D01*
X0117105Y0335397D01*
X0117473Y0335963D01*
X0117854Y0336520D01*
X0118250Y0337067D01*
X0118658Y0337604D01*
X0119080Y0338131D01*
X0119515Y0338647D01*
X0119962Y0339153D01*
X0120421Y0339647D01*
X0120893Y0340130D01*
X0121376Y0340602D01*
X0121870Y0341061D01*
X0122376Y0341508D01*
X0122892Y0341943D01*
X0123419Y0342365D01*
X0123956Y0342773D01*
X0124503Y0343169D01*
X0125060Y0343550D01*
X0125626Y0343918D01*
X0126200Y0344273D01*
X0126783Y0344612D01*
X0127375Y0344938D01*
X0127974Y0345249D01*
X0128580Y0345545D01*
X0129194Y0345826D01*
X0129814Y0346092D01*
X0130441Y0346342D01*
X0131074Y0346577D01*
X0131712Y0346797D01*
X0132355Y0347001D01*
X0133003Y0347189D01*
X0133656Y0347361D01*
X0134313Y0347517D01*
X0134973Y0347657D01*
X0135637Y0347780D01*
X0136303Y0347887D01*
X0136972Y0347978D01*
X0137643Y0348053D01*
X0138315Y0348110D01*
X0138989Y0348152D01*
X0139663Y0348177D01*
X0140338Y0348185D01*
X0141013Y0348177D01*
X0141687Y0348152D01*
X0142361Y0348110D01*
X0143033Y0348053D01*
X0143704Y0347978D01*
X0144373Y0347887D01*
X0145039Y0347780D01*
X0145703Y0347657D01*
X0146363Y0347517D01*
X0147020Y0347361D01*
X0147673Y0347189D01*
X0148321Y0347001D01*
X0148964Y0346797D01*
X0149602Y0346577D01*
X0150235Y0346342D01*
X0150862Y0346092D01*
X0151482Y0345826D01*
X0152096Y0345545D01*
X0152702Y0345249D01*
X0153301Y0344938D01*
X0153893Y0344612D01*
X0154476Y0344273D01*
X0155050Y0343918D01*
X0155616Y0343550D01*
X0156173Y0343169D01*
X0156720Y0342773D01*
X0157257Y0342365D01*
X0157784Y0341943D01*
X0158300Y0341508D01*
X0158806Y0341061D01*
X0159300Y0340602D01*
X0159783Y0340130D01*
X0160255Y0339647D01*
X0160714Y0339153D01*
X0161161Y0338647D01*
X0161596Y0338131D01*
X0162018Y0337604D01*
X0162426Y0337067D01*
X0162822Y0336520D01*
X0163203Y0335963D01*
X0163571Y0335397D01*
X0163926Y0334823D01*
X0164265Y0334240D01*
X0164591Y0333648D01*
X0164902Y0333049D01*
X0165198Y0332443D01*
X0165479Y0331829D01*
X0165745Y0331209D01*
X0165995Y0330582D01*
X0166230Y0329949D01*
X0166450Y0329311D01*
X0166654Y0328668D01*
X0166842Y0328020D01*
X0167014Y0327367D01*
X0167170Y0326710D01*
X0167310Y0326050D01*
X0167433Y0325386D01*
X0167540Y0324720D01*
X0167631Y0324051D01*
X0167706Y0323380D01*
X0167763Y0322708D01*
X0167805Y0322034D01*
X0167830Y0321360D01*
X0167838Y0320685D01*
X0167830Y0320010D01*
X0167805Y0319336D01*
X0167763Y0318662D01*
X0167706Y0317990D01*
X0167631Y0317319D01*
X0167540Y0316650D01*
X0167433Y0315984D01*
X0167310Y0315320D01*
X0167170Y0314660D01*
X0167014Y0314003D01*
X0166842Y0313350D01*
X0166654Y0312702D01*
X0166450Y0312059D01*
X0166230Y0311421D01*
X0165995Y0310788D01*
X0165745Y0310161D01*
X0165479Y0309541D01*
X0165198Y0308927D01*
X0164902Y0308321D01*
X0164591Y0307722D01*
X0164265Y0307130D01*
X0163926Y0306547D01*
X0163571Y0305973D01*
X0163203Y0305407D01*
X0162822Y0304850D01*
X0162426Y0304303D01*
X0162018Y0303766D01*
X0161596Y0303239D01*
X0161161Y0302723D01*
X0160714Y0302217D01*
X0160255Y0301723D01*
X0159783Y0301240D01*
X0159300Y0300768D01*
X0158806Y0300309D01*
X0158300Y0299862D01*
X0157784Y0299427D01*
X0157257Y0299005D01*
X0156720Y0298597D01*
X0156173Y0298201D01*
X0155616Y0297820D01*
X0155050Y0297452D01*
X0154476Y0297097D01*
X0153893Y0296758D01*
X0153301Y0296432D01*
X0152702Y0296121D01*
X0152096Y0295825D01*
X0151482Y0295544D01*
X0150862Y0295278D01*
X0150235Y0295028D01*
X0149602Y0294793D01*
X0148964Y0294573D01*
X0148321Y0294369D01*
X0147673Y0294181D01*
X0147020Y0294009D01*
X0146363Y0293853D01*
X0145703Y0293713D01*
X0145039Y0293590D01*
X0144373Y0293483D01*
X0143704Y0293392D01*
X0143033Y0293317D01*
X0142361Y0293260D01*
X0141687Y0293218D01*
X0141013Y0293193D01*
X0140338Y0293185D01*
X0139663Y0293193D01*
X0138989Y0293218D01*
X0138315Y0293260D01*
X0137643Y0293317D01*
X0136972Y0293392D01*
X0136303Y0293483D01*
X0135637Y0293590D01*
X0134973Y0293713D01*
X0134313Y0293853D01*
X0133656Y0294009D01*
X0133003Y0294181D01*
X0132355Y0294369D01*
X0131712Y0294573D01*
X0131074Y0294793D01*
X0130441Y0295028D01*
X0129814Y0295278D01*
X0129194Y0295544D01*
X0128580Y0295825D01*
X0127974Y0296121D01*
X0127375Y0296432D01*
X0126783Y0296758D01*
X0126200Y0297097D01*
X0125626Y0297452D01*
X0125060Y0297820D01*
X0124503Y0298201D01*
X0123956Y0298597D01*
X0123419Y0299005D01*
X0122892Y0299427D01*
X0122376Y0299862D01*
X0121870Y0300309D01*
X0121376Y0300768D01*
X0120893Y0301240D01*
X0120421Y0301723D01*
X0119962Y0302217D01*
X0119515Y0302723D01*
X0119080Y0303239D01*
X0118658Y0303766D01*
X0118250Y0304303D01*
X0117854Y0304850D01*
X0117473Y0305407D01*
X0117105Y0305973D01*
X0116750Y0306547D01*
X0116411Y0307130D01*
X0116085Y0307722D01*
X0115774Y0308321D01*
X0115478Y0308927D01*
X0115197Y0309541D01*
X0114931Y0310161D01*
X0114681Y0310788D01*
X0114446Y0311421D01*
X0114226Y0312059D01*
X0114022Y0312702D01*
X0113834Y0313350D01*
X0113662Y0314003D01*
X0113506Y0314660D01*
X0113366Y0315320D01*
X0113243Y0315984D01*
X0113136Y0316650D01*
X0113045Y0317319D01*
X0112970Y0317990D01*
X0112913Y0318662D01*
X0112871Y0319336D01*
X0112846Y0320010D01*
X0112838Y0320685D01*
X0105340Y0320435D02*
X0085340Y0320435D01*
X0085340Y0331435D02*
X0085340Y0335435D01*
X0087340Y0333435D02*
X0083340Y0333435D01*
X0085340Y0320435D02*
X0084944Y0320684D01*
X0084554Y0320943D01*
X0084170Y0321212D01*
X0083793Y0321490D01*
X0083423Y0321776D01*
X0083060Y0322072D01*
X0082705Y0322377D01*
X0082357Y0322690D01*
X0082017Y0323012D01*
X0081684Y0323342D01*
X0081360Y0323680D01*
X0081045Y0324025D01*
X0080737Y0324379D01*
X0080439Y0324739D01*
X0080149Y0325107D01*
X0079869Y0325482D01*
X0079598Y0325864D01*
X0079336Y0326252D01*
X0079084Y0326647D01*
X0078841Y0327047D01*
X0078609Y0327453D01*
X0078386Y0327865D01*
X0078173Y0328283D01*
X0077971Y0328705D01*
X0077779Y0329132D01*
X0077598Y0329564D01*
X0077427Y0330000D01*
X0077267Y0330440D01*
X0077118Y0330883D01*
X0076980Y0331331D01*
X0076852Y0331781D01*
X0076736Y0332235D01*
X0076631Y0332691D01*
X0076537Y0333150D01*
X0076454Y0333610D01*
X0076383Y0334073D01*
X0076323Y0334538D01*
X0076274Y0335003D01*
X0076237Y0335470D01*
X0076211Y0335937D01*
X0076196Y0336405D01*
X0076193Y0336874D01*
X0076202Y0337342D01*
X0076222Y0337809D01*
X0076253Y0338277D01*
X0076296Y0338743D01*
X0076350Y0339208D01*
X0076415Y0339671D01*
X0076492Y0340133D01*
X0076580Y0340593D01*
X0076679Y0341051D01*
X0076790Y0341506D01*
X0076911Y0341958D01*
X0077044Y0342407D01*
X0077187Y0342853D01*
X0077342Y0343295D01*
X0077507Y0343733D01*
X0077682Y0344167D01*
X0077869Y0344596D01*
X0078065Y0345021D01*
X0078273Y0345441D01*
X0078490Y0345856D01*
X0078717Y0346265D01*
X0078954Y0346669D01*
X0079202Y0347066D01*
X0079458Y0347458D01*
X0079725Y0347843D01*
X0080000Y0348221D01*
X0080285Y0348593D01*
X0080579Y0348958D01*
X0080881Y0349315D01*
X0081193Y0349665D01*
X0081512Y0350007D01*
X0081840Y0350341D01*
X0082176Y0350667D01*
X0082520Y0350985D01*
X0082872Y0351294D01*
X0083231Y0351594D01*
X0083597Y0351886D01*
X0083970Y0352169D01*
X0084350Y0352442D01*
X0084737Y0352706D01*
X0085130Y0352961D01*
X0085529Y0353205D01*
X0085934Y0353440D01*
X0086345Y0353665D01*
X0086761Y0353880D01*
X0087182Y0354085D01*
X0087608Y0354279D01*
X0088038Y0354463D01*
X0088473Y0354636D01*
X0088912Y0354799D01*
X0089355Y0354951D01*
X0089802Y0355092D01*
X0090252Y0355221D01*
X0090704Y0355340D01*
X0091160Y0355448D01*
X0091618Y0355545D01*
X0092079Y0355630D01*
X0092541Y0355704D01*
X0093005Y0355767D01*
X0093470Y0355818D01*
X0093937Y0355859D01*
X0094404Y0355887D01*
X0094872Y0355904D01*
X0095340Y0355910D01*
X0095808Y0355904D01*
X0096276Y0355887D01*
X0096743Y0355859D01*
X0097210Y0355818D01*
X0097675Y0355767D01*
X0098139Y0355704D01*
X0098601Y0355630D01*
X0099062Y0355545D01*
X0099520Y0355448D01*
X0099976Y0355340D01*
X0100428Y0355221D01*
X0100878Y0355092D01*
X0101325Y0354951D01*
X0101768Y0354799D01*
X0102207Y0354636D01*
X0102642Y0354463D01*
X0103072Y0354279D01*
X0103498Y0354085D01*
X0103919Y0353880D01*
X0104335Y0353665D01*
X0104746Y0353440D01*
X0105151Y0353205D01*
X0105550Y0352961D01*
X0105943Y0352706D01*
X0106330Y0352442D01*
X0106710Y0352169D01*
X0107083Y0351886D01*
X0107449Y0351594D01*
X0107808Y0351294D01*
X0108160Y0350985D01*
X0108504Y0350667D01*
X0108840Y0350341D01*
X0109168Y0350007D01*
X0109487Y0349665D01*
X0109799Y0349315D01*
X0110101Y0348958D01*
X0110395Y0348593D01*
X0110680Y0348221D01*
X0110955Y0347843D01*
X0111222Y0347458D01*
X0111478Y0347066D01*
X0111726Y0346669D01*
X0111963Y0346265D01*
X0112190Y0345856D01*
X0112407Y0345441D01*
X0112615Y0345021D01*
X0112811Y0344596D01*
X0112998Y0344167D01*
X0113173Y0343733D01*
X0113338Y0343295D01*
X0113493Y0342853D01*
X0113636Y0342407D01*
X0113769Y0341958D01*
X0113890Y0341506D01*
X0114001Y0341051D01*
X0114100Y0340593D01*
X0114188Y0340133D01*
X0114265Y0339671D01*
X0114330Y0339208D01*
X0114384Y0338743D01*
X0114427Y0338277D01*
X0114458Y0337809D01*
X0114478Y0337342D01*
X0114487Y0336874D01*
X0114484Y0336405D01*
X0114469Y0335937D01*
X0114443Y0335470D01*
X0114406Y0335003D01*
X0114357Y0334538D01*
X0114297Y0334073D01*
X0114226Y0333610D01*
X0114143Y0333150D01*
X0114049Y0332691D01*
X0113944Y0332235D01*
X0113828Y0331781D01*
X0113700Y0331331D01*
X0113562Y0330883D01*
X0113413Y0330440D01*
X0113253Y0330000D01*
X0113082Y0329564D01*
X0112901Y0329132D01*
X0112709Y0328705D01*
X0112507Y0328283D01*
X0112294Y0327865D01*
X0112071Y0327453D01*
X0111839Y0327047D01*
X0111596Y0326647D01*
X0111344Y0326252D01*
X0111082Y0325864D01*
X0110811Y0325482D01*
X0110531Y0325107D01*
X0110241Y0324739D01*
X0109943Y0324379D01*
X0109635Y0324025D01*
X0109320Y0323680D01*
X0108996Y0323342D01*
X0108663Y0323012D01*
X0108323Y0322690D01*
X0107975Y0322377D01*
X0107620Y0322072D01*
X0107257Y0321776D01*
X0106887Y0321490D01*
X0106510Y0321212D01*
X0106126Y0320943D01*
X0105736Y0320684D01*
X0105340Y0320435D01*
X0105340Y0337435D02*
X0105340Y0341435D01*
X0140338Y0325185D02*
X0140338Y0323185D01*
X0178713Y0320640D02*
X0178713Y0317740D01*
X0181613Y0317740D01*
X0193813Y0315240D02*
X0193813Y0311340D01*
X0196013Y0317740D02*
X0198913Y0317740D01*
X0198913Y0320640D01*
X0196913Y0320640D02*
X0196013Y0319740D01*
X0198913Y0335040D02*
X0198913Y0337940D01*
X0196013Y0337940D01*
X0183613Y0340440D02*
X0183613Y0344440D01*
X0181613Y0337940D02*
X0178713Y0337940D01*
X0178713Y0335040D01*
X0230838Y0303685D02*
X0233838Y0303685D01*
X0232338Y0302185D02*
X0232338Y0305185D01*
X0220838Y0315685D02*
X0220843Y0316078D01*
X0220857Y0316470D01*
X0220881Y0316862D01*
X0220915Y0317253D01*
X0220958Y0317644D01*
X0221011Y0318033D01*
X0221074Y0318420D01*
X0221145Y0318806D01*
X0221227Y0319191D01*
X0221317Y0319573D01*
X0221418Y0319952D01*
X0221527Y0320330D01*
X0221646Y0320704D01*
X0221773Y0321075D01*
X0221910Y0321443D01*
X0222056Y0321808D01*
X0222211Y0322169D01*
X0222374Y0322526D01*
X0222546Y0322879D01*
X0222727Y0323227D01*
X0222917Y0323571D01*
X0223114Y0323911D01*
X0223320Y0324245D01*
X0223534Y0324574D01*
X0223757Y0324898D01*
X0223987Y0325216D01*
X0224224Y0325529D01*
X0224470Y0325835D01*
X0224723Y0326136D01*
X0224983Y0326430D01*
X0225250Y0326718D01*
X0225524Y0326999D01*
X0225805Y0327273D01*
X0226093Y0327540D01*
X0226387Y0327800D01*
X0226688Y0328053D01*
X0226994Y0328299D01*
X0227307Y0328536D01*
X0227625Y0328766D01*
X0227949Y0328989D01*
X0228278Y0329203D01*
X0228612Y0329409D01*
X0228952Y0329606D01*
X0229296Y0329796D01*
X0229644Y0329977D01*
X0229997Y0330149D01*
X0230354Y0330312D01*
X0230715Y0330467D01*
X0231080Y0330613D01*
X0231448Y0330750D01*
X0231819Y0330877D01*
X0232193Y0330996D01*
X0232571Y0331105D01*
X0232950Y0331206D01*
X0233332Y0331296D01*
X0233717Y0331378D01*
X0234103Y0331449D01*
X0234490Y0331512D01*
X0234879Y0331565D01*
X0235270Y0331608D01*
X0235661Y0331642D01*
X0236053Y0331666D01*
X0236445Y0331680D01*
X0236838Y0331685D01*
X0237231Y0331680D01*
X0237623Y0331666D01*
X0238015Y0331642D01*
X0238406Y0331608D01*
X0238797Y0331565D01*
X0239186Y0331512D01*
X0239573Y0331449D01*
X0239959Y0331378D01*
X0240344Y0331296D01*
X0240726Y0331206D01*
X0241105Y0331105D01*
X0241483Y0330996D01*
X0241857Y0330877D01*
X0242228Y0330750D01*
X0242596Y0330613D01*
X0242961Y0330467D01*
X0243322Y0330312D01*
X0243679Y0330149D01*
X0244032Y0329977D01*
X0244380Y0329796D01*
X0244724Y0329606D01*
X0245064Y0329409D01*
X0245398Y0329203D01*
X0245727Y0328989D01*
X0246051Y0328766D01*
X0246369Y0328536D01*
X0246682Y0328299D01*
X0246988Y0328053D01*
X0247289Y0327800D01*
X0247583Y0327540D01*
X0247871Y0327273D01*
X0248152Y0326999D01*
X0248426Y0326718D01*
X0248693Y0326430D01*
X0248953Y0326136D01*
X0249206Y0325835D01*
X0249452Y0325529D01*
X0249689Y0325216D01*
X0249919Y0324898D01*
X0250142Y0324574D01*
X0250356Y0324245D01*
X0250562Y0323911D01*
X0250759Y0323571D01*
X0250949Y0323227D01*
X0251130Y0322879D01*
X0251302Y0322526D01*
X0251465Y0322169D01*
X0251620Y0321808D01*
X0251766Y0321443D01*
X0251903Y0321075D01*
X0252030Y0320704D01*
X0252149Y0320330D01*
X0252258Y0319952D01*
X0252359Y0319573D01*
X0252449Y0319191D01*
X0252531Y0318806D01*
X0252602Y0318420D01*
X0252665Y0318033D01*
X0252718Y0317644D01*
X0252761Y0317253D01*
X0252795Y0316862D01*
X0252819Y0316470D01*
X0252833Y0316078D01*
X0252838Y0315685D01*
X0252833Y0315292D01*
X0252819Y0314900D01*
X0252795Y0314508D01*
X0252761Y0314117D01*
X0252718Y0313726D01*
X0252665Y0313337D01*
X0252602Y0312950D01*
X0252531Y0312564D01*
X0252449Y0312179D01*
X0252359Y0311797D01*
X0252258Y0311418D01*
X0252149Y0311040D01*
X0252030Y0310666D01*
X0251903Y0310295D01*
X0251766Y0309927D01*
X0251620Y0309562D01*
X0251465Y0309201D01*
X0251302Y0308844D01*
X0251130Y0308491D01*
X0250949Y0308143D01*
X0250759Y0307799D01*
X0250562Y0307459D01*
X0250356Y0307125D01*
X0250142Y0306796D01*
X0249919Y0306472D01*
X0249689Y0306154D01*
X0249452Y0305841D01*
X0249206Y0305535D01*
X0248953Y0305234D01*
X0248693Y0304940D01*
X0248426Y0304652D01*
X0248152Y0304371D01*
X0247871Y0304097D01*
X0247583Y0303830D01*
X0247289Y0303570D01*
X0246988Y0303317D01*
X0246682Y0303071D01*
X0246369Y0302834D01*
X0246051Y0302604D01*
X0245727Y0302381D01*
X0245398Y0302167D01*
X0245064Y0301961D01*
X0244724Y0301764D01*
X0244380Y0301574D01*
X0244032Y0301393D01*
X0243679Y0301221D01*
X0243322Y0301058D01*
X0242961Y0300903D01*
X0242596Y0300757D01*
X0242228Y0300620D01*
X0241857Y0300493D01*
X0241483Y0300374D01*
X0241105Y0300265D01*
X0240726Y0300164D01*
X0240344Y0300074D01*
X0239959Y0299992D01*
X0239573Y0299921D01*
X0239186Y0299858D01*
X0238797Y0299805D01*
X0238406Y0299762D01*
X0238015Y0299728D01*
X0237623Y0299704D01*
X0237231Y0299690D01*
X0236838Y0299685D01*
X0236445Y0299690D01*
X0236053Y0299704D01*
X0235661Y0299728D01*
X0235270Y0299762D01*
X0234879Y0299805D01*
X0234490Y0299858D01*
X0234103Y0299921D01*
X0233717Y0299992D01*
X0233332Y0300074D01*
X0232950Y0300164D01*
X0232571Y0300265D01*
X0232193Y0300374D01*
X0231819Y0300493D01*
X0231448Y0300620D01*
X0231080Y0300757D01*
X0230715Y0300903D01*
X0230354Y0301058D01*
X0229997Y0301221D01*
X0229644Y0301393D01*
X0229296Y0301574D01*
X0228952Y0301764D01*
X0228612Y0301961D01*
X0228278Y0302167D01*
X0227949Y0302381D01*
X0227625Y0302604D01*
X0227307Y0302834D01*
X0226994Y0303071D01*
X0226688Y0303317D01*
X0226387Y0303570D01*
X0226093Y0303830D01*
X0225805Y0304097D01*
X0225524Y0304371D01*
X0225250Y0304652D01*
X0224983Y0304940D01*
X0224723Y0305234D01*
X0224470Y0305535D01*
X0224224Y0305841D01*
X0223987Y0306154D01*
X0223757Y0306472D01*
X0223534Y0306796D01*
X0223320Y0307125D01*
X0223114Y0307459D01*
X0222917Y0307799D01*
X0222727Y0308143D01*
X0222546Y0308491D01*
X0222374Y0308844D01*
X0222211Y0309201D01*
X0222056Y0309562D01*
X0221910Y0309927D01*
X0221773Y0310295D01*
X0221646Y0310666D01*
X0221527Y0311040D01*
X0221418Y0311418D01*
X0221317Y0311797D01*
X0221227Y0312179D01*
X0221145Y0312564D01*
X0221074Y0312950D01*
X0221011Y0313337D01*
X0220958Y0313726D01*
X0220915Y0314117D01*
X0220881Y0314508D01*
X0220857Y0314900D01*
X0220843Y0315292D01*
X0220838Y0315685D01*
X0241536Y0335089D02*
X0241536Y0339359D01*
X0241536Y0335089D02*
X0243671Y0332954D01*
X0245807Y0335089D01*
X0245807Y0339359D01*
X0247982Y0336156D02*
X0252252Y0336156D01*
X0252394Y0277705D02*
X0249191Y0277705D01*
X0249191Y0271300D01*
X0252394Y0271300D01*
X0253461Y0272368D01*
X0253461Y0276638D01*
X0252394Y0277705D01*
X0247016Y0277705D02*
X0247016Y0271300D01*
X0242745Y0277705D01*
X0242745Y0271300D01*
X0240570Y0272368D02*
X0240570Y0274503D01*
X0238435Y0274503D01*
X0236300Y0276638D02*
X0236300Y0272368D01*
X0237368Y0271300D01*
X0239503Y0271300D01*
X0240570Y0272368D01*
X0240570Y0276638D02*
X0239503Y0277705D01*
X0237368Y0277705D01*
X0236300Y0276638D01*
X0220588Y0238435D02*
X0220593Y0238828D01*
X0220607Y0239220D01*
X0220631Y0239612D01*
X0220665Y0240003D01*
X0220708Y0240394D01*
X0220761Y0240783D01*
X0220824Y0241170D01*
X0220895Y0241556D01*
X0220977Y0241941D01*
X0221067Y0242323D01*
X0221168Y0242702D01*
X0221277Y0243080D01*
X0221396Y0243454D01*
X0221523Y0243825D01*
X0221660Y0244193D01*
X0221806Y0244558D01*
X0221961Y0244919D01*
X0222124Y0245276D01*
X0222296Y0245629D01*
X0222477Y0245977D01*
X0222667Y0246321D01*
X0222864Y0246661D01*
X0223070Y0246995D01*
X0223284Y0247324D01*
X0223507Y0247648D01*
X0223737Y0247966D01*
X0223974Y0248279D01*
X0224220Y0248585D01*
X0224473Y0248886D01*
X0224733Y0249180D01*
X0225000Y0249468D01*
X0225274Y0249749D01*
X0225555Y0250023D01*
X0225843Y0250290D01*
X0226137Y0250550D01*
X0226438Y0250803D01*
X0226744Y0251049D01*
X0227057Y0251286D01*
X0227375Y0251516D01*
X0227699Y0251739D01*
X0228028Y0251953D01*
X0228362Y0252159D01*
X0228702Y0252356D01*
X0229046Y0252546D01*
X0229394Y0252727D01*
X0229747Y0252899D01*
X0230104Y0253062D01*
X0230465Y0253217D01*
X0230830Y0253363D01*
X0231198Y0253500D01*
X0231569Y0253627D01*
X0231943Y0253746D01*
X0232321Y0253855D01*
X0232700Y0253956D01*
X0233082Y0254046D01*
X0233467Y0254128D01*
X0233853Y0254199D01*
X0234240Y0254262D01*
X0234629Y0254315D01*
X0235020Y0254358D01*
X0235411Y0254392D01*
X0235803Y0254416D01*
X0236195Y0254430D01*
X0236588Y0254435D01*
X0236981Y0254430D01*
X0237373Y0254416D01*
X0237765Y0254392D01*
X0238156Y0254358D01*
X0238547Y0254315D01*
X0238936Y0254262D01*
X0239323Y0254199D01*
X0239709Y0254128D01*
X0240094Y0254046D01*
X0240476Y0253956D01*
X0240855Y0253855D01*
X0241233Y0253746D01*
X0241607Y0253627D01*
X0241978Y0253500D01*
X0242346Y0253363D01*
X0242711Y0253217D01*
X0243072Y0253062D01*
X0243429Y0252899D01*
X0243782Y0252727D01*
X0244130Y0252546D01*
X0244474Y0252356D01*
X0244814Y0252159D01*
X0245148Y0251953D01*
X0245477Y0251739D01*
X0245801Y0251516D01*
X0246119Y0251286D01*
X0246432Y0251049D01*
X0246738Y0250803D01*
X0247039Y0250550D01*
X0247333Y0250290D01*
X0247621Y0250023D01*
X0247902Y0249749D01*
X0248176Y0249468D01*
X0248443Y0249180D01*
X0248703Y0248886D01*
X0248956Y0248585D01*
X0249202Y0248279D01*
X0249439Y0247966D01*
X0249669Y0247648D01*
X0249892Y0247324D01*
X0250106Y0246995D01*
X0250312Y0246661D01*
X0250509Y0246321D01*
X0250699Y0245977D01*
X0250880Y0245629D01*
X0251052Y0245276D01*
X0251215Y0244919D01*
X0251370Y0244558D01*
X0251516Y0244193D01*
X0251653Y0243825D01*
X0251780Y0243454D01*
X0251899Y0243080D01*
X0252008Y0242702D01*
X0252109Y0242323D01*
X0252199Y0241941D01*
X0252281Y0241556D01*
X0252352Y0241170D01*
X0252415Y0240783D01*
X0252468Y0240394D01*
X0252511Y0240003D01*
X0252545Y0239612D01*
X0252569Y0239220D01*
X0252583Y0238828D01*
X0252588Y0238435D01*
X0252583Y0238042D01*
X0252569Y0237650D01*
X0252545Y0237258D01*
X0252511Y0236867D01*
X0252468Y0236476D01*
X0252415Y0236087D01*
X0252352Y0235700D01*
X0252281Y0235314D01*
X0252199Y0234929D01*
X0252109Y0234547D01*
X0252008Y0234168D01*
X0251899Y0233790D01*
X0251780Y0233416D01*
X0251653Y0233045D01*
X0251516Y0232677D01*
X0251370Y0232312D01*
X0251215Y0231951D01*
X0251052Y0231594D01*
X0250880Y0231241D01*
X0250699Y0230893D01*
X0250509Y0230549D01*
X0250312Y0230209D01*
X0250106Y0229875D01*
X0249892Y0229546D01*
X0249669Y0229222D01*
X0249439Y0228904D01*
X0249202Y0228591D01*
X0248956Y0228285D01*
X0248703Y0227984D01*
X0248443Y0227690D01*
X0248176Y0227402D01*
X0247902Y0227121D01*
X0247621Y0226847D01*
X0247333Y0226580D01*
X0247039Y0226320D01*
X0246738Y0226067D01*
X0246432Y0225821D01*
X0246119Y0225584D01*
X0245801Y0225354D01*
X0245477Y0225131D01*
X0245148Y0224917D01*
X0244814Y0224711D01*
X0244474Y0224514D01*
X0244130Y0224324D01*
X0243782Y0224143D01*
X0243429Y0223971D01*
X0243072Y0223808D01*
X0242711Y0223653D01*
X0242346Y0223507D01*
X0241978Y0223370D01*
X0241607Y0223243D01*
X0241233Y0223124D01*
X0240855Y0223015D01*
X0240476Y0222914D01*
X0240094Y0222824D01*
X0239709Y0222742D01*
X0239323Y0222671D01*
X0238936Y0222608D01*
X0238547Y0222555D01*
X0238156Y0222512D01*
X0237765Y0222478D01*
X0237373Y0222454D01*
X0236981Y0222440D01*
X0236588Y0222435D01*
X0236195Y0222440D01*
X0235803Y0222454D01*
X0235411Y0222478D01*
X0235020Y0222512D01*
X0234629Y0222555D01*
X0234240Y0222608D01*
X0233853Y0222671D01*
X0233467Y0222742D01*
X0233082Y0222824D01*
X0232700Y0222914D01*
X0232321Y0223015D01*
X0231943Y0223124D01*
X0231569Y0223243D01*
X0231198Y0223370D01*
X0230830Y0223507D01*
X0230465Y0223653D01*
X0230104Y0223808D01*
X0229747Y0223971D01*
X0229394Y0224143D01*
X0229046Y0224324D01*
X0228702Y0224514D01*
X0228362Y0224711D01*
X0228028Y0224917D01*
X0227699Y0225131D01*
X0227375Y0225354D01*
X0227057Y0225584D01*
X0226744Y0225821D01*
X0226438Y0226067D01*
X0226137Y0226320D01*
X0225843Y0226580D01*
X0225555Y0226847D01*
X0225274Y0227121D01*
X0225000Y0227402D01*
X0224733Y0227690D01*
X0224473Y0227984D01*
X0224220Y0228285D01*
X0223974Y0228591D01*
X0223737Y0228904D01*
X0223507Y0229222D01*
X0223284Y0229546D01*
X0223070Y0229875D01*
X0222864Y0230209D01*
X0222667Y0230549D01*
X0222477Y0230893D01*
X0222296Y0231241D01*
X0222124Y0231594D01*
X0221961Y0231951D01*
X0221806Y0232312D01*
X0221660Y0232677D01*
X0221523Y0233045D01*
X0221396Y0233416D01*
X0221277Y0233790D01*
X0221168Y0234168D01*
X0221067Y0234547D01*
X0220977Y0234929D01*
X0220895Y0235314D01*
X0220824Y0235700D01*
X0220761Y0236087D01*
X0220708Y0236476D01*
X0220665Y0236867D01*
X0220631Y0237258D01*
X0220607Y0237650D01*
X0220593Y0238042D01*
X0220588Y0238435D01*
X0230588Y0226435D02*
X0233588Y0226435D01*
X0232088Y0224935D02*
X0232088Y0227935D01*
X0246300Y0227705D02*
X0246300Y0223435D01*
X0248435Y0221300D01*
X0250570Y0223435D01*
X0250570Y0227705D01*
X0252745Y0224503D02*
X0257016Y0224503D01*
X0254881Y0226638D02*
X0254881Y0222368D01*
X0198913Y0227740D02*
X0198913Y0230640D01*
X0196913Y0230640D02*
X0196013Y0229740D01*
X0196013Y0227740D02*
X0198913Y0227740D01*
X0193813Y0225240D02*
X0193813Y0221340D01*
X0181613Y0227740D02*
X0178713Y0227740D01*
X0178713Y0230640D01*
X0178713Y0245040D02*
X0178713Y0247940D01*
X0181613Y0247940D01*
X0183613Y0250440D02*
X0183613Y0254440D01*
X0196013Y0247940D02*
X0198913Y0247940D01*
X0198913Y0245040D01*
X0141088Y0233185D02*
X0141088Y0231185D01*
D54*
X0118727Y0228685D02*
X0118734Y0229234D01*
X0118754Y0229782D01*
X0118788Y0230330D01*
X0118835Y0230877D01*
X0118895Y0231422D01*
X0118969Y0231966D01*
X0119056Y0232508D01*
X0119157Y0233047D01*
X0119270Y0233584D01*
X0119397Y0234118D01*
X0119537Y0234649D01*
X0119690Y0235176D01*
X0119856Y0235699D01*
X0120034Y0236218D01*
X0120225Y0236733D01*
X0120429Y0237242D01*
X0120645Y0237747D01*
X0120874Y0238246D01*
X0121115Y0238739D01*
X0121367Y0239226D01*
X0121632Y0239707D01*
X0121908Y0240181D01*
X0122196Y0240648D01*
X0122496Y0241108D01*
X0122806Y0241561D01*
X0123127Y0242005D01*
X0123460Y0242442D01*
X0123803Y0242871D01*
X0124156Y0243291D01*
X0124520Y0243702D01*
X0124893Y0244104D01*
X0125276Y0244497D01*
X0125669Y0244880D01*
X0126071Y0245253D01*
X0126482Y0245617D01*
X0126902Y0245970D01*
X0127331Y0246313D01*
X0127768Y0246646D01*
X0128212Y0246967D01*
X0128665Y0247277D01*
X0129125Y0247577D01*
X0129592Y0247865D01*
X0130066Y0248141D01*
X0130547Y0248406D01*
X0131034Y0248658D01*
X0131527Y0248899D01*
X0132026Y0249128D01*
X0132531Y0249344D01*
X0133040Y0249548D01*
X0133555Y0249739D01*
X0134074Y0249917D01*
X0134597Y0250083D01*
X0135124Y0250236D01*
X0135655Y0250376D01*
X0136189Y0250503D01*
X0136726Y0250616D01*
X0137265Y0250717D01*
X0137807Y0250804D01*
X0138351Y0250878D01*
X0138896Y0250938D01*
X0139443Y0250985D01*
X0139991Y0251019D01*
X0140539Y0251039D01*
X0141088Y0251046D01*
X0141637Y0251039D01*
X0142185Y0251019D01*
X0142733Y0250985D01*
X0143280Y0250938D01*
X0143825Y0250878D01*
X0144369Y0250804D01*
X0144911Y0250717D01*
X0145450Y0250616D01*
X0145987Y0250503D01*
X0146521Y0250376D01*
X0147052Y0250236D01*
X0147579Y0250083D01*
X0148102Y0249917D01*
X0148621Y0249739D01*
X0149136Y0249548D01*
X0149645Y0249344D01*
X0150150Y0249128D01*
X0150649Y0248899D01*
X0151142Y0248658D01*
X0151629Y0248406D01*
X0152110Y0248141D01*
X0152584Y0247865D01*
X0153051Y0247577D01*
X0153511Y0247277D01*
X0153964Y0246967D01*
X0154408Y0246646D01*
X0154845Y0246313D01*
X0155274Y0245970D01*
X0155694Y0245617D01*
X0156105Y0245253D01*
X0156507Y0244880D01*
X0156900Y0244497D01*
X0157283Y0244104D01*
X0157656Y0243702D01*
X0158020Y0243291D01*
X0158373Y0242871D01*
X0158716Y0242442D01*
X0159049Y0242005D01*
X0159370Y0241561D01*
X0159680Y0241108D01*
X0159980Y0240648D01*
X0160268Y0240181D01*
X0160544Y0239707D01*
X0160809Y0239226D01*
X0161061Y0238739D01*
X0161302Y0238246D01*
X0161531Y0237747D01*
X0161747Y0237242D01*
X0161951Y0236733D01*
X0162142Y0236218D01*
X0162320Y0235699D01*
X0162486Y0235176D01*
X0162639Y0234649D01*
X0162779Y0234118D01*
X0162906Y0233584D01*
X0163019Y0233047D01*
X0163120Y0232508D01*
X0163207Y0231966D01*
X0163281Y0231422D01*
X0163341Y0230877D01*
X0163388Y0230330D01*
X0163422Y0229782D01*
X0163442Y0229234D01*
X0163449Y0228685D01*
X0163442Y0228136D01*
X0163422Y0227588D01*
X0163388Y0227040D01*
X0163341Y0226493D01*
X0163281Y0225948D01*
X0163207Y0225404D01*
X0163120Y0224862D01*
X0163019Y0224323D01*
X0162906Y0223786D01*
X0162779Y0223252D01*
X0162639Y0222721D01*
X0162486Y0222194D01*
X0162320Y0221671D01*
X0162142Y0221152D01*
X0161951Y0220637D01*
X0161747Y0220128D01*
X0161531Y0219623D01*
X0161302Y0219124D01*
X0161061Y0218631D01*
X0160809Y0218144D01*
X0160544Y0217663D01*
X0160268Y0217189D01*
X0159980Y0216722D01*
X0159680Y0216262D01*
X0159370Y0215809D01*
X0159049Y0215365D01*
X0158716Y0214928D01*
X0158373Y0214499D01*
X0158020Y0214079D01*
X0157656Y0213668D01*
X0157283Y0213266D01*
X0156900Y0212873D01*
X0156507Y0212490D01*
X0156105Y0212117D01*
X0155694Y0211753D01*
X0155274Y0211400D01*
X0154845Y0211057D01*
X0154408Y0210724D01*
X0153964Y0210403D01*
X0153511Y0210093D01*
X0153051Y0209793D01*
X0152584Y0209505D01*
X0152110Y0209229D01*
X0151629Y0208964D01*
X0151142Y0208712D01*
X0150649Y0208471D01*
X0150150Y0208242D01*
X0149645Y0208026D01*
X0149136Y0207822D01*
X0148621Y0207631D01*
X0148102Y0207453D01*
X0147579Y0207287D01*
X0147052Y0207134D01*
X0146521Y0206994D01*
X0145987Y0206867D01*
X0145450Y0206754D01*
X0144911Y0206653D01*
X0144369Y0206566D01*
X0143825Y0206492D01*
X0143280Y0206432D01*
X0142733Y0206385D01*
X0142185Y0206351D01*
X0141637Y0206331D01*
X0141088Y0206324D01*
X0140539Y0206331D01*
X0139991Y0206351D01*
X0139443Y0206385D01*
X0138896Y0206432D01*
X0138351Y0206492D01*
X0137807Y0206566D01*
X0137265Y0206653D01*
X0136726Y0206754D01*
X0136189Y0206867D01*
X0135655Y0206994D01*
X0135124Y0207134D01*
X0134597Y0207287D01*
X0134074Y0207453D01*
X0133555Y0207631D01*
X0133040Y0207822D01*
X0132531Y0208026D01*
X0132026Y0208242D01*
X0131527Y0208471D01*
X0131034Y0208712D01*
X0130547Y0208964D01*
X0130066Y0209229D01*
X0129592Y0209505D01*
X0129125Y0209793D01*
X0128665Y0210093D01*
X0128212Y0210403D01*
X0127768Y0210724D01*
X0127331Y0211057D01*
X0126902Y0211400D01*
X0126482Y0211753D01*
X0126071Y0212117D01*
X0125669Y0212490D01*
X0125276Y0212873D01*
X0124893Y0213266D01*
X0124520Y0213668D01*
X0124156Y0214079D01*
X0123803Y0214499D01*
X0123460Y0214928D01*
X0123127Y0215365D01*
X0122806Y0215809D01*
X0122496Y0216262D01*
X0122196Y0216722D01*
X0121908Y0217189D01*
X0121632Y0217663D01*
X0121367Y0218144D01*
X0121115Y0218631D01*
X0120874Y0219124D01*
X0120645Y0219623D01*
X0120429Y0220128D01*
X0120225Y0220637D01*
X0120034Y0221152D01*
X0119856Y0221671D01*
X0119690Y0222194D01*
X0119537Y0222721D01*
X0119397Y0223252D01*
X0119270Y0223786D01*
X0119157Y0224323D01*
X0119056Y0224862D01*
X0118969Y0225404D01*
X0118895Y0225948D01*
X0118835Y0226493D01*
X0118788Y0227040D01*
X0118754Y0227588D01*
X0118734Y0228136D01*
X0118727Y0228685D01*
X0094090Y0219435D02*
X0094090Y0199435D01*
X0082090Y0199435D01*
X0082090Y0219435D01*
X0094090Y0219435D01*
X0090090Y0288435D02*
X0078090Y0288435D01*
X0078090Y0308435D01*
X0090090Y0308435D01*
X0090090Y0288435D01*
X0117977Y0320685D02*
X0117984Y0321234D01*
X0118004Y0321782D01*
X0118038Y0322330D01*
X0118085Y0322877D01*
X0118145Y0323422D01*
X0118219Y0323966D01*
X0118306Y0324508D01*
X0118407Y0325047D01*
X0118520Y0325584D01*
X0118647Y0326118D01*
X0118787Y0326649D01*
X0118940Y0327176D01*
X0119106Y0327699D01*
X0119284Y0328218D01*
X0119475Y0328733D01*
X0119679Y0329242D01*
X0119895Y0329747D01*
X0120124Y0330246D01*
X0120365Y0330739D01*
X0120617Y0331226D01*
X0120882Y0331707D01*
X0121158Y0332181D01*
X0121446Y0332648D01*
X0121746Y0333108D01*
X0122056Y0333561D01*
X0122377Y0334005D01*
X0122710Y0334442D01*
X0123053Y0334871D01*
X0123406Y0335291D01*
X0123770Y0335702D01*
X0124143Y0336104D01*
X0124526Y0336497D01*
X0124919Y0336880D01*
X0125321Y0337253D01*
X0125732Y0337617D01*
X0126152Y0337970D01*
X0126581Y0338313D01*
X0127018Y0338646D01*
X0127462Y0338967D01*
X0127915Y0339277D01*
X0128375Y0339577D01*
X0128842Y0339865D01*
X0129316Y0340141D01*
X0129797Y0340406D01*
X0130284Y0340658D01*
X0130777Y0340899D01*
X0131276Y0341128D01*
X0131781Y0341344D01*
X0132290Y0341548D01*
X0132805Y0341739D01*
X0133324Y0341917D01*
X0133847Y0342083D01*
X0134374Y0342236D01*
X0134905Y0342376D01*
X0135439Y0342503D01*
X0135976Y0342616D01*
X0136515Y0342717D01*
X0137057Y0342804D01*
X0137601Y0342878D01*
X0138146Y0342938D01*
X0138693Y0342985D01*
X0139241Y0343019D01*
X0139789Y0343039D01*
X0140338Y0343046D01*
X0140887Y0343039D01*
X0141435Y0343019D01*
X0141983Y0342985D01*
X0142530Y0342938D01*
X0143075Y0342878D01*
X0143619Y0342804D01*
X0144161Y0342717D01*
X0144700Y0342616D01*
X0145237Y0342503D01*
X0145771Y0342376D01*
X0146302Y0342236D01*
X0146829Y0342083D01*
X0147352Y0341917D01*
X0147871Y0341739D01*
X0148386Y0341548D01*
X0148895Y0341344D01*
X0149400Y0341128D01*
X0149899Y0340899D01*
X0150392Y0340658D01*
X0150879Y0340406D01*
X0151360Y0340141D01*
X0151834Y0339865D01*
X0152301Y0339577D01*
X0152761Y0339277D01*
X0153214Y0338967D01*
X0153658Y0338646D01*
X0154095Y0338313D01*
X0154524Y0337970D01*
X0154944Y0337617D01*
X0155355Y0337253D01*
X0155757Y0336880D01*
X0156150Y0336497D01*
X0156533Y0336104D01*
X0156906Y0335702D01*
X0157270Y0335291D01*
X0157623Y0334871D01*
X0157966Y0334442D01*
X0158299Y0334005D01*
X0158620Y0333561D01*
X0158930Y0333108D01*
X0159230Y0332648D01*
X0159518Y0332181D01*
X0159794Y0331707D01*
X0160059Y0331226D01*
X0160311Y0330739D01*
X0160552Y0330246D01*
X0160781Y0329747D01*
X0160997Y0329242D01*
X0161201Y0328733D01*
X0161392Y0328218D01*
X0161570Y0327699D01*
X0161736Y0327176D01*
X0161889Y0326649D01*
X0162029Y0326118D01*
X0162156Y0325584D01*
X0162269Y0325047D01*
X0162370Y0324508D01*
X0162457Y0323966D01*
X0162531Y0323422D01*
X0162591Y0322877D01*
X0162638Y0322330D01*
X0162672Y0321782D01*
X0162692Y0321234D01*
X0162699Y0320685D01*
X0162692Y0320136D01*
X0162672Y0319588D01*
X0162638Y0319040D01*
X0162591Y0318493D01*
X0162531Y0317948D01*
X0162457Y0317404D01*
X0162370Y0316862D01*
X0162269Y0316323D01*
X0162156Y0315786D01*
X0162029Y0315252D01*
X0161889Y0314721D01*
X0161736Y0314194D01*
X0161570Y0313671D01*
X0161392Y0313152D01*
X0161201Y0312637D01*
X0160997Y0312128D01*
X0160781Y0311623D01*
X0160552Y0311124D01*
X0160311Y0310631D01*
X0160059Y0310144D01*
X0159794Y0309663D01*
X0159518Y0309189D01*
X0159230Y0308722D01*
X0158930Y0308262D01*
X0158620Y0307809D01*
X0158299Y0307365D01*
X0157966Y0306928D01*
X0157623Y0306499D01*
X0157270Y0306079D01*
X0156906Y0305668D01*
X0156533Y0305266D01*
X0156150Y0304873D01*
X0155757Y0304490D01*
X0155355Y0304117D01*
X0154944Y0303753D01*
X0154524Y0303400D01*
X0154095Y0303057D01*
X0153658Y0302724D01*
X0153214Y0302403D01*
X0152761Y0302093D01*
X0152301Y0301793D01*
X0151834Y0301505D01*
X0151360Y0301229D01*
X0150879Y0300964D01*
X0150392Y0300712D01*
X0149899Y0300471D01*
X0149400Y0300242D01*
X0148895Y0300026D01*
X0148386Y0299822D01*
X0147871Y0299631D01*
X0147352Y0299453D01*
X0146829Y0299287D01*
X0146302Y0299134D01*
X0145771Y0298994D01*
X0145237Y0298867D01*
X0144700Y0298754D01*
X0144161Y0298653D01*
X0143619Y0298566D01*
X0143075Y0298492D01*
X0142530Y0298432D01*
X0141983Y0298385D01*
X0141435Y0298351D01*
X0140887Y0298331D01*
X0140338Y0298324D01*
X0139789Y0298331D01*
X0139241Y0298351D01*
X0138693Y0298385D01*
X0138146Y0298432D01*
X0137601Y0298492D01*
X0137057Y0298566D01*
X0136515Y0298653D01*
X0135976Y0298754D01*
X0135439Y0298867D01*
X0134905Y0298994D01*
X0134374Y0299134D01*
X0133847Y0299287D01*
X0133324Y0299453D01*
X0132805Y0299631D01*
X0132290Y0299822D01*
X0131781Y0300026D01*
X0131276Y0300242D01*
X0130777Y0300471D01*
X0130284Y0300712D01*
X0129797Y0300964D01*
X0129316Y0301229D01*
X0128842Y0301505D01*
X0128375Y0301793D01*
X0127915Y0302093D01*
X0127462Y0302403D01*
X0127018Y0302724D01*
X0126581Y0303057D01*
X0126152Y0303400D01*
X0125732Y0303753D01*
X0125321Y0304117D01*
X0124919Y0304490D01*
X0124526Y0304873D01*
X0124143Y0305266D01*
X0123770Y0305668D01*
X0123406Y0306079D01*
X0123053Y0306499D01*
X0122710Y0306928D01*
X0122377Y0307365D01*
X0122056Y0307809D01*
X0121746Y0308262D01*
X0121446Y0308722D01*
X0121158Y0309189D01*
X0120882Y0309663D01*
X0120617Y0310144D01*
X0120365Y0310631D01*
X0120124Y0311124D01*
X0119895Y0311623D01*
X0119679Y0312128D01*
X0119475Y0312637D01*
X0119284Y0313152D01*
X0119106Y0313671D01*
X0118940Y0314194D01*
X0118787Y0314721D01*
X0118647Y0315252D01*
X0118520Y0315786D01*
X0118407Y0316323D01*
X0118306Y0316862D01*
X0118219Y0317404D01*
X0118145Y0317948D01*
X0118085Y0318493D01*
X0118038Y0319040D01*
X0118004Y0319588D01*
X0117984Y0320136D01*
X0117977Y0320685D01*
X0202588Y0226435D02*
X0214588Y0226435D01*
X0214588Y0206435D01*
X0202588Y0206435D01*
X0202588Y0226435D01*
X0205588Y0281685D02*
X0205588Y0301685D01*
X0217588Y0301685D01*
X0217588Y0281685D01*
X0205588Y0281685D01*
D55*
X0221218Y0284417D02*
X0221218Y0299953D01*
X0228958Y0299953D01*
X0228958Y0284417D01*
X0221218Y0284417D01*
X0224458Y0225203D02*
X0216718Y0225203D01*
X0216718Y0209667D01*
X0224458Y0209667D01*
X0224458Y0225203D01*
X0104460Y0215953D02*
X0104460Y0200417D01*
X0096720Y0200417D01*
X0096720Y0215953D01*
X0104460Y0215953D01*
X0100460Y0291667D02*
X0092720Y0291667D01*
X0092720Y0307203D01*
X0100460Y0307203D01*
X0100460Y0291667D01*
D56*
X0140338Y0322935D03*
X0141088Y0230935D03*
D57*
X0073785Y0224018D02*
X0073785Y0264018D01*
X0067778Y0264018D01*
X0065877Y0264018D01*
X0050141Y0264018D01*
X0048203Y0264018D01*
X0048203Y0224018D01*
X0045525Y0224018D01*
X0043076Y0224018D01*
X0041895Y0224018D01*
X0041895Y0264018D01*
X0043076Y0264018D01*
X0043076Y0224018D01*
X0045525Y0224018D02*
X0045525Y0264018D01*
X0044742Y0264018D01*
X0043076Y0264018D01*
X0044151Y0265227D02*
X0044742Y0264525D01*
X0044742Y0264018D01*
X0045525Y0264018D02*
X0046371Y0264018D01*
X0048203Y0264018D01*
X0046962Y0265227D02*
X0046371Y0264525D01*
X0046371Y0264018D01*
X0046962Y0265227D02*
X0046962Y0266262D01*
X0044151Y0266262D01*
X0044151Y0265227D01*
X0050399Y0254018D02*
X0050401Y0254203D01*
X0050408Y0254388D01*
X0050419Y0254573D01*
X0050435Y0254757D01*
X0050456Y0254941D01*
X0050481Y0255124D01*
X0050510Y0255307D01*
X0050544Y0255489D01*
X0050582Y0255670D01*
X0050625Y0255850D01*
X0050672Y0256029D01*
X0050724Y0256206D01*
X0050780Y0256383D01*
X0050840Y0256558D01*
X0050904Y0256731D01*
X0050973Y0256903D01*
X0051046Y0257073D01*
X0051123Y0257241D01*
X0051204Y0257408D01*
X0051289Y0257572D01*
X0051378Y0257734D01*
X0051472Y0257894D01*
X0051569Y0258051D01*
X0051670Y0258206D01*
X0051774Y0258359D01*
X0051883Y0258509D01*
X0051995Y0258656D01*
X0052110Y0258801D01*
X0052229Y0258942D01*
X0052352Y0259081D01*
X0052478Y0259216D01*
X0052607Y0259349D01*
X0052740Y0259478D01*
X0052875Y0259604D01*
X0053014Y0259727D01*
X0053155Y0259846D01*
X0053300Y0259961D01*
X0053447Y0260073D01*
X0053597Y0260182D01*
X0053750Y0260286D01*
X0053905Y0260387D01*
X0054062Y0260484D01*
X0054222Y0260578D01*
X0054384Y0260667D01*
X0054548Y0260752D01*
X0054715Y0260833D01*
X0054883Y0260910D01*
X0055053Y0260983D01*
X0055225Y0261052D01*
X0055398Y0261116D01*
X0055573Y0261176D01*
X0055750Y0261232D01*
X0055927Y0261284D01*
X0056106Y0261331D01*
X0056286Y0261374D01*
X0056467Y0261412D01*
X0056649Y0261446D01*
X0056832Y0261475D01*
X0057015Y0261500D01*
X0057199Y0261521D01*
X0057383Y0261537D01*
X0057568Y0261548D01*
X0057753Y0261555D01*
X0057938Y0261557D01*
X0058123Y0261555D01*
X0058308Y0261548D01*
X0058493Y0261537D01*
X0058677Y0261521D01*
X0058861Y0261500D01*
X0059044Y0261475D01*
X0059227Y0261446D01*
X0059409Y0261412D01*
X0059590Y0261374D01*
X0059770Y0261331D01*
X0059949Y0261284D01*
X0060126Y0261232D01*
X0060303Y0261176D01*
X0060478Y0261116D01*
X0060651Y0261052D01*
X0060823Y0260983D01*
X0060993Y0260910D01*
X0061161Y0260833D01*
X0061328Y0260752D01*
X0061492Y0260667D01*
X0061654Y0260578D01*
X0061814Y0260484D01*
X0061971Y0260387D01*
X0062126Y0260286D01*
X0062279Y0260182D01*
X0062429Y0260073D01*
X0062576Y0259961D01*
X0062721Y0259846D01*
X0062862Y0259727D01*
X0063001Y0259604D01*
X0063136Y0259478D01*
X0063269Y0259349D01*
X0063398Y0259216D01*
X0063524Y0259081D01*
X0063647Y0258942D01*
X0063766Y0258801D01*
X0063881Y0258656D01*
X0063993Y0258509D01*
X0064102Y0258359D01*
X0064206Y0258206D01*
X0064307Y0258051D01*
X0064404Y0257894D01*
X0064498Y0257734D01*
X0064587Y0257572D01*
X0064672Y0257408D01*
X0064753Y0257241D01*
X0064830Y0257073D01*
X0064903Y0256903D01*
X0064972Y0256731D01*
X0065036Y0256558D01*
X0065096Y0256383D01*
X0065152Y0256206D01*
X0065204Y0256029D01*
X0065251Y0255850D01*
X0065294Y0255670D01*
X0065332Y0255489D01*
X0065366Y0255307D01*
X0065395Y0255124D01*
X0065420Y0254941D01*
X0065441Y0254757D01*
X0065457Y0254573D01*
X0065468Y0254388D01*
X0065475Y0254203D01*
X0065477Y0254018D01*
X0065475Y0253833D01*
X0065468Y0253648D01*
X0065457Y0253463D01*
X0065441Y0253279D01*
X0065420Y0253095D01*
X0065395Y0252912D01*
X0065366Y0252729D01*
X0065332Y0252547D01*
X0065294Y0252366D01*
X0065251Y0252186D01*
X0065204Y0252007D01*
X0065152Y0251830D01*
X0065096Y0251653D01*
X0065036Y0251478D01*
X0064972Y0251305D01*
X0064903Y0251133D01*
X0064830Y0250963D01*
X0064753Y0250795D01*
X0064672Y0250628D01*
X0064587Y0250464D01*
X0064498Y0250302D01*
X0064404Y0250142D01*
X0064307Y0249985D01*
X0064206Y0249830D01*
X0064102Y0249677D01*
X0063993Y0249527D01*
X0063881Y0249380D01*
X0063766Y0249235D01*
X0063647Y0249094D01*
X0063524Y0248955D01*
X0063398Y0248820D01*
X0063269Y0248687D01*
X0063136Y0248558D01*
X0063001Y0248432D01*
X0062862Y0248309D01*
X0062721Y0248190D01*
X0062576Y0248075D01*
X0062429Y0247963D01*
X0062279Y0247854D01*
X0062126Y0247750D01*
X0061971Y0247649D01*
X0061814Y0247552D01*
X0061654Y0247458D01*
X0061492Y0247369D01*
X0061328Y0247284D01*
X0061161Y0247203D01*
X0060993Y0247126D01*
X0060823Y0247053D01*
X0060651Y0246984D01*
X0060478Y0246920D01*
X0060303Y0246860D01*
X0060126Y0246804D01*
X0059949Y0246752D01*
X0059770Y0246705D01*
X0059590Y0246662D01*
X0059409Y0246624D01*
X0059227Y0246590D01*
X0059044Y0246561D01*
X0058861Y0246536D01*
X0058677Y0246515D01*
X0058493Y0246499D01*
X0058308Y0246488D01*
X0058123Y0246481D01*
X0057938Y0246479D01*
X0057753Y0246481D01*
X0057568Y0246488D01*
X0057383Y0246499D01*
X0057199Y0246515D01*
X0057015Y0246536D01*
X0056832Y0246561D01*
X0056649Y0246590D01*
X0056467Y0246624D01*
X0056286Y0246662D01*
X0056106Y0246705D01*
X0055927Y0246752D01*
X0055750Y0246804D01*
X0055573Y0246860D01*
X0055398Y0246920D01*
X0055225Y0246984D01*
X0055053Y0247053D01*
X0054883Y0247126D01*
X0054715Y0247203D01*
X0054548Y0247284D01*
X0054384Y0247369D01*
X0054222Y0247458D01*
X0054062Y0247552D01*
X0053905Y0247649D01*
X0053750Y0247750D01*
X0053597Y0247854D01*
X0053447Y0247963D01*
X0053300Y0248075D01*
X0053155Y0248190D01*
X0053014Y0248309D01*
X0052875Y0248432D01*
X0052740Y0248558D01*
X0052607Y0248687D01*
X0052478Y0248820D01*
X0052352Y0248955D01*
X0052229Y0249094D01*
X0052110Y0249235D01*
X0051995Y0249380D01*
X0051883Y0249527D01*
X0051774Y0249677D01*
X0051670Y0249830D01*
X0051569Y0249985D01*
X0051472Y0250142D01*
X0051378Y0250302D01*
X0051289Y0250464D01*
X0051204Y0250628D01*
X0051123Y0250795D01*
X0051046Y0250963D01*
X0050973Y0251133D01*
X0050904Y0251305D01*
X0050840Y0251478D01*
X0050780Y0251653D01*
X0050724Y0251830D01*
X0050672Y0252007D01*
X0050625Y0252186D01*
X0050582Y0252366D01*
X0050544Y0252547D01*
X0050510Y0252729D01*
X0050481Y0252912D01*
X0050456Y0253095D01*
X0050435Y0253279D01*
X0050419Y0253463D01*
X0050408Y0253648D01*
X0050401Y0253833D01*
X0050399Y0254018D01*
X0067778Y0264018D02*
X0067778Y0224018D01*
X0073785Y0224018D01*
X0067778Y0224018D02*
X0065877Y0224018D01*
X0050141Y0224018D01*
X0048203Y0224018D01*
X0050399Y0234018D02*
X0050401Y0234203D01*
X0050408Y0234388D01*
X0050419Y0234573D01*
X0050435Y0234757D01*
X0050456Y0234941D01*
X0050481Y0235124D01*
X0050510Y0235307D01*
X0050544Y0235489D01*
X0050582Y0235670D01*
X0050625Y0235850D01*
X0050672Y0236029D01*
X0050724Y0236206D01*
X0050780Y0236383D01*
X0050840Y0236558D01*
X0050904Y0236731D01*
X0050973Y0236903D01*
X0051046Y0237073D01*
X0051123Y0237241D01*
X0051204Y0237408D01*
X0051289Y0237572D01*
X0051378Y0237734D01*
X0051472Y0237894D01*
X0051569Y0238051D01*
X0051670Y0238206D01*
X0051774Y0238359D01*
X0051883Y0238509D01*
X0051995Y0238656D01*
X0052110Y0238801D01*
X0052229Y0238942D01*
X0052352Y0239081D01*
X0052478Y0239216D01*
X0052607Y0239349D01*
X0052740Y0239478D01*
X0052875Y0239604D01*
X0053014Y0239727D01*
X0053155Y0239846D01*
X0053300Y0239961D01*
X0053447Y0240073D01*
X0053597Y0240182D01*
X0053750Y0240286D01*
X0053905Y0240387D01*
X0054062Y0240484D01*
X0054222Y0240578D01*
X0054384Y0240667D01*
X0054548Y0240752D01*
X0054715Y0240833D01*
X0054883Y0240910D01*
X0055053Y0240983D01*
X0055225Y0241052D01*
X0055398Y0241116D01*
X0055573Y0241176D01*
X0055750Y0241232D01*
X0055927Y0241284D01*
X0056106Y0241331D01*
X0056286Y0241374D01*
X0056467Y0241412D01*
X0056649Y0241446D01*
X0056832Y0241475D01*
X0057015Y0241500D01*
X0057199Y0241521D01*
X0057383Y0241537D01*
X0057568Y0241548D01*
X0057753Y0241555D01*
X0057938Y0241557D01*
X0058123Y0241555D01*
X0058308Y0241548D01*
X0058493Y0241537D01*
X0058677Y0241521D01*
X0058861Y0241500D01*
X0059044Y0241475D01*
X0059227Y0241446D01*
X0059409Y0241412D01*
X0059590Y0241374D01*
X0059770Y0241331D01*
X0059949Y0241284D01*
X0060126Y0241232D01*
X0060303Y0241176D01*
X0060478Y0241116D01*
X0060651Y0241052D01*
X0060823Y0240983D01*
X0060993Y0240910D01*
X0061161Y0240833D01*
X0061328Y0240752D01*
X0061492Y0240667D01*
X0061654Y0240578D01*
X0061814Y0240484D01*
X0061971Y0240387D01*
X0062126Y0240286D01*
X0062279Y0240182D01*
X0062429Y0240073D01*
X0062576Y0239961D01*
X0062721Y0239846D01*
X0062862Y0239727D01*
X0063001Y0239604D01*
X0063136Y0239478D01*
X0063269Y0239349D01*
X0063398Y0239216D01*
X0063524Y0239081D01*
X0063647Y0238942D01*
X0063766Y0238801D01*
X0063881Y0238656D01*
X0063993Y0238509D01*
X0064102Y0238359D01*
X0064206Y0238206D01*
X0064307Y0238051D01*
X0064404Y0237894D01*
X0064498Y0237734D01*
X0064587Y0237572D01*
X0064672Y0237408D01*
X0064753Y0237241D01*
X0064830Y0237073D01*
X0064903Y0236903D01*
X0064972Y0236731D01*
X0065036Y0236558D01*
X0065096Y0236383D01*
X0065152Y0236206D01*
X0065204Y0236029D01*
X0065251Y0235850D01*
X0065294Y0235670D01*
X0065332Y0235489D01*
X0065366Y0235307D01*
X0065395Y0235124D01*
X0065420Y0234941D01*
X0065441Y0234757D01*
X0065457Y0234573D01*
X0065468Y0234388D01*
X0065475Y0234203D01*
X0065477Y0234018D01*
X0065475Y0233833D01*
X0065468Y0233648D01*
X0065457Y0233463D01*
X0065441Y0233279D01*
X0065420Y0233095D01*
X0065395Y0232912D01*
X0065366Y0232729D01*
X0065332Y0232547D01*
X0065294Y0232366D01*
X0065251Y0232186D01*
X0065204Y0232007D01*
X0065152Y0231830D01*
X0065096Y0231653D01*
X0065036Y0231478D01*
X0064972Y0231305D01*
X0064903Y0231133D01*
X0064830Y0230963D01*
X0064753Y0230795D01*
X0064672Y0230628D01*
X0064587Y0230464D01*
X0064498Y0230302D01*
X0064404Y0230142D01*
X0064307Y0229985D01*
X0064206Y0229830D01*
X0064102Y0229677D01*
X0063993Y0229527D01*
X0063881Y0229380D01*
X0063766Y0229235D01*
X0063647Y0229094D01*
X0063524Y0228955D01*
X0063398Y0228820D01*
X0063269Y0228687D01*
X0063136Y0228558D01*
X0063001Y0228432D01*
X0062862Y0228309D01*
X0062721Y0228190D01*
X0062576Y0228075D01*
X0062429Y0227963D01*
X0062279Y0227854D01*
X0062126Y0227750D01*
X0061971Y0227649D01*
X0061814Y0227552D01*
X0061654Y0227458D01*
X0061492Y0227369D01*
X0061328Y0227284D01*
X0061161Y0227203D01*
X0060993Y0227126D01*
X0060823Y0227053D01*
X0060651Y0226984D01*
X0060478Y0226920D01*
X0060303Y0226860D01*
X0060126Y0226804D01*
X0059949Y0226752D01*
X0059770Y0226705D01*
X0059590Y0226662D01*
X0059409Y0226624D01*
X0059227Y0226590D01*
X0059044Y0226561D01*
X0058861Y0226536D01*
X0058677Y0226515D01*
X0058493Y0226499D01*
X0058308Y0226488D01*
X0058123Y0226481D01*
X0057938Y0226479D01*
X0057753Y0226481D01*
X0057568Y0226488D01*
X0057383Y0226499D01*
X0057199Y0226515D01*
X0057015Y0226536D01*
X0056832Y0226561D01*
X0056649Y0226590D01*
X0056467Y0226624D01*
X0056286Y0226662D01*
X0056106Y0226705D01*
X0055927Y0226752D01*
X0055750Y0226804D01*
X0055573Y0226860D01*
X0055398Y0226920D01*
X0055225Y0226984D01*
X0055053Y0227053D01*
X0054883Y0227126D01*
X0054715Y0227203D01*
X0054548Y0227284D01*
X0054384Y0227369D01*
X0054222Y0227458D01*
X0054062Y0227552D01*
X0053905Y0227649D01*
X0053750Y0227750D01*
X0053597Y0227854D01*
X0053447Y0227963D01*
X0053300Y0228075D01*
X0053155Y0228190D01*
X0053014Y0228309D01*
X0052875Y0228432D01*
X0052740Y0228558D01*
X0052607Y0228687D01*
X0052478Y0228820D01*
X0052352Y0228955D01*
X0052229Y0229094D01*
X0052110Y0229235D01*
X0051995Y0229380D01*
X0051883Y0229527D01*
X0051774Y0229677D01*
X0051670Y0229830D01*
X0051569Y0229985D01*
X0051472Y0230142D01*
X0051378Y0230302D01*
X0051289Y0230464D01*
X0051204Y0230628D01*
X0051123Y0230795D01*
X0051046Y0230963D01*
X0050973Y0231133D01*
X0050904Y0231305D01*
X0050840Y0231478D01*
X0050780Y0231653D01*
X0050724Y0231830D01*
X0050672Y0232007D01*
X0050625Y0232186D01*
X0050582Y0232366D01*
X0050544Y0232547D01*
X0050510Y0232729D01*
X0050481Y0232912D01*
X0050456Y0233095D01*
X0050435Y0233279D01*
X0050419Y0233463D01*
X0050408Y0233648D01*
X0050401Y0233833D01*
X0050399Y0234018D01*
X0050541Y0295518D02*
X0048603Y0295518D01*
X0045925Y0295518D01*
X0043476Y0295518D01*
X0042295Y0295518D01*
X0042295Y0335518D01*
X0043476Y0335518D01*
X0043476Y0295518D01*
X0045925Y0295518D02*
X0045925Y0335518D01*
X0045142Y0335518D01*
X0043476Y0335518D01*
X0044551Y0336727D02*
X0045142Y0336025D01*
X0045142Y0335518D01*
X0045925Y0335518D02*
X0046771Y0335518D01*
X0048603Y0335518D01*
X0048603Y0295518D01*
X0050541Y0295518D02*
X0066277Y0295518D01*
X0068178Y0295518D01*
X0074185Y0295518D01*
X0074185Y0335518D01*
X0068178Y0335518D01*
X0066277Y0335518D01*
X0050541Y0335518D01*
X0048603Y0335518D01*
X0047362Y0336727D02*
X0046771Y0336025D01*
X0046771Y0335518D01*
X0047362Y0336727D02*
X0047362Y0337762D01*
X0044551Y0337762D01*
X0044551Y0336727D01*
X0050799Y0325518D02*
X0050801Y0325703D01*
X0050808Y0325888D01*
X0050819Y0326073D01*
X0050835Y0326257D01*
X0050856Y0326441D01*
X0050881Y0326624D01*
X0050910Y0326807D01*
X0050944Y0326989D01*
X0050982Y0327170D01*
X0051025Y0327350D01*
X0051072Y0327529D01*
X0051124Y0327706D01*
X0051180Y0327883D01*
X0051240Y0328058D01*
X0051304Y0328231D01*
X0051373Y0328403D01*
X0051446Y0328573D01*
X0051523Y0328741D01*
X0051604Y0328908D01*
X0051689Y0329072D01*
X0051778Y0329234D01*
X0051872Y0329394D01*
X0051969Y0329551D01*
X0052070Y0329706D01*
X0052174Y0329859D01*
X0052283Y0330009D01*
X0052395Y0330156D01*
X0052510Y0330301D01*
X0052629Y0330442D01*
X0052752Y0330581D01*
X0052878Y0330716D01*
X0053007Y0330849D01*
X0053140Y0330978D01*
X0053275Y0331104D01*
X0053414Y0331227D01*
X0053555Y0331346D01*
X0053700Y0331461D01*
X0053847Y0331573D01*
X0053997Y0331682D01*
X0054150Y0331786D01*
X0054305Y0331887D01*
X0054462Y0331984D01*
X0054622Y0332078D01*
X0054784Y0332167D01*
X0054948Y0332252D01*
X0055115Y0332333D01*
X0055283Y0332410D01*
X0055453Y0332483D01*
X0055625Y0332552D01*
X0055798Y0332616D01*
X0055973Y0332676D01*
X0056150Y0332732D01*
X0056327Y0332784D01*
X0056506Y0332831D01*
X0056686Y0332874D01*
X0056867Y0332912D01*
X0057049Y0332946D01*
X0057232Y0332975D01*
X0057415Y0333000D01*
X0057599Y0333021D01*
X0057783Y0333037D01*
X0057968Y0333048D01*
X0058153Y0333055D01*
X0058338Y0333057D01*
X0058523Y0333055D01*
X0058708Y0333048D01*
X0058893Y0333037D01*
X0059077Y0333021D01*
X0059261Y0333000D01*
X0059444Y0332975D01*
X0059627Y0332946D01*
X0059809Y0332912D01*
X0059990Y0332874D01*
X0060170Y0332831D01*
X0060349Y0332784D01*
X0060526Y0332732D01*
X0060703Y0332676D01*
X0060878Y0332616D01*
X0061051Y0332552D01*
X0061223Y0332483D01*
X0061393Y0332410D01*
X0061561Y0332333D01*
X0061728Y0332252D01*
X0061892Y0332167D01*
X0062054Y0332078D01*
X0062214Y0331984D01*
X0062371Y0331887D01*
X0062526Y0331786D01*
X0062679Y0331682D01*
X0062829Y0331573D01*
X0062976Y0331461D01*
X0063121Y0331346D01*
X0063262Y0331227D01*
X0063401Y0331104D01*
X0063536Y0330978D01*
X0063669Y0330849D01*
X0063798Y0330716D01*
X0063924Y0330581D01*
X0064047Y0330442D01*
X0064166Y0330301D01*
X0064281Y0330156D01*
X0064393Y0330009D01*
X0064502Y0329859D01*
X0064606Y0329706D01*
X0064707Y0329551D01*
X0064804Y0329394D01*
X0064898Y0329234D01*
X0064987Y0329072D01*
X0065072Y0328908D01*
X0065153Y0328741D01*
X0065230Y0328573D01*
X0065303Y0328403D01*
X0065372Y0328231D01*
X0065436Y0328058D01*
X0065496Y0327883D01*
X0065552Y0327706D01*
X0065604Y0327529D01*
X0065651Y0327350D01*
X0065694Y0327170D01*
X0065732Y0326989D01*
X0065766Y0326807D01*
X0065795Y0326624D01*
X0065820Y0326441D01*
X0065841Y0326257D01*
X0065857Y0326073D01*
X0065868Y0325888D01*
X0065875Y0325703D01*
X0065877Y0325518D01*
X0065875Y0325333D01*
X0065868Y0325148D01*
X0065857Y0324963D01*
X0065841Y0324779D01*
X0065820Y0324595D01*
X0065795Y0324412D01*
X0065766Y0324229D01*
X0065732Y0324047D01*
X0065694Y0323866D01*
X0065651Y0323686D01*
X0065604Y0323507D01*
X0065552Y0323330D01*
X0065496Y0323153D01*
X0065436Y0322978D01*
X0065372Y0322805D01*
X0065303Y0322633D01*
X0065230Y0322463D01*
X0065153Y0322295D01*
X0065072Y0322128D01*
X0064987Y0321964D01*
X0064898Y0321802D01*
X0064804Y0321642D01*
X0064707Y0321485D01*
X0064606Y0321330D01*
X0064502Y0321177D01*
X0064393Y0321027D01*
X0064281Y0320880D01*
X0064166Y0320735D01*
X0064047Y0320594D01*
X0063924Y0320455D01*
X0063798Y0320320D01*
X0063669Y0320187D01*
X0063536Y0320058D01*
X0063401Y0319932D01*
X0063262Y0319809D01*
X0063121Y0319690D01*
X0062976Y0319575D01*
X0062829Y0319463D01*
X0062679Y0319354D01*
X0062526Y0319250D01*
X0062371Y0319149D01*
X0062214Y0319052D01*
X0062054Y0318958D01*
X0061892Y0318869D01*
X0061728Y0318784D01*
X0061561Y0318703D01*
X0061393Y0318626D01*
X0061223Y0318553D01*
X0061051Y0318484D01*
X0060878Y0318420D01*
X0060703Y0318360D01*
X0060526Y0318304D01*
X0060349Y0318252D01*
X0060170Y0318205D01*
X0059990Y0318162D01*
X0059809Y0318124D01*
X0059627Y0318090D01*
X0059444Y0318061D01*
X0059261Y0318036D01*
X0059077Y0318015D01*
X0058893Y0317999D01*
X0058708Y0317988D01*
X0058523Y0317981D01*
X0058338Y0317979D01*
X0058153Y0317981D01*
X0057968Y0317988D01*
X0057783Y0317999D01*
X0057599Y0318015D01*
X0057415Y0318036D01*
X0057232Y0318061D01*
X0057049Y0318090D01*
X0056867Y0318124D01*
X0056686Y0318162D01*
X0056506Y0318205D01*
X0056327Y0318252D01*
X0056150Y0318304D01*
X0055973Y0318360D01*
X0055798Y0318420D01*
X0055625Y0318484D01*
X0055453Y0318553D01*
X0055283Y0318626D01*
X0055115Y0318703D01*
X0054948Y0318784D01*
X0054784Y0318869D01*
X0054622Y0318958D01*
X0054462Y0319052D01*
X0054305Y0319149D01*
X0054150Y0319250D01*
X0053997Y0319354D01*
X0053847Y0319463D01*
X0053700Y0319575D01*
X0053555Y0319690D01*
X0053414Y0319809D01*
X0053275Y0319932D01*
X0053140Y0320058D01*
X0053007Y0320187D01*
X0052878Y0320320D01*
X0052752Y0320455D01*
X0052629Y0320594D01*
X0052510Y0320735D01*
X0052395Y0320880D01*
X0052283Y0321027D01*
X0052174Y0321177D01*
X0052070Y0321330D01*
X0051969Y0321485D01*
X0051872Y0321642D01*
X0051778Y0321802D01*
X0051689Y0321964D01*
X0051604Y0322128D01*
X0051523Y0322295D01*
X0051446Y0322463D01*
X0051373Y0322633D01*
X0051304Y0322805D01*
X0051240Y0322978D01*
X0051180Y0323153D01*
X0051124Y0323330D01*
X0051072Y0323507D01*
X0051025Y0323686D01*
X0050982Y0323866D01*
X0050944Y0324047D01*
X0050910Y0324229D01*
X0050881Y0324412D01*
X0050856Y0324595D01*
X0050835Y0324779D01*
X0050819Y0324963D01*
X0050808Y0325148D01*
X0050801Y0325333D01*
X0050799Y0325518D01*
X0068178Y0335518D02*
X0068178Y0295518D01*
X0050799Y0305518D02*
X0050801Y0305703D01*
X0050808Y0305888D01*
X0050819Y0306073D01*
X0050835Y0306257D01*
X0050856Y0306441D01*
X0050881Y0306624D01*
X0050910Y0306807D01*
X0050944Y0306989D01*
X0050982Y0307170D01*
X0051025Y0307350D01*
X0051072Y0307529D01*
X0051124Y0307706D01*
X0051180Y0307883D01*
X0051240Y0308058D01*
X0051304Y0308231D01*
X0051373Y0308403D01*
X0051446Y0308573D01*
X0051523Y0308741D01*
X0051604Y0308908D01*
X0051689Y0309072D01*
X0051778Y0309234D01*
X0051872Y0309394D01*
X0051969Y0309551D01*
X0052070Y0309706D01*
X0052174Y0309859D01*
X0052283Y0310009D01*
X0052395Y0310156D01*
X0052510Y0310301D01*
X0052629Y0310442D01*
X0052752Y0310581D01*
X0052878Y0310716D01*
X0053007Y0310849D01*
X0053140Y0310978D01*
X0053275Y0311104D01*
X0053414Y0311227D01*
X0053555Y0311346D01*
X0053700Y0311461D01*
X0053847Y0311573D01*
X0053997Y0311682D01*
X0054150Y0311786D01*
X0054305Y0311887D01*
X0054462Y0311984D01*
X0054622Y0312078D01*
X0054784Y0312167D01*
X0054948Y0312252D01*
X0055115Y0312333D01*
X0055283Y0312410D01*
X0055453Y0312483D01*
X0055625Y0312552D01*
X0055798Y0312616D01*
X0055973Y0312676D01*
X0056150Y0312732D01*
X0056327Y0312784D01*
X0056506Y0312831D01*
X0056686Y0312874D01*
X0056867Y0312912D01*
X0057049Y0312946D01*
X0057232Y0312975D01*
X0057415Y0313000D01*
X0057599Y0313021D01*
X0057783Y0313037D01*
X0057968Y0313048D01*
X0058153Y0313055D01*
X0058338Y0313057D01*
X0058523Y0313055D01*
X0058708Y0313048D01*
X0058893Y0313037D01*
X0059077Y0313021D01*
X0059261Y0313000D01*
X0059444Y0312975D01*
X0059627Y0312946D01*
X0059809Y0312912D01*
X0059990Y0312874D01*
X0060170Y0312831D01*
X0060349Y0312784D01*
X0060526Y0312732D01*
X0060703Y0312676D01*
X0060878Y0312616D01*
X0061051Y0312552D01*
X0061223Y0312483D01*
X0061393Y0312410D01*
X0061561Y0312333D01*
X0061728Y0312252D01*
X0061892Y0312167D01*
X0062054Y0312078D01*
X0062214Y0311984D01*
X0062371Y0311887D01*
X0062526Y0311786D01*
X0062679Y0311682D01*
X0062829Y0311573D01*
X0062976Y0311461D01*
X0063121Y0311346D01*
X0063262Y0311227D01*
X0063401Y0311104D01*
X0063536Y0310978D01*
X0063669Y0310849D01*
X0063798Y0310716D01*
X0063924Y0310581D01*
X0064047Y0310442D01*
X0064166Y0310301D01*
X0064281Y0310156D01*
X0064393Y0310009D01*
X0064502Y0309859D01*
X0064606Y0309706D01*
X0064707Y0309551D01*
X0064804Y0309394D01*
X0064898Y0309234D01*
X0064987Y0309072D01*
X0065072Y0308908D01*
X0065153Y0308741D01*
X0065230Y0308573D01*
X0065303Y0308403D01*
X0065372Y0308231D01*
X0065436Y0308058D01*
X0065496Y0307883D01*
X0065552Y0307706D01*
X0065604Y0307529D01*
X0065651Y0307350D01*
X0065694Y0307170D01*
X0065732Y0306989D01*
X0065766Y0306807D01*
X0065795Y0306624D01*
X0065820Y0306441D01*
X0065841Y0306257D01*
X0065857Y0306073D01*
X0065868Y0305888D01*
X0065875Y0305703D01*
X0065877Y0305518D01*
X0065875Y0305333D01*
X0065868Y0305148D01*
X0065857Y0304963D01*
X0065841Y0304779D01*
X0065820Y0304595D01*
X0065795Y0304412D01*
X0065766Y0304229D01*
X0065732Y0304047D01*
X0065694Y0303866D01*
X0065651Y0303686D01*
X0065604Y0303507D01*
X0065552Y0303330D01*
X0065496Y0303153D01*
X0065436Y0302978D01*
X0065372Y0302805D01*
X0065303Y0302633D01*
X0065230Y0302463D01*
X0065153Y0302295D01*
X0065072Y0302128D01*
X0064987Y0301964D01*
X0064898Y0301802D01*
X0064804Y0301642D01*
X0064707Y0301485D01*
X0064606Y0301330D01*
X0064502Y0301177D01*
X0064393Y0301027D01*
X0064281Y0300880D01*
X0064166Y0300735D01*
X0064047Y0300594D01*
X0063924Y0300455D01*
X0063798Y0300320D01*
X0063669Y0300187D01*
X0063536Y0300058D01*
X0063401Y0299932D01*
X0063262Y0299809D01*
X0063121Y0299690D01*
X0062976Y0299575D01*
X0062829Y0299463D01*
X0062679Y0299354D01*
X0062526Y0299250D01*
X0062371Y0299149D01*
X0062214Y0299052D01*
X0062054Y0298958D01*
X0061892Y0298869D01*
X0061728Y0298784D01*
X0061561Y0298703D01*
X0061393Y0298626D01*
X0061223Y0298553D01*
X0061051Y0298484D01*
X0060878Y0298420D01*
X0060703Y0298360D01*
X0060526Y0298304D01*
X0060349Y0298252D01*
X0060170Y0298205D01*
X0059990Y0298162D01*
X0059809Y0298124D01*
X0059627Y0298090D01*
X0059444Y0298061D01*
X0059261Y0298036D01*
X0059077Y0298015D01*
X0058893Y0297999D01*
X0058708Y0297988D01*
X0058523Y0297981D01*
X0058338Y0297979D01*
X0058153Y0297981D01*
X0057968Y0297988D01*
X0057783Y0297999D01*
X0057599Y0298015D01*
X0057415Y0298036D01*
X0057232Y0298061D01*
X0057049Y0298090D01*
X0056867Y0298124D01*
X0056686Y0298162D01*
X0056506Y0298205D01*
X0056327Y0298252D01*
X0056150Y0298304D01*
X0055973Y0298360D01*
X0055798Y0298420D01*
X0055625Y0298484D01*
X0055453Y0298553D01*
X0055283Y0298626D01*
X0055115Y0298703D01*
X0054948Y0298784D01*
X0054784Y0298869D01*
X0054622Y0298958D01*
X0054462Y0299052D01*
X0054305Y0299149D01*
X0054150Y0299250D01*
X0053997Y0299354D01*
X0053847Y0299463D01*
X0053700Y0299575D01*
X0053555Y0299690D01*
X0053414Y0299809D01*
X0053275Y0299932D01*
X0053140Y0300058D01*
X0053007Y0300187D01*
X0052878Y0300320D01*
X0052752Y0300455D01*
X0052629Y0300594D01*
X0052510Y0300735D01*
X0052395Y0300880D01*
X0052283Y0301027D01*
X0052174Y0301177D01*
X0052070Y0301330D01*
X0051969Y0301485D01*
X0051872Y0301642D01*
X0051778Y0301802D01*
X0051689Y0301964D01*
X0051604Y0302128D01*
X0051523Y0302295D01*
X0051446Y0302463D01*
X0051373Y0302633D01*
X0051304Y0302805D01*
X0051240Y0302978D01*
X0051180Y0303153D01*
X0051124Y0303330D01*
X0051072Y0303507D01*
X0051025Y0303686D01*
X0050982Y0303866D01*
X0050944Y0304047D01*
X0050910Y0304229D01*
X0050881Y0304412D01*
X0050856Y0304595D01*
X0050835Y0304779D01*
X0050819Y0304963D01*
X0050808Y0305148D01*
X0050801Y0305333D01*
X0050799Y0305518D01*
D58*
X0127998Y0267250D02*
X0129498Y0267250D01*
X0161498Y0267250D02*
X0162998Y0267250D01*
D59*
X0164698Y0267250D03*
X0159698Y0267250D03*
X0131298Y0267250D03*
X0126298Y0267250D03*
X0130200Y0076000D03*
X0101800Y0076000D03*
X0101800Y0041000D03*
X0130200Y0041000D03*
D60*
X0150998Y0277250D02*
X0150998Y0282250D01*
X0150998Y0287250D01*
X0154498Y0287250D02*
X0154498Y0282250D01*
X0154498Y0277250D01*
D61*
X0146000Y0165200D03*
X0146000Y0136800D03*
X0146000Y0075200D03*
X0146000Y0046800D03*
D62*
X0117300Y0055311D02*
X0117300Y0057811D01*
X0117300Y0060311D01*
X0114800Y0060311D02*
X0114800Y0057811D01*
X0114800Y0055311D01*
X0120548Y0132752D02*
X0120548Y0135252D01*
X0120548Y0137752D01*
X0123048Y0137752D02*
X0123048Y0135252D01*
X0123048Y0132752D01*
X0179700Y0093500D02*
X0179700Y0091000D01*
X0179700Y0088500D01*
X0182200Y0088500D02*
X0182200Y0091000D01*
X0182200Y0093500D01*
D63*
X0178474Y0065016D03*
X0119695Y0162535D03*
M02*
