G75*
%MOIN*%
%OFA0B0*%
%FSLAX25Y25*%
%IPPOS*%
%LPD*%
%AMOC8*
5,1,8,0,0,1.08239X$1,22.5*
%
%ADD10C,0.06800*%
%ADD11R,0.43320X0.08320*%
%ADD12R,0.33595X0.24422*%
%ADD13R,0.05013X0.09304*%
%ADD14OC8,0.07100*%
%ADD15R,0.10643X0.08477*%
%ADD16R,0.07887X0.07099*%
%ADD17C,0.05156*%
D10*
X0096600Y0213600D02*
X0096600Y0219600D01*
X0106600Y0219600D02*
X0106600Y0213600D01*
X0116600Y0213600D02*
X0116600Y0219600D01*
X0126600Y0219600D02*
X0126600Y0213600D01*
X0176600Y0213600D02*
X0176600Y0219600D01*
X0186600Y0219600D02*
X0186600Y0213600D01*
X0196600Y0213600D02*
X0196600Y0219600D01*
X0206600Y0219600D02*
X0206600Y0213600D01*
D11*
X0186600Y0177840D03*
X0121600Y0177840D03*
D12*
X0121600Y0165911D03*
X0186600Y0165911D03*
D13*
X0186600Y0125813D03*
X0179907Y0125813D03*
X0173214Y0125813D03*
X0193293Y0125813D03*
X0199986Y0125813D03*
X0134986Y0125813D03*
X0128293Y0125813D03*
X0121600Y0125813D03*
X0114907Y0125813D03*
X0108214Y0125813D03*
D14*
X0106600Y0041600D03*
X0116600Y0041600D03*
X0126600Y0041600D03*
X0136600Y0041600D03*
X0136600Y0071600D03*
X0126600Y0071600D03*
X0116600Y0071600D03*
X0106600Y0071600D03*
X0171600Y0071600D03*
X0181600Y0071600D03*
X0191600Y0071600D03*
X0201600Y0071600D03*
X0201600Y0041600D03*
X0191600Y0041600D03*
X0181600Y0041600D03*
X0171600Y0041600D03*
D15*
X0166600Y0100596D03*
X0166600Y0112604D03*
X0196600Y0112604D03*
X0196600Y0100596D03*
X0131600Y0100596D03*
X0131600Y0112604D03*
X0101600Y0112604D03*
X0101600Y0100596D03*
D16*
X0121600Y0101088D03*
X0121600Y0112112D03*
X0141600Y0112112D03*
X0141600Y0101088D03*
X0186600Y0101088D03*
X0186600Y0112112D03*
X0206600Y0112112D03*
X0206600Y0101088D03*
D17*
X0214100Y0101600D03*
X0226600Y0111600D03*
X0199986Y0141600D03*
X0193293Y0136600D03*
X0176600Y0116600D03*
X0149100Y0101600D03*
X0111600Y0116600D03*
X0128293Y0136600D03*
X0134986Y0141600D03*
X0156600Y0141600D03*
X0156600Y0176600D03*
X0089100Y0101600D03*
X0146600Y0031600D03*
M02*
