G75*
%MOIN*%
%OFA0B0*%
%FSLAX25Y25*%
%IPPOS*%
%LPD*%
%AMOC8*
5,1,8,0,0,1.08239X$1,22.5*
%
%ADD10C,0.06000*%
%ADD11OC8,0.06300*%
%ADD12R,0.07087X0.06299*%
%ADD13R,0.06299X0.07087*%
%ADD14R,0.11024X0.09449*%
%ADD15R,0.06299X0.07098*%
%ADD16R,0.07098X0.06299*%
%ADD17C,0.03200*%
%ADD18C,0.04356*%
%ADD19C,0.05000*%
%ADD20C,0.01200*%
%ADD21C,0.02400*%
%ADD22C,0.05600*%
D10*
X0096600Y0213600D02*
X0096600Y0219600D01*
X0106600Y0219600D02*
X0106600Y0213600D01*
X0116600Y0213600D02*
X0116600Y0219600D01*
X0126600Y0219600D02*
X0126600Y0213600D01*
X0176600Y0213600D02*
X0176600Y0219600D01*
X0186600Y0219600D02*
X0186600Y0213600D01*
X0196600Y0213600D02*
X0196600Y0219600D01*
X0206600Y0219600D02*
X0206600Y0213600D01*
D11*
X0201600Y0071600D03*
X0191600Y0071600D03*
X0181600Y0071600D03*
X0171600Y0071600D03*
X0171600Y0041600D03*
X0181600Y0041600D03*
X0191600Y0041600D03*
X0201600Y0041600D03*
X0136600Y0041600D03*
X0126600Y0041600D03*
X0116600Y0041600D03*
X0106600Y0041600D03*
X0106600Y0071600D03*
X0116600Y0071600D03*
X0126600Y0071600D03*
X0136600Y0071600D03*
D12*
X0136600Y0081088D03*
X0136600Y0092112D03*
X0116600Y0092112D03*
X0116600Y0081088D03*
X0106600Y0062112D03*
X0106600Y0051088D03*
X0171600Y0051088D03*
X0171600Y0062112D03*
X0181600Y0081088D03*
X0181600Y0092112D03*
X0201600Y0092112D03*
X0201600Y0081088D03*
D13*
X0202112Y0031600D03*
X0191088Y0031600D03*
X0137112Y0031600D03*
X0126088Y0031600D03*
X0127112Y0201600D03*
X0116088Y0201600D03*
X0107112Y0201600D03*
X0096088Y0201600D03*
D14*
X0086600Y0189002D03*
X0086600Y0164198D03*
X0151600Y0191698D03*
X0151600Y0216502D03*
D15*
X0181002Y0189100D03*
X0192198Y0189100D03*
X0127198Y0126600D03*
X0116002Y0126600D03*
X0117198Y0031600D03*
X0106002Y0031600D03*
X0171002Y0031600D03*
X0182198Y0031600D03*
D16*
X0181600Y0051002D03*
X0181600Y0062198D03*
X0191600Y0081002D03*
X0191600Y0092198D03*
X0211600Y0092198D03*
X0211600Y0081002D03*
X0211600Y0072198D03*
X0211600Y0061002D03*
X0146600Y0061002D03*
X0146600Y0072198D03*
X0146600Y0081002D03*
X0146600Y0092198D03*
X0126600Y0092198D03*
X0126600Y0081002D03*
X0116600Y0062198D03*
X0116600Y0051002D03*
X0216600Y0181002D03*
X0216600Y0192198D03*
D17*
X0171600Y0156600D02*
X0186600Y0141600D01*
X0186600Y0111600D01*
X0171600Y0096600D01*
X0171600Y0071600D01*
X0171600Y0062112D01*
X0181600Y0062198D02*
X0181600Y0071600D01*
X0181600Y0081088D01*
X0191600Y0081002D02*
X0191600Y0081600D01*
X0191600Y0081002D02*
X0191600Y0071600D01*
X0201600Y0071600D02*
X0201600Y0081088D01*
X0201600Y0081600D01*
X0201600Y0091600D02*
X0201600Y0092112D01*
X0211600Y0092198D02*
X0211600Y0091600D01*
X0181600Y0091600D02*
X0181600Y0092112D01*
X0166600Y0106600D02*
X0166600Y0076600D01*
X0161600Y0071600D01*
X0161600Y0046600D01*
X0166600Y0041600D01*
X0171600Y0041600D01*
X0181600Y0041600D02*
X0181600Y0051002D01*
X0181600Y0051600D01*
X0191600Y0051600D01*
X0201600Y0061600D01*
X0211600Y0061600D01*
X0211600Y0061002D01*
X0201600Y0041600D02*
X0201600Y0031600D01*
X0202112Y0031600D01*
X0182198Y0031600D02*
X0181600Y0031600D01*
X0181600Y0041600D01*
X0146600Y0031600D02*
X0137112Y0031600D01*
X0136600Y0031600D01*
X0136600Y0041600D01*
X0126600Y0051600D02*
X0136600Y0061600D01*
X0146600Y0061600D01*
X0146600Y0061002D01*
X0136600Y0071600D02*
X0136600Y0081088D01*
X0136600Y0081600D01*
X0126600Y0081600D02*
X0126600Y0081002D01*
X0126600Y0071600D01*
X0116600Y0071600D02*
X0116600Y0062198D01*
X0116600Y0071600D02*
X0116600Y0081088D01*
X0116600Y0091600D02*
X0116600Y0092112D01*
X0106600Y0096600D02*
X0106600Y0071600D01*
X0106600Y0062112D01*
X0116600Y0051600D02*
X0126600Y0051600D01*
X0116600Y0051600D02*
X0116600Y0051002D01*
X0116600Y0041600D01*
X0116600Y0031600D01*
X0117198Y0031600D01*
X0106600Y0041600D02*
X0101600Y0041600D01*
X0096600Y0046600D01*
X0096600Y0101600D01*
X0111600Y0116600D01*
X0121600Y0111600D02*
X0121600Y0151600D01*
X0127112Y0157112D01*
X0127112Y0201600D01*
X0096088Y0201600D02*
X0086600Y0192112D01*
X0086600Y0189002D01*
X0166600Y0106600D02*
X0176600Y0116600D01*
X0146600Y0092198D02*
X0146600Y0091600D01*
X0121600Y0111600D02*
X0106600Y0096600D01*
D18*
X0089100Y0101600D03*
X0111600Y0116600D03*
X0128293Y0136600D03*
X0134986Y0141600D03*
X0156600Y0141600D03*
X0176600Y0116600D03*
X0193293Y0136600D03*
X0199986Y0141600D03*
X0226600Y0111600D03*
X0214100Y0101600D03*
X0149100Y0101600D03*
X0146600Y0031600D03*
X0156600Y0176600D03*
D19*
X0171600Y0191600D01*
X0178502Y0191600D01*
X0181002Y0189100D01*
X0192198Y0189100D02*
X0192198Y0192198D01*
X0196600Y0196600D01*
X0196600Y0216600D01*
X0206600Y0216600D02*
X0216600Y0206600D01*
X0216600Y0192198D01*
X0216600Y0181002D02*
X0216600Y0111600D01*
X0221600Y0106600D01*
X0221600Y0076600D01*
X0211600Y0076600D01*
X0211600Y0081002D01*
X0211600Y0076600D02*
X0211600Y0072198D01*
X0216600Y0111600D02*
X0193293Y0134907D01*
X0193293Y0136600D01*
X0199986Y0141600D02*
X0199986Y0143214D01*
X0186600Y0156600D01*
X0171600Y0156600D01*
X0134986Y0156600D01*
X0134986Y0215813D01*
X0134710Y0216088D01*
X0127112Y0216088D01*
X0126600Y0216600D01*
X0151502Y0216600D01*
X0151600Y0216502D01*
X0127112Y0216088D02*
X0127112Y0201600D01*
X0134986Y0156600D02*
X0134986Y0141600D01*
X0128293Y0136600D02*
X0128293Y0126600D01*
X0127198Y0126600D01*
X0128293Y0126600D02*
X0141600Y0126600D01*
X0156600Y0111600D01*
X0156600Y0081600D01*
X0151600Y0076600D01*
X0146600Y0076600D01*
X0146600Y0081002D01*
X0146600Y0076600D02*
X0146600Y0072198D01*
X0141600Y0126600D02*
X0156600Y0141600D01*
X0116002Y0126600D02*
X0106600Y0126600D01*
D20*
X0071200Y0021200D02*
X0071200Y0253220D01*
X0241134Y0253220D01*
X0241134Y0021200D01*
X0071200Y0021200D01*
X0071200Y0021394D02*
X0241134Y0021394D01*
X0241134Y0022593D02*
X0071200Y0022593D01*
X0071200Y0023791D02*
X0241134Y0023791D01*
X0241134Y0024990D02*
X0071200Y0024990D01*
X0071200Y0026188D02*
X0241134Y0026188D01*
X0241134Y0027387D02*
X0206571Y0027387D01*
X0206661Y0027477D02*
X0206661Y0035723D01*
X0205841Y0036543D01*
X0204600Y0036543D01*
X0204600Y0038165D01*
X0206150Y0039715D01*
X0206150Y0043485D01*
X0203485Y0046150D01*
X0199715Y0046150D01*
X0197050Y0043485D01*
X0197050Y0039715D01*
X0198600Y0038165D01*
X0198600Y0036543D01*
X0198382Y0036543D01*
X0197562Y0035723D01*
X0197562Y0027477D01*
X0198382Y0026657D01*
X0205841Y0026657D01*
X0206661Y0027477D01*
X0206661Y0028585D02*
X0241134Y0028585D01*
X0241134Y0029784D02*
X0206661Y0029784D01*
X0206661Y0030982D02*
X0241134Y0030982D01*
X0241134Y0032181D02*
X0206661Y0032181D01*
X0206661Y0033379D02*
X0241134Y0033379D01*
X0241134Y0034578D02*
X0206661Y0034578D01*
X0206608Y0035776D02*
X0241134Y0035776D01*
X0241134Y0036975D02*
X0204600Y0036975D01*
X0204608Y0038173D02*
X0241134Y0038173D01*
X0241134Y0039372D02*
X0205806Y0039372D01*
X0206150Y0040570D02*
X0241134Y0040570D01*
X0241134Y0041769D02*
X0206150Y0041769D01*
X0206150Y0042967D02*
X0241134Y0042967D01*
X0241134Y0044166D02*
X0205469Y0044166D01*
X0204270Y0045364D02*
X0241134Y0045364D01*
X0241134Y0046563D02*
X0185840Y0046563D01*
X0185729Y0046452D02*
X0186549Y0047272D01*
X0186549Y0048600D01*
X0192197Y0048600D01*
X0193299Y0049057D01*
X0202843Y0058600D01*
X0206651Y0058600D01*
X0206651Y0057272D01*
X0207471Y0056452D01*
X0215729Y0056452D01*
X0216549Y0057272D01*
X0216549Y0064731D01*
X0215729Y0065551D01*
X0207471Y0065551D01*
X0206651Y0064731D01*
X0206651Y0064600D01*
X0201003Y0064600D01*
X0199901Y0064143D01*
X0199057Y0063299D01*
X0190357Y0054600D01*
X0186549Y0054600D01*
X0186549Y0054731D01*
X0185729Y0055551D01*
X0177471Y0055551D01*
X0176664Y0054744D01*
X0176634Y0054855D01*
X0176424Y0055220D01*
X0176126Y0055518D01*
X0175761Y0055729D01*
X0175354Y0055838D01*
X0172200Y0055838D01*
X0172200Y0051688D01*
X0171000Y0051688D01*
X0171000Y0050488D01*
X0172200Y0050488D01*
X0172200Y0046339D01*
X0175354Y0046339D01*
X0175761Y0046448D01*
X0176126Y0046658D01*
X0176424Y0046956D01*
X0176634Y0047321D01*
X0176651Y0047383D01*
X0176651Y0047272D01*
X0177471Y0046452D01*
X0178600Y0046452D01*
X0178600Y0045035D01*
X0177050Y0043485D01*
X0177050Y0039715D01*
X0178600Y0038165D01*
X0178600Y0036549D01*
X0178469Y0036549D01*
X0177649Y0035729D01*
X0177649Y0027471D01*
X0178469Y0026651D01*
X0185928Y0026651D01*
X0186546Y0027269D01*
X0186658Y0027074D01*
X0186956Y0026776D01*
X0187321Y0026566D01*
X0187728Y0026457D01*
X0190488Y0026457D01*
X0190488Y0031000D01*
X0191688Y0031000D01*
X0191688Y0026457D01*
X0194448Y0026457D01*
X0194855Y0026566D01*
X0195220Y0026776D01*
X0195518Y0027074D01*
X0195729Y0027439D01*
X0195838Y0027846D01*
X0195838Y0031000D01*
X0191688Y0031000D01*
X0191688Y0032200D01*
X0190488Y0032200D01*
X0190488Y0036743D01*
X0187728Y0036743D01*
X0187321Y0036634D01*
X0186956Y0036424D01*
X0186658Y0036126D01*
X0186546Y0035931D01*
X0185928Y0036549D01*
X0184600Y0036549D01*
X0184600Y0038165D01*
X0186150Y0039715D01*
X0186150Y0043485D01*
X0184600Y0045035D01*
X0184600Y0046452D01*
X0185729Y0046452D01*
X0186549Y0047761D02*
X0241134Y0047761D01*
X0241134Y0048960D02*
X0193065Y0048960D01*
X0194401Y0050158D02*
X0241134Y0050158D01*
X0241134Y0051357D02*
X0195599Y0051357D01*
X0196798Y0052555D02*
X0241134Y0052555D01*
X0241134Y0053754D02*
X0197996Y0053754D01*
X0199195Y0054952D02*
X0241134Y0054952D01*
X0241134Y0056151D02*
X0200394Y0056151D01*
X0201592Y0057349D02*
X0206651Y0057349D01*
X0206651Y0058548D02*
X0202791Y0058548D01*
X0199099Y0063342D02*
X0186549Y0063342D01*
X0186549Y0064540D02*
X0200860Y0064540D01*
X0199715Y0067050D02*
X0203485Y0067050D01*
X0206150Y0069715D01*
X0206150Y0073485D01*
X0204600Y0075035D01*
X0204600Y0076539D01*
X0205723Y0076539D01*
X0206543Y0077359D01*
X0206543Y0082866D01*
X0206651Y0082974D01*
X0206651Y0077272D01*
X0207323Y0076600D01*
X0206651Y0075928D01*
X0206651Y0068469D01*
X0207471Y0067649D01*
X0215729Y0067649D01*
X0216549Y0068469D01*
X0216549Y0072700D01*
X0222376Y0072700D01*
X0223809Y0073294D01*
X0224906Y0074391D01*
X0225500Y0075824D01*
X0225500Y0107376D01*
X0224906Y0108809D01*
X0220500Y0113215D01*
X0220500Y0176452D01*
X0220729Y0176452D01*
X0221549Y0177272D01*
X0221549Y0184731D01*
X0220729Y0185551D01*
X0212471Y0185551D01*
X0211651Y0184731D01*
X0211651Y0177272D01*
X0212471Y0176452D01*
X0212700Y0176452D01*
X0212700Y0121015D01*
X0197193Y0136523D01*
X0197193Y0137376D01*
X0196599Y0138809D01*
X0195502Y0139906D01*
X0194069Y0140500D01*
X0192517Y0140500D01*
X0191084Y0139906D01*
X0189987Y0138809D01*
X0189600Y0137876D01*
X0189600Y0142197D01*
X0189143Y0143299D01*
X0179743Y0152700D01*
X0184985Y0152700D01*
X0196086Y0141599D01*
X0196086Y0140824D01*
X0196680Y0139391D01*
X0197777Y0138294D01*
X0199210Y0137700D01*
X0200762Y0137700D01*
X0202195Y0138294D01*
X0203292Y0139391D01*
X0203886Y0140824D01*
X0203886Y0143990D01*
X0203292Y0145423D01*
X0189906Y0158809D01*
X0188809Y0159906D01*
X0187376Y0160500D01*
X0138886Y0160500D01*
X0138886Y0212700D01*
X0144688Y0212700D01*
X0144688Y0211197D01*
X0145508Y0210377D01*
X0157692Y0210377D01*
X0158512Y0211197D01*
X0158512Y0221806D01*
X0157692Y0222626D01*
X0145508Y0222626D01*
X0144688Y0221806D01*
X0144688Y0220500D01*
X0130990Y0220500D01*
X0130330Y0222092D01*
X0129092Y0223330D01*
X0127475Y0224000D01*
X0125725Y0224000D01*
X0124108Y0223330D01*
X0122870Y0222092D01*
X0122200Y0220475D01*
X0122200Y0212725D01*
X0122870Y0211108D01*
X0123212Y0210766D01*
X0123212Y0206373D01*
X0122562Y0205723D01*
X0122562Y0197477D01*
X0123382Y0196657D01*
X0124112Y0196657D01*
X0124112Y0158354D01*
X0119057Y0153299D01*
X0118600Y0152197D01*
X0118600Y0131549D01*
X0112272Y0131549D01*
X0111452Y0130729D01*
X0111452Y0130500D01*
X0105824Y0130500D01*
X0104391Y0129906D01*
X0103294Y0128809D01*
X0102700Y0127376D01*
X0102700Y0125824D01*
X0103294Y0124391D01*
X0104391Y0123294D01*
X0105824Y0122700D01*
X0111452Y0122700D01*
X0111452Y0122471D01*
X0112272Y0121651D01*
X0118600Y0121651D01*
X0118600Y0112843D01*
X0104057Y0098299D01*
X0103600Y0097197D01*
X0103600Y0075035D01*
X0102050Y0073485D01*
X0102050Y0069715D01*
X0103600Y0068165D01*
X0103600Y0066661D01*
X0102477Y0066661D01*
X0101657Y0065841D01*
X0101657Y0058382D01*
X0102477Y0057562D01*
X0110723Y0057562D01*
X0111543Y0058382D01*
X0111543Y0065841D01*
X0110723Y0066661D01*
X0109600Y0066661D01*
X0109600Y0068165D01*
X0111150Y0069715D01*
X0111150Y0073485D01*
X0109600Y0075035D01*
X0109600Y0095357D01*
X0124143Y0109901D01*
X0124600Y0111003D01*
X0124600Y0121651D01*
X0130928Y0121651D01*
X0131748Y0122471D01*
X0131748Y0122700D01*
X0139985Y0122700D01*
X0152700Y0109985D01*
X0152700Y0083215D01*
X0151549Y0082065D01*
X0151549Y0084731D01*
X0150729Y0085551D01*
X0144228Y0085551D01*
X0146326Y0087649D01*
X0150729Y0087649D01*
X0151549Y0088469D01*
X0151549Y0095928D01*
X0150729Y0096748D01*
X0142471Y0096748D01*
X0141651Y0095928D01*
X0141651Y0095817D01*
X0141634Y0095879D01*
X0141424Y0096244D01*
X0141126Y0096542D01*
X0140761Y0096752D01*
X0140354Y0096861D01*
X0137200Y0096861D01*
X0137200Y0092712D01*
X0136000Y0092712D01*
X0136000Y0096861D01*
X0132846Y0096861D01*
X0132439Y0096752D01*
X0132074Y0096542D01*
X0131776Y0096244D01*
X0131628Y0095987D01*
X0131430Y0096330D01*
X0131132Y0096628D01*
X0130767Y0096839D01*
X0130360Y0096948D01*
X0127200Y0096948D01*
X0127200Y0092798D01*
X0131457Y0092798D01*
X0131457Y0092712D01*
X0136000Y0092712D01*
X0136000Y0091512D01*
X0131749Y0091512D01*
X0131749Y0091598D01*
X0127200Y0091598D01*
X0127200Y0087449D01*
X0130360Y0087449D01*
X0130767Y0087558D01*
X0131132Y0087769D01*
X0131430Y0088066D01*
X0131578Y0088323D01*
X0131776Y0087980D01*
X0132074Y0087682D01*
X0132439Y0087471D01*
X0132846Y0087362D01*
X0136000Y0087362D01*
X0136000Y0091512D01*
X0137200Y0091512D01*
X0137200Y0087362D01*
X0138685Y0087362D01*
X0136961Y0085638D01*
X0132477Y0085638D01*
X0131657Y0084818D01*
X0131657Y0077359D01*
X0132477Y0076539D01*
X0133600Y0076539D01*
X0133600Y0075035D01*
X0132050Y0073485D01*
X0132050Y0069715D01*
X0134715Y0067050D01*
X0138485Y0067050D01*
X0141150Y0069715D01*
X0141150Y0073485D01*
X0139600Y0075035D01*
X0139600Y0076539D01*
X0140723Y0076539D01*
X0141543Y0077359D01*
X0141543Y0082866D01*
X0141651Y0082974D01*
X0141651Y0077272D01*
X0142323Y0076600D01*
X0141651Y0075928D01*
X0141651Y0068469D01*
X0142471Y0067649D01*
X0150729Y0067649D01*
X0151549Y0068469D01*
X0151549Y0072700D01*
X0152376Y0072700D01*
X0153809Y0073294D01*
X0154906Y0074391D01*
X0158809Y0078294D01*
X0159906Y0079391D01*
X0160500Y0080824D01*
X0160500Y0112376D01*
X0159906Y0113809D01*
X0147115Y0126600D01*
X0159906Y0139391D01*
X0160500Y0140824D01*
X0160500Y0142376D01*
X0159906Y0143809D01*
X0158809Y0144906D01*
X0157376Y0145500D01*
X0155824Y0145500D01*
X0154391Y0144906D01*
X0139985Y0130500D01*
X0132193Y0130500D01*
X0132193Y0137376D01*
X0131599Y0138809D01*
X0130502Y0139906D01*
X0129069Y0140500D01*
X0127517Y0140500D01*
X0126084Y0139906D01*
X0124987Y0138809D01*
X0124600Y0137876D01*
X0124600Y0150357D01*
X0128811Y0154569D01*
X0129655Y0155412D01*
X0130112Y0156515D01*
X0130112Y0196657D01*
X0130841Y0196657D01*
X0131086Y0196901D01*
X0131086Y0140824D01*
X0131680Y0139391D01*
X0132777Y0138294D01*
X0134210Y0137700D01*
X0135762Y0137700D01*
X0137195Y0138294D01*
X0138292Y0139391D01*
X0138886Y0140824D01*
X0138886Y0152700D01*
X0171257Y0152700D01*
X0183600Y0140357D01*
X0183600Y0112843D01*
X0169600Y0098843D01*
X0169600Y0105357D01*
X0177265Y0113022D01*
X0177312Y0113022D01*
X0178627Y0113567D01*
X0179633Y0114573D01*
X0180178Y0115888D01*
X0180178Y0117312D01*
X0179633Y0118627D01*
X0178627Y0119633D01*
X0177312Y0120178D01*
X0175888Y0120178D01*
X0174573Y0119633D01*
X0173567Y0118627D01*
X0173022Y0117312D01*
X0173022Y0117265D01*
X0164057Y0108299D01*
X0163600Y0107197D01*
X0163600Y0077843D01*
X0159057Y0073299D01*
X0158600Y0072197D01*
X0158600Y0046003D01*
X0159057Y0044901D01*
X0159901Y0044057D01*
X0164057Y0039901D01*
X0164901Y0039057D01*
X0166003Y0038600D01*
X0168165Y0038600D01*
X0169715Y0037050D01*
X0173485Y0037050D01*
X0176150Y0039715D01*
X0176150Y0043485D01*
X0173485Y0046150D01*
X0169715Y0046150D01*
X0168165Y0044600D01*
X0167843Y0044600D01*
X0164600Y0047843D01*
X0164600Y0070357D01*
X0167050Y0072807D01*
X0167050Y0069715D01*
X0168600Y0068165D01*
X0168600Y0066661D01*
X0167477Y0066661D01*
X0166657Y0065841D01*
X0166657Y0058382D01*
X0167477Y0057562D01*
X0175723Y0057562D01*
X0176543Y0058382D01*
X0176543Y0065841D01*
X0175723Y0066661D01*
X0174600Y0066661D01*
X0174600Y0068165D01*
X0176150Y0069715D01*
X0176150Y0073485D01*
X0174600Y0075035D01*
X0174600Y0095357D01*
X0188299Y0109057D01*
X0188299Y0109057D01*
X0189143Y0109901D01*
X0189600Y0111003D01*
X0189600Y0133631D01*
X0189987Y0132698D01*
X0213294Y0109391D01*
X0217700Y0104985D01*
X0217700Y0080500D01*
X0216549Y0080500D01*
X0216549Y0084731D01*
X0215729Y0085551D01*
X0209228Y0085551D01*
X0211326Y0087649D01*
X0215729Y0087649D01*
X0216549Y0088469D01*
X0216549Y0095928D01*
X0215729Y0096748D01*
X0207471Y0096748D01*
X0206651Y0095928D01*
X0206651Y0095817D01*
X0206634Y0095879D01*
X0206424Y0096244D01*
X0206126Y0096542D01*
X0205761Y0096752D01*
X0205354Y0096861D01*
X0202200Y0096861D01*
X0202200Y0092712D01*
X0201000Y0092712D01*
X0201000Y0096861D01*
X0197846Y0096861D01*
X0197439Y0096752D01*
X0197074Y0096542D01*
X0196776Y0096244D01*
X0196628Y0095987D01*
X0196430Y0096330D01*
X0196132Y0096628D01*
X0195767Y0096839D01*
X0195360Y0096948D01*
X0192200Y0096948D01*
X0192200Y0092798D01*
X0196457Y0092798D01*
X0196457Y0092712D01*
X0201000Y0092712D01*
X0201000Y0091512D01*
X0196749Y0091512D01*
X0196749Y0091598D01*
X0192200Y0091598D01*
X0192200Y0087449D01*
X0195360Y0087449D01*
X0195767Y0087558D01*
X0196132Y0087769D01*
X0196430Y0088066D01*
X0196578Y0088323D01*
X0196776Y0087980D01*
X0197074Y0087682D01*
X0197439Y0087471D01*
X0197846Y0087362D01*
X0201000Y0087362D01*
X0201000Y0091512D01*
X0202200Y0091512D01*
X0202200Y0087362D01*
X0203685Y0087362D01*
X0201961Y0085638D01*
X0197477Y0085638D01*
X0196657Y0084818D01*
X0196657Y0077359D01*
X0197477Y0076539D01*
X0198600Y0076539D01*
X0198600Y0075035D01*
X0197050Y0073485D01*
X0197050Y0069715D01*
X0199715Y0067050D01*
X0198629Y0068136D02*
X0194571Y0068136D01*
X0193485Y0067050D02*
X0196150Y0069715D01*
X0196150Y0073485D01*
X0194600Y0075035D01*
X0194600Y0076452D01*
X0195729Y0076452D01*
X0196549Y0077272D01*
X0196549Y0084731D01*
X0195729Y0085551D01*
X0191326Y0085551D01*
X0189428Y0087449D01*
X0191000Y0087449D01*
X0191000Y0091598D01*
X0192200Y0091598D01*
X0192200Y0092798D01*
X0191000Y0092798D01*
X0191000Y0096948D01*
X0187840Y0096948D01*
X0187433Y0096839D01*
X0187068Y0096628D01*
X0186770Y0096330D01*
X0186560Y0095966D01*
X0186530Y0095855D01*
X0185723Y0096661D01*
X0177477Y0096661D01*
X0176657Y0095841D01*
X0176657Y0088382D01*
X0177477Y0087562D01*
X0181961Y0087562D01*
X0183885Y0085638D01*
X0177477Y0085638D01*
X0176657Y0084818D01*
X0176657Y0077359D01*
X0177477Y0076539D01*
X0178600Y0076539D01*
X0178600Y0075035D01*
X0177050Y0073485D01*
X0177050Y0069715D01*
X0178600Y0068165D01*
X0178600Y0066748D01*
X0177471Y0066748D01*
X0176651Y0065928D01*
X0176651Y0058469D01*
X0177471Y0057649D01*
X0185729Y0057649D01*
X0186549Y0058469D01*
X0186549Y0065928D01*
X0185729Y0066748D01*
X0184600Y0066748D01*
X0184600Y0068165D01*
X0186150Y0069715D01*
X0186150Y0073485D01*
X0184600Y0075035D01*
X0184600Y0076539D01*
X0185723Y0076539D01*
X0186543Y0077359D01*
X0186543Y0082980D01*
X0186651Y0082872D01*
X0186651Y0077272D01*
X0187471Y0076452D01*
X0188600Y0076452D01*
X0188600Y0075035D01*
X0187050Y0073485D01*
X0187050Y0069715D01*
X0189715Y0067050D01*
X0193485Y0067050D01*
X0195769Y0069334D02*
X0197431Y0069334D01*
X0197050Y0070533D02*
X0196150Y0070533D01*
X0196150Y0071732D02*
X0197050Y0071732D01*
X0197050Y0072930D02*
X0196150Y0072930D01*
X0195506Y0074129D02*
X0197694Y0074129D01*
X0198600Y0075327D02*
X0194600Y0075327D01*
X0195803Y0076526D02*
X0198600Y0076526D01*
X0196657Y0077724D02*
X0196549Y0077724D01*
X0196549Y0078923D02*
X0196657Y0078923D01*
X0196657Y0080121D02*
X0196549Y0080121D01*
X0196549Y0081320D02*
X0196657Y0081320D01*
X0196657Y0082518D02*
X0196549Y0082518D01*
X0196549Y0083717D02*
X0196657Y0083717D01*
X0196754Y0084915D02*
X0196365Y0084915D01*
X0190763Y0086114D02*
X0202437Y0086114D01*
X0203635Y0087312D02*
X0189565Y0087312D01*
X0191000Y0088511D02*
X0192200Y0088511D01*
X0192200Y0089709D02*
X0191000Y0089709D01*
X0191000Y0090908D02*
X0192200Y0090908D01*
X0192200Y0092106D02*
X0201000Y0092106D01*
X0201000Y0090908D02*
X0202200Y0090908D01*
X0202200Y0089709D02*
X0201000Y0089709D01*
X0201000Y0088511D02*
X0202200Y0088511D01*
X0202200Y0093305D02*
X0201000Y0093305D01*
X0201000Y0094503D02*
X0202200Y0094503D01*
X0202200Y0095702D02*
X0201000Y0095702D01*
X0195538Y0096900D02*
X0217700Y0096900D01*
X0217700Y0095702D02*
X0216549Y0095702D01*
X0216549Y0094503D02*
X0217700Y0094503D01*
X0217700Y0093305D02*
X0216549Y0093305D01*
X0216549Y0092106D02*
X0217700Y0092106D01*
X0217700Y0090908D02*
X0216549Y0090908D01*
X0216549Y0089709D02*
X0217700Y0089709D01*
X0217700Y0088511D02*
X0216549Y0088511D01*
X0217700Y0087312D02*
X0210989Y0087312D01*
X0209791Y0086114D02*
X0217700Y0086114D01*
X0217700Y0084915D02*
X0216365Y0084915D01*
X0216549Y0083717D02*
X0217700Y0083717D01*
X0217700Y0082518D02*
X0216549Y0082518D01*
X0216549Y0081320D02*
X0217700Y0081320D01*
X0225500Y0081320D02*
X0241134Y0081320D01*
X0241134Y0082518D02*
X0225500Y0082518D01*
X0225500Y0083717D02*
X0241134Y0083717D01*
X0241134Y0084915D02*
X0225500Y0084915D01*
X0225500Y0086114D02*
X0241134Y0086114D01*
X0241134Y0087312D02*
X0225500Y0087312D01*
X0225500Y0088511D02*
X0241134Y0088511D01*
X0241134Y0089709D02*
X0225500Y0089709D01*
X0225500Y0090908D02*
X0241134Y0090908D01*
X0241134Y0092106D02*
X0225500Y0092106D01*
X0225500Y0093305D02*
X0241134Y0093305D01*
X0241134Y0094503D02*
X0225500Y0094503D01*
X0225500Y0095702D02*
X0241134Y0095702D01*
X0241134Y0096900D02*
X0225500Y0096900D01*
X0225500Y0098099D02*
X0241134Y0098099D01*
X0241134Y0099297D02*
X0225500Y0099297D01*
X0225500Y0100496D02*
X0241134Y0100496D01*
X0241134Y0101694D02*
X0225500Y0101694D01*
X0225500Y0102893D02*
X0241134Y0102893D01*
X0241134Y0104091D02*
X0225500Y0104091D01*
X0225500Y0105290D02*
X0241134Y0105290D01*
X0241134Y0106488D02*
X0225500Y0106488D01*
X0225371Y0107687D02*
X0241134Y0107687D01*
X0241134Y0108885D02*
X0224830Y0108885D01*
X0223632Y0110084D02*
X0241134Y0110084D01*
X0241134Y0111282D02*
X0222433Y0111282D01*
X0221235Y0112481D02*
X0241134Y0112481D01*
X0241134Y0113679D02*
X0220500Y0113679D01*
X0220500Y0114878D02*
X0241134Y0114878D01*
X0241134Y0116076D02*
X0220500Y0116076D01*
X0220500Y0117275D02*
X0241134Y0117275D01*
X0241134Y0118473D02*
X0220500Y0118473D01*
X0220500Y0119672D02*
X0241134Y0119672D01*
X0241134Y0120870D02*
X0220500Y0120870D01*
X0220500Y0122069D02*
X0241134Y0122069D01*
X0241134Y0123268D02*
X0220500Y0123268D01*
X0220500Y0124466D02*
X0241134Y0124466D01*
X0241134Y0125665D02*
X0220500Y0125665D01*
X0220500Y0126863D02*
X0241134Y0126863D01*
X0241134Y0128062D02*
X0220500Y0128062D01*
X0220500Y0129260D02*
X0241134Y0129260D01*
X0241134Y0130459D02*
X0220500Y0130459D01*
X0220500Y0131657D02*
X0241134Y0131657D01*
X0241134Y0132856D02*
X0220500Y0132856D01*
X0220500Y0134054D02*
X0241134Y0134054D01*
X0241134Y0135253D02*
X0220500Y0135253D01*
X0220500Y0136451D02*
X0241134Y0136451D01*
X0241134Y0137650D02*
X0220500Y0137650D01*
X0220500Y0138848D02*
X0241134Y0138848D01*
X0241134Y0140047D02*
X0220500Y0140047D01*
X0220500Y0141245D02*
X0241134Y0141245D01*
X0241134Y0142444D02*
X0220500Y0142444D01*
X0220500Y0143642D02*
X0241134Y0143642D01*
X0241134Y0144841D02*
X0220500Y0144841D01*
X0220500Y0146039D02*
X0241134Y0146039D01*
X0241134Y0147238D02*
X0220500Y0147238D01*
X0220500Y0148436D02*
X0241134Y0148436D01*
X0241134Y0149635D02*
X0220500Y0149635D01*
X0220500Y0150833D02*
X0241134Y0150833D01*
X0241134Y0152032D02*
X0220500Y0152032D01*
X0220500Y0153230D02*
X0241134Y0153230D01*
X0241134Y0154429D02*
X0220500Y0154429D01*
X0220500Y0155627D02*
X0241134Y0155627D01*
X0241134Y0156826D02*
X0220500Y0156826D01*
X0220500Y0158024D02*
X0241134Y0158024D01*
X0241134Y0159223D02*
X0220500Y0159223D01*
X0220500Y0160421D02*
X0241134Y0160421D01*
X0241134Y0161620D02*
X0220500Y0161620D01*
X0220500Y0162818D02*
X0241134Y0162818D01*
X0241134Y0164017D02*
X0220500Y0164017D01*
X0220500Y0165215D02*
X0241134Y0165215D01*
X0241134Y0166414D02*
X0220500Y0166414D01*
X0220500Y0167612D02*
X0241134Y0167612D01*
X0241134Y0168811D02*
X0220500Y0168811D01*
X0220500Y0170009D02*
X0241134Y0170009D01*
X0241134Y0171208D02*
X0220500Y0171208D01*
X0220500Y0172406D02*
X0241134Y0172406D01*
X0241134Y0173605D02*
X0220500Y0173605D01*
X0220500Y0174803D02*
X0241134Y0174803D01*
X0241134Y0176002D02*
X0220500Y0176002D01*
X0221478Y0177201D02*
X0241134Y0177201D01*
X0241134Y0178399D02*
X0221549Y0178399D01*
X0221549Y0179598D02*
X0241134Y0179598D01*
X0241134Y0180796D02*
X0221549Y0180796D01*
X0221549Y0181995D02*
X0241134Y0181995D01*
X0241134Y0183193D02*
X0221549Y0183193D01*
X0221549Y0184392D02*
X0241134Y0184392D01*
X0241134Y0185590D02*
X0196748Y0185590D01*
X0196748Y0184971D02*
X0196748Y0191233D01*
X0198809Y0193294D01*
X0199906Y0194391D01*
X0200500Y0195824D01*
X0200500Y0211518D01*
X0201000Y0212725D01*
X0201000Y0220475D01*
X0200330Y0222092D01*
X0199092Y0223330D01*
X0197475Y0224000D01*
X0195725Y0224000D01*
X0194108Y0223330D01*
X0192870Y0222092D01*
X0192200Y0220475D01*
X0192200Y0212725D01*
X0192700Y0211518D01*
X0192700Y0198215D01*
X0188892Y0194408D01*
X0188744Y0194049D01*
X0188469Y0194049D01*
X0187649Y0193229D01*
X0187649Y0184971D01*
X0188469Y0184151D01*
X0195928Y0184151D01*
X0196748Y0184971D01*
X0196169Y0184392D02*
X0211651Y0184392D01*
X0211651Y0183193D02*
X0168709Y0183193D01*
X0169907Y0184392D02*
X0177031Y0184392D01*
X0177272Y0184151D02*
X0184731Y0184151D01*
X0185551Y0184971D01*
X0185551Y0193229D01*
X0184731Y0194049D01*
X0181568Y0194049D01*
X0180711Y0194906D01*
X0179277Y0195500D01*
X0170824Y0195500D01*
X0169391Y0194906D01*
X0168294Y0193809D01*
X0153294Y0178809D01*
X0152700Y0177376D01*
X0152700Y0175824D01*
X0153294Y0174391D01*
X0154391Y0173294D01*
X0155824Y0172700D01*
X0157376Y0172700D01*
X0158809Y0173294D01*
X0173215Y0187700D01*
X0176452Y0187700D01*
X0176452Y0184971D01*
X0177272Y0184151D01*
X0176452Y0185590D02*
X0171106Y0185590D01*
X0172304Y0186789D02*
X0176452Y0186789D01*
X0168464Y0193980D02*
X0158712Y0193980D01*
X0158712Y0195178D02*
X0170047Y0195178D01*
X0167266Y0192781D02*
X0158712Y0192781D01*
X0158712Y0192298D02*
X0158712Y0196633D01*
X0158603Y0197040D01*
X0158392Y0197405D01*
X0158094Y0197703D01*
X0157729Y0197914D01*
X0157322Y0198023D01*
X0152200Y0198023D01*
X0152200Y0192298D01*
X0158712Y0192298D01*
X0158712Y0191098D02*
X0152200Y0191098D01*
X0152200Y0185374D01*
X0157322Y0185374D01*
X0157729Y0185483D01*
X0158094Y0185694D01*
X0158392Y0185992D01*
X0158603Y0186356D01*
X0158712Y0186763D01*
X0158712Y0191098D01*
X0158712Y0190384D02*
X0164869Y0190384D01*
X0166067Y0191583D02*
X0152200Y0191583D01*
X0152200Y0191098D02*
X0152200Y0192298D01*
X0151000Y0192298D01*
X0151000Y0191098D01*
X0152200Y0191098D01*
X0152200Y0190384D02*
X0151000Y0190384D01*
X0151000Y0191098D02*
X0151000Y0185374D01*
X0145878Y0185374D01*
X0145471Y0185483D01*
X0145106Y0185694D01*
X0144808Y0185992D01*
X0144597Y0186356D01*
X0144488Y0186763D01*
X0144488Y0191098D01*
X0151000Y0191098D01*
X0151000Y0191583D02*
X0138886Y0191583D01*
X0138886Y0192781D02*
X0144488Y0192781D01*
X0144488Y0192298D02*
X0144488Y0196633D01*
X0144597Y0197040D01*
X0144808Y0197405D01*
X0145106Y0197703D01*
X0145471Y0197914D01*
X0145878Y0198023D01*
X0151000Y0198023D01*
X0151000Y0192298D01*
X0144488Y0192298D01*
X0144488Y0193980D02*
X0138886Y0193980D01*
X0138886Y0195178D02*
X0144488Y0195178D01*
X0144488Y0196377D02*
X0138886Y0196377D01*
X0138886Y0197575D02*
X0144978Y0197575D01*
X0151000Y0197575D02*
X0152200Y0197575D01*
X0152200Y0196377D02*
X0151000Y0196377D01*
X0151000Y0195178D02*
X0152200Y0195178D01*
X0152200Y0193980D02*
X0151000Y0193980D01*
X0151000Y0192781D02*
X0152200Y0192781D01*
X0152200Y0189186D02*
X0151000Y0189186D01*
X0151000Y0187987D02*
X0152200Y0187987D01*
X0152200Y0186789D02*
X0151000Y0186789D01*
X0151000Y0185590D02*
X0152200Y0185590D01*
X0156479Y0181995D02*
X0138886Y0181995D01*
X0138886Y0183193D02*
X0157678Y0183193D01*
X0158876Y0184392D02*
X0138886Y0184392D01*
X0138886Y0185590D02*
X0145285Y0185590D01*
X0144488Y0186789D02*
X0138886Y0186789D01*
X0138886Y0187987D02*
X0144488Y0187987D01*
X0144488Y0189186D02*
X0138886Y0189186D01*
X0138886Y0190384D02*
X0144488Y0190384D01*
X0138886Y0198774D02*
X0192700Y0198774D01*
X0192700Y0199972D02*
X0138886Y0199972D01*
X0138886Y0201171D02*
X0192700Y0201171D01*
X0192700Y0202369D02*
X0138886Y0202369D01*
X0138886Y0203568D02*
X0192700Y0203568D01*
X0192700Y0204766D02*
X0138886Y0204766D01*
X0138886Y0205965D02*
X0192700Y0205965D01*
X0192700Y0207163D02*
X0138886Y0207163D01*
X0138886Y0208362D02*
X0192700Y0208362D01*
X0192700Y0209560D02*
X0188345Y0209560D01*
X0189092Y0209870D02*
X0187475Y0209200D01*
X0185725Y0209200D01*
X0184108Y0209870D01*
X0182870Y0211108D01*
X0182200Y0212725D01*
X0182200Y0220475D01*
X0182870Y0222092D01*
X0184108Y0223330D01*
X0185725Y0224000D01*
X0187475Y0224000D01*
X0189092Y0223330D01*
X0190330Y0222092D01*
X0191000Y0220475D01*
X0191000Y0212725D01*
X0190330Y0211108D01*
X0189092Y0209870D01*
X0189981Y0210759D02*
X0192700Y0210759D01*
X0192518Y0211957D02*
X0190682Y0211957D01*
X0191000Y0213156D02*
X0192200Y0213156D01*
X0192200Y0214354D02*
X0191000Y0214354D01*
X0191000Y0215553D02*
X0192200Y0215553D01*
X0192200Y0216751D02*
X0191000Y0216751D01*
X0191000Y0217950D02*
X0192200Y0217950D01*
X0192200Y0219148D02*
X0191000Y0219148D01*
X0191000Y0220347D02*
X0192200Y0220347D01*
X0192643Y0221545D02*
X0190557Y0221545D01*
X0189679Y0222744D02*
X0193521Y0222744D01*
X0195586Y0223942D02*
X0187614Y0223942D01*
X0185586Y0223942D02*
X0177614Y0223942D01*
X0177475Y0224000D02*
X0175725Y0224000D01*
X0174108Y0223330D01*
X0172870Y0222092D01*
X0172200Y0220475D01*
X0172200Y0212725D01*
X0172870Y0211108D01*
X0174108Y0209870D01*
X0175725Y0209200D01*
X0177475Y0209200D01*
X0179092Y0209870D01*
X0180330Y0211108D01*
X0181000Y0212725D01*
X0181000Y0220475D01*
X0180330Y0222092D01*
X0179092Y0223330D01*
X0177475Y0224000D01*
X0175586Y0223942D02*
X0127614Y0223942D01*
X0125586Y0223942D02*
X0118121Y0223942D01*
X0118366Y0223863D02*
X0117677Y0224087D01*
X0117000Y0224194D01*
X0117000Y0217000D01*
X0121200Y0217000D01*
X0121200Y0219962D01*
X0121087Y0220677D01*
X0120863Y0221366D01*
X0120534Y0222011D01*
X0120109Y0222597D01*
X0119597Y0223109D01*
X0119011Y0223534D01*
X0118366Y0223863D01*
X0117000Y0223942D02*
X0116200Y0223942D01*
X0116200Y0224194D02*
X0115523Y0224087D01*
X0114834Y0223863D01*
X0114189Y0223534D01*
X0113603Y0223109D01*
X0113091Y0222597D01*
X0112666Y0222011D01*
X0112337Y0221366D01*
X0112113Y0220677D01*
X0112000Y0219962D01*
X0112000Y0217000D01*
X0116200Y0217000D01*
X0116200Y0224194D01*
X0115079Y0223942D02*
X0108121Y0223942D01*
X0108366Y0223863D02*
X0107677Y0224087D01*
X0107000Y0224194D01*
X0107000Y0217000D01*
X0111200Y0217000D01*
X0111200Y0219962D01*
X0111087Y0220677D01*
X0110863Y0221366D01*
X0110534Y0222011D01*
X0110109Y0222597D01*
X0109597Y0223109D01*
X0109011Y0223534D01*
X0108366Y0223863D01*
X0107000Y0223942D02*
X0106200Y0223942D01*
X0106200Y0224194D02*
X0105523Y0224087D01*
X0104834Y0223863D01*
X0104189Y0223534D01*
X0103603Y0223109D01*
X0103091Y0222597D01*
X0102666Y0222011D01*
X0102337Y0221366D01*
X0102113Y0220677D01*
X0102000Y0219962D01*
X0102000Y0217000D01*
X0106200Y0217000D01*
X0106200Y0224194D01*
X0105079Y0223942D02*
X0097614Y0223942D01*
X0097475Y0224000D02*
X0095725Y0224000D01*
X0094108Y0223330D01*
X0092870Y0222092D01*
X0092200Y0220475D01*
X0092200Y0212725D01*
X0092400Y0212242D01*
X0092400Y0206543D01*
X0092359Y0206543D01*
X0091539Y0205723D01*
X0091539Y0201293D01*
X0085372Y0195126D01*
X0080508Y0195126D01*
X0079688Y0194306D01*
X0079688Y0183697D01*
X0080508Y0182877D01*
X0092692Y0182877D01*
X0093512Y0183697D01*
X0093512Y0194306D01*
X0093274Y0194543D01*
X0095388Y0196657D01*
X0099818Y0196657D01*
X0100638Y0197477D01*
X0100638Y0200373D01*
X0100800Y0200765D01*
X0100800Y0212242D01*
X0101000Y0212725D01*
X0101000Y0220475D01*
X0100330Y0222092D01*
X0099092Y0223330D01*
X0097475Y0224000D01*
X0095586Y0223942D02*
X0071200Y0223942D01*
X0071200Y0222744D02*
X0093521Y0222744D01*
X0092643Y0221545D02*
X0071200Y0221545D01*
X0071200Y0220347D02*
X0092200Y0220347D01*
X0092200Y0219148D02*
X0071200Y0219148D01*
X0071200Y0217950D02*
X0092200Y0217950D01*
X0092200Y0216751D02*
X0071200Y0216751D01*
X0071200Y0215553D02*
X0092200Y0215553D01*
X0092200Y0214354D02*
X0071200Y0214354D01*
X0071200Y0213156D02*
X0092200Y0213156D01*
X0092400Y0211957D02*
X0071200Y0211957D01*
X0071200Y0210759D02*
X0092400Y0210759D01*
X0092400Y0209560D02*
X0071200Y0209560D01*
X0071200Y0208362D02*
X0092400Y0208362D01*
X0092400Y0207163D02*
X0071200Y0207163D01*
X0071200Y0205965D02*
X0091780Y0205965D01*
X0091539Y0204766D02*
X0071200Y0204766D01*
X0071200Y0203568D02*
X0091539Y0203568D01*
X0091539Y0202369D02*
X0071200Y0202369D01*
X0071200Y0201171D02*
X0091416Y0201171D01*
X0090218Y0199972D02*
X0071200Y0199972D01*
X0071200Y0198774D02*
X0089019Y0198774D01*
X0087821Y0197575D02*
X0071200Y0197575D01*
X0071200Y0196377D02*
X0086622Y0196377D01*
X0085424Y0195178D02*
X0071200Y0195178D01*
X0071200Y0193980D02*
X0079688Y0193980D01*
X0079688Y0192781D02*
X0071200Y0192781D01*
X0071200Y0191583D02*
X0079688Y0191583D01*
X0079688Y0190384D02*
X0071200Y0190384D01*
X0071200Y0189186D02*
X0079688Y0189186D01*
X0079688Y0187987D02*
X0071200Y0187987D01*
X0071200Y0186789D02*
X0079688Y0186789D01*
X0079688Y0185590D02*
X0071200Y0185590D01*
X0071200Y0184392D02*
X0079688Y0184392D01*
X0080192Y0183193D02*
X0071200Y0183193D01*
X0071200Y0181995D02*
X0124112Y0181995D01*
X0124112Y0183193D02*
X0093008Y0183193D01*
X0093512Y0184392D02*
X0124112Y0184392D01*
X0124112Y0185590D02*
X0093512Y0185590D01*
X0093512Y0186789D02*
X0124112Y0186789D01*
X0124112Y0187987D02*
X0093512Y0187987D01*
X0093512Y0189186D02*
X0124112Y0189186D01*
X0124112Y0190384D02*
X0093512Y0190384D01*
X0093512Y0191583D02*
X0124112Y0191583D01*
X0124112Y0192781D02*
X0093512Y0192781D01*
X0093512Y0193980D02*
X0124112Y0193980D01*
X0124112Y0195178D02*
X0093909Y0195178D01*
X0095108Y0196377D02*
X0124112Y0196377D01*
X0122562Y0197575D02*
X0120765Y0197575D01*
X0120729Y0197439D02*
X0120838Y0197846D01*
X0120838Y0201000D01*
X0116688Y0201000D01*
X0116688Y0196457D01*
X0119448Y0196457D01*
X0119855Y0196566D01*
X0120220Y0196776D01*
X0120518Y0197074D01*
X0120729Y0197439D01*
X0120838Y0198774D02*
X0122562Y0198774D01*
X0122562Y0199972D02*
X0120838Y0199972D01*
X0122562Y0201171D02*
X0116688Y0201171D01*
X0116688Y0201000D02*
X0116688Y0202200D01*
X0115488Y0202200D01*
X0115488Y0201000D01*
X0107712Y0201000D01*
X0107712Y0202200D01*
X0111861Y0202200D01*
X0115488Y0202200D01*
X0115488Y0206743D01*
X0112728Y0206743D01*
X0112321Y0206634D01*
X0111956Y0206424D01*
X0111658Y0206126D01*
X0111600Y0206025D01*
X0111542Y0206126D01*
X0111244Y0206424D01*
X0110879Y0206634D01*
X0110472Y0206743D01*
X0107712Y0206743D01*
X0107712Y0202200D01*
X0106512Y0202200D01*
X0106512Y0206743D01*
X0103752Y0206743D01*
X0103345Y0206634D01*
X0102980Y0206424D01*
X0102682Y0206126D01*
X0102471Y0205761D01*
X0102362Y0205354D01*
X0102362Y0202200D01*
X0106512Y0202200D01*
X0106512Y0201000D01*
X0107712Y0201000D01*
X0107712Y0196457D01*
X0110472Y0196457D01*
X0110879Y0196566D01*
X0111244Y0196776D01*
X0111542Y0197074D01*
X0111600Y0197175D01*
X0111658Y0197074D01*
X0111956Y0196776D01*
X0112321Y0196566D01*
X0112728Y0196457D01*
X0115488Y0196457D01*
X0115488Y0201000D01*
X0116688Y0201000D01*
X0116688Y0199972D02*
X0115488Y0199972D01*
X0115488Y0198774D02*
X0116688Y0198774D01*
X0116688Y0197575D02*
X0115488Y0197575D01*
X0115488Y0201171D02*
X0107712Y0201171D01*
X0107712Y0202369D02*
X0106512Y0202369D01*
X0106512Y0201171D02*
X0100800Y0201171D01*
X0100800Y0202369D02*
X0102362Y0202369D01*
X0102362Y0203568D02*
X0100800Y0203568D01*
X0100800Y0204766D02*
X0102362Y0204766D01*
X0102589Y0205965D02*
X0100800Y0205965D01*
X0100800Y0207163D02*
X0123212Y0207163D01*
X0123212Y0208362D02*
X0100800Y0208362D01*
X0100800Y0209560D02*
X0104396Y0209560D01*
X0104189Y0209666D02*
X0104834Y0209337D01*
X0105523Y0209113D01*
X0106200Y0209006D01*
X0106200Y0216200D01*
X0107000Y0216200D01*
X0107000Y0217000D01*
X0106200Y0217000D01*
X0106200Y0216200D01*
X0102000Y0216200D01*
X0102000Y0213238D01*
X0102113Y0212523D01*
X0102337Y0211834D01*
X0102666Y0211189D01*
X0103091Y0210603D01*
X0103603Y0210091D01*
X0104189Y0209666D01*
X0102978Y0210759D02*
X0100800Y0210759D01*
X0100800Y0211957D02*
X0102297Y0211957D01*
X0102013Y0213156D02*
X0101000Y0213156D01*
X0101000Y0214354D02*
X0102000Y0214354D01*
X0102000Y0215553D02*
X0101000Y0215553D01*
X0101000Y0216751D02*
X0106200Y0216751D01*
X0107000Y0216751D02*
X0116200Y0216751D01*
X0116200Y0217000D02*
X0116200Y0216200D01*
X0117000Y0216200D01*
X0117000Y0217000D01*
X0116200Y0217000D01*
X0116200Y0216200D02*
X0112000Y0216200D01*
X0112000Y0213238D01*
X0112113Y0212523D01*
X0112337Y0211834D01*
X0112666Y0211189D01*
X0113091Y0210603D01*
X0113603Y0210091D01*
X0114189Y0209666D01*
X0114834Y0209337D01*
X0115523Y0209113D01*
X0116200Y0209006D01*
X0116200Y0216200D01*
X0116200Y0215553D02*
X0117000Y0215553D01*
X0117000Y0216200D02*
X0117000Y0209006D01*
X0117677Y0209113D01*
X0118366Y0209337D01*
X0119011Y0209666D01*
X0119597Y0210091D01*
X0120109Y0210603D01*
X0120534Y0211189D01*
X0120863Y0211834D01*
X0121087Y0212523D01*
X0121200Y0213238D01*
X0121200Y0216200D01*
X0117000Y0216200D01*
X0117000Y0216751D02*
X0122200Y0216751D01*
X0122200Y0215553D02*
X0121200Y0215553D01*
X0121200Y0214354D02*
X0122200Y0214354D01*
X0122200Y0213156D02*
X0121187Y0213156D01*
X0120903Y0211957D02*
X0122518Y0211957D01*
X0123212Y0210759D02*
X0120222Y0210759D01*
X0118804Y0209560D02*
X0123212Y0209560D01*
X0122804Y0205965D02*
X0120611Y0205965D01*
X0120518Y0206126D02*
X0120220Y0206424D01*
X0119855Y0206634D01*
X0119448Y0206743D01*
X0116688Y0206743D01*
X0116688Y0202200D01*
X0120838Y0202200D01*
X0120838Y0205354D01*
X0120729Y0205761D01*
X0120518Y0206126D01*
X0120838Y0204766D02*
X0122562Y0204766D01*
X0122562Y0203568D02*
X0120838Y0203568D01*
X0120838Y0202369D02*
X0122562Y0202369D01*
X0116688Y0202369D02*
X0115488Y0202369D01*
X0115488Y0203568D02*
X0116688Y0203568D01*
X0116688Y0204766D02*
X0115488Y0204766D01*
X0115488Y0205965D02*
X0116688Y0205965D01*
X0117000Y0209560D02*
X0116200Y0209560D01*
X0116200Y0210759D02*
X0117000Y0210759D01*
X0117000Y0211957D02*
X0116200Y0211957D01*
X0116200Y0213156D02*
X0117000Y0213156D01*
X0117000Y0214354D02*
X0116200Y0214354D01*
X0112000Y0214354D02*
X0111200Y0214354D01*
X0111200Y0213238D02*
X0111200Y0216200D01*
X0107000Y0216200D01*
X0107000Y0209006D01*
X0107677Y0209113D01*
X0108366Y0209337D01*
X0109011Y0209666D01*
X0109597Y0210091D01*
X0110109Y0210603D01*
X0110534Y0211189D01*
X0110863Y0211834D01*
X0111087Y0212523D01*
X0111200Y0213238D01*
X0111187Y0213156D02*
X0112013Y0213156D01*
X0112297Y0211957D02*
X0110903Y0211957D01*
X0110222Y0210759D02*
X0112978Y0210759D01*
X0114396Y0209560D02*
X0108804Y0209560D01*
X0107000Y0209560D02*
X0106200Y0209560D01*
X0106200Y0210759D02*
X0107000Y0210759D01*
X0107000Y0211957D02*
X0106200Y0211957D01*
X0106200Y0213156D02*
X0107000Y0213156D01*
X0107000Y0214354D02*
X0106200Y0214354D01*
X0106200Y0215553D02*
X0107000Y0215553D01*
X0107000Y0217950D02*
X0106200Y0217950D01*
X0106200Y0219148D02*
X0107000Y0219148D01*
X0107000Y0220347D02*
X0106200Y0220347D01*
X0106200Y0221545D02*
X0107000Y0221545D01*
X0107000Y0222744D02*
X0106200Y0222744D01*
X0103239Y0222744D02*
X0099679Y0222744D01*
X0100557Y0221545D02*
X0102429Y0221545D01*
X0102061Y0220347D02*
X0101000Y0220347D01*
X0101000Y0219148D02*
X0102000Y0219148D01*
X0102000Y0217950D02*
X0101000Y0217950D01*
X0109961Y0222744D02*
X0113239Y0222744D01*
X0112429Y0221545D02*
X0110771Y0221545D01*
X0111139Y0220347D02*
X0112061Y0220347D01*
X0112000Y0219148D02*
X0111200Y0219148D01*
X0111200Y0217950D02*
X0112000Y0217950D01*
X0112000Y0215553D02*
X0111200Y0215553D01*
X0116200Y0217950D02*
X0117000Y0217950D01*
X0117000Y0219148D02*
X0116200Y0219148D01*
X0116200Y0220347D02*
X0117000Y0220347D01*
X0117000Y0221545D02*
X0116200Y0221545D01*
X0116200Y0222744D02*
X0117000Y0222744D01*
X0119961Y0222744D02*
X0123521Y0222744D01*
X0122643Y0221545D02*
X0120771Y0221545D01*
X0121139Y0220347D02*
X0122200Y0220347D01*
X0122200Y0219148D02*
X0121200Y0219148D01*
X0121200Y0217950D02*
X0122200Y0217950D01*
X0129679Y0222744D02*
X0173521Y0222744D01*
X0172643Y0221545D02*
X0158512Y0221545D01*
X0158512Y0220347D02*
X0172200Y0220347D01*
X0172200Y0219148D02*
X0158512Y0219148D01*
X0158512Y0217950D02*
X0172200Y0217950D01*
X0172200Y0216751D02*
X0158512Y0216751D01*
X0158512Y0215553D02*
X0172200Y0215553D01*
X0172200Y0214354D02*
X0158512Y0214354D01*
X0158512Y0213156D02*
X0172200Y0213156D01*
X0172518Y0211957D02*
X0158512Y0211957D01*
X0158073Y0210759D02*
X0173219Y0210759D01*
X0174855Y0209560D02*
X0138886Y0209560D01*
X0138886Y0210759D02*
X0145127Y0210759D01*
X0144688Y0211957D02*
X0138886Y0211957D01*
X0144688Y0221545D02*
X0130557Y0221545D01*
X0107712Y0205965D02*
X0106512Y0205965D01*
X0106512Y0204766D02*
X0107712Y0204766D01*
X0107712Y0203568D02*
X0106512Y0203568D01*
X0106512Y0201000D02*
X0102362Y0201000D01*
X0102362Y0197846D01*
X0102471Y0197439D01*
X0102682Y0197074D01*
X0102980Y0196776D01*
X0103345Y0196566D01*
X0103752Y0196457D01*
X0106512Y0196457D01*
X0106512Y0201000D01*
X0106512Y0199972D02*
X0107712Y0199972D01*
X0107712Y0198774D02*
X0106512Y0198774D01*
X0106512Y0197575D02*
X0107712Y0197575D01*
X0102435Y0197575D02*
X0100638Y0197575D01*
X0100638Y0198774D02*
X0102362Y0198774D01*
X0102362Y0199972D02*
X0100638Y0199972D01*
X0124112Y0180796D02*
X0071200Y0180796D01*
X0071200Y0179598D02*
X0124112Y0179598D01*
X0124112Y0178399D02*
X0071200Y0178399D01*
X0071200Y0177201D02*
X0124112Y0177201D01*
X0124112Y0176002D02*
X0071200Y0176002D01*
X0071200Y0174803D02*
X0124112Y0174803D01*
X0124112Y0173605D02*
X0071200Y0173605D01*
X0071200Y0172406D02*
X0124112Y0172406D01*
X0124112Y0171208D02*
X0071200Y0171208D01*
X0071200Y0170009D02*
X0079912Y0170009D01*
X0079808Y0169905D02*
X0079597Y0169540D01*
X0079488Y0169133D01*
X0079488Y0164798D01*
X0086000Y0164798D01*
X0086000Y0163598D01*
X0087200Y0163598D01*
X0087200Y0157874D01*
X0092322Y0157874D01*
X0092729Y0157983D01*
X0093094Y0158194D01*
X0093392Y0158492D01*
X0093603Y0158856D01*
X0093712Y0159263D01*
X0093712Y0163598D01*
X0087200Y0163598D01*
X0087200Y0164798D01*
X0093712Y0164798D01*
X0093712Y0169133D01*
X0093603Y0169540D01*
X0093392Y0169905D01*
X0093094Y0170203D01*
X0092729Y0170414D01*
X0092322Y0170523D01*
X0087200Y0170523D01*
X0087200Y0164798D01*
X0086000Y0164798D01*
X0086000Y0170523D01*
X0080878Y0170523D01*
X0080471Y0170414D01*
X0080106Y0170203D01*
X0079808Y0169905D01*
X0079488Y0168811D02*
X0071200Y0168811D01*
X0071200Y0167612D02*
X0079488Y0167612D01*
X0079488Y0166414D02*
X0071200Y0166414D01*
X0071200Y0165215D02*
X0079488Y0165215D01*
X0079488Y0163598D02*
X0079488Y0159263D01*
X0079597Y0158856D01*
X0079808Y0158492D01*
X0080106Y0158194D01*
X0080471Y0157983D01*
X0080878Y0157874D01*
X0086000Y0157874D01*
X0086000Y0163598D01*
X0079488Y0163598D01*
X0079488Y0162818D02*
X0071200Y0162818D01*
X0071200Y0161620D02*
X0079488Y0161620D01*
X0079488Y0160421D02*
X0071200Y0160421D01*
X0071200Y0159223D02*
X0079499Y0159223D01*
X0080399Y0158024D02*
X0071200Y0158024D01*
X0071200Y0156826D02*
X0122583Y0156826D01*
X0121385Y0155627D02*
X0071200Y0155627D01*
X0071200Y0154429D02*
X0120186Y0154429D01*
X0119028Y0153230D02*
X0071200Y0153230D01*
X0071200Y0152032D02*
X0118600Y0152032D01*
X0118600Y0150833D02*
X0071200Y0150833D01*
X0071200Y0149635D02*
X0118600Y0149635D01*
X0118600Y0148436D02*
X0071200Y0148436D01*
X0071200Y0147238D02*
X0118600Y0147238D01*
X0118600Y0146039D02*
X0071200Y0146039D01*
X0071200Y0144841D02*
X0118600Y0144841D01*
X0118600Y0143642D02*
X0071200Y0143642D01*
X0071200Y0142444D02*
X0118600Y0142444D01*
X0118600Y0141245D02*
X0071200Y0141245D01*
X0071200Y0140047D02*
X0118600Y0140047D01*
X0118600Y0138848D02*
X0071200Y0138848D01*
X0071200Y0137650D02*
X0118600Y0137650D01*
X0118600Y0136451D02*
X0071200Y0136451D01*
X0071200Y0135253D02*
X0118600Y0135253D01*
X0118600Y0134054D02*
X0071200Y0134054D01*
X0071200Y0132856D02*
X0118600Y0132856D01*
X0118600Y0131657D02*
X0071200Y0131657D01*
X0071200Y0130459D02*
X0105724Y0130459D01*
X0103745Y0129260D02*
X0071200Y0129260D01*
X0071200Y0128062D02*
X0102984Y0128062D01*
X0102700Y0126863D02*
X0071200Y0126863D01*
X0071200Y0125665D02*
X0102766Y0125665D01*
X0103263Y0124466D02*
X0071200Y0124466D01*
X0071200Y0123268D02*
X0104454Y0123268D01*
X0108567Y0118627D02*
X0109573Y0119633D01*
X0110888Y0120178D01*
X0112312Y0120178D01*
X0113627Y0119633D01*
X0114633Y0118627D01*
X0115178Y0117312D01*
X0115178Y0115888D01*
X0114633Y0114573D01*
X0113627Y0113567D01*
X0112312Y0113022D01*
X0112265Y0113022D01*
X0099600Y0100357D01*
X0099600Y0047843D01*
X0102843Y0044600D01*
X0103165Y0044600D01*
X0104715Y0046150D01*
X0108485Y0046150D01*
X0111150Y0043485D01*
X0111150Y0039715D01*
X0108485Y0037050D01*
X0104715Y0037050D01*
X0103165Y0038600D01*
X0101003Y0038600D01*
X0099901Y0039057D01*
X0099057Y0039901D01*
X0094057Y0044901D01*
X0093600Y0046003D01*
X0093600Y0047197D01*
X0093600Y0101003D01*
X0093600Y0102197D01*
X0094057Y0103299D01*
X0108022Y0117265D01*
X0108022Y0117312D01*
X0108567Y0118627D01*
X0108503Y0118473D02*
X0071200Y0118473D01*
X0071200Y0117275D02*
X0108022Y0117275D01*
X0106834Y0116076D02*
X0071200Y0116076D01*
X0071200Y0114878D02*
X0105635Y0114878D01*
X0104437Y0113679D02*
X0071200Y0113679D01*
X0071200Y0112481D02*
X0103238Y0112481D01*
X0102040Y0111282D02*
X0071200Y0111282D01*
X0071200Y0110084D02*
X0100841Y0110084D01*
X0099643Y0108885D02*
X0071200Y0108885D01*
X0071200Y0107687D02*
X0098444Y0107687D01*
X0097246Y0106488D02*
X0071200Y0106488D01*
X0071200Y0105290D02*
X0096047Y0105290D01*
X0094849Y0104091D02*
X0071200Y0104091D01*
X0071200Y0102893D02*
X0093888Y0102893D01*
X0093600Y0101694D02*
X0071200Y0101694D01*
X0071200Y0100496D02*
X0093600Y0100496D01*
X0093600Y0099297D02*
X0071200Y0099297D01*
X0071200Y0098099D02*
X0093600Y0098099D01*
X0093600Y0096900D02*
X0071200Y0096900D01*
X0071200Y0095702D02*
X0093600Y0095702D01*
X0093600Y0094503D02*
X0071200Y0094503D01*
X0071200Y0093305D02*
X0093600Y0093305D01*
X0093600Y0092106D02*
X0071200Y0092106D01*
X0071200Y0090908D02*
X0093600Y0090908D01*
X0093600Y0089709D02*
X0071200Y0089709D01*
X0071200Y0088511D02*
X0093600Y0088511D01*
X0093600Y0087312D02*
X0071200Y0087312D01*
X0071200Y0086114D02*
X0093600Y0086114D01*
X0093600Y0084915D02*
X0071200Y0084915D01*
X0071200Y0083717D02*
X0093600Y0083717D01*
X0093600Y0082518D02*
X0071200Y0082518D01*
X0071200Y0081320D02*
X0093600Y0081320D01*
X0093600Y0080121D02*
X0071200Y0080121D01*
X0071200Y0078923D02*
X0093600Y0078923D01*
X0093600Y0077724D02*
X0071200Y0077724D01*
X0071200Y0076526D02*
X0093600Y0076526D01*
X0093600Y0075327D02*
X0071200Y0075327D01*
X0071200Y0074129D02*
X0093600Y0074129D01*
X0093600Y0072930D02*
X0071200Y0072930D01*
X0071200Y0071732D02*
X0093600Y0071732D01*
X0093600Y0070533D02*
X0071200Y0070533D01*
X0071200Y0069334D02*
X0093600Y0069334D01*
X0093600Y0068136D02*
X0071200Y0068136D01*
X0071200Y0066937D02*
X0093600Y0066937D01*
X0093600Y0065739D02*
X0071200Y0065739D01*
X0071200Y0064540D02*
X0093600Y0064540D01*
X0093600Y0063342D02*
X0071200Y0063342D01*
X0071200Y0062143D02*
X0093600Y0062143D01*
X0093600Y0060945D02*
X0071200Y0060945D01*
X0071200Y0059746D02*
X0093600Y0059746D01*
X0093600Y0058548D02*
X0071200Y0058548D01*
X0071200Y0057349D02*
X0093600Y0057349D01*
X0093600Y0056151D02*
X0071200Y0056151D01*
X0071200Y0054952D02*
X0093600Y0054952D01*
X0093600Y0053754D02*
X0071200Y0053754D01*
X0071200Y0052555D02*
X0093600Y0052555D01*
X0093600Y0051357D02*
X0071200Y0051357D01*
X0071200Y0050158D02*
X0093600Y0050158D01*
X0093600Y0048960D02*
X0071200Y0048960D01*
X0071200Y0047761D02*
X0093600Y0047761D01*
X0093600Y0046563D02*
X0071200Y0046563D01*
X0071200Y0045364D02*
X0093865Y0045364D01*
X0094792Y0044166D02*
X0071200Y0044166D01*
X0071200Y0042967D02*
X0095990Y0042967D01*
X0097189Y0041769D02*
X0071200Y0041769D01*
X0071200Y0040570D02*
X0098387Y0040570D01*
X0099586Y0039372D02*
X0071200Y0039372D01*
X0071200Y0038173D02*
X0103592Y0038173D01*
X0102641Y0036749D02*
X0105402Y0036749D01*
X0105402Y0032200D01*
X0106602Y0032200D01*
X0110751Y0032200D01*
X0110751Y0035360D01*
X0110642Y0035767D01*
X0110431Y0036132D01*
X0110134Y0036430D01*
X0109769Y0036640D01*
X0109362Y0036749D01*
X0106602Y0036749D01*
X0106602Y0032200D01*
X0106602Y0031000D01*
X0110751Y0031000D01*
X0110751Y0027840D01*
X0110642Y0027433D01*
X0110431Y0027068D01*
X0110134Y0026770D01*
X0109769Y0026560D01*
X0109362Y0026451D01*
X0106602Y0026451D01*
X0106602Y0031000D01*
X0105402Y0031000D01*
X0105402Y0026451D01*
X0102641Y0026451D01*
X0102234Y0026560D01*
X0101870Y0026770D01*
X0101572Y0027068D01*
X0101361Y0027433D01*
X0101252Y0027840D01*
X0101252Y0031000D01*
X0105402Y0031000D01*
X0105402Y0032200D01*
X0101252Y0032200D01*
X0101252Y0035360D01*
X0101361Y0035767D01*
X0101572Y0036132D01*
X0101870Y0036430D01*
X0102234Y0036640D01*
X0102641Y0036749D01*
X0101366Y0035776D02*
X0071200Y0035776D01*
X0071200Y0034578D02*
X0101252Y0034578D01*
X0101252Y0033379D02*
X0071200Y0033379D01*
X0071200Y0032181D02*
X0105402Y0032181D01*
X0105402Y0033379D02*
X0106602Y0033379D01*
X0106602Y0032181D02*
X0112649Y0032181D01*
X0112649Y0033379D02*
X0110751Y0033379D01*
X0110751Y0034578D02*
X0112649Y0034578D01*
X0112649Y0035729D02*
X0112649Y0027471D01*
X0113469Y0026651D01*
X0120928Y0026651D01*
X0121546Y0027269D01*
X0121658Y0027074D01*
X0121956Y0026776D01*
X0122321Y0026566D01*
X0122728Y0026457D01*
X0125488Y0026457D01*
X0125488Y0031000D01*
X0126688Y0031000D01*
X0126688Y0026457D01*
X0129448Y0026457D01*
X0129855Y0026566D01*
X0130220Y0026776D01*
X0130518Y0027074D01*
X0130729Y0027439D01*
X0130838Y0027846D01*
X0130838Y0031000D01*
X0126688Y0031000D01*
X0126688Y0032200D01*
X0125488Y0032200D01*
X0125488Y0036743D01*
X0122728Y0036743D01*
X0122321Y0036634D01*
X0121956Y0036424D01*
X0121658Y0036126D01*
X0121546Y0035931D01*
X0120928Y0036549D01*
X0119600Y0036549D01*
X0119600Y0038165D01*
X0121150Y0039715D01*
X0121150Y0043485D01*
X0119600Y0045035D01*
X0119600Y0046452D01*
X0120729Y0046452D01*
X0121549Y0047272D01*
X0121549Y0048600D01*
X0127197Y0048600D01*
X0128299Y0049057D01*
X0137843Y0058600D01*
X0141651Y0058600D01*
X0141651Y0057272D01*
X0142471Y0056452D01*
X0150729Y0056452D01*
X0151549Y0057272D01*
X0151549Y0064731D01*
X0150729Y0065551D01*
X0142471Y0065551D01*
X0141651Y0064731D01*
X0141651Y0064600D01*
X0136003Y0064600D01*
X0134901Y0064143D01*
X0134057Y0063299D01*
X0125357Y0054600D01*
X0121549Y0054600D01*
X0121549Y0054731D01*
X0120729Y0055551D01*
X0112471Y0055551D01*
X0111664Y0054744D01*
X0111634Y0054855D01*
X0111424Y0055220D01*
X0111126Y0055518D01*
X0110761Y0055729D01*
X0110354Y0055838D01*
X0107200Y0055838D01*
X0107200Y0051688D01*
X0106000Y0051688D01*
X0106000Y0050488D01*
X0107200Y0050488D01*
X0107200Y0046339D01*
X0110354Y0046339D01*
X0110761Y0046448D01*
X0111126Y0046658D01*
X0111424Y0046956D01*
X0111634Y0047321D01*
X0111651Y0047383D01*
X0111651Y0047272D01*
X0112471Y0046452D01*
X0113600Y0046452D01*
X0113600Y0045035D01*
X0112050Y0043485D01*
X0112050Y0039715D01*
X0113600Y0038165D01*
X0113600Y0036549D01*
X0113469Y0036549D01*
X0112649Y0035729D01*
X0112696Y0035776D02*
X0110637Y0035776D01*
X0109608Y0038173D02*
X0113592Y0038173D01*
X0113600Y0036975D02*
X0071200Y0036975D01*
X0071200Y0030982D02*
X0101252Y0030982D01*
X0101252Y0029784D02*
X0071200Y0029784D01*
X0071200Y0028585D02*
X0101252Y0028585D01*
X0101388Y0027387D02*
X0071200Y0027387D01*
X0099681Y0047761D02*
X0101457Y0047761D01*
X0101457Y0047728D02*
X0101566Y0047321D01*
X0101776Y0046956D01*
X0102074Y0046658D01*
X0102439Y0046448D01*
X0102846Y0046339D01*
X0106000Y0046339D01*
X0106000Y0050488D01*
X0101457Y0050488D01*
X0101457Y0047728D01*
X0101457Y0048960D02*
X0099600Y0048960D01*
X0099600Y0050158D02*
X0101457Y0050158D01*
X0101457Y0051688D02*
X0106000Y0051688D01*
X0106000Y0055838D01*
X0102846Y0055838D01*
X0102439Y0055729D01*
X0102074Y0055518D01*
X0101776Y0055220D01*
X0101566Y0054855D01*
X0101457Y0054448D01*
X0101457Y0051688D01*
X0101457Y0052555D02*
X0099600Y0052555D01*
X0099600Y0051357D02*
X0106000Y0051357D01*
X0106000Y0052555D02*
X0107200Y0052555D01*
X0107200Y0053754D02*
X0106000Y0053754D01*
X0106000Y0054952D02*
X0107200Y0054952D01*
X0111578Y0054952D02*
X0111872Y0054952D01*
X0112471Y0057649D02*
X0120729Y0057649D01*
X0121549Y0058469D01*
X0121549Y0065928D01*
X0120729Y0066748D01*
X0119600Y0066748D01*
X0119600Y0068165D01*
X0121150Y0069715D01*
X0121150Y0073485D01*
X0119600Y0075035D01*
X0119600Y0076539D01*
X0120723Y0076539D01*
X0121543Y0077359D01*
X0121543Y0082980D01*
X0121651Y0082872D01*
X0121651Y0077272D01*
X0122471Y0076452D01*
X0123600Y0076452D01*
X0123600Y0075035D01*
X0122050Y0073485D01*
X0122050Y0069715D01*
X0124715Y0067050D01*
X0128485Y0067050D01*
X0131150Y0069715D01*
X0131150Y0073485D01*
X0129600Y0075035D01*
X0129600Y0076452D01*
X0130729Y0076452D01*
X0131549Y0077272D01*
X0131549Y0084731D01*
X0130729Y0085551D01*
X0126326Y0085551D01*
X0124428Y0087449D01*
X0126000Y0087449D01*
X0126000Y0091598D01*
X0127200Y0091598D01*
X0127200Y0092798D01*
X0126000Y0092798D01*
X0126000Y0096948D01*
X0122840Y0096948D01*
X0122433Y0096839D01*
X0122068Y0096628D01*
X0121770Y0096330D01*
X0121560Y0095966D01*
X0121530Y0095855D01*
X0120723Y0096661D01*
X0112477Y0096661D01*
X0111657Y0095841D01*
X0111657Y0088382D01*
X0112477Y0087562D01*
X0116961Y0087562D01*
X0118885Y0085638D01*
X0112477Y0085638D01*
X0111657Y0084818D01*
X0111657Y0077359D01*
X0112477Y0076539D01*
X0113600Y0076539D01*
X0113600Y0075035D01*
X0112050Y0073485D01*
X0112050Y0069715D01*
X0113600Y0068165D01*
X0113600Y0066748D01*
X0112471Y0066748D01*
X0111651Y0065928D01*
X0111651Y0058469D01*
X0112471Y0057649D01*
X0111651Y0058548D02*
X0111543Y0058548D01*
X0111543Y0059746D02*
X0111651Y0059746D01*
X0111651Y0060945D02*
X0111543Y0060945D01*
X0111543Y0062143D02*
X0111651Y0062143D01*
X0111651Y0063342D02*
X0111543Y0063342D01*
X0111543Y0064540D02*
X0111651Y0064540D01*
X0111651Y0065739D02*
X0111543Y0065739D01*
X0109600Y0066937D02*
X0113600Y0066937D01*
X0113600Y0068136D02*
X0109600Y0068136D01*
X0110769Y0069334D02*
X0112431Y0069334D01*
X0112050Y0070533D02*
X0111150Y0070533D01*
X0111150Y0071732D02*
X0112050Y0071732D01*
X0112050Y0072930D02*
X0111150Y0072930D01*
X0110506Y0074129D02*
X0112694Y0074129D01*
X0113600Y0075327D02*
X0109600Y0075327D01*
X0109600Y0076526D02*
X0113600Y0076526D01*
X0111657Y0077724D02*
X0109600Y0077724D01*
X0109600Y0078923D02*
X0111657Y0078923D01*
X0111657Y0080121D02*
X0109600Y0080121D01*
X0109600Y0081320D02*
X0111657Y0081320D01*
X0111657Y0082518D02*
X0109600Y0082518D01*
X0109600Y0083717D02*
X0111657Y0083717D01*
X0111754Y0084915D02*
X0109600Y0084915D01*
X0109600Y0086114D02*
X0118409Y0086114D01*
X0117211Y0087312D02*
X0109600Y0087312D01*
X0109600Y0088511D02*
X0111657Y0088511D01*
X0111657Y0089709D02*
X0109600Y0089709D01*
X0109600Y0090908D02*
X0111657Y0090908D01*
X0111657Y0092106D02*
X0109600Y0092106D01*
X0109600Y0093305D02*
X0111657Y0093305D01*
X0111657Y0094503D02*
X0109600Y0094503D01*
X0109944Y0095702D02*
X0111657Y0095702D01*
X0111143Y0096900D02*
X0122662Y0096900D01*
X0126000Y0096900D02*
X0127200Y0096900D01*
X0127200Y0095702D02*
X0126000Y0095702D01*
X0126000Y0094503D02*
X0127200Y0094503D01*
X0127200Y0093305D02*
X0126000Y0093305D01*
X0127200Y0092106D02*
X0136000Y0092106D01*
X0136000Y0090908D02*
X0137200Y0090908D01*
X0137200Y0089709D02*
X0136000Y0089709D01*
X0136000Y0088511D02*
X0137200Y0088511D01*
X0138635Y0087312D02*
X0124565Y0087312D01*
X0125763Y0086114D02*
X0137437Y0086114D01*
X0141543Y0082518D02*
X0141651Y0082518D01*
X0141651Y0081320D02*
X0141543Y0081320D01*
X0141543Y0080121D02*
X0141651Y0080121D01*
X0141651Y0078923D02*
X0141543Y0078923D01*
X0141543Y0077724D02*
X0141651Y0077724D01*
X0142248Y0076526D02*
X0139600Y0076526D01*
X0139600Y0075327D02*
X0141651Y0075327D01*
X0141651Y0074129D02*
X0140506Y0074129D01*
X0141150Y0072930D02*
X0141651Y0072930D01*
X0141651Y0071732D02*
X0141150Y0071732D01*
X0141150Y0070533D02*
X0141651Y0070533D01*
X0141651Y0069334D02*
X0140769Y0069334D01*
X0139571Y0068136D02*
X0141984Y0068136D01*
X0135860Y0064540D02*
X0121549Y0064540D01*
X0121549Y0063342D02*
X0134099Y0063342D01*
X0132901Y0062143D02*
X0121549Y0062143D01*
X0121549Y0060945D02*
X0131702Y0060945D01*
X0130504Y0059746D02*
X0121549Y0059746D01*
X0121549Y0058548D02*
X0129305Y0058548D01*
X0128107Y0057349D02*
X0099600Y0057349D01*
X0099600Y0056151D02*
X0126908Y0056151D01*
X0125710Y0054952D02*
X0121328Y0054952D01*
X0121549Y0047761D02*
X0158600Y0047761D01*
X0158600Y0046563D02*
X0120840Y0046563D01*
X0119600Y0045364D02*
X0123930Y0045364D01*
X0124715Y0046150D02*
X0122050Y0043485D01*
X0122050Y0039715D01*
X0124715Y0037050D01*
X0128485Y0037050D01*
X0131150Y0039715D01*
X0131150Y0043485D01*
X0128485Y0046150D01*
X0124715Y0046150D01*
X0122731Y0044166D02*
X0120469Y0044166D01*
X0121150Y0042967D02*
X0122050Y0042967D01*
X0122050Y0041769D02*
X0121150Y0041769D01*
X0121150Y0040570D02*
X0122050Y0040570D01*
X0122394Y0039372D02*
X0120806Y0039372D01*
X0119608Y0038173D02*
X0123592Y0038173D01*
X0125488Y0035776D02*
X0126688Y0035776D01*
X0126688Y0036743D02*
X0126688Y0032200D01*
X0130838Y0032200D01*
X0130838Y0035354D01*
X0130729Y0035761D01*
X0130518Y0036126D01*
X0130220Y0036424D01*
X0129855Y0036634D01*
X0129448Y0036743D01*
X0126688Y0036743D01*
X0126688Y0034578D02*
X0125488Y0034578D01*
X0125488Y0033379D02*
X0126688Y0033379D01*
X0126688Y0032181D02*
X0132562Y0032181D01*
X0132562Y0033379D02*
X0130838Y0033379D01*
X0130838Y0034578D02*
X0132562Y0034578D01*
X0132562Y0035723D02*
X0132562Y0027477D01*
X0133382Y0026657D01*
X0140841Y0026657D01*
X0141661Y0027477D01*
X0141661Y0028600D01*
X0144540Y0028600D01*
X0144573Y0028567D01*
X0145888Y0028022D01*
X0147312Y0028022D01*
X0148627Y0028567D01*
X0149633Y0029573D01*
X0150178Y0030888D01*
X0150178Y0032312D01*
X0149633Y0033627D01*
X0148627Y0034633D01*
X0147312Y0035178D01*
X0145888Y0035178D01*
X0144573Y0034633D01*
X0144540Y0034600D01*
X0141661Y0034600D01*
X0141661Y0035723D01*
X0140841Y0036543D01*
X0139600Y0036543D01*
X0139600Y0038165D01*
X0141150Y0039715D01*
X0141150Y0043485D01*
X0138485Y0046150D01*
X0134715Y0046150D01*
X0132050Y0043485D01*
X0132050Y0039715D01*
X0133600Y0038165D01*
X0133600Y0036543D01*
X0133382Y0036543D01*
X0132562Y0035723D01*
X0132615Y0035776D02*
X0130720Y0035776D01*
X0129608Y0038173D02*
X0133592Y0038173D01*
X0133600Y0036975D02*
X0119600Y0036975D01*
X0112394Y0039372D02*
X0110806Y0039372D01*
X0111150Y0040570D02*
X0112050Y0040570D01*
X0112050Y0041769D02*
X0111150Y0041769D01*
X0111150Y0042967D02*
X0112050Y0042967D01*
X0112731Y0044166D02*
X0110469Y0044166D01*
X0109270Y0045364D02*
X0113600Y0045364D01*
X0112360Y0046563D02*
X0110960Y0046563D01*
X0107200Y0046563D02*
X0106000Y0046563D01*
X0106000Y0047761D02*
X0107200Y0047761D01*
X0107200Y0048960D02*
X0106000Y0048960D01*
X0106000Y0050158D02*
X0107200Y0050158D01*
X0103930Y0045364D02*
X0102078Y0045364D01*
X0102240Y0046563D02*
X0100880Y0046563D01*
X0101457Y0053754D02*
X0099600Y0053754D01*
X0099600Y0054952D02*
X0101622Y0054952D01*
X0101657Y0058548D02*
X0099600Y0058548D01*
X0099600Y0059746D02*
X0101657Y0059746D01*
X0101657Y0060945D02*
X0099600Y0060945D01*
X0099600Y0062143D02*
X0101657Y0062143D01*
X0101657Y0063342D02*
X0099600Y0063342D01*
X0099600Y0064540D02*
X0101657Y0064540D01*
X0101657Y0065739D02*
X0099600Y0065739D01*
X0099600Y0066937D02*
X0103600Y0066937D01*
X0103600Y0068136D02*
X0099600Y0068136D01*
X0099600Y0069334D02*
X0102431Y0069334D01*
X0102050Y0070533D02*
X0099600Y0070533D01*
X0099600Y0071732D02*
X0102050Y0071732D01*
X0102050Y0072930D02*
X0099600Y0072930D01*
X0099600Y0074129D02*
X0102694Y0074129D01*
X0103600Y0075327D02*
X0099600Y0075327D01*
X0099600Y0076526D02*
X0103600Y0076526D01*
X0103600Y0077724D02*
X0099600Y0077724D01*
X0099600Y0078923D02*
X0103600Y0078923D01*
X0103600Y0080121D02*
X0099600Y0080121D01*
X0099600Y0081320D02*
X0103600Y0081320D01*
X0103600Y0082518D02*
X0099600Y0082518D01*
X0099600Y0083717D02*
X0103600Y0083717D01*
X0103600Y0084915D02*
X0099600Y0084915D01*
X0099600Y0086114D02*
X0103600Y0086114D01*
X0103600Y0087312D02*
X0099600Y0087312D01*
X0099600Y0088511D02*
X0103600Y0088511D01*
X0103600Y0089709D02*
X0099600Y0089709D01*
X0099600Y0090908D02*
X0103600Y0090908D01*
X0103600Y0092106D02*
X0099600Y0092106D01*
X0099600Y0093305D02*
X0103600Y0093305D01*
X0103600Y0094503D02*
X0099600Y0094503D01*
X0099600Y0095702D02*
X0103600Y0095702D01*
X0103600Y0096900D02*
X0099600Y0096900D01*
X0099600Y0098099D02*
X0103974Y0098099D01*
X0105055Y0099297D02*
X0099600Y0099297D01*
X0099738Y0100496D02*
X0106253Y0100496D01*
X0107452Y0101694D02*
X0100937Y0101694D01*
X0102135Y0102893D02*
X0108650Y0102893D01*
X0109849Y0104091D02*
X0103334Y0104091D01*
X0104532Y0105290D02*
X0111047Y0105290D01*
X0112246Y0106488D02*
X0105731Y0106488D01*
X0106930Y0107687D02*
X0113444Y0107687D01*
X0114643Y0108885D02*
X0108128Y0108885D01*
X0109327Y0110084D02*
X0115841Y0110084D01*
X0117040Y0111282D02*
X0110525Y0111282D01*
X0111724Y0112481D02*
X0118238Y0112481D01*
X0118600Y0113679D02*
X0113739Y0113679D01*
X0114759Y0114878D02*
X0118600Y0114878D01*
X0118600Y0116076D02*
X0115178Y0116076D01*
X0115178Y0117275D02*
X0118600Y0117275D01*
X0118600Y0118473D02*
X0114697Y0118473D01*
X0113533Y0119672D02*
X0118600Y0119672D01*
X0118600Y0120870D02*
X0071200Y0120870D01*
X0071200Y0119672D02*
X0109667Y0119672D01*
X0111854Y0122069D02*
X0071200Y0122069D01*
X0112341Y0098099D02*
X0152700Y0098099D01*
X0152700Y0099297D02*
X0113540Y0099297D01*
X0114738Y0100496D02*
X0152700Y0100496D01*
X0152700Y0101694D02*
X0115937Y0101694D01*
X0117135Y0102893D02*
X0152700Y0102893D01*
X0152700Y0104091D02*
X0118334Y0104091D01*
X0119532Y0105290D02*
X0152700Y0105290D01*
X0152700Y0106488D02*
X0120731Y0106488D01*
X0121930Y0107687D02*
X0152700Y0107687D01*
X0152700Y0108885D02*
X0123128Y0108885D01*
X0124219Y0110084D02*
X0152601Y0110084D01*
X0151402Y0111282D02*
X0124600Y0111282D01*
X0124600Y0112481D02*
X0150204Y0112481D01*
X0149005Y0113679D02*
X0124600Y0113679D01*
X0124600Y0114878D02*
X0147807Y0114878D01*
X0146608Y0116076D02*
X0124600Y0116076D01*
X0124600Y0117275D02*
X0145410Y0117275D01*
X0144211Y0118473D02*
X0124600Y0118473D01*
X0124600Y0119672D02*
X0143013Y0119672D01*
X0141814Y0120870D02*
X0124600Y0120870D01*
X0131346Y0122069D02*
X0140616Y0122069D01*
X0148051Y0125665D02*
X0183600Y0125665D01*
X0183600Y0126863D02*
X0147378Y0126863D01*
X0148577Y0128062D02*
X0183600Y0128062D01*
X0183600Y0129260D02*
X0149775Y0129260D01*
X0150974Y0130459D02*
X0183600Y0130459D01*
X0183600Y0131657D02*
X0152173Y0131657D01*
X0153371Y0132856D02*
X0183600Y0132856D01*
X0183600Y0134054D02*
X0154570Y0134054D01*
X0155768Y0135253D02*
X0183600Y0135253D01*
X0183600Y0136451D02*
X0156967Y0136451D01*
X0158165Y0137650D02*
X0183600Y0137650D01*
X0183600Y0138848D02*
X0159364Y0138848D01*
X0160178Y0140047D02*
X0183600Y0140047D01*
X0182712Y0141245D02*
X0160500Y0141245D01*
X0160472Y0142444D02*
X0181514Y0142444D01*
X0180315Y0143642D02*
X0159975Y0143642D01*
X0158875Y0144841D02*
X0179117Y0144841D01*
X0177918Y0146039D02*
X0138886Y0146039D01*
X0138886Y0144841D02*
X0154325Y0144841D01*
X0153127Y0143642D02*
X0138886Y0143642D01*
X0138886Y0142444D02*
X0151928Y0142444D01*
X0150730Y0141245D02*
X0138886Y0141245D01*
X0138564Y0140047D02*
X0149531Y0140047D01*
X0148333Y0138848D02*
X0137749Y0138848D01*
X0132222Y0138848D02*
X0131560Y0138848D01*
X0131408Y0140047D02*
X0130163Y0140047D01*
X0131086Y0141245D02*
X0124600Y0141245D01*
X0124600Y0140047D02*
X0126423Y0140047D01*
X0125026Y0138848D02*
X0124600Y0138848D01*
X0124600Y0142444D02*
X0131086Y0142444D01*
X0131086Y0143642D02*
X0124600Y0143642D01*
X0124600Y0144841D02*
X0131086Y0144841D01*
X0131086Y0146039D02*
X0124600Y0146039D01*
X0124600Y0147238D02*
X0131086Y0147238D01*
X0131086Y0148436D02*
X0124600Y0148436D01*
X0124600Y0149635D02*
X0131086Y0149635D01*
X0131086Y0150833D02*
X0125076Y0150833D01*
X0126274Y0152032D02*
X0131086Y0152032D01*
X0131086Y0153230D02*
X0127473Y0153230D01*
X0128671Y0154429D02*
X0131086Y0154429D01*
X0131086Y0155627D02*
X0129744Y0155627D01*
X0130112Y0156826D02*
X0131086Y0156826D01*
X0131086Y0158024D02*
X0130112Y0158024D01*
X0130112Y0159223D02*
X0131086Y0159223D01*
X0131086Y0160421D02*
X0130112Y0160421D01*
X0130112Y0161620D02*
X0131086Y0161620D01*
X0131086Y0162818D02*
X0130112Y0162818D01*
X0130112Y0164017D02*
X0131086Y0164017D01*
X0131086Y0165215D02*
X0130112Y0165215D01*
X0130112Y0166414D02*
X0131086Y0166414D01*
X0131086Y0167612D02*
X0130112Y0167612D01*
X0130112Y0168811D02*
X0131086Y0168811D01*
X0131086Y0170009D02*
X0130112Y0170009D01*
X0130112Y0171208D02*
X0131086Y0171208D01*
X0131086Y0172406D02*
X0130112Y0172406D01*
X0130112Y0173605D02*
X0131086Y0173605D01*
X0131086Y0174803D02*
X0130112Y0174803D01*
X0130112Y0176002D02*
X0131086Y0176002D01*
X0131086Y0177201D02*
X0130112Y0177201D01*
X0130112Y0178399D02*
X0131086Y0178399D01*
X0131086Y0179598D02*
X0130112Y0179598D01*
X0130112Y0180796D02*
X0131086Y0180796D01*
X0131086Y0181995D02*
X0130112Y0181995D01*
X0130112Y0183193D02*
X0131086Y0183193D01*
X0131086Y0184392D02*
X0130112Y0184392D01*
X0130112Y0185590D02*
X0131086Y0185590D01*
X0131086Y0186789D02*
X0130112Y0186789D01*
X0130112Y0187987D02*
X0131086Y0187987D01*
X0131086Y0189186D02*
X0130112Y0189186D01*
X0130112Y0190384D02*
X0131086Y0190384D01*
X0131086Y0191583D02*
X0130112Y0191583D01*
X0130112Y0192781D02*
X0131086Y0192781D01*
X0131086Y0193980D02*
X0130112Y0193980D01*
X0130112Y0195178D02*
X0131086Y0195178D01*
X0131086Y0196377D02*
X0130112Y0196377D01*
X0138886Y0180796D02*
X0155281Y0180796D01*
X0154082Y0179598D02*
X0138886Y0179598D01*
X0138886Y0178399D02*
X0153124Y0178399D01*
X0152700Y0177201D02*
X0138886Y0177201D01*
X0138886Y0176002D02*
X0152700Y0176002D01*
X0153123Y0174803D02*
X0138886Y0174803D01*
X0138886Y0173605D02*
X0154080Y0173605D01*
X0159120Y0173605D02*
X0212700Y0173605D01*
X0212700Y0174803D02*
X0160319Y0174803D01*
X0161517Y0176002D02*
X0212700Y0176002D01*
X0211722Y0177201D02*
X0162716Y0177201D01*
X0163914Y0178399D02*
X0211651Y0178399D01*
X0211651Y0179598D02*
X0165113Y0179598D01*
X0166311Y0180796D02*
X0211651Y0180796D01*
X0211651Y0181995D02*
X0167510Y0181995D01*
X0162472Y0187987D02*
X0158712Y0187987D01*
X0158712Y0186789D02*
X0161273Y0186789D01*
X0160075Y0185590D02*
X0157915Y0185590D01*
X0158712Y0189186D02*
X0163670Y0189186D01*
X0158712Y0196377D02*
X0190861Y0196377D01*
X0192060Y0197575D02*
X0158222Y0197575D01*
X0180054Y0195178D02*
X0189663Y0195178D01*
X0188399Y0193980D02*
X0184801Y0193980D01*
X0185551Y0192781D02*
X0187649Y0192781D01*
X0187649Y0191583D02*
X0185551Y0191583D01*
X0185551Y0190384D02*
X0187649Y0190384D01*
X0187649Y0189186D02*
X0185551Y0189186D01*
X0185551Y0187987D02*
X0187649Y0187987D01*
X0187649Y0186789D02*
X0185551Y0186789D01*
X0185551Y0185590D02*
X0187649Y0185590D01*
X0188228Y0184392D02*
X0184972Y0184392D01*
X0196748Y0186789D02*
X0241134Y0186789D01*
X0241134Y0187987D02*
X0221067Y0187987D01*
X0220729Y0187649D02*
X0221549Y0188469D01*
X0221549Y0195928D01*
X0220729Y0196748D01*
X0220500Y0196748D01*
X0220500Y0207376D01*
X0219906Y0208809D01*
X0218809Y0209906D01*
X0211000Y0217715D01*
X0211000Y0220475D01*
X0210330Y0222092D01*
X0209092Y0223330D01*
X0207475Y0224000D01*
X0205725Y0224000D01*
X0204108Y0223330D01*
X0202870Y0222092D01*
X0202200Y0220475D01*
X0202200Y0212725D01*
X0202870Y0211108D01*
X0204108Y0209870D01*
X0205725Y0209200D01*
X0207475Y0209200D01*
X0208189Y0209496D01*
X0212700Y0204985D01*
X0212700Y0196748D01*
X0212471Y0196748D01*
X0211651Y0195928D01*
X0211651Y0188469D01*
X0212471Y0187649D01*
X0220729Y0187649D01*
X0221549Y0189186D02*
X0241134Y0189186D01*
X0241134Y0190384D02*
X0221549Y0190384D01*
X0221549Y0191583D02*
X0241134Y0191583D01*
X0241134Y0192781D02*
X0221549Y0192781D01*
X0221549Y0193980D02*
X0241134Y0193980D01*
X0241134Y0195178D02*
X0221549Y0195178D01*
X0221100Y0196377D02*
X0241134Y0196377D01*
X0241134Y0197575D02*
X0220500Y0197575D01*
X0220500Y0198774D02*
X0241134Y0198774D01*
X0241134Y0199972D02*
X0220500Y0199972D01*
X0220500Y0201171D02*
X0241134Y0201171D01*
X0241134Y0202369D02*
X0220500Y0202369D01*
X0220500Y0203568D02*
X0241134Y0203568D01*
X0241134Y0204766D02*
X0220500Y0204766D01*
X0220500Y0205965D02*
X0241134Y0205965D01*
X0241134Y0207163D02*
X0220500Y0207163D01*
X0220092Y0208362D02*
X0241134Y0208362D01*
X0241134Y0209560D02*
X0219155Y0209560D01*
X0217957Y0210759D02*
X0241134Y0210759D01*
X0241134Y0211957D02*
X0216758Y0211957D01*
X0215560Y0213156D02*
X0241134Y0213156D01*
X0241134Y0214354D02*
X0214361Y0214354D01*
X0213163Y0215553D02*
X0241134Y0215553D01*
X0241134Y0216751D02*
X0211964Y0216751D01*
X0211000Y0217950D02*
X0241134Y0217950D01*
X0241134Y0219148D02*
X0211000Y0219148D01*
X0211000Y0220347D02*
X0241134Y0220347D01*
X0241134Y0221545D02*
X0210557Y0221545D01*
X0209679Y0222744D02*
X0241134Y0222744D01*
X0241134Y0223942D02*
X0207614Y0223942D01*
X0205586Y0223942D02*
X0197614Y0223942D01*
X0199679Y0222744D02*
X0203521Y0222744D01*
X0202643Y0221545D02*
X0200557Y0221545D01*
X0201000Y0220347D02*
X0202200Y0220347D01*
X0202200Y0219148D02*
X0201000Y0219148D01*
X0201000Y0217950D02*
X0202200Y0217950D01*
X0202200Y0216751D02*
X0201000Y0216751D01*
X0201000Y0215553D02*
X0202200Y0215553D01*
X0202200Y0214354D02*
X0201000Y0214354D01*
X0201000Y0213156D02*
X0202200Y0213156D01*
X0202518Y0211957D02*
X0200682Y0211957D01*
X0200500Y0210759D02*
X0203219Y0210759D01*
X0204855Y0209560D02*
X0200500Y0209560D01*
X0200500Y0208362D02*
X0209323Y0208362D01*
X0210521Y0207163D02*
X0200500Y0207163D01*
X0200500Y0205965D02*
X0211720Y0205965D01*
X0212700Y0204766D02*
X0200500Y0204766D01*
X0200500Y0203568D02*
X0212700Y0203568D01*
X0212700Y0202369D02*
X0200500Y0202369D01*
X0200500Y0201171D02*
X0212700Y0201171D01*
X0212700Y0199972D02*
X0200500Y0199972D01*
X0200500Y0198774D02*
X0212700Y0198774D01*
X0212700Y0197575D02*
X0200500Y0197575D01*
X0200500Y0196377D02*
X0212100Y0196377D01*
X0211651Y0195178D02*
X0200232Y0195178D01*
X0199495Y0193980D02*
X0211651Y0193980D01*
X0211651Y0192781D02*
X0198297Y0192781D01*
X0197098Y0191583D02*
X0211651Y0191583D01*
X0211651Y0190384D02*
X0196748Y0190384D01*
X0196748Y0189186D02*
X0211651Y0189186D01*
X0212133Y0187987D02*
X0196748Y0187987D01*
X0212700Y0172406D02*
X0138886Y0172406D01*
X0138886Y0171208D02*
X0212700Y0171208D01*
X0212700Y0170009D02*
X0138886Y0170009D01*
X0138886Y0168811D02*
X0212700Y0168811D01*
X0212700Y0167612D02*
X0138886Y0167612D01*
X0138886Y0166414D02*
X0212700Y0166414D01*
X0212700Y0165215D02*
X0138886Y0165215D01*
X0138886Y0164017D02*
X0212700Y0164017D01*
X0212700Y0162818D02*
X0138886Y0162818D01*
X0138886Y0161620D02*
X0212700Y0161620D01*
X0212700Y0160421D02*
X0187566Y0160421D01*
X0189493Y0159223D02*
X0212700Y0159223D01*
X0212700Y0158024D02*
X0190691Y0158024D01*
X0189906Y0158809D02*
X0189906Y0158809D01*
X0191890Y0156826D02*
X0212700Y0156826D01*
X0212700Y0155627D02*
X0193088Y0155627D01*
X0194287Y0154429D02*
X0212700Y0154429D01*
X0212700Y0153230D02*
X0195485Y0153230D01*
X0196684Y0152032D02*
X0212700Y0152032D01*
X0212700Y0150833D02*
X0197882Y0150833D01*
X0199081Y0149635D02*
X0212700Y0149635D01*
X0212700Y0148436D02*
X0200279Y0148436D01*
X0201478Y0147238D02*
X0212700Y0147238D01*
X0212700Y0146039D02*
X0202676Y0146039D01*
X0203533Y0144841D02*
X0212700Y0144841D01*
X0212700Y0143642D02*
X0203886Y0143642D01*
X0203886Y0142444D02*
X0212700Y0142444D01*
X0212700Y0141245D02*
X0203886Y0141245D01*
X0203564Y0140047D02*
X0212700Y0140047D01*
X0212700Y0138848D02*
X0202749Y0138848D01*
X0197222Y0138848D02*
X0196560Y0138848D01*
X0196408Y0140047D02*
X0195163Y0140047D01*
X0196086Y0141245D02*
X0189600Y0141245D01*
X0189600Y0140047D02*
X0191423Y0140047D01*
X0190026Y0138848D02*
X0189600Y0138848D01*
X0189498Y0142444D02*
X0195241Y0142444D01*
X0194042Y0143642D02*
X0188800Y0143642D01*
X0187602Y0144841D02*
X0192844Y0144841D01*
X0191645Y0146039D02*
X0186403Y0146039D01*
X0185205Y0147238D02*
X0190447Y0147238D01*
X0189248Y0148436D02*
X0184006Y0148436D01*
X0182808Y0149635D02*
X0188050Y0149635D01*
X0186851Y0150833D02*
X0181609Y0150833D01*
X0180411Y0152032D02*
X0185653Y0152032D01*
X0176720Y0147238D02*
X0138886Y0147238D01*
X0138886Y0148436D02*
X0175521Y0148436D01*
X0174323Y0149635D02*
X0138886Y0149635D01*
X0138886Y0150833D02*
X0173124Y0150833D01*
X0171926Y0152032D02*
X0138886Y0152032D01*
X0123782Y0158024D02*
X0092801Y0158024D01*
X0093701Y0159223D02*
X0124112Y0159223D01*
X0124112Y0160421D02*
X0093712Y0160421D01*
X0093712Y0161620D02*
X0124112Y0161620D01*
X0124112Y0162818D02*
X0093712Y0162818D01*
X0093712Y0165215D02*
X0124112Y0165215D01*
X0124112Y0164017D02*
X0087200Y0164017D01*
X0087200Y0165215D02*
X0086000Y0165215D01*
X0086000Y0164017D02*
X0071200Y0164017D01*
X0086000Y0162818D02*
X0087200Y0162818D01*
X0087200Y0161620D02*
X0086000Y0161620D01*
X0086000Y0160421D02*
X0087200Y0160421D01*
X0087200Y0159223D02*
X0086000Y0159223D01*
X0086000Y0158024D02*
X0087200Y0158024D01*
X0087200Y0166414D02*
X0086000Y0166414D01*
X0086000Y0167612D02*
X0087200Y0167612D01*
X0087200Y0168811D02*
X0086000Y0168811D01*
X0086000Y0170009D02*
X0087200Y0170009D01*
X0093288Y0170009D02*
X0124112Y0170009D01*
X0124112Y0168811D02*
X0093712Y0168811D01*
X0093712Y0167612D02*
X0124112Y0167612D01*
X0124112Y0166414D02*
X0093712Y0166414D01*
X0132079Y0137650D02*
X0147134Y0137650D01*
X0145936Y0136451D02*
X0132193Y0136451D01*
X0132193Y0135253D02*
X0144737Y0135253D01*
X0143539Y0134054D02*
X0132193Y0134054D01*
X0132193Y0132856D02*
X0142340Y0132856D01*
X0141142Y0131657D02*
X0132193Y0131657D01*
X0149249Y0124466D02*
X0183600Y0124466D01*
X0183600Y0123268D02*
X0150448Y0123268D01*
X0151646Y0122069D02*
X0183600Y0122069D01*
X0183600Y0120870D02*
X0152845Y0120870D01*
X0154043Y0119672D02*
X0174667Y0119672D01*
X0173503Y0118473D02*
X0155242Y0118473D01*
X0156440Y0117275D02*
X0173022Y0117275D01*
X0171834Y0116076D02*
X0157639Y0116076D01*
X0158837Y0114878D02*
X0170635Y0114878D01*
X0169437Y0113679D02*
X0159960Y0113679D01*
X0160456Y0112481D02*
X0168238Y0112481D01*
X0167040Y0111282D02*
X0160500Y0111282D01*
X0160500Y0110084D02*
X0165841Y0110084D01*
X0164643Y0108885D02*
X0160500Y0108885D01*
X0160500Y0107687D02*
X0163803Y0107687D01*
X0163600Y0106488D02*
X0160500Y0106488D01*
X0160500Y0105290D02*
X0163600Y0105290D01*
X0163600Y0104091D02*
X0160500Y0104091D01*
X0160500Y0102893D02*
X0163600Y0102893D01*
X0163600Y0101694D02*
X0160500Y0101694D01*
X0160500Y0100496D02*
X0163600Y0100496D01*
X0163600Y0099297D02*
X0160500Y0099297D01*
X0160500Y0098099D02*
X0163600Y0098099D01*
X0163600Y0096900D02*
X0160500Y0096900D01*
X0160500Y0095702D02*
X0163600Y0095702D01*
X0163600Y0094503D02*
X0160500Y0094503D01*
X0160500Y0093305D02*
X0163600Y0093305D01*
X0163600Y0092106D02*
X0160500Y0092106D01*
X0160500Y0090908D02*
X0163600Y0090908D01*
X0163600Y0089709D02*
X0160500Y0089709D01*
X0160500Y0088511D02*
X0163600Y0088511D01*
X0163600Y0087312D02*
X0160500Y0087312D01*
X0160500Y0086114D02*
X0163600Y0086114D01*
X0163600Y0084915D02*
X0160500Y0084915D01*
X0160500Y0083717D02*
X0163600Y0083717D01*
X0163600Y0082518D02*
X0160500Y0082518D01*
X0160500Y0081320D02*
X0163600Y0081320D01*
X0163600Y0080121D02*
X0160209Y0080121D01*
X0159438Y0078923D02*
X0163600Y0078923D01*
X0163481Y0077724D02*
X0158239Y0077724D01*
X0158809Y0078294D02*
X0158809Y0078294D01*
X0157041Y0076526D02*
X0162283Y0076526D01*
X0161084Y0075327D02*
X0155842Y0075327D01*
X0154644Y0074129D02*
X0159886Y0074129D01*
X0158904Y0072930D02*
X0152931Y0072930D01*
X0151549Y0071732D02*
X0158600Y0071732D01*
X0158600Y0070533D02*
X0151549Y0070533D01*
X0151549Y0069334D02*
X0158600Y0069334D01*
X0158600Y0068136D02*
X0151216Y0068136D01*
X0151549Y0064540D02*
X0158600Y0064540D01*
X0158600Y0063342D02*
X0151549Y0063342D01*
X0151549Y0062143D02*
X0158600Y0062143D01*
X0158600Y0060945D02*
X0151549Y0060945D01*
X0151549Y0059746D02*
X0158600Y0059746D01*
X0158600Y0058548D02*
X0151549Y0058548D01*
X0151549Y0057349D02*
X0158600Y0057349D01*
X0158600Y0056151D02*
X0135394Y0056151D01*
X0136592Y0057349D02*
X0141651Y0057349D01*
X0141651Y0058548D02*
X0137791Y0058548D01*
X0134195Y0054952D02*
X0158600Y0054952D01*
X0158600Y0053754D02*
X0132996Y0053754D01*
X0131798Y0052555D02*
X0158600Y0052555D01*
X0158600Y0051357D02*
X0130599Y0051357D01*
X0129401Y0050158D02*
X0158600Y0050158D01*
X0158600Y0048960D02*
X0128065Y0048960D01*
X0129270Y0045364D02*
X0133930Y0045364D01*
X0132731Y0044166D02*
X0130469Y0044166D01*
X0131150Y0042967D02*
X0132050Y0042967D01*
X0132050Y0041769D02*
X0131150Y0041769D01*
X0131150Y0040570D02*
X0132050Y0040570D01*
X0132394Y0039372D02*
X0130806Y0039372D01*
X0139608Y0038173D02*
X0168592Y0038173D01*
X0167641Y0036749D02*
X0170402Y0036749D01*
X0170402Y0032200D01*
X0171602Y0032200D01*
X0175751Y0032200D01*
X0175751Y0035360D01*
X0175642Y0035767D01*
X0175431Y0036132D01*
X0175134Y0036430D01*
X0174769Y0036640D01*
X0174362Y0036749D01*
X0171602Y0036749D01*
X0171602Y0032200D01*
X0171602Y0031000D01*
X0175751Y0031000D01*
X0175751Y0027840D01*
X0175642Y0027433D01*
X0175431Y0027068D01*
X0175134Y0026770D01*
X0174769Y0026560D01*
X0174362Y0026451D01*
X0171602Y0026451D01*
X0171602Y0031000D01*
X0170402Y0031000D01*
X0170402Y0026451D01*
X0167641Y0026451D01*
X0167234Y0026560D01*
X0166870Y0026770D01*
X0166572Y0027068D01*
X0166361Y0027433D01*
X0166252Y0027840D01*
X0166252Y0031000D01*
X0170402Y0031000D01*
X0170402Y0032200D01*
X0166252Y0032200D01*
X0166252Y0035360D01*
X0166361Y0035767D01*
X0166572Y0036132D01*
X0166870Y0036430D01*
X0167234Y0036640D01*
X0167641Y0036749D01*
X0166366Y0035776D02*
X0141608Y0035776D01*
X0139600Y0036975D02*
X0178600Y0036975D01*
X0178592Y0038173D02*
X0174608Y0038173D01*
X0175806Y0039372D02*
X0177394Y0039372D01*
X0177050Y0040570D02*
X0176150Y0040570D01*
X0176150Y0041769D02*
X0177050Y0041769D01*
X0177050Y0042967D02*
X0176150Y0042967D01*
X0175469Y0044166D02*
X0177731Y0044166D01*
X0178600Y0045364D02*
X0174270Y0045364D01*
X0175960Y0046563D02*
X0177360Y0046563D01*
X0172200Y0046563D02*
X0171000Y0046563D01*
X0171000Y0046339D02*
X0171000Y0050488D01*
X0166457Y0050488D01*
X0166457Y0047728D01*
X0166566Y0047321D01*
X0166776Y0046956D01*
X0167074Y0046658D01*
X0167439Y0046448D01*
X0167846Y0046339D01*
X0171000Y0046339D01*
X0171000Y0047761D02*
X0172200Y0047761D01*
X0172200Y0048960D02*
X0171000Y0048960D01*
X0171000Y0050158D02*
X0172200Y0050158D01*
X0171000Y0051357D02*
X0164600Y0051357D01*
X0164600Y0052555D02*
X0166457Y0052555D01*
X0166457Y0051688D02*
X0171000Y0051688D01*
X0171000Y0055838D01*
X0167846Y0055838D01*
X0167439Y0055729D01*
X0167074Y0055518D01*
X0166776Y0055220D01*
X0166566Y0054855D01*
X0166457Y0054448D01*
X0166457Y0051688D01*
X0166457Y0050158D02*
X0164600Y0050158D01*
X0164600Y0048960D02*
X0166457Y0048960D01*
X0166457Y0047761D02*
X0164681Y0047761D01*
X0165880Y0046563D02*
X0167240Y0046563D01*
X0167078Y0045364D02*
X0168930Y0045364D01*
X0163387Y0040570D02*
X0141150Y0040570D01*
X0141150Y0041769D02*
X0162189Y0041769D01*
X0160990Y0042967D02*
X0141150Y0042967D01*
X0140469Y0044166D02*
X0159792Y0044166D01*
X0158865Y0045364D02*
X0139270Y0045364D01*
X0140806Y0039372D02*
X0164586Y0039372D01*
X0166252Y0034578D02*
X0148682Y0034578D01*
X0149736Y0033379D02*
X0166252Y0033379D01*
X0166252Y0030982D02*
X0150178Y0030982D01*
X0150178Y0032181D02*
X0170402Y0032181D01*
X0170402Y0033379D02*
X0171602Y0033379D01*
X0171602Y0032181D02*
X0177649Y0032181D01*
X0177649Y0033379D02*
X0175751Y0033379D01*
X0175751Y0034578D02*
X0177649Y0034578D01*
X0177696Y0035776D02*
X0175637Y0035776D01*
X0171602Y0035776D02*
X0170402Y0035776D01*
X0170402Y0034578D02*
X0171602Y0034578D01*
X0171602Y0030982D02*
X0170402Y0030982D01*
X0170402Y0029784D02*
X0171602Y0029784D01*
X0171602Y0028585D02*
X0170402Y0028585D01*
X0170402Y0027387D02*
X0171602Y0027387D01*
X0175615Y0027387D02*
X0177733Y0027387D01*
X0177649Y0028585D02*
X0175751Y0028585D01*
X0175751Y0029784D02*
X0177649Y0029784D01*
X0177649Y0030982D02*
X0175751Y0030982D01*
X0166252Y0029784D02*
X0149720Y0029784D01*
X0148645Y0028585D02*
X0166252Y0028585D01*
X0166388Y0027387D02*
X0141571Y0027387D01*
X0141661Y0028585D02*
X0144555Y0028585D01*
X0132652Y0027387D02*
X0130698Y0027387D01*
X0130838Y0028585D02*
X0132562Y0028585D01*
X0132562Y0029784D02*
X0130838Y0029784D01*
X0130838Y0030982D02*
X0132562Y0030982D01*
X0126688Y0030982D02*
X0125488Y0030982D01*
X0125488Y0029784D02*
X0126688Y0029784D01*
X0126688Y0028585D02*
X0125488Y0028585D01*
X0125488Y0027387D02*
X0126688Y0027387D01*
X0112733Y0027387D02*
X0110615Y0027387D01*
X0110751Y0028585D02*
X0112649Y0028585D01*
X0112649Y0029784D02*
X0110751Y0029784D01*
X0110751Y0030982D02*
X0112649Y0030982D01*
X0106602Y0030982D02*
X0105402Y0030982D01*
X0105402Y0029784D02*
X0106602Y0029784D01*
X0106602Y0028585D02*
X0105402Y0028585D01*
X0105402Y0027387D02*
X0106602Y0027387D01*
X0106602Y0034578D02*
X0105402Y0034578D01*
X0105402Y0035776D02*
X0106602Y0035776D01*
X0121549Y0065739D02*
X0158600Y0065739D01*
X0158600Y0066937D02*
X0119600Y0066937D01*
X0119600Y0068136D02*
X0123629Y0068136D01*
X0122431Y0069334D02*
X0120769Y0069334D01*
X0121150Y0070533D02*
X0122050Y0070533D01*
X0122050Y0071732D02*
X0121150Y0071732D01*
X0121150Y0072930D02*
X0122050Y0072930D01*
X0122694Y0074129D02*
X0120506Y0074129D01*
X0119600Y0075327D02*
X0123600Y0075327D01*
X0122397Y0076526D02*
X0119600Y0076526D01*
X0121543Y0077724D02*
X0121651Y0077724D01*
X0121651Y0078923D02*
X0121543Y0078923D01*
X0121543Y0080121D02*
X0121651Y0080121D01*
X0121651Y0081320D02*
X0121543Y0081320D01*
X0121543Y0082518D02*
X0121651Y0082518D01*
X0126000Y0088511D02*
X0127200Y0088511D01*
X0127200Y0089709D02*
X0126000Y0089709D01*
X0126000Y0090908D02*
X0127200Y0090908D01*
X0130538Y0096900D02*
X0152700Y0096900D01*
X0152700Y0095702D02*
X0151549Y0095702D01*
X0151549Y0094503D02*
X0152700Y0094503D01*
X0152700Y0093305D02*
X0151549Y0093305D01*
X0151549Y0092106D02*
X0152700Y0092106D01*
X0152700Y0090908D02*
X0151549Y0090908D01*
X0151549Y0089709D02*
X0152700Y0089709D01*
X0152700Y0088511D02*
X0151549Y0088511D01*
X0152700Y0087312D02*
X0145989Y0087312D01*
X0144791Y0086114D02*
X0152700Y0086114D01*
X0152700Y0084915D02*
X0151365Y0084915D01*
X0151549Y0083717D02*
X0152700Y0083717D01*
X0152003Y0082518D02*
X0151549Y0082518D01*
X0164776Y0070533D02*
X0167050Y0070533D01*
X0167050Y0071732D02*
X0165974Y0071732D01*
X0164600Y0069334D02*
X0167431Y0069334D01*
X0168600Y0068136D02*
X0164600Y0068136D01*
X0164600Y0066937D02*
X0168600Y0066937D01*
X0166657Y0065739D02*
X0164600Y0065739D01*
X0164600Y0064540D02*
X0166657Y0064540D01*
X0166657Y0063342D02*
X0164600Y0063342D01*
X0164600Y0062143D02*
X0166657Y0062143D01*
X0166657Y0060945D02*
X0164600Y0060945D01*
X0164600Y0059746D02*
X0166657Y0059746D01*
X0166657Y0058548D02*
X0164600Y0058548D01*
X0164600Y0057349D02*
X0193107Y0057349D01*
X0191908Y0056151D02*
X0164600Y0056151D01*
X0164600Y0054952D02*
X0166622Y0054952D01*
X0166457Y0053754D02*
X0164600Y0053754D01*
X0171000Y0053754D02*
X0172200Y0053754D01*
X0172200Y0054952D02*
X0171000Y0054952D01*
X0171000Y0052555D02*
X0172200Y0052555D01*
X0176578Y0054952D02*
X0176872Y0054952D01*
X0176651Y0058548D02*
X0176543Y0058548D01*
X0176543Y0059746D02*
X0176651Y0059746D01*
X0176651Y0060945D02*
X0176543Y0060945D01*
X0176543Y0062143D02*
X0176651Y0062143D01*
X0176651Y0063342D02*
X0176543Y0063342D01*
X0176543Y0064540D02*
X0176651Y0064540D01*
X0176651Y0065739D02*
X0176543Y0065739D01*
X0174600Y0066937D02*
X0178600Y0066937D01*
X0178600Y0068136D02*
X0174600Y0068136D01*
X0175769Y0069334D02*
X0177431Y0069334D01*
X0177050Y0070533D02*
X0176150Y0070533D01*
X0176150Y0071732D02*
X0177050Y0071732D01*
X0177050Y0072930D02*
X0176150Y0072930D01*
X0175506Y0074129D02*
X0177694Y0074129D01*
X0178600Y0075327D02*
X0174600Y0075327D01*
X0174600Y0076526D02*
X0178600Y0076526D01*
X0176657Y0077724D02*
X0174600Y0077724D01*
X0174600Y0078923D02*
X0176657Y0078923D01*
X0176657Y0080121D02*
X0174600Y0080121D01*
X0174600Y0081320D02*
X0176657Y0081320D01*
X0176657Y0082518D02*
X0174600Y0082518D01*
X0174600Y0083717D02*
X0176657Y0083717D01*
X0176754Y0084915D02*
X0174600Y0084915D01*
X0174600Y0086114D02*
X0183409Y0086114D01*
X0182211Y0087312D02*
X0174600Y0087312D01*
X0174600Y0088511D02*
X0176657Y0088511D01*
X0176657Y0089709D02*
X0174600Y0089709D01*
X0174600Y0090908D02*
X0176657Y0090908D01*
X0176657Y0092106D02*
X0174600Y0092106D01*
X0174600Y0093305D02*
X0176657Y0093305D01*
X0176657Y0094503D02*
X0174600Y0094503D01*
X0174944Y0095702D02*
X0176657Y0095702D01*
X0176143Y0096900D02*
X0187662Y0096900D01*
X0191000Y0096900D02*
X0192200Y0096900D01*
X0192200Y0095702D02*
X0191000Y0095702D01*
X0191000Y0094503D02*
X0192200Y0094503D01*
X0192200Y0093305D02*
X0191000Y0093305D01*
X0182135Y0102893D02*
X0217700Y0102893D01*
X0217700Y0104091D02*
X0183334Y0104091D01*
X0184532Y0105290D02*
X0217395Y0105290D01*
X0216196Y0106488D02*
X0185731Y0106488D01*
X0186929Y0107687D02*
X0214998Y0107687D01*
X0213799Y0108885D02*
X0188128Y0108885D01*
X0189219Y0110084D02*
X0212601Y0110084D01*
X0211402Y0111282D02*
X0189600Y0111282D01*
X0189600Y0112481D02*
X0210204Y0112481D01*
X0209005Y0113679D02*
X0189600Y0113679D01*
X0189600Y0114878D02*
X0207807Y0114878D01*
X0206608Y0116076D02*
X0189600Y0116076D01*
X0189600Y0117275D02*
X0205410Y0117275D01*
X0204211Y0118473D02*
X0189600Y0118473D01*
X0189600Y0119672D02*
X0203013Y0119672D01*
X0201814Y0120870D02*
X0189600Y0120870D01*
X0189600Y0122069D02*
X0200616Y0122069D01*
X0199417Y0123268D02*
X0189600Y0123268D01*
X0189600Y0124466D02*
X0198219Y0124466D01*
X0197020Y0125665D02*
X0189600Y0125665D01*
X0189600Y0126863D02*
X0195822Y0126863D01*
X0194623Y0128062D02*
X0189600Y0128062D01*
X0189600Y0129260D02*
X0193424Y0129260D01*
X0192226Y0130459D02*
X0189600Y0130459D01*
X0189600Y0131657D02*
X0191027Y0131657D01*
X0189921Y0132856D02*
X0189600Y0132856D01*
X0197079Y0137650D02*
X0212700Y0137650D01*
X0212700Y0136451D02*
X0197264Y0136451D01*
X0198463Y0135253D02*
X0212700Y0135253D01*
X0212700Y0134054D02*
X0199661Y0134054D01*
X0200860Y0132856D02*
X0212700Y0132856D01*
X0212700Y0131657D02*
X0202058Y0131657D01*
X0203257Y0130459D02*
X0212700Y0130459D01*
X0212700Y0129260D02*
X0204455Y0129260D01*
X0205654Y0128062D02*
X0212700Y0128062D01*
X0212700Y0126863D02*
X0206852Y0126863D01*
X0208051Y0125665D02*
X0212700Y0125665D01*
X0212700Y0124466D02*
X0209249Y0124466D01*
X0210448Y0123268D02*
X0212700Y0123268D01*
X0212700Y0122069D02*
X0211646Y0122069D01*
X0217700Y0101694D02*
X0180937Y0101694D01*
X0179738Y0100496D02*
X0217700Y0100496D01*
X0217700Y0099297D02*
X0178540Y0099297D01*
X0177341Y0098099D02*
X0217700Y0098099D01*
X0206651Y0082518D02*
X0206543Y0082518D01*
X0206543Y0081320D02*
X0206651Y0081320D01*
X0206651Y0080121D02*
X0206543Y0080121D01*
X0206543Y0078923D02*
X0206651Y0078923D01*
X0206651Y0077724D02*
X0206543Y0077724D01*
X0207248Y0076526D02*
X0204600Y0076526D01*
X0204600Y0075327D02*
X0206651Y0075327D01*
X0206651Y0074129D02*
X0205506Y0074129D01*
X0206150Y0072930D02*
X0206651Y0072930D01*
X0206651Y0071732D02*
X0206150Y0071732D01*
X0206150Y0070533D02*
X0206651Y0070533D01*
X0206651Y0069334D02*
X0205769Y0069334D01*
X0204571Y0068136D02*
X0206984Y0068136D01*
X0216216Y0068136D02*
X0241134Y0068136D01*
X0241134Y0069334D02*
X0216549Y0069334D01*
X0216549Y0070533D02*
X0241134Y0070533D01*
X0241134Y0071732D02*
X0216549Y0071732D01*
X0222931Y0072930D02*
X0241134Y0072930D01*
X0241134Y0074129D02*
X0224644Y0074129D01*
X0225294Y0075327D02*
X0241134Y0075327D01*
X0241134Y0076526D02*
X0225500Y0076526D01*
X0225500Y0077724D02*
X0241134Y0077724D01*
X0241134Y0078923D02*
X0225500Y0078923D01*
X0225500Y0080121D02*
X0241134Y0080121D01*
X0241134Y0066937D02*
X0184600Y0066937D01*
X0184600Y0068136D02*
X0188629Y0068136D01*
X0187431Y0069334D02*
X0185769Y0069334D01*
X0186150Y0070533D02*
X0187050Y0070533D01*
X0187050Y0071732D02*
X0186150Y0071732D01*
X0186150Y0072930D02*
X0187050Y0072930D01*
X0187694Y0074129D02*
X0185506Y0074129D01*
X0184600Y0075327D02*
X0188600Y0075327D01*
X0187397Y0076526D02*
X0184600Y0076526D01*
X0186543Y0077724D02*
X0186651Y0077724D01*
X0186651Y0078923D02*
X0186543Y0078923D01*
X0186543Y0080121D02*
X0186651Y0080121D01*
X0186651Y0081320D02*
X0186543Y0081320D01*
X0186543Y0082518D02*
X0186651Y0082518D01*
X0186549Y0065739D02*
X0241134Y0065739D01*
X0241134Y0064540D02*
X0216549Y0064540D01*
X0216549Y0063342D02*
X0241134Y0063342D01*
X0241134Y0062143D02*
X0216549Y0062143D01*
X0216549Y0060945D02*
X0241134Y0060945D01*
X0241134Y0059746D02*
X0216549Y0059746D01*
X0216549Y0058548D02*
X0241134Y0058548D01*
X0241134Y0057349D02*
X0216549Y0057349D01*
X0197901Y0062143D02*
X0186549Y0062143D01*
X0186549Y0060945D02*
X0196702Y0060945D01*
X0195504Y0059746D02*
X0186549Y0059746D01*
X0186549Y0058548D02*
X0194305Y0058548D01*
X0190710Y0054952D02*
X0186328Y0054952D01*
X0189715Y0046150D02*
X0187050Y0043485D01*
X0187050Y0039715D01*
X0189715Y0037050D01*
X0193485Y0037050D01*
X0196150Y0039715D01*
X0196150Y0043485D01*
X0193485Y0046150D01*
X0189715Y0046150D01*
X0188930Y0045364D02*
X0184600Y0045364D01*
X0185469Y0044166D02*
X0187731Y0044166D01*
X0187050Y0042967D02*
X0186150Y0042967D01*
X0186150Y0041769D02*
X0187050Y0041769D01*
X0187050Y0040570D02*
X0186150Y0040570D01*
X0185806Y0039372D02*
X0187394Y0039372D01*
X0188592Y0038173D02*
X0184608Y0038173D01*
X0184600Y0036975D02*
X0198600Y0036975D01*
X0198592Y0038173D02*
X0194608Y0038173D01*
X0194448Y0036743D02*
X0191688Y0036743D01*
X0191688Y0032200D01*
X0195838Y0032200D01*
X0195838Y0035354D01*
X0195729Y0035761D01*
X0195518Y0036126D01*
X0195220Y0036424D01*
X0194855Y0036634D01*
X0194448Y0036743D01*
X0195720Y0035776D02*
X0197615Y0035776D01*
X0197562Y0034578D02*
X0195838Y0034578D01*
X0195838Y0033379D02*
X0197562Y0033379D01*
X0197562Y0032181D02*
X0191688Y0032181D01*
X0191688Y0033379D02*
X0190488Y0033379D01*
X0190488Y0034578D02*
X0191688Y0034578D01*
X0191688Y0035776D02*
X0190488Y0035776D01*
X0190488Y0030982D02*
X0191688Y0030982D01*
X0191688Y0029784D02*
X0190488Y0029784D01*
X0190488Y0028585D02*
X0191688Y0028585D01*
X0191688Y0027387D02*
X0190488Y0027387D01*
X0195698Y0027387D02*
X0197652Y0027387D01*
X0197562Y0028585D02*
X0195838Y0028585D01*
X0195838Y0029784D02*
X0197562Y0029784D01*
X0197562Y0030982D02*
X0195838Y0030982D01*
X0195806Y0039372D02*
X0197394Y0039372D01*
X0197050Y0040570D02*
X0196150Y0040570D01*
X0196150Y0041769D02*
X0197050Y0041769D01*
X0197050Y0042967D02*
X0196150Y0042967D01*
X0195469Y0044166D02*
X0197731Y0044166D01*
X0198930Y0045364D02*
X0194270Y0045364D01*
X0133629Y0068136D02*
X0129571Y0068136D01*
X0130769Y0069334D02*
X0132431Y0069334D01*
X0132050Y0070533D02*
X0131150Y0070533D01*
X0131150Y0071732D02*
X0132050Y0071732D01*
X0132050Y0072930D02*
X0131150Y0072930D01*
X0130506Y0074129D02*
X0132694Y0074129D01*
X0133600Y0075327D02*
X0129600Y0075327D01*
X0130803Y0076526D02*
X0133600Y0076526D01*
X0131657Y0077724D02*
X0131549Y0077724D01*
X0131549Y0078923D02*
X0131657Y0078923D01*
X0131657Y0080121D02*
X0131549Y0080121D01*
X0131549Y0081320D02*
X0131657Y0081320D01*
X0131657Y0082518D02*
X0131549Y0082518D01*
X0131549Y0083717D02*
X0131657Y0083717D01*
X0131754Y0084915D02*
X0131365Y0084915D01*
X0136000Y0093305D02*
X0137200Y0093305D01*
X0137200Y0094503D02*
X0136000Y0094503D01*
X0136000Y0095702D02*
X0137200Y0095702D01*
X0169600Y0099297D02*
X0170055Y0099297D01*
X0169600Y0100496D02*
X0171253Y0100496D01*
X0172452Y0101694D02*
X0169600Y0101694D01*
X0169600Y0102893D02*
X0173650Y0102893D01*
X0174849Y0104091D02*
X0169600Y0104091D01*
X0169600Y0105290D02*
X0176047Y0105290D01*
X0177246Y0106488D02*
X0170731Y0106488D01*
X0171930Y0107687D02*
X0178444Y0107687D01*
X0179643Y0108885D02*
X0173128Y0108885D01*
X0174327Y0110084D02*
X0180841Y0110084D01*
X0182040Y0111282D02*
X0175525Y0111282D01*
X0176724Y0112481D02*
X0183238Y0112481D01*
X0183600Y0113679D02*
X0178739Y0113679D01*
X0179759Y0114878D02*
X0183600Y0114878D01*
X0183600Y0116076D02*
X0180178Y0116076D01*
X0180178Y0117275D02*
X0183600Y0117275D01*
X0183600Y0118473D02*
X0179697Y0118473D01*
X0178533Y0119672D02*
X0183600Y0119672D01*
X0184855Y0209560D02*
X0178345Y0209560D01*
X0179981Y0210759D02*
X0183219Y0210759D01*
X0182518Y0211957D02*
X0180682Y0211957D01*
X0181000Y0213156D02*
X0182200Y0213156D01*
X0182200Y0214354D02*
X0181000Y0214354D01*
X0181000Y0215553D02*
X0182200Y0215553D01*
X0182200Y0216751D02*
X0181000Y0216751D01*
X0181000Y0217950D02*
X0182200Y0217950D01*
X0182200Y0219148D02*
X0181000Y0219148D01*
X0181000Y0220347D02*
X0182200Y0220347D01*
X0182643Y0221545D02*
X0180557Y0221545D01*
X0179679Y0222744D02*
X0183521Y0222744D01*
X0241134Y0225141D02*
X0071200Y0225141D01*
X0071200Y0226339D02*
X0241134Y0226339D01*
X0241134Y0227538D02*
X0071200Y0227538D01*
X0071200Y0228737D02*
X0241134Y0228737D01*
X0241134Y0229935D02*
X0071200Y0229935D01*
X0071200Y0231134D02*
X0241134Y0231134D01*
X0241134Y0232332D02*
X0071200Y0232332D01*
X0071200Y0233531D02*
X0241134Y0233531D01*
X0241134Y0234729D02*
X0071200Y0234729D01*
X0071200Y0235928D02*
X0241134Y0235928D01*
X0241134Y0237126D02*
X0071200Y0237126D01*
X0071200Y0238325D02*
X0241134Y0238325D01*
X0241134Y0239523D02*
X0071200Y0239523D01*
X0071200Y0240722D02*
X0241134Y0240722D01*
X0241134Y0241920D02*
X0071200Y0241920D01*
X0071200Y0243119D02*
X0241134Y0243119D01*
X0241134Y0244317D02*
X0071200Y0244317D01*
X0071200Y0245516D02*
X0241134Y0245516D01*
X0241134Y0246714D02*
X0071200Y0246714D01*
X0071200Y0247913D02*
X0241134Y0247913D01*
X0241134Y0249111D02*
X0071200Y0249111D01*
X0071200Y0250310D02*
X0241134Y0250310D01*
X0241134Y0251508D02*
X0071200Y0251508D01*
X0071200Y0252707D02*
X0241134Y0252707D01*
D21*
X0211600Y0091600D02*
X0201600Y0081600D01*
X0191600Y0081600D02*
X0181600Y0091600D01*
X0146600Y0091600D02*
X0136600Y0081600D01*
X0126600Y0081600D02*
X0116600Y0091600D01*
D22*
X0096600Y0201600D02*
X0096600Y0216600D01*
X0096600Y0201600D02*
X0096088Y0201600D01*
M02*
