G75*
%MOIN*%
%OFA0B0*%
%FSLAX25Y25*%
%IPPOS*%
%LPD*%
%AMOC8*
5,1,8,0,0,1.08239X$1,22.5*
%
%ADD10C,0.06800*%
%ADD11OC8,0.07100*%
%ADD12R,0.07887X0.07099*%
%ADD13R,0.07099X0.07887*%
%ADD14R,0.11824X0.10249*%
%ADD15R,0.07099X0.07898*%
%ADD16R,0.07898X0.07099*%
%ADD17C,0.05156*%
D10*
X0096600Y0213600D02*
X0096600Y0219600D01*
X0106600Y0219600D02*
X0106600Y0213600D01*
X0116600Y0213600D02*
X0116600Y0219600D01*
X0126600Y0219600D02*
X0126600Y0213600D01*
X0176600Y0213600D02*
X0176600Y0219600D01*
X0186600Y0219600D02*
X0186600Y0213600D01*
X0196600Y0213600D02*
X0196600Y0219600D01*
X0206600Y0219600D02*
X0206600Y0213600D01*
D11*
X0201600Y0071600D03*
X0191600Y0071600D03*
X0181600Y0071600D03*
X0171600Y0071600D03*
X0171600Y0041600D03*
X0181600Y0041600D03*
X0191600Y0041600D03*
X0201600Y0041600D03*
X0136600Y0041600D03*
X0126600Y0041600D03*
X0116600Y0041600D03*
X0106600Y0041600D03*
X0106600Y0071600D03*
X0116600Y0071600D03*
X0126600Y0071600D03*
X0136600Y0071600D03*
D12*
X0136600Y0081088D03*
X0136600Y0092112D03*
X0116600Y0092112D03*
X0116600Y0081088D03*
X0106600Y0062112D03*
X0106600Y0051088D03*
X0171600Y0051088D03*
X0171600Y0062112D03*
X0181600Y0081088D03*
X0181600Y0092112D03*
X0201600Y0092112D03*
X0201600Y0081088D03*
D13*
X0202112Y0031600D03*
X0191088Y0031600D03*
X0137112Y0031600D03*
X0126088Y0031600D03*
X0127112Y0201600D03*
X0116088Y0201600D03*
X0107112Y0201600D03*
X0096088Y0201600D03*
D14*
X0086600Y0189002D03*
X0086600Y0164198D03*
X0151600Y0191698D03*
X0151600Y0216502D03*
D15*
X0106002Y0031600D03*
X0117198Y0031600D03*
X0171002Y0031600D03*
X0182198Y0031600D03*
X0127198Y0126600D03*
X0116002Y0126600D03*
X0181002Y0189100D03*
X0192198Y0189100D03*
D16*
X0216600Y0192198D03*
X0216600Y0181002D03*
X0211600Y0092198D03*
X0211600Y0081002D03*
X0211600Y0072198D03*
X0211600Y0061002D03*
X0191600Y0081002D03*
X0191600Y0092198D03*
X0181600Y0062198D03*
X0181600Y0051002D03*
X0146600Y0061002D03*
X0146600Y0072198D03*
X0146600Y0081002D03*
X0146600Y0092198D03*
X0126600Y0092198D03*
X0126600Y0081002D03*
X0116600Y0062198D03*
X0116600Y0051002D03*
D17*
X0146600Y0031600D03*
X0149100Y0101600D03*
X0176600Y0116600D03*
X0193293Y0136600D03*
X0199986Y0141600D03*
X0226600Y0111600D03*
X0214100Y0101600D03*
X0156600Y0141600D03*
X0134986Y0141600D03*
X0128293Y0136600D03*
X0111600Y0116600D03*
X0089100Y0101600D03*
X0156600Y0176600D03*
M02*
