G75*
%MOIN*%
%OFA0B0*%
%FSLAX25Y25*%
%IPPOS*%
%LPD*%
%AMOC8*
5,1,8,0,0,1.08239X$1,22.5*
%
%ADD10C,0.06000*%
%ADD11R,0.42520X0.07520*%
%ADD12R,0.32795X0.23622*%
%ADD13R,0.04213X0.08504*%
%ADD14OC8,0.06300*%
%ADD15R,0.09843X0.07677*%
%ADD16R,0.07087X0.06299*%
%ADD17C,0.05000*%
%ADD18C,0.04356*%
%ADD19C,0.03200*%
%ADD20C,0.01200*%
D10*
X0096600Y0213600D02*
X0096600Y0219600D01*
X0106600Y0219600D02*
X0106600Y0213600D01*
X0116600Y0213600D02*
X0116600Y0219600D01*
X0126600Y0219600D02*
X0126600Y0213600D01*
X0176600Y0213600D02*
X0176600Y0219600D01*
X0186600Y0219600D02*
X0186600Y0213600D01*
X0196600Y0213600D02*
X0196600Y0219600D01*
X0206600Y0219600D02*
X0206600Y0213600D01*
D11*
X0186600Y0177840D03*
X0121600Y0177840D03*
D12*
X0121600Y0165911D03*
X0186600Y0165911D03*
D13*
X0186600Y0125813D03*
X0179907Y0125813D03*
X0173214Y0125813D03*
X0193293Y0125813D03*
X0199986Y0125813D03*
X0134986Y0125813D03*
X0128293Y0125813D03*
X0121600Y0125813D03*
X0114907Y0125813D03*
X0108214Y0125813D03*
D14*
X0106600Y0071600D03*
X0116600Y0071600D03*
X0126600Y0071600D03*
X0136600Y0071600D03*
X0136600Y0041600D03*
X0126600Y0041600D03*
X0116600Y0041600D03*
X0106600Y0041600D03*
X0171600Y0041600D03*
X0181600Y0041600D03*
X0191600Y0041600D03*
X0201600Y0041600D03*
X0201600Y0071600D03*
X0191600Y0071600D03*
X0181600Y0071600D03*
X0171600Y0071600D03*
D15*
X0166600Y0100596D03*
X0166600Y0112604D03*
X0196600Y0112604D03*
X0196600Y0100596D03*
X0131600Y0100596D03*
X0131600Y0112604D03*
X0101600Y0112604D03*
X0101600Y0100596D03*
D16*
X0121600Y0101088D03*
X0121600Y0112112D03*
X0141600Y0112112D03*
X0141600Y0101088D03*
X0186600Y0101088D03*
X0186600Y0112112D03*
X0206600Y0112112D03*
X0206600Y0101088D03*
D17*
X0206600Y0101600D01*
X0214100Y0101600D01*
X0216600Y0101600D01*
X0226600Y0111600D01*
X0206600Y0111600D02*
X0199986Y0111600D01*
X0196600Y0111600D01*
X0196600Y0112604D01*
X0199986Y0111600D02*
X0199986Y0125813D01*
X0199986Y0141600D01*
X0193293Y0136600D02*
X0193293Y0125813D01*
X0206600Y0112112D02*
X0206600Y0111600D01*
X0206600Y0101600D02*
X0196600Y0101600D01*
X0196600Y0100596D01*
X0196600Y0101600D02*
X0186600Y0101600D01*
X0186600Y0101088D01*
X0186600Y0101600D02*
X0166600Y0101600D01*
X0166600Y0100596D01*
X0149100Y0101600D02*
X0141600Y0101600D01*
X0141600Y0101088D01*
X0141600Y0101600D02*
X0134100Y0101600D01*
X0134100Y0100596D01*
X0131600Y0100596D01*
X0131600Y0101600D01*
X0121600Y0101600D01*
X0121600Y0101088D01*
X0121600Y0101600D02*
X0101600Y0101600D01*
X0101600Y0100596D01*
X0101600Y0101600D02*
X0089100Y0101600D01*
X0128293Y0125813D02*
X0128293Y0136600D01*
X0134986Y0141600D02*
X0134986Y0125813D01*
X0134986Y0112604D01*
X0131600Y0112604D01*
X0131600Y0111600D01*
X0141600Y0111600D01*
X0141600Y0112112D01*
X0156600Y0141600D02*
X0156600Y0176600D01*
X0176600Y0216600D02*
X0176600Y0221600D01*
X0166600Y0231600D01*
X0086600Y0231600D01*
X0081600Y0226600D01*
X0081600Y0036600D01*
X0091600Y0026600D01*
X0121600Y0026600D01*
X0126600Y0031600D01*
X0126600Y0041600D01*
X0191600Y0041600D02*
X0191600Y0031600D01*
X0196600Y0026600D01*
X0221600Y0026600D01*
X0236600Y0041600D01*
X0236600Y0221600D01*
X0221600Y0236600D01*
X0191600Y0236600D01*
X0186600Y0231600D01*
X0186600Y0216600D01*
D18*
X0156600Y0176600D03*
X0156600Y0141600D03*
X0134986Y0141600D03*
X0128293Y0136600D03*
X0111600Y0116600D03*
X0089100Y0101600D03*
X0149100Y0101600D03*
X0176600Y0116600D03*
X0193293Y0136600D03*
X0199986Y0141600D03*
X0226600Y0111600D03*
X0214100Y0101600D03*
X0146600Y0031600D03*
D19*
X0176600Y0116600D02*
X0179907Y0119907D01*
X0179907Y0125813D01*
X0114907Y0125813D02*
X0114907Y0119907D01*
X0111600Y0116600D01*
D20*
X0071200Y0021200D02*
X0071200Y0253220D01*
X0241134Y0253220D01*
X0241134Y0021200D01*
X0071200Y0021200D01*
X0071200Y0021394D02*
X0241134Y0021394D01*
X0241134Y0022593D02*
X0071200Y0022593D01*
X0071200Y0023791D02*
X0088893Y0023791D01*
X0089391Y0023294D02*
X0090824Y0022700D01*
X0122376Y0022700D01*
X0123809Y0023294D01*
X0128809Y0028294D01*
X0129906Y0029391D01*
X0130500Y0030824D01*
X0130500Y0039065D01*
X0131150Y0039715D01*
X0131150Y0043485D01*
X0128485Y0046150D01*
X0124715Y0046150D01*
X0122050Y0043485D01*
X0122050Y0039715D01*
X0122700Y0039065D01*
X0122700Y0033215D01*
X0119985Y0030500D01*
X0093215Y0030500D01*
X0085500Y0038215D01*
X0085500Y0100100D01*
X0085794Y0099391D01*
X0086891Y0098294D01*
X0088324Y0097700D01*
X0095279Y0097700D01*
X0095279Y0096178D01*
X0096099Y0095357D01*
X0107101Y0095357D01*
X0107921Y0096178D01*
X0107921Y0097700D01*
X0116657Y0097700D01*
X0116657Y0097359D01*
X0117477Y0096539D01*
X0125279Y0096539D01*
X0125279Y0096178D01*
X0126099Y0095357D01*
X0137101Y0095357D01*
X0137921Y0096178D01*
X0137921Y0096539D01*
X0145723Y0096539D01*
X0146543Y0097359D01*
X0146543Y0097700D01*
X0149876Y0097700D01*
X0151309Y0098294D01*
X0152406Y0099391D01*
X0153000Y0100824D01*
X0153000Y0102376D01*
X0152406Y0103809D01*
X0151309Y0104906D01*
X0149876Y0105500D01*
X0145861Y0105500D01*
X0145723Y0105638D01*
X0137477Y0105638D01*
X0137387Y0105548D01*
X0137101Y0105835D01*
X0126099Y0105835D01*
X0125813Y0105548D01*
X0125723Y0105638D01*
X0117477Y0105638D01*
X0117339Y0105500D01*
X0107436Y0105500D01*
X0107101Y0105835D01*
X0096099Y0105835D01*
X0095764Y0105500D01*
X0088324Y0105500D01*
X0086891Y0104906D01*
X0085794Y0103809D01*
X0085500Y0103100D01*
X0085500Y0224985D01*
X0088215Y0227700D01*
X0164985Y0227700D01*
X0172203Y0220482D01*
X0172200Y0220475D01*
X0172200Y0212725D01*
X0172870Y0211108D01*
X0174108Y0209870D01*
X0175725Y0209200D01*
X0177475Y0209200D01*
X0179092Y0209870D01*
X0180330Y0211108D01*
X0181000Y0212725D01*
X0181000Y0220475D01*
X0180500Y0221682D01*
X0180500Y0222376D01*
X0179906Y0223809D01*
X0169906Y0233809D01*
X0168809Y0234906D01*
X0167376Y0235500D01*
X0085824Y0235500D01*
X0084391Y0234906D01*
X0079391Y0229906D01*
X0078294Y0228809D01*
X0077700Y0227376D01*
X0077700Y0035824D01*
X0078294Y0034391D01*
X0089391Y0023294D01*
X0087695Y0024990D02*
X0071200Y0024990D01*
X0071200Y0026188D02*
X0086496Y0026188D01*
X0085298Y0027387D02*
X0071200Y0027387D01*
X0071200Y0028585D02*
X0084099Y0028585D01*
X0082901Y0029784D02*
X0071200Y0029784D01*
X0071200Y0030982D02*
X0081702Y0030982D01*
X0080504Y0032181D02*
X0071200Y0032181D01*
X0071200Y0033379D02*
X0079305Y0033379D01*
X0078216Y0034578D02*
X0071200Y0034578D01*
X0071200Y0035776D02*
X0077720Y0035776D01*
X0077700Y0036975D02*
X0071200Y0036975D01*
X0071200Y0038173D02*
X0077700Y0038173D01*
X0077700Y0039372D02*
X0071200Y0039372D01*
X0071200Y0040570D02*
X0077700Y0040570D01*
X0077700Y0041769D02*
X0071200Y0041769D01*
X0071200Y0042967D02*
X0077700Y0042967D01*
X0077700Y0044166D02*
X0071200Y0044166D01*
X0071200Y0045364D02*
X0077700Y0045364D01*
X0077700Y0046563D02*
X0071200Y0046563D01*
X0071200Y0047761D02*
X0077700Y0047761D01*
X0077700Y0048960D02*
X0071200Y0048960D01*
X0071200Y0050158D02*
X0077700Y0050158D01*
X0077700Y0051357D02*
X0071200Y0051357D01*
X0071200Y0052555D02*
X0077700Y0052555D01*
X0077700Y0053754D02*
X0071200Y0053754D01*
X0071200Y0054952D02*
X0077700Y0054952D01*
X0077700Y0056151D02*
X0071200Y0056151D01*
X0071200Y0057349D02*
X0077700Y0057349D01*
X0077700Y0058548D02*
X0071200Y0058548D01*
X0071200Y0059746D02*
X0077700Y0059746D01*
X0077700Y0060945D02*
X0071200Y0060945D01*
X0071200Y0062143D02*
X0077700Y0062143D01*
X0077700Y0063342D02*
X0071200Y0063342D01*
X0071200Y0064540D02*
X0077700Y0064540D01*
X0077700Y0065739D02*
X0071200Y0065739D01*
X0071200Y0066937D02*
X0077700Y0066937D01*
X0077700Y0068136D02*
X0071200Y0068136D01*
X0071200Y0069334D02*
X0077700Y0069334D01*
X0077700Y0070533D02*
X0071200Y0070533D01*
X0071200Y0071732D02*
X0077700Y0071732D01*
X0077700Y0072930D02*
X0071200Y0072930D01*
X0071200Y0074129D02*
X0077700Y0074129D01*
X0077700Y0075327D02*
X0071200Y0075327D01*
X0071200Y0076526D02*
X0077700Y0076526D01*
X0077700Y0077724D02*
X0071200Y0077724D01*
X0071200Y0078923D02*
X0077700Y0078923D01*
X0077700Y0080121D02*
X0071200Y0080121D01*
X0071200Y0081320D02*
X0077700Y0081320D01*
X0077700Y0082518D02*
X0071200Y0082518D01*
X0071200Y0083717D02*
X0077700Y0083717D01*
X0077700Y0084915D02*
X0071200Y0084915D01*
X0071200Y0086114D02*
X0077700Y0086114D01*
X0077700Y0087312D02*
X0071200Y0087312D01*
X0071200Y0088511D02*
X0077700Y0088511D01*
X0077700Y0089709D02*
X0071200Y0089709D01*
X0071200Y0090908D02*
X0077700Y0090908D01*
X0077700Y0092106D02*
X0071200Y0092106D01*
X0071200Y0093305D02*
X0077700Y0093305D01*
X0077700Y0094503D02*
X0071200Y0094503D01*
X0071200Y0095702D02*
X0077700Y0095702D01*
X0077700Y0096900D02*
X0071200Y0096900D01*
X0071200Y0098099D02*
X0077700Y0098099D01*
X0077700Y0099297D02*
X0071200Y0099297D01*
X0071200Y0100496D02*
X0077700Y0100496D01*
X0077700Y0101694D02*
X0071200Y0101694D01*
X0071200Y0102893D02*
X0077700Y0102893D01*
X0077700Y0104091D02*
X0071200Y0104091D01*
X0071200Y0105290D02*
X0077700Y0105290D01*
X0077700Y0106488D02*
X0071200Y0106488D01*
X0071200Y0107687D02*
X0077700Y0107687D01*
X0077700Y0108885D02*
X0071200Y0108885D01*
X0071200Y0110084D02*
X0077700Y0110084D01*
X0077700Y0111282D02*
X0071200Y0111282D01*
X0071200Y0112481D02*
X0077700Y0112481D01*
X0077700Y0113679D02*
X0071200Y0113679D01*
X0071200Y0114878D02*
X0077700Y0114878D01*
X0077700Y0116076D02*
X0071200Y0116076D01*
X0071200Y0117275D02*
X0077700Y0117275D01*
X0077700Y0118473D02*
X0071200Y0118473D01*
X0071200Y0119672D02*
X0077700Y0119672D01*
X0077700Y0120870D02*
X0071200Y0120870D01*
X0071200Y0122069D02*
X0077700Y0122069D01*
X0077700Y0123268D02*
X0071200Y0123268D01*
X0071200Y0124466D02*
X0077700Y0124466D01*
X0077700Y0125665D02*
X0071200Y0125665D01*
X0071200Y0126863D02*
X0077700Y0126863D01*
X0077700Y0128062D02*
X0071200Y0128062D01*
X0071200Y0129260D02*
X0077700Y0129260D01*
X0077700Y0130459D02*
X0071200Y0130459D01*
X0071200Y0131657D02*
X0077700Y0131657D01*
X0077700Y0132856D02*
X0071200Y0132856D01*
X0071200Y0134054D02*
X0077700Y0134054D01*
X0077700Y0135253D02*
X0071200Y0135253D01*
X0071200Y0136451D02*
X0077700Y0136451D01*
X0077700Y0137650D02*
X0071200Y0137650D01*
X0071200Y0138848D02*
X0077700Y0138848D01*
X0077700Y0140047D02*
X0071200Y0140047D01*
X0071200Y0141245D02*
X0077700Y0141245D01*
X0077700Y0142444D02*
X0071200Y0142444D01*
X0071200Y0143642D02*
X0077700Y0143642D01*
X0077700Y0144841D02*
X0071200Y0144841D01*
X0071200Y0146039D02*
X0077700Y0146039D01*
X0077700Y0147238D02*
X0071200Y0147238D01*
X0071200Y0148436D02*
X0077700Y0148436D01*
X0077700Y0149635D02*
X0071200Y0149635D01*
X0071200Y0150833D02*
X0077700Y0150833D01*
X0077700Y0152032D02*
X0071200Y0152032D01*
X0071200Y0153230D02*
X0077700Y0153230D01*
X0077700Y0154429D02*
X0071200Y0154429D01*
X0071200Y0155627D02*
X0077700Y0155627D01*
X0077700Y0156826D02*
X0071200Y0156826D01*
X0071200Y0158024D02*
X0077700Y0158024D01*
X0077700Y0159223D02*
X0071200Y0159223D01*
X0071200Y0160421D02*
X0077700Y0160421D01*
X0077700Y0161620D02*
X0071200Y0161620D01*
X0071200Y0162818D02*
X0077700Y0162818D01*
X0077700Y0164017D02*
X0071200Y0164017D01*
X0071200Y0165215D02*
X0077700Y0165215D01*
X0077700Y0166414D02*
X0071200Y0166414D01*
X0071200Y0167612D02*
X0077700Y0167612D01*
X0077700Y0168811D02*
X0071200Y0168811D01*
X0071200Y0170009D02*
X0077700Y0170009D01*
X0077700Y0171208D02*
X0071200Y0171208D01*
X0071200Y0172406D02*
X0077700Y0172406D01*
X0077700Y0173605D02*
X0071200Y0173605D01*
X0071200Y0174803D02*
X0077700Y0174803D01*
X0077700Y0176002D02*
X0071200Y0176002D01*
X0071200Y0177201D02*
X0077700Y0177201D01*
X0077700Y0178399D02*
X0071200Y0178399D01*
X0071200Y0179598D02*
X0077700Y0179598D01*
X0077700Y0180796D02*
X0071200Y0180796D01*
X0071200Y0181995D02*
X0077700Y0181995D01*
X0077700Y0183193D02*
X0071200Y0183193D01*
X0071200Y0184392D02*
X0077700Y0184392D01*
X0077700Y0185590D02*
X0071200Y0185590D01*
X0071200Y0186789D02*
X0077700Y0186789D01*
X0077700Y0187987D02*
X0071200Y0187987D01*
X0071200Y0189186D02*
X0077700Y0189186D01*
X0077700Y0190384D02*
X0071200Y0190384D01*
X0071200Y0191583D02*
X0077700Y0191583D01*
X0077700Y0192781D02*
X0071200Y0192781D01*
X0071200Y0193980D02*
X0077700Y0193980D01*
X0077700Y0195178D02*
X0071200Y0195178D01*
X0071200Y0196377D02*
X0077700Y0196377D01*
X0077700Y0197575D02*
X0071200Y0197575D01*
X0071200Y0198774D02*
X0077700Y0198774D01*
X0077700Y0199972D02*
X0071200Y0199972D01*
X0071200Y0201171D02*
X0077700Y0201171D01*
X0077700Y0202369D02*
X0071200Y0202369D01*
X0071200Y0203568D02*
X0077700Y0203568D01*
X0077700Y0204766D02*
X0071200Y0204766D01*
X0071200Y0205965D02*
X0077700Y0205965D01*
X0077700Y0207163D02*
X0071200Y0207163D01*
X0071200Y0208362D02*
X0077700Y0208362D01*
X0077700Y0209560D02*
X0071200Y0209560D01*
X0071200Y0210759D02*
X0077700Y0210759D01*
X0077700Y0211957D02*
X0071200Y0211957D01*
X0071200Y0213156D02*
X0077700Y0213156D01*
X0077700Y0214354D02*
X0071200Y0214354D01*
X0071200Y0215553D02*
X0077700Y0215553D01*
X0077700Y0216751D02*
X0071200Y0216751D01*
X0071200Y0217950D02*
X0077700Y0217950D01*
X0077700Y0219148D02*
X0071200Y0219148D01*
X0071200Y0220347D02*
X0077700Y0220347D01*
X0077700Y0221545D02*
X0071200Y0221545D01*
X0071200Y0222744D02*
X0077700Y0222744D01*
X0077700Y0223942D02*
X0071200Y0223942D01*
X0071200Y0225141D02*
X0077700Y0225141D01*
X0077700Y0226339D02*
X0071200Y0226339D01*
X0071200Y0227538D02*
X0077767Y0227538D01*
X0078264Y0228737D02*
X0071200Y0228737D01*
X0071200Y0229935D02*
X0079420Y0229935D01*
X0080618Y0231134D02*
X0071200Y0231134D01*
X0071200Y0232332D02*
X0081817Y0232332D01*
X0083015Y0233531D02*
X0071200Y0233531D01*
X0071200Y0234729D02*
X0084214Y0234729D01*
X0088053Y0227538D02*
X0165147Y0227538D01*
X0166345Y0226339D02*
X0086855Y0226339D01*
X0085656Y0225141D02*
X0167544Y0225141D01*
X0168742Y0223942D02*
X0127614Y0223942D01*
X0127475Y0224000D02*
X0125725Y0224000D01*
X0124108Y0223330D01*
X0122870Y0222092D01*
X0122200Y0220475D01*
X0122200Y0212725D01*
X0122870Y0211108D01*
X0124108Y0209870D01*
X0125725Y0209200D01*
X0127475Y0209200D01*
X0129092Y0209870D01*
X0130330Y0211108D01*
X0131000Y0212725D01*
X0131000Y0220475D01*
X0130330Y0222092D01*
X0129092Y0223330D01*
X0127475Y0224000D01*
X0125586Y0223942D02*
X0117614Y0223942D01*
X0117475Y0224000D02*
X0115725Y0224000D01*
X0114108Y0223330D01*
X0112870Y0222092D01*
X0112200Y0220475D01*
X0112200Y0212725D01*
X0112870Y0211108D01*
X0114108Y0209870D01*
X0115725Y0209200D01*
X0117475Y0209200D01*
X0119092Y0209870D01*
X0120330Y0211108D01*
X0121000Y0212725D01*
X0121000Y0220475D01*
X0120330Y0222092D01*
X0119092Y0223330D01*
X0117475Y0224000D01*
X0115586Y0223942D02*
X0107614Y0223942D01*
X0107475Y0224000D02*
X0105725Y0224000D01*
X0104108Y0223330D01*
X0102870Y0222092D01*
X0102200Y0220475D01*
X0102200Y0212725D01*
X0102870Y0211108D01*
X0104108Y0209870D01*
X0105725Y0209200D01*
X0107475Y0209200D01*
X0109092Y0209870D01*
X0110330Y0211108D01*
X0111000Y0212725D01*
X0111000Y0220475D01*
X0110330Y0222092D01*
X0109092Y0223330D01*
X0107475Y0224000D01*
X0105586Y0223942D02*
X0098121Y0223942D01*
X0098366Y0223863D02*
X0097677Y0224087D01*
X0097000Y0224194D01*
X0097000Y0217000D01*
X0101200Y0217000D01*
X0101200Y0219962D01*
X0101087Y0220677D01*
X0100863Y0221366D01*
X0100534Y0222011D01*
X0100109Y0222597D01*
X0099597Y0223109D01*
X0099011Y0223534D01*
X0098366Y0223863D01*
X0097000Y0223942D02*
X0096200Y0223942D01*
X0096200Y0224194D02*
X0095523Y0224087D01*
X0094834Y0223863D01*
X0094189Y0223534D01*
X0093603Y0223109D01*
X0093091Y0222597D01*
X0092666Y0222011D01*
X0092337Y0221366D01*
X0092113Y0220677D01*
X0092000Y0219962D01*
X0092000Y0217000D01*
X0096200Y0217000D01*
X0096200Y0224194D01*
X0095079Y0223942D02*
X0085500Y0223942D01*
X0085500Y0222744D02*
X0093239Y0222744D01*
X0092429Y0221545D02*
X0085500Y0221545D01*
X0085500Y0220347D02*
X0092061Y0220347D01*
X0092000Y0219148D02*
X0085500Y0219148D01*
X0085500Y0217950D02*
X0092000Y0217950D01*
X0092000Y0216200D02*
X0092000Y0213238D01*
X0092113Y0212523D01*
X0092337Y0211834D01*
X0092666Y0211189D01*
X0093091Y0210603D01*
X0093603Y0210091D01*
X0094189Y0209666D01*
X0094834Y0209337D01*
X0095523Y0209113D01*
X0096200Y0209006D01*
X0096200Y0216200D01*
X0097000Y0216200D01*
X0097000Y0217000D01*
X0096200Y0217000D01*
X0096200Y0216200D01*
X0092000Y0216200D01*
X0092000Y0215553D02*
X0085500Y0215553D01*
X0085500Y0216751D02*
X0096200Y0216751D01*
X0097000Y0216751D02*
X0102200Y0216751D01*
X0101200Y0216200D02*
X0097000Y0216200D01*
X0097000Y0209006D01*
X0097677Y0209113D01*
X0098366Y0209337D01*
X0099011Y0209666D01*
X0099597Y0210091D01*
X0100109Y0210603D01*
X0100534Y0211189D01*
X0100863Y0211834D01*
X0101087Y0212523D01*
X0101200Y0213238D01*
X0101200Y0216200D01*
X0101200Y0215553D02*
X0102200Y0215553D01*
X0102200Y0214354D02*
X0101200Y0214354D01*
X0101187Y0213156D02*
X0102200Y0213156D01*
X0102518Y0211957D02*
X0100903Y0211957D01*
X0100222Y0210759D02*
X0103219Y0210759D01*
X0104855Y0209560D02*
X0098804Y0209560D01*
X0097000Y0209560D02*
X0096200Y0209560D01*
X0096200Y0210759D02*
X0097000Y0210759D01*
X0097000Y0211957D02*
X0096200Y0211957D01*
X0096200Y0213156D02*
X0097000Y0213156D01*
X0097000Y0214354D02*
X0096200Y0214354D01*
X0096200Y0215553D02*
X0097000Y0215553D01*
X0097000Y0217950D02*
X0096200Y0217950D01*
X0096200Y0219148D02*
X0097000Y0219148D01*
X0097000Y0220347D02*
X0096200Y0220347D01*
X0096200Y0221545D02*
X0097000Y0221545D01*
X0097000Y0222744D02*
X0096200Y0222744D01*
X0099961Y0222744D02*
X0103521Y0222744D01*
X0102643Y0221545D02*
X0100771Y0221545D01*
X0101139Y0220347D02*
X0102200Y0220347D01*
X0102200Y0219148D02*
X0101200Y0219148D01*
X0101200Y0217950D02*
X0102200Y0217950D01*
X0109679Y0222744D02*
X0113521Y0222744D01*
X0112643Y0221545D02*
X0110557Y0221545D01*
X0111000Y0220347D02*
X0112200Y0220347D01*
X0112200Y0219148D02*
X0111000Y0219148D01*
X0111000Y0217950D02*
X0112200Y0217950D01*
X0112200Y0216751D02*
X0111000Y0216751D01*
X0111000Y0215553D02*
X0112200Y0215553D01*
X0112200Y0214354D02*
X0111000Y0214354D01*
X0111000Y0213156D02*
X0112200Y0213156D01*
X0112518Y0211957D02*
X0110682Y0211957D01*
X0109981Y0210759D02*
X0113219Y0210759D01*
X0114855Y0209560D02*
X0108345Y0209560D01*
X0118345Y0209560D02*
X0124855Y0209560D01*
X0123219Y0210759D02*
X0119981Y0210759D01*
X0120682Y0211957D02*
X0122518Y0211957D01*
X0122200Y0213156D02*
X0121000Y0213156D01*
X0121000Y0214354D02*
X0122200Y0214354D01*
X0122200Y0215553D02*
X0121000Y0215553D01*
X0121000Y0216751D02*
X0122200Y0216751D01*
X0122200Y0217950D02*
X0121000Y0217950D01*
X0121000Y0219148D02*
X0122200Y0219148D01*
X0122200Y0220347D02*
X0121000Y0220347D01*
X0120557Y0221545D02*
X0122643Y0221545D01*
X0123521Y0222744D02*
X0119679Y0222744D01*
X0129679Y0222744D02*
X0169941Y0222744D01*
X0171139Y0221545D02*
X0130557Y0221545D01*
X0131000Y0220347D02*
X0172200Y0220347D01*
X0172200Y0219148D02*
X0131000Y0219148D01*
X0131000Y0217950D02*
X0172200Y0217950D01*
X0172200Y0216751D02*
X0131000Y0216751D01*
X0131000Y0215553D02*
X0172200Y0215553D01*
X0172200Y0214354D02*
X0131000Y0214354D01*
X0131000Y0213156D02*
X0172200Y0213156D01*
X0172518Y0211957D02*
X0130682Y0211957D01*
X0129981Y0210759D02*
X0173219Y0210759D01*
X0174855Y0209560D02*
X0128345Y0209560D01*
X0122200Y0183200D02*
X0122200Y0178440D01*
X0121000Y0178440D01*
X0121000Y0183200D01*
X0100130Y0183200D01*
X0099723Y0183091D01*
X0099358Y0182880D01*
X0099060Y0182582D01*
X0098849Y0182218D01*
X0098740Y0181811D01*
X0098740Y0178440D01*
X0103769Y0178440D01*
X0103711Y0178340D01*
X0103602Y0177933D01*
X0103602Y0177240D01*
X0098740Y0177240D01*
X0098740Y0173870D01*
X0098849Y0173463D01*
X0099060Y0173098D01*
X0099358Y0172800D01*
X0099723Y0172589D01*
X0100130Y0172480D01*
X0103602Y0172480D01*
X0103602Y0166511D01*
X0121000Y0166511D01*
X0121000Y0165311D01*
X0122200Y0165311D01*
X0122200Y0152500D01*
X0138208Y0152500D01*
X0138615Y0152609D01*
X0138980Y0152820D01*
X0139278Y0153118D01*
X0139489Y0153482D01*
X0139598Y0153889D01*
X0139598Y0165311D01*
X0122200Y0165311D01*
X0122200Y0166511D01*
X0139598Y0166511D01*
X0139598Y0172480D01*
X0143070Y0172480D01*
X0143477Y0172589D01*
X0143842Y0172800D01*
X0144140Y0173098D01*
X0144351Y0173463D01*
X0144460Y0173870D01*
X0144460Y0177240D01*
X0139598Y0177240D01*
X0139598Y0177933D01*
X0139489Y0178340D01*
X0139431Y0178440D01*
X0144460Y0178440D01*
X0144460Y0181811D01*
X0144351Y0182218D01*
X0144140Y0182582D01*
X0143842Y0182880D01*
X0143477Y0183091D01*
X0143070Y0183200D01*
X0122200Y0183200D01*
X0122200Y0183193D02*
X0121000Y0183193D01*
X0121000Y0181995D02*
X0122200Y0181995D01*
X0122200Y0180796D02*
X0121000Y0180796D01*
X0121000Y0179598D02*
X0122200Y0179598D01*
X0122200Y0177240D02*
X0122200Y0166511D01*
X0121000Y0166511D01*
X0121000Y0177240D01*
X0122200Y0177240D01*
X0122200Y0177201D02*
X0121000Y0177201D01*
X0121000Y0176002D02*
X0122200Y0176002D01*
X0122200Y0174803D02*
X0121000Y0174803D01*
X0121000Y0173605D02*
X0122200Y0173605D01*
X0122200Y0172406D02*
X0121000Y0172406D01*
X0121000Y0171208D02*
X0122200Y0171208D01*
X0122200Y0170009D02*
X0121000Y0170009D01*
X0121000Y0168811D02*
X0122200Y0168811D01*
X0122200Y0167612D02*
X0121000Y0167612D01*
X0121000Y0166414D02*
X0085500Y0166414D01*
X0085500Y0167612D02*
X0103602Y0167612D01*
X0103602Y0168811D02*
X0085500Y0168811D01*
X0085500Y0170009D02*
X0103602Y0170009D01*
X0103602Y0171208D02*
X0085500Y0171208D01*
X0085500Y0172406D02*
X0103602Y0172406D01*
X0098811Y0173605D02*
X0085500Y0173605D01*
X0085500Y0174803D02*
X0098740Y0174803D01*
X0098740Y0176002D02*
X0085500Y0176002D01*
X0085500Y0177201D02*
X0098740Y0177201D01*
X0096600Y0177201D02*
X0152700Y0177201D01*
X0144460Y0177201D01*
X0144460Y0176002D02*
X0152700Y0176002D01*
X0096600Y0176002D01*
X0096600Y0174803D02*
X0152700Y0174803D01*
X0144460Y0174803D01*
X0144389Y0173605D02*
X0152700Y0173605D01*
X0096600Y0173605D01*
X0096600Y0172406D02*
X0152700Y0172406D01*
X0139598Y0172406D01*
X0139598Y0171208D02*
X0152700Y0171208D01*
X0096600Y0171208D01*
X0096600Y0170009D02*
X0152700Y0170009D01*
X0139598Y0170009D01*
X0139598Y0168811D02*
X0152700Y0168811D01*
X0096600Y0168811D01*
X0096600Y0167612D02*
X0152700Y0167612D01*
X0139598Y0167612D01*
X0139598Y0165215D02*
X0152700Y0165215D01*
X0096600Y0165215D01*
X0096600Y0164017D02*
X0152700Y0164017D01*
X0139598Y0164017D01*
X0139598Y0162818D02*
X0152700Y0162818D01*
X0096600Y0162818D01*
X0096600Y0161620D02*
X0152700Y0161620D01*
X0139598Y0161620D01*
X0139598Y0160421D02*
X0152700Y0160421D01*
X0096600Y0160421D01*
X0096600Y0159223D02*
X0152700Y0159223D01*
X0139598Y0159223D01*
X0139598Y0158024D02*
X0152700Y0158024D01*
X0096600Y0158024D01*
X0096600Y0156826D02*
X0152700Y0156826D01*
X0139598Y0156826D01*
X0139598Y0155627D02*
X0152700Y0155627D01*
X0096600Y0155627D01*
X0096600Y0154429D02*
X0152700Y0154429D01*
X0139598Y0154429D01*
X0139343Y0153230D02*
X0152700Y0153230D01*
X0096600Y0153230D01*
X0096600Y0152032D02*
X0152700Y0152032D01*
X0085500Y0152032D01*
X0085500Y0153230D02*
X0103857Y0153230D01*
X0103922Y0153118D02*
X0104220Y0152820D01*
X0104585Y0152609D01*
X0104992Y0152500D01*
X0121000Y0152500D01*
X0121000Y0165311D01*
X0103602Y0165311D01*
X0103602Y0153889D01*
X0103711Y0153482D01*
X0103922Y0153118D01*
X0103602Y0154429D02*
X0085500Y0154429D01*
X0085500Y0155627D02*
X0103602Y0155627D01*
X0103602Y0156826D02*
X0085500Y0156826D01*
X0085500Y0158024D02*
X0103602Y0158024D01*
X0103602Y0159223D02*
X0085500Y0159223D01*
X0085500Y0160421D02*
X0103602Y0160421D01*
X0103602Y0161620D02*
X0085500Y0161620D01*
X0085500Y0162818D02*
X0103602Y0162818D01*
X0103602Y0164017D02*
X0085500Y0164017D01*
X0085500Y0165215D02*
X0103602Y0165215D01*
X0096600Y0166414D02*
X0152700Y0166414D01*
X0122200Y0166414D01*
X0122200Y0165215D02*
X0121000Y0165215D01*
X0121000Y0164017D02*
X0122200Y0164017D01*
X0122200Y0162818D02*
X0121000Y0162818D01*
X0121000Y0161620D02*
X0122200Y0161620D01*
X0122200Y0160421D02*
X0121000Y0160421D01*
X0121000Y0159223D02*
X0122200Y0159223D01*
X0122200Y0158024D02*
X0121000Y0158024D01*
X0121000Y0156826D02*
X0122200Y0156826D01*
X0122200Y0155627D02*
X0121000Y0155627D01*
X0121000Y0154429D02*
X0122200Y0154429D01*
X0122200Y0153230D02*
X0121000Y0153230D01*
X0131680Y0143809D02*
X0131086Y0142376D01*
X0131086Y0139322D01*
X0130502Y0139906D01*
X0129069Y0140500D01*
X0127517Y0140500D01*
X0126084Y0139906D01*
X0124987Y0138809D01*
X0124393Y0137376D01*
X0124393Y0131516D01*
X0124324Y0131556D01*
X0123917Y0131665D01*
X0122053Y0131665D01*
X0122053Y0126266D01*
X0121147Y0126266D01*
X0121147Y0131665D01*
X0119283Y0131665D01*
X0118876Y0131556D01*
X0118511Y0131345D01*
X0118213Y0131047D01*
X0118139Y0130919D01*
X0117593Y0131465D01*
X0112221Y0131465D01*
X0111675Y0130919D01*
X0111601Y0131047D01*
X0111303Y0131345D01*
X0110938Y0131556D01*
X0110531Y0131665D01*
X0108667Y0131665D01*
X0108667Y0126266D01*
X0107761Y0126266D01*
X0107761Y0131665D01*
X0105897Y0131665D01*
X0105490Y0131556D01*
X0105125Y0131345D01*
X0104828Y0131047D01*
X0104617Y0130682D01*
X0104508Y0130275D01*
X0104508Y0126266D01*
X0107761Y0126266D01*
X0107761Y0125359D01*
X0108667Y0125359D01*
X0108667Y0119961D01*
X0110364Y0119961D01*
X0109573Y0119633D01*
X0108567Y0118627D01*
X0108022Y0117312D01*
X0108022Y0117023D01*
X0108012Y0117060D01*
X0107802Y0117425D01*
X0107504Y0117723D01*
X0107139Y0117933D01*
X0106732Y0118043D01*
X0102200Y0118043D01*
X0102200Y0113204D01*
X0101000Y0113204D01*
X0101000Y0118043D01*
X0096468Y0118043D01*
X0096061Y0117933D01*
X0095696Y0117723D01*
X0095398Y0117425D01*
X0095188Y0117060D01*
X0095079Y0116653D01*
X0095079Y0113204D01*
X0101000Y0113204D01*
X0101000Y0112004D01*
X0095079Y0112004D01*
X0095079Y0108555D01*
X0095188Y0108148D01*
X0095398Y0107783D01*
X0095696Y0107485D01*
X0096061Y0107274D01*
X0096468Y0107165D01*
X0101000Y0107165D01*
X0101000Y0112004D01*
X0102200Y0112004D01*
X0102200Y0113204D01*
X0108121Y0113204D01*
X0108121Y0115649D01*
X0108567Y0114573D01*
X0109573Y0113567D01*
X0110888Y0113022D01*
X0112312Y0113022D01*
X0113627Y0113567D01*
X0114633Y0114573D01*
X0115178Y0115888D01*
X0115178Y0115935D01*
X0117450Y0118208D01*
X0117907Y0119310D01*
X0117907Y0120474D01*
X0118139Y0120707D01*
X0118213Y0120578D01*
X0118511Y0120280D01*
X0118876Y0120070D01*
X0119283Y0119961D01*
X0121147Y0119961D01*
X0121147Y0125359D01*
X0122053Y0125359D01*
X0122053Y0119961D01*
X0123917Y0119961D01*
X0124324Y0120070D01*
X0124689Y0120280D01*
X0124987Y0120578D01*
X0125061Y0120707D01*
X0125607Y0120161D01*
X0130979Y0120161D01*
X0131086Y0120267D01*
X0131086Y0117843D01*
X0126099Y0117843D01*
X0125279Y0117022D01*
X0125279Y0116861D01*
X0122200Y0116861D01*
X0122200Y0112712D01*
X0121000Y0112712D01*
X0121000Y0116861D01*
X0117846Y0116861D01*
X0117439Y0116752D01*
X0117074Y0116542D01*
X0116776Y0116244D01*
X0116566Y0115879D01*
X0116457Y0115472D01*
X0116457Y0112712D01*
X0121000Y0112712D01*
X0121000Y0111512D01*
X0116457Y0111512D01*
X0116457Y0108752D01*
X0116566Y0108345D01*
X0116776Y0107980D01*
X0117074Y0107682D01*
X0117439Y0107471D01*
X0117846Y0107362D01*
X0121000Y0107362D01*
X0121000Y0111512D01*
X0122200Y0111512D01*
X0122200Y0107362D01*
X0125354Y0107362D01*
X0125761Y0107471D01*
X0125908Y0107556D01*
X0126099Y0107365D01*
X0137101Y0107365D01*
X0137387Y0107652D01*
X0137477Y0107562D01*
X0145723Y0107562D01*
X0146543Y0108382D01*
X0146543Y0115841D01*
X0145723Y0116661D01*
X0138886Y0116661D01*
X0138886Y0142376D01*
X0138292Y0143809D01*
X0137195Y0144906D01*
X0135762Y0145500D01*
X0134210Y0145500D01*
X0132777Y0144906D01*
X0131680Y0143809D01*
X0131610Y0143642D02*
X0085500Y0143642D01*
X0085500Y0142444D02*
X0131114Y0142444D01*
X0131086Y0141245D02*
X0085500Y0141245D01*
X0085500Y0140047D02*
X0126423Y0140047D01*
X0125026Y0138848D02*
X0085500Y0138848D01*
X0085500Y0137650D02*
X0124506Y0137650D01*
X0124393Y0136451D02*
X0085500Y0136451D01*
X0085500Y0135253D02*
X0124393Y0135253D01*
X0124393Y0134054D02*
X0085500Y0134054D01*
X0085500Y0132856D02*
X0124393Y0132856D01*
X0124393Y0131657D02*
X0123945Y0131657D01*
X0122053Y0131657D02*
X0121147Y0131657D01*
X0121147Y0130459D02*
X0122053Y0130459D01*
X0122053Y0129260D02*
X0121147Y0129260D01*
X0121147Y0128062D02*
X0122053Y0128062D01*
X0122053Y0126863D02*
X0121147Y0126863D01*
X0121147Y0124466D02*
X0122053Y0124466D01*
X0122053Y0123268D02*
X0121147Y0123268D01*
X0121147Y0122069D02*
X0122053Y0122069D01*
X0122053Y0120870D02*
X0121147Y0120870D01*
X0117907Y0119672D02*
X0131086Y0119672D01*
X0131086Y0118473D02*
X0117560Y0118473D01*
X0116518Y0117275D02*
X0125531Y0117275D01*
X0122200Y0116076D02*
X0121000Y0116076D01*
X0121000Y0114878D02*
X0122200Y0114878D01*
X0122200Y0113679D02*
X0121000Y0113679D01*
X0121000Y0112481D02*
X0102200Y0112481D01*
X0102200Y0112004D02*
X0108121Y0112004D01*
X0108121Y0108555D01*
X0108012Y0108148D01*
X0107802Y0107783D01*
X0107504Y0107485D01*
X0107139Y0107274D01*
X0106732Y0107165D01*
X0102200Y0107165D01*
X0102200Y0112004D01*
X0102200Y0111282D02*
X0101000Y0111282D01*
X0101000Y0110084D02*
X0102200Y0110084D01*
X0102200Y0108885D02*
X0101000Y0108885D01*
X0101000Y0107687D02*
X0102200Y0107687D01*
X0101000Y0112481D02*
X0085500Y0112481D01*
X0085500Y0113679D02*
X0095079Y0113679D01*
X0095079Y0114878D02*
X0085500Y0114878D01*
X0085500Y0116076D02*
X0095079Y0116076D01*
X0095312Y0117275D02*
X0085500Y0117275D01*
X0085500Y0118473D02*
X0108503Y0118473D01*
X0108022Y0117275D02*
X0107888Y0117275D01*
X0108121Y0114878D02*
X0108441Y0114878D01*
X0108121Y0113679D02*
X0109461Y0113679D01*
X0108121Y0111282D02*
X0116457Y0111282D01*
X0116457Y0110084D02*
X0108121Y0110084D01*
X0108121Y0108885D02*
X0116457Y0108885D01*
X0117069Y0107687D02*
X0107705Y0107687D01*
X0102200Y0113679D02*
X0101000Y0113679D01*
X0101000Y0114878D02*
X0102200Y0114878D01*
X0102200Y0116076D02*
X0101000Y0116076D01*
X0101000Y0117275D02*
X0102200Y0117275D01*
X0105125Y0120280D02*
X0105490Y0120070D01*
X0105897Y0119961D01*
X0107761Y0119961D01*
X0107761Y0125359D01*
X0104508Y0125359D01*
X0104508Y0121350D01*
X0104617Y0120943D01*
X0104828Y0120578D01*
X0105125Y0120280D01*
X0104659Y0120870D02*
X0085500Y0120870D01*
X0085500Y0119672D02*
X0109667Y0119672D01*
X0108667Y0120870D02*
X0107761Y0120870D01*
X0107761Y0122069D02*
X0108667Y0122069D01*
X0108667Y0123268D02*
X0107761Y0123268D01*
X0107761Y0124466D02*
X0108667Y0124466D01*
X0107761Y0125665D02*
X0085500Y0125665D01*
X0085500Y0126863D02*
X0104508Y0126863D01*
X0104508Y0128062D02*
X0085500Y0128062D01*
X0085500Y0129260D02*
X0104508Y0129260D01*
X0104557Y0130459D02*
X0085500Y0130459D01*
X0085500Y0131657D02*
X0105869Y0131657D01*
X0107761Y0131657D02*
X0108667Y0131657D01*
X0108667Y0130459D02*
X0107761Y0130459D01*
X0107761Y0129260D02*
X0108667Y0129260D01*
X0108667Y0128062D02*
X0107761Y0128062D01*
X0107761Y0126863D02*
X0108667Y0126863D01*
X0104508Y0124466D02*
X0085500Y0124466D01*
X0085500Y0123268D02*
X0104508Y0123268D01*
X0104508Y0122069D02*
X0085500Y0122069D01*
X0085500Y0111282D02*
X0095079Y0111282D01*
X0095079Y0110084D02*
X0085500Y0110084D01*
X0085500Y0108885D02*
X0095079Y0108885D01*
X0095494Y0107687D02*
X0085500Y0107687D01*
X0085500Y0106488D02*
X0215973Y0106488D01*
X0214985Y0105500D02*
X0210861Y0105500D01*
X0210723Y0105638D01*
X0202477Y0105638D01*
X0202387Y0105548D01*
X0202101Y0105835D01*
X0191099Y0105835D01*
X0190813Y0105548D01*
X0190723Y0105638D01*
X0182477Y0105638D01*
X0182339Y0105500D01*
X0172436Y0105500D01*
X0172101Y0105835D01*
X0161099Y0105835D01*
X0160279Y0105015D01*
X0160279Y0096178D01*
X0161099Y0095357D01*
X0172101Y0095357D01*
X0172921Y0096178D01*
X0172921Y0097700D01*
X0181657Y0097700D01*
X0181657Y0097359D01*
X0182477Y0096539D01*
X0190279Y0096539D01*
X0190279Y0096178D01*
X0191099Y0095357D01*
X0202101Y0095357D01*
X0202921Y0096178D01*
X0202921Y0096539D01*
X0210723Y0096539D01*
X0211543Y0097359D01*
X0211543Y0097700D01*
X0217376Y0097700D01*
X0218809Y0098294D01*
X0229906Y0109391D01*
X0230500Y0110824D01*
X0230500Y0112376D01*
X0229906Y0113809D01*
X0228809Y0114906D01*
X0227376Y0115500D01*
X0225824Y0115500D01*
X0224391Y0114906D01*
X0214985Y0105500D01*
X0217171Y0107687D02*
X0210848Y0107687D01*
X0210723Y0107562D02*
X0211543Y0108382D01*
X0211543Y0115841D01*
X0210723Y0116661D01*
X0203886Y0116661D01*
X0203886Y0142376D01*
X0203292Y0143809D01*
X0202195Y0144906D01*
X0200762Y0145500D01*
X0199210Y0145500D01*
X0197777Y0144906D01*
X0196680Y0143809D01*
X0196086Y0142376D01*
X0196086Y0139322D01*
X0195502Y0139906D01*
X0194069Y0140500D01*
X0192517Y0140500D01*
X0191084Y0139906D01*
X0189987Y0138809D01*
X0189393Y0137376D01*
X0189393Y0131516D01*
X0189324Y0131556D01*
X0188917Y0131665D01*
X0187053Y0131665D01*
X0187053Y0126266D01*
X0186147Y0126266D01*
X0186147Y0131665D01*
X0184283Y0131665D01*
X0183876Y0131556D01*
X0183511Y0131345D01*
X0183213Y0131047D01*
X0183139Y0130919D01*
X0182593Y0131465D01*
X0177221Y0131465D01*
X0176675Y0130919D01*
X0176601Y0131047D01*
X0176303Y0131345D01*
X0175938Y0131556D01*
X0175531Y0131665D01*
X0173667Y0131665D01*
X0173667Y0126266D01*
X0172761Y0126266D01*
X0172761Y0131665D01*
X0170897Y0131665D01*
X0170490Y0131556D01*
X0170125Y0131345D01*
X0169828Y0131047D01*
X0169617Y0130682D01*
X0169508Y0130275D01*
X0169508Y0126266D01*
X0172761Y0126266D01*
X0172761Y0125359D01*
X0173667Y0125359D01*
X0173667Y0119961D01*
X0175364Y0119961D01*
X0174573Y0119633D01*
X0173567Y0118627D01*
X0173022Y0117312D01*
X0173022Y0117023D01*
X0173012Y0117060D01*
X0172802Y0117425D01*
X0172504Y0117723D01*
X0172139Y0117933D01*
X0171732Y0118043D01*
X0167200Y0118043D01*
X0167200Y0113204D01*
X0166000Y0113204D01*
X0166000Y0118043D01*
X0161468Y0118043D01*
X0161061Y0117933D01*
X0160696Y0117723D01*
X0160398Y0117425D01*
X0160188Y0117060D01*
X0160079Y0116653D01*
X0160079Y0113204D01*
X0166000Y0113204D01*
X0166000Y0112004D01*
X0160079Y0112004D01*
X0160079Y0108555D01*
X0160188Y0108148D01*
X0160398Y0107783D01*
X0160696Y0107485D01*
X0161061Y0107274D01*
X0161468Y0107165D01*
X0166000Y0107165D01*
X0166000Y0112004D01*
X0167200Y0112004D01*
X0167200Y0113204D01*
X0173121Y0113204D01*
X0173121Y0115649D01*
X0173567Y0114573D01*
X0174573Y0113567D01*
X0175888Y0113022D01*
X0177312Y0113022D01*
X0178627Y0113567D01*
X0179633Y0114573D01*
X0180178Y0115888D01*
X0180178Y0115935D01*
X0182450Y0118208D01*
X0182907Y0119310D01*
X0182907Y0120474D01*
X0183139Y0120707D01*
X0183213Y0120578D01*
X0183511Y0120280D01*
X0183876Y0120070D01*
X0184283Y0119961D01*
X0186147Y0119961D01*
X0186147Y0125359D01*
X0187053Y0125359D01*
X0187053Y0119961D01*
X0188917Y0119961D01*
X0189324Y0120070D01*
X0189689Y0120280D01*
X0189987Y0120578D01*
X0190061Y0120707D01*
X0190607Y0120161D01*
X0195979Y0120161D01*
X0196086Y0120267D01*
X0196086Y0117843D01*
X0191099Y0117843D01*
X0190279Y0117022D01*
X0190279Y0116861D01*
X0187200Y0116861D01*
X0187200Y0112712D01*
X0186000Y0112712D01*
X0186000Y0116861D01*
X0182846Y0116861D01*
X0182439Y0116752D01*
X0182074Y0116542D01*
X0181776Y0116244D01*
X0181566Y0115879D01*
X0181457Y0115472D01*
X0181457Y0112712D01*
X0186000Y0112712D01*
X0186000Y0111512D01*
X0181457Y0111512D01*
X0181457Y0108752D01*
X0181566Y0108345D01*
X0181776Y0107980D01*
X0182074Y0107682D01*
X0182439Y0107471D01*
X0182846Y0107362D01*
X0186000Y0107362D01*
X0186000Y0111512D01*
X0187200Y0111512D01*
X0187200Y0107362D01*
X0190354Y0107362D01*
X0190761Y0107471D01*
X0190908Y0107556D01*
X0191099Y0107365D01*
X0202101Y0107365D01*
X0202387Y0107652D01*
X0202477Y0107562D01*
X0210723Y0107562D01*
X0211543Y0108885D02*
X0218370Y0108885D01*
X0219568Y0110084D02*
X0211543Y0110084D01*
X0211543Y0111282D02*
X0220767Y0111282D01*
X0221965Y0112481D02*
X0211543Y0112481D01*
X0211543Y0113679D02*
X0223164Y0113679D01*
X0224362Y0114878D02*
X0211543Y0114878D01*
X0211308Y0116076D02*
X0232700Y0116076D01*
X0232700Y0114878D02*
X0228837Y0114878D01*
X0229960Y0113679D02*
X0232700Y0113679D01*
X0232700Y0112481D02*
X0230456Y0112481D01*
X0230500Y0111282D02*
X0232700Y0111282D01*
X0232700Y0110084D02*
X0230193Y0110084D01*
X0229401Y0108885D02*
X0232700Y0108885D01*
X0232700Y0107687D02*
X0228202Y0107687D01*
X0227004Y0106488D02*
X0232700Y0106488D01*
X0232700Y0105290D02*
X0225805Y0105290D01*
X0224607Y0104091D02*
X0232700Y0104091D01*
X0232700Y0102893D02*
X0223408Y0102893D01*
X0222210Y0101694D02*
X0232700Y0101694D01*
X0232700Y0100496D02*
X0221011Y0100496D01*
X0219813Y0099297D02*
X0232700Y0099297D01*
X0232700Y0098099D02*
X0218338Y0098099D01*
X0211085Y0096900D02*
X0232700Y0096900D01*
X0232700Y0095702D02*
X0202445Y0095702D01*
X0190755Y0095702D02*
X0172445Y0095702D01*
X0172921Y0096900D02*
X0182115Y0096900D01*
X0182069Y0107687D02*
X0172705Y0107687D01*
X0172802Y0107783D02*
X0173012Y0108148D01*
X0173121Y0108555D01*
X0173121Y0112004D01*
X0167200Y0112004D01*
X0167200Y0107165D01*
X0171732Y0107165D01*
X0172139Y0107274D01*
X0172504Y0107485D01*
X0172802Y0107783D01*
X0173121Y0108885D02*
X0181457Y0108885D01*
X0181457Y0110084D02*
X0173121Y0110084D01*
X0173121Y0111282D02*
X0181457Y0111282D01*
X0181457Y0113679D02*
X0178739Y0113679D01*
X0179759Y0114878D02*
X0181457Y0114878D01*
X0181680Y0116076D02*
X0180319Y0116076D01*
X0181518Y0117275D02*
X0190531Y0117275D01*
X0187200Y0116076D02*
X0186000Y0116076D01*
X0186000Y0114878D02*
X0187200Y0114878D01*
X0187200Y0113679D02*
X0186000Y0113679D01*
X0186000Y0112481D02*
X0167200Y0112481D01*
X0167200Y0113679D02*
X0166000Y0113679D01*
X0166000Y0112481D02*
X0146543Y0112481D01*
X0146543Y0113679D02*
X0160079Y0113679D01*
X0160079Y0114878D02*
X0146543Y0114878D01*
X0146308Y0116076D02*
X0160079Y0116076D01*
X0160312Y0117275D02*
X0138886Y0117275D01*
X0138886Y0118473D02*
X0173503Y0118473D01*
X0173022Y0117275D02*
X0172888Y0117275D01*
X0173121Y0114878D02*
X0173441Y0114878D01*
X0173121Y0113679D02*
X0174461Y0113679D01*
X0167200Y0114878D02*
X0166000Y0114878D01*
X0166000Y0116076D02*
X0167200Y0116076D01*
X0167200Y0117275D02*
X0166000Y0117275D01*
X0169828Y0120578D02*
X0170125Y0120280D01*
X0170490Y0120070D01*
X0170897Y0119961D01*
X0172761Y0119961D01*
X0172761Y0125359D01*
X0169508Y0125359D01*
X0169508Y0121350D01*
X0169617Y0120943D01*
X0169828Y0120578D01*
X0169659Y0120870D02*
X0138886Y0120870D01*
X0138886Y0119672D02*
X0174667Y0119672D01*
X0173667Y0120870D02*
X0172761Y0120870D01*
X0172761Y0122069D02*
X0173667Y0122069D01*
X0173667Y0123268D02*
X0172761Y0123268D01*
X0172761Y0124466D02*
X0173667Y0124466D01*
X0172761Y0125665D02*
X0138886Y0125665D01*
X0138886Y0126863D02*
X0169508Y0126863D01*
X0169508Y0128062D02*
X0138886Y0128062D01*
X0138886Y0129260D02*
X0169508Y0129260D01*
X0169557Y0130459D02*
X0138886Y0130459D01*
X0138886Y0131657D02*
X0170869Y0131657D01*
X0172761Y0131657D02*
X0173667Y0131657D01*
X0173667Y0130459D02*
X0172761Y0130459D01*
X0172761Y0129260D02*
X0173667Y0129260D01*
X0173667Y0128062D02*
X0172761Y0128062D01*
X0172761Y0126863D02*
X0173667Y0126863D01*
X0169508Y0124466D02*
X0138886Y0124466D01*
X0138886Y0123268D02*
X0169508Y0123268D01*
X0169508Y0122069D02*
X0138886Y0122069D01*
X0138886Y0132856D02*
X0189393Y0132856D01*
X0189393Y0134054D02*
X0138886Y0134054D01*
X0138886Y0135253D02*
X0189393Y0135253D01*
X0189393Y0136451D02*
X0138886Y0136451D01*
X0138886Y0137650D02*
X0189506Y0137650D01*
X0190026Y0138848D02*
X0159364Y0138848D01*
X0159906Y0139391D02*
X0160500Y0140824D01*
X0160500Y0177376D01*
X0159906Y0178809D01*
X0158809Y0179906D01*
X0157376Y0180500D01*
X0155824Y0180500D01*
X0154391Y0179906D01*
X0153294Y0178809D01*
X0152700Y0177376D01*
X0152700Y0146600D01*
X0096600Y0146600D01*
X0096600Y0186600D01*
X0211600Y0186600D01*
X0211600Y0146600D01*
X0160500Y0146600D01*
X0160500Y0177376D01*
X0159906Y0178809D01*
X0158809Y0179906D01*
X0157376Y0180500D01*
X0155824Y0180500D01*
X0154391Y0179906D01*
X0153294Y0178809D01*
X0152700Y0177376D01*
X0152700Y0140824D01*
X0153294Y0139391D01*
X0154391Y0138294D01*
X0155824Y0137700D01*
X0157376Y0137700D01*
X0158809Y0138294D01*
X0159906Y0139391D01*
X0160178Y0140047D02*
X0191423Y0140047D01*
X0195163Y0140047D02*
X0196086Y0140047D01*
X0196086Y0141245D02*
X0160500Y0141245D01*
X0160500Y0142444D02*
X0196114Y0142444D01*
X0196610Y0143642D02*
X0160500Y0143642D01*
X0160500Y0144841D02*
X0197711Y0144841D01*
X0202261Y0144841D02*
X0232700Y0144841D01*
X0232700Y0146039D02*
X0160500Y0146039D01*
X0160500Y0147238D02*
X0211600Y0147238D01*
X0211600Y0148436D02*
X0160500Y0148436D01*
X0232700Y0148436D01*
X0232700Y0147238D02*
X0160500Y0147238D01*
X0160500Y0149635D02*
X0211600Y0149635D01*
X0211600Y0150833D02*
X0160500Y0150833D01*
X0232700Y0150833D01*
X0232700Y0149635D02*
X0160500Y0149635D01*
X0160500Y0152032D02*
X0211600Y0152032D01*
X0211600Y0153230D02*
X0160500Y0153230D01*
X0168857Y0153230D01*
X0168922Y0153118D02*
X0169220Y0152820D01*
X0169585Y0152609D01*
X0169992Y0152500D01*
X0186000Y0152500D01*
X0186000Y0165311D01*
X0187200Y0165311D01*
X0187200Y0152500D01*
X0203208Y0152500D01*
X0203615Y0152609D01*
X0203980Y0152820D01*
X0204278Y0153118D01*
X0204489Y0153482D01*
X0204598Y0153889D01*
X0204598Y0165311D01*
X0187200Y0165311D01*
X0187200Y0166511D01*
X0204598Y0166511D01*
X0204598Y0172480D01*
X0208070Y0172480D01*
X0208477Y0172589D01*
X0208842Y0172800D01*
X0209140Y0173098D01*
X0209351Y0173463D01*
X0209460Y0173870D01*
X0209460Y0177240D01*
X0204598Y0177240D01*
X0204598Y0177933D01*
X0204489Y0178340D01*
X0204431Y0178440D01*
X0209460Y0178440D01*
X0209460Y0181811D01*
X0209351Y0182218D01*
X0209140Y0182582D01*
X0208842Y0182880D01*
X0208477Y0183091D01*
X0208070Y0183200D01*
X0187200Y0183200D01*
X0187200Y0178440D01*
X0186000Y0178440D01*
X0186000Y0183200D01*
X0165130Y0183200D01*
X0164723Y0183091D01*
X0164358Y0182880D01*
X0164060Y0182582D01*
X0163849Y0182218D01*
X0163740Y0181811D01*
X0163740Y0178440D01*
X0168769Y0178440D01*
X0168711Y0178340D01*
X0168602Y0177933D01*
X0168602Y0177240D01*
X0163740Y0177240D01*
X0163740Y0173870D01*
X0163849Y0173463D01*
X0164060Y0173098D01*
X0164358Y0172800D01*
X0164723Y0172589D01*
X0165130Y0172480D01*
X0168602Y0172480D01*
X0168602Y0166511D01*
X0186000Y0166511D01*
X0186000Y0165311D01*
X0168602Y0165311D01*
X0168602Y0153889D01*
X0168711Y0153482D01*
X0168922Y0153118D01*
X0168602Y0154429D02*
X0160500Y0154429D01*
X0211600Y0154429D01*
X0211600Y0155627D02*
X0160500Y0155627D01*
X0168602Y0155627D01*
X0168602Y0156826D02*
X0160500Y0156826D01*
X0211600Y0156826D01*
X0211600Y0158024D02*
X0160500Y0158024D01*
X0168602Y0158024D01*
X0168602Y0159223D02*
X0160500Y0159223D01*
X0211600Y0159223D01*
X0211600Y0160421D02*
X0160500Y0160421D01*
X0168602Y0160421D01*
X0168602Y0161620D02*
X0160500Y0161620D01*
X0211600Y0161620D01*
X0211600Y0162818D02*
X0160500Y0162818D01*
X0168602Y0162818D01*
X0168602Y0164017D02*
X0160500Y0164017D01*
X0211600Y0164017D01*
X0211600Y0165215D02*
X0160500Y0165215D01*
X0168602Y0165215D01*
X0168602Y0167612D02*
X0160500Y0167612D01*
X0211600Y0167612D01*
X0211600Y0166414D02*
X0160500Y0166414D01*
X0186000Y0166414D01*
X0186000Y0166511D02*
X0186000Y0177240D01*
X0187200Y0177240D01*
X0187200Y0166511D01*
X0186000Y0166511D01*
X0186000Y0167612D02*
X0187200Y0167612D01*
X0187200Y0166414D02*
X0232700Y0166414D01*
X0232700Y0167612D02*
X0204598Y0167612D01*
X0204598Y0168811D02*
X0232700Y0168811D01*
X0232700Y0170009D02*
X0204598Y0170009D01*
X0204598Y0171208D02*
X0232700Y0171208D01*
X0232700Y0172406D02*
X0204598Y0172406D01*
X0209389Y0173605D02*
X0232700Y0173605D01*
X0232700Y0174803D02*
X0209460Y0174803D01*
X0209460Y0176002D02*
X0232700Y0176002D01*
X0232700Y0177201D02*
X0209460Y0177201D01*
X0211600Y0177201D02*
X0160500Y0177201D01*
X0163740Y0177201D01*
X0163740Y0176002D02*
X0160500Y0176002D01*
X0211600Y0176002D01*
X0211600Y0174803D02*
X0160500Y0174803D01*
X0163740Y0174803D01*
X0163811Y0173605D02*
X0160500Y0173605D01*
X0211600Y0173605D01*
X0211600Y0172406D02*
X0160500Y0172406D01*
X0168602Y0172406D01*
X0168602Y0171208D02*
X0160500Y0171208D01*
X0211600Y0171208D01*
X0211600Y0170009D02*
X0160500Y0170009D01*
X0168602Y0170009D01*
X0168602Y0168811D02*
X0160500Y0168811D01*
X0211600Y0168811D01*
X0204598Y0165215D02*
X0232700Y0165215D01*
X0232700Y0164017D02*
X0204598Y0164017D01*
X0204598Y0162818D02*
X0232700Y0162818D01*
X0232700Y0161620D02*
X0204598Y0161620D01*
X0204598Y0160421D02*
X0232700Y0160421D01*
X0232700Y0159223D02*
X0204598Y0159223D01*
X0204598Y0158024D02*
X0232700Y0158024D01*
X0232700Y0156826D02*
X0204598Y0156826D01*
X0204598Y0155627D02*
X0232700Y0155627D01*
X0232700Y0154429D02*
X0204598Y0154429D01*
X0204343Y0153230D02*
X0232700Y0153230D01*
X0232700Y0152032D02*
X0160500Y0152032D01*
X0152700Y0150833D02*
X0096600Y0150833D01*
X0096600Y0149635D02*
X0152700Y0149635D01*
X0085500Y0149635D01*
X0085500Y0150833D02*
X0152700Y0150833D01*
X0152700Y0148436D02*
X0096600Y0148436D01*
X0096600Y0147238D02*
X0152700Y0147238D01*
X0085500Y0147238D01*
X0085500Y0148436D02*
X0152700Y0148436D01*
X0152700Y0146039D02*
X0085500Y0146039D01*
X0085500Y0144841D02*
X0132711Y0144841D01*
X0137261Y0144841D02*
X0152700Y0144841D01*
X0152700Y0143642D02*
X0138361Y0143642D01*
X0138858Y0142444D02*
X0152700Y0142444D01*
X0152700Y0141245D02*
X0138886Y0141245D01*
X0138886Y0140047D02*
X0153022Y0140047D01*
X0153836Y0138848D02*
X0138886Y0138848D01*
X0131086Y0140047D02*
X0130163Y0140047D01*
X0119255Y0131657D02*
X0110559Y0131657D01*
X0115319Y0116076D02*
X0116680Y0116076D01*
X0116457Y0114878D02*
X0114759Y0114878D01*
X0113739Y0113679D02*
X0116457Y0113679D01*
X0121000Y0111282D02*
X0122200Y0111282D01*
X0122200Y0110084D02*
X0121000Y0110084D01*
X0121000Y0108885D02*
X0122200Y0108885D01*
X0122200Y0107687D02*
X0121000Y0107687D01*
X0117115Y0096900D02*
X0107921Y0096900D01*
X0107445Y0095702D02*
X0125755Y0095702D01*
X0137445Y0095702D02*
X0160755Y0095702D01*
X0160279Y0096900D02*
X0146085Y0096900D01*
X0150838Y0098099D02*
X0160279Y0098099D01*
X0160279Y0099297D02*
X0152313Y0099297D01*
X0152864Y0100496D02*
X0160279Y0100496D01*
X0160279Y0101694D02*
X0153000Y0101694D01*
X0152786Y0102893D02*
X0160279Y0102893D01*
X0160279Y0104091D02*
X0152124Y0104091D01*
X0150383Y0105290D02*
X0160554Y0105290D01*
X0160494Y0107687D02*
X0145848Y0107687D01*
X0146543Y0108885D02*
X0160079Y0108885D01*
X0160079Y0110084D02*
X0146543Y0110084D01*
X0146543Y0111282D02*
X0160079Y0111282D01*
X0166000Y0111282D02*
X0167200Y0111282D01*
X0167200Y0110084D02*
X0166000Y0110084D01*
X0166000Y0108885D02*
X0167200Y0108885D01*
X0167200Y0107687D02*
X0166000Y0107687D01*
X0182560Y0118473D02*
X0196086Y0118473D01*
X0196086Y0119672D02*
X0182907Y0119672D01*
X0186147Y0120870D02*
X0187053Y0120870D01*
X0187053Y0122069D02*
X0186147Y0122069D01*
X0186147Y0123268D02*
X0187053Y0123268D01*
X0187053Y0124466D02*
X0186147Y0124466D01*
X0186147Y0126863D02*
X0187053Y0126863D01*
X0187053Y0128062D02*
X0186147Y0128062D01*
X0186147Y0129260D02*
X0187053Y0129260D01*
X0187053Y0130459D02*
X0186147Y0130459D01*
X0186147Y0131657D02*
X0187053Y0131657D01*
X0188945Y0131657D02*
X0189393Y0131657D01*
X0184255Y0131657D02*
X0175559Y0131657D01*
X0186000Y0111282D02*
X0187200Y0111282D01*
X0187200Y0110084D02*
X0186000Y0110084D01*
X0186000Y0108885D02*
X0187200Y0108885D01*
X0187200Y0107687D02*
X0186000Y0107687D01*
X0203886Y0117275D02*
X0232700Y0117275D01*
X0232700Y0118473D02*
X0203886Y0118473D01*
X0203886Y0119672D02*
X0232700Y0119672D01*
X0232700Y0120870D02*
X0203886Y0120870D01*
X0203886Y0122069D02*
X0232700Y0122069D01*
X0232700Y0123268D02*
X0203886Y0123268D01*
X0203886Y0124466D02*
X0232700Y0124466D01*
X0232700Y0125665D02*
X0203886Y0125665D01*
X0203886Y0126863D02*
X0232700Y0126863D01*
X0232700Y0128062D02*
X0203886Y0128062D01*
X0203886Y0129260D02*
X0232700Y0129260D01*
X0232700Y0130459D02*
X0203886Y0130459D01*
X0203886Y0131657D02*
X0232700Y0131657D01*
X0232700Y0132856D02*
X0203886Y0132856D01*
X0203886Y0134054D02*
X0232700Y0134054D01*
X0232700Y0135253D02*
X0203886Y0135253D01*
X0203886Y0136451D02*
X0232700Y0136451D01*
X0232700Y0137650D02*
X0203886Y0137650D01*
X0203886Y0138848D02*
X0232700Y0138848D01*
X0232700Y0140047D02*
X0203886Y0140047D01*
X0203886Y0141245D02*
X0232700Y0141245D01*
X0232700Y0142444D02*
X0203858Y0142444D01*
X0203361Y0143642D02*
X0232700Y0143642D01*
X0240500Y0143642D02*
X0241134Y0143642D01*
X0241134Y0142444D02*
X0240500Y0142444D01*
X0240500Y0141245D02*
X0241134Y0141245D01*
X0241134Y0140047D02*
X0240500Y0140047D01*
X0240500Y0138848D02*
X0241134Y0138848D01*
X0241134Y0137650D02*
X0240500Y0137650D01*
X0240500Y0136451D02*
X0241134Y0136451D01*
X0241134Y0135253D02*
X0240500Y0135253D01*
X0240500Y0134054D02*
X0241134Y0134054D01*
X0241134Y0132856D02*
X0240500Y0132856D01*
X0240500Y0131657D02*
X0241134Y0131657D01*
X0241134Y0130459D02*
X0240500Y0130459D01*
X0240500Y0129260D02*
X0241134Y0129260D01*
X0241134Y0128062D02*
X0240500Y0128062D01*
X0240500Y0126863D02*
X0241134Y0126863D01*
X0241134Y0125665D02*
X0240500Y0125665D01*
X0240500Y0124466D02*
X0241134Y0124466D01*
X0241134Y0123268D02*
X0240500Y0123268D01*
X0240500Y0122069D02*
X0241134Y0122069D01*
X0241134Y0120870D02*
X0240500Y0120870D01*
X0240500Y0119672D02*
X0241134Y0119672D01*
X0241134Y0118473D02*
X0240500Y0118473D01*
X0240500Y0117275D02*
X0241134Y0117275D01*
X0241134Y0116076D02*
X0240500Y0116076D01*
X0240500Y0114878D02*
X0241134Y0114878D01*
X0241134Y0113679D02*
X0240500Y0113679D01*
X0240500Y0112481D02*
X0241134Y0112481D01*
X0241134Y0111282D02*
X0240500Y0111282D01*
X0240500Y0110084D02*
X0241134Y0110084D01*
X0241134Y0108885D02*
X0240500Y0108885D01*
X0240500Y0107687D02*
X0241134Y0107687D01*
X0241134Y0106488D02*
X0240500Y0106488D01*
X0240500Y0105290D02*
X0241134Y0105290D01*
X0241134Y0104091D02*
X0240500Y0104091D01*
X0240500Y0102893D02*
X0241134Y0102893D01*
X0241134Y0101694D02*
X0240500Y0101694D01*
X0240500Y0100496D02*
X0241134Y0100496D01*
X0241134Y0099297D02*
X0240500Y0099297D01*
X0240500Y0098099D02*
X0241134Y0098099D01*
X0241134Y0096900D02*
X0240500Y0096900D01*
X0240500Y0095702D02*
X0241134Y0095702D01*
X0241134Y0094503D02*
X0240500Y0094503D01*
X0240500Y0093305D02*
X0241134Y0093305D01*
X0241134Y0092106D02*
X0240500Y0092106D01*
X0240500Y0090908D02*
X0241134Y0090908D01*
X0241134Y0089709D02*
X0240500Y0089709D01*
X0240500Y0088511D02*
X0241134Y0088511D01*
X0241134Y0087312D02*
X0240500Y0087312D01*
X0240500Y0086114D02*
X0241134Y0086114D01*
X0241134Y0084915D02*
X0240500Y0084915D01*
X0240500Y0083717D02*
X0241134Y0083717D01*
X0241134Y0082518D02*
X0240500Y0082518D01*
X0240500Y0081320D02*
X0241134Y0081320D01*
X0241134Y0080121D02*
X0240500Y0080121D01*
X0240500Y0078923D02*
X0241134Y0078923D01*
X0241134Y0077724D02*
X0240500Y0077724D01*
X0240500Y0076526D02*
X0241134Y0076526D01*
X0241134Y0075327D02*
X0240500Y0075327D01*
X0240500Y0074129D02*
X0241134Y0074129D01*
X0241134Y0072930D02*
X0240500Y0072930D01*
X0240500Y0071732D02*
X0241134Y0071732D01*
X0241134Y0070533D02*
X0240500Y0070533D01*
X0240500Y0069334D02*
X0241134Y0069334D01*
X0241134Y0068136D02*
X0240500Y0068136D01*
X0240500Y0066937D02*
X0241134Y0066937D01*
X0241134Y0065739D02*
X0240500Y0065739D01*
X0240500Y0064540D02*
X0241134Y0064540D01*
X0241134Y0063342D02*
X0240500Y0063342D01*
X0240500Y0062143D02*
X0241134Y0062143D01*
X0241134Y0060945D02*
X0240500Y0060945D01*
X0240500Y0059746D02*
X0241134Y0059746D01*
X0241134Y0058548D02*
X0240500Y0058548D01*
X0240500Y0057349D02*
X0241134Y0057349D01*
X0241134Y0056151D02*
X0240500Y0056151D01*
X0240500Y0054952D02*
X0241134Y0054952D01*
X0241134Y0053754D02*
X0240500Y0053754D01*
X0240500Y0052555D02*
X0241134Y0052555D01*
X0241134Y0051357D02*
X0240500Y0051357D01*
X0240500Y0050158D02*
X0241134Y0050158D01*
X0241134Y0048960D02*
X0240500Y0048960D01*
X0240500Y0047761D02*
X0241134Y0047761D01*
X0241134Y0046563D02*
X0240500Y0046563D01*
X0240500Y0045364D02*
X0241134Y0045364D01*
X0241134Y0044166D02*
X0240500Y0044166D01*
X0240500Y0042967D02*
X0241134Y0042967D01*
X0241134Y0041769D02*
X0240500Y0041769D01*
X0240500Y0040824D02*
X0240500Y0222376D01*
X0239906Y0223809D01*
X0238809Y0224906D01*
X0223809Y0239906D01*
X0222376Y0240500D01*
X0190824Y0240500D01*
X0189391Y0239906D01*
X0183294Y0233809D01*
X0182700Y0232376D01*
X0182700Y0221682D01*
X0182200Y0220475D01*
X0182200Y0212725D01*
X0182870Y0211108D01*
X0184108Y0209870D01*
X0185725Y0209200D01*
X0187475Y0209200D01*
X0189092Y0209870D01*
X0190330Y0211108D01*
X0191000Y0212725D01*
X0191000Y0220475D01*
X0190500Y0221682D01*
X0190500Y0229985D01*
X0193215Y0232700D01*
X0219985Y0232700D01*
X0232700Y0219985D01*
X0232700Y0043215D01*
X0219985Y0030500D01*
X0198215Y0030500D01*
X0195500Y0033215D01*
X0195500Y0039065D01*
X0196150Y0039715D01*
X0196150Y0043485D01*
X0193485Y0046150D01*
X0189715Y0046150D01*
X0187050Y0043485D01*
X0187050Y0039715D01*
X0187700Y0039065D01*
X0187700Y0030824D01*
X0188294Y0029391D01*
X0189391Y0028294D01*
X0194391Y0023294D01*
X0195824Y0022700D01*
X0222376Y0022700D01*
X0223809Y0023294D01*
X0224906Y0024391D01*
X0239906Y0039391D01*
X0240500Y0040824D01*
X0240395Y0040570D02*
X0241134Y0040570D01*
X0241134Y0039372D02*
X0239887Y0039372D01*
X0238689Y0038173D02*
X0241134Y0038173D01*
X0241134Y0036975D02*
X0237490Y0036975D01*
X0236292Y0035776D02*
X0241134Y0035776D01*
X0241134Y0034578D02*
X0235093Y0034578D01*
X0233895Y0033379D02*
X0241134Y0033379D01*
X0241134Y0032181D02*
X0232696Y0032181D01*
X0231498Y0030982D02*
X0241134Y0030982D01*
X0241134Y0029784D02*
X0230299Y0029784D01*
X0229101Y0028585D02*
X0241134Y0028585D01*
X0241134Y0027387D02*
X0227902Y0027387D01*
X0226704Y0026188D02*
X0241134Y0026188D01*
X0241134Y0024990D02*
X0225505Y0024990D01*
X0224306Y0023791D02*
X0241134Y0023791D01*
X0227658Y0038173D02*
X0204891Y0038173D01*
X0206089Y0039372D02*
X0228856Y0039372D01*
X0230055Y0040570D02*
X0206350Y0040570D01*
X0206350Y0041400D02*
X0201800Y0041400D01*
X0201800Y0041800D01*
X0206350Y0041800D01*
X0206350Y0043568D01*
X0203568Y0046350D01*
X0201800Y0046350D01*
X0201800Y0041800D01*
X0201400Y0041800D01*
X0201400Y0046350D01*
X0199632Y0046350D01*
X0196850Y0043568D01*
X0196850Y0041800D01*
X0201400Y0041800D01*
X0201400Y0041400D01*
X0201800Y0041400D01*
X0201800Y0036850D01*
X0203568Y0036850D01*
X0206350Y0039632D01*
X0206350Y0041400D01*
X0206350Y0042967D02*
X0232452Y0042967D01*
X0232700Y0044166D02*
X0205752Y0044166D01*
X0204553Y0045364D02*
X0232700Y0045364D01*
X0232700Y0046563D02*
X0085500Y0046563D01*
X0085500Y0047761D02*
X0232700Y0047761D01*
X0232700Y0048960D02*
X0085500Y0048960D01*
X0085500Y0050158D02*
X0232700Y0050158D01*
X0232700Y0051357D02*
X0085500Y0051357D01*
X0085500Y0052555D02*
X0232700Y0052555D01*
X0232700Y0053754D02*
X0085500Y0053754D01*
X0085500Y0054952D02*
X0232700Y0054952D01*
X0232700Y0056151D02*
X0085500Y0056151D01*
X0085500Y0057349D02*
X0232700Y0057349D01*
X0232700Y0058548D02*
X0085500Y0058548D01*
X0085500Y0059746D02*
X0232700Y0059746D01*
X0232700Y0060945D02*
X0085500Y0060945D01*
X0085500Y0062143D02*
X0232700Y0062143D01*
X0232700Y0063342D02*
X0085500Y0063342D01*
X0085500Y0064540D02*
X0232700Y0064540D01*
X0232700Y0065739D02*
X0085500Y0065739D01*
X0085500Y0066937D02*
X0232700Y0066937D01*
X0232700Y0068136D02*
X0204571Y0068136D01*
X0203485Y0067050D02*
X0206150Y0069715D01*
X0206150Y0073485D01*
X0203485Y0076150D01*
X0199715Y0076150D01*
X0197050Y0073485D01*
X0197050Y0069715D01*
X0199715Y0067050D01*
X0203485Y0067050D01*
X0205769Y0069334D02*
X0232700Y0069334D01*
X0232700Y0070533D02*
X0206150Y0070533D01*
X0206150Y0071732D02*
X0232700Y0071732D01*
X0232700Y0072930D02*
X0206150Y0072930D01*
X0205506Y0074129D02*
X0232700Y0074129D01*
X0232700Y0075327D02*
X0204308Y0075327D01*
X0198892Y0075327D02*
X0194308Y0075327D01*
X0193485Y0076150D02*
X0196150Y0073485D01*
X0196150Y0069715D01*
X0193485Y0067050D01*
X0189715Y0067050D01*
X0187050Y0069715D01*
X0187050Y0073485D01*
X0189715Y0076150D01*
X0193485Y0076150D01*
X0195506Y0074129D02*
X0197694Y0074129D01*
X0197050Y0072930D02*
X0196150Y0072930D01*
X0196150Y0071732D02*
X0197050Y0071732D01*
X0197050Y0070533D02*
X0196150Y0070533D01*
X0195769Y0069334D02*
X0197431Y0069334D01*
X0198629Y0068136D02*
X0194571Y0068136D01*
X0188629Y0068136D02*
X0184571Y0068136D01*
X0183485Y0067050D02*
X0186150Y0069715D01*
X0186150Y0073485D01*
X0183485Y0076150D01*
X0179715Y0076150D01*
X0177050Y0073485D01*
X0177050Y0069715D01*
X0179715Y0067050D01*
X0183485Y0067050D01*
X0185769Y0069334D02*
X0187431Y0069334D01*
X0187050Y0070533D02*
X0186150Y0070533D01*
X0186150Y0071732D02*
X0187050Y0071732D01*
X0187050Y0072930D02*
X0186150Y0072930D01*
X0185506Y0074129D02*
X0187694Y0074129D01*
X0188892Y0075327D02*
X0184308Y0075327D01*
X0178892Y0075327D02*
X0174308Y0075327D01*
X0173485Y0076150D02*
X0169715Y0076150D01*
X0167050Y0073485D01*
X0167050Y0069715D01*
X0169715Y0067050D01*
X0173485Y0067050D01*
X0176150Y0069715D01*
X0176150Y0073485D01*
X0173485Y0076150D01*
X0175506Y0074129D02*
X0177694Y0074129D01*
X0177050Y0072930D02*
X0176150Y0072930D01*
X0176150Y0071732D02*
X0177050Y0071732D01*
X0177050Y0070533D02*
X0176150Y0070533D01*
X0175769Y0069334D02*
X0177431Y0069334D01*
X0178629Y0068136D02*
X0174571Y0068136D01*
X0168629Y0068136D02*
X0139571Y0068136D01*
X0138485Y0067050D02*
X0141150Y0069715D01*
X0141150Y0073485D01*
X0138485Y0076150D01*
X0134715Y0076150D01*
X0132050Y0073485D01*
X0132050Y0069715D01*
X0134715Y0067050D01*
X0138485Y0067050D01*
X0140769Y0069334D02*
X0167431Y0069334D01*
X0167050Y0070533D02*
X0141150Y0070533D01*
X0141150Y0071732D02*
X0167050Y0071732D01*
X0167050Y0072930D02*
X0141150Y0072930D01*
X0140506Y0074129D02*
X0167694Y0074129D01*
X0168892Y0075327D02*
X0139308Y0075327D01*
X0133892Y0075327D02*
X0129308Y0075327D01*
X0128485Y0076150D02*
X0131150Y0073485D01*
X0131150Y0069715D01*
X0128485Y0067050D01*
X0124715Y0067050D01*
X0122050Y0069715D01*
X0122050Y0073485D01*
X0124715Y0076150D01*
X0128485Y0076150D01*
X0130506Y0074129D02*
X0132694Y0074129D01*
X0132050Y0072930D02*
X0131150Y0072930D01*
X0131150Y0071732D02*
X0132050Y0071732D01*
X0132050Y0070533D02*
X0131150Y0070533D01*
X0130769Y0069334D02*
X0132431Y0069334D01*
X0133629Y0068136D02*
X0129571Y0068136D01*
X0123629Y0068136D02*
X0119571Y0068136D01*
X0118485Y0067050D02*
X0114715Y0067050D01*
X0112050Y0069715D01*
X0112050Y0073485D01*
X0114715Y0076150D01*
X0118485Y0076150D01*
X0121150Y0073485D01*
X0121150Y0069715D01*
X0118485Y0067050D01*
X0120769Y0069334D02*
X0122431Y0069334D01*
X0122050Y0070533D02*
X0121150Y0070533D01*
X0121150Y0071732D02*
X0122050Y0071732D01*
X0122050Y0072930D02*
X0121150Y0072930D01*
X0120506Y0074129D02*
X0122694Y0074129D01*
X0123892Y0075327D02*
X0119308Y0075327D01*
X0113892Y0075327D02*
X0109308Y0075327D01*
X0108485Y0076150D02*
X0104715Y0076150D01*
X0102050Y0073485D01*
X0102050Y0069715D01*
X0104715Y0067050D01*
X0108485Y0067050D01*
X0111150Y0069715D01*
X0111150Y0073485D01*
X0108485Y0076150D01*
X0110506Y0074129D02*
X0112694Y0074129D01*
X0112050Y0072930D02*
X0111150Y0072930D01*
X0111150Y0071732D02*
X0112050Y0071732D01*
X0112050Y0070533D02*
X0111150Y0070533D01*
X0110769Y0069334D02*
X0112431Y0069334D01*
X0113629Y0068136D02*
X0109571Y0068136D01*
X0103629Y0068136D02*
X0085500Y0068136D01*
X0085500Y0069334D02*
X0102431Y0069334D01*
X0102050Y0070533D02*
X0085500Y0070533D01*
X0085500Y0071732D02*
X0102050Y0071732D01*
X0102050Y0072930D02*
X0085500Y0072930D01*
X0085500Y0074129D02*
X0102694Y0074129D01*
X0103892Y0075327D02*
X0085500Y0075327D01*
X0085500Y0076526D02*
X0232700Y0076526D01*
X0232700Y0077724D02*
X0085500Y0077724D01*
X0085500Y0078923D02*
X0232700Y0078923D01*
X0232700Y0080121D02*
X0085500Y0080121D01*
X0085500Y0081320D02*
X0232700Y0081320D01*
X0232700Y0082518D02*
X0085500Y0082518D01*
X0085500Y0083717D02*
X0232700Y0083717D01*
X0232700Y0084915D02*
X0085500Y0084915D01*
X0085500Y0086114D02*
X0232700Y0086114D01*
X0232700Y0087312D02*
X0085500Y0087312D01*
X0085500Y0088511D02*
X0232700Y0088511D01*
X0232700Y0089709D02*
X0085500Y0089709D01*
X0085500Y0090908D02*
X0232700Y0090908D01*
X0232700Y0092106D02*
X0085500Y0092106D01*
X0085500Y0093305D02*
X0232700Y0093305D01*
X0232700Y0094503D02*
X0085500Y0094503D01*
X0085500Y0095702D02*
X0095755Y0095702D01*
X0095279Y0096900D02*
X0085500Y0096900D01*
X0085500Y0098099D02*
X0087362Y0098099D01*
X0085887Y0099297D02*
X0085500Y0099297D01*
X0085500Y0104091D02*
X0086076Y0104091D01*
X0085500Y0105290D02*
X0087817Y0105290D01*
X0085500Y0045364D02*
X0103930Y0045364D01*
X0104715Y0046150D02*
X0102050Y0043485D01*
X0102050Y0039715D01*
X0104715Y0037050D01*
X0108485Y0037050D01*
X0111150Y0039715D01*
X0111150Y0043485D01*
X0108485Y0046150D01*
X0104715Y0046150D01*
X0102731Y0044166D02*
X0085500Y0044166D01*
X0085500Y0042967D02*
X0102050Y0042967D01*
X0102050Y0041769D02*
X0085500Y0041769D01*
X0085500Y0040570D02*
X0102050Y0040570D01*
X0102394Y0039372D02*
X0085500Y0039372D01*
X0085542Y0038173D02*
X0103592Y0038173D01*
X0109608Y0038173D02*
X0113592Y0038173D01*
X0114715Y0037050D02*
X0118485Y0037050D01*
X0121150Y0039715D01*
X0121150Y0043485D01*
X0118485Y0046150D01*
X0114715Y0046150D01*
X0112050Y0043485D01*
X0112050Y0039715D01*
X0114715Y0037050D01*
X0112394Y0039372D02*
X0110806Y0039372D01*
X0111150Y0040570D02*
X0112050Y0040570D01*
X0112050Y0041769D02*
X0111150Y0041769D01*
X0111150Y0042967D02*
X0112050Y0042967D01*
X0112731Y0044166D02*
X0110469Y0044166D01*
X0109270Y0045364D02*
X0113930Y0045364D01*
X0119270Y0045364D02*
X0123930Y0045364D01*
X0122731Y0044166D02*
X0120469Y0044166D01*
X0121150Y0042967D02*
X0122050Y0042967D01*
X0122050Y0041769D02*
X0121150Y0041769D01*
X0121150Y0040570D02*
X0122050Y0040570D01*
X0122394Y0039372D02*
X0120806Y0039372D01*
X0119608Y0038173D02*
X0122700Y0038173D01*
X0122700Y0036975D02*
X0086741Y0036975D01*
X0087939Y0035776D02*
X0122700Y0035776D01*
X0122700Y0034578D02*
X0089138Y0034578D01*
X0090336Y0033379D02*
X0122700Y0033379D01*
X0121665Y0032181D02*
X0091535Y0032181D01*
X0092733Y0030982D02*
X0120467Y0030982D01*
X0125505Y0024990D02*
X0192695Y0024990D01*
X0191496Y0026188D02*
X0126704Y0026188D01*
X0127902Y0027387D02*
X0190298Y0027387D01*
X0189099Y0028585D02*
X0129101Y0028585D01*
X0130069Y0029784D02*
X0188131Y0029784D01*
X0187700Y0030982D02*
X0130500Y0030982D01*
X0130500Y0032181D02*
X0187700Y0032181D01*
X0187700Y0033379D02*
X0130500Y0033379D01*
X0130500Y0034578D02*
X0187700Y0034578D01*
X0187700Y0035776D02*
X0130500Y0035776D01*
X0130500Y0036975D02*
X0134508Y0036975D01*
X0134632Y0036850D02*
X0136400Y0036850D01*
X0136400Y0041400D01*
X0136800Y0041400D01*
X0136800Y0041800D01*
X0141350Y0041800D01*
X0141350Y0043568D01*
X0138568Y0046350D01*
X0136800Y0046350D01*
X0136800Y0041800D01*
X0136400Y0041800D01*
X0136400Y0046350D01*
X0134632Y0046350D01*
X0131850Y0043568D01*
X0131850Y0041800D01*
X0136400Y0041800D01*
X0136400Y0041400D01*
X0131850Y0041400D01*
X0131850Y0039632D01*
X0134632Y0036850D01*
X0136400Y0036975D02*
X0136800Y0036975D01*
X0136800Y0036850D02*
X0138568Y0036850D01*
X0141350Y0039632D01*
X0141350Y0041400D01*
X0136800Y0041400D01*
X0136800Y0036850D01*
X0136800Y0038173D02*
X0136400Y0038173D01*
X0136400Y0039372D02*
X0136800Y0039372D01*
X0136800Y0040570D02*
X0136400Y0040570D01*
X0136400Y0041769D02*
X0131150Y0041769D01*
X0131150Y0042967D02*
X0131850Y0042967D01*
X0132448Y0044166D02*
X0130469Y0044166D01*
X0129270Y0045364D02*
X0133647Y0045364D01*
X0136400Y0045364D02*
X0136800Y0045364D01*
X0136800Y0044166D02*
X0136400Y0044166D01*
X0136400Y0042967D02*
X0136800Y0042967D01*
X0136800Y0041769D02*
X0167050Y0041769D01*
X0167050Y0042967D02*
X0141350Y0042967D01*
X0140752Y0044166D02*
X0167731Y0044166D01*
X0167050Y0043485D02*
X0167050Y0039715D01*
X0169715Y0037050D01*
X0173485Y0037050D01*
X0176150Y0039715D01*
X0176150Y0043485D01*
X0173485Y0046150D01*
X0169715Y0046150D01*
X0167050Y0043485D01*
X0168930Y0045364D02*
X0139553Y0045364D01*
X0141350Y0040570D02*
X0167050Y0040570D01*
X0167394Y0039372D02*
X0141089Y0039372D01*
X0139891Y0038173D02*
X0168592Y0038173D01*
X0174608Y0038173D02*
X0178592Y0038173D01*
X0179715Y0037050D02*
X0183485Y0037050D01*
X0186150Y0039715D01*
X0186150Y0043485D01*
X0183485Y0046150D01*
X0179715Y0046150D01*
X0177050Y0043485D01*
X0177050Y0039715D01*
X0179715Y0037050D01*
X0177394Y0039372D02*
X0175806Y0039372D01*
X0176150Y0040570D02*
X0177050Y0040570D01*
X0177050Y0041769D02*
X0176150Y0041769D01*
X0176150Y0042967D02*
X0177050Y0042967D01*
X0177731Y0044166D02*
X0175469Y0044166D01*
X0174270Y0045364D02*
X0178930Y0045364D01*
X0184270Y0045364D02*
X0188930Y0045364D01*
X0187731Y0044166D02*
X0185469Y0044166D01*
X0186150Y0042967D02*
X0187050Y0042967D01*
X0187050Y0041769D02*
X0186150Y0041769D01*
X0186150Y0040570D02*
X0187050Y0040570D01*
X0187394Y0039372D02*
X0185806Y0039372D01*
X0184608Y0038173D02*
X0187700Y0038173D01*
X0187700Y0036975D02*
X0138692Y0036975D01*
X0133309Y0038173D02*
X0130500Y0038173D01*
X0130806Y0039372D02*
X0132111Y0039372D01*
X0131850Y0040570D02*
X0131150Y0040570D01*
X0124306Y0023791D02*
X0193893Y0023791D01*
X0197733Y0030982D02*
X0220467Y0030982D01*
X0221665Y0032181D02*
X0196535Y0032181D01*
X0195500Y0033379D02*
X0222864Y0033379D01*
X0224062Y0034578D02*
X0195500Y0034578D01*
X0195500Y0035776D02*
X0225261Y0035776D01*
X0226459Y0036975D02*
X0203692Y0036975D01*
X0201800Y0036975D02*
X0201400Y0036975D01*
X0201400Y0036850D02*
X0201400Y0041400D01*
X0196850Y0041400D01*
X0196850Y0039632D01*
X0199632Y0036850D01*
X0201400Y0036850D01*
X0201400Y0038173D02*
X0201800Y0038173D01*
X0201800Y0039372D02*
X0201400Y0039372D01*
X0201400Y0040570D02*
X0201800Y0040570D01*
X0201800Y0041769D02*
X0231253Y0041769D01*
X0201800Y0042967D02*
X0201400Y0042967D01*
X0201400Y0041769D02*
X0196150Y0041769D01*
X0196150Y0042967D02*
X0196850Y0042967D01*
X0197448Y0044166D02*
X0195469Y0044166D01*
X0194270Y0045364D02*
X0198647Y0045364D01*
X0201400Y0045364D02*
X0201800Y0045364D01*
X0201800Y0044166D02*
X0201400Y0044166D01*
X0196850Y0040570D02*
X0196150Y0040570D01*
X0195806Y0039372D02*
X0197111Y0039372D01*
X0198309Y0038173D02*
X0195500Y0038173D01*
X0195500Y0036975D02*
X0199508Y0036975D01*
X0240500Y0144841D02*
X0241134Y0144841D01*
X0241134Y0146039D02*
X0240500Y0146039D01*
X0240500Y0147238D02*
X0241134Y0147238D01*
X0241134Y0148436D02*
X0240500Y0148436D01*
X0240500Y0149635D02*
X0241134Y0149635D01*
X0241134Y0150833D02*
X0240500Y0150833D01*
X0240500Y0152032D02*
X0241134Y0152032D01*
X0241134Y0153230D02*
X0240500Y0153230D01*
X0240500Y0154429D02*
X0241134Y0154429D01*
X0241134Y0155627D02*
X0240500Y0155627D01*
X0240500Y0156826D02*
X0241134Y0156826D01*
X0241134Y0158024D02*
X0240500Y0158024D01*
X0240500Y0159223D02*
X0241134Y0159223D01*
X0241134Y0160421D02*
X0240500Y0160421D01*
X0240500Y0161620D02*
X0241134Y0161620D01*
X0241134Y0162818D02*
X0240500Y0162818D01*
X0240500Y0164017D02*
X0241134Y0164017D01*
X0241134Y0165215D02*
X0240500Y0165215D01*
X0240500Y0166414D02*
X0241134Y0166414D01*
X0241134Y0167612D02*
X0240500Y0167612D01*
X0240500Y0168811D02*
X0241134Y0168811D01*
X0241134Y0170009D02*
X0240500Y0170009D01*
X0240500Y0171208D02*
X0241134Y0171208D01*
X0241134Y0172406D02*
X0240500Y0172406D01*
X0240500Y0173605D02*
X0241134Y0173605D01*
X0241134Y0174803D02*
X0240500Y0174803D01*
X0240500Y0176002D02*
X0241134Y0176002D01*
X0241134Y0177201D02*
X0240500Y0177201D01*
X0240500Y0178399D02*
X0241134Y0178399D01*
X0241134Y0179598D02*
X0240500Y0179598D01*
X0240500Y0180796D02*
X0241134Y0180796D01*
X0241134Y0181995D02*
X0240500Y0181995D01*
X0240500Y0183193D02*
X0241134Y0183193D01*
X0241134Y0184392D02*
X0240500Y0184392D01*
X0240500Y0185590D02*
X0241134Y0185590D01*
X0241134Y0186789D02*
X0240500Y0186789D01*
X0240500Y0187987D02*
X0241134Y0187987D01*
X0241134Y0189186D02*
X0240500Y0189186D01*
X0240500Y0190384D02*
X0241134Y0190384D01*
X0241134Y0191583D02*
X0240500Y0191583D01*
X0240500Y0192781D02*
X0241134Y0192781D01*
X0241134Y0193980D02*
X0240500Y0193980D01*
X0240500Y0195178D02*
X0241134Y0195178D01*
X0241134Y0196377D02*
X0240500Y0196377D01*
X0240500Y0197575D02*
X0241134Y0197575D01*
X0241134Y0198774D02*
X0240500Y0198774D01*
X0240500Y0199972D02*
X0241134Y0199972D01*
X0241134Y0201171D02*
X0240500Y0201171D01*
X0240500Y0202369D02*
X0241134Y0202369D01*
X0241134Y0203568D02*
X0240500Y0203568D01*
X0240500Y0204766D02*
X0241134Y0204766D01*
X0241134Y0205965D02*
X0240500Y0205965D01*
X0240500Y0207163D02*
X0241134Y0207163D01*
X0241134Y0208362D02*
X0240500Y0208362D01*
X0240500Y0209560D02*
X0241134Y0209560D01*
X0241134Y0210759D02*
X0240500Y0210759D01*
X0240500Y0211957D02*
X0241134Y0211957D01*
X0241134Y0213156D02*
X0240500Y0213156D01*
X0240500Y0214354D02*
X0241134Y0214354D01*
X0241134Y0215553D02*
X0240500Y0215553D01*
X0240500Y0216751D02*
X0241134Y0216751D01*
X0241134Y0217950D02*
X0240500Y0217950D01*
X0240500Y0219148D02*
X0241134Y0219148D01*
X0241134Y0220347D02*
X0240500Y0220347D01*
X0240500Y0221545D02*
X0241134Y0221545D01*
X0241134Y0222744D02*
X0240347Y0222744D01*
X0239773Y0223942D02*
X0241134Y0223942D01*
X0241134Y0225141D02*
X0238574Y0225141D01*
X0238809Y0224906D02*
X0238809Y0224906D01*
X0237376Y0226339D02*
X0241134Y0226339D01*
X0241134Y0227538D02*
X0236177Y0227538D01*
X0234979Y0228737D02*
X0241134Y0228737D01*
X0241134Y0229935D02*
X0233780Y0229935D01*
X0232582Y0231134D02*
X0241134Y0231134D01*
X0241134Y0232332D02*
X0231383Y0232332D01*
X0230185Y0233531D02*
X0241134Y0233531D01*
X0241134Y0234729D02*
X0228986Y0234729D01*
X0227788Y0235928D02*
X0241134Y0235928D01*
X0241134Y0237126D02*
X0226589Y0237126D01*
X0225391Y0238325D02*
X0241134Y0238325D01*
X0241134Y0239523D02*
X0224192Y0239523D01*
X0220353Y0232332D02*
X0192847Y0232332D01*
X0191649Y0231134D02*
X0221551Y0231134D01*
X0222750Y0229935D02*
X0190500Y0229935D01*
X0190500Y0228737D02*
X0223948Y0228737D01*
X0225147Y0227538D02*
X0190500Y0227538D01*
X0190500Y0226339D02*
X0226345Y0226339D01*
X0227544Y0225141D02*
X0190500Y0225141D01*
X0190500Y0223942D02*
X0195586Y0223942D01*
X0195725Y0224000D02*
X0194108Y0223330D01*
X0192870Y0222092D01*
X0192200Y0220475D01*
X0192200Y0212725D01*
X0192870Y0211108D01*
X0194108Y0209870D01*
X0195725Y0209200D01*
X0197475Y0209200D01*
X0199092Y0209870D01*
X0200330Y0211108D01*
X0201000Y0212725D01*
X0201000Y0220475D01*
X0200330Y0222092D01*
X0199092Y0223330D01*
X0197475Y0224000D01*
X0195725Y0224000D01*
X0197614Y0223942D02*
X0205586Y0223942D01*
X0205725Y0224000D02*
X0204108Y0223330D01*
X0202870Y0222092D01*
X0202200Y0220475D01*
X0202200Y0212725D01*
X0202870Y0211108D01*
X0204108Y0209870D01*
X0205725Y0209200D01*
X0207475Y0209200D01*
X0209092Y0209870D01*
X0210330Y0211108D01*
X0211000Y0212725D01*
X0211000Y0220475D01*
X0210330Y0222092D01*
X0209092Y0223330D01*
X0207475Y0224000D01*
X0205725Y0224000D01*
X0207614Y0223942D02*
X0228742Y0223942D01*
X0229941Y0222744D02*
X0209679Y0222744D01*
X0210557Y0221545D02*
X0231139Y0221545D01*
X0232338Y0220347D02*
X0211000Y0220347D01*
X0211000Y0219148D02*
X0232700Y0219148D01*
X0232700Y0217950D02*
X0211000Y0217950D01*
X0211000Y0216751D02*
X0232700Y0216751D01*
X0232700Y0215553D02*
X0211000Y0215553D01*
X0211000Y0214354D02*
X0232700Y0214354D01*
X0232700Y0213156D02*
X0211000Y0213156D01*
X0210682Y0211957D02*
X0232700Y0211957D01*
X0232700Y0210759D02*
X0209981Y0210759D01*
X0208345Y0209560D02*
X0232700Y0209560D01*
X0232700Y0208362D02*
X0085500Y0208362D01*
X0085500Y0209560D02*
X0094396Y0209560D01*
X0092978Y0210759D02*
X0085500Y0210759D01*
X0085500Y0211957D02*
X0092297Y0211957D01*
X0092013Y0213156D02*
X0085500Y0213156D01*
X0085500Y0214354D02*
X0092000Y0214354D01*
X0085500Y0207163D02*
X0232700Y0207163D01*
X0232700Y0205965D02*
X0085500Y0205965D01*
X0085500Y0204766D02*
X0232700Y0204766D01*
X0232700Y0203568D02*
X0085500Y0203568D01*
X0085500Y0202369D02*
X0232700Y0202369D01*
X0232700Y0201171D02*
X0085500Y0201171D01*
X0085500Y0199972D02*
X0232700Y0199972D01*
X0232700Y0198774D02*
X0085500Y0198774D01*
X0085500Y0197575D02*
X0232700Y0197575D01*
X0232700Y0196377D02*
X0085500Y0196377D01*
X0085500Y0195178D02*
X0232700Y0195178D01*
X0232700Y0193980D02*
X0085500Y0193980D01*
X0085500Y0192781D02*
X0232700Y0192781D01*
X0232700Y0191583D02*
X0085500Y0191583D01*
X0085500Y0190384D02*
X0232700Y0190384D01*
X0232700Y0189186D02*
X0085500Y0189186D01*
X0085500Y0187987D02*
X0232700Y0187987D01*
X0232700Y0186789D02*
X0085500Y0186789D01*
X0085500Y0185590D02*
X0232700Y0185590D01*
X0232700Y0184392D02*
X0085500Y0184392D01*
X0085500Y0183193D02*
X0100104Y0183193D01*
X0098789Y0181995D02*
X0085500Y0181995D01*
X0085500Y0180796D02*
X0098740Y0180796D01*
X0098740Y0179598D02*
X0085500Y0179598D01*
X0085500Y0178399D02*
X0103746Y0178399D01*
X0096600Y0178399D02*
X0153124Y0178399D01*
X0139454Y0178399D01*
X0144460Y0179598D02*
X0154082Y0179598D01*
X0096600Y0179598D01*
X0096600Y0180796D02*
X0211600Y0180796D01*
X0211600Y0179598D02*
X0159118Y0179598D01*
X0163740Y0179598D01*
X0163740Y0180796D02*
X0144460Y0180796D01*
X0144411Y0181995D02*
X0163789Y0181995D01*
X0165104Y0183193D02*
X0143096Y0183193D01*
X0160076Y0178399D02*
X0211600Y0178399D01*
X0209460Y0179598D02*
X0232700Y0179598D01*
X0232700Y0180796D02*
X0209460Y0180796D01*
X0209411Y0181995D02*
X0232700Y0181995D01*
X0232700Y0183193D02*
X0208096Y0183193D01*
X0211600Y0183193D02*
X0096600Y0183193D01*
X0096600Y0181995D02*
X0211600Y0181995D01*
X0211600Y0184392D02*
X0096600Y0184392D01*
X0096600Y0185590D02*
X0211600Y0185590D01*
X0204454Y0178399D02*
X0232700Y0178399D01*
X0204855Y0209560D02*
X0198345Y0209560D01*
X0199981Y0210759D02*
X0203219Y0210759D01*
X0202518Y0211957D02*
X0200682Y0211957D01*
X0201000Y0213156D02*
X0202200Y0213156D01*
X0202200Y0214354D02*
X0201000Y0214354D01*
X0201000Y0215553D02*
X0202200Y0215553D01*
X0202200Y0216751D02*
X0201000Y0216751D01*
X0201000Y0217950D02*
X0202200Y0217950D01*
X0202200Y0219148D02*
X0201000Y0219148D01*
X0201000Y0220347D02*
X0202200Y0220347D01*
X0202643Y0221545D02*
X0200557Y0221545D01*
X0199679Y0222744D02*
X0203521Y0222744D01*
X0193521Y0222744D02*
X0190500Y0222744D01*
X0190557Y0221545D02*
X0192643Y0221545D01*
X0192200Y0220347D02*
X0191000Y0220347D01*
X0191000Y0219148D02*
X0192200Y0219148D01*
X0192200Y0217950D02*
X0191000Y0217950D01*
X0191000Y0216751D02*
X0192200Y0216751D01*
X0192200Y0215553D02*
X0191000Y0215553D01*
X0191000Y0214354D02*
X0192200Y0214354D01*
X0192200Y0213156D02*
X0191000Y0213156D01*
X0190682Y0211957D02*
X0192518Y0211957D01*
X0193219Y0210759D02*
X0189981Y0210759D01*
X0188345Y0209560D02*
X0194855Y0209560D01*
X0184855Y0209560D02*
X0178345Y0209560D01*
X0179981Y0210759D02*
X0183219Y0210759D01*
X0182518Y0211957D02*
X0180682Y0211957D01*
X0181000Y0213156D02*
X0182200Y0213156D01*
X0182200Y0214354D02*
X0181000Y0214354D01*
X0181000Y0215553D02*
X0182200Y0215553D01*
X0182200Y0216751D02*
X0181000Y0216751D01*
X0181000Y0217950D02*
X0182200Y0217950D01*
X0182200Y0219148D02*
X0181000Y0219148D01*
X0181000Y0220347D02*
X0182200Y0220347D01*
X0182643Y0221545D02*
X0180557Y0221545D01*
X0180347Y0222744D02*
X0182700Y0222744D01*
X0182700Y0223942D02*
X0179773Y0223942D01*
X0178574Y0225141D02*
X0182700Y0225141D01*
X0182700Y0226339D02*
X0177376Y0226339D01*
X0176177Y0227538D02*
X0182700Y0227538D01*
X0182700Y0228737D02*
X0174979Y0228737D01*
X0173780Y0229935D02*
X0182700Y0229935D01*
X0182700Y0231134D02*
X0172582Y0231134D01*
X0171383Y0232332D02*
X0182700Y0232332D01*
X0183178Y0233531D02*
X0170185Y0233531D01*
X0168986Y0234729D02*
X0184214Y0234729D01*
X0185412Y0235928D02*
X0071200Y0235928D01*
X0071200Y0237126D02*
X0186611Y0237126D01*
X0187809Y0238325D02*
X0071200Y0238325D01*
X0071200Y0239523D02*
X0189008Y0239523D01*
X0241134Y0240722D02*
X0071200Y0240722D01*
X0071200Y0241920D02*
X0241134Y0241920D01*
X0241134Y0243119D02*
X0071200Y0243119D01*
X0071200Y0244317D02*
X0241134Y0244317D01*
X0241134Y0245516D02*
X0071200Y0245516D01*
X0071200Y0246714D02*
X0241134Y0246714D01*
X0241134Y0247913D02*
X0071200Y0247913D01*
X0071200Y0249111D02*
X0241134Y0249111D01*
X0241134Y0250310D02*
X0071200Y0250310D01*
X0071200Y0251508D02*
X0241134Y0251508D01*
X0241134Y0252707D02*
X0071200Y0252707D01*
X0160076Y0178399D02*
X0168746Y0178399D01*
X0186000Y0177201D02*
X0187200Y0177201D01*
X0187200Y0176002D02*
X0186000Y0176002D01*
X0186000Y0174803D02*
X0187200Y0174803D01*
X0187200Y0173605D02*
X0186000Y0173605D01*
X0186000Y0172406D02*
X0187200Y0172406D01*
X0187200Y0171208D02*
X0186000Y0171208D01*
X0186000Y0170009D02*
X0187200Y0170009D01*
X0187200Y0168811D02*
X0186000Y0168811D01*
X0186000Y0165215D02*
X0187200Y0165215D01*
X0187200Y0164017D02*
X0186000Y0164017D01*
X0186000Y0162818D02*
X0187200Y0162818D01*
X0187200Y0161620D02*
X0186000Y0161620D01*
X0186000Y0160421D02*
X0187200Y0160421D01*
X0187200Y0159223D02*
X0186000Y0159223D01*
X0186000Y0158024D02*
X0187200Y0158024D01*
X0187200Y0156826D02*
X0186000Y0156826D01*
X0186000Y0155627D02*
X0187200Y0155627D01*
X0187200Y0154429D02*
X0186000Y0154429D01*
X0186000Y0153230D02*
X0187200Y0153230D01*
X0187200Y0179598D02*
X0186000Y0179598D01*
X0186000Y0180796D02*
X0187200Y0180796D01*
X0187200Y0181995D02*
X0186000Y0181995D01*
X0186000Y0183193D02*
X0187200Y0183193D01*
M02*
