%
M48
M72
T01C0.02756
T02C0.03200
T03C0.04000
%
T01
X89100Y101600
X111600Y116600
X128293Y136600
X134986Y141600
X156600Y141600
X176600Y116600
X193293Y136600
X199986Y141600
X226600Y111600
X214100Y101600
X149100Y101600
X146600Y31600
X156600Y176600
T02
X106600Y41600
X116600Y41600
X126600Y41600
X136600Y41600
X136600Y71600
X126600Y71600
X116600Y71600
X106600Y71600
X171600Y71600
X181600Y71600
X191600Y71600
X201600Y71600
X201600Y41600
X191600Y41600
X181600Y41600
X171600Y41600
T03
X176600Y216600
X186600Y216600
X196600Y216600
X206600Y216600
X126600Y216600
X116600Y216600
X106600Y216600
X96600Y216600
M30
