G75*
%MOIN*%
%OFA0B0*%
%FSLAX25Y25*%
%IPPOS*%
%LPD*%
%AMOC8*
5,1,8,0,0,1.08239X$1,22.5*
%
%ADD10C,0.00000*%
%ADD11C,0.00600*%
%ADD12C,0.00400*%
%ADD13R,0.15000X0.02500*%
%ADD14R,0.09000X0.02500*%
%ADD15C,0.02000*%
%ADD16R,0.42000X0.03000*%
%ADD17R,0.07500X0.02000*%
%ADD18R,0.03000X0.02000*%
%ADD19C,0.00500*%
%ADD20C,0.00800*%
%ADD21R,0.03000X0.42000*%
%ADD22R,0.02000X0.07500*%
%ADD23R,0.02000X0.13000*%
D10*
X0003600Y0006600D02*
X0003600Y0140301D01*
X0233521Y0140301D01*
X0233521Y0006600D01*
X0003600Y0006600D01*
D11*
X0081100Y0052600D02*
X0096100Y0052600D01*
X0096100Y0055100D01*
X0088600Y0055100D01*
X0081100Y0055100D01*
X0081100Y0052600D01*
X0053600Y0051600D02*
X0053611Y0052459D01*
X0053642Y0053317D01*
X0053695Y0054175D01*
X0053769Y0055031D01*
X0053863Y0055884D01*
X0053979Y0056736D01*
X0054115Y0057584D01*
X0054273Y0058428D01*
X0054450Y0059269D01*
X0054649Y0060104D01*
X0054868Y0060935D01*
X0055107Y0061760D01*
X0055367Y0062579D01*
X0055646Y0063391D01*
X0055945Y0064196D01*
X0056264Y0064994D01*
X0056603Y0065783D01*
X0056960Y0066564D01*
X0057337Y0067336D01*
X0057733Y0068099D01*
X0058147Y0068851D01*
X0058579Y0069594D01*
X0059030Y0070325D01*
X0059499Y0071045D01*
X0059985Y0071753D01*
X0060488Y0072449D01*
X0061008Y0073133D01*
X0061545Y0073804D01*
X0062098Y0074461D01*
X0062667Y0075105D01*
X0063251Y0075734D01*
X0063851Y0076349D01*
X0064466Y0076949D01*
X0065095Y0077533D01*
X0065739Y0078102D01*
X0066396Y0078655D01*
X0067067Y0079192D01*
X0067751Y0079712D01*
X0068447Y0080215D01*
X0069155Y0080701D01*
X0069875Y0081170D01*
X0070606Y0081621D01*
X0071349Y0082053D01*
X0072101Y0082467D01*
X0072864Y0082863D01*
X0073636Y0083240D01*
X0074417Y0083597D01*
X0075206Y0083936D01*
X0076004Y0084255D01*
X0076809Y0084554D01*
X0077621Y0084833D01*
X0078440Y0085093D01*
X0079265Y0085332D01*
X0080096Y0085551D01*
X0080931Y0085750D01*
X0081772Y0085927D01*
X0082616Y0086085D01*
X0083464Y0086221D01*
X0084316Y0086337D01*
X0085169Y0086431D01*
X0086025Y0086505D01*
X0086883Y0086558D01*
X0087741Y0086589D01*
X0088600Y0086600D01*
X0089459Y0086589D01*
X0090317Y0086558D01*
X0091175Y0086505D01*
X0092031Y0086431D01*
X0092884Y0086337D01*
X0093736Y0086221D01*
X0094584Y0086085D01*
X0095428Y0085927D01*
X0096269Y0085750D01*
X0097104Y0085551D01*
X0097935Y0085332D01*
X0098760Y0085093D01*
X0099579Y0084833D01*
X0100391Y0084554D01*
X0101196Y0084255D01*
X0101994Y0083936D01*
X0102783Y0083597D01*
X0103564Y0083240D01*
X0104336Y0082863D01*
X0105099Y0082467D01*
X0105851Y0082053D01*
X0106594Y0081621D01*
X0107325Y0081170D01*
X0108045Y0080701D01*
X0108753Y0080215D01*
X0109449Y0079712D01*
X0110133Y0079192D01*
X0110804Y0078655D01*
X0111461Y0078102D01*
X0112105Y0077533D01*
X0112734Y0076949D01*
X0113349Y0076349D01*
X0113949Y0075734D01*
X0114533Y0075105D01*
X0115102Y0074461D01*
X0115655Y0073804D01*
X0116192Y0073133D01*
X0116712Y0072449D01*
X0117215Y0071753D01*
X0117701Y0071045D01*
X0118170Y0070325D01*
X0118621Y0069594D01*
X0119053Y0068851D01*
X0119467Y0068099D01*
X0119863Y0067336D01*
X0120240Y0066564D01*
X0120597Y0065783D01*
X0120936Y0064994D01*
X0121255Y0064196D01*
X0121554Y0063391D01*
X0121833Y0062579D01*
X0122093Y0061760D01*
X0122332Y0060935D01*
X0122551Y0060104D01*
X0122750Y0059269D01*
X0122927Y0058428D01*
X0123085Y0057584D01*
X0123221Y0056736D01*
X0123337Y0055884D01*
X0123431Y0055031D01*
X0123505Y0054175D01*
X0123558Y0053317D01*
X0123589Y0052459D01*
X0123600Y0051600D01*
X0123589Y0050741D01*
X0123558Y0049883D01*
X0123505Y0049025D01*
X0123431Y0048169D01*
X0123337Y0047316D01*
X0123221Y0046464D01*
X0123085Y0045616D01*
X0122927Y0044772D01*
X0122750Y0043931D01*
X0122551Y0043096D01*
X0122332Y0042265D01*
X0122093Y0041440D01*
X0121833Y0040621D01*
X0121554Y0039809D01*
X0121255Y0039004D01*
X0120936Y0038206D01*
X0120597Y0037417D01*
X0120240Y0036636D01*
X0119863Y0035864D01*
X0119467Y0035101D01*
X0119053Y0034349D01*
X0118621Y0033606D01*
X0118170Y0032875D01*
X0117701Y0032155D01*
X0117215Y0031447D01*
X0116712Y0030751D01*
X0116192Y0030067D01*
X0115655Y0029396D01*
X0115102Y0028739D01*
X0114533Y0028095D01*
X0113949Y0027466D01*
X0113349Y0026851D01*
X0112734Y0026251D01*
X0112105Y0025667D01*
X0111461Y0025098D01*
X0110804Y0024545D01*
X0110133Y0024008D01*
X0109449Y0023488D01*
X0108753Y0022985D01*
X0108045Y0022499D01*
X0107325Y0022030D01*
X0106594Y0021579D01*
X0105851Y0021147D01*
X0105099Y0020733D01*
X0104336Y0020337D01*
X0103564Y0019960D01*
X0102783Y0019603D01*
X0101994Y0019264D01*
X0101196Y0018945D01*
X0100391Y0018646D01*
X0099579Y0018367D01*
X0098760Y0018107D01*
X0097935Y0017868D01*
X0097104Y0017649D01*
X0096269Y0017450D01*
X0095428Y0017273D01*
X0094584Y0017115D01*
X0093736Y0016979D01*
X0092884Y0016863D01*
X0092031Y0016769D01*
X0091175Y0016695D01*
X0090317Y0016642D01*
X0089459Y0016611D01*
X0088600Y0016600D01*
X0087741Y0016611D01*
X0086883Y0016642D01*
X0086025Y0016695D01*
X0085169Y0016769D01*
X0084316Y0016863D01*
X0083464Y0016979D01*
X0082616Y0017115D01*
X0081772Y0017273D01*
X0080931Y0017450D01*
X0080096Y0017649D01*
X0079265Y0017868D01*
X0078440Y0018107D01*
X0077621Y0018367D01*
X0076809Y0018646D01*
X0076004Y0018945D01*
X0075206Y0019264D01*
X0074417Y0019603D01*
X0073636Y0019960D01*
X0072864Y0020337D01*
X0072101Y0020733D01*
X0071349Y0021147D01*
X0070606Y0021579D01*
X0069875Y0022030D01*
X0069155Y0022499D01*
X0068447Y0022985D01*
X0067751Y0023488D01*
X0067067Y0024008D01*
X0066396Y0024545D01*
X0065739Y0025098D01*
X0065095Y0025667D01*
X0064466Y0026251D01*
X0063851Y0026851D01*
X0063251Y0027466D01*
X0062667Y0028095D01*
X0062098Y0028739D01*
X0061545Y0029396D01*
X0061008Y0030067D01*
X0060488Y0030751D01*
X0059985Y0031447D01*
X0059499Y0032155D01*
X0059030Y0032875D01*
X0058579Y0033606D01*
X0058147Y0034349D01*
X0057733Y0035101D01*
X0057337Y0035864D01*
X0056960Y0036636D01*
X0056603Y0037417D01*
X0056264Y0038206D01*
X0055945Y0039004D01*
X0055646Y0039809D01*
X0055367Y0040621D01*
X0055107Y0041440D01*
X0054868Y0042265D01*
X0054649Y0043096D01*
X0054450Y0043931D01*
X0054273Y0044772D01*
X0054115Y0045616D01*
X0053979Y0046464D01*
X0053863Y0047316D01*
X0053769Y0048169D01*
X0053695Y0049025D01*
X0053642Y0049883D01*
X0053611Y0050741D01*
X0053600Y0051600D01*
X0088600Y0049100D02*
X0088600Y0043600D01*
X0088600Y0055100D02*
X0088600Y0059600D01*
X0088600Y0075100D02*
X0088600Y0081100D01*
X0085600Y0078100D02*
X0091600Y0078100D01*
X0093100Y0091600D02*
X0104600Y0092100D01*
X0105600Y0093100D01*
X0105600Y0130100D01*
X0104600Y0131100D01*
X0093100Y0131600D01*
X0085600Y0130100D02*
X0085600Y0093100D01*
X0084600Y0092100D01*
X0073100Y0091600D01*
X0065600Y0093100D02*
X0064600Y0092100D01*
X0053100Y0091600D01*
X0045600Y0093100D02*
X0044600Y0092100D01*
X0033100Y0091600D01*
X0026725Y0085238D02*
X0025657Y0086305D01*
X0023522Y0086305D01*
X0022454Y0085238D01*
X0022454Y0080968D01*
X0023522Y0079900D01*
X0025657Y0079900D01*
X0026725Y0080968D01*
X0020279Y0079900D02*
X0020279Y0084170D01*
X0018144Y0086305D01*
X0016009Y0084170D01*
X0016009Y0079900D01*
X0016009Y0083103D02*
X0020279Y0083103D01*
X0045600Y0093100D02*
X0045600Y0130100D01*
X0044600Y0131100D01*
X0033100Y0131600D01*
X0053100Y0131600D02*
X0064600Y0131100D01*
X0065600Y0130100D01*
X0065600Y0093100D01*
X0073100Y0131600D02*
X0084600Y0131100D01*
X0085600Y0130100D01*
X0133600Y0119100D02*
X0133600Y0096100D01*
X0137600Y0096100D01*
X0137600Y0101600D01*
X0179600Y0101600D01*
X0179600Y0096100D01*
X0183600Y0096100D01*
X0183600Y0119100D01*
X0183598Y0119198D01*
X0183592Y0119296D01*
X0183583Y0119394D01*
X0183569Y0119491D01*
X0183552Y0119588D01*
X0183531Y0119684D01*
X0183506Y0119779D01*
X0183478Y0119873D01*
X0183445Y0119965D01*
X0183410Y0120057D01*
X0183370Y0120147D01*
X0183328Y0120235D01*
X0183281Y0120322D01*
X0183232Y0120406D01*
X0183179Y0120489D01*
X0183123Y0120569D01*
X0183063Y0120648D01*
X0183001Y0120724D01*
X0182936Y0120797D01*
X0182868Y0120868D01*
X0182797Y0120936D01*
X0182724Y0121001D01*
X0182648Y0121063D01*
X0182569Y0121123D01*
X0182489Y0121179D01*
X0182406Y0121232D01*
X0182322Y0121281D01*
X0182235Y0121328D01*
X0182147Y0121370D01*
X0182057Y0121410D01*
X0181965Y0121445D01*
X0181873Y0121478D01*
X0181779Y0121506D01*
X0181684Y0121531D01*
X0181588Y0121552D01*
X0181491Y0121569D01*
X0181394Y0121583D01*
X0181296Y0121592D01*
X0181198Y0121598D01*
X0181100Y0121600D01*
X0181002Y0121598D01*
X0180904Y0121592D01*
X0180806Y0121583D01*
X0180709Y0121569D01*
X0180612Y0121552D01*
X0180516Y0121531D01*
X0180421Y0121506D01*
X0180327Y0121478D01*
X0180235Y0121445D01*
X0180143Y0121410D01*
X0180053Y0121370D01*
X0179965Y0121328D01*
X0179878Y0121281D01*
X0179794Y0121232D01*
X0179711Y0121179D01*
X0179631Y0121123D01*
X0179552Y0121063D01*
X0179476Y0121001D01*
X0179403Y0120936D01*
X0179332Y0120868D01*
X0179264Y0120797D01*
X0179199Y0120724D01*
X0179137Y0120648D01*
X0179077Y0120569D01*
X0179021Y0120489D01*
X0178968Y0120406D01*
X0178919Y0120322D01*
X0178872Y0120235D01*
X0178830Y0120147D01*
X0178790Y0120057D01*
X0178755Y0119965D01*
X0178722Y0119873D01*
X0178694Y0119779D01*
X0178669Y0119684D01*
X0178648Y0119588D01*
X0178631Y0119491D01*
X0178617Y0119394D01*
X0178608Y0119296D01*
X0178602Y0119198D01*
X0178600Y0119100D01*
X0178600Y0108100D01*
X0178598Y0108024D01*
X0178592Y0107948D01*
X0178583Y0107873D01*
X0178569Y0107798D01*
X0178552Y0107724D01*
X0178531Y0107651D01*
X0178507Y0107579D01*
X0178478Y0107508D01*
X0178447Y0107439D01*
X0178412Y0107372D01*
X0178373Y0107307D01*
X0178331Y0107243D01*
X0178286Y0107182D01*
X0178238Y0107123D01*
X0178187Y0107067D01*
X0178133Y0107013D01*
X0178077Y0106962D01*
X0178018Y0106914D01*
X0177957Y0106869D01*
X0177893Y0106827D01*
X0177828Y0106788D01*
X0177761Y0106753D01*
X0177692Y0106722D01*
X0177621Y0106693D01*
X0177549Y0106669D01*
X0177476Y0106648D01*
X0177402Y0106631D01*
X0177327Y0106617D01*
X0177252Y0106608D01*
X0177176Y0106602D01*
X0177100Y0106600D01*
X0177024Y0106602D01*
X0176948Y0106608D01*
X0176873Y0106617D01*
X0176798Y0106631D01*
X0176724Y0106648D01*
X0176651Y0106669D01*
X0176579Y0106693D01*
X0176508Y0106722D01*
X0176439Y0106753D01*
X0176372Y0106788D01*
X0176307Y0106827D01*
X0176243Y0106869D01*
X0176182Y0106914D01*
X0176123Y0106962D01*
X0176067Y0107013D01*
X0176013Y0107067D01*
X0175962Y0107123D01*
X0175914Y0107182D01*
X0175869Y0107243D01*
X0175827Y0107307D01*
X0175788Y0107372D01*
X0175753Y0107439D01*
X0175722Y0107508D01*
X0175693Y0107579D01*
X0175669Y0107651D01*
X0175648Y0107724D01*
X0175631Y0107798D01*
X0175617Y0107873D01*
X0175608Y0107948D01*
X0175602Y0108024D01*
X0175600Y0108100D01*
X0175100Y0120100D01*
X0175098Y0120176D01*
X0175092Y0120252D01*
X0175083Y0120327D01*
X0175069Y0120402D01*
X0175052Y0120476D01*
X0175031Y0120549D01*
X0175007Y0120621D01*
X0174978Y0120692D01*
X0174947Y0120761D01*
X0174912Y0120828D01*
X0174873Y0120893D01*
X0174831Y0120957D01*
X0174786Y0121018D01*
X0174738Y0121077D01*
X0174687Y0121133D01*
X0174633Y0121187D01*
X0174577Y0121238D01*
X0174518Y0121286D01*
X0174457Y0121331D01*
X0174393Y0121373D01*
X0174328Y0121412D01*
X0174261Y0121447D01*
X0174192Y0121478D01*
X0174121Y0121507D01*
X0174049Y0121531D01*
X0173976Y0121552D01*
X0173902Y0121569D01*
X0173827Y0121583D01*
X0173752Y0121592D01*
X0173676Y0121598D01*
X0173600Y0121600D01*
X0173524Y0121598D01*
X0173448Y0121592D01*
X0173373Y0121583D01*
X0173298Y0121569D01*
X0173224Y0121552D01*
X0173151Y0121531D01*
X0173079Y0121507D01*
X0173008Y0121478D01*
X0172939Y0121447D01*
X0172872Y0121412D01*
X0172807Y0121373D01*
X0172743Y0121331D01*
X0172682Y0121286D01*
X0172623Y0121238D01*
X0172567Y0121187D01*
X0172513Y0121133D01*
X0172462Y0121077D01*
X0172414Y0121018D01*
X0172369Y0120957D01*
X0172327Y0120893D01*
X0172288Y0120828D01*
X0172253Y0120761D01*
X0172222Y0120692D01*
X0172193Y0120621D01*
X0172169Y0120549D01*
X0172148Y0120476D01*
X0172131Y0120402D01*
X0172117Y0120327D01*
X0172108Y0120252D01*
X0172102Y0120176D01*
X0172100Y0120100D01*
X0171600Y0108100D01*
X0171598Y0108024D01*
X0171592Y0107948D01*
X0171583Y0107873D01*
X0171569Y0107798D01*
X0171552Y0107724D01*
X0171531Y0107651D01*
X0171507Y0107579D01*
X0171478Y0107508D01*
X0171447Y0107439D01*
X0171412Y0107372D01*
X0171373Y0107307D01*
X0171331Y0107243D01*
X0171286Y0107182D01*
X0171238Y0107123D01*
X0171187Y0107067D01*
X0171133Y0107013D01*
X0171077Y0106962D01*
X0171018Y0106914D01*
X0170957Y0106869D01*
X0170893Y0106827D01*
X0170828Y0106788D01*
X0170761Y0106753D01*
X0170692Y0106722D01*
X0170621Y0106693D01*
X0170549Y0106669D01*
X0170476Y0106648D01*
X0170402Y0106631D01*
X0170327Y0106617D01*
X0170252Y0106608D01*
X0170176Y0106602D01*
X0170100Y0106600D01*
X0170024Y0106602D01*
X0169948Y0106608D01*
X0169873Y0106617D01*
X0169798Y0106631D01*
X0169724Y0106648D01*
X0169651Y0106669D01*
X0169579Y0106693D01*
X0169508Y0106722D01*
X0169439Y0106753D01*
X0169372Y0106788D01*
X0169307Y0106827D01*
X0169243Y0106869D01*
X0169182Y0106914D01*
X0169123Y0106962D01*
X0169067Y0107013D01*
X0169013Y0107067D01*
X0168962Y0107123D01*
X0168914Y0107182D01*
X0168869Y0107243D01*
X0168827Y0107307D01*
X0168788Y0107372D01*
X0168753Y0107439D01*
X0168722Y0107508D01*
X0168693Y0107579D01*
X0168669Y0107651D01*
X0168648Y0107724D01*
X0168631Y0107798D01*
X0168617Y0107873D01*
X0168608Y0107948D01*
X0168602Y0108024D01*
X0168600Y0108100D01*
X0168600Y0121600D01*
X0148600Y0121600D01*
X0148600Y0108100D01*
X0148598Y0108024D01*
X0148592Y0107948D01*
X0148583Y0107873D01*
X0148569Y0107798D01*
X0148552Y0107724D01*
X0148531Y0107651D01*
X0148507Y0107579D01*
X0148478Y0107508D01*
X0148447Y0107439D01*
X0148412Y0107372D01*
X0148373Y0107307D01*
X0148331Y0107243D01*
X0148286Y0107182D01*
X0148238Y0107123D01*
X0148187Y0107067D01*
X0148133Y0107013D01*
X0148077Y0106962D01*
X0148018Y0106914D01*
X0147957Y0106869D01*
X0147893Y0106827D01*
X0147828Y0106788D01*
X0147761Y0106753D01*
X0147692Y0106722D01*
X0147621Y0106693D01*
X0147549Y0106669D01*
X0147476Y0106648D01*
X0147402Y0106631D01*
X0147327Y0106617D01*
X0147252Y0106608D01*
X0147176Y0106602D01*
X0147100Y0106600D01*
X0147024Y0106602D01*
X0146948Y0106608D01*
X0146873Y0106617D01*
X0146798Y0106631D01*
X0146724Y0106648D01*
X0146651Y0106669D01*
X0146579Y0106693D01*
X0146508Y0106722D01*
X0146439Y0106753D01*
X0146372Y0106788D01*
X0146307Y0106827D01*
X0146243Y0106869D01*
X0146182Y0106914D01*
X0146123Y0106962D01*
X0146067Y0107013D01*
X0146013Y0107067D01*
X0145962Y0107123D01*
X0145914Y0107182D01*
X0145869Y0107243D01*
X0145827Y0107307D01*
X0145788Y0107372D01*
X0145753Y0107439D01*
X0145722Y0107508D01*
X0145693Y0107579D01*
X0145669Y0107651D01*
X0145648Y0107724D01*
X0145631Y0107798D01*
X0145617Y0107873D01*
X0145608Y0107948D01*
X0145602Y0108024D01*
X0145600Y0108100D01*
X0145100Y0120100D01*
X0145098Y0120176D01*
X0145092Y0120252D01*
X0145083Y0120327D01*
X0145069Y0120402D01*
X0145052Y0120476D01*
X0145031Y0120549D01*
X0145007Y0120621D01*
X0144978Y0120692D01*
X0144947Y0120761D01*
X0144912Y0120828D01*
X0144873Y0120893D01*
X0144831Y0120957D01*
X0144786Y0121018D01*
X0144738Y0121077D01*
X0144687Y0121133D01*
X0144633Y0121187D01*
X0144577Y0121238D01*
X0144518Y0121286D01*
X0144457Y0121331D01*
X0144393Y0121373D01*
X0144328Y0121412D01*
X0144261Y0121447D01*
X0144192Y0121478D01*
X0144121Y0121507D01*
X0144049Y0121531D01*
X0143976Y0121552D01*
X0143902Y0121569D01*
X0143827Y0121583D01*
X0143752Y0121592D01*
X0143676Y0121598D01*
X0143600Y0121600D01*
X0143524Y0121598D01*
X0143448Y0121592D01*
X0143373Y0121583D01*
X0143298Y0121569D01*
X0143224Y0121552D01*
X0143151Y0121531D01*
X0143079Y0121507D01*
X0143008Y0121478D01*
X0142939Y0121447D01*
X0142872Y0121412D01*
X0142807Y0121373D01*
X0142743Y0121331D01*
X0142682Y0121286D01*
X0142623Y0121238D01*
X0142567Y0121187D01*
X0142513Y0121133D01*
X0142462Y0121077D01*
X0142414Y0121018D01*
X0142369Y0120957D01*
X0142327Y0120893D01*
X0142288Y0120828D01*
X0142253Y0120761D01*
X0142222Y0120692D01*
X0142193Y0120621D01*
X0142169Y0120549D01*
X0142148Y0120476D01*
X0142131Y0120402D01*
X0142117Y0120327D01*
X0142108Y0120252D01*
X0142102Y0120176D01*
X0142100Y0120100D01*
X0141600Y0108100D01*
X0141598Y0108024D01*
X0141592Y0107948D01*
X0141583Y0107873D01*
X0141569Y0107798D01*
X0141552Y0107724D01*
X0141531Y0107651D01*
X0141507Y0107579D01*
X0141478Y0107508D01*
X0141447Y0107439D01*
X0141412Y0107372D01*
X0141373Y0107307D01*
X0141331Y0107243D01*
X0141286Y0107182D01*
X0141238Y0107123D01*
X0141187Y0107067D01*
X0141133Y0107013D01*
X0141077Y0106962D01*
X0141018Y0106914D01*
X0140957Y0106869D01*
X0140893Y0106827D01*
X0140828Y0106788D01*
X0140761Y0106753D01*
X0140692Y0106722D01*
X0140621Y0106693D01*
X0140549Y0106669D01*
X0140476Y0106648D01*
X0140402Y0106631D01*
X0140327Y0106617D01*
X0140252Y0106608D01*
X0140176Y0106602D01*
X0140100Y0106600D01*
X0140024Y0106602D01*
X0139948Y0106608D01*
X0139873Y0106617D01*
X0139798Y0106631D01*
X0139724Y0106648D01*
X0139651Y0106669D01*
X0139579Y0106693D01*
X0139508Y0106722D01*
X0139439Y0106753D01*
X0139372Y0106788D01*
X0139307Y0106827D01*
X0139243Y0106869D01*
X0139182Y0106914D01*
X0139123Y0106962D01*
X0139067Y0107013D01*
X0139013Y0107067D01*
X0138962Y0107123D01*
X0138914Y0107182D01*
X0138869Y0107243D01*
X0138827Y0107307D01*
X0138788Y0107372D01*
X0138753Y0107439D01*
X0138722Y0107508D01*
X0138693Y0107579D01*
X0138669Y0107651D01*
X0138648Y0107724D01*
X0138631Y0107798D01*
X0138617Y0107873D01*
X0138608Y0107948D01*
X0138602Y0108024D01*
X0138600Y0108100D01*
X0138600Y0119100D01*
X0138598Y0119198D01*
X0138592Y0119296D01*
X0138583Y0119394D01*
X0138569Y0119491D01*
X0138552Y0119588D01*
X0138531Y0119684D01*
X0138506Y0119779D01*
X0138478Y0119873D01*
X0138445Y0119965D01*
X0138410Y0120057D01*
X0138370Y0120147D01*
X0138328Y0120235D01*
X0138281Y0120322D01*
X0138232Y0120406D01*
X0138179Y0120489D01*
X0138123Y0120569D01*
X0138063Y0120648D01*
X0138001Y0120724D01*
X0137936Y0120797D01*
X0137868Y0120868D01*
X0137797Y0120936D01*
X0137724Y0121001D01*
X0137648Y0121063D01*
X0137569Y0121123D01*
X0137489Y0121179D01*
X0137406Y0121232D01*
X0137322Y0121281D01*
X0137235Y0121328D01*
X0137147Y0121370D01*
X0137057Y0121410D01*
X0136965Y0121445D01*
X0136873Y0121478D01*
X0136779Y0121506D01*
X0136684Y0121531D01*
X0136588Y0121552D01*
X0136491Y0121569D01*
X0136394Y0121583D01*
X0136296Y0121592D01*
X0136198Y0121598D01*
X0136100Y0121600D01*
X0136002Y0121598D01*
X0135904Y0121592D01*
X0135806Y0121583D01*
X0135709Y0121569D01*
X0135612Y0121552D01*
X0135516Y0121531D01*
X0135421Y0121506D01*
X0135327Y0121478D01*
X0135235Y0121445D01*
X0135143Y0121410D01*
X0135053Y0121370D01*
X0134965Y0121328D01*
X0134878Y0121281D01*
X0134794Y0121232D01*
X0134711Y0121179D01*
X0134631Y0121123D01*
X0134552Y0121063D01*
X0134476Y0121001D01*
X0134403Y0120936D01*
X0134332Y0120868D01*
X0134264Y0120797D01*
X0134199Y0120724D01*
X0134137Y0120648D01*
X0134077Y0120569D01*
X0134021Y0120489D01*
X0133968Y0120406D01*
X0133919Y0120322D01*
X0133872Y0120235D01*
X0133830Y0120147D01*
X0133790Y0120057D01*
X0133755Y0119965D01*
X0133722Y0119873D01*
X0133694Y0119779D01*
X0133669Y0119684D01*
X0133648Y0119588D01*
X0133631Y0119491D01*
X0133617Y0119394D01*
X0133608Y0119296D01*
X0133602Y0119198D01*
X0133600Y0119100D01*
X0138600Y0097100D02*
X0139100Y0085600D01*
X0140100Y0084600D01*
X0177100Y0084600D01*
X0178100Y0085600D01*
X0178600Y0097100D01*
X0204100Y0093600D02*
X0204100Y0091100D01*
X0208600Y0091100D01*
X0213100Y0091100D01*
X0213100Y0093600D01*
X0204100Y0093600D01*
X0188600Y0094600D02*
X0188606Y0095091D01*
X0188624Y0095581D01*
X0188654Y0096071D01*
X0188696Y0096560D01*
X0188750Y0097048D01*
X0188816Y0097535D01*
X0188894Y0098019D01*
X0188984Y0098502D01*
X0189086Y0098982D01*
X0189199Y0099460D01*
X0189324Y0099934D01*
X0189461Y0100406D01*
X0189609Y0100874D01*
X0189769Y0101338D01*
X0189940Y0101798D01*
X0190122Y0102254D01*
X0190316Y0102705D01*
X0190520Y0103151D01*
X0190736Y0103592D01*
X0190962Y0104028D01*
X0191198Y0104458D01*
X0191445Y0104882D01*
X0191703Y0105300D01*
X0191971Y0105711D01*
X0192248Y0106116D01*
X0192536Y0106514D01*
X0192833Y0106905D01*
X0193140Y0107288D01*
X0193456Y0107663D01*
X0193781Y0108031D01*
X0194115Y0108391D01*
X0194458Y0108742D01*
X0194809Y0109085D01*
X0195169Y0109419D01*
X0195537Y0109744D01*
X0195912Y0110060D01*
X0196295Y0110367D01*
X0196686Y0110664D01*
X0197084Y0110952D01*
X0197489Y0111229D01*
X0197900Y0111497D01*
X0198318Y0111755D01*
X0198742Y0112002D01*
X0199172Y0112238D01*
X0199608Y0112464D01*
X0200049Y0112680D01*
X0200495Y0112884D01*
X0200946Y0113078D01*
X0201402Y0113260D01*
X0201862Y0113431D01*
X0202326Y0113591D01*
X0202794Y0113739D01*
X0203266Y0113876D01*
X0203740Y0114001D01*
X0204218Y0114114D01*
X0204698Y0114216D01*
X0205181Y0114306D01*
X0205665Y0114384D01*
X0206152Y0114450D01*
X0206640Y0114504D01*
X0207129Y0114546D01*
X0207619Y0114576D01*
X0208109Y0114594D01*
X0208600Y0114600D01*
X0209091Y0114594D01*
X0209581Y0114576D01*
X0210071Y0114546D01*
X0210560Y0114504D01*
X0211048Y0114450D01*
X0211535Y0114384D01*
X0212019Y0114306D01*
X0212502Y0114216D01*
X0212982Y0114114D01*
X0213460Y0114001D01*
X0213934Y0113876D01*
X0214406Y0113739D01*
X0214874Y0113591D01*
X0215338Y0113431D01*
X0215798Y0113260D01*
X0216254Y0113078D01*
X0216705Y0112884D01*
X0217151Y0112680D01*
X0217592Y0112464D01*
X0218028Y0112238D01*
X0218458Y0112002D01*
X0218882Y0111755D01*
X0219300Y0111497D01*
X0219711Y0111229D01*
X0220116Y0110952D01*
X0220514Y0110664D01*
X0220905Y0110367D01*
X0221288Y0110060D01*
X0221663Y0109744D01*
X0222031Y0109419D01*
X0222391Y0109085D01*
X0222742Y0108742D01*
X0223085Y0108391D01*
X0223419Y0108031D01*
X0223744Y0107663D01*
X0224060Y0107288D01*
X0224367Y0106905D01*
X0224664Y0106514D01*
X0224952Y0106116D01*
X0225229Y0105711D01*
X0225497Y0105300D01*
X0225755Y0104882D01*
X0226002Y0104458D01*
X0226238Y0104028D01*
X0226464Y0103592D01*
X0226680Y0103151D01*
X0226884Y0102705D01*
X0227078Y0102254D01*
X0227260Y0101798D01*
X0227431Y0101338D01*
X0227591Y0100874D01*
X0227739Y0100406D01*
X0227876Y0099934D01*
X0228001Y0099460D01*
X0228114Y0098982D01*
X0228216Y0098502D01*
X0228306Y0098019D01*
X0228384Y0097535D01*
X0228450Y0097048D01*
X0228504Y0096560D01*
X0228546Y0096071D01*
X0228576Y0095581D01*
X0228594Y0095091D01*
X0228600Y0094600D01*
X0228594Y0094109D01*
X0228576Y0093619D01*
X0228546Y0093129D01*
X0228504Y0092640D01*
X0228450Y0092152D01*
X0228384Y0091665D01*
X0228306Y0091181D01*
X0228216Y0090698D01*
X0228114Y0090218D01*
X0228001Y0089740D01*
X0227876Y0089266D01*
X0227739Y0088794D01*
X0227591Y0088326D01*
X0227431Y0087862D01*
X0227260Y0087402D01*
X0227078Y0086946D01*
X0226884Y0086495D01*
X0226680Y0086049D01*
X0226464Y0085608D01*
X0226238Y0085172D01*
X0226002Y0084742D01*
X0225755Y0084318D01*
X0225497Y0083900D01*
X0225229Y0083489D01*
X0224952Y0083084D01*
X0224664Y0082686D01*
X0224367Y0082295D01*
X0224060Y0081912D01*
X0223744Y0081537D01*
X0223419Y0081169D01*
X0223085Y0080809D01*
X0222742Y0080458D01*
X0222391Y0080115D01*
X0222031Y0079781D01*
X0221663Y0079456D01*
X0221288Y0079140D01*
X0220905Y0078833D01*
X0220514Y0078536D01*
X0220116Y0078248D01*
X0219711Y0077971D01*
X0219300Y0077703D01*
X0218882Y0077445D01*
X0218458Y0077198D01*
X0218028Y0076962D01*
X0217592Y0076736D01*
X0217151Y0076520D01*
X0216705Y0076316D01*
X0216254Y0076122D01*
X0215798Y0075940D01*
X0215338Y0075769D01*
X0214874Y0075609D01*
X0214406Y0075461D01*
X0213934Y0075324D01*
X0213460Y0075199D01*
X0212982Y0075086D01*
X0212502Y0074984D01*
X0212019Y0074894D01*
X0211535Y0074816D01*
X0211048Y0074750D01*
X0210560Y0074696D01*
X0210071Y0074654D01*
X0209581Y0074624D01*
X0209091Y0074606D01*
X0208600Y0074600D01*
X0208109Y0074606D01*
X0207619Y0074624D01*
X0207129Y0074654D01*
X0206640Y0074696D01*
X0206152Y0074750D01*
X0205665Y0074816D01*
X0205181Y0074894D01*
X0204698Y0074984D01*
X0204218Y0075086D01*
X0203740Y0075199D01*
X0203266Y0075324D01*
X0202794Y0075461D01*
X0202326Y0075609D01*
X0201862Y0075769D01*
X0201402Y0075940D01*
X0200946Y0076122D01*
X0200495Y0076316D01*
X0200049Y0076520D01*
X0199608Y0076736D01*
X0199172Y0076962D01*
X0198742Y0077198D01*
X0198318Y0077445D01*
X0197900Y0077703D01*
X0197489Y0077971D01*
X0197084Y0078248D01*
X0196686Y0078536D01*
X0196295Y0078833D01*
X0195912Y0079140D01*
X0195537Y0079456D01*
X0195169Y0079781D01*
X0194809Y0080115D01*
X0194458Y0080458D01*
X0194115Y0080809D01*
X0193781Y0081169D01*
X0193456Y0081537D01*
X0193140Y0081912D01*
X0192833Y0082295D01*
X0192536Y0082686D01*
X0192248Y0083084D01*
X0191971Y0083489D01*
X0191703Y0083900D01*
X0191445Y0084318D01*
X0191198Y0084742D01*
X0190962Y0085172D01*
X0190736Y0085608D01*
X0190520Y0086049D01*
X0190316Y0086495D01*
X0190122Y0086946D01*
X0189940Y0087402D01*
X0189769Y0087862D01*
X0189609Y0088326D01*
X0189461Y0088794D01*
X0189324Y0089266D01*
X0189199Y0089740D01*
X0189086Y0090218D01*
X0188984Y0090698D01*
X0188894Y0091181D01*
X0188816Y0091665D01*
X0188750Y0092152D01*
X0188696Y0092640D01*
X0188654Y0093129D01*
X0188624Y0093619D01*
X0188606Y0094109D01*
X0188600Y0094600D01*
X0208600Y0097100D02*
X0208600Y0099100D01*
X0208600Y0091100D02*
X0208600Y0090100D01*
X0203600Y0081100D02*
X0203600Y0078100D01*
X0202100Y0079600D02*
X0205100Y0079600D01*
X0221035Y0067238D02*
X0221035Y0062968D01*
X0218900Y0065103D02*
X0223170Y0065103D01*
X0196035Y0042238D02*
X0196035Y0037968D01*
X0193900Y0040103D02*
X0198170Y0040103D01*
D12*
X0204047Y0021404D02*
X0204047Y0016800D01*
X0202512Y0016800D02*
X0205582Y0016800D01*
X0207116Y0017567D02*
X0210186Y0020637D01*
X0210186Y0017567D01*
X0209418Y0016800D01*
X0207884Y0016800D01*
X0207116Y0017567D01*
X0207116Y0020637D01*
X0207884Y0021404D01*
X0209418Y0021404D01*
X0210186Y0020637D01*
X0211720Y0021404D02*
X0211720Y0016800D01*
X0211720Y0018335D02*
X0214022Y0019869D01*
X0211720Y0018335D02*
X0214022Y0016800D01*
X0204047Y0021404D02*
X0202512Y0019869D01*
X0196374Y0019869D02*
X0193305Y0016800D01*
X0193305Y0019869D02*
X0196374Y0016800D01*
X0187166Y0016800D02*
X0186399Y0017567D01*
X0186399Y0020637D01*
X0187166Y0019869D02*
X0185631Y0019869D01*
X0184097Y0019869D02*
X0184097Y0016800D01*
X0181795Y0016800D01*
X0181027Y0017567D01*
X0181027Y0019869D01*
X0179493Y0019102D02*
X0178726Y0019869D01*
X0177191Y0019869D01*
X0176424Y0019102D01*
X0176424Y0017567D01*
X0177191Y0016800D01*
X0178726Y0016800D01*
X0179493Y0017567D01*
X0179493Y0019102D01*
X0174889Y0018335D02*
X0174889Y0021404D01*
X0171820Y0021404D02*
X0171820Y0018335D01*
X0173354Y0016800D01*
X0174889Y0018335D01*
X0165681Y0018335D02*
X0162612Y0018335D01*
X0162612Y0019869D02*
X0165681Y0019869D01*
X0156473Y0019869D02*
X0155706Y0019102D01*
X0156473Y0018335D01*
X0156473Y0017567D01*
X0155706Y0016800D01*
X0154171Y0016800D01*
X0153404Y0017567D01*
X0151869Y0016800D02*
X0150335Y0018335D01*
X0151102Y0018335D02*
X0148800Y0018335D01*
X0148800Y0016800D02*
X0148800Y0021404D01*
X0151102Y0021404D01*
X0151869Y0020637D01*
X0151869Y0019102D01*
X0151102Y0018335D01*
X0153404Y0020637D02*
X0154171Y0021404D01*
X0155706Y0021404D01*
X0156473Y0020637D01*
X0156473Y0019869D01*
X0155706Y0019102D02*
X0154939Y0019102D01*
X0176567Y0065300D02*
X0178102Y0065300D01*
X0178869Y0066067D01*
X0180404Y0066067D02*
X0181171Y0065300D01*
X0182706Y0065300D01*
X0183473Y0066067D01*
X0183473Y0067602D01*
X0182706Y0068369D01*
X0181939Y0068369D01*
X0180404Y0067602D01*
X0180404Y0069904D01*
X0183473Y0069904D01*
X0186300Y0069904D02*
X0188602Y0069904D01*
X0189369Y0069137D01*
X0189369Y0067602D01*
X0188602Y0066835D01*
X0186300Y0066835D01*
X0187835Y0066835D02*
X0189369Y0065300D01*
X0190904Y0066067D02*
X0191671Y0065300D01*
X0193206Y0065300D01*
X0193973Y0066067D01*
X0193973Y0066835D01*
X0193206Y0067602D01*
X0192439Y0067602D01*
X0193206Y0067602D02*
X0193973Y0068369D01*
X0193973Y0069137D01*
X0193206Y0069904D01*
X0191671Y0069904D01*
X0190904Y0069137D01*
X0186300Y0069904D02*
X0186300Y0065300D01*
X0178869Y0069137D02*
X0178102Y0069904D01*
X0176567Y0069904D01*
X0175800Y0069137D01*
X0175800Y0066067D01*
X0176567Y0065300D01*
X0130335Y0102567D02*
X0130335Y0105637D01*
X0128800Y0104102D02*
X0131869Y0104102D01*
D13*
X0088600Y0049350D03*
D14*
X0208600Y0096850D03*
D15*
X0140900Y0087000D03*
X0103200Y0093900D03*
X0083200Y0093900D03*
X0063200Y0093900D03*
X0043200Y0093900D03*
D16*
X0158600Y0100100D03*
D17*
X0175850Y0097600D03*
X0141350Y0097600D03*
D18*
X0153600Y0097600D03*
X0163600Y0097600D03*
D19*
X0146060Y0124350D02*
X0143058Y0124350D01*
X0144559Y0124350D02*
X0144559Y0128854D01*
X0143058Y0127353D01*
X0141456Y0128854D02*
X0138454Y0125851D01*
X0139205Y0126602D02*
X0141456Y0124350D01*
X0138454Y0124350D02*
X0138454Y0128854D01*
X0136853Y0128854D02*
X0133850Y0125851D01*
X0134601Y0126602D02*
X0136853Y0124350D01*
X0133850Y0124350D02*
X0133850Y0128854D01*
X0152694Y0063099D02*
X0164506Y0063099D01*
X0155183Y0059669D02*
X0155185Y0059699D01*
X0155191Y0059728D01*
X0155201Y0059756D01*
X0155214Y0059783D01*
X0155231Y0059807D01*
X0155251Y0059829D01*
X0155274Y0059849D01*
X0155299Y0059865D01*
X0155326Y0059877D01*
X0155354Y0059886D01*
X0155384Y0059891D01*
X0155413Y0059892D01*
X0155443Y0059889D01*
X0155472Y0059882D01*
X0155500Y0059871D01*
X0155526Y0059857D01*
X0155550Y0059839D01*
X0155571Y0059819D01*
X0155590Y0059795D01*
X0155605Y0059770D01*
X0155617Y0059742D01*
X0155625Y0059713D01*
X0155629Y0059684D01*
X0155629Y0059654D01*
X0155625Y0059625D01*
X0155617Y0059596D01*
X0155605Y0059568D01*
X0155590Y0059543D01*
X0155571Y0059519D01*
X0155550Y0059499D01*
X0155526Y0059481D01*
X0155500Y0059467D01*
X0155472Y0059456D01*
X0155443Y0059449D01*
X0155413Y0059446D01*
X0155384Y0059447D01*
X0155354Y0059452D01*
X0155326Y0059461D01*
X0155299Y0059473D01*
X0155274Y0059489D01*
X0155251Y0059509D01*
X0155231Y0059531D01*
X0155214Y0059555D01*
X0155201Y0059582D01*
X0155191Y0059610D01*
X0155185Y0059639D01*
X0155183Y0059669D01*
X0152694Y0050101D02*
X0164506Y0050101D01*
D20*
X0200155Y0032183D02*
X0232045Y0032183D01*
X0232045Y0072183D01*
X0200155Y0072183D01*
X0200155Y0032183D01*
X0206463Y0032100D02*
X0206463Y0072100D01*
X0208659Y0062183D02*
X0208661Y0062368D01*
X0208668Y0062553D01*
X0208679Y0062738D01*
X0208695Y0062922D01*
X0208716Y0063106D01*
X0208741Y0063289D01*
X0208770Y0063472D01*
X0208804Y0063654D01*
X0208842Y0063835D01*
X0208885Y0064015D01*
X0208932Y0064194D01*
X0208984Y0064371D01*
X0209040Y0064548D01*
X0209100Y0064723D01*
X0209164Y0064896D01*
X0209233Y0065068D01*
X0209306Y0065238D01*
X0209383Y0065406D01*
X0209464Y0065573D01*
X0209549Y0065737D01*
X0209638Y0065899D01*
X0209732Y0066059D01*
X0209829Y0066216D01*
X0209930Y0066371D01*
X0210034Y0066524D01*
X0210143Y0066674D01*
X0210255Y0066821D01*
X0210370Y0066966D01*
X0210489Y0067107D01*
X0210612Y0067246D01*
X0210738Y0067381D01*
X0210867Y0067514D01*
X0211000Y0067643D01*
X0211135Y0067769D01*
X0211274Y0067892D01*
X0211415Y0068011D01*
X0211560Y0068126D01*
X0211707Y0068238D01*
X0211857Y0068347D01*
X0212010Y0068451D01*
X0212165Y0068552D01*
X0212322Y0068649D01*
X0212482Y0068743D01*
X0212644Y0068832D01*
X0212808Y0068917D01*
X0212975Y0068998D01*
X0213143Y0069075D01*
X0213313Y0069148D01*
X0213485Y0069217D01*
X0213658Y0069281D01*
X0213833Y0069341D01*
X0214010Y0069397D01*
X0214187Y0069449D01*
X0214366Y0069496D01*
X0214546Y0069539D01*
X0214727Y0069577D01*
X0214909Y0069611D01*
X0215092Y0069640D01*
X0215275Y0069665D01*
X0215459Y0069686D01*
X0215643Y0069702D01*
X0215828Y0069713D01*
X0216013Y0069720D01*
X0216198Y0069722D01*
X0216383Y0069720D01*
X0216568Y0069713D01*
X0216753Y0069702D01*
X0216937Y0069686D01*
X0217121Y0069665D01*
X0217304Y0069640D01*
X0217487Y0069611D01*
X0217669Y0069577D01*
X0217850Y0069539D01*
X0218030Y0069496D01*
X0218209Y0069449D01*
X0218386Y0069397D01*
X0218563Y0069341D01*
X0218738Y0069281D01*
X0218911Y0069217D01*
X0219083Y0069148D01*
X0219253Y0069075D01*
X0219421Y0068998D01*
X0219588Y0068917D01*
X0219752Y0068832D01*
X0219914Y0068743D01*
X0220074Y0068649D01*
X0220231Y0068552D01*
X0220386Y0068451D01*
X0220539Y0068347D01*
X0220689Y0068238D01*
X0220836Y0068126D01*
X0220981Y0068011D01*
X0221122Y0067892D01*
X0221261Y0067769D01*
X0221396Y0067643D01*
X0221529Y0067514D01*
X0221658Y0067381D01*
X0221784Y0067246D01*
X0221907Y0067107D01*
X0222026Y0066966D01*
X0222141Y0066821D01*
X0222253Y0066674D01*
X0222362Y0066524D01*
X0222466Y0066371D01*
X0222567Y0066216D01*
X0222664Y0066059D01*
X0222758Y0065899D01*
X0222847Y0065737D01*
X0222932Y0065573D01*
X0223013Y0065406D01*
X0223090Y0065238D01*
X0223163Y0065068D01*
X0223232Y0064896D01*
X0223296Y0064723D01*
X0223356Y0064548D01*
X0223412Y0064371D01*
X0223464Y0064194D01*
X0223511Y0064015D01*
X0223554Y0063835D01*
X0223592Y0063654D01*
X0223626Y0063472D01*
X0223655Y0063289D01*
X0223680Y0063106D01*
X0223701Y0062922D01*
X0223717Y0062738D01*
X0223728Y0062553D01*
X0223735Y0062368D01*
X0223737Y0062183D01*
X0223735Y0061998D01*
X0223728Y0061813D01*
X0223717Y0061628D01*
X0223701Y0061444D01*
X0223680Y0061260D01*
X0223655Y0061077D01*
X0223626Y0060894D01*
X0223592Y0060712D01*
X0223554Y0060531D01*
X0223511Y0060351D01*
X0223464Y0060172D01*
X0223412Y0059995D01*
X0223356Y0059818D01*
X0223296Y0059643D01*
X0223232Y0059470D01*
X0223163Y0059298D01*
X0223090Y0059128D01*
X0223013Y0058960D01*
X0222932Y0058793D01*
X0222847Y0058629D01*
X0222758Y0058467D01*
X0222664Y0058307D01*
X0222567Y0058150D01*
X0222466Y0057995D01*
X0222362Y0057842D01*
X0222253Y0057692D01*
X0222141Y0057545D01*
X0222026Y0057400D01*
X0221907Y0057259D01*
X0221784Y0057120D01*
X0221658Y0056985D01*
X0221529Y0056852D01*
X0221396Y0056723D01*
X0221261Y0056597D01*
X0221122Y0056474D01*
X0220981Y0056355D01*
X0220836Y0056240D01*
X0220689Y0056128D01*
X0220539Y0056019D01*
X0220386Y0055915D01*
X0220231Y0055814D01*
X0220074Y0055717D01*
X0219914Y0055623D01*
X0219752Y0055534D01*
X0219588Y0055449D01*
X0219421Y0055368D01*
X0219253Y0055291D01*
X0219083Y0055218D01*
X0218911Y0055149D01*
X0218738Y0055085D01*
X0218563Y0055025D01*
X0218386Y0054969D01*
X0218209Y0054917D01*
X0218030Y0054870D01*
X0217850Y0054827D01*
X0217669Y0054789D01*
X0217487Y0054755D01*
X0217304Y0054726D01*
X0217121Y0054701D01*
X0216937Y0054680D01*
X0216753Y0054664D01*
X0216568Y0054653D01*
X0216383Y0054646D01*
X0216198Y0054644D01*
X0216013Y0054646D01*
X0215828Y0054653D01*
X0215643Y0054664D01*
X0215459Y0054680D01*
X0215275Y0054701D01*
X0215092Y0054726D01*
X0214909Y0054755D01*
X0214727Y0054789D01*
X0214546Y0054827D01*
X0214366Y0054870D01*
X0214187Y0054917D01*
X0214010Y0054969D01*
X0213833Y0055025D01*
X0213658Y0055085D01*
X0213485Y0055149D01*
X0213313Y0055218D01*
X0213143Y0055291D01*
X0212975Y0055368D01*
X0212808Y0055449D01*
X0212644Y0055534D01*
X0212482Y0055623D01*
X0212322Y0055717D01*
X0212165Y0055814D01*
X0212010Y0055915D01*
X0211857Y0056019D01*
X0211707Y0056128D01*
X0211560Y0056240D01*
X0211415Y0056355D01*
X0211274Y0056474D01*
X0211135Y0056597D01*
X0211000Y0056723D01*
X0210867Y0056852D01*
X0210738Y0056985D01*
X0210612Y0057120D01*
X0210489Y0057259D01*
X0210370Y0057400D01*
X0210255Y0057545D01*
X0210143Y0057692D01*
X0210034Y0057842D01*
X0209930Y0057995D01*
X0209829Y0058150D01*
X0209732Y0058307D01*
X0209638Y0058467D01*
X0209549Y0058629D01*
X0209464Y0058793D01*
X0209383Y0058960D01*
X0209306Y0059128D01*
X0209233Y0059298D01*
X0209164Y0059470D01*
X0209100Y0059643D01*
X0209040Y0059818D01*
X0208984Y0059995D01*
X0208932Y0060172D01*
X0208885Y0060351D01*
X0208842Y0060531D01*
X0208804Y0060712D01*
X0208770Y0060894D01*
X0208741Y0061077D01*
X0208716Y0061260D01*
X0208695Y0061444D01*
X0208679Y0061628D01*
X0208668Y0061813D01*
X0208661Y0061998D01*
X0208659Y0062183D01*
X0208659Y0042183D02*
X0208661Y0042368D01*
X0208668Y0042553D01*
X0208679Y0042738D01*
X0208695Y0042922D01*
X0208716Y0043106D01*
X0208741Y0043289D01*
X0208770Y0043472D01*
X0208804Y0043654D01*
X0208842Y0043835D01*
X0208885Y0044015D01*
X0208932Y0044194D01*
X0208984Y0044371D01*
X0209040Y0044548D01*
X0209100Y0044723D01*
X0209164Y0044896D01*
X0209233Y0045068D01*
X0209306Y0045238D01*
X0209383Y0045406D01*
X0209464Y0045573D01*
X0209549Y0045737D01*
X0209638Y0045899D01*
X0209732Y0046059D01*
X0209829Y0046216D01*
X0209930Y0046371D01*
X0210034Y0046524D01*
X0210143Y0046674D01*
X0210255Y0046821D01*
X0210370Y0046966D01*
X0210489Y0047107D01*
X0210612Y0047246D01*
X0210738Y0047381D01*
X0210867Y0047514D01*
X0211000Y0047643D01*
X0211135Y0047769D01*
X0211274Y0047892D01*
X0211415Y0048011D01*
X0211560Y0048126D01*
X0211707Y0048238D01*
X0211857Y0048347D01*
X0212010Y0048451D01*
X0212165Y0048552D01*
X0212322Y0048649D01*
X0212482Y0048743D01*
X0212644Y0048832D01*
X0212808Y0048917D01*
X0212975Y0048998D01*
X0213143Y0049075D01*
X0213313Y0049148D01*
X0213485Y0049217D01*
X0213658Y0049281D01*
X0213833Y0049341D01*
X0214010Y0049397D01*
X0214187Y0049449D01*
X0214366Y0049496D01*
X0214546Y0049539D01*
X0214727Y0049577D01*
X0214909Y0049611D01*
X0215092Y0049640D01*
X0215275Y0049665D01*
X0215459Y0049686D01*
X0215643Y0049702D01*
X0215828Y0049713D01*
X0216013Y0049720D01*
X0216198Y0049722D01*
X0216383Y0049720D01*
X0216568Y0049713D01*
X0216753Y0049702D01*
X0216937Y0049686D01*
X0217121Y0049665D01*
X0217304Y0049640D01*
X0217487Y0049611D01*
X0217669Y0049577D01*
X0217850Y0049539D01*
X0218030Y0049496D01*
X0218209Y0049449D01*
X0218386Y0049397D01*
X0218563Y0049341D01*
X0218738Y0049281D01*
X0218911Y0049217D01*
X0219083Y0049148D01*
X0219253Y0049075D01*
X0219421Y0048998D01*
X0219588Y0048917D01*
X0219752Y0048832D01*
X0219914Y0048743D01*
X0220074Y0048649D01*
X0220231Y0048552D01*
X0220386Y0048451D01*
X0220539Y0048347D01*
X0220689Y0048238D01*
X0220836Y0048126D01*
X0220981Y0048011D01*
X0221122Y0047892D01*
X0221261Y0047769D01*
X0221396Y0047643D01*
X0221529Y0047514D01*
X0221658Y0047381D01*
X0221784Y0047246D01*
X0221907Y0047107D01*
X0222026Y0046966D01*
X0222141Y0046821D01*
X0222253Y0046674D01*
X0222362Y0046524D01*
X0222466Y0046371D01*
X0222567Y0046216D01*
X0222664Y0046059D01*
X0222758Y0045899D01*
X0222847Y0045737D01*
X0222932Y0045573D01*
X0223013Y0045406D01*
X0223090Y0045238D01*
X0223163Y0045068D01*
X0223232Y0044896D01*
X0223296Y0044723D01*
X0223356Y0044548D01*
X0223412Y0044371D01*
X0223464Y0044194D01*
X0223511Y0044015D01*
X0223554Y0043835D01*
X0223592Y0043654D01*
X0223626Y0043472D01*
X0223655Y0043289D01*
X0223680Y0043106D01*
X0223701Y0042922D01*
X0223717Y0042738D01*
X0223728Y0042553D01*
X0223735Y0042368D01*
X0223737Y0042183D01*
X0223735Y0041998D01*
X0223728Y0041813D01*
X0223717Y0041628D01*
X0223701Y0041444D01*
X0223680Y0041260D01*
X0223655Y0041077D01*
X0223626Y0040894D01*
X0223592Y0040712D01*
X0223554Y0040531D01*
X0223511Y0040351D01*
X0223464Y0040172D01*
X0223412Y0039995D01*
X0223356Y0039818D01*
X0223296Y0039643D01*
X0223232Y0039470D01*
X0223163Y0039298D01*
X0223090Y0039128D01*
X0223013Y0038960D01*
X0222932Y0038793D01*
X0222847Y0038629D01*
X0222758Y0038467D01*
X0222664Y0038307D01*
X0222567Y0038150D01*
X0222466Y0037995D01*
X0222362Y0037842D01*
X0222253Y0037692D01*
X0222141Y0037545D01*
X0222026Y0037400D01*
X0221907Y0037259D01*
X0221784Y0037120D01*
X0221658Y0036985D01*
X0221529Y0036852D01*
X0221396Y0036723D01*
X0221261Y0036597D01*
X0221122Y0036474D01*
X0220981Y0036355D01*
X0220836Y0036240D01*
X0220689Y0036128D01*
X0220539Y0036019D01*
X0220386Y0035915D01*
X0220231Y0035814D01*
X0220074Y0035717D01*
X0219914Y0035623D01*
X0219752Y0035534D01*
X0219588Y0035449D01*
X0219421Y0035368D01*
X0219253Y0035291D01*
X0219083Y0035218D01*
X0218911Y0035149D01*
X0218738Y0035085D01*
X0218563Y0035025D01*
X0218386Y0034969D01*
X0218209Y0034917D01*
X0218030Y0034870D01*
X0217850Y0034827D01*
X0217669Y0034789D01*
X0217487Y0034755D01*
X0217304Y0034726D01*
X0217121Y0034701D01*
X0216937Y0034680D01*
X0216753Y0034664D01*
X0216568Y0034653D01*
X0216383Y0034646D01*
X0216198Y0034644D01*
X0216013Y0034646D01*
X0215828Y0034653D01*
X0215643Y0034664D01*
X0215459Y0034680D01*
X0215275Y0034701D01*
X0215092Y0034726D01*
X0214909Y0034755D01*
X0214727Y0034789D01*
X0214546Y0034827D01*
X0214366Y0034870D01*
X0214187Y0034917D01*
X0214010Y0034969D01*
X0213833Y0035025D01*
X0213658Y0035085D01*
X0213485Y0035149D01*
X0213313Y0035218D01*
X0213143Y0035291D01*
X0212975Y0035368D01*
X0212808Y0035449D01*
X0212644Y0035534D01*
X0212482Y0035623D01*
X0212322Y0035717D01*
X0212165Y0035814D01*
X0212010Y0035915D01*
X0211857Y0036019D01*
X0211707Y0036128D01*
X0211560Y0036240D01*
X0211415Y0036355D01*
X0211274Y0036474D01*
X0211135Y0036597D01*
X0211000Y0036723D01*
X0210867Y0036852D01*
X0210738Y0036985D01*
X0210612Y0037120D01*
X0210489Y0037259D01*
X0210370Y0037400D01*
X0210255Y0037545D01*
X0210143Y0037692D01*
X0210034Y0037842D01*
X0209930Y0037995D01*
X0209829Y0038150D01*
X0209732Y0038307D01*
X0209638Y0038467D01*
X0209549Y0038629D01*
X0209464Y0038793D01*
X0209383Y0038960D01*
X0209306Y0039128D01*
X0209233Y0039298D01*
X0209164Y0039470D01*
X0209100Y0039643D01*
X0209040Y0039818D01*
X0208984Y0039995D01*
X0208932Y0040172D01*
X0208885Y0040351D01*
X0208842Y0040531D01*
X0208804Y0040712D01*
X0208770Y0040894D01*
X0208741Y0041077D01*
X0208716Y0041260D01*
X0208695Y0041444D01*
X0208679Y0041628D01*
X0208668Y0041813D01*
X0208661Y0041998D01*
X0208659Y0042183D01*
X0051045Y0032517D02*
X0019155Y0032517D01*
X0019155Y0072517D01*
X0051045Y0072517D01*
X0051045Y0032517D01*
X0044737Y0032600D02*
X0044737Y0072600D01*
X0027463Y0062517D02*
X0027465Y0062702D01*
X0027472Y0062887D01*
X0027483Y0063072D01*
X0027499Y0063256D01*
X0027520Y0063440D01*
X0027545Y0063623D01*
X0027574Y0063806D01*
X0027608Y0063988D01*
X0027646Y0064169D01*
X0027689Y0064349D01*
X0027736Y0064528D01*
X0027788Y0064705D01*
X0027844Y0064882D01*
X0027904Y0065057D01*
X0027968Y0065230D01*
X0028037Y0065402D01*
X0028110Y0065572D01*
X0028187Y0065740D01*
X0028268Y0065907D01*
X0028353Y0066071D01*
X0028442Y0066233D01*
X0028536Y0066393D01*
X0028633Y0066550D01*
X0028734Y0066705D01*
X0028838Y0066858D01*
X0028947Y0067008D01*
X0029059Y0067155D01*
X0029174Y0067300D01*
X0029293Y0067441D01*
X0029416Y0067580D01*
X0029542Y0067715D01*
X0029671Y0067848D01*
X0029804Y0067977D01*
X0029939Y0068103D01*
X0030078Y0068226D01*
X0030219Y0068345D01*
X0030364Y0068460D01*
X0030511Y0068572D01*
X0030661Y0068681D01*
X0030814Y0068785D01*
X0030969Y0068886D01*
X0031126Y0068983D01*
X0031286Y0069077D01*
X0031448Y0069166D01*
X0031612Y0069251D01*
X0031779Y0069332D01*
X0031947Y0069409D01*
X0032117Y0069482D01*
X0032289Y0069551D01*
X0032462Y0069615D01*
X0032637Y0069675D01*
X0032814Y0069731D01*
X0032991Y0069783D01*
X0033170Y0069830D01*
X0033350Y0069873D01*
X0033531Y0069911D01*
X0033713Y0069945D01*
X0033896Y0069974D01*
X0034079Y0069999D01*
X0034263Y0070020D01*
X0034447Y0070036D01*
X0034632Y0070047D01*
X0034817Y0070054D01*
X0035002Y0070056D01*
X0035187Y0070054D01*
X0035372Y0070047D01*
X0035557Y0070036D01*
X0035741Y0070020D01*
X0035925Y0069999D01*
X0036108Y0069974D01*
X0036291Y0069945D01*
X0036473Y0069911D01*
X0036654Y0069873D01*
X0036834Y0069830D01*
X0037013Y0069783D01*
X0037190Y0069731D01*
X0037367Y0069675D01*
X0037542Y0069615D01*
X0037715Y0069551D01*
X0037887Y0069482D01*
X0038057Y0069409D01*
X0038225Y0069332D01*
X0038392Y0069251D01*
X0038556Y0069166D01*
X0038718Y0069077D01*
X0038878Y0068983D01*
X0039035Y0068886D01*
X0039190Y0068785D01*
X0039343Y0068681D01*
X0039493Y0068572D01*
X0039640Y0068460D01*
X0039785Y0068345D01*
X0039926Y0068226D01*
X0040065Y0068103D01*
X0040200Y0067977D01*
X0040333Y0067848D01*
X0040462Y0067715D01*
X0040588Y0067580D01*
X0040711Y0067441D01*
X0040830Y0067300D01*
X0040945Y0067155D01*
X0041057Y0067008D01*
X0041166Y0066858D01*
X0041270Y0066705D01*
X0041371Y0066550D01*
X0041468Y0066393D01*
X0041562Y0066233D01*
X0041651Y0066071D01*
X0041736Y0065907D01*
X0041817Y0065740D01*
X0041894Y0065572D01*
X0041967Y0065402D01*
X0042036Y0065230D01*
X0042100Y0065057D01*
X0042160Y0064882D01*
X0042216Y0064705D01*
X0042268Y0064528D01*
X0042315Y0064349D01*
X0042358Y0064169D01*
X0042396Y0063988D01*
X0042430Y0063806D01*
X0042459Y0063623D01*
X0042484Y0063440D01*
X0042505Y0063256D01*
X0042521Y0063072D01*
X0042532Y0062887D01*
X0042539Y0062702D01*
X0042541Y0062517D01*
X0042539Y0062332D01*
X0042532Y0062147D01*
X0042521Y0061962D01*
X0042505Y0061778D01*
X0042484Y0061594D01*
X0042459Y0061411D01*
X0042430Y0061228D01*
X0042396Y0061046D01*
X0042358Y0060865D01*
X0042315Y0060685D01*
X0042268Y0060506D01*
X0042216Y0060329D01*
X0042160Y0060152D01*
X0042100Y0059977D01*
X0042036Y0059804D01*
X0041967Y0059632D01*
X0041894Y0059462D01*
X0041817Y0059294D01*
X0041736Y0059127D01*
X0041651Y0058963D01*
X0041562Y0058801D01*
X0041468Y0058641D01*
X0041371Y0058484D01*
X0041270Y0058329D01*
X0041166Y0058176D01*
X0041057Y0058026D01*
X0040945Y0057879D01*
X0040830Y0057734D01*
X0040711Y0057593D01*
X0040588Y0057454D01*
X0040462Y0057319D01*
X0040333Y0057186D01*
X0040200Y0057057D01*
X0040065Y0056931D01*
X0039926Y0056808D01*
X0039785Y0056689D01*
X0039640Y0056574D01*
X0039493Y0056462D01*
X0039343Y0056353D01*
X0039190Y0056249D01*
X0039035Y0056148D01*
X0038878Y0056051D01*
X0038718Y0055957D01*
X0038556Y0055868D01*
X0038392Y0055783D01*
X0038225Y0055702D01*
X0038057Y0055625D01*
X0037887Y0055552D01*
X0037715Y0055483D01*
X0037542Y0055419D01*
X0037367Y0055359D01*
X0037190Y0055303D01*
X0037013Y0055251D01*
X0036834Y0055204D01*
X0036654Y0055161D01*
X0036473Y0055123D01*
X0036291Y0055089D01*
X0036108Y0055060D01*
X0035925Y0055035D01*
X0035741Y0055014D01*
X0035557Y0054998D01*
X0035372Y0054987D01*
X0035187Y0054980D01*
X0035002Y0054978D01*
X0034817Y0054980D01*
X0034632Y0054987D01*
X0034447Y0054998D01*
X0034263Y0055014D01*
X0034079Y0055035D01*
X0033896Y0055060D01*
X0033713Y0055089D01*
X0033531Y0055123D01*
X0033350Y0055161D01*
X0033170Y0055204D01*
X0032991Y0055251D01*
X0032814Y0055303D01*
X0032637Y0055359D01*
X0032462Y0055419D01*
X0032289Y0055483D01*
X0032117Y0055552D01*
X0031947Y0055625D01*
X0031779Y0055702D01*
X0031612Y0055783D01*
X0031448Y0055868D01*
X0031286Y0055957D01*
X0031126Y0056051D01*
X0030969Y0056148D01*
X0030814Y0056249D01*
X0030661Y0056353D01*
X0030511Y0056462D01*
X0030364Y0056574D01*
X0030219Y0056689D01*
X0030078Y0056808D01*
X0029939Y0056931D01*
X0029804Y0057057D01*
X0029671Y0057186D01*
X0029542Y0057319D01*
X0029416Y0057454D01*
X0029293Y0057593D01*
X0029174Y0057734D01*
X0029059Y0057879D01*
X0028947Y0058026D01*
X0028838Y0058176D01*
X0028734Y0058329D01*
X0028633Y0058484D01*
X0028536Y0058641D01*
X0028442Y0058801D01*
X0028353Y0058963D01*
X0028268Y0059127D01*
X0028187Y0059294D01*
X0028110Y0059462D01*
X0028037Y0059632D01*
X0027968Y0059804D01*
X0027904Y0059977D01*
X0027844Y0060152D01*
X0027788Y0060329D01*
X0027736Y0060506D01*
X0027689Y0060685D01*
X0027646Y0060865D01*
X0027608Y0061046D01*
X0027574Y0061228D01*
X0027545Y0061411D01*
X0027520Y0061594D01*
X0027499Y0061778D01*
X0027483Y0061962D01*
X0027472Y0062147D01*
X0027465Y0062332D01*
X0027463Y0062517D01*
X0027463Y0042517D02*
X0027465Y0042702D01*
X0027472Y0042887D01*
X0027483Y0043072D01*
X0027499Y0043256D01*
X0027520Y0043440D01*
X0027545Y0043623D01*
X0027574Y0043806D01*
X0027608Y0043988D01*
X0027646Y0044169D01*
X0027689Y0044349D01*
X0027736Y0044528D01*
X0027788Y0044705D01*
X0027844Y0044882D01*
X0027904Y0045057D01*
X0027968Y0045230D01*
X0028037Y0045402D01*
X0028110Y0045572D01*
X0028187Y0045740D01*
X0028268Y0045907D01*
X0028353Y0046071D01*
X0028442Y0046233D01*
X0028536Y0046393D01*
X0028633Y0046550D01*
X0028734Y0046705D01*
X0028838Y0046858D01*
X0028947Y0047008D01*
X0029059Y0047155D01*
X0029174Y0047300D01*
X0029293Y0047441D01*
X0029416Y0047580D01*
X0029542Y0047715D01*
X0029671Y0047848D01*
X0029804Y0047977D01*
X0029939Y0048103D01*
X0030078Y0048226D01*
X0030219Y0048345D01*
X0030364Y0048460D01*
X0030511Y0048572D01*
X0030661Y0048681D01*
X0030814Y0048785D01*
X0030969Y0048886D01*
X0031126Y0048983D01*
X0031286Y0049077D01*
X0031448Y0049166D01*
X0031612Y0049251D01*
X0031779Y0049332D01*
X0031947Y0049409D01*
X0032117Y0049482D01*
X0032289Y0049551D01*
X0032462Y0049615D01*
X0032637Y0049675D01*
X0032814Y0049731D01*
X0032991Y0049783D01*
X0033170Y0049830D01*
X0033350Y0049873D01*
X0033531Y0049911D01*
X0033713Y0049945D01*
X0033896Y0049974D01*
X0034079Y0049999D01*
X0034263Y0050020D01*
X0034447Y0050036D01*
X0034632Y0050047D01*
X0034817Y0050054D01*
X0035002Y0050056D01*
X0035187Y0050054D01*
X0035372Y0050047D01*
X0035557Y0050036D01*
X0035741Y0050020D01*
X0035925Y0049999D01*
X0036108Y0049974D01*
X0036291Y0049945D01*
X0036473Y0049911D01*
X0036654Y0049873D01*
X0036834Y0049830D01*
X0037013Y0049783D01*
X0037190Y0049731D01*
X0037367Y0049675D01*
X0037542Y0049615D01*
X0037715Y0049551D01*
X0037887Y0049482D01*
X0038057Y0049409D01*
X0038225Y0049332D01*
X0038392Y0049251D01*
X0038556Y0049166D01*
X0038718Y0049077D01*
X0038878Y0048983D01*
X0039035Y0048886D01*
X0039190Y0048785D01*
X0039343Y0048681D01*
X0039493Y0048572D01*
X0039640Y0048460D01*
X0039785Y0048345D01*
X0039926Y0048226D01*
X0040065Y0048103D01*
X0040200Y0047977D01*
X0040333Y0047848D01*
X0040462Y0047715D01*
X0040588Y0047580D01*
X0040711Y0047441D01*
X0040830Y0047300D01*
X0040945Y0047155D01*
X0041057Y0047008D01*
X0041166Y0046858D01*
X0041270Y0046705D01*
X0041371Y0046550D01*
X0041468Y0046393D01*
X0041562Y0046233D01*
X0041651Y0046071D01*
X0041736Y0045907D01*
X0041817Y0045740D01*
X0041894Y0045572D01*
X0041967Y0045402D01*
X0042036Y0045230D01*
X0042100Y0045057D01*
X0042160Y0044882D01*
X0042216Y0044705D01*
X0042268Y0044528D01*
X0042315Y0044349D01*
X0042358Y0044169D01*
X0042396Y0043988D01*
X0042430Y0043806D01*
X0042459Y0043623D01*
X0042484Y0043440D01*
X0042505Y0043256D01*
X0042521Y0043072D01*
X0042532Y0042887D01*
X0042539Y0042702D01*
X0042541Y0042517D01*
X0042539Y0042332D01*
X0042532Y0042147D01*
X0042521Y0041962D01*
X0042505Y0041778D01*
X0042484Y0041594D01*
X0042459Y0041411D01*
X0042430Y0041228D01*
X0042396Y0041046D01*
X0042358Y0040865D01*
X0042315Y0040685D01*
X0042268Y0040506D01*
X0042216Y0040329D01*
X0042160Y0040152D01*
X0042100Y0039977D01*
X0042036Y0039804D01*
X0041967Y0039632D01*
X0041894Y0039462D01*
X0041817Y0039294D01*
X0041736Y0039127D01*
X0041651Y0038963D01*
X0041562Y0038801D01*
X0041468Y0038641D01*
X0041371Y0038484D01*
X0041270Y0038329D01*
X0041166Y0038176D01*
X0041057Y0038026D01*
X0040945Y0037879D01*
X0040830Y0037734D01*
X0040711Y0037593D01*
X0040588Y0037454D01*
X0040462Y0037319D01*
X0040333Y0037186D01*
X0040200Y0037057D01*
X0040065Y0036931D01*
X0039926Y0036808D01*
X0039785Y0036689D01*
X0039640Y0036574D01*
X0039493Y0036462D01*
X0039343Y0036353D01*
X0039190Y0036249D01*
X0039035Y0036148D01*
X0038878Y0036051D01*
X0038718Y0035957D01*
X0038556Y0035868D01*
X0038392Y0035783D01*
X0038225Y0035702D01*
X0038057Y0035625D01*
X0037887Y0035552D01*
X0037715Y0035483D01*
X0037542Y0035419D01*
X0037367Y0035359D01*
X0037190Y0035303D01*
X0037013Y0035251D01*
X0036834Y0035204D01*
X0036654Y0035161D01*
X0036473Y0035123D01*
X0036291Y0035089D01*
X0036108Y0035060D01*
X0035925Y0035035D01*
X0035741Y0035014D01*
X0035557Y0034998D01*
X0035372Y0034987D01*
X0035187Y0034980D01*
X0035002Y0034978D01*
X0034817Y0034980D01*
X0034632Y0034987D01*
X0034447Y0034998D01*
X0034263Y0035014D01*
X0034079Y0035035D01*
X0033896Y0035060D01*
X0033713Y0035089D01*
X0033531Y0035123D01*
X0033350Y0035161D01*
X0033170Y0035204D01*
X0032991Y0035251D01*
X0032814Y0035303D01*
X0032637Y0035359D01*
X0032462Y0035419D01*
X0032289Y0035483D01*
X0032117Y0035552D01*
X0031947Y0035625D01*
X0031779Y0035702D01*
X0031612Y0035783D01*
X0031448Y0035868D01*
X0031286Y0035957D01*
X0031126Y0036051D01*
X0030969Y0036148D01*
X0030814Y0036249D01*
X0030661Y0036353D01*
X0030511Y0036462D01*
X0030364Y0036574D01*
X0030219Y0036689D01*
X0030078Y0036808D01*
X0029939Y0036931D01*
X0029804Y0037057D01*
X0029671Y0037186D01*
X0029542Y0037319D01*
X0029416Y0037454D01*
X0029293Y0037593D01*
X0029174Y0037734D01*
X0029059Y0037879D01*
X0028947Y0038026D01*
X0028838Y0038176D01*
X0028734Y0038329D01*
X0028633Y0038484D01*
X0028536Y0038641D01*
X0028442Y0038801D01*
X0028353Y0038963D01*
X0028268Y0039127D01*
X0028187Y0039294D01*
X0028110Y0039462D01*
X0028037Y0039632D01*
X0027968Y0039804D01*
X0027904Y0039977D01*
X0027844Y0040152D01*
X0027788Y0040329D01*
X0027736Y0040506D01*
X0027689Y0040685D01*
X0027646Y0040865D01*
X0027608Y0041046D01*
X0027574Y0041228D01*
X0027545Y0041411D01*
X0027520Y0041594D01*
X0027499Y0041778D01*
X0027483Y0041962D01*
X0027472Y0042147D01*
X0027465Y0042332D01*
X0027463Y0042517D01*
D21*
X0030100Y0111600D03*
X0050100Y0111600D03*
X0070100Y0111600D03*
X0090100Y0111600D03*
D22*
X0092600Y0094350D03*
X0072600Y0094350D03*
X0052600Y0094350D03*
X0032600Y0094350D03*
X0032600Y0128850D03*
X0052600Y0128850D03*
X0072600Y0128850D03*
X0092600Y0128850D03*
D23*
X0092600Y0111600D03*
X0072600Y0111600D03*
X0052600Y0111600D03*
X0032600Y0111600D03*
M02*
