G75*
%MOIN*%
%OFA0B0*%
%FSLAX25Y25*%
%IPPOS*%
%LPD*%
%AMOC8*
5,1,8,0,0,1.08239X$1,22.5*
%
%ADD10R,0.10630X0.06299*%
%ADD11OC8,0.15000*%
%ADD12C,0.15000*%
%ADD13C,0.10000*%
%ADD14R,0.06299X0.10630*%
%ADD15R,0.06299X0.07087*%
%ADD16C,0.06000*%
%ADD17R,0.07098X0.06299*%
%ADD18R,0.06299X0.07098*%
%ADD19R,0.03500X0.01200*%
%ADD20R,0.06600X0.07400*%
%ADD21C,0.05150*%
%ADD22C,0.01200*%
%ADD23C,0.04356*%
%ADD24C,0.03200*%
%ADD25C,0.01600*%
%ADD26C,0.05000*%
%ADD27C,0.04000*%
%ADD28C,0.16598*%
D10*
X0124100Y0104088D03*
X0124100Y0115112D03*
X0179100Y0059612D03*
X0179100Y0048588D03*
D11*
X0088600Y0036600D03*
D12*
X0088600Y0066600D03*
X0035002Y0062517D03*
X0035002Y0042517D03*
X0216198Y0042183D03*
X0216198Y0062183D03*
D13*
X0208600Y0084600D03*
X0208600Y0104600D03*
D14*
X0134112Y0081600D03*
X0123088Y0081600D03*
D15*
X0143088Y0071600D03*
X0154112Y0071600D03*
X0163088Y0071600D03*
X0174112Y0071600D03*
D16*
X0168600Y0088600D02*
X0168600Y0094600D01*
X0158600Y0094600D02*
X0158600Y0088600D01*
X0148600Y0088600D02*
X0148600Y0094600D01*
X0101600Y0101600D02*
X0095600Y0101600D01*
X0081600Y0101600D02*
X0075600Y0101600D01*
X0061600Y0101600D02*
X0055600Y0101600D01*
X0041600Y0101600D02*
X0035600Y0101600D01*
X0035600Y0121600D02*
X0041600Y0121600D01*
X0055600Y0121600D02*
X0061600Y0121600D01*
X0075600Y0121600D02*
X0081600Y0121600D01*
X0095600Y0121600D02*
X0101600Y0121600D01*
D17*
X0138600Y0062198D03*
X0138600Y0051002D03*
X0138600Y0042198D03*
X0138600Y0031002D03*
X0189600Y0048502D03*
X0189600Y0059698D03*
D18*
X0159198Y0041600D03*
X0148002Y0041600D03*
X0134198Y0071600D03*
X0123002Y0071600D03*
D19*
X0150295Y0060537D03*
X0150295Y0058569D03*
X0150295Y0056600D03*
X0150295Y0054631D03*
X0150295Y0052663D03*
X0166905Y0052663D03*
X0166905Y0054631D03*
X0166905Y0056600D03*
X0166905Y0058569D03*
X0166905Y0060537D03*
D20*
X0158600Y0056600D03*
D21*
X0158600Y0056600D03*
D22*
X0008200Y0011200D02*
X0008200Y0135701D01*
X0228921Y0135701D01*
X0228921Y0095480D01*
X0202357Y0095889D01*
X0202346Y0095900D01*
X0201614Y0095900D01*
X0200882Y0095911D01*
X0200871Y0095900D01*
X0200854Y0095900D01*
X0200337Y0095382D01*
X0199812Y0094873D01*
X0199811Y0094857D01*
X0199800Y0094846D01*
X0199800Y0094114D01*
X0199789Y0093382D01*
X0199800Y0093371D01*
X0199800Y0085400D01*
X0173446Y0085400D01*
X0173900Y0085854D01*
X0173900Y0106846D01*
X0172846Y0107900D01*
X0130450Y0107900D01*
X0129912Y0108438D01*
X0118288Y0108438D01*
X0117585Y0107735D01*
X0117585Y0107631D01*
X0116800Y0106846D01*
X0116800Y0088400D01*
X0086392Y0088400D01*
X0085962Y0088543D01*
X0085675Y0088400D01*
X0061800Y0088400D01*
X0061800Y0097400D01*
X0062435Y0097400D01*
X0063979Y0098039D01*
X0065161Y0099221D01*
X0065800Y0100765D01*
X0065800Y0102435D01*
X0065161Y0103979D01*
X0063979Y0105161D01*
X0062435Y0105800D01*
X0054765Y0105800D01*
X0053221Y0105161D01*
X0052039Y0103979D01*
X0051800Y0103401D01*
X0051800Y0105275D01*
X0054925Y0108400D01*
X0092275Y0108400D01*
X0094875Y0105800D01*
X0094765Y0105800D01*
X0093221Y0105161D01*
X0092039Y0103979D01*
X0091400Y0102435D01*
X0091400Y0100765D01*
X0092039Y0099221D01*
X0093221Y0098039D01*
X0094765Y0097400D01*
X0102435Y0097400D01*
X0103979Y0098039D01*
X0105161Y0099221D01*
X0105800Y0100765D01*
X0105800Y0102435D01*
X0105161Y0103979D01*
X0103979Y0105161D01*
X0102435Y0105800D01*
X0101800Y0105800D01*
X0101800Y0107237D01*
X0101313Y0108413D01*
X0096313Y0113413D01*
X0095413Y0114313D01*
X0094237Y0114800D01*
X0061318Y0114800D01*
X0061800Y0115963D01*
X0061800Y0117400D01*
X0062435Y0117400D01*
X0063979Y0118039D01*
X0065161Y0119221D01*
X0065800Y0120765D01*
X0065800Y0122435D01*
X0065161Y0123979D01*
X0063979Y0125161D01*
X0062435Y0125800D01*
X0054765Y0125800D01*
X0053221Y0125161D01*
X0052039Y0123979D01*
X0051400Y0122435D01*
X0051400Y0120765D01*
X0052039Y0119221D01*
X0053221Y0118039D01*
X0054765Y0117400D01*
X0054875Y0117400D01*
X0051787Y0114313D01*
X0045887Y0108413D01*
X0045400Y0107237D01*
X0045400Y0103401D01*
X0045161Y0103979D01*
X0043979Y0105161D01*
X0042435Y0105800D01*
X0034765Y0105800D01*
X0033221Y0105161D01*
X0032039Y0103979D01*
X0031400Y0102435D01*
X0031400Y0100765D01*
X0032039Y0099221D01*
X0033221Y0098039D01*
X0034765Y0097400D01*
X0042435Y0097400D01*
X0043979Y0098039D01*
X0045161Y0099221D01*
X0045400Y0099799D01*
X0045400Y0058215D01*
X0035917Y0051217D01*
X0033271Y0051217D01*
X0030073Y0049892D01*
X0027626Y0047445D01*
X0026302Y0044247D01*
X0026302Y0042655D01*
X0026258Y0042365D01*
X0026302Y0042188D01*
X0026302Y0040786D01*
X0027626Y0037589D01*
X0030073Y0035141D01*
X0033271Y0033817D01*
X0036732Y0033817D01*
X0039930Y0035141D01*
X0042377Y0037589D01*
X0043702Y0040786D01*
X0043702Y0044247D01*
X0042377Y0047445D01*
X0042040Y0047782D01*
X0050186Y0053793D01*
X0050413Y0053887D01*
X0050693Y0054168D01*
X0051012Y0054403D01*
X0051139Y0054614D01*
X0051313Y0054787D01*
X0051465Y0055154D01*
X0051669Y0055494D01*
X0051706Y0055736D01*
X0051800Y0055963D01*
X0051800Y0056360D01*
X0051859Y0056752D01*
X0051800Y0056991D01*
X0051800Y0099799D01*
X0052039Y0099221D01*
X0053221Y0098039D01*
X0054765Y0097400D01*
X0055400Y0097400D01*
X0055400Y0070963D01*
X0055887Y0069787D01*
X0056800Y0068875D01*
X0056800Y0050854D01*
X0057854Y0049800D01*
X0099346Y0049800D01*
X0100400Y0050854D01*
X0100400Y0056800D01*
X0130800Y0056800D01*
X0130800Y0038854D01*
X0131854Y0037800D01*
X0143300Y0037800D01*
X0143300Y0037354D01*
X0144354Y0036300D01*
X0153846Y0036300D01*
X0154900Y0037354D01*
X0154900Y0053346D01*
X0153846Y0054400D01*
X0153245Y0054400D01*
X0153245Y0057699D01*
X0153400Y0057854D01*
X0153400Y0064846D01*
X0150396Y0067850D01*
X0150400Y0067854D01*
X0150400Y0084300D01*
X0152844Y0084300D01*
X0152847Y0084250D01*
X0153365Y0083790D01*
X0153854Y0083300D01*
X0153916Y0083300D01*
X0157865Y0079790D01*
X0158354Y0079300D01*
X0158416Y0079300D01*
X0158461Y0079259D01*
X0159153Y0079300D01*
X0162854Y0079300D01*
X0166300Y0075854D01*
X0166300Y0068346D01*
X0164854Y0066900D01*
X0163800Y0065846D01*
X0163800Y0058354D01*
X0163955Y0058199D01*
X0163955Y0057471D01*
X0164658Y0056769D01*
X0169152Y0056769D01*
X0169855Y0057471D01*
X0169855Y0057809D01*
X0177283Y0064800D01*
X0199800Y0064800D01*
X0199800Y0052854D01*
X0200854Y0051800D01*
X0228921Y0051800D01*
X0228921Y0011200D01*
X0008200Y0011200D01*
X0008200Y0011600D02*
X0228921Y0011600D01*
X0228921Y0012799D02*
X0222174Y0012799D01*
X0220490Y0012101D02*
X0223981Y0013547D01*
X0226653Y0016219D01*
X0228099Y0019710D01*
X0228099Y0023490D01*
X0226653Y0026981D01*
X0223981Y0029653D01*
X0220490Y0031099D01*
X0216710Y0031099D01*
X0213219Y0029653D01*
X0210547Y0026981D01*
X0209101Y0023490D01*
X0209101Y0019710D01*
X0210547Y0016219D01*
X0213219Y0013547D01*
X0216710Y0012101D01*
X0220490Y0012101D01*
X0224431Y0013997D02*
X0228921Y0013997D01*
X0228921Y0015196D02*
X0225629Y0015196D01*
X0226725Y0016394D02*
X0228921Y0016394D01*
X0228921Y0017593D02*
X0227222Y0017593D01*
X0227718Y0018791D02*
X0228921Y0018791D01*
X0228921Y0019990D02*
X0228099Y0019990D01*
X0228099Y0021188D02*
X0228921Y0021188D01*
X0228921Y0022387D02*
X0228099Y0022387D01*
X0228060Y0023585D02*
X0228921Y0023585D01*
X0228921Y0024784D02*
X0227563Y0024784D01*
X0227067Y0025982D02*
X0228921Y0025982D01*
X0228921Y0027181D02*
X0226453Y0027181D01*
X0225255Y0028379D02*
X0228921Y0028379D01*
X0228921Y0029578D02*
X0224056Y0029578D01*
X0221269Y0030776D02*
X0228921Y0030776D01*
X0228921Y0031975D02*
X0008200Y0031975D01*
X0008200Y0033173D02*
X0228921Y0033173D01*
X0228921Y0034372D02*
X0038071Y0034372D01*
X0040359Y0035570D02*
X0228921Y0035570D01*
X0228921Y0036769D02*
X0154314Y0036769D01*
X0154900Y0037967D02*
X0228921Y0037967D01*
X0228921Y0039166D02*
X0154900Y0039166D01*
X0154900Y0040364D02*
X0228921Y0040364D01*
X0228921Y0041563D02*
X0154900Y0041563D01*
X0154900Y0042761D02*
X0228921Y0042761D01*
X0228921Y0043960D02*
X0193505Y0043960D01*
X0193346Y0043800D02*
X0194400Y0044854D01*
X0194400Y0055346D01*
X0193346Y0056400D01*
X0174377Y0056400D01*
X0174346Y0056431D01*
X0169542Y0056431D01*
X0169144Y0056494D01*
X0169058Y0056431D01*
X0164658Y0056431D01*
X0163955Y0055729D01*
X0163955Y0053784D01*
X0163600Y0053428D01*
X0163600Y0044272D01*
X0164772Y0043100D01*
X0168928Y0043100D01*
X0170100Y0044272D01*
X0170100Y0045016D01*
X0170478Y0045928D01*
X0170478Y0047272D01*
X0170100Y0048184D01*
X0170100Y0050852D01*
X0171800Y0048515D01*
X0171800Y0044854D01*
X0172854Y0043800D01*
X0193346Y0043800D01*
X0194400Y0045158D02*
X0228921Y0045158D01*
X0228921Y0046357D02*
X0194400Y0046357D01*
X0194400Y0047555D02*
X0228921Y0047555D01*
X0228921Y0048754D02*
X0194400Y0048754D01*
X0194400Y0049952D02*
X0228921Y0049952D01*
X0228921Y0051151D02*
X0194400Y0051151D01*
X0194400Y0052349D02*
X0200305Y0052349D01*
X0199800Y0053548D02*
X0194400Y0053548D01*
X0194400Y0054746D02*
X0199800Y0054746D01*
X0199800Y0055945D02*
X0193801Y0055945D01*
X0192600Y0054600D02*
X0169600Y0054600D01*
X0173600Y0049100D01*
X0173600Y0045600D01*
X0192600Y0045600D01*
X0192600Y0054600D01*
X0192600Y0053548D02*
X0170365Y0053548D01*
X0171237Y0052349D02*
X0192600Y0052349D01*
X0192600Y0051151D02*
X0172108Y0051151D01*
X0172980Y0049952D02*
X0192600Y0049952D01*
X0192600Y0048754D02*
X0173600Y0048754D01*
X0173600Y0047555D02*
X0192600Y0047555D01*
X0192600Y0046357D02*
X0173600Y0046357D01*
X0171800Y0046357D02*
X0170478Y0046357D01*
X0170361Y0047555D02*
X0171800Y0047555D01*
X0171626Y0048754D02*
X0170100Y0048754D01*
X0170100Y0049952D02*
X0170754Y0049952D01*
X0173600Y0051600D02*
X0173600Y0054631D01*
X0166905Y0054631D01*
X0163955Y0054746D02*
X0153245Y0054746D01*
X0153245Y0055945D02*
X0164171Y0055945D01*
X0164283Y0057143D02*
X0153245Y0057143D01*
X0153400Y0058342D02*
X0163812Y0058342D01*
X0163800Y0059540D02*
X0153400Y0059540D01*
X0153400Y0060739D02*
X0163800Y0060739D01*
X0163800Y0061937D02*
X0153400Y0061937D01*
X0153400Y0063136D02*
X0163800Y0063136D01*
X0163800Y0064334D02*
X0153400Y0064334D01*
X0152713Y0065533D02*
X0163800Y0065533D01*
X0164686Y0066732D02*
X0151514Y0066732D01*
X0150400Y0067930D02*
X0165884Y0067930D01*
X0166300Y0069129D02*
X0150400Y0069129D01*
X0150400Y0070327D02*
X0166300Y0070327D01*
X0166300Y0071526D02*
X0150400Y0071526D01*
X0150400Y0072724D02*
X0166300Y0072724D01*
X0166300Y0073923D02*
X0150400Y0073923D01*
X0150400Y0075121D02*
X0166300Y0075121D01*
X0165835Y0076320D02*
X0150400Y0076320D01*
X0150400Y0077518D02*
X0164636Y0077518D01*
X0163438Y0078717D02*
X0150400Y0078717D01*
X0150400Y0079915D02*
X0157724Y0079915D01*
X0156375Y0081114D02*
X0150400Y0081114D01*
X0150400Y0082312D02*
X0155027Y0082312D01*
X0156388Y0083511D02*
X0172600Y0083511D01*
X0172600Y0083600D02*
X0172600Y0076100D01*
X0168100Y0076100D01*
X0168100Y0076600D01*
X0163600Y0081100D01*
X0159100Y0081100D01*
X0154600Y0085100D01*
X0154600Y0098100D01*
X0160100Y0098100D01*
X0163100Y0093100D01*
X0163100Y0087100D01*
X0165600Y0083600D01*
X0172600Y0083600D01*
X0172600Y0082312D02*
X0157736Y0082312D01*
X0159085Y0081114D02*
X0172600Y0081114D01*
X0172600Y0079915D02*
X0164785Y0079915D01*
X0165983Y0078717D02*
X0172600Y0078717D01*
X0172600Y0077518D02*
X0167182Y0077518D01*
X0168100Y0077518D02*
X0177100Y0077518D01*
X0177100Y0076320D02*
X0168100Y0076320D01*
X0172600Y0076320D01*
X0170342Y0075121D02*
X0228921Y0075121D01*
X0201600Y0075121D01*
X0201600Y0073923D02*
X0228921Y0073923D01*
X0170800Y0073923D01*
X0171258Y0072724D02*
X0228921Y0072724D01*
X0201600Y0072724D01*
X0201600Y0071526D02*
X0228921Y0071526D01*
X0171717Y0071526D01*
X0172175Y0070327D02*
X0228921Y0070327D01*
X0201600Y0070327D01*
X0201600Y0069129D02*
X0228921Y0069129D01*
X0172633Y0069129D01*
X0173091Y0067930D02*
X0228921Y0067930D01*
X0201600Y0067930D01*
X0201600Y0066732D02*
X0228921Y0066732D01*
X0173550Y0066732D01*
X0173600Y0066600D02*
X0228921Y0066600D01*
X0228921Y0083600D01*
X0167100Y0083600D01*
X0173600Y0066600D01*
X0175435Y0065533D02*
X0166033Y0065533D01*
X0165600Y0065100D02*
X0168100Y0067600D01*
X0168100Y0079600D01*
X0177100Y0079600D01*
X0177100Y0067100D01*
X0173765Y0063961D01*
X0173288Y0063961D01*
X0172585Y0063258D01*
X0172585Y0062851D01*
X0168600Y0059100D01*
X0165600Y0059100D01*
X0165600Y0065100D01*
X0165600Y0064334D02*
X0174162Y0064334D01*
X0175515Y0063136D02*
X0199800Y0063136D01*
X0199800Y0064334D02*
X0176788Y0064334D01*
X0172585Y0063136D02*
X0165600Y0063136D01*
X0165600Y0061937D02*
X0171615Y0061937D01*
X0170341Y0060739D02*
X0165600Y0060739D01*
X0165600Y0059540D02*
X0169068Y0059540D01*
X0170421Y0058342D02*
X0199800Y0058342D01*
X0199800Y0059540D02*
X0171694Y0059540D01*
X0172968Y0060739D02*
X0199800Y0060739D01*
X0199800Y0061937D02*
X0174241Y0061937D01*
X0169527Y0057143D02*
X0199800Y0057143D01*
X0201600Y0057143D02*
X0228921Y0057143D01*
X0228921Y0055945D02*
X0201600Y0055945D01*
X0201600Y0054746D02*
X0228921Y0054746D01*
X0228921Y0053600D02*
X0201600Y0053600D01*
X0201600Y0094100D01*
X0228921Y0093680D01*
X0228921Y0053600D01*
X0228921Y0058342D02*
X0201600Y0058342D01*
X0201600Y0059540D02*
X0228921Y0059540D01*
X0228921Y0060739D02*
X0201600Y0060739D01*
X0201600Y0061937D02*
X0228921Y0061937D01*
X0228921Y0063136D02*
X0201600Y0063136D01*
X0201600Y0064334D02*
X0228921Y0064334D01*
X0228921Y0065533D02*
X0201600Y0065533D01*
X0201600Y0076320D02*
X0228921Y0076320D01*
X0169884Y0076320D01*
X0169425Y0077518D02*
X0228921Y0077518D01*
X0201600Y0077518D01*
X0201600Y0078717D02*
X0228921Y0078717D01*
X0168967Y0078717D01*
X0168100Y0078717D02*
X0177100Y0078717D01*
X0177100Y0075121D02*
X0168100Y0075121D01*
X0168100Y0073923D02*
X0177100Y0073923D01*
X0177100Y0072724D02*
X0168100Y0072724D01*
X0168100Y0071526D02*
X0177100Y0071526D01*
X0177100Y0070327D02*
X0168100Y0070327D01*
X0168100Y0069129D02*
X0177100Y0069129D01*
X0177100Y0067930D02*
X0168100Y0067930D01*
X0167232Y0066732D02*
X0176709Y0066732D01*
X0168509Y0079915D02*
X0228921Y0079915D01*
X0201600Y0079915D01*
X0201600Y0081114D02*
X0228921Y0081114D01*
X0168051Y0081114D01*
X0167592Y0082312D02*
X0228921Y0082312D01*
X0201600Y0082312D01*
X0201600Y0083511D02*
X0228921Y0083511D01*
X0167134Y0083511D01*
X0167600Y0085600D02*
X0165600Y0088100D01*
X0165600Y0096100D01*
X0161600Y0100100D01*
X0130600Y0100100D01*
X0127600Y0097100D01*
X0127600Y0068100D01*
X0130100Y0065600D01*
X0142100Y0065600D01*
X0142100Y0058600D01*
X0085100Y0058600D01*
X0081100Y0058100D01*
X0081100Y0071600D01*
X0086100Y0086600D01*
X0118600Y0086600D01*
X0118600Y0106100D01*
X0172100Y0106100D01*
X0172100Y0086600D01*
X0171100Y0085600D01*
X0167600Y0085600D01*
X0167354Y0085908D02*
X0171408Y0085908D01*
X0172100Y0087106D02*
X0166395Y0087106D01*
X0165600Y0088305D02*
X0172100Y0088305D01*
X0172100Y0089503D02*
X0165600Y0089503D01*
X0165600Y0090702D02*
X0172100Y0090702D01*
X0172100Y0091900D02*
X0165600Y0091900D01*
X0165600Y0093099D02*
X0172100Y0093099D01*
X0172100Y0094297D02*
X0165600Y0094297D01*
X0165600Y0095496D02*
X0172100Y0095496D01*
X0172100Y0096694D02*
X0165006Y0096694D01*
X0163807Y0097893D02*
X0172100Y0097893D01*
X0172100Y0099091D02*
X0162609Y0099091D01*
X0160224Y0097893D02*
X0154600Y0097893D01*
X0154600Y0096694D02*
X0160943Y0096694D01*
X0161663Y0095496D02*
X0154600Y0095496D01*
X0154600Y0094297D02*
X0162382Y0094297D01*
X0163100Y0093099D02*
X0154600Y0093099D01*
X0154600Y0091900D02*
X0163100Y0091900D01*
X0163100Y0090702D02*
X0154600Y0090702D01*
X0154600Y0089503D02*
X0163100Y0089503D01*
X0163100Y0088305D02*
X0154600Y0088305D01*
X0154600Y0087106D02*
X0163100Y0087106D01*
X0163952Y0085908D02*
X0154600Y0085908D01*
X0155040Y0084709D02*
X0164808Y0084709D01*
X0173900Y0085908D02*
X0199800Y0085908D01*
X0199800Y0087106D02*
X0173900Y0087106D01*
X0173900Y0088305D02*
X0199800Y0088305D01*
X0199800Y0089503D02*
X0173900Y0089503D01*
X0173900Y0090702D02*
X0199800Y0090702D01*
X0199800Y0091900D02*
X0173900Y0091900D01*
X0173900Y0093099D02*
X0199800Y0093099D01*
X0199800Y0094297D02*
X0173900Y0094297D01*
X0173900Y0095496D02*
X0200450Y0095496D01*
X0201600Y0093099D02*
X0228921Y0093099D01*
X0228921Y0091900D02*
X0201600Y0091900D01*
X0201600Y0090702D02*
X0228921Y0090702D01*
X0228921Y0089503D02*
X0201600Y0089503D01*
X0201600Y0088305D02*
X0228921Y0088305D01*
X0228921Y0087106D02*
X0201600Y0087106D01*
X0201600Y0085908D02*
X0228921Y0085908D01*
X0228921Y0084709D02*
X0201600Y0084709D01*
X0227886Y0095496D02*
X0228921Y0095496D01*
X0228921Y0096694D02*
X0173900Y0096694D01*
X0173900Y0097893D02*
X0228921Y0097893D01*
X0228921Y0099091D02*
X0173900Y0099091D01*
X0173900Y0100290D02*
X0228921Y0100290D01*
X0228921Y0101488D02*
X0173900Y0101488D01*
X0173900Y0102687D02*
X0228921Y0102687D01*
X0228921Y0103885D02*
X0173900Y0103885D01*
X0173900Y0105084D02*
X0228921Y0105084D01*
X0228921Y0106282D02*
X0173900Y0106282D01*
X0173265Y0107481D02*
X0228921Y0107481D01*
X0228921Y0108679D02*
X0101046Y0108679D01*
X0101699Y0107481D02*
X0117435Y0107481D01*
X0116800Y0106282D02*
X0101800Y0106282D01*
X0104056Y0105084D02*
X0116800Y0105084D01*
X0116800Y0103885D02*
X0105199Y0103885D01*
X0105696Y0102687D02*
X0116800Y0102687D01*
X0116800Y0101488D02*
X0105800Y0101488D01*
X0105603Y0100290D02*
X0116800Y0100290D01*
X0116800Y0099091D02*
X0105031Y0099091D01*
X0103625Y0097893D02*
X0116800Y0097893D01*
X0116800Y0096694D02*
X0061800Y0096694D01*
X0061800Y0095496D02*
X0116800Y0095496D01*
X0116800Y0094297D02*
X0061800Y0094297D01*
X0061800Y0093099D02*
X0116800Y0093099D01*
X0116800Y0091900D02*
X0061800Y0091900D01*
X0061800Y0090702D02*
X0116800Y0090702D01*
X0116800Y0089503D02*
X0061800Y0089503D01*
X0058600Y0086600D02*
X0098600Y0086600D01*
X0098600Y0051600D01*
X0058600Y0051600D01*
X0058600Y0086600D01*
X0058600Y0085908D02*
X0098600Y0085908D01*
X0098600Y0084709D02*
X0058600Y0084709D01*
X0058600Y0083511D02*
X0098600Y0083511D01*
X0098600Y0082312D02*
X0058600Y0082312D01*
X0058600Y0081114D02*
X0098600Y0081114D01*
X0098600Y0079915D02*
X0058600Y0079915D01*
X0058600Y0078717D02*
X0098600Y0078717D01*
X0098600Y0077518D02*
X0058600Y0077518D01*
X0058600Y0076320D02*
X0098600Y0076320D01*
X0098600Y0075121D02*
X0058600Y0075121D01*
X0058600Y0073923D02*
X0098600Y0073923D01*
X0098600Y0072724D02*
X0058600Y0072724D01*
X0058600Y0071526D02*
X0098600Y0071526D01*
X0098600Y0070327D02*
X0058600Y0070327D01*
X0058600Y0069129D02*
X0098600Y0069129D01*
X0098600Y0067930D02*
X0058600Y0067930D01*
X0058600Y0066732D02*
X0098600Y0066732D01*
X0098600Y0065533D02*
X0058600Y0065533D01*
X0058600Y0064334D02*
X0098600Y0064334D01*
X0098600Y0063136D02*
X0058600Y0063136D01*
X0058600Y0061937D02*
X0098600Y0061937D01*
X0098600Y0060739D02*
X0058600Y0060739D01*
X0058600Y0059540D02*
X0098600Y0059540D01*
X0098600Y0058342D02*
X0058600Y0058342D01*
X0058600Y0057143D02*
X0098600Y0057143D01*
X0098600Y0055945D02*
X0058600Y0055945D01*
X0058600Y0054746D02*
X0098600Y0054746D01*
X0098600Y0053548D02*
X0058600Y0053548D01*
X0058600Y0052349D02*
X0098600Y0052349D01*
X0100400Y0052349D02*
X0130800Y0052349D01*
X0130800Y0051151D02*
X0100400Y0051151D01*
X0099498Y0049952D02*
X0130800Y0049952D01*
X0130800Y0048754D02*
X0043357Y0048754D01*
X0042267Y0047555D02*
X0130800Y0047555D01*
X0130800Y0046357D02*
X0042828Y0046357D01*
X0043324Y0045158D02*
X0130800Y0045158D01*
X0130800Y0043960D02*
X0043702Y0043960D01*
X0043702Y0042761D02*
X0130800Y0042761D01*
X0130800Y0041563D02*
X0043702Y0041563D01*
X0043527Y0040364D02*
X0130800Y0040364D01*
X0130800Y0039166D02*
X0043030Y0039166D01*
X0042534Y0037967D02*
X0131687Y0037967D01*
X0132600Y0039600D02*
X0142600Y0039600D01*
X0142600Y0046100D01*
X0133600Y0046100D01*
X0132600Y0045100D01*
X0132600Y0039600D01*
X0132600Y0040364D02*
X0142600Y0040364D01*
X0142600Y0041563D02*
X0132600Y0041563D01*
X0132600Y0042761D02*
X0142600Y0042761D01*
X0142600Y0043960D02*
X0132600Y0043960D01*
X0132600Y0044100D02*
X0132600Y0056600D01*
X0147100Y0056600D01*
X0147100Y0050100D01*
X0141100Y0044100D01*
X0132600Y0044100D01*
X0132600Y0045158D02*
X0142158Y0045158D01*
X0142600Y0045158D02*
X0132658Y0045158D01*
X0132600Y0046357D02*
X0143357Y0046357D01*
X0144555Y0047555D02*
X0132600Y0047555D01*
X0132600Y0048754D02*
X0145754Y0048754D01*
X0146952Y0049952D02*
X0132600Y0049952D01*
X0132600Y0051151D02*
X0147100Y0051151D01*
X0147100Y0052349D02*
X0132600Y0052349D01*
X0132600Y0053548D02*
X0147100Y0053548D01*
X0147100Y0054746D02*
X0132600Y0054746D01*
X0132600Y0055945D02*
X0147100Y0055945D01*
X0150295Y0056600D02*
X0143600Y0056600D01*
X0143600Y0056002D01*
X0138600Y0051002D01*
X0130800Y0053548D02*
X0100400Y0053548D01*
X0100400Y0054746D02*
X0130800Y0054746D01*
X0130800Y0055945D02*
X0100400Y0055945D01*
X0083036Y0058342D02*
X0081100Y0058342D01*
X0081100Y0059540D02*
X0142100Y0059540D01*
X0142100Y0060739D02*
X0081100Y0060739D01*
X0081100Y0061937D02*
X0142100Y0061937D01*
X0142100Y0063136D02*
X0081100Y0063136D01*
X0081100Y0064334D02*
X0142100Y0064334D01*
X0142100Y0065533D02*
X0081100Y0065533D01*
X0081100Y0066732D02*
X0128968Y0066732D01*
X0127770Y0067930D02*
X0081100Y0067930D01*
X0081100Y0069129D02*
X0127600Y0069129D01*
X0127600Y0070327D02*
X0081100Y0070327D01*
X0081100Y0071526D02*
X0127600Y0071526D01*
X0127600Y0072724D02*
X0081475Y0072724D01*
X0081874Y0073923D02*
X0127600Y0073923D01*
X0127600Y0075121D02*
X0082274Y0075121D01*
X0082673Y0076320D02*
X0127600Y0076320D01*
X0127600Y0077518D02*
X0083073Y0077518D01*
X0083472Y0078717D02*
X0127600Y0078717D01*
X0127600Y0079915D02*
X0083872Y0079915D01*
X0084271Y0081114D02*
X0127600Y0081114D01*
X0127600Y0082312D02*
X0084671Y0082312D01*
X0085070Y0083511D02*
X0127600Y0083511D01*
X0127600Y0084709D02*
X0085470Y0084709D01*
X0085869Y0085908D02*
X0127600Y0085908D01*
X0127600Y0087106D02*
X0118600Y0087106D01*
X0118600Y0088305D02*
X0127600Y0088305D01*
X0127600Y0089503D02*
X0118600Y0089503D01*
X0118600Y0090702D02*
X0127600Y0090702D01*
X0127600Y0091900D02*
X0118600Y0091900D01*
X0118600Y0093099D02*
X0127600Y0093099D01*
X0127600Y0094297D02*
X0118600Y0094297D01*
X0118600Y0095496D02*
X0127600Y0095496D01*
X0127600Y0096694D02*
X0118600Y0096694D01*
X0118600Y0097893D02*
X0128393Y0097893D01*
X0129591Y0099091D02*
X0118600Y0099091D01*
X0118600Y0100290D02*
X0172100Y0100290D01*
X0172100Y0101488D02*
X0118600Y0101488D01*
X0118600Y0102687D02*
X0172100Y0102687D01*
X0172100Y0103885D02*
X0118600Y0103885D01*
X0118600Y0105084D02*
X0172100Y0105084D01*
X0152600Y0098300D02*
X0152600Y0086100D01*
X0148600Y0086100D01*
X0148600Y0068600D01*
X0148100Y0068600D01*
X0147600Y0064600D01*
X0143900Y0064682D01*
X0143900Y0066346D01*
X0142846Y0067400D01*
X0130846Y0067400D01*
X0129400Y0068846D01*
X0129400Y0096354D01*
X0131346Y0098300D01*
X0152600Y0098300D01*
X0152600Y0097893D02*
X0130938Y0097893D01*
X0129740Y0096694D02*
X0152600Y0096694D01*
X0152600Y0095496D02*
X0129400Y0095496D01*
X0129400Y0094297D02*
X0152600Y0094297D01*
X0152600Y0093099D02*
X0129400Y0093099D01*
X0129400Y0091900D02*
X0152600Y0091900D01*
X0152600Y0090702D02*
X0129400Y0090702D01*
X0129400Y0089503D02*
X0152600Y0089503D01*
X0152600Y0088305D02*
X0129400Y0088305D01*
X0129400Y0087106D02*
X0152600Y0087106D01*
X0153644Y0083511D02*
X0150400Y0083511D01*
X0148600Y0083511D02*
X0129400Y0083511D01*
X0129400Y0084709D02*
X0148600Y0084709D01*
X0148600Y0085908D02*
X0129400Y0085908D01*
X0129400Y0082312D02*
X0148600Y0082312D01*
X0148600Y0081114D02*
X0129400Y0081114D01*
X0129400Y0079915D02*
X0148600Y0079915D01*
X0148600Y0078717D02*
X0129400Y0078717D01*
X0129400Y0077518D02*
X0148600Y0077518D01*
X0148600Y0076320D02*
X0129400Y0076320D01*
X0129400Y0075121D02*
X0148600Y0075121D01*
X0148600Y0073923D02*
X0129400Y0073923D01*
X0129400Y0072724D02*
X0148600Y0072724D01*
X0148600Y0071526D02*
X0129400Y0071526D01*
X0129400Y0070327D02*
X0148600Y0070327D01*
X0148600Y0069129D02*
X0129400Y0069129D01*
X0130316Y0067930D02*
X0148016Y0067930D01*
X0147770Y0067930D02*
X0135600Y0067930D01*
X0135600Y0067400D02*
X0135600Y0074600D01*
X0146100Y0074600D01*
X0146100Y0069600D01*
X0151600Y0064100D01*
X0151600Y0058600D01*
X0143900Y0058600D01*
X0143900Y0066346D01*
X0142846Y0067400D01*
X0135600Y0067400D01*
X0135600Y0069129D02*
X0146571Y0069129D01*
X0146100Y0070327D02*
X0135600Y0070327D01*
X0135600Y0071526D02*
X0146100Y0071526D01*
X0146100Y0072724D02*
X0135600Y0072724D01*
X0135600Y0073923D02*
X0146100Y0073923D01*
X0143600Y0071600D02*
X0143088Y0071600D01*
X0143514Y0066732D02*
X0147866Y0066732D01*
X0148968Y0066732D02*
X0143514Y0066732D01*
X0143900Y0065533D02*
X0147717Y0065533D01*
X0146100Y0065100D02*
X0144100Y0062100D01*
X0143900Y0061937D02*
X0151600Y0061937D01*
X0151600Y0060739D02*
X0143900Y0060739D01*
X0143900Y0059540D02*
X0151600Y0059540D01*
X0150295Y0058569D02*
X0146600Y0058763D01*
X0145600Y0061600D02*
X0146100Y0062100D01*
X0143900Y0063136D02*
X0151600Y0063136D01*
X0151366Y0064334D02*
X0143900Y0064334D01*
X0143900Y0065533D02*
X0150167Y0065533D01*
X0154698Y0053548D02*
X0163719Y0053548D01*
X0163600Y0052349D02*
X0154900Y0052349D01*
X0154900Y0051151D02*
X0163600Y0051151D01*
X0163600Y0049952D02*
X0154900Y0049952D01*
X0154900Y0048754D02*
X0163600Y0048754D01*
X0163600Y0047555D02*
X0154900Y0047555D01*
X0154900Y0046357D02*
X0163600Y0046357D01*
X0163600Y0045158D02*
X0154900Y0045158D01*
X0154900Y0043960D02*
X0163912Y0043960D01*
X0169788Y0043960D02*
X0172695Y0043960D01*
X0171800Y0045158D02*
X0170159Y0045158D01*
X0153100Y0045158D02*
X0145158Y0045158D01*
X0145100Y0045100D02*
X0149100Y0049100D01*
X0149100Y0052600D01*
X0153100Y0052600D01*
X0153100Y0038100D01*
X0145100Y0038100D01*
X0145100Y0045100D01*
X0145100Y0043960D02*
X0153100Y0043960D01*
X0153100Y0042761D02*
X0145100Y0042761D01*
X0145100Y0041563D02*
X0153100Y0041563D01*
X0153100Y0040364D02*
X0145100Y0040364D01*
X0145100Y0039166D02*
X0153100Y0039166D01*
X0143886Y0036769D02*
X0041557Y0036769D01*
X0031932Y0034372D02*
X0008200Y0034372D01*
X0008200Y0035570D02*
X0029645Y0035570D01*
X0028446Y0036769D02*
X0008200Y0036769D01*
X0008200Y0037967D02*
X0027469Y0037967D01*
X0026973Y0039166D02*
X0008200Y0039166D01*
X0008200Y0040364D02*
X0026476Y0040364D01*
X0026302Y0041563D02*
X0008200Y0041563D01*
X0008200Y0042761D02*
X0026302Y0042761D01*
X0026302Y0043960D02*
X0008200Y0043960D01*
X0008200Y0045158D02*
X0026679Y0045158D01*
X0027175Y0046357D02*
X0008200Y0046357D01*
X0008200Y0047555D02*
X0027736Y0047555D01*
X0028935Y0048754D02*
X0008200Y0048754D01*
X0008200Y0049952D02*
X0030218Y0049952D01*
X0033112Y0051151D02*
X0008200Y0051151D01*
X0008200Y0052349D02*
X0037451Y0052349D01*
X0036732Y0053817D02*
X0033271Y0053817D01*
X0030073Y0055141D01*
X0027626Y0057589D01*
X0026302Y0060786D01*
X0026302Y0064247D01*
X0027626Y0067445D01*
X0030073Y0069892D01*
X0033271Y0071217D01*
X0036732Y0071217D01*
X0039930Y0069892D01*
X0042377Y0067445D01*
X0043702Y0064247D01*
X0043702Y0060786D01*
X0042377Y0057589D01*
X0039930Y0055141D01*
X0036732Y0053817D01*
X0039075Y0053548D02*
X0008200Y0053548D01*
X0008200Y0054746D02*
X0031027Y0054746D01*
X0029270Y0055945D02*
X0008200Y0055945D01*
X0008200Y0057143D02*
X0028071Y0057143D01*
X0027314Y0058342D02*
X0008200Y0058342D01*
X0008200Y0059540D02*
X0026818Y0059540D01*
X0026321Y0060739D02*
X0008200Y0060739D01*
X0008200Y0061937D02*
X0026302Y0061937D01*
X0026302Y0063136D02*
X0008200Y0063136D01*
X0008200Y0064334D02*
X0026338Y0064334D01*
X0026834Y0065533D02*
X0008200Y0065533D01*
X0008200Y0066732D02*
X0027331Y0066732D01*
X0028111Y0067930D02*
X0008200Y0067930D01*
X0008200Y0069129D02*
X0029310Y0069129D01*
X0031123Y0070327D02*
X0008200Y0070327D01*
X0008200Y0071526D02*
X0045400Y0071526D01*
X0045400Y0072724D02*
X0008200Y0072724D01*
X0008200Y0073923D02*
X0045400Y0073923D01*
X0045400Y0075121D02*
X0008200Y0075121D01*
X0008200Y0076320D02*
X0045400Y0076320D01*
X0045400Y0077518D02*
X0008200Y0077518D01*
X0008200Y0078717D02*
X0045400Y0078717D01*
X0045400Y0079915D02*
X0008200Y0079915D01*
X0008200Y0081114D02*
X0045400Y0081114D01*
X0045400Y0082312D02*
X0008200Y0082312D01*
X0008200Y0083511D02*
X0045400Y0083511D01*
X0045400Y0084709D02*
X0008200Y0084709D01*
X0008200Y0085908D02*
X0045400Y0085908D01*
X0045400Y0087106D02*
X0008200Y0087106D01*
X0008200Y0088305D02*
X0045400Y0088305D01*
X0045400Y0089503D02*
X0008200Y0089503D01*
X0008200Y0090702D02*
X0045400Y0090702D01*
X0045400Y0091900D02*
X0008200Y0091900D01*
X0008200Y0093099D02*
X0045400Y0093099D01*
X0045400Y0094297D02*
X0008200Y0094297D01*
X0008200Y0095496D02*
X0045400Y0095496D01*
X0045400Y0096694D02*
X0008200Y0096694D01*
X0008200Y0097893D02*
X0033575Y0097893D01*
X0032169Y0099091D02*
X0008200Y0099091D01*
X0008200Y0100290D02*
X0031597Y0100290D01*
X0031400Y0101488D02*
X0008200Y0101488D01*
X0008200Y0102687D02*
X0031504Y0102687D01*
X0032001Y0103885D02*
X0008200Y0103885D01*
X0008200Y0105084D02*
X0033144Y0105084D01*
X0044056Y0105084D02*
X0045400Y0105084D01*
X0045400Y0106282D02*
X0008200Y0106282D01*
X0008200Y0107481D02*
X0045501Y0107481D01*
X0046154Y0108679D02*
X0008200Y0108679D01*
X0008200Y0109878D02*
X0047352Y0109878D01*
X0048551Y0111076D02*
X0008200Y0111076D01*
X0008200Y0112275D02*
X0016290Y0112275D01*
X0016710Y0112101D02*
X0013219Y0113547D01*
X0010547Y0116219D01*
X0009101Y0119710D01*
X0009101Y0123490D01*
X0010547Y0126981D01*
X0013219Y0129653D01*
X0016710Y0131099D01*
X0020490Y0131099D01*
X0023981Y0129653D01*
X0026653Y0126981D01*
X0028099Y0123490D01*
X0028099Y0119710D01*
X0026653Y0116219D01*
X0023981Y0113547D01*
X0020490Y0112101D01*
X0016710Y0112101D01*
X0020910Y0112275D02*
X0049749Y0112275D01*
X0050948Y0113473D02*
X0023803Y0113473D01*
X0025106Y0114672D02*
X0052147Y0114672D01*
X0051787Y0114313D02*
X0051787Y0114313D01*
X0053345Y0115870D02*
X0026304Y0115870D01*
X0027005Y0117069D02*
X0054544Y0117069D01*
X0052993Y0118268D02*
X0044207Y0118268D01*
X0043979Y0118039D02*
X0045161Y0119221D01*
X0045800Y0120765D01*
X0045800Y0122435D01*
X0045161Y0123979D01*
X0043979Y0125161D01*
X0042435Y0125800D01*
X0034765Y0125800D01*
X0033221Y0125161D01*
X0032039Y0123979D01*
X0031400Y0122435D01*
X0031400Y0120765D01*
X0032039Y0119221D01*
X0033221Y0118039D01*
X0034765Y0117400D01*
X0042435Y0117400D01*
X0043979Y0118039D01*
X0045262Y0119466D02*
X0051938Y0119466D01*
X0051441Y0120665D02*
X0045759Y0120665D01*
X0045800Y0121863D02*
X0051400Y0121863D01*
X0051659Y0123062D02*
X0045541Y0123062D01*
X0044880Y0124260D02*
X0052320Y0124260D01*
X0053940Y0125459D02*
X0043260Y0125459D01*
X0033940Y0125459D02*
X0027284Y0125459D01*
X0026787Y0126657D02*
X0210413Y0126657D01*
X0210547Y0126981D02*
X0209101Y0123490D01*
X0209101Y0119710D01*
X0210547Y0116219D01*
X0213219Y0113547D01*
X0216710Y0112101D01*
X0220490Y0112101D01*
X0223981Y0113547D01*
X0226653Y0116219D01*
X0228099Y0119710D01*
X0228099Y0123490D01*
X0226653Y0126981D01*
X0223981Y0129653D01*
X0220490Y0131099D01*
X0216710Y0131099D01*
X0213219Y0129653D01*
X0210547Y0126981D01*
X0211422Y0127856D02*
X0025778Y0127856D01*
X0024580Y0129054D02*
X0212620Y0129054D01*
X0214667Y0130253D02*
X0022533Y0130253D01*
X0014667Y0130253D02*
X0008200Y0130253D01*
X0008200Y0131451D02*
X0228921Y0131451D01*
X0228921Y0130253D02*
X0222533Y0130253D01*
X0224580Y0129054D02*
X0228921Y0129054D01*
X0228921Y0127856D02*
X0225778Y0127856D01*
X0226787Y0126657D02*
X0228921Y0126657D01*
X0228921Y0125459D02*
X0227284Y0125459D01*
X0227780Y0124260D02*
X0228921Y0124260D01*
X0228921Y0123062D02*
X0228099Y0123062D01*
X0228099Y0121863D02*
X0228921Y0121863D01*
X0228921Y0120665D02*
X0228099Y0120665D01*
X0227998Y0119466D02*
X0228921Y0119466D01*
X0228921Y0118268D02*
X0227502Y0118268D01*
X0227005Y0117069D02*
X0228921Y0117069D01*
X0228921Y0115870D02*
X0226304Y0115870D01*
X0225106Y0114672D02*
X0228921Y0114672D01*
X0228921Y0113473D02*
X0223803Y0113473D01*
X0220910Y0112275D02*
X0228921Y0112275D01*
X0228921Y0111076D02*
X0098649Y0111076D01*
X0099848Y0109878D02*
X0228921Y0109878D01*
X0216290Y0112275D02*
X0097451Y0112275D01*
X0096252Y0113473D02*
X0213397Y0113473D01*
X0212094Y0114672D02*
X0094546Y0114672D01*
X0093194Y0107481D02*
X0054006Y0107481D01*
X0052808Y0106282D02*
X0094392Y0106282D01*
X0093144Y0105084D02*
X0084056Y0105084D01*
X0083979Y0105161D02*
X0082435Y0105800D01*
X0074765Y0105800D01*
X0073221Y0105161D01*
X0072039Y0103979D01*
X0071400Y0102435D01*
X0071400Y0100765D01*
X0072039Y0099221D01*
X0073221Y0098039D01*
X0074765Y0097400D01*
X0082435Y0097400D01*
X0083979Y0098039D01*
X0085161Y0099221D01*
X0085800Y0100765D01*
X0085800Y0102435D01*
X0085161Y0103979D01*
X0083979Y0105161D01*
X0085199Y0103885D02*
X0092001Y0103885D01*
X0091504Y0102687D02*
X0085696Y0102687D01*
X0085800Y0101488D02*
X0091400Y0101488D01*
X0091597Y0100290D02*
X0085603Y0100290D01*
X0085031Y0099091D02*
X0092169Y0099091D01*
X0093575Y0097893D02*
X0083625Y0097893D01*
X0073575Y0097893D02*
X0063625Y0097893D01*
X0065031Y0099091D02*
X0072169Y0099091D01*
X0071597Y0100290D02*
X0065603Y0100290D01*
X0065800Y0101488D02*
X0071400Y0101488D01*
X0071504Y0102687D02*
X0065696Y0102687D01*
X0065199Y0103885D02*
X0072001Y0103885D01*
X0073144Y0105084D02*
X0064056Y0105084D01*
X0053144Y0105084D02*
X0051800Y0105084D01*
X0051800Y0103885D02*
X0052001Y0103885D01*
X0052169Y0099091D02*
X0051800Y0099091D01*
X0051800Y0097893D02*
X0053575Y0097893D01*
X0051800Y0096694D02*
X0055400Y0096694D01*
X0055400Y0095496D02*
X0051800Y0095496D01*
X0051800Y0094297D02*
X0055400Y0094297D01*
X0055400Y0093099D02*
X0051800Y0093099D01*
X0051800Y0091900D02*
X0055400Y0091900D01*
X0055400Y0090702D02*
X0051800Y0090702D01*
X0051800Y0089503D02*
X0055400Y0089503D01*
X0055400Y0088305D02*
X0051800Y0088305D01*
X0051800Y0087106D02*
X0055400Y0087106D01*
X0055400Y0085908D02*
X0051800Y0085908D01*
X0051800Y0084709D02*
X0055400Y0084709D01*
X0055400Y0083511D02*
X0051800Y0083511D01*
X0051800Y0082312D02*
X0055400Y0082312D01*
X0055400Y0081114D02*
X0051800Y0081114D01*
X0051800Y0079915D02*
X0055400Y0079915D01*
X0055400Y0078717D02*
X0051800Y0078717D01*
X0051800Y0077518D02*
X0055400Y0077518D01*
X0055400Y0076320D02*
X0051800Y0076320D01*
X0051800Y0075121D02*
X0055400Y0075121D01*
X0055400Y0073923D02*
X0051800Y0073923D01*
X0051800Y0072724D02*
X0055400Y0072724D01*
X0055400Y0071526D02*
X0051800Y0071526D01*
X0051800Y0070327D02*
X0055664Y0070327D01*
X0056546Y0069129D02*
X0051800Y0069129D01*
X0051800Y0067930D02*
X0056800Y0067930D01*
X0056800Y0066732D02*
X0051800Y0066732D01*
X0051800Y0065533D02*
X0056800Y0065533D01*
X0056800Y0064334D02*
X0051800Y0064334D01*
X0051800Y0063136D02*
X0056800Y0063136D01*
X0056800Y0061937D02*
X0051800Y0061937D01*
X0051800Y0060739D02*
X0056800Y0060739D01*
X0056800Y0059540D02*
X0051800Y0059540D01*
X0051800Y0058342D02*
X0056800Y0058342D01*
X0056800Y0057143D02*
X0051800Y0057143D01*
X0051792Y0055945D02*
X0056800Y0055945D01*
X0056800Y0054746D02*
X0051272Y0054746D01*
X0049853Y0053548D02*
X0056800Y0053548D01*
X0056800Y0052349D02*
X0048229Y0052349D01*
X0046605Y0051151D02*
X0056800Y0051151D01*
X0057702Y0049952D02*
X0044981Y0049952D01*
X0040699Y0054746D02*
X0038976Y0054746D01*
X0040733Y0055945D02*
X0042323Y0055945D01*
X0041932Y0057143D02*
X0043947Y0057143D01*
X0042689Y0058342D02*
X0045400Y0058342D01*
X0045400Y0059540D02*
X0043185Y0059540D01*
X0043682Y0060739D02*
X0045400Y0060739D01*
X0045400Y0061937D02*
X0043702Y0061937D01*
X0043702Y0063136D02*
X0045400Y0063136D01*
X0045400Y0064334D02*
X0043666Y0064334D01*
X0043169Y0065533D02*
X0045400Y0065533D01*
X0045400Y0066732D02*
X0042673Y0066732D01*
X0041892Y0067930D02*
X0045400Y0067930D01*
X0045400Y0069129D02*
X0040694Y0069129D01*
X0038880Y0070327D02*
X0045400Y0070327D01*
X0045400Y0097893D02*
X0043625Y0097893D01*
X0045031Y0099091D02*
X0045400Y0099091D01*
X0045400Y0103885D02*
X0045199Y0103885D01*
X0061761Y0115870D02*
X0210896Y0115870D01*
X0210195Y0117069D02*
X0061800Y0117069D01*
X0064207Y0118268D02*
X0209698Y0118268D01*
X0209202Y0119466D02*
X0065262Y0119466D01*
X0065759Y0120665D02*
X0209101Y0120665D01*
X0209101Y0121863D02*
X0065800Y0121863D01*
X0065541Y0123062D02*
X0209101Y0123062D01*
X0209420Y0124260D02*
X0064880Y0124260D01*
X0063260Y0125459D02*
X0209916Y0125459D01*
X0228921Y0132650D02*
X0008200Y0132650D01*
X0008200Y0133848D02*
X0228921Y0133848D01*
X0228921Y0135047D02*
X0008200Y0135047D01*
X0008200Y0129054D02*
X0012620Y0129054D01*
X0011422Y0127856D02*
X0008200Y0127856D01*
X0008200Y0126657D02*
X0010413Y0126657D01*
X0009916Y0125459D02*
X0008200Y0125459D01*
X0008200Y0124260D02*
X0009420Y0124260D01*
X0009101Y0123062D02*
X0008200Y0123062D01*
X0008200Y0121863D02*
X0009101Y0121863D01*
X0009101Y0120665D02*
X0008200Y0120665D01*
X0008200Y0119466D02*
X0009202Y0119466D01*
X0009698Y0118268D02*
X0008200Y0118268D01*
X0008200Y0117069D02*
X0010195Y0117069D01*
X0010896Y0115870D02*
X0008200Y0115870D01*
X0008200Y0114672D02*
X0012094Y0114672D01*
X0013397Y0113473D02*
X0008200Y0113473D01*
X0027502Y0118268D02*
X0032993Y0118268D01*
X0031938Y0119466D02*
X0027998Y0119466D01*
X0028099Y0120665D02*
X0031441Y0120665D01*
X0031400Y0121863D02*
X0028099Y0121863D01*
X0028099Y0123062D02*
X0031659Y0123062D01*
X0032320Y0124260D02*
X0027780Y0124260D01*
X0149100Y0052349D02*
X0153100Y0052349D01*
X0153100Y0051151D02*
X0149100Y0051151D01*
X0149100Y0049952D02*
X0153100Y0049952D01*
X0153100Y0048754D02*
X0148754Y0048754D01*
X0147555Y0047555D02*
X0153100Y0047555D01*
X0153100Y0046357D02*
X0146357Y0046357D01*
X0209140Y0023585D02*
X0028060Y0023585D01*
X0028099Y0023490D02*
X0026653Y0026981D01*
X0023981Y0029653D01*
X0020490Y0031099D01*
X0016710Y0031099D01*
X0013219Y0029653D01*
X0010547Y0026981D01*
X0009101Y0023490D01*
X0009101Y0019710D01*
X0010547Y0016219D01*
X0013219Y0013547D01*
X0016710Y0012101D01*
X0020490Y0012101D01*
X0023981Y0013547D01*
X0026653Y0016219D01*
X0028099Y0019710D01*
X0028099Y0023490D01*
X0028099Y0022387D02*
X0209101Y0022387D01*
X0209101Y0021188D02*
X0028099Y0021188D01*
X0028099Y0019990D02*
X0209101Y0019990D01*
X0209482Y0018791D02*
X0027718Y0018791D01*
X0027222Y0017593D02*
X0209978Y0017593D01*
X0210474Y0016394D02*
X0026725Y0016394D01*
X0025629Y0015196D02*
X0211571Y0015196D01*
X0212769Y0013997D02*
X0024431Y0013997D01*
X0022174Y0012799D02*
X0215026Y0012799D01*
X0209637Y0024784D02*
X0027563Y0024784D01*
X0027067Y0025982D02*
X0210133Y0025982D01*
X0210747Y0027181D02*
X0026453Y0027181D01*
X0025255Y0028379D02*
X0211945Y0028379D01*
X0213144Y0029578D02*
X0024056Y0029578D01*
X0021269Y0030776D02*
X0215931Y0030776D01*
X0015931Y0030776D02*
X0008200Y0030776D01*
X0008200Y0029578D02*
X0013144Y0029578D01*
X0011945Y0028379D02*
X0008200Y0028379D01*
X0008200Y0027181D02*
X0010747Y0027181D01*
X0010133Y0025982D02*
X0008200Y0025982D01*
X0008200Y0024784D02*
X0009637Y0024784D01*
X0009140Y0023585D02*
X0008200Y0023585D01*
X0008200Y0022387D02*
X0009101Y0022387D01*
X0009101Y0021188D02*
X0008200Y0021188D01*
X0008200Y0019990D02*
X0009101Y0019990D01*
X0009482Y0018791D02*
X0008200Y0018791D01*
X0008200Y0017593D02*
X0009978Y0017593D01*
X0010474Y0016394D02*
X0008200Y0016394D01*
X0008200Y0015196D02*
X0011571Y0015196D01*
X0012769Y0013997D02*
X0008200Y0013997D01*
X0008200Y0012799D02*
X0015026Y0012799D01*
D23*
X0106100Y0024100D03*
X0116100Y0024100D03*
X0126100Y0024100D03*
X0136100Y0024100D03*
X0146100Y0024100D03*
X0156100Y0024100D03*
X0166100Y0024100D03*
X0176100Y0024100D03*
X0186100Y0024100D03*
X0196100Y0024100D03*
X0196100Y0034100D03*
X0186100Y0034100D03*
X0176100Y0034100D03*
X0166100Y0034100D03*
X0156100Y0034100D03*
X0146100Y0034100D03*
X0126100Y0034100D03*
X0116100Y0034100D03*
X0106100Y0034100D03*
X0106100Y0044100D03*
X0116100Y0044100D03*
X0126100Y0044100D03*
X0126100Y0054100D03*
X0116100Y0054100D03*
X0106100Y0054100D03*
X0146100Y0065100D03*
X0154600Y0079100D03*
X0186100Y0094100D03*
X0186100Y0104100D03*
X0196100Y0104100D03*
X0196100Y0054100D03*
X0196100Y0044100D03*
X0167100Y0046600D03*
X0035600Y0077600D03*
D24*
X0123002Y0071600D02*
X0123600Y0071002D01*
X0123600Y0066600D01*
X0134198Y0071600D02*
X0134198Y0081513D01*
X0143600Y0081600D02*
X0143600Y0072112D01*
X0143088Y0071600D01*
X0134198Y0071600D01*
X0143600Y0081600D02*
X0148600Y0091600D01*
X0174100Y0071600D02*
X0174112Y0071600D01*
D25*
X0168100Y0052600D02*
X0165600Y0052600D01*
X0165600Y0045100D01*
X0168100Y0045100D01*
X0168100Y0052600D01*
X0168100Y0051563D02*
X0165600Y0051563D01*
X0165600Y0049964D02*
X0168100Y0049964D01*
X0168100Y0048366D02*
X0165600Y0048366D01*
X0165600Y0046767D02*
X0168100Y0046767D01*
X0168100Y0045169D02*
X0165600Y0045169D01*
X0126100Y0068600D02*
X0120100Y0068600D01*
X0120100Y0096100D01*
X0126100Y0096100D01*
X0126100Y0068600D01*
X0126100Y0069146D02*
X0120100Y0069146D01*
X0120100Y0070745D02*
X0126100Y0070745D01*
X0126100Y0072343D02*
X0120100Y0072343D01*
X0120100Y0073942D02*
X0126100Y0073942D01*
X0126100Y0075540D02*
X0120100Y0075540D01*
X0120100Y0077139D02*
X0126100Y0077139D01*
X0126100Y0078737D02*
X0120100Y0078737D01*
X0120100Y0080336D02*
X0126100Y0080336D01*
X0126100Y0081934D02*
X0120100Y0081934D01*
X0120100Y0083533D02*
X0126100Y0083533D01*
X0126100Y0085132D02*
X0120100Y0085132D01*
X0120100Y0086730D02*
X0126100Y0086730D01*
X0126100Y0088329D02*
X0120100Y0088329D01*
X0120100Y0089927D02*
X0126100Y0089927D01*
X0126100Y0091526D02*
X0120100Y0091526D01*
X0120100Y0093124D02*
X0126100Y0093124D01*
X0126100Y0094723D02*
X0120100Y0094723D01*
D26*
X0123002Y0071600D02*
X0093600Y0071600D01*
D27*
X0090411Y0074789D01*
X0088600Y0066600D02*
X0083600Y0061600D01*
X0068600Y0061600D01*
X0058600Y0071600D01*
X0058600Y0101600D01*
X0048600Y0106600D02*
X0053600Y0111600D01*
X0093600Y0111600D01*
X0098600Y0106600D01*
X0098600Y0101600D01*
X0123600Y0096600D02*
X0123600Y0092088D01*
X0123600Y0096600D02*
X0128600Y0101600D01*
X0162100Y0101600D01*
X0168600Y0091600D01*
X0088600Y0066600D02*
X0068600Y0056600D01*
X0048600Y0056600D02*
X0048600Y0106600D01*
X0053600Y0111600D02*
X0058600Y0116600D01*
X0058600Y0121600D01*
X0048600Y0056600D02*
X0029517Y0042517D01*
X0035002Y0042517D01*
D28*
X0018600Y0021600D03*
X0018600Y0121600D03*
X0218600Y0121600D03*
X0218600Y0021600D03*
M02*
