%
M48
M72
T01C0.02756
T02C0.03150
T03C0.04000
T04C0.05906
T05C0.07874
T06C0.12598
%
T01
X106100Y24100
X116100Y24100
X126100Y24100
X136100Y24100
X146100Y24100
X156100Y24100
X166100Y24100
X176100Y24100
X186100Y24100
X196100Y24100
X196100Y34100
X186100Y34100
X176100Y34100
X166100Y34100
X156100Y34100
X146100Y34100
X126100Y34100
X116100Y34100
X106100Y34100
X106100Y44100
X116100Y44100
X126100Y44100
X126100Y54100
X116100Y54100
X106100Y54100
X146100Y65100
X154600Y79100
X186100Y94100
X186100Y104100
X196100Y104100
X196100Y54100
X196100Y44100
X167100Y46600
X35600Y77600
T02
X158600Y56600
T03
X208600Y84600
X208600Y104600
X168600Y91600
X158600Y91600
X148600Y91600
X98600Y101600
X78600Y101600
X58600Y101600
X38600Y101600
X38600Y121600
X58600Y121600
X78600Y121600
X98600Y121600
T04
X88600Y66600
X88600Y36600
T05
X35002Y42517
X35002Y62517
X216198Y62183
X216198Y42183
T06
X18600Y21600
X18600Y121600
X218600Y121600
X218600Y21600
M30
