G75*
%MOIN*%
%OFA0B0*%
%FSLAX25Y25*%
%IPPOS*%
%LPD*%
%AMOC8*
5,1,8,0,0,1.08239X$1,22.5*
%
%ADD10OC8,0.15800*%
%ADD11C,0.15800*%
%ADD12C,0.10800*%
%ADD13C,0.06800*%
%ADD14C,0.05950*%
%ADD15C,0.05156*%
%ADD16C,0.17398*%
D10*
X0088600Y0036600D03*
D11*
X0088600Y0066600D03*
X0035002Y0062517D03*
X0035002Y0042517D03*
X0216198Y0042183D03*
X0216198Y0062183D03*
D12*
X0208600Y0084600D03*
X0208600Y0104600D03*
D13*
X0168600Y0094600D02*
X0168600Y0088600D01*
X0158600Y0088600D02*
X0158600Y0094600D01*
X0148600Y0094600D02*
X0148600Y0088600D01*
X0101600Y0101600D02*
X0095600Y0101600D01*
X0081600Y0101600D02*
X0075600Y0101600D01*
X0061600Y0101600D02*
X0055600Y0101600D01*
X0041600Y0101600D02*
X0035600Y0101600D01*
X0035600Y0121600D02*
X0041600Y0121600D01*
X0055600Y0121600D02*
X0061600Y0121600D01*
X0075600Y0121600D02*
X0081600Y0121600D01*
X0095600Y0121600D02*
X0101600Y0121600D01*
D14*
X0158600Y0056600D03*
D15*
X0146100Y0065100D03*
X0126100Y0054100D03*
X0116100Y0054100D03*
X0106100Y0054100D03*
X0106100Y0044100D03*
X0116100Y0044100D03*
X0126100Y0044100D03*
X0126100Y0034100D03*
X0116100Y0034100D03*
X0106100Y0034100D03*
X0106100Y0024100D03*
X0116100Y0024100D03*
X0126100Y0024100D03*
X0136100Y0024100D03*
X0146100Y0024100D03*
X0156100Y0024100D03*
X0166100Y0024100D03*
X0176100Y0024100D03*
X0186100Y0024100D03*
X0196100Y0024100D03*
X0196100Y0034100D03*
X0186100Y0034100D03*
X0176100Y0034100D03*
X0166100Y0034100D03*
X0156100Y0034100D03*
X0146100Y0034100D03*
X0167100Y0046600D03*
X0196100Y0044100D03*
X0196100Y0054100D03*
X0154600Y0079100D03*
X0186100Y0094100D03*
X0186100Y0104100D03*
X0196100Y0104100D03*
X0035600Y0077600D03*
D16*
X0018600Y0021600D03*
X0018600Y0121600D03*
X0218600Y0121600D03*
X0218600Y0021600D03*
M02*
