G75*
%MOIN*%
%OFA0B0*%
%FSLAX25Y25*%
%IPPOS*%
%LPD*%
%AMOC8*
5,1,8,0,0,1.08239X$1,22.5*
%
%ADD10OC8,0.15000*%
%ADD11C,0.15000*%
%ADD12C,0.10000*%
%ADD13C,0.06000*%
%ADD14C,0.05150*%
%ADD15C,0.04356*%
%ADD16C,0.01200*%
%ADD17C,0.04000*%
%ADD18C,0.16598*%
D10*
X0088600Y0036600D03*
D11*
X0088600Y0066600D03*
X0035002Y0062517D03*
X0035002Y0042517D03*
X0216198Y0042183D03*
X0216198Y0062183D03*
D12*
X0208600Y0084600D03*
X0208600Y0104600D03*
D13*
X0168600Y0094600D02*
X0168600Y0088600D01*
X0158600Y0088600D02*
X0158600Y0094600D01*
X0148600Y0094600D02*
X0148600Y0088600D01*
X0101600Y0101600D02*
X0095600Y0101600D01*
X0081600Y0101600D02*
X0075600Y0101600D01*
X0061600Y0101600D02*
X0055600Y0101600D01*
X0041600Y0101600D02*
X0035600Y0101600D01*
X0035600Y0121600D02*
X0041600Y0121600D01*
X0055600Y0121600D02*
X0061600Y0121600D01*
X0075600Y0121600D02*
X0081600Y0121600D01*
X0095600Y0121600D02*
X0101600Y0121600D01*
D14*
X0158600Y0056600D03*
D15*
X0146100Y0065100D03*
X0126100Y0054100D03*
X0116100Y0054100D03*
X0106100Y0054100D03*
X0106100Y0044100D03*
X0116100Y0044100D03*
X0126100Y0044100D03*
X0126100Y0034100D03*
X0116100Y0034100D03*
X0106100Y0034100D03*
X0106100Y0024100D03*
X0116100Y0024100D03*
X0126100Y0024100D03*
X0136100Y0024100D03*
X0146100Y0024100D03*
X0156100Y0024100D03*
X0166100Y0024100D03*
X0176100Y0024100D03*
X0186100Y0024100D03*
X0196100Y0024100D03*
X0196100Y0034100D03*
X0186100Y0034100D03*
X0176100Y0034100D03*
X0166100Y0034100D03*
X0156100Y0034100D03*
X0146100Y0034100D03*
X0167100Y0046600D03*
X0196100Y0044100D03*
X0196100Y0054100D03*
X0154600Y0079100D03*
X0186100Y0094100D03*
X0186100Y0104100D03*
X0196100Y0104100D03*
X0035600Y0077600D03*
D16*
X0008200Y0011600D02*
X0228921Y0011600D01*
X0228921Y0135701D01*
X0008200Y0135701D01*
X0008200Y0011600D01*
X0228921Y0011600D01*
X0228921Y0012799D02*
X0222174Y0012799D01*
X0220490Y0012101D02*
X0223981Y0013547D01*
X0226653Y0016219D01*
X0228099Y0019710D01*
X0228099Y0023490D01*
X0226653Y0026981D01*
X0223981Y0029653D01*
X0220490Y0031099D01*
X0216710Y0031099D01*
X0213219Y0029653D01*
X0210547Y0026981D01*
X0209101Y0023490D01*
X0209101Y0019710D01*
X0210547Y0016219D01*
X0213219Y0013547D01*
X0216710Y0012101D01*
X0220490Y0012101D01*
X0224431Y0013997D02*
X0228921Y0013997D01*
X0228921Y0015196D02*
X0225629Y0015196D01*
X0226725Y0016394D02*
X0228921Y0016394D01*
X0228921Y0017593D02*
X0227222Y0017593D01*
X0227718Y0018791D02*
X0228921Y0018791D01*
X0228921Y0019990D02*
X0228099Y0019990D01*
X0228099Y0021188D02*
X0228921Y0021188D01*
X0228921Y0022387D02*
X0228099Y0022387D01*
X0228060Y0023585D02*
X0228921Y0023585D01*
X0228921Y0024784D02*
X0227563Y0024784D01*
X0227067Y0025982D02*
X0228921Y0025982D01*
X0228921Y0027181D02*
X0226453Y0027181D01*
X0225255Y0028379D02*
X0228921Y0028379D01*
X0228921Y0029578D02*
X0224056Y0029578D01*
X0221269Y0030776D02*
X0228921Y0030776D01*
X0228921Y0031975D02*
X0008200Y0031975D01*
X0008200Y0033173D02*
X0228921Y0033173D01*
X0228921Y0034372D02*
X0038071Y0034372D01*
X0036732Y0033817D02*
X0039930Y0035141D01*
X0042377Y0037589D01*
X0043702Y0040786D01*
X0043702Y0044247D01*
X0042377Y0047445D01*
X0039930Y0049892D01*
X0036732Y0051217D01*
X0033271Y0051217D01*
X0030073Y0049892D01*
X0027626Y0047445D01*
X0026302Y0044247D01*
X0026302Y0040786D01*
X0027626Y0037589D01*
X0030073Y0035141D01*
X0033271Y0033817D01*
X0036732Y0033817D01*
X0040359Y0035570D02*
X0228921Y0035570D01*
X0228921Y0036769D02*
X0041557Y0036769D01*
X0042534Y0037967D02*
X0228921Y0037967D01*
X0228921Y0039166D02*
X0043030Y0039166D01*
X0043527Y0040364D02*
X0228921Y0040364D01*
X0228921Y0041563D02*
X0043702Y0041563D01*
X0043702Y0042761D02*
X0228921Y0042761D01*
X0228921Y0043960D02*
X0169237Y0043960D01*
X0169013Y0043736D02*
X0169964Y0044687D01*
X0170478Y0045928D01*
X0170478Y0047272D01*
X0169964Y0048513D01*
X0169013Y0049464D01*
X0167772Y0049978D01*
X0166428Y0049978D01*
X0165187Y0049464D01*
X0164236Y0048513D01*
X0164189Y0048400D01*
X0152388Y0048400D01*
X0147400Y0053804D01*
X0147400Y0061982D01*
X0148013Y0062236D01*
X0148964Y0063187D01*
X0149478Y0064428D01*
X0149478Y0065772D01*
X0148964Y0067013D01*
X0148013Y0067964D01*
X0146772Y0068478D01*
X0145428Y0068478D01*
X0144187Y0067964D01*
X0143236Y0067013D01*
X0142722Y0065772D01*
X0142722Y0064428D01*
X0143236Y0063187D01*
X0143800Y0062623D01*
X0143800Y0053136D01*
X0143772Y0052427D01*
X0143800Y0052396D01*
X0143800Y0052354D01*
X0144302Y0051853D01*
X0149800Y0045896D01*
X0149800Y0045854D01*
X0150302Y0045353D01*
X0150783Y0044831D01*
X0150825Y0044830D01*
X0150854Y0044800D01*
X0151564Y0044800D01*
X0152273Y0044772D01*
X0152304Y0044800D01*
X0164189Y0044800D01*
X0164236Y0044687D01*
X0165187Y0043736D01*
X0166428Y0043222D01*
X0167772Y0043222D01*
X0169013Y0043736D01*
X0170159Y0045158D02*
X0228921Y0045158D01*
X0228921Y0046357D02*
X0170478Y0046357D01*
X0170361Y0047555D02*
X0228921Y0047555D01*
X0228921Y0048754D02*
X0169723Y0048754D01*
X0167834Y0049952D02*
X0228921Y0049952D01*
X0228921Y0051151D02*
X0149849Y0051151D01*
X0150955Y0049952D02*
X0166366Y0049952D01*
X0164477Y0048754D02*
X0152061Y0048754D01*
X0151600Y0046600D02*
X0145600Y0053100D01*
X0145600Y0064600D01*
X0146100Y0065100D01*
X0143120Y0066732D02*
X0097300Y0066732D01*
X0097300Y0067930D02*
X0144153Y0067930D01*
X0148047Y0067930D02*
X0209642Y0067930D01*
X0208823Y0067111D02*
X0207498Y0063914D01*
X0207498Y0060453D01*
X0208823Y0057255D01*
X0211270Y0054808D01*
X0214468Y0053483D01*
X0217929Y0053483D01*
X0221127Y0054808D01*
X0223574Y0057255D01*
X0224898Y0060453D01*
X0224898Y0063914D01*
X0223574Y0067111D01*
X0221127Y0069559D01*
X0217929Y0070883D01*
X0214468Y0070883D01*
X0211270Y0069559D01*
X0208823Y0067111D01*
X0208666Y0066732D02*
X0149080Y0066732D01*
X0149478Y0065533D02*
X0208169Y0065533D01*
X0207673Y0064334D02*
X0149439Y0064334D01*
X0148913Y0063136D02*
X0207498Y0063136D01*
X0207498Y0061937D02*
X0147400Y0061937D01*
X0147400Y0060739D02*
X0207498Y0060739D01*
X0207876Y0059540D02*
X0147400Y0059540D01*
X0147400Y0058342D02*
X0208373Y0058342D01*
X0208934Y0057143D02*
X0147400Y0057143D01*
X0147400Y0055945D02*
X0210133Y0055945D01*
X0211418Y0054746D02*
X0147400Y0054746D01*
X0147636Y0053548D02*
X0214311Y0053548D01*
X0218085Y0053548D02*
X0228921Y0053548D01*
X0228921Y0054746D02*
X0220979Y0054746D01*
X0222264Y0055945D02*
X0228921Y0055945D01*
X0228921Y0057143D02*
X0223462Y0057143D01*
X0224024Y0058342D02*
X0228921Y0058342D01*
X0228921Y0059540D02*
X0224521Y0059540D01*
X0224898Y0060739D02*
X0228921Y0060739D01*
X0228921Y0061937D02*
X0224898Y0061937D01*
X0224898Y0063136D02*
X0228921Y0063136D01*
X0228921Y0064334D02*
X0224724Y0064334D01*
X0224228Y0065533D02*
X0228921Y0065533D01*
X0228921Y0066732D02*
X0223731Y0066732D01*
X0222755Y0067930D02*
X0228921Y0067930D01*
X0228921Y0069129D02*
X0221557Y0069129D01*
X0219271Y0070327D02*
X0228921Y0070327D01*
X0228921Y0071526D02*
X0095977Y0071526D01*
X0095975Y0071528D02*
X0093528Y0073975D01*
X0090331Y0075300D01*
X0086869Y0075300D01*
X0083672Y0073975D01*
X0081224Y0071528D01*
X0079900Y0068331D01*
X0079900Y0064869D01*
X0081224Y0061672D01*
X0083672Y0059224D01*
X0086869Y0057900D01*
X0090331Y0057900D01*
X0093528Y0059224D01*
X0095975Y0061672D01*
X0097300Y0064869D01*
X0097300Y0068331D01*
X0095975Y0071528D01*
X0096473Y0070327D02*
X0213126Y0070327D01*
X0210840Y0069129D02*
X0096969Y0069129D01*
X0097300Y0065533D02*
X0142722Y0065533D01*
X0142761Y0064334D02*
X0097078Y0064334D01*
X0096582Y0063136D02*
X0143287Y0063136D01*
X0143800Y0061937D02*
X0096086Y0061937D01*
X0095043Y0060739D02*
X0143800Y0060739D01*
X0143800Y0059540D02*
X0093844Y0059540D01*
X0091397Y0058342D02*
X0143800Y0058342D01*
X0143800Y0057143D02*
X0041932Y0057143D01*
X0042377Y0057589D02*
X0043702Y0060786D01*
X0043702Y0064247D01*
X0042377Y0067445D01*
X0039930Y0069892D01*
X0036732Y0071217D01*
X0033271Y0071217D01*
X0031800Y0070608D01*
X0031800Y0099799D01*
X0032039Y0099221D01*
X0033221Y0098039D01*
X0034765Y0097400D01*
X0042435Y0097400D01*
X0043979Y0098039D01*
X0044340Y0098400D01*
X0052860Y0098400D01*
X0053221Y0098039D01*
X0054765Y0097400D01*
X0062435Y0097400D01*
X0063979Y0098039D01*
X0065161Y0099221D01*
X0065800Y0100765D01*
X0065800Y0102435D01*
X0065161Y0103979D01*
X0063979Y0105161D01*
X0062435Y0105800D01*
X0054765Y0105800D01*
X0053221Y0105161D01*
X0052860Y0104800D01*
X0044340Y0104800D01*
X0043979Y0105161D01*
X0042435Y0105800D01*
X0034765Y0105800D01*
X0033221Y0105161D01*
X0032039Y0103979D01*
X0031800Y0103401D01*
X0031800Y0105275D01*
X0037425Y0110900D01*
X0069775Y0110900D01*
X0074875Y0105800D01*
X0074765Y0105800D01*
X0073221Y0105161D01*
X0072039Y0103979D01*
X0071400Y0102435D01*
X0071400Y0100765D01*
X0072039Y0099221D01*
X0073221Y0098039D01*
X0074765Y0097400D01*
X0082435Y0097400D01*
X0083979Y0098039D01*
X0085161Y0099221D01*
X0085800Y0100765D01*
X0085800Y0102435D01*
X0085161Y0103979D01*
X0083979Y0105161D01*
X0082435Y0105800D01*
X0081300Y0105800D01*
X0081300Y0107737D01*
X0080813Y0108913D01*
X0079913Y0109813D01*
X0072913Y0116813D01*
X0071737Y0117300D01*
X0047425Y0117300D01*
X0045261Y0119464D01*
X0045800Y0120765D01*
X0045800Y0122435D01*
X0045161Y0123979D01*
X0043979Y0125161D01*
X0042435Y0125800D01*
X0034765Y0125800D01*
X0033221Y0125161D01*
X0032039Y0123979D01*
X0031400Y0122435D01*
X0031400Y0120765D01*
X0032039Y0119221D01*
X0033221Y0118039D01*
X0034765Y0117400D01*
X0038275Y0117400D01*
X0038375Y0117300D01*
X0035463Y0117300D01*
X0034287Y0116813D01*
X0026787Y0109313D01*
X0025887Y0108413D01*
X0025400Y0107237D01*
X0025400Y0068282D01*
X0025887Y0067106D01*
X0027017Y0065976D01*
X0026302Y0064247D01*
X0026302Y0060786D01*
X0027626Y0057589D01*
X0030073Y0055141D01*
X0033271Y0053817D01*
X0036732Y0053817D01*
X0039930Y0055141D01*
X0042377Y0057589D01*
X0042689Y0058342D02*
X0085803Y0058342D01*
X0083356Y0059540D02*
X0043185Y0059540D01*
X0043682Y0060739D02*
X0082157Y0060739D01*
X0081114Y0061937D02*
X0043702Y0061937D01*
X0043702Y0063136D02*
X0080618Y0063136D01*
X0080122Y0064334D02*
X0043666Y0064334D01*
X0043169Y0065533D02*
X0079900Y0065533D01*
X0079900Y0066732D02*
X0042673Y0066732D01*
X0041892Y0067930D02*
X0079900Y0067930D01*
X0080231Y0069129D02*
X0040694Y0069129D01*
X0038880Y0070327D02*
X0080727Y0070327D01*
X0081223Y0071526D02*
X0031800Y0071526D01*
X0031800Y0072724D02*
X0082420Y0072724D01*
X0083619Y0073923D02*
X0031800Y0073923D01*
X0031800Y0075121D02*
X0086438Y0075121D01*
X0090762Y0075121D02*
X0228921Y0075121D01*
X0228921Y0073923D02*
X0093581Y0073923D01*
X0094780Y0072724D02*
X0228921Y0072724D01*
X0228921Y0076320D02*
X0031800Y0076320D01*
X0031800Y0077518D02*
X0228921Y0077518D01*
X0228921Y0078717D02*
X0210598Y0078717D01*
X0209833Y0078400D02*
X0212112Y0079344D01*
X0213856Y0081088D01*
X0214800Y0083367D01*
X0214800Y0085833D01*
X0213856Y0088112D01*
X0212112Y0089856D01*
X0209833Y0090800D01*
X0207367Y0090800D01*
X0205088Y0089856D01*
X0203344Y0088112D01*
X0202400Y0085833D01*
X0202400Y0083367D01*
X0203344Y0081088D01*
X0205088Y0079344D01*
X0207367Y0078400D01*
X0209833Y0078400D01*
X0206602Y0078717D02*
X0031800Y0078717D01*
X0031800Y0079915D02*
X0204517Y0079915D01*
X0203333Y0081114D02*
X0031800Y0081114D01*
X0031800Y0082312D02*
X0202837Y0082312D01*
X0202400Y0083511D02*
X0031800Y0083511D01*
X0031800Y0084709D02*
X0147018Y0084709D01*
X0147765Y0084400D02*
X0149435Y0084400D01*
X0150979Y0085039D01*
X0152161Y0086221D01*
X0152800Y0087765D01*
X0152800Y0095435D01*
X0152161Y0096979D01*
X0150979Y0098161D01*
X0149435Y0098800D01*
X0147765Y0098800D01*
X0146221Y0098161D01*
X0145039Y0096979D01*
X0144400Y0095435D01*
X0144400Y0087765D01*
X0145039Y0086221D01*
X0146221Y0085039D01*
X0147765Y0084400D01*
X0150182Y0084709D02*
X0157018Y0084709D01*
X0157765Y0084400D02*
X0159435Y0084400D01*
X0160979Y0085039D01*
X0162161Y0086221D01*
X0162800Y0087765D01*
X0162800Y0095435D01*
X0162161Y0096979D01*
X0160979Y0098161D01*
X0159435Y0098800D01*
X0157765Y0098800D01*
X0156221Y0098161D01*
X0155039Y0096979D01*
X0154400Y0095435D01*
X0154400Y0087765D01*
X0155039Y0086221D01*
X0156221Y0085039D01*
X0157765Y0084400D01*
X0160182Y0084709D02*
X0167018Y0084709D01*
X0167765Y0084400D02*
X0166221Y0085039D01*
X0165039Y0086221D01*
X0164400Y0087765D01*
X0164400Y0095435D01*
X0165039Y0096979D01*
X0166221Y0098161D01*
X0167765Y0098800D01*
X0169435Y0098800D01*
X0170979Y0098161D01*
X0172161Y0096979D01*
X0172800Y0095435D01*
X0172800Y0087765D01*
X0172161Y0086221D01*
X0170979Y0085039D01*
X0169435Y0084400D01*
X0167765Y0084400D01*
X0170182Y0084709D02*
X0202400Y0084709D01*
X0202431Y0085908D02*
X0171847Y0085908D01*
X0172527Y0087106D02*
X0202927Y0087106D01*
X0203537Y0088305D02*
X0172800Y0088305D01*
X0172800Y0089503D02*
X0204735Y0089503D01*
X0207130Y0090702D02*
X0172800Y0090702D01*
X0172800Y0091900D02*
X0228921Y0091900D01*
X0228921Y0090702D02*
X0210070Y0090702D01*
X0212465Y0089503D02*
X0228921Y0089503D01*
X0228921Y0088305D02*
X0213663Y0088305D01*
X0214273Y0087106D02*
X0228921Y0087106D01*
X0228921Y0085908D02*
X0214769Y0085908D01*
X0214800Y0084709D02*
X0228921Y0084709D01*
X0228921Y0083511D02*
X0214800Y0083511D01*
X0214363Y0082312D02*
X0228921Y0082312D01*
X0228921Y0081114D02*
X0213867Y0081114D01*
X0212683Y0079915D02*
X0228921Y0079915D01*
X0228921Y0093099D02*
X0172800Y0093099D01*
X0172800Y0094297D02*
X0228921Y0094297D01*
X0228921Y0095496D02*
X0172775Y0095496D01*
X0172279Y0096694D02*
X0228921Y0096694D01*
X0228921Y0097893D02*
X0171247Y0097893D01*
X0165953Y0097893D02*
X0161247Y0097893D01*
X0162279Y0096694D02*
X0164921Y0096694D01*
X0164425Y0095496D02*
X0162775Y0095496D01*
X0162800Y0094297D02*
X0164400Y0094297D01*
X0164400Y0093099D02*
X0162800Y0093099D01*
X0162800Y0091900D02*
X0164400Y0091900D01*
X0164400Y0090702D02*
X0162800Y0090702D01*
X0162800Y0089503D02*
X0164400Y0089503D01*
X0164400Y0088305D02*
X0162800Y0088305D01*
X0162527Y0087106D02*
X0164673Y0087106D01*
X0165353Y0085908D02*
X0161847Y0085908D01*
X0155353Y0085908D02*
X0151847Y0085908D01*
X0152527Y0087106D02*
X0154673Y0087106D01*
X0154400Y0088305D02*
X0152800Y0088305D01*
X0152800Y0089503D02*
X0154400Y0089503D01*
X0154400Y0090702D02*
X0152800Y0090702D01*
X0152800Y0091900D02*
X0154400Y0091900D01*
X0154400Y0093099D02*
X0152800Y0093099D01*
X0152800Y0094297D02*
X0154400Y0094297D01*
X0154425Y0095496D02*
X0152775Y0095496D01*
X0152279Y0096694D02*
X0154921Y0096694D01*
X0155953Y0097893D02*
X0151247Y0097893D01*
X0145953Y0097893D02*
X0103625Y0097893D01*
X0103979Y0098039D02*
X0102435Y0097400D01*
X0094765Y0097400D01*
X0093221Y0098039D01*
X0092039Y0099221D01*
X0091400Y0100765D01*
X0091400Y0102435D01*
X0092039Y0103979D01*
X0093221Y0105161D01*
X0094765Y0105800D01*
X0102435Y0105800D01*
X0103979Y0105161D01*
X0105161Y0103979D01*
X0105800Y0102435D01*
X0105800Y0100765D01*
X0105161Y0099221D01*
X0103979Y0098039D01*
X0105031Y0099091D02*
X0228921Y0099091D01*
X0228921Y0100290D02*
X0105603Y0100290D01*
X0105800Y0101488D02*
X0228921Y0101488D01*
X0228921Y0102687D02*
X0105696Y0102687D01*
X0105199Y0103885D02*
X0228921Y0103885D01*
X0228921Y0105084D02*
X0104056Y0105084D01*
X0093144Y0105084D02*
X0084056Y0105084D01*
X0085199Y0103885D02*
X0092001Y0103885D01*
X0091504Y0102687D02*
X0085696Y0102687D01*
X0085800Y0101488D02*
X0091400Y0101488D01*
X0091597Y0100290D02*
X0085603Y0100290D01*
X0085031Y0099091D02*
X0092169Y0099091D01*
X0093575Y0097893D02*
X0083625Y0097893D01*
X0073575Y0097893D02*
X0063625Y0097893D01*
X0065031Y0099091D02*
X0072169Y0099091D01*
X0071597Y0100290D02*
X0065603Y0100290D01*
X0065800Y0101488D02*
X0071400Y0101488D01*
X0071504Y0102687D02*
X0065696Y0102687D01*
X0065199Y0103885D02*
X0072001Y0103885D01*
X0073144Y0105084D02*
X0064056Y0105084D01*
X0070797Y0109878D02*
X0036403Y0109878D01*
X0035205Y0108679D02*
X0071995Y0108679D01*
X0073194Y0107481D02*
X0034006Y0107481D01*
X0032808Y0106282D02*
X0074392Y0106282D01*
X0079848Y0109878D02*
X0228921Y0109878D01*
X0228921Y0111076D02*
X0078649Y0111076D01*
X0077451Y0112275D02*
X0216290Y0112275D01*
X0216710Y0112101D02*
X0220490Y0112101D01*
X0223981Y0113547D01*
X0226653Y0116219D01*
X0228099Y0119710D01*
X0228099Y0123490D01*
X0226653Y0126981D01*
X0223981Y0129653D01*
X0220490Y0131099D01*
X0216710Y0131099D01*
X0213219Y0129653D01*
X0210547Y0126981D01*
X0209101Y0123490D01*
X0209101Y0119710D01*
X0210547Y0116219D01*
X0213219Y0113547D01*
X0216710Y0112101D01*
X0213397Y0113473D02*
X0076252Y0113473D01*
X0075053Y0114672D02*
X0212094Y0114672D01*
X0210896Y0115870D02*
X0073855Y0115870D01*
X0072294Y0117069D02*
X0210195Y0117069D01*
X0209698Y0118268D02*
X0064207Y0118268D01*
X0063979Y0118039D02*
X0065161Y0119221D01*
X0065800Y0120765D01*
X0065800Y0122435D01*
X0065161Y0123979D01*
X0063979Y0125161D01*
X0062435Y0125800D01*
X0054765Y0125800D01*
X0053221Y0125161D01*
X0052039Y0123979D01*
X0051400Y0122435D01*
X0051400Y0120765D01*
X0052039Y0119221D01*
X0053221Y0118039D01*
X0054765Y0117400D01*
X0062435Y0117400D01*
X0063979Y0118039D01*
X0065262Y0119466D02*
X0209202Y0119466D01*
X0209101Y0120665D02*
X0065759Y0120665D01*
X0065800Y0121863D02*
X0209101Y0121863D01*
X0209101Y0123062D02*
X0065541Y0123062D01*
X0064880Y0124260D02*
X0209420Y0124260D01*
X0209916Y0125459D02*
X0063260Y0125459D01*
X0053940Y0125459D02*
X0043260Y0125459D01*
X0044880Y0124260D02*
X0052320Y0124260D01*
X0051659Y0123062D02*
X0045541Y0123062D01*
X0045800Y0121863D02*
X0051400Y0121863D01*
X0051441Y0120665D02*
X0045759Y0120665D01*
X0045262Y0119466D02*
X0051938Y0119466D01*
X0052993Y0118268D02*
X0046458Y0118268D01*
X0034906Y0117069D02*
X0027005Y0117069D01*
X0026653Y0116219D02*
X0028099Y0119710D01*
X0028099Y0123490D01*
X0026653Y0126981D01*
X0023981Y0129653D01*
X0020490Y0131099D01*
X0016710Y0131099D01*
X0013219Y0129653D01*
X0010547Y0126981D01*
X0009101Y0123490D01*
X0009101Y0119710D01*
X0010547Y0116219D01*
X0013219Y0113547D01*
X0016710Y0112101D01*
X0020490Y0112101D01*
X0023981Y0113547D01*
X0026653Y0116219D01*
X0026304Y0115870D02*
X0033345Y0115870D01*
X0032146Y0114672D02*
X0025106Y0114672D01*
X0023803Y0113473D02*
X0030948Y0113473D01*
X0029749Y0112275D02*
X0020910Y0112275D01*
X0016290Y0112275D02*
X0008200Y0112275D01*
X0008200Y0113473D02*
X0013397Y0113473D01*
X0012094Y0114672D02*
X0008200Y0114672D01*
X0008200Y0115870D02*
X0010896Y0115870D01*
X0010195Y0117069D02*
X0008200Y0117069D01*
X0008200Y0118268D02*
X0009698Y0118268D01*
X0009202Y0119466D02*
X0008200Y0119466D01*
X0008200Y0120665D02*
X0009101Y0120665D01*
X0009101Y0121863D02*
X0008200Y0121863D01*
X0008200Y0123062D02*
X0009101Y0123062D01*
X0009420Y0124260D02*
X0008200Y0124260D01*
X0008200Y0125459D02*
X0009916Y0125459D01*
X0010413Y0126657D02*
X0008200Y0126657D01*
X0008200Y0127856D02*
X0011422Y0127856D01*
X0012620Y0129054D02*
X0008200Y0129054D01*
X0008200Y0130253D02*
X0014667Y0130253D01*
X0008200Y0131451D02*
X0228921Y0131451D01*
X0228921Y0130253D02*
X0222533Y0130253D01*
X0224580Y0129054D02*
X0228921Y0129054D01*
X0228921Y0127856D02*
X0225778Y0127856D01*
X0226787Y0126657D02*
X0228921Y0126657D01*
X0228921Y0125459D02*
X0227284Y0125459D01*
X0227780Y0124260D02*
X0228921Y0124260D01*
X0228921Y0123062D02*
X0228099Y0123062D01*
X0228099Y0121863D02*
X0228921Y0121863D01*
X0228921Y0120665D02*
X0228099Y0120665D01*
X0227998Y0119466D02*
X0228921Y0119466D01*
X0228921Y0118268D02*
X0227502Y0118268D01*
X0227005Y0117069D02*
X0228921Y0117069D01*
X0228921Y0115870D02*
X0226304Y0115870D01*
X0225106Y0114672D02*
X0228921Y0114672D01*
X0228921Y0113473D02*
X0223803Y0113473D01*
X0220910Y0112275D02*
X0228921Y0112275D01*
X0228921Y0108679D02*
X0080909Y0108679D01*
X0081300Y0107481D02*
X0228921Y0107481D01*
X0228921Y0106282D02*
X0081300Y0106282D01*
X0053144Y0105084D02*
X0044056Y0105084D01*
X0033144Y0105084D02*
X0031800Y0105084D01*
X0031800Y0103885D02*
X0032001Y0103885D01*
X0032169Y0099091D02*
X0031800Y0099091D01*
X0031800Y0097893D02*
X0033575Y0097893D01*
X0031800Y0096694D02*
X0144921Y0096694D01*
X0144425Y0095496D02*
X0031800Y0095496D01*
X0031800Y0094297D02*
X0144400Y0094297D01*
X0144400Y0093099D02*
X0031800Y0093099D01*
X0031800Y0091900D02*
X0144400Y0091900D01*
X0144400Y0090702D02*
X0031800Y0090702D01*
X0031800Y0089503D02*
X0144400Y0089503D01*
X0144400Y0088305D02*
X0031800Y0088305D01*
X0031800Y0087106D02*
X0144673Y0087106D01*
X0145353Y0085908D02*
X0031800Y0085908D01*
X0025400Y0085908D02*
X0008200Y0085908D01*
X0008200Y0087106D02*
X0025400Y0087106D01*
X0025400Y0088305D02*
X0008200Y0088305D01*
X0008200Y0089503D02*
X0025400Y0089503D01*
X0025400Y0090702D02*
X0008200Y0090702D01*
X0008200Y0091900D02*
X0025400Y0091900D01*
X0025400Y0093099D02*
X0008200Y0093099D01*
X0008200Y0094297D02*
X0025400Y0094297D01*
X0025400Y0095496D02*
X0008200Y0095496D01*
X0008200Y0096694D02*
X0025400Y0096694D01*
X0025400Y0097893D02*
X0008200Y0097893D01*
X0008200Y0099091D02*
X0025400Y0099091D01*
X0025400Y0100290D02*
X0008200Y0100290D01*
X0008200Y0101488D02*
X0025400Y0101488D01*
X0025400Y0102687D02*
X0008200Y0102687D01*
X0008200Y0103885D02*
X0025400Y0103885D01*
X0025400Y0105084D02*
X0008200Y0105084D01*
X0008200Y0106282D02*
X0025400Y0106282D01*
X0025501Y0107481D02*
X0008200Y0107481D01*
X0008200Y0108679D02*
X0026154Y0108679D01*
X0027352Y0109878D02*
X0008200Y0109878D01*
X0008200Y0111076D02*
X0028551Y0111076D01*
X0027502Y0118268D02*
X0032993Y0118268D01*
X0031938Y0119466D02*
X0027998Y0119466D01*
X0028099Y0120665D02*
X0031441Y0120665D01*
X0031400Y0121863D02*
X0028099Y0121863D01*
X0028099Y0123062D02*
X0031659Y0123062D01*
X0032320Y0124260D02*
X0027780Y0124260D01*
X0027284Y0125459D02*
X0033940Y0125459D01*
X0026787Y0126657D02*
X0210413Y0126657D01*
X0211422Y0127856D02*
X0025778Y0127856D01*
X0024580Y0129054D02*
X0212620Y0129054D01*
X0214667Y0130253D02*
X0022533Y0130253D01*
X0008200Y0132650D02*
X0228921Y0132650D01*
X0228921Y0133848D02*
X0008200Y0133848D01*
X0008200Y0135047D02*
X0228921Y0135047D01*
X0143800Y0055945D02*
X0040733Y0055945D01*
X0038976Y0054746D02*
X0143800Y0054746D01*
X0143800Y0053548D02*
X0008200Y0053548D01*
X0008200Y0054746D02*
X0031027Y0054746D01*
X0029270Y0055945D02*
X0008200Y0055945D01*
X0008200Y0057143D02*
X0028071Y0057143D01*
X0027314Y0058342D02*
X0008200Y0058342D01*
X0008200Y0059540D02*
X0026818Y0059540D01*
X0026321Y0060739D02*
X0008200Y0060739D01*
X0008200Y0061937D02*
X0026302Y0061937D01*
X0026302Y0063136D02*
X0008200Y0063136D01*
X0008200Y0064334D02*
X0026338Y0064334D01*
X0026834Y0065533D02*
X0008200Y0065533D01*
X0008200Y0066732D02*
X0026261Y0066732D01*
X0025546Y0067930D02*
X0008200Y0067930D01*
X0008200Y0069129D02*
X0025400Y0069129D01*
X0025400Y0070327D02*
X0008200Y0070327D01*
X0008200Y0071526D02*
X0025400Y0071526D01*
X0025400Y0072724D02*
X0008200Y0072724D01*
X0008200Y0073923D02*
X0025400Y0073923D01*
X0025400Y0075121D02*
X0008200Y0075121D01*
X0008200Y0076320D02*
X0025400Y0076320D01*
X0025400Y0077518D02*
X0008200Y0077518D01*
X0008200Y0078717D02*
X0025400Y0078717D01*
X0025400Y0079915D02*
X0008200Y0079915D01*
X0008200Y0081114D02*
X0025400Y0081114D01*
X0025400Y0082312D02*
X0008200Y0082312D01*
X0008200Y0083511D02*
X0025400Y0083511D01*
X0025400Y0084709D02*
X0008200Y0084709D01*
X0043625Y0097893D02*
X0053575Y0097893D01*
X0008200Y0052349D02*
X0143805Y0052349D01*
X0144950Y0051151D02*
X0036892Y0051151D01*
X0039785Y0049952D02*
X0146056Y0049952D01*
X0147162Y0048754D02*
X0041068Y0048754D01*
X0042267Y0047555D02*
X0148269Y0047555D01*
X0149375Y0046357D02*
X0042828Y0046357D01*
X0043324Y0045158D02*
X0150481Y0045158D01*
X0151600Y0046600D02*
X0167100Y0046600D01*
X0164963Y0043960D02*
X0043702Y0043960D01*
X0033112Y0051151D02*
X0008200Y0051151D01*
X0008200Y0049952D02*
X0030218Y0049952D01*
X0028935Y0048754D02*
X0008200Y0048754D01*
X0008200Y0047555D02*
X0027736Y0047555D01*
X0027175Y0046357D02*
X0008200Y0046357D01*
X0008200Y0045158D02*
X0026679Y0045158D01*
X0026302Y0043960D02*
X0008200Y0043960D01*
X0008200Y0042761D02*
X0026302Y0042761D01*
X0026302Y0041563D02*
X0008200Y0041563D01*
X0008200Y0040364D02*
X0026476Y0040364D01*
X0026973Y0039166D02*
X0008200Y0039166D01*
X0008200Y0037967D02*
X0027469Y0037967D01*
X0028446Y0036769D02*
X0008200Y0036769D01*
X0008200Y0035570D02*
X0029645Y0035570D01*
X0031932Y0034372D02*
X0008200Y0034372D01*
X0008200Y0030776D02*
X0015931Y0030776D01*
X0016710Y0031099D02*
X0013219Y0029653D01*
X0010547Y0026981D01*
X0009101Y0023490D01*
X0009101Y0019710D01*
X0010547Y0016219D01*
X0013219Y0013547D01*
X0016710Y0012101D01*
X0020490Y0012101D01*
X0023981Y0013547D01*
X0026653Y0016219D01*
X0028099Y0019710D01*
X0028099Y0023490D01*
X0026653Y0026981D01*
X0023981Y0029653D01*
X0020490Y0031099D01*
X0016710Y0031099D01*
X0013144Y0029578D02*
X0008200Y0029578D01*
X0008200Y0028379D02*
X0011945Y0028379D01*
X0010747Y0027181D02*
X0008200Y0027181D01*
X0008200Y0025982D02*
X0010133Y0025982D01*
X0009637Y0024784D02*
X0008200Y0024784D01*
X0008200Y0023585D02*
X0009140Y0023585D01*
X0009101Y0022387D02*
X0008200Y0022387D01*
X0008200Y0021188D02*
X0009101Y0021188D01*
X0009101Y0019990D02*
X0008200Y0019990D01*
X0008200Y0018791D02*
X0009482Y0018791D01*
X0009978Y0017593D02*
X0008200Y0017593D01*
X0008200Y0016394D02*
X0010474Y0016394D01*
X0011571Y0015196D02*
X0008200Y0015196D01*
X0008200Y0013997D02*
X0012769Y0013997D01*
X0015026Y0012799D02*
X0008200Y0012799D01*
X0022174Y0012799D02*
X0215026Y0012799D01*
X0212769Y0013997D02*
X0024431Y0013997D01*
X0025629Y0015196D02*
X0211571Y0015196D01*
X0210474Y0016394D02*
X0026725Y0016394D01*
X0027222Y0017593D02*
X0209978Y0017593D01*
X0209482Y0018791D02*
X0027718Y0018791D01*
X0028099Y0019990D02*
X0209101Y0019990D01*
X0209101Y0021188D02*
X0028099Y0021188D01*
X0028099Y0022387D02*
X0209101Y0022387D01*
X0209140Y0023585D02*
X0028060Y0023585D01*
X0027563Y0024784D02*
X0209637Y0024784D01*
X0210133Y0025982D02*
X0027067Y0025982D01*
X0026453Y0027181D02*
X0210747Y0027181D01*
X0211945Y0028379D02*
X0025255Y0028379D01*
X0024056Y0029578D02*
X0213144Y0029578D01*
X0215931Y0030776D02*
X0021269Y0030776D01*
X0148742Y0052349D02*
X0228921Y0052349D01*
D17*
X0078600Y0101600D02*
X0078100Y0102100D01*
X0078100Y0107100D01*
X0071100Y0114100D01*
X0046100Y0114100D01*
X0036100Y0114100D01*
X0028600Y0106600D01*
X0028600Y0068919D01*
X0035002Y0062517D01*
X0038600Y0101600D02*
X0058600Y0101600D01*
X0046100Y0114100D02*
X0038600Y0121600D01*
D18*
X0018600Y0121600D03*
X0018600Y0021600D03*
X0218600Y0021600D03*
X0218600Y0121600D03*
M02*
