G75*
%MOIN*%
%OFA0B0*%
%FSLAX25Y25*%
%IPPOS*%
%LPD*%
%AMOC8*
5,1,8,0,0,1.08239X$1,22.5*
%
%ADD10C,0.05600*%
%ADD11C,0.10000*%
%ADD12C,0.18100*%
%ADD13C,0.06600*%
%ADD14C,0.06000*%
%ADD15C,0.06693*%
%ADD16C,0.05200*%
%ADD17C,0.07600*%
%ADD18C,0.20000*%
%ADD19C,0.12400*%
%ADD20C,0.05000*%
%ADD21C,0.02400*%
%ADD22C,0.04356*%
%ADD23C,0.01600*%
D10*
X0266800Y0056800D03*
X0266800Y0066800D03*
X0266800Y0076800D03*
X0266800Y0096800D03*
X0266800Y0106800D03*
X0266800Y0116800D03*
X0336800Y0116800D03*
X0336800Y0106800D03*
X0336800Y0096800D03*
X0336800Y0076800D03*
X0336800Y0066800D03*
X0336800Y0056800D03*
X0424300Y0156800D03*
X0424300Y0166800D03*
X0434300Y0166800D03*
X0441800Y0161800D03*
X0441800Y0171800D03*
X0456800Y0176800D03*
X0441800Y0191800D03*
X0456800Y0206800D03*
X0456800Y0221800D03*
X0446800Y0221800D03*
X0436800Y0221800D03*
X0426800Y0221800D03*
X0416800Y0221800D03*
X0406800Y0221800D03*
X0406800Y0239300D03*
X0416800Y0239300D03*
X0426800Y0239300D03*
X0436800Y0239300D03*
X0446800Y0239300D03*
X0456800Y0239300D03*
X0456800Y0256800D03*
X0446800Y0256800D03*
X0436800Y0256800D03*
X0366800Y0251800D03*
X0366800Y0241800D03*
X0336800Y0239300D03*
X0326800Y0239300D03*
X0331800Y0231800D03*
X0306800Y0239300D03*
X0286800Y0249300D03*
X0281800Y0256800D03*
X0291800Y0256800D03*
X0306800Y0256800D03*
X0326800Y0256800D03*
X0336800Y0256800D03*
X0331800Y0249300D03*
X0366800Y0261800D03*
X0261800Y0256800D03*
X0236800Y0251800D03*
X0236800Y0241800D03*
X0236800Y0261800D03*
X0196800Y0239300D03*
X0186800Y0239300D03*
X0176800Y0239300D03*
X0166800Y0239300D03*
X0156800Y0239300D03*
X0146800Y0239300D03*
X0146800Y0221800D03*
X0156800Y0221800D03*
X0166800Y0221800D03*
X0176800Y0221800D03*
X0186800Y0221800D03*
X0196800Y0221800D03*
X0166800Y0256800D03*
X0156800Y0256800D03*
X0146800Y0256800D03*
X0176800Y0176800D03*
X0176800Y0166800D03*
X0176800Y0156800D03*
X0424300Y0176800D03*
D11*
X0371800Y0146800D03*
X0371800Y0126800D03*
X0341800Y0166800D03*
X0321800Y0166800D03*
X0281800Y0166800D03*
X0261800Y0166800D03*
X0231800Y0146800D03*
X0231800Y0126800D03*
X0236800Y0191800D03*
X0236800Y0211800D03*
X0291800Y0201800D03*
X0311800Y0201800D03*
X0366800Y0191800D03*
X0366800Y0211800D03*
X0371883Y0316702D03*
X0351883Y0316702D03*
X0331883Y0316702D03*
X0311883Y0316702D03*
X0291883Y0316702D03*
X0271883Y0316702D03*
X0251883Y0316702D03*
X0231883Y0316702D03*
X0211883Y0316702D03*
X0191883Y0316702D03*
X0171883Y0316702D03*
X0391883Y0316702D03*
X0411883Y0316702D03*
X0431883Y0316702D03*
X0331717Y0019398D03*
X0311717Y0019398D03*
X0291717Y0019398D03*
X0271717Y0019398D03*
D12*
X0181800Y0036800D03*
X0181800Y0076800D03*
X0416800Y0076800D03*
X0416800Y0036800D03*
D13*
X0446800Y0116800D03*
X0446800Y0136800D03*
X0411800Y0256800D03*
X0411800Y0276800D03*
X0441800Y0284300D03*
X0461800Y0284300D03*
X0186800Y0276800D03*
X0161800Y0284300D03*
X0141800Y0284300D03*
X0186800Y0256800D03*
X0151800Y0136800D03*
X0151800Y0116800D03*
D14*
X0069800Y0106800D02*
X0063800Y0106800D01*
X0063800Y0096800D02*
X0069800Y0096800D01*
X0069800Y0086800D02*
X0063800Y0086800D01*
X0291800Y0079800D02*
X0291800Y0073800D01*
X0311800Y0073800D02*
X0311800Y0079800D01*
X0311800Y0093800D02*
X0311800Y0099800D01*
X0291800Y0099800D02*
X0291800Y0093800D01*
X0291800Y0113800D02*
X0291800Y0119800D01*
X0311800Y0119800D02*
X0311800Y0113800D01*
X0311800Y0059800D02*
X0311800Y0053800D01*
X0291800Y0053800D02*
X0291800Y0059800D01*
X0533800Y0086800D02*
X0539800Y0086800D01*
X0539800Y0096800D02*
X0533800Y0096800D01*
X0533800Y0106800D02*
X0539800Y0106800D01*
X0539800Y0256800D02*
X0533800Y0256800D01*
X0533800Y0266800D02*
X0539800Y0266800D01*
X0539800Y0276800D02*
X0533800Y0276800D01*
X0069800Y0276800D02*
X0063800Y0276800D01*
X0063800Y0266800D02*
X0069800Y0266800D01*
X0069800Y0256800D02*
X0063800Y0256800D01*
D15*
X0176800Y0146800D03*
X0176800Y0116800D03*
X0424300Y0116800D03*
X0424300Y0146800D03*
D16*
X0406800Y0146800D03*
X0406800Y0186800D03*
X0401800Y0204300D03*
X0441800Y0204300D03*
X0386800Y0241800D03*
X0351800Y0271800D03*
X0361800Y0286800D03*
X0386800Y0281800D03*
X0321800Y0286800D03*
X0306800Y0286800D03*
X0296800Y0286800D03*
X0281800Y0286800D03*
X0291800Y0271800D03*
X0311800Y0271800D03*
X0251800Y0271800D03*
X0241800Y0286800D03*
X0216800Y0281800D03*
X0216800Y0241800D03*
X0191800Y0186800D03*
X0191800Y0146800D03*
X0089300Y0116800D03*
X0089300Y0076800D03*
X0089300Y0246800D03*
X0089300Y0286800D03*
X0514300Y0286800D03*
X0514300Y0246800D03*
X0514300Y0116800D03*
X0514300Y0076800D03*
D17*
X0481800Y0101800D03*
X0481800Y0171800D03*
X0481800Y0191800D03*
X0481800Y0261800D03*
X0121800Y0261800D03*
X0121800Y0191800D03*
X0121800Y0171800D03*
X0121800Y0101800D03*
D18*
X0053300Y0046800D03*
X0053300Y0146800D03*
X0053300Y0216800D03*
X0053300Y0316800D03*
X0550300Y0316800D03*
X0550300Y0216800D03*
X0550300Y0146800D03*
X0550300Y0046800D03*
D19*
X0451800Y0041800D03*
X0451800Y0071800D03*
X0381800Y0071800D03*
X0381800Y0041800D03*
X0216800Y0041800D03*
X0216800Y0071800D03*
X0146800Y0071800D03*
X0146800Y0041800D03*
D20*
X0216800Y0071800D02*
X0231800Y0071800D01*
X0256800Y0046800D01*
X0276800Y0046800D01*
X0286800Y0056800D01*
X0291800Y0056800D01*
X0301800Y0051800D02*
X0301800Y0071800D01*
X0306800Y0076800D01*
X0311800Y0076800D01*
X0301800Y0051800D02*
X0296800Y0046800D01*
X0291800Y0046800D01*
X0271717Y0026717D01*
X0271717Y0019398D01*
X0121800Y0101800D02*
X0116800Y0106800D01*
X0066800Y0106800D01*
X0121800Y0171800D02*
X0121800Y0191800D01*
X0121800Y0249300D01*
X0131800Y0259300D01*
X0131800Y0284300D01*
X0141800Y0284300D01*
X0131800Y0284300D02*
X0131800Y0306800D01*
X0151800Y0326800D01*
X0171800Y0326800D01*
X0171883Y0326717D01*
X0171883Y0316702D01*
X0171800Y0326800D02*
X0231800Y0326800D01*
X0231883Y0326717D01*
X0231883Y0316702D01*
X0231800Y0326800D02*
X0331800Y0326800D01*
X0331883Y0326717D01*
X0331883Y0316702D01*
X0331800Y0326800D02*
X0381785Y0326800D01*
X0391883Y0316702D01*
X0481800Y0261800D02*
X0486800Y0256800D01*
X0536800Y0256800D01*
X0481800Y0191800D02*
X0481800Y0171800D01*
X0501800Y0096800D02*
X0476800Y0071800D01*
X0451800Y0071800D01*
X0501800Y0096800D02*
X0536800Y0096800D01*
X0121800Y0261800D02*
X0106800Y0276800D01*
X0066800Y0276800D01*
D21*
X0066800Y0256800D02*
X0066800Y0251800D01*
X0066802Y0251660D01*
X0066808Y0251520D01*
X0066818Y0251380D01*
X0066831Y0251240D01*
X0066849Y0251101D01*
X0066871Y0250962D01*
X0066896Y0250825D01*
X0066925Y0250687D01*
X0066958Y0250551D01*
X0066995Y0250416D01*
X0067036Y0250282D01*
X0067081Y0250149D01*
X0067129Y0250017D01*
X0067181Y0249887D01*
X0067236Y0249758D01*
X0067295Y0249631D01*
X0067358Y0249505D01*
X0067424Y0249381D01*
X0067493Y0249260D01*
X0067566Y0249140D01*
X0067643Y0249022D01*
X0067722Y0248907D01*
X0067805Y0248793D01*
X0067891Y0248683D01*
X0067980Y0248574D01*
X0068072Y0248468D01*
X0068167Y0248365D01*
X0068264Y0248264D01*
X0068365Y0248167D01*
X0068468Y0248072D01*
X0068574Y0247980D01*
X0068683Y0247891D01*
X0068793Y0247805D01*
X0068907Y0247722D01*
X0069022Y0247643D01*
X0069140Y0247566D01*
X0069260Y0247493D01*
X0069381Y0247424D01*
X0069505Y0247358D01*
X0069631Y0247295D01*
X0069758Y0247236D01*
X0069887Y0247181D01*
X0070017Y0247129D01*
X0070149Y0247081D01*
X0070282Y0247036D01*
X0070416Y0246995D01*
X0070551Y0246958D01*
X0070687Y0246925D01*
X0070825Y0246896D01*
X0070962Y0246871D01*
X0071101Y0246849D01*
X0071240Y0246831D01*
X0071380Y0246818D01*
X0071520Y0246808D01*
X0071660Y0246802D01*
X0071800Y0246800D01*
X0089300Y0246800D01*
X0156800Y0251800D02*
X0156800Y0256800D01*
X0156800Y0251800D02*
X0161800Y0246800D01*
X0169300Y0246800D01*
X0171800Y0244300D01*
X0171800Y0226800D01*
X0166800Y0221800D01*
X0166800Y0256800D02*
X0166800Y0271800D01*
X0236800Y0241800D02*
X0246800Y0241800D01*
X0251800Y0246800D01*
X0251800Y0271800D01*
X0351800Y0271800D02*
X0351800Y0246800D01*
X0356800Y0241800D01*
X0366800Y0241800D01*
X0431800Y0244300D02*
X0431800Y0226800D01*
X0436800Y0221800D01*
X0431800Y0244300D02*
X0434300Y0246800D01*
X0441800Y0246800D01*
X0446800Y0251800D01*
X0446800Y0256800D01*
X0436800Y0256800D02*
X0436800Y0261800D01*
X0441800Y0266800D01*
X0456800Y0266800D01*
X0466800Y0256800D01*
X0466800Y0246800D01*
X0514300Y0246800D01*
X0466800Y0246800D02*
X0466800Y0101800D01*
X0514300Y0116800D02*
X0531800Y0116800D01*
X0531940Y0116798D01*
X0532080Y0116792D01*
X0532220Y0116782D01*
X0532360Y0116769D01*
X0532499Y0116751D01*
X0532638Y0116729D01*
X0532775Y0116704D01*
X0532913Y0116675D01*
X0533049Y0116642D01*
X0533184Y0116605D01*
X0533318Y0116564D01*
X0533451Y0116519D01*
X0533583Y0116471D01*
X0533713Y0116419D01*
X0533842Y0116364D01*
X0533969Y0116305D01*
X0534095Y0116242D01*
X0534219Y0116176D01*
X0534340Y0116107D01*
X0534460Y0116034D01*
X0534578Y0115957D01*
X0534693Y0115878D01*
X0534807Y0115795D01*
X0534917Y0115709D01*
X0535026Y0115620D01*
X0535132Y0115528D01*
X0535235Y0115433D01*
X0535336Y0115336D01*
X0535433Y0115235D01*
X0535528Y0115132D01*
X0535620Y0115026D01*
X0535709Y0114917D01*
X0535795Y0114807D01*
X0535878Y0114693D01*
X0535957Y0114578D01*
X0536034Y0114460D01*
X0536107Y0114340D01*
X0536176Y0114219D01*
X0536242Y0114095D01*
X0536305Y0113969D01*
X0536364Y0113842D01*
X0536419Y0113713D01*
X0536471Y0113583D01*
X0536519Y0113451D01*
X0536564Y0113318D01*
X0536605Y0113184D01*
X0536642Y0113049D01*
X0536675Y0112913D01*
X0536704Y0112775D01*
X0536729Y0112638D01*
X0536751Y0112499D01*
X0536769Y0112360D01*
X0536782Y0112220D01*
X0536792Y0112080D01*
X0536798Y0111940D01*
X0536800Y0111800D01*
X0536800Y0106800D01*
X0336800Y0096800D02*
X0331800Y0096800D01*
X0321800Y0106800D01*
X0306800Y0106800D01*
X0296800Y0116800D01*
X0291800Y0116800D01*
X0294300Y0106800D02*
X0304300Y0096800D01*
X0311800Y0096800D01*
X0306800Y0086800D02*
X0296800Y0076800D01*
X0291800Y0076800D01*
X0306800Y0086800D02*
X0321800Y0086800D01*
X0331800Y0076800D01*
X0336800Y0076800D01*
X0294300Y0106800D02*
X0266800Y0106800D01*
X0089300Y0076800D02*
X0071800Y0076800D01*
X0071660Y0076802D01*
X0071520Y0076808D01*
X0071380Y0076818D01*
X0071240Y0076831D01*
X0071101Y0076849D01*
X0070962Y0076871D01*
X0070825Y0076896D01*
X0070687Y0076925D01*
X0070551Y0076958D01*
X0070416Y0076995D01*
X0070282Y0077036D01*
X0070149Y0077081D01*
X0070017Y0077129D01*
X0069887Y0077181D01*
X0069758Y0077236D01*
X0069631Y0077295D01*
X0069505Y0077358D01*
X0069381Y0077424D01*
X0069260Y0077493D01*
X0069140Y0077566D01*
X0069022Y0077643D01*
X0068907Y0077722D01*
X0068793Y0077805D01*
X0068683Y0077891D01*
X0068574Y0077980D01*
X0068468Y0078072D01*
X0068365Y0078167D01*
X0068264Y0078264D01*
X0068167Y0078365D01*
X0068072Y0078468D01*
X0067980Y0078574D01*
X0067891Y0078683D01*
X0067805Y0078793D01*
X0067722Y0078907D01*
X0067643Y0079022D01*
X0067566Y0079140D01*
X0067493Y0079260D01*
X0067424Y0079381D01*
X0067358Y0079505D01*
X0067295Y0079631D01*
X0067236Y0079758D01*
X0067181Y0079887D01*
X0067129Y0080017D01*
X0067081Y0080149D01*
X0067036Y0080282D01*
X0066995Y0080416D01*
X0066958Y0080551D01*
X0066925Y0080687D01*
X0066896Y0080825D01*
X0066871Y0080962D01*
X0066849Y0081101D01*
X0066831Y0081240D01*
X0066818Y0081380D01*
X0066808Y0081520D01*
X0066802Y0081660D01*
X0066800Y0081800D01*
X0066800Y0086800D01*
X0514300Y0286800D02*
X0531800Y0286800D01*
X0531940Y0286798D01*
X0532080Y0286792D01*
X0532220Y0286782D01*
X0532360Y0286769D01*
X0532499Y0286751D01*
X0532638Y0286729D01*
X0532775Y0286704D01*
X0532913Y0286675D01*
X0533049Y0286642D01*
X0533184Y0286605D01*
X0533318Y0286564D01*
X0533451Y0286519D01*
X0533583Y0286471D01*
X0533713Y0286419D01*
X0533842Y0286364D01*
X0533969Y0286305D01*
X0534095Y0286242D01*
X0534219Y0286176D01*
X0534340Y0286107D01*
X0534460Y0286034D01*
X0534578Y0285957D01*
X0534693Y0285878D01*
X0534807Y0285795D01*
X0534917Y0285709D01*
X0535026Y0285620D01*
X0535132Y0285528D01*
X0535235Y0285433D01*
X0535336Y0285336D01*
X0535433Y0285235D01*
X0535528Y0285132D01*
X0535620Y0285026D01*
X0535709Y0284917D01*
X0535795Y0284807D01*
X0535878Y0284693D01*
X0535957Y0284578D01*
X0536034Y0284460D01*
X0536107Y0284340D01*
X0536176Y0284219D01*
X0536242Y0284095D01*
X0536305Y0283969D01*
X0536364Y0283842D01*
X0536419Y0283713D01*
X0536471Y0283583D01*
X0536519Y0283451D01*
X0536564Y0283318D01*
X0536605Y0283184D01*
X0536642Y0283049D01*
X0536675Y0282913D01*
X0536704Y0282775D01*
X0536729Y0282638D01*
X0536751Y0282499D01*
X0536769Y0282360D01*
X0536782Y0282220D01*
X0536792Y0282080D01*
X0536798Y0281940D01*
X0536800Y0281800D01*
X0536800Y0276800D01*
D22*
X0466800Y0101800D03*
X0166800Y0271800D03*
D23*
X0170978Y0271948D02*
X0184663Y0271948D01*
X0183798Y0272307D02*
X0185746Y0271500D01*
X0187854Y0271500D01*
X0189802Y0272307D01*
X0191293Y0273798D01*
X0192100Y0275746D01*
X0192100Y0277854D01*
X0191293Y0279802D01*
X0189802Y0281293D01*
X0187854Y0282100D01*
X0185746Y0282100D01*
X0183798Y0281293D01*
X0182307Y0279802D01*
X0181500Y0277854D01*
X0181500Y0275746D01*
X0182307Y0273798D01*
X0183798Y0272307D01*
X0182558Y0273547D02*
X0170599Y0273547D01*
X0170342Y0274167D02*
X0169167Y0275342D01*
X0167631Y0275978D01*
X0165969Y0275978D01*
X0164433Y0275342D01*
X0163258Y0274167D01*
X0162622Y0272631D01*
X0162622Y0270969D01*
X0163258Y0269433D01*
X0163600Y0269091D01*
X0163600Y0260388D01*
X0162731Y0259519D01*
X0162000Y0257755D01*
X0162000Y0255845D01*
X0162731Y0254081D01*
X0164081Y0252731D01*
X0165845Y0252000D01*
X0167755Y0252000D01*
X0169519Y0252731D01*
X0170869Y0254081D01*
X0171600Y0255845D01*
X0171600Y0257755D01*
X0170869Y0259519D01*
X0170000Y0260388D01*
X0170000Y0269091D01*
X0170342Y0269433D01*
X0170978Y0270969D01*
X0170978Y0272631D01*
X0170342Y0274167D01*
X0169363Y0275145D02*
X0181749Y0275145D01*
X0181500Y0276744D02*
X0136300Y0276744D01*
X0136300Y0278342D02*
X0181702Y0278342D01*
X0182446Y0279941D02*
X0164817Y0279941D01*
X0164578Y0279767D02*
X0165253Y0280257D01*
X0165843Y0280847D01*
X0166333Y0281522D01*
X0166712Y0282266D01*
X0166969Y0283059D01*
X0167100Y0283883D01*
X0167100Y0284300D01*
X0167100Y0284717D01*
X0166969Y0285541D01*
X0166712Y0286334D01*
X0166333Y0287078D01*
X0165843Y0287753D01*
X0165253Y0288343D01*
X0164578Y0288833D01*
X0163834Y0289212D01*
X0163041Y0289469D01*
X0162217Y0289600D01*
X0161800Y0289600D01*
X0161800Y0284300D01*
X0167100Y0284300D01*
X0161800Y0284300D01*
X0161800Y0284300D01*
X0161800Y0284300D01*
X0161800Y0279000D01*
X0162217Y0279000D01*
X0163041Y0279130D01*
X0163834Y0279388D01*
X0164578Y0279767D01*
X0166342Y0281539D02*
X0184393Y0281539D01*
X0189207Y0281539D02*
X0212200Y0281539D01*
X0212200Y0280885D02*
X0212900Y0279194D01*
X0214194Y0277900D01*
X0215885Y0277200D01*
X0217715Y0277200D01*
X0219406Y0277900D01*
X0220700Y0279194D01*
X0221400Y0280885D01*
X0221400Y0282715D01*
X0220700Y0284406D01*
X0219406Y0285700D01*
X0217715Y0286400D01*
X0215885Y0286400D01*
X0214194Y0285700D01*
X0212900Y0284406D01*
X0212200Y0282715D01*
X0212200Y0280885D01*
X0212591Y0279941D02*
X0191154Y0279941D01*
X0191898Y0278342D02*
X0213752Y0278342D01*
X0219848Y0278342D02*
X0383752Y0278342D01*
X0384194Y0277900D02*
X0385885Y0277200D01*
X0387715Y0277200D01*
X0389406Y0277900D01*
X0390700Y0279194D01*
X0391400Y0280885D01*
X0391400Y0282715D01*
X0390700Y0284406D01*
X0389406Y0285700D01*
X0387715Y0286400D01*
X0385885Y0286400D01*
X0384194Y0285700D01*
X0382900Y0284406D01*
X0382200Y0282715D01*
X0382200Y0280885D01*
X0382900Y0279194D01*
X0384194Y0277900D01*
X0382591Y0279941D02*
X0221009Y0279941D01*
X0221400Y0281539D02*
X0382200Y0281539D01*
X0382375Y0283138D02*
X0364643Y0283138D01*
X0364406Y0282900D02*
X0365700Y0284194D01*
X0366400Y0285885D01*
X0366400Y0287715D01*
X0365700Y0289406D01*
X0364406Y0290700D01*
X0362715Y0291400D01*
X0360885Y0291400D01*
X0359194Y0290700D01*
X0357900Y0289406D01*
X0357200Y0287715D01*
X0357200Y0285885D01*
X0357900Y0284194D01*
X0359194Y0282900D01*
X0360885Y0282200D01*
X0362715Y0282200D01*
X0364406Y0282900D01*
X0365924Y0284737D02*
X0383231Y0284737D01*
X0385728Y0286335D02*
X0366400Y0286335D01*
X0366309Y0287934D02*
X0437938Y0287934D01*
X0437757Y0287753D02*
X0437267Y0287078D01*
X0436888Y0286334D01*
X0436630Y0285541D01*
X0436500Y0284717D01*
X0436500Y0284300D01*
X0441800Y0284300D01*
X0447100Y0284300D01*
X0447100Y0284717D01*
X0446969Y0285541D01*
X0446712Y0286334D01*
X0446333Y0287078D01*
X0445843Y0287753D01*
X0445253Y0288343D01*
X0444578Y0288833D01*
X0443834Y0289212D01*
X0443041Y0289469D01*
X0442217Y0289600D01*
X0441800Y0289600D01*
X0441800Y0284300D01*
X0441800Y0284300D01*
X0441800Y0284300D01*
X0447100Y0284300D01*
X0447100Y0283883D01*
X0446969Y0283059D01*
X0446712Y0282266D01*
X0446333Y0281522D01*
X0445843Y0280847D01*
X0445253Y0280257D01*
X0444578Y0279767D01*
X0443834Y0279388D01*
X0443041Y0279130D01*
X0442217Y0279000D01*
X0441800Y0279000D01*
X0441800Y0284300D01*
X0441800Y0284300D01*
X0441800Y0284300D01*
X0441800Y0289600D01*
X0441383Y0289600D01*
X0440559Y0289469D01*
X0439766Y0289212D01*
X0439022Y0288833D01*
X0438347Y0288343D01*
X0437757Y0287753D01*
X0436889Y0286335D02*
X0387872Y0286335D01*
X0390369Y0284737D02*
X0436503Y0284737D01*
X0436500Y0284300D02*
X0436500Y0283883D01*
X0436630Y0283059D01*
X0436888Y0282266D01*
X0437267Y0281522D01*
X0437757Y0280847D01*
X0438347Y0280257D01*
X0439022Y0279767D01*
X0439766Y0279388D01*
X0440559Y0279130D01*
X0441383Y0279000D01*
X0441800Y0279000D01*
X0441800Y0284300D01*
X0436500Y0284300D01*
X0436618Y0283138D02*
X0391225Y0283138D01*
X0391400Y0281539D02*
X0409393Y0281539D01*
X0408798Y0281293D02*
X0407307Y0279802D01*
X0406500Y0277854D01*
X0406500Y0275746D01*
X0407307Y0273798D01*
X0408798Y0272307D01*
X0410746Y0271500D01*
X0412854Y0271500D01*
X0414802Y0272307D01*
X0416293Y0273798D01*
X0417100Y0275746D01*
X0417100Y0277854D01*
X0416293Y0279802D01*
X0414802Y0281293D01*
X0412854Y0282100D01*
X0410746Y0282100D01*
X0408798Y0281293D01*
X0407446Y0279941D02*
X0391009Y0279941D01*
X0389848Y0278342D02*
X0406702Y0278342D01*
X0406500Y0276744D02*
X0192100Y0276744D01*
X0191851Y0275145D02*
X0248640Y0275145D01*
X0249194Y0275700D02*
X0247900Y0274406D01*
X0247200Y0272715D01*
X0247200Y0270885D01*
X0247900Y0269194D01*
X0248600Y0268495D01*
X0248600Y0248125D01*
X0245475Y0245000D01*
X0240388Y0245000D01*
X0239519Y0245869D01*
X0237755Y0246600D01*
X0235845Y0246600D01*
X0234081Y0245869D01*
X0232731Y0244519D01*
X0232000Y0242755D01*
X0232000Y0240845D01*
X0232731Y0239081D01*
X0234081Y0237731D01*
X0235845Y0237000D01*
X0237755Y0237000D01*
X0239519Y0237731D01*
X0240388Y0238600D01*
X0247437Y0238600D01*
X0248613Y0239087D01*
X0249513Y0239987D01*
X0254513Y0244987D01*
X0255000Y0246163D01*
X0255000Y0268495D01*
X0255700Y0269194D01*
X0256400Y0270885D01*
X0256400Y0272715D01*
X0255700Y0274406D01*
X0254406Y0275700D01*
X0252715Y0276400D01*
X0250885Y0276400D01*
X0249194Y0275700D01*
X0247545Y0273547D02*
X0191042Y0273547D01*
X0188937Y0271948D02*
X0247200Y0271948D01*
X0247422Y0270350D02*
X0170722Y0270350D01*
X0170000Y0268751D02*
X0248343Y0268751D01*
X0248600Y0267153D02*
X0170000Y0267153D01*
X0170000Y0265554D02*
X0233766Y0265554D01*
X0234081Y0265869D02*
X0232731Y0264519D01*
X0232000Y0262755D01*
X0232000Y0260845D01*
X0232731Y0259081D01*
X0234081Y0257731D01*
X0235845Y0257000D01*
X0237755Y0257000D01*
X0239519Y0257731D01*
X0240869Y0259081D01*
X0241600Y0260845D01*
X0241600Y0262755D01*
X0240869Y0264519D01*
X0239519Y0265869D01*
X0237755Y0266600D01*
X0235845Y0266600D01*
X0234081Y0265869D01*
X0232498Y0263956D02*
X0170000Y0263956D01*
X0170000Y0262357D02*
X0232000Y0262357D01*
X0232036Y0260759D02*
X0190336Y0260759D01*
X0189802Y0261293D02*
X0187854Y0262100D01*
X0185746Y0262100D01*
X0183798Y0261293D01*
X0182307Y0259802D01*
X0181500Y0257854D01*
X0181500Y0255746D01*
X0182307Y0253798D01*
X0183798Y0252307D01*
X0185746Y0251500D01*
X0187854Y0251500D01*
X0189802Y0252307D01*
X0191293Y0253798D01*
X0192100Y0255746D01*
X0192100Y0257854D01*
X0191293Y0259802D01*
X0189802Y0261293D01*
X0191559Y0259160D02*
X0232698Y0259160D01*
X0234489Y0257562D02*
X0192100Y0257562D01*
X0192100Y0255963D02*
X0234308Y0255963D01*
X0234081Y0255869D02*
X0232731Y0254519D01*
X0232000Y0252755D01*
X0232000Y0250845D01*
X0232731Y0249081D01*
X0234081Y0247731D01*
X0235845Y0247000D01*
X0237755Y0247000D01*
X0239519Y0247731D01*
X0240869Y0249081D01*
X0241600Y0250845D01*
X0241600Y0252755D01*
X0240869Y0254519D01*
X0239519Y0255869D01*
X0237755Y0256600D01*
X0235845Y0256600D01*
X0234081Y0255869D01*
X0232667Y0254365D02*
X0191528Y0254365D01*
X0190262Y0252766D02*
X0232005Y0252766D01*
X0232000Y0251168D02*
X0161958Y0251168D01*
X0163125Y0250000D02*
X0160000Y0253125D01*
X0160000Y0253212D01*
X0160869Y0254081D01*
X0161600Y0255845D01*
X0161600Y0257755D01*
X0160869Y0259519D01*
X0159519Y0260869D01*
X0157755Y0261600D01*
X0155845Y0261600D01*
X0154081Y0260869D01*
X0152731Y0259519D01*
X0152000Y0257755D01*
X0152000Y0255845D01*
X0152731Y0254081D01*
X0153600Y0253212D01*
X0153600Y0251163D01*
X0154087Y0249987D01*
X0154987Y0249087D01*
X0159087Y0244987D01*
X0159987Y0244087D01*
X0161163Y0243600D01*
X0164638Y0243600D01*
X0164081Y0243369D01*
X0162731Y0242019D01*
X0162000Y0240255D01*
X0162000Y0238345D01*
X0162731Y0236581D01*
X0164081Y0235231D01*
X0165845Y0234500D01*
X0167755Y0234500D01*
X0168600Y0234850D01*
X0168600Y0228125D01*
X0167075Y0226600D01*
X0165845Y0226600D01*
X0164081Y0225869D01*
X0162731Y0224519D01*
X0162000Y0222755D01*
X0162000Y0220845D01*
X0162731Y0219081D01*
X0164081Y0217731D01*
X0165845Y0217000D01*
X0167755Y0217000D01*
X0169519Y0217731D01*
X0170869Y0219081D01*
X0171600Y0220845D01*
X0171600Y0222075D01*
X0172000Y0222475D01*
X0172000Y0220845D01*
X0172731Y0219081D01*
X0174081Y0217731D01*
X0175845Y0217000D01*
X0177755Y0217000D01*
X0179519Y0217731D01*
X0180869Y0219081D01*
X0181600Y0220845D01*
X0181600Y0222755D01*
X0180869Y0224519D01*
X0179519Y0225869D01*
X0177755Y0226600D01*
X0175845Y0226600D01*
X0175000Y0226250D01*
X0175000Y0234850D01*
X0175845Y0234500D01*
X0177755Y0234500D01*
X0179519Y0235231D01*
X0180869Y0236581D01*
X0181600Y0238345D01*
X0181600Y0240255D01*
X0180869Y0242019D01*
X0179519Y0243369D01*
X0177755Y0244100D01*
X0175845Y0244100D01*
X0175000Y0243750D01*
X0175000Y0244937D01*
X0174513Y0246113D01*
X0173613Y0247013D01*
X0171113Y0249513D01*
X0169937Y0250000D01*
X0163125Y0250000D01*
X0164045Y0252766D02*
X0160359Y0252766D01*
X0160987Y0254365D02*
X0162613Y0254365D01*
X0162000Y0255963D02*
X0161600Y0255963D01*
X0161600Y0257562D02*
X0162000Y0257562D01*
X0162582Y0259160D02*
X0161018Y0259160D01*
X0159629Y0260759D02*
X0163600Y0260759D01*
X0163600Y0262357D02*
X0136300Y0262357D01*
X0136300Y0260759D02*
X0143971Y0260759D01*
X0144081Y0260869D02*
X0142731Y0259519D01*
X0142000Y0257755D01*
X0142000Y0255845D01*
X0142731Y0254081D01*
X0144081Y0252731D01*
X0145845Y0252000D01*
X0147755Y0252000D01*
X0149519Y0252731D01*
X0150869Y0254081D01*
X0151600Y0255845D01*
X0151600Y0257755D01*
X0150869Y0259519D01*
X0149519Y0260869D01*
X0147755Y0261600D01*
X0145845Y0261600D01*
X0144081Y0260869D01*
X0142582Y0259160D02*
X0136300Y0259160D01*
X0136300Y0258405D02*
X0136300Y0279800D01*
X0138814Y0279800D01*
X0140746Y0279000D01*
X0142854Y0279000D01*
X0144802Y0279807D01*
X0146293Y0281298D01*
X0147100Y0283246D01*
X0147100Y0285354D01*
X0146293Y0287302D01*
X0144802Y0288793D01*
X0142854Y0289600D01*
X0140746Y0289600D01*
X0138814Y0288800D01*
X0136300Y0288800D01*
X0136300Y0304936D01*
X0153664Y0322300D01*
X0167383Y0322300D01*
X0167383Y0322101D01*
X0165949Y0320667D01*
X0164883Y0318094D01*
X0164883Y0315309D01*
X0165949Y0312736D01*
X0167918Y0310767D01*
X0170491Y0309702D01*
X0173275Y0309702D01*
X0175848Y0310767D01*
X0177817Y0312736D01*
X0178883Y0315309D01*
X0178883Y0318094D01*
X0177817Y0320667D01*
X0176383Y0322101D01*
X0176383Y0322300D01*
X0187680Y0322300D01*
X0187258Y0321976D01*
X0186609Y0321327D01*
X0186050Y0320599D01*
X0185591Y0319804D01*
X0185240Y0318956D01*
X0185003Y0318070D01*
X0184886Y0317181D01*
X0191403Y0317181D01*
X0191403Y0316222D01*
X0184886Y0316222D01*
X0185003Y0315333D01*
X0185240Y0314447D01*
X0185591Y0313599D01*
X0186050Y0312804D01*
X0186609Y0312076D01*
X0187258Y0311427D01*
X0187986Y0310869D01*
X0188780Y0310410D01*
X0189628Y0310059D01*
X0190514Y0309821D01*
X0191404Y0309704D01*
X0191404Y0316222D01*
X0192363Y0316222D01*
X0192363Y0317181D01*
X0198880Y0317181D01*
X0198763Y0318070D01*
X0198526Y0318956D01*
X0198175Y0319804D01*
X0197716Y0320599D01*
X0197157Y0321327D01*
X0196508Y0321976D01*
X0196086Y0322300D01*
X0207582Y0322300D01*
X0205949Y0320667D01*
X0204883Y0318094D01*
X0204883Y0315309D01*
X0205949Y0312736D01*
X0207918Y0310767D01*
X0210491Y0309702D01*
X0213275Y0309702D01*
X0215848Y0310767D01*
X0217817Y0312736D01*
X0218883Y0315309D01*
X0218883Y0318094D01*
X0217817Y0320667D01*
X0216184Y0322300D01*
X0227383Y0322300D01*
X0227383Y0322101D01*
X0225949Y0320667D01*
X0224883Y0318094D01*
X0224883Y0315309D01*
X0225949Y0312736D01*
X0227918Y0310767D01*
X0230491Y0309702D01*
X0233275Y0309702D01*
X0235848Y0310767D01*
X0237817Y0312736D01*
X0238883Y0315309D01*
X0238883Y0318094D01*
X0237817Y0320667D01*
X0236383Y0322101D01*
X0236383Y0322300D01*
X0247680Y0322300D01*
X0247258Y0321976D01*
X0246609Y0321327D01*
X0246050Y0320599D01*
X0245591Y0319804D01*
X0245240Y0318956D01*
X0245003Y0318070D01*
X0244886Y0317181D01*
X0251403Y0317181D01*
X0251403Y0316222D01*
X0244886Y0316222D01*
X0245003Y0315333D01*
X0245240Y0314447D01*
X0245591Y0313599D01*
X0246050Y0312804D01*
X0246609Y0312076D01*
X0247258Y0311427D01*
X0247986Y0310869D01*
X0248780Y0310410D01*
X0249628Y0310059D01*
X0250514Y0309821D01*
X0251404Y0309704D01*
X0251404Y0316222D01*
X0252363Y0316222D01*
X0252363Y0317181D01*
X0258880Y0317181D01*
X0258763Y0318070D01*
X0258526Y0318956D01*
X0258175Y0319804D01*
X0257716Y0320599D01*
X0257157Y0321327D01*
X0256508Y0321976D01*
X0256086Y0322300D01*
X0267582Y0322300D01*
X0265949Y0320667D01*
X0264883Y0318094D01*
X0264883Y0315309D01*
X0265949Y0312736D01*
X0267918Y0310767D01*
X0270491Y0309702D01*
X0273275Y0309702D01*
X0275848Y0310767D01*
X0277817Y0312736D01*
X0278883Y0315309D01*
X0278883Y0318094D01*
X0277817Y0320667D01*
X0276184Y0322300D01*
X0287680Y0322300D01*
X0287258Y0321976D01*
X0286609Y0321327D01*
X0286050Y0320599D01*
X0285591Y0319804D01*
X0285240Y0318956D01*
X0285003Y0318070D01*
X0284886Y0317181D01*
X0291403Y0317181D01*
X0291403Y0316222D01*
X0284886Y0316222D01*
X0285003Y0315333D01*
X0285240Y0314447D01*
X0285591Y0313599D01*
X0286050Y0312804D01*
X0286609Y0312076D01*
X0287258Y0311427D01*
X0287986Y0310869D01*
X0288780Y0310410D01*
X0289628Y0310059D01*
X0290514Y0309821D01*
X0291404Y0309704D01*
X0291404Y0316222D01*
X0292363Y0316222D01*
X0292363Y0317181D01*
X0298880Y0317181D01*
X0298763Y0318070D01*
X0298526Y0318956D01*
X0298175Y0319804D01*
X0297716Y0320599D01*
X0297157Y0321327D01*
X0296508Y0321976D01*
X0296086Y0322300D01*
X0307680Y0322300D01*
X0307258Y0321976D01*
X0306609Y0321327D01*
X0306050Y0320599D01*
X0305591Y0319804D01*
X0305240Y0318956D01*
X0305003Y0318070D01*
X0304886Y0317181D01*
X0311403Y0317181D01*
X0311403Y0316222D01*
X0304886Y0316222D01*
X0305003Y0315333D01*
X0305240Y0314447D01*
X0305591Y0313599D01*
X0306050Y0312804D01*
X0306609Y0312076D01*
X0307258Y0311427D01*
X0307986Y0310869D01*
X0308780Y0310410D01*
X0309628Y0310059D01*
X0310514Y0309821D01*
X0311404Y0309704D01*
X0311404Y0316222D01*
X0312363Y0316222D01*
X0312363Y0317181D01*
X0318880Y0317181D01*
X0318763Y0318070D01*
X0318526Y0318956D01*
X0318175Y0319804D01*
X0317716Y0320599D01*
X0317157Y0321327D01*
X0316508Y0321976D01*
X0316086Y0322300D01*
X0327383Y0322300D01*
X0327383Y0322101D01*
X0325949Y0320667D01*
X0324883Y0318094D01*
X0324883Y0315309D01*
X0325949Y0312736D01*
X0327918Y0310767D01*
X0330491Y0309702D01*
X0333275Y0309702D01*
X0335848Y0310767D01*
X0337817Y0312736D01*
X0338883Y0315309D01*
X0338883Y0318094D01*
X0337817Y0320667D01*
X0336383Y0322101D01*
X0336383Y0322300D01*
X0347680Y0322300D01*
X0347258Y0321976D01*
X0346609Y0321327D01*
X0346050Y0320599D01*
X0345591Y0319804D01*
X0345240Y0318956D01*
X0345003Y0318070D01*
X0344886Y0317181D01*
X0351403Y0317181D01*
X0351403Y0316222D01*
X0344886Y0316222D01*
X0345003Y0315333D01*
X0345240Y0314447D01*
X0345591Y0313599D01*
X0346050Y0312804D01*
X0346609Y0312076D01*
X0347258Y0311427D01*
X0347986Y0310869D01*
X0348780Y0310410D01*
X0349628Y0310059D01*
X0350514Y0309821D01*
X0351404Y0309704D01*
X0351404Y0316222D01*
X0352363Y0316222D01*
X0352363Y0317181D01*
X0358880Y0317181D01*
X0358763Y0318070D01*
X0358526Y0318956D01*
X0358175Y0319804D01*
X0357716Y0320599D01*
X0357157Y0321327D01*
X0356508Y0321976D01*
X0356086Y0322300D01*
X0367582Y0322300D01*
X0365949Y0320667D01*
X0364883Y0318094D01*
X0364883Y0315309D01*
X0365949Y0312736D01*
X0367918Y0310767D01*
X0370491Y0309702D01*
X0373275Y0309702D01*
X0375848Y0310767D01*
X0377817Y0312736D01*
X0378883Y0315309D01*
X0378883Y0318094D01*
X0377817Y0320667D01*
X0376184Y0322300D01*
X0379921Y0322300D01*
X0384883Y0317338D01*
X0384883Y0315309D01*
X0385949Y0312736D01*
X0387918Y0310767D01*
X0390491Y0309702D01*
X0393275Y0309702D01*
X0395848Y0310767D01*
X0397817Y0312736D01*
X0398883Y0315309D01*
X0398883Y0318094D01*
X0397817Y0320667D01*
X0395848Y0322636D01*
X0393275Y0323702D01*
X0391247Y0323702D01*
X0384334Y0330615D01*
X0382680Y0331300D01*
X0150905Y0331300D01*
X0149251Y0330615D01*
X0147985Y0329349D01*
X0127985Y0309349D01*
X0127300Y0307695D01*
X0127300Y0263678D01*
X0126717Y0265085D01*
X0125085Y0266717D01*
X0122954Y0267600D01*
X0122364Y0267600D01*
X0109349Y0280615D01*
X0107695Y0281300D01*
X0106800Y0281300D01*
X0106800Y0346000D01*
X0496800Y0346000D01*
X0496800Y0261300D01*
X0488664Y0261300D01*
X0487600Y0262364D01*
X0487600Y0262954D01*
X0486717Y0265085D01*
X0485085Y0266717D01*
X0482954Y0267600D01*
X0480646Y0267600D01*
X0478515Y0266717D01*
X0476883Y0265085D01*
X0476000Y0262954D01*
X0476000Y0260646D01*
X0476883Y0258515D01*
X0478515Y0256883D01*
X0480646Y0256000D01*
X0481236Y0256000D01*
X0484251Y0252985D01*
X0485905Y0252300D01*
X0496800Y0252300D01*
X0496800Y0250000D01*
X0470000Y0250000D01*
X0470000Y0257437D01*
X0469513Y0258613D01*
X0468613Y0259513D01*
X0458613Y0269513D01*
X0457437Y0270000D01*
X0441163Y0270000D01*
X0439987Y0269513D01*
X0439087Y0268613D01*
X0434087Y0263613D01*
X0433600Y0262437D01*
X0433600Y0260388D01*
X0432731Y0259519D01*
X0432000Y0257755D01*
X0432000Y0255845D01*
X0432731Y0254081D01*
X0434081Y0252731D01*
X0435845Y0252000D01*
X0437755Y0252000D01*
X0439519Y0252731D01*
X0440869Y0254081D01*
X0441600Y0255845D01*
X0441600Y0257755D01*
X0440869Y0259519D01*
X0440000Y0260388D01*
X0440000Y0260475D01*
X0443125Y0263600D01*
X0455475Y0263600D01*
X0457475Y0261600D01*
X0455845Y0261600D01*
X0454081Y0260869D01*
X0452731Y0259519D01*
X0452000Y0257755D01*
X0452000Y0255845D01*
X0452731Y0254081D01*
X0454081Y0252731D01*
X0455845Y0252000D01*
X0457755Y0252000D01*
X0459519Y0252731D01*
X0460869Y0254081D01*
X0461600Y0255845D01*
X0461600Y0257475D01*
X0463600Y0255475D01*
X0463600Y0104509D01*
X0463258Y0104167D01*
X0462622Y0102631D01*
X0462622Y0100969D01*
X0463258Y0099433D01*
X0464433Y0098258D01*
X0465969Y0097622D01*
X0467631Y0097622D01*
X0469167Y0098258D01*
X0470342Y0099433D01*
X0470978Y0100969D01*
X0470978Y0102631D01*
X0470342Y0104167D01*
X0470000Y0104509D01*
X0470000Y0243600D01*
X0496800Y0243600D01*
X0496800Y0098164D01*
X0474936Y0076300D01*
X0458812Y0076300D01*
X0458752Y0076445D01*
X0456445Y0078752D01*
X0453431Y0080000D01*
X0450169Y0080000D01*
X0447155Y0078752D01*
X0444848Y0076445D01*
X0443600Y0073431D01*
X0443600Y0070169D01*
X0444848Y0067155D01*
X0447155Y0064848D01*
X0450169Y0063600D01*
X0453431Y0063600D01*
X0456445Y0064848D01*
X0458752Y0067155D01*
X0458812Y0067300D01*
X0477695Y0067300D01*
X0479349Y0067985D01*
X0480615Y0069251D01*
X0496800Y0085436D01*
X0496800Y0007600D01*
X0106800Y0007600D01*
X0106800Y0102300D01*
X0114936Y0102300D01*
X0116000Y0101236D01*
X0116000Y0100646D01*
X0116883Y0098515D01*
X0118515Y0096883D01*
X0120646Y0096000D01*
X0122954Y0096000D01*
X0125085Y0096883D01*
X0126717Y0098515D01*
X0127600Y0100646D01*
X0127600Y0102954D01*
X0126717Y0105085D01*
X0125085Y0106717D01*
X0122954Y0107600D01*
X0122364Y0107600D01*
X0119349Y0110615D01*
X0117695Y0111300D01*
X0106800Y0111300D01*
X0106800Y0270436D01*
X0116000Y0261236D01*
X0116000Y0260646D01*
X0116883Y0258515D01*
X0118515Y0256883D01*
X0120646Y0256000D01*
X0122136Y0256000D01*
X0117985Y0251849D01*
X0117300Y0250195D01*
X0117300Y0195502D01*
X0116883Y0195085D01*
X0116000Y0192954D01*
X0116000Y0190646D01*
X0116883Y0188515D01*
X0117300Y0188098D01*
X0117300Y0175502D01*
X0116883Y0175085D01*
X0116000Y0172954D01*
X0116000Y0170646D01*
X0116883Y0168515D01*
X0118515Y0166883D01*
X0120646Y0166000D01*
X0122954Y0166000D01*
X0125085Y0166883D01*
X0126717Y0168515D01*
X0127600Y0170646D01*
X0127600Y0172954D01*
X0126717Y0175085D01*
X0126300Y0175502D01*
X0126300Y0188098D01*
X0126717Y0188515D01*
X0127600Y0190646D01*
X0127600Y0192954D01*
X0126717Y0195085D01*
X0126300Y0195502D01*
X0126300Y0247436D01*
X0134349Y0255485D01*
X0135615Y0256751D01*
X0136300Y0258405D01*
X0135951Y0257562D02*
X0142000Y0257562D01*
X0142000Y0255963D02*
X0134827Y0255963D01*
X0133229Y0254365D02*
X0142613Y0254365D01*
X0144045Y0252766D02*
X0131630Y0252766D01*
X0130032Y0251168D02*
X0153600Y0251168D01*
X0153600Y0252766D02*
X0149554Y0252766D01*
X0150987Y0254365D02*
X0152613Y0254365D01*
X0152000Y0255963D02*
X0151600Y0255963D01*
X0151600Y0257562D02*
X0152000Y0257562D01*
X0152582Y0259160D02*
X0151018Y0259160D01*
X0149629Y0260759D02*
X0153971Y0260759D01*
X0163600Y0263956D02*
X0136300Y0263956D01*
X0136300Y0265554D02*
X0163600Y0265554D01*
X0163600Y0267153D02*
X0136300Y0267153D01*
X0136300Y0268751D02*
X0163600Y0268751D01*
X0162878Y0270350D02*
X0136300Y0270350D01*
X0136300Y0271948D02*
X0162622Y0271948D01*
X0163001Y0273547D02*
X0136300Y0273547D01*
X0136300Y0275145D02*
X0164237Y0275145D01*
X0161800Y0279000D02*
X0161800Y0284300D01*
X0161800Y0284300D01*
X0161800Y0284300D01*
X0156500Y0284300D01*
X0156500Y0284717D01*
X0156630Y0285541D01*
X0156888Y0286334D01*
X0157267Y0287078D01*
X0157757Y0287753D01*
X0158347Y0288343D01*
X0159022Y0288833D01*
X0159766Y0289212D01*
X0160559Y0289469D01*
X0161383Y0289600D01*
X0161800Y0289600D01*
X0161800Y0284300D01*
X0156500Y0284300D01*
X0156500Y0283883D01*
X0156630Y0283059D01*
X0156888Y0282266D01*
X0157267Y0281522D01*
X0157757Y0280847D01*
X0158347Y0280257D01*
X0159022Y0279767D01*
X0159766Y0279388D01*
X0160559Y0279130D01*
X0161383Y0279000D01*
X0161800Y0279000D01*
X0161800Y0279941D02*
X0161800Y0279941D01*
X0161800Y0281539D02*
X0161800Y0281539D01*
X0161800Y0283138D02*
X0161800Y0283138D01*
X0161800Y0284737D02*
X0161800Y0284737D01*
X0161800Y0286335D02*
X0161800Y0286335D01*
X0161800Y0287934D02*
X0161800Y0287934D01*
X0161800Y0289532D02*
X0161800Y0289532D01*
X0162646Y0289532D02*
X0238027Y0289532D01*
X0237900Y0289406D02*
X0237200Y0287715D01*
X0237200Y0285885D01*
X0237900Y0284194D01*
X0239194Y0282900D01*
X0240885Y0282200D01*
X0242715Y0282200D01*
X0244406Y0282900D01*
X0245700Y0284194D01*
X0246400Y0285885D01*
X0246400Y0287715D01*
X0245700Y0289406D01*
X0244406Y0290700D01*
X0242715Y0291400D01*
X0240885Y0291400D01*
X0239194Y0290700D01*
X0237900Y0289406D01*
X0237291Y0287934D02*
X0165662Y0287934D01*
X0166711Y0286335D02*
X0215728Y0286335D01*
X0217872Y0286335D02*
X0237200Y0286335D01*
X0237676Y0284737D02*
X0220369Y0284737D01*
X0221225Y0283138D02*
X0238957Y0283138D01*
X0244643Y0283138D02*
X0278957Y0283138D01*
X0279194Y0282900D02*
X0280885Y0282200D01*
X0282715Y0282200D01*
X0284406Y0282900D01*
X0285700Y0284194D01*
X0286400Y0285885D01*
X0286400Y0287715D01*
X0285700Y0289406D01*
X0284406Y0290700D01*
X0282715Y0291400D01*
X0280885Y0291400D01*
X0279194Y0290700D01*
X0277900Y0289406D01*
X0277200Y0287715D01*
X0277200Y0285885D01*
X0277900Y0284194D01*
X0279194Y0282900D01*
X0277676Y0284737D02*
X0245924Y0284737D01*
X0246400Y0286335D02*
X0277200Y0286335D01*
X0277291Y0287934D02*
X0246309Y0287934D01*
X0245573Y0289532D02*
X0278027Y0289532D01*
X0280235Y0291131D02*
X0243365Y0291131D01*
X0240235Y0291131D02*
X0136300Y0291131D01*
X0136300Y0292729D02*
X0496800Y0292729D01*
X0496800Y0291131D02*
X0363365Y0291131D01*
X0365573Y0289532D02*
X0440954Y0289532D01*
X0441800Y0289532D02*
X0441800Y0289532D01*
X0442646Y0289532D02*
X0460582Y0289532D01*
X0460746Y0289600D02*
X0458798Y0288793D01*
X0457307Y0287302D01*
X0456500Y0285354D01*
X0456500Y0283246D01*
X0457307Y0281298D01*
X0458798Y0279807D01*
X0460746Y0279000D01*
X0462854Y0279000D01*
X0464802Y0279807D01*
X0466293Y0281298D01*
X0467100Y0283246D01*
X0467100Y0285354D01*
X0466293Y0287302D01*
X0464802Y0288793D01*
X0462854Y0289600D01*
X0460746Y0289600D01*
X0463018Y0289532D02*
X0496800Y0289532D01*
X0496800Y0287934D02*
X0465662Y0287934D01*
X0466694Y0286335D02*
X0496800Y0286335D01*
X0496800Y0284737D02*
X0467100Y0284737D01*
X0467055Y0283138D02*
X0496800Y0283138D01*
X0496800Y0281539D02*
X0466393Y0281539D01*
X0464936Y0279941D02*
X0496800Y0279941D01*
X0496800Y0278342D02*
X0416898Y0278342D01*
X0417100Y0276744D02*
X0496800Y0276744D01*
X0496800Y0275145D02*
X0416851Y0275145D01*
X0416042Y0273547D02*
X0496800Y0273547D01*
X0496800Y0271948D02*
X0413937Y0271948D01*
X0409663Y0271948D02*
X0356400Y0271948D01*
X0356400Y0272715D02*
X0356400Y0270885D01*
X0355700Y0269194D01*
X0355000Y0268495D01*
X0355000Y0248125D01*
X0358125Y0245000D01*
X0363212Y0245000D01*
X0364081Y0245869D01*
X0365845Y0246600D01*
X0367755Y0246600D01*
X0369519Y0245869D01*
X0370869Y0244519D01*
X0371600Y0242755D01*
X0371600Y0240845D01*
X0370869Y0239081D01*
X0369519Y0237731D01*
X0367755Y0237000D01*
X0365845Y0237000D01*
X0364081Y0237731D01*
X0363212Y0238600D01*
X0356163Y0238600D01*
X0354987Y0239087D01*
X0354087Y0239987D01*
X0349087Y0244987D01*
X0348600Y0246163D01*
X0348600Y0268495D01*
X0347900Y0269194D01*
X0347200Y0270885D01*
X0347200Y0272715D01*
X0347900Y0274406D01*
X0349194Y0275700D01*
X0350885Y0276400D01*
X0352715Y0276400D01*
X0354406Y0275700D01*
X0355700Y0274406D01*
X0356400Y0272715D01*
X0356055Y0273547D02*
X0407558Y0273547D01*
X0406749Y0275145D02*
X0354960Y0275145D01*
X0356178Y0270350D02*
X0496800Y0270350D01*
X0496800Y0268751D02*
X0459374Y0268751D01*
X0460973Y0267153D02*
X0479567Y0267153D01*
X0477352Y0265554D02*
X0462571Y0265554D01*
X0464170Y0263956D02*
X0476415Y0263956D01*
X0476000Y0262357D02*
X0465768Y0262357D01*
X0467367Y0260759D02*
X0476000Y0260759D01*
X0476616Y0259160D02*
X0468965Y0259160D01*
X0469948Y0257562D02*
X0477836Y0257562D01*
X0481273Y0255963D02*
X0470000Y0255963D01*
X0470000Y0254365D02*
X0482871Y0254365D01*
X0484779Y0252766D02*
X0470000Y0252766D01*
X0470000Y0251168D02*
X0496800Y0251168D01*
X0496800Y0243175D02*
X0470000Y0243175D01*
X0470000Y0241577D02*
X0496800Y0241577D01*
X0496800Y0239978D02*
X0470000Y0239978D01*
X0470000Y0238380D02*
X0496800Y0238380D01*
X0496800Y0236781D02*
X0470000Y0236781D01*
X0470000Y0235183D02*
X0496800Y0235183D01*
X0496800Y0233584D02*
X0470000Y0233584D01*
X0470000Y0231986D02*
X0496800Y0231986D01*
X0496800Y0230387D02*
X0470000Y0230387D01*
X0470000Y0228789D02*
X0496800Y0228789D01*
X0496800Y0227190D02*
X0470000Y0227190D01*
X0470000Y0225592D02*
X0496800Y0225592D01*
X0496800Y0223993D02*
X0470000Y0223993D01*
X0470000Y0222395D02*
X0496800Y0222395D01*
X0496800Y0220796D02*
X0470000Y0220796D01*
X0470000Y0219198D02*
X0496800Y0219198D01*
X0496800Y0217599D02*
X0470000Y0217599D01*
X0470000Y0216001D02*
X0496800Y0216001D01*
X0496800Y0214402D02*
X0470000Y0214402D01*
X0470000Y0212803D02*
X0496800Y0212803D01*
X0496800Y0211205D02*
X0470000Y0211205D01*
X0470000Y0209606D02*
X0496800Y0209606D01*
X0496800Y0208008D02*
X0470000Y0208008D01*
X0470000Y0206409D02*
X0496800Y0206409D01*
X0496800Y0204811D02*
X0470000Y0204811D01*
X0470000Y0203212D02*
X0496800Y0203212D01*
X0496800Y0201614D02*
X0470000Y0201614D01*
X0470000Y0200015D02*
X0496800Y0200015D01*
X0496800Y0198417D02*
X0470000Y0198417D01*
X0470000Y0196818D02*
X0478759Y0196818D01*
X0478515Y0196717D02*
X0476883Y0195085D01*
X0476000Y0192954D01*
X0476000Y0190646D01*
X0476883Y0188515D01*
X0477300Y0188098D01*
X0477300Y0175502D01*
X0476883Y0175085D01*
X0476000Y0172954D01*
X0476000Y0170646D01*
X0476883Y0168515D01*
X0478515Y0166883D01*
X0480646Y0166000D01*
X0482954Y0166000D01*
X0485085Y0166883D01*
X0486717Y0168515D01*
X0487600Y0170646D01*
X0487600Y0172954D01*
X0486717Y0175085D01*
X0486300Y0175502D01*
X0486300Y0188098D01*
X0486717Y0188515D01*
X0487600Y0190646D01*
X0487600Y0192954D01*
X0486717Y0195085D01*
X0485085Y0196717D01*
X0482954Y0197600D01*
X0480646Y0197600D01*
X0478515Y0196717D01*
X0477017Y0195220D02*
X0470000Y0195220D01*
X0470000Y0193621D02*
X0476277Y0193621D01*
X0476000Y0192023D02*
X0470000Y0192023D01*
X0470000Y0190424D02*
X0476092Y0190424D01*
X0476754Y0188826D02*
X0470000Y0188826D01*
X0470000Y0187227D02*
X0477300Y0187227D01*
X0477300Y0185629D02*
X0470000Y0185629D01*
X0470000Y0184030D02*
X0477300Y0184030D01*
X0477300Y0182432D02*
X0470000Y0182432D01*
X0470000Y0180833D02*
X0477300Y0180833D01*
X0477300Y0179235D02*
X0470000Y0179235D01*
X0470000Y0177636D02*
X0477300Y0177636D01*
X0477300Y0176038D02*
X0470000Y0176038D01*
X0470000Y0174439D02*
X0476615Y0174439D01*
X0476000Y0172841D02*
X0470000Y0172841D01*
X0470000Y0171242D02*
X0476000Y0171242D01*
X0476415Y0169644D02*
X0470000Y0169644D01*
X0470000Y0168045D02*
X0477352Y0168045D01*
X0479568Y0166447D02*
X0470000Y0166447D01*
X0470000Y0164848D02*
X0496800Y0164848D01*
X0496800Y0163250D02*
X0470000Y0163250D01*
X0470000Y0161651D02*
X0496800Y0161651D01*
X0496800Y0160053D02*
X0470000Y0160053D01*
X0470000Y0158454D02*
X0496800Y0158454D01*
X0496800Y0156856D02*
X0470000Y0156856D01*
X0470000Y0155257D02*
X0496800Y0155257D01*
X0496800Y0153659D02*
X0470000Y0153659D01*
X0470000Y0152060D02*
X0496800Y0152060D01*
X0496800Y0150462D02*
X0470000Y0150462D01*
X0470000Y0148863D02*
X0496800Y0148863D01*
X0496800Y0147265D02*
X0470000Y0147265D01*
X0470000Y0145666D02*
X0496800Y0145666D01*
X0496800Y0144068D02*
X0470000Y0144068D01*
X0470000Y0142469D02*
X0496800Y0142469D01*
X0496800Y0140870D02*
X0470000Y0140870D01*
X0470000Y0139272D02*
X0496800Y0139272D01*
X0496800Y0137673D02*
X0470000Y0137673D01*
X0470000Y0136075D02*
X0496800Y0136075D01*
X0496800Y0134476D02*
X0470000Y0134476D01*
X0470000Y0132878D02*
X0496800Y0132878D01*
X0496800Y0131279D02*
X0470000Y0131279D01*
X0470000Y0129681D02*
X0496800Y0129681D01*
X0496800Y0128082D02*
X0470000Y0128082D01*
X0470000Y0126484D02*
X0496800Y0126484D01*
X0496800Y0124885D02*
X0470000Y0124885D01*
X0470000Y0123287D02*
X0496800Y0123287D01*
X0496800Y0121688D02*
X0470000Y0121688D01*
X0470000Y0120090D02*
X0496800Y0120090D01*
X0496800Y0118491D02*
X0470000Y0118491D01*
X0470000Y0116893D02*
X0496800Y0116893D01*
X0496800Y0115294D02*
X0470000Y0115294D01*
X0470000Y0113696D02*
X0496800Y0113696D01*
X0496800Y0112097D02*
X0470000Y0112097D01*
X0470000Y0110499D02*
X0496800Y0110499D01*
X0496800Y0108900D02*
X0470000Y0108900D01*
X0470000Y0107302D02*
X0479926Y0107302D01*
X0480646Y0107600D02*
X0478515Y0106717D01*
X0476883Y0105085D01*
X0476000Y0102954D01*
X0476000Y0100646D01*
X0476883Y0098515D01*
X0478515Y0096883D01*
X0480646Y0096000D01*
X0482954Y0096000D01*
X0485085Y0096883D01*
X0486717Y0098515D01*
X0487600Y0100646D01*
X0487600Y0102954D01*
X0486717Y0105085D01*
X0485085Y0106717D01*
X0482954Y0107600D01*
X0480646Y0107600D01*
X0483674Y0107302D02*
X0496800Y0107302D01*
X0496800Y0105703D02*
X0486099Y0105703D01*
X0487123Y0104105D02*
X0496800Y0104105D01*
X0496800Y0102506D02*
X0487600Y0102506D01*
X0487600Y0100908D02*
X0496800Y0100908D01*
X0496800Y0099309D02*
X0487046Y0099309D01*
X0485913Y0097711D02*
X0496347Y0097711D01*
X0494748Y0096112D02*
X0483224Y0096112D01*
X0480375Y0096112D02*
X0341600Y0096112D01*
X0341600Y0095845D02*
X0341600Y0097755D01*
X0340869Y0099519D01*
X0339519Y0100869D01*
X0337755Y0101600D01*
X0335845Y0101600D01*
X0334081Y0100869D01*
X0333212Y0100000D01*
X0333125Y0100000D01*
X0323613Y0109513D01*
X0322437Y0110000D01*
X0315071Y0110000D01*
X0316039Y0110968D01*
X0316800Y0112805D01*
X0316800Y0120795D01*
X0316039Y0122632D01*
X0314632Y0124039D01*
X0312795Y0124800D01*
X0310805Y0124800D01*
X0308968Y0124039D01*
X0307561Y0122632D01*
X0306800Y0120795D01*
X0306800Y0112805D01*
X0307561Y0110968D01*
X0308529Y0110000D01*
X0308125Y0110000D01*
X0299513Y0118613D01*
X0298613Y0119513D01*
X0297437Y0120000D01*
X0296800Y0120000D01*
X0296800Y0120795D01*
X0296039Y0122632D01*
X0294632Y0124039D01*
X0292795Y0124800D01*
X0290805Y0124800D01*
X0288968Y0124039D01*
X0287561Y0122632D01*
X0286800Y0120795D01*
X0286800Y0112805D01*
X0287561Y0110968D01*
X0288529Y0110000D01*
X0270388Y0110000D01*
X0269519Y0110869D01*
X0267755Y0111600D01*
X0265845Y0111600D01*
X0264081Y0110869D01*
X0262731Y0109519D01*
X0262000Y0107755D01*
X0262000Y0105845D01*
X0262731Y0104081D01*
X0264081Y0102731D01*
X0265845Y0102000D01*
X0267755Y0102000D01*
X0269519Y0102731D01*
X0270388Y0103600D01*
X0288529Y0103600D01*
X0287561Y0102632D01*
X0286800Y0100795D01*
X0286800Y0092805D01*
X0287561Y0090968D01*
X0288968Y0089561D01*
X0290805Y0088800D01*
X0292795Y0088800D01*
X0294632Y0089561D01*
X0296039Y0090968D01*
X0296800Y0092805D01*
X0296800Y0099775D01*
X0302487Y0094087D01*
X0303663Y0093600D01*
X0306800Y0093600D01*
X0306800Y0092805D01*
X0307561Y0090968D01*
X0308529Y0090000D01*
X0306163Y0090000D01*
X0304987Y0089513D01*
X0296644Y0081170D01*
X0296039Y0082632D01*
X0294632Y0084039D01*
X0292795Y0084800D01*
X0290805Y0084800D01*
X0288968Y0084039D01*
X0287561Y0082632D01*
X0286800Y0080795D01*
X0286800Y0072805D01*
X0287561Y0070968D01*
X0288968Y0069561D01*
X0290805Y0068800D01*
X0292795Y0068800D01*
X0294632Y0069561D01*
X0296039Y0070968D01*
X0296800Y0072805D01*
X0296800Y0073600D01*
X0297437Y0073600D01*
X0297724Y0073719D01*
X0297300Y0072695D01*
X0297300Y0053664D01*
X0296800Y0053164D01*
X0296800Y0060795D01*
X0296039Y0062632D01*
X0294632Y0064039D01*
X0292795Y0064800D01*
X0290805Y0064800D01*
X0288968Y0064039D01*
X0287561Y0062632D01*
X0287009Y0061300D01*
X0285905Y0061300D01*
X0284251Y0060615D01*
X0282985Y0059349D01*
X0274936Y0051300D01*
X0258664Y0051300D01*
X0234349Y0075615D01*
X0232695Y0076300D01*
X0223812Y0076300D01*
X0223752Y0076445D01*
X0221445Y0078752D01*
X0218431Y0080000D01*
X0215169Y0080000D01*
X0212155Y0078752D01*
X0209848Y0076445D01*
X0208600Y0073431D01*
X0208600Y0070169D01*
X0209848Y0067155D01*
X0212155Y0064848D01*
X0215169Y0063600D01*
X0218431Y0063600D01*
X0221445Y0064848D01*
X0223752Y0067155D01*
X0223812Y0067300D01*
X0229936Y0067300D01*
X0252985Y0044251D01*
X0254251Y0042985D01*
X0255905Y0042300D01*
X0277695Y0042300D01*
X0279349Y0042985D01*
X0287494Y0051130D01*
X0287561Y0050968D01*
X0288582Y0049946D01*
X0287985Y0049349D01*
X0267902Y0029266D01*
X0267217Y0027612D01*
X0267217Y0024798D01*
X0265783Y0023364D01*
X0264717Y0020791D01*
X0264717Y0018006D01*
X0265783Y0015433D01*
X0267752Y0013464D01*
X0270325Y0012398D01*
X0273109Y0012398D01*
X0275682Y0013464D01*
X0277651Y0015433D01*
X0278717Y0018006D01*
X0278717Y0020791D01*
X0277651Y0023364D01*
X0276217Y0024798D01*
X0276217Y0024853D01*
X0293664Y0042300D01*
X0297695Y0042300D01*
X0299349Y0042985D01*
X0304349Y0047985D01*
X0305615Y0049251D01*
X0306300Y0050905D01*
X0306300Y0069936D01*
X0307494Y0071130D01*
X0307561Y0070968D01*
X0308968Y0069561D01*
X0310805Y0068800D01*
X0312795Y0068800D01*
X0314632Y0069561D01*
X0316039Y0070968D01*
X0316800Y0072805D01*
X0316800Y0080795D01*
X0316039Y0082632D01*
X0315071Y0083600D01*
X0320475Y0083600D01*
X0329987Y0074087D01*
X0331163Y0073600D01*
X0333212Y0073600D01*
X0334081Y0072731D01*
X0335845Y0072000D01*
X0337755Y0072000D01*
X0339519Y0072731D01*
X0340869Y0074081D01*
X0341600Y0075845D01*
X0341600Y0077755D01*
X0340869Y0079519D01*
X0339519Y0080869D01*
X0337755Y0081600D01*
X0335845Y0081600D01*
X0334081Y0080869D01*
X0333212Y0080000D01*
X0333125Y0080000D01*
X0324513Y0088613D01*
X0323613Y0089513D01*
X0322437Y0090000D01*
X0315071Y0090000D01*
X0316039Y0090968D01*
X0316800Y0092805D01*
X0316800Y0100795D01*
X0316039Y0102632D01*
X0315071Y0103600D01*
X0320475Y0103600D01*
X0329987Y0094087D01*
X0331163Y0093600D01*
X0333212Y0093600D01*
X0334081Y0092731D01*
X0335845Y0092000D01*
X0337755Y0092000D01*
X0339519Y0092731D01*
X0340869Y0094081D01*
X0341600Y0095845D01*
X0341048Y0094514D02*
X0493150Y0094514D01*
X0491551Y0092915D02*
X0339703Y0092915D01*
X0341600Y0097711D02*
X0465755Y0097711D01*
X0467845Y0097711D02*
X0477687Y0097711D01*
X0476554Y0099309D02*
X0470218Y0099309D01*
X0470953Y0100908D02*
X0476000Y0100908D01*
X0476000Y0102506D02*
X0470978Y0102506D01*
X0470368Y0104105D02*
X0476477Y0104105D01*
X0477501Y0105703D02*
X0470000Y0105703D01*
X0463600Y0105703D02*
X0341541Y0105703D01*
X0341600Y0105845D02*
X0340869Y0104081D01*
X0339519Y0102731D01*
X0337755Y0102000D01*
X0335845Y0102000D01*
X0334081Y0102731D01*
X0332731Y0104081D01*
X0332000Y0105845D01*
X0332000Y0107755D01*
X0332731Y0109519D01*
X0334081Y0110869D01*
X0335845Y0111600D01*
X0337755Y0111600D01*
X0339519Y0110869D01*
X0340869Y0109519D01*
X0341600Y0107755D01*
X0341600Y0105845D01*
X0341600Y0107302D02*
X0463600Y0107302D01*
X0463600Y0108900D02*
X0341126Y0108900D01*
X0339889Y0110499D02*
X0463600Y0110499D01*
X0463600Y0112097D02*
X0449296Y0112097D01*
X0449802Y0112307D02*
X0451293Y0113798D01*
X0452100Y0115746D01*
X0452100Y0117854D01*
X0451293Y0119802D01*
X0449802Y0121293D01*
X0447854Y0122100D01*
X0445746Y0122100D01*
X0443798Y0121293D01*
X0442307Y0119802D01*
X0441500Y0117854D01*
X0441500Y0115746D01*
X0442307Y0113798D01*
X0443798Y0112307D01*
X0445746Y0111500D01*
X0447854Y0111500D01*
X0449802Y0112307D01*
X0451191Y0113696D02*
X0463600Y0113696D01*
X0463600Y0115294D02*
X0451913Y0115294D01*
X0452100Y0116893D02*
X0463600Y0116893D01*
X0463600Y0118491D02*
X0451836Y0118491D01*
X0451005Y0120090D02*
X0463600Y0120090D01*
X0463600Y0121688D02*
X0448848Y0121688D01*
X0444752Y0121688D02*
X0426469Y0121688D01*
X0427329Y0121332D02*
X0425363Y0122146D01*
X0423237Y0122146D01*
X0421271Y0121332D01*
X0419767Y0119829D01*
X0418954Y0117863D01*
X0418954Y0115737D01*
X0419767Y0113771D01*
X0421271Y0112267D01*
X0423237Y0111454D01*
X0425363Y0111454D01*
X0427329Y0112267D01*
X0428832Y0113771D01*
X0429646Y0115737D01*
X0429646Y0117863D01*
X0428832Y0119829D01*
X0427329Y0121332D01*
X0428571Y0120090D02*
X0442595Y0120090D01*
X0441764Y0118491D02*
X0429386Y0118491D01*
X0429646Y0116893D02*
X0441500Y0116893D01*
X0441687Y0115294D02*
X0429463Y0115294D01*
X0428757Y0113696D02*
X0442409Y0113696D01*
X0444304Y0112097D02*
X0426918Y0112097D01*
X0421682Y0112097D02*
X0337990Y0112097D01*
X0337755Y0112000D02*
X0339519Y0112731D01*
X0340869Y0114081D01*
X0341600Y0115845D01*
X0341600Y0117755D01*
X0340869Y0119519D01*
X0339519Y0120869D01*
X0337755Y0121600D01*
X0335845Y0121600D01*
X0334081Y0120869D01*
X0332731Y0119519D01*
X0332000Y0117755D01*
X0332000Y0115845D01*
X0332731Y0114081D01*
X0334081Y0112731D01*
X0335845Y0112000D01*
X0337755Y0112000D01*
X0335610Y0112097D02*
X0316507Y0112097D01*
X0316800Y0113696D02*
X0333116Y0113696D01*
X0332228Y0115294D02*
X0316800Y0115294D01*
X0316800Y0116893D02*
X0332000Y0116893D01*
X0332305Y0118491D02*
X0316800Y0118491D01*
X0316800Y0120090D02*
X0333302Y0120090D01*
X0340298Y0120090D02*
X0369797Y0120090D01*
X0369545Y0120157D02*
X0370431Y0119920D01*
X0371341Y0119800D01*
X0371600Y0119800D01*
X0371600Y0126600D01*
X0364800Y0126600D01*
X0364800Y0126341D01*
X0364920Y0125431D01*
X0365157Y0124545D01*
X0365508Y0123697D01*
X0365967Y0122903D01*
X0366526Y0122175D01*
X0367175Y0121526D01*
X0367903Y0120967D01*
X0368697Y0120508D01*
X0369545Y0120157D01*
X0371600Y0120090D02*
X0372000Y0120090D01*
X0372000Y0119800D02*
X0372259Y0119800D01*
X0373169Y0119920D01*
X0374055Y0120157D01*
X0374903Y0120508D01*
X0375697Y0120967D01*
X0376425Y0121526D01*
X0377074Y0122175D01*
X0377633Y0122903D01*
X0378092Y0123697D01*
X0378443Y0124545D01*
X0378680Y0125431D01*
X0378800Y0126341D01*
X0378800Y0126600D01*
X0372000Y0126600D01*
X0372000Y0127000D01*
X0371600Y0127000D01*
X0371600Y0133800D01*
X0371341Y0133800D01*
X0370431Y0133680D01*
X0369545Y0133443D01*
X0368697Y0133092D01*
X0367903Y0132633D01*
X0367175Y0132074D01*
X0366526Y0131425D01*
X0365967Y0130697D01*
X0365508Y0129903D01*
X0365157Y0129055D01*
X0364920Y0128169D01*
X0364800Y0127259D01*
X0364800Y0127000D01*
X0371600Y0127000D01*
X0371600Y0126600D01*
X0372000Y0126600D01*
X0372000Y0119800D01*
X0373803Y0120090D02*
X0420029Y0120090D01*
X0419214Y0118491D02*
X0341295Y0118491D01*
X0341600Y0116893D02*
X0418954Y0116893D01*
X0419137Y0115294D02*
X0341372Y0115294D01*
X0340484Y0113696D02*
X0419843Y0113696D01*
X0422131Y0121688D02*
X0376588Y0121688D01*
X0377855Y0123287D02*
X0463600Y0123287D01*
X0463600Y0124885D02*
X0378534Y0124885D01*
X0378800Y0126484D02*
X0463600Y0126484D01*
X0463600Y0128082D02*
X0378692Y0128082D01*
X0378680Y0128169D02*
X0378443Y0129055D01*
X0378092Y0129903D01*
X0377633Y0130697D01*
X0377074Y0131425D01*
X0376425Y0132074D01*
X0375697Y0132633D01*
X0374903Y0133092D01*
X0374055Y0133443D01*
X0373169Y0133680D01*
X0372259Y0133800D01*
X0372000Y0133800D01*
X0372000Y0127000D01*
X0378800Y0127000D01*
X0378800Y0127259D01*
X0378680Y0128169D01*
X0378183Y0129681D02*
X0463600Y0129681D01*
X0463600Y0131279D02*
X0377186Y0131279D01*
X0375273Y0132878D02*
X0443227Y0132878D01*
X0443347Y0132757D02*
X0444022Y0132267D01*
X0444766Y0131888D01*
X0445559Y0131630D01*
X0446383Y0131500D01*
X0446800Y0131500D01*
X0447217Y0131500D01*
X0448041Y0131630D01*
X0448834Y0131888D01*
X0449578Y0132267D01*
X0450253Y0132757D01*
X0450843Y0133347D01*
X0451333Y0134022D01*
X0451712Y0134766D01*
X0451969Y0135559D01*
X0452100Y0136383D01*
X0452100Y0136800D01*
X0452100Y0137217D01*
X0451969Y0138041D01*
X0451712Y0138834D01*
X0451333Y0139578D01*
X0450843Y0140253D01*
X0450253Y0140843D01*
X0449578Y0141333D01*
X0448834Y0141712D01*
X0448041Y0141969D01*
X0447217Y0142100D01*
X0446800Y0142100D01*
X0446800Y0136800D01*
X0446800Y0136800D01*
X0452100Y0136800D01*
X0446800Y0136800D01*
X0446800Y0136800D01*
X0446800Y0136800D01*
X0441500Y0136800D01*
X0441500Y0137217D01*
X0441630Y0138041D01*
X0441888Y0138834D01*
X0442267Y0139578D01*
X0442757Y0140253D01*
X0443347Y0140843D01*
X0444022Y0141333D01*
X0444766Y0141712D01*
X0445559Y0141969D01*
X0446383Y0142100D01*
X0446800Y0142100D01*
X0446800Y0136800D01*
X0446800Y0131500D01*
X0446800Y0136800D01*
X0446800Y0136800D01*
X0441500Y0136800D01*
X0441500Y0136383D01*
X0441630Y0135559D01*
X0441888Y0134766D01*
X0442267Y0134022D01*
X0442757Y0133347D01*
X0443347Y0132757D01*
X0442036Y0134476D02*
X0156564Y0134476D01*
X0156712Y0134766D02*
X0156969Y0135559D01*
X0157100Y0136383D01*
X0157100Y0136800D01*
X0157100Y0137217D01*
X0156969Y0138041D01*
X0156712Y0138834D01*
X0156333Y0139578D01*
X0155843Y0140253D01*
X0155253Y0140843D01*
X0154578Y0141333D01*
X0153834Y0141712D01*
X0153041Y0141969D01*
X0152217Y0142100D01*
X0151800Y0142100D01*
X0151800Y0136800D01*
X0151800Y0136800D01*
X0157100Y0136800D01*
X0151800Y0136800D01*
X0151800Y0136800D01*
X0151800Y0136800D01*
X0146500Y0136800D01*
X0146500Y0137217D01*
X0146630Y0138041D01*
X0146888Y0138834D01*
X0147267Y0139578D01*
X0147757Y0140253D01*
X0148347Y0140843D01*
X0149022Y0141333D01*
X0149766Y0141712D01*
X0150559Y0141969D01*
X0151383Y0142100D01*
X0151800Y0142100D01*
X0151800Y0136800D01*
X0151800Y0131500D01*
X0152217Y0131500D01*
X0153041Y0131630D01*
X0153834Y0131888D01*
X0154578Y0132267D01*
X0155253Y0132757D01*
X0155843Y0133347D01*
X0156333Y0134022D01*
X0156712Y0134766D01*
X0157051Y0136075D02*
X0441549Y0136075D01*
X0441572Y0137673D02*
X0157028Y0137673D01*
X0156489Y0139272D02*
X0442111Y0139272D01*
X0443386Y0140870D02*
X0375770Y0140870D01*
X0375765Y0140866D02*
X0377734Y0142835D01*
X0378800Y0145408D01*
X0378800Y0148192D01*
X0377734Y0150765D01*
X0375765Y0152734D01*
X0373192Y0153800D01*
X0370408Y0153800D01*
X0367835Y0152734D01*
X0365866Y0150765D01*
X0364800Y0148192D01*
X0364800Y0145408D01*
X0365866Y0142835D01*
X0367835Y0140866D01*
X0370408Y0139800D01*
X0373192Y0139800D01*
X0375765Y0140866D01*
X0377368Y0142469D02*
X0405236Y0142469D01*
X0405885Y0142200D02*
X0407715Y0142200D01*
X0409406Y0142900D01*
X0410700Y0144194D01*
X0411400Y0145885D01*
X0411400Y0147715D01*
X0410700Y0149406D01*
X0409406Y0150700D01*
X0407715Y0151400D01*
X0405885Y0151400D01*
X0404194Y0150700D01*
X0402900Y0149406D01*
X0402200Y0147715D01*
X0402200Y0145885D01*
X0402900Y0144194D01*
X0404194Y0142900D01*
X0405885Y0142200D01*
X0408364Y0142469D02*
X0421070Y0142469D01*
X0421271Y0142267D02*
X0423237Y0141454D01*
X0425363Y0141454D01*
X0427329Y0142267D01*
X0428832Y0143771D01*
X0429646Y0145737D01*
X0429646Y0147863D01*
X0428832Y0149829D01*
X0427329Y0151332D01*
X0425486Y0152096D01*
X0427019Y0152731D01*
X0428369Y0154081D01*
X0429100Y0155845D01*
X0429100Y0157755D01*
X0428369Y0159519D01*
X0427019Y0160869D01*
X0425255Y0161600D01*
X0423345Y0161600D01*
X0421581Y0160869D01*
X0420231Y0159519D01*
X0419500Y0157755D01*
X0419500Y0155845D01*
X0420231Y0154081D01*
X0421581Y0152731D01*
X0423114Y0152096D01*
X0421271Y0151332D01*
X0419767Y0149829D01*
X0418954Y0147863D01*
X0418954Y0145737D01*
X0419767Y0143771D01*
X0421271Y0142267D01*
X0419645Y0144068D02*
X0410573Y0144068D01*
X0411309Y0145666D02*
X0418983Y0145666D01*
X0418954Y0147265D02*
X0411400Y0147265D01*
X0410924Y0148863D02*
X0419368Y0148863D01*
X0420401Y0150462D02*
X0409644Y0150462D01*
X0403956Y0150462D02*
X0377860Y0150462D01*
X0378522Y0148863D02*
X0402676Y0148863D01*
X0402200Y0147265D02*
X0378800Y0147265D01*
X0378800Y0145666D02*
X0402291Y0145666D01*
X0403027Y0144068D02*
X0378245Y0144068D01*
X0367830Y0140870D02*
X0235770Y0140870D01*
X0235765Y0140866D02*
X0237734Y0142835D01*
X0238800Y0145408D01*
X0238800Y0148192D01*
X0237734Y0150765D01*
X0235765Y0152734D01*
X0233192Y0153800D01*
X0230408Y0153800D01*
X0227835Y0152734D01*
X0225866Y0150765D01*
X0224800Y0148192D01*
X0224800Y0145408D01*
X0225866Y0142835D01*
X0227835Y0140866D01*
X0230408Y0139800D01*
X0233192Y0139800D01*
X0235765Y0140866D01*
X0237368Y0142469D02*
X0366232Y0142469D01*
X0365355Y0144068D02*
X0238245Y0144068D01*
X0238800Y0145666D02*
X0364800Y0145666D01*
X0364800Y0147265D02*
X0238800Y0147265D01*
X0238522Y0148863D02*
X0365078Y0148863D01*
X0365740Y0150462D02*
X0237860Y0150462D01*
X0236439Y0152060D02*
X0367161Y0152060D01*
X0370066Y0153659D02*
X0233534Y0153659D01*
X0230066Y0153659D02*
X0180447Y0153659D01*
X0180869Y0154081D02*
X0181600Y0155845D01*
X0181600Y0157755D01*
X0180869Y0159519D01*
X0179519Y0160869D01*
X0177755Y0161600D01*
X0175845Y0161600D01*
X0174081Y0160869D01*
X0172731Y0159519D01*
X0172000Y0157755D01*
X0172000Y0155845D01*
X0172731Y0154081D01*
X0174081Y0152731D01*
X0175614Y0152096D01*
X0173771Y0151332D01*
X0172267Y0149829D01*
X0171454Y0147863D01*
X0171454Y0145737D01*
X0172267Y0143771D01*
X0173771Y0142267D01*
X0175737Y0141454D01*
X0177863Y0141454D01*
X0179829Y0142267D01*
X0181332Y0143771D01*
X0182146Y0145737D01*
X0182146Y0147863D01*
X0181332Y0149829D01*
X0179829Y0151332D01*
X0177986Y0152096D01*
X0179519Y0152731D01*
X0180869Y0154081D01*
X0181356Y0155257D02*
X0419744Y0155257D01*
X0419500Y0156856D02*
X0181600Y0156856D01*
X0181310Y0158454D02*
X0419790Y0158454D01*
X0420764Y0160053D02*
X0343802Y0160053D01*
X0343192Y0159800D02*
X0345765Y0160866D01*
X0347734Y0162835D01*
X0348800Y0165408D01*
X0348800Y0168192D01*
X0347734Y0170765D01*
X0345765Y0172734D01*
X0343192Y0173800D01*
X0340408Y0173800D01*
X0337835Y0172734D01*
X0335866Y0170765D01*
X0334800Y0168192D01*
X0334800Y0165408D01*
X0335866Y0162835D01*
X0337835Y0160866D01*
X0340408Y0159800D01*
X0343192Y0159800D01*
X0339798Y0160053D02*
X0323664Y0160053D01*
X0324055Y0160157D02*
X0324903Y0160508D01*
X0325697Y0160967D01*
X0326425Y0161526D01*
X0327074Y0162175D01*
X0327633Y0162903D01*
X0328092Y0163697D01*
X0328443Y0164545D01*
X0328680Y0165431D01*
X0328800Y0166341D01*
X0328800Y0166600D01*
X0322000Y0166600D01*
X0322000Y0167000D01*
X0328800Y0167000D01*
X0328800Y0167259D01*
X0328680Y0168169D01*
X0328443Y0169055D01*
X0328092Y0169903D01*
X0327633Y0170697D01*
X0327074Y0171425D01*
X0326425Y0172074D01*
X0325697Y0172633D01*
X0324903Y0173092D01*
X0324055Y0173443D01*
X0323169Y0173680D01*
X0322259Y0173800D01*
X0322000Y0173800D01*
X0322000Y0167000D01*
X0321600Y0167000D01*
X0321600Y0173800D01*
X0321341Y0173800D01*
X0320431Y0173680D01*
X0319545Y0173443D01*
X0318697Y0173092D01*
X0317903Y0172633D01*
X0317175Y0172074D01*
X0316526Y0171425D01*
X0315967Y0170697D01*
X0315508Y0169903D01*
X0315157Y0169055D01*
X0314920Y0168169D01*
X0314800Y0167259D01*
X0314800Y0167000D01*
X0321600Y0167000D01*
X0321600Y0166600D01*
X0322000Y0166600D01*
X0322000Y0159800D01*
X0322259Y0159800D01*
X0323169Y0159920D01*
X0324055Y0160157D01*
X0322000Y0160053D02*
X0321600Y0160053D01*
X0321600Y0159800D02*
X0321600Y0166600D01*
X0314800Y0166600D01*
X0314800Y0166341D01*
X0314920Y0165431D01*
X0315157Y0164545D01*
X0315508Y0163697D01*
X0315967Y0162903D01*
X0316526Y0162175D01*
X0317175Y0161526D01*
X0317903Y0160967D01*
X0318697Y0160508D01*
X0319545Y0160157D01*
X0320431Y0159920D01*
X0321341Y0159800D01*
X0321600Y0159800D01*
X0319936Y0160053D02*
X0283664Y0160053D01*
X0284055Y0160157D02*
X0283169Y0159920D01*
X0282259Y0159800D01*
X0282000Y0159800D01*
X0282000Y0166600D01*
X0282000Y0167000D01*
X0288800Y0167000D01*
X0288800Y0167259D01*
X0288680Y0168169D01*
X0288443Y0169055D01*
X0288092Y0169903D01*
X0287633Y0170697D01*
X0287074Y0171425D01*
X0286425Y0172074D01*
X0285697Y0172633D01*
X0284903Y0173092D01*
X0284055Y0173443D01*
X0283169Y0173680D01*
X0282259Y0173800D01*
X0282000Y0173800D01*
X0282000Y0167000D01*
X0281600Y0167000D01*
X0281600Y0173800D01*
X0281341Y0173800D01*
X0280431Y0173680D01*
X0279545Y0173443D01*
X0278697Y0173092D01*
X0277903Y0172633D01*
X0277175Y0172074D01*
X0276526Y0171425D01*
X0275967Y0170697D01*
X0275508Y0169903D01*
X0275157Y0169055D01*
X0274920Y0168169D01*
X0274800Y0167259D01*
X0274800Y0167000D01*
X0281600Y0167000D01*
X0281600Y0166600D01*
X0282000Y0166600D01*
X0288800Y0166600D01*
X0288800Y0166341D01*
X0288680Y0165431D01*
X0288443Y0164545D01*
X0288092Y0163697D01*
X0287633Y0162903D01*
X0287074Y0162175D01*
X0286425Y0161526D01*
X0285697Y0160967D01*
X0284903Y0160508D01*
X0284055Y0160157D01*
X0282000Y0160053D02*
X0281600Y0160053D01*
X0281600Y0159800D02*
X0281600Y0166600D01*
X0274800Y0166600D01*
X0274800Y0166341D01*
X0274920Y0165431D01*
X0275157Y0164545D01*
X0275508Y0163697D01*
X0275967Y0162903D01*
X0276526Y0162175D01*
X0277175Y0161526D01*
X0277903Y0160967D01*
X0278697Y0160508D01*
X0279545Y0160157D01*
X0280431Y0159920D01*
X0281341Y0159800D01*
X0281600Y0159800D01*
X0279936Y0160053D02*
X0263802Y0160053D01*
X0263192Y0159800D02*
X0265765Y0160866D01*
X0267734Y0162835D01*
X0268800Y0165408D01*
X0268800Y0168192D01*
X0267734Y0170765D01*
X0265765Y0172734D01*
X0263192Y0173800D01*
X0260408Y0173800D01*
X0257835Y0172734D01*
X0255866Y0170765D01*
X0254800Y0168192D01*
X0254800Y0165408D01*
X0255866Y0162835D01*
X0257835Y0160866D01*
X0260408Y0159800D01*
X0263192Y0159800D01*
X0259798Y0160053D02*
X0180336Y0160053D01*
X0179519Y0162731D02*
X0177755Y0162000D01*
X0175845Y0162000D01*
X0174081Y0162731D01*
X0172731Y0164081D01*
X0172000Y0165845D01*
X0172000Y0167755D01*
X0172731Y0169519D01*
X0174081Y0170869D01*
X0175845Y0171600D01*
X0177755Y0171600D01*
X0179519Y0170869D01*
X0180869Y0169519D01*
X0181600Y0167755D01*
X0181600Y0165845D01*
X0180869Y0164081D01*
X0179519Y0162731D01*
X0180038Y0163250D02*
X0255694Y0163250D01*
X0255032Y0164848D02*
X0181187Y0164848D01*
X0181600Y0166447D02*
X0254800Y0166447D01*
X0254800Y0168045D02*
X0181480Y0168045D01*
X0180745Y0169644D02*
X0255401Y0169644D01*
X0256343Y0171242D02*
X0178619Y0171242D01*
X0177755Y0172000D02*
X0179519Y0172731D01*
X0180869Y0174081D01*
X0181600Y0175845D01*
X0181600Y0177755D01*
X0180869Y0179519D01*
X0179519Y0180869D01*
X0177755Y0181600D01*
X0175845Y0181600D01*
X0174081Y0180869D01*
X0172731Y0179519D01*
X0172000Y0177755D01*
X0172000Y0175845D01*
X0172731Y0174081D01*
X0174081Y0172731D01*
X0175845Y0172000D01*
X0177755Y0172000D01*
X0179629Y0172841D02*
X0258092Y0172841D01*
X0265508Y0172841D02*
X0278263Y0172841D01*
X0276385Y0171242D02*
X0267257Y0171242D01*
X0268199Y0169644D02*
X0275401Y0169644D01*
X0274904Y0168045D02*
X0268800Y0168045D01*
X0268800Y0166447D02*
X0274800Y0166447D01*
X0275076Y0164848D02*
X0268568Y0164848D01*
X0267906Y0163250D02*
X0275767Y0163250D01*
X0277049Y0161651D02*
X0266551Y0161651D01*
X0257049Y0161651D02*
X0106800Y0161651D01*
X0106800Y0160053D02*
X0173264Y0160053D01*
X0172290Y0158454D02*
X0106800Y0158454D01*
X0106800Y0156856D02*
X0172000Y0156856D01*
X0172244Y0155257D02*
X0106800Y0155257D01*
X0106800Y0153659D02*
X0173153Y0153659D01*
X0175528Y0152060D02*
X0106800Y0152060D01*
X0106800Y0150462D02*
X0172901Y0150462D01*
X0171868Y0148863D02*
X0106800Y0148863D01*
X0106800Y0147265D02*
X0171454Y0147265D01*
X0171483Y0145666D02*
X0106800Y0145666D01*
X0106800Y0144068D02*
X0172145Y0144068D01*
X0173570Y0142469D02*
X0106800Y0142469D01*
X0106800Y0140870D02*
X0148386Y0140870D01*
X0147111Y0139272D02*
X0106800Y0139272D01*
X0106800Y0137673D02*
X0146572Y0137673D01*
X0146500Y0136800D02*
X0146500Y0136383D01*
X0146630Y0135559D01*
X0146888Y0134766D01*
X0147267Y0134022D01*
X0147757Y0133347D01*
X0148347Y0132757D01*
X0149022Y0132267D01*
X0149766Y0131888D01*
X0150559Y0131630D01*
X0151383Y0131500D01*
X0151800Y0131500D01*
X0151800Y0136800D01*
X0151800Y0136800D01*
X0146500Y0136800D01*
X0146549Y0136075D02*
X0106800Y0136075D01*
X0106800Y0134476D02*
X0147036Y0134476D01*
X0148227Y0132878D02*
X0106800Y0132878D01*
X0106800Y0131279D02*
X0226414Y0131279D01*
X0226526Y0131425D02*
X0225967Y0130697D01*
X0225508Y0129903D01*
X0225157Y0129055D01*
X0224920Y0128169D01*
X0224800Y0127259D01*
X0224800Y0127000D01*
X0231600Y0127000D01*
X0231600Y0133800D01*
X0231341Y0133800D01*
X0230431Y0133680D01*
X0229545Y0133443D01*
X0228697Y0133092D01*
X0227903Y0132633D01*
X0227175Y0132074D01*
X0226526Y0131425D01*
X0225417Y0129681D02*
X0106800Y0129681D01*
X0106800Y0128082D02*
X0224908Y0128082D01*
X0224800Y0126600D02*
X0224800Y0126341D01*
X0224920Y0125431D01*
X0225157Y0124545D01*
X0225508Y0123697D01*
X0225967Y0122903D01*
X0226526Y0122175D01*
X0227175Y0121526D01*
X0227903Y0120967D01*
X0228697Y0120508D01*
X0229545Y0120157D01*
X0230431Y0119920D01*
X0231341Y0119800D01*
X0231600Y0119800D01*
X0231600Y0126600D01*
X0224800Y0126600D01*
X0224800Y0126484D02*
X0106800Y0126484D01*
X0106800Y0124885D02*
X0225066Y0124885D01*
X0225745Y0123287D02*
X0106800Y0123287D01*
X0106800Y0121688D02*
X0149752Y0121688D01*
X0148798Y0121293D02*
X0147307Y0119802D01*
X0146500Y0117854D01*
X0146500Y0115746D01*
X0147307Y0113798D01*
X0148798Y0112307D01*
X0150746Y0111500D01*
X0152854Y0111500D01*
X0154802Y0112307D01*
X0156293Y0113798D01*
X0157100Y0115746D01*
X0157100Y0117854D01*
X0156293Y0119802D01*
X0154802Y0121293D01*
X0152854Y0122100D01*
X0150746Y0122100D01*
X0148798Y0121293D01*
X0147595Y0120090D02*
X0106800Y0120090D01*
X0106800Y0118491D02*
X0146764Y0118491D01*
X0146500Y0116893D02*
X0106800Y0116893D01*
X0106800Y0115294D02*
X0146687Y0115294D01*
X0147409Y0113696D02*
X0106800Y0113696D01*
X0106800Y0112097D02*
X0149304Y0112097D01*
X0154296Y0112097D02*
X0174182Y0112097D01*
X0173771Y0112267D02*
X0175737Y0111454D01*
X0177863Y0111454D01*
X0179829Y0112267D01*
X0181332Y0113771D01*
X0182146Y0115737D01*
X0182146Y0117863D01*
X0181332Y0119829D01*
X0179829Y0121332D01*
X0177863Y0122146D01*
X0175737Y0122146D01*
X0173771Y0121332D01*
X0172267Y0119829D01*
X0171454Y0117863D01*
X0171454Y0115737D01*
X0172267Y0113771D01*
X0173771Y0112267D01*
X0172343Y0113696D02*
X0156191Y0113696D01*
X0156913Y0115294D02*
X0171637Y0115294D01*
X0171454Y0116893D02*
X0157100Y0116893D01*
X0156836Y0118491D02*
X0171714Y0118491D01*
X0172529Y0120090D02*
X0156005Y0120090D01*
X0153848Y0121688D02*
X0174631Y0121688D01*
X0178969Y0121688D02*
X0227012Y0121688D01*
X0229797Y0120090D02*
X0181071Y0120090D01*
X0181886Y0118491D02*
X0262305Y0118491D01*
X0262000Y0117755D02*
X0262000Y0115845D01*
X0262731Y0114081D01*
X0264081Y0112731D01*
X0265845Y0112000D01*
X0267755Y0112000D01*
X0269519Y0112731D01*
X0270869Y0114081D01*
X0271600Y0115845D01*
X0271600Y0117755D01*
X0270869Y0119519D01*
X0269519Y0120869D01*
X0267755Y0121600D01*
X0265845Y0121600D01*
X0264081Y0120869D01*
X0262731Y0119519D01*
X0262000Y0117755D01*
X0262000Y0116893D02*
X0182146Y0116893D01*
X0181963Y0115294D02*
X0262228Y0115294D01*
X0263116Y0113696D02*
X0181257Y0113696D01*
X0179418Y0112097D02*
X0265610Y0112097D01*
X0267990Y0112097D02*
X0287093Y0112097D01*
X0286800Y0113696D02*
X0270484Y0113696D01*
X0271372Y0115294D02*
X0286800Y0115294D01*
X0286800Y0116893D02*
X0271600Y0116893D01*
X0271295Y0118491D02*
X0286800Y0118491D01*
X0286800Y0120090D02*
X0270298Y0120090D01*
X0263302Y0120090D02*
X0233803Y0120090D01*
X0234055Y0120157D02*
X0234903Y0120508D01*
X0235697Y0120967D01*
X0236425Y0121526D01*
X0237074Y0122175D01*
X0237633Y0122903D01*
X0238092Y0123697D01*
X0238443Y0124545D01*
X0238680Y0125431D01*
X0238800Y0126341D01*
X0238800Y0126600D01*
X0232000Y0126600D01*
X0232000Y0127000D01*
X0231600Y0127000D01*
X0231600Y0126600D01*
X0232000Y0126600D01*
X0232000Y0119800D01*
X0232259Y0119800D01*
X0233169Y0119920D01*
X0234055Y0120157D01*
X0232000Y0120090D02*
X0231600Y0120090D01*
X0231600Y0121688D02*
X0232000Y0121688D01*
X0232000Y0123287D02*
X0231600Y0123287D01*
X0231600Y0124885D02*
X0232000Y0124885D01*
X0232000Y0126484D02*
X0231600Y0126484D01*
X0232000Y0127000D02*
X0238800Y0127000D01*
X0238800Y0127259D01*
X0238680Y0128169D01*
X0238443Y0129055D01*
X0238092Y0129903D01*
X0237633Y0130697D01*
X0237074Y0131425D01*
X0236425Y0132074D01*
X0235697Y0132633D01*
X0234903Y0133092D01*
X0234055Y0133443D01*
X0233169Y0133680D01*
X0232259Y0133800D01*
X0232000Y0133800D01*
X0232000Y0127000D01*
X0232000Y0128082D02*
X0231600Y0128082D01*
X0231600Y0129681D02*
X0232000Y0129681D01*
X0232000Y0131279D02*
X0231600Y0131279D01*
X0231600Y0132878D02*
X0232000Y0132878D01*
X0235273Y0132878D02*
X0368327Y0132878D01*
X0366414Y0131279D02*
X0237186Y0131279D01*
X0238183Y0129681D02*
X0365417Y0129681D01*
X0364908Y0128082D02*
X0238692Y0128082D01*
X0238800Y0126484D02*
X0364800Y0126484D01*
X0365066Y0124885D02*
X0238534Y0124885D01*
X0237855Y0123287D02*
X0288216Y0123287D01*
X0287170Y0121688D02*
X0236588Y0121688D01*
X0228327Y0132878D02*
X0155373Y0132878D01*
X0151800Y0132878D02*
X0151800Y0132878D01*
X0151800Y0134476D02*
X0151800Y0134476D01*
X0151800Y0136075D02*
X0151800Y0136075D01*
X0151800Y0137673D02*
X0151800Y0137673D01*
X0151800Y0139272D02*
X0151800Y0139272D01*
X0151800Y0140870D02*
X0151800Y0140870D01*
X0155214Y0140870D02*
X0227830Y0140870D01*
X0226232Y0142469D02*
X0193364Y0142469D01*
X0192715Y0142200D02*
X0194406Y0142900D01*
X0195700Y0144194D01*
X0196400Y0145885D01*
X0196400Y0147715D01*
X0195700Y0149406D01*
X0194406Y0150700D01*
X0192715Y0151400D01*
X0190885Y0151400D01*
X0189194Y0150700D01*
X0187900Y0149406D01*
X0187200Y0147715D01*
X0187200Y0145885D01*
X0187900Y0144194D01*
X0189194Y0142900D01*
X0190885Y0142200D01*
X0192715Y0142200D01*
X0190236Y0142469D02*
X0180030Y0142469D01*
X0181455Y0144068D02*
X0188027Y0144068D01*
X0187291Y0145666D02*
X0182117Y0145666D01*
X0182146Y0147265D02*
X0187200Y0147265D01*
X0187676Y0148863D02*
X0181732Y0148863D01*
X0180699Y0150462D02*
X0188956Y0150462D01*
X0194644Y0150462D02*
X0225740Y0150462D01*
X0225078Y0148863D02*
X0195924Y0148863D01*
X0196400Y0147265D02*
X0224800Y0147265D01*
X0224800Y0145666D02*
X0196309Y0145666D01*
X0195573Y0144068D02*
X0225355Y0144068D01*
X0227161Y0152060D02*
X0178072Y0152060D01*
X0173562Y0163250D02*
X0106800Y0163250D01*
X0106800Y0164848D02*
X0172413Y0164848D01*
X0172000Y0166447D02*
X0124032Y0166447D01*
X0126248Y0168045D02*
X0172120Y0168045D01*
X0172855Y0169644D02*
X0127185Y0169644D01*
X0127600Y0171242D02*
X0174981Y0171242D01*
X0173971Y0172841D02*
X0127600Y0172841D01*
X0126985Y0174439D02*
X0172582Y0174439D01*
X0172000Y0176038D02*
X0126300Y0176038D01*
X0126300Y0177636D02*
X0172000Y0177636D01*
X0172613Y0179235D02*
X0126300Y0179235D01*
X0126300Y0180833D02*
X0174045Y0180833D01*
X0179555Y0180833D02*
X0421545Y0180833D01*
X0421581Y0180869D02*
X0420231Y0179519D01*
X0419500Y0177755D01*
X0419500Y0175845D01*
X0420231Y0174081D01*
X0421581Y0172731D01*
X0423345Y0172000D01*
X0425255Y0172000D01*
X0427019Y0172731D01*
X0428369Y0174081D01*
X0429100Y0175845D01*
X0429100Y0177755D01*
X0428369Y0179519D01*
X0427019Y0180869D01*
X0425255Y0181600D01*
X0423345Y0181600D01*
X0421581Y0180869D01*
X0420113Y0179235D02*
X0180987Y0179235D01*
X0181600Y0177636D02*
X0419500Y0177636D01*
X0419500Y0176038D02*
X0181600Y0176038D01*
X0181018Y0174439D02*
X0420082Y0174439D01*
X0421471Y0172841D02*
X0345508Y0172841D01*
X0347257Y0171242D02*
X0422481Y0171242D01*
X0423345Y0171600D02*
X0421581Y0170869D01*
X0420231Y0169519D01*
X0419500Y0167755D01*
X0419500Y0165845D01*
X0420231Y0164081D01*
X0421581Y0162731D01*
X0423345Y0162000D01*
X0425255Y0162000D01*
X0427019Y0162731D01*
X0428369Y0164081D01*
X0429100Y0165845D01*
X0429100Y0167755D01*
X0428369Y0169519D01*
X0427019Y0170869D01*
X0425255Y0171600D01*
X0423345Y0171600D01*
X0426119Y0171242D02*
X0432481Y0171242D01*
X0433345Y0171600D02*
X0431581Y0170869D01*
X0430231Y0169519D01*
X0429500Y0167755D01*
X0429500Y0165845D01*
X0430231Y0164081D01*
X0431581Y0162731D01*
X0433345Y0162000D01*
X0435255Y0162000D01*
X0437000Y0162723D01*
X0437000Y0160845D01*
X0437731Y0159081D01*
X0439081Y0157731D01*
X0440845Y0157000D01*
X0442755Y0157000D01*
X0444519Y0157731D01*
X0445869Y0159081D01*
X0446600Y0160845D01*
X0446600Y0162755D01*
X0445869Y0164519D01*
X0444519Y0165869D01*
X0442755Y0166600D01*
X0440845Y0166600D01*
X0439100Y0165877D01*
X0439100Y0167723D01*
X0440845Y0167000D01*
X0442755Y0167000D01*
X0444519Y0167731D01*
X0445869Y0169081D01*
X0446600Y0170845D01*
X0446600Y0172755D01*
X0445869Y0174519D01*
X0444519Y0175869D01*
X0442755Y0176600D01*
X0440845Y0176600D01*
X0439081Y0175869D01*
X0437731Y0174519D01*
X0437000Y0172755D01*
X0437000Y0170877D01*
X0435255Y0171600D01*
X0433345Y0171600D01*
X0436119Y0171242D02*
X0437000Y0171242D01*
X0437036Y0172841D02*
X0427129Y0172841D01*
X0428518Y0174439D02*
X0437698Y0174439D01*
X0439488Y0176038D02*
X0429100Y0176038D01*
X0429100Y0177636D02*
X0452073Y0177636D01*
X0452118Y0177924D02*
X0452000Y0177178D01*
X0452000Y0176800D01*
X0456800Y0176800D01*
X0456800Y0176800D01*
X0456800Y0181600D01*
X0457178Y0181600D01*
X0457924Y0181482D01*
X0458643Y0181248D01*
X0459316Y0180905D01*
X0459927Y0180461D01*
X0460461Y0179927D01*
X0460905Y0179316D01*
X0461248Y0178643D01*
X0461482Y0177924D01*
X0461600Y0177178D01*
X0461600Y0176800D01*
X0456800Y0176800D01*
X0456800Y0176800D01*
X0456800Y0176800D01*
X0456800Y0181600D01*
X0456422Y0181600D01*
X0455676Y0181482D01*
X0454957Y0181248D01*
X0454284Y0180905D01*
X0453673Y0180461D01*
X0453139Y0179927D01*
X0452695Y0179316D01*
X0452352Y0178643D01*
X0452118Y0177924D01*
X0452000Y0176800D02*
X0452000Y0176422D01*
X0452118Y0175676D01*
X0452352Y0174957D01*
X0452695Y0174284D01*
X0453139Y0173673D01*
X0453673Y0173139D01*
X0454284Y0172695D01*
X0454957Y0172352D01*
X0455676Y0172118D01*
X0456422Y0172000D01*
X0456800Y0172000D01*
X0457178Y0172000D01*
X0457924Y0172118D01*
X0458643Y0172352D01*
X0459316Y0172695D01*
X0459927Y0173139D01*
X0460461Y0173673D01*
X0460905Y0174284D01*
X0461248Y0174957D01*
X0461482Y0175676D01*
X0461600Y0176422D01*
X0461600Y0176800D01*
X0456800Y0176800D01*
X0456800Y0172000D01*
X0456800Y0176800D01*
X0456800Y0176800D01*
X0452000Y0176800D01*
X0452061Y0176038D02*
X0444112Y0176038D01*
X0445902Y0174439D02*
X0452616Y0174439D01*
X0454083Y0172841D02*
X0446564Y0172841D01*
X0446600Y0171242D02*
X0463600Y0171242D01*
X0463600Y0169644D02*
X0446102Y0169644D01*
X0444833Y0168045D02*
X0463600Y0168045D01*
X0463600Y0166447D02*
X0443125Y0166447D01*
X0440475Y0166447D02*
X0439100Y0166447D01*
X0445540Y0164848D02*
X0463600Y0164848D01*
X0463600Y0163250D02*
X0446395Y0163250D01*
X0446600Y0161651D02*
X0463600Y0161651D01*
X0463600Y0160053D02*
X0446272Y0160053D01*
X0445242Y0158454D02*
X0463600Y0158454D01*
X0463600Y0156856D02*
X0429100Y0156856D01*
X0428856Y0155257D02*
X0463600Y0155257D01*
X0463600Y0153659D02*
X0427947Y0153659D01*
X0425572Y0152060D02*
X0463600Y0152060D01*
X0463600Y0150462D02*
X0428199Y0150462D01*
X0429232Y0148863D02*
X0463600Y0148863D01*
X0463600Y0147265D02*
X0429646Y0147265D01*
X0429617Y0145666D02*
X0463600Y0145666D01*
X0463600Y0144068D02*
X0428955Y0144068D01*
X0427530Y0142469D02*
X0463600Y0142469D01*
X0463600Y0140870D02*
X0450214Y0140870D01*
X0451489Y0139272D02*
X0463600Y0139272D01*
X0463600Y0137673D02*
X0452028Y0137673D01*
X0452051Y0136075D02*
X0463600Y0136075D01*
X0463600Y0134476D02*
X0451564Y0134476D01*
X0450373Y0132878D02*
X0463600Y0132878D01*
X0446800Y0132878D02*
X0446800Y0132878D01*
X0446800Y0134476D02*
X0446800Y0134476D01*
X0446800Y0136075D02*
X0446800Y0136075D01*
X0446800Y0137673D02*
X0446800Y0137673D01*
X0446800Y0139272D02*
X0446800Y0139272D01*
X0446800Y0140870D02*
X0446800Y0140870D01*
X0423028Y0152060D02*
X0376439Y0152060D01*
X0373534Y0153659D02*
X0420653Y0153659D01*
X0428810Y0158454D02*
X0438358Y0158454D01*
X0437328Y0160053D02*
X0427836Y0160053D01*
X0427538Y0163250D02*
X0431062Y0163250D01*
X0429913Y0164848D02*
X0428687Y0164848D01*
X0429100Y0166447D02*
X0429500Y0166447D01*
X0429620Y0168045D02*
X0428980Y0168045D01*
X0428245Y0169644D02*
X0430355Y0169644D01*
X0420355Y0169644D02*
X0348199Y0169644D01*
X0348800Y0168045D02*
X0419620Y0168045D01*
X0419500Y0166447D02*
X0348800Y0166447D01*
X0348568Y0164848D02*
X0419913Y0164848D01*
X0421062Y0163250D02*
X0347906Y0163250D01*
X0346551Y0161651D02*
X0437000Y0161651D01*
X0456800Y0172841D02*
X0456800Y0172841D01*
X0456800Y0174439D02*
X0456800Y0174439D01*
X0456800Y0176038D02*
X0456800Y0176038D01*
X0456800Y0177636D02*
X0456800Y0177636D01*
X0456800Y0179235D02*
X0456800Y0179235D01*
X0456800Y0180833D02*
X0456800Y0180833D01*
X0454185Y0180833D02*
X0427055Y0180833D01*
X0428487Y0179235D02*
X0452653Y0179235D01*
X0459415Y0180833D02*
X0463600Y0180833D01*
X0463600Y0179235D02*
X0460947Y0179235D01*
X0461527Y0177636D02*
X0463600Y0177636D01*
X0463600Y0176038D02*
X0461539Y0176038D01*
X0460984Y0174439D02*
X0463600Y0174439D01*
X0463600Y0172841D02*
X0459517Y0172841D01*
X0463600Y0182432D02*
X0408275Y0182432D01*
X0407715Y0182200D02*
X0409406Y0182900D01*
X0410700Y0184194D01*
X0411400Y0185885D01*
X0411400Y0187715D01*
X0410700Y0189406D01*
X0409406Y0190700D01*
X0407715Y0191400D01*
X0405885Y0191400D01*
X0404194Y0190700D01*
X0402900Y0189406D01*
X0402200Y0187715D01*
X0402200Y0185885D01*
X0402900Y0184194D01*
X0404194Y0182900D01*
X0405885Y0182200D01*
X0407715Y0182200D01*
X0405325Y0182432D02*
X0193275Y0182432D01*
X0192715Y0182200D02*
X0194406Y0182900D01*
X0195700Y0184194D01*
X0196400Y0185885D01*
X0196400Y0187715D01*
X0195700Y0189406D01*
X0194406Y0190700D01*
X0192715Y0191400D01*
X0190885Y0191400D01*
X0189194Y0190700D01*
X0187900Y0189406D01*
X0187200Y0187715D01*
X0187200Y0185885D01*
X0187900Y0184194D01*
X0189194Y0182900D01*
X0190885Y0182200D01*
X0192715Y0182200D01*
X0190325Y0182432D02*
X0126300Y0182432D01*
X0126300Y0184030D02*
X0188064Y0184030D01*
X0187306Y0185629D02*
X0126300Y0185629D01*
X0126300Y0187227D02*
X0187200Y0187227D01*
X0187660Y0188826D02*
X0126846Y0188826D01*
X0127508Y0190424D02*
X0188919Y0190424D01*
X0194681Y0190424D02*
X0229922Y0190424D01*
X0229920Y0190431D02*
X0230157Y0189545D01*
X0230508Y0188697D01*
X0230967Y0187903D01*
X0231526Y0187175D01*
X0232175Y0186526D01*
X0232903Y0185967D01*
X0233697Y0185508D01*
X0234545Y0185157D01*
X0235431Y0184920D01*
X0236341Y0184800D01*
X0236600Y0184800D01*
X0236600Y0191600D01*
X0229800Y0191600D01*
X0229800Y0191341D01*
X0229920Y0190431D01*
X0229800Y0192000D02*
X0236600Y0192000D01*
X0236600Y0198800D01*
X0236341Y0198800D01*
X0235431Y0198680D01*
X0234545Y0198443D01*
X0233697Y0198092D01*
X0232903Y0197633D01*
X0232175Y0197074D01*
X0231526Y0196425D01*
X0230967Y0195697D01*
X0230508Y0194903D01*
X0230157Y0194055D01*
X0229920Y0193169D01*
X0229800Y0192259D01*
X0229800Y0192000D01*
X0229800Y0192023D02*
X0127600Y0192023D01*
X0127323Y0193621D02*
X0230041Y0193621D01*
X0230692Y0195220D02*
X0126583Y0195220D01*
X0126300Y0196818D02*
X0231919Y0196818D01*
X0234483Y0198417D02*
X0126300Y0198417D01*
X0126300Y0200015D02*
X0285031Y0200015D01*
X0284920Y0200431D02*
X0285157Y0199545D01*
X0285508Y0198697D01*
X0285967Y0197903D01*
X0286526Y0197175D01*
X0287175Y0196526D01*
X0287903Y0195967D01*
X0288697Y0195508D01*
X0289545Y0195157D01*
X0290431Y0194920D01*
X0291341Y0194800D01*
X0291600Y0194800D01*
X0291600Y0201600D01*
X0292000Y0201600D01*
X0292000Y0202000D01*
X0298800Y0202000D01*
X0298800Y0202259D01*
X0298680Y0203169D01*
X0298443Y0204055D01*
X0298092Y0204903D01*
X0297633Y0205697D01*
X0297074Y0206425D01*
X0296425Y0207074D01*
X0295697Y0207633D01*
X0294903Y0208092D01*
X0294055Y0208443D01*
X0293169Y0208680D01*
X0292259Y0208800D01*
X0292000Y0208800D01*
X0292000Y0202000D01*
X0291600Y0202000D01*
X0291600Y0208800D01*
X0291341Y0208800D01*
X0290431Y0208680D01*
X0289545Y0208443D01*
X0288697Y0208092D01*
X0287903Y0207633D01*
X0287175Y0207074D01*
X0286526Y0206425D01*
X0285967Y0205697D01*
X0285508Y0204903D01*
X0285157Y0204055D01*
X0284920Y0203169D01*
X0284800Y0202259D01*
X0284800Y0202000D01*
X0291600Y0202000D01*
X0291600Y0201600D01*
X0284800Y0201600D01*
X0284800Y0201341D01*
X0284920Y0200431D01*
X0285670Y0198417D02*
X0239117Y0198417D01*
X0239055Y0198443D02*
X0238169Y0198680D01*
X0237259Y0198800D01*
X0237000Y0198800D01*
X0237000Y0192000D01*
X0236600Y0192000D01*
X0236600Y0191600D01*
X0237000Y0191600D01*
X0237000Y0192000D01*
X0243800Y0192000D01*
X0243800Y0192259D01*
X0243680Y0193169D01*
X0243443Y0194055D01*
X0243092Y0194903D01*
X0242633Y0195697D01*
X0242074Y0196425D01*
X0241425Y0197074D01*
X0240697Y0197633D01*
X0239903Y0198092D01*
X0239055Y0198443D01*
X0237000Y0198417D02*
X0236600Y0198417D01*
X0236600Y0196818D02*
X0237000Y0196818D01*
X0237000Y0195220D02*
X0236600Y0195220D01*
X0236600Y0193621D02*
X0237000Y0193621D01*
X0237000Y0192023D02*
X0236600Y0192023D01*
X0237000Y0191600D02*
X0243800Y0191600D01*
X0243800Y0191341D01*
X0243680Y0190431D01*
X0243443Y0189545D01*
X0243092Y0188697D01*
X0242633Y0187903D01*
X0242074Y0187175D01*
X0241425Y0186526D01*
X0240697Y0185967D01*
X0239903Y0185508D01*
X0239055Y0185157D01*
X0238169Y0184920D01*
X0237259Y0184800D01*
X0237000Y0184800D01*
X0237000Y0191600D01*
X0237000Y0190424D02*
X0236600Y0190424D01*
X0236600Y0188826D02*
X0237000Y0188826D01*
X0237000Y0187227D02*
X0236600Y0187227D01*
X0236600Y0185629D02*
X0237000Y0185629D01*
X0240111Y0185629D02*
X0363489Y0185629D01*
X0363697Y0185508D02*
X0364545Y0185157D01*
X0365431Y0184920D01*
X0366341Y0184800D01*
X0366600Y0184800D01*
X0366600Y0191600D01*
X0359800Y0191600D01*
X0359800Y0191341D01*
X0359920Y0190431D01*
X0360157Y0189545D01*
X0360508Y0188697D01*
X0360967Y0187903D01*
X0361526Y0187175D01*
X0362175Y0186526D01*
X0362903Y0185967D01*
X0363697Y0185508D01*
X0361485Y0187227D02*
X0242115Y0187227D01*
X0243145Y0188826D02*
X0360455Y0188826D01*
X0359922Y0190424D02*
X0243678Y0190424D01*
X0243800Y0192023D02*
X0359800Y0192023D01*
X0359800Y0192000D02*
X0366600Y0192000D01*
X0366600Y0198800D01*
X0366341Y0198800D01*
X0365431Y0198680D01*
X0364545Y0198443D01*
X0363697Y0198092D01*
X0362903Y0197633D01*
X0362175Y0197074D01*
X0361526Y0196425D01*
X0360967Y0195697D01*
X0360508Y0194903D01*
X0360157Y0194055D01*
X0359920Y0193169D01*
X0359800Y0192259D01*
X0359800Y0192000D01*
X0360041Y0193621D02*
X0243559Y0193621D01*
X0242908Y0195220D02*
X0289394Y0195220D01*
X0291600Y0195220D02*
X0292000Y0195220D01*
X0292000Y0194800D02*
X0292259Y0194800D01*
X0293169Y0194920D01*
X0294055Y0195157D01*
X0294903Y0195508D01*
X0295697Y0195967D01*
X0296425Y0196526D01*
X0297074Y0197175D01*
X0297633Y0197903D01*
X0298092Y0198697D01*
X0298443Y0199545D01*
X0298680Y0200431D01*
X0298800Y0201341D01*
X0298800Y0201600D01*
X0292000Y0201600D01*
X0292000Y0194800D01*
X0292000Y0196818D02*
X0291600Y0196818D01*
X0291600Y0198417D02*
X0292000Y0198417D01*
X0292000Y0200015D02*
X0291600Y0200015D01*
X0291600Y0201614D02*
X0126300Y0201614D01*
X0126300Y0203212D02*
X0284932Y0203212D01*
X0285470Y0204811D02*
X0238219Y0204811D01*
X0238192Y0204800D02*
X0240765Y0205866D01*
X0242734Y0207835D01*
X0243800Y0210408D01*
X0243800Y0213192D01*
X0242734Y0215765D01*
X0240765Y0217734D01*
X0238192Y0218800D01*
X0235408Y0218800D01*
X0232835Y0217734D01*
X0230866Y0215765D01*
X0229800Y0213192D01*
X0229800Y0210408D01*
X0230866Y0207835D01*
X0232835Y0205866D01*
X0235408Y0204800D01*
X0238192Y0204800D01*
X0235381Y0204811D02*
X0126300Y0204811D01*
X0126300Y0206409D02*
X0232291Y0206409D01*
X0230794Y0208008D02*
X0126300Y0208008D01*
X0126300Y0209606D02*
X0230132Y0209606D01*
X0229800Y0211205D02*
X0126300Y0211205D01*
X0126300Y0212803D02*
X0229800Y0212803D01*
X0230301Y0214402D02*
X0126300Y0214402D01*
X0126300Y0216001D02*
X0231101Y0216001D01*
X0232700Y0217599D02*
X0199201Y0217599D01*
X0199519Y0217731D02*
X0200869Y0219081D01*
X0201600Y0220845D01*
X0201600Y0222755D01*
X0200869Y0224519D01*
X0199519Y0225869D01*
X0197755Y0226600D01*
X0195845Y0226600D01*
X0194081Y0225869D01*
X0192731Y0224519D01*
X0192000Y0222755D01*
X0192000Y0220845D01*
X0192731Y0219081D01*
X0194081Y0217731D01*
X0195845Y0217000D01*
X0197755Y0217000D01*
X0199519Y0217731D01*
X0200917Y0219198D02*
X0402682Y0219198D01*
X0402731Y0219081D02*
X0404081Y0217731D01*
X0405845Y0217000D01*
X0407755Y0217000D01*
X0409519Y0217731D01*
X0410869Y0219081D01*
X0411600Y0220845D01*
X0411600Y0222755D01*
X0410869Y0224519D01*
X0409519Y0225869D01*
X0407755Y0226600D01*
X0405845Y0226600D01*
X0404081Y0225869D01*
X0402731Y0224519D01*
X0402000Y0222755D01*
X0402000Y0220845D01*
X0402731Y0219081D01*
X0402020Y0220796D02*
X0201580Y0220796D01*
X0201600Y0222395D02*
X0402000Y0222395D01*
X0402513Y0223993D02*
X0201087Y0223993D01*
X0199797Y0225592D02*
X0403803Y0225592D01*
X0409797Y0225592D02*
X0413803Y0225592D01*
X0414081Y0225869D02*
X0412731Y0224519D01*
X0412000Y0222755D01*
X0412000Y0220845D01*
X0412731Y0219081D01*
X0414081Y0217731D01*
X0415845Y0217000D01*
X0417755Y0217000D01*
X0419519Y0217731D01*
X0420869Y0219081D01*
X0421600Y0220845D01*
X0421600Y0222755D01*
X0420869Y0224519D01*
X0419519Y0225869D01*
X0417755Y0226600D01*
X0415845Y0226600D01*
X0414081Y0225869D01*
X0412513Y0223993D02*
X0411087Y0223993D01*
X0411600Y0222395D02*
X0412000Y0222395D01*
X0412020Y0220796D02*
X0411580Y0220796D01*
X0410917Y0219198D02*
X0412682Y0219198D01*
X0414399Y0217599D02*
X0409201Y0217599D01*
X0404399Y0217599D02*
X0370900Y0217599D01*
X0370765Y0217734D02*
X0368192Y0218800D01*
X0365408Y0218800D01*
X0362835Y0217734D01*
X0360866Y0215765D01*
X0359800Y0213192D01*
X0359800Y0210408D01*
X0360866Y0207835D01*
X0362835Y0205866D01*
X0365408Y0204800D01*
X0368192Y0204800D01*
X0370765Y0205866D01*
X0372734Y0207835D01*
X0373800Y0210408D01*
X0373800Y0213192D01*
X0372734Y0215765D01*
X0370765Y0217734D01*
X0372499Y0216001D02*
X0463600Y0216001D01*
X0463600Y0217599D02*
X0459201Y0217599D01*
X0459519Y0217731D02*
X0460869Y0219081D01*
X0461600Y0220845D01*
X0461600Y0222755D01*
X0460869Y0224519D01*
X0459519Y0225869D01*
X0457755Y0226600D01*
X0455845Y0226600D01*
X0454081Y0225869D01*
X0452731Y0224519D01*
X0452000Y0222755D01*
X0452000Y0220845D01*
X0452731Y0219081D01*
X0454081Y0217731D01*
X0455845Y0217000D01*
X0457755Y0217000D01*
X0459519Y0217731D01*
X0460917Y0219198D02*
X0463600Y0219198D01*
X0463600Y0220796D02*
X0461580Y0220796D01*
X0461600Y0222395D02*
X0463600Y0222395D01*
X0463600Y0223993D02*
X0461087Y0223993D01*
X0459797Y0225592D02*
X0463600Y0225592D01*
X0463600Y0227190D02*
X0435935Y0227190D01*
X0436525Y0226600D02*
X0435000Y0228125D01*
X0435000Y0234850D01*
X0435845Y0234500D01*
X0437755Y0234500D01*
X0439519Y0235231D01*
X0440869Y0236581D01*
X0441600Y0238345D01*
X0441600Y0240255D01*
X0440869Y0242019D01*
X0439519Y0243369D01*
X0438962Y0243600D01*
X0442437Y0243600D01*
X0443613Y0244087D01*
X0444513Y0244987D01*
X0449513Y0249987D01*
X0450000Y0251163D01*
X0450000Y0253212D01*
X0450869Y0254081D01*
X0451600Y0255845D01*
X0451600Y0257755D01*
X0450869Y0259519D01*
X0449519Y0260869D01*
X0447755Y0261600D01*
X0445845Y0261600D01*
X0444081Y0260869D01*
X0442731Y0259519D01*
X0442000Y0257755D01*
X0442000Y0255845D01*
X0442731Y0254081D01*
X0443600Y0253212D01*
X0443600Y0253125D01*
X0440475Y0250000D01*
X0433663Y0250000D01*
X0432487Y0249513D01*
X0429987Y0247013D01*
X0429087Y0246113D01*
X0428600Y0244937D01*
X0428600Y0243750D01*
X0427755Y0244100D01*
X0425845Y0244100D01*
X0424081Y0243369D01*
X0422731Y0242019D01*
X0422000Y0240255D01*
X0422000Y0238345D01*
X0422731Y0236581D01*
X0424081Y0235231D01*
X0425845Y0234500D01*
X0427755Y0234500D01*
X0428600Y0234850D01*
X0428600Y0226250D01*
X0427755Y0226600D01*
X0425845Y0226600D01*
X0424081Y0225869D01*
X0422731Y0224519D01*
X0422000Y0222755D01*
X0422000Y0220845D01*
X0422731Y0219081D01*
X0424081Y0217731D01*
X0425845Y0217000D01*
X0427755Y0217000D01*
X0429519Y0217731D01*
X0430869Y0219081D01*
X0431600Y0220845D01*
X0431600Y0222475D01*
X0432000Y0222075D01*
X0432000Y0220845D01*
X0432731Y0219081D01*
X0434081Y0217731D01*
X0435845Y0217000D01*
X0437755Y0217000D01*
X0439519Y0217731D01*
X0440869Y0219081D01*
X0441600Y0220845D01*
X0441600Y0222755D01*
X0440869Y0224519D01*
X0439519Y0225869D01*
X0437755Y0226600D01*
X0436525Y0226600D01*
X0435000Y0228789D02*
X0463600Y0228789D01*
X0463600Y0230387D02*
X0435000Y0230387D01*
X0435000Y0231986D02*
X0463600Y0231986D01*
X0463600Y0233584D02*
X0435000Y0233584D01*
X0439403Y0235183D02*
X0444197Y0235183D01*
X0444081Y0235231D02*
X0445845Y0234500D01*
X0447755Y0234500D01*
X0449519Y0235231D01*
X0450869Y0236581D01*
X0451600Y0238345D01*
X0451600Y0240255D01*
X0450869Y0242019D01*
X0449519Y0243369D01*
X0447755Y0244100D01*
X0445845Y0244100D01*
X0444081Y0243369D01*
X0442731Y0242019D01*
X0442000Y0240255D01*
X0442000Y0238345D01*
X0442731Y0236581D01*
X0444081Y0235231D01*
X0442648Y0236781D02*
X0440952Y0236781D01*
X0441600Y0238380D02*
X0442000Y0238380D01*
X0442000Y0239978D02*
X0441600Y0239978D01*
X0441052Y0241577D02*
X0442548Y0241577D01*
X0443887Y0243175D02*
X0439713Y0243175D01*
X0444299Y0244774D02*
X0463600Y0244774D01*
X0463600Y0246372D02*
X0445898Y0246372D01*
X0447496Y0247971D02*
X0463600Y0247971D01*
X0463600Y0249569D02*
X0449095Y0249569D01*
X0450000Y0251168D02*
X0463600Y0251168D01*
X0463600Y0252766D02*
X0459554Y0252766D01*
X0460987Y0254365D02*
X0463600Y0254365D01*
X0463111Y0255963D02*
X0461600Y0255963D01*
X0454045Y0252766D02*
X0450000Y0252766D01*
X0450987Y0254365D02*
X0452613Y0254365D01*
X0452000Y0255963D02*
X0451600Y0255963D01*
X0451600Y0257562D02*
X0452000Y0257562D01*
X0452582Y0259160D02*
X0451018Y0259160D01*
X0449629Y0260759D02*
X0453971Y0260759D01*
X0456717Y0262357D02*
X0441883Y0262357D01*
X0440284Y0260759D02*
X0443971Y0260759D01*
X0442582Y0259160D02*
X0441018Y0259160D01*
X0441600Y0257562D02*
X0442000Y0257562D01*
X0442000Y0255963D02*
X0441600Y0255963D01*
X0440987Y0254365D02*
X0442613Y0254365D01*
X0443241Y0252766D02*
X0439554Y0252766D01*
X0441642Y0251168D02*
X0371600Y0251168D01*
X0371600Y0250845D02*
X0371600Y0252755D01*
X0370869Y0254519D01*
X0369519Y0255869D01*
X0367755Y0256600D01*
X0365845Y0256600D01*
X0364081Y0255869D01*
X0362731Y0254519D01*
X0362000Y0252755D01*
X0362000Y0250845D01*
X0362731Y0249081D01*
X0364081Y0247731D01*
X0365845Y0247000D01*
X0367755Y0247000D01*
X0369519Y0247731D01*
X0370869Y0249081D01*
X0371600Y0250845D01*
X0371071Y0249569D02*
X0432624Y0249569D01*
X0430945Y0247971D02*
X0369759Y0247971D01*
X0368305Y0246372D02*
X0385818Y0246372D01*
X0385885Y0246400D02*
X0384194Y0245700D01*
X0382900Y0244406D01*
X0382200Y0242715D01*
X0382200Y0240885D01*
X0382900Y0239194D01*
X0384194Y0237900D01*
X0385885Y0237200D01*
X0387715Y0237200D01*
X0389406Y0237900D01*
X0390700Y0239194D01*
X0391400Y0240885D01*
X0391400Y0242715D01*
X0390700Y0244406D01*
X0389406Y0245700D01*
X0387715Y0246400D01*
X0385885Y0246400D01*
X0387782Y0246372D02*
X0429347Y0246372D01*
X0428600Y0244774D02*
X0390332Y0244774D01*
X0391209Y0243175D02*
X0403887Y0243175D01*
X0404081Y0243369D02*
X0402731Y0242019D01*
X0402000Y0240255D01*
X0402000Y0238345D01*
X0402731Y0236581D01*
X0404081Y0235231D01*
X0405845Y0234500D01*
X0407755Y0234500D01*
X0409519Y0235231D01*
X0410869Y0236581D01*
X0411600Y0238345D01*
X0411600Y0240255D01*
X0410869Y0242019D01*
X0409519Y0243369D01*
X0407755Y0244100D01*
X0405845Y0244100D01*
X0404081Y0243369D01*
X0402548Y0241577D02*
X0391400Y0241577D01*
X0391024Y0239978D02*
X0402000Y0239978D01*
X0402000Y0238380D02*
X0389885Y0238380D01*
X0383715Y0238380D02*
X0370168Y0238380D01*
X0371241Y0239978D02*
X0382576Y0239978D01*
X0382200Y0241577D02*
X0371600Y0241577D01*
X0371426Y0243175D02*
X0382391Y0243175D01*
X0383268Y0244774D02*
X0370614Y0244774D01*
X0365295Y0246372D02*
X0356753Y0246372D01*
X0355155Y0247971D02*
X0363841Y0247971D01*
X0362529Y0249569D02*
X0355000Y0249569D01*
X0355000Y0251168D02*
X0362000Y0251168D01*
X0362005Y0252766D02*
X0355000Y0252766D01*
X0355000Y0254365D02*
X0362667Y0254365D01*
X0364308Y0255963D02*
X0355000Y0255963D01*
X0355000Y0257562D02*
X0364489Y0257562D01*
X0364081Y0257731D02*
X0365845Y0257000D01*
X0367755Y0257000D01*
X0369519Y0257731D01*
X0370869Y0259081D01*
X0371600Y0260845D01*
X0371600Y0262755D01*
X0370869Y0264519D01*
X0369519Y0265869D01*
X0367755Y0266600D01*
X0365845Y0266600D01*
X0364081Y0265869D01*
X0362731Y0264519D01*
X0362000Y0262755D01*
X0362000Y0260845D01*
X0362731Y0259081D01*
X0364081Y0257731D01*
X0362698Y0259160D02*
X0355000Y0259160D01*
X0355000Y0260759D02*
X0362036Y0260759D01*
X0362000Y0262357D02*
X0355000Y0262357D01*
X0355000Y0263956D02*
X0362498Y0263956D01*
X0363766Y0265554D02*
X0355000Y0265554D01*
X0355000Y0267153D02*
X0437627Y0267153D01*
X0436029Y0265554D02*
X0369834Y0265554D01*
X0371102Y0263956D02*
X0434430Y0263956D01*
X0433600Y0262357D02*
X0371600Y0262357D01*
X0371564Y0260759D02*
X0408264Y0260759D01*
X0408798Y0261293D02*
X0407307Y0259802D01*
X0406500Y0257854D01*
X0406500Y0255746D01*
X0407307Y0253798D01*
X0408798Y0252307D01*
X0410746Y0251500D01*
X0412854Y0251500D01*
X0414802Y0252307D01*
X0416293Y0253798D01*
X0417100Y0255746D01*
X0417100Y0257854D01*
X0416293Y0259802D01*
X0414802Y0261293D01*
X0412854Y0262100D01*
X0410746Y0262100D01*
X0408798Y0261293D01*
X0407041Y0259160D02*
X0370902Y0259160D01*
X0369111Y0257562D02*
X0406500Y0257562D01*
X0406500Y0255963D02*
X0369292Y0255963D01*
X0370933Y0254365D02*
X0407072Y0254365D01*
X0408338Y0252766D02*
X0371595Y0252766D01*
X0352498Y0241577D02*
X0341052Y0241577D01*
X0340869Y0242019D02*
X0339519Y0243369D01*
X0337755Y0244100D01*
X0335845Y0244100D01*
X0334081Y0243369D01*
X0332731Y0242019D01*
X0332000Y0240255D01*
X0332000Y0238345D01*
X0332723Y0236600D01*
X0330877Y0236600D01*
X0331600Y0238345D01*
X0331600Y0240255D01*
X0330869Y0242019D01*
X0329519Y0243369D01*
X0327755Y0244100D01*
X0325845Y0244100D01*
X0324081Y0243369D01*
X0322731Y0242019D01*
X0322000Y0240255D01*
X0322000Y0238345D01*
X0322731Y0236581D01*
X0324081Y0235231D01*
X0325845Y0234500D01*
X0327723Y0234500D01*
X0327000Y0232755D01*
X0327000Y0230845D01*
X0327731Y0229081D01*
X0329081Y0227731D01*
X0330845Y0227000D01*
X0332755Y0227000D01*
X0334519Y0227731D01*
X0335869Y0229081D01*
X0336600Y0230845D01*
X0336600Y0232755D01*
X0335877Y0234500D01*
X0337755Y0234500D01*
X0339519Y0235231D01*
X0340869Y0236581D01*
X0341600Y0238345D01*
X0341600Y0240255D01*
X0340869Y0242019D01*
X0339713Y0243175D02*
X0350899Y0243175D01*
X0349301Y0244774D02*
X0333403Y0244774D01*
X0333643Y0244852D02*
X0334316Y0245195D01*
X0334927Y0245639D01*
X0335461Y0246173D01*
X0335905Y0246784D01*
X0336248Y0247457D01*
X0336482Y0248176D01*
X0336600Y0248922D01*
X0336600Y0249300D01*
X0336600Y0249678D01*
X0336482Y0250424D01*
X0336248Y0251143D01*
X0335905Y0251816D01*
X0335740Y0252044D01*
X0335845Y0252000D01*
X0337755Y0252000D01*
X0339519Y0252731D01*
X0340869Y0254081D01*
X0341600Y0255845D01*
X0341600Y0257755D01*
X0340869Y0259519D01*
X0339519Y0260869D01*
X0337755Y0261600D01*
X0335845Y0261600D01*
X0334081Y0260869D01*
X0332731Y0259519D01*
X0332000Y0257755D01*
X0332000Y0255845D01*
X0332731Y0254081D01*
X0332812Y0253999D01*
X0332178Y0254100D01*
X0331800Y0254100D01*
X0331800Y0249300D01*
X0331800Y0249300D01*
X0336600Y0249300D01*
X0331800Y0249300D01*
X0331800Y0249300D01*
X0331800Y0249300D01*
X0327000Y0249300D01*
X0327000Y0249678D01*
X0327118Y0250424D01*
X0327352Y0251143D01*
X0327695Y0251816D01*
X0327913Y0252116D01*
X0327178Y0252000D01*
X0326800Y0252000D01*
X0326800Y0256800D01*
X0326800Y0256800D01*
X0326800Y0261600D01*
X0327178Y0261600D01*
X0327924Y0261482D01*
X0328643Y0261248D01*
X0329316Y0260905D01*
X0329927Y0260461D01*
X0330461Y0259927D01*
X0330905Y0259316D01*
X0331248Y0258643D01*
X0331482Y0257924D01*
X0331600Y0257178D01*
X0331600Y0256800D01*
X0326800Y0256800D01*
X0326800Y0256800D01*
X0326800Y0256800D01*
X0326800Y0256800D01*
X0322000Y0256800D01*
X0322000Y0257178D01*
X0322118Y0257924D01*
X0322352Y0258643D01*
X0322695Y0259316D01*
X0323139Y0259927D01*
X0323673Y0260461D01*
X0324284Y0260905D01*
X0324957Y0261248D01*
X0325676Y0261482D01*
X0326422Y0261600D01*
X0326800Y0261600D01*
X0326800Y0256800D01*
X0331600Y0256800D01*
X0331600Y0256422D01*
X0331482Y0255676D01*
X0331248Y0254957D01*
X0330905Y0254284D01*
X0330687Y0253984D01*
X0331422Y0254100D01*
X0331800Y0254100D01*
X0331800Y0249300D01*
X0331800Y0244500D01*
X0332178Y0244500D01*
X0332924Y0244618D01*
X0333643Y0244852D01*
X0333887Y0243175D02*
X0329713Y0243175D01*
X0330197Y0244774D02*
X0288416Y0244774D01*
X0287755Y0244500D02*
X0289519Y0245231D01*
X0290869Y0246581D01*
X0291600Y0248345D01*
X0291600Y0250255D01*
X0290869Y0252019D01*
X0290788Y0252101D01*
X0291422Y0252000D01*
X0291800Y0252000D01*
X0292178Y0252000D01*
X0292924Y0252118D01*
X0293643Y0252352D01*
X0294316Y0252695D01*
X0294927Y0253139D01*
X0295461Y0253673D01*
X0295905Y0254284D01*
X0296248Y0254957D01*
X0296482Y0255676D01*
X0296600Y0256422D01*
X0296600Y0256800D01*
X0296600Y0257178D01*
X0296482Y0257924D01*
X0296248Y0258643D01*
X0295905Y0259316D01*
X0295461Y0259927D01*
X0294927Y0260461D01*
X0294316Y0260905D01*
X0293643Y0261248D01*
X0292924Y0261482D01*
X0292178Y0261600D01*
X0291800Y0261600D01*
X0291800Y0256800D01*
X0291800Y0256800D01*
X0296600Y0256800D01*
X0291800Y0256800D01*
X0291800Y0256800D01*
X0291800Y0256800D01*
X0287000Y0256800D01*
X0287000Y0257178D01*
X0287118Y0257924D01*
X0287352Y0258643D01*
X0287695Y0259316D01*
X0288139Y0259927D01*
X0288673Y0260461D01*
X0289284Y0260905D01*
X0289957Y0261248D01*
X0290676Y0261482D01*
X0291422Y0261600D01*
X0291800Y0261600D01*
X0291800Y0256800D01*
X0291800Y0252000D01*
X0291800Y0256800D01*
X0291800Y0256800D01*
X0287000Y0256800D01*
X0287000Y0256422D01*
X0287118Y0255676D01*
X0287352Y0254957D01*
X0287695Y0254284D01*
X0287860Y0254056D01*
X0287755Y0254100D01*
X0285877Y0254100D01*
X0286600Y0255845D01*
X0286600Y0257755D01*
X0285869Y0259519D01*
X0284519Y0260869D01*
X0282755Y0261600D01*
X0280845Y0261600D01*
X0279081Y0260869D01*
X0277731Y0259519D01*
X0277000Y0257755D01*
X0277000Y0255845D01*
X0277731Y0254081D01*
X0279081Y0252731D01*
X0280845Y0252000D01*
X0282723Y0252000D01*
X0282000Y0250255D01*
X0282000Y0248345D01*
X0282731Y0246581D01*
X0284081Y0245231D01*
X0285845Y0244500D01*
X0287755Y0244500D01*
X0285184Y0244774D02*
X0254299Y0244774D01*
X0255000Y0246372D02*
X0282940Y0246372D01*
X0282155Y0247971D02*
X0255000Y0247971D01*
X0255000Y0249569D02*
X0282000Y0249569D01*
X0282378Y0251168D02*
X0255000Y0251168D01*
X0255000Y0252766D02*
X0259045Y0252766D01*
X0259081Y0252731D02*
X0260845Y0252000D01*
X0262755Y0252000D01*
X0264519Y0252731D01*
X0265869Y0254081D01*
X0266600Y0255845D01*
X0266600Y0257755D01*
X0265869Y0259519D01*
X0264519Y0260869D01*
X0262755Y0261600D01*
X0260845Y0261600D01*
X0259081Y0260869D01*
X0257731Y0259519D01*
X0257000Y0257755D01*
X0257000Y0255845D01*
X0257731Y0254081D01*
X0259081Y0252731D01*
X0257613Y0254365D02*
X0255000Y0254365D01*
X0255000Y0255963D02*
X0257000Y0255963D01*
X0257000Y0257562D02*
X0255000Y0257562D01*
X0255000Y0259160D02*
X0257582Y0259160D01*
X0258971Y0260759D02*
X0255000Y0260759D01*
X0255000Y0262357D02*
X0348600Y0262357D01*
X0348600Y0260759D02*
X0339629Y0260759D01*
X0341018Y0259160D02*
X0348600Y0259160D01*
X0348600Y0257562D02*
X0341600Y0257562D01*
X0341600Y0255963D02*
X0348600Y0255963D01*
X0348600Y0254365D02*
X0340987Y0254365D01*
X0339554Y0252766D02*
X0348600Y0252766D01*
X0348600Y0251168D02*
X0336235Y0251168D01*
X0336600Y0249569D02*
X0348600Y0249569D01*
X0348600Y0247971D02*
X0336415Y0247971D01*
X0335606Y0246372D02*
X0348600Y0246372D01*
X0354096Y0239978D02*
X0341600Y0239978D01*
X0341600Y0238380D02*
X0363432Y0238380D01*
X0340952Y0236781D02*
X0402648Y0236781D01*
X0404197Y0235183D02*
X0339403Y0235183D01*
X0336256Y0233584D02*
X0428600Y0233584D01*
X0428600Y0231986D02*
X0336600Y0231986D01*
X0336410Y0230387D02*
X0428600Y0230387D01*
X0428600Y0228789D02*
X0335577Y0228789D01*
X0333214Y0227190D02*
X0428600Y0227190D01*
X0423803Y0225592D02*
X0419797Y0225592D01*
X0421087Y0223993D02*
X0422513Y0223993D01*
X0422000Y0222395D02*
X0421600Y0222395D01*
X0421580Y0220796D02*
X0422020Y0220796D01*
X0422682Y0219198D02*
X0420917Y0219198D01*
X0419201Y0217599D02*
X0424399Y0217599D01*
X0429201Y0217599D02*
X0434399Y0217599D01*
X0432682Y0219198D02*
X0430917Y0219198D01*
X0431580Y0220796D02*
X0432020Y0220796D01*
X0431680Y0222395D02*
X0431600Y0222395D01*
X0439797Y0225592D02*
X0443803Y0225592D01*
X0444081Y0225869D02*
X0442731Y0224519D01*
X0442000Y0222755D01*
X0442000Y0220845D01*
X0442731Y0219081D01*
X0444081Y0217731D01*
X0445845Y0217000D01*
X0447755Y0217000D01*
X0449519Y0217731D01*
X0450869Y0219081D01*
X0451600Y0220845D01*
X0451600Y0222755D01*
X0450869Y0224519D01*
X0449519Y0225869D01*
X0447755Y0226600D01*
X0445845Y0226600D01*
X0444081Y0225869D01*
X0442513Y0223993D02*
X0441087Y0223993D01*
X0441600Y0222395D02*
X0442000Y0222395D01*
X0442020Y0220796D02*
X0441580Y0220796D01*
X0440917Y0219198D02*
X0442682Y0219198D01*
X0444399Y0217599D02*
X0439201Y0217599D01*
X0440885Y0208900D02*
X0439194Y0208200D01*
X0437900Y0206906D01*
X0437200Y0205215D01*
X0437200Y0203385D01*
X0437900Y0201694D01*
X0439194Y0200400D01*
X0440885Y0199700D01*
X0442715Y0199700D01*
X0444406Y0200400D01*
X0445700Y0201694D01*
X0446400Y0203385D01*
X0446400Y0205215D01*
X0445700Y0206906D01*
X0444406Y0208200D01*
X0442715Y0208900D01*
X0440885Y0208900D01*
X0439003Y0208008D02*
X0404597Y0208008D01*
X0404406Y0208200D02*
X0405700Y0206906D01*
X0406400Y0205215D01*
X0406400Y0203385D01*
X0405700Y0201694D01*
X0404406Y0200400D01*
X0402715Y0199700D01*
X0400885Y0199700D01*
X0399194Y0200400D01*
X0397900Y0201694D01*
X0397200Y0203385D01*
X0397200Y0205215D01*
X0397900Y0206906D01*
X0399194Y0208200D01*
X0400885Y0208900D01*
X0402715Y0208900D01*
X0404406Y0208200D01*
X0405905Y0206409D02*
X0437695Y0206409D01*
X0437200Y0204811D02*
X0406400Y0204811D01*
X0406329Y0203212D02*
X0437271Y0203212D01*
X0437981Y0201614D02*
X0405619Y0201614D01*
X0403476Y0200015D02*
X0440124Y0200015D01*
X0443476Y0200015D02*
X0463600Y0200015D01*
X0463600Y0198417D02*
X0369117Y0198417D01*
X0369055Y0198443D02*
X0368169Y0198680D01*
X0367259Y0198800D01*
X0367000Y0198800D01*
X0367000Y0192000D01*
X0366600Y0192000D01*
X0366600Y0191600D01*
X0367000Y0191600D01*
X0367000Y0192000D01*
X0373800Y0192000D01*
X0373800Y0192259D01*
X0373680Y0193169D01*
X0373443Y0194055D01*
X0373092Y0194903D01*
X0372633Y0195697D01*
X0372074Y0196425D01*
X0371425Y0197074D01*
X0370697Y0197633D01*
X0369903Y0198092D01*
X0369055Y0198443D01*
X0367000Y0198417D02*
X0366600Y0198417D01*
X0366600Y0196818D02*
X0367000Y0196818D01*
X0367000Y0195220D02*
X0366600Y0195220D01*
X0366600Y0193621D02*
X0367000Y0193621D01*
X0367000Y0192023D02*
X0366600Y0192023D01*
X0367000Y0191600D02*
X0373800Y0191600D01*
X0373800Y0191341D01*
X0373680Y0190431D01*
X0373443Y0189545D01*
X0373092Y0188697D01*
X0372633Y0187903D01*
X0372074Y0187175D01*
X0371425Y0186526D01*
X0370697Y0185967D01*
X0369903Y0185508D01*
X0369055Y0185157D01*
X0368169Y0184920D01*
X0367259Y0184800D01*
X0367000Y0184800D01*
X0367000Y0191600D01*
X0367000Y0190424D02*
X0366600Y0190424D01*
X0366600Y0188826D02*
X0367000Y0188826D01*
X0367000Y0187227D02*
X0366600Y0187227D01*
X0366600Y0185629D02*
X0367000Y0185629D01*
X0370111Y0185629D02*
X0402306Y0185629D01*
X0402200Y0187227D02*
X0372115Y0187227D01*
X0373145Y0188826D02*
X0402660Y0188826D01*
X0403919Y0190424D02*
X0373678Y0190424D01*
X0373800Y0192023D02*
X0437000Y0192023D01*
X0437000Y0192755D02*
X0437000Y0190845D01*
X0437731Y0189081D01*
X0439081Y0187731D01*
X0440845Y0187000D01*
X0442755Y0187000D01*
X0444519Y0187731D01*
X0445869Y0189081D01*
X0446600Y0190845D01*
X0446600Y0192755D01*
X0445869Y0194519D01*
X0444519Y0195869D01*
X0442755Y0196600D01*
X0440845Y0196600D01*
X0439081Y0195869D01*
X0437731Y0194519D01*
X0437000Y0192755D01*
X0437359Y0193621D02*
X0373559Y0193621D01*
X0372908Y0195220D02*
X0438432Y0195220D01*
X0445168Y0195220D02*
X0463600Y0195220D01*
X0463600Y0196818D02*
X0371681Y0196818D01*
X0364483Y0198417D02*
X0317975Y0198417D01*
X0317734Y0197835D02*
X0318800Y0200408D01*
X0318800Y0203192D01*
X0317734Y0205765D01*
X0315765Y0207734D01*
X0313192Y0208800D01*
X0310408Y0208800D01*
X0307835Y0207734D01*
X0305866Y0205765D01*
X0304800Y0203192D01*
X0304800Y0200408D01*
X0305866Y0197835D01*
X0307835Y0195866D01*
X0310408Y0194800D01*
X0313192Y0194800D01*
X0315765Y0195866D01*
X0317734Y0197835D01*
X0316718Y0196818D02*
X0361919Y0196818D01*
X0360692Y0195220D02*
X0314206Y0195220D01*
X0309394Y0195220D02*
X0294206Y0195220D01*
X0296718Y0196818D02*
X0306882Y0196818D01*
X0305625Y0198417D02*
X0297930Y0198417D01*
X0298569Y0200015D02*
X0304962Y0200015D01*
X0304800Y0201614D02*
X0292000Y0201614D01*
X0292000Y0203212D02*
X0291600Y0203212D01*
X0291600Y0204811D02*
X0292000Y0204811D01*
X0292000Y0206409D02*
X0291600Y0206409D01*
X0291600Y0208008D02*
X0292000Y0208008D01*
X0295047Y0208008D02*
X0308495Y0208008D01*
X0306510Y0206409D02*
X0297086Y0206409D01*
X0298130Y0204811D02*
X0305470Y0204811D01*
X0304808Y0203212D02*
X0298668Y0203212D01*
X0288553Y0208008D02*
X0242806Y0208008D01*
X0243468Y0209606D02*
X0360132Y0209606D01*
X0359800Y0211205D02*
X0243800Y0211205D01*
X0243800Y0212803D02*
X0359800Y0212803D01*
X0360301Y0214402D02*
X0243299Y0214402D01*
X0242499Y0216001D02*
X0361101Y0216001D01*
X0362700Y0217599D02*
X0240900Y0217599D01*
X0241309Y0206409D02*
X0286514Y0206409D01*
X0286882Y0196818D02*
X0241681Y0196818D01*
X0230455Y0188826D02*
X0195940Y0188826D01*
X0196400Y0187227D02*
X0231485Y0187227D01*
X0233489Y0185629D02*
X0196294Y0185629D01*
X0195536Y0184030D02*
X0403064Y0184030D01*
X0409681Y0190424D02*
X0437174Y0190424D01*
X0437986Y0188826D02*
X0410940Y0188826D01*
X0411400Y0187227D02*
X0440296Y0187227D01*
X0443304Y0187227D02*
X0463600Y0187227D01*
X0463600Y0185629D02*
X0411294Y0185629D01*
X0410536Y0184030D02*
X0463600Y0184030D01*
X0463600Y0188826D02*
X0445614Y0188826D01*
X0446426Y0190424D02*
X0463600Y0190424D01*
X0463600Y0192023D02*
X0446600Y0192023D01*
X0446241Y0193621D02*
X0463600Y0193621D01*
X0463600Y0201614D02*
X0445619Y0201614D01*
X0446329Y0203212D02*
X0453599Y0203212D01*
X0454081Y0202731D02*
X0455845Y0202000D01*
X0457755Y0202000D01*
X0459519Y0202731D01*
X0460869Y0204081D01*
X0461600Y0205845D01*
X0461600Y0207755D01*
X0460869Y0209519D01*
X0459519Y0210869D01*
X0457755Y0211600D01*
X0455845Y0211600D01*
X0454081Y0210869D01*
X0452731Y0209519D01*
X0452000Y0207755D01*
X0452000Y0205845D01*
X0452731Y0204081D01*
X0454081Y0202731D01*
X0452428Y0204811D02*
X0446400Y0204811D01*
X0445905Y0206409D02*
X0452000Y0206409D01*
X0452105Y0208008D02*
X0444597Y0208008D01*
X0452818Y0209606D02*
X0373468Y0209606D01*
X0373800Y0211205D02*
X0454892Y0211205D01*
X0458708Y0211205D02*
X0463600Y0211205D01*
X0463600Y0212803D02*
X0373800Y0212803D01*
X0373299Y0214402D02*
X0463600Y0214402D01*
X0463600Y0209606D02*
X0460782Y0209606D01*
X0461495Y0208008D02*
X0463600Y0208008D01*
X0463600Y0206409D02*
X0461600Y0206409D01*
X0461172Y0204811D02*
X0463600Y0204811D01*
X0463600Y0203212D02*
X0460001Y0203212D01*
X0454399Y0217599D02*
X0449201Y0217599D01*
X0450917Y0219198D02*
X0452682Y0219198D01*
X0452020Y0220796D02*
X0451580Y0220796D01*
X0451600Y0222395D02*
X0452000Y0222395D01*
X0452513Y0223993D02*
X0451087Y0223993D01*
X0449797Y0225592D02*
X0453803Y0225592D01*
X0455845Y0234500D02*
X0457755Y0234500D01*
X0459519Y0235231D01*
X0460869Y0236581D01*
X0461600Y0238345D01*
X0461600Y0240255D01*
X0460869Y0242019D01*
X0459519Y0243369D01*
X0457755Y0244100D01*
X0455845Y0244100D01*
X0454081Y0243369D01*
X0452731Y0242019D01*
X0452000Y0240255D01*
X0452000Y0238345D01*
X0452731Y0236581D01*
X0454081Y0235231D01*
X0455845Y0234500D01*
X0454197Y0235183D02*
X0449403Y0235183D01*
X0450952Y0236781D02*
X0452648Y0236781D01*
X0452000Y0238380D02*
X0451600Y0238380D01*
X0451600Y0239978D02*
X0452000Y0239978D01*
X0452548Y0241577D02*
X0451052Y0241577D01*
X0449713Y0243175D02*
X0453887Y0243175D01*
X0459713Y0243175D02*
X0463600Y0243175D01*
X0463600Y0241577D02*
X0461052Y0241577D01*
X0461600Y0239978D02*
X0463600Y0239978D01*
X0463600Y0238380D02*
X0461600Y0238380D01*
X0460952Y0236781D02*
X0463600Y0236781D01*
X0463600Y0235183D02*
X0459403Y0235183D01*
X0434045Y0252766D02*
X0415262Y0252766D01*
X0416528Y0254365D02*
X0432613Y0254365D01*
X0432000Y0255963D02*
X0417100Y0255963D01*
X0417100Y0257562D02*
X0432000Y0257562D01*
X0432582Y0259160D02*
X0416559Y0259160D01*
X0415336Y0260759D02*
X0433600Y0260759D01*
X0439226Y0268751D02*
X0355257Y0268751D01*
X0348600Y0267153D02*
X0255000Y0267153D01*
X0255000Y0265554D02*
X0348600Y0265554D01*
X0348600Y0263956D02*
X0255000Y0263956D01*
X0248600Y0263956D02*
X0241102Y0263956D01*
X0241600Y0262357D02*
X0248600Y0262357D01*
X0248600Y0260759D02*
X0241564Y0260759D01*
X0240902Y0259160D02*
X0248600Y0259160D01*
X0248600Y0257562D02*
X0239111Y0257562D01*
X0239292Y0255963D02*
X0248600Y0255963D01*
X0248600Y0254365D02*
X0240933Y0254365D01*
X0241595Y0252766D02*
X0248600Y0252766D01*
X0248600Y0251168D02*
X0241600Y0251168D01*
X0241071Y0249569D02*
X0248600Y0249569D01*
X0248445Y0247971D02*
X0239759Y0247971D01*
X0238305Y0246372D02*
X0246847Y0246372D01*
X0251102Y0241577D02*
X0302548Y0241577D01*
X0302731Y0242019D02*
X0302000Y0240255D01*
X0302000Y0238345D01*
X0302731Y0236581D01*
X0304081Y0235231D01*
X0305845Y0234500D01*
X0307755Y0234500D01*
X0309519Y0235231D01*
X0310869Y0236581D01*
X0311600Y0238345D01*
X0311600Y0240255D01*
X0310869Y0242019D01*
X0309519Y0243369D01*
X0307755Y0244100D01*
X0305845Y0244100D01*
X0304081Y0243369D01*
X0302731Y0242019D01*
X0303887Y0243175D02*
X0252701Y0243175D01*
X0249504Y0239978D02*
X0302000Y0239978D01*
X0302000Y0238380D02*
X0240168Y0238380D01*
X0233432Y0238380D02*
X0219885Y0238380D01*
X0219406Y0237900D02*
X0220700Y0239194D01*
X0221400Y0240885D01*
X0221400Y0242715D01*
X0220700Y0244406D01*
X0219406Y0245700D01*
X0217715Y0246400D01*
X0215885Y0246400D01*
X0214194Y0245700D01*
X0212900Y0244406D01*
X0212200Y0242715D01*
X0212200Y0240885D01*
X0212900Y0239194D01*
X0214194Y0237900D01*
X0215885Y0237200D01*
X0217715Y0237200D01*
X0219406Y0237900D01*
X0221024Y0239978D02*
X0232359Y0239978D01*
X0232000Y0241577D02*
X0221400Y0241577D01*
X0221209Y0243175D02*
X0232174Y0243175D01*
X0232986Y0244774D02*
X0220332Y0244774D01*
X0217782Y0246372D02*
X0235295Y0246372D01*
X0233841Y0247971D02*
X0172655Y0247971D01*
X0174253Y0246372D02*
X0215818Y0246372D01*
X0213268Y0244774D02*
X0175000Y0244774D01*
X0179713Y0243175D02*
X0183887Y0243175D01*
X0184081Y0243369D02*
X0182731Y0242019D01*
X0182000Y0240255D01*
X0182000Y0238345D01*
X0182731Y0236581D01*
X0184081Y0235231D01*
X0185845Y0234500D01*
X0187755Y0234500D01*
X0189519Y0235231D01*
X0190869Y0236581D01*
X0191600Y0238345D01*
X0191600Y0240255D01*
X0190869Y0242019D01*
X0189519Y0243369D01*
X0187755Y0244100D01*
X0185845Y0244100D01*
X0184081Y0243369D01*
X0182548Y0241577D02*
X0181052Y0241577D01*
X0181600Y0239978D02*
X0182000Y0239978D01*
X0182000Y0238380D02*
X0181600Y0238380D01*
X0180952Y0236781D02*
X0182648Y0236781D01*
X0184197Y0235183D02*
X0179403Y0235183D01*
X0175000Y0233584D02*
X0327344Y0233584D01*
X0327000Y0231986D02*
X0175000Y0231986D01*
X0175000Y0230387D02*
X0327190Y0230387D01*
X0328023Y0228789D02*
X0175000Y0228789D01*
X0175000Y0227190D02*
X0330386Y0227190D01*
X0330952Y0236781D02*
X0332648Y0236781D01*
X0332000Y0238380D02*
X0331600Y0238380D01*
X0331600Y0239978D02*
X0332000Y0239978D01*
X0332548Y0241577D02*
X0331052Y0241577D01*
X0331422Y0244500D02*
X0330676Y0244618D01*
X0329957Y0244852D01*
X0329284Y0245195D01*
X0328673Y0245639D01*
X0328139Y0246173D01*
X0327695Y0246784D01*
X0327352Y0247457D01*
X0327118Y0248176D01*
X0327000Y0248922D01*
X0327000Y0249300D01*
X0331800Y0249300D01*
X0331800Y0249300D01*
X0331800Y0244500D01*
X0331422Y0244500D01*
X0331800Y0244774D02*
X0331800Y0244774D01*
X0331800Y0246372D02*
X0331800Y0246372D01*
X0331800Y0247971D02*
X0331800Y0247971D01*
X0331800Y0249569D02*
X0331800Y0249569D01*
X0331800Y0251168D02*
X0331800Y0251168D01*
X0331800Y0252766D02*
X0331800Y0252766D01*
X0332613Y0254365D02*
X0330946Y0254365D01*
X0331527Y0255963D02*
X0332000Y0255963D01*
X0332000Y0257562D02*
X0331539Y0257562D01*
X0330985Y0259160D02*
X0332582Y0259160D01*
X0333971Y0260759D02*
X0329517Y0260759D01*
X0326800Y0260759D02*
X0326800Y0260759D01*
X0326800Y0259160D02*
X0326800Y0259160D01*
X0326800Y0257562D02*
X0326800Y0257562D01*
X0326800Y0256800D02*
X0322000Y0256800D01*
X0322000Y0256422D01*
X0322118Y0255676D01*
X0322352Y0254957D01*
X0322695Y0254284D01*
X0323139Y0253673D01*
X0323673Y0253139D01*
X0324284Y0252695D01*
X0324957Y0252352D01*
X0325676Y0252118D01*
X0326422Y0252000D01*
X0326800Y0252000D01*
X0326800Y0256800D01*
X0326800Y0255963D02*
X0326800Y0255963D01*
X0326800Y0254365D02*
X0326800Y0254365D01*
X0326800Y0252766D02*
X0326800Y0252766D01*
X0327365Y0251168D02*
X0291222Y0251168D01*
X0291600Y0249569D02*
X0327000Y0249569D01*
X0327185Y0247971D02*
X0291445Y0247971D01*
X0290660Y0246372D02*
X0327994Y0246372D01*
X0323887Y0243175D02*
X0309713Y0243175D01*
X0311052Y0241577D02*
X0322548Y0241577D01*
X0322000Y0239978D02*
X0311600Y0239978D01*
X0311600Y0238380D02*
X0322000Y0238380D01*
X0322648Y0236781D02*
X0310952Y0236781D01*
X0309403Y0235183D02*
X0324197Y0235183D01*
X0304197Y0235183D02*
X0199403Y0235183D01*
X0199519Y0235231D02*
X0200869Y0236581D01*
X0201600Y0238345D01*
X0201600Y0240255D01*
X0200869Y0242019D01*
X0199519Y0243369D01*
X0197755Y0244100D01*
X0195845Y0244100D01*
X0194081Y0243369D01*
X0192731Y0242019D01*
X0192000Y0240255D01*
X0192000Y0238345D01*
X0192731Y0236581D01*
X0194081Y0235231D01*
X0195845Y0234500D01*
X0197755Y0234500D01*
X0199519Y0235231D01*
X0200952Y0236781D02*
X0302648Y0236781D01*
X0305676Y0252118D02*
X0306422Y0252000D01*
X0306800Y0252000D01*
X0307178Y0252000D01*
X0307924Y0252118D01*
X0308643Y0252352D01*
X0309316Y0252695D01*
X0309927Y0253139D01*
X0310461Y0253673D01*
X0310905Y0254284D01*
X0311248Y0254957D01*
X0311482Y0255676D01*
X0311600Y0256422D01*
X0311600Y0256800D01*
X0311600Y0257178D01*
X0311482Y0257924D01*
X0311248Y0258643D01*
X0310905Y0259316D01*
X0310461Y0259927D01*
X0309927Y0260461D01*
X0309316Y0260905D01*
X0308643Y0261248D01*
X0307924Y0261482D01*
X0307178Y0261600D01*
X0306800Y0261600D01*
X0306800Y0256800D01*
X0311600Y0256800D01*
X0306800Y0256800D01*
X0306800Y0256800D01*
X0306800Y0256800D01*
X0306800Y0252000D01*
X0306800Y0256800D01*
X0306800Y0256800D01*
X0306800Y0256800D01*
X0302000Y0256800D01*
X0302000Y0257178D01*
X0302118Y0257924D01*
X0302352Y0258643D01*
X0302695Y0259316D01*
X0303139Y0259927D01*
X0303673Y0260461D01*
X0304284Y0260905D01*
X0304957Y0261248D01*
X0305676Y0261482D01*
X0306422Y0261600D01*
X0306800Y0261600D01*
X0306800Y0256800D01*
X0302000Y0256800D01*
X0302000Y0256422D01*
X0302118Y0255676D01*
X0302352Y0254957D01*
X0302695Y0254284D01*
X0303139Y0253673D01*
X0303673Y0253139D01*
X0304284Y0252695D01*
X0304957Y0252352D01*
X0305676Y0252118D01*
X0306800Y0252766D02*
X0306800Y0252766D01*
X0306800Y0254365D02*
X0306800Y0254365D01*
X0306800Y0255963D02*
X0306800Y0255963D01*
X0306800Y0257562D02*
X0306800Y0257562D01*
X0306800Y0259160D02*
X0306800Y0259160D01*
X0306800Y0260759D02*
X0306800Y0260759D01*
X0304083Y0260759D02*
X0294517Y0260759D01*
X0295985Y0259160D02*
X0302615Y0259160D01*
X0302061Y0257562D02*
X0296539Y0257562D01*
X0296527Y0255963D02*
X0302073Y0255963D01*
X0302654Y0254365D02*
X0295946Y0254365D01*
X0294414Y0252766D02*
X0304186Y0252766D01*
X0309414Y0252766D02*
X0324186Y0252766D01*
X0322654Y0254365D02*
X0310946Y0254365D01*
X0311527Y0255963D02*
X0322073Y0255963D01*
X0322061Y0257562D02*
X0311539Y0257562D01*
X0310985Y0259160D02*
X0322615Y0259160D01*
X0324083Y0260759D02*
X0309517Y0260759D01*
X0310723Y0267313D02*
X0311438Y0267200D01*
X0311800Y0267200D01*
X0312162Y0267200D01*
X0312877Y0267313D01*
X0313566Y0267537D01*
X0314211Y0267866D01*
X0314797Y0268291D01*
X0315309Y0268803D01*
X0315734Y0269389D01*
X0316063Y0270034D01*
X0316287Y0270723D01*
X0316400Y0271438D01*
X0316400Y0271800D01*
X0316400Y0272162D01*
X0316287Y0272877D01*
X0316063Y0273566D01*
X0315734Y0274211D01*
X0315309Y0274797D01*
X0314797Y0275309D01*
X0314211Y0275734D01*
X0313566Y0276063D01*
X0312877Y0276287D01*
X0312162Y0276400D01*
X0311800Y0276400D01*
X0311800Y0271800D01*
X0316400Y0271800D01*
X0311800Y0271800D01*
X0311800Y0271800D01*
X0311800Y0271800D01*
X0311800Y0267200D01*
X0311800Y0271800D01*
X0311800Y0271800D01*
X0311800Y0271800D01*
X0307200Y0271800D01*
X0307200Y0272162D01*
X0307313Y0272877D01*
X0307537Y0273566D01*
X0307866Y0274211D01*
X0308291Y0274797D01*
X0308803Y0275309D01*
X0309389Y0275734D01*
X0310034Y0276063D01*
X0310723Y0276287D01*
X0311438Y0276400D01*
X0311800Y0276400D01*
X0311800Y0271800D01*
X0307200Y0271800D01*
X0307200Y0271438D01*
X0307313Y0270723D01*
X0307537Y0270034D01*
X0307866Y0269389D01*
X0308291Y0268803D01*
X0308803Y0268291D01*
X0309389Y0267866D01*
X0310034Y0267537D01*
X0310723Y0267313D01*
X0311800Y0268751D02*
X0311800Y0268751D01*
X0311800Y0270350D02*
X0311800Y0270350D01*
X0311800Y0271948D02*
X0311800Y0271948D01*
X0311800Y0273547D02*
X0311800Y0273547D01*
X0311800Y0275145D02*
X0311800Y0275145D01*
X0314960Y0275145D02*
X0348640Y0275145D01*
X0347545Y0273547D02*
X0316069Y0273547D01*
X0316400Y0271948D02*
X0347200Y0271948D01*
X0347422Y0270350D02*
X0316166Y0270350D01*
X0315257Y0268751D02*
X0348343Y0268751D01*
X0358957Y0283138D02*
X0324643Y0283138D01*
X0324406Y0282900D02*
X0325700Y0284194D01*
X0326400Y0285885D01*
X0326400Y0287715D01*
X0325700Y0289406D01*
X0324406Y0290700D01*
X0322715Y0291400D01*
X0320885Y0291400D01*
X0319194Y0290700D01*
X0317900Y0289406D01*
X0317200Y0287715D01*
X0317200Y0285885D01*
X0317900Y0284194D01*
X0319194Y0282900D01*
X0320885Y0282200D01*
X0322715Y0282200D01*
X0324406Y0282900D01*
X0325924Y0284737D02*
X0357676Y0284737D01*
X0357200Y0286335D02*
X0326400Y0286335D01*
X0326309Y0287934D02*
X0357291Y0287934D01*
X0358027Y0289532D02*
X0325573Y0289532D01*
X0323365Y0291131D02*
X0360235Y0291131D01*
X0354138Y0310059D02*
X0354986Y0310410D01*
X0355780Y0310869D01*
X0356508Y0311427D01*
X0357157Y0312076D01*
X0357716Y0312804D01*
X0358175Y0313599D01*
X0358526Y0314447D01*
X0358763Y0315333D01*
X0358880Y0316222D01*
X0352363Y0316222D01*
X0352363Y0309704D01*
X0353252Y0309821D01*
X0354138Y0310059D01*
X0354751Y0310313D02*
X0369015Y0310313D01*
X0366774Y0311911D02*
X0356992Y0311911D01*
X0358123Y0313510D02*
X0365628Y0313510D01*
X0364966Y0315108D02*
X0358703Y0315108D01*
X0358700Y0318305D02*
X0364971Y0318305D01*
X0364883Y0316707D02*
X0352363Y0316707D01*
X0351403Y0316707D02*
X0338883Y0316707D01*
X0338796Y0318305D02*
X0345066Y0318305D01*
X0345649Y0319904D02*
X0338133Y0319904D01*
X0336982Y0321502D02*
X0346784Y0321502D01*
X0345063Y0315108D02*
X0338800Y0315108D01*
X0338138Y0313510D02*
X0345643Y0313510D01*
X0346774Y0311911D02*
X0336992Y0311911D01*
X0334751Y0310313D02*
X0349015Y0310313D01*
X0351404Y0310313D02*
X0352363Y0310313D01*
X0352363Y0311911D02*
X0351404Y0311911D01*
X0351404Y0313510D02*
X0352363Y0313510D01*
X0352363Y0315108D02*
X0351404Y0315108D01*
X0358117Y0319904D02*
X0365633Y0319904D01*
X0366784Y0321502D02*
X0356982Y0321502D01*
X0376982Y0321502D02*
X0380718Y0321502D01*
X0382317Y0319904D02*
X0378133Y0319904D01*
X0378796Y0318305D02*
X0383915Y0318305D01*
X0384883Y0316707D02*
X0378883Y0316707D01*
X0378800Y0315108D02*
X0384966Y0315108D01*
X0385628Y0313510D02*
X0378138Y0313510D01*
X0376992Y0311911D02*
X0386774Y0311911D01*
X0389015Y0310313D02*
X0374751Y0310313D01*
X0394751Y0310313D02*
X0409015Y0310313D01*
X0408780Y0310410D02*
X0409628Y0310059D01*
X0410514Y0309821D01*
X0411404Y0309704D01*
X0411404Y0316222D01*
X0412363Y0316222D01*
X0412363Y0317181D01*
X0418880Y0317181D01*
X0418763Y0318070D01*
X0418526Y0318956D01*
X0418175Y0319804D01*
X0417716Y0320599D01*
X0417157Y0321327D01*
X0416508Y0321976D01*
X0415780Y0322534D01*
X0414986Y0322993D01*
X0414138Y0323344D01*
X0413252Y0323582D01*
X0412363Y0323699D01*
X0412363Y0317181D01*
X0411404Y0317181D01*
X0411404Y0323699D01*
X0410514Y0323582D01*
X0409628Y0323344D01*
X0408780Y0322993D01*
X0407986Y0322534D01*
X0407258Y0321976D01*
X0406609Y0321327D01*
X0406050Y0320599D01*
X0405591Y0319804D01*
X0405240Y0318956D01*
X0405003Y0318070D01*
X0404886Y0317181D01*
X0411403Y0317181D01*
X0411403Y0316222D01*
X0404886Y0316222D01*
X0405003Y0315333D01*
X0405240Y0314447D01*
X0405591Y0313599D01*
X0406050Y0312804D01*
X0406609Y0312076D01*
X0407258Y0311427D01*
X0407986Y0310869D01*
X0408780Y0310410D01*
X0406774Y0311911D02*
X0396992Y0311911D01*
X0398138Y0313510D02*
X0405643Y0313510D01*
X0405063Y0315108D02*
X0398800Y0315108D01*
X0398883Y0316707D02*
X0411403Y0316707D01*
X0412363Y0316707D02*
X0424883Y0316707D01*
X0424883Y0318094D02*
X0424883Y0315309D01*
X0425949Y0312736D01*
X0427918Y0310767D01*
X0430491Y0309702D01*
X0433275Y0309702D01*
X0435848Y0310767D01*
X0437817Y0312736D01*
X0438883Y0315309D01*
X0438883Y0318094D01*
X0437817Y0320667D01*
X0435848Y0322636D01*
X0433275Y0323702D01*
X0430491Y0323702D01*
X0427918Y0322636D01*
X0425949Y0320667D01*
X0424883Y0318094D01*
X0424971Y0318305D02*
X0418700Y0318305D01*
X0418117Y0319904D02*
X0425633Y0319904D01*
X0426784Y0321502D02*
X0416982Y0321502D01*
X0414726Y0323101D02*
X0429040Y0323101D01*
X0434726Y0323101D02*
X0470888Y0323101D01*
X0471871Y0322118D02*
X0474630Y0320525D01*
X0477707Y0319701D01*
X0480893Y0319701D01*
X0483970Y0320525D01*
X0486729Y0322118D01*
X0488982Y0324371D01*
X0490575Y0327130D01*
X0491399Y0330207D01*
X0491399Y0333393D01*
X0490575Y0336470D01*
X0488982Y0339229D01*
X0486729Y0341482D01*
X0483970Y0343075D01*
X0480893Y0343899D01*
X0477707Y0343899D01*
X0474630Y0343075D01*
X0471871Y0341482D01*
X0469618Y0339229D01*
X0468025Y0336470D01*
X0467201Y0333393D01*
X0467201Y0330207D01*
X0468025Y0327130D01*
X0469618Y0324371D01*
X0471871Y0322118D01*
X0472938Y0321502D02*
X0436982Y0321502D01*
X0438133Y0319904D02*
X0476950Y0319904D01*
X0481650Y0319904D02*
X0496800Y0319904D01*
X0496800Y0321502D02*
X0485662Y0321502D01*
X0487712Y0323101D02*
X0496800Y0323101D01*
X0496800Y0324699D02*
X0489171Y0324699D01*
X0490094Y0326298D02*
X0496800Y0326298D01*
X0496800Y0327896D02*
X0490780Y0327896D01*
X0491208Y0329495D02*
X0496800Y0329495D01*
X0496800Y0331093D02*
X0491399Y0331093D01*
X0491399Y0332692D02*
X0496800Y0332692D01*
X0496800Y0334290D02*
X0491159Y0334290D01*
X0490730Y0335889D02*
X0496800Y0335889D01*
X0496800Y0337487D02*
X0489987Y0337487D01*
X0489064Y0339086D02*
X0496800Y0339086D01*
X0496800Y0340684D02*
X0487526Y0340684D01*
X0485341Y0342283D02*
X0496800Y0342283D01*
X0496800Y0343881D02*
X0480959Y0343881D01*
X0477641Y0343881D02*
X0125959Y0343881D01*
X0125893Y0343899D02*
X0122707Y0343899D01*
X0119630Y0343075D01*
X0116871Y0341482D01*
X0114618Y0339229D01*
X0113025Y0336470D01*
X0112201Y0333393D01*
X0112201Y0330207D01*
X0113025Y0327130D01*
X0114618Y0324371D01*
X0116871Y0322118D01*
X0119630Y0320525D01*
X0122707Y0319701D01*
X0125893Y0319701D01*
X0128970Y0320525D01*
X0131729Y0322118D01*
X0133982Y0324371D01*
X0135575Y0327130D01*
X0136399Y0330207D01*
X0136399Y0333393D01*
X0135575Y0336470D01*
X0133982Y0339229D01*
X0131729Y0341482D01*
X0128970Y0343075D01*
X0125893Y0343899D01*
X0122641Y0343881D02*
X0106800Y0343881D01*
X0106800Y0342283D02*
X0118259Y0342283D01*
X0116074Y0340684D02*
X0106800Y0340684D01*
X0106800Y0339086D02*
X0114536Y0339086D01*
X0113613Y0337487D02*
X0106800Y0337487D01*
X0106800Y0335889D02*
X0112870Y0335889D01*
X0112441Y0334290D02*
X0106800Y0334290D01*
X0106800Y0332692D02*
X0112201Y0332692D01*
X0112201Y0331093D02*
X0106800Y0331093D01*
X0106800Y0329495D02*
X0112392Y0329495D01*
X0112820Y0327896D02*
X0106800Y0327896D01*
X0106800Y0326298D02*
X0113506Y0326298D01*
X0114429Y0324699D02*
X0106800Y0324699D01*
X0106800Y0323101D02*
X0115888Y0323101D01*
X0117938Y0321502D02*
X0106800Y0321502D01*
X0106800Y0319904D02*
X0121950Y0319904D01*
X0126650Y0319904D02*
X0138540Y0319904D01*
X0140138Y0321502D02*
X0130662Y0321502D01*
X0132712Y0323101D02*
X0141737Y0323101D01*
X0143335Y0324699D02*
X0134171Y0324699D01*
X0135094Y0326298D02*
X0144934Y0326298D01*
X0146532Y0327896D02*
X0135780Y0327896D01*
X0136208Y0329495D02*
X0148131Y0329495D01*
X0150406Y0331093D02*
X0136399Y0331093D01*
X0136399Y0332692D02*
X0467201Y0332692D01*
X0467201Y0331093D02*
X0383179Y0331093D01*
X0385454Y0329495D02*
X0467392Y0329495D01*
X0467820Y0327896D02*
X0387052Y0327896D01*
X0388651Y0326298D02*
X0468506Y0326298D01*
X0469429Y0324699D02*
X0390249Y0324699D01*
X0394726Y0323101D02*
X0409040Y0323101D01*
X0411404Y0323101D02*
X0412363Y0323101D01*
X0412363Y0321502D02*
X0411404Y0321502D01*
X0411404Y0319904D02*
X0412363Y0319904D01*
X0412363Y0318305D02*
X0411404Y0318305D01*
X0412363Y0316222D02*
X0418880Y0316222D01*
X0418763Y0315333D01*
X0418526Y0314447D01*
X0418175Y0313599D01*
X0417716Y0312804D01*
X0417157Y0312076D01*
X0416508Y0311427D01*
X0415780Y0310869D01*
X0414986Y0310410D01*
X0414138Y0310059D01*
X0413252Y0309821D01*
X0412363Y0309704D01*
X0412363Y0316222D01*
X0412363Y0315108D02*
X0411404Y0315108D01*
X0411404Y0313510D02*
X0412363Y0313510D01*
X0412363Y0311911D02*
X0411404Y0311911D01*
X0411404Y0310313D02*
X0412363Y0310313D01*
X0414751Y0310313D02*
X0429015Y0310313D01*
X0426774Y0311911D02*
X0416992Y0311911D01*
X0418123Y0313510D02*
X0425628Y0313510D01*
X0424966Y0315108D02*
X0418703Y0315108D01*
X0406784Y0321502D02*
X0396982Y0321502D01*
X0398133Y0319904D02*
X0405649Y0319904D01*
X0405066Y0318305D02*
X0398796Y0318305D01*
X0434751Y0310313D02*
X0496800Y0310313D01*
X0496800Y0311911D02*
X0436992Y0311911D01*
X0438138Y0313510D02*
X0496800Y0313510D01*
X0496800Y0315108D02*
X0438800Y0315108D01*
X0438883Y0316707D02*
X0496800Y0316707D01*
X0496800Y0318305D02*
X0438796Y0318305D01*
X0467441Y0334290D02*
X0136159Y0334290D01*
X0135730Y0335889D02*
X0467870Y0335889D01*
X0468613Y0337487D02*
X0134987Y0337487D01*
X0134064Y0339086D02*
X0469536Y0339086D01*
X0471074Y0340684D02*
X0132526Y0340684D01*
X0130341Y0342283D02*
X0473259Y0342283D01*
X0496800Y0345480D02*
X0106800Y0345480D01*
X0106800Y0318305D02*
X0136941Y0318305D01*
X0135343Y0316707D02*
X0106800Y0316707D01*
X0106800Y0315108D02*
X0133744Y0315108D01*
X0132146Y0313510D02*
X0106800Y0313510D01*
X0106800Y0311911D02*
X0130547Y0311911D01*
X0128949Y0310313D02*
X0106800Y0310313D01*
X0106800Y0308714D02*
X0127722Y0308714D01*
X0127300Y0307116D02*
X0106800Y0307116D01*
X0106800Y0305517D02*
X0127300Y0305517D01*
X0127300Y0303919D02*
X0106800Y0303919D01*
X0106800Y0302320D02*
X0127300Y0302320D01*
X0127300Y0300722D02*
X0106800Y0300722D01*
X0106800Y0299123D02*
X0127300Y0299123D01*
X0127300Y0297525D02*
X0106800Y0297525D01*
X0106800Y0295926D02*
X0127300Y0295926D01*
X0127300Y0294328D02*
X0106800Y0294328D01*
X0106800Y0292729D02*
X0127300Y0292729D01*
X0127300Y0291131D02*
X0106800Y0291131D01*
X0106800Y0289532D02*
X0127300Y0289532D01*
X0127300Y0287934D02*
X0106800Y0287934D01*
X0106800Y0286335D02*
X0127300Y0286335D01*
X0127300Y0284737D02*
X0106800Y0284737D01*
X0106800Y0283138D02*
X0127300Y0283138D01*
X0127300Y0281539D02*
X0106800Y0281539D01*
X0110023Y0279941D02*
X0127300Y0279941D01*
X0127300Y0278342D02*
X0111621Y0278342D01*
X0113220Y0276744D02*
X0127300Y0276744D01*
X0127300Y0275145D02*
X0114819Y0275145D01*
X0116417Y0273547D02*
X0127300Y0273547D01*
X0127300Y0271948D02*
X0118016Y0271948D01*
X0119614Y0270350D02*
X0127300Y0270350D01*
X0127300Y0268751D02*
X0121213Y0268751D01*
X0124033Y0267153D02*
X0127300Y0267153D01*
X0127300Y0265554D02*
X0126248Y0265554D01*
X0127185Y0263956D02*
X0127300Y0263956D01*
X0122099Y0255963D02*
X0106800Y0255963D01*
X0106800Y0254365D02*
X0120501Y0254365D01*
X0118902Y0252766D02*
X0106800Y0252766D01*
X0106800Y0251168D02*
X0117703Y0251168D01*
X0117300Y0249569D02*
X0106800Y0249569D01*
X0106800Y0247971D02*
X0117300Y0247971D01*
X0117300Y0246372D02*
X0106800Y0246372D01*
X0106800Y0244774D02*
X0117300Y0244774D01*
X0117300Y0243175D02*
X0106800Y0243175D01*
X0106800Y0241577D02*
X0117300Y0241577D01*
X0117300Y0239978D02*
X0106800Y0239978D01*
X0106800Y0238380D02*
X0117300Y0238380D01*
X0117300Y0236781D02*
X0106800Y0236781D01*
X0106800Y0235183D02*
X0117300Y0235183D01*
X0117300Y0233584D02*
X0106800Y0233584D01*
X0106800Y0231986D02*
X0117300Y0231986D01*
X0117300Y0230387D02*
X0106800Y0230387D01*
X0106800Y0228789D02*
X0117300Y0228789D01*
X0117300Y0227190D02*
X0106800Y0227190D01*
X0106800Y0225592D02*
X0117300Y0225592D01*
X0117300Y0223993D02*
X0106800Y0223993D01*
X0106800Y0222395D02*
X0117300Y0222395D01*
X0117300Y0220796D02*
X0106800Y0220796D01*
X0106800Y0219198D02*
X0117300Y0219198D01*
X0117300Y0217599D02*
X0106800Y0217599D01*
X0106800Y0216001D02*
X0117300Y0216001D01*
X0117300Y0214402D02*
X0106800Y0214402D01*
X0106800Y0212803D02*
X0117300Y0212803D01*
X0117300Y0211205D02*
X0106800Y0211205D01*
X0106800Y0209606D02*
X0117300Y0209606D01*
X0117300Y0208008D02*
X0106800Y0208008D01*
X0106800Y0206409D02*
X0117300Y0206409D01*
X0117300Y0204811D02*
X0106800Y0204811D01*
X0106800Y0203212D02*
X0117300Y0203212D01*
X0117300Y0201614D02*
X0106800Y0201614D01*
X0106800Y0200015D02*
X0117300Y0200015D01*
X0117300Y0198417D02*
X0106800Y0198417D01*
X0106800Y0196818D02*
X0117300Y0196818D01*
X0117017Y0195220D02*
X0106800Y0195220D01*
X0106800Y0193621D02*
X0116277Y0193621D01*
X0116000Y0192023D02*
X0106800Y0192023D01*
X0106800Y0190424D02*
X0116092Y0190424D01*
X0116754Y0188826D02*
X0106800Y0188826D01*
X0106800Y0187227D02*
X0117300Y0187227D01*
X0117300Y0185629D02*
X0106800Y0185629D01*
X0106800Y0184030D02*
X0117300Y0184030D01*
X0117300Y0182432D02*
X0106800Y0182432D01*
X0106800Y0180833D02*
X0117300Y0180833D01*
X0117300Y0179235D02*
X0106800Y0179235D01*
X0106800Y0177636D02*
X0117300Y0177636D01*
X0117300Y0176038D02*
X0106800Y0176038D01*
X0106800Y0174439D02*
X0116615Y0174439D01*
X0116000Y0172841D02*
X0106800Y0172841D01*
X0106800Y0171242D02*
X0116000Y0171242D01*
X0116415Y0169644D02*
X0106800Y0169644D01*
X0106800Y0168045D02*
X0117352Y0168045D01*
X0119568Y0166447D02*
X0106800Y0166447D01*
X0126300Y0217599D02*
X0144399Y0217599D01*
X0144081Y0217731D02*
X0145845Y0217000D01*
X0147755Y0217000D01*
X0149519Y0217731D01*
X0150869Y0219081D01*
X0151600Y0220845D01*
X0151600Y0222755D01*
X0150869Y0224519D01*
X0149519Y0225869D01*
X0147755Y0226600D01*
X0145845Y0226600D01*
X0144081Y0225869D01*
X0142731Y0224519D01*
X0142000Y0222755D01*
X0142000Y0220845D01*
X0142731Y0219081D01*
X0144081Y0217731D01*
X0142682Y0219198D02*
X0126300Y0219198D01*
X0126300Y0220796D02*
X0142020Y0220796D01*
X0142000Y0222395D02*
X0126300Y0222395D01*
X0126300Y0223993D02*
X0142513Y0223993D01*
X0143803Y0225592D02*
X0126300Y0225592D01*
X0126300Y0227190D02*
X0167665Y0227190D01*
X0168600Y0228789D02*
X0126300Y0228789D01*
X0126300Y0230387D02*
X0168600Y0230387D01*
X0168600Y0231986D02*
X0126300Y0231986D01*
X0126300Y0233584D02*
X0168600Y0233584D01*
X0164197Y0235183D02*
X0159403Y0235183D01*
X0159519Y0235231D02*
X0160869Y0236581D01*
X0161600Y0238345D01*
X0161600Y0240255D01*
X0160869Y0242019D01*
X0159519Y0243369D01*
X0157755Y0244100D01*
X0155845Y0244100D01*
X0154081Y0243369D01*
X0152731Y0242019D01*
X0152000Y0240255D01*
X0152000Y0238345D01*
X0152731Y0236581D01*
X0154081Y0235231D01*
X0155845Y0234500D01*
X0157755Y0234500D01*
X0159519Y0235231D01*
X0160952Y0236781D02*
X0162648Y0236781D01*
X0162000Y0238380D02*
X0161600Y0238380D01*
X0161600Y0239978D02*
X0162000Y0239978D01*
X0162548Y0241577D02*
X0161052Y0241577D01*
X0159713Y0243175D02*
X0163887Y0243175D01*
X0159301Y0244774D02*
X0126300Y0244774D01*
X0126300Y0246372D02*
X0157702Y0246372D01*
X0156104Y0247971D02*
X0126835Y0247971D01*
X0128433Y0249569D02*
X0154505Y0249569D01*
X0149519Y0243369D02*
X0147755Y0244100D01*
X0145845Y0244100D01*
X0144081Y0243369D01*
X0142731Y0242019D01*
X0142000Y0240255D01*
X0142000Y0238345D01*
X0142731Y0236581D01*
X0144081Y0235231D01*
X0145845Y0234500D01*
X0147755Y0234500D01*
X0149519Y0235231D01*
X0150869Y0236581D01*
X0151600Y0238345D01*
X0151600Y0240255D01*
X0150869Y0242019D01*
X0149519Y0243369D01*
X0149713Y0243175D02*
X0153887Y0243175D01*
X0152548Y0241577D02*
X0151052Y0241577D01*
X0151600Y0239978D02*
X0152000Y0239978D01*
X0152000Y0238380D02*
X0151600Y0238380D01*
X0150952Y0236781D02*
X0152648Y0236781D01*
X0154197Y0235183D02*
X0149403Y0235183D01*
X0144197Y0235183D02*
X0126300Y0235183D01*
X0126300Y0236781D02*
X0142648Y0236781D01*
X0142000Y0238380D02*
X0126300Y0238380D01*
X0126300Y0239978D02*
X0142000Y0239978D01*
X0142548Y0241577D02*
X0126300Y0241577D01*
X0126300Y0243175D02*
X0143887Y0243175D01*
X0154081Y0225869D02*
X0155845Y0226600D01*
X0157755Y0226600D01*
X0159519Y0225869D01*
X0160869Y0224519D01*
X0161600Y0222755D01*
X0161600Y0220845D01*
X0160869Y0219081D01*
X0159519Y0217731D01*
X0157755Y0217000D01*
X0155845Y0217000D01*
X0154081Y0217731D01*
X0152731Y0219081D01*
X0152000Y0220845D01*
X0152000Y0222755D01*
X0152731Y0224519D01*
X0154081Y0225869D01*
X0153803Y0225592D02*
X0149797Y0225592D01*
X0151087Y0223993D02*
X0152513Y0223993D01*
X0152000Y0222395D02*
X0151600Y0222395D01*
X0151580Y0220796D02*
X0152020Y0220796D01*
X0152682Y0219198D02*
X0150917Y0219198D01*
X0149201Y0217599D02*
X0154399Y0217599D01*
X0159201Y0217599D02*
X0164399Y0217599D01*
X0162682Y0219198D02*
X0160917Y0219198D01*
X0161580Y0220796D02*
X0162020Y0220796D01*
X0162000Y0222395D02*
X0161600Y0222395D01*
X0161087Y0223993D02*
X0162513Y0223993D01*
X0163803Y0225592D02*
X0159797Y0225592D01*
X0169201Y0217599D02*
X0174399Y0217599D01*
X0172682Y0219198D02*
X0170917Y0219198D01*
X0171580Y0220796D02*
X0172020Y0220796D01*
X0172000Y0222395D02*
X0171920Y0222395D01*
X0179797Y0225592D02*
X0183852Y0225592D01*
X0183673Y0225461D02*
X0183139Y0224927D01*
X0182695Y0224316D01*
X0182352Y0223643D01*
X0182118Y0222924D01*
X0182000Y0222178D01*
X0182000Y0221800D01*
X0186800Y0221800D01*
X0186800Y0221800D01*
X0186800Y0226600D01*
X0187178Y0226600D01*
X0187924Y0226482D01*
X0188643Y0226248D01*
X0189316Y0225905D01*
X0189927Y0225461D01*
X0190461Y0224927D01*
X0190905Y0224316D01*
X0191248Y0223643D01*
X0191482Y0222924D01*
X0191600Y0222178D01*
X0191600Y0221800D01*
X0186800Y0221800D01*
X0186800Y0221800D01*
X0186800Y0221800D01*
X0186800Y0226600D01*
X0186422Y0226600D01*
X0185676Y0226482D01*
X0184957Y0226248D01*
X0184284Y0225905D01*
X0183673Y0225461D01*
X0182530Y0223993D02*
X0181087Y0223993D01*
X0181600Y0222395D02*
X0182034Y0222395D01*
X0182000Y0221800D02*
X0182000Y0221422D01*
X0182118Y0220676D01*
X0182352Y0219957D01*
X0182695Y0219284D01*
X0183139Y0218673D01*
X0183673Y0218139D01*
X0184284Y0217695D01*
X0184957Y0217352D01*
X0185676Y0217118D01*
X0186422Y0217000D01*
X0186800Y0217000D01*
X0187178Y0217000D01*
X0187924Y0217118D01*
X0188643Y0217352D01*
X0189316Y0217695D01*
X0189927Y0218139D01*
X0190461Y0218673D01*
X0190905Y0219284D01*
X0191248Y0219957D01*
X0191482Y0220676D01*
X0191600Y0221422D01*
X0191600Y0221800D01*
X0186800Y0221800D01*
X0186800Y0217000D01*
X0186800Y0221800D01*
X0186800Y0221800D01*
X0182000Y0221800D01*
X0182099Y0220796D02*
X0181580Y0220796D01*
X0180917Y0219198D02*
X0182758Y0219198D01*
X0184472Y0217599D02*
X0179201Y0217599D01*
X0186800Y0217599D02*
X0186800Y0217599D01*
X0186800Y0219198D02*
X0186800Y0219198D01*
X0186800Y0220796D02*
X0186800Y0220796D01*
X0186800Y0222395D02*
X0186800Y0222395D01*
X0186800Y0223993D02*
X0186800Y0223993D01*
X0186800Y0225592D02*
X0186800Y0225592D01*
X0189748Y0225592D02*
X0193803Y0225592D01*
X0192513Y0223993D02*
X0191070Y0223993D01*
X0191566Y0222395D02*
X0192000Y0222395D01*
X0192020Y0220796D02*
X0191501Y0220796D01*
X0190842Y0219198D02*
X0192682Y0219198D01*
X0194399Y0217599D02*
X0189128Y0217599D01*
X0189403Y0235183D02*
X0194197Y0235183D01*
X0192648Y0236781D02*
X0190952Y0236781D01*
X0191600Y0238380D02*
X0192000Y0238380D01*
X0192000Y0239978D02*
X0191600Y0239978D01*
X0191052Y0241577D02*
X0192548Y0241577D01*
X0193887Y0243175D02*
X0189713Y0243175D01*
X0199713Y0243175D02*
X0212391Y0243175D01*
X0212200Y0241577D02*
X0201052Y0241577D01*
X0201600Y0239978D02*
X0212576Y0239978D01*
X0213715Y0238380D02*
X0201600Y0238380D01*
X0183338Y0252766D02*
X0169554Y0252766D01*
X0170987Y0254365D02*
X0182072Y0254365D01*
X0181500Y0255963D02*
X0171600Y0255963D01*
X0171600Y0257562D02*
X0181500Y0257562D01*
X0182041Y0259160D02*
X0171018Y0259160D01*
X0170000Y0260759D02*
X0183264Y0260759D01*
X0170976Y0249569D02*
X0232529Y0249569D01*
X0239834Y0265554D02*
X0248600Y0265554D01*
X0255257Y0268751D02*
X0288343Y0268751D01*
X0287900Y0269194D02*
X0289194Y0267900D01*
X0290885Y0267200D01*
X0292715Y0267200D01*
X0294406Y0267900D01*
X0295700Y0269194D01*
X0296400Y0270885D01*
X0296400Y0272715D01*
X0295700Y0274406D01*
X0294406Y0275700D01*
X0292715Y0276400D01*
X0290885Y0276400D01*
X0289194Y0275700D01*
X0287900Y0274406D01*
X0287200Y0272715D01*
X0287200Y0270885D01*
X0287900Y0269194D01*
X0287422Y0270350D02*
X0256178Y0270350D01*
X0256400Y0271948D02*
X0287200Y0271948D01*
X0287545Y0273547D02*
X0256055Y0273547D01*
X0254960Y0275145D02*
X0288640Y0275145D01*
X0294960Y0275145D02*
X0308640Y0275145D01*
X0307531Y0273547D02*
X0296055Y0273547D01*
X0296400Y0271948D02*
X0307200Y0271948D01*
X0307434Y0270350D02*
X0296178Y0270350D01*
X0295257Y0268751D02*
X0308343Y0268751D01*
X0307715Y0282200D02*
X0309406Y0282900D01*
X0310700Y0284194D01*
X0311400Y0285885D01*
X0311400Y0287715D01*
X0310700Y0289406D01*
X0309406Y0290700D01*
X0307715Y0291400D01*
X0305885Y0291400D01*
X0304194Y0290700D01*
X0302900Y0289406D01*
X0302200Y0287715D01*
X0302200Y0285885D01*
X0302900Y0284194D01*
X0304194Y0282900D01*
X0305885Y0282200D01*
X0307715Y0282200D01*
X0309643Y0283138D02*
X0318957Y0283138D01*
X0317676Y0284737D02*
X0310924Y0284737D01*
X0311400Y0286335D02*
X0317200Y0286335D01*
X0317291Y0287934D02*
X0311309Y0287934D01*
X0310573Y0289532D02*
X0318027Y0289532D01*
X0320235Y0291131D02*
X0308365Y0291131D01*
X0305235Y0291131D02*
X0298365Y0291131D01*
X0297715Y0291400D02*
X0295885Y0291400D01*
X0294194Y0290700D01*
X0292900Y0289406D01*
X0292200Y0287715D01*
X0292200Y0285885D01*
X0292900Y0284194D01*
X0294194Y0282900D01*
X0295885Y0282200D01*
X0297715Y0282200D01*
X0299406Y0282900D01*
X0300700Y0284194D01*
X0301400Y0285885D01*
X0301400Y0287715D01*
X0300700Y0289406D01*
X0299406Y0290700D01*
X0297715Y0291400D01*
X0295235Y0291131D02*
X0283365Y0291131D01*
X0285573Y0289532D02*
X0293027Y0289532D01*
X0292291Y0287934D02*
X0286309Y0287934D01*
X0286400Y0286335D02*
X0292200Y0286335D01*
X0292676Y0284737D02*
X0285924Y0284737D01*
X0284643Y0283138D02*
X0293957Y0283138D01*
X0299643Y0283138D02*
X0303957Y0283138D01*
X0302676Y0284737D02*
X0300924Y0284737D01*
X0301400Y0286335D02*
X0302200Y0286335D01*
X0302291Y0287934D02*
X0301309Y0287934D01*
X0300573Y0289532D02*
X0303027Y0289532D01*
X0309015Y0310313D02*
X0294751Y0310313D01*
X0294986Y0310410D02*
X0295780Y0310869D01*
X0296508Y0311427D01*
X0297157Y0312076D01*
X0297716Y0312804D01*
X0298175Y0313599D01*
X0298526Y0314447D01*
X0298763Y0315333D01*
X0298880Y0316222D01*
X0292363Y0316222D01*
X0292363Y0309704D01*
X0293252Y0309821D01*
X0294138Y0310059D01*
X0294986Y0310410D01*
X0296992Y0311911D02*
X0306774Y0311911D01*
X0305643Y0313510D02*
X0298123Y0313510D01*
X0298703Y0315108D02*
X0305063Y0315108D01*
X0305066Y0318305D02*
X0298700Y0318305D01*
X0298117Y0319904D02*
X0305649Y0319904D01*
X0306784Y0321502D02*
X0296982Y0321502D01*
X0292363Y0316707D02*
X0311403Y0316707D01*
X0312363Y0316707D02*
X0324883Y0316707D01*
X0324971Y0318305D02*
X0318700Y0318305D01*
X0318117Y0319904D02*
X0325633Y0319904D01*
X0326784Y0321502D02*
X0316982Y0321502D01*
X0318880Y0316222D02*
X0312363Y0316222D01*
X0312363Y0309704D01*
X0313252Y0309821D01*
X0314138Y0310059D01*
X0314986Y0310410D01*
X0315780Y0310869D01*
X0316508Y0311427D01*
X0317157Y0312076D01*
X0317716Y0312804D01*
X0318175Y0313599D01*
X0318526Y0314447D01*
X0318763Y0315333D01*
X0318880Y0316222D01*
X0318703Y0315108D02*
X0324966Y0315108D01*
X0325628Y0313510D02*
X0318123Y0313510D01*
X0316992Y0311911D02*
X0326774Y0311911D01*
X0329015Y0310313D02*
X0314751Y0310313D01*
X0312363Y0310313D02*
X0311404Y0310313D01*
X0311404Y0311911D02*
X0312363Y0311911D01*
X0312363Y0313510D02*
X0311404Y0313510D01*
X0311404Y0315108D02*
X0312363Y0315108D01*
X0292363Y0315108D02*
X0291404Y0315108D01*
X0291404Y0313510D02*
X0292363Y0313510D01*
X0292363Y0311911D02*
X0291404Y0311911D01*
X0291404Y0310313D02*
X0292363Y0310313D01*
X0289015Y0310313D02*
X0274751Y0310313D01*
X0276992Y0311911D02*
X0286774Y0311911D01*
X0285643Y0313510D02*
X0278138Y0313510D01*
X0278800Y0315108D02*
X0285063Y0315108D01*
X0285066Y0318305D02*
X0278796Y0318305D01*
X0278883Y0316707D02*
X0291403Y0316707D01*
X0285649Y0319904D02*
X0278133Y0319904D01*
X0276982Y0321502D02*
X0286784Y0321502D01*
X0266784Y0321502D02*
X0256982Y0321502D01*
X0258117Y0319904D02*
X0265633Y0319904D01*
X0264971Y0318305D02*
X0258700Y0318305D01*
X0258880Y0316222D02*
X0252363Y0316222D01*
X0252363Y0309704D01*
X0253252Y0309821D01*
X0254138Y0310059D01*
X0254986Y0310410D01*
X0255780Y0310869D01*
X0256508Y0311427D01*
X0257157Y0312076D01*
X0257716Y0312804D01*
X0258175Y0313599D01*
X0258526Y0314447D01*
X0258763Y0315333D01*
X0258880Y0316222D01*
X0258703Y0315108D02*
X0264966Y0315108D01*
X0264883Y0316707D02*
X0252363Y0316707D01*
X0251403Y0316707D02*
X0238883Y0316707D01*
X0238796Y0318305D02*
X0245066Y0318305D01*
X0245649Y0319904D02*
X0238133Y0319904D01*
X0236982Y0321502D02*
X0246784Y0321502D01*
X0245063Y0315108D02*
X0238800Y0315108D01*
X0238138Y0313510D02*
X0245643Y0313510D01*
X0246774Y0311911D02*
X0236992Y0311911D01*
X0234751Y0310313D02*
X0249015Y0310313D01*
X0251404Y0310313D02*
X0252363Y0310313D01*
X0252363Y0311911D02*
X0251404Y0311911D01*
X0251404Y0313510D02*
X0252363Y0313510D01*
X0252363Y0315108D02*
X0251404Y0315108D01*
X0256992Y0311911D02*
X0266774Y0311911D01*
X0265628Y0313510D02*
X0258123Y0313510D01*
X0254751Y0310313D02*
X0269015Y0310313D01*
X0229015Y0310313D02*
X0214751Y0310313D01*
X0216992Y0311911D02*
X0226774Y0311911D01*
X0225628Y0313510D02*
X0218138Y0313510D01*
X0218800Y0315108D02*
X0224966Y0315108D01*
X0224883Y0316707D02*
X0218883Y0316707D01*
X0218796Y0318305D02*
X0224971Y0318305D01*
X0225633Y0319904D02*
X0218133Y0319904D01*
X0216982Y0321502D02*
X0226784Y0321502D01*
X0206784Y0321502D02*
X0196982Y0321502D01*
X0198117Y0319904D02*
X0205633Y0319904D01*
X0204971Y0318305D02*
X0198700Y0318305D01*
X0198880Y0316222D02*
X0192363Y0316222D01*
X0192363Y0309704D01*
X0193252Y0309821D01*
X0194138Y0310059D01*
X0194986Y0310410D01*
X0195780Y0310869D01*
X0196508Y0311427D01*
X0197157Y0312076D01*
X0197716Y0312804D01*
X0198175Y0313599D01*
X0198526Y0314447D01*
X0198763Y0315333D01*
X0198880Y0316222D01*
X0198703Y0315108D02*
X0204966Y0315108D01*
X0204883Y0316707D02*
X0192363Y0316707D01*
X0191403Y0316707D02*
X0178883Y0316707D01*
X0178796Y0318305D02*
X0185066Y0318305D01*
X0185649Y0319904D02*
X0178133Y0319904D01*
X0176982Y0321502D02*
X0186784Y0321502D01*
X0185063Y0315108D02*
X0178800Y0315108D01*
X0178138Y0313510D02*
X0185643Y0313510D01*
X0186774Y0311911D02*
X0176992Y0311911D01*
X0174751Y0310313D02*
X0189015Y0310313D01*
X0191404Y0310313D02*
X0192363Y0310313D01*
X0192363Y0311911D02*
X0191404Y0311911D01*
X0191404Y0313510D02*
X0192363Y0313510D01*
X0192363Y0315108D02*
X0191404Y0315108D01*
X0196992Y0311911D02*
X0206774Y0311911D01*
X0205628Y0313510D02*
X0198123Y0313510D01*
X0194751Y0310313D02*
X0209015Y0310313D01*
X0169015Y0310313D02*
X0141677Y0310313D01*
X0143275Y0311911D02*
X0166774Y0311911D01*
X0165628Y0313510D02*
X0144874Y0313510D01*
X0146472Y0315108D02*
X0164966Y0315108D01*
X0164883Y0316707D02*
X0148071Y0316707D01*
X0149669Y0318305D02*
X0164971Y0318305D01*
X0165633Y0319904D02*
X0151268Y0319904D01*
X0152866Y0321502D02*
X0166784Y0321502D01*
X0140078Y0308714D02*
X0496800Y0308714D01*
X0496800Y0307116D02*
X0138480Y0307116D01*
X0136881Y0305517D02*
X0496800Y0305517D01*
X0496800Y0303919D02*
X0136300Y0303919D01*
X0136300Y0302320D02*
X0496800Y0302320D01*
X0496800Y0300722D02*
X0136300Y0300722D01*
X0136300Y0299123D02*
X0496800Y0299123D01*
X0496800Y0297525D02*
X0136300Y0297525D01*
X0136300Y0295926D02*
X0496800Y0295926D01*
X0496800Y0294328D02*
X0136300Y0294328D01*
X0136300Y0289532D02*
X0140582Y0289532D01*
X0143018Y0289532D02*
X0160954Y0289532D01*
X0157938Y0287934D02*
X0145662Y0287934D01*
X0146694Y0286335D02*
X0156889Y0286335D01*
X0156503Y0284737D02*
X0147100Y0284737D01*
X0147055Y0283138D02*
X0156618Y0283138D01*
X0157258Y0281539D02*
X0146393Y0281539D01*
X0144936Y0279941D02*
X0158783Y0279941D01*
X0166982Y0283138D02*
X0212375Y0283138D01*
X0213231Y0284737D02*
X0167097Y0284737D01*
X0117836Y0257562D02*
X0106800Y0257562D01*
X0106800Y0259160D02*
X0116616Y0259160D01*
X0116000Y0260759D02*
X0106800Y0260759D01*
X0106800Y0262357D02*
X0114879Y0262357D01*
X0113280Y0263956D02*
X0106800Y0263956D01*
X0106800Y0265554D02*
X0111682Y0265554D01*
X0110083Y0267153D02*
X0106800Y0267153D01*
X0106800Y0268751D02*
X0108485Y0268751D01*
X0106886Y0270350D02*
X0106800Y0270350D01*
X0264629Y0260759D02*
X0278971Y0260759D01*
X0277582Y0259160D02*
X0266018Y0259160D01*
X0266600Y0257562D02*
X0277000Y0257562D01*
X0277000Y0255963D02*
X0266600Y0255963D01*
X0265987Y0254365D02*
X0277613Y0254365D01*
X0279045Y0252766D02*
X0264554Y0252766D01*
X0285987Y0254365D02*
X0287654Y0254365D01*
X0287073Y0255963D02*
X0286600Y0255963D01*
X0286600Y0257562D02*
X0287061Y0257562D01*
X0287615Y0259160D02*
X0286018Y0259160D01*
X0284629Y0260759D02*
X0289083Y0260759D01*
X0291800Y0260759D02*
X0291800Y0260759D01*
X0291800Y0259160D02*
X0291800Y0259160D01*
X0291800Y0257562D02*
X0291800Y0257562D01*
X0291800Y0255963D02*
X0291800Y0255963D01*
X0291800Y0254365D02*
X0291800Y0254365D01*
X0291800Y0252766D02*
X0291800Y0252766D01*
X0315105Y0208008D02*
X0360794Y0208008D01*
X0362291Y0206409D02*
X0317090Y0206409D01*
X0318130Y0204811D02*
X0365381Y0204811D01*
X0368219Y0204811D02*
X0397200Y0204811D01*
X0397271Y0203212D02*
X0318792Y0203212D01*
X0318800Y0201614D02*
X0397981Y0201614D01*
X0400124Y0200015D02*
X0318638Y0200015D01*
X0318263Y0172841D02*
X0285337Y0172841D01*
X0287215Y0171242D02*
X0316385Y0171242D01*
X0315401Y0169644D02*
X0288199Y0169644D01*
X0288696Y0168045D02*
X0314904Y0168045D01*
X0314800Y0166447D02*
X0288800Y0166447D01*
X0288524Y0164848D02*
X0315076Y0164848D01*
X0315767Y0163250D02*
X0287833Y0163250D01*
X0286551Y0161651D02*
X0317049Y0161651D01*
X0321600Y0161651D02*
X0322000Y0161651D01*
X0322000Y0163250D02*
X0321600Y0163250D01*
X0321600Y0164848D02*
X0322000Y0164848D01*
X0322000Y0166447D02*
X0321600Y0166447D01*
X0321600Y0168045D02*
X0322000Y0168045D01*
X0322000Y0169644D02*
X0321600Y0169644D01*
X0321600Y0171242D02*
X0322000Y0171242D01*
X0322000Y0172841D02*
X0321600Y0172841D01*
X0325337Y0172841D02*
X0338092Y0172841D01*
X0336343Y0171242D02*
X0327215Y0171242D01*
X0328199Y0169644D02*
X0335401Y0169644D01*
X0334800Y0168045D02*
X0328696Y0168045D01*
X0328800Y0166447D02*
X0334800Y0166447D01*
X0335032Y0164848D02*
X0328524Y0164848D01*
X0327833Y0163250D02*
X0335694Y0163250D01*
X0337049Y0161651D02*
X0326551Y0161651D01*
X0282000Y0161651D02*
X0281600Y0161651D01*
X0281600Y0163250D02*
X0282000Y0163250D01*
X0282000Y0164848D02*
X0281600Y0164848D01*
X0281600Y0166447D02*
X0282000Y0166447D01*
X0282000Y0168045D02*
X0281600Y0168045D01*
X0281600Y0169644D02*
X0282000Y0169644D01*
X0282000Y0171242D02*
X0281600Y0171242D01*
X0281600Y0172841D02*
X0282000Y0172841D01*
X0295384Y0123287D02*
X0308216Y0123287D01*
X0307170Y0121688D02*
X0296430Y0121688D01*
X0296800Y0120090D02*
X0306800Y0120090D01*
X0306800Y0118491D02*
X0299634Y0118491D01*
X0299513Y0118613D02*
X0299513Y0118613D01*
X0301233Y0116893D02*
X0306800Y0116893D01*
X0306800Y0115294D02*
X0302831Y0115294D01*
X0304430Y0113696D02*
X0306800Y0113696D01*
X0307093Y0112097D02*
X0306028Y0112097D01*
X0307627Y0110499D02*
X0308030Y0110499D01*
X0315570Y0110499D02*
X0333711Y0110499D01*
X0332474Y0108900D02*
X0324225Y0108900D01*
X0325824Y0107302D02*
X0332000Y0107302D01*
X0332059Y0105703D02*
X0327422Y0105703D01*
X0329021Y0104105D02*
X0332721Y0104105D01*
X0334623Y0102506D02*
X0330619Y0102506D01*
X0332218Y0100908D02*
X0334174Y0100908D01*
X0338977Y0102506D02*
X0462622Y0102506D01*
X0462647Y0100908D02*
X0339426Y0100908D01*
X0340956Y0099309D02*
X0463382Y0099309D01*
X0463232Y0104105D02*
X0340879Y0104105D01*
X0327962Y0096112D02*
X0316800Y0096112D01*
X0316800Y0094514D02*
X0329561Y0094514D01*
X0326364Y0097711D02*
X0316800Y0097711D01*
X0316800Y0099309D02*
X0324765Y0099309D01*
X0323167Y0100908D02*
X0316753Y0100908D01*
X0316091Y0102506D02*
X0321568Y0102506D01*
X0316800Y0092915D02*
X0333897Y0092915D01*
X0326604Y0086521D02*
X0411537Y0086521D01*
X0412535Y0087097D02*
X0410015Y0085642D01*
X0407958Y0083585D01*
X0406503Y0081065D01*
X0405750Y0078255D01*
X0405750Y0075345D01*
X0406503Y0072535D01*
X0407958Y0070015D01*
X0410015Y0067958D01*
X0412535Y0066503D01*
X0415345Y0065750D01*
X0418255Y0065750D01*
X0421065Y0066503D01*
X0423585Y0067958D01*
X0425642Y0070015D01*
X0427097Y0072535D01*
X0427850Y0075345D01*
X0427850Y0078255D01*
X0427097Y0081065D01*
X0425642Y0083585D01*
X0423585Y0085642D01*
X0421065Y0087097D01*
X0418255Y0087850D01*
X0415345Y0087850D01*
X0412535Y0087097D01*
X0409296Y0084923D02*
X0328203Y0084923D01*
X0329801Y0083324D02*
X0407807Y0083324D01*
X0406884Y0081726D02*
X0331400Y0081726D01*
X0332998Y0080127D02*
X0333339Y0080127D01*
X0328743Y0075332D02*
X0316800Y0075332D01*
X0316800Y0076930D02*
X0327144Y0076930D01*
X0325546Y0078529D02*
X0316800Y0078529D01*
X0316800Y0080127D02*
X0323947Y0080127D01*
X0322349Y0081726D02*
X0316414Y0081726D01*
X0315347Y0083324D02*
X0320750Y0083324D01*
X0325006Y0088120D02*
X0486756Y0088120D01*
X0488354Y0089718D02*
X0323117Y0089718D01*
X0316183Y0091317D02*
X0489953Y0091317D01*
X0485157Y0086521D02*
X0422063Y0086521D01*
X0424304Y0084923D02*
X0483559Y0084923D01*
X0481960Y0083324D02*
X0425793Y0083324D01*
X0426716Y0081726D02*
X0480362Y0081726D01*
X0478763Y0080127D02*
X0427348Y0080127D01*
X0427777Y0078529D02*
X0446932Y0078529D01*
X0445333Y0076930D02*
X0427850Y0076930D01*
X0427846Y0075332D02*
X0444387Y0075332D01*
X0443725Y0073733D02*
X0427418Y0073733D01*
X0426866Y0072134D02*
X0443600Y0072134D01*
X0443600Y0070536D02*
X0425943Y0070536D01*
X0424565Y0068937D02*
X0444110Y0068937D01*
X0444772Y0067339D02*
X0422513Y0067339D01*
X0411087Y0067339D02*
X0388828Y0067339D01*
X0388752Y0067155D02*
X0390000Y0070169D01*
X0390000Y0073431D01*
X0388752Y0076445D01*
X0386445Y0078752D01*
X0383431Y0080000D01*
X0380169Y0080000D01*
X0377155Y0078752D01*
X0374848Y0076445D01*
X0373600Y0073431D01*
X0373600Y0070169D01*
X0374848Y0067155D01*
X0377155Y0064848D01*
X0380169Y0063600D01*
X0383431Y0063600D01*
X0386445Y0064848D01*
X0388752Y0067155D01*
X0389490Y0068937D02*
X0409035Y0068937D01*
X0407657Y0070536D02*
X0390000Y0070536D01*
X0390000Y0072134D02*
X0406734Y0072134D01*
X0406182Y0073733D02*
X0389875Y0073733D01*
X0389213Y0075332D02*
X0405754Y0075332D01*
X0405750Y0076930D02*
X0388266Y0076930D01*
X0386668Y0078529D02*
X0405823Y0078529D01*
X0406252Y0080127D02*
X0340261Y0080127D01*
X0341279Y0078529D02*
X0376932Y0078529D01*
X0375333Y0076930D02*
X0341600Y0076930D01*
X0341387Y0075332D02*
X0374387Y0075332D01*
X0373725Y0073733D02*
X0340521Y0073733D01*
X0338079Y0072134D02*
X0373600Y0072134D01*
X0373600Y0070536D02*
X0339852Y0070536D01*
X0339519Y0070869D02*
X0340869Y0069519D01*
X0341600Y0067755D01*
X0341600Y0065845D01*
X0340869Y0064081D01*
X0339519Y0062731D01*
X0337755Y0062000D01*
X0335845Y0062000D01*
X0334081Y0062731D01*
X0332731Y0064081D01*
X0332000Y0065845D01*
X0332000Y0067755D01*
X0332731Y0069519D01*
X0334081Y0070869D01*
X0335845Y0071600D01*
X0337755Y0071600D01*
X0339519Y0070869D01*
X0341110Y0068937D02*
X0374110Y0068937D01*
X0374772Y0067339D02*
X0341600Y0067339D01*
X0341557Y0065740D02*
X0376263Y0065740D01*
X0378861Y0064142D02*
X0340894Y0064142D01*
X0339067Y0062543D02*
X0496800Y0062543D01*
X0496800Y0060945D02*
X0339336Y0060945D01*
X0339519Y0060869D02*
X0337755Y0061600D01*
X0335845Y0061600D01*
X0334081Y0060869D01*
X0332731Y0059519D01*
X0332000Y0057755D01*
X0332000Y0055845D01*
X0332731Y0054081D01*
X0334081Y0052731D01*
X0335845Y0052000D01*
X0337755Y0052000D01*
X0339519Y0052731D01*
X0340869Y0054081D01*
X0341600Y0055845D01*
X0341600Y0057755D01*
X0340869Y0059519D01*
X0339519Y0060869D01*
X0340941Y0059346D02*
X0496800Y0059346D01*
X0496800Y0057748D02*
X0341600Y0057748D01*
X0341600Y0056149D02*
X0496800Y0056149D01*
X0496800Y0054551D02*
X0341064Y0054551D01*
X0339741Y0052952D02*
X0496800Y0052952D01*
X0496800Y0051354D02*
X0316199Y0051354D01*
X0316039Y0050968D02*
X0316800Y0052805D01*
X0316800Y0060795D01*
X0316039Y0062632D01*
X0314632Y0064039D01*
X0312795Y0064800D01*
X0310805Y0064800D01*
X0308968Y0064039D01*
X0307561Y0062632D01*
X0306800Y0060795D01*
X0306800Y0052805D01*
X0307561Y0050968D01*
X0308968Y0049561D01*
X0310805Y0048800D01*
X0312795Y0048800D01*
X0314632Y0049561D01*
X0316039Y0050968D01*
X0314826Y0049755D02*
X0379807Y0049755D01*
X0380197Y0049860D02*
X0379159Y0049581D01*
X0378165Y0049170D01*
X0377235Y0048633D01*
X0376382Y0047978D01*
X0375622Y0047218D01*
X0374967Y0046365D01*
X0374430Y0045435D01*
X0374019Y0044441D01*
X0373740Y0043403D01*
X0373600Y0042337D01*
X0373600Y0042000D01*
X0381600Y0042000D01*
X0381600Y0050000D01*
X0381263Y0050000D01*
X0380197Y0049860D01*
X0381600Y0049755D02*
X0382000Y0049755D01*
X0382000Y0050000D02*
X0382000Y0042000D01*
X0381600Y0042000D01*
X0381600Y0041600D01*
X0373600Y0041600D01*
X0373600Y0041263D01*
X0373740Y0040197D01*
X0374019Y0039159D01*
X0374430Y0038165D01*
X0374967Y0037235D01*
X0375622Y0036382D01*
X0376382Y0035622D01*
X0377235Y0034967D01*
X0378165Y0034430D01*
X0379159Y0034019D01*
X0380197Y0033740D01*
X0381263Y0033600D01*
X0381600Y0033600D01*
X0381600Y0041600D01*
X0382000Y0041600D01*
X0382000Y0042000D01*
X0390000Y0042000D01*
X0390000Y0042337D01*
X0389860Y0043403D01*
X0389581Y0044441D01*
X0389170Y0045435D01*
X0388633Y0046365D01*
X0387978Y0047218D01*
X0387218Y0047978D01*
X0386365Y0048633D01*
X0385435Y0049170D01*
X0384441Y0049581D01*
X0383403Y0049860D01*
X0382337Y0050000D01*
X0382000Y0050000D01*
X0383793Y0049755D02*
X0449807Y0049755D01*
X0450197Y0049860D02*
X0449159Y0049581D01*
X0448165Y0049170D01*
X0447235Y0048633D01*
X0446382Y0047978D01*
X0445622Y0047218D01*
X0444967Y0046365D01*
X0444430Y0045435D01*
X0444019Y0044441D01*
X0443740Y0043403D01*
X0443600Y0042337D01*
X0443600Y0042000D01*
X0451600Y0042000D01*
X0451600Y0050000D01*
X0451263Y0050000D01*
X0450197Y0049860D01*
X0451600Y0049755D02*
X0452000Y0049755D01*
X0452000Y0050000D02*
X0452000Y0042000D01*
X0451600Y0042000D01*
X0451600Y0041600D01*
X0443600Y0041600D01*
X0443600Y0041263D01*
X0443740Y0040197D01*
X0444019Y0039159D01*
X0444430Y0038165D01*
X0444967Y0037235D01*
X0445622Y0036382D01*
X0446382Y0035622D01*
X0447235Y0034967D01*
X0448165Y0034430D01*
X0449159Y0034019D01*
X0450197Y0033740D01*
X0451263Y0033600D01*
X0451600Y0033600D01*
X0451600Y0041600D01*
X0452000Y0041600D01*
X0452000Y0042000D01*
X0460000Y0042000D01*
X0460000Y0042337D01*
X0459860Y0043403D01*
X0459581Y0044441D01*
X0459170Y0045435D01*
X0458633Y0046365D01*
X0457978Y0047218D01*
X0457218Y0047978D01*
X0456365Y0048633D01*
X0455435Y0049170D01*
X0454441Y0049581D01*
X0453403Y0049860D01*
X0452337Y0050000D01*
X0452000Y0050000D01*
X0453793Y0049755D02*
X0496800Y0049755D01*
X0496800Y0048157D02*
X0456986Y0048157D01*
X0458485Y0046558D02*
X0496800Y0046558D01*
X0496800Y0044960D02*
X0459367Y0044960D01*
X0459865Y0043361D02*
X0496800Y0043361D01*
X0496800Y0041763D02*
X0452000Y0041763D01*
X0452000Y0041600D02*
X0460000Y0041600D01*
X0460000Y0041263D01*
X0459860Y0040197D01*
X0459581Y0039159D01*
X0459170Y0038165D01*
X0458633Y0037235D01*
X0457978Y0036382D01*
X0457218Y0035622D01*
X0456365Y0034967D01*
X0455435Y0034430D01*
X0454441Y0034019D01*
X0453403Y0033740D01*
X0452337Y0033600D01*
X0452000Y0033600D01*
X0452000Y0041600D01*
X0451600Y0041763D02*
X0426675Y0041763D01*
X0426486Y0042154D02*
X0425826Y0043204D01*
X0425052Y0044175D01*
X0424175Y0045052D01*
X0423204Y0045826D01*
X0422154Y0046486D01*
X0421035Y0047025D01*
X0419864Y0047435D01*
X0418654Y0047711D01*
X0417600Y0047830D01*
X0417600Y0037600D01*
X0416000Y0037600D01*
X0416000Y0047830D01*
X0414946Y0047711D01*
X0413736Y0047435D01*
X0412565Y0047025D01*
X0411446Y0046486D01*
X0410396Y0045826D01*
X0409425Y0045052D01*
X0408548Y0044175D01*
X0407774Y0043204D01*
X0407114Y0042154D01*
X0406575Y0041035D01*
X0406165Y0039864D01*
X0405889Y0038654D01*
X0405770Y0037600D01*
X0416000Y0037600D01*
X0416000Y0036000D01*
X0405770Y0036000D01*
X0405889Y0034946D01*
X0406165Y0033736D01*
X0406575Y0032565D01*
X0407114Y0031446D01*
X0407774Y0030396D01*
X0408548Y0029425D01*
X0409425Y0028548D01*
X0410396Y0027774D01*
X0411446Y0027114D01*
X0412565Y0026575D01*
X0413736Y0026165D01*
X0414946Y0025889D01*
X0416000Y0025770D01*
X0416000Y0036000D01*
X0417600Y0036000D01*
X0417600Y0037600D01*
X0427830Y0037600D01*
X0427711Y0038654D01*
X0427435Y0039864D01*
X0427025Y0041035D01*
X0426486Y0042154D01*
X0425701Y0043361D02*
X0443735Y0043361D01*
X0444233Y0044960D02*
X0424267Y0044960D01*
X0422004Y0046558D02*
X0445115Y0046558D01*
X0446614Y0048157D02*
X0386986Y0048157D01*
X0388485Y0046558D02*
X0411596Y0046558D01*
X0409333Y0044960D02*
X0389367Y0044960D01*
X0389865Y0043361D02*
X0407899Y0043361D01*
X0406925Y0041763D02*
X0382000Y0041763D01*
X0382000Y0041600D02*
X0390000Y0041600D01*
X0390000Y0041263D01*
X0389860Y0040197D01*
X0389581Y0039159D01*
X0389170Y0038165D01*
X0388633Y0037235D01*
X0387978Y0036382D01*
X0387218Y0035622D01*
X0386365Y0034967D01*
X0385435Y0034430D01*
X0384441Y0034019D01*
X0383403Y0033740D01*
X0382337Y0033600D01*
X0382000Y0033600D01*
X0382000Y0041600D01*
X0381600Y0041763D02*
X0293127Y0041763D01*
X0291528Y0040164D02*
X0373749Y0040164D01*
X0374264Y0038566D02*
X0289930Y0038566D01*
X0288331Y0036967D02*
X0375172Y0036967D01*
X0376711Y0035369D02*
X0286733Y0035369D01*
X0285134Y0033770D02*
X0380085Y0033770D01*
X0381600Y0033770D02*
X0382000Y0033770D01*
X0383515Y0033770D02*
X0406157Y0033770D01*
X0405841Y0035369D02*
X0386889Y0035369D01*
X0388428Y0036967D02*
X0416000Y0036967D01*
X0416000Y0035369D02*
X0417600Y0035369D01*
X0417600Y0036000D02*
X0417600Y0025770D01*
X0418654Y0025889D01*
X0419864Y0026165D01*
X0421035Y0026575D01*
X0422154Y0027114D01*
X0423204Y0027774D01*
X0424175Y0028548D01*
X0425052Y0029425D01*
X0425826Y0030396D01*
X0426486Y0031446D01*
X0427025Y0032565D01*
X0427435Y0033736D01*
X0427711Y0034946D01*
X0427830Y0036000D01*
X0417600Y0036000D01*
X0417600Y0036967D02*
X0445172Y0036967D01*
X0444264Y0038566D02*
X0427721Y0038566D01*
X0427330Y0040164D02*
X0443749Y0040164D01*
X0446711Y0035369D02*
X0427759Y0035369D01*
X0427443Y0033770D02*
X0450085Y0033770D01*
X0451600Y0033770D02*
X0452000Y0033770D01*
X0453515Y0033770D02*
X0477226Y0033770D01*
X0477707Y0033899D02*
X0474630Y0033075D01*
X0471871Y0031482D01*
X0469618Y0029229D01*
X0468025Y0026470D01*
X0467201Y0023393D01*
X0467201Y0020207D01*
X0468025Y0017130D01*
X0469618Y0014371D01*
X0471871Y0012118D01*
X0474630Y0010525D01*
X0477707Y0009701D01*
X0480893Y0009701D01*
X0483970Y0010525D01*
X0486729Y0012118D01*
X0488982Y0014371D01*
X0490575Y0017130D01*
X0491399Y0020207D01*
X0491399Y0023393D01*
X0490575Y0026470D01*
X0488982Y0029229D01*
X0486729Y0031482D01*
X0483970Y0033075D01*
X0480893Y0033899D01*
X0477707Y0033899D01*
X0481374Y0033770D02*
X0496800Y0033770D01*
X0496800Y0032172D02*
X0485534Y0032172D01*
X0487638Y0030573D02*
X0496800Y0030573D01*
X0496800Y0028975D02*
X0489129Y0028975D01*
X0490052Y0027376D02*
X0496800Y0027376D01*
X0496800Y0025778D02*
X0490760Y0025778D01*
X0491189Y0024179D02*
X0496800Y0024179D01*
X0496800Y0022581D02*
X0491399Y0022581D01*
X0491399Y0020982D02*
X0496800Y0020982D01*
X0496800Y0019384D02*
X0491179Y0019384D01*
X0490750Y0017785D02*
X0496800Y0017785D01*
X0496800Y0016187D02*
X0490030Y0016187D01*
X0489107Y0014588D02*
X0496800Y0014588D01*
X0496800Y0012990D02*
X0487600Y0012990D01*
X0485470Y0011391D02*
X0496800Y0011391D01*
X0496800Y0009793D02*
X0481235Y0009793D01*
X0477365Y0009793D02*
X0126235Y0009793D01*
X0125893Y0009701D02*
X0128970Y0010525D01*
X0131729Y0012118D01*
X0133982Y0014371D01*
X0135575Y0017130D01*
X0136399Y0020207D01*
X0136399Y0023393D01*
X0135575Y0026470D01*
X0133982Y0029229D01*
X0131729Y0031482D01*
X0128970Y0033075D01*
X0125893Y0033899D01*
X0122707Y0033899D01*
X0119630Y0033075D01*
X0116871Y0031482D01*
X0114618Y0029229D01*
X0113025Y0026470D01*
X0112201Y0023393D01*
X0112201Y0020207D01*
X0113025Y0017130D01*
X0114618Y0014371D01*
X0116871Y0012118D01*
X0119630Y0010525D01*
X0122707Y0009701D01*
X0125893Y0009701D01*
X0122365Y0009793D02*
X0106800Y0009793D01*
X0106800Y0011391D02*
X0118130Y0011391D01*
X0116000Y0012990D02*
X0106800Y0012990D01*
X0106800Y0014588D02*
X0114493Y0014588D01*
X0113570Y0016187D02*
X0106800Y0016187D01*
X0106800Y0017785D02*
X0112850Y0017785D01*
X0112421Y0019384D02*
X0106800Y0019384D01*
X0106800Y0020982D02*
X0112201Y0020982D01*
X0112201Y0022581D02*
X0106800Y0022581D01*
X0106800Y0024179D02*
X0112411Y0024179D01*
X0112840Y0025778D02*
X0106800Y0025778D01*
X0106800Y0027376D02*
X0113548Y0027376D01*
X0114471Y0028975D02*
X0106800Y0028975D01*
X0106800Y0030573D02*
X0115962Y0030573D01*
X0118066Y0032172D02*
X0106800Y0032172D01*
X0106800Y0033770D02*
X0122226Y0033770D01*
X0126374Y0033770D02*
X0145085Y0033770D01*
X0145197Y0033740D02*
X0146263Y0033600D01*
X0146600Y0033600D01*
X0146600Y0041600D01*
X0138600Y0041600D01*
X0138600Y0041263D01*
X0138740Y0040197D01*
X0139019Y0039159D01*
X0139430Y0038165D01*
X0139967Y0037235D01*
X0140622Y0036382D01*
X0141382Y0035622D01*
X0142235Y0034967D01*
X0143165Y0034430D01*
X0144159Y0034019D01*
X0145197Y0033740D01*
X0146600Y0033770D02*
X0147000Y0033770D01*
X0147000Y0033600D02*
X0147337Y0033600D01*
X0148403Y0033740D01*
X0149441Y0034019D01*
X0150435Y0034430D01*
X0151365Y0034967D01*
X0152218Y0035622D01*
X0152978Y0036382D01*
X0153633Y0037235D01*
X0154170Y0038165D01*
X0154581Y0039159D01*
X0154860Y0040197D01*
X0155000Y0041263D01*
X0155000Y0041600D01*
X0147000Y0041600D01*
X0147000Y0042000D01*
X0146600Y0042000D01*
X0146600Y0050000D01*
X0146263Y0050000D01*
X0145197Y0049860D01*
X0144159Y0049581D01*
X0143165Y0049170D01*
X0142235Y0048633D01*
X0141382Y0047978D01*
X0140622Y0047218D01*
X0139967Y0046365D01*
X0139430Y0045435D01*
X0139019Y0044441D01*
X0138740Y0043403D01*
X0138600Y0042337D01*
X0138600Y0042000D01*
X0146600Y0042000D01*
X0146600Y0041600D01*
X0147000Y0041600D01*
X0147000Y0033600D01*
X0148515Y0033770D02*
X0171157Y0033770D01*
X0171165Y0033736D02*
X0171575Y0032565D01*
X0172114Y0031446D01*
X0172774Y0030396D01*
X0173548Y0029425D01*
X0174425Y0028548D01*
X0175396Y0027774D01*
X0176446Y0027114D01*
X0177565Y0026575D01*
X0178736Y0026165D01*
X0179946Y0025889D01*
X0181000Y0025770D01*
X0181000Y0036000D01*
X0170770Y0036000D01*
X0170889Y0034946D01*
X0171165Y0033736D01*
X0170841Y0035369D02*
X0151889Y0035369D01*
X0153428Y0036967D02*
X0181000Y0036967D01*
X0181000Y0037600D02*
X0181000Y0036000D01*
X0182600Y0036000D01*
X0182600Y0037600D01*
X0181000Y0037600D01*
X0181000Y0047830D01*
X0179946Y0047711D01*
X0178736Y0047435D01*
X0177565Y0047025D01*
X0176446Y0046486D01*
X0175396Y0045826D01*
X0174425Y0045052D01*
X0173548Y0044175D01*
X0172774Y0043204D01*
X0172114Y0042154D01*
X0171575Y0041035D01*
X0171165Y0039864D01*
X0170889Y0038654D01*
X0170770Y0037600D01*
X0181000Y0037600D01*
X0181000Y0038566D02*
X0182600Y0038566D01*
X0182600Y0037600D02*
X0182600Y0047830D01*
X0183654Y0047711D01*
X0184864Y0047435D01*
X0186035Y0047025D01*
X0187154Y0046486D01*
X0188204Y0045826D01*
X0189175Y0045052D01*
X0190052Y0044175D01*
X0190826Y0043204D01*
X0191486Y0042154D01*
X0192025Y0041035D01*
X0192435Y0039864D01*
X0192711Y0038654D01*
X0192830Y0037600D01*
X0182600Y0037600D01*
X0182600Y0036967D02*
X0210172Y0036967D01*
X0209967Y0037235D02*
X0210622Y0036382D01*
X0211382Y0035622D01*
X0212235Y0034967D01*
X0213165Y0034430D01*
X0214159Y0034019D01*
X0215197Y0033740D01*
X0216263Y0033600D01*
X0216600Y0033600D01*
X0216600Y0041600D01*
X0208600Y0041600D01*
X0208600Y0041263D01*
X0208740Y0040197D01*
X0209019Y0039159D01*
X0209430Y0038165D01*
X0209967Y0037235D01*
X0209264Y0038566D02*
X0192721Y0038566D01*
X0192330Y0040164D02*
X0208749Y0040164D01*
X0208600Y0042000D02*
X0216600Y0042000D01*
X0216600Y0050000D01*
X0216263Y0050000D01*
X0215197Y0049860D01*
X0214159Y0049581D01*
X0213165Y0049170D01*
X0212235Y0048633D01*
X0211382Y0047978D01*
X0210622Y0047218D01*
X0209967Y0046365D01*
X0209430Y0045435D01*
X0209019Y0044441D01*
X0208740Y0043403D01*
X0208600Y0042337D01*
X0208600Y0042000D01*
X0208735Y0043361D02*
X0190701Y0043361D01*
X0191675Y0041763D02*
X0216600Y0041763D01*
X0216600Y0041600D02*
X0216600Y0042000D01*
X0217000Y0042000D01*
X0217000Y0050000D01*
X0217337Y0050000D01*
X0218403Y0049860D01*
X0219441Y0049581D01*
X0220435Y0049170D01*
X0221365Y0048633D01*
X0222218Y0047978D01*
X0222978Y0047218D01*
X0223633Y0046365D01*
X0224170Y0045435D01*
X0224581Y0044441D01*
X0224860Y0043403D01*
X0225000Y0042337D01*
X0225000Y0042000D01*
X0217000Y0042000D01*
X0217000Y0041600D01*
X0225000Y0041600D01*
X0225000Y0041263D01*
X0224860Y0040197D01*
X0224581Y0039159D01*
X0224170Y0038165D01*
X0223633Y0037235D01*
X0222978Y0036382D01*
X0222218Y0035622D01*
X0221365Y0034967D01*
X0220435Y0034430D01*
X0219441Y0034019D01*
X0218403Y0033740D01*
X0217337Y0033600D01*
X0217000Y0033600D01*
X0217000Y0041600D01*
X0216600Y0041600D01*
X0217000Y0041763D02*
X0280399Y0041763D01*
X0279725Y0043361D02*
X0281997Y0043361D01*
X0281324Y0044960D02*
X0283596Y0044960D01*
X0282922Y0046558D02*
X0285194Y0046558D01*
X0284521Y0048157D02*
X0286793Y0048157D01*
X0286119Y0049755D02*
X0288391Y0049755D01*
X0279785Y0056149D02*
X0271600Y0056149D01*
X0271600Y0055845D02*
X0270869Y0054081D01*
X0269519Y0052731D01*
X0267755Y0052000D01*
X0265845Y0052000D01*
X0264081Y0052731D01*
X0262731Y0054081D01*
X0262000Y0055845D01*
X0262000Y0057755D01*
X0262731Y0059519D01*
X0264081Y0060869D01*
X0265845Y0061600D01*
X0267755Y0061600D01*
X0269519Y0060869D01*
X0270869Y0059519D01*
X0271600Y0057755D01*
X0271600Y0055845D01*
X0271064Y0054551D02*
X0278187Y0054551D01*
X0276588Y0052952D02*
X0269741Y0052952D01*
X0274990Y0051354D02*
X0258610Y0051354D01*
X0257012Y0052952D02*
X0263859Y0052952D01*
X0262536Y0054551D02*
X0255413Y0054551D01*
X0253815Y0056149D02*
X0262000Y0056149D01*
X0262000Y0057748D02*
X0252216Y0057748D01*
X0250618Y0059346D02*
X0262659Y0059346D01*
X0264264Y0060945D02*
X0249019Y0060945D01*
X0247421Y0062543D02*
X0264533Y0062543D01*
X0264081Y0062731D02*
X0265845Y0062000D01*
X0267755Y0062000D01*
X0269519Y0062731D01*
X0270869Y0064081D01*
X0271600Y0065845D01*
X0271600Y0067755D01*
X0270869Y0069519D01*
X0269519Y0070869D01*
X0267755Y0071600D01*
X0265845Y0071600D01*
X0264081Y0070869D01*
X0262731Y0069519D01*
X0262000Y0067755D01*
X0262000Y0065845D01*
X0262731Y0064081D01*
X0264081Y0062731D01*
X0262706Y0064142D02*
X0245822Y0064142D01*
X0244223Y0065740D02*
X0262043Y0065740D01*
X0262000Y0067339D02*
X0242625Y0067339D01*
X0241026Y0068937D02*
X0262490Y0068937D01*
X0263748Y0070536D02*
X0239428Y0070536D01*
X0237829Y0072134D02*
X0265520Y0072134D01*
X0265845Y0072000D02*
X0264081Y0072731D01*
X0262731Y0074081D01*
X0262000Y0075845D01*
X0262000Y0077755D01*
X0262731Y0079519D01*
X0264081Y0080869D01*
X0265845Y0081600D01*
X0267755Y0081600D01*
X0269519Y0080869D01*
X0270869Y0079519D01*
X0271600Y0077755D01*
X0271600Y0075845D01*
X0270869Y0074081D01*
X0269519Y0072731D01*
X0267755Y0072000D01*
X0265845Y0072000D01*
X0268079Y0072134D02*
X0287078Y0072134D01*
X0286800Y0073733D02*
X0270521Y0073733D01*
X0271387Y0075332D02*
X0286800Y0075332D01*
X0286800Y0076930D02*
X0271600Y0076930D01*
X0271279Y0078529D02*
X0286800Y0078529D01*
X0286800Y0080127D02*
X0270261Y0080127D01*
X0263339Y0080127D02*
X0192348Y0080127D01*
X0192097Y0081065D02*
X0190642Y0083585D01*
X0188585Y0085642D01*
X0186065Y0087097D01*
X0183255Y0087850D01*
X0180345Y0087850D01*
X0177535Y0087097D01*
X0175015Y0085642D01*
X0172958Y0083585D01*
X0171503Y0081065D01*
X0170750Y0078255D01*
X0170750Y0075345D01*
X0171503Y0072535D01*
X0172958Y0070015D01*
X0175015Y0067958D01*
X0177535Y0066503D01*
X0180345Y0065750D01*
X0183255Y0065750D01*
X0186065Y0066503D01*
X0188585Y0067958D01*
X0190642Y0070015D01*
X0192097Y0072535D01*
X0192850Y0075345D01*
X0192850Y0078255D01*
X0192097Y0081065D01*
X0191716Y0081726D02*
X0287186Y0081726D01*
X0288253Y0083324D02*
X0190793Y0083324D01*
X0189304Y0084923D02*
X0300397Y0084923D01*
X0301996Y0086521D02*
X0187063Y0086521D01*
X0176537Y0086521D02*
X0106800Y0086521D01*
X0106800Y0084923D02*
X0174296Y0084923D01*
X0172807Y0083324D02*
X0106800Y0083324D01*
X0106800Y0081726D02*
X0171884Y0081726D01*
X0171252Y0080127D02*
X0106800Y0080127D01*
X0106800Y0078529D02*
X0141932Y0078529D01*
X0142155Y0078752D02*
X0139848Y0076445D01*
X0138600Y0073431D01*
X0138600Y0070169D01*
X0139848Y0067155D01*
X0142155Y0064848D01*
X0145169Y0063600D01*
X0148431Y0063600D01*
X0151445Y0064848D01*
X0153752Y0067155D01*
X0155000Y0070169D01*
X0155000Y0073431D01*
X0153752Y0076445D01*
X0151445Y0078752D01*
X0148431Y0080000D01*
X0145169Y0080000D01*
X0142155Y0078752D01*
X0140333Y0076930D02*
X0106800Y0076930D01*
X0106800Y0075332D02*
X0139387Y0075332D01*
X0138725Y0073733D02*
X0106800Y0073733D01*
X0106800Y0072134D02*
X0138600Y0072134D01*
X0138600Y0070536D02*
X0106800Y0070536D01*
X0106800Y0068937D02*
X0139110Y0068937D01*
X0139772Y0067339D02*
X0106800Y0067339D01*
X0106800Y0065740D02*
X0141263Y0065740D01*
X0143861Y0064142D02*
X0106800Y0064142D01*
X0106800Y0062543D02*
X0234693Y0062543D01*
X0236291Y0060945D02*
X0106800Y0060945D01*
X0106800Y0059346D02*
X0237890Y0059346D01*
X0239488Y0057748D02*
X0106800Y0057748D01*
X0106800Y0056149D02*
X0241087Y0056149D01*
X0242685Y0054551D02*
X0106800Y0054551D01*
X0106800Y0052952D02*
X0244284Y0052952D01*
X0245882Y0051354D02*
X0106800Y0051354D01*
X0106800Y0049755D02*
X0144807Y0049755D01*
X0146600Y0049755D02*
X0147000Y0049755D01*
X0147000Y0050000D02*
X0147000Y0042000D01*
X0155000Y0042000D01*
X0155000Y0042337D01*
X0154860Y0043403D01*
X0154581Y0044441D01*
X0154170Y0045435D01*
X0153633Y0046365D01*
X0152978Y0047218D01*
X0152218Y0047978D01*
X0151365Y0048633D01*
X0150435Y0049170D01*
X0149441Y0049581D01*
X0148403Y0049860D01*
X0147337Y0050000D01*
X0147000Y0050000D01*
X0148793Y0049755D02*
X0214807Y0049755D01*
X0216600Y0049755D02*
X0217000Y0049755D01*
X0217000Y0048157D02*
X0216600Y0048157D01*
X0216600Y0046558D02*
X0217000Y0046558D01*
X0217000Y0044960D02*
X0216600Y0044960D01*
X0216600Y0043361D02*
X0217000Y0043361D01*
X0217000Y0040164D02*
X0216600Y0040164D01*
X0216600Y0038566D02*
X0217000Y0038566D01*
X0217000Y0036967D02*
X0216600Y0036967D01*
X0216600Y0035369D02*
X0217000Y0035369D01*
X0217000Y0033770D02*
X0216600Y0033770D01*
X0215085Y0033770D02*
X0192443Y0033770D01*
X0192435Y0033736D02*
X0192711Y0034946D01*
X0192830Y0036000D01*
X0182600Y0036000D01*
X0182600Y0025770D01*
X0183654Y0025889D01*
X0184864Y0026165D01*
X0186035Y0026575D01*
X0187154Y0027114D01*
X0188204Y0027774D01*
X0189175Y0028548D01*
X0190052Y0029425D01*
X0190826Y0030396D01*
X0191486Y0031446D01*
X0192025Y0032565D01*
X0192435Y0033736D01*
X0192759Y0035369D02*
X0211711Y0035369D01*
X0218515Y0033770D02*
X0272406Y0033770D01*
X0270808Y0032172D02*
X0191836Y0032172D01*
X0190938Y0030573D02*
X0269209Y0030573D01*
X0267781Y0028975D02*
X0189602Y0028975D01*
X0187571Y0027376D02*
X0267217Y0027376D01*
X0267217Y0025778D02*
X0182666Y0025778D01*
X0182600Y0025778D02*
X0181000Y0025778D01*
X0180934Y0025778D02*
X0135760Y0025778D01*
X0136189Y0024179D02*
X0266598Y0024179D01*
X0265458Y0022581D02*
X0136399Y0022581D01*
X0136399Y0020982D02*
X0264796Y0020982D01*
X0264717Y0019384D02*
X0136179Y0019384D01*
X0135750Y0017785D02*
X0264808Y0017785D01*
X0265471Y0016187D02*
X0135030Y0016187D01*
X0134107Y0014588D02*
X0266628Y0014588D01*
X0268897Y0012990D02*
X0132600Y0012990D01*
X0130470Y0011391D02*
X0473130Y0011391D01*
X0471000Y0012990D02*
X0334536Y0012990D01*
X0335682Y0013464D02*
X0337651Y0015433D01*
X0338717Y0018006D01*
X0338717Y0020791D01*
X0337651Y0023364D01*
X0335682Y0025333D01*
X0333109Y0026398D01*
X0330325Y0026398D01*
X0327752Y0025333D01*
X0325783Y0023364D01*
X0324717Y0020791D01*
X0324717Y0018006D01*
X0325783Y0015433D01*
X0327752Y0013464D01*
X0330325Y0012398D01*
X0333109Y0012398D01*
X0335682Y0013464D01*
X0336806Y0014588D02*
X0469493Y0014588D01*
X0468570Y0016187D02*
X0337963Y0016187D01*
X0338625Y0017785D02*
X0467850Y0017785D01*
X0467421Y0019384D02*
X0338717Y0019384D01*
X0338638Y0020982D02*
X0467201Y0020982D01*
X0467201Y0022581D02*
X0337976Y0022581D01*
X0336836Y0024179D02*
X0467411Y0024179D01*
X0467840Y0025778D02*
X0417666Y0025778D01*
X0417600Y0025778D02*
X0416000Y0025778D01*
X0415934Y0025778D02*
X0334608Y0025778D01*
X0328826Y0025778D02*
X0314608Y0025778D01*
X0314820Y0025690D02*
X0313972Y0026041D01*
X0313085Y0026279D01*
X0312196Y0026396D01*
X0312196Y0019878D01*
X0311237Y0019878D01*
X0311237Y0018919D01*
X0304720Y0018919D01*
X0304837Y0018030D01*
X0305074Y0017144D01*
X0305425Y0016296D01*
X0305884Y0015501D01*
X0306443Y0014773D01*
X0307092Y0014124D01*
X0307820Y0013566D01*
X0308614Y0013107D01*
X0309462Y0012756D01*
X0310348Y0012518D01*
X0311237Y0012401D01*
X0311237Y0018919D01*
X0312196Y0018919D01*
X0312196Y0012401D01*
X0313085Y0012518D01*
X0313972Y0012756D01*
X0314820Y0013107D01*
X0315614Y0013566D01*
X0316342Y0014124D01*
X0316991Y0014773D01*
X0317550Y0015501D01*
X0318009Y0016296D01*
X0318360Y0017144D01*
X0318597Y0018030D01*
X0318714Y0018919D01*
X0312197Y0018919D01*
X0312197Y0019878D01*
X0318714Y0019878D01*
X0318597Y0020767D01*
X0318360Y0021653D01*
X0318009Y0022501D01*
X0317550Y0023296D01*
X0316991Y0024024D01*
X0316342Y0024673D01*
X0315614Y0025231D01*
X0314820Y0025690D01*
X0316836Y0024179D02*
X0326598Y0024179D01*
X0325458Y0022581D02*
X0317963Y0022581D01*
X0318540Y0020982D02*
X0324796Y0020982D01*
X0324717Y0019384D02*
X0312197Y0019384D01*
X0311237Y0019384D02*
X0292197Y0019384D01*
X0292197Y0018919D02*
X0292197Y0019878D01*
X0298714Y0019878D01*
X0298597Y0020767D01*
X0298360Y0021653D01*
X0298009Y0022501D01*
X0297550Y0023296D01*
X0296991Y0024024D01*
X0296342Y0024673D01*
X0295614Y0025231D01*
X0294820Y0025690D01*
X0293972Y0026041D01*
X0293085Y0026279D01*
X0292196Y0026396D01*
X0292196Y0019878D01*
X0291237Y0019878D01*
X0291237Y0018919D01*
X0284720Y0018919D01*
X0284837Y0018030D01*
X0285074Y0017144D01*
X0285425Y0016296D01*
X0285884Y0015501D01*
X0286443Y0014773D01*
X0287092Y0014124D01*
X0287820Y0013566D01*
X0288614Y0013107D01*
X0289462Y0012756D01*
X0290348Y0012518D01*
X0291237Y0012401D01*
X0291237Y0018919D01*
X0292196Y0018919D01*
X0292196Y0012401D01*
X0293085Y0012518D01*
X0293972Y0012756D01*
X0294820Y0013107D01*
X0295614Y0013566D01*
X0296342Y0014124D01*
X0296991Y0014773D01*
X0297550Y0015501D01*
X0298009Y0016296D01*
X0298360Y0017144D01*
X0298597Y0018030D01*
X0298714Y0018919D01*
X0292197Y0018919D01*
X0291237Y0019384D02*
X0278717Y0019384D01*
X0278638Y0020982D02*
X0284894Y0020982D01*
X0284837Y0020767D02*
X0284720Y0019878D01*
X0291237Y0019878D01*
X0291237Y0026396D01*
X0290348Y0026279D01*
X0289462Y0026041D01*
X0288614Y0025690D01*
X0287820Y0025231D01*
X0287092Y0024673D01*
X0286443Y0024024D01*
X0285884Y0023296D01*
X0285425Y0022501D01*
X0285074Y0021653D01*
X0284837Y0020767D01*
X0285471Y0022581D02*
X0277976Y0022581D01*
X0276836Y0024179D02*
X0286598Y0024179D01*
X0288826Y0025778D02*
X0277142Y0025778D01*
X0278740Y0027376D02*
X0411028Y0027376D01*
X0408998Y0028975D02*
X0280339Y0028975D01*
X0281937Y0030573D02*
X0407662Y0030573D01*
X0406764Y0032172D02*
X0283536Y0032172D01*
X0277202Y0038566D02*
X0224336Y0038566D01*
X0224851Y0040164D02*
X0278800Y0040164D01*
X0275603Y0036967D02*
X0223428Y0036967D01*
X0221889Y0035369D02*
X0274005Y0035369D01*
X0291237Y0025778D02*
X0292196Y0025778D01*
X0292196Y0024179D02*
X0291237Y0024179D01*
X0291237Y0022581D02*
X0292196Y0022581D01*
X0292196Y0020982D02*
X0291237Y0020982D01*
X0291237Y0017785D02*
X0292196Y0017785D01*
X0292196Y0016187D02*
X0291237Y0016187D01*
X0291237Y0014588D02*
X0292196Y0014588D01*
X0292196Y0012990D02*
X0291237Y0012990D01*
X0288897Y0012990D02*
X0274536Y0012990D01*
X0276806Y0014588D02*
X0286628Y0014588D01*
X0285488Y0016187D02*
X0277963Y0016187D01*
X0278625Y0017785D02*
X0284902Y0017785D01*
X0294536Y0012990D02*
X0308897Y0012990D01*
X0311237Y0012990D02*
X0312196Y0012990D01*
X0312196Y0014588D02*
X0311237Y0014588D01*
X0311237Y0016187D02*
X0312196Y0016187D01*
X0312196Y0017785D02*
X0311237Y0017785D01*
X0311237Y0019878D02*
X0304720Y0019878D01*
X0304837Y0020767D01*
X0305074Y0021653D01*
X0305425Y0022501D01*
X0305884Y0023296D01*
X0306443Y0024024D01*
X0307092Y0024673D01*
X0307820Y0025231D01*
X0308614Y0025690D01*
X0309462Y0026041D01*
X0310348Y0026279D01*
X0311237Y0026396D01*
X0311237Y0019878D01*
X0311237Y0020982D02*
X0312196Y0020982D01*
X0312196Y0022581D02*
X0311237Y0022581D01*
X0311237Y0024179D02*
X0312196Y0024179D01*
X0312196Y0025778D02*
X0311237Y0025778D01*
X0308826Y0025778D02*
X0294608Y0025778D01*
X0296836Y0024179D02*
X0306598Y0024179D01*
X0305471Y0022581D02*
X0297963Y0022581D01*
X0298540Y0020982D02*
X0304894Y0020982D01*
X0304902Y0017785D02*
X0298532Y0017785D01*
X0297945Y0016187D02*
X0305488Y0016187D01*
X0306628Y0014588D02*
X0296806Y0014588D01*
X0314536Y0012990D02*
X0328897Y0012990D01*
X0326628Y0014588D02*
X0316806Y0014588D01*
X0317945Y0016187D02*
X0325471Y0016187D01*
X0324808Y0017785D02*
X0318532Y0017785D01*
X0299725Y0043361D02*
X0373735Y0043361D01*
X0374233Y0044960D02*
X0301324Y0044960D01*
X0302922Y0046558D02*
X0375115Y0046558D01*
X0376614Y0048157D02*
X0304521Y0048157D01*
X0305824Y0049755D02*
X0308774Y0049755D01*
X0307401Y0051354D02*
X0306300Y0051354D01*
X0306300Y0052952D02*
X0306800Y0052952D01*
X0306800Y0054551D02*
X0306300Y0054551D01*
X0306300Y0056149D02*
X0306800Y0056149D01*
X0306800Y0057748D02*
X0306300Y0057748D01*
X0306300Y0059346D02*
X0306800Y0059346D01*
X0306862Y0060945D02*
X0306300Y0060945D01*
X0306300Y0062543D02*
X0307524Y0062543D01*
X0306300Y0064142D02*
X0309217Y0064142D01*
X0306300Y0065740D02*
X0332043Y0065740D01*
X0332000Y0067339D02*
X0306300Y0067339D01*
X0306300Y0068937D02*
X0310474Y0068937D01*
X0313126Y0068937D02*
X0332490Y0068937D01*
X0333748Y0070536D02*
X0315607Y0070536D01*
X0316522Y0072134D02*
X0335520Y0072134D01*
X0330842Y0073733D02*
X0316800Y0073733D01*
X0307993Y0070536D02*
X0306900Y0070536D01*
X0297300Y0070536D02*
X0295607Y0070536D01*
X0296522Y0072134D02*
X0297300Y0072134D01*
X0297300Y0068937D02*
X0293126Y0068937D01*
X0290474Y0068937D02*
X0271110Y0068937D01*
X0271600Y0067339D02*
X0297300Y0067339D01*
X0297300Y0065740D02*
X0271557Y0065740D01*
X0270894Y0064142D02*
X0289217Y0064142D01*
X0287524Y0062543D02*
X0269067Y0062543D01*
X0269336Y0060945D02*
X0285048Y0060945D01*
X0282982Y0059346D02*
X0270941Y0059346D01*
X0271600Y0057748D02*
X0281384Y0057748D01*
X0294383Y0064142D02*
X0297300Y0064142D01*
X0297300Y0062543D02*
X0296076Y0062543D01*
X0296738Y0060945D02*
X0297300Y0060945D01*
X0297300Y0059346D02*
X0296800Y0059346D01*
X0296800Y0057748D02*
X0297300Y0057748D01*
X0297300Y0056149D02*
X0296800Y0056149D01*
X0296800Y0054551D02*
X0297300Y0054551D01*
X0316800Y0054551D02*
X0332536Y0054551D01*
X0332000Y0056149D02*
X0316800Y0056149D01*
X0316800Y0057748D02*
X0332000Y0057748D01*
X0332659Y0059346D02*
X0316800Y0059346D01*
X0316738Y0060945D02*
X0334264Y0060945D01*
X0334533Y0062543D02*
X0316076Y0062543D01*
X0314383Y0064142D02*
X0332706Y0064142D01*
X0333859Y0052952D02*
X0316800Y0052952D01*
X0287993Y0070536D02*
X0269852Y0070536D01*
X0263079Y0073733D02*
X0236231Y0073733D01*
X0234632Y0075332D02*
X0262213Y0075332D01*
X0262000Y0076930D02*
X0223266Y0076930D01*
X0221668Y0078529D02*
X0262321Y0078529D01*
X0265845Y0092000D02*
X0264081Y0092731D01*
X0262731Y0094081D01*
X0262000Y0095845D01*
X0262000Y0097755D01*
X0262731Y0099519D01*
X0264081Y0100869D01*
X0265845Y0101600D01*
X0267755Y0101600D01*
X0269519Y0100869D01*
X0270869Y0099519D01*
X0271600Y0097755D01*
X0271600Y0095845D01*
X0270869Y0094081D01*
X0269519Y0092731D01*
X0267755Y0092000D01*
X0265845Y0092000D01*
X0263897Y0092915D02*
X0106800Y0092915D01*
X0106800Y0091317D02*
X0287417Y0091317D01*
X0286800Y0092915D02*
X0269703Y0092915D01*
X0271048Y0094514D02*
X0286800Y0094514D01*
X0286800Y0096112D02*
X0271600Y0096112D01*
X0271600Y0097711D02*
X0286800Y0097711D01*
X0286800Y0099309D02*
X0270956Y0099309D01*
X0269426Y0100908D02*
X0286847Y0100908D01*
X0287509Y0102506D02*
X0268977Y0102506D01*
X0264623Y0102506D02*
X0127600Y0102506D01*
X0127600Y0100908D02*
X0264174Y0100908D01*
X0262644Y0099309D02*
X0127046Y0099309D01*
X0125913Y0097711D02*
X0262000Y0097711D01*
X0262000Y0096112D02*
X0123224Y0096112D01*
X0120375Y0096112D02*
X0106800Y0096112D01*
X0106800Y0094514D02*
X0262552Y0094514D01*
X0262721Y0104105D02*
X0127123Y0104105D01*
X0126099Y0105703D02*
X0262059Y0105703D01*
X0262000Y0107302D02*
X0123674Y0107302D01*
X0121064Y0108900D02*
X0262474Y0108900D01*
X0263711Y0110499D02*
X0119465Y0110499D01*
X0116000Y0100908D02*
X0106800Y0100908D01*
X0106800Y0099309D02*
X0116554Y0099309D01*
X0117687Y0097711D02*
X0106800Y0097711D01*
X0106800Y0089718D02*
X0288811Y0089718D01*
X0294789Y0089718D02*
X0305483Y0089718D01*
X0303594Y0088120D02*
X0106800Y0088120D01*
X0149739Y0064142D02*
X0213861Y0064142D01*
X0211263Y0065740D02*
X0152337Y0065740D01*
X0153828Y0067339D02*
X0176087Y0067339D01*
X0174035Y0068937D02*
X0154490Y0068937D01*
X0155000Y0070536D02*
X0172657Y0070536D01*
X0171734Y0072134D02*
X0155000Y0072134D01*
X0154875Y0073733D02*
X0171182Y0073733D01*
X0170754Y0075332D02*
X0154213Y0075332D01*
X0153266Y0076930D02*
X0170750Y0076930D01*
X0170823Y0078529D02*
X0151668Y0078529D01*
X0187513Y0067339D02*
X0209772Y0067339D01*
X0209110Y0068937D02*
X0189565Y0068937D01*
X0190943Y0070536D02*
X0208600Y0070536D01*
X0208600Y0072134D02*
X0191866Y0072134D01*
X0192418Y0073733D02*
X0208725Y0073733D01*
X0209387Y0075332D02*
X0192846Y0075332D01*
X0192850Y0076930D02*
X0210333Y0076930D01*
X0211932Y0078529D02*
X0192777Y0078529D01*
X0219739Y0064142D02*
X0233094Y0064142D01*
X0231496Y0065740D02*
X0222337Y0065740D01*
X0218793Y0049755D02*
X0247481Y0049755D01*
X0249079Y0048157D02*
X0221986Y0048157D01*
X0223485Y0046558D02*
X0250678Y0046558D01*
X0252276Y0044960D02*
X0224367Y0044960D01*
X0224865Y0043361D02*
X0253875Y0043361D01*
X0211614Y0048157D02*
X0151986Y0048157D01*
X0153485Y0046558D02*
X0176596Y0046558D01*
X0174333Y0044960D02*
X0154367Y0044960D01*
X0154865Y0043361D02*
X0172899Y0043361D01*
X0171925Y0041763D02*
X0147000Y0041763D01*
X0146600Y0041763D02*
X0106800Y0041763D01*
X0106800Y0043361D02*
X0138735Y0043361D01*
X0139233Y0044960D02*
X0106800Y0044960D01*
X0106800Y0046558D02*
X0140115Y0046558D01*
X0141614Y0048157D02*
X0106800Y0048157D01*
X0106800Y0040164D02*
X0138749Y0040164D01*
X0139264Y0038566D02*
X0106800Y0038566D01*
X0106800Y0036967D02*
X0140172Y0036967D01*
X0141711Y0035369D02*
X0106800Y0035369D01*
X0130534Y0032172D02*
X0171764Y0032172D01*
X0172662Y0030573D02*
X0132638Y0030573D01*
X0134129Y0028975D02*
X0173998Y0028975D01*
X0176028Y0027376D02*
X0135052Y0027376D01*
X0146600Y0035369D02*
X0147000Y0035369D01*
X0147000Y0036967D02*
X0146600Y0036967D01*
X0146600Y0038566D02*
X0147000Y0038566D01*
X0147000Y0040164D02*
X0146600Y0040164D01*
X0146600Y0043361D02*
X0147000Y0043361D01*
X0147000Y0044960D02*
X0146600Y0044960D01*
X0146600Y0046558D02*
X0147000Y0046558D01*
X0147000Y0048157D02*
X0146600Y0048157D01*
X0154851Y0040164D02*
X0171270Y0040164D01*
X0170879Y0038566D02*
X0154336Y0038566D01*
X0181000Y0040164D02*
X0182600Y0040164D01*
X0182600Y0041763D02*
X0181000Y0041763D01*
X0181000Y0043361D02*
X0182600Y0043361D01*
X0182600Y0044960D02*
X0181000Y0044960D01*
X0181000Y0046558D02*
X0182600Y0046558D01*
X0187004Y0046558D02*
X0210115Y0046558D01*
X0209233Y0044960D02*
X0189267Y0044960D01*
X0182600Y0035369D02*
X0181000Y0035369D01*
X0181000Y0033770D02*
X0182600Y0033770D01*
X0182600Y0032172D02*
X0181000Y0032172D01*
X0181000Y0030573D02*
X0182600Y0030573D01*
X0182600Y0028975D02*
X0181000Y0028975D01*
X0181000Y0027376D02*
X0182600Y0027376D01*
X0106800Y0008194D02*
X0496800Y0008194D01*
X0468548Y0027376D02*
X0422571Y0027376D01*
X0424602Y0028975D02*
X0469471Y0028975D01*
X0470962Y0030573D02*
X0425938Y0030573D01*
X0426836Y0032172D02*
X0473066Y0032172D01*
X0459336Y0038566D02*
X0496800Y0038566D01*
X0496800Y0040164D02*
X0459851Y0040164D01*
X0458428Y0036967D02*
X0496800Y0036967D01*
X0496800Y0035369D02*
X0456889Y0035369D01*
X0452000Y0035369D02*
X0451600Y0035369D01*
X0451600Y0036967D02*
X0452000Y0036967D01*
X0452000Y0038566D02*
X0451600Y0038566D01*
X0451600Y0040164D02*
X0452000Y0040164D01*
X0452000Y0043361D02*
X0451600Y0043361D01*
X0451600Y0044960D02*
X0452000Y0044960D01*
X0452000Y0046558D02*
X0451600Y0046558D01*
X0451600Y0048157D02*
X0452000Y0048157D01*
X0454739Y0064142D02*
X0496800Y0064142D01*
X0496800Y0065740D02*
X0457337Y0065740D01*
X0448861Y0064142D02*
X0384739Y0064142D01*
X0387337Y0065740D02*
X0446263Y0065740D01*
X0458266Y0076930D02*
X0475566Y0076930D01*
X0477165Y0078529D02*
X0456668Y0078529D01*
X0477789Y0067339D02*
X0496800Y0067339D01*
X0496800Y0068937D02*
X0480301Y0068937D01*
X0480615Y0069251D02*
X0480615Y0069251D01*
X0481900Y0070536D02*
X0496800Y0070536D01*
X0496800Y0072134D02*
X0483498Y0072134D01*
X0485097Y0073733D02*
X0496800Y0073733D01*
X0496800Y0075332D02*
X0486695Y0075332D01*
X0488294Y0076930D02*
X0496800Y0076930D01*
X0496800Y0078529D02*
X0489892Y0078529D01*
X0491491Y0080127D02*
X0496800Y0080127D01*
X0496800Y0081726D02*
X0493090Y0081726D01*
X0494688Y0083324D02*
X0496800Y0083324D01*
X0496800Y0084923D02*
X0496287Y0084923D01*
X0417600Y0046558D02*
X0416000Y0046558D01*
X0416000Y0044960D02*
X0417600Y0044960D01*
X0417600Y0043361D02*
X0416000Y0043361D01*
X0416000Y0041763D02*
X0417600Y0041763D01*
X0417600Y0040164D02*
X0416000Y0040164D01*
X0416000Y0038566D02*
X0417600Y0038566D01*
X0417600Y0033770D02*
X0416000Y0033770D01*
X0416000Y0032172D02*
X0417600Y0032172D01*
X0417600Y0030573D02*
X0416000Y0030573D01*
X0416000Y0028975D02*
X0417600Y0028975D01*
X0417600Y0027376D02*
X0416000Y0027376D01*
X0405879Y0038566D02*
X0389336Y0038566D01*
X0389851Y0040164D02*
X0406270Y0040164D01*
X0382000Y0040164D02*
X0381600Y0040164D01*
X0381600Y0038566D02*
X0382000Y0038566D01*
X0382000Y0036967D02*
X0381600Y0036967D01*
X0381600Y0035369D02*
X0382000Y0035369D01*
X0382000Y0043361D02*
X0381600Y0043361D01*
X0381600Y0044960D02*
X0382000Y0044960D01*
X0382000Y0046558D02*
X0381600Y0046558D01*
X0381600Y0048157D02*
X0382000Y0048157D01*
X0307417Y0091317D02*
X0296183Y0091317D01*
X0296800Y0092915D02*
X0306800Y0092915D01*
X0302061Y0094514D02*
X0296800Y0094514D01*
X0296800Y0096112D02*
X0300462Y0096112D01*
X0298864Y0097711D02*
X0296800Y0097711D01*
X0296800Y0099309D02*
X0297265Y0099309D01*
X0288030Y0110499D02*
X0269889Y0110499D01*
X0295347Y0083324D02*
X0298799Y0083324D01*
X0297200Y0081726D02*
X0296414Y0081726D01*
X0316430Y0121688D02*
X0367012Y0121688D01*
X0365745Y0123287D02*
X0315384Y0123287D01*
X0371600Y0123287D02*
X0372000Y0123287D01*
X0372000Y0124885D02*
X0371600Y0124885D01*
X0371600Y0126484D02*
X0372000Y0126484D01*
X0372000Y0128082D02*
X0371600Y0128082D01*
X0371600Y0129681D02*
X0372000Y0129681D01*
X0372000Y0131279D02*
X0371600Y0131279D01*
X0371600Y0132878D02*
X0372000Y0132878D01*
X0372000Y0121688D02*
X0371600Y0121688D01*
X0484032Y0166447D02*
X0496800Y0166447D01*
X0496800Y0168045D02*
X0486248Y0168045D01*
X0487185Y0169644D02*
X0496800Y0169644D01*
X0496800Y0171242D02*
X0487600Y0171242D01*
X0487600Y0172841D02*
X0496800Y0172841D01*
X0496800Y0174439D02*
X0486985Y0174439D01*
X0486300Y0176038D02*
X0496800Y0176038D01*
X0496800Y0177636D02*
X0486300Y0177636D01*
X0486300Y0179235D02*
X0496800Y0179235D01*
X0496800Y0180833D02*
X0486300Y0180833D01*
X0486300Y0182432D02*
X0496800Y0182432D01*
X0496800Y0184030D02*
X0486300Y0184030D01*
X0486300Y0185629D02*
X0496800Y0185629D01*
X0496800Y0187227D02*
X0486300Y0187227D01*
X0486846Y0188826D02*
X0496800Y0188826D01*
X0496800Y0190424D02*
X0487508Y0190424D01*
X0487600Y0192023D02*
X0496800Y0192023D01*
X0496800Y0193621D02*
X0487323Y0193621D01*
X0486583Y0195220D02*
X0496800Y0195220D01*
X0496800Y0196818D02*
X0484841Y0196818D01*
X0424197Y0235183D02*
X0419403Y0235183D01*
X0419519Y0235231D02*
X0420869Y0236581D01*
X0421600Y0238345D01*
X0421600Y0240255D01*
X0420869Y0242019D01*
X0419519Y0243369D01*
X0417755Y0244100D01*
X0415845Y0244100D01*
X0414081Y0243369D01*
X0412731Y0242019D01*
X0412000Y0240255D01*
X0412000Y0238345D01*
X0412731Y0236581D01*
X0414081Y0235231D01*
X0415845Y0234500D01*
X0417755Y0234500D01*
X0419519Y0235231D01*
X0420952Y0236781D02*
X0422648Y0236781D01*
X0422000Y0238380D02*
X0421600Y0238380D01*
X0421600Y0239978D02*
X0422000Y0239978D01*
X0422548Y0241577D02*
X0421052Y0241577D01*
X0419713Y0243175D02*
X0423887Y0243175D01*
X0413887Y0243175D02*
X0409713Y0243175D01*
X0411052Y0241577D02*
X0412548Y0241577D01*
X0412000Y0239978D02*
X0411600Y0239978D01*
X0411600Y0238380D02*
X0412000Y0238380D01*
X0412648Y0236781D02*
X0410952Y0236781D01*
X0409403Y0235183D02*
X0414197Y0235183D01*
X0399003Y0208008D02*
X0372806Y0208008D01*
X0371309Y0206409D02*
X0397695Y0206409D01*
X0487607Y0262357D02*
X0496800Y0262357D01*
X0496800Y0263956D02*
X0487185Y0263956D01*
X0486248Y0265554D02*
X0496800Y0265554D01*
X0496800Y0267153D02*
X0484033Y0267153D01*
X0458664Y0279941D02*
X0444817Y0279941D01*
X0446342Y0281539D02*
X0457207Y0281539D01*
X0456545Y0283138D02*
X0446982Y0283138D01*
X0447097Y0284737D02*
X0456500Y0284737D01*
X0456906Y0286335D02*
X0446711Y0286335D01*
X0445662Y0287934D02*
X0457938Y0287934D01*
X0441800Y0287934D02*
X0441800Y0287934D01*
X0441800Y0286335D02*
X0441800Y0286335D01*
X0441800Y0284737D02*
X0441800Y0284737D01*
X0441800Y0283138D02*
X0441800Y0283138D01*
X0441800Y0281539D02*
X0441800Y0281539D01*
X0441800Y0279941D02*
X0441800Y0279941D01*
X0438783Y0279941D02*
X0416154Y0279941D01*
X0414207Y0281539D02*
X0437258Y0281539D01*
M02*
