G04 EAGLE Gerber X2 export*
%TF.Part,Single*%
%TF.FileFunction,Copper,L1,Top,Mixed*%
%TF.FilePolarity,Positive*%
%TF.GenerationSoftware,Autodesk,EAGLE,9.0.1*%
%TF.CreationDate,2018-08-29T03:15:35Z*%
G75*
%MOMM*%
%FSLAX34Y34*%
%LPD*%
%AMOC8*
5,1,8,0,0,1.08239X$1,22.5*%
G01*
%ADD10R,0.030000X0.480000*%
%ADD11R,0.030000X0.780000*%
%ADD12R,0.030000X0.960000*%
%ADD13R,0.030000X1.140000*%
%ADD14R,0.030000X1.260000*%
%ADD15R,0.030000X1.380000*%
%ADD16R,0.030000X1.500000*%
%ADD17R,0.030000X1.590000*%
%ADD18R,0.030000X1.680000*%
%ADD19R,0.030000X1.770000*%
%ADD20R,0.030000X0.930000*%
%ADD21R,0.030000X0.630000*%
%ADD22R,0.030000X0.900000*%
%ADD23R,0.030000X0.600000*%
%ADD24R,0.030000X0.870000*%
%ADD25R,0.030000X0.540000*%
%ADD26R,0.030000X0.840000*%
%ADD27R,0.030000X0.510000*%
%ADD28R,0.030000X0.450000*%
%ADD29R,0.030000X0.360000*%
%ADD30R,0.030000X0.330000*%
%ADD31R,0.030000X0.300000*%
%ADD32R,0.030000X0.420000*%
%ADD33R,0.030000X0.390000*%
%ADD34R,0.030000X0.750000*%
%ADD35R,0.030000X0.690000*%
%ADD36R,0.030000X0.660000*%
%ADD37R,0.030000X0.570000*%
%ADD38R,0.030000X0.720000*%
%ADD39R,0.030000X1.050000*%
%ADD40R,0.030000X0.810000*%
%ADD41R,0.030000X1.200000*%
%ADD42R,0.030000X1.080000*%
%ADD43R,0.030000X1.020000*%
%ADD44R,0.030000X1.290000*%
%ADD45R,0.030000X1.170000*%
%ADD46R,0.030000X0.990000*%
%ADD47R,0.030000X1.350000*%
%ADD48R,0.030000X1.230000*%
%ADD49R,0.030000X1.110000*%
%ADD50R,0.030000X1.410000*%
%ADD51R,0.030000X1.320000*%
%ADD52R,0.030000X1.470000*%
%ADD53R,0.030000X0.270000*%
%ADD54R,0.030000X0.180000*%
%ADD55R,0.030000X0.240000*%
%ADD56R,0.030000X0.120000*%
%ADD57R,0.030000X0.150000*%
%ADD58R,0.030000X1.740000*%
%ADD59R,0.030000X1.440000*%
%ADD60R,0.030000X1.890000*%
%ADD61R,0.030000X1.710000*%
%ADD62R,0.030000X0.210000*%
%ADD63R,0.030000X1.650000*%
%ADD64R,2.700000X1.600000*%
%ADD65R,1.500000X1.300000*%
%ADD66C,3.810000*%
%ADD67P,4.123906X8X112.500000*%
%ADD68R,1.100000X1.000000*%
%ADD69P,1.732040X8X112.500000*%
%ADD70C,1.600200*%
%ADD71R,1.300000X1.500000*%
%ADD72R,0.965200X0.381000*%
%ADD73R,0.381000X0.965200*%
%ADD74R,2.692400X2.692400*%
%ADD75C,2.540000*%
%ADD76R,1.000000X1.100000*%
%ADD77C,1.930400*%
%ADD78P,2.089446X8X112.500000*%
%ADD79P,2.364373X8X22.500000*%
%ADD80P,1.814519X8X202.500000*%
%ADD81P,2.336880X8X292.500000*%
%ADD82P,1.732040X8X22.500000*%
%ADD83P,1.924489X8X292.500000*%
%ADD84P,1.924489X8X202.500000*%
%ADD85P,3.409096X8X22.500000*%
%ADD86P,1.319650X8X22.500000*%
%ADD87P,2.749271X8X202.500000*%
%ADD88P,1.319650X8X202.500000*%
%ADD89C,2.000000*%
%ADD90C,0.203200*%
%ADD91C,0.304800*%
%ADD92C,1.270000*%
%ADD93C,0.609600*%
%ADD94C,0.406400*%
%ADD95C,4.216000*%
%ADD96C,0.254000*%
%ADD97C,0.904800*%

G36*
X647950Y494885D02*
X647950Y494885D01*
X647976Y494883D01*
X648123Y494905D01*
X648270Y494922D01*
X648294Y494930D01*
X648320Y494934D01*
X648458Y494989D01*
X648598Y495039D01*
X648620Y495053D01*
X648644Y495063D01*
X648766Y495147D01*
X648891Y495228D01*
X648909Y495247D01*
X648930Y495262D01*
X649030Y495372D01*
X649133Y495479D01*
X649146Y495501D01*
X649164Y495521D01*
X649236Y495651D01*
X649312Y495778D01*
X649320Y495803D01*
X649332Y495826D01*
X649373Y495969D01*
X649418Y496110D01*
X649420Y496136D01*
X649427Y496161D01*
X649447Y496405D01*
X649447Y548132D01*
X649444Y548158D01*
X649446Y548184D01*
X649424Y548331D01*
X649407Y548478D01*
X649398Y548503D01*
X649394Y548529D01*
X649339Y548667D01*
X649289Y548806D01*
X649275Y548828D01*
X649266Y548853D01*
X649181Y548974D01*
X649100Y549099D01*
X649082Y549117D01*
X649067Y549139D01*
X648957Y549238D01*
X648850Y549341D01*
X648827Y549355D01*
X648808Y549372D01*
X648678Y549444D01*
X648551Y549520D01*
X648526Y549528D01*
X648503Y549541D01*
X648360Y549581D01*
X648219Y549626D01*
X648193Y549628D01*
X648167Y549636D01*
X647924Y549655D01*
X496151Y549655D01*
X493770Y552036D01*
X493770Y562737D01*
X493767Y562763D01*
X493769Y562789D01*
X493747Y562936D01*
X493730Y563083D01*
X493722Y563108D01*
X493718Y563134D01*
X493663Y563272D01*
X493613Y563411D01*
X493599Y563433D01*
X493589Y563458D01*
X493504Y563579D01*
X493424Y563704D01*
X493405Y563722D01*
X493390Y563744D01*
X493280Y563843D01*
X493173Y563946D01*
X493151Y563960D01*
X493131Y563977D01*
X493001Y564049D01*
X492874Y564125D01*
X492849Y564133D01*
X492826Y564146D01*
X492683Y564186D01*
X492542Y564231D01*
X492516Y564233D01*
X492491Y564241D01*
X492247Y564260D01*
X487896Y564260D01*
X485515Y566641D01*
X485515Y583979D01*
X487896Y586360D01*
X492247Y586360D01*
X492273Y586363D01*
X492299Y586361D01*
X492446Y586383D01*
X492593Y586400D01*
X492618Y586408D01*
X492644Y586412D01*
X492782Y586467D01*
X492921Y586517D01*
X492943Y586531D01*
X492968Y586541D01*
X493089Y586626D01*
X493214Y586706D01*
X493232Y586725D01*
X493254Y586740D01*
X493353Y586850D01*
X493456Y586957D01*
X493470Y586979D01*
X493487Y586999D01*
X493559Y587129D01*
X493635Y587256D01*
X493643Y587281D01*
X493656Y587304D01*
X493696Y587447D01*
X493741Y587588D01*
X493743Y587614D01*
X493751Y587639D01*
X493770Y587883D01*
X493770Y590689D01*
X493789Y590754D01*
X493794Y590815D01*
X493801Y590849D01*
X493800Y590897D01*
X493808Y590998D01*
X493808Y616814D01*
X493805Y616840D01*
X493807Y616866D01*
X493785Y617013D01*
X493768Y617160D01*
X493760Y617184D01*
X493756Y617210D01*
X493701Y617348D01*
X493651Y617488D01*
X493637Y617510D01*
X493627Y617534D01*
X493543Y617656D01*
X493462Y617781D01*
X493443Y617799D01*
X493428Y617820D01*
X493318Y617920D01*
X493211Y618023D01*
X493189Y618036D01*
X493169Y618054D01*
X493039Y618126D01*
X492912Y618202D01*
X492887Y618210D01*
X492864Y618222D01*
X492721Y618263D01*
X492580Y618308D01*
X492554Y618310D01*
X492529Y618317D01*
X492285Y618337D01*
X487042Y618337D01*
X485553Y619825D01*
X485553Y631582D01*
X487042Y633070D01*
X492957Y633070D01*
X494445Y631582D01*
X494445Y620497D01*
X494448Y620470D01*
X494446Y620444D01*
X494468Y620298D01*
X494485Y620150D01*
X494494Y620126D01*
X494497Y620100D01*
X494552Y619962D01*
X494602Y619822D01*
X494616Y619800D01*
X494626Y619776D01*
X494711Y619654D01*
X494791Y619529D01*
X494810Y619511D01*
X494825Y619490D01*
X494935Y619391D01*
X495042Y619287D01*
X495064Y619274D01*
X495084Y619256D01*
X495214Y619184D01*
X495341Y619108D01*
X495366Y619100D01*
X495389Y619088D01*
X495532Y619047D01*
X495673Y619002D01*
X495699Y619000D01*
X495724Y618993D01*
X495968Y618973D01*
X507054Y618973D01*
X508542Y617485D01*
X508542Y612036D01*
X508553Y611936D01*
X508555Y611836D01*
X508573Y611764D01*
X508582Y611690D01*
X508616Y611595D01*
X508640Y611498D01*
X508674Y611432D01*
X508699Y611362D01*
X508754Y611277D01*
X508800Y611188D01*
X508848Y611131D01*
X508888Y611069D01*
X508960Y610999D01*
X509026Y610923D01*
X509085Y610878D01*
X509139Y610827D01*
X509225Y610775D01*
X509306Y610716D01*
X509374Y610686D01*
X509438Y610648D01*
X509534Y610617D01*
X509626Y610578D01*
X509699Y610564D01*
X509770Y610542D01*
X509870Y610534D01*
X509969Y610516D01*
X510043Y610520D01*
X510117Y610514D01*
X510217Y610529D01*
X510317Y610534D01*
X510388Y610554D01*
X510462Y610565D01*
X510555Y610603D01*
X510652Y610630D01*
X510717Y610667D01*
X510786Y610694D01*
X510868Y610751D01*
X510956Y610800D01*
X511032Y610866D01*
X511072Y610893D01*
X511096Y610920D01*
X511142Y610959D01*
X512159Y611976D01*
X513660Y613477D01*
X515340Y614173D01*
X516281Y614173D01*
X516307Y614176D01*
X516333Y614174D01*
X516480Y614196D01*
X516627Y614213D01*
X516652Y614221D01*
X516678Y614225D01*
X516816Y614280D01*
X516955Y614330D01*
X516978Y614344D01*
X517002Y614354D01*
X517123Y614439D01*
X517248Y614519D01*
X517267Y614538D01*
X517288Y614553D01*
X517387Y614663D01*
X517490Y614770D01*
X517504Y614792D01*
X517521Y614812D01*
X517593Y614942D01*
X517669Y615069D01*
X517677Y615094D01*
X517690Y615117D01*
X517730Y615260D01*
X517775Y615401D01*
X517778Y615427D01*
X517785Y615452D01*
X517804Y615696D01*
X517804Y618626D01*
X519293Y620114D01*
X523883Y620114D01*
X523909Y620117D01*
X523935Y620115D01*
X524082Y620137D01*
X524229Y620154D01*
X524254Y620163D01*
X524280Y620167D01*
X524418Y620222D01*
X524557Y620272D01*
X524580Y620286D01*
X524604Y620296D01*
X524725Y620380D01*
X524850Y620461D01*
X524869Y620480D01*
X524890Y620495D01*
X524989Y620604D01*
X525092Y620711D01*
X525106Y620734D01*
X525123Y620753D01*
X525195Y620883D01*
X525271Y621010D01*
X525279Y621035D01*
X525292Y621058D01*
X525332Y621201D01*
X525377Y621342D01*
X525380Y621369D01*
X525387Y621394D01*
X525406Y621638D01*
X525406Y628110D01*
X525403Y628136D01*
X525405Y628162D01*
X525383Y628309D01*
X525366Y628456D01*
X525358Y628480D01*
X525354Y628506D01*
X525299Y628644D01*
X525249Y628784D01*
X525235Y628806D01*
X525225Y628830D01*
X525141Y628952D01*
X525060Y629077D01*
X525041Y629095D01*
X525026Y629116D01*
X524916Y629216D01*
X524809Y629319D01*
X524787Y629332D01*
X524767Y629350D01*
X524637Y629422D01*
X524510Y629498D01*
X524485Y629506D01*
X524462Y629518D01*
X524319Y629559D01*
X524178Y629604D01*
X524152Y629606D01*
X524127Y629613D01*
X523883Y629633D01*
X523443Y629633D01*
X521954Y631121D01*
X521954Y648226D01*
X523443Y649714D01*
X538548Y649714D01*
X540036Y648226D01*
X540036Y631121D01*
X538548Y629633D01*
X538107Y629633D01*
X538081Y629630D01*
X538055Y629632D01*
X537908Y629610D01*
X537761Y629593D01*
X537736Y629584D01*
X537710Y629580D01*
X537572Y629525D01*
X537433Y629475D01*
X537411Y629461D01*
X537386Y629452D01*
X537265Y629367D01*
X537140Y629286D01*
X537122Y629268D01*
X537100Y629253D01*
X537001Y629143D01*
X536898Y629036D01*
X536884Y629013D01*
X536867Y628994D01*
X536795Y628864D01*
X536719Y628737D01*
X536711Y628712D01*
X536698Y628689D01*
X536658Y628546D01*
X536613Y628405D01*
X536611Y628379D01*
X536603Y628353D01*
X536584Y628110D01*
X536584Y620559D01*
X536598Y620433D01*
X536605Y620307D01*
X536618Y620261D01*
X536624Y620213D01*
X536666Y620094D01*
X536701Y619972D01*
X536725Y619930D01*
X536741Y619885D01*
X536810Y619778D01*
X536871Y619668D01*
X536911Y619622D01*
X536930Y619592D01*
X536965Y619558D01*
X537030Y619482D01*
X537906Y618605D01*
X537917Y618563D01*
X537926Y618489D01*
X537960Y618394D01*
X537984Y618297D01*
X538018Y618231D01*
X538043Y618161D01*
X538098Y618076D01*
X538144Y617987D01*
X538192Y617930D01*
X538232Y617868D01*
X538304Y617798D01*
X538370Y617721D01*
X538429Y617677D01*
X538483Y617626D01*
X538569Y617574D01*
X538650Y617514D01*
X538718Y617485D01*
X538782Y617447D01*
X538877Y617416D01*
X538970Y617376D01*
X539043Y617363D01*
X539114Y617341D01*
X539214Y617332D01*
X539313Y617315D01*
X539387Y617319D01*
X539461Y617313D01*
X539561Y617327D01*
X539661Y617333D01*
X539732Y617353D01*
X539806Y617364D01*
X539899Y617401D01*
X539996Y617429D01*
X540061Y617465D01*
X540130Y617493D01*
X540212Y617550D01*
X540300Y617599D01*
X540377Y617664D01*
X540416Y617692D01*
X540440Y617718D01*
X540486Y617758D01*
X540843Y618114D01*
X552948Y618114D01*
X554436Y616626D01*
X554436Y603510D01*
X554417Y603486D01*
X554347Y603414D01*
X554309Y603350D01*
X554263Y603292D01*
X554220Y603201D01*
X554169Y603115D01*
X554146Y603044D01*
X554114Y602977D01*
X554093Y602879D01*
X554062Y602783D01*
X554056Y602709D01*
X554041Y602636D01*
X554043Y602536D01*
X554034Y602436D01*
X554045Y602362D01*
X554047Y602288D01*
X554071Y602190D01*
X554086Y602091D01*
X554114Y602022D01*
X554132Y601950D01*
X554178Y601861D01*
X554215Y601767D01*
X554257Y601706D01*
X554291Y601640D01*
X554357Y601564D01*
X554414Y601481D01*
X554469Y601431D01*
X554517Y601375D01*
X554598Y601315D01*
X554673Y601248D01*
X554738Y601212D01*
X554797Y601167D01*
X554890Y601128D01*
X554978Y601079D01*
X555049Y601059D01*
X555117Y601029D01*
X555216Y601012D01*
X555313Y600984D01*
X555413Y600976D01*
X555460Y600968D01*
X555496Y600970D01*
X555557Y600965D01*
X647924Y600965D01*
X647950Y600968D01*
X647976Y600966D01*
X648123Y600988D01*
X648270Y601005D01*
X648294Y601013D01*
X648320Y601017D01*
X648458Y601072D01*
X648598Y601122D01*
X648620Y601136D01*
X648644Y601146D01*
X648766Y601231D01*
X648891Y601311D01*
X648909Y601330D01*
X648930Y601345D01*
X649030Y601455D01*
X649133Y601562D01*
X649146Y601584D01*
X649164Y601604D01*
X649236Y601734D01*
X649312Y601861D01*
X649320Y601886D01*
X649332Y601909D01*
X649373Y602052D01*
X649418Y602193D01*
X649420Y602219D01*
X649427Y602244D01*
X649447Y602488D01*
X649447Y800100D01*
X649444Y800126D01*
X649446Y800152D01*
X649424Y800299D01*
X649407Y800446D01*
X649398Y800471D01*
X649394Y800497D01*
X649339Y800635D01*
X649289Y800774D01*
X649275Y800796D01*
X649266Y800821D01*
X649181Y800942D01*
X649100Y801067D01*
X649082Y801085D01*
X649067Y801107D01*
X648957Y801206D01*
X648850Y801309D01*
X648827Y801323D01*
X648808Y801340D01*
X648678Y801412D01*
X648551Y801488D01*
X648526Y801496D01*
X648503Y801509D01*
X648360Y801549D01*
X648219Y801594D01*
X648193Y801596D01*
X648167Y801604D01*
X647924Y801623D01*
X562223Y801623D01*
X562223Y825500D01*
X562222Y825512D01*
X562223Y825524D01*
X562202Y825686D01*
X562183Y825846D01*
X562179Y825858D01*
X562178Y825870D01*
X562120Y826022D01*
X562066Y826174D01*
X562059Y826184D01*
X562055Y826196D01*
X561965Y826331D01*
X561877Y826467D01*
X561868Y826475D01*
X561861Y826486D01*
X561742Y826597D01*
X561626Y826709D01*
X561616Y826716D01*
X561607Y826724D01*
X561466Y826805D01*
X561327Y826888D01*
X561316Y826892D01*
X561305Y826898D01*
X561150Y826945D01*
X560995Y826994D01*
X560983Y826995D01*
X560972Y826999D01*
X560728Y827023D01*
X526438Y827658D01*
X526298Y827645D01*
X526158Y827637D01*
X526125Y827628D01*
X526091Y827625D01*
X525958Y827580D01*
X525823Y827541D01*
X525794Y827524D01*
X525761Y827513D01*
X525642Y827439D01*
X525519Y827371D01*
X525487Y827343D01*
X525465Y827330D01*
X525429Y827294D01*
X525333Y827212D01*
X517524Y819403D01*
X497835Y819403D01*
X497809Y819400D01*
X497783Y819402D01*
X497636Y819380D01*
X497489Y819363D01*
X497464Y819355D01*
X497438Y819351D01*
X497300Y819296D01*
X497161Y819246D01*
X497139Y819232D01*
X497114Y819222D01*
X496993Y819137D01*
X496868Y819057D01*
X496850Y819038D01*
X496828Y819023D01*
X496729Y818913D01*
X496626Y818806D01*
X496612Y818784D01*
X496595Y818764D01*
X496523Y818634D01*
X496447Y818507D01*
X496439Y818482D01*
X496426Y818459D01*
X496386Y818316D01*
X496341Y818175D01*
X496339Y818149D01*
X496331Y818124D01*
X496312Y817880D01*
X496312Y811783D01*
X489580Y811783D01*
X489554Y811780D01*
X489528Y811782D01*
X489381Y811760D01*
X489234Y811743D01*
X489209Y811735D01*
X489183Y811731D01*
X489045Y811676D01*
X488906Y811626D01*
X488884Y811612D01*
X488859Y811602D01*
X488738Y811517D01*
X488613Y811437D01*
X488595Y811418D01*
X488573Y811403D01*
X488474Y811293D01*
X488371Y811186D01*
X488357Y811164D01*
X488340Y811144D01*
X488268Y811014D01*
X488192Y810887D01*
X488184Y810862D01*
X488171Y810839D01*
X488131Y810696D01*
X488086Y810555D01*
X488084Y810529D01*
X488076Y810504D01*
X488057Y810260D01*
X488057Y801370D01*
X488060Y801344D01*
X488058Y801318D01*
X488080Y801171D01*
X488097Y801024D01*
X488105Y800999D01*
X488109Y800973D01*
X488164Y800835D01*
X488214Y800696D01*
X488228Y800674D01*
X488238Y800649D01*
X488323Y800528D01*
X488403Y800403D01*
X488422Y800385D01*
X488437Y800363D01*
X488547Y800264D01*
X488654Y800161D01*
X488676Y800147D01*
X488696Y800130D01*
X488826Y800058D01*
X488953Y799982D01*
X488978Y799974D01*
X489001Y799961D01*
X489144Y799921D01*
X489285Y799876D01*
X489311Y799874D01*
X489336Y799866D01*
X489580Y799847D01*
X495677Y799847D01*
X495677Y742950D01*
X495679Y742927D01*
X495677Y742905D01*
X495699Y742755D01*
X495717Y742604D01*
X495724Y742582D01*
X495728Y742560D01*
X495783Y742419D01*
X495834Y742276D01*
X495847Y742257D01*
X495855Y742235D01*
X495941Y742110D01*
X496023Y741983D01*
X496039Y741967D01*
X496052Y741948D01*
X496165Y741846D01*
X496274Y741741D01*
X496293Y741729D01*
X496310Y741714D01*
X496443Y741640D01*
X496573Y741562D01*
X496595Y741555D01*
X496614Y741544D01*
X496761Y741502D01*
X496905Y741456D01*
X496928Y741454D01*
X496949Y741448D01*
X497193Y741427D01*
X595606Y740982D01*
X595196Y701128D01*
X434081Y701128D01*
X434055Y701125D01*
X434029Y701127D01*
X433882Y701105D01*
X433735Y701088D01*
X433710Y701079D01*
X433684Y701076D01*
X433546Y701021D01*
X433407Y700971D01*
X433385Y700957D01*
X433360Y700947D01*
X433239Y700862D01*
X433114Y700782D01*
X433096Y700763D01*
X433074Y700748D01*
X432975Y700638D01*
X432872Y700531D01*
X432858Y700509D01*
X432841Y700489D01*
X432769Y700359D01*
X432693Y700232D01*
X432685Y700207D01*
X432672Y700184D01*
X432632Y700041D01*
X432587Y699900D01*
X432585Y699874D01*
X432577Y699849D01*
X432558Y699605D01*
X432558Y694483D01*
X431367Y693292D01*
X351531Y693292D01*
X351505Y693289D01*
X351479Y693291D01*
X351332Y693269D01*
X351185Y693252D01*
X351160Y693244D01*
X351134Y693240D01*
X350996Y693185D01*
X350857Y693135D01*
X350835Y693121D01*
X350810Y693111D01*
X350689Y693026D01*
X350564Y692946D01*
X350546Y692927D01*
X350524Y692912D01*
X350425Y692802D01*
X350322Y692695D01*
X350308Y692673D01*
X350291Y692653D01*
X350219Y692523D01*
X350143Y692396D01*
X350135Y692371D01*
X350122Y692348D01*
X350082Y692205D01*
X350037Y692064D01*
X350035Y692038D01*
X350027Y692013D01*
X350008Y691769D01*
X350008Y662733D01*
X348817Y661542D01*
X275383Y661542D01*
X274192Y662733D01*
X274192Y699605D01*
X274189Y699631D01*
X274191Y699657D01*
X274169Y699804D01*
X274152Y699951D01*
X274144Y699976D01*
X274140Y700002D01*
X274085Y700140D01*
X274035Y700279D01*
X274021Y700301D01*
X274011Y700326D01*
X273926Y700447D01*
X273846Y700572D01*
X273827Y700590D01*
X273812Y700612D01*
X273702Y700711D01*
X273595Y700814D01*
X273573Y700828D01*
X273553Y700845D01*
X273423Y700917D01*
X273296Y700993D01*
X273271Y701001D01*
X273248Y701014D01*
X273105Y701054D01*
X272964Y701099D01*
X272938Y701101D01*
X272913Y701109D01*
X272669Y701128D01*
X99924Y701128D01*
X99897Y701125D01*
X99871Y701127D01*
X99725Y701105D01*
X99577Y701088D01*
X99553Y701079D01*
X99527Y701076D01*
X99389Y701021D01*
X99249Y700971D01*
X99227Y700957D01*
X99203Y700947D01*
X99081Y700862D01*
X98956Y700782D01*
X98938Y700763D01*
X98917Y700748D01*
X98818Y700638D01*
X98714Y700531D01*
X98701Y700509D01*
X98683Y700489D01*
X98612Y700359D01*
X98535Y700232D01*
X98527Y700207D01*
X98515Y700184D01*
X98474Y700041D01*
X98429Y699900D01*
X98427Y699874D01*
X98420Y699849D01*
X98400Y699605D01*
X98400Y496405D01*
X98403Y496379D01*
X98401Y496353D01*
X98423Y496206D01*
X98440Y496059D01*
X98449Y496034D01*
X98453Y496008D01*
X98508Y495870D01*
X98558Y495731D01*
X98572Y495709D01*
X98582Y495684D01*
X98666Y495563D01*
X98747Y495438D01*
X98766Y495420D01*
X98781Y495398D01*
X98890Y495299D01*
X98997Y495196D01*
X99020Y495182D01*
X99039Y495165D01*
X99169Y495093D01*
X99296Y495017D01*
X99321Y495009D01*
X99344Y494996D01*
X99487Y494956D01*
X99628Y494911D01*
X99655Y494908D01*
X99680Y494901D01*
X99924Y494882D01*
X647924Y494882D01*
X647950Y494885D01*
G37*
G36*
X272695Y704435D02*
X272695Y704435D01*
X272721Y704433D01*
X272868Y704455D01*
X273015Y704472D01*
X273040Y704480D01*
X273066Y704484D01*
X273204Y704539D01*
X273343Y704589D01*
X273365Y704603D01*
X273390Y704613D01*
X273511Y704697D01*
X273636Y704778D01*
X273654Y704797D01*
X273676Y704812D01*
X273775Y704922D01*
X273878Y705029D01*
X273892Y705051D01*
X273909Y705071D01*
X273981Y705201D01*
X274057Y705328D01*
X274065Y705353D01*
X274078Y705376D01*
X274118Y705519D01*
X274163Y705660D01*
X274165Y705686D01*
X274173Y705711D01*
X274192Y705955D01*
X274192Y734267D01*
X275383Y735458D01*
X431367Y735458D01*
X432558Y734267D01*
X432558Y705955D01*
X432561Y705929D01*
X432559Y705903D01*
X432581Y705756D01*
X432598Y705609D01*
X432606Y705584D01*
X432610Y705558D01*
X432665Y705420D01*
X432715Y705281D01*
X432729Y705259D01*
X432739Y705234D01*
X432824Y705113D01*
X432904Y704988D01*
X432923Y704970D01*
X432938Y704948D01*
X433048Y704849D01*
X433155Y704746D01*
X433177Y704732D01*
X433197Y704715D01*
X433327Y704643D01*
X433454Y704567D01*
X433479Y704559D01*
X433502Y704546D01*
X433645Y704506D01*
X433786Y704461D01*
X433812Y704458D01*
X433837Y704451D01*
X434081Y704432D01*
X591180Y704432D01*
X591199Y704434D01*
X591217Y704432D01*
X591372Y704454D01*
X591527Y704472D01*
X591544Y704478D01*
X591562Y704480D01*
X591708Y704536D01*
X591855Y704589D01*
X591870Y704599D01*
X591887Y704606D01*
X592016Y704693D01*
X592147Y704778D01*
X592160Y704791D01*
X592175Y704802D01*
X592281Y704916D01*
X592390Y705029D01*
X592399Y705044D01*
X592411Y705058D01*
X592488Y705194D01*
X592568Y705328D01*
X592574Y705345D01*
X592583Y705361D01*
X592627Y705512D01*
X592675Y705660D01*
X592676Y705678D01*
X592681Y705696D01*
X592703Y705939D01*
X593023Y736920D01*
X593020Y736950D01*
X593022Y736981D01*
X593002Y737123D01*
X592987Y737266D01*
X592977Y737295D01*
X592972Y737326D01*
X592920Y737460D01*
X592872Y737596D01*
X592856Y737622D01*
X592845Y737650D01*
X592763Y737769D01*
X592686Y737890D01*
X592665Y737912D01*
X592647Y737937D01*
X592541Y738034D01*
X592438Y738135D01*
X592412Y738151D01*
X592390Y738172D01*
X592264Y738242D01*
X592141Y738317D01*
X592112Y738327D01*
X592085Y738342D01*
X591947Y738382D01*
X591810Y738427D01*
X591780Y738430D01*
X591750Y738438D01*
X591507Y738459D01*
X497195Y738885D01*
X497193Y738885D01*
X497189Y738885D01*
X495506Y738885D01*
X494323Y740078D01*
X494321Y740080D01*
X494318Y740083D01*
X493128Y741274D01*
X493135Y742955D01*
X493135Y742958D01*
X493135Y742962D01*
X493135Y795782D01*
X493132Y795808D01*
X493134Y795834D01*
X493112Y795981D01*
X493095Y796128D01*
X493087Y796153D01*
X493083Y796179D01*
X493028Y796317D01*
X492978Y796456D01*
X492964Y796478D01*
X492954Y796503D01*
X492869Y796624D01*
X492789Y796749D01*
X492770Y796767D01*
X492755Y796789D01*
X492645Y796888D01*
X492538Y796991D01*
X492516Y797005D01*
X492496Y797022D01*
X492366Y797094D01*
X492239Y797170D01*
X492214Y797178D01*
X492191Y797191D01*
X492048Y797231D01*
X491907Y797276D01*
X491881Y797278D01*
X491856Y797286D01*
X491612Y797305D01*
X487896Y797305D01*
X485515Y799686D01*
X485515Y811944D01*
X487896Y814325D01*
X492247Y814325D01*
X492273Y814328D01*
X492299Y814326D01*
X492446Y814348D01*
X492593Y814365D01*
X492618Y814373D01*
X492644Y814377D01*
X492782Y814432D01*
X492921Y814482D01*
X492943Y814496D01*
X492968Y814506D01*
X493089Y814591D01*
X493214Y814671D01*
X493232Y814690D01*
X493254Y814705D01*
X493353Y814815D01*
X493456Y814922D01*
X493470Y814944D01*
X493487Y814964D01*
X493559Y815094D01*
X493635Y815221D01*
X493643Y815246D01*
X493656Y815269D01*
X493696Y815412D01*
X493741Y815553D01*
X493743Y815579D01*
X493751Y815604D01*
X493770Y815848D01*
X493770Y819924D01*
X493789Y819989D01*
X493794Y820050D01*
X493801Y820084D01*
X493800Y820132D01*
X493808Y820233D01*
X493808Y845414D01*
X493805Y845440D01*
X493807Y845466D01*
X493785Y845613D01*
X493768Y845760D01*
X493760Y845784D01*
X493756Y845810D01*
X493701Y845948D01*
X493651Y846088D01*
X493637Y846110D01*
X493627Y846134D01*
X493543Y846256D01*
X493462Y846381D01*
X493443Y846399D01*
X493428Y846420D01*
X493318Y846520D01*
X493211Y846623D01*
X493189Y846636D01*
X493169Y846654D01*
X493039Y846726D01*
X492912Y846802D01*
X492887Y846810D01*
X492864Y846822D01*
X492721Y846863D01*
X492580Y846908D01*
X492554Y846910D01*
X492529Y846917D01*
X492285Y846937D01*
X487042Y846937D01*
X485553Y848425D01*
X485553Y860182D01*
X487042Y861670D01*
X492957Y861670D01*
X494445Y860182D01*
X494445Y849097D01*
X494446Y849089D01*
X494446Y849088D01*
X494446Y849087D01*
X494448Y849070D01*
X494446Y849044D01*
X494468Y848898D01*
X494485Y848750D01*
X494494Y848726D01*
X494497Y848700D01*
X494552Y848562D01*
X494602Y848422D01*
X494616Y848400D01*
X494626Y848376D01*
X494711Y848254D01*
X494791Y848129D01*
X494810Y848111D01*
X494825Y848090D01*
X494935Y847991D01*
X495042Y847887D01*
X495064Y847874D01*
X495084Y847856D01*
X495214Y847784D01*
X495341Y847708D01*
X495366Y847700D01*
X495389Y847688D01*
X495532Y847647D01*
X495673Y847602D01*
X495699Y847600D01*
X495724Y847593D01*
X495968Y847573D01*
X507054Y847573D01*
X508542Y846085D01*
X508542Y840636D01*
X508553Y840536D01*
X508555Y840436D01*
X508573Y840364D01*
X508582Y840290D01*
X508616Y840195D01*
X508640Y840098D01*
X508674Y840032D01*
X508699Y839962D01*
X508754Y839877D01*
X508800Y839788D01*
X508848Y839731D01*
X508888Y839669D01*
X508960Y839599D01*
X509026Y839523D01*
X509085Y839478D01*
X509139Y839427D01*
X509225Y839375D01*
X509306Y839316D01*
X509374Y839286D01*
X509438Y839248D01*
X509534Y839217D01*
X509626Y839178D01*
X509699Y839164D01*
X509770Y839142D01*
X509870Y839134D01*
X509969Y839116D01*
X510043Y839120D01*
X510117Y839114D01*
X510217Y839129D01*
X510317Y839134D01*
X510388Y839154D01*
X510462Y839165D01*
X510555Y839203D01*
X510652Y839230D01*
X510717Y839267D01*
X510786Y839294D01*
X510868Y839351D01*
X510956Y839400D01*
X511033Y839466D01*
X511072Y839493D01*
X511096Y839519D01*
X511142Y839559D01*
X512159Y840576D01*
X513660Y842077D01*
X515340Y842773D01*
X516281Y842773D01*
X516307Y842776D01*
X516333Y842774D01*
X516480Y842796D01*
X516627Y842813D01*
X516652Y842821D01*
X516678Y842825D01*
X516816Y842880D01*
X516955Y842930D01*
X516978Y842944D01*
X517002Y842954D01*
X517123Y843039D01*
X517248Y843119D01*
X517267Y843138D01*
X517288Y843153D01*
X517387Y843263D01*
X517490Y843370D01*
X517504Y843392D01*
X517521Y843412D01*
X517593Y843542D01*
X517669Y843669D01*
X517677Y843694D01*
X517690Y843717D01*
X517730Y843860D01*
X517775Y844001D01*
X517778Y844027D01*
X517785Y844052D01*
X517804Y844296D01*
X517804Y847226D01*
X519293Y848714D01*
X523883Y848714D01*
X523909Y848717D01*
X523935Y848715D01*
X524082Y848737D01*
X524229Y848754D01*
X524254Y848763D01*
X524280Y848767D01*
X524418Y848822D01*
X524557Y848872D01*
X524580Y848886D01*
X524604Y848896D01*
X524725Y848980D01*
X524850Y849061D01*
X524869Y849080D01*
X524890Y849095D01*
X524989Y849204D01*
X525092Y849311D01*
X525106Y849334D01*
X525123Y849353D01*
X525195Y849483D01*
X525271Y849610D01*
X525279Y849635D01*
X525292Y849658D01*
X525332Y849801D01*
X525377Y849942D01*
X525380Y849969D01*
X525387Y849994D01*
X525406Y850238D01*
X525406Y856710D01*
X525403Y856736D01*
X525405Y856762D01*
X525383Y856909D01*
X525366Y857056D01*
X525358Y857080D01*
X525354Y857106D01*
X525299Y857244D01*
X525249Y857384D01*
X525235Y857406D01*
X525225Y857430D01*
X525141Y857552D01*
X525060Y857677D01*
X525041Y857695D01*
X525026Y857716D01*
X524916Y857816D01*
X524809Y857919D01*
X524787Y857932D01*
X524767Y857950D01*
X524637Y858022D01*
X524510Y858098D01*
X524485Y858106D01*
X524462Y858118D01*
X524319Y858159D01*
X524178Y858204D01*
X524152Y858206D01*
X524127Y858213D01*
X523883Y858233D01*
X523443Y858233D01*
X521954Y859721D01*
X521954Y876826D01*
X523443Y878314D01*
X538548Y878314D01*
X540036Y876826D01*
X540036Y859721D01*
X538548Y858233D01*
X538107Y858233D01*
X538081Y858230D01*
X538055Y858232D01*
X537908Y858210D01*
X537761Y858193D01*
X537736Y858184D01*
X537710Y858180D01*
X537572Y858125D01*
X537433Y858075D01*
X537411Y858061D01*
X537386Y858052D01*
X537265Y857967D01*
X537140Y857886D01*
X537122Y857868D01*
X537100Y857853D01*
X537001Y857743D01*
X536898Y857636D01*
X536884Y857613D01*
X536867Y857594D01*
X536795Y857464D01*
X536719Y857337D01*
X536711Y857312D01*
X536698Y857289D01*
X536658Y857146D01*
X536613Y857005D01*
X536611Y856979D01*
X536603Y856953D01*
X536584Y856710D01*
X536584Y849159D01*
X536598Y849033D01*
X536605Y848907D01*
X536618Y848861D01*
X536624Y848813D01*
X536666Y848694D01*
X536701Y848572D01*
X536725Y848530D01*
X536741Y848485D01*
X536810Y848378D01*
X536871Y848268D01*
X536911Y848222D01*
X536930Y848192D01*
X536965Y848158D01*
X536968Y848155D01*
X536983Y848134D01*
X536997Y848121D01*
X537030Y848082D01*
X537906Y847205D01*
X537917Y847163D01*
X537926Y847089D01*
X537960Y846994D01*
X537984Y846897D01*
X538018Y846831D01*
X538043Y846761D01*
X538098Y846676D01*
X538144Y846587D01*
X538192Y846530D01*
X538232Y846468D01*
X538304Y846398D01*
X538370Y846321D01*
X538429Y846277D01*
X538483Y846226D01*
X538569Y846174D01*
X538650Y846114D01*
X538718Y846085D01*
X538782Y846047D01*
X538877Y846016D01*
X538970Y845976D01*
X539043Y845963D01*
X539114Y845941D01*
X539214Y845932D01*
X539313Y845915D01*
X539387Y845919D01*
X539461Y845913D01*
X539561Y845927D01*
X539661Y845933D01*
X539732Y845953D01*
X539806Y845964D01*
X539899Y846001D01*
X539996Y846029D01*
X540061Y846065D01*
X540130Y846093D01*
X540212Y846150D01*
X540300Y846199D01*
X540377Y846264D01*
X540416Y846292D01*
X540440Y846318D01*
X540486Y846358D01*
X540843Y846714D01*
X552948Y846714D01*
X554436Y845226D01*
X554436Y832093D01*
X554413Y832056D01*
X554358Y831987D01*
X554321Y831908D01*
X554275Y831835D01*
X554246Y831751D01*
X554209Y831671D01*
X554190Y831587D01*
X554163Y831505D01*
X554154Y831417D01*
X554135Y831331D01*
X554137Y831244D01*
X554128Y831158D01*
X554140Y831071D01*
X554141Y830982D01*
X554162Y830899D01*
X554174Y830813D01*
X554205Y830730D01*
X554226Y830644D01*
X554266Y830567D01*
X554296Y830487D01*
X554345Y830413D01*
X554386Y830334D01*
X554442Y830269D01*
X554490Y830197D01*
X554554Y830136D01*
X554612Y830069D01*
X554681Y830018D01*
X554744Y829959D01*
X554821Y829915D01*
X554892Y829862D01*
X554971Y829828D01*
X555046Y829785D01*
X555131Y829759D01*
X555212Y829724D01*
X555297Y829709D01*
X555380Y829684D01*
X555506Y829671D01*
X555555Y829662D01*
X555581Y829664D01*
X555623Y829659D01*
X560724Y829565D01*
X560735Y829566D01*
X560752Y829565D01*
X562428Y829565D01*
X563591Y828358D01*
X563600Y828351D01*
X563611Y828338D01*
X564796Y827152D01*
X564765Y825476D01*
X564766Y825465D01*
X564765Y825448D01*
X564765Y805688D01*
X564768Y805662D01*
X564766Y805636D01*
X564788Y805489D01*
X564805Y805342D01*
X564813Y805317D01*
X564817Y805291D01*
X564872Y805153D01*
X564922Y805014D01*
X564936Y804992D01*
X564946Y804967D01*
X565031Y804846D01*
X565111Y804721D01*
X565130Y804703D01*
X565145Y804681D01*
X565255Y804582D01*
X565362Y804479D01*
X565384Y804465D01*
X565404Y804448D01*
X565534Y804376D01*
X565661Y804300D01*
X565686Y804292D01*
X565709Y804279D01*
X565852Y804239D01*
X565993Y804194D01*
X566019Y804192D01*
X566044Y804184D01*
X566288Y804165D01*
X647924Y804165D01*
X647950Y804168D01*
X647976Y804166D01*
X648123Y804188D01*
X648270Y804205D01*
X648294Y804213D01*
X648320Y804217D01*
X648458Y804272D01*
X648598Y804322D01*
X648620Y804336D01*
X648644Y804346D01*
X648766Y804431D01*
X648891Y804511D01*
X648909Y804530D01*
X648930Y804545D01*
X649030Y804655D01*
X649133Y804762D01*
X649146Y804784D01*
X649164Y804804D01*
X649236Y804934D01*
X649312Y805061D01*
X649320Y805086D01*
X649332Y805109D01*
X649373Y805252D01*
X649418Y805393D01*
X649420Y805419D01*
X649427Y805444D01*
X649447Y805688D01*
X649447Y915505D01*
X649444Y915531D01*
X649446Y915557D01*
X649424Y915704D01*
X649407Y915851D01*
X649398Y915876D01*
X649394Y915902D01*
X649339Y916040D01*
X649289Y916179D01*
X649275Y916201D01*
X649266Y916226D01*
X649181Y916347D01*
X649100Y916472D01*
X649082Y916490D01*
X649067Y916512D01*
X648957Y916611D01*
X648850Y916714D01*
X648827Y916728D01*
X648808Y916745D01*
X648678Y916817D01*
X648551Y916893D01*
X648526Y916901D01*
X648503Y916914D01*
X648360Y916954D01*
X648219Y916999D01*
X648193Y917001D01*
X648167Y917009D01*
X647924Y917028D01*
X99924Y917028D01*
X99897Y917025D01*
X99871Y917027D01*
X99725Y917005D01*
X99577Y916988D01*
X99553Y916979D01*
X99527Y916976D01*
X99389Y916921D01*
X99249Y916871D01*
X99227Y916857D01*
X99203Y916847D01*
X99081Y916762D01*
X98956Y916682D01*
X98938Y916663D01*
X98917Y916648D01*
X98818Y916538D01*
X98714Y916431D01*
X98701Y916409D01*
X98683Y916389D01*
X98612Y916259D01*
X98535Y916132D01*
X98527Y916107D01*
X98515Y916084D01*
X98474Y915941D01*
X98429Y915800D01*
X98427Y915774D01*
X98420Y915749D01*
X98400Y915505D01*
X98400Y705955D01*
X98403Y705929D01*
X98401Y705903D01*
X98423Y705756D01*
X98440Y705609D01*
X98449Y705584D01*
X98453Y705558D01*
X98508Y705420D01*
X98558Y705281D01*
X98572Y705259D01*
X98582Y705234D01*
X98666Y705113D01*
X98747Y704988D01*
X98766Y704970D01*
X98781Y704948D01*
X98890Y704849D01*
X98997Y704746D01*
X99020Y704732D01*
X99039Y704715D01*
X99169Y704643D01*
X99296Y704567D01*
X99321Y704559D01*
X99344Y704546D01*
X99487Y704506D01*
X99628Y704461D01*
X99655Y704458D01*
X99680Y704451D01*
X99924Y704432D01*
X272669Y704432D01*
X272695Y704435D01*
G37*
%LPC*%
G36*
X192626Y757300D02*
X192626Y757300D01*
X190245Y759681D01*
X190245Y803502D01*
X190244Y803512D01*
X190245Y805818D01*
X190245Y807500D01*
X191422Y808675D01*
X191422Y808676D01*
X191423Y808676D01*
X192627Y809881D01*
X194311Y809880D01*
X194312Y809880D01*
X196611Y809880D01*
X196625Y809879D01*
X200159Y809877D01*
X200185Y809880D01*
X200212Y809878D01*
X200358Y809900D01*
X200505Y809916D01*
X200530Y809925D01*
X200556Y809929D01*
X200694Y809984D01*
X200833Y810034D01*
X200856Y810048D01*
X200880Y810058D01*
X201002Y810142D01*
X201126Y810223D01*
X201145Y810242D01*
X201166Y810257D01*
X201265Y810366D01*
X201368Y810473D01*
X201382Y810496D01*
X201400Y810516D01*
X201472Y810645D01*
X201547Y810772D01*
X201556Y810798D01*
X201568Y810821D01*
X201609Y810964D01*
X201654Y811104D01*
X201656Y811131D01*
X201663Y811156D01*
X201683Y811400D01*
X201683Y829099D01*
X203592Y833709D01*
X207120Y837236D01*
X211729Y839146D01*
X216718Y839146D01*
X221327Y837236D01*
X224855Y833709D01*
X226764Y829099D01*
X226764Y811386D01*
X226767Y811360D01*
X226765Y811335D01*
X226787Y811187D01*
X226804Y811040D01*
X226813Y811015D01*
X226817Y810990D01*
X226872Y810852D01*
X226922Y810712D01*
X226936Y810690D01*
X226945Y810666D01*
X227030Y810544D01*
X227111Y810419D01*
X227129Y810401D01*
X227144Y810380D01*
X227254Y810280D01*
X227361Y810177D01*
X227384Y810163D01*
X227403Y810146D01*
X227533Y810074D01*
X227660Y809998D01*
X227685Y809990D01*
X227708Y809977D01*
X227851Y809937D01*
X227992Y809892D01*
X228018Y809890D01*
X228043Y809882D01*
X228287Y809863D01*
X427449Y809763D01*
X427475Y809766D01*
X427502Y809764D01*
X427648Y809786D01*
X427795Y809803D01*
X427820Y809812D01*
X427847Y809816D01*
X427984Y809870D01*
X428123Y809920D01*
X428146Y809935D01*
X428170Y809944D01*
X428292Y810029D01*
X428416Y810109D01*
X428435Y810128D01*
X428457Y810143D01*
X428556Y810253D01*
X428659Y810360D01*
X428672Y810382D01*
X428690Y810402D01*
X428762Y810532D01*
X428838Y810659D01*
X428846Y810684D01*
X428859Y810707D01*
X428899Y810850D01*
X428944Y810990D01*
X428946Y811017D01*
X428953Y811043D01*
X428973Y811286D01*
X428973Y831451D01*
X431502Y833980D01*
X431503Y833980D01*
X432693Y835171D01*
X444025Y835171D01*
X444051Y835174D01*
X444077Y835172D01*
X444224Y835194D01*
X444371Y835211D01*
X444396Y835220D01*
X444422Y835224D01*
X444560Y835278D01*
X444699Y835328D01*
X444722Y835343D01*
X444746Y835352D01*
X444867Y835437D01*
X444992Y835517D01*
X445011Y835536D01*
X445032Y835551D01*
X445131Y835661D01*
X445234Y835768D01*
X445248Y835791D01*
X445265Y835810D01*
X445337Y835940D01*
X445413Y836067D01*
X445421Y836092D01*
X445434Y836115D01*
X445474Y836258D01*
X445519Y836399D01*
X445522Y836425D01*
X445529Y836450D01*
X445548Y836694D01*
X445548Y846085D01*
X447037Y847573D01*
X458122Y847573D01*
X458148Y847576D01*
X458174Y847574D01*
X458321Y847596D01*
X458468Y847613D01*
X458493Y847622D01*
X458519Y847626D01*
X458657Y847681D01*
X458796Y847731D01*
X458819Y847745D01*
X458843Y847755D01*
X458964Y847839D01*
X459089Y847920D01*
X459108Y847939D01*
X459129Y847954D01*
X459228Y848063D01*
X459331Y848170D01*
X459345Y848193D01*
X459362Y848212D01*
X459434Y848342D01*
X459510Y848469D01*
X459518Y848494D01*
X459531Y848517D01*
X459571Y848660D01*
X459616Y848801D01*
X459619Y848828D01*
X459626Y848853D01*
X459645Y849097D01*
X459645Y860182D01*
X461134Y861670D01*
X480003Y861670D01*
X481491Y860182D01*
X481491Y848425D01*
X480003Y846937D01*
X461805Y846937D01*
X461779Y846934D01*
X461753Y846936D01*
X461606Y846914D01*
X461459Y846897D01*
X461434Y846888D01*
X461408Y846884D01*
X461270Y846829D01*
X461131Y846779D01*
X461109Y846765D01*
X461084Y846756D01*
X460963Y846671D01*
X460838Y846590D01*
X460820Y846572D01*
X460798Y846557D01*
X460699Y846447D01*
X460596Y846340D01*
X460582Y846317D01*
X460565Y846298D01*
X460493Y846168D01*
X460417Y846041D01*
X460409Y846016D01*
X460396Y845993D01*
X460356Y845850D01*
X460311Y845709D01*
X460309Y845683D01*
X460301Y845657D01*
X460282Y845414D01*
X460282Y820538D01*
X460296Y820412D01*
X460303Y820286D01*
X460316Y820239D01*
X460322Y820191D01*
X460364Y820072D01*
X460399Y819951D01*
X460423Y819909D01*
X460439Y819863D01*
X460508Y819757D01*
X460569Y819647D01*
X460609Y819600D01*
X460625Y819576D01*
X460625Y814934D01*
X460628Y814907D01*
X460626Y814881D01*
X460648Y814735D01*
X460665Y814587D01*
X460673Y814563D01*
X460677Y814537D01*
X460732Y814399D01*
X460782Y814259D01*
X460796Y814237D01*
X460806Y814213D01*
X460891Y814091D01*
X460971Y813966D01*
X460990Y813948D01*
X461005Y813927D01*
X461115Y813828D01*
X461222Y813724D01*
X461244Y813711D01*
X461264Y813693D01*
X461394Y813621D01*
X461521Y813545D01*
X461546Y813537D01*
X461569Y813525D01*
X461712Y813484D01*
X461853Y813439D01*
X461879Y813437D01*
X461904Y813430D01*
X462148Y813410D01*
X467049Y813410D01*
X468537Y811922D01*
X468537Y800137D01*
X468528Y800126D01*
X468504Y800084D01*
X468474Y800046D01*
X468420Y799932D01*
X468359Y799821D01*
X468346Y799775D01*
X468325Y799731D01*
X468299Y799608D01*
X468264Y799486D01*
X468259Y799425D01*
X468252Y799390D01*
X468253Y799342D01*
X468245Y799242D01*
X468245Y759681D01*
X465864Y757300D01*
X192626Y757300D01*
G37*
%LPD*%
%LPC*%
G36*
X202257Y526414D02*
X202257Y526414D01*
X200024Y528647D01*
X200024Y578158D01*
X201237Y579371D01*
X201315Y579470D01*
X201400Y579564D01*
X201423Y579606D01*
X201453Y579644D01*
X201507Y579758D01*
X201568Y579869D01*
X201582Y579915D01*
X201602Y579959D01*
X201629Y580082D01*
X201663Y580204D01*
X201668Y580265D01*
X201676Y580300D01*
X201675Y580348D01*
X201683Y580448D01*
X201683Y600499D01*
X203592Y605109D01*
X207120Y608636D01*
X211729Y610546D01*
X216718Y610546D01*
X221327Y608636D01*
X224855Y605109D01*
X226764Y600499D01*
X226764Y581914D01*
X226767Y581888D01*
X226765Y581862D01*
X226787Y581715D01*
X226804Y581568D01*
X226813Y581543D01*
X226817Y581517D01*
X226872Y581379D01*
X226922Y581240D01*
X226936Y581218D01*
X226946Y581193D01*
X227030Y581072D01*
X227111Y580947D01*
X227130Y580929D01*
X227145Y580907D01*
X227254Y580808D01*
X227361Y580705D01*
X227384Y580691D01*
X227403Y580674D01*
X227533Y580602D01*
X227660Y580526D01*
X227685Y580518D01*
X227708Y580505D01*
X227851Y580465D01*
X227992Y580420D01*
X228019Y580418D01*
X228044Y580410D01*
X228288Y580391D01*
X426080Y580391D01*
X426106Y580394D01*
X426132Y580392D01*
X426279Y580414D01*
X426426Y580431D01*
X426451Y580439D01*
X426477Y580443D01*
X426615Y580498D01*
X426754Y580548D01*
X426776Y580562D01*
X426801Y580572D01*
X426922Y580657D01*
X427047Y580737D01*
X427065Y580756D01*
X427087Y580771D01*
X427186Y580881D01*
X427289Y580988D01*
X427303Y581010D01*
X427320Y581030D01*
X427392Y581160D01*
X427468Y581287D01*
X427476Y581312D01*
X427489Y581335D01*
X427529Y581478D01*
X427574Y581619D01*
X427576Y581645D01*
X427584Y581670D01*
X427603Y581914D01*
X427603Y599643D01*
X429117Y601157D01*
X429195Y601256D01*
X429221Y601284D01*
X433283Y605346D01*
X444025Y605346D01*
X444051Y605349D01*
X444077Y605347D01*
X444224Y605369D01*
X444371Y605386D01*
X444396Y605395D01*
X444422Y605399D01*
X444560Y605454D01*
X444699Y605504D01*
X444722Y605518D01*
X444746Y605527D01*
X444867Y605612D01*
X444992Y605693D01*
X445011Y605711D01*
X445032Y605726D01*
X445131Y605836D01*
X445234Y605943D01*
X445248Y605966D01*
X445265Y605985D01*
X445337Y606115D01*
X445413Y606242D01*
X445421Y606267D01*
X445434Y606290D01*
X445474Y606433D01*
X445519Y606574D01*
X445522Y606600D01*
X445529Y606626D01*
X445548Y606869D01*
X445548Y617485D01*
X447037Y618973D01*
X458122Y618973D01*
X458148Y618976D01*
X458174Y618974D01*
X458321Y618996D01*
X458468Y619013D01*
X458493Y619022D01*
X458519Y619026D01*
X458657Y619081D01*
X458796Y619131D01*
X458819Y619145D01*
X458843Y619155D01*
X458964Y619239D01*
X459089Y619320D01*
X459108Y619339D01*
X459129Y619354D01*
X459228Y619463D01*
X459331Y619570D01*
X459345Y619593D01*
X459362Y619612D01*
X459434Y619742D01*
X459510Y619869D01*
X459518Y619894D01*
X459531Y619917D01*
X459571Y620060D01*
X459616Y620201D01*
X459619Y620228D01*
X459626Y620253D01*
X459645Y620497D01*
X459645Y631582D01*
X461134Y633070D01*
X480003Y633070D01*
X481491Y631582D01*
X481491Y619825D01*
X480003Y618337D01*
X461805Y618337D01*
X461779Y618334D01*
X461753Y618336D01*
X461606Y618314D01*
X461459Y618297D01*
X461434Y618288D01*
X461408Y618284D01*
X461270Y618229D01*
X461131Y618179D01*
X461109Y618165D01*
X461084Y618156D01*
X460963Y618071D01*
X460838Y617990D01*
X460820Y617972D01*
X460798Y617957D01*
X460699Y617847D01*
X460596Y617740D01*
X460582Y617717D01*
X460565Y617698D01*
X460493Y617568D01*
X460417Y617441D01*
X460409Y617416D01*
X460396Y617393D01*
X460356Y617250D01*
X460311Y617109D01*
X460309Y617083D01*
X460301Y617057D01*
X460282Y616814D01*
X460282Y592213D01*
X460296Y592088D01*
X460303Y591962D01*
X460316Y591915D01*
X460322Y591867D01*
X460364Y591748D01*
X460399Y591627D01*
X460423Y591585D01*
X460439Y591539D01*
X460508Y591433D01*
X460569Y591322D01*
X460609Y591276D01*
X460628Y591246D01*
X460663Y591213D01*
X460728Y591136D01*
X461006Y590858D01*
X461006Y586549D01*
X461020Y586424D01*
X461027Y586297D01*
X461040Y586251D01*
X461046Y586203D01*
X461088Y586084D01*
X461123Y585962D01*
X461147Y585920D01*
X461163Y585875D01*
X461232Y585768D01*
X461293Y585658D01*
X461333Y585612D01*
X461352Y585582D01*
X461387Y585548D01*
X461452Y585472D01*
X461642Y585282D01*
X461741Y585203D01*
X461835Y585119D01*
X461877Y585095D01*
X461915Y585065D01*
X462029Y585011D01*
X462140Y584950D01*
X462187Y584937D01*
X462230Y584916D01*
X462354Y584890D01*
X462475Y584855D01*
X462536Y584850D01*
X462571Y584843D01*
X462619Y584844D01*
X462719Y584836D01*
X466651Y584836D01*
X466672Y584830D01*
X466733Y584825D01*
X466767Y584818D01*
X466815Y584818D01*
X466916Y584810D01*
X467049Y584810D01*
X468537Y583322D01*
X468537Y571223D01*
X468511Y571133D01*
X468506Y571073D01*
X468499Y571038D01*
X468500Y570990D01*
X468492Y570889D01*
X468492Y567382D01*
X466259Y565149D01*
X465069Y565149D01*
X465043Y565146D01*
X465017Y565148D01*
X464870Y565126D01*
X464723Y565109D01*
X464698Y565101D01*
X464672Y565097D01*
X464534Y565042D01*
X464395Y564992D01*
X464373Y564978D01*
X464348Y564968D01*
X464227Y564883D01*
X464102Y564803D01*
X464084Y564784D01*
X464062Y564769D01*
X463963Y564659D01*
X463860Y564552D01*
X463846Y564530D01*
X463829Y564510D01*
X463757Y564380D01*
X463681Y564253D01*
X463673Y564228D01*
X463660Y564205D01*
X463620Y564062D01*
X463575Y563921D01*
X463573Y563895D01*
X463565Y563870D01*
X463546Y563626D01*
X463546Y528647D01*
X461313Y526414D01*
X202257Y526414D01*
G37*
%LPD*%
G36*
X464206Y759845D02*
X464206Y759845D01*
X464232Y759843D01*
X464379Y759865D01*
X464526Y759882D01*
X464551Y759890D01*
X464577Y759894D01*
X464715Y759949D01*
X464854Y759999D01*
X464876Y760013D01*
X464901Y760023D01*
X465022Y760108D01*
X465147Y760188D01*
X465165Y760207D01*
X465187Y760222D01*
X465286Y760332D01*
X465389Y760439D01*
X465403Y760461D01*
X465420Y760481D01*
X465492Y760611D01*
X465568Y760738D01*
X465576Y760763D01*
X465589Y760786D01*
X465629Y760929D01*
X465674Y761070D01*
X465676Y761096D01*
X465684Y761121D01*
X465703Y761365D01*
X465703Y808990D01*
X465700Y809016D01*
X465702Y809042D01*
X465680Y809189D01*
X465663Y809336D01*
X465655Y809361D01*
X465651Y809387D01*
X465596Y809525D01*
X465546Y809664D01*
X465532Y809686D01*
X465522Y809711D01*
X465437Y809832D01*
X465357Y809957D01*
X465338Y809975D01*
X465323Y809997D01*
X465213Y810096D01*
X465106Y810199D01*
X465084Y810213D01*
X465064Y810230D01*
X464934Y810302D01*
X464807Y810378D01*
X464782Y810386D01*
X464759Y810399D01*
X464616Y810439D01*
X464475Y810484D01*
X464449Y810486D01*
X464424Y810494D01*
X464180Y810513D01*
X458083Y810513D01*
X458083Y817880D01*
X458080Y817906D01*
X458082Y817932D01*
X458060Y818079D01*
X458043Y818226D01*
X458035Y818251D01*
X458031Y818277D01*
X457976Y818415D01*
X457926Y818554D01*
X457912Y818576D01*
X457902Y818601D01*
X457817Y818722D01*
X457737Y818847D01*
X457718Y818865D01*
X457703Y818887D01*
X457593Y818986D01*
X457486Y819089D01*
X457464Y819103D01*
X457444Y819120D01*
X457314Y819192D01*
X457187Y819268D01*
X457162Y819276D01*
X457139Y819289D01*
X456996Y819329D01*
X456855Y819374D01*
X456829Y819376D01*
X456804Y819384D01*
X456560Y819403D01*
X448626Y819403D01*
X448600Y819400D01*
X448573Y819402D01*
X448427Y819380D01*
X448279Y819363D01*
X448255Y819355D01*
X448229Y819351D01*
X448091Y819296D01*
X447951Y819246D01*
X447929Y819232D01*
X447905Y819222D01*
X447783Y819137D01*
X447659Y819057D01*
X447640Y819038D01*
X447619Y819023D01*
X447520Y818913D01*
X447416Y818806D01*
X447403Y818784D01*
X447385Y818764D01*
X447314Y818634D01*
X447238Y818507D01*
X447230Y818482D01*
X447217Y818459D01*
X447176Y818316D01*
X447131Y818175D01*
X447129Y818149D01*
X447122Y818124D01*
X447102Y817880D01*
X447102Y817056D01*
X447069Y817019D01*
X447048Y816980D01*
X447020Y816945D01*
X446965Y816827D01*
X446902Y816713D01*
X446890Y816670D01*
X446871Y816630D01*
X446844Y816503D01*
X446809Y816377D01*
X446805Y816322D01*
X446798Y816289D01*
X446799Y816240D01*
X446791Y816133D01*
X446837Y807212D01*
X194311Y807338D01*
X194284Y807335D01*
X194258Y807337D01*
X194112Y807315D01*
X193965Y807299D01*
X193940Y807290D01*
X193913Y807286D01*
X193775Y807231D01*
X193636Y807181D01*
X193614Y807167D01*
X193589Y807157D01*
X193468Y807072D01*
X193343Y806992D01*
X193325Y806973D01*
X193303Y806958D01*
X193204Y806848D01*
X193101Y806742D01*
X193088Y806719D01*
X193070Y806699D01*
X192998Y806570D01*
X192922Y806443D01*
X192914Y806418D01*
X192901Y806394D01*
X192861Y806251D01*
X192816Y806111D01*
X192814Y806084D01*
X192806Y806059D01*
X192787Y805815D01*
X192787Y761365D01*
X192790Y761339D01*
X192788Y761313D01*
X192810Y761166D01*
X192827Y761019D01*
X192835Y760994D01*
X192839Y760968D01*
X192894Y760830D01*
X192944Y760691D01*
X192958Y760669D01*
X192968Y760644D01*
X193053Y760523D01*
X193133Y760398D01*
X193152Y760380D01*
X193167Y760358D01*
X193277Y760259D01*
X193384Y760156D01*
X193406Y760142D01*
X193426Y760125D01*
X193556Y760053D01*
X193683Y759977D01*
X193708Y759969D01*
X193731Y759956D01*
X193874Y759916D01*
X194015Y759871D01*
X194041Y759869D01*
X194066Y759861D01*
X194310Y759842D01*
X464180Y759842D01*
X464206Y759845D01*
G37*
G36*
X459853Y528971D02*
X459853Y528971D01*
X459972Y528978D01*
X460010Y528991D01*
X460051Y528996D01*
X460161Y529039D01*
X460274Y529076D01*
X460309Y529098D01*
X460346Y529113D01*
X460442Y529183D01*
X460543Y529246D01*
X460571Y529276D01*
X460604Y529299D01*
X460680Y529391D01*
X460761Y529478D01*
X460781Y529513D01*
X460806Y529544D01*
X460857Y529652D01*
X460915Y529756D01*
X460925Y529796D01*
X460942Y529832D01*
X460964Y529949D01*
X460994Y530064D01*
X460998Y530125D01*
X461002Y530145D01*
X461000Y530165D01*
X461004Y530225D01*
X461004Y567691D01*
X464681Y567691D01*
X464799Y567706D01*
X464918Y567713D01*
X464956Y567726D01*
X464996Y567731D01*
X465107Y567774D01*
X465220Y567811D01*
X465255Y567833D01*
X465292Y567848D01*
X465388Y567918D01*
X465489Y567981D01*
X465517Y568011D01*
X465549Y568034D01*
X465625Y568126D01*
X465707Y568213D01*
X465726Y568248D01*
X465752Y568279D01*
X465803Y568387D01*
X465860Y568491D01*
X465871Y568531D01*
X465888Y568567D01*
X465910Y568684D01*
X465940Y568799D01*
X465944Y568860D01*
X465948Y568880D01*
X465946Y568900D01*
X465950Y568960D01*
X465950Y581025D01*
X465935Y581143D01*
X465928Y581262D01*
X465915Y581300D01*
X465910Y581341D01*
X465866Y581451D01*
X465830Y581564D01*
X465808Y581599D01*
X465793Y581636D01*
X465723Y581732D01*
X465660Y581833D01*
X465630Y581861D01*
X465606Y581894D01*
X465515Y581970D01*
X465428Y582051D01*
X465393Y582071D01*
X465361Y582096D01*
X465254Y582147D01*
X465150Y582205D01*
X465110Y582215D01*
X465074Y582232D01*
X464957Y582254D01*
X464842Y582284D01*
X464781Y582288D01*
X464761Y582292D01*
X464741Y582290D01*
X464681Y582294D01*
X458464Y582294D01*
X458464Y589280D01*
X458449Y589398D01*
X458442Y589517D01*
X458429Y589555D01*
X458424Y589596D01*
X458381Y589706D01*
X458344Y589819D01*
X458322Y589854D01*
X458307Y589891D01*
X458238Y589987D01*
X458174Y590088D01*
X458144Y590116D01*
X458121Y590149D01*
X458029Y590225D01*
X457942Y590306D01*
X457907Y590326D01*
X457876Y590351D01*
X457768Y590402D01*
X457664Y590460D01*
X457624Y590470D01*
X457588Y590487D01*
X457471Y590509D01*
X457356Y590539D01*
X457296Y590543D01*
X457276Y590547D01*
X457255Y590545D01*
X457195Y590549D01*
X448962Y590549D01*
X448843Y590534D01*
X448725Y590527D01*
X448686Y590514D01*
X448646Y590509D01*
X448535Y590466D01*
X448422Y590429D01*
X448388Y590407D01*
X448350Y590392D01*
X448254Y590323D01*
X448153Y590259D01*
X448126Y590229D01*
X448093Y590206D01*
X448017Y590114D01*
X447935Y590027D01*
X447916Y589992D01*
X447890Y589961D01*
X447839Y589853D01*
X447782Y589749D01*
X447772Y589709D01*
X447755Y589673D01*
X447732Y589556D01*
X447703Y589441D01*
X447699Y589381D01*
X447695Y589361D01*
X447696Y589340D01*
X447692Y589280D01*
X447692Y586916D01*
X447681Y586872D01*
X447675Y586772D01*
X447671Y586752D01*
X447673Y586739D01*
X447671Y586711D01*
X447671Y577849D01*
X203835Y577849D01*
X203717Y577834D01*
X203598Y577827D01*
X203560Y577814D01*
X203519Y577809D01*
X203409Y577766D01*
X203296Y577729D01*
X203261Y577707D01*
X203224Y577692D01*
X203128Y577623D01*
X203027Y577559D01*
X202999Y577529D01*
X202966Y577506D01*
X202891Y577414D01*
X202809Y577327D01*
X202789Y577292D01*
X202764Y577261D01*
X202713Y577153D01*
X202655Y577049D01*
X202645Y577009D01*
X202628Y576973D01*
X202606Y576856D01*
X202576Y576741D01*
X202572Y576681D01*
X202568Y576661D01*
X202570Y576640D01*
X202566Y576580D01*
X202566Y530225D01*
X202581Y530107D01*
X202588Y529988D01*
X202601Y529950D01*
X202606Y529909D01*
X202649Y529799D01*
X202686Y529686D01*
X202708Y529651D01*
X202723Y529614D01*
X202793Y529518D01*
X202856Y529417D01*
X202886Y529389D01*
X202909Y529356D01*
X203001Y529281D01*
X203088Y529199D01*
X203123Y529179D01*
X203154Y529154D01*
X203262Y529103D01*
X203366Y529045D01*
X203406Y529035D01*
X203442Y529018D01*
X203559Y528996D01*
X203674Y528966D01*
X203735Y528962D01*
X203755Y528958D01*
X203775Y528960D01*
X203835Y528956D01*
X459735Y528956D01*
X459853Y528971D01*
G37*
G36*
X647950Y552200D02*
X647950Y552200D01*
X647976Y552198D01*
X648123Y552220D01*
X648270Y552237D01*
X648294Y552245D01*
X648320Y552249D01*
X648458Y552304D01*
X648598Y552354D01*
X648620Y552368D01*
X648644Y552378D01*
X648766Y552463D01*
X648891Y552543D01*
X648909Y552562D01*
X648930Y552577D01*
X649030Y552687D01*
X649133Y552794D01*
X649146Y552816D01*
X649164Y552836D01*
X649236Y552966D01*
X649312Y553093D01*
X649320Y553118D01*
X649332Y553141D01*
X649373Y553284D01*
X649418Y553425D01*
X649420Y553451D01*
X649427Y553476D01*
X649447Y553720D01*
X649447Y596900D01*
X649444Y596926D01*
X649446Y596952D01*
X649424Y597099D01*
X649407Y597246D01*
X649398Y597271D01*
X649394Y597297D01*
X649339Y597435D01*
X649289Y597574D01*
X649275Y597596D01*
X649266Y597621D01*
X649181Y597742D01*
X649100Y597867D01*
X649082Y597885D01*
X649067Y597907D01*
X648957Y598006D01*
X648850Y598109D01*
X648827Y598123D01*
X648808Y598140D01*
X648678Y598212D01*
X648551Y598288D01*
X648526Y598296D01*
X648503Y598309D01*
X648360Y598349D01*
X648219Y598394D01*
X648193Y598396D01*
X648167Y598404D01*
X647924Y598423D01*
X535935Y598423D01*
X535809Y598409D01*
X535683Y598402D01*
X535637Y598389D01*
X535589Y598383D01*
X535470Y598341D01*
X535348Y598306D01*
X535306Y598282D01*
X535261Y598266D01*
X535154Y598197D01*
X535044Y598136D01*
X534998Y598096D01*
X534968Y598077D01*
X534934Y598042D01*
X534858Y597977D01*
X527049Y590168D01*
X497835Y590168D01*
X497809Y590165D01*
X497783Y590167D01*
X497636Y590145D01*
X497489Y590128D01*
X497464Y590120D01*
X497438Y590116D01*
X497300Y590061D01*
X497161Y590011D01*
X497139Y589997D01*
X497114Y589987D01*
X496993Y589902D01*
X496868Y589822D01*
X496850Y589803D01*
X496828Y589788D01*
X496729Y589678D01*
X496626Y589571D01*
X496612Y589549D01*
X496595Y589529D01*
X496523Y589399D01*
X496447Y589272D01*
X496439Y589247D01*
X496426Y589224D01*
X496386Y589081D01*
X496341Y588940D01*
X496339Y588914D01*
X496331Y588889D01*
X496312Y588645D01*
X496312Y583818D01*
X489580Y583818D01*
X489554Y583815D01*
X489528Y583817D01*
X489381Y583795D01*
X489234Y583778D01*
X489209Y583770D01*
X489183Y583766D01*
X489045Y583711D01*
X488906Y583661D01*
X488884Y583647D01*
X488859Y583637D01*
X488738Y583552D01*
X488613Y583472D01*
X488595Y583453D01*
X488573Y583438D01*
X488474Y583328D01*
X488371Y583221D01*
X488357Y583199D01*
X488340Y583179D01*
X488268Y583049D01*
X488192Y582922D01*
X488184Y582897D01*
X488171Y582874D01*
X488131Y582731D01*
X488086Y582590D01*
X488084Y582564D01*
X488076Y582539D01*
X488057Y582295D01*
X488057Y568325D01*
X488060Y568299D01*
X488058Y568273D01*
X488080Y568126D01*
X488097Y567979D01*
X488105Y567954D01*
X488109Y567928D01*
X488164Y567790D01*
X488214Y567651D01*
X488228Y567629D01*
X488238Y567604D01*
X488323Y567483D01*
X488403Y567358D01*
X488422Y567340D01*
X488437Y567318D01*
X488547Y567219D01*
X488654Y567116D01*
X488676Y567102D01*
X488696Y567085D01*
X488826Y567013D01*
X488953Y566937D01*
X488978Y566929D01*
X489001Y566916D01*
X489144Y566876D01*
X489285Y566831D01*
X489311Y566829D01*
X489336Y566821D01*
X489580Y566802D01*
X496312Y566802D01*
X496312Y553720D01*
X496315Y553694D01*
X496313Y553668D01*
X496335Y553521D01*
X496352Y553374D01*
X496360Y553349D01*
X496364Y553323D01*
X496419Y553185D01*
X496469Y553046D01*
X496483Y553024D01*
X496493Y552999D01*
X496578Y552878D01*
X496658Y552753D01*
X496677Y552735D01*
X496692Y552713D01*
X496802Y552614D01*
X496909Y552511D01*
X496931Y552497D01*
X496951Y552480D01*
X497081Y552408D01*
X497208Y552332D01*
X497233Y552324D01*
X497256Y552311D01*
X497399Y552271D01*
X497540Y552226D01*
X497566Y552224D01*
X497591Y552216D01*
X497835Y552197D01*
X647924Y552197D01*
X647950Y552200D01*
G37*
%LPC*%
G36*
X142608Y809035D02*
X142608Y809035D01*
X137006Y811355D01*
X132719Y815643D01*
X130399Y821244D01*
X130399Y827307D01*
X132719Y832909D01*
X137006Y837196D01*
X142608Y839517D01*
X148671Y839517D01*
X154273Y837196D01*
X158560Y832909D01*
X160880Y827307D01*
X160880Y821244D01*
X158560Y815643D01*
X154273Y811355D01*
X148671Y809035D01*
X142608Y809035D01*
G37*
%LPD*%
%LPC*%
G36*
X142608Y758235D02*
X142608Y758235D01*
X137006Y760555D01*
X132719Y764843D01*
X130399Y770444D01*
X130399Y776507D01*
X132719Y782109D01*
X137006Y786396D01*
X142608Y788717D01*
X148671Y788717D01*
X154273Y786396D01*
X158560Y782109D01*
X160880Y776507D01*
X160880Y770444D01*
X158560Y764843D01*
X154273Y760555D01*
X148671Y758235D01*
X142608Y758235D01*
G37*
%LPD*%
%LPC*%
G36*
X141592Y627425D02*
X141592Y627425D01*
X135990Y629745D01*
X131703Y634033D01*
X129383Y639634D01*
X129383Y645697D01*
X131703Y651299D01*
X135990Y655586D01*
X141592Y657907D01*
X147655Y657907D01*
X153257Y655586D01*
X157544Y651299D01*
X159864Y645697D01*
X159864Y639634D01*
X157544Y634033D01*
X153257Y629745D01*
X147655Y627425D01*
X141592Y627425D01*
G37*
%LPD*%
%LPC*%
G36*
X141592Y576625D02*
X141592Y576625D01*
X135990Y578945D01*
X131703Y583233D01*
X129383Y588834D01*
X129383Y594897D01*
X131703Y600499D01*
X135990Y604786D01*
X141592Y607107D01*
X147655Y607107D01*
X153257Y604786D01*
X157544Y600499D01*
X159864Y594897D01*
X159864Y588834D01*
X157544Y583233D01*
X153257Y578945D01*
X147655Y576625D01*
X141592Y576625D01*
G37*
%LPD*%
%LPC*%
G36*
X209173Y865212D02*
X209173Y865212D01*
X202031Y872355D01*
X202031Y882455D01*
X209173Y889598D01*
X219274Y889598D01*
X226416Y882455D01*
X226416Y872355D01*
X219274Y865212D01*
X209173Y865212D01*
G37*
%LPD*%
%LPC*%
G36*
X259973Y814412D02*
X259973Y814412D01*
X252831Y821555D01*
X252831Y831655D01*
X259973Y838798D01*
X270074Y838798D01*
X277216Y831655D01*
X277216Y821555D01*
X270074Y814412D01*
X259973Y814412D01*
G37*
%LPD*%
%LPC*%
G36*
X209173Y636612D02*
X209173Y636612D01*
X202031Y643755D01*
X202031Y653855D01*
X209173Y660998D01*
X219274Y660998D01*
X226416Y653855D01*
X226416Y643755D01*
X219274Y636612D01*
X209173Y636612D01*
G37*
%LPD*%
%LPC*%
G36*
X259973Y585812D02*
X259973Y585812D01*
X252831Y592955D01*
X252831Y603055D01*
X259973Y610198D01*
X270074Y610198D01*
X277216Y603055D01*
X277216Y592955D01*
X270074Y585812D01*
X259973Y585812D01*
G37*
%LPD*%
D10*
X154500Y167250D03*
D11*
X154200Y167250D03*
D12*
X153900Y167250D03*
D13*
X153600Y167250D03*
D14*
X153300Y167250D03*
D15*
X153000Y167250D03*
D16*
X152700Y167250D03*
D17*
X152400Y167400D03*
D18*
X152100Y167250D03*
D19*
X151800Y167400D03*
D20*
X151500Y162900D03*
D21*
X151500Y173400D03*
D22*
X151200Y162150D03*
D23*
X151200Y174150D03*
D24*
X150900Y161700D03*
D25*
X150900Y174750D03*
D26*
X150600Y161250D03*
D27*
X150600Y175200D03*
D11*
X150300Y160950D03*
D10*
X150300Y175650D03*
D11*
X150000Y160650D03*
D10*
X150000Y175950D03*
D11*
X149700Y160350D03*
D10*
X149700Y176250D03*
D11*
X149400Y160050D03*
D28*
X149400Y176700D03*
D11*
X149100Y159750D03*
D28*
X149100Y177000D03*
D29*
X149100Y190650D03*
D30*
X149100Y201300D03*
D31*
X149100Y232350D03*
X149100Y249450D03*
D29*
X149100Y269250D03*
D30*
X149100Y279900D03*
D32*
X149100Y301650D03*
D31*
X149100Y324750D03*
X149100Y339450D03*
D33*
X149100Y357000D03*
D34*
X148800Y159600D03*
D28*
X148800Y177300D03*
D25*
X148800Y190650D03*
D10*
X148800Y201750D03*
D28*
X148800Y232500D03*
D10*
X148800Y249750D03*
D25*
X148800Y269250D03*
D10*
X148800Y280350D03*
D35*
X148800Y301800D03*
D28*
X148800Y324900D03*
D10*
X148800Y339750D03*
D23*
X148800Y357150D03*
D34*
X148500Y159300D03*
D28*
X148500Y177600D03*
D36*
X148500Y190950D03*
D23*
X148500Y202050D03*
X148500Y218550D03*
D25*
X148500Y232650D03*
D23*
X148500Y249750D03*
D36*
X148500Y269550D03*
D23*
X148500Y280650D03*
D26*
X148500Y301950D03*
D37*
X148500Y325200D03*
X148500Y339900D03*
D38*
X148500Y357450D03*
X148200Y159150D03*
D28*
X148200Y177900D03*
D34*
X148200Y191100D03*
D36*
X148200Y202350D03*
D37*
X148200Y218700D03*
D21*
X148200Y232800D03*
D36*
X148200Y250050D03*
D34*
X148200Y269700D03*
D36*
X148200Y280950D03*
D12*
X148200Y301950D03*
D21*
X148200Y325200D03*
D36*
X148200Y340050D03*
D24*
X148200Y357600D03*
D38*
X147900Y158850D03*
D32*
X147900Y178050D03*
D26*
X147900Y191250D03*
D38*
X147900Y202650D03*
D23*
X147900Y218850D03*
D35*
X147900Y233100D03*
D34*
X147900Y250200D03*
D26*
X147900Y269850D03*
D38*
X147900Y281250D03*
D39*
X147900Y302100D03*
D35*
X147900Y325500D03*
D38*
X147900Y340350D03*
D12*
X147900Y357750D03*
D34*
X147600Y158700D03*
D32*
X147600Y178350D03*
D22*
X147600Y191250D03*
D11*
X147600Y202950D03*
D23*
X147600Y218850D03*
D34*
X147600Y233100D03*
D40*
X147600Y250500D03*
D22*
X147600Y269850D03*
D11*
X147600Y281550D03*
D13*
X147600Y302250D03*
D34*
X147600Y325800D03*
D11*
X147600Y340350D03*
D39*
X147600Y357900D03*
D38*
X147300Y158550D03*
D32*
X147300Y178650D03*
D12*
X147300Y191550D03*
D40*
X147300Y203100D03*
D23*
X147300Y218850D03*
D40*
X147300Y233400D03*
D22*
X147300Y250650D03*
D12*
X147300Y270150D03*
D40*
X147300Y281700D03*
D41*
X147300Y302250D03*
D40*
X147300Y325800D03*
D26*
X147300Y340650D03*
D42*
X147300Y358050D03*
D34*
X147000Y158400D03*
D32*
X147000Y178950D03*
D43*
X147000Y191550D03*
D24*
X147000Y203400D03*
D37*
X147000Y219000D03*
D26*
X147000Y233550D03*
D20*
X147000Y250800D03*
D43*
X147000Y270150D03*
D24*
X147000Y282000D03*
D44*
X147000Y302400D03*
D26*
X147000Y325950D03*
D22*
X147000Y340950D03*
D45*
X147000Y358200D03*
D38*
X146700Y158250D03*
D33*
X146700Y179100D03*
D42*
X146700Y191850D03*
D22*
X146700Y203550D03*
D23*
X146700Y219150D03*
D22*
X146700Y233850D03*
D46*
X146700Y251100D03*
D42*
X146700Y270450D03*
D22*
X146700Y282150D03*
D47*
X146700Y302400D03*
D24*
X146700Y326100D03*
D20*
X146700Y341100D03*
D48*
X146700Y358500D03*
D38*
X146400Y158250D03*
D33*
X146400Y179400D03*
D13*
X146400Y191850D03*
D20*
X146400Y204000D03*
D23*
X146400Y219150D03*
D20*
X146400Y234000D03*
D43*
X146400Y251250D03*
D13*
X146400Y270450D03*
D20*
X146400Y282600D03*
D35*
X146400Y298800D03*
D23*
X146400Y306750D03*
D20*
X146400Y326400D03*
D12*
X146400Y341250D03*
D14*
X146400Y358650D03*
D38*
X146100Y157950D03*
D33*
X146100Y179400D03*
D41*
X146100Y192150D03*
D12*
X146100Y204150D03*
D23*
X146100Y219150D03*
D12*
X146100Y234150D03*
D42*
X146100Y251550D03*
D41*
X146100Y270750D03*
D12*
X146100Y282750D03*
D21*
X146100Y298500D03*
D37*
X146100Y307200D03*
D12*
X146100Y326550D03*
D43*
X146100Y341550D03*
D47*
X146100Y358800D03*
D38*
X145800Y157950D03*
D29*
X145800Y179550D03*
D48*
X145800Y192300D03*
D46*
X145800Y204300D03*
D37*
X145800Y219300D03*
D46*
X145800Y234300D03*
D49*
X145800Y251700D03*
D48*
X145800Y270900D03*
D46*
X145800Y282900D03*
D21*
X145800Y298200D03*
D25*
X145800Y307650D03*
D12*
X145800Y326850D03*
D39*
X145800Y341700D03*
D15*
X145800Y358950D03*
D38*
X145500Y157650D03*
D29*
X145500Y179850D03*
D44*
X145500Y192300D03*
D43*
X145500Y204450D03*
D37*
X145500Y219300D03*
D43*
X145500Y234450D03*
D13*
X145500Y251850D03*
D44*
X145500Y270900D03*
D43*
X145500Y283050D03*
D37*
X145500Y297900D03*
D25*
X145500Y307950D03*
D46*
X145500Y327000D03*
D42*
X145500Y341850D03*
D50*
X145500Y359100D03*
D38*
X145200Y157650D03*
D31*
X145200Y179850D03*
D51*
X145200Y192450D03*
D42*
X145200Y204750D03*
D23*
X145200Y219450D03*
X145200Y232350D03*
D32*
X145200Y238050D03*
D41*
X145200Y252150D03*
D51*
X145200Y271050D03*
D42*
X145200Y283350D03*
D37*
X145200Y297900D03*
D25*
X145200Y308250D03*
D43*
X145200Y327150D03*
D49*
X145200Y342000D03*
D52*
X145200Y359400D03*
D38*
X144900Y157650D03*
D53*
X144900Y180000D03*
D34*
X144900Y189600D03*
D17*
X144900Y202500D03*
D23*
X144900Y219450D03*
X144900Y232350D03*
D32*
X144900Y238350D03*
D35*
X144900Y249600D03*
D27*
X144900Y255900D03*
D34*
X144900Y268200D03*
D17*
X144900Y281100D03*
D37*
X144900Y297600D03*
D27*
X144900Y308700D03*
D23*
X144900Y325050D03*
D29*
X144900Y330750D03*
D23*
X144900Y339450D03*
D10*
X144900Y345750D03*
D40*
X144900Y355800D03*
D23*
X144900Y364050D03*
D35*
X144600Y157500D03*
D54*
X144600Y179850D03*
D38*
X144600Y189450D03*
D39*
X144600Y200400D03*
D28*
X144600Y208500D03*
D37*
X144600Y219600D03*
D23*
X144600Y232350D03*
D33*
X144600Y238800D03*
D21*
X144600Y249300D03*
D27*
X144600Y256500D03*
D38*
X144600Y268050D03*
D39*
X144600Y279000D03*
D28*
X144600Y287100D03*
D37*
X144600Y297600D03*
D25*
X144600Y308850D03*
D23*
X144600Y325050D03*
D29*
X144600Y331050D03*
D23*
X144600Y339450D03*
D10*
X144600Y346050D03*
D34*
X144600Y355500D03*
D25*
X144600Y364650D03*
D38*
X144300Y157350D03*
D35*
X144300Y189300D03*
D46*
X144300Y200700D03*
D28*
X144300Y208800D03*
D37*
X144300Y219600D03*
D23*
X144300Y232350D03*
D33*
X144300Y239100D03*
D21*
X144300Y249300D03*
D10*
X144300Y256950D03*
D35*
X144300Y267900D03*
D46*
X144300Y279300D03*
D28*
X144300Y287400D03*
D25*
X144300Y297450D03*
X144300Y309150D03*
D23*
X144300Y325050D03*
D33*
X144300Y331500D03*
D37*
X144300Y339600D03*
D28*
X144300Y346500D03*
D38*
X144300Y355350D03*
D27*
X144300Y365100D03*
D38*
X144000Y157350D03*
D36*
X144000Y189150D03*
D20*
X144000Y201000D03*
D32*
X144000Y209250D03*
D23*
X144000Y219750D03*
X144000Y232350D03*
D33*
X144000Y239400D03*
D21*
X144000Y249300D03*
D28*
X144000Y257400D03*
D36*
X144000Y267750D03*
D20*
X144000Y279600D03*
D32*
X144000Y287850D03*
D25*
X144000Y297450D03*
X144000Y309450D03*
D23*
X144000Y325050D03*
D33*
X144000Y331800D03*
D37*
X144000Y339600D03*
D28*
X144000Y346800D03*
D38*
X144000Y355350D03*
D27*
X144000Y365400D03*
D38*
X143700Y157350D03*
D21*
X143700Y189000D03*
D22*
X143700Y201150D03*
D32*
X143700Y209550D03*
D23*
X143700Y219750D03*
X143700Y232350D03*
D33*
X143700Y239700D03*
D21*
X143700Y249300D03*
D10*
X143700Y257850D03*
D21*
X143700Y267600D03*
D22*
X143700Y279750D03*
D32*
X143700Y288150D03*
D25*
X143700Y297450D03*
X143700Y309750D03*
D37*
X143700Y325200D03*
D33*
X143700Y332100D03*
D37*
X143700Y339600D03*
D32*
X143700Y347250D03*
D35*
X143700Y355200D03*
D27*
X143700Y366000D03*
D35*
X143400Y157200D03*
D21*
X143400Y189000D03*
D26*
X143400Y201450D03*
D33*
X143400Y210000D03*
D37*
X143400Y219900D03*
X143400Y232500D03*
D33*
X143400Y240000D03*
D23*
X143400Y249450D03*
D28*
X143400Y258300D03*
D21*
X143400Y267600D03*
D26*
X143400Y280050D03*
D33*
X143400Y288600D03*
D25*
X143400Y297450D03*
X143400Y310050D03*
D23*
X143400Y325350D03*
D33*
X143400Y332400D03*
D37*
X143400Y339600D03*
D32*
X143400Y347550D03*
D35*
X143400Y355200D03*
D27*
X143400Y366300D03*
D38*
X143100Y157050D03*
D21*
X143100Y189000D03*
D40*
X143100Y201600D03*
D33*
X143100Y210300D03*
D37*
X143100Y219900D03*
X143100Y232500D03*
D33*
X143100Y240300D03*
D23*
X143100Y249450D03*
D28*
X143100Y258600D03*
D21*
X143100Y267600D03*
D40*
X143100Y280200D03*
D33*
X143100Y288900D03*
D25*
X143100Y297450D03*
D37*
X143100Y310200D03*
D23*
X143100Y325350D03*
D33*
X143100Y332700D03*
D23*
X143100Y339750D03*
D32*
X143100Y347850D03*
D35*
X143100Y355200D03*
D10*
X143100Y366750D03*
D38*
X142800Y157050D03*
D21*
X142800Y189000D03*
D11*
X142800Y201750D03*
D33*
X142800Y210600D03*
D23*
X142800Y220050D03*
X142800Y232650D03*
D29*
X142800Y240450D03*
D23*
X142800Y249450D03*
D28*
X142800Y259200D03*
D21*
X142800Y267600D03*
D11*
X142800Y280350D03*
D33*
X142800Y289200D03*
D25*
X142800Y297450D03*
X142800Y310350D03*
D23*
X142800Y325350D03*
D29*
X142800Y332850D03*
D23*
X142800Y339750D03*
D32*
X142800Y348150D03*
D35*
X142800Y355200D03*
D10*
X142800Y367050D03*
D38*
X142500Y157050D03*
D21*
X142500Y189000D03*
D34*
X142500Y201900D03*
D30*
X142500Y210600D03*
D23*
X142500Y220050D03*
X142500Y232650D03*
D31*
X142500Y240450D03*
D23*
X142500Y249450D03*
D28*
X142500Y259500D03*
D21*
X142500Y267600D03*
D34*
X142500Y280500D03*
D30*
X142500Y289200D03*
D25*
X142500Y297450D03*
D37*
X142500Y310500D03*
D23*
X142500Y325350D03*
D31*
X142500Y332850D03*
D37*
X142500Y339900D03*
D33*
X142500Y348600D03*
D36*
X142500Y355050D03*
D28*
X142500Y367500D03*
D38*
X142200Y157050D03*
D23*
X142200Y188850D03*
D34*
X142200Y202200D03*
D31*
X142200Y210750D03*
D37*
X142200Y220200D03*
X142200Y232800D03*
D53*
X142200Y240600D03*
D23*
X142200Y249450D03*
D32*
X142200Y259950D03*
D23*
X142200Y267450D03*
D34*
X142200Y280800D03*
D31*
X142200Y289350D03*
D25*
X142200Y297450D03*
D37*
X142200Y310800D03*
X142200Y325500D03*
D55*
X142200Y332850D03*
D37*
X142200Y339900D03*
D33*
X142200Y348900D03*
D36*
X142200Y355050D03*
D28*
X142200Y367800D03*
D35*
X141900Y156900D03*
D23*
X141900Y188850D03*
D38*
X141900Y202350D03*
D55*
X141900Y210750D03*
D37*
X141900Y220200D03*
X141900Y232800D03*
D54*
X141900Y240750D03*
D37*
X141900Y249600D03*
D28*
X141900Y260400D03*
D23*
X141900Y267450D03*
D38*
X141900Y280950D03*
D55*
X141900Y289350D03*
D25*
X141900Y297450D03*
D37*
X141900Y310800D03*
D23*
X141900Y325650D03*
D54*
X141900Y332850D03*
D23*
X141900Y340050D03*
D33*
X141900Y349200D03*
D36*
X141900Y355050D03*
D28*
X141900Y368100D03*
D35*
X141600Y156900D03*
D23*
X141600Y188850D03*
D38*
X141600Y202350D03*
D54*
X141600Y210750D03*
D37*
X141600Y220200D03*
D23*
X141600Y232950D03*
X141600Y249750D03*
D32*
X141600Y260550D03*
D23*
X141600Y267450D03*
D38*
X141600Y280950D03*
D54*
X141600Y289350D03*
D25*
X141600Y297450D03*
D37*
X141600Y311100D03*
D23*
X141600Y325650D03*
X141600Y340050D03*
D29*
X141600Y349350D03*
D36*
X141600Y355050D03*
D32*
X141600Y368250D03*
D35*
X141300Y156900D03*
D23*
X141300Y188850D03*
D35*
X141300Y202500D03*
D23*
X141300Y220350D03*
X141300Y232950D03*
X141300Y249750D03*
D33*
X141300Y260700D03*
D23*
X141300Y267450D03*
D35*
X141300Y281100D03*
D25*
X141300Y297450D03*
D23*
X141300Y311250D03*
X141300Y325650D03*
X141300Y340050D03*
D31*
X141300Y349350D03*
D36*
X141300Y355050D03*
D29*
X141300Y368550D03*
D38*
X141000Y156750D03*
D37*
X141000Y189000D03*
D36*
X141000Y202650D03*
D37*
X141000Y220500D03*
X141000Y233100D03*
D23*
X141000Y249750D03*
D31*
X141000Y260850D03*
D37*
X141000Y267600D03*
D36*
X141000Y281250D03*
D25*
X141000Y297450D03*
D37*
X141000Y311400D03*
X141000Y325800D03*
X141000Y340200D03*
D55*
X141000Y349350D03*
D36*
X141000Y355050D03*
D31*
X141000Y368550D03*
D38*
X140700Y156750D03*
D37*
X140700Y189000D03*
D36*
X140700Y202650D03*
D37*
X140700Y220500D03*
X140700Y233100D03*
D23*
X140700Y249750D03*
D55*
X140700Y260850D03*
D37*
X140700Y267600D03*
D36*
X140700Y281250D03*
D25*
X140700Y297450D03*
D23*
X140700Y311550D03*
X140700Y325950D03*
X140700Y340350D03*
D54*
X140700Y349350D03*
D36*
X140700Y355050D03*
D55*
X140700Y368550D03*
D38*
X140400Y156750D03*
D37*
X140400Y189000D03*
D36*
X140400Y202950D03*
D37*
X140400Y220500D03*
D23*
X140400Y233250D03*
D37*
X140400Y249900D03*
D54*
X140400Y260850D03*
D37*
X140400Y267600D03*
D36*
X140400Y281550D03*
D25*
X140400Y297750D03*
D37*
X140400Y311700D03*
D23*
X140400Y325950D03*
X140400Y340350D03*
D21*
X140400Y355200D03*
D54*
X140400Y368550D03*
D38*
X140100Y156750D03*
D37*
X140100Y189000D03*
D21*
X140100Y203100D03*
D23*
X140100Y220650D03*
X140100Y233250D03*
X140100Y250050D03*
D37*
X140100Y267600D03*
D21*
X140100Y281700D03*
D25*
X140100Y297750D03*
D23*
X140100Y311850D03*
X140100Y325950D03*
X140100Y340350D03*
D21*
X140100Y355200D03*
D38*
X139800Y156750D03*
D23*
X139800Y189150D03*
D21*
X139800Y203100D03*
D23*
X139800Y220650D03*
D37*
X139800Y233400D03*
D23*
X139800Y250050D03*
X139800Y267750D03*
D21*
X139800Y281700D03*
D25*
X139800Y297750D03*
D37*
X139800Y312000D03*
D23*
X139800Y325950D03*
D37*
X139800Y340500D03*
D36*
X139800Y355350D03*
D38*
X139500Y156750D03*
D37*
X139500Y189300D03*
D23*
X139500Y203250D03*
D37*
X139500Y220800D03*
D23*
X139500Y233550D03*
X139500Y250050D03*
D37*
X139500Y267900D03*
D23*
X139500Y281850D03*
D25*
X139500Y297750D03*
D23*
X139500Y312150D03*
X139500Y326250D03*
X139500Y340650D03*
D36*
X139500Y355350D03*
D38*
X139200Y156750D03*
D37*
X139200Y189300D03*
D21*
X139200Y203400D03*
D37*
X139200Y220800D03*
D23*
X139200Y233550D03*
D37*
X139200Y250200D03*
X139200Y267900D03*
D21*
X139200Y282000D03*
D25*
X139200Y297750D03*
D37*
X139200Y312300D03*
D23*
X139200Y326250D03*
X139200Y340650D03*
D36*
X139200Y355350D03*
D38*
X138900Y156750D03*
D37*
X138900Y189300D03*
D23*
X138900Y203550D03*
D37*
X138900Y220800D03*
D23*
X138900Y233550D03*
X138900Y250350D03*
D37*
X138900Y267900D03*
D23*
X138900Y282150D03*
D25*
X138900Y297750D03*
D23*
X138900Y312450D03*
X138900Y326250D03*
X138900Y340650D03*
D36*
X138900Y355350D03*
D38*
X138600Y156750D03*
D25*
X138600Y189450D03*
D23*
X138600Y203550D03*
X138600Y220950D03*
D37*
X138600Y233700D03*
D23*
X138600Y250350D03*
D25*
X138600Y268050D03*
D23*
X138600Y282150D03*
D25*
X138600Y298050D03*
D23*
X138600Y312450D03*
D37*
X138600Y326400D03*
D23*
X138600Y340650D03*
D21*
X138600Y355500D03*
D38*
X138300Y156750D03*
D25*
X138300Y189450D03*
D23*
X138300Y203550D03*
D37*
X138300Y221100D03*
D23*
X138300Y233850D03*
X138300Y250350D03*
D25*
X138300Y268050D03*
D23*
X138300Y282150D03*
D25*
X138300Y298050D03*
D23*
X138300Y312750D03*
X138300Y326550D03*
D37*
X138300Y340800D03*
D21*
X138300Y355500D03*
D38*
X138000Y156750D03*
D25*
X138000Y189450D03*
D37*
X138000Y203700D03*
X138000Y221100D03*
D23*
X138000Y233850D03*
D37*
X138000Y250500D03*
D25*
X138000Y268050D03*
D37*
X138000Y282300D03*
D25*
X138000Y298050D03*
D23*
X138000Y312750D03*
X138000Y326550D03*
X138000Y340950D03*
D36*
X138000Y355650D03*
D38*
X137700Y156750D03*
D25*
X137700Y189750D03*
D23*
X137700Y203850D03*
D37*
X137700Y221100D03*
X137700Y234000D03*
D23*
X137700Y250650D03*
D25*
X137700Y268350D03*
D23*
X137700Y282450D03*
D25*
X137700Y298050D03*
D21*
X137700Y312900D03*
D23*
X137700Y326550D03*
X137700Y340950D03*
D38*
X137700Y355950D03*
X137400Y156750D03*
D25*
X137400Y189750D03*
D23*
X137400Y203850D03*
X137400Y221250D03*
X137400Y234150D03*
X137400Y250650D03*
D25*
X137400Y268350D03*
D23*
X137400Y282450D03*
D37*
X137400Y298200D03*
D23*
X137400Y313050D03*
D37*
X137400Y326700D03*
D23*
X137400Y340950D03*
D34*
X137400Y356400D03*
D38*
X137100Y156750D03*
D25*
X137100Y189750D03*
D37*
X137100Y204000D03*
D23*
X137100Y221250D03*
X137100Y234150D03*
X137100Y250650D03*
D25*
X137100Y268350D03*
D37*
X137100Y282600D03*
D25*
X137100Y298350D03*
D23*
X137100Y313050D03*
X137100Y326850D03*
D37*
X137100Y341100D03*
D26*
X137100Y356850D03*
D38*
X136800Y156750D03*
D27*
X136800Y189900D03*
D37*
X136800Y204000D03*
X136800Y221400D03*
D23*
X136800Y234150D03*
D37*
X136800Y250800D03*
D27*
X136800Y268500D03*
D37*
X136800Y282600D03*
D25*
X136800Y298350D03*
D21*
X136800Y313200D03*
D23*
X136800Y326850D03*
X136800Y341250D03*
D22*
X136800Y357150D03*
D35*
X136500Y156900D03*
D25*
X136500Y190050D03*
D23*
X136500Y204150D03*
D37*
X136500Y221400D03*
D23*
X136500Y234450D03*
X136500Y250950D03*
D25*
X136500Y268650D03*
D23*
X136500Y282750D03*
D25*
X136500Y298350D03*
D23*
X136500Y313350D03*
X136500Y326850D03*
X136500Y341250D03*
D12*
X136500Y357450D03*
D35*
X136200Y156900D03*
D27*
X136200Y190200D03*
D37*
X136200Y204300D03*
D23*
X136200Y221550D03*
X136200Y234450D03*
X136200Y250950D03*
D27*
X136200Y268800D03*
D37*
X136200Y282900D03*
X136200Y298500D03*
D21*
X136200Y313500D03*
D23*
X136200Y327150D03*
X136200Y341250D03*
D46*
X136200Y357900D03*
D35*
X135900Y156900D03*
D27*
X135900Y190200D03*
D37*
X135900Y204300D03*
D23*
X135900Y221550D03*
X135900Y234450D03*
X135900Y250950D03*
D27*
X135900Y268800D03*
D37*
X135900Y282900D03*
D25*
X135900Y298650D03*
D21*
X135900Y313500D03*
D23*
X135900Y327150D03*
D37*
X135900Y341400D03*
D39*
X135900Y358200D03*
D35*
X135600Y156900D03*
D27*
X135600Y190500D03*
D37*
X135600Y204300D03*
X135600Y221700D03*
D23*
X135600Y234750D03*
X135600Y251250D03*
D27*
X135600Y269100D03*
D37*
X135600Y282900D03*
D25*
X135600Y298650D03*
D21*
X135600Y313500D03*
D23*
X135600Y327150D03*
X135600Y341550D03*
D49*
X135600Y358500D03*
D35*
X135300Y156900D03*
D27*
X135300Y190500D03*
D37*
X135300Y204300D03*
D23*
X135300Y221850D03*
X135300Y234750D03*
X135300Y251250D03*
D27*
X135300Y269100D03*
D37*
X135300Y282900D03*
X135300Y298800D03*
D23*
X135300Y313650D03*
D37*
X135300Y327300D03*
D23*
X135300Y341550D03*
D13*
X135300Y358950D03*
D35*
X135000Y156900D03*
D10*
X135000Y190650D03*
D37*
X135000Y204600D03*
D23*
X135000Y221850D03*
X135000Y234750D03*
X135000Y251250D03*
D10*
X135000Y269250D03*
D37*
X135000Y283200D03*
X135000Y298800D03*
D21*
X135000Y313800D03*
D23*
X135000Y327450D03*
X135000Y341550D03*
D41*
X135000Y359250D03*
D38*
X134700Y157050D03*
D27*
X134700Y190800D03*
D37*
X134700Y204600D03*
D23*
X134700Y221850D03*
X134700Y235050D03*
X134700Y251250D03*
D27*
X134700Y269400D03*
D37*
X134700Y283200D03*
X134700Y298800D03*
D21*
X134700Y313800D03*
D23*
X134700Y327450D03*
D37*
X134700Y341700D03*
D23*
X134700Y356250D03*
X134700Y362850D03*
D38*
X134400Y157050D03*
D10*
X134400Y190950D03*
D37*
X134400Y204600D03*
D21*
X134400Y222000D03*
D23*
X134400Y235050D03*
X134400Y251550D03*
D10*
X134400Y269550D03*
D37*
X134400Y283200D03*
X134400Y299100D03*
D21*
X134400Y313800D03*
D23*
X134400Y327450D03*
X134400Y341850D03*
D37*
X134400Y356400D03*
D23*
X134400Y363450D03*
D35*
X134100Y157200D03*
D10*
X134100Y190950D03*
D37*
X134100Y204600D03*
D23*
X134100Y222150D03*
X134100Y235050D03*
X134100Y251550D03*
D10*
X134100Y269550D03*
D37*
X134100Y283200D03*
X134100Y299100D03*
D21*
X134100Y313800D03*
D23*
X134100Y327750D03*
X134100Y341850D03*
X134100Y356550D03*
X134100Y364050D03*
D35*
X133800Y157200D03*
D10*
X133800Y191250D03*
D37*
X133800Y204900D03*
D21*
X133800Y222300D03*
D23*
X133800Y235350D03*
X133800Y251550D03*
D10*
X133800Y269850D03*
D37*
X133800Y283500D03*
D23*
X133800Y299250D03*
D21*
X133800Y314100D03*
D23*
X133800Y327750D03*
X133800Y341850D03*
D37*
X133800Y356700D03*
D23*
X133800Y364350D03*
D35*
X133500Y157200D03*
D10*
X133500Y191250D03*
D37*
X133500Y204900D03*
D21*
X133500Y222300D03*
D23*
X133500Y235350D03*
D37*
X133500Y251700D03*
D10*
X133500Y269850D03*
D37*
X133500Y283500D03*
D23*
X133500Y299250D03*
D21*
X133500Y314100D03*
D23*
X133500Y327750D03*
D37*
X133500Y342000D03*
X133500Y356700D03*
D23*
X133500Y364950D03*
D35*
X133200Y157200D03*
D10*
X133200Y191550D03*
D37*
X133200Y204900D03*
D36*
X133200Y222450D03*
D23*
X133200Y235350D03*
X133200Y251850D03*
D10*
X133200Y270150D03*
D37*
X133200Y283500D03*
D23*
X133200Y299550D03*
D21*
X133200Y314100D03*
D37*
X133200Y327900D03*
D23*
X133200Y342150D03*
D25*
X133200Y356850D03*
D23*
X133200Y365250D03*
D38*
X132900Y157350D03*
D28*
X132900Y191700D03*
D37*
X132900Y204900D03*
D21*
X132900Y222600D03*
D23*
X132900Y235650D03*
X132900Y251850D03*
D28*
X132900Y270300D03*
D37*
X132900Y283500D03*
D23*
X132900Y299550D03*
D21*
X132900Y314100D03*
D23*
X132900Y328050D03*
X132900Y342150D03*
D37*
X132900Y357000D03*
D23*
X132900Y365850D03*
D35*
X132600Y157500D03*
D10*
X132600Y191850D03*
D37*
X132600Y205200D03*
D36*
X132600Y222750D03*
D23*
X132600Y235650D03*
X132600Y251850D03*
D10*
X132600Y270450D03*
D37*
X132600Y283800D03*
D23*
X132600Y299550D03*
D21*
X132600Y314100D03*
D23*
X132600Y328050D03*
X132600Y342150D03*
D25*
X132600Y357150D03*
D23*
X132600Y366150D03*
D35*
X132300Y157500D03*
D28*
X132300Y192000D03*
D37*
X132300Y205200D03*
D36*
X132300Y222750D03*
D23*
X132300Y235650D03*
D37*
X132300Y252000D03*
D28*
X132300Y270600D03*
D37*
X132300Y283800D03*
D21*
X132300Y299700D03*
D36*
X132300Y314250D03*
D23*
X132300Y328050D03*
D37*
X132300Y342300D03*
D25*
X132300Y357150D03*
D37*
X132300Y366600D03*
D35*
X132000Y157500D03*
D10*
X132000Y192150D03*
D37*
X132000Y205200D03*
D35*
X132000Y222900D03*
D21*
X132000Y235800D03*
D23*
X132000Y252150D03*
D10*
X132000Y270750D03*
D37*
X132000Y283800D03*
D21*
X132000Y299700D03*
D36*
X132000Y314250D03*
D23*
X132000Y328350D03*
X132000Y342450D03*
D25*
X132000Y357450D03*
D37*
X132000Y366900D03*
D36*
X131700Y157650D03*
D28*
X131700Y192300D03*
D37*
X131700Y205500D03*
D35*
X131700Y223200D03*
D23*
X131700Y235950D03*
X131700Y252150D03*
D28*
X131700Y270900D03*
D37*
X131700Y284100D03*
D21*
X131700Y300000D03*
D36*
X131700Y314250D03*
D23*
X131700Y328350D03*
X131700Y342450D03*
D25*
X131700Y357450D03*
D37*
X131700Y367200D03*
D35*
X131400Y157800D03*
D28*
X131400Y192600D03*
D37*
X131400Y205500D03*
D38*
X131400Y223350D03*
D23*
X131400Y235950D03*
X131400Y252150D03*
D28*
X131400Y271200D03*
D37*
X131400Y284100D03*
D21*
X131400Y300000D03*
D36*
X131400Y314250D03*
D23*
X131400Y328350D03*
X131400Y342450D03*
D27*
X131400Y357600D03*
D37*
X131400Y367500D03*
D35*
X131100Y157800D03*
D32*
X131100Y192750D03*
D37*
X131100Y205500D03*
D34*
X131100Y223500D03*
D21*
X131100Y236100D03*
D37*
X131100Y252300D03*
D32*
X131100Y271350D03*
D37*
X131100Y284100D03*
D36*
X131100Y300150D03*
X131100Y314250D03*
D23*
X131100Y328650D03*
D37*
X131100Y342600D03*
D25*
X131100Y357750D03*
D37*
X131100Y367800D03*
D35*
X130800Y157800D03*
D28*
X130800Y192900D03*
D37*
X130800Y205500D03*
D11*
X130800Y223650D03*
D23*
X130800Y236250D03*
X130800Y252450D03*
D28*
X130800Y271500D03*
D37*
X130800Y284100D03*
D36*
X130800Y300150D03*
X130800Y314250D03*
D23*
X130800Y328650D03*
D37*
X130800Y342600D03*
D27*
X130800Y357900D03*
D37*
X130800Y368100D03*
D36*
X130500Y157950D03*
D28*
X130500Y193200D03*
D37*
X130500Y205800D03*
D11*
X130500Y223650D03*
D23*
X130500Y236250D03*
X130500Y252450D03*
D28*
X130500Y271800D03*
D37*
X130500Y284400D03*
D36*
X130500Y300450D03*
X130500Y314250D03*
D23*
X130500Y328650D03*
X130500Y342750D03*
D27*
X130500Y357900D03*
D37*
X130500Y368400D03*
D35*
X130200Y158100D03*
D32*
X130200Y193350D03*
D37*
X130200Y205800D03*
D11*
X130200Y223950D03*
D21*
X130200Y236400D03*
D23*
X130200Y252450D03*
D32*
X130200Y271950D03*
D37*
X130200Y284400D03*
D35*
X130200Y300600D03*
D36*
X130200Y314250D03*
D23*
X130200Y328650D03*
X130200Y342750D03*
D27*
X130200Y358200D03*
D23*
X130200Y368550D03*
D35*
X129900Y158100D03*
D32*
X129900Y193650D03*
D37*
X129900Y205800D03*
D56*
X129900Y216150D03*
D40*
X129900Y224100D03*
D21*
X129900Y236400D03*
D37*
X129900Y252600D03*
D32*
X129900Y272250D03*
D37*
X129900Y284400D03*
D35*
X129900Y300600D03*
D36*
X129900Y314250D03*
D57*
X129900Y322200D03*
D23*
X129900Y328950D03*
D37*
X129900Y342900D03*
D10*
X129900Y358350D03*
D37*
X129900Y368700D03*
D36*
X129600Y158250D03*
D32*
X129600Y193950D03*
D23*
X129600Y205950D03*
D55*
X129600Y216150D03*
D26*
X129600Y224250D03*
D23*
X129600Y236550D03*
X129600Y252750D03*
D32*
X129600Y272550D03*
D23*
X129600Y284550D03*
D38*
X129600Y300750D03*
D36*
X129600Y314250D03*
D55*
X129600Y322350D03*
D23*
X129600Y328950D03*
D37*
X129600Y342900D03*
D10*
X129600Y358350D03*
D37*
X129600Y369000D03*
D36*
X129300Y158250D03*
D28*
X129300Y194100D03*
D37*
X129300Y206100D03*
D53*
X129300Y216300D03*
D22*
X129300Y224550D03*
D23*
X129300Y236550D03*
X129300Y252750D03*
D28*
X129300Y272700D03*
D37*
X129300Y284700D03*
D34*
X129300Y300900D03*
D36*
X129300Y314250D03*
D31*
X129300Y322350D03*
D23*
X129300Y328950D03*
X129300Y343050D03*
D10*
X129300Y358650D03*
D37*
X129300Y369000D03*
D36*
X129000Y158550D03*
D32*
X129000Y194250D03*
D37*
X129000Y206100D03*
D30*
X129000Y216300D03*
D22*
X129000Y224850D03*
D21*
X129000Y236700D03*
D23*
X129000Y252750D03*
D32*
X129000Y272850D03*
D37*
X129000Y284700D03*
D38*
X129000Y301050D03*
D36*
X129000Y314250D03*
D33*
X129000Y322200D03*
D23*
X129000Y329250D03*
X129000Y343050D03*
D10*
X129000Y358650D03*
D23*
X129000Y369150D03*
D36*
X128700Y158550D03*
D32*
X128700Y194550D03*
D37*
X128700Y206100D03*
D30*
X128700Y216300D03*
D20*
X128700Y225000D03*
D21*
X128700Y236700D03*
D23*
X128700Y253050D03*
D32*
X128700Y273150D03*
D37*
X128700Y284700D03*
D34*
X128700Y301200D03*
D35*
X128700Y314100D03*
D32*
X128700Y322350D03*
D23*
X128700Y329250D03*
D37*
X128700Y343200D03*
D10*
X128700Y358950D03*
D37*
X128700Y369300D03*
D36*
X128400Y158550D03*
D32*
X128400Y194850D03*
D23*
X128400Y206250D03*
D29*
X128400Y216450D03*
D12*
X128400Y225150D03*
D23*
X128400Y236850D03*
X128400Y253050D03*
D32*
X128400Y273450D03*
D23*
X128400Y284850D03*
D11*
X128400Y301350D03*
D35*
X128400Y314100D03*
D32*
X128400Y322650D03*
D23*
X128400Y329250D03*
D37*
X128400Y343200D03*
D28*
X128400Y359100D03*
D23*
X128400Y369450D03*
D36*
X128100Y158850D03*
D32*
X128100Y195150D03*
D37*
X128100Y206400D03*
D29*
X128100Y216750D03*
D43*
X128100Y225450D03*
D21*
X128100Y237000D03*
D23*
X128100Y253050D03*
D32*
X128100Y273750D03*
D37*
X128100Y285000D03*
D40*
X128100Y301500D03*
D35*
X128100Y314100D03*
D32*
X128100Y322950D03*
D37*
X128100Y329400D03*
D23*
X128100Y343350D03*
D28*
X128100Y359400D03*
D23*
X128100Y369450D03*
D36*
X127800Y158850D03*
D28*
X127800Y195600D03*
D37*
X127800Y206400D03*
D33*
X127800Y217200D03*
D37*
X127800Y223200D03*
D33*
X127800Y228900D03*
D21*
X127800Y237000D03*
D23*
X127800Y253050D03*
D28*
X127800Y274200D03*
D37*
X127800Y285000D03*
D40*
X127800Y301800D03*
D38*
X127800Y313950D03*
D32*
X127800Y323250D03*
D23*
X127800Y329550D03*
X127800Y343350D03*
D28*
X127800Y359400D03*
D23*
X127800Y369450D03*
D36*
X127500Y159150D03*
D28*
X127500Y195900D03*
D23*
X127500Y206550D03*
D33*
X127500Y217500D03*
D25*
X127500Y223350D03*
D32*
X127500Y229350D03*
D21*
X127500Y237000D03*
D23*
X127500Y253350D03*
D28*
X127500Y274500D03*
D23*
X127500Y285150D03*
D26*
X127500Y301950D03*
D38*
X127500Y313950D03*
D32*
X127500Y323550D03*
D23*
X127500Y329550D03*
D37*
X127500Y343500D03*
D28*
X127500Y359700D03*
D23*
X127500Y369450D03*
D36*
X127200Y159150D03*
D10*
X127200Y196350D03*
D37*
X127200Y206700D03*
D33*
X127200Y217800D03*
D37*
X127200Y223500D03*
D32*
X127200Y229650D03*
D21*
X127200Y237000D03*
D23*
X127200Y253350D03*
D10*
X127200Y274950D03*
D37*
X127200Y285300D03*
D24*
X127200Y302100D03*
D34*
X127200Y313800D03*
D32*
X127200Y323850D03*
D23*
X127200Y329550D03*
D37*
X127200Y343500D03*
D32*
X127200Y359850D03*
D21*
X127200Y369600D03*
X126900Y159300D03*
D25*
X126900Y196950D03*
D37*
X126900Y206700D03*
D29*
X126900Y218250D03*
D37*
X126900Y223500D03*
D28*
X126900Y230100D03*
D36*
X126900Y237150D03*
D23*
X126900Y253350D03*
D25*
X126900Y275550D03*
D37*
X126900Y285300D03*
D22*
X126900Y302250D03*
D38*
X126900Y313650D03*
D32*
X126900Y324150D03*
D21*
X126900Y329700D03*
D23*
X126900Y343650D03*
D32*
X126900Y360150D03*
D21*
X126900Y369600D03*
D36*
X126600Y159450D03*
D37*
X126600Y197700D03*
D35*
X126600Y206400D03*
D12*
X126600Y221550D03*
D10*
X126600Y230850D03*
D35*
X126600Y237000D03*
D23*
X126600Y253350D03*
D37*
X126600Y276300D03*
D35*
X126600Y285000D03*
D12*
X126600Y302550D03*
D34*
X126600Y313500D03*
D39*
X126600Y327600D03*
D23*
X126600Y343650D03*
D32*
X126600Y360450D03*
D36*
X126600Y369450D03*
X126300Y159450D03*
D52*
X126300Y202500D03*
D20*
X126300Y221700D03*
D45*
X126300Y234600D03*
D58*
X126300Y254250D03*
D52*
X126300Y281100D03*
D12*
X126300Y302850D03*
D11*
X126300Y313350D03*
D43*
X126300Y327750D03*
D37*
X126300Y343800D03*
D28*
X126300Y360600D03*
D36*
X126300Y369450D03*
X126000Y159750D03*
D59*
X126000Y202650D03*
D20*
X126000Y222000D03*
D13*
X126000Y234750D03*
D58*
X126000Y254250D03*
D59*
X126000Y281250D03*
D39*
X126000Y303300D03*
D40*
X126000Y313200D03*
D46*
X126000Y327900D03*
D37*
X126000Y343800D03*
D28*
X126000Y360900D03*
D35*
X126000Y369300D03*
D36*
X125700Y159750D03*
D50*
X125700Y202800D03*
D22*
X125700Y222150D03*
D49*
X125700Y234900D03*
D58*
X125700Y254250D03*
D50*
X125700Y281400D03*
D60*
X125700Y307500D03*
D46*
X125700Y328200D03*
D23*
X125700Y343950D03*
D28*
X125700Y361200D03*
D36*
X125700Y369150D03*
D21*
X125400Y159900D03*
D15*
X125400Y203250D03*
D24*
X125400Y222300D03*
D39*
X125400Y235200D03*
D61*
X125400Y254400D03*
D15*
X125400Y281850D03*
D60*
X125400Y307500D03*
D12*
X125400Y328350D03*
D23*
X125400Y343950D03*
D28*
X125400Y361500D03*
D35*
X125400Y369000D03*
D21*
X125100Y160200D03*
D47*
X125100Y203400D03*
D26*
X125100Y222450D03*
D46*
X125100Y235500D03*
D58*
X125100Y254550D03*
D47*
X125100Y282000D03*
D37*
X125100Y301200D03*
D41*
X125100Y310950D03*
D20*
X125100Y328500D03*
D37*
X125100Y344100D03*
D28*
X125100Y362100D03*
D34*
X125100Y368700D03*
D21*
X124800Y160200D03*
D30*
X124800Y183600D03*
D44*
X124800Y203700D03*
D11*
X124800Y222750D03*
D12*
X124800Y235650D03*
D58*
X124800Y254550D03*
D44*
X124800Y282300D03*
D37*
X124800Y301200D03*
D13*
X124800Y310950D03*
D22*
X124800Y328650D03*
D37*
X124800Y344100D03*
D48*
X124800Y366300D03*
D21*
X124500Y160500D03*
D30*
X124500Y183600D03*
D14*
X124500Y204150D03*
D11*
X124500Y223050D03*
D22*
X124500Y235950D03*
D61*
X124500Y254700D03*
D14*
X124500Y282750D03*
D23*
X124500Y301350D03*
D42*
X124500Y310950D03*
D26*
X124500Y328950D03*
D37*
X124500Y344100D03*
D45*
X124500Y366300D03*
D21*
X124200Y160500D03*
D30*
X124200Y183600D03*
D41*
X124200Y204450D03*
D34*
X124200Y223200D03*
D26*
X124200Y235950D03*
D61*
X124200Y254700D03*
D41*
X124200Y283050D03*
D23*
X124200Y301350D03*
D43*
X124200Y311250D03*
D26*
X124200Y329250D03*
D23*
X124200Y344250D03*
D49*
X124200Y366300D03*
D21*
X123900Y160800D03*
D31*
X123900Y183750D03*
D13*
X123900Y204750D03*
D35*
X123900Y223500D03*
D40*
X123900Y236100D03*
D37*
X123900Y254100D03*
D13*
X123900Y283350D03*
D23*
X123900Y301350D03*
D12*
X123900Y311250D03*
D11*
X123900Y329550D03*
D37*
X123900Y344400D03*
D39*
X123900Y366600D03*
D21*
X123600Y160800D03*
D31*
X123600Y183750D03*
D42*
X123600Y205350D03*
D36*
X123600Y223650D03*
D34*
X123600Y236400D03*
D23*
X123600Y254250D03*
D42*
X123600Y283950D03*
D37*
X123600Y301500D03*
D24*
X123600Y311400D03*
D34*
X123600Y329700D03*
D37*
X123600Y344400D03*
D12*
X123600Y366750D03*
D21*
X123300Y161100D03*
D31*
X123300Y183750D03*
D12*
X123300Y205950D03*
D23*
X123300Y223950D03*
D36*
X123300Y236550D03*
D23*
X123300Y254250D03*
D12*
X123300Y284550D03*
D23*
X123300Y301650D03*
D11*
X123300Y311550D03*
D36*
X123300Y329850D03*
D37*
X123300Y344400D03*
D24*
X123300Y366900D03*
D23*
X123000Y161250D03*
D31*
X123000Y183750D03*
D38*
X123000Y207150D03*
D25*
X123000Y224250D03*
D37*
X123000Y236700D03*
D23*
X123000Y254250D03*
D38*
X123000Y285750D03*
D23*
X123000Y301650D03*
D35*
X123000Y311700D03*
D37*
X123000Y330000D03*
D23*
X123000Y344550D03*
D11*
X123000Y367050D03*
D21*
X122700Y161400D03*
D31*
X122700Y183750D03*
D29*
X122700Y208950D03*
D32*
X122700Y224550D03*
D28*
X122700Y237000D03*
D37*
X122700Y254400D03*
D29*
X122700Y287550D03*
D23*
X122700Y301650D03*
D25*
X122700Y311850D03*
D10*
X122700Y330450D03*
D23*
X122700Y344550D03*
D21*
X122700Y367200D03*
D23*
X122400Y161550D03*
D30*
X122400Y183900D03*
D29*
X122400Y209250D03*
D55*
X122400Y224850D03*
X122400Y237150D03*
D23*
X122400Y254550D03*
D29*
X122400Y287850D03*
D37*
X122400Y301800D03*
D53*
X122400Y312000D03*
X122400Y330600D03*
D37*
X122400Y344700D03*
D31*
X122400Y367350D03*
D23*
X122100Y161850D03*
D30*
X122100Y183900D03*
X122100Y209400D03*
D23*
X122100Y254550D03*
D30*
X122100Y288000D03*
D23*
X122100Y301950D03*
D37*
X122100Y344700D03*
D21*
X121800Y162000D03*
D30*
X121800Y183900D03*
D31*
X121800Y209550D03*
D23*
X121800Y254550D03*
D31*
X121800Y288150D03*
D23*
X121800Y301950D03*
X121800Y344850D03*
X121500Y162150D03*
D30*
X121500Y183900D03*
D57*
X121500Y210300D03*
D37*
X121500Y254700D03*
D57*
X121500Y288900D03*
D23*
X121500Y301950D03*
D37*
X121500Y345000D03*
D23*
X121200Y162450D03*
D30*
X121200Y183900D03*
D23*
X121200Y254850D03*
X121200Y301950D03*
D37*
X121200Y345000D03*
D21*
X120900Y162600D03*
D30*
X120900Y183900D03*
D23*
X120900Y254850D03*
D37*
X120900Y302100D03*
X120900Y345000D03*
D23*
X120600Y162750D03*
D30*
X120600Y183900D03*
D37*
X120600Y255000D03*
D23*
X120600Y302250D03*
X120600Y345150D03*
X120300Y163050D03*
D29*
X120300Y184050D03*
D23*
X120300Y255150D03*
X120300Y302250D03*
D37*
X120300Y345300D03*
D23*
X120000Y163350D03*
D29*
X120000Y184050D03*
D23*
X120000Y255150D03*
X120000Y302250D03*
D37*
X120000Y345300D03*
X119700Y163500D03*
D29*
X119700Y184050D03*
D23*
X119700Y255150D03*
D37*
X119700Y302400D03*
X119700Y345300D03*
D23*
X119400Y163650D03*
D29*
X119400Y184050D03*
D37*
X119400Y255300D03*
D23*
X119400Y302550D03*
X119400Y345450D03*
X119100Y163950D03*
D33*
X119100Y183900D03*
D23*
X119100Y255450D03*
X119100Y302550D03*
D37*
X119100Y345600D03*
D23*
X118800Y164250D03*
D32*
X118800Y184050D03*
D23*
X118800Y255450D03*
X118800Y302550D03*
D37*
X118800Y345600D03*
D23*
X118500Y164550D03*
D32*
X118500Y184050D03*
D23*
X118500Y255450D03*
D37*
X118500Y302700D03*
X118500Y345600D03*
X118200Y164700D03*
D32*
X118200Y184050D03*
D37*
X118200Y255600D03*
D23*
X118200Y302850D03*
D37*
X118200Y345600D03*
X117900Y165000D03*
D32*
X117900Y184050D03*
D23*
X117900Y255750D03*
X117900Y302850D03*
D37*
X117900Y345900D03*
X117600Y165300D03*
D28*
X117600Y184200D03*
D23*
X117600Y255750D03*
X117600Y302850D03*
D37*
X117600Y345900D03*
X117300Y165600D03*
D10*
X117300Y184050D03*
D25*
X117300Y256050D03*
D37*
X117300Y303000D03*
X117300Y345900D03*
X117000Y165900D03*
D10*
X117000Y184050D03*
D28*
X117000Y256500D03*
D37*
X117000Y303000D03*
D25*
X117000Y346050D03*
D23*
X116700Y166350D03*
D27*
X116700Y184200D03*
D32*
X116700Y256950D03*
D23*
X116700Y303150D03*
D37*
X116700Y346200D03*
D23*
X116400Y166650D03*
D25*
X116400Y184050D03*
D29*
X116400Y257250D03*
D37*
X116400Y303300D03*
X116400Y346200D03*
X116100Y167100D03*
D25*
X116100Y184050D03*
D31*
X116100Y257550D03*
D37*
X116100Y303300D03*
D25*
X116100Y346350D03*
D37*
X115800Y167400D03*
D23*
X115800Y184050D03*
D62*
X115800Y258000D03*
D37*
X115800Y303300D03*
D25*
X115800Y346350D03*
D23*
X115500Y167850D03*
D21*
X115500Y183900D03*
D57*
X115500Y258300D03*
D37*
X115500Y303600D03*
X115500Y346500D03*
X115200Y168300D03*
D21*
X115200Y183900D03*
D37*
X115200Y303600D03*
D25*
X115200Y346650D03*
D23*
X114900Y168750D03*
D35*
X114900Y183900D03*
D37*
X114900Y303600D03*
D25*
X114900Y346650D03*
D21*
X114600Y169200D03*
D38*
X114600Y183750D03*
D25*
X114600Y303750D03*
D53*
X114600Y333000D03*
D25*
X114600Y346650D03*
D21*
X114300Y169800D03*
D40*
X114300Y183600D03*
D37*
X114300Y303900D03*
D33*
X114300Y333000D03*
D25*
X114300Y346950D03*
D36*
X114000Y170250D03*
D26*
X114000Y183450D03*
D25*
X114000Y304050D03*
D10*
X114000Y333150D03*
D25*
X114000Y346950D03*
D35*
X113700Y171000D03*
D40*
X113700Y182700D03*
D25*
X113700Y304050D03*
X113700Y333150D03*
X113700Y346950D03*
D38*
X113400Y171750D03*
D26*
X113400Y181950D03*
D27*
X113400Y304200D03*
D23*
X113400Y333150D03*
D25*
X113400Y347250D03*
D63*
X113100Y177000D03*
D25*
X113100Y304350D03*
D23*
X113100Y333150D03*
D25*
X113100Y347250D03*
D16*
X112800Y176850D03*
D27*
X112800Y304500D03*
D21*
X112800Y333300D03*
D27*
X112800Y347400D03*
D47*
X112500Y176700D03*
D27*
X112500Y304500D03*
D21*
X112500Y333300D03*
D27*
X112500Y347400D03*
D41*
X112200Y176850D03*
D27*
X112200Y304800D03*
D36*
X112200Y333450D03*
D27*
X112200Y347700D03*
D43*
X111900Y176850D03*
D27*
X111900Y304800D03*
D36*
X111900Y333450D03*
D27*
X111900Y347700D03*
D11*
X111600Y176850D03*
D10*
X111600Y304950D03*
D36*
X111600Y333450D03*
D10*
X111600Y347850D03*
D29*
X111300Y176850D03*
D10*
X111300Y305250D03*
D36*
X111300Y333450D03*
D10*
X111300Y348150D03*
X111000Y305250D03*
D21*
X111000Y333600D03*
D10*
X111000Y348150D03*
D28*
X110700Y305400D03*
D21*
X110700Y333600D03*
D10*
X110700Y348450D03*
D28*
X110400Y305700D03*
D23*
X110400Y333750D03*
D28*
X110400Y348600D03*
D32*
X110100Y305850D03*
D37*
X110100Y333600D03*
D28*
X110100Y348900D03*
X109800Y306000D03*
D25*
X109800Y333750D03*
D28*
X109800Y348900D03*
X109500Y306300D03*
D10*
X109500Y333750D03*
D28*
X109500Y349200D03*
X109200Y306600D03*
D29*
X109200Y314850D03*
D32*
X109200Y333750D03*
D28*
X109200Y349500D03*
D33*
X109200Y358200D03*
D10*
X108900Y307050D03*
D36*
X108900Y314250D03*
D55*
X108900Y333750D03*
D10*
X108900Y349950D03*
D21*
X108900Y357600D03*
D44*
X108600Y311400D03*
D47*
X108600Y354600D03*
D44*
X108300Y311700D03*
D47*
X108300Y354900D03*
D44*
X108000Y312000D03*
D51*
X108000Y355050D03*
D48*
X107700Y312300D03*
D44*
X107700Y355500D03*
D41*
X107400Y312450D03*
D14*
X107400Y355650D03*
D45*
X107100Y312600D03*
D48*
X107100Y355800D03*
D49*
X106800Y312900D03*
D45*
X106800Y356100D03*
D42*
X106500Y313050D03*
D49*
X106500Y356400D03*
D43*
X106200Y313350D03*
D39*
X106200Y356400D03*
D20*
X105900Y313500D03*
D12*
X105900Y356850D03*
D26*
X105600Y313650D03*
D24*
X105600Y357000D03*
D38*
X105300Y313950D03*
D34*
X105300Y357300D03*
D23*
X105000Y314250D03*
D21*
X105000Y357600D03*
D31*
X104700Y314550D03*
X104700Y358050D03*
D64*
X527274Y561205D03*
X527274Y533205D03*
D65*
X557754Y559245D03*
X557754Y540245D03*
D66*
X353919Y786600D03*
D67*
X353919Y837400D03*
D66*
X355824Y552920D03*
D67*
X355824Y603720D03*
D68*
X456150Y790981D03*
X473150Y790981D03*
X454880Y558571D03*
X471880Y558571D03*
D69*
X599029Y817080D03*
D70*
X599029Y781520D03*
D69*
X598394Y620865D03*
D70*
X598394Y585305D03*
D68*
X502995Y791616D03*
X485995Y791616D03*
D65*
X569184Y749110D03*
X569184Y730110D03*
D64*
X534894Y752340D03*
X534894Y724340D03*
D68*
X502995Y558571D03*
X485995Y558571D03*
D65*
X527845Y839674D03*
X527845Y820674D03*
D71*
X511995Y868274D03*
X530995Y868274D03*
D65*
X527845Y611074D03*
X527845Y592074D03*
D71*
X511995Y639674D03*
X530995Y639674D03*
D72*
X501175Y817220D03*
X501175Y823570D03*
X501175Y830174D03*
X501175Y836778D03*
X501175Y843128D03*
D73*
X489999Y854304D03*
X483649Y854304D03*
X477045Y854304D03*
X470441Y854304D03*
X464091Y854304D03*
D72*
X452915Y843128D03*
X452915Y836778D03*
X452915Y830174D03*
X452915Y823570D03*
X452915Y817220D03*
D73*
X464091Y806044D03*
X470441Y806044D03*
X477045Y806044D03*
X483649Y806044D03*
X489999Y806044D03*
D74*
X477045Y830174D03*
D72*
X501175Y588620D03*
X501175Y594970D03*
X501175Y601574D03*
X501175Y608178D03*
X501175Y614528D03*
D73*
X489999Y625704D03*
X483649Y625704D03*
X477045Y625704D03*
X470441Y625704D03*
X464091Y625704D03*
D72*
X452915Y614528D03*
X452915Y608178D03*
X452915Y601574D03*
X452915Y594970D03*
X452915Y588620D03*
D73*
X464091Y577444D03*
X470441Y577444D03*
X477045Y577444D03*
X483649Y577444D03*
X489999Y577444D03*
D74*
X477045Y601574D03*
D75*
X145640Y824276D03*
X145640Y773476D03*
X144624Y642666D03*
X144624Y591866D03*
D76*
X440914Y593495D03*
X440914Y610495D03*
X440324Y823320D03*
X440324Y840320D03*
X546895Y593074D03*
X546895Y610074D03*
X546895Y821674D03*
X546895Y838674D03*
D77*
X214224Y826605D03*
D78*
X214224Y877405D03*
X265024Y877405D03*
X265024Y826605D03*
D77*
X214224Y598005D03*
D78*
X214224Y648805D03*
X265024Y648805D03*
X265024Y598005D03*
D64*
X221209Y543425D03*
X221209Y515425D03*
X211049Y769485D03*
X211049Y741485D03*
D65*
X242799Y767525D03*
X242799Y748525D03*
X252959Y535750D03*
X252959Y516750D03*
D79*
X303525Y676275D03*
X430525Y676275D03*
D80*
X406395Y714375D03*
X330195Y714375D03*
D81*
X290825Y714375D03*
D82*
X317500Y228600D03*
X342900Y228600D03*
X393700Y304800D03*
X368300Y304800D03*
X368300Y228600D03*
X393700Y228600D03*
X342900Y304800D03*
X317500Y304800D03*
D83*
X368300Y203200D03*
X368300Y101600D03*
D84*
X342900Y190500D03*
X241300Y190500D03*
D83*
X368300Y431800D03*
X368300Y330200D03*
D84*
X342900Y101600D03*
X241300Y101600D03*
D85*
X368300Y38100D03*
X317500Y38100D03*
X419100Y431800D03*
X419100Y342900D03*
D86*
X266700Y144300D03*
X317500Y144300D03*
D75*
X332600Y410300D03*
D87*
X281800Y410300D03*
D75*
X481900Y162600D03*
D87*
X431100Y162600D03*
D86*
X281300Y341000D03*
X332100Y341000D03*
D88*
X482600Y228600D03*
X431800Y228600D03*
D89*
X353919Y786600D02*
X362237Y788441D01*
X214224Y789076D02*
X214224Y826605D01*
X214224Y789076D02*
X215900Y787400D01*
D90*
X447922Y830174D02*
X452915Y830174D01*
X447922Y830174D02*
X446481Y831614D01*
X434166Y831614D01*
X432530Y829978D01*
X448496Y812800D02*
X452915Y817220D01*
X432530Y802585D02*
X432532Y802477D01*
X432537Y802368D01*
X432547Y802260D01*
X432560Y802153D01*
X432576Y802046D01*
X432596Y801939D01*
X432620Y801833D01*
X432648Y801728D01*
X432679Y801625D01*
X432713Y801522D01*
X432751Y801420D01*
X432793Y801320D01*
X432838Y801221D01*
X432886Y801124D01*
X432937Y801029D01*
X432992Y800935D01*
X433050Y800844D01*
X433111Y800754D01*
X433175Y800667D01*
X433242Y800581D01*
X433312Y800498D01*
X433385Y800418D01*
X433460Y800340D01*
X433700Y800100D01*
X432530Y802585D02*
X432530Y829978D01*
D91*
X489999Y577444D02*
X497365Y577444D01*
X502445Y582524D01*
X502445Y587350D01*
X501175Y588620D01*
X525799Y588620D01*
X527845Y592074D01*
D92*
X342900Y330200D02*
X342900Y304800D01*
X342900Y330200D02*
X332100Y341000D01*
X332100Y409800D01*
X332600Y410300D01*
X332600Y446900D01*
X355600Y469900D01*
X660400Y469900D01*
X673100Y482600D01*
X673100Y558800D01*
X660400Y571500D01*
X635000Y571500D01*
D93*
X530995Y614224D02*
X530995Y639674D01*
X530995Y614224D02*
X527845Y611074D01*
X545895Y611074D01*
X546895Y610074D01*
D94*
X508224Y601574D02*
X501175Y601574D01*
X508224Y601574D02*
X516250Y609600D01*
X526372Y609600D01*
X527845Y611074D01*
D93*
X530995Y842824D02*
X530995Y868274D01*
X530995Y842824D02*
X527845Y839674D01*
X545895Y839674D01*
X546895Y838674D01*
D94*
X508224Y830174D02*
X501175Y830174D01*
X508224Y830174D02*
X516250Y838200D01*
X526372Y838200D01*
X527845Y839674D01*
X452915Y594970D02*
X442388Y594970D01*
X440914Y593495D01*
X440573Y823570D02*
X452915Y823570D01*
X440573Y823570D02*
X440324Y823320D01*
D95*
X50000Y50000D03*
X700000Y50000D03*
X50000Y880000D03*
X700000Y880000D03*
D96*
X452915Y588620D02*
X464091Y577444D01*
D90*
X452915Y601574D02*
X447287Y601574D01*
X447071Y601789D01*
X434756Y601789D01*
X433120Y600153D01*
X433120Y600130D01*
X431160Y598170D01*
X450845Y582295D02*
X451480Y581660D01*
D89*
X214224Y598005D02*
X214224Y560476D01*
X215900Y558800D01*
D90*
X431160Y575355D02*
X431162Y575247D01*
X431167Y575138D01*
X431177Y575030D01*
X431190Y574923D01*
X431206Y574816D01*
X431226Y574709D01*
X431250Y574603D01*
X431278Y574498D01*
X431309Y574395D01*
X431343Y574292D01*
X431381Y574190D01*
X431423Y574090D01*
X431468Y573991D01*
X431516Y573894D01*
X431567Y573799D01*
X431622Y573705D01*
X431680Y573614D01*
X431741Y573524D01*
X431805Y573437D01*
X431872Y573351D01*
X431942Y573268D01*
X432015Y573188D01*
X432090Y573110D01*
X433700Y571500D01*
X431160Y575355D02*
X431160Y598170D01*
D97*
X470695Y607924D03*
X470695Y595224D03*
X457424Y515455D03*
X482824Y515455D03*
X482824Y540855D03*
X463774Y655155D03*
X539974Y655155D03*
X539974Y680555D03*
X565374Y680555D03*
X565374Y655155D03*
X483395Y595224D03*
X482824Y655155D03*
X482824Y680555D03*
X463774Y680555D03*
X438374Y655155D03*
X412974Y655155D03*
X387574Y655155D03*
X362174Y655155D03*
X387574Y629755D03*
X412974Y629755D03*
X432024Y515455D03*
X406624Y515455D03*
X381224Y515455D03*
X508224Y515455D03*
X584424Y515455D03*
X584424Y540855D03*
X609824Y540855D03*
X609824Y515455D03*
X635224Y515455D03*
X635224Y540855D03*
X590774Y655155D03*
X616174Y655155D03*
D91*
X525799Y817220D02*
X501175Y817220D01*
X525799Y817220D02*
X527845Y820674D01*
X497365Y806044D02*
X489999Y806044D01*
X497365Y806044D02*
X502445Y811124D01*
X502445Y815950D01*
X501175Y817220D01*
X483649Y625704D02*
X483649Y608178D01*
X483395Y607924D01*
D97*
X483395Y607924D03*
X483395Y836524D03*
D91*
X483649Y836778D02*
X483649Y854304D01*
X483649Y836778D02*
X483395Y836524D01*
D97*
X470695Y836524D03*
X470695Y823824D03*
X470124Y896455D03*
X362174Y896455D03*
X412974Y896455D03*
X387574Y896455D03*
X336774Y896455D03*
X482824Y744055D03*
X495524Y896455D03*
X482824Y763105D03*
X520924Y896455D03*
X483395Y823824D03*
X546324Y896455D03*
X571724Y896455D03*
X571724Y871055D03*
X597124Y871055D03*
X597124Y896455D03*
X622524Y896455D03*
X622524Y871055D03*
X444724Y896455D03*
X311374Y896455D03*
X311374Y871055D03*
X336774Y871055D03*
X362174Y871055D03*
X387574Y871055D03*
X412974Y871055D03*
X438374Y871055D03*
D92*
X431800Y228600D02*
X393700Y228600D01*
X431100Y203200D02*
X431100Y162600D01*
X431100Y203200D02*
X431100Y227900D01*
X431800Y228600D01*
X711200Y241300D02*
X711200Y774700D01*
X660400Y825500D01*
X622300Y825500D01*
X673100Y203200D02*
X431100Y203200D01*
X673100Y203200D02*
X711200Y241300D01*
M02*
