G04 EAGLE Gerber X2 export*
%TF.Part,Single*%
%TF.FileFunction,Copper,L2,Bot,Mixed*%
%TF.FilePolarity,Positive*%
%TF.GenerationSoftware,Autodesk,EAGLE,9.0.1*%
%TF.CreationDate,2018-08-29T03:15:35Z*%
G75*
%MOMM*%
%FSLAX34Y34*%
%LPD*%
%AMOC8*
5,1,8,0,0,1.08239X$1,22.5*%
G01*
%ADD10C,3.810000*%
%ADD11P,4.123906X8X112.500000*%
%ADD12P,1.732040X8X112.500000*%
%ADD13C,1.600200*%
%ADD14C,2.540000*%
%ADD15C,1.930400*%
%ADD16P,2.089446X8X112.500000*%
%ADD17P,2.364373X8X22.500000*%
%ADD18P,1.814519X8X202.500000*%
%ADD19P,2.336880X8X292.500000*%
%ADD20P,1.732040X8X22.500000*%
%ADD21P,1.924489X8X292.500000*%
%ADD22P,1.924489X8X202.500000*%
%ADD23P,3.409096X8X22.500000*%
%ADD24P,1.319650X8X22.500000*%
%ADD25P,2.749271X8X202.500000*%
%ADD26P,1.319650X8X202.500000*%
%ADD27C,2.000000*%
%ADD28C,4.216000*%
%ADD29C,0.904800*%
%ADD30C,1.016000*%
%ADD31C,1.270000*%
%ADD32C,2.540000*%

G36*
X272695Y704435D02*
X272695Y704435D01*
X272721Y704433D01*
X272868Y704455D01*
X273015Y704472D01*
X273040Y704480D01*
X273066Y704484D01*
X273204Y704539D01*
X273343Y704589D01*
X273365Y704603D01*
X273390Y704613D01*
X273511Y704697D01*
X273636Y704778D01*
X273654Y704797D01*
X273676Y704812D01*
X273775Y704922D01*
X273878Y705029D01*
X273892Y705051D01*
X273909Y705071D01*
X273981Y705201D01*
X274057Y705328D01*
X274065Y705353D01*
X274078Y705376D01*
X274118Y705519D01*
X274163Y705660D01*
X274165Y705686D01*
X274173Y705711D01*
X274192Y705955D01*
X274192Y734267D01*
X275383Y735458D01*
X431367Y735458D01*
X432558Y734267D01*
X432558Y705955D01*
X432561Y705929D01*
X432559Y705903D01*
X432581Y705756D01*
X432598Y705609D01*
X432606Y705584D01*
X432610Y705558D01*
X432665Y705420D01*
X432715Y705281D01*
X432729Y705259D01*
X432739Y705234D01*
X432824Y705113D01*
X432904Y704988D01*
X432923Y704970D01*
X432938Y704948D01*
X433048Y704849D01*
X433155Y704746D01*
X433177Y704732D01*
X433197Y704715D01*
X433327Y704643D01*
X433454Y704567D01*
X433479Y704559D01*
X433502Y704546D01*
X433645Y704506D01*
X433786Y704461D01*
X433812Y704458D01*
X433837Y704451D01*
X434081Y704432D01*
X647924Y704432D01*
X647950Y704435D01*
X647976Y704433D01*
X648123Y704455D01*
X648270Y704472D01*
X648294Y704480D01*
X648320Y704484D01*
X648458Y704539D01*
X648598Y704589D01*
X648620Y704603D01*
X648644Y704613D01*
X648766Y704697D01*
X648891Y704778D01*
X648909Y704797D01*
X648930Y704812D01*
X649030Y704922D01*
X649133Y705029D01*
X649146Y705051D01*
X649164Y705071D01*
X649236Y705201D01*
X649312Y705328D01*
X649320Y705353D01*
X649332Y705376D01*
X649373Y705519D01*
X649418Y705660D01*
X649420Y705686D01*
X649427Y705711D01*
X649447Y705955D01*
X649447Y915505D01*
X649444Y915531D01*
X649446Y915557D01*
X649424Y915704D01*
X649407Y915851D01*
X649398Y915876D01*
X649394Y915902D01*
X649339Y916040D01*
X649289Y916179D01*
X649275Y916201D01*
X649266Y916226D01*
X649181Y916347D01*
X649100Y916472D01*
X649082Y916490D01*
X649067Y916512D01*
X648957Y916611D01*
X648850Y916714D01*
X648827Y916728D01*
X648808Y916745D01*
X648678Y916817D01*
X648551Y916893D01*
X648526Y916901D01*
X648503Y916914D01*
X648360Y916954D01*
X648219Y916999D01*
X648193Y917001D01*
X648167Y917009D01*
X647924Y917028D01*
X99924Y917028D01*
X99897Y917025D01*
X99871Y917027D01*
X99725Y917005D01*
X99577Y916988D01*
X99553Y916979D01*
X99527Y916976D01*
X99389Y916921D01*
X99249Y916871D01*
X99227Y916857D01*
X99203Y916847D01*
X99081Y916762D01*
X98956Y916682D01*
X98938Y916663D01*
X98917Y916648D01*
X98818Y916538D01*
X98714Y916431D01*
X98701Y916409D01*
X98683Y916389D01*
X98612Y916259D01*
X98535Y916132D01*
X98527Y916107D01*
X98515Y916084D01*
X98474Y915941D01*
X98429Y915800D01*
X98427Y915774D01*
X98420Y915749D01*
X98400Y915505D01*
X98400Y705955D01*
X98403Y705929D01*
X98401Y705903D01*
X98423Y705756D01*
X98440Y705609D01*
X98449Y705584D01*
X98453Y705558D01*
X98508Y705420D01*
X98558Y705281D01*
X98572Y705259D01*
X98582Y705234D01*
X98666Y705113D01*
X98747Y704988D01*
X98766Y704970D01*
X98781Y704948D01*
X98890Y704849D01*
X98997Y704746D01*
X99020Y704732D01*
X99039Y704715D01*
X99169Y704643D01*
X99296Y704567D01*
X99321Y704559D01*
X99344Y704546D01*
X99487Y704506D01*
X99628Y704461D01*
X99655Y704458D01*
X99680Y704451D01*
X99924Y704432D01*
X272669Y704432D01*
X272695Y704435D01*
G37*
G36*
X647950Y494885D02*
X647950Y494885D01*
X647976Y494883D01*
X648123Y494905D01*
X648270Y494922D01*
X648294Y494930D01*
X648320Y494934D01*
X648458Y494989D01*
X648598Y495039D01*
X648620Y495053D01*
X648644Y495063D01*
X648766Y495147D01*
X648891Y495228D01*
X648909Y495247D01*
X648930Y495262D01*
X649030Y495372D01*
X649133Y495479D01*
X649146Y495501D01*
X649164Y495521D01*
X649236Y495651D01*
X649312Y495778D01*
X649320Y495803D01*
X649332Y495826D01*
X649373Y495969D01*
X649418Y496110D01*
X649420Y496136D01*
X649427Y496161D01*
X649447Y496405D01*
X649447Y699605D01*
X649444Y699631D01*
X649446Y699657D01*
X649424Y699804D01*
X649407Y699951D01*
X649398Y699976D01*
X649394Y700002D01*
X649339Y700140D01*
X649289Y700279D01*
X649275Y700301D01*
X649266Y700326D01*
X649181Y700447D01*
X649100Y700572D01*
X649082Y700590D01*
X649067Y700612D01*
X648957Y700711D01*
X648850Y700814D01*
X648827Y700828D01*
X648808Y700845D01*
X648678Y700917D01*
X648551Y700993D01*
X648526Y701001D01*
X648503Y701014D01*
X648360Y701054D01*
X648219Y701099D01*
X648193Y701101D01*
X648167Y701109D01*
X647924Y701128D01*
X434081Y701128D01*
X434055Y701125D01*
X434029Y701127D01*
X433882Y701105D01*
X433735Y701088D01*
X433710Y701079D01*
X433684Y701076D01*
X433546Y701021D01*
X433407Y700971D01*
X433385Y700957D01*
X433360Y700947D01*
X433239Y700862D01*
X433114Y700782D01*
X433096Y700763D01*
X433074Y700748D01*
X432975Y700638D01*
X432872Y700531D01*
X432858Y700509D01*
X432841Y700489D01*
X432769Y700359D01*
X432693Y700232D01*
X432685Y700207D01*
X432672Y700184D01*
X432632Y700041D01*
X432587Y699900D01*
X432585Y699874D01*
X432577Y699849D01*
X432558Y699605D01*
X432558Y694483D01*
X431367Y693292D01*
X351531Y693292D01*
X351505Y693289D01*
X351479Y693291D01*
X351332Y693269D01*
X351185Y693252D01*
X351160Y693244D01*
X351134Y693240D01*
X350996Y693185D01*
X350857Y693135D01*
X350835Y693121D01*
X350810Y693111D01*
X350689Y693026D01*
X350564Y692946D01*
X350546Y692927D01*
X350524Y692912D01*
X350425Y692802D01*
X350322Y692695D01*
X350308Y692673D01*
X350291Y692653D01*
X350219Y692523D01*
X350143Y692396D01*
X350135Y692371D01*
X350122Y692348D01*
X350082Y692205D01*
X350037Y692064D01*
X350035Y692038D01*
X350027Y692013D01*
X350008Y691769D01*
X350008Y662733D01*
X348817Y661542D01*
X275383Y661542D01*
X274192Y662733D01*
X274192Y699605D01*
X274189Y699631D01*
X274191Y699657D01*
X274169Y699804D01*
X274152Y699951D01*
X274144Y699976D01*
X274140Y700002D01*
X274085Y700140D01*
X274035Y700279D01*
X274021Y700301D01*
X274011Y700326D01*
X273926Y700447D01*
X273846Y700572D01*
X273827Y700590D01*
X273812Y700612D01*
X273702Y700711D01*
X273595Y700814D01*
X273573Y700828D01*
X273553Y700845D01*
X273423Y700917D01*
X273296Y700993D01*
X273271Y701001D01*
X273248Y701014D01*
X273105Y701054D01*
X272964Y701099D01*
X272938Y701101D01*
X272913Y701109D01*
X272669Y701128D01*
X99924Y701128D01*
X99897Y701125D01*
X99871Y701127D01*
X99725Y701105D01*
X99577Y701088D01*
X99553Y701079D01*
X99527Y701076D01*
X99389Y701021D01*
X99249Y700971D01*
X99227Y700957D01*
X99203Y700947D01*
X99081Y700862D01*
X98956Y700782D01*
X98938Y700763D01*
X98917Y700748D01*
X98818Y700638D01*
X98714Y700531D01*
X98701Y700509D01*
X98683Y700489D01*
X98612Y700359D01*
X98535Y700232D01*
X98527Y700207D01*
X98515Y700184D01*
X98474Y700041D01*
X98429Y699900D01*
X98427Y699874D01*
X98420Y699849D01*
X98400Y699605D01*
X98400Y496405D01*
X98403Y496379D01*
X98401Y496353D01*
X98423Y496206D01*
X98440Y496059D01*
X98449Y496034D01*
X98453Y496008D01*
X98508Y495870D01*
X98558Y495731D01*
X98572Y495709D01*
X98582Y495684D01*
X98666Y495563D01*
X98747Y495438D01*
X98766Y495420D01*
X98781Y495398D01*
X98890Y495299D01*
X98997Y495196D01*
X99020Y495182D01*
X99039Y495165D01*
X99169Y495093D01*
X99296Y495017D01*
X99321Y495009D01*
X99344Y494996D01*
X99487Y494956D01*
X99628Y494911D01*
X99655Y494908D01*
X99680Y494901D01*
X99924Y494882D01*
X647924Y494882D01*
X647950Y494885D01*
G37*
%LPC*%
G36*
X175306Y546259D02*
X175306Y546259D01*
X170696Y548169D01*
X142686Y576179D01*
X142587Y576258D01*
X142493Y576342D01*
X142451Y576366D01*
X142413Y576396D01*
X142299Y576450D01*
X142188Y576511D01*
X142141Y576524D01*
X142098Y576545D01*
X141974Y576571D01*
X141852Y576606D01*
X141792Y576610D01*
X141757Y576618D01*
X141709Y576617D01*
X141609Y576625D01*
X141592Y576625D01*
X135990Y578945D01*
X131703Y583233D01*
X129383Y588834D01*
X129383Y594897D01*
X131703Y600499D01*
X135990Y604786D01*
X141592Y607107D01*
X147655Y607107D01*
X153257Y604786D01*
X157544Y600499D01*
X159888Y594839D01*
X159899Y594804D01*
X159904Y594756D01*
X159947Y594637D01*
X159982Y594515D01*
X160005Y594473D01*
X160022Y594428D01*
X160090Y594321D01*
X160152Y594211D01*
X160191Y594165D01*
X160211Y594135D01*
X160245Y594101D01*
X160310Y594025D01*
X182548Y571787D01*
X182647Y571708D01*
X182741Y571624D01*
X182784Y571600D01*
X182821Y571570D01*
X182936Y571516D01*
X183046Y571455D01*
X183093Y571442D01*
X183136Y571421D01*
X183260Y571395D01*
X183382Y571360D01*
X183442Y571355D01*
X183477Y571348D01*
X183525Y571349D01*
X183625Y571341D01*
X248175Y571341D01*
X248300Y571355D01*
X248426Y571362D01*
X248473Y571375D01*
X248521Y571381D01*
X248640Y571423D01*
X248761Y571458D01*
X248803Y571482D01*
X248849Y571498D01*
X248955Y571567D01*
X249065Y571628D01*
X249112Y571668D01*
X249142Y571687D01*
X249175Y571722D01*
X249252Y571787D01*
X253713Y576248D01*
X253792Y576347D01*
X253876Y576441D01*
X253900Y576484D01*
X253930Y576521D01*
X253984Y576636D01*
X254045Y576746D01*
X254058Y576793D01*
X254079Y576836D01*
X254105Y576960D01*
X254140Y577082D01*
X254145Y577142D01*
X254152Y577177D01*
X254151Y577225D01*
X254159Y577325D01*
X254159Y590995D01*
X254145Y591121D01*
X254138Y591247D01*
X254125Y591293D01*
X254119Y591341D01*
X254077Y591460D01*
X254042Y591582D01*
X254018Y591624D01*
X254002Y591670D01*
X253933Y591776D01*
X253872Y591886D01*
X253832Y591932D01*
X253813Y591962D01*
X253778Y591996D01*
X253713Y592072D01*
X252831Y592955D01*
X252831Y594367D01*
X252831Y594369D01*
X252831Y594371D01*
X252810Y594547D01*
X252791Y594713D01*
X252790Y594715D01*
X252790Y594717D01*
X252715Y594950D01*
X252483Y595510D01*
X252483Y600499D01*
X252715Y601060D01*
X252715Y601062D01*
X252716Y601063D01*
X252763Y601228D01*
X252811Y601395D01*
X252811Y601397D01*
X252811Y601399D01*
X252831Y601643D01*
X252831Y603055D01*
X253830Y604054D01*
X253831Y604056D01*
X253833Y604057D01*
X253938Y604191D01*
X254046Y604327D01*
X254047Y604329D01*
X254049Y604331D01*
X254160Y604548D01*
X254392Y605109D01*
X257920Y608636D01*
X258480Y608868D01*
X258482Y608869D01*
X258484Y608870D01*
X258635Y608954D01*
X258785Y609038D01*
X258786Y609039D01*
X258788Y609040D01*
X258974Y609199D01*
X259973Y610198D01*
X261386Y610198D01*
X261388Y610198D01*
X261390Y610198D01*
X261566Y610218D01*
X261732Y610238D01*
X261734Y610238D01*
X261736Y610238D01*
X261969Y610314D01*
X262529Y610546D01*
X267518Y610546D01*
X268078Y610314D01*
X268080Y610313D01*
X268082Y610312D01*
X268247Y610265D01*
X268413Y610218D01*
X268416Y610218D01*
X268417Y610217D01*
X268661Y610198D01*
X270074Y610198D01*
X271073Y609199D01*
X271075Y609197D01*
X271076Y609196D01*
X271209Y609090D01*
X271346Y608982D01*
X271348Y608981D01*
X271349Y608980D01*
X271567Y608868D01*
X272127Y608636D01*
X277331Y603432D01*
X279241Y598823D01*
X279241Y569006D01*
X277331Y564396D01*
X261104Y548169D01*
X256494Y546259D01*
X175306Y546259D01*
G37*
%LPD*%
%LPC*%
G36*
X142608Y758235D02*
X142608Y758235D01*
X137006Y760555D01*
X132719Y764843D01*
X130399Y770444D01*
X130399Y776507D01*
X132719Y782109D01*
X137006Y786396D01*
X142608Y788717D01*
X148671Y788717D01*
X154308Y786382D01*
X154399Y786300D01*
X154442Y786276D01*
X154479Y786246D01*
X154594Y786192D01*
X154704Y786131D01*
X154751Y786118D01*
X154794Y786097D01*
X154918Y786071D01*
X155040Y786036D01*
X155100Y786031D01*
X155135Y786024D01*
X155183Y786025D01*
X155283Y786017D01*
X234250Y786017D01*
X234376Y786031D01*
X234502Y786038D01*
X234549Y786051D01*
X234597Y786057D01*
X234716Y786099D01*
X234837Y786134D01*
X234879Y786158D01*
X234925Y786174D01*
X235031Y786243D01*
X235141Y786304D01*
X235188Y786344D01*
X235218Y786363D01*
X235251Y786398D01*
X235328Y786463D01*
X253713Y804848D01*
X253792Y804947D01*
X253876Y805041D01*
X253900Y805084D01*
X253930Y805121D01*
X253984Y805236D01*
X254045Y805346D01*
X254058Y805393D01*
X254079Y805436D01*
X254105Y805560D01*
X254140Y805682D01*
X254145Y805742D01*
X254152Y805777D01*
X254151Y805825D01*
X254159Y805925D01*
X254159Y819595D01*
X254145Y819721D01*
X254138Y819847D01*
X254125Y819893D01*
X254119Y819941D01*
X254077Y820060D01*
X254042Y820182D01*
X254018Y820224D01*
X254002Y820269D01*
X253933Y820376D01*
X253872Y820486D01*
X253832Y820532D01*
X253813Y820562D01*
X253778Y820596D01*
X253713Y820672D01*
X252831Y821555D01*
X252831Y822967D01*
X252831Y822969D01*
X252831Y822971D01*
X252811Y823142D01*
X252791Y823313D01*
X252790Y823315D01*
X252790Y823317D01*
X252715Y823550D01*
X252483Y824110D01*
X252483Y829099D01*
X252715Y829660D01*
X252715Y829662D01*
X252716Y829663D01*
X252764Y829831D01*
X252811Y829995D01*
X252811Y829997D01*
X252811Y829999D01*
X252831Y830243D01*
X252831Y831655D01*
X253830Y832654D01*
X253831Y832656D01*
X253833Y832657D01*
X253940Y832794D01*
X254046Y832927D01*
X254047Y832929D01*
X254049Y832931D01*
X254160Y833148D01*
X254392Y833709D01*
X257920Y837236D01*
X258480Y837468D01*
X258482Y837469D01*
X258484Y837470D01*
X258634Y837554D01*
X258785Y837638D01*
X258786Y837639D01*
X258788Y837640D01*
X258974Y837799D01*
X259973Y838798D01*
X261386Y838798D01*
X261388Y838798D01*
X261390Y838798D01*
X261561Y838818D01*
X261732Y838838D01*
X261734Y838838D01*
X261736Y838838D01*
X261969Y838914D01*
X262529Y839146D01*
X267518Y839146D01*
X268078Y838914D01*
X268080Y838913D01*
X268082Y838912D01*
X268249Y838865D01*
X268413Y838818D01*
X268415Y838818D01*
X268417Y838817D01*
X268661Y838798D01*
X270074Y838798D01*
X271073Y837799D01*
X271075Y837797D01*
X271076Y837796D01*
X271212Y837688D01*
X271346Y837582D01*
X271348Y837581D01*
X271349Y837580D01*
X271567Y837468D01*
X272127Y837236D01*
X277331Y832032D01*
X279241Y827423D01*
X279241Y797606D01*
X277331Y792996D01*
X247180Y762844D01*
X242570Y760935D01*
X155283Y760935D01*
X155158Y760921D01*
X155032Y760914D01*
X154985Y760901D01*
X154937Y760895D01*
X154818Y760853D01*
X154697Y760818D01*
X154655Y760794D01*
X154609Y760778D01*
X154503Y760709D01*
X154393Y760648D01*
X154346Y760608D01*
X154316Y760589D01*
X154292Y760563D01*
X148671Y758235D01*
X142608Y758235D01*
G37*
%LPD*%
%LPC*%
G36*
X142608Y809035D02*
X142608Y809035D01*
X137006Y811355D01*
X132719Y815643D01*
X130399Y821244D01*
X130399Y827307D01*
X132719Y832909D01*
X137006Y837196D01*
X142608Y839517D01*
X148671Y839517D01*
X154306Y837183D01*
X154356Y837145D01*
X154472Y837053D01*
X154496Y837042D01*
X154517Y837027D01*
X154653Y836968D01*
X154787Y836904D01*
X154813Y836899D01*
X154837Y836889D01*
X154983Y836862D01*
X155128Y836831D01*
X155154Y836831D01*
X155180Y836827D01*
X155328Y836834D01*
X155476Y836837D01*
X155502Y836843D01*
X155528Y836845D01*
X155670Y836886D01*
X155814Y836922D01*
X155838Y836934D01*
X155863Y836941D01*
X155992Y837014D01*
X156124Y837082D01*
X156144Y837099D01*
X156167Y837111D01*
X156353Y837270D01*
X207120Y888036D01*
X207680Y888268D01*
X207682Y888269D01*
X207684Y888270D01*
X207835Y888354D01*
X207985Y888438D01*
X207986Y888439D01*
X207988Y888440D01*
X208174Y888599D01*
X209173Y889598D01*
X210586Y889598D01*
X210588Y889598D01*
X210590Y889598D01*
X210761Y889618D01*
X210932Y889638D01*
X210934Y889638D01*
X210936Y889638D01*
X211169Y889714D01*
X211729Y889946D01*
X216718Y889946D01*
X217278Y889714D01*
X217280Y889713D01*
X217282Y889712D01*
X217449Y889665D01*
X217613Y889618D01*
X217615Y889618D01*
X217617Y889617D01*
X217861Y889598D01*
X219274Y889598D01*
X220273Y888599D01*
X220275Y888597D01*
X220276Y888596D01*
X220409Y888490D01*
X220546Y888382D01*
X220548Y888381D01*
X220549Y888380D01*
X220767Y888268D01*
X221327Y888036D01*
X224855Y884509D01*
X225087Y883948D01*
X225088Y883947D01*
X225089Y883945D01*
X225173Y883794D01*
X225256Y883644D01*
X225258Y883642D01*
X225259Y883640D01*
X225417Y883454D01*
X226416Y882455D01*
X226416Y881043D01*
X226417Y881041D01*
X226416Y881038D01*
X226436Y880868D01*
X226456Y880696D01*
X226457Y880694D01*
X226457Y880692D01*
X226532Y880460D01*
X226764Y879899D01*
X226764Y874910D01*
X226532Y874350D01*
X226532Y874348D01*
X226531Y874346D01*
X226483Y874179D01*
X226437Y874015D01*
X226437Y874013D01*
X226436Y874011D01*
X226416Y873767D01*
X226416Y872355D01*
X225417Y871356D01*
X225416Y871354D01*
X225414Y871353D01*
X225309Y871219D01*
X225201Y871083D01*
X225200Y871081D01*
X225199Y871079D01*
X225087Y870861D01*
X224855Y870301D01*
X168198Y813644D01*
X163589Y811735D01*
X155283Y811735D01*
X155158Y811721D01*
X155032Y811714D01*
X154985Y811701D01*
X154937Y811695D01*
X154818Y811653D01*
X154697Y811618D01*
X154655Y811594D01*
X154609Y811578D01*
X154503Y811509D01*
X154393Y811448D01*
X154346Y811408D01*
X154316Y811389D01*
X154292Y811363D01*
X148671Y809035D01*
X142608Y809035D01*
G37*
%LPD*%
%LPC*%
G36*
X141592Y627425D02*
X141592Y627425D01*
X135990Y629745D01*
X131703Y634033D01*
X129383Y639634D01*
X129383Y645697D01*
X131703Y651299D01*
X135990Y655586D01*
X141627Y657921D01*
X141750Y657928D01*
X141796Y657941D01*
X141844Y657947D01*
X141963Y657989D01*
X142085Y658024D01*
X142127Y658048D01*
X142172Y658064D01*
X142279Y658133D01*
X142389Y658194D01*
X142435Y658234D01*
X142465Y658253D01*
X142499Y658288D01*
X142575Y658353D01*
X143659Y659436D01*
X148268Y661346D01*
X216718Y661346D01*
X217278Y661114D01*
X217280Y661113D01*
X217282Y661112D01*
X217449Y661065D01*
X217613Y661018D01*
X217615Y661018D01*
X217617Y661017D01*
X217861Y660998D01*
X219274Y660998D01*
X220273Y659999D01*
X220275Y659997D01*
X220276Y659996D01*
X220412Y659888D01*
X220546Y659782D01*
X220548Y659781D01*
X220549Y659780D01*
X220767Y659668D01*
X221327Y659436D01*
X224855Y655909D01*
X225087Y655348D01*
X225088Y655347D01*
X225089Y655345D01*
X225173Y655194D01*
X225256Y655044D01*
X225258Y655042D01*
X225259Y655041D01*
X225417Y654854D01*
X226416Y653855D01*
X226416Y652443D01*
X226417Y652441D01*
X226416Y652438D01*
X226436Y652268D01*
X226456Y652096D01*
X226457Y652094D01*
X226457Y652092D01*
X226532Y651860D01*
X226764Y651299D01*
X226764Y646310D01*
X226532Y645750D01*
X226532Y645748D01*
X226531Y645746D01*
X226483Y645579D01*
X226437Y645415D01*
X226437Y645413D01*
X226436Y645411D01*
X226416Y645167D01*
X226416Y643755D01*
X225417Y642756D01*
X225416Y642754D01*
X225414Y642753D01*
X225307Y642616D01*
X225201Y642483D01*
X225200Y642481D01*
X225199Y642479D01*
X225087Y642261D01*
X224855Y641701D01*
X221327Y638173D01*
X220767Y637941D01*
X220765Y637940D01*
X220763Y637940D01*
X220728Y637920D01*
X220699Y637910D01*
X220633Y637867D01*
X220611Y637855D01*
X220463Y637772D01*
X220461Y637771D01*
X220459Y637770D01*
X220273Y637611D01*
X219274Y636612D01*
X217861Y636612D01*
X217859Y636612D01*
X217857Y636612D01*
X217686Y636592D01*
X217515Y636572D01*
X217513Y636572D01*
X217511Y636571D01*
X217278Y636496D01*
X216718Y636264D01*
X159486Y636264D01*
X159410Y636255D01*
X159334Y636257D01*
X159238Y636236D01*
X159140Y636224D01*
X159068Y636199D01*
X158993Y636182D01*
X158905Y636140D01*
X158812Y636107D01*
X158748Y636065D01*
X158679Y636032D01*
X158602Y635971D01*
X158519Y635918D01*
X158466Y635863D01*
X158406Y635815D01*
X158345Y635738D01*
X158277Y635667D01*
X158238Y635602D01*
X158190Y635542D01*
X158122Y635408D01*
X158098Y635368D01*
X158092Y635350D01*
X158079Y635324D01*
X157544Y634033D01*
X153257Y629745D01*
X147655Y627425D01*
X141592Y627425D01*
G37*
%LPD*%
%LPC*%
G36*
X351529Y531329D02*
X351529Y531329D01*
X343593Y534616D01*
X337520Y540690D01*
X334233Y548625D01*
X334233Y557215D01*
X337520Y565150D01*
X343593Y571224D01*
X351529Y574511D01*
X360118Y574511D01*
X368054Y571224D01*
X374127Y565150D01*
X377414Y557215D01*
X377414Y548625D01*
X374127Y540690D01*
X368054Y534616D01*
X360118Y531329D01*
X351529Y531329D01*
G37*
%LPD*%
%LPC*%
G36*
X349624Y765009D02*
X349624Y765009D01*
X341688Y768296D01*
X335615Y774370D01*
X332328Y782305D01*
X332328Y790895D01*
X335615Y798830D01*
X341688Y804904D01*
X349624Y808191D01*
X358213Y808191D01*
X366149Y804904D01*
X372222Y798830D01*
X375509Y790895D01*
X375509Y782305D01*
X372222Y774370D01*
X366149Y768296D01*
X358213Y765009D01*
X349624Y765009D01*
G37*
%LPD*%
%LPC*%
G36*
X211798Y585812D02*
X211798Y585812D01*
X207317Y587668D01*
X203887Y591098D01*
X202031Y595580D01*
X202031Y600430D01*
X203887Y604912D01*
X207317Y608341D01*
X211798Y610198D01*
X216649Y610198D01*
X221130Y608341D01*
X224560Y604912D01*
X226416Y600430D01*
X226416Y595580D01*
X224560Y591098D01*
X221130Y587668D01*
X216649Y585812D01*
X211798Y585812D01*
G37*
%LPD*%
%LPC*%
G36*
X211798Y814412D02*
X211798Y814412D01*
X207317Y816268D01*
X203887Y819698D01*
X202031Y824180D01*
X202031Y829030D01*
X203887Y833512D01*
X207317Y836941D01*
X211798Y838798D01*
X216649Y838798D01*
X221130Y836941D01*
X224560Y833512D01*
X226416Y829030D01*
X226416Y824180D01*
X224560Y819698D01*
X221130Y816268D01*
X216649Y814412D01*
X211798Y814412D01*
G37*
%LPD*%
%LPC*%
G36*
X596932Y770978D02*
X596932Y770978D01*
X593057Y772583D01*
X590092Y775548D01*
X588487Y779423D01*
X588487Y783617D01*
X590092Y787491D01*
X593057Y790457D01*
X596932Y792062D01*
X601125Y792062D01*
X605000Y790457D01*
X607965Y787491D01*
X609570Y783617D01*
X609570Y779423D01*
X607965Y775548D01*
X605000Y772583D01*
X601125Y770978D01*
X596932Y770978D01*
G37*
%LPD*%
%LPC*%
G36*
X596297Y574763D02*
X596297Y574763D01*
X592422Y576368D01*
X589457Y579333D01*
X587852Y583208D01*
X587852Y587402D01*
X589457Y591276D01*
X592422Y594242D01*
X596297Y595847D01*
X600490Y595847D01*
X604365Y594242D01*
X607330Y591276D01*
X608935Y587402D01*
X608935Y583208D01*
X607330Y579333D01*
X604365Y576368D01*
X600490Y574763D01*
X596297Y574763D01*
G37*
%LPD*%
%LPC*%
G36*
X358871Y606767D02*
X358871Y606767D01*
X358871Y625311D01*
X364767Y625311D01*
X377414Y612663D01*
X377414Y606767D01*
X358871Y606767D01*
G37*
%LPD*%
%LPC*%
G36*
X356966Y840447D02*
X356966Y840447D01*
X356966Y858991D01*
X362862Y858991D01*
X375509Y846343D01*
X375509Y840447D01*
X356966Y840447D01*
G37*
%LPD*%
%LPC*%
G36*
X332328Y840447D02*
X332328Y840447D01*
X332328Y846343D01*
X344975Y858991D01*
X350871Y858991D01*
X350871Y840447D01*
X332328Y840447D01*
G37*
%LPD*%
%LPC*%
G36*
X334233Y606767D02*
X334233Y606767D01*
X334233Y612663D01*
X346880Y625311D01*
X352776Y625311D01*
X352776Y606767D01*
X334233Y606767D01*
G37*
%LPD*%
%LPC*%
G36*
X358871Y582129D02*
X358871Y582129D01*
X358871Y600673D01*
X377414Y600673D01*
X377414Y594777D01*
X364767Y582129D01*
X358871Y582129D01*
G37*
%LPD*%
%LPC*%
G36*
X356966Y815809D02*
X356966Y815809D01*
X356966Y834353D01*
X375509Y834353D01*
X375509Y828457D01*
X362862Y815809D01*
X356966Y815809D01*
G37*
%LPD*%
%LPC*%
G36*
X344975Y815809D02*
X344975Y815809D01*
X332328Y828457D01*
X332328Y834353D01*
X350871Y834353D01*
X350871Y815809D01*
X344975Y815809D01*
G37*
%LPD*%
%LPC*%
G36*
X346880Y582129D02*
X346880Y582129D01*
X334233Y594777D01*
X334233Y600673D01*
X352776Y600673D01*
X352776Y582129D01*
X346880Y582129D01*
G37*
%LPD*%
%LPC*%
G36*
X433524Y679274D02*
X433524Y679274D01*
X433524Y689738D01*
X436101Y689738D01*
X443988Y681851D01*
X443988Y679274D01*
X433524Y679274D01*
G37*
%LPD*%
%LPC*%
G36*
X417062Y679274D02*
X417062Y679274D01*
X417062Y681851D01*
X424949Y689738D01*
X427526Y689738D01*
X427526Y679274D01*
X417062Y679274D01*
G37*
%LPD*%
%LPC*%
G36*
X433524Y662812D02*
X433524Y662812D01*
X433524Y673276D01*
X443988Y673276D01*
X443988Y670699D01*
X436101Y662812D01*
X433524Y662812D01*
G37*
%LPD*%
%LPC*%
G36*
X424949Y662812D02*
X424949Y662812D01*
X417062Y670699D01*
X417062Y673276D01*
X427526Y673276D01*
X427526Y662812D01*
X424949Y662812D01*
G37*
%LPD*%
%LPC*%
G36*
X267563Y651344D02*
X267563Y651344D01*
X267563Y660998D01*
X270074Y660998D01*
X277216Y653855D01*
X277216Y651344D01*
X267563Y651344D01*
G37*
%LPD*%
%LPC*%
G36*
X267563Y879944D02*
X267563Y879944D01*
X267563Y889598D01*
X270074Y889598D01*
X277216Y882455D01*
X277216Y879944D01*
X267563Y879944D01*
G37*
%LPD*%
%LPC*%
G36*
X252831Y651344D02*
X252831Y651344D01*
X252831Y653855D01*
X259973Y660998D01*
X262484Y660998D01*
X262484Y651344D01*
X252831Y651344D01*
G37*
%LPD*%
%LPC*%
G36*
X252831Y879944D02*
X252831Y879944D01*
X252831Y882455D01*
X259973Y889598D01*
X262484Y889598D01*
X262484Y879944D01*
X252831Y879944D01*
G37*
%LPD*%
%LPC*%
G36*
X267563Y636612D02*
X267563Y636612D01*
X267563Y646266D01*
X277216Y646266D01*
X277216Y643755D01*
X270074Y636612D01*
X267563Y636612D01*
G37*
%LPD*%
%LPC*%
G36*
X267563Y865212D02*
X267563Y865212D01*
X267563Y874866D01*
X277216Y874866D01*
X277216Y872355D01*
X270074Y865212D01*
X267563Y865212D01*
G37*
%LPD*%
%LPC*%
G36*
X259973Y636612D02*
X259973Y636612D01*
X252831Y643755D01*
X252831Y646266D01*
X262484Y646266D01*
X262484Y636612D01*
X259973Y636612D01*
G37*
%LPD*%
%LPC*%
G36*
X259973Y865212D02*
X259973Y865212D01*
X252831Y872355D01*
X252831Y874866D01*
X262484Y874866D01*
X262484Y865212D01*
X259973Y865212D01*
G37*
%LPD*%
%LPC*%
G36*
X600425Y622896D02*
X600425Y622896D01*
X600425Y631407D01*
X602760Y631407D01*
X608935Y625231D01*
X608935Y622896D01*
X600425Y622896D01*
G37*
%LPD*%
%LPC*%
G36*
X601060Y819111D02*
X601060Y819111D01*
X601060Y827622D01*
X603395Y827622D01*
X609570Y821446D01*
X609570Y819111D01*
X601060Y819111D01*
G37*
%LPD*%
%LPC*%
G36*
X587852Y622896D02*
X587852Y622896D01*
X587852Y625231D01*
X594027Y631407D01*
X596362Y631407D01*
X596362Y622896D01*
X587852Y622896D01*
G37*
%LPD*%
%LPC*%
G36*
X588487Y819111D02*
X588487Y819111D01*
X588487Y821446D01*
X594662Y827622D01*
X596997Y827622D01*
X596997Y819111D01*
X588487Y819111D01*
G37*
%LPD*%
%LPC*%
G36*
X600425Y610323D02*
X600425Y610323D01*
X600425Y618834D01*
X608935Y618834D01*
X608935Y616498D01*
X602760Y610323D01*
X600425Y610323D01*
G37*
%LPD*%
%LPC*%
G36*
X601060Y806538D02*
X601060Y806538D01*
X601060Y815049D01*
X609570Y815049D01*
X609570Y812713D01*
X603395Y806538D01*
X601060Y806538D01*
G37*
%LPD*%
%LPC*%
G36*
X594662Y806538D02*
X594662Y806538D01*
X588487Y812713D01*
X588487Y815049D01*
X596997Y815049D01*
X596997Y806538D01*
X594662Y806538D01*
G37*
%LPD*%
%LPC*%
G36*
X594027Y610323D02*
X594027Y610323D01*
X587852Y616498D01*
X587852Y618834D01*
X596362Y618834D01*
X596362Y610323D01*
X594027Y610323D01*
G37*
%LPD*%
%LPC*%
G36*
X353918Y837399D02*
X353918Y837399D01*
X353918Y837401D01*
X353919Y837401D01*
X353919Y837399D01*
X353918Y837399D01*
G37*
%LPD*%
%LPC*%
G36*
X355823Y603719D02*
X355823Y603719D01*
X355823Y603721D01*
X355824Y603721D01*
X355824Y603719D01*
X355823Y603719D01*
G37*
%LPD*%
D10*
X353919Y786600D03*
D11*
X353919Y837400D03*
D10*
X355824Y552920D03*
D11*
X355824Y603720D03*
D12*
X599029Y817080D03*
D13*
X599029Y781520D03*
D12*
X598394Y620865D03*
D13*
X598394Y585305D03*
D14*
X145640Y824276D03*
X145640Y773476D03*
X144624Y642666D03*
X144624Y591866D03*
D15*
X214224Y826605D03*
D16*
X214224Y877405D03*
X265024Y877405D03*
X265024Y826605D03*
D15*
X214224Y598005D03*
D16*
X214224Y648805D03*
X265024Y648805D03*
X265024Y598005D03*
D17*
X303525Y676275D03*
X430525Y676275D03*
D18*
X406395Y714375D03*
X330195Y714375D03*
D19*
X290825Y714375D03*
D20*
X317500Y228600D03*
X342900Y228600D03*
X393700Y304800D03*
X368300Y304800D03*
X368300Y228600D03*
X393700Y228600D03*
X342900Y304800D03*
X317500Y304800D03*
D21*
X368300Y203200D03*
X368300Y101600D03*
D22*
X342900Y190500D03*
X241300Y190500D03*
D21*
X368300Y431800D03*
X368300Y330200D03*
D22*
X342900Y101600D03*
X241300Y101600D03*
D23*
X368300Y38100D03*
X317500Y38100D03*
X419100Y431800D03*
X419100Y342900D03*
D24*
X266700Y144300D03*
X317500Y144300D03*
D14*
X332600Y410300D03*
D25*
X281800Y410300D03*
D14*
X481900Y162600D03*
D25*
X431100Y162600D03*
D24*
X281300Y341000D03*
X332100Y341000D03*
D26*
X482600Y228600D03*
X431800Y228600D03*
D27*
X240076Y773476D02*
X145640Y773476D01*
X240076Y773476D02*
X266700Y800100D01*
X266700Y824929D01*
X265024Y826605D01*
X161095Y824276D02*
X145640Y824276D01*
X161095Y824276D02*
X214224Y877405D01*
D28*
X50000Y50000D03*
X700000Y50000D03*
X50000Y880000D03*
X700000Y880000D03*
D27*
X214224Y648805D02*
X150763Y648805D01*
X144624Y642666D01*
X144624Y591866D02*
X144734Y591866D01*
X177800Y558800D01*
X254000Y558800D01*
X266700Y571500D01*
X266700Y596329D01*
X265024Y598005D01*
D29*
X470695Y607924D03*
X470695Y595224D03*
X457424Y515455D03*
X482824Y515455D03*
X482824Y540855D03*
X463774Y655155D03*
X539974Y655155D03*
X539974Y680555D03*
X565374Y680555D03*
X565374Y655155D03*
X483395Y595224D03*
X482824Y655155D03*
X482824Y680555D03*
X463774Y680555D03*
X438374Y655155D03*
X412974Y655155D03*
X387574Y655155D03*
X362174Y655155D03*
X387574Y629755D03*
X412974Y629755D03*
X432024Y515455D03*
X406624Y515455D03*
X381224Y515455D03*
X508224Y515455D03*
X584424Y515455D03*
X584424Y540855D03*
X609824Y540855D03*
X609824Y515455D03*
X635224Y515455D03*
X635224Y540855D03*
X590774Y655155D03*
X616174Y655155D03*
X483395Y607924D03*
D30*
X406395Y700405D02*
X406395Y714375D01*
X406395Y700405D02*
X430525Y676275D01*
X482600Y228600D02*
X481900Y227900D01*
D31*
X266700Y38100D02*
X260350Y44450D01*
X281300Y341000D02*
X281800Y341500D01*
X241300Y139700D02*
X241300Y101600D01*
X241300Y139700D02*
X241300Y190500D01*
X245900Y144300D02*
X266700Y144300D01*
X245900Y144300D02*
X241300Y139700D01*
D32*
X584200Y266700D02*
X622300Y304800D01*
X279400Y266700D02*
X266700Y266700D01*
X279400Y266700D02*
X444500Y266700D01*
X482600Y266700D01*
X584200Y266700D01*
X481900Y227900D02*
X481900Y162600D01*
X482600Y228600D02*
X482600Y266700D01*
X281300Y268600D02*
X281300Y341000D01*
X281300Y268600D02*
X279400Y266700D01*
X281300Y409800D02*
X281800Y410300D01*
X281300Y409800D02*
X281300Y341000D01*
X609824Y515455D02*
X617279Y508000D01*
X622300Y508000D01*
X622300Y304800D01*
X266700Y266700D02*
X241300Y241300D01*
X241300Y190500D01*
X241300Y101600D01*
X241300Y63500D01*
X260350Y44450D01*
X266700Y38100D02*
X317500Y38100D01*
X444500Y266700D02*
X444500Y317500D01*
X419100Y342900D01*
X279400Y266700D02*
X279400Y266700D01*
D30*
X290825Y714375D02*
X330195Y714375D01*
X303525Y676275D02*
X290825Y688975D01*
X290825Y714375D01*
D29*
X483395Y836524D03*
X470695Y836524D03*
X470695Y823824D03*
X470124Y896455D03*
X362174Y896455D03*
X412974Y896455D03*
X387574Y896455D03*
X336774Y896455D03*
X482824Y744055D03*
X495524Y896455D03*
X482824Y763105D03*
X520924Y896455D03*
X483395Y823824D03*
X546324Y896455D03*
X571724Y896455D03*
X571724Y871055D03*
X597124Y871055D03*
X597124Y896455D03*
X622524Y896455D03*
X622524Y871055D03*
X444724Y896455D03*
X311374Y896455D03*
X311374Y871055D03*
X336774Y871055D03*
X362174Y871055D03*
X387574Y871055D03*
X412974Y871055D03*
X438374Y871055D03*
D31*
X347500Y144300D02*
X317500Y144300D01*
X347500Y144300D02*
X368300Y165100D01*
X368300Y203200D01*
X368300Y228600D01*
X342900Y228600D02*
X342900Y190500D01*
X368300Y101600D02*
X368300Y38100D01*
X368300Y101600D02*
X342900Y101600D01*
X368300Y304800D02*
X368300Y330200D01*
X368300Y431800D02*
X419100Y431800D01*
M02*
