M48
;GenerationSoftware,Autodesk,EAGLE,9.0.1*%
;CreationDate,2018-08-29T03:15:35Z*%
FMAT,2
ICI,OFF
METRIC,TZ,000.000
T11C0.600
T10C0.750
T9C0.813
T8C1.000
T7C1.016
T6C1.200
T5C1.300
T4C1.321
T3C1.500
T2C2.007
T1C3.200
%
G90
M71
T1
X5000Y5000
X70000Y5000
X5000Y88000
X70000Y88000
T2
X36830Y3810
X41910Y34290
X41910Y43180
X31750Y3810
T3
X35392Y78660
X35392Y83740
X35582Y55292
X35582Y60372
T4
X29082Y71438
T5
X14462Y64267
X14564Y82428
X14564Y77348
X14462Y59187
T6
X30352Y67628
X43053Y67628
T7
X28180Y41030
X48190Y16260
X43110Y16260
X21422Y82660
X21422Y87740
X26502Y87740
X26502Y82660
X21422Y59800
X26502Y64880
X26502Y59800
X21422Y64880
X33260Y41030
T8
X34290Y10160
X36830Y20320
X36830Y10160
X34290Y19050
X24130Y19050
X36830Y43180
X36830Y33020
X24130Y10160
T9
X59903Y81708
X59903Y78152
X36830Y22860
X39370Y22860
X34290Y30480
X31750Y30480
X31750Y22860
X59839Y58530
X59839Y62086
X26670Y14430
X31750Y14430
X34290Y22860
X39370Y30480
X36830Y30480
X28130Y34100
X33210Y34100
X48260Y22860
X43180Y22860
T10
X33020Y71438
X40640Y71438
T11
X31137Y87105
X48282Y65515
X36217Y87105
X38757Y87105
X41297Y87105
X43837Y87105
X47070Y60792
X47070Y59522
X45742Y51545
X48282Y51545
X48282Y54085
X46377Y65515
X53997Y65515
X53997Y68055
X56537Y68055
X56537Y65515
X33677Y87105
X48340Y59522
X48282Y68055
X46377Y68055
X43837Y65515
X41297Y65515
X38757Y65515
X36217Y65515
X38757Y62975
X41297Y62975
X43202Y51545
X40662Y51545
X38122Y51545
X50822Y51545
X58442Y51545
X58442Y54085
X60982Y54085
X60982Y51545
X63522Y51545
X63522Y54085
X59077Y65515
X61617Y65515
X48340Y60792
X48340Y83652
X47070Y83652
X47070Y82382
X47012Y89645
X36217Y89645
X41297Y89645
X48282Y74405
X38757Y89645
X33677Y89645
X49552Y89645
X48282Y76310
X52092Y89645
X48340Y82382
X54632Y89645
X57172Y89645
X57172Y87105
X59712Y87105
X59712Y89645
X62252Y89645
X62252Y87105
X44472Y89645
X31137Y89645
M30