G75*
%MOIN*%
%OFA0B0*%
%FSLAX25Y25*%
%IPPOS*%
%LPD*%
%AMOC8*
5,1,8,0,0,1.08239X$1,22.5*
%
%ADD10OC8,0.07000*%
%ADD11C,0.10000*%
%ADD12OC8,0.08600*%
%ADD13C,0.10000*%
%ADD14OC8,0.06600*%
%ADD15OC8,0.16598*%
D10*
X0059000Y0011500D03*
X0154000Y0036000D03*
X0179000Y0048500D03*
X0179000Y0063500D03*
X0154000Y0086000D03*
X0179000Y0103500D03*
X0209000Y0100500D03*
X0319000Y0120500D03*
X0319000Y0031500D03*
X0209000Y0011500D03*
X0179000Y0008500D03*
X0059000Y0100500D03*
D11*
X0068500Y0091000D01*
X0094000Y0091000D01*
X0059500Y0101000D02*
X0059000Y0100500D01*
X0058500Y0101000D01*
X0058500Y0116000D01*
X0076000Y0133500D01*
X0123300Y0133500D01*
X0123300Y0128500D02*
X0123300Y0138500D01*
X0186417Y0141098D02*
X0186417Y0130583D01*
X0191000Y0126000D01*
X0226000Y0126000D01*
X0226000Y0140681D01*
X0226417Y0141098D01*
X0226000Y0126000D02*
X0238500Y0113500D01*
X0261000Y0113500D01*
X0265917Y0118417D01*
X0265917Y0141098D01*
X0285917Y0141098D02*
X0286000Y0141015D01*
X0286000Y0141000D01*
X0291000Y0136000D01*
X0291000Y0121000D01*
X0291500Y0120500D01*
X0319000Y0120500D01*
X0291000Y0121000D02*
X0291000Y0113500D01*
X0291000Y0096000D01*
X0284000Y0089000D01*
X0284000Y0088500D01*
X0244000Y0088500D02*
X0241500Y0086000D01*
X0211000Y0086000D01*
X0209000Y0088000D01*
X0209000Y0100500D01*
X0211000Y0086000D02*
X0176000Y0086000D01*
X0179000Y0089000D01*
X0179000Y0103500D01*
X0176000Y0086000D02*
X0154000Y0086000D01*
X0139000Y0086000D01*
X0134000Y0091000D01*
X0034700Y0128500D02*
X0034700Y0138500D01*
X0034700Y0133500D02*
X0018902Y0117702D01*
X0018902Y0095917D01*
X0018902Y0055917D02*
X0021083Y0055917D01*
X0046000Y0031000D01*
X0056000Y0031000D01*
X0059000Y0028000D01*
X0059000Y0011500D01*
X0083500Y0031000D02*
X0093500Y0021000D01*
X0093500Y0016500D01*
X0094000Y0016000D01*
X0083500Y0031000D02*
X0056000Y0031000D01*
X0134000Y0016000D02*
X0146000Y0016000D01*
X0156000Y0026000D01*
X0154000Y0028000D01*
X0154000Y0036000D01*
X0156000Y0026000D02*
X0176000Y0026000D01*
X0179000Y0023000D01*
X0179000Y0008500D01*
X0209000Y0011500D02*
X0209000Y0023000D01*
X0206000Y0026000D01*
X0231500Y0026000D01*
X0244000Y0013500D01*
X0206000Y0026000D02*
X0176000Y0026000D01*
X0283500Y0023500D02*
X0283500Y0014000D01*
X0284000Y0013500D01*
X0283500Y0023500D02*
X0291500Y0031500D01*
X0319000Y0031500D01*
D12*
X0284000Y0013500D03*
X0244000Y0013500D03*
X0134000Y0016000D03*
X0094000Y0016000D03*
X0244000Y0088500D03*
X0284000Y0088500D03*
X0134000Y0091000D03*
X0094000Y0091000D03*
D13*
X0018902Y0095917D03*
X0018902Y0075917D03*
X0018902Y0055917D03*
X0145917Y0141098D03*
X0165917Y0141098D03*
X0186417Y0141098D03*
X0206417Y0141098D03*
X0226417Y0141098D03*
X0246417Y0141098D03*
X0265917Y0141098D03*
X0285917Y0141098D03*
D14*
X0291000Y0113500D03*
X0261000Y0113500D03*
D15*
X0013500Y0013500D03*
X0013500Y0146000D03*
X0321000Y0146000D03*
X0321000Y0013500D03*
M02*
