G75*
%MOIN*%
%OFA0B0*%
%FSLAX25Y25*%
%IPPOS*%
%LPD*%
%AMOC8*
5,1,8,0,0,1.08239X$1,22.5*
%
%ADD10C,0.00000*%
%ADD11C,0.00600*%
%ADD12C,0.01600*%
%ADD13C,0.00200*%
%ADD14R,0.01500X0.16000*%
%ADD15R,0.03500X0.00500*%
%ADD16R,0.02500X0.04500*%
%ADD17R,0.02500X0.16000*%
%ADD18R,0.40000X0.02000*%
%ADD19R,0.15500X0.00500*%
%ADD20R,0.19000X0.02000*%
%ADD21C,0.02400*%
%ADD22R,0.02400X0.03400*%
%ADD23R,0.20000X0.05000*%
%ADD24C,0.00800*%
D10*
X0001000Y0001000D02*
X0001000Y0159701D01*
X0338921Y0159701D01*
X0338921Y0001000D01*
X0001000Y0001000D01*
D11*
X0030577Y0012300D02*
X0030577Y0018705D01*
X0034848Y0012300D01*
X0034848Y0018705D01*
X0033780Y0022800D02*
X0034848Y0023868D01*
X0034848Y0026003D01*
X0032712Y0026003D01*
X0030577Y0028138D02*
X0030577Y0023868D01*
X0031645Y0022800D01*
X0033780Y0022800D01*
X0034848Y0028138D02*
X0033780Y0029205D01*
X0031645Y0029205D01*
X0030577Y0028138D01*
X0030577Y0033300D02*
X0034848Y0033300D01*
X0030577Y0033300D02*
X0030577Y0039705D01*
X0048295Y0038778D02*
X0048295Y0036642D01*
X0049362Y0035575D01*
X0053632Y0035575D01*
X0049362Y0039845D01*
X0053632Y0039845D01*
X0054700Y0038778D01*
X0054700Y0036642D01*
X0053632Y0035575D01*
X0049362Y0039845D02*
X0048295Y0038778D01*
X0053632Y0042020D02*
X0053632Y0043088D01*
X0054700Y0043088D01*
X0054700Y0042020D01*
X0053632Y0042020D01*
X0051497Y0045243D02*
X0051497Y0049513D01*
X0048295Y0048446D02*
X0051497Y0045243D01*
X0054700Y0048446D02*
X0048295Y0048446D01*
X0048295Y0051689D02*
X0048295Y0055959D01*
X0049362Y0055959D01*
X0053632Y0051689D01*
X0054700Y0051689D01*
X0139055Y0026164D02*
X0139701Y0028210D01*
X0140296Y0030271D01*
X0140841Y0032346D01*
X0141334Y0034434D01*
X0141777Y0036533D01*
X0142167Y0038642D01*
X0142506Y0040760D01*
X0142792Y0042886D01*
X0143027Y0045019D01*
X0143209Y0047156D01*
X0143338Y0049298D01*
X0143415Y0051442D01*
X0143439Y0053587D01*
X0143411Y0055732D01*
X0143329Y0057875D01*
X0143196Y0060016D01*
X0143010Y0062154D01*
X0142771Y0064285D01*
X0142480Y0066411D01*
X0142138Y0068529D01*
X0141743Y0070637D01*
X0141297Y0072735D01*
X0140799Y0074822D01*
X0140250Y0076896D01*
X0139651Y0078956D01*
X0139001Y0081000D01*
X0139000Y0081000D02*
X0140000Y0087000D01*
X0140000Y0094000D01*
X0135500Y0098500D01*
X0129000Y0098500D01*
X0128734Y0102800D02*
X0127666Y0103868D01*
X0128734Y0102800D02*
X0130869Y0102800D01*
X0131937Y0103868D01*
X0131937Y0104935D01*
X0130869Y0106003D01*
X0129802Y0106003D01*
X0130869Y0106003D02*
X0131937Y0107070D01*
X0131937Y0108138D01*
X0130869Y0109205D01*
X0128734Y0109205D01*
X0127666Y0108138D01*
X0128500Y0112000D02*
X0128500Y0127000D01*
X0128500Y0140000D01*
X0128500Y0155000D01*
X0029500Y0155000D01*
X0029500Y0140000D01*
X0029500Y0127000D01*
X0029500Y0112000D01*
X0128500Y0112000D01*
X0131963Y0114935D02*
X0134099Y0112800D01*
X0136234Y0114935D01*
X0136234Y0119205D01*
X0138409Y0117070D02*
X0138409Y0113868D01*
X0139477Y0112800D01*
X0140544Y0113868D01*
X0141612Y0112800D01*
X0142679Y0113868D01*
X0142679Y0117070D01*
X0144854Y0117070D02*
X0146990Y0112800D01*
X0149125Y0117070D01*
X0151300Y0117070D02*
X0151300Y0113868D01*
X0152368Y0112800D01*
X0153435Y0113868D01*
X0154503Y0112800D01*
X0155570Y0113868D01*
X0155570Y0117070D01*
X0157745Y0117070D02*
X0160948Y0117070D01*
X0162016Y0116003D01*
X0162016Y0113868D01*
X0160948Y0112800D01*
X0157745Y0112800D01*
X0157745Y0119205D01*
X0164191Y0116003D02*
X0164191Y0113868D01*
X0165259Y0112800D01*
X0168461Y0112800D01*
X0168461Y0111732D02*
X0168461Y0117070D01*
X0165259Y0117070D01*
X0164191Y0116003D01*
X0171300Y0117368D02*
X0172368Y0116300D01*
X0174503Y0116300D01*
X0175570Y0117368D01*
X0175570Y0119503D01*
X0173435Y0119503D01*
X0171300Y0121638D02*
X0171300Y0117368D01*
X0171300Y0121638D02*
X0172368Y0122705D01*
X0174503Y0122705D01*
X0175570Y0121638D01*
X0185909Y0122705D02*
X0185909Y0116300D01*
X0190179Y0116300D01*
X0187000Y0109500D02*
X0171000Y0109500D01*
X0170636Y0110273D02*
X0170636Y0106003D01*
X0169000Y0107500D02*
X0169002Y0107587D01*
X0169008Y0107674D01*
X0169017Y0107761D01*
X0169030Y0107847D01*
X0169047Y0107933D01*
X0169068Y0108018D01*
X0169093Y0108101D01*
X0169121Y0108184D01*
X0169152Y0108265D01*
X0169187Y0108345D01*
X0169226Y0108423D01*
X0169268Y0108500D01*
X0169313Y0108575D01*
X0169362Y0108647D01*
X0169413Y0108718D01*
X0169468Y0108786D01*
X0169525Y0108851D01*
X0169586Y0108914D01*
X0169649Y0108975D01*
X0169714Y0109032D01*
X0169782Y0109087D01*
X0169853Y0109138D01*
X0169925Y0109187D01*
X0170000Y0109232D01*
X0170077Y0109274D01*
X0170155Y0109313D01*
X0170235Y0109348D01*
X0170316Y0109379D01*
X0170399Y0109407D01*
X0170482Y0109432D01*
X0170567Y0109453D01*
X0170653Y0109470D01*
X0170739Y0109483D01*
X0170826Y0109492D01*
X0170913Y0109498D01*
X0171000Y0109500D01*
X0172785Y0110273D02*
X0172785Y0106003D01*
X0172785Y0103868D02*
X0172785Y0102800D01*
X0170636Y0102800D02*
X0170636Y0103868D01*
X0168461Y0102800D02*
X0165259Y0102800D01*
X0164191Y0103868D01*
X0164191Y0107070D01*
X0160962Y0109205D02*
X0160962Y0102800D01*
X0162029Y0102800D02*
X0159894Y0102800D01*
X0157719Y0102800D02*
X0157719Y0106003D01*
X0156651Y0107070D01*
X0153448Y0107070D01*
X0153448Y0102800D01*
X0151273Y0103868D02*
X0151273Y0106003D01*
X0150206Y0107070D01*
X0148071Y0107070D01*
X0147003Y0106003D01*
X0147003Y0103868D01*
X0148071Y0102800D01*
X0150206Y0102800D01*
X0151273Y0103868D01*
X0159894Y0109205D02*
X0160962Y0109205D01*
X0166326Y0110665D02*
X0167394Y0110665D01*
X0168461Y0111732D01*
X0169000Y0107500D02*
X0169000Y0059500D01*
X0169002Y0059413D01*
X0169008Y0059326D01*
X0169017Y0059239D01*
X0169030Y0059153D01*
X0169047Y0059067D01*
X0169068Y0058982D01*
X0169093Y0058899D01*
X0169121Y0058816D01*
X0169152Y0058735D01*
X0169187Y0058655D01*
X0169226Y0058577D01*
X0169268Y0058500D01*
X0169313Y0058425D01*
X0169362Y0058353D01*
X0169413Y0058282D01*
X0169468Y0058214D01*
X0169525Y0058149D01*
X0169586Y0058086D01*
X0169649Y0058025D01*
X0169714Y0057968D01*
X0169782Y0057913D01*
X0169853Y0057862D01*
X0169925Y0057813D01*
X0170000Y0057768D01*
X0170077Y0057726D01*
X0170155Y0057687D01*
X0170235Y0057652D01*
X0170316Y0057621D01*
X0170399Y0057593D01*
X0170482Y0057568D01*
X0170567Y0057547D01*
X0170653Y0057530D01*
X0170739Y0057517D01*
X0170826Y0057508D01*
X0170913Y0057502D01*
X0171000Y0057500D01*
X0187000Y0057500D01*
X0187087Y0057502D01*
X0187174Y0057508D01*
X0187261Y0057517D01*
X0187347Y0057530D01*
X0187433Y0057547D01*
X0187518Y0057568D01*
X0187601Y0057593D01*
X0187684Y0057621D01*
X0187765Y0057652D01*
X0187845Y0057687D01*
X0187923Y0057726D01*
X0188000Y0057768D01*
X0188075Y0057813D01*
X0188147Y0057862D01*
X0188218Y0057913D01*
X0188286Y0057968D01*
X0188351Y0058025D01*
X0188414Y0058086D01*
X0188475Y0058149D01*
X0188532Y0058214D01*
X0188587Y0058282D01*
X0188638Y0058353D01*
X0188687Y0058425D01*
X0188732Y0058500D01*
X0188774Y0058577D01*
X0188813Y0058655D01*
X0188848Y0058735D01*
X0188879Y0058816D01*
X0188907Y0058899D01*
X0188932Y0058982D01*
X0188953Y0059067D01*
X0188970Y0059153D01*
X0188983Y0059239D01*
X0188992Y0059326D01*
X0188998Y0059413D01*
X0189000Y0059500D01*
X0189000Y0107500D01*
X0188998Y0107587D01*
X0188992Y0107674D01*
X0188983Y0107761D01*
X0188970Y0107847D01*
X0188953Y0107933D01*
X0188932Y0108018D01*
X0188907Y0108101D01*
X0188879Y0108184D01*
X0188848Y0108265D01*
X0188813Y0108345D01*
X0188774Y0108423D01*
X0188732Y0108500D01*
X0188687Y0108575D01*
X0188638Y0108647D01*
X0188587Y0108718D01*
X0188532Y0108786D01*
X0188475Y0108851D01*
X0188414Y0108914D01*
X0188351Y0108975D01*
X0188286Y0109032D01*
X0188218Y0109087D01*
X0188147Y0109138D01*
X0188075Y0109187D01*
X0188000Y0109232D01*
X0187923Y0109274D01*
X0187845Y0109313D01*
X0187765Y0109348D01*
X0187684Y0109379D01*
X0187601Y0109407D01*
X0187518Y0109432D01*
X0187433Y0109453D01*
X0187347Y0109470D01*
X0187261Y0109483D01*
X0187174Y0109492D01*
X0187087Y0109498D01*
X0187000Y0109500D01*
X0192000Y0106500D02*
X0192000Y0005500D01*
X0192002Y0005413D01*
X0192008Y0005326D01*
X0192017Y0005239D01*
X0192030Y0005153D01*
X0192047Y0005067D01*
X0192068Y0004982D01*
X0192093Y0004899D01*
X0192121Y0004816D01*
X0192152Y0004735D01*
X0192187Y0004655D01*
X0192226Y0004577D01*
X0192268Y0004500D01*
X0192313Y0004425D01*
X0192362Y0004353D01*
X0192413Y0004282D01*
X0192468Y0004214D01*
X0192525Y0004149D01*
X0192586Y0004086D01*
X0192649Y0004025D01*
X0192714Y0003968D01*
X0192782Y0003913D01*
X0192853Y0003862D01*
X0192925Y0003813D01*
X0193000Y0003768D01*
X0193077Y0003726D01*
X0193155Y0003687D01*
X0193235Y0003652D01*
X0193316Y0003621D01*
X0193399Y0003593D01*
X0193482Y0003568D01*
X0193567Y0003547D01*
X0193653Y0003530D01*
X0193739Y0003517D01*
X0193826Y0003508D01*
X0193913Y0003502D01*
X0194000Y0003500D01*
X0224000Y0003500D01*
X0224087Y0003502D01*
X0224174Y0003508D01*
X0224261Y0003517D01*
X0224347Y0003530D01*
X0224433Y0003547D01*
X0224518Y0003568D01*
X0224601Y0003593D01*
X0224684Y0003621D01*
X0224765Y0003652D01*
X0224845Y0003687D01*
X0224923Y0003726D01*
X0225000Y0003768D01*
X0225075Y0003813D01*
X0225147Y0003862D01*
X0225218Y0003913D01*
X0225286Y0003968D01*
X0225351Y0004025D01*
X0225414Y0004086D01*
X0225475Y0004149D01*
X0225532Y0004214D01*
X0225587Y0004282D01*
X0225638Y0004353D01*
X0225687Y0004425D01*
X0225732Y0004500D01*
X0225774Y0004577D01*
X0225813Y0004655D01*
X0225848Y0004735D01*
X0225879Y0004816D01*
X0225907Y0004899D01*
X0225932Y0004982D01*
X0225953Y0005067D01*
X0225970Y0005153D01*
X0225983Y0005239D01*
X0225992Y0005326D01*
X0225998Y0005413D01*
X0226000Y0005500D01*
X0226000Y0106500D01*
X0225998Y0106587D01*
X0225992Y0106674D01*
X0225983Y0106761D01*
X0225970Y0106847D01*
X0225953Y0106933D01*
X0225932Y0107018D01*
X0225907Y0107101D01*
X0225879Y0107184D01*
X0225848Y0107265D01*
X0225813Y0107345D01*
X0225774Y0107423D01*
X0225732Y0107500D01*
X0225687Y0107575D01*
X0225638Y0107647D01*
X0225587Y0107718D01*
X0225532Y0107786D01*
X0225475Y0107851D01*
X0225414Y0107914D01*
X0225351Y0107975D01*
X0225286Y0108032D01*
X0225218Y0108087D01*
X0225147Y0108138D01*
X0225075Y0108187D01*
X0225000Y0108232D01*
X0224923Y0108274D01*
X0224845Y0108313D01*
X0224765Y0108348D01*
X0224684Y0108379D01*
X0224601Y0108407D01*
X0224518Y0108432D01*
X0224433Y0108453D01*
X0224347Y0108470D01*
X0224261Y0108483D01*
X0224174Y0108492D01*
X0224087Y0108498D01*
X0224000Y0108500D01*
X0194000Y0108500D01*
X0193913Y0108498D01*
X0193826Y0108492D01*
X0193739Y0108483D01*
X0193653Y0108470D01*
X0193567Y0108453D01*
X0193482Y0108432D01*
X0193399Y0108407D01*
X0193316Y0108379D01*
X0193235Y0108348D01*
X0193155Y0108313D01*
X0193077Y0108274D01*
X0193000Y0108232D01*
X0192925Y0108187D01*
X0192853Y0108138D01*
X0192782Y0108087D01*
X0192714Y0108032D01*
X0192649Y0107975D01*
X0192586Y0107914D01*
X0192525Y0107851D01*
X0192468Y0107786D01*
X0192413Y0107718D01*
X0192362Y0107647D01*
X0192313Y0107575D01*
X0192268Y0107500D01*
X0192226Y0107423D01*
X0192187Y0107345D01*
X0192152Y0107265D01*
X0192121Y0107184D01*
X0192093Y0107101D01*
X0192068Y0107018D01*
X0192047Y0106933D01*
X0192030Y0106847D01*
X0192017Y0106761D01*
X0192008Y0106674D01*
X0192002Y0106587D01*
X0192000Y0106500D01*
X0179000Y0098500D02*
X0179000Y0096000D01*
X0179000Y0092500D02*
X0179000Y0068500D01*
X0177200Y0067500D02*
X0170795Y0067500D01*
X0173997Y0064298D01*
X0173997Y0068568D01*
X0176132Y0070743D02*
X0176132Y0071811D01*
X0177200Y0071811D01*
X0177200Y0070743D01*
X0176132Y0070743D01*
X0179795Y0071855D02*
X0180862Y0071855D01*
X0182997Y0073990D01*
X0186200Y0073990D01*
X0182997Y0073990D02*
X0180862Y0076125D01*
X0179795Y0076125D01*
X0180862Y0078300D02*
X0179795Y0079368D01*
X0179795Y0081503D01*
X0180862Y0082570D01*
X0181930Y0082570D01*
X0186200Y0078300D01*
X0186200Y0082570D01*
X0177200Y0084682D02*
X0173997Y0084682D01*
X0172930Y0083614D01*
X0172930Y0080411D01*
X0177200Y0080411D01*
X0171862Y0078236D02*
X0176132Y0073966D01*
X0177200Y0073966D01*
X0170795Y0073966D02*
X0170795Y0078236D01*
X0171862Y0078236D01*
X0161700Y0078966D02*
X0161700Y0083236D01*
X0161700Y0081101D02*
X0155295Y0081101D01*
X0157430Y0078966D01*
X0159000Y0078000D02*
X0149000Y0078000D01*
X0148940Y0077998D01*
X0148879Y0077993D01*
X0148820Y0077984D01*
X0148761Y0077971D01*
X0148702Y0077955D01*
X0148645Y0077935D01*
X0148590Y0077912D01*
X0148535Y0077885D01*
X0148483Y0077856D01*
X0148432Y0077823D01*
X0148383Y0077787D01*
X0148337Y0077749D01*
X0148293Y0077707D01*
X0148251Y0077663D01*
X0148213Y0077617D01*
X0148177Y0077568D01*
X0148144Y0077517D01*
X0148115Y0077465D01*
X0148088Y0077410D01*
X0148065Y0077355D01*
X0148045Y0077298D01*
X0148029Y0077239D01*
X0148016Y0077180D01*
X0148007Y0077121D01*
X0148002Y0077060D01*
X0148000Y0077000D01*
X0148000Y0074500D01*
X0148500Y0074000D01*
X0148500Y0048000D01*
X0148000Y0047500D01*
X0148000Y0045000D01*
X0148002Y0044940D01*
X0148007Y0044879D01*
X0148016Y0044820D01*
X0148029Y0044761D01*
X0148045Y0044702D01*
X0148065Y0044645D01*
X0148088Y0044590D01*
X0148115Y0044535D01*
X0148144Y0044483D01*
X0148177Y0044432D01*
X0148213Y0044383D01*
X0148251Y0044337D01*
X0148293Y0044293D01*
X0148337Y0044251D01*
X0148383Y0044213D01*
X0148432Y0044177D01*
X0148483Y0044144D01*
X0148535Y0044115D01*
X0148590Y0044088D01*
X0148645Y0044065D01*
X0148702Y0044045D01*
X0148761Y0044029D01*
X0148820Y0044016D01*
X0148879Y0044007D01*
X0148940Y0044002D01*
X0149000Y0044000D01*
X0159000Y0044000D01*
X0159060Y0044002D01*
X0159121Y0044007D01*
X0159180Y0044016D01*
X0159239Y0044029D01*
X0159298Y0044045D01*
X0159355Y0044065D01*
X0159410Y0044088D01*
X0159465Y0044115D01*
X0159517Y0044144D01*
X0159568Y0044177D01*
X0159617Y0044213D01*
X0159663Y0044251D01*
X0159707Y0044293D01*
X0159749Y0044337D01*
X0159787Y0044383D01*
X0159823Y0044432D01*
X0159856Y0044483D01*
X0159885Y0044535D01*
X0159912Y0044590D01*
X0159935Y0044645D01*
X0159955Y0044702D01*
X0159971Y0044761D01*
X0159984Y0044820D01*
X0159993Y0044879D01*
X0159998Y0044940D01*
X0160000Y0045000D01*
X0160000Y0047500D01*
X0159500Y0048000D01*
X0159500Y0074000D01*
X0160000Y0074500D01*
X0160000Y0077000D01*
X0160632Y0076811D02*
X0161700Y0076811D01*
X0161700Y0075743D01*
X0160632Y0075743D01*
X0160632Y0076811D01*
X0160000Y0077000D02*
X0159998Y0077060D01*
X0159993Y0077121D01*
X0159984Y0077180D01*
X0159971Y0077239D01*
X0159955Y0077298D01*
X0159935Y0077355D01*
X0159912Y0077410D01*
X0159885Y0077465D01*
X0159856Y0077517D01*
X0159823Y0077568D01*
X0159787Y0077617D01*
X0159749Y0077663D01*
X0159707Y0077707D01*
X0159663Y0077749D01*
X0159617Y0077787D01*
X0159568Y0077823D01*
X0159517Y0077856D01*
X0159465Y0077885D01*
X0159410Y0077912D01*
X0159355Y0077935D01*
X0159298Y0077955D01*
X0159239Y0077971D01*
X0159180Y0077984D01*
X0159121Y0077993D01*
X0159060Y0077998D01*
X0159000Y0078000D01*
X0160632Y0073568D02*
X0156362Y0073568D01*
X0160632Y0069298D01*
X0161700Y0070365D01*
X0161700Y0072500D01*
X0160632Y0073568D01*
X0156700Y0070985D02*
X0154565Y0067783D01*
X0152430Y0070985D01*
X0155295Y0070365D02*
X0155295Y0072500D01*
X0156362Y0073568D01*
X0155295Y0070365D02*
X0156362Y0069298D01*
X0160632Y0069298D01*
X0156700Y0067783D02*
X0150295Y0067783D01*
X0151362Y0065607D02*
X0155632Y0061337D01*
X0156700Y0062405D01*
X0156700Y0064540D01*
X0155632Y0065607D01*
X0151362Y0065607D01*
X0150295Y0064540D01*
X0150295Y0062405D01*
X0151362Y0061337D01*
X0155632Y0061337D01*
X0151362Y0059162D02*
X0155632Y0054892D01*
X0156700Y0054892D01*
X0156700Y0051649D02*
X0150295Y0051649D01*
X0153497Y0048446D01*
X0153497Y0052716D01*
X0150295Y0054892D02*
X0150295Y0059162D01*
X0151362Y0059162D01*
X0169000Y0052500D02*
X0169000Y0004500D01*
X0169002Y0004413D01*
X0169008Y0004326D01*
X0169017Y0004239D01*
X0169030Y0004153D01*
X0169047Y0004067D01*
X0169068Y0003982D01*
X0169093Y0003899D01*
X0169121Y0003816D01*
X0169152Y0003735D01*
X0169187Y0003655D01*
X0169226Y0003577D01*
X0169268Y0003500D01*
X0169313Y0003425D01*
X0169362Y0003353D01*
X0169413Y0003282D01*
X0169468Y0003214D01*
X0169525Y0003149D01*
X0169586Y0003086D01*
X0169649Y0003025D01*
X0169714Y0002968D01*
X0169782Y0002913D01*
X0169853Y0002862D01*
X0169925Y0002813D01*
X0170000Y0002768D01*
X0170077Y0002726D01*
X0170155Y0002687D01*
X0170235Y0002652D01*
X0170316Y0002621D01*
X0170399Y0002593D01*
X0170482Y0002568D01*
X0170567Y0002547D01*
X0170653Y0002530D01*
X0170739Y0002517D01*
X0170826Y0002508D01*
X0170913Y0002502D01*
X0171000Y0002500D01*
X0187000Y0002500D01*
X0187087Y0002502D01*
X0187174Y0002508D01*
X0187261Y0002517D01*
X0187347Y0002530D01*
X0187433Y0002547D01*
X0187518Y0002568D01*
X0187601Y0002593D01*
X0187684Y0002621D01*
X0187765Y0002652D01*
X0187845Y0002687D01*
X0187923Y0002726D01*
X0188000Y0002768D01*
X0188075Y0002813D01*
X0188147Y0002862D01*
X0188218Y0002913D01*
X0188286Y0002968D01*
X0188351Y0003025D01*
X0188414Y0003086D01*
X0188475Y0003149D01*
X0188532Y0003214D01*
X0188587Y0003282D01*
X0188638Y0003353D01*
X0188687Y0003425D01*
X0188732Y0003500D01*
X0188774Y0003577D01*
X0188813Y0003655D01*
X0188848Y0003735D01*
X0188879Y0003816D01*
X0188907Y0003899D01*
X0188932Y0003982D01*
X0188953Y0004067D01*
X0188970Y0004153D01*
X0188983Y0004239D01*
X0188992Y0004326D01*
X0188998Y0004413D01*
X0189000Y0004500D01*
X0189000Y0052500D01*
X0188998Y0052587D01*
X0188992Y0052674D01*
X0188983Y0052761D01*
X0188970Y0052847D01*
X0188953Y0052933D01*
X0188932Y0053018D01*
X0188907Y0053101D01*
X0188879Y0053184D01*
X0188848Y0053265D01*
X0188813Y0053345D01*
X0188774Y0053423D01*
X0188732Y0053500D01*
X0188687Y0053575D01*
X0188638Y0053647D01*
X0188587Y0053718D01*
X0188532Y0053786D01*
X0188475Y0053851D01*
X0188414Y0053914D01*
X0188351Y0053975D01*
X0188286Y0054032D01*
X0188218Y0054087D01*
X0188147Y0054138D01*
X0188075Y0054187D01*
X0188000Y0054232D01*
X0187923Y0054274D01*
X0187845Y0054313D01*
X0187765Y0054348D01*
X0187684Y0054379D01*
X0187601Y0054407D01*
X0187518Y0054432D01*
X0187433Y0054453D01*
X0187347Y0054470D01*
X0187261Y0054483D01*
X0187174Y0054492D01*
X0187087Y0054498D01*
X0187000Y0054500D01*
X0171000Y0054500D01*
X0088945Y0080836D02*
X0088299Y0078790D01*
X0087704Y0076729D01*
X0087159Y0074654D01*
X0086666Y0072566D01*
X0086223Y0070467D01*
X0085833Y0068358D01*
X0085494Y0066240D01*
X0085208Y0064114D01*
X0084973Y0061981D01*
X0084791Y0059844D01*
X0084662Y0057702D01*
X0084585Y0055558D01*
X0084561Y0053413D01*
X0084589Y0051268D01*
X0084671Y0049125D01*
X0084804Y0046984D01*
X0084990Y0044846D01*
X0085229Y0042715D01*
X0085520Y0040589D01*
X0085862Y0038471D01*
X0086257Y0036363D01*
X0086703Y0034265D01*
X0087201Y0032178D01*
X0087750Y0030104D01*
X0088349Y0028044D01*
X0088999Y0026000D01*
X0089000Y0026000D02*
X0088000Y0020000D01*
X0088000Y0013000D01*
X0092500Y0008500D01*
X0104000Y0008500D01*
X0099000Y0016000D02*
X0114000Y0016000D01*
X0124000Y0016000D02*
X0131500Y0016000D01*
X0131500Y0020000D02*
X0101500Y0020000D01*
X0101500Y0082000D01*
X0131500Y0082000D01*
X0131500Y0091000D02*
X0124000Y0091000D01*
X0114000Y0091000D02*
X0099000Y0091000D01*
X0092500Y0098500D02*
X0088000Y0094000D01*
X0088000Y0087000D01*
X0089000Y0081000D01*
X0099000Y0098500D02*
X0099556Y0098861D01*
X0100120Y0099208D01*
X0100693Y0099541D01*
X0101273Y0099860D01*
X0101862Y0100165D01*
X0102457Y0100455D01*
X0103060Y0100730D01*
X0103669Y0100991D01*
X0104284Y0101236D01*
X0104905Y0101467D01*
X0105532Y0101682D01*
X0106164Y0101882D01*
X0106800Y0102066D01*
X0107441Y0102234D01*
X0108085Y0102387D01*
X0108734Y0102524D01*
X0109385Y0102645D01*
X0110039Y0102750D01*
X0110696Y0102839D01*
X0111354Y0102912D01*
X0112014Y0102969D01*
X0112675Y0103010D01*
X0113338Y0103034D01*
X0114000Y0103042D01*
X0114662Y0103034D01*
X0115325Y0103010D01*
X0115986Y0102969D01*
X0116646Y0102912D01*
X0117304Y0102839D01*
X0117961Y0102750D01*
X0118615Y0102645D01*
X0119266Y0102524D01*
X0119915Y0102387D01*
X0120559Y0102234D01*
X0121200Y0102066D01*
X0121836Y0101882D01*
X0122468Y0101682D01*
X0123095Y0101467D01*
X0123716Y0101236D01*
X0124331Y0100991D01*
X0124940Y0100730D01*
X0125543Y0100455D01*
X0126138Y0100165D01*
X0126727Y0099860D01*
X0127307Y0099541D01*
X0127880Y0099208D01*
X0128444Y0098861D01*
X0129000Y0098500D01*
X0134112Y0102800D02*
X0134112Y0107070D01*
X0136247Y0109205D01*
X0138382Y0107070D01*
X0138382Y0102800D01*
X0138382Y0106003D02*
X0134112Y0106003D01*
X0131963Y0114935D02*
X0131963Y0119205D01*
X0121500Y0119000D02*
X0121500Y0123500D01*
X0101500Y0123500D01*
X0101500Y0119000D01*
X0121500Y0119000D01*
X0123000Y0138500D02*
X0123000Y0141500D01*
X0123000Y0146000D01*
X0121500Y0146000D01*
X0121500Y0143500D01*
X0101500Y0143500D01*
X0101500Y0148000D01*
X0121500Y0148000D01*
X0124000Y0148000D01*
X0124000Y0141500D01*
X0124000Y0138500D01*
X0123000Y0138500D01*
X0121500Y0146000D02*
X0121500Y0148000D01*
X0077293Y0135705D02*
X0073023Y0135705D01*
X0073023Y0132503D01*
X0075158Y0133570D01*
X0076225Y0133570D01*
X0077293Y0132503D01*
X0077293Y0130368D01*
X0076225Y0129300D01*
X0074090Y0129300D01*
X0073023Y0130368D01*
X0070848Y0129300D02*
X0066577Y0133570D01*
X0064402Y0133570D02*
X0064402Y0134638D01*
X0063334Y0135705D01*
X0061199Y0135705D01*
X0060132Y0134638D01*
X0064402Y0133570D02*
X0060132Y0129300D01*
X0064402Y0129300D01*
X0066577Y0129300D02*
X0070848Y0133570D01*
X0056500Y0143500D02*
X0056500Y0148000D01*
X0036500Y0148000D01*
X0036500Y0143500D01*
X0056500Y0143500D01*
X0035000Y0128500D02*
X0035000Y0125500D01*
X0035000Y0121000D01*
X0036500Y0121000D01*
X0036500Y0123500D01*
X0056500Y0123500D01*
X0056500Y0119000D01*
X0036500Y0119000D01*
X0034000Y0119000D01*
X0034000Y0125500D01*
X0034000Y0128500D01*
X0035000Y0128500D01*
X0036500Y0121000D02*
X0036500Y0119000D01*
X0044000Y0108500D02*
X0074000Y0108500D01*
X0074087Y0108498D01*
X0074174Y0108492D01*
X0074261Y0108483D01*
X0074347Y0108470D01*
X0074433Y0108453D01*
X0074518Y0108432D01*
X0074601Y0108407D01*
X0074684Y0108379D01*
X0074765Y0108348D01*
X0074845Y0108313D01*
X0074923Y0108274D01*
X0075000Y0108232D01*
X0075075Y0108187D01*
X0075147Y0108138D01*
X0075218Y0108087D01*
X0075286Y0108032D01*
X0075351Y0107975D01*
X0075414Y0107914D01*
X0075475Y0107851D01*
X0075532Y0107786D01*
X0075587Y0107718D01*
X0075638Y0107647D01*
X0075687Y0107575D01*
X0075732Y0107500D01*
X0075774Y0107423D01*
X0075813Y0107345D01*
X0075848Y0107265D01*
X0075879Y0107184D01*
X0075907Y0107101D01*
X0075932Y0107018D01*
X0075953Y0106933D01*
X0075970Y0106847D01*
X0075983Y0106761D01*
X0075992Y0106674D01*
X0075998Y0106587D01*
X0076000Y0106500D01*
X0076000Y0005500D01*
X0075998Y0005413D01*
X0075992Y0005326D01*
X0075983Y0005239D01*
X0075970Y0005153D01*
X0075953Y0005067D01*
X0075932Y0004982D01*
X0075907Y0004899D01*
X0075879Y0004816D01*
X0075848Y0004735D01*
X0075813Y0004655D01*
X0075774Y0004577D01*
X0075732Y0004500D01*
X0075687Y0004425D01*
X0075638Y0004353D01*
X0075587Y0004282D01*
X0075532Y0004214D01*
X0075475Y0004149D01*
X0075414Y0004086D01*
X0075351Y0004025D01*
X0075286Y0003968D01*
X0075218Y0003913D01*
X0075147Y0003862D01*
X0075075Y0003813D01*
X0075000Y0003768D01*
X0074923Y0003726D01*
X0074845Y0003687D01*
X0074765Y0003652D01*
X0074684Y0003621D01*
X0074601Y0003593D01*
X0074518Y0003568D01*
X0074433Y0003547D01*
X0074347Y0003530D01*
X0074261Y0003517D01*
X0074174Y0003508D01*
X0074087Y0003502D01*
X0074000Y0003500D01*
X0044000Y0003500D01*
X0043913Y0003502D01*
X0043826Y0003508D01*
X0043739Y0003517D01*
X0043653Y0003530D01*
X0043567Y0003547D01*
X0043482Y0003568D01*
X0043399Y0003593D01*
X0043316Y0003621D01*
X0043235Y0003652D01*
X0043155Y0003687D01*
X0043077Y0003726D01*
X0043000Y0003768D01*
X0042925Y0003813D01*
X0042853Y0003862D01*
X0042782Y0003913D01*
X0042714Y0003968D01*
X0042649Y0004025D01*
X0042586Y0004086D01*
X0042525Y0004149D01*
X0042468Y0004214D01*
X0042413Y0004282D01*
X0042362Y0004353D01*
X0042313Y0004425D01*
X0042268Y0004500D01*
X0042226Y0004577D01*
X0042187Y0004655D01*
X0042152Y0004735D01*
X0042121Y0004816D01*
X0042093Y0004899D01*
X0042068Y0004982D01*
X0042047Y0005067D01*
X0042030Y0005153D01*
X0042017Y0005239D01*
X0042008Y0005326D01*
X0042002Y0005413D01*
X0042000Y0005500D01*
X0042000Y0106500D01*
X0042002Y0106587D01*
X0042008Y0106674D01*
X0042017Y0106761D01*
X0042030Y0106847D01*
X0042047Y0106933D01*
X0042068Y0107018D01*
X0042093Y0107101D01*
X0042121Y0107184D01*
X0042152Y0107265D01*
X0042187Y0107345D01*
X0042226Y0107423D01*
X0042268Y0107500D01*
X0042313Y0107575D01*
X0042362Y0107647D01*
X0042413Y0107718D01*
X0042468Y0107786D01*
X0042525Y0107851D01*
X0042586Y0107914D01*
X0042649Y0107975D01*
X0042714Y0108032D01*
X0042782Y0108087D01*
X0042853Y0108138D01*
X0042925Y0108187D01*
X0043000Y0108232D01*
X0043077Y0108274D01*
X0043155Y0108313D01*
X0043235Y0108348D01*
X0043316Y0108379D01*
X0043399Y0108407D01*
X0043482Y0108432D01*
X0043567Y0108453D01*
X0043653Y0108470D01*
X0043739Y0108483D01*
X0043826Y0108492D01*
X0043913Y0108498D01*
X0044000Y0108500D01*
X0059000Y0094000D02*
X0059000Y0086000D01*
X0059000Y0082500D02*
X0059000Y0018000D01*
X0104000Y0008500D02*
X0104370Y0008259D01*
X0104747Y0008028D01*
X0105128Y0007806D01*
X0105516Y0007593D01*
X0105908Y0007390D01*
X0106305Y0007197D01*
X0106707Y0007013D01*
X0107113Y0006839D01*
X0107523Y0006676D01*
X0107937Y0006522D01*
X0108355Y0006379D01*
X0108776Y0006246D01*
X0109200Y0006123D01*
X0109627Y0006010D01*
X0110057Y0005908D01*
X0110489Y0005817D01*
X0110923Y0005736D01*
X0111359Y0005666D01*
X0111797Y0005607D01*
X0112236Y0005559D01*
X0112676Y0005521D01*
X0113117Y0005494D01*
X0113558Y0005477D01*
X0114000Y0005472D01*
X0114442Y0005477D01*
X0114883Y0005494D01*
X0115324Y0005521D01*
X0115764Y0005559D01*
X0116203Y0005607D01*
X0116641Y0005666D01*
X0117077Y0005736D01*
X0117511Y0005817D01*
X0117943Y0005908D01*
X0118373Y0006010D01*
X0118800Y0006123D01*
X0119224Y0006246D01*
X0119645Y0006379D01*
X0120063Y0006522D01*
X0120477Y0006676D01*
X0120887Y0006839D01*
X0121293Y0007013D01*
X0121695Y0007197D01*
X0122092Y0007390D01*
X0122484Y0007593D01*
X0122872Y0007806D01*
X0123253Y0008028D01*
X0123630Y0008259D01*
X0124000Y0008500D01*
X0135500Y0008500D01*
X0140000Y0013000D01*
X0140000Y0020000D01*
X0139000Y0026000D01*
X0119200Y0038409D02*
X0119200Y0042679D01*
X0119200Y0040544D02*
X0112795Y0040544D01*
X0114930Y0038409D01*
X0113862Y0044854D02*
X0112795Y0045922D01*
X0112795Y0048057D01*
X0113862Y0049125D01*
X0118132Y0044854D01*
X0119200Y0045922D01*
X0119200Y0048057D01*
X0118132Y0049125D01*
X0113862Y0049125D01*
X0114930Y0051300D02*
X0114930Y0052368D01*
X0115997Y0053435D01*
X0114930Y0054503D01*
X0115997Y0055570D01*
X0119200Y0055570D01*
X0119200Y0053435D02*
X0115997Y0053435D01*
X0114930Y0051300D02*
X0119200Y0051300D01*
X0119200Y0057745D02*
X0112795Y0057745D01*
X0115997Y0057745D02*
X0115997Y0062016D01*
X0112795Y0062016D02*
X0119200Y0062016D01*
X0118132Y0044854D02*
X0113862Y0044854D01*
X0070200Y0046855D02*
X0063795Y0051125D01*
X0064862Y0053300D02*
X0063795Y0054368D01*
X0063795Y0056503D01*
X0064862Y0057570D01*
X0065930Y0057570D01*
X0070200Y0053300D01*
X0070200Y0057570D01*
X0070200Y0051125D02*
X0063795Y0046855D01*
X0053632Y0058134D02*
X0050430Y0058134D01*
X0053632Y0058134D02*
X0054700Y0059202D01*
X0054700Y0062404D01*
X0050430Y0062404D01*
X0051497Y0064580D02*
X0051497Y0066715D01*
X0048295Y0064580D02*
X0048295Y0068850D01*
X0048295Y0064580D02*
X0054700Y0064580D01*
X0092500Y0098500D02*
X0099000Y0098500D01*
X0155295Y0096127D02*
X0155295Y0091857D01*
X0161700Y0091857D01*
X0158497Y0091857D02*
X0158497Y0093992D01*
X0157430Y0089682D02*
X0161700Y0089682D01*
X0161700Y0086479D01*
X0160632Y0085411D01*
X0157430Y0085411D01*
X0170795Y0086857D02*
X0170795Y0091127D01*
X0173997Y0088992D02*
X0173997Y0086857D01*
X0170795Y0086857D02*
X0177200Y0086857D01*
X0167394Y0100665D02*
X0166326Y0100665D01*
X0167394Y0100665D02*
X0168461Y0101732D01*
X0168461Y0107070D01*
X0205245Y0116300D02*
X0205245Y0122705D01*
X0209516Y0116300D01*
X0209516Y0122705D01*
X0225909Y0122705D02*
X0225909Y0116300D01*
X0230179Y0116300D01*
X0245245Y0116300D02*
X0245245Y0122705D01*
X0249516Y0116300D01*
X0249516Y0122705D01*
X0256000Y0120500D02*
X0256000Y0106500D01*
X0256002Y0106440D01*
X0256007Y0106379D01*
X0256016Y0106320D01*
X0256029Y0106261D01*
X0256045Y0106202D01*
X0256065Y0106145D01*
X0256088Y0106090D01*
X0256115Y0106035D01*
X0256144Y0105983D01*
X0256177Y0105932D01*
X0256213Y0105883D01*
X0256251Y0105837D01*
X0256293Y0105793D01*
X0256337Y0105751D01*
X0256383Y0105713D01*
X0256432Y0105677D01*
X0256483Y0105644D01*
X0256535Y0105615D01*
X0256590Y0105588D01*
X0256645Y0105565D01*
X0256702Y0105545D01*
X0256761Y0105529D01*
X0256820Y0105516D01*
X0256879Y0105507D01*
X0256940Y0105502D01*
X0257000Y0105500D01*
X0295000Y0105500D01*
X0295060Y0105502D01*
X0295121Y0105507D01*
X0295180Y0105516D01*
X0295239Y0105529D01*
X0295298Y0105545D01*
X0295355Y0105565D01*
X0295410Y0105588D01*
X0295465Y0105615D01*
X0295517Y0105644D01*
X0295568Y0105677D01*
X0295617Y0105713D01*
X0295663Y0105751D01*
X0295707Y0105793D01*
X0295749Y0105837D01*
X0295787Y0105883D01*
X0295823Y0105932D01*
X0295856Y0105983D01*
X0295885Y0106035D01*
X0295912Y0106090D01*
X0295935Y0106145D01*
X0295955Y0106202D01*
X0295971Y0106261D01*
X0295984Y0106320D01*
X0295993Y0106379D01*
X0295998Y0106440D01*
X0296000Y0106500D01*
X0296000Y0120500D01*
X0295998Y0120560D01*
X0295993Y0120621D01*
X0295984Y0120680D01*
X0295971Y0120739D01*
X0295955Y0120798D01*
X0295935Y0120855D01*
X0295912Y0120910D01*
X0295885Y0120965D01*
X0295856Y0121017D01*
X0295823Y0121068D01*
X0295787Y0121117D01*
X0295749Y0121163D01*
X0295707Y0121207D01*
X0295663Y0121249D01*
X0295617Y0121287D01*
X0295568Y0121323D01*
X0295517Y0121356D01*
X0295465Y0121385D01*
X0295410Y0121412D01*
X0295355Y0121435D01*
X0295298Y0121455D01*
X0295239Y0121471D01*
X0295180Y0121484D01*
X0295121Y0121493D01*
X0295060Y0121498D01*
X0295000Y0121500D01*
X0257000Y0121500D01*
X0256940Y0121498D01*
X0256879Y0121493D01*
X0256820Y0121484D01*
X0256761Y0121471D01*
X0256702Y0121455D01*
X0256645Y0121435D01*
X0256590Y0121412D01*
X0256535Y0121385D01*
X0256483Y0121356D01*
X0256432Y0121323D01*
X0256383Y0121287D01*
X0256337Y0121249D01*
X0256293Y0121207D01*
X0256251Y0121163D01*
X0256213Y0121117D01*
X0256177Y0121068D01*
X0256144Y0121017D01*
X0256115Y0120965D01*
X0256088Y0120910D01*
X0256065Y0120855D01*
X0256045Y0120798D01*
X0256029Y0120739D01*
X0256016Y0120680D01*
X0256007Y0120621D01*
X0256002Y0120560D01*
X0256000Y0120500D01*
X0265354Y0117705D02*
X0269625Y0111300D01*
X0271800Y0111300D02*
X0276070Y0115570D01*
X0276070Y0116638D01*
X0275003Y0117705D01*
X0272868Y0117705D01*
X0271800Y0116638D01*
X0269625Y0117705D02*
X0265354Y0111300D01*
X0265500Y0113500D02*
X0281000Y0113500D01*
X0284500Y0113500D02*
X0286500Y0113500D01*
X0276070Y0111300D02*
X0271800Y0111300D01*
X0267500Y0106705D02*
X0268568Y0105638D01*
X0264298Y0101368D01*
X0265365Y0100300D01*
X0267500Y0100300D01*
X0268568Y0101368D01*
X0268568Y0105638D01*
X0267500Y0106705D02*
X0265365Y0106705D01*
X0264298Y0105638D01*
X0264298Y0101368D01*
X0270743Y0101368D02*
X0270743Y0100300D01*
X0271811Y0100300D01*
X0271811Y0101368D01*
X0270743Y0101368D01*
X0273966Y0100300D02*
X0278236Y0100300D01*
X0276101Y0100300D02*
X0276101Y0106705D01*
X0273966Y0104570D01*
X0280411Y0104570D02*
X0280411Y0101368D01*
X0281479Y0100300D01*
X0284682Y0100300D01*
X0284682Y0104570D01*
X0286857Y0103503D02*
X0288992Y0103503D01*
X0286857Y0106705D02*
X0291127Y0106705D01*
X0286857Y0106705D02*
X0286857Y0100300D01*
X0285500Y0096000D02*
X0279000Y0096000D01*
X0285500Y0096000D02*
X0290000Y0091500D01*
X0290000Y0084500D01*
X0289000Y0078500D01*
X0281500Y0079500D02*
X0251500Y0079500D01*
X0251500Y0017500D01*
X0281500Y0017500D01*
X0281500Y0013500D02*
X0274000Y0013500D01*
X0264000Y0013500D02*
X0249000Y0013500D01*
X0242500Y0006000D02*
X0238000Y0010500D01*
X0238000Y0017500D01*
X0239000Y0023500D01*
X0254000Y0006000D02*
X0254370Y0005759D01*
X0254747Y0005528D01*
X0255128Y0005306D01*
X0255516Y0005093D01*
X0255908Y0004890D01*
X0256305Y0004697D01*
X0256707Y0004513D01*
X0257113Y0004339D01*
X0257523Y0004176D01*
X0257937Y0004022D01*
X0258355Y0003879D01*
X0258776Y0003746D01*
X0259200Y0003623D01*
X0259627Y0003510D01*
X0260057Y0003408D01*
X0260489Y0003317D01*
X0260923Y0003236D01*
X0261359Y0003166D01*
X0261797Y0003107D01*
X0262236Y0003059D01*
X0262676Y0003021D01*
X0263117Y0002994D01*
X0263558Y0002977D01*
X0264000Y0002972D01*
X0264442Y0002977D01*
X0264883Y0002994D01*
X0265324Y0003021D01*
X0265764Y0003059D01*
X0266203Y0003107D01*
X0266641Y0003166D01*
X0267077Y0003236D01*
X0267511Y0003317D01*
X0267943Y0003408D01*
X0268373Y0003510D01*
X0268800Y0003623D01*
X0269224Y0003746D01*
X0269645Y0003879D01*
X0270063Y0004022D01*
X0270477Y0004176D01*
X0270887Y0004339D01*
X0271293Y0004513D01*
X0271695Y0004697D01*
X0272092Y0004890D01*
X0272484Y0005093D01*
X0272872Y0005306D01*
X0273253Y0005528D01*
X0273630Y0005759D01*
X0274000Y0006000D01*
X0285500Y0006000D01*
X0290000Y0010500D01*
X0290000Y0017500D01*
X0289000Y0023500D01*
X0302000Y0025500D02*
X0302000Y0126500D01*
X0302002Y0126587D01*
X0302008Y0126674D01*
X0302017Y0126761D01*
X0302030Y0126847D01*
X0302047Y0126933D01*
X0302068Y0127018D01*
X0302093Y0127101D01*
X0302121Y0127184D01*
X0302152Y0127265D01*
X0302187Y0127345D01*
X0302226Y0127423D01*
X0302268Y0127500D01*
X0302313Y0127575D01*
X0302362Y0127647D01*
X0302413Y0127718D01*
X0302468Y0127786D01*
X0302525Y0127851D01*
X0302586Y0127914D01*
X0302649Y0127975D01*
X0302714Y0128032D01*
X0302782Y0128087D01*
X0302853Y0128138D01*
X0302925Y0128187D01*
X0303000Y0128232D01*
X0303077Y0128274D01*
X0303155Y0128313D01*
X0303235Y0128348D01*
X0303316Y0128379D01*
X0303399Y0128407D01*
X0303482Y0128432D01*
X0303567Y0128453D01*
X0303653Y0128470D01*
X0303739Y0128483D01*
X0303826Y0128492D01*
X0303913Y0128498D01*
X0304000Y0128500D01*
X0334000Y0128500D01*
X0334087Y0128498D01*
X0334174Y0128492D01*
X0334261Y0128483D01*
X0334347Y0128470D01*
X0334433Y0128453D01*
X0334518Y0128432D01*
X0334601Y0128407D01*
X0334684Y0128379D01*
X0334765Y0128348D01*
X0334845Y0128313D01*
X0334923Y0128274D01*
X0335000Y0128232D01*
X0335075Y0128187D01*
X0335147Y0128138D01*
X0335218Y0128087D01*
X0335286Y0128032D01*
X0335351Y0127975D01*
X0335414Y0127914D01*
X0335475Y0127851D01*
X0335532Y0127786D01*
X0335587Y0127718D01*
X0335638Y0127647D01*
X0335687Y0127575D01*
X0335732Y0127500D01*
X0335774Y0127423D01*
X0335813Y0127345D01*
X0335848Y0127265D01*
X0335879Y0127184D01*
X0335907Y0127101D01*
X0335932Y0127018D01*
X0335953Y0126933D01*
X0335970Y0126847D01*
X0335983Y0126761D01*
X0335992Y0126674D01*
X0335998Y0126587D01*
X0336000Y0126500D01*
X0336000Y0025500D01*
X0335998Y0025413D01*
X0335992Y0025326D01*
X0335983Y0025239D01*
X0335970Y0025153D01*
X0335953Y0025067D01*
X0335932Y0024982D01*
X0335907Y0024899D01*
X0335879Y0024816D01*
X0335848Y0024735D01*
X0335813Y0024655D01*
X0335774Y0024577D01*
X0335732Y0024500D01*
X0335687Y0024425D01*
X0335638Y0024353D01*
X0335587Y0024282D01*
X0335532Y0024214D01*
X0335475Y0024149D01*
X0335414Y0024086D01*
X0335351Y0024025D01*
X0335286Y0023968D01*
X0335218Y0023913D01*
X0335147Y0023862D01*
X0335075Y0023813D01*
X0335000Y0023768D01*
X0334923Y0023726D01*
X0334845Y0023687D01*
X0334765Y0023652D01*
X0334684Y0023621D01*
X0334601Y0023593D01*
X0334518Y0023568D01*
X0334433Y0023547D01*
X0334347Y0023530D01*
X0334261Y0023517D01*
X0334174Y0023508D01*
X0334087Y0023502D01*
X0334000Y0023500D01*
X0304000Y0023500D01*
X0303913Y0023502D01*
X0303826Y0023508D01*
X0303739Y0023517D01*
X0303653Y0023530D01*
X0303567Y0023547D01*
X0303482Y0023568D01*
X0303399Y0023593D01*
X0303316Y0023621D01*
X0303235Y0023652D01*
X0303155Y0023687D01*
X0303077Y0023726D01*
X0303000Y0023768D01*
X0302925Y0023813D01*
X0302853Y0023862D01*
X0302782Y0023913D01*
X0302714Y0023968D01*
X0302649Y0024025D01*
X0302586Y0024086D01*
X0302525Y0024149D01*
X0302468Y0024214D01*
X0302413Y0024282D01*
X0302362Y0024353D01*
X0302313Y0024425D01*
X0302268Y0024500D01*
X0302226Y0024577D01*
X0302187Y0024655D01*
X0302152Y0024735D01*
X0302121Y0024816D01*
X0302093Y0024899D01*
X0302068Y0024982D01*
X0302047Y0025067D01*
X0302030Y0025153D01*
X0302017Y0025239D01*
X0302008Y0025326D01*
X0302002Y0025413D01*
X0302000Y0025500D01*
X0319000Y0038000D02*
X0319000Y0102500D01*
X0319000Y0106000D02*
X0319000Y0114000D01*
X0304632Y0136300D02*
X0305700Y0137368D01*
X0305700Y0139503D01*
X0304632Y0140570D01*
X0303565Y0140570D01*
X0302497Y0139503D01*
X0302497Y0137368D01*
X0301430Y0136300D01*
X0300362Y0136300D01*
X0299295Y0137368D01*
X0299295Y0139503D01*
X0300362Y0140570D01*
X0299295Y0142745D02*
X0305700Y0142745D01*
X0303565Y0144881D01*
X0305700Y0147016D01*
X0299295Y0147016D01*
X0249000Y0096000D02*
X0242500Y0096000D01*
X0238000Y0091500D01*
X0238000Y0084500D01*
X0239000Y0078500D01*
X0249000Y0088500D02*
X0264000Y0088500D01*
X0274000Y0088500D02*
X0281500Y0088500D01*
X0310295Y0084850D02*
X0310295Y0080580D01*
X0316700Y0080580D01*
X0313497Y0080580D02*
X0313497Y0082715D01*
X0312430Y0078404D02*
X0316700Y0078404D01*
X0316700Y0075202D01*
X0315632Y0074134D01*
X0312430Y0074134D01*
X0311362Y0071959D02*
X0315632Y0067689D01*
X0316700Y0067689D01*
X0321295Y0068003D02*
X0321295Y0065868D01*
X0322362Y0064800D01*
X0316700Y0064446D02*
X0310295Y0064446D01*
X0313497Y0061243D01*
X0313497Y0065513D01*
X0310295Y0067689D02*
X0310295Y0071959D01*
X0311362Y0071959D01*
X0321295Y0068003D02*
X0322362Y0069070D01*
X0323430Y0069070D01*
X0327700Y0064800D01*
X0327700Y0069070D01*
X0327700Y0062625D02*
X0321295Y0058355D01*
X0316700Y0058020D02*
X0316700Y0059088D01*
X0315632Y0059088D01*
X0315632Y0058020D01*
X0316700Y0058020D01*
X0315632Y0055845D02*
X0311362Y0055845D01*
X0315632Y0051575D01*
X0316700Y0052642D01*
X0316700Y0054778D01*
X0315632Y0055845D01*
X0311362Y0055845D02*
X0310295Y0054778D01*
X0310295Y0052642D01*
X0311362Y0051575D01*
X0315632Y0051575D01*
X0238945Y0078336D02*
X0238299Y0076290D01*
X0237704Y0074229D01*
X0237159Y0072154D01*
X0236666Y0070066D01*
X0236223Y0067967D01*
X0235833Y0065858D01*
X0235494Y0063740D01*
X0235208Y0061614D01*
X0234973Y0059481D01*
X0234791Y0057344D01*
X0234662Y0055202D01*
X0234585Y0053058D01*
X0234561Y0050913D01*
X0234589Y0048768D01*
X0234671Y0046625D01*
X0234804Y0044484D01*
X0234990Y0042346D01*
X0235229Y0040215D01*
X0235520Y0038089D01*
X0235862Y0035971D01*
X0236257Y0033863D01*
X0236703Y0031765D01*
X0237201Y0029678D01*
X0237750Y0027604D01*
X0238349Y0025544D01*
X0238999Y0023500D01*
X0260295Y0038044D02*
X0262430Y0035909D01*
X0260295Y0038044D02*
X0266700Y0038044D01*
X0266700Y0035909D02*
X0266700Y0040179D01*
X0265632Y0042354D02*
X0261362Y0046625D01*
X0265632Y0046625D01*
X0266700Y0045557D01*
X0266700Y0043422D01*
X0265632Y0042354D01*
X0261362Y0042354D01*
X0260295Y0043422D01*
X0260295Y0045557D01*
X0261362Y0046625D01*
X0262430Y0048800D02*
X0262430Y0049868D01*
X0263497Y0050935D01*
X0262430Y0052003D01*
X0263497Y0053070D01*
X0266700Y0053070D01*
X0266700Y0055245D02*
X0260295Y0055245D01*
X0263497Y0055245D02*
X0263497Y0059516D01*
X0260295Y0059516D02*
X0266700Y0059516D01*
X0266700Y0050935D02*
X0263497Y0050935D01*
X0262430Y0048800D02*
X0266700Y0048800D01*
X0221700Y0049354D02*
X0215295Y0053625D01*
X0216362Y0055800D02*
X0215295Y0056868D01*
X0215295Y0059003D01*
X0216362Y0060070D01*
X0217430Y0060070D01*
X0221700Y0055800D01*
X0221700Y0060070D01*
X0221700Y0053625D02*
X0215295Y0049354D01*
X0289055Y0023664D02*
X0289701Y0025710D01*
X0290296Y0027771D01*
X0290841Y0029846D01*
X0291334Y0031934D01*
X0291777Y0034033D01*
X0292167Y0036142D01*
X0292506Y0038260D01*
X0292792Y0040386D01*
X0293027Y0042519D01*
X0293209Y0044656D01*
X0293338Y0046798D01*
X0293415Y0048942D01*
X0293439Y0051087D01*
X0293411Y0053232D01*
X0293329Y0055375D01*
X0293196Y0057516D01*
X0293010Y0059654D01*
X0292771Y0061785D01*
X0292480Y0063911D01*
X0292138Y0066029D01*
X0291743Y0068137D01*
X0291297Y0070235D01*
X0290799Y0072322D01*
X0290250Y0074396D01*
X0289651Y0076456D01*
X0289001Y0078500D01*
X0279000Y0096000D02*
X0278444Y0096361D01*
X0277880Y0096708D01*
X0277307Y0097041D01*
X0276727Y0097360D01*
X0276138Y0097665D01*
X0275543Y0097955D01*
X0274940Y0098230D01*
X0274331Y0098491D01*
X0273716Y0098736D01*
X0273095Y0098967D01*
X0272468Y0099182D01*
X0271836Y0099382D01*
X0271200Y0099566D01*
X0270559Y0099734D01*
X0269915Y0099887D01*
X0269266Y0100024D01*
X0268615Y0100145D01*
X0267961Y0100250D01*
X0267304Y0100339D01*
X0266646Y0100412D01*
X0265986Y0100469D01*
X0265325Y0100510D01*
X0264662Y0100534D01*
X0264000Y0100542D01*
X0263338Y0100534D01*
X0262675Y0100510D01*
X0262014Y0100469D01*
X0261354Y0100412D01*
X0260696Y0100339D01*
X0260039Y0100250D01*
X0259385Y0100145D01*
X0258734Y0100024D01*
X0258085Y0099887D01*
X0257441Y0099734D01*
X0256800Y0099566D01*
X0256164Y0099382D01*
X0255532Y0099182D01*
X0254905Y0098967D01*
X0254284Y0098736D01*
X0253669Y0098491D01*
X0253060Y0098230D01*
X0252457Y0097955D01*
X0251862Y0097665D01*
X0251273Y0097360D01*
X0250693Y0097041D01*
X0250120Y0096708D01*
X0249556Y0096361D01*
X0249000Y0096000D01*
X0209000Y0094000D02*
X0209000Y0086000D01*
X0209000Y0082500D02*
X0209000Y0018000D01*
X0187200Y0027490D02*
X0183997Y0027490D01*
X0181862Y0029625D01*
X0180795Y0029625D01*
X0181862Y0031800D02*
X0180795Y0032868D01*
X0180795Y0035003D01*
X0181862Y0036070D01*
X0182930Y0036070D01*
X0187200Y0031800D01*
X0187200Y0036070D01*
X0195295Y0038642D02*
X0195295Y0040778D01*
X0196362Y0041845D01*
X0200632Y0037575D01*
X0201700Y0038642D01*
X0201700Y0040778D01*
X0200632Y0041845D01*
X0196362Y0041845D01*
X0195295Y0038642D02*
X0196362Y0037575D01*
X0200632Y0037575D01*
X0200632Y0044020D02*
X0200632Y0045088D01*
X0201700Y0045088D01*
X0201700Y0044020D01*
X0200632Y0044020D01*
X0198497Y0047243D02*
X0198497Y0051513D01*
X0200632Y0053689D02*
X0201700Y0053689D01*
X0200632Y0053689D02*
X0196362Y0057959D01*
X0195295Y0057959D01*
X0195295Y0053689D01*
X0195295Y0050446D02*
X0198497Y0047243D01*
X0201700Y0050446D02*
X0195295Y0050446D01*
X0179000Y0043500D02*
X0179000Y0019500D01*
X0177200Y0020000D02*
X0170795Y0020000D01*
X0173997Y0016798D01*
X0173997Y0021068D01*
X0176132Y0023243D02*
X0176132Y0024311D01*
X0177200Y0024311D01*
X0177200Y0023243D01*
X0176132Y0023243D01*
X0176132Y0026466D02*
X0177200Y0026466D01*
X0176132Y0026466D02*
X0171862Y0030736D01*
X0170795Y0030736D01*
X0170795Y0026466D01*
X0180795Y0025355D02*
X0181862Y0025355D01*
X0183997Y0027490D01*
X0177200Y0032911D02*
X0172930Y0032911D01*
X0172930Y0036114D01*
X0173997Y0037182D01*
X0177200Y0037182D01*
X0177200Y0039357D02*
X0170795Y0039357D01*
X0170795Y0043627D01*
X0173997Y0041492D02*
X0173997Y0039357D01*
X0169000Y0052500D02*
X0169002Y0052587D01*
X0169008Y0052674D01*
X0169017Y0052761D01*
X0169030Y0052847D01*
X0169047Y0052933D01*
X0169068Y0053018D01*
X0169093Y0053101D01*
X0169121Y0053184D01*
X0169152Y0053265D01*
X0169187Y0053345D01*
X0169226Y0053423D01*
X0169268Y0053500D01*
X0169313Y0053575D01*
X0169362Y0053647D01*
X0169413Y0053718D01*
X0169468Y0053786D01*
X0169525Y0053851D01*
X0169586Y0053914D01*
X0169649Y0053975D01*
X0169714Y0054032D01*
X0169782Y0054087D01*
X0169853Y0054138D01*
X0169925Y0054187D01*
X0170000Y0054232D01*
X0170077Y0054274D01*
X0170155Y0054313D01*
X0170235Y0054348D01*
X0170316Y0054379D01*
X0170399Y0054407D01*
X0170482Y0054432D01*
X0170567Y0054453D01*
X0170653Y0054470D01*
X0170739Y0054483D01*
X0170826Y0054492D01*
X0170913Y0054498D01*
X0171000Y0054500D01*
X0197430Y0060134D02*
X0200632Y0060134D01*
X0201700Y0061202D01*
X0201700Y0064404D01*
X0197430Y0064404D01*
X0198497Y0066580D02*
X0198497Y0068715D01*
X0195295Y0066580D02*
X0195295Y0070850D01*
X0195295Y0066580D02*
X0201700Y0066580D01*
X0179000Y0016000D02*
X0179000Y0013500D01*
X0242500Y0006000D02*
X0254000Y0006000D01*
X0321295Y0062625D02*
X0327700Y0058355D01*
D12*
X0326500Y0102500D02*
X0319000Y0102500D01*
X0311500Y0102500D01*
X0311500Y0106000D02*
X0319000Y0106000D01*
X0326500Y0106000D01*
X0284500Y0108500D02*
X0284500Y0113500D01*
X0284500Y0118500D01*
X0281000Y0118500D02*
X0281000Y0113500D01*
X0281000Y0108500D01*
X0216500Y0086000D02*
X0209000Y0086000D01*
X0201500Y0086000D01*
X0201500Y0082500D02*
X0209000Y0082500D01*
X0216500Y0082500D01*
X0184000Y0092500D02*
X0179000Y0092500D01*
X0174000Y0092500D01*
X0174000Y0096000D02*
X0179000Y0096000D01*
X0184000Y0096000D01*
X0066500Y0086000D02*
X0059000Y0086000D01*
X0051500Y0086000D01*
X0051500Y0082500D02*
X0059000Y0082500D01*
X0066500Y0082500D01*
X0174000Y0019500D02*
X0179000Y0019500D01*
X0184000Y0019500D01*
X0184000Y0016000D02*
X0179000Y0016000D01*
X0174000Y0016000D01*
D13*
X0099000Y0122000D02*
X0059000Y0122000D01*
X0058500Y0133500D02*
X0099500Y0133500D01*
X0099000Y0145000D02*
X0059000Y0145000D01*
D14*
X0038250Y0133500D03*
X0119750Y0133500D03*
D15*
X0118750Y0141250D03*
X0118750Y0125750D03*
X0039250Y0125750D03*
X0039250Y0141250D03*
D16*
X0057750Y0143750D03*
X0057750Y0123250D03*
X0100250Y0123250D03*
X0100250Y0143750D03*
D17*
X0100250Y0133500D03*
X0057750Y0133500D03*
D18*
X0079000Y0124000D03*
X0079000Y0143000D03*
D19*
X0048750Y0141250D03*
X0048750Y0125750D03*
X0109250Y0125750D03*
X0109250Y0141250D03*
D20*
X0111000Y0142500D03*
X0111000Y0124500D03*
X0047000Y0124500D03*
X0047000Y0142500D03*
D21*
X0154000Y0086000D02*
X0154000Y0081000D01*
X0154000Y0041000D02*
X0154000Y0036000D01*
D22*
X0154000Y0042300D03*
X0154000Y0079700D03*
D23*
X0114000Y0091000D03*
X0264000Y0088500D03*
X0114000Y0016000D03*
X0264000Y0013500D03*
D24*
X0034945Y0045917D02*
X0033764Y0045917D01*
X0033764Y0105917D01*
X0034945Y0105917D01*
X0034945Y0045917D01*
X0033764Y0045917D02*
X0032098Y0045917D01*
X0031315Y0045917D01*
X0031315Y0105917D01*
X0033764Y0105917D01*
X0031315Y0105917D02*
X0028637Y0105917D01*
X0026699Y0105917D01*
X0010963Y0105917D01*
X0009062Y0105917D01*
X0003055Y0105917D01*
X0003055Y0045917D01*
X0009062Y0045917D01*
X0010963Y0045917D01*
X0026699Y0045917D01*
X0028637Y0045917D01*
X0028637Y0105917D01*
X0020850Y0095917D02*
X0018370Y0098397D01*
X0014677Y0102090D01*
X0012728Y0100141D02*
X0016484Y0096385D01*
X0016953Y0095917D01*
X0019469Y0093401D01*
X0023126Y0089744D01*
X0025075Y0091693D02*
X0021480Y0095287D01*
X0020850Y0095917D01*
X0021480Y0095287D02*
X0021454Y0095190D01*
X0021423Y0095095D01*
X0021389Y0095000D01*
X0021351Y0094907D01*
X0021310Y0094816D01*
X0021265Y0094726D01*
X0021216Y0094638D01*
X0021165Y0094552D01*
X0021109Y0094468D01*
X0021051Y0094386D01*
X0020989Y0094307D01*
X0020925Y0094230D01*
X0020857Y0094156D01*
X0020786Y0094085D01*
X0020713Y0094016D01*
X0020637Y0093950D01*
X0020559Y0093888D01*
X0020478Y0093828D01*
X0020395Y0093772D01*
X0020310Y0093719D01*
X0020222Y0093669D01*
X0020133Y0093623D01*
X0020042Y0093580D01*
X0019950Y0093541D01*
X0019856Y0093505D01*
X0019761Y0093474D01*
X0019664Y0093446D01*
X0019567Y0093422D01*
X0019468Y0093401D01*
X0016484Y0096385D02*
X0016505Y0096484D01*
X0016529Y0096581D01*
X0016557Y0096678D01*
X0016588Y0096773D01*
X0016624Y0096867D01*
X0016663Y0096959D01*
X0016706Y0097050D01*
X0016752Y0097139D01*
X0016802Y0097227D01*
X0016855Y0097312D01*
X0016911Y0097395D01*
X0016971Y0097476D01*
X0017033Y0097554D01*
X0017099Y0097630D01*
X0017168Y0097703D01*
X0017239Y0097774D01*
X0017313Y0097842D01*
X0017390Y0097906D01*
X0017469Y0097968D01*
X0017551Y0098026D01*
X0017635Y0098082D01*
X0017721Y0098133D01*
X0017809Y0098182D01*
X0017899Y0098227D01*
X0017990Y0098268D01*
X0018083Y0098306D01*
X0018178Y0098340D01*
X0018273Y0098371D01*
X0018370Y0098397D01*
X0011363Y0095917D02*
X0011365Y0096102D01*
X0011372Y0096287D01*
X0011383Y0096472D01*
X0011399Y0096656D01*
X0011420Y0096840D01*
X0011445Y0097023D01*
X0011474Y0097206D01*
X0011508Y0097388D01*
X0011546Y0097569D01*
X0011589Y0097749D01*
X0011636Y0097928D01*
X0011688Y0098105D01*
X0011744Y0098282D01*
X0011804Y0098457D01*
X0011868Y0098630D01*
X0011937Y0098802D01*
X0012010Y0098972D01*
X0012087Y0099140D01*
X0012168Y0099307D01*
X0012253Y0099471D01*
X0012342Y0099633D01*
X0012436Y0099793D01*
X0012533Y0099950D01*
X0012634Y0100105D01*
X0012738Y0100258D01*
X0012847Y0100408D01*
X0012959Y0100555D01*
X0013074Y0100700D01*
X0013193Y0100841D01*
X0013316Y0100980D01*
X0013442Y0101115D01*
X0013571Y0101248D01*
X0013704Y0101377D01*
X0013839Y0101503D01*
X0013978Y0101626D01*
X0014119Y0101745D01*
X0014264Y0101860D01*
X0014411Y0101972D01*
X0014561Y0102081D01*
X0014714Y0102185D01*
X0014869Y0102286D01*
X0015026Y0102383D01*
X0015186Y0102477D01*
X0015348Y0102566D01*
X0015512Y0102651D01*
X0015679Y0102732D01*
X0015847Y0102809D01*
X0016017Y0102882D01*
X0016189Y0102951D01*
X0016362Y0103015D01*
X0016537Y0103075D01*
X0016714Y0103131D01*
X0016891Y0103183D01*
X0017070Y0103230D01*
X0017250Y0103273D01*
X0017431Y0103311D01*
X0017613Y0103345D01*
X0017796Y0103374D01*
X0017979Y0103399D01*
X0018163Y0103420D01*
X0018347Y0103436D01*
X0018532Y0103447D01*
X0018717Y0103454D01*
X0018902Y0103456D01*
X0019087Y0103454D01*
X0019272Y0103447D01*
X0019457Y0103436D01*
X0019641Y0103420D01*
X0019825Y0103399D01*
X0020008Y0103374D01*
X0020191Y0103345D01*
X0020373Y0103311D01*
X0020554Y0103273D01*
X0020734Y0103230D01*
X0020913Y0103183D01*
X0021090Y0103131D01*
X0021267Y0103075D01*
X0021442Y0103015D01*
X0021615Y0102951D01*
X0021787Y0102882D01*
X0021957Y0102809D01*
X0022125Y0102732D01*
X0022292Y0102651D01*
X0022456Y0102566D01*
X0022618Y0102477D01*
X0022778Y0102383D01*
X0022935Y0102286D01*
X0023090Y0102185D01*
X0023243Y0102081D01*
X0023393Y0101972D01*
X0023540Y0101860D01*
X0023685Y0101745D01*
X0023826Y0101626D01*
X0023965Y0101503D01*
X0024100Y0101377D01*
X0024233Y0101248D01*
X0024362Y0101115D01*
X0024488Y0100980D01*
X0024611Y0100841D01*
X0024730Y0100700D01*
X0024845Y0100555D01*
X0024957Y0100408D01*
X0025066Y0100258D01*
X0025170Y0100105D01*
X0025271Y0099950D01*
X0025368Y0099793D01*
X0025462Y0099633D01*
X0025551Y0099471D01*
X0025636Y0099307D01*
X0025717Y0099140D01*
X0025794Y0098972D01*
X0025867Y0098802D01*
X0025936Y0098630D01*
X0026000Y0098457D01*
X0026060Y0098282D01*
X0026116Y0098105D01*
X0026168Y0097928D01*
X0026215Y0097749D01*
X0026258Y0097569D01*
X0026296Y0097388D01*
X0026330Y0097206D01*
X0026359Y0097023D01*
X0026384Y0096840D01*
X0026405Y0096656D01*
X0026421Y0096472D01*
X0026432Y0096287D01*
X0026439Y0096102D01*
X0026441Y0095917D01*
X0026439Y0095732D01*
X0026432Y0095547D01*
X0026421Y0095362D01*
X0026405Y0095178D01*
X0026384Y0094994D01*
X0026359Y0094811D01*
X0026330Y0094628D01*
X0026296Y0094446D01*
X0026258Y0094265D01*
X0026215Y0094085D01*
X0026168Y0093906D01*
X0026116Y0093729D01*
X0026060Y0093552D01*
X0026000Y0093377D01*
X0025936Y0093204D01*
X0025867Y0093032D01*
X0025794Y0092862D01*
X0025717Y0092694D01*
X0025636Y0092527D01*
X0025551Y0092363D01*
X0025462Y0092201D01*
X0025368Y0092041D01*
X0025271Y0091884D01*
X0025170Y0091729D01*
X0025066Y0091576D01*
X0024957Y0091426D01*
X0024845Y0091279D01*
X0024730Y0091134D01*
X0024611Y0090993D01*
X0024488Y0090854D01*
X0024362Y0090719D01*
X0024233Y0090586D01*
X0024100Y0090457D01*
X0023965Y0090331D01*
X0023826Y0090208D01*
X0023685Y0090089D01*
X0023540Y0089974D01*
X0023393Y0089862D01*
X0023243Y0089753D01*
X0023090Y0089649D01*
X0022935Y0089548D01*
X0022778Y0089451D01*
X0022618Y0089357D01*
X0022456Y0089268D01*
X0022292Y0089183D01*
X0022125Y0089102D01*
X0021957Y0089025D01*
X0021787Y0088952D01*
X0021615Y0088883D01*
X0021442Y0088819D01*
X0021267Y0088759D01*
X0021090Y0088703D01*
X0020913Y0088651D01*
X0020734Y0088604D01*
X0020554Y0088561D01*
X0020373Y0088523D01*
X0020191Y0088489D01*
X0020008Y0088460D01*
X0019825Y0088435D01*
X0019641Y0088414D01*
X0019457Y0088398D01*
X0019272Y0088387D01*
X0019087Y0088380D01*
X0018902Y0088378D01*
X0018717Y0088380D01*
X0018532Y0088387D01*
X0018347Y0088398D01*
X0018163Y0088414D01*
X0017979Y0088435D01*
X0017796Y0088460D01*
X0017613Y0088489D01*
X0017431Y0088523D01*
X0017250Y0088561D01*
X0017070Y0088604D01*
X0016891Y0088651D01*
X0016714Y0088703D01*
X0016537Y0088759D01*
X0016362Y0088819D01*
X0016189Y0088883D01*
X0016017Y0088952D01*
X0015847Y0089025D01*
X0015679Y0089102D01*
X0015512Y0089183D01*
X0015348Y0089268D01*
X0015186Y0089357D01*
X0015026Y0089451D01*
X0014869Y0089548D01*
X0014714Y0089649D01*
X0014561Y0089753D01*
X0014411Y0089862D01*
X0014264Y0089974D01*
X0014119Y0090089D01*
X0013978Y0090208D01*
X0013839Y0090331D01*
X0013704Y0090457D01*
X0013571Y0090586D01*
X0013442Y0090719D01*
X0013316Y0090854D01*
X0013193Y0090993D01*
X0013074Y0091134D01*
X0012959Y0091279D01*
X0012847Y0091426D01*
X0012738Y0091576D01*
X0012634Y0091729D01*
X0012533Y0091884D01*
X0012436Y0092041D01*
X0012342Y0092201D01*
X0012253Y0092363D01*
X0012168Y0092527D01*
X0012087Y0092694D01*
X0012010Y0092862D01*
X0011937Y0093032D01*
X0011868Y0093204D01*
X0011804Y0093377D01*
X0011744Y0093552D01*
X0011688Y0093729D01*
X0011636Y0093906D01*
X0011589Y0094085D01*
X0011546Y0094265D01*
X0011508Y0094446D01*
X0011474Y0094628D01*
X0011445Y0094811D01*
X0011420Y0094994D01*
X0011399Y0095178D01*
X0011383Y0095362D01*
X0011372Y0095547D01*
X0011365Y0095732D01*
X0011363Y0095917D01*
X0009062Y0105917D02*
X0009062Y0045917D01*
X0019469Y0053401D02*
X0023126Y0049744D01*
X0025075Y0051693D02*
X0021480Y0055287D01*
X0020850Y0055917D01*
X0018370Y0058397D01*
X0014677Y0062090D01*
X0012728Y0060141D02*
X0016484Y0056385D01*
X0016953Y0055917D01*
X0019469Y0053401D01*
X0019468Y0053401D02*
X0019567Y0053422D01*
X0019664Y0053446D01*
X0019761Y0053474D01*
X0019856Y0053505D01*
X0019950Y0053541D01*
X0020042Y0053580D01*
X0020133Y0053623D01*
X0020222Y0053669D01*
X0020310Y0053719D01*
X0020395Y0053772D01*
X0020478Y0053828D01*
X0020559Y0053888D01*
X0020637Y0053950D01*
X0020713Y0054016D01*
X0020786Y0054085D01*
X0020857Y0054156D01*
X0020925Y0054230D01*
X0020989Y0054307D01*
X0021051Y0054386D01*
X0021109Y0054468D01*
X0021165Y0054552D01*
X0021216Y0054638D01*
X0021265Y0054726D01*
X0021310Y0054816D01*
X0021351Y0054907D01*
X0021389Y0055000D01*
X0021423Y0055095D01*
X0021454Y0055190D01*
X0021480Y0055287D01*
X0018370Y0058397D02*
X0018273Y0058371D01*
X0018178Y0058340D01*
X0018083Y0058306D01*
X0017990Y0058268D01*
X0017899Y0058227D01*
X0017809Y0058182D01*
X0017721Y0058133D01*
X0017635Y0058082D01*
X0017551Y0058026D01*
X0017469Y0057968D01*
X0017390Y0057906D01*
X0017313Y0057842D01*
X0017239Y0057774D01*
X0017168Y0057703D01*
X0017099Y0057630D01*
X0017033Y0057554D01*
X0016971Y0057476D01*
X0016911Y0057395D01*
X0016855Y0057312D01*
X0016802Y0057227D01*
X0016752Y0057139D01*
X0016706Y0057050D01*
X0016663Y0056959D01*
X0016624Y0056867D01*
X0016588Y0056773D01*
X0016557Y0056678D01*
X0016529Y0056581D01*
X0016505Y0056484D01*
X0016484Y0056385D01*
X0011363Y0055917D02*
X0011365Y0056102D01*
X0011372Y0056287D01*
X0011383Y0056472D01*
X0011399Y0056656D01*
X0011420Y0056840D01*
X0011445Y0057023D01*
X0011474Y0057206D01*
X0011508Y0057388D01*
X0011546Y0057569D01*
X0011589Y0057749D01*
X0011636Y0057928D01*
X0011688Y0058105D01*
X0011744Y0058282D01*
X0011804Y0058457D01*
X0011868Y0058630D01*
X0011937Y0058802D01*
X0012010Y0058972D01*
X0012087Y0059140D01*
X0012168Y0059307D01*
X0012253Y0059471D01*
X0012342Y0059633D01*
X0012436Y0059793D01*
X0012533Y0059950D01*
X0012634Y0060105D01*
X0012738Y0060258D01*
X0012847Y0060408D01*
X0012959Y0060555D01*
X0013074Y0060700D01*
X0013193Y0060841D01*
X0013316Y0060980D01*
X0013442Y0061115D01*
X0013571Y0061248D01*
X0013704Y0061377D01*
X0013839Y0061503D01*
X0013978Y0061626D01*
X0014119Y0061745D01*
X0014264Y0061860D01*
X0014411Y0061972D01*
X0014561Y0062081D01*
X0014714Y0062185D01*
X0014869Y0062286D01*
X0015026Y0062383D01*
X0015186Y0062477D01*
X0015348Y0062566D01*
X0015512Y0062651D01*
X0015679Y0062732D01*
X0015847Y0062809D01*
X0016017Y0062882D01*
X0016189Y0062951D01*
X0016362Y0063015D01*
X0016537Y0063075D01*
X0016714Y0063131D01*
X0016891Y0063183D01*
X0017070Y0063230D01*
X0017250Y0063273D01*
X0017431Y0063311D01*
X0017613Y0063345D01*
X0017796Y0063374D01*
X0017979Y0063399D01*
X0018163Y0063420D01*
X0018347Y0063436D01*
X0018532Y0063447D01*
X0018717Y0063454D01*
X0018902Y0063456D01*
X0019087Y0063454D01*
X0019272Y0063447D01*
X0019457Y0063436D01*
X0019641Y0063420D01*
X0019825Y0063399D01*
X0020008Y0063374D01*
X0020191Y0063345D01*
X0020373Y0063311D01*
X0020554Y0063273D01*
X0020734Y0063230D01*
X0020913Y0063183D01*
X0021090Y0063131D01*
X0021267Y0063075D01*
X0021442Y0063015D01*
X0021615Y0062951D01*
X0021787Y0062882D01*
X0021957Y0062809D01*
X0022125Y0062732D01*
X0022292Y0062651D01*
X0022456Y0062566D01*
X0022618Y0062477D01*
X0022778Y0062383D01*
X0022935Y0062286D01*
X0023090Y0062185D01*
X0023243Y0062081D01*
X0023393Y0061972D01*
X0023540Y0061860D01*
X0023685Y0061745D01*
X0023826Y0061626D01*
X0023965Y0061503D01*
X0024100Y0061377D01*
X0024233Y0061248D01*
X0024362Y0061115D01*
X0024488Y0060980D01*
X0024611Y0060841D01*
X0024730Y0060700D01*
X0024845Y0060555D01*
X0024957Y0060408D01*
X0025066Y0060258D01*
X0025170Y0060105D01*
X0025271Y0059950D01*
X0025368Y0059793D01*
X0025462Y0059633D01*
X0025551Y0059471D01*
X0025636Y0059307D01*
X0025717Y0059140D01*
X0025794Y0058972D01*
X0025867Y0058802D01*
X0025936Y0058630D01*
X0026000Y0058457D01*
X0026060Y0058282D01*
X0026116Y0058105D01*
X0026168Y0057928D01*
X0026215Y0057749D01*
X0026258Y0057569D01*
X0026296Y0057388D01*
X0026330Y0057206D01*
X0026359Y0057023D01*
X0026384Y0056840D01*
X0026405Y0056656D01*
X0026421Y0056472D01*
X0026432Y0056287D01*
X0026439Y0056102D01*
X0026441Y0055917D01*
X0026439Y0055732D01*
X0026432Y0055547D01*
X0026421Y0055362D01*
X0026405Y0055178D01*
X0026384Y0054994D01*
X0026359Y0054811D01*
X0026330Y0054628D01*
X0026296Y0054446D01*
X0026258Y0054265D01*
X0026215Y0054085D01*
X0026168Y0053906D01*
X0026116Y0053729D01*
X0026060Y0053552D01*
X0026000Y0053377D01*
X0025936Y0053204D01*
X0025867Y0053032D01*
X0025794Y0052862D01*
X0025717Y0052694D01*
X0025636Y0052527D01*
X0025551Y0052363D01*
X0025462Y0052201D01*
X0025368Y0052041D01*
X0025271Y0051884D01*
X0025170Y0051729D01*
X0025066Y0051576D01*
X0024957Y0051426D01*
X0024845Y0051279D01*
X0024730Y0051134D01*
X0024611Y0050993D01*
X0024488Y0050854D01*
X0024362Y0050719D01*
X0024233Y0050586D01*
X0024100Y0050457D01*
X0023965Y0050331D01*
X0023826Y0050208D01*
X0023685Y0050089D01*
X0023540Y0049974D01*
X0023393Y0049862D01*
X0023243Y0049753D01*
X0023090Y0049649D01*
X0022935Y0049548D01*
X0022778Y0049451D01*
X0022618Y0049357D01*
X0022456Y0049268D01*
X0022292Y0049183D01*
X0022125Y0049102D01*
X0021957Y0049025D01*
X0021787Y0048952D01*
X0021615Y0048883D01*
X0021442Y0048819D01*
X0021267Y0048759D01*
X0021090Y0048703D01*
X0020913Y0048651D01*
X0020734Y0048604D01*
X0020554Y0048561D01*
X0020373Y0048523D01*
X0020191Y0048489D01*
X0020008Y0048460D01*
X0019825Y0048435D01*
X0019641Y0048414D01*
X0019457Y0048398D01*
X0019272Y0048387D01*
X0019087Y0048380D01*
X0018902Y0048378D01*
X0018717Y0048380D01*
X0018532Y0048387D01*
X0018347Y0048398D01*
X0018163Y0048414D01*
X0017979Y0048435D01*
X0017796Y0048460D01*
X0017613Y0048489D01*
X0017431Y0048523D01*
X0017250Y0048561D01*
X0017070Y0048604D01*
X0016891Y0048651D01*
X0016714Y0048703D01*
X0016537Y0048759D01*
X0016362Y0048819D01*
X0016189Y0048883D01*
X0016017Y0048952D01*
X0015847Y0049025D01*
X0015679Y0049102D01*
X0015512Y0049183D01*
X0015348Y0049268D01*
X0015186Y0049357D01*
X0015026Y0049451D01*
X0014869Y0049548D01*
X0014714Y0049649D01*
X0014561Y0049753D01*
X0014411Y0049862D01*
X0014264Y0049974D01*
X0014119Y0050089D01*
X0013978Y0050208D01*
X0013839Y0050331D01*
X0013704Y0050457D01*
X0013571Y0050586D01*
X0013442Y0050719D01*
X0013316Y0050854D01*
X0013193Y0050993D01*
X0013074Y0051134D01*
X0012959Y0051279D01*
X0012847Y0051426D01*
X0012738Y0051576D01*
X0012634Y0051729D01*
X0012533Y0051884D01*
X0012436Y0052041D01*
X0012342Y0052201D01*
X0012253Y0052363D01*
X0012168Y0052527D01*
X0012087Y0052694D01*
X0012010Y0052862D01*
X0011937Y0053032D01*
X0011868Y0053204D01*
X0011804Y0053377D01*
X0011744Y0053552D01*
X0011688Y0053729D01*
X0011636Y0053906D01*
X0011589Y0054085D01*
X0011546Y0054265D01*
X0011508Y0054446D01*
X0011474Y0054628D01*
X0011445Y0054811D01*
X0011420Y0054994D01*
X0011399Y0055178D01*
X0011383Y0055362D01*
X0011372Y0055547D01*
X0011365Y0055732D01*
X0011363Y0055917D01*
X0028637Y0045917D02*
X0030469Y0045917D01*
X0031315Y0045917D01*
X0032098Y0045917D02*
X0032098Y0045410D01*
X0032689Y0044708D01*
X0032689Y0043673D01*
X0029878Y0043673D01*
X0029878Y0044708D01*
X0030469Y0045410D01*
X0030469Y0045917D01*
X0023126Y0069744D02*
X0019469Y0073401D01*
X0016953Y0075917D01*
X0016484Y0076385D01*
X0012728Y0080141D01*
X0014677Y0082090D02*
X0018370Y0078397D01*
X0020850Y0075917D01*
X0021480Y0075287D01*
X0025075Y0071693D01*
X0021480Y0075287D02*
X0021454Y0075190D01*
X0021423Y0075095D01*
X0021389Y0075000D01*
X0021351Y0074907D01*
X0021310Y0074816D01*
X0021265Y0074726D01*
X0021216Y0074638D01*
X0021165Y0074552D01*
X0021109Y0074468D01*
X0021051Y0074386D01*
X0020989Y0074307D01*
X0020925Y0074230D01*
X0020857Y0074156D01*
X0020786Y0074085D01*
X0020713Y0074016D01*
X0020637Y0073950D01*
X0020559Y0073888D01*
X0020478Y0073828D01*
X0020395Y0073772D01*
X0020310Y0073719D01*
X0020222Y0073669D01*
X0020133Y0073623D01*
X0020042Y0073580D01*
X0019950Y0073541D01*
X0019856Y0073505D01*
X0019761Y0073474D01*
X0019664Y0073446D01*
X0019567Y0073422D01*
X0019468Y0073401D01*
X0016484Y0076385D02*
X0016505Y0076484D01*
X0016529Y0076581D01*
X0016557Y0076678D01*
X0016588Y0076773D01*
X0016624Y0076867D01*
X0016663Y0076959D01*
X0016706Y0077050D01*
X0016752Y0077139D01*
X0016802Y0077227D01*
X0016855Y0077312D01*
X0016911Y0077395D01*
X0016971Y0077476D01*
X0017033Y0077554D01*
X0017099Y0077630D01*
X0017168Y0077703D01*
X0017239Y0077774D01*
X0017313Y0077842D01*
X0017390Y0077906D01*
X0017469Y0077968D01*
X0017551Y0078026D01*
X0017635Y0078082D01*
X0017721Y0078133D01*
X0017809Y0078182D01*
X0017899Y0078227D01*
X0017990Y0078268D01*
X0018083Y0078306D01*
X0018178Y0078340D01*
X0018273Y0078371D01*
X0018370Y0078397D01*
X0011363Y0075917D02*
X0011365Y0076102D01*
X0011372Y0076287D01*
X0011383Y0076472D01*
X0011399Y0076656D01*
X0011420Y0076840D01*
X0011445Y0077023D01*
X0011474Y0077206D01*
X0011508Y0077388D01*
X0011546Y0077569D01*
X0011589Y0077749D01*
X0011636Y0077928D01*
X0011688Y0078105D01*
X0011744Y0078282D01*
X0011804Y0078457D01*
X0011868Y0078630D01*
X0011937Y0078802D01*
X0012010Y0078972D01*
X0012087Y0079140D01*
X0012168Y0079307D01*
X0012253Y0079471D01*
X0012342Y0079633D01*
X0012436Y0079793D01*
X0012533Y0079950D01*
X0012634Y0080105D01*
X0012738Y0080258D01*
X0012847Y0080408D01*
X0012959Y0080555D01*
X0013074Y0080700D01*
X0013193Y0080841D01*
X0013316Y0080980D01*
X0013442Y0081115D01*
X0013571Y0081248D01*
X0013704Y0081377D01*
X0013839Y0081503D01*
X0013978Y0081626D01*
X0014119Y0081745D01*
X0014264Y0081860D01*
X0014411Y0081972D01*
X0014561Y0082081D01*
X0014714Y0082185D01*
X0014869Y0082286D01*
X0015026Y0082383D01*
X0015186Y0082477D01*
X0015348Y0082566D01*
X0015512Y0082651D01*
X0015679Y0082732D01*
X0015847Y0082809D01*
X0016017Y0082882D01*
X0016189Y0082951D01*
X0016362Y0083015D01*
X0016537Y0083075D01*
X0016714Y0083131D01*
X0016891Y0083183D01*
X0017070Y0083230D01*
X0017250Y0083273D01*
X0017431Y0083311D01*
X0017613Y0083345D01*
X0017796Y0083374D01*
X0017979Y0083399D01*
X0018163Y0083420D01*
X0018347Y0083436D01*
X0018532Y0083447D01*
X0018717Y0083454D01*
X0018902Y0083456D01*
X0019087Y0083454D01*
X0019272Y0083447D01*
X0019457Y0083436D01*
X0019641Y0083420D01*
X0019825Y0083399D01*
X0020008Y0083374D01*
X0020191Y0083345D01*
X0020373Y0083311D01*
X0020554Y0083273D01*
X0020734Y0083230D01*
X0020913Y0083183D01*
X0021090Y0083131D01*
X0021267Y0083075D01*
X0021442Y0083015D01*
X0021615Y0082951D01*
X0021787Y0082882D01*
X0021957Y0082809D01*
X0022125Y0082732D01*
X0022292Y0082651D01*
X0022456Y0082566D01*
X0022618Y0082477D01*
X0022778Y0082383D01*
X0022935Y0082286D01*
X0023090Y0082185D01*
X0023243Y0082081D01*
X0023393Y0081972D01*
X0023540Y0081860D01*
X0023685Y0081745D01*
X0023826Y0081626D01*
X0023965Y0081503D01*
X0024100Y0081377D01*
X0024233Y0081248D01*
X0024362Y0081115D01*
X0024488Y0080980D01*
X0024611Y0080841D01*
X0024730Y0080700D01*
X0024845Y0080555D01*
X0024957Y0080408D01*
X0025066Y0080258D01*
X0025170Y0080105D01*
X0025271Y0079950D01*
X0025368Y0079793D01*
X0025462Y0079633D01*
X0025551Y0079471D01*
X0025636Y0079307D01*
X0025717Y0079140D01*
X0025794Y0078972D01*
X0025867Y0078802D01*
X0025936Y0078630D01*
X0026000Y0078457D01*
X0026060Y0078282D01*
X0026116Y0078105D01*
X0026168Y0077928D01*
X0026215Y0077749D01*
X0026258Y0077569D01*
X0026296Y0077388D01*
X0026330Y0077206D01*
X0026359Y0077023D01*
X0026384Y0076840D01*
X0026405Y0076656D01*
X0026421Y0076472D01*
X0026432Y0076287D01*
X0026439Y0076102D01*
X0026441Y0075917D01*
X0026439Y0075732D01*
X0026432Y0075547D01*
X0026421Y0075362D01*
X0026405Y0075178D01*
X0026384Y0074994D01*
X0026359Y0074811D01*
X0026330Y0074628D01*
X0026296Y0074446D01*
X0026258Y0074265D01*
X0026215Y0074085D01*
X0026168Y0073906D01*
X0026116Y0073729D01*
X0026060Y0073552D01*
X0026000Y0073377D01*
X0025936Y0073204D01*
X0025867Y0073032D01*
X0025794Y0072862D01*
X0025717Y0072694D01*
X0025636Y0072527D01*
X0025551Y0072363D01*
X0025462Y0072201D01*
X0025368Y0072041D01*
X0025271Y0071884D01*
X0025170Y0071729D01*
X0025066Y0071576D01*
X0024957Y0071426D01*
X0024845Y0071279D01*
X0024730Y0071134D01*
X0024611Y0070993D01*
X0024488Y0070854D01*
X0024362Y0070719D01*
X0024233Y0070586D01*
X0024100Y0070457D01*
X0023965Y0070331D01*
X0023826Y0070208D01*
X0023685Y0070089D01*
X0023540Y0069974D01*
X0023393Y0069862D01*
X0023243Y0069753D01*
X0023090Y0069649D01*
X0022935Y0069548D01*
X0022778Y0069451D01*
X0022618Y0069357D01*
X0022456Y0069268D01*
X0022292Y0069183D01*
X0022125Y0069102D01*
X0021957Y0069025D01*
X0021787Y0068952D01*
X0021615Y0068883D01*
X0021442Y0068819D01*
X0021267Y0068759D01*
X0021090Y0068703D01*
X0020913Y0068651D01*
X0020734Y0068604D01*
X0020554Y0068561D01*
X0020373Y0068523D01*
X0020191Y0068489D01*
X0020008Y0068460D01*
X0019825Y0068435D01*
X0019641Y0068414D01*
X0019457Y0068398D01*
X0019272Y0068387D01*
X0019087Y0068380D01*
X0018902Y0068378D01*
X0018717Y0068380D01*
X0018532Y0068387D01*
X0018347Y0068398D01*
X0018163Y0068414D01*
X0017979Y0068435D01*
X0017796Y0068460D01*
X0017613Y0068489D01*
X0017431Y0068523D01*
X0017250Y0068561D01*
X0017070Y0068604D01*
X0016891Y0068651D01*
X0016714Y0068703D01*
X0016537Y0068759D01*
X0016362Y0068819D01*
X0016189Y0068883D01*
X0016017Y0068952D01*
X0015847Y0069025D01*
X0015679Y0069102D01*
X0015512Y0069183D01*
X0015348Y0069268D01*
X0015186Y0069357D01*
X0015026Y0069451D01*
X0014869Y0069548D01*
X0014714Y0069649D01*
X0014561Y0069753D01*
X0014411Y0069862D01*
X0014264Y0069974D01*
X0014119Y0070089D01*
X0013978Y0070208D01*
X0013839Y0070331D01*
X0013704Y0070457D01*
X0013571Y0070586D01*
X0013442Y0070719D01*
X0013316Y0070854D01*
X0013193Y0070993D01*
X0013074Y0071134D01*
X0012959Y0071279D01*
X0012847Y0071426D01*
X0012738Y0071576D01*
X0012634Y0071729D01*
X0012533Y0071884D01*
X0012436Y0072041D01*
X0012342Y0072201D01*
X0012253Y0072363D01*
X0012168Y0072527D01*
X0012087Y0072694D01*
X0012010Y0072862D01*
X0011937Y0073032D01*
X0011868Y0073204D01*
X0011804Y0073377D01*
X0011744Y0073552D01*
X0011688Y0073729D01*
X0011636Y0073906D01*
X0011589Y0074085D01*
X0011546Y0074265D01*
X0011508Y0074446D01*
X0011474Y0074628D01*
X0011445Y0074811D01*
X0011420Y0074994D01*
X0011399Y0075178D01*
X0011383Y0075362D01*
X0011372Y0075547D01*
X0011365Y0075732D01*
X0011363Y0075917D01*
X0133673Y0127311D02*
X0133673Y0130122D01*
X0134708Y0130122D01*
X0135410Y0129531D01*
X0135917Y0129531D01*
X0135917Y0131363D01*
X0175917Y0131363D01*
X0175917Y0128685D01*
X0175917Y0126236D01*
X0175917Y0125055D01*
X0135917Y0125055D01*
X0135917Y0126236D01*
X0175917Y0126236D01*
X0176417Y0126236D02*
X0176417Y0125055D01*
X0216417Y0125055D01*
X0216417Y0126236D01*
X0256417Y0126236D01*
X0256417Y0125055D01*
X0216417Y0125055D01*
X0216417Y0126236D01*
X0216417Y0127902D01*
X0216417Y0128685D01*
X0256417Y0128685D01*
X0256417Y0126236D01*
X0255917Y0126236D02*
X0255917Y0125055D01*
X0295917Y0125055D01*
X0295917Y0126236D01*
X0255917Y0126236D01*
X0255917Y0127902D01*
X0255917Y0128685D01*
X0295917Y0128685D01*
X0295917Y0126236D01*
X0295917Y0128685D02*
X0295917Y0131363D01*
X0295917Y0133301D01*
X0295917Y0149037D01*
X0295917Y0150938D01*
X0295917Y0156945D01*
X0255917Y0156945D01*
X0255917Y0150938D01*
X0255917Y0149037D01*
X0255917Y0133301D01*
X0255917Y0131363D01*
X0295917Y0131363D01*
X0285917Y0139150D02*
X0285287Y0138520D01*
X0281693Y0134925D01*
X0279744Y0136874D02*
X0283401Y0140531D01*
X0285917Y0143047D01*
X0286385Y0143516D01*
X0290141Y0147272D01*
X0292090Y0145323D02*
X0288397Y0141630D01*
X0285917Y0139150D01*
X0285287Y0138520D02*
X0285190Y0138546D01*
X0285095Y0138577D01*
X0285000Y0138611D01*
X0284907Y0138649D01*
X0284816Y0138690D01*
X0284726Y0138735D01*
X0284638Y0138784D01*
X0284552Y0138835D01*
X0284468Y0138891D01*
X0284386Y0138949D01*
X0284307Y0139011D01*
X0284230Y0139075D01*
X0284156Y0139143D01*
X0284085Y0139214D01*
X0284016Y0139287D01*
X0283950Y0139363D01*
X0283888Y0139441D01*
X0283828Y0139522D01*
X0283772Y0139605D01*
X0283719Y0139690D01*
X0283669Y0139778D01*
X0283623Y0139867D01*
X0283580Y0139958D01*
X0283541Y0140050D01*
X0283505Y0140144D01*
X0283474Y0140239D01*
X0283446Y0140336D01*
X0283422Y0140433D01*
X0283401Y0140532D01*
X0286385Y0143516D02*
X0286484Y0143495D01*
X0286581Y0143471D01*
X0286678Y0143443D01*
X0286773Y0143412D01*
X0286867Y0143376D01*
X0286959Y0143337D01*
X0287050Y0143294D01*
X0287139Y0143248D01*
X0287227Y0143198D01*
X0287312Y0143145D01*
X0287395Y0143089D01*
X0287476Y0143029D01*
X0287554Y0142967D01*
X0287630Y0142901D01*
X0287703Y0142832D01*
X0287774Y0142761D01*
X0287842Y0142687D01*
X0287906Y0142610D01*
X0287968Y0142531D01*
X0288026Y0142449D01*
X0288082Y0142365D01*
X0288133Y0142279D01*
X0288182Y0142191D01*
X0288227Y0142101D01*
X0288268Y0142010D01*
X0288306Y0141917D01*
X0288340Y0141822D01*
X0288371Y0141727D01*
X0288397Y0141630D01*
X0278378Y0141098D02*
X0278380Y0141283D01*
X0278387Y0141468D01*
X0278398Y0141653D01*
X0278414Y0141837D01*
X0278435Y0142021D01*
X0278460Y0142204D01*
X0278489Y0142387D01*
X0278523Y0142569D01*
X0278561Y0142750D01*
X0278604Y0142930D01*
X0278651Y0143109D01*
X0278703Y0143286D01*
X0278759Y0143463D01*
X0278819Y0143638D01*
X0278883Y0143811D01*
X0278952Y0143983D01*
X0279025Y0144153D01*
X0279102Y0144321D01*
X0279183Y0144488D01*
X0279268Y0144652D01*
X0279357Y0144814D01*
X0279451Y0144974D01*
X0279548Y0145131D01*
X0279649Y0145286D01*
X0279753Y0145439D01*
X0279862Y0145589D01*
X0279974Y0145736D01*
X0280089Y0145881D01*
X0280208Y0146022D01*
X0280331Y0146161D01*
X0280457Y0146296D01*
X0280586Y0146429D01*
X0280719Y0146558D01*
X0280854Y0146684D01*
X0280993Y0146807D01*
X0281134Y0146926D01*
X0281279Y0147041D01*
X0281426Y0147153D01*
X0281576Y0147262D01*
X0281729Y0147366D01*
X0281884Y0147467D01*
X0282041Y0147564D01*
X0282201Y0147658D01*
X0282363Y0147747D01*
X0282527Y0147832D01*
X0282694Y0147913D01*
X0282862Y0147990D01*
X0283032Y0148063D01*
X0283204Y0148132D01*
X0283377Y0148196D01*
X0283552Y0148256D01*
X0283729Y0148312D01*
X0283906Y0148364D01*
X0284085Y0148411D01*
X0284265Y0148454D01*
X0284446Y0148492D01*
X0284628Y0148526D01*
X0284811Y0148555D01*
X0284994Y0148580D01*
X0285178Y0148601D01*
X0285362Y0148617D01*
X0285547Y0148628D01*
X0285732Y0148635D01*
X0285917Y0148637D01*
X0286102Y0148635D01*
X0286287Y0148628D01*
X0286472Y0148617D01*
X0286656Y0148601D01*
X0286840Y0148580D01*
X0287023Y0148555D01*
X0287206Y0148526D01*
X0287388Y0148492D01*
X0287569Y0148454D01*
X0287749Y0148411D01*
X0287928Y0148364D01*
X0288105Y0148312D01*
X0288282Y0148256D01*
X0288457Y0148196D01*
X0288630Y0148132D01*
X0288802Y0148063D01*
X0288972Y0147990D01*
X0289140Y0147913D01*
X0289307Y0147832D01*
X0289471Y0147747D01*
X0289633Y0147658D01*
X0289793Y0147564D01*
X0289950Y0147467D01*
X0290105Y0147366D01*
X0290258Y0147262D01*
X0290408Y0147153D01*
X0290555Y0147041D01*
X0290700Y0146926D01*
X0290841Y0146807D01*
X0290980Y0146684D01*
X0291115Y0146558D01*
X0291248Y0146429D01*
X0291377Y0146296D01*
X0291503Y0146161D01*
X0291626Y0146022D01*
X0291745Y0145881D01*
X0291860Y0145736D01*
X0291972Y0145589D01*
X0292081Y0145439D01*
X0292185Y0145286D01*
X0292286Y0145131D01*
X0292383Y0144974D01*
X0292477Y0144814D01*
X0292566Y0144652D01*
X0292651Y0144488D01*
X0292732Y0144321D01*
X0292809Y0144153D01*
X0292882Y0143983D01*
X0292951Y0143811D01*
X0293015Y0143638D01*
X0293075Y0143463D01*
X0293131Y0143286D01*
X0293183Y0143109D01*
X0293230Y0142930D01*
X0293273Y0142750D01*
X0293311Y0142569D01*
X0293345Y0142387D01*
X0293374Y0142204D01*
X0293399Y0142021D01*
X0293420Y0141837D01*
X0293436Y0141653D01*
X0293447Y0141468D01*
X0293454Y0141283D01*
X0293456Y0141098D01*
X0293454Y0140913D01*
X0293447Y0140728D01*
X0293436Y0140543D01*
X0293420Y0140359D01*
X0293399Y0140175D01*
X0293374Y0139992D01*
X0293345Y0139809D01*
X0293311Y0139627D01*
X0293273Y0139446D01*
X0293230Y0139266D01*
X0293183Y0139087D01*
X0293131Y0138910D01*
X0293075Y0138733D01*
X0293015Y0138558D01*
X0292951Y0138385D01*
X0292882Y0138213D01*
X0292809Y0138043D01*
X0292732Y0137875D01*
X0292651Y0137708D01*
X0292566Y0137544D01*
X0292477Y0137382D01*
X0292383Y0137222D01*
X0292286Y0137065D01*
X0292185Y0136910D01*
X0292081Y0136757D01*
X0291972Y0136607D01*
X0291860Y0136460D01*
X0291745Y0136315D01*
X0291626Y0136174D01*
X0291503Y0136035D01*
X0291377Y0135900D01*
X0291248Y0135767D01*
X0291115Y0135638D01*
X0290980Y0135512D01*
X0290841Y0135389D01*
X0290700Y0135270D01*
X0290555Y0135155D01*
X0290408Y0135043D01*
X0290258Y0134934D01*
X0290105Y0134830D01*
X0289950Y0134729D01*
X0289793Y0134632D01*
X0289633Y0134538D01*
X0289471Y0134449D01*
X0289307Y0134364D01*
X0289140Y0134283D01*
X0288972Y0134206D01*
X0288802Y0134133D01*
X0288630Y0134064D01*
X0288457Y0134000D01*
X0288282Y0133940D01*
X0288105Y0133884D01*
X0287928Y0133832D01*
X0287749Y0133785D01*
X0287569Y0133742D01*
X0287388Y0133704D01*
X0287206Y0133670D01*
X0287023Y0133641D01*
X0286840Y0133616D01*
X0286656Y0133595D01*
X0286472Y0133579D01*
X0286287Y0133568D01*
X0286102Y0133561D01*
X0285917Y0133559D01*
X0285732Y0133561D01*
X0285547Y0133568D01*
X0285362Y0133579D01*
X0285178Y0133595D01*
X0284994Y0133616D01*
X0284811Y0133641D01*
X0284628Y0133670D01*
X0284446Y0133704D01*
X0284265Y0133742D01*
X0284085Y0133785D01*
X0283906Y0133832D01*
X0283729Y0133884D01*
X0283552Y0133940D01*
X0283377Y0134000D01*
X0283204Y0134064D01*
X0283032Y0134133D01*
X0282862Y0134206D01*
X0282694Y0134283D01*
X0282527Y0134364D01*
X0282363Y0134449D01*
X0282201Y0134538D01*
X0282041Y0134632D01*
X0281884Y0134729D01*
X0281729Y0134830D01*
X0281576Y0134934D01*
X0281426Y0135043D01*
X0281279Y0135155D01*
X0281134Y0135270D01*
X0280993Y0135389D01*
X0280854Y0135512D01*
X0280719Y0135638D01*
X0280586Y0135767D01*
X0280457Y0135900D01*
X0280331Y0136035D01*
X0280208Y0136174D01*
X0280089Y0136315D01*
X0279974Y0136460D01*
X0279862Y0136607D01*
X0279753Y0136757D01*
X0279649Y0136910D01*
X0279548Y0137065D01*
X0279451Y0137222D01*
X0279357Y0137382D01*
X0279268Y0137544D01*
X0279183Y0137708D01*
X0279102Y0137875D01*
X0279025Y0138043D01*
X0278952Y0138213D01*
X0278883Y0138385D01*
X0278819Y0138558D01*
X0278759Y0138733D01*
X0278703Y0138910D01*
X0278651Y0139087D01*
X0278604Y0139266D01*
X0278561Y0139446D01*
X0278523Y0139627D01*
X0278489Y0139809D01*
X0278460Y0139992D01*
X0278435Y0140175D01*
X0278414Y0140359D01*
X0278398Y0140543D01*
X0278387Y0140728D01*
X0278380Y0140913D01*
X0278378Y0141098D01*
X0272090Y0145323D02*
X0268397Y0141630D01*
X0265917Y0139150D01*
X0265287Y0138520D01*
X0261693Y0134925D01*
X0256417Y0133301D02*
X0256417Y0149037D01*
X0256417Y0150938D01*
X0256417Y0156945D01*
X0216417Y0156945D01*
X0216417Y0150938D01*
X0216417Y0149037D01*
X0216417Y0133301D01*
X0216417Y0131363D01*
X0256417Y0131363D01*
X0256417Y0128685D01*
X0255917Y0128685D02*
X0255917Y0129531D01*
X0255917Y0131363D01*
X0256417Y0131363D02*
X0256417Y0133301D01*
X0254708Y0130122D02*
X0255410Y0129531D01*
X0255917Y0129531D01*
X0254708Y0130122D02*
X0253673Y0130122D01*
X0253673Y0127311D01*
X0254708Y0127311D01*
X0255410Y0127902D01*
X0255917Y0127902D01*
X0245787Y0138520D02*
X0242193Y0134925D01*
X0240244Y0136874D02*
X0243901Y0140531D01*
X0246417Y0143047D01*
X0246885Y0143516D01*
X0250641Y0147272D01*
X0252590Y0145323D02*
X0248897Y0141630D01*
X0246417Y0139150D01*
X0245787Y0138520D01*
X0245690Y0138546D01*
X0245595Y0138577D01*
X0245500Y0138611D01*
X0245407Y0138649D01*
X0245316Y0138690D01*
X0245226Y0138735D01*
X0245138Y0138784D01*
X0245052Y0138835D01*
X0244968Y0138891D01*
X0244886Y0138949D01*
X0244807Y0139011D01*
X0244730Y0139075D01*
X0244656Y0139143D01*
X0244585Y0139214D01*
X0244516Y0139287D01*
X0244450Y0139363D01*
X0244388Y0139441D01*
X0244328Y0139522D01*
X0244272Y0139605D01*
X0244219Y0139690D01*
X0244169Y0139778D01*
X0244123Y0139867D01*
X0244080Y0139958D01*
X0244041Y0140050D01*
X0244005Y0140144D01*
X0243974Y0140239D01*
X0243946Y0140336D01*
X0243922Y0140433D01*
X0243901Y0140532D01*
X0246885Y0143516D02*
X0246984Y0143495D01*
X0247081Y0143471D01*
X0247178Y0143443D01*
X0247273Y0143412D01*
X0247367Y0143376D01*
X0247459Y0143337D01*
X0247550Y0143294D01*
X0247639Y0143248D01*
X0247727Y0143198D01*
X0247812Y0143145D01*
X0247895Y0143089D01*
X0247976Y0143029D01*
X0248054Y0142967D01*
X0248130Y0142901D01*
X0248203Y0142832D01*
X0248274Y0142761D01*
X0248342Y0142687D01*
X0248406Y0142610D01*
X0248468Y0142531D01*
X0248526Y0142449D01*
X0248582Y0142365D01*
X0248633Y0142279D01*
X0248682Y0142191D01*
X0248727Y0142101D01*
X0248768Y0142010D01*
X0248806Y0141917D01*
X0248840Y0141822D01*
X0248871Y0141727D01*
X0248897Y0141630D01*
X0238878Y0141098D02*
X0238880Y0141283D01*
X0238887Y0141468D01*
X0238898Y0141653D01*
X0238914Y0141837D01*
X0238935Y0142021D01*
X0238960Y0142204D01*
X0238989Y0142387D01*
X0239023Y0142569D01*
X0239061Y0142750D01*
X0239104Y0142930D01*
X0239151Y0143109D01*
X0239203Y0143286D01*
X0239259Y0143463D01*
X0239319Y0143638D01*
X0239383Y0143811D01*
X0239452Y0143983D01*
X0239525Y0144153D01*
X0239602Y0144321D01*
X0239683Y0144488D01*
X0239768Y0144652D01*
X0239857Y0144814D01*
X0239951Y0144974D01*
X0240048Y0145131D01*
X0240149Y0145286D01*
X0240253Y0145439D01*
X0240362Y0145589D01*
X0240474Y0145736D01*
X0240589Y0145881D01*
X0240708Y0146022D01*
X0240831Y0146161D01*
X0240957Y0146296D01*
X0241086Y0146429D01*
X0241219Y0146558D01*
X0241354Y0146684D01*
X0241493Y0146807D01*
X0241634Y0146926D01*
X0241779Y0147041D01*
X0241926Y0147153D01*
X0242076Y0147262D01*
X0242229Y0147366D01*
X0242384Y0147467D01*
X0242541Y0147564D01*
X0242701Y0147658D01*
X0242863Y0147747D01*
X0243027Y0147832D01*
X0243194Y0147913D01*
X0243362Y0147990D01*
X0243532Y0148063D01*
X0243704Y0148132D01*
X0243877Y0148196D01*
X0244052Y0148256D01*
X0244229Y0148312D01*
X0244406Y0148364D01*
X0244585Y0148411D01*
X0244765Y0148454D01*
X0244946Y0148492D01*
X0245128Y0148526D01*
X0245311Y0148555D01*
X0245494Y0148580D01*
X0245678Y0148601D01*
X0245862Y0148617D01*
X0246047Y0148628D01*
X0246232Y0148635D01*
X0246417Y0148637D01*
X0246602Y0148635D01*
X0246787Y0148628D01*
X0246972Y0148617D01*
X0247156Y0148601D01*
X0247340Y0148580D01*
X0247523Y0148555D01*
X0247706Y0148526D01*
X0247888Y0148492D01*
X0248069Y0148454D01*
X0248249Y0148411D01*
X0248428Y0148364D01*
X0248605Y0148312D01*
X0248782Y0148256D01*
X0248957Y0148196D01*
X0249130Y0148132D01*
X0249302Y0148063D01*
X0249472Y0147990D01*
X0249640Y0147913D01*
X0249807Y0147832D01*
X0249971Y0147747D01*
X0250133Y0147658D01*
X0250293Y0147564D01*
X0250450Y0147467D01*
X0250605Y0147366D01*
X0250758Y0147262D01*
X0250908Y0147153D01*
X0251055Y0147041D01*
X0251200Y0146926D01*
X0251341Y0146807D01*
X0251480Y0146684D01*
X0251615Y0146558D01*
X0251748Y0146429D01*
X0251877Y0146296D01*
X0252003Y0146161D01*
X0252126Y0146022D01*
X0252245Y0145881D01*
X0252360Y0145736D01*
X0252472Y0145589D01*
X0252581Y0145439D01*
X0252685Y0145286D01*
X0252786Y0145131D01*
X0252883Y0144974D01*
X0252977Y0144814D01*
X0253066Y0144652D01*
X0253151Y0144488D01*
X0253232Y0144321D01*
X0253309Y0144153D01*
X0253382Y0143983D01*
X0253451Y0143811D01*
X0253515Y0143638D01*
X0253575Y0143463D01*
X0253631Y0143286D01*
X0253683Y0143109D01*
X0253730Y0142930D01*
X0253773Y0142750D01*
X0253811Y0142569D01*
X0253845Y0142387D01*
X0253874Y0142204D01*
X0253899Y0142021D01*
X0253920Y0141837D01*
X0253936Y0141653D01*
X0253947Y0141468D01*
X0253954Y0141283D01*
X0253956Y0141098D01*
X0253954Y0140913D01*
X0253947Y0140728D01*
X0253936Y0140543D01*
X0253920Y0140359D01*
X0253899Y0140175D01*
X0253874Y0139992D01*
X0253845Y0139809D01*
X0253811Y0139627D01*
X0253773Y0139446D01*
X0253730Y0139266D01*
X0253683Y0139087D01*
X0253631Y0138910D01*
X0253575Y0138733D01*
X0253515Y0138558D01*
X0253451Y0138385D01*
X0253382Y0138213D01*
X0253309Y0138043D01*
X0253232Y0137875D01*
X0253151Y0137708D01*
X0253066Y0137544D01*
X0252977Y0137382D01*
X0252883Y0137222D01*
X0252786Y0137065D01*
X0252685Y0136910D01*
X0252581Y0136757D01*
X0252472Y0136607D01*
X0252360Y0136460D01*
X0252245Y0136315D01*
X0252126Y0136174D01*
X0252003Y0136035D01*
X0251877Y0135900D01*
X0251748Y0135767D01*
X0251615Y0135638D01*
X0251480Y0135512D01*
X0251341Y0135389D01*
X0251200Y0135270D01*
X0251055Y0135155D01*
X0250908Y0135043D01*
X0250758Y0134934D01*
X0250605Y0134830D01*
X0250450Y0134729D01*
X0250293Y0134632D01*
X0250133Y0134538D01*
X0249971Y0134449D01*
X0249807Y0134364D01*
X0249640Y0134283D01*
X0249472Y0134206D01*
X0249302Y0134133D01*
X0249130Y0134064D01*
X0248957Y0134000D01*
X0248782Y0133940D01*
X0248605Y0133884D01*
X0248428Y0133832D01*
X0248249Y0133785D01*
X0248069Y0133742D01*
X0247888Y0133704D01*
X0247706Y0133670D01*
X0247523Y0133641D01*
X0247340Y0133616D01*
X0247156Y0133595D01*
X0246972Y0133579D01*
X0246787Y0133568D01*
X0246602Y0133561D01*
X0246417Y0133559D01*
X0246232Y0133561D01*
X0246047Y0133568D01*
X0245862Y0133579D01*
X0245678Y0133595D01*
X0245494Y0133616D01*
X0245311Y0133641D01*
X0245128Y0133670D01*
X0244946Y0133704D01*
X0244765Y0133742D01*
X0244585Y0133785D01*
X0244406Y0133832D01*
X0244229Y0133884D01*
X0244052Y0133940D01*
X0243877Y0134000D01*
X0243704Y0134064D01*
X0243532Y0134133D01*
X0243362Y0134206D01*
X0243194Y0134283D01*
X0243027Y0134364D01*
X0242863Y0134449D01*
X0242701Y0134538D01*
X0242541Y0134632D01*
X0242384Y0134729D01*
X0242229Y0134830D01*
X0242076Y0134934D01*
X0241926Y0135043D01*
X0241779Y0135155D01*
X0241634Y0135270D01*
X0241493Y0135389D01*
X0241354Y0135512D01*
X0241219Y0135638D01*
X0241086Y0135767D01*
X0240957Y0135900D01*
X0240831Y0136035D01*
X0240708Y0136174D01*
X0240589Y0136315D01*
X0240474Y0136460D01*
X0240362Y0136607D01*
X0240253Y0136757D01*
X0240149Y0136910D01*
X0240048Y0137065D01*
X0239951Y0137222D01*
X0239857Y0137382D01*
X0239768Y0137544D01*
X0239683Y0137708D01*
X0239602Y0137875D01*
X0239525Y0138043D01*
X0239452Y0138213D01*
X0239383Y0138385D01*
X0239319Y0138558D01*
X0239259Y0138733D01*
X0239203Y0138910D01*
X0239151Y0139087D01*
X0239104Y0139266D01*
X0239061Y0139446D01*
X0239023Y0139627D01*
X0238989Y0139809D01*
X0238960Y0139992D01*
X0238935Y0140175D01*
X0238914Y0140359D01*
X0238898Y0140543D01*
X0238887Y0140728D01*
X0238880Y0140913D01*
X0238878Y0141098D01*
X0232590Y0145323D02*
X0228897Y0141630D01*
X0226417Y0139150D01*
X0225787Y0138520D01*
X0222193Y0134925D01*
X0220244Y0136874D02*
X0223901Y0140531D01*
X0226417Y0143047D01*
X0226885Y0143516D01*
X0230641Y0147272D01*
X0218878Y0141098D02*
X0218880Y0141283D01*
X0218887Y0141468D01*
X0218898Y0141653D01*
X0218914Y0141837D01*
X0218935Y0142021D01*
X0218960Y0142204D01*
X0218989Y0142387D01*
X0219023Y0142569D01*
X0219061Y0142750D01*
X0219104Y0142930D01*
X0219151Y0143109D01*
X0219203Y0143286D01*
X0219259Y0143463D01*
X0219319Y0143638D01*
X0219383Y0143811D01*
X0219452Y0143983D01*
X0219525Y0144153D01*
X0219602Y0144321D01*
X0219683Y0144488D01*
X0219768Y0144652D01*
X0219857Y0144814D01*
X0219951Y0144974D01*
X0220048Y0145131D01*
X0220149Y0145286D01*
X0220253Y0145439D01*
X0220362Y0145589D01*
X0220474Y0145736D01*
X0220589Y0145881D01*
X0220708Y0146022D01*
X0220831Y0146161D01*
X0220957Y0146296D01*
X0221086Y0146429D01*
X0221219Y0146558D01*
X0221354Y0146684D01*
X0221493Y0146807D01*
X0221634Y0146926D01*
X0221779Y0147041D01*
X0221926Y0147153D01*
X0222076Y0147262D01*
X0222229Y0147366D01*
X0222384Y0147467D01*
X0222541Y0147564D01*
X0222701Y0147658D01*
X0222863Y0147747D01*
X0223027Y0147832D01*
X0223194Y0147913D01*
X0223362Y0147990D01*
X0223532Y0148063D01*
X0223704Y0148132D01*
X0223877Y0148196D01*
X0224052Y0148256D01*
X0224229Y0148312D01*
X0224406Y0148364D01*
X0224585Y0148411D01*
X0224765Y0148454D01*
X0224946Y0148492D01*
X0225128Y0148526D01*
X0225311Y0148555D01*
X0225494Y0148580D01*
X0225678Y0148601D01*
X0225862Y0148617D01*
X0226047Y0148628D01*
X0226232Y0148635D01*
X0226417Y0148637D01*
X0226602Y0148635D01*
X0226787Y0148628D01*
X0226972Y0148617D01*
X0227156Y0148601D01*
X0227340Y0148580D01*
X0227523Y0148555D01*
X0227706Y0148526D01*
X0227888Y0148492D01*
X0228069Y0148454D01*
X0228249Y0148411D01*
X0228428Y0148364D01*
X0228605Y0148312D01*
X0228782Y0148256D01*
X0228957Y0148196D01*
X0229130Y0148132D01*
X0229302Y0148063D01*
X0229472Y0147990D01*
X0229640Y0147913D01*
X0229807Y0147832D01*
X0229971Y0147747D01*
X0230133Y0147658D01*
X0230293Y0147564D01*
X0230450Y0147467D01*
X0230605Y0147366D01*
X0230758Y0147262D01*
X0230908Y0147153D01*
X0231055Y0147041D01*
X0231200Y0146926D01*
X0231341Y0146807D01*
X0231480Y0146684D01*
X0231615Y0146558D01*
X0231748Y0146429D01*
X0231877Y0146296D01*
X0232003Y0146161D01*
X0232126Y0146022D01*
X0232245Y0145881D01*
X0232360Y0145736D01*
X0232472Y0145589D01*
X0232581Y0145439D01*
X0232685Y0145286D01*
X0232786Y0145131D01*
X0232883Y0144974D01*
X0232977Y0144814D01*
X0233066Y0144652D01*
X0233151Y0144488D01*
X0233232Y0144321D01*
X0233309Y0144153D01*
X0233382Y0143983D01*
X0233451Y0143811D01*
X0233515Y0143638D01*
X0233575Y0143463D01*
X0233631Y0143286D01*
X0233683Y0143109D01*
X0233730Y0142930D01*
X0233773Y0142750D01*
X0233811Y0142569D01*
X0233845Y0142387D01*
X0233874Y0142204D01*
X0233899Y0142021D01*
X0233920Y0141837D01*
X0233936Y0141653D01*
X0233947Y0141468D01*
X0233954Y0141283D01*
X0233956Y0141098D01*
X0233954Y0140913D01*
X0233947Y0140728D01*
X0233936Y0140543D01*
X0233920Y0140359D01*
X0233899Y0140175D01*
X0233874Y0139992D01*
X0233845Y0139809D01*
X0233811Y0139627D01*
X0233773Y0139446D01*
X0233730Y0139266D01*
X0233683Y0139087D01*
X0233631Y0138910D01*
X0233575Y0138733D01*
X0233515Y0138558D01*
X0233451Y0138385D01*
X0233382Y0138213D01*
X0233309Y0138043D01*
X0233232Y0137875D01*
X0233151Y0137708D01*
X0233066Y0137544D01*
X0232977Y0137382D01*
X0232883Y0137222D01*
X0232786Y0137065D01*
X0232685Y0136910D01*
X0232581Y0136757D01*
X0232472Y0136607D01*
X0232360Y0136460D01*
X0232245Y0136315D01*
X0232126Y0136174D01*
X0232003Y0136035D01*
X0231877Y0135900D01*
X0231748Y0135767D01*
X0231615Y0135638D01*
X0231480Y0135512D01*
X0231341Y0135389D01*
X0231200Y0135270D01*
X0231055Y0135155D01*
X0230908Y0135043D01*
X0230758Y0134934D01*
X0230605Y0134830D01*
X0230450Y0134729D01*
X0230293Y0134632D01*
X0230133Y0134538D01*
X0229971Y0134449D01*
X0229807Y0134364D01*
X0229640Y0134283D01*
X0229472Y0134206D01*
X0229302Y0134133D01*
X0229130Y0134064D01*
X0228957Y0134000D01*
X0228782Y0133940D01*
X0228605Y0133884D01*
X0228428Y0133832D01*
X0228249Y0133785D01*
X0228069Y0133742D01*
X0227888Y0133704D01*
X0227706Y0133670D01*
X0227523Y0133641D01*
X0227340Y0133616D01*
X0227156Y0133595D01*
X0226972Y0133579D01*
X0226787Y0133568D01*
X0226602Y0133561D01*
X0226417Y0133559D01*
X0226232Y0133561D01*
X0226047Y0133568D01*
X0225862Y0133579D01*
X0225678Y0133595D01*
X0225494Y0133616D01*
X0225311Y0133641D01*
X0225128Y0133670D01*
X0224946Y0133704D01*
X0224765Y0133742D01*
X0224585Y0133785D01*
X0224406Y0133832D01*
X0224229Y0133884D01*
X0224052Y0133940D01*
X0223877Y0134000D01*
X0223704Y0134064D01*
X0223532Y0134133D01*
X0223362Y0134206D01*
X0223194Y0134283D01*
X0223027Y0134364D01*
X0222863Y0134449D01*
X0222701Y0134538D01*
X0222541Y0134632D01*
X0222384Y0134729D01*
X0222229Y0134830D01*
X0222076Y0134934D01*
X0221926Y0135043D01*
X0221779Y0135155D01*
X0221634Y0135270D01*
X0221493Y0135389D01*
X0221354Y0135512D01*
X0221219Y0135638D01*
X0221086Y0135767D01*
X0220957Y0135900D01*
X0220831Y0136035D01*
X0220708Y0136174D01*
X0220589Y0136315D01*
X0220474Y0136460D01*
X0220362Y0136607D01*
X0220253Y0136757D01*
X0220149Y0136910D01*
X0220048Y0137065D01*
X0219951Y0137222D01*
X0219857Y0137382D01*
X0219768Y0137544D01*
X0219683Y0137708D01*
X0219602Y0137875D01*
X0219525Y0138043D01*
X0219452Y0138213D01*
X0219383Y0138385D01*
X0219319Y0138558D01*
X0219259Y0138733D01*
X0219203Y0138910D01*
X0219151Y0139087D01*
X0219104Y0139266D01*
X0219061Y0139446D01*
X0219023Y0139627D01*
X0218989Y0139809D01*
X0218960Y0139992D01*
X0218935Y0140175D01*
X0218914Y0140359D01*
X0218898Y0140543D01*
X0218887Y0140728D01*
X0218880Y0140913D01*
X0218878Y0141098D01*
X0223901Y0140532D02*
X0223922Y0140433D01*
X0223946Y0140336D01*
X0223974Y0140239D01*
X0224005Y0140144D01*
X0224041Y0140050D01*
X0224080Y0139958D01*
X0224123Y0139867D01*
X0224169Y0139778D01*
X0224219Y0139690D01*
X0224272Y0139605D01*
X0224328Y0139522D01*
X0224388Y0139441D01*
X0224450Y0139363D01*
X0224516Y0139287D01*
X0224585Y0139214D01*
X0224656Y0139143D01*
X0224730Y0139075D01*
X0224807Y0139011D01*
X0224886Y0138949D01*
X0224968Y0138891D01*
X0225052Y0138835D01*
X0225138Y0138784D01*
X0225226Y0138735D01*
X0225316Y0138690D01*
X0225407Y0138649D01*
X0225500Y0138611D01*
X0225595Y0138577D01*
X0225690Y0138546D01*
X0225787Y0138520D01*
X0228897Y0141630D02*
X0228871Y0141727D01*
X0228840Y0141822D01*
X0228806Y0141917D01*
X0228768Y0142010D01*
X0228727Y0142101D01*
X0228682Y0142191D01*
X0228633Y0142279D01*
X0228582Y0142365D01*
X0228526Y0142449D01*
X0228468Y0142531D01*
X0228406Y0142610D01*
X0228342Y0142687D01*
X0228274Y0142761D01*
X0228203Y0142832D01*
X0228130Y0142901D01*
X0228054Y0142967D01*
X0227976Y0143029D01*
X0227895Y0143089D01*
X0227812Y0143145D01*
X0227727Y0143198D01*
X0227639Y0143248D01*
X0227550Y0143294D01*
X0227459Y0143337D01*
X0227367Y0143376D01*
X0227273Y0143412D01*
X0227178Y0143443D01*
X0227081Y0143471D01*
X0226984Y0143495D01*
X0226885Y0143516D01*
X0216417Y0149037D02*
X0216417Y0150938D01*
X0256417Y0150938D01*
X0255917Y0150938D02*
X0295917Y0150938D01*
X0270141Y0147272D02*
X0266385Y0143516D01*
X0265917Y0143047D01*
X0263401Y0140531D01*
X0259744Y0136874D01*
X0263401Y0140532D02*
X0263422Y0140433D01*
X0263446Y0140336D01*
X0263474Y0140239D01*
X0263505Y0140144D01*
X0263541Y0140050D01*
X0263580Y0139958D01*
X0263623Y0139867D01*
X0263669Y0139778D01*
X0263719Y0139690D01*
X0263772Y0139605D01*
X0263828Y0139522D01*
X0263888Y0139441D01*
X0263950Y0139363D01*
X0264016Y0139287D01*
X0264085Y0139214D01*
X0264156Y0139143D01*
X0264230Y0139075D01*
X0264307Y0139011D01*
X0264386Y0138949D01*
X0264468Y0138891D01*
X0264552Y0138835D01*
X0264638Y0138784D01*
X0264726Y0138735D01*
X0264816Y0138690D01*
X0264907Y0138649D01*
X0265000Y0138611D01*
X0265095Y0138577D01*
X0265190Y0138546D01*
X0265287Y0138520D01*
X0268397Y0141630D02*
X0268371Y0141727D01*
X0268340Y0141822D01*
X0268306Y0141917D01*
X0268268Y0142010D01*
X0268227Y0142101D01*
X0268182Y0142191D01*
X0268133Y0142279D01*
X0268082Y0142365D01*
X0268026Y0142449D01*
X0267968Y0142531D01*
X0267906Y0142610D01*
X0267842Y0142687D01*
X0267774Y0142761D01*
X0267703Y0142832D01*
X0267630Y0142901D01*
X0267554Y0142967D01*
X0267476Y0143029D01*
X0267395Y0143089D01*
X0267312Y0143145D01*
X0267227Y0143198D01*
X0267139Y0143248D01*
X0267050Y0143294D01*
X0266959Y0143337D01*
X0266867Y0143376D01*
X0266773Y0143412D01*
X0266678Y0143443D01*
X0266581Y0143471D01*
X0266484Y0143495D01*
X0266385Y0143516D01*
X0258378Y0141098D02*
X0258380Y0141283D01*
X0258387Y0141468D01*
X0258398Y0141653D01*
X0258414Y0141837D01*
X0258435Y0142021D01*
X0258460Y0142204D01*
X0258489Y0142387D01*
X0258523Y0142569D01*
X0258561Y0142750D01*
X0258604Y0142930D01*
X0258651Y0143109D01*
X0258703Y0143286D01*
X0258759Y0143463D01*
X0258819Y0143638D01*
X0258883Y0143811D01*
X0258952Y0143983D01*
X0259025Y0144153D01*
X0259102Y0144321D01*
X0259183Y0144488D01*
X0259268Y0144652D01*
X0259357Y0144814D01*
X0259451Y0144974D01*
X0259548Y0145131D01*
X0259649Y0145286D01*
X0259753Y0145439D01*
X0259862Y0145589D01*
X0259974Y0145736D01*
X0260089Y0145881D01*
X0260208Y0146022D01*
X0260331Y0146161D01*
X0260457Y0146296D01*
X0260586Y0146429D01*
X0260719Y0146558D01*
X0260854Y0146684D01*
X0260993Y0146807D01*
X0261134Y0146926D01*
X0261279Y0147041D01*
X0261426Y0147153D01*
X0261576Y0147262D01*
X0261729Y0147366D01*
X0261884Y0147467D01*
X0262041Y0147564D01*
X0262201Y0147658D01*
X0262363Y0147747D01*
X0262527Y0147832D01*
X0262694Y0147913D01*
X0262862Y0147990D01*
X0263032Y0148063D01*
X0263204Y0148132D01*
X0263377Y0148196D01*
X0263552Y0148256D01*
X0263729Y0148312D01*
X0263906Y0148364D01*
X0264085Y0148411D01*
X0264265Y0148454D01*
X0264446Y0148492D01*
X0264628Y0148526D01*
X0264811Y0148555D01*
X0264994Y0148580D01*
X0265178Y0148601D01*
X0265362Y0148617D01*
X0265547Y0148628D01*
X0265732Y0148635D01*
X0265917Y0148637D01*
X0266102Y0148635D01*
X0266287Y0148628D01*
X0266472Y0148617D01*
X0266656Y0148601D01*
X0266840Y0148580D01*
X0267023Y0148555D01*
X0267206Y0148526D01*
X0267388Y0148492D01*
X0267569Y0148454D01*
X0267749Y0148411D01*
X0267928Y0148364D01*
X0268105Y0148312D01*
X0268282Y0148256D01*
X0268457Y0148196D01*
X0268630Y0148132D01*
X0268802Y0148063D01*
X0268972Y0147990D01*
X0269140Y0147913D01*
X0269307Y0147832D01*
X0269471Y0147747D01*
X0269633Y0147658D01*
X0269793Y0147564D01*
X0269950Y0147467D01*
X0270105Y0147366D01*
X0270258Y0147262D01*
X0270408Y0147153D01*
X0270555Y0147041D01*
X0270700Y0146926D01*
X0270841Y0146807D01*
X0270980Y0146684D01*
X0271115Y0146558D01*
X0271248Y0146429D01*
X0271377Y0146296D01*
X0271503Y0146161D01*
X0271626Y0146022D01*
X0271745Y0145881D01*
X0271860Y0145736D01*
X0271972Y0145589D01*
X0272081Y0145439D01*
X0272185Y0145286D01*
X0272286Y0145131D01*
X0272383Y0144974D01*
X0272477Y0144814D01*
X0272566Y0144652D01*
X0272651Y0144488D01*
X0272732Y0144321D01*
X0272809Y0144153D01*
X0272882Y0143983D01*
X0272951Y0143811D01*
X0273015Y0143638D01*
X0273075Y0143463D01*
X0273131Y0143286D01*
X0273183Y0143109D01*
X0273230Y0142930D01*
X0273273Y0142750D01*
X0273311Y0142569D01*
X0273345Y0142387D01*
X0273374Y0142204D01*
X0273399Y0142021D01*
X0273420Y0141837D01*
X0273436Y0141653D01*
X0273447Y0141468D01*
X0273454Y0141283D01*
X0273456Y0141098D01*
X0273454Y0140913D01*
X0273447Y0140728D01*
X0273436Y0140543D01*
X0273420Y0140359D01*
X0273399Y0140175D01*
X0273374Y0139992D01*
X0273345Y0139809D01*
X0273311Y0139627D01*
X0273273Y0139446D01*
X0273230Y0139266D01*
X0273183Y0139087D01*
X0273131Y0138910D01*
X0273075Y0138733D01*
X0273015Y0138558D01*
X0272951Y0138385D01*
X0272882Y0138213D01*
X0272809Y0138043D01*
X0272732Y0137875D01*
X0272651Y0137708D01*
X0272566Y0137544D01*
X0272477Y0137382D01*
X0272383Y0137222D01*
X0272286Y0137065D01*
X0272185Y0136910D01*
X0272081Y0136757D01*
X0271972Y0136607D01*
X0271860Y0136460D01*
X0271745Y0136315D01*
X0271626Y0136174D01*
X0271503Y0136035D01*
X0271377Y0135900D01*
X0271248Y0135767D01*
X0271115Y0135638D01*
X0270980Y0135512D01*
X0270841Y0135389D01*
X0270700Y0135270D01*
X0270555Y0135155D01*
X0270408Y0135043D01*
X0270258Y0134934D01*
X0270105Y0134830D01*
X0269950Y0134729D01*
X0269793Y0134632D01*
X0269633Y0134538D01*
X0269471Y0134449D01*
X0269307Y0134364D01*
X0269140Y0134283D01*
X0268972Y0134206D01*
X0268802Y0134133D01*
X0268630Y0134064D01*
X0268457Y0134000D01*
X0268282Y0133940D01*
X0268105Y0133884D01*
X0267928Y0133832D01*
X0267749Y0133785D01*
X0267569Y0133742D01*
X0267388Y0133704D01*
X0267206Y0133670D01*
X0267023Y0133641D01*
X0266840Y0133616D01*
X0266656Y0133595D01*
X0266472Y0133579D01*
X0266287Y0133568D01*
X0266102Y0133561D01*
X0265917Y0133559D01*
X0265732Y0133561D01*
X0265547Y0133568D01*
X0265362Y0133579D01*
X0265178Y0133595D01*
X0264994Y0133616D01*
X0264811Y0133641D01*
X0264628Y0133670D01*
X0264446Y0133704D01*
X0264265Y0133742D01*
X0264085Y0133785D01*
X0263906Y0133832D01*
X0263729Y0133884D01*
X0263552Y0133940D01*
X0263377Y0134000D01*
X0263204Y0134064D01*
X0263032Y0134133D01*
X0262862Y0134206D01*
X0262694Y0134283D01*
X0262527Y0134364D01*
X0262363Y0134449D01*
X0262201Y0134538D01*
X0262041Y0134632D01*
X0261884Y0134729D01*
X0261729Y0134830D01*
X0261576Y0134934D01*
X0261426Y0135043D01*
X0261279Y0135155D01*
X0261134Y0135270D01*
X0260993Y0135389D01*
X0260854Y0135512D01*
X0260719Y0135638D01*
X0260586Y0135767D01*
X0260457Y0135900D01*
X0260331Y0136035D01*
X0260208Y0136174D01*
X0260089Y0136315D01*
X0259974Y0136460D01*
X0259862Y0136607D01*
X0259753Y0136757D01*
X0259649Y0136910D01*
X0259548Y0137065D01*
X0259451Y0137222D01*
X0259357Y0137382D01*
X0259268Y0137544D01*
X0259183Y0137708D01*
X0259102Y0137875D01*
X0259025Y0138043D01*
X0258952Y0138213D01*
X0258883Y0138385D01*
X0258819Y0138558D01*
X0258759Y0138733D01*
X0258703Y0138910D01*
X0258651Y0139087D01*
X0258604Y0139266D01*
X0258561Y0139446D01*
X0258523Y0139627D01*
X0258489Y0139809D01*
X0258460Y0139992D01*
X0258435Y0140175D01*
X0258414Y0140359D01*
X0258398Y0140543D01*
X0258387Y0140728D01*
X0258380Y0140913D01*
X0258378Y0141098D01*
X0216417Y0133301D02*
X0216417Y0131363D01*
X0216417Y0129531D01*
X0216417Y0128685D01*
X0216417Y0126236D01*
X0176417Y0126236D01*
X0176417Y0127902D01*
X0176417Y0128685D01*
X0216417Y0128685D01*
X0216417Y0131363D01*
X0176417Y0131363D01*
X0176417Y0129531D01*
X0176417Y0128685D01*
X0175917Y0128685D02*
X0135917Y0128685D01*
X0135917Y0127902D01*
X0135917Y0126236D01*
X0134708Y0127311D02*
X0135410Y0127902D01*
X0135917Y0127902D01*
X0135917Y0128685D02*
X0135917Y0129531D01*
X0135917Y0131363D02*
X0135917Y0133301D01*
X0135917Y0149037D01*
X0135917Y0150938D01*
X0135917Y0156945D01*
X0175917Y0156945D01*
X0175917Y0150938D01*
X0175917Y0149037D01*
X0175917Y0133301D01*
X0175917Y0131363D01*
X0176417Y0131363D02*
X0176417Y0133301D01*
X0176417Y0149037D01*
X0176417Y0150938D01*
X0176417Y0156945D01*
X0216417Y0156945D01*
X0216417Y0150938D01*
X0176417Y0150938D01*
X0175917Y0150938D02*
X0135917Y0150938D01*
X0145917Y0143047D02*
X0146385Y0143516D01*
X0150141Y0147272D01*
X0152090Y0145323D02*
X0148397Y0141630D01*
X0145917Y0139150D01*
X0145287Y0138520D01*
X0141693Y0134925D01*
X0139744Y0136874D02*
X0143401Y0140531D01*
X0145917Y0143047D01*
X0138378Y0141098D02*
X0138380Y0141283D01*
X0138387Y0141468D01*
X0138398Y0141653D01*
X0138414Y0141837D01*
X0138435Y0142021D01*
X0138460Y0142204D01*
X0138489Y0142387D01*
X0138523Y0142569D01*
X0138561Y0142750D01*
X0138604Y0142930D01*
X0138651Y0143109D01*
X0138703Y0143286D01*
X0138759Y0143463D01*
X0138819Y0143638D01*
X0138883Y0143811D01*
X0138952Y0143983D01*
X0139025Y0144153D01*
X0139102Y0144321D01*
X0139183Y0144488D01*
X0139268Y0144652D01*
X0139357Y0144814D01*
X0139451Y0144974D01*
X0139548Y0145131D01*
X0139649Y0145286D01*
X0139753Y0145439D01*
X0139862Y0145589D01*
X0139974Y0145736D01*
X0140089Y0145881D01*
X0140208Y0146022D01*
X0140331Y0146161D01*
X0140457Y0146296D01*
X0140586Y0146429D01*
X0140719Y0146558D01*
X0140854Y0146684D01*
X0140993Y0146807D01*
X0141134Y0146926D01*
X0141279Y0147041D01*
X0141426Y0147153D01*
X0141576Y0147262D01*
X0141729Y0147366D01*
X0141884Y0147467D01*
X0142041Y0147564D01*
X0142201Y0147658D01*
X0142363Y0147747D01*
X0142527Y0147832D01*
X0142694Y0147913D01*
X0142862Y0147990D01*
X0143032Y0148063D01*
X0143204Y0148132D01*
X0143377Y0148196D01*
X0143552Y0148256D01*
X0143729Y0148312D01*
X0143906Y0148364D01*
X0144085Y0148411D01*
X0144265Y0148454D01*
X0144446Y0148492D01*
X0144628Y0148526D01*
X0144811Y0148555D01*
X0144994Y0148580D01*
X0145178Y0148601D01*
X0145362Y0148617D01*
X0145547Y0148628D01*
X0145732Y0148635D01*
X0145917Y0148637D01*
X0146102Y0148635D01*
X0146287Y0148628D01*
X0146472Y0148617D01*
X0146656Y0148601D01*
X0146840Y0148580D01*
X0147023Y0148555D01*
X0147206Y0148526D01*
X0147388Y0148492D01*
X0147569Y0148454D01*
X0147749Y0148411D01*
X0147928Y0148364D01*
X0148105Y0148312D01*
X0148282Y0148256D01*
X0148457Y0148196D01*
X0148630Y0148132D01*
X0148802Y0148063D01*
X0148972Y0147990D01*
X0149140Y0147913D01*
X0149307Y0147832D01*
X0149471Y0147747D01*
X0149633Y0147658D01*
X0149793Y0147564D01*
X0149950Y0147467D01*
X0150105Y0147366D01*
X0150258Y0147262D01*
X0150408Y0147153D01*
X0150555Y0147041D01*
X0150700Y0146926D01*
X0150841Y0146807D01*
X0150980Y0146684D01*
X0151115Y0146558D01*
X0151248Y0146429D01*
X0151377Y0146296D01*
X0151503Y0146161D01*
X0151626Y0146022D01*
X0151745Y0145881D01*
X0151860Y0145736D01*
X0151972Y0145589D01*
X0152081Y0145439D01*
X0152185Y0145286D01*
X0152286Y0145131D01*
X0152383Y0144974D01*
X0152477Y0144814D01*
X0152566Y0144652D01*
X0152651Y0144488D01*
X0152732Y0144321D01*
X0152809Y0144153D01*
X0152882Y0143983D01*
X0152951Y0143811D01*
X0153015Y0143638D01*
X0153075Y0143463D01*
X0153131Y0143286D01*
X0153183Y0143109D01*
X0153230Y0142930D01*
X0153273Y0142750D01*
X0153311Y0142569D01*
X0153345Y0142387D01*
X0153374Y0142204D01*
X0153399Y0142021D01*
X0153420Y0141837D01*
X0153436Y0141653D01*
X0153447Y0141468D01*
X0153454Y0141283D01*
X0153456Y0141098D01*
X0153454Y0140913D01*
X0153447Y0140728D01*
X0153436Y0140543D01*
X0153420Y0140359D01*
X0153399Y0140175D01*
X0153374Y0139992D01*
X0153345Y0139809D01*
X0153311Y0139627D01*
X0153273Y0139446D01*
X0153230Y0139266D01*
X0153183Y0139087D01*
X0153131Y0138910D01*
X0153075Y0138733D01*
X0153015Y0138558D01*
X0152951Y0138385D01*
X0152882Y0138213D01*
X0152809Y0138043D01*
X0152732Y0137875D01*
X0152651Y0137708D01*
X0152566Y0137544D01*
X0152477Y0137382D01*
X0152383Y0137222D01*
X0152286Y0137065D01*
X0152185Y0136910D01*
X0152081Y0136757D01*
X0151972Y0136607D01*
X0151860Y0136460D01*
X0151745Y0136315D01*
X0151626Y0136174D01*
X0151503Y0136035D01*
X0151377Y0135900D01*
X0151248Y0135767D01*
X0151115Y0135638D01*
X0150980Y0135512D01*
X0150841Y0135389D01*
X0150700Y0135270D01*
X0150555Y0135155D01*
X0150408Y0135043D01*
X0150258Y0134934D01*
X0150105Y0134830D01*
X0149950Y0134729D01*
X0149793Y0134632D01*
X0149633Y0134538D01*
X0149471Y0134449D01*
X0149307Y0134364D01*
X0149140Y0134283D01*
X0148972Y0134206D01*
X0148802Y0134133D01*
X0148630Y0134064D01*
X0148457Y0134000D01*
X0148282Y0133940D01*
X0148105Y0133884D01*
X0147928Y0133832D01*
X0147749Y0133785D01*
X0147569Y0133742D01*
X0147388Y0133704D01*
X0147206Y0133670D01*
X0147023Y0133641D01*
X0146840Y0133616D01*
X0146656Y0133595D01*
X0146472Y0133579D01*
X0146287Y0133568D01*
X0146102Y0133561D01*
X0145917Y0133559D01*
X0145732Y0133561D01*
X0145547Y0133568D01*
X0145362Y0133579D01*
X0145178Y0133595D01*
X0144994Y0133616D01*
X0144811Y0133641D01*
X0144628Y0133670D01*
X0144446Y0133704D01*
X0144265Y0133742D01*
X0144085Y0133785D01*
X0143906Y0133832D01*
X0143729Y0133884D01*
X0143552Y0133940D01*
X0143377Y0134000D01*
X0143204Y0134064D01*
X0143032Y0134133D01*
X0142862Y0134206D01*
X0142694Y0134283D01*
X0142527Y0134364D01*
X0142363Y0134449D01*
X0142201Y0134538D01*
X0142041Y0134632D01*
X0141884Y0134729D01*
X0141729Y0134830D01*
X0141576Y0134934D01*
X0141426Y0135043D01*
X0141279Y0135155D01*
X0141134Y0135270D01*
X0140993Y0135389D01*
X0140854Y0135512D01*
X0140719Y0135638D01*
X0140586Y0135767D01*
X0140457Y0135900D01*
X0140331Y0136035D01*
X0140208Y0136174D01*
X0140089Y0136315D01*
X0139974Y0136460D01*
X0139862Y0136607D01*
X0139753Y0136757D01*
X0139649Y0136910D01*
X0139548Y0137065D01*
X0139451Y0137222D01*
X0139357Y0137382D01*
X0139268Y0137544D01*
X0139183Y0137708D01*
X0139102Y0137875D01*
X0139025Y0138043D01*
X0138952Y0138213D01*
X0138883Y0138385D01*
X0138819Y0138558D01*
X0138759Y0138733D01*
X0138703Y0138910D01*
X0138651Y0139087D01*
X0138604Y0139266D01*
X0138561Y0139446D01*
X0138523Y0139627D01*
X0138489Y0139809D01*
X0138460Y0139992D01*
X0138435Y0140175D01*
X0138414Y0140359D01*
X0138398Y0140543D01*
X0138387Y0140728D01*
X0138380Y0140913D01*
X0138378Y0141098D01*
X0143401Y0140532D02*
X0143422Y0140433D01*
X0143446Y0140336D01*
X0143474Y0140239D01*
X0143505Y0140144D01*
X0143541Y0140050D01*
X0143580Y0139958D01*
X0143623Y0139867D01*
X0143669Y0139778D01*
X0143719Y0139690D01*
X0143772Y0139605D01*
X0143828Y0139522D01*
X0143888Y0139441D01*
X0143950Y0139363D01*
X0144016Y0139287D01*
X0144085Y0139214D01*
X0144156Y0139143D01*
X0144230Y0139075D01*
X0144307Y0139011D01*
X0144386Y0138949D01*
X0144468Y0138891D01*
X0144552Y0138835D01*
X0144638Y0138784D01*
X0144726Y0138735D01*
X0144816Y0138690D01*
X0144907Y0138649D01*
X0145000Y0138611D01*
X0145095Y0138577D01*
X0145190Y0138546D01*
X0145287Y0138520D01*
X0148397Y0141630D02*
X0148371Y0141727D01*
X0148340Y0141822D01*
X0148306Y0141917D01*
X0148268Y0142010D01*
X0148227Y0142101D01*
X0148182Y0142191D01*
X0148133Y0142279D01*
X0148082Y0142365D01*
X0148026Y0142449D01*
X0147968Y0142531D01*
X0147906Y0142610D01*
X0147842Y0142687D01*
X0147774Y0142761D01*
X0147703Y0142832D01*
X0147630Y0142901D01*
X0147554Y0142967D01*
X0147476Y0143029D01*
X0147395Y0143089D01*
X0147312Y0143145D01*
X0147227Y0143198D01*
X0147139Y0143248D01*
X0147050Y0143294D01*
X0146959Y0143337D01*
X0146867Y0143376D01*
X0146773Y0143412D01*
X0146678Y0143443D01*
X0146581Y0143471D01*
X0146484Y0143495D01*
X0146385Y0143516D01*
X0159744Y0136874D02*
X0163401Y0140531D01*
X0165917Y0143047D01*
X0166385Y0143516D01*
X0170141Y0147272D01*
X0172090Y0145323D02*
X0168397Y0141630D01*
X0165917Y0139150D01*
X0165287Y0138520D01*
X0161693Y0134925D01*
X0165287Y0138520D02*
X0165190Y0138546D01*
X0165095Y0138577D01*
X0165000Y0138611D01*
X0164907Y0138649D01*
X0164816Y0138690D01*
X0164726Y0138735D01*
X0164638Y0138784D01*
X0164552Y0138835D01*
X0164468Y0138891D01*
X0164386Y0138949D01*
X0164307Y0139011D01*
X0164230Y0139075D01*
X0164156Y0139143D01*
X0164085Y0139214D01*
X0164016Y0139287D01*
X0163950Y0139363D01*
X0163888Y0139441D01*
X0163828Y0139522D01*
X0163772Y0139605D01*
X0163719Y0139690D01*
X0163669Y0139778D01*
X0163623Y0139867D01*
X0163580Y0139958D01*
X0163541Y0140050D01*
X0163505Y0140144D01*
X0163474Y0140239D01*
X0163446Y0140336D01*
X0163422Y0140433D01*
X0163401Y0140532D01*
X0166385Y0143516D02*
X0166484Y0143495D01*
X0166581Y0143471D01*
X0166678Y0143443D01*
X0166773Y0143412D01*
X0166867Y0143376D01*
X0166959Y0143337D01*
X0167050Y0143294D01*
X0167139Y0143248D01*
X0167227Y0143198D01*
X0167312Y0143145D01*
X0167395Y0143089D01*
X0167476Y0143029D01*
X0167554Y0142967D01*
X0167630Y0142901D01*
X0167703Y0142832D01*
X0167774Y0142761D01*
X0167842Y0142687D01*
X0167906Y0142610D01*
X0167968Y0142531D01*
X0168026Y0142449D01*
X0168082Y0142365D01*
X0168133Y0142279D01*
X0168182Y0142191D01*
X0168227Y0142101D01*
X0168268Y0142010D01*
X0168306Y0141917D01*
X0168340Y0141822D01*
X0168371Y0141727D01*
X0168397Y0141630D01*
X0158378Y0141098D02*
X0158380Y0141283D01*
X0158387Y0141468D01*
X0158398Y0141653D01*
X0158414Y0141837D01*
X0158435Y0142021D01*
X0158460Y0142204D01*
X0158489Y0142387D01*
X0158523Y0142569D01*
X0158561Y0142750D01*
X0158604Y0142930D01*
X0158651Y0143109D01*
X0158703Y0143286D01*
X0158759Y0143463D01*
X0158819Y0143638D01*
X0158883Y0143811D01*
X0158952Y0143983D01*
X0159025Y0144153D01*
X0159102Y0144321D01*
X0159183Y0144488D01*
X0159268Y0144652D01*
X0159357Y0144814D01*
X0159451Y0144974D01*
X0159548Y0145131D01*
X0159649Y0145286D01*
X0159753Y0145439D01*
X0159862Y0145589D01*
X0159974Y0145736D01*
X0160089Y0145881D01*
X0160208Y0146022D01*
X0160331Y0146161D01*
X0160457Y0146296D01*
X0160586Y0146429D01*
X0160719Y0146558D01*
X0160854Y0146684D01*
X0160993Y0146807D01*
X0161134Y0146926D01*
X0161279Y0147041D01*
X0161426Y0147153D01*
X0161576Y0147262D01*
X0161729Y0147366D01*
X0161884Y0147467D01*
X0162041Y0147564D01*
X0162201Y0147658D01*
X0162363Y0147747D01*
X0162527Y0147832D01*
X0162694Y0147913D01*
X0162862Y0147990D01*
X0163032Y0148063D01*
X0163204Y0148132D01*
X0163377Y0148196D01*
X0163552Y0148256D01*
X0163729Y0148312D01*
X0163906Y0148364D01*
X0164085Y0148411D01*
X0164265Y0148454D01*
X0164446Y0148492D01*
X0164628Y0148526D01*
X0164811Y0148555D01*
X0164994Y0148580D01*
X0165178Y0148601D01*
X0165362Y0148617D01*
X0165547Y0148628D01*
X0165732Y0148635D01*
X0165917Y0148637D01*
X0166102Y0148635D01*
X0166287Y0148628D01*
X0166472Y0148617D01*
X0166656Y0148601D01*
X0166840Y0148580D01*
X0167023Y0148555D01*
X0167206Y0148526D01*
X0167388Y0148492D01*
X0167569Y0148454D01*
X0167749Y0148411D01*
X0167928Y0148364D01*
X0168105Y0148312D01*
X0168282Y0148256D01*
X0168457Y0148196D01*
X0168630Y0148132D01*
X0168802Y0148063D01*
X0168972Y0147990D01*
X0169140Y0147913D01*
X0169307Y0147832D01*
X0169471Y0147747D01*
X0169633Y0147658D01*
X0169793Y0147564D01*
X0169950Y0147467D01*
X0170105Y0147366D01*
X0170258Y0147262D01*
X0170408Y0147153D01*
X0170555Y0147041D01*
X0170700Y0146926D01*
X0170841Y0146807D01*
X0170980Y0146684D01*
X0171115Y0146558D01*
X0171248Y0146429D01*
X0171377Y0146296D01*
X0171503Y0146161D01*
X0171626Y0146022D01*
X0171745Y0145881D01*
X0171860Y0145736D01*
X0171972Y0145589D01*
X0172081Y0145439D01*
X0172185Y0145286D01*
X0172286Y0145131D01*
X0172383Y0144974D01*
X0172477Y0144814D01*
X0172566Y0144652D01*
X0172651Y0144488D01*
X0172732Y0144321D01*
X0172809Y0144153D01*
X0172882Y0143983D01*
X0172951Y0143811D01*
X0173015Y0143638D01*
X0173075Y0143463D01*
X0173131Y0143286D01*
X0173183Y0143109D01*
X0173230Y0142930D01*
X0173273Y0142750D01*
X0173311Y0142569D01*
X0173345Y0142387D01*
X0173374Y0142204D01*
X0173399Y0142021D01*
X0173420Y0141837D01*
X0173436Y0141653D01*
X0173447Y0141468D01*
X0173454Y0141283D01*
X0173456Y0141098D01*
X0173454Y0140913D01*
X0173447Y0140728D01*
X0173436Y0140543D01*
X0173420Y0140359D01*
X0173399Y0140175D01*
X0173374Y0139992D01*
X0173345Y0139809D01*
X0173311Y0139627D01*
X0173273Y0139446D01*
X0173230Y0139266D01*
X0173183Y0139087D01*
X0173131Y0138910D01*
X0173075Y0138733D01*
X0173015Y0138558D01*
X0172951Y0138385D01*
X0172882Y0138213D01*
X0172809Y0138043D01*
X0172732Y0137875D01*
X0172651Y0137708D01*
X0172566Y0137544D01*
X0172477Y0137382D01*
X0172383Y0137222D01*
X0172286Y0137065D01*
X0172185Y0136910D01*
X0172081Y0136757D01*
X0171972Y0136607D01*
X0171860Y0136460D01*
X0171745Y0136315D01*
X0171626Y0136174D01*
X0171503Y0136035D01*
X0171377Y0135900D01*
X0171248Y0135767D01*
X0171115Y0135638D01*
X0170980Y0135512D01*
X0170841Y0135389D01*
X0170700Y0135270D01*
X0170555Y0135155D01*
X0170408Y0135043D01*
X0170258Y0134934D01*
X0170105Y0134830D01*
X0169950Y0134729D01*
X0169793Y0134632D01*
X0169633Y0134538D01*
X0169471Y0134449D01*
X0169307Y0134364D01*
X0169140Y0134283D01*
X0168972Y0134206D01*
X0168802Y0134133D01*
X0168630Y0134064D01*
X0168457Y0134000D01*
X0168282Y0133940D01*
X0168105Y0133884D01*
X0167928Y0133832D01*
X0167749Y0133785D01*
X0167569Y0133742D01*
X0167388Y0133704D01*
X0167206Y0133670D01*
X0167023Y0133641D01*
X0166840Y0133616D01*
X0166656Y0133595D01*
X0166472Y0133579D01*
X0166287Y0133568D01*
X0166102Y0133561D01*
X0165917Y0133559D01*
X0165732Y0133561D01*
X0165547Y0133568D01*
X0165362Y0133579D01*
X0165178Y0133595D01*
X0164994Y0133616D01*
X0164811Y0133641D01*
X0164628Y0133670D01*
X0164446Y0133704D01*
X0164265Y0133742D01*
X0164085Y0133785D01*
X0163906Y0133832D01*
X0163729Y0133884D01*
X0163552Y0133940D01*
X0163377Y0134000D01*
X0163204Y0134064D01*
X0163032Y0134133D01*
X0162862Y0134206D01*
X0162694Y0134283D01*
X0162527Y0134364D01*
X0162363Y0134449D01*
X0162201Y0134538D01*
X0162041Y0134632D01*
X0161884Y0134729D01*
X0161729Y0134830D01*
X0161576Y0134934D01*
X0161426Y0135043D01*
X0161279Y0135155D01*
X0161134Y0135270D01*
X0160993Y0135389D01*
X0160854Y0135512D01*
X0160719Y0135638D01*
X0160586Y0135767D01*
X0160457Y0135900D01*
X0160331Y0136035D01*
X0160208Y0136174D01*
X0160089Y0136315D01*
X0159974Y0136460D01*
X0159862Y0136607D01*
X0159753Y0136757D01*
X0159649Y0136910D01*
X0159548Y0137065D01*
X0159451Y0137222D01*
X0159357Y0137382D01*
X0159268Y0137544D01*
X0159183Y0137708D01*
X0159102Y0137875D01*
X0159025Y0138043D01*
X0158952Y0138213D01*
X0158883Y0138385D01*
X0158819Y0138558D01*
X0158759Y0138733D01*
X0158703Y0138910D01*
X0158651Y0139087D01*
X0158604Y0139266D01*
X0158561Y0139446D01*
X0158523Y0139627D01*
X0158489Y0139809D01*
X0158460Y0139992D01*
X0158435Y0140175D01*
X0158414Y0140359D01*
X0158398Y0140543D01*
X0158387Y0140728D01*
X0158380Y0140913D01*
X0158378Y0141098D01*
X0174173Y0130122D02*
X0174173Y0127311D01*
X0175208Y0127311D01*
X0175910Y0127902D01*
X0176417Y0127902D01*
X0176417Y0129531D02*
X0175910Y0129531D01*
X0175208Y0130122D01*
X0174173Y0130122D01*
X0182193Y0134925D02*
X0185787Y0138520D01*
X0186417Y0139150D01*
X0188897Y0141630D01*
X0192590Y0145323D01*
X0190641Y0147272D02*
X0186885Y0143516D01*
X0186417Y0143047D01*
X0183901Y0140531D01*
X0180244Y0136874D01*
X0183901Y0140532D02*
X0183922Y0140433D01*
X0183946Y0140336D01*
X0183974Y0140239D01*
X0184005Y0140144D01*
X0184041Y0140050D01*
X0184080Y0139958D01*
X0184123Y0139867D01*
X0184169Y0139778D01*
X0184219Y0139690D01*
X0184272Y0139605D01*
X0184328Y0139522D01*
X0184388Y0139441D01*
X0184450Y0139363D01*
X0184516Y0139287D01*
X0184585Y0139214D01*
X0184656Y0139143D01*
X0184730Y0139075D01*
X0184807Y0139011D01*
X0184886Y0138949D01*
X0184968Y0138891D01*
X0185052Y0138835D01*
X0185138Y0138784D01*
X0185226Y0138735D01*
X0185316Y0138690D01*
X0185407Y0138649D01*
X0185500Y0138611D01*
X0185595Y0138577D01*
X0185690Y0138546D01*
X0185787Y0138520D01*
X0188897Y0141630D02*
X0188871Y0141727D01*
X0188840Y0141822D01*
X0188806Y0141917D01*
X0188768Y0142010D01*
X0188727Y0142101D01*
X0188682Y0142191D01*
X0188633Y0142279D01*
X0188582Y0142365D01*
X0188526Y0142449D01*
X0188468Y0142531D01*
X0188406Y0142610D01*
X0188342Y0142687D01*
X0188274Y0142761D01*
X0188203Y0142832D01*
X0188130Y0142901D01*
X0188054Y0142967D01*
X0187976Y0143029D01*
X0187895Y0143089D01*
X0187812Y0143145D01*
X0187727Y0143198D01*
X0187639Y0143248D01*
X0187550Y0143294D01*
X0187459Y0143337D01*
X0187367Y0143376D01*
X0187273Y0143412D01*
X0187178Y0143443D01*
X0187081Y0143471D01*
X0186984Y0143495D01*
X0186885Y0143516D01*
X0178878Y0141098D02*
X0178880Y0141283D01*
X0178887Y0141468D01*
X0178898Y0141653D01*
X0178914Y0141837D01*
X0178935Y0142021D01*
X0178960Y0142204D01*
X0178989Y0142387D01*
X0179023Y0142569D01*
X0179061Y0142750D01*
X0179104Y0142930D01*
X0179151Y0143109D01*
X0179203Y0143286D01*
X0179259Y0143463D01*
X0179319Y0143638D01*
X0179383Y0143811D01*
X0179452Y0143983D01*
X0179525Y0144153D01*
X0179602Y0144321D01*
X0179683Y0144488D01*
X0179768Y0144652D01*
X0179857Y0144814D01*
X0179951Y0144974D01*
X0180048Y0145131D01*
X0180149Y0145286D01*
X0180253Y0145439D01*
X0180362Y0145589D01*
X0180474Y0145736D01*
X0180589Y0145881D01*
X0180708Y0146022D01*
X0180831Y0146161D01*
X0180957Y0146296D01*
X0181086Y0146429D01*
X0181219Y0146558D01*
X0181354Y0146684D01*
X0181493Y0146807D01*
X0181634Y0146926D01*
X0181779Y0147041D01*
X0181926Y0147153D01*
X0182076Y0147262D01*
X0182229Y0147366D01*
X0182384Y0147467D01*
X0182541Y0147564D01*
X0182701Y0147658D01*
X0182863Y0147747D01*
X0183027Y0147832D01*
X0183194Y0147913D01*
X0183362Y0147990D01*
X0183532Y0148063D01*
X0183704Y0148132D01*
X0183877Y0148196D01*
X0184052Y0148256D01*
X0184229Y0148312D01*
X0184406Y0148364D01*
X0184585Y0148411D01*
X0184765Y0148454D01*
X0184946Y0148492D01*
X0185128Y0148526D01*
X0185311Y0148555D01*
X0185494Y0148580D01*
X0185678Y0148601D01*
X0185862Y0148617D01*
X0186047Y0148628D01*
X0186232Y0148635D01*
X0186417Y0148637D01*
X0186602Y0148635D01*
X0186787Y0148628D01*
X0186972Y0148617D01*
X0187156Y0148601D01*
X0187340Y0148580D01*
X0187523Y0148555D01*
X0187706Y0148526D01*
X0187888Y0148492D01*
X0188069Y0148454D01*
X0188249Y0148411D01*
X0188428Y0148364D01*
X0188605Y0148312D01*
X0188782Y0148256D01*
X0188957Y0148196D01*
X0189130Y0148132D01*
X0189302Y0148063D01*
X0189472Y0147990D01*
X0189640Y0147913D01*
X0189807Y0147832D01*
X0189971Y0147747D01*
X0190133Y0147658D01*
X0190293Y0147564D01*
X0190450Y0147467D01*
X0190605Y0147366D01*
X0190758Y0147262D01*
X0190908Y0147153D01*
X0191055Y0147041D01*
X0191200Y0146926D01*
X0191341Y0146807D01*
X0191480Y0146684D01*
X0191615Y0146558D01*
X0191748Y0146429D01*
X0191877Y0146296D01*
X0192003Y0146161D01*
X0192126Y0146022D01*
X0192245Y0145881D01*
X0192360Y0145736D01*
X0192472Y0145589D01*
X0192581Y0145439D01*
X0192685Y0145286D01*
X0192786Y0145131D01*
X0192883Y0144974D01*
X0192977Y0144814D01*
X0193066Y0144652D01*
X0193151Y0144488D01*
X0193232Y0144321D01*
X0193309Y0144153D01*
X0193382Y0143983D01*
X0193451Y0143811D01*
X0193515Y0143638D01*
X0193575Y0143463D01*
X0193631Y0143286D01*
X0193683Y0143109D01*
X0193730Y0142930D01*
X0193773Y0142750D01*
X0193811Y0142569D01*
X0193845Y0142387D01*
X0193874Y0142204D01*
X0193899Y0142021D01*
X0193920Y0141837D01*
X0193936Y0141653D01*
X0193947Y0141468D01*
X0193954Y0141283D01*
X0193956Y0141098D01*
X0193954Y0140913D01*
X0193947Y0140728D01*
X0193936Y0140543D01*
X0193920Y0140359D01*
X0193899Y0140175D01*
X0193874Y0139992D01*
X0193845Y0139809D01*
X0193811Y0139627D01*
X0193773Y0139446D01*
X0193730Y0139266D01*
X0193683Y0139087D01*
X0193631Y0138910D01*
X0193575Y0138733D01*
X0193515Y0138558D01*
X0193451Y0138385D01*
X0193382Y0138213D01*
X0193309Y0138043D01*
X0193232Y0137875D01*
X0193151Y0137708D01*
X0193066Y0137544D01*
X0192977Y0137382D01*
X0192883Y0137222D01*
X0192786Y0137065D01*
X0192685Y0136910D01*
X0192581Y0136757D01*
X0192472Y0136607D01*
X0192360Y0136460D01*
X0192245Y0136315D01*
X0192126Y0136174D01*
X0192003Y0136035D01*
X0191877Y0135900D01*
X0191748Y0135767D01*
X0191615Y0135638D01*
X0191480Y0135512D01*
X0191341Y0135389D01*
X0191200Y0135270D01*
X0191055Y0135155D01*
X0190908Y0135043D01*
X0190758Y0134934D01*
X0190605Y0134830D01*
X0190450Y0134729D01*
X0190293Y0134632D01*
X0190133Y0134538D01*
X0189971Y0134449D01*
X0189807Y0134364D01*
X0189640Y0134283D01*
X0189472Y0134206D01*
X0189302Y0134133D01*
X0189130Y0134064D01*
X0188957Y0134000D01*
X0188782Y0133940D01*
X0188605Y0133884D01*
X0188428Y0133832D01*
X0188249Y0133785D01*
X0188069Y0133742D01*
X0187888Y0133704D01*
X0187706Y0133670D01*
X0187523Y0133641D01*
X0187340Y0133616D01*
X0187156Y0133595D01*
X0186972Y0133579D01*
X0186787Y0133568D01*
X0186602Y0133561D01*
X0186417Y0133559D01*
X0186232Y0133561D01*
X0186047Y0133568D01*
X0185862Y0133579D01*
X0185678Y0133595D01*
X0185494Y0133616D01*
X0185311Y0133641D01*
X0185128Y0133670D01*
X0184946Y0133704D01*
X0184765Y0133742D01*
X0184585Y0133785D01*
X0184406Y0133832D01*
X0184229Y0133884D01*
X0184052Y0133940D01*
X0183877Y0134000D01*
X0183704Y0134064D01*
X0183532Y0134133D01*
X0183362Y0134206D01*
X0183194Y0134283D01*
X0183027Y0134364D01*
X0182863Y0134449D01*
X0182701Y0134538D01*
X0182541Y0134632D01*
X0182384Y0134729D01*
X0182229Y0134830D01*
X0182076Y0134934D01*
X0181926Y0135043D01*
X0181779Y0135155D01*
X0181634Y0135270D01*
X0181493Y0135389D01*
X0181354Y0135512D01*
X0181219Y0135638D01*
X0181086Y0135767D01*
X0180957Y0135900D01*
X0180831Y0136035D01*
X0180708Y0136174D01*
X0180589Y0136315D01*
X0180474Y0136460D01*
X0180362Y0136607D01*
X0180253Y0136757D01*
X0180149Y0136910D01*
X0180048Y0137065D01*
X0179951Y0137222D01*
X0179857Y0137382D01*
X0179768Y0137544D01*
X0179683Y0137708D01*
X0179602Y0137875D01*
X0179525Y0138043D01*
X0179452Y0138213D01*
X0179383Y0138385D01*
X0179319Y0138558D01*
X0179259Y0138733D01*
X0179203Y0138910D01*
X0179151Y0139087D01*
X0179104Y0139266D01*
X0179061Y0139446D01*
X0179023Y0139627D01*
X0178989Y0139809D01*
X0178960Y0139992D01*
X0178935Y0140175D01*
X0178914Y0140359D01*
X0178898Y0140543D01*
X0178887Y0140728D01*
X0178880Y0140913D01*
X0178878Y0141098D01*
X0200244Y0136874D02*
X0203901Y0140531D01*
X0206417Y0143047D01*
X0206885Y0143516D01*
X0210641Y0147272D01*
X0212590Y0145323D02*
X0208897Y0141630D01*
X0206417Y0139150D01*
X0205787Y0138520D01*
X0202193Y0134925D01*
X0205787Y0138520D02*
X0205690Y0138546D01*
X0205595Y0138577D01*
X0205500Y0138611D01*
X0205407Y0138649D01*
X0205316Y0138690D01*
X0205226Y0138735D01*
X0205138Y0138784D01*
X0205052Y0138835D01*
X0204968Y0138891D01*
X0204886Y0138949D01*
X0204807Y0139011D01*
X0204730Y0139075D01*
X0204656Y0139143D01*
X0204585Y0139214D01*
X0204516Y0139287D01*
X0204450Y0139363D01*
X0204388Y0139441D01*
X0204328Y0139522D01*
X0204272Y0139605D01*
X0204219Y0139690D01*
X0204169Y0139778D01*
X0204123Y0139867D01*
X0204080Y0139958D01*
X0204041Y0140050D01*
X0204005Y0140144D01*
X0203974Y0140239D01*
X0203946Y0140336D01*
X0203922Y0140433D01*
X0203901Y0140532D01*
X0206885Y0143516D02*
X0206984Y0143495D01*
X0207081Y0143471D01*
X0207178Y0143443D01*
X0207273Y0143412D01*
X0207367Y0143376D01*
X0207459Y0143337D01*
X0207550Y0143294D01*
X0207639Y0143248D01*
X0207727Y0143198D01*
X0207812Y0143145D01*
X0207895Y0143089D01*
X0207976Y0143029D01*
X0208054Y0142967D01*
X0208130Y0142901D01*
X0208203Y0142832D01*
X0208274Y0142761D01*
X0208342Y0142687D01*
X0208406Y0142610D01*
X0208468Y0142531D01*
X0208526Y0142449D01*
X0208582Y0142365D01*
X0208633Y0142279D01*
X0208682Y0142191D01*
X0208727Y0142101D01*
X0208768Y0142010D01*
X0208806Y0141917D01*
X0208840Y0141822D01*
X0208871Y0141727D01*
X0208897Y0141630D01*
X0198878Y0141098D02*
X0198880Y0141283D01*
X0198887Y0141468D01*
X0198898Y0141653D01*
X0198914Y0141837D01*
X0198935Y0142021D01*
X0198960Y0142204D01*
X0198989Y0142387D01*
X0199023Y0142569D01*
X0199061Y0142750D01*
X0199104Y0142930D01*
X0199151Y0143109D01*
X0199203Y0143286D01*
X0199259Y0143463D01*
X0199319Y0143638D01*
X0199383Y0143811D01*
X0199452Y0143983D01*
X0199525Y0144153D01*
X0199602Y0144321D01*
X0199683Y0144488D01*
X0199768Y0144652D01*
X0199857Y0144814D01*
X0199951Y0144974D01*
X0200048Y0145131D01*
X0200149Y0145286D01*
X0200253Y0145439D01*
X0200362Y0145589D01*
X0200474Y0145736D01*
X0200589Y0145881D01*
X0200708Y0146022D01*
X0200831Y0146161D01*
X0200957Y0146296D01*
X0201086Y0146429D01*
X0201219Y0146558D01*
X0201354Y0146684D01*
X0201493Y0146807D01*
X0201634Y0146926D01*
X0201779Y0147041D01*
X0201926Y0147153D01*
X0202076Y0147262D01*
X0202229Y0147366D01*
X0202384Y0147467D01*
X0202541Y0147564D01*
X0202701Y0147658D01*
X0202863Y0147747D01*
X0203027Y0147832D01*
X0203194Y0147913D01*
X0203362Y0147990D01*
X0203532Y0148063D01*
X0203704Y0148132D01*
X0203877Y0148196D01*
X0204052Y0148256D01*
X0204229Y0148312D01*
X0204406Y0148364D01*
X0204585Y0148411D01*
X0204765Y0148454D01*
X0204946Y0148492D01*
X0205128Y0148526D01*
X0205311Y0148555D01*
X0205494Y0148580D01*
X0205678Y0148601D01*
X0205862Y0148617D01*
X0206047Y0148628D01*
X0206232Y0148635D01*
X0206417Y0148637D01*
X0206602Y0148635D01*
X0206787Y0148628D01*
X0206972Y0148617D01*
X0207156Y0148601D01*
X0207340Y0148580D01*
X0207523Y0148555D01*
X0207706Y0148526D01*
X0207888Y0148492D01*
X0208069Y0148454D01*
X0208249Y0148411D01*
X0208428Y0148364D01*
X0208605Y0148312D01*
X0208782Y0148256D01*
X0208957Y0148196D01*
X0209130Y0148132D01*
X0209302Y0148063D01*
X0209472Y0147990D01*
X0209640Y0147913D01*
X0209807Y0147832D01*
X0209971Y0147747D01*
X0210133Y0147658D01*
X0210293Y0147564D01*
X0210450Y0147467D01*
X0210605Y0147366D01*
X0210758Y0147262D01*
X0210908Y0147153D01*
X0211055Y0147041D01*
X0211200Y0146926D01*
X0211341Y0146807D01*
X0211480Y0146684D01*
X0211615Y0146558D01*
X0211748Y0146429D01*
X0211877Y0146296D01*
X0212003Y0146161D01*
X0212126Y0146022D01*
X0212245Y0145881D01*
X0212360Y0145736D01*
X0212472Y0145589D01*
X0212581Y0145439D01*
X0212685Y0145286D01*
X0212786Y0145131D01*
X0212883Y0144974D01*
X0212977Y0144814D01*
X0213066Y0144652D01*
X0213151Y0144488D01*
X0213232Y0144321D01*
X0213309Y0144153D01*
X0213382Y0143983D01*
X0213451Y0143811D01*
X0213515Y0143638D01*
X0213575Y0143463D01*
X0213631Y0143286D01*
X0213683Y0143109D01*
X0213730Y0142930D01*
X0213773Y0142750D01*
X0213811Y0142569D01*
X0213845Y0142387D01*
X0213874Y0142204D01*
X0213899Y0142021D01*
X0213920Y0141837D01*
X0213936Y0141653D01*
X0213947Y0141468D01*
X0213954Y0141283D01*
X0213956Y0141098D01*
X0213954Y0140913D01*
X0213947Y0140728D01*
X0213936Y0140543D01*
X0213920Y0140359D01*
X0213899Y0140175D01*
X0213874Y0139992D01*
X0213845Y0139809D01*
X0213811Y0139627D01*
X0213773Y0139446D01*
X0213730Y0139266D01*
X0213683Y0139087D01*
X0213631Y0138910D01*
X0213575Y0138733D01*
X0213515Y0138558D01*
X0213451Y0138385D01*
X0213382Y0138213D01*
X0213309Y0138043D01*
X0213232Y0137875D01*
X0213151Y0137708D01*
X0213066Y0137544D01*
X0212977Y0137382D01*
X0212883Y0137222D01*
X0212786Y0137065D01*
X0212685Y0136910D01*
X0212581Y0136757D01*
X0212472Y0136607D01*
X0212360Y0136460D01*
X0212245Y0136315D01*
X0212126Y0136174D01*
X0212003Y0136035D01*
X0211877Y0135900D01*
X0211748Y0135767D01*
X0211615Y0135638D01*
X0211480Y0135512D01*
X0211341Y0135389D01*
X0211200Y0135270D01*
X0211055Y0135155D01*
X0210908Y0135043D01*
X0210758Y0134934D01*
X0210605Y0134830D01*
X0210450Y0134729D01*
X0210293Y0134632D01*
X0210133Y0134538D01*
X0209971Y0134449D01*
X0209807Y0134364D01*
X0209640Y0134283D01*
X0209472Y0134206D01*
X0209302Y0134133D01*
X0209130Y0134064D01*
X0208957Y0134000D01*
X0208782Y0133940D01*
X0208605Y0133884D01*
X0208428Y0133832D01*
X0208249Y0133785D01*
X0208069Y0133742D01*
X0207888Y0133704D01*
X0207706Y0133670D01*
X0207523Y0133641D01*
X0207340Y0133616D01*
X0207156Y0133595D01*
X0206972Y0133579D01*
X0206787Y0133568D01*
X0206602Y0133561D01*
X0206417Y0133559D01*
X0206232Y0133561D01*
X0206047Y0133568D01*
X0205862Y0133579D01*
X0205678Y0133595D01*
X0205494Y0133616D01*
X0205311Y0133641D01*
X0205128Y0133670D01*
X0204946Y0133704D01*
X0204765Y0133742D01*
X0204585Y0133785D01*
X0204406Y0133832D01*
X0204229Y0133884D01*
X0204052Y0133940D01*
X0203877Y0134000D01*
X0203704Y0134064D01*
X0203532Y0134133D01*
X0203362Y0134206D01*
X0203194Y0134283D01*
X0203027Y0134364D01*
X0202863Y0134449D01*
X0202701Y0134538D01*
X0202541Y0134632D01*
X0202384Y0134729D01*
X0202229Y0134830D01*
X0202076Y0134934D01*
X0201926Y0135043D01*
X0201779Y0135155D01*
X0201634Y0135270D01*
X0201493Y0135389D01*
X0201354Y0135512D01*
X0201219Y0135638D01*
X0201086Y0135767D01*
X0200957Y0135900D01*
X0200831Y0136035D01*
X0200708Y0136174D01*
X0200589Y0136315D01*
X0200474Y0136460D01*
X0200362Y0136607D01*
X0200253Y0136757D01*
X0200149Y0136910D01*
X0200048Y0137065D01*
X0199951Y0137222D01*
X0199857Y0137382D01*
X0199768Y0137544D01*
X0199683Y0137708D01*
X0199602Y0137875D01*
X0199525Y0138043D01*
X0199452Y0138213D01*
X0199383Y0138385D01*
X0199319Y0138558D01*
X0199259Y0138733D01*
X0199203Y0138910D01*
X0199151Y0139087D01*
X0199104Y0139266D01*
X0199061Y0139446D01*
X0199023Y0139627D01*
X0198989Y0139809D01*
X0198960Y0139992D01*
X0198935Y0140175D01*
X0198914Y0140359D01*
X0198898Y0140543D01*
X0198887Y0140728D01*
X0198880Y0140913D01*
X0198878Y0141098D01*
X0216417Y0133301D02*
X0216417Y0149037D01*
X0215208Y0130122D02*
X0215910Y0129531D01*
X0216417Y0129531D01*
X0215208Y0130122D02*
X0214173Y0130122D01*
X0214173Y0127311D01*
X0215208Y0127311D01*
X0215910Y0127902D01*
X0216417Y0127902D01*
X0134708Y0127311D02*
X0133673Y0127311D01*
M02*
