%
M48
M72
T01C0.02953
T02C0.03200
T03C0.04000
T04C0.04400
T05C0.05118
T06C0.05200
T07C0.12598
%
T01
X261000Y113500
X291000Y113500
T02
X154000Y86000
X154000Y36000
T03
X179000Y48500
X179000Y63500
X209000Y100500
X179000Y103500
X59000Y100500
X59000Y11500
X179000Y8500
X209000Y11500
X319000Y31500
X319000Y120500
T04
X284000Y88500
X244000Y88500
X134000Y91000
X94000Y91000
X94000Y16000
X134000Y16000
X244000Y13500
X284000Y13500
T05
X18902Y55917
X18902Y75917
X18902Y95917
X145917Y141098
X165917Y141098
X186417Y141098
X206417Y141098
X226417Y141098
X246417Y141098
X265917Y141098
X285917Y141098
T06
X123300Y133500
X34700Y133500
T07
X13500Y13500
X13500Y146000
X321000Y146000
X321000Y13500
M30
