M48
INCH
T01C0.0200
T02C0.0400
T03C0.0300
T04C0.0280
T05C0.1000
T06C0.0600
T07C0.1181
%
T01
X-008500Y+017000
X+020500Y+017000
X+020500Y+014750
X-001550Y+025300
X-004500Y+019500
X-004500Y+012750
X-029750Y+034250
X-029750Y+036500
X-008500Y-023000
X+020500Y-023000
X+020500Y-025250
X-001550Y-014700
X-004500Y-020500
X-004500Y-027250
X-029750Y-005750
X-029750Y-003500
X-037500Y+004750
X-039750Y-003250
T02
X+043000Y+032000
X+043000Y+027000
X+040000Y+032000
X+040000Y+027000
X+037000Y+032000
X+037000Y+027000
X+034000Y+032000
X+034000Y+027000
X+031000Y+032000
X+031000Y+027000
X+028000Y+032000
X+028000Y+027000
X+025000Y+032000
X+025000Y+027000
X+022000Y+032000
X+022000Y+027000
X+043000Y+017000
X+043000Y+022000
X+040000Y+017000
X+040000Y+022000
X+037000Y+017000
X+037000Y+022000
X+034000Y+017000
X+034000Y+022000
X+031000Y+017000
X+031000Y+022000
X+028000Y+017000
X+028000Y+022000
X+025000Y+017000
X+025000Y+022000
X+037000Y+005500
X+037000Y+010500
X+034000Y+005500
X+034000Y+010500
X+031000Y+005500
X+031000Y+010500
X+028000Y+005500
X+028000Y+010500
X+025000Y+005500
X+025000Y+010500
X+022000Y+005500
X+022000Y+010500
X+022000Y+013000
X+022000Y+018000
X+022000Y+020000
X+022000Y+025000
X+042000Y+005500
X+042000Y+010500
X+017000Y+030500
X+017000Y+032468
X+017000Y+024500
X+017000Y+026468
X+017000Y+018500
X+017000Y+020468
X+017000Y+012500
X+017000Y+014468
X+017000Y+006500
X+017000Y+008468
X+011000Y+030500
X+011000Y+032468
X+011000Y+024500
X+011000Y+026468
X+011000Y+018500
X+011000Y+020468
X+011000Y+012500
X+011000Y+014468
X+011000Y+006500
X+011000Y+008468
X+006000Y+029000
X+006000Y+024000
X+003000Y+029000
X+003000Y+024000
X-003000Y+029000
X-003000Y+024000
X-006000Y+029000
X-006000Y+024000
X+003000Y+022000
X+003000Y+017000
X+000000Y+022000
X+000000Y+017000
X-003000Y+022000
X-003000Y+017000
X-006000Y+022000
X-006000Y+017000
X+003000Y+015000
X+003000Y+010000
X+006000Y+015000
X+006000Y+010000
X-003000Y+015000
X-003000Y+010000
X-006000Y+015000
X-006000Y+010000
X-019000Y+030500
X-019000Y+032468
X-019000Y+006500
X-019000Y+008468
X-010500Y+026968
X-010500Y+027968
X-010500Y+028968
X-010500Y+009968
X-010500Y+010968
X-010500Y+011968
X-013500Y+011968
X-013500Y+010968
X-013500Y+009968
X-032500Y+030468
X-032500Y+032437
X-032500Y+024468
X-032500Y+026437
X-032500Y+018468
X-032500Y+020437
X-032500Y+012468
X-032500Y+014437
X-032500Y+006468
X-032500Y+008437
X-024250Y+026968
X-024250Y+027968
X-024250Y+028968
X-024250Y+009968
X-024250Y+010968
X-024250Y+011968
X+045500Y+025750
X+045500Y+020750
X+047000Y+013000
X+047000Y+008000
X-037000Y+023250
X-037000Y+018250
X-039250Y+023250
X-039250Y+018250
X-036000Y+010968
X-036000Y+005968
X-038750Y+011000
X-038750Y+006000
X-024000Y+020000
X-029000Y+020000
X-029000Y+018750
X-024000Y+018750
X-016000Y+029500
X-016000Y+020500
X-016000Y+018500
X-016000Y+009500
X-021750Y+029500
X-021750Y+020500
X-021750Y+018500
X-021750Y+009500
X-029000Y+013500
X-029000Y+008500
X-041000Y+033750
X-041000Y+030750
X-041000Y+028750
X-041000Y+026750
X-038000Y+026750
X-038000Y+028750
X-038000Y+030750
X-038000Y+033750
X+043000Y-008000
X+043000Y-013000
X+040000Y-008000
X+040000Y-013000
X+037000Y-008000
X+037000Y-013000
X+034000Y-008000
X+034000Y-013000
X+031000Y-008000
X+031000Y-013000
X+028000Y-008000
X+028000Y-013000
X+025000Y-008000
X+025000Y-013000
X+022000Y-008000
X+022000Y-013000
X+043000Y-023000
X+043000Y-018000
X+040000Y-023000
X+040000Y-018000
X+037000Y-023000
X+037000Y-018000
X+034000Y-023000
X+034000Y-018000
X+031000Y-023000
X+031000Y-018000
X+028000Y-023000
X+028000Y-018000
X+025000Y-023000
X+025000Y-018000
X+037000Y-034500
X+037000Y-029500
X+034000Y-034500
X+034000Y-029500
X+031000Y-034500
X+031000Y-029500
X+028000Y-034500
X+028000Y-029500
X+025000Y-034500
X+025000Y-029500
X+022000Y-034500
X+022000Y-029500
X+022000Y-027000
X+022000Y-022000
X+022000Y-020000
X+022000Y-015000
X+042000Y-034500
X+042000Y-029500
X+017000Y-009500
X+017000Y-007531
X+017000Y-015500
X+017000Y-013531
X+017000Y-021500
X+017000Y-019531
X+017000Y-027500
X+017000Y-025531
X+017000Y-033500
X+017000Y-031531
X+011000Y-009500
X+011000Y-007531
X+011000Y-015500
X+011000Y-013531
X+011000Y-021500
X+011000Y-019531
X+011000Y-027500
X+011000Y-025531
X+011000Y-033500
X+011000Y-031531
X+006000Y-011000
X+006000Y-016000
X+003000Y-011000
X+003000Y-016000
X-003000Y-011000
X-003000Y-016000
X-006000Y-011000
X-006000Y-016000
X+003000Y-018000
X+003000Y-023000
X+000000Y-018000
X+000000Y-023000
X-003000Y-018000
X-003000Y-023000
X-006000Y-018000
X-006000Y-023000
X+003000Y-025000
X+003000Y-030000
X+006000Y-025000
X+006000Y-030000
X-003000Y-025000
X-003000Y-030000
X-006000Y-025000
X-006000Y-030000
X-019000Y-009500
X-019000Y-007531
X-019000Y-033500
X-019000Y-031531
X-010500Y-013031
X-010500Y-012031
X-010500Y-011031
X-010500Y-030031
X-010500Y-029031
X-010500Y-028031
X-013500Y-028031
X-013500Y-029031
X-013500Y-030031
X-032500Y-009531
X-032500Y-007562
X-032500Y-015531
X-032500Y-013562
X-032500Y-021531
X-032500Y-019562
X-032500Y-027531
X-032500Y-025562
X-032500Y-033531
X-032500Y-031562
X-024250Y-013031
X-024250Y-012031
X-024250Y-011031
X-024250Y-030031
X-024250Y-029031
X-024250Y-028031
X+045500Y-014250
X+045500Y-019250
X+047000Y-027000
X+047000Y-032000
X-037000Y-016750
X-037000Y-021750
X-039250Y-016750
X-039250Y-021750
X-036000Y-029031
X-036000Y-034031
X-038750Y-029000
X-038750Y-034000
X-024000Y-020000
X-029000Y-020000
X-029000Y-021250
X-024000Y-021250
X-016000Y-010500
X-016000Y-019500
X-016000Y-021500
X-016000Y-030500
X-021750Y-010500
X-021750Y-019500
X-021750Y-021500
X-021750Y-030500
X-029000Y-026500
X-029000Y-031500
X-041000Y-006250
X-041000Y-009250
X-041000Y-011250
X-041000Y-013250
X-038000Y-013250
X-038000Y-011250
X-038000Y-009250
X-038000Y-006250
X-036000Y-006750
X-036000Y-011750
X-036000Y+033250
X-036000Y+028250
X-013000Y+000000
X-011031Y+000000
X-015250Y+002000
X-020250Y+002000
X-032500Y+001000
X-037500Y+001000
X-026750Y-000500
X-021750Y-000500
X-020250Y-000750
X-015250Y-000750
X-017500Y+018000
X-015500Y+008000
X-017500Y-022000
X-015500Y-032000
T03
X+043000Y+025300
X+043000Y+024500
X+043000Y+023700
X+040000Y+025300
X+040000Y+024500
X+040000Y+023700
X+037000Y+025300
X+037000Y+024500
X+037000Y+023700
X+034000Y+025300
X+034000Y+024500
X+034000Y+023700
X+025000Y+025300
X+025000Y+024500
X+025000Y+023700
X+028000Y+023700
X+028000Y+024500
X+028000Y+025300
X+031000Y+023700
X+031000Y+024500
X+031000Y+025300
X+037000Y+015300
X+037000Y+014500
X+037000Y+013700
X+034000Y+015300
X+034000Y+014500
X+034000Y+013700
X+031000Y+013700
X+031000Y+014500
X+031000Y+015300
X+028000Y+013700
X+028000Y+014500
X+028000Y+015300
X+025000Y+013700
X+025000Y+014500
X+025000Y+015300
X+006000Y+030700
X+006000Y+031500
X+006000Y+032300
X+003000Y+030700
X+003000Y+031500
X+003000Y+032300
X-003000Y+030700
X-003000Y+031500
X-003000Y+032300
X-006000Y+030700
X-006000Y+031500
X-006000Y+032300
X+006000Y+008300
X+006000Y+007500
X+006000Y+006700
X+003000Y+008300
X+003000Y+007500
X+003000Y+006700
X-003000Y+008300
X-003000Y+007500
X-003000Y+006700
X-006000Y+008300
X-006000Y+007500
X-006000Y+006700
X-011000Y+019500
X-012000Y+019500
X-013000Y+019500
X+045500Y+032000
X+045500Y+030031
X+039500Y+007500
X+039500Y+005531
X-007874Y+035250
X-007874Y+033281
X-007874Y+005468
X-007874Y+003500
X+044750Y+010500
X+044750Y+008177
X+000000Y+033822
X+000000Y+031500
X-038250Y+016250
X-039250Y+016250
X-040250Y+016250
X-041250Y+016250
X-041250Y+013250
X-040250Y+013250
X-039250Y+013250
X-038250Y+013250
X-041500Y+022187
X-041500Y+020218
X-036500Y+015718
X-036500Y+013750
X-046750Y+013750
X-044781Y+013750
X-036750Y-002000
X-034781Y-002000
X+000000Y+007500
X+000000Y+005177
X+005875Y+020468
X+005875Y+018500
X+047750Y+022750
X+047750Y+025072
X-041718Y+007750
X-041718Y+009718
X+043000Y-014700
X+043000Y-015500
X+043000Y-016300
X+040000Y-014700
X+040000Y-015500
X+040000Y-016300
X+037000Y-014700
X+037000Y-015500
X+037000Y-016300
X+034000Y-014700
X+034000Y-015500
X+034000Y-016300
X+025000Y-014700
X+025000Y-015500
X+025000Y-016300
X+028000Y-016300
X+028000Y-015500
X+028000Y-014700
X+031000Y-016300
X+031000Y-015500
X+031000Y-014700
X+037000Y-024700
X+037000Y-025500
X+037000Y-026300
X+034000Y-024700
X+034000Y-025500
X+034000Y-026300
X+031000Y-026300
X+031000Y-025500
X+031000Y-024700
X+028000Y-026300
X+028000Y-025500
X+028000Y-024700
X+025000Y-026300
X+025000Y-025500
X+025000Y-024700
X+006000Y-009300
X+006000Y-008500
X+006000Y-007700
X+003000Y-009300
X+003000Y-008500
X+003000Y-007700
X-003000Y-009300
X-003000Y-008500
X-003000Y-007700
X-006000Y-009300
X-006000Y-008500
X-006000Y-007700
X+006000Y-031700
X+006000Y-032500
X+006000Y-033300
X+003000Y-031700
X+003000Y-032500
X+003000Y-033300
X-003000Y-031700
X-003000Y-032500
X-003000Y-033300
X-006000Y-031700
X-006000Y-032500
X-006000Y-033300
X-011000Y-020500
X-012000Y-020500
X-013000Y-020500
X+045500Y-008000
X+045500Y-009968
X+039500Y-032500
X+039500Y-034468
X-007874Y-004750
X-007874Y-006718
X-007874Y-034531
X-007874Y-036500
X+044750Y-029500
X+044750Y-031822
X+000000Y-006177
X+000000Y-008500
X-038250Y-023750
X-039250Y-023750
X-040250Y-023750
X-041250Y-023750
X-041250Y-026750
X-040250Y-026750
X-039250Y-026750
X-038250Y-026750
X-041500Y-017812
X-041500Y-019781
X-036500Y-024281
X-036500Y-026250
X-045250Y-007500
X-043281Y-007500
X-046750Y-026250
X-044781Y-026250
X+000000Y-032500
X+000000Y-034822
X+005875Y-019531
X+005875Y-021500
X+047750Y-017250
X+047750Y-014927
X-041718Y-032250
X-041718Y-030281
X-023450Y+001750
X-024250Y+001750
X-025050Y+001750
X-030500Y+001000
X-028531Y+001000
X-030300Y-001500
X-029500Y-001500
X-028700Y-001500
X-020000Y-002250
X-018031Y-002250
T04
X+040750Y+014000
X+040950Y+013450
X+040950Y+014550
X+042050Y+013450
X+042250Y+014000
X+042050Y+014550
X+040750Y-026000
X+040950Y-026550
X+040950Y-025450
X+042050Y-026550
X+042250Y-026000
X+042050Y-025450
T05
X-012000Y+033000
X-012000Y+023000
X-012000Y+016000
X-012000Y+006000
X-025750Y+032968
X-025750Y+022968
X-025750Y+015968
X-025750Y+005968
X-012000Y-007000
X-012000Y-017000
X-012000Y-024000
X-012000Y-034000
X-025750Y-007031
X-025750Y-017031
X-025750Y-024031
X-025750Y-034031
T06
X-019000Y+027718
X-019000Y+022218
X-019000Y+017468
X-019000Y+011968
X-044750Y+020500
X-044750Y+022500
X-019000Y-012281
X-019000Y-017781
X-019000Y-022531
X-019000Y-028031
X-044750Y-015250
X-044750Y-013250
X-041750Y+002000
X-041750Y+000000
X-041750Y-002000
X+047500Y+002000
X+047500Y+000000
X+047500Y-002000
T07
X-047000Y+035750
X+041500Y+000000
X+049500Y+035750
X-047000Y-035750
X+049500Y-035750
X+000000Y+000000
X-047000Y+000000
X+000000Y-028500
X+000000Y+028500
M30
