G04 EAGLE Gerber X2 export*
%TF.Part,Single*%
%TF.FileFunction,Copper,L2,Bot,Mixed*%
%TF.FilePolarity,Positive*%
%TF.GenerationSoftware,Autodesk,EAGLE,8.7.0*%
%TF.CreationDate,2018-05-23T13:35:31Z*%
G75*
%MOMM*%
%FSLAX34Y34*%
%LPD*%
%AMOC8*
5,1,8,0,0,1.08239X$1,22.5*%
G01*
%ADD10P,1.732040X8X112.500000*%
%ADD11C,1.600200*%
%ADD12R,1.300000X1.500000*%
%ADD13R,1.800000X1.400000*%
%ADD14C,1.676400*%
%ADD15C,2.540000*%
%ADD16R,1.400000X1.800000*%
%ADD17R,1.800000X1.700000*%
%ADD18C,1.800000*%
%ADD19R,5.400000X6.200000*%
%ADD20R,1.000000X1.600000*%
%ADD21C,0.508000*%
%ADD22C,0.756400*%

G36*
X515066Y86378D02*
X515066Y86378D01*
X515205Y86391D01*
X515224Y86398D01*
X515244Y86401D01*
X515373Y86452D01*
X515504Y86499D01*
X515521Y86510D01*
X515539Y86518D01*
X515652Y86599D01*
X515767Y86677D01*
X515780Y86693D01*
X515797Y86704D01*
X515886Y86812D01*
X515977Y86916D01*
X515987Y86934D01*
X516000Y86949D01*
X516059Y87075D01*
X516122Y87199D01*
X516126Y87219D01*
X516135Y87237D01*
X516161Y87373D01*
X516192Y87509D01*
X516191Y87530D01*
X516195Y87549D01*
X516186Y87688D01*
X516182Y87827D01*
X516176Y87847D01*
X516175Y87867D01*
X516132Y87999D01*
X516094Y88133D01*
X516083Y88150D01*
X516077Y88169D01*
X516002Y88287D01*
X515932Y88407D01*
X515914Y88428D01*
X515907Y88438D01*
X515892Y88452D01*
X515826Y88527D01*
X512466Y91887D01*
X509022Y97852D01*
X507239Y104506D01*
X507239Y111394D01*
X509022Y118048D01*
X512466Y124013D01*
X517337Y128884D01*
X523302Y132328D01*
X529956Y134111D01*
X536844Y134111D01*
X543498Y132328D01*
X546535Y130574D01*
X546658Y130523D01*
X546777Y130466D01*
X546804Y130461D01*
X546829Y130451D01*
X546960Y130431D01*
X547090Y130407D01*
X547116Y130408D01*
X547143Y130404D01*
X547275Y130418D01*
X547407Y130426D01*
X547433Y130435D01*
X547459Y130437D01*
X547584Y130484D01*
X547709Y130524D01*
X547732Y130539D01*
X547758Y130548D01*
X547866Y130624D01*
X547978Y130695D01*
X547997Y130714D01*
X548019Y130730D01*
X548105Y130830D01*
X548196Y130926D01*
X548209Y130950D01*
X548227Y130970D01*
X548286Y131089D01*
X548350Y131205D01*
X548356Y131231D01*
X548368Y131255D01*
X548396Y131385D01*
X548429Y131513D01*
X548431Y131551D01*
X548435Y131566D01*
X548434Y131588D01*
X548439Y131673D01*
X548439Y420777D01*
X548423Y420908D01*
X548412Y421040D01*
X548403Y421066D01*
X548399Y421092D01*
X548351Y421215D01*
X548307Y421340D01*
X548292Y421363D01*
X548282Y421388D01*
X548205Y421495D01*
X548131Y421605D01*
X548111Y421623D01*
X548096Y421645D01*
X547993Y421730D01*
X547895Y421818D01*
X547871Y421831D01*
X547851Y421848D01*
X547731Y421905D01*
X547614Y421966D01*
X547587Y421972D01*
X547563Y421984D01*
X547433Y422008D01*
X547304Y422039D01*
X547277Y422038D01*
X547251Y422043D01*
X547119Y422035D01*
X546986Y422033D01*
X546960Y422025D01*
X546933Y422024D01*
X546807Y421983D01*
X546680Y421947D01*
X546645Y421930D01*
X546631Y421926D01*
X546612Y421914D01*
X546535Y421876D01*
X543498Y420122D01*
X536844Y418339D01*
X529956Y418339D01*
X523302Y420122D01*
X517337Y423566D01*
X512466Y428437D01*
X509022Y434402D01*
X507239Y441056D01*
X507239Y447944D01*
X509039Y454661D01*
X509094Y454777D01*
X509099Y454803D01*
X509109Y454828D01*
X509129Y454960D01*
X509154Y455090D01*
X509152Y455116D01*
X509156Y455143D01*
X509142Y455275D01*
X509134Y455407D01*
X509126Y455432D01*
X509123Y455459D01*
X509077Y455583D01*
X509036Y455709D01*
X509022Y455732D01*
X509012Y455757D01*
X508937Y455866D01*
X508866Y455978D01*
X508846Y455997D01*
X508831Y456019D01*
X508731Y456105D01*
X508634Y456196D01*
X508611Y456209D01*
X508590Y456227D01*
X508472Y456286D01*
X508356Y456350D01*
X508330Y456356D01*
X508306Y456368D01*
X508176Y456396D01*
X508048Y456429D01*
X508010Y456431D01*
X507995Y456435D01*
X507973Y456434D01*
X507887Y456439D01*
X120763Y456439D01*
X120632Y456423D01*
X120499Y456412D01*
X120474Y456403D01*
X120448Y456399D01*
X120324Y456351D01*
X120199Y456307D01*
X120177Y456292D01*
X120152Y456282D01*
X120045Y456205D01*
X119934Y456131D01*
X119916Y456111D01*
X119894Y456096D01*
X119810Y455993D01*
X119721Y455895D01*
X119709Y455871D01*
X119692Y455851D01*
X119635Y455731D01*
X119574Y455613D01*
X119568Y455587D01*
X119556Y455563D01*
X119531Y455433D01*
X119501Y455304D01*
X119501Y455277D01*
X119496Y455251D01*
X119505Y455119D01*
X119507Y454986D01*
X119514Y454960D01*
X119516Y454933D01*
X119557Y454807D01*
X119592Y454679D01*
X119609Y454645D01*
X119614Y454631D01*
X119623Y454617D01*
X121411Y447944D01*
X121411Y441056D01*
X121037Y439661D01*
X121017Y439517D01*
X120994Y439373D01*
X120996Y439360D01*
X120994Y439346D01*
X121011Y439202D01*
X121024Y439056D01*
X121029Y439044D01*
X121030Y439030D01*
X121082Y438895D01*
X121132Y438757D01*
X121139Y438746D01*
X121144Y438733D01*
X121228Y438615D01*
X121310Y438494D01*
X121321Y438485D01*
X121328Y438474D01*
X121440Y438380D01*
X121549Y438283D01*
X121561Y438277D01*
X121571Y438269D01*
X121702Y438205D01*
X121832Y438139D01*
X121845Y438136D01*
X121857Y438130D01*
X122000Y438101D01*
X122142Y438069D01*
X122156Y438070D01*
X122169Y438067D01*
X122314Y438074D01*
X122460Y438079D01*
X122473Y438083D01*
X122487Y438083D01*
X122626Y438127D01*
X122766Y438167D01*
X122777Y438174D01*
X122790Y438178D01*
X122914Y438255D01*
X123040Y438329D01*
X123054Y438341D01*
X123061Y438345D01*
X123072Y438358D01*
X123161Y438435D01*
X123758Y439033D01*
X135442Y439033D01*
X136633Y437842D01*
X136633Y420158D01*
X135442Y418967D01*
X127510Y418967D01*
X127412Y418955D01*
X127313Y418952D01*
X127254Y418935D01*
X127194Y418927D01*
X127102Y418891D01*
X127007Y418863D01*
X126955Y418833D01*
X126899Y418810D01*
X126819Y418752D01*
X126733Y418702D01*
X126658Y418636D01*
X126641Y418624D01*
X126633Y418614D01*
X126612Y418596D01*
X112644Y404628D01*
X112584Y404549D01*
X112516Y404477D01*
X112487Y404424D01*
X112450Y404376D01*
X112410Y404285D01*
X112362Y404199D01*
X112347Y404140D01*
X112323Y404085D01*
X112308Y403987D01*
X112283Y403891D01*
X112277Y403791D01*
X112273Y403770D01*
X112275Y403758D01*
X112273Y403730D01*
X112273Y338540D01*
X112276Y338510D01*
X112274Y338481D01*
X112296Y338353D01*
X112313Y338224D01*
X112323Y338197D01*
X112328Y338168D01*
X112382Y338049D01*
X112430Y337928D01*
X112447Y337904D01*
X112459Y337878D01*
X112540Y337776D01*
X112616Y337671D01*
X112639Y337652D01*
X112658Y337629D01*
X112761Y337551D01*
X112861Y337468D01*
X112888Y337456D01*
X112912Y337438D01*
X113056Y337367D01*
X116045Y336129D01*
X120190Y331984D01*
X120417Y331435D01*
X120452Y331374D01*
X120478Y331309D01*
X120530Y331237D01*
X120575Y331159D01*
X120623Y331109D01*
X120664Y331052D01*
X120734Y330995D01*
X120796Y330930D01*
X120856Y330894D01*
X120909Y330849D01*
X120991Y330811D01*
X121067Y330764D01*
X121134Y330743D01*
X121197Y330714D01*
X121285Y330697D01*
X121371Y330670D01*
X121441Y330667D01*
X121510Y330654D01*
X121599Y330660D01*
X121689Y330655D01*
X121757Y330669D01*
X121827Y330674D01*
X121912Y330701D01*
X122000Y330720D01*
X122063Y330750D01*
X122129Y330772D01*
X122205Y330820D01*
X122286Y330859D01*
X122339Y330905D01*
X122398Y330942D01*
X122460Y331007D01*
X122528Y331066D01*
X122568Y331123D01*
X122616Y331174D01*
X122659Y331252D01*
X122711Y331326D01*
X122736Y331391D01*
X122770Y331452D01*
X122792Y331539D01*
X122824Y331623D01*
X122832Y331692D01*
X122849Y331760D01*
X122859Y331921D01*
X122859Y353461D01*
X149861Y353461D01*
X149861Y322459D01*
X125066Y322459D01*
X124419Y322632D01*
X124337Y322680D01*
X124215Y322732D01*
X124095Y322788D01*
X124068Y322793D01*
X124044Y322803D01*
X123912Y322823D01*
X123782Y322848D01*
X123756Y322846D01*
X123729Y322850D01*
X123597Y322836D01*
X123465Y322828D01*
X123439Y322820D01*
X123413Y322817D01*
X123288Y322771D01*
X123163Y322730D01*
X123140Y322715D01*
X123114Y322706D01*
X123006Y322631D01*
X122894Y322560D01*
X122875Y322540D01*
X122853Y322525D01*
X122767Y322425D01*
X122676Y322328D01*
X122663Y322304D01*
X122645Y322284D01*
X122586Y322166D01*
X122522Y322050D01*
X122516Y322024D01*
X122504Y321999D01*
X122476Y321870D01*
X122443Y321742D01*
X122441Y321703D01*
X122437Y321688D01*
X122438Y321667D01*
X122433Y321581D01*
X122433Y320708D01*
X120190Y315294D01*
X116045Y311149D01*
X110631Y308906D01*
X104769Y308906D01*
X99355Y311149D01*
X95210Y315294D01*
X92967Y320708D01*
X92967Y326570D01*
X95210Y331984D01*
X99355Y336129D01*
X102344Y337367D01*
X102369Y337382D01*
X102397Y337391D01*
X102507Y337460D01*
X102620Y337524D01*
X102641Y337545D01*
X102666Y337561D01*
X102755Y337655D01*
X102848Y337746D01*
X102864Y337771D01*
X102884Y337792D01*
X102947Y337906D01*
X103015Y338017D01*
X103023Y338045D01*
X103038Y338071D01*
X103070Y338197D01*
X103108Y338321D01*
X103110Y338350D01*
X103117Y338379D01*
X103127Y338540D01*
X103127Y408044D01*
X122196Y427112D01*
X122256Y427191D01*
X122324Y427263D01*
X122353Y427316D01*
X122390Y427364D01*
X122430Y427455D01*
X122478Y427541D01*
X122493Y427600D01*
X122517Y427655D01*
X122532Y427753D01*
X122557Y427849D01*
X122563Y427949D01*
X122567Y427970D01*
X122565Y427982D01*
X122567Y428010D01*
X122567Y435731D01*
X122548Y435881D01*
X122531Y436034D01*
X122528Y436040D01*
X122527Y436047D01*
X122472Y436188D01*
X122417Y436331D01*
X122413Y436336D01*
X122410Y436343D01*
X122321Y436465D01*
X122233Y436590D01*
X122227Y436594D01*
X122224Y436600D01*
X122107Y436697D01*
X121990Y436795D01*
X121984Y436798D01*
X121979Y436803D01*
X121841Y436867D01*
X121704Y436934D01*
X121697Y436935D01*
X121691Y436938D01*
X121542Y436967D01*
X121392Y436997D01*
X121385Y436997D01*
X121379Y436998D01*
X121227Y436989D01*
X121074Y436981D01*
X121068Y436979D01*
X121061Y436978D01*
X120916Y436931D01*
X120771Y436886D01*
X120765Y436882D01*
X120759Y436880D01*
X120629Y436798D01*
X120500Y436719D01*
X120496Y436714D01*
X120490Y436710D01*
X120385Y436598D01*
X120280Y436489D01*
X120277Y436483D01*
X120272Y436478D01*
X120199Y436345D01*
X120123Y436212D01*
X120121Y436204D01*
X120118Y436200D01*
X120116Y436190D01*
X120072Y436060D01*
X119628Y434402D01*
X116184Y428437D01*
X111313Y423566D01*
X105348Y420122D01*
X98694Y418339D01*
X91806Y418339D01*
X85152Y420122D01*
X81915Y421991D01*
X81792Y422043D01*
X81673Y422099D01*
X81646Y422104D01*
X81621Y422115D01*
X81490Y422134D01*
X81360Y422159D01*
X81334Y422157D01*
X81307Y422161D01*
X81175Y422147D01*
X81043Y422139D01*
X81017Y422131D01*
X80991Y422128D01*
X80866Y422082D01*
X80741Y422041D01*
X80718Y422027D01*
X80692Y422017D01*
X80584Y421942D01*
X80472Y421871D01*
X80453Y421851D01*
X80431Y421836D01*
X80345Y421736D01*
X80254Y421639D01*
X80241Y421616D01*
X80223Y421595D01*
X80164Y421477D01*
X80100Y421361D01*
X80094Y421335D01*
X80082Y421311D01*
X80054Y421181D01*
X80021Y421053D01*
X80019Y421015D01*
X80015Y420999D01*
X80016Y420978D01*
X80011Y420892D01*
X80011Y125208D01*
X80027Y125077D01*
X80038Y124945D01*
X80047Y124919D01*
X80051Y124892D01*
X80099Y124769D01*
X80143Y124644D01*
X80158Y124622D01*
X80168Y124597D01*
X80245Y124490D01*
X80319Y124379D01*
X80339Y124361D01*
X80354Y124339D01*
X80457Y124255D01*
X80555Y124166D01*
X80579Y124154D01*
X80599Y124136D01*
X80719Y124080D01*
X80836Y124019D01*
X80863Y124012D01*
X80887Y124001D01*
X81017Y123976D01*
X81146Y123946D01*
X81173Y123946D01*
X81199Y123941D01*
X81331Y123949D01*
X81464Y123952D01*
X81490Y123959D01*
X81517Y123961D01*
X81643Y124002D01*
X81770Y124037D01*
X81805Y124054D01*
X81819Y124059D01*
X81838Y124071D01*
X81915Y124109D01*
X85152Y125978D01*
X91806Y127761D01*
X98694Y127761D01*
X105348Y125978D01*
X111313Y122534D01*
X116184Y117663D01*
X119628Y111698D01*
X120872Y107055D01*
X120930Y106914D01*
X120986Y106772D01*
X120990Y106766D01*
X120992Y106760D01*
X121084Y106636D01*
X121172Y106515D01*
X121178Y106510D01*
X121182Y106505D01*
X121300Y106409D01*
X121417Y106312D01*
X121424Y106309D01*
X121429Y106305D01*
X121567Y106241D01*
X121705Y106176D01*
X121712Y106175D01*
X121718Y106172D01*
X121868Y106145D01*
X122018Y106116D01*
X122024Y106117D01*
X122031Y106116D01*
X122184Y106127D01*
X122335Y106136D01*
X122341Y106138D01*
X122348Y106139D01*
X122493Y106187D01*
X122637Y106234D01*
X122643Y106238D01*
X122650Y106240D01*
X122777Y106323D01*
X122906Y106404D01*
X122911Y106409D01*
X122916Y106413D01*
X123020Y106526D01*
X123124Y106636D01*
X123127Y106642D01*
X123132Y106647D01*
X123205Y106782D01*
X123278Y106914D01*
X123279Y106921D01*
X123282Y106927D01*
X123319Y107075D01*
X123357Y107222D01*
X123358Y107231D01*
X123359Y107236D01*
X123359Y107246D01*
X123367Y107383D01*
X123367Y136340D01*
X123355Y136438D01*
X123352Y136537D01*
X123335Y136596D01*
X123327Y136656D01*
X123291Y136748D01*
X123263Y136843D01*
X123233Y136895D01*
X123210Y136951D01*
X123152Y137031D01*
X123102Y137117D01*
X123036Y137192D01*
X123024Y137209D01*
X123014Y137217D01*
X122996Y137238D01*
X106178Y154056D01*
X103127Y157106D01*
X103127Y207138D01*
X103124Y207168D01*
X103126Y207197D01*
X103104Y207325D01*
X103087Y207454D01*
X103077Y207481D01*
X103072Y207510D01*
X103018Y207629D01*
X102970Y207750D01*
X102953Y207774D01*
X102941Y207800D01*
X102860Y207902D01*
X102784Y208007D01*
X102761Y208026D01*
X102742Y208049D01*
X102639Y208127D01*
X102539Y208210D01*
X102512Y208222D01*
X102488Y208240D01*
X102344Y208311D01*
X99355Y209549D01*
X95210Y213694D01*
X92967Y219108D01*
X92967Y224970D01*
X95210Y230384D01*
X99355Y234529D01*
X104769Y236772D01*
X110631Y236772D01*
X116045Y234529D01*
X120190Y230384D01*
X122433Y224970D01*
X122433Y219108D01*
X120190Y213694D01*
X116045Y209549D01*
X113056Y208311D01*
X113031Y208296D01*
X113003Y208287D01*
X112893Y208218D01*
X112780Y208154D01*
X112759Y208133D01*
X112734Y208117D01*
X112645Y208023D01*
X112552Y207932D01*
X112536Y207907D01*
X112516Y207886D01*
X112453Y207772D01*
X112385Y207661D01*
X112377Y207633D01*
X112362Y207607D01*
X112330Y207481D01*
X112292Y207357D01*
X112290Y207328D01*
X112283Y207299D01*
X112273Y207138D01*
X112273Y161420D01*
X112285Y161322D01*
X112288Y161223D01*
X112305Y161164D01*
X112313Y161104D01*
X112349Y161012D01*
X112377Y160917D01*
X112407Y160865D01*
X112430Y160809D01*
X112488Y160729D01*
X112538Y160643D01*
X112604Y160568D01*
X112616Y160551D01*
X112626Y160543D01*
X112644Y160522D01*
X121201Y151966D01*
X121310Y151881D01*
X121417Y151792D01*
X121436Y151784D01*
X121452Y151771D01*
X121580Y151716D01*
X121705Y151657D01*
X121725Y151653D01*
X121744Y151645D01*
X121882Y151623D01*
X122018Y151597D01*
X122038Y151598D01*
X122058Y151595D01*
X122197Y151608D01*
X122335Y151617D01*
X122354Y151623D01*
X122374Y151625D01*
X122506Y151672D01*
X122637Y151715D01*
X122655Y151726D01*
X122674Y151733D01*
X122789Y151811D01*
X122906Y151885D01*
X122920Y151900D01*
X122937Y151911D01*
X123029Y152015D01*
X123124Y152117D01*
X123134Y152134D01*
X123147Y152150D01*
X123211Y152273D01*
X123278Y152395D01*
X123283Y152415D01*
X123292Y152433D01*
X123322Y152569D01*
X123357Y152703D01*
X123359Y152731D01*
X123362Y152743D01*
X123361Y152764D01*
X123367Y152864D01*
X123367Y159242D01*
X124558Y160433D01*
X180242Y160433D01*
X181433Y159242D01*
X181433Y95558D01*
X180242Y94367D01*
X124558Y94367D01*
X123367Y95558D01*
X123367Y95817D01*
X123348Y95967D01*
X123331Y96119D01*
X123328Y96126D01*
X123327Y96132D01*
X123272Y96272D01*
X123217Y96416D01*
X123213Y96422D01*
X123210Y96428D01*
X123121Y96551D01*
X123033Y96676D01*
X123028Y96680D01*
X123024Y96685D01*
X122906Y96783D01*
X122790Y96881D01*
X122784Y96884D01*
X122779Y96888D01*
X122641Y96953D01*
X122504Y97020D01*
X122497Y97021D01*
X122491Y97024D01*
X122342Y97052D01*
X122192Y97083D01*
X122185Y97082D01*
X122179Y97084D01*
X122027Y97074D01*
X121874Y97066D01*
X121868Y97064D01*
X121861Y97064D01*
X121717Y97017D01*
X121571Y96971D01*
X121565Y96968D01*
X121559Y96966D01*
X121431Y96885D01*
X121300Y96804D01*
X121296Y96799D01*
X121290Y96796D01*
X121185Y96684D01*
X121080Y96575D01*
X121077Y96569D01*
X121072Y96564D01*
X120999Y96431D01*
X120923Y96298D01*
X120921Y96289D01*
X120918Y96286D01*
X120916Y96275D01*
X120872Y96145D01*
X119628Y91502D01*
X117759Y88265D01*
X117707Y88142D01*
X117651Y88023D01*
X117646Y87996D01*
X117635Y87971D01*
X117616Y87840D01*
X117591Y87710D01*
X117593Y87684D01*
X117589Y87657D01*
X117603Y87525D01*
X117611Y87393D01*
X117619Y87367D01*
X117622Y87341D01*
X117668Y87216D01*
X117709Y87091D01*
X117723Y87068D01*
X117733Y87042D01*
X117808Y86934D01*
X117879Y86822D01*
X117899Y86803D01*
X117914Y86781D01*
X118014Y86695D01*
X118111Y86604D01*
X118134Y86591D01*
X118155Y86573D01*
X118273Y86514D01*
X118389Y86450D01*
X118415Y86444D01*
X118439Y86432D01*
X118569Y86404D01*
X118697Y86371D01*
X118735Y86369D01*
X118751Y86365D01*
X118772Y86366D01*
X118858Y86361D01*
X514928Y86361D01*
X515066Y86378D01*
G37*
%LPC*%
G36*
X276680Y112017D02*
X276680Y112017D01*
X271266Y114260D01*
X267121Y118405D01*
X264878Y123819D01*
X264878Y129681D01*
X267121Y135095D01*
X271336Y139311D01*
X271422Y139420D01*
X271510Y139527D01*
X271519Y139546D01*
X271531Y139562D01*
X271587Y139690D01*
X271646Y139815D01*
X271650Y139835D01*
X271658Y139854D01*
X271680Y139992D01*
X271706Y140128D01*
X271704Y140148D01*
X271707Y140168D01*
X271694Y140307D01*
X271686Y140445D01*
X271680Y140464D01*
X271678Y140484D01*
X271630Y140616D01*
X271588Y140747D01*
X271577Y140765D01*
X271570Y140784D01*
X271492Y140899D01*
X271418Y141016D01*
X271403Y141030D01*
X271391Y141047D01*
X271287Y141139D01*
X271186Y141234D01*
X271168Y141244D01*
X271153Y141257D01*
X271029Y141321D01*
X270907Y141388D01*
X270888Y141393D01*
X270870Y141402D01*
X270734Y141432D01*
X270600Y141467D01*
X270571Y141469D01*
X270559Y141472D01*
X270539Y141471D01*
X270439Y141477D01*
X209042Y141477D01*
X208924Y141462D01*
X208805Y141455D01*
X208767Y141442D01*
X208726Y141437D01*
X208616Y141394D01*
X208503Y141357D01*
X208468Y141335D01*
X208431Y141320D01*
X208335Y141251D01*
X208234Y141187D01*
X208206Y141157D01*
X208173Y141134D01*
X208097Y141042D01*
X208016Y140955D01*
X207996Y140920D01*
X207971Y140889D01*
X207920Y140781D01*
X207862Y140677D01*
X207852Y140637D01*
X207835Y140601D01*
X207813Y140484D01*
X207783Y140369D01*
X207779Y140309D01*
X207775Y140289D01*
X207777Y140268D01*
X207773Y140208D01*
X207773Y137143D01*
X207785Y137045D01*
X207788Y136946D01*
X207805Y136887D01*
X207813Y136827D01*
X207849Y136735D01*
X207877Y136640D01*
X207905Y136592D01*
X207905Y136591D01*
X207907Y136588D01*
X207930Y136532D01*
X207988Y136451D01*
X208038Y136366D01*
X208073Y136327D01*
X208075Y136323D01*
X208082Y136317D01*
X208104Y136291D01*
X208116Y136274D01*
X208126Y136266D01*
X208144Y136245D01*
X213234Y131156D01*
X213234Y122844D01*
X207356Y116966D01*
X199044Y116966D01*
X193166Y122844D01*
X193166Y131156D01*
X198256Y136245D01*
X198316Y136324D01*
X198384Y136396D01*
X198408Y136439D01*
X198417Y136450D01*
X198422Y136460D01*
X198450Y136497D01*
X198490Y136588D01*
X198538Y136674D01*
X198553Y136733D01*
X198577Y136788D01*
X198592Y136886D01*
X198617Y136982D01*
X198623Y137082D01*
X198627Y137103D01*
X198625Y137115D01*
X198627Y137143D01*
X198627Y143630D01*
X198615Y143728D01*
X198612Y143827D01*
X198595Y143886D01*
X198587Y143946D01*
X198551Y144038D01*
X198523Y144133D01*
X198493Y144185D01*
X198470Y144241D01*
X198412Y144321D01*
X198362Y144407D01*
X198296Y144482D01*
X198284Y144499D01*
X198274Y144507D01*
X198256Y144528D01*
X192277Y150506D01*
X192277Y156330D01*
X192265Y156428D01*
X192262Y156527D01*
X192245Y156586D01*
X192237Y156646D01*
X192201Y156738D01*
X192173Y156833D01*
X192143Y156885D01*
X192120Y156941D01*
X192062Y157021D01*
X192012Y157107D01*
X191946Y157182D01*
X191934Y157199D01*
X191924Y157207D01*
X191906Y157228D01*
X173227Y175906D01*
X173227Y189098D01*
X173212Y189216D01*
X173205Y189335D01*
X173192Y189373D01*
X173187Y189414D01*
X173144Y189524D01*
X173107Y189637D01*
X173085Y189672D01*
X173070Y189709D01*
X173001Y189805D01*
X172937Y189906D01*
X172907Y189934D01*
X172884Y189967D01*
X172792Y190043D01*
X172705Y190124D01*
X172670Y190144D01*
X172639Y190169D01*
X172531Y190220D01*
X172427Y190278D01*
X172387Y190288D01*
X172351Y190305D01*
X172234Y190327D01*
X172119Y190357D01*
X172059Y190361D01*
X172039Y190365D01*
X172018Y190363D01*
X171958Y190367D01*
X169358Y190367D01*
X168167Y191558D01*
X168167Y209242D01*
X169358Y210433D01*
X181042Y210433D01*
X182233Y209242D01*
X182233Y200360D01*
X182245Y200262D01*
X182248Y200162D01*
X182265Y200104D01*
X182273Y200044D01*
X182309Y199952D01*
X182337Y199857D01*
X182367Y199805D01*
X182373Y199791D01*
X182373Y180220D01*
X182385Y180122D01*
X182388Y180023D01*
X182405Y179964D01*
X182413Y179904D01*
X182449Y179812D01*
X182477Y179717D01*
X182507Y179665D01*
X182530Y179609D01*
X182588Y179529D01*
X182638Y179443D01*
X182704Y179368D01*
X182716Y179351D01*
X182726Y179343D01*
X182744Y179322D01*
X200401Y161666D01*
X200510Y161581D01*
X200617Y161492D01*
X200636Y161484D01*
X200652Y161471D01*
X200780Y161416D01*
X200905Y161357D01*
X200925Y161353D01*
X200944Y161345D01*
X201082Y161323D01*
X201218Y161297D01*
X201238Y161298D01*
X201258Y161295D01*
X201397Y161308D01*
X201535Y161317D01*
X201554Y161323D01*
X201574Y161325D01*
X201706Y161372D01*
X201837Y161415D01*
X201855Y161426D01*
X201874Y161433D01*
X201989Y161511D01*
X202106Y161585D01*
X202120Y161600D01*
X202137Y161611D01*
X202229Y161715D01*
X202324Y161817D01*
X202334Y161834D01*
X202347Y161850D01*
X202411Y161973D01*
X202478Y162095D01*
X202483Y162115D01*
X202492Y162133D01*
X202522Y162269D01*
X202557Y162403D01*
X202559Y162431D01*
X202562Y162443D01*
X202561Y162464D01*
X202567Y162564D01*
X202567Y167140D01*
X202555Y167238D01*
X202552Y167337D01*
X202535Y167396D01*
X202527Y167456D01*
X202491Y167548D01*
X202463Y167643D01*
X202433Y167695D01*
X202410Y167751D01*
X202352Y167831D01*
X202302Y167917D01*
X202236Y167992D01*
X202224Y168009D01*
X202214Y168017D01*
X202196Y168038D01*
X185927Y184306D01*
X185927Y217794D01*
X198349Y230216D01*
X198409Y230294D01*
X198477Y230366D01*
X198506Y230419D01*
X198544Y230467D01*
X198583Y230558D01*
X198631Y230644D01*
X198646Y230703D01*
X198670Y230759D01*
X198686Y230857D01*
X198710Y230952D01*
X198717Y231052D01*
X198720Y231073D01*
X198719Y231085D01*
X198720Y231113D01*
X198720Y236737D01*
X198708Y236835D01*
X198705Y236934D01*
X198688Y236992D01*
X198681Y237053D01*
X198644Y237145D01*
X198617Y237240D01*
X198586Y237292D01*
X198564Y237348D01*
X198505Y237428D01*
X198455Y237514D01*
X198389Y237589D01*
X198377Y237606D01*
X198367Y237613D01*
X198349Y237634D01*
X188220Y247763D01*
X188220Y252259D01*
X188203Y252397D01*
X188190Y252535D01*
X188183Y252554D01*
X188180Y252574D01*
X188129Y252703D01*
X188082Y252834D01*
X188071Y252851D01*
X188063Y252870D01*
X187982Y252982D01*
X187903Y253098D01*
X187888Y253111D01*
X187876Y253127D01*
X187769Y253216D01*
X187665Y253308D01*
X187647Y253317D01*
X187631Y253330D01*
X187506Y253389D01*
X187382Y253453D01*
X187362Y253457D01*
X187344Y253466D01*
X187207Y253492D01*
X187071Y253522D01*
X187051Y253522D01*
X187031Y253526D01*
X186893Y253517D01*
X186754Y253513D01*
X186734Y253507D01*
X186714Y253506D01*
X186582Y253463D01*
X186448Y253424D01*
X186431Y253414D01*
X186411Y253408D01*
X186294Y253333D01*
X186174Y253263D01*
X186153Y253244D01*
X186143Y253238D01*
X186129Y253223D01*
X186053Y253156D01*
X184916Y252019D01*
X183525Y251008D01*
X181993Y250227D01*
X180358Y249696D01*
X179831Y249613D01*
X179831Y259588D01*
X179816Y259706D01*
X179809Y259825D01*
X179796Y259863D01*
X179791Y259903D01*
X179748Y260014D01*
X179711Y260127D01*
X179689Y260161D01*
X179674Y260199D01*
X179605Y260295D01*
X179571Y260347D01*
X179588Y260365D01*
X179608Y260400D01*
X179633Y260432D01*
X179684Y260539D01*
X179742Y260644D01*
X179752Y260683D01*
X179769Y260719D01*
X179791Y260836D01*
X179821Y260952D01*
X179825Y261012D01*
X179829Y261032D01*
X179827Y261052D01*
X179831Y261112D01*
X179831Y271087D01*
X180358Y271004D01*
X181993Y270473D01*
X183525Y269692D01*
X184916Y268681D01*
X186053Y267544D01*
X186163Y267459D01*
X186270Y267370D01*
X186289Y267361D01*
X186305Y267349D01*
X186432Y267294D01*
X186558Y267234D01*
X186578Y267230D01*
X186596Y267222D01*
X186734Y267200D01*
X186870Y267174D01*
X186890Y267176D01*
X186911Y267173D01*
X187050Y267186D01*
X187188Y267194D01*
X187207Y267200D01*
X187227Y267202D01*
X187358Y267250D01*
X187490Y267292D01*
X187507Y267303D01*
X187526Y267310D01*
X187641Y267388D01*
X187759Y267462D01*
X187773Y267477D01*
X187790Y267489D01*
X187881Y267593D01*
X187977Y267694D01*
X187987Y267712D01*
X188000Y267727D01*
X188063Y267851D01*
X188130Y267973D01*
X188135Y267992D01*
X188145Y268010D01*
X188175Y268146D01*
X188210Y268280D01*
X188212Y268309D01*
X188214Y268321D01*
X188214Y268341D01*
X188220Y268441D01*
X188220Y278377D01*
X188203Y278515D01*
X188190Y278654D01*
X188183Y278673D01*
X188180Y278693D01*
X188129Y278822D01*
X188082Y278953D01*
X188071Y278970D01*
X188063Y278988D01*
X187982Y279101D01*
X187903Y279216D01*
X187888Y279229D01*
X187876Y279246D01*
X187769Y279335D01*
X187665Y279426D01*
X187647Y279436D01*
X187631Y279449D01*
X187506Y279508D01*
X187382Y279571D01*
X187362Y279576D01*
X187344Y279584D01*
X187207Y279610D01*
X187072Y279641D01*
X187051Y279640D01*
X187031Y279644D01*
X186893Y279635D01*
X186754Y279631D01*
X186734Y279625D01*
X186714Y279624D01*
X186582Y279581D01*
X186448Y279543D01*
X186431Y279532D01*
X186411Y279526D01*
X186294Y279452D01*
X186174Y279381D01*
X186153Y279363D01*
X186143Y279356D01*
X186129Y279341D01*
X186053Y279275D01*
X183699Y276921D01*
X179872Y275335D01*
X175728Y275335D01*
X171901Y276921D01*
X168971Y279851D01*
X167385Y283678D01*
X167385Y287822D01*
X168971Y291649D01*
X171901Y294579D01*
X175728Y296165D01*
X179872Y296165D01*
X183699Y294579D01*
X186629Y291649D01*
X188215Y287822D01*
X188215Y283678D01*
X187346Y281580D01*
X187327Y281513D01*
X187299Y281449D01*
X187285Y281360D01*
X187262Y281273D01*
X187260Y281204D01*
X187250Y281135D01*
X187258Y281045D01*
X187257Y280955D01*
X187273Y280887D01*
X187279Y280818D01*
X187310Y280733D01*
X187331Y280646D01*
X187363Y280584D01*
X187387Y280519D01*
X187437Y280444D01*
X187479Y280365D01*
X187526Y280313D01*
X187566Y280255D01*
X187633Y280196D01*
X187693Y280130D01*
X187752Y280091D01*
X187804Y280045D01*
X187884Y280004D01*
X187959Y279955D01*
X188025Y279932D01*
X188087Y279900D01*
X188175Y279881D01*
X188260Y279852D01*
X188330Y279846D01*
X188398Y279831D01*
X188487Y279833D01*
X188577Y279826D01*
X188646Y279838D01*
X188715Y279840D01*
X188802Y279865D01*
X188890Y279881D01*
X188954Y279909D01*
X189021Y279929D01*
X189098Y279974D01*
X189180Y280011D01*
X189235Y280055D01*
X189295Y280090D01*
X189416Y280197D01*
X191271Y282052D01*
X200769Y291551D01*
X200855Y291660D01*
X200943Y291767D01*
X200952Y291786D01*
X200964Y291802D01*
X201020Y291930D01*
X201079Y292055D01*
X201083Y292075D01*
X201091Y292094D01*
X201113Y292232D01*
X201139Y292368D01*
X201137Y292388D01*
X201141Y292408D01*
X201127Y292547D01*
X201119Y292685D01*
X201113Y292704D01*
X201111Y292724D01*
X201064Y292856D01*
X201021Y292987D01*
X201010Y293005D01*
X201003Y293024D01*
X200925Y293139D01*
X200851Y293256D01*
X200836Y293270D01*
X200825Y293287D01*
X200720Y293379D01*
X200619Y293474D01*
X200601Y293484D01*
X200586Y293497D01*
X200462Y293561D01*
X200341Y293628D01*
X200321Y293633D01*
X200303Y293642D01*
X200167Y293672D01*
X200033Y293707D01*
X200005Y293709D01*
X199993Y293712D01*
X199972Y293711D01*
X199872Y293717D01*
X199708Y293717D01*
X198517Y294908D01*
X198517Y302490D01*
X198505Y302588D01*
X198502Y302687D01*
X198485Y302746D01*
X198477Y302806D01*
X198441Y302898D01*
X198413Y302993D01*
X198383Y303045D01*
X198360Y303101D01*
X198302Y303182D01*
X198252Y303267D01*
X198186Y303342D01*
X198174Y303359D01*
X198164Y303367D01*
X198146Y303388D01*
X192023Y309510D01*
X192023Y313570D01*
X192011Y313668D01*
X192008Y313767D01*
X192001Y313790D01*
X192001Y313793D01*
X191994Y313814D01*
X191991Y313825D01*
X191983Y313885D01*
X191947Y313977D01*
X191919Y314073D01*
X191889Y314125D01*
X191866Y314181D01*
X191808Y314261D01*
X191758Y314347D01*
X191692Y314422D01*
X191680Y314438D01*
X191670Y314446D01*
X191652Y314467D01*
X189416Y316703D01*
X189360Y316746D01*
X189312Y316796D01*
X189235Y316843D01*
X189164Y316898D01*
X189100Y316926D01*
X189041Y316962D01*
X188955Y316989D01*
X188873Y317025D01*
X188804Y317035D01*
X188737Y317056D01*
X188647Y317060D01*
X188558Y317074D01*
X188489Y317068D01*
X188419Y317071D01*
X188331Y317053D01*
X188242Y317045D01*
X188176Y317021D01*
X188108Y317007D01*
X188027Y316967D01*
X187943Y316937D01*
X187885Y316898D01*
X187822Y316867D01*
X187754Y316809D01*
X187679Y316758D01*
X187633Y316706D01*
X187580Y316661D01*
X187528Y316587D01*
X187469Y316520D01*
X187437Y316458D01*
X187397Y316401D01*
X187365Y316317D01*
X187324Y316237D01*
X187309Y316169D01*
X187284Y316103D01*
X187274Y316014D01*
X187255Y315926D01*
X187257Y315857D01*
X187249Y315787D01*
X187262Y315698D01*
X187264Y315609D01*
X187284Y315541D01*
X187293Y315472D01*
X187346Y315320D01*
X188215Y313222D01*
X188215Y309078D01*
X186629Y305251D01*
X183699Y302321D01*
X179872Y300735D01*
X175728Y300735D01*
X175185Y300960D01*
X175157Y300968D01*
X175130Y300981D01*
X175004Y301010D01*
X174878Y301044D01*
X174849Y301045D01*
X174820Y301051D01*
X174690Y301047D01*
X174560Y301049D01*
X174532Y301042D01*
X174502Y301041D01*
X174378Y301005D01*
X174251Y300975D01*
X174225Y300961D01*
X174197Y300953D01*
X174085Y300887D01*
X173970Y300826D01*
X173948Y300807D01*
X173923Y300792D01*
X173802Y300685D01*
X144644Y271528D01*
X144584Y271449D01*
X144516Y271377D01*
X144487Y271324D01*
X144450Y271276D01*
X144410Y271185D01*
X144362Y271099D01*
X144347Y271040D01*
X144323Y270985D01*
X144308Y270887D01*
X144283Y270791D01*
X144277Y270691D01*
X144273Y270670D01*
X144275Y270658D01*
X144273Y270630D01*
X144273Y232776D01*
X144285Y232678D01*
X144288Y232579D01*
X144305Y232521D01*
X144313Y232461D01*
X144349Y232369D01*
X144377Y232274D01*
X144407Y232221D01*
X144430Y232165D01*
X144488Y232085D01*
X144538Y232000D01*
X144604Y231924D01*
X144616Y231908D01*
X144626Y231900D01*
X144628Y231898D01*
X145515Y229757D01*
X145515Y227443D01*
X144630Y225306D01*
X142994Y223670D01*
X140857Y222785D01*
X138543Y222785D01*
X136406Y223670D01*
X134770Y225306D01*
X133885Y227443D01*
X133885Y229757D01*
X134774Y231903D01*
X134816Y231957D01*
X134884Y232029D01*
X134913Y232082D01*
X134950Y232130D01*
X134990Y232221D01*
X135038Y232308D01*
X135053Y232366D01*
X135077Y232422D01*
X135092Y232520D01*
X135117Y232616D01*
X135123Y232716D01*
X135127Y232736D01*
X135125Y232748D01*
X135127Y232776D01*
X135127Y274944D01*
X167335Y307152D01*
X167353Y307175D01*
X167376Y307194D01*
X167450Y307300D01*
X167530Y307403D01*
X167542Y307430D01*
X167559Y307454D01*
X167605Y307576D01*
X167656Y307695D01*
X167661Y307724D01*
X167672Y307752D01*
X167686Y307881D01*
X167706Y308009D01*
X167703Y308039D01*
X167707Y308068D01*
X167689Y308196D01*
X167676Y308326D01*
X167666Y308354D01*
X167662Y308383D01*
X167610Y308535D01*
X167385Y309078D01*
X167385Y313222D01*
X168971Y317049D01*
X171901Y319979D01*
X171993Y320017D01*
X172049Y320049D01*
X172075Y320060D01*
X172077Y320061D01*
X172118Y320078D01*
X172191Y320130D01*
X172269Y320175D01*
X172319Y320223D01*
X172376Y320264D01*
X172433Y320334D01*
X172497Y320396D01*
X172534Y320456D01*
X172578Y320509D01*
X172617Y320591D01*
X172664Y320667D01*
X172684Y320734D01*
X172714Y320797D01*
X172731Y320885D01*
X172757Y320971D01*
X172761Y321041D01*
X172774Y321110D01*
X172768Y321199D01*
X172772Y321289D01*
X172758Y321357D01*
X172754Y321427D01*
X172726Y321512D01*
X172708Y321600D01*
X172678Y321663D01*
X172656Y321729D01*
X172608Y321805D01*
X172568Y321886D01*
X172523Y321939D01*
X172486Y321998D01*
X172420Y322060D01*
X172362Y322128D01*
X172305Y322168D01*
X172254Y322216D01*
X172176Y322259D01*
X172102Y322311D01*
X172037Y322336D01*
X171976Y322370D01*
X171889Y322392D01*
X171805Y322424D01*
X171735Y322432D01*
X171668Y322449D01*
X171507Y322459D01*
X154939Y322459D01*
X154939Y353461D01*
X181941Y353461D01*
X181941Y324666D01*
X181768Y324019D01*
X181433Y323440D01*
X180993Y323000D01*
X180962Y322961D01*
X180926Y322927D01*
X180865Y322835D01*
X180798Y322749D01*
X180778Y322703D01*
X180751Y322661D01*
X180715Y322558D01*
X180672Y322457D01*
X180664Y322408D01*
X180648Y322361D01*
X180639Y322251D01*
X180622Y322143D01*
X180626Y322093D01*
X180623Y322044D01*
X180641Y321935D01*
X180652Y321826D01*
X180668Y321779D01*
X180677Y321730D01*
X180722Y321630D01*
X180759Y321527D01*
X180787Y321486D01*
X180808Y321440D01*
X180876Y321354D01*
X180938Y321264D01*
X180975Y321231D01*
X181006Y321192D01*
X181094Y321126D01*
X181176Y321053D01*
X181220Y321031D01*
X181260Y321001D01*
X181405Y320930D01*
X183699Y319979D01*
X183760Y319918D01*
X183870Y319833D01*
X183977Y319744D01*
X183996Y319736D01*
X184012Y319723D01*
X184139Y319668D01*
X184265Y319609D01*
X184285Y319605D01*
X184304Y319597D01*
X184441Y319575D01*
X184578Y319549D01*
X184598Y319550D01*
X184618Y319547D01*
X184756Y319560D01*
X184895Y319569D01*
X184914Y319575D01*
X184934Y319577D01*
X185065Y319624D01*
X185197Y319667D01*
X185215Y319678D01*
X185234Y319684D01*
X185349Y319762D01*
X185466Y319837D01*
X185480Y319852D01*
X185497Y319863D01*
X185589Y319967D01*
X185684Y320068D01*
X185694Y320086D01*
X185707Y320101D01*
X185770Y320225D01*
X185838Y320347D01*
X185843Y320367D01*
X185852Y320385D01*
X185882Y320520D01*
X185917Y320655D01*
X185919Y320683D01*
X185922Y320695D01*
X185921Y320715D01*
X185927Y320816D01*
X185927Y332094D01*
X195878Y342045D01*
X208096Y342045D01*
X208234Y342062D01*
X208373Y342075D01*
X208392Y342082D01*
X208412Y342085D01*
X208541Y342136D01*
X208672Y342183D01*
X208689Y342194D01*
X208708Y342202D01*
X208820Y342283D01*
X208935Y342361D01*
X208949Y342377D01*
X208965Y342388D01*
X209054Y342496D01*
X209146Y342600D01*
X209155Y342618D01*
X209168Y342633D01*
X209227Y342759D01*
X209290Y342883D01*
X209295Y342903D01*
X209303Y342921D01*
X209329Y343057D01*
X209360Y343193D01*
X209359Y343214D01*
X209363Y343233D01*
X209355Y343372D01*
X209350Y343511D01*
X209345Y343531D01*
X209343Y343551D01*
X209301Y343683D01*
X209262Y343817D01*
X209252Y343834D01*
X209245Y343853D01*
X209171Y343971D01*
X209100Y344091D01*
X209082Y344112D01*
X209075Y344122D01*
X209060Y344136D01*
X208994Y344211D01*
X208028Y345178D01*
X204977Y348228D01*
X204977Y349598D01*
X204962Y349716D01*
X204955Y349835D01*
X204942Y349873D01*
X204937Y349914D01*
X204894Y350024D01*
X204857Y350137D01*
X204835Y350172D01*
X204820Y350209D01*
X204751Y350305D01*
X204687Y350406D01*
X204657Y350434D01*
X204634Y350467D01*
X204542Y350543D01*
X204455Y350624D01*
X204420Y350644D01*
X204389Y350669D01*
X204281Y350720D01*
X204177Y350778D01*
X204137Y350788D01*
X204101Y350805D01*
X203984Y350827D01*
X203869Y350857D01*
X203809Y350861D01*
X203789Y350865D01*
X203768Y350863D01*
X203708Y350867D01*
X199708Y350867D01*
X198517Y352058D01*
X198517Y367742D01*
X199708Y368933D01*
X203708Y368933D01*
X203826Y368948D01*
X203945Y368955D01*
X203983Y368968D01*
X204024Y368973D01*
X204134Y369016D01*
X204247Y369053D01*
X204282Y369075D01*
X204319Y369090D01*
X204415Y369159D01*
X204516Y369223D01*
X204544Y369253D01*
X204577Y369276D01*
X204653Y369368D01*
X204734Y369455D01*
X204754Y369490D01*
X204779Y369521D01*
X204830Y369629D01*
X204888Y369733D01*
X204898Y369773D01*
X204915Y369809D01*
X204937Y369926D01*
X204967Y370041D01*
X204971Y370101D01*
X204975Y370121D01*
X204973Y370142D01*
X204977Y370202D01*
X204977Y379694D01*
X210196Y384912D01*
X210256Y384991D01*
X210324Y385063D01*
X210353Y385116D01*
X210390Y385164D01*
X210430Y385255D01*
X210478Y385341D01*
X210493Y385400D01*
X210517Y385455D01*
X210532Y385553D01*
X210557Y385649D01*
X210563Y385749D01*
X210567Y385770D01*
X210565Y385782D01*
X210567Y385810D01*
X210567Y395692D01*
X211758Y396883D01*
X213258Y396883D01*
X213376Y396898D01*
X213495Y396905D01*
X213533Y396918D01*
X213574Y396923D01*
X213684Y396966D01*
X213797Y397003D01*
X213832Y397025D01*
X213869Y397040D01*
X213965Y397109D01*
X214066Y397173D01*
X214094Y397203D01*
X214127Y397226D01*
X214203Y397318D01*
X214284Y397405D01*
X214304Y397440D01*
X214329Y397471D01*
X214380Y397579D01*
X214438Y397683D01*
X214448Y397723D01*
X214465Y397759D01*
X214487Y397876D01*
X214517Y397991D01*
X214521Y398051D01*
X214525Y398071D01*
X214523Y398092D01*
X214527Y398152D01*
X214527Y400558D01*
X214512Y400676D01*
X214505Y400795D01*
X214492Y400833D01*
X214487Y400874D01*
X214444Y400984D01*
X214407Y401097D01*
X214385Y401132D01*
X214370Y401169D01*
X214301Y401265D01*
X214237Y401366D01*
X214207Y401394D01*
X214184Y401427D01*
X214092Y401503D01*
X214005Y401584D01*
X213970Y401604D01*
X213939Y401629D01*
X213831Y401680D01*
X213727Y401738D01*
X213687Y401748D01*
X213651Y401765D01*
X213534Y401787D01*
X213419Y401817D01*
X213359Y401821D01*
X213339Y401825D01*
X213318Y401823D01*
X213258Y401827D01*
X206664Y401827D01*
X206635Y401824D01*
X206606Y401826D01*
X206478Y401804D01*
X206349Y401787D01*
X206321Y401777D01*
X206292Y401772D01*
X206174Y401718D01*
X206053Y401670D01*
X206029Y401653D01*
X206002Y401641D01*
X205901Y401560D01*
X205796Y401484D01*
X205777Y401461D01*
X205754Y401442D01*
X205676Y401339D01*
X205593Y401239D01*
X205580Y401212D01*
X205563Y401188D01*
X205492Y401044D01*
X205356Y400716D01*
X202534Y397894D01*
X198846Y396366D01*
X194854Y396366D01*
X191166Y397894D01*
X188344Y400716D01*
X186816Y404404D01*
X186816Y408396D01*
X186952Y408723D01*
X186960Y408752D01*
X186973Y408778D01*
X187001Y408904D01*
X187036Y409030D01*
X187036Y409059D01*
X187043Y409088D01*
X187039Y409218D01*
X187041Y409348D01*
X187034Y409377D01*
X187033Y409406D01*
X186997Y409531D01*
X186967Y409657D01*
X186953Y409683D01*
X186945Y409712D01*
X186879Y409823D01*
X186818Y409938D01*
X186798Y409960D01*
X186783Y409986D01*
X186677Y410106D01*
X178188Y418596D01*
X178109Y418656D01*
X178037Y418724D01*
X177984Y418753D01*
X177936Y418790D01*
X177845Y418830D01*
X177759Y418878D01*
X177700Y418893D01*
X177645Y418917D01*
X177547Y418932D01*
X177451Y418957D01*
X177351Y418963D01*
X177330Y418967D01*
X177318Y418965D01*
X177290Y418967D01*
X169358Y418967D01*
X168167Y420158D01*
X168167Y437842D01*
X169358Y439033D01*
X181042Y439033D01*
X182233Y437842D01*
X182233Y428010D01*
X182245Y427912D01*
X182248Y427813D01*
X182265Y427754D01*
X182273Y427694D01*
X182309Y427602D01*
X182337Y427507D01*
X182367Y427455D01*
X182390Y427399D01*
X182448Y427319D01*
X182498Y427233D01*
X182564Y427158D01*
X182576Y427141D01*
X182586Y427133D01*
X182604Y427112D01*
X193144Y416573D01*
X193167Y416555D01*
X193186Y416533D01*
X193292Y416458D01*
X193395Y416378D01*
X193422Y416367D01*
X193446Y416350D01*
X193567Y416304D01*
X193687Y416252D01*
X193716Y416247D01*
X193743Y416237D01*
X193872Y416222D01*
X194001Y416202D01*
X194030Y416205D01*
X194060Y416202D01*
X194188Y416220D01*
X194317Y416232D01*
X194345Y416242D01*
X194374Y416246D01*
X194527Y416298D01*
X194854Y416434D01*
X198846Y416434D01*
X202534Y414906D01*
X205356Y412084D01*
X205492Y411756D01*
X205506Y411731D01*
X205516Y411703D01*
X205585Y411593D01*
X205649Y411480D01*
X205670Y411459D01*
X205686Y411434D01*
X205780Y411345D01*
X205871Y411252D01*
X205896Y411236D01*
X205917Y411216D01*
X206031Y411153D01*
X206142Y411085D01*
X206170Y411077D01*
X206196Y411062D01*
X206321Y411030D01*
X206446Y410992D01*
X206475Y410990D01*
X206504Y410983D01*
X206664Y410973D01*
X213258Y410973D01*
X213376Y410988D01*
X213495Y410995D01*
X213533Y411008D01*
X213574Y411013D01*
X213684Y411056D01*
X213797Y411093D01*
X213832Y411115D01*
X213869Y411130D01*
X213965Y411199D01*
X214066Y411263D01*
X214094Y411293D01*
X214127Y411316D01*
X214203Y411408D01*
X214284Y411495D01*
X214304Y411530D01*
X214329Y411561D01*
X214380Y411669D01*
X214438Y411773D01*
X214448Y411813D01*
X214465Y411849D01*
X214487Y411966D01*
X214517Y412081D01*
X214521Y412141D01*
X214525Y412161D01*
X214523Y412182D01*
X214527Y412242D01*
X214527Y424194D01*
X239406Y449073D01*
X446394Y449073D01*
X449444Y446023D01*
X449444Y446022D01*
X458722Y436744D01*
X461773Y433694D01*
X461773Y396120D01*
X461785Y396022D01*
X461788Y395923D01*
X461805Y395864D01*
X461813Y395804D01*
X461849Y395712D01*
X461877Y395617D01*
X461907Y395565D01*
X461930Y395509D01*
X461988Y395429D01*
X462038Y395343D01*
X462104Y395268D01*
X462116Y395251D01*
X462126Y395243D01*
X462144Y395222D01*
X474473Y382894D01*
X474473Y281820D01*
X474485Y281722D01*
X474488Y281623D01*
X474494Y281602D01*
X474495Y281588D01*
X474506Y281553D01*
X474513Y281504D01*
X474549Y281412D01*
X474577Y281317D01*
X474591Y281293D01*
X474593Y281286D01*
X474609Y281261D01*
X474630Y281209D01*
X474688Y281129D01*
X474738Y281043D01*
X474804Y280968D01*
X474816Y280951D01*
X474826Y280943D01*
X474844Y280922D01*
X522222Y233544D01*
X525273Y230494D01*
X525273Y195046D01*
X525276Y195017D01*
X525274Y194987D01*
X525296Y194859D01*
X525313Y194730D01*
X525323Y194703D01*
X525328Y194674D01*
X525382Y194555D01*
X525430Y194435D01*
X525447Y194411D01*
X525459Y194384D01*
X525540Y194282D01*
X525616Y194177D01*
X525639Y194158D01*
X525658Y194135D01*
X525761Y194057D01*
X525861Y193974D01*
X525888Y193962D01*
X525912Y193944D01*
X526056Y193873D01*
X526950Y193503D01*
X530053Y190400D01*
X531733Y186345D01*
X531733Y181955D01*
X530053Y177900D01*
X526950Y174797D01*
X522895Y173117D01*
X518505Y173117D01*
X514450Y174797D01*
X511347Y177900D01*
X509667Y181955D01*
X509667Y186345D01*
X511347Y190400D01*
X511448Y190500D01*
X511533Y190610D01*
X511622Y190717D01*
X511630Y190736D01*
X511643Y190752D01*
X511698Y190880D01*
X511757Y191005D01*
X511761Y191025D01*
X511769Y191044D01*
X511791Y191181D01*
X511817Y191318D01*
X511816Y191338D01*
X511819Y191358D01*
X511806Y191496D01*
X511797Y191635D01*
X511791Y191654D01*
X511789Y191674D01*
X511742Y191805D01*
X511699Y191937D01*
X511689Y191955D01*
X511682Y191974D01*
X511604Y192089D01*
X511529Y192206D01*
X511514Y192220D01*
X511503Y192237D01*
X511399Y192329D01*
X511298Y192424D01*
X511280Y192434D01*
X511265Y192447D01*
X511141Y192510D01*
X511019Y192578D01*
X510999Y192583D01*
X510981Y192592D01*
X510846Y192622D01*
X510711Y192657D01*
X510683Y192659D01*
X510671Y192662D01*
X510651Y192661D01*
X510550Y192667D01*
X493258Y192667D01*
X492067Y193858D01*
X492067Y212542D01*
X493258Y213733D01*
X512942Y213733D01*
X513961Y212714D01*
X514070Y212629D01*
X514177Y212540D01*
X514196Y212532D01*
X514212Y212519D01*
X514339Y212464D01*
X514465Y212405D01*
X514485Y212401D01*
X514504Y212393D01*
X514642Y212371D01*
X514778Y212345D01*
X514798Y212346D01*
X514818Y212343D01*
X514957Y212356D01*
X515095Y212365D01*
X515114Y212371D01*
X515134Y212373D01*
X515266Y212420D01*
X515397Y212463D01*
X515415Y212474D01*
X515434Y212480D01*
X515549Y212559D01*
X515666Y212633D01*
X515680Y212648D01*
X515697Y212659D01*
X515789Y212763D01*
X515884Y212865D01*
X515894Y212882D01*
X515907Y212897D01*
X515971Y213022D01*
X516038Y213143D01*
X516043Y213163D01*
X516052Y213181D01*
X516082Y213317D01*
X516117Y213451D01*
X516119Y213479D01*
X516122Y213491D01*
X516121Y213511D01*
X516127Y213612D01*
X516127Y226180D01*
X516115Y226278D01*
X516112Y226377D01*
X516095Y226436D01*
X516087Y226496D01*
X516051Y226588D01*
X516023Y226683D01*
X515993Y226735D01*
X515970Y226791D01*
X515912Y226871D01*
X515862Y226957D01*
X515796Y227032D01*
X515784Y227049D01*
X515774Y227057D01*
X515756Y227078D01*
X468378Y274456D01*
X465327Y277506D01*
X465327Y378580D01*
X465315Y378678D01*
X465312Y378777D01*
X465295Y378836D01*
X465287Y378896D01*
X465251Y378988D01*
X465223Y379083D01*
X465193Y379135D01*
X465170Y379191D01*
X465112Y379271D01*
X465062Y379357D01*
X464996Y379432D01*
X464984Y379449D01*
X464974Y379457D01*
X464956Y379478D01*
X452627Y391806D01*
X452627Y429380D01*
X452615Y429478D01*
X452612Y429577D01*
X452595Y429636D01*
X452587Y429696D01*
X452551Y429788D01*
X452523Y429883D01*
X452493Y429935D01*
X452470Y429991D01*
X452412Y430071D01*
X452362Y430157D01*
X452296Y430232D01*
X452284Y430249D01*
X452274Y430257D01*
X452256Y430278D01*
X442978Y439556D01*
X442899Y439616D01*
X442827Y439684D01*
X442774Y439713D01*
X442726Y439750D01*
X442635Y439790D01*
X442549Y439838D01*
X442490Y439853D01*
X442435Y439877D01*
X442337Y439892D01*
X442241Y439917D01*
X442141Y439923D01*
X442120Y439927D01*
X442108Y439925D01*
X442080Y439927D01*
X243720Y439927D01*
X243622Y439915D01*
X243523Y439912D01*
X243464Y439895D01*
X243404Y439887D01*
X243312Y439851D01*
X243217Y439823D01*
X243165Y439793D01*
X243109Y439770D01*
X243029Y439712D01*
X242943Y439662D01*
X242868Y439596D01*
X242851Y439584D01*
X242843Y439574D01*
X242822Y439556D01*
X224044Y420778D01*
X223984Y420699D01*
X223916Y420627D01*
X223887Y420574D01*
X223850Y420526D01*
X223810Y420435D01*
X223762Y420349D01*
X223747Y420290D01*
X223723Y420235D01*
X223708Y420137D01*
X223683Y420041D01*
X223677Y419941D01*
X223673Y419920D01*
X223675Y419908D01*
X223673Y419880D01*
X223673Y398152D01*
X223688Y398034D01*
X223695Y397915D01*
X223708Y397877D01*
X223713Y397836D01*
X223756Y397726D01*
X223793Y397613D01*
X223815Y397578D01*
X223830Y397541D01*
X223899Y397445D01*
X223963Y397344D01*
X223993Y397316D01*
X224016Y397283D01*
X224108Y397207D01*
X224195Y397126D01*
X224230Y397106D01*
X224261Y397081D01*
X224369Y397030D01*
X224473Y396972D01*
X224513Y396962D01*
X224549Y396945D01*
X224666Y396923D01*
X224781Y396893D01*
X224841Y396889D01*
X224861Y396885D01*
X224882Y396887D01*
X224942Y396883D01*
X226442Y396883D01*
X227426Y395898D01*
X227526Y395821D01*
X227621Y395739D01*
X227651Y395724D01*
X227678Y395703D01*
X227793Y395653D01*
X227906Y395597D01*
X227939Y395590D01*
X227970Y395577D01*
X228094Y395557D01*
X228217Y395531D01*
X228250Y395532D01*
X228284Y395527D01*
X228409Y395539D01*
X228534Y395544D01*
X228567Y395554D01*
X228600Y395557D01*
X228719Y395599D01*
X228839Y395636D01*
X228868Y395653D01*
X228900Y395664D01*
X229004Y395735D01*
X229111Y395800D01*
X229135Y395824D01*
X229163Y395843D01*
X229246Y395937D01*
X229334Y396027D01*
X229361Y396068D01*
X229373Y396081D01*
X229383Y396101D01*
X229423Y396161D01*
X229567Y396410D01*
X230040Y396883D01*
X230619Y397218D01*
X231266Y397391D01*
X235561Y397391D01*
X235561Y388620D01*
X235576Y388502D01*
X235583Y388383D01*
X235596Y388345D01*
X235601Y388305D01*
X235644Y388194D01*
X235681Y388081D01*
X235703Y388046D01*
X235718Y388009D01*
X235788Y387913D01*
X235851Y387812D01*
X235881Y387784D01*
X235905Y387752D01*
X235996Y387676D01*
X236083Y387594D01*
X236118Y387575D01*
X236149Y387549D01*
X236257Y387498D01*
X236361Y387441D01*
X236401Y387430D01*
X236437Y387413D01*
X236554Y387391D01*
X236669Y387361D01*
X236730Y387357D01*
X236750Y387353D01*
X236770Y387355D01*
X236830Y387351D01*
X238101Y387351D01*
X238101Y387349D01*
X236830Y387349D01*
X236712Y387334D01*
X236593Y387327D01*
X236555Y387314D01*
X236515Y387309D01*
X236404Y387265D01*
X236291Y387229D01*
X236256Y387207D01*
X236219Y387192D01*
X236123Y387122D01*
X236022Y387059D01*
X235994Y387029D01*
X235961Y387005D01*
X235886Y386914D01*
X235804Y386827D01*
X235784Y386792D01*
X235759Y386760D01*
X235708Y386653D01*
X235650Y386549D01*
X235640Y386509D01*
X235623Y386473D01*
X235601Y386356D01*
X235571Y386241D01*
X235567Y386180D01*
X235563Y386160D01*
X235565Y386140D01*
X235561Y386080D01*
X235561Y377309D01*
X231266Y377309D01*
X230619Y377482D01*
X230040Y377817D01*
X229567Y378290D01*
X229423Y378539D01*
X229347Y378639D01*
X229277Y378743D01*
X229251Y378765D01*
X229231Y378792D01*
X229132Y378870D01*
X229038Y378954D01*
X229008Y378969D01*
X228982Y378990D01*
X228867Y379041D01*
X228755Y379098D01*
X228722Y379106D01*
X228691Y379119D01*
X228567Y379140D01*
X228445Y379168D01*
X228411Y379167D01*
X228378Y379172D01*
X228252Y379162D01*
X228127Y379158D01*
X228094Y379149D01*
X228061Y379146D01*
X227942Y379105D01*
X227821Y379070D01*
X227792Y379053D01*
X227760Y379042D01*
X227656Y378972D01*
X227547Y378908D01*
X227511Y378876D01*
X227495Y378866D01*
X227481Y378850D01*
X227426Y378802D01*
X226442Y377817D01*
X216560Y377817D01*
X216462Y377805D01*
X216363Y377802D01*
X216304Y377785D01*
X216244Y377777D01*
X216152Y377741D01*
X216057Y377713D01*
X216005Y377683D01*
X215949Y377660D01*
X215869Y377602D01*
X215783Y377552D01*
X215708Y377486D01*
X215691Y377474D01*
X215683Y377464D01*
X215662Y377446D01*
X214494Y376278D01*
X214434Y376199D01*
X214366Y376127D01*
X214337Y376074D01*
X214300Y376026D01*
X214260Y375935D01*
X214212Y375849D01*
X214197Y375790D01*
X214173Y375735D01*
X214158Y375637D01*
X214133Y375541D01*
X214127Y375441D01*
X214123Y375420D01*
X214125Y375408D01*
X214123Y375380D01*
X214123Y370202D01*
X214138Y370084D01*
X214145Y369965D01*
X214158Y369927D01*
X214163Y369886D01*
X214206Y369776D01*
X214243Y369663D01*
X214265Y369628D01*
X214280Y369591D01*
X214349Y369495D01*
X214413Y369394D01*
X214443Y369366D01*
X214466Y369333D01*
X214558Y369257D01*
X214645Y369176D01*
X214680Y369156D01*
X214711Y369131D01*
X214819Y369080D01*
X214923Y369022D01*
X214963Y369012D01*
X214999Y368995D01*
X215116Y368973D01*
X215231Y368943D01*
X215291Y368939D01*
X215311Y368935D01*
X215332Y368937D01*
X215392Y368933D01*
X219392Y368933D01*
X220583Y367742D01*
X220583Y352058D01*
X219392Y350867D01*
X218336Y350867D01*
X218198Y350850D01*
X218060Y350837D01*
X218041Y350830D01*
X218020Y350827D01*
X217891Y350776D01*
X217760Y350729D01*
X217744Y350718D01*
X217725Y350710D01*
X217612Y350629D01*
X217497Y350551D01*
X217484Y350535D01*
X217467Y350524D01*
X217379Y350416D01*
X217287Y350312D01*
X217278Y350294D01*
X217265Y350279D01*
X217205Y350153D01*
X217142Y350029D01*
X217138Y350009D01*
X217129Y349991D01*
X217103Y349854D01*
X217073Y349719D01*
X217073Y349698D01*
X217069Y349679D01*
X217078Y349540D01*
X217082Y349401D01*
X217088Y349381D01*
X217089Y349361D01*
X217132Y349229D01*
X217171Y349095D01*
X217181Y349078D01*
X217187Y349059D01*
X217261Y348941D01*
X217332Y348821D01*
X217351Y348800D01*
X217357Y348790D01*
X217372Y348776D01*
X217439Y348701D01*
X222966Y343173D01*
X223045Y343112D01*
X223117Y343044D01*
X223170Y343015D01*
X223218Y342978D01*
X223309Y342938D01*
X223395Y342891D01*
X223454Y342875D01*
X223510Y342851D01*
X223608Y342836D01*
X223703Y342811D01*
X223803Y342805D01*
X223824Y342801D01*
X223836Y342803D01*
X223839Y342802D01*
X225980Y341916D01*
X227616Y340280D01*
X228501Y338143D01*
X228501Y335829D01*
X227791Y334117D01*
X227789Y334108D01*
X227784Y334099D01*
X227747Y333954D01*
X227707Y333810D01*
X227707Y333801D01*
X227705Y333792D01*
X227695Y333631D01*
X227695Y332900D01*
X227434Y332640D01*
X227349Y332530D01*
X227261Y332423D01*
X227252Y332404D01*
X227240Y332388D01*
X227184Y332260D01*
X227125Y332135D01*
X227121Y332115D01*
X227113Y332096D01*
X227091Y331958D01*
X227065Y331822D01*
X227067Y331802D01*
X227063Y331782D01*
X227076Y331643D01*
X227085Y331505D01*
X227091Y331486D01*
X227093Y331466D01*
X227140Y331335D01*
X227183Y331203D01*
X227194Y331185D01*
X227201Y331166D01*
X227279Y331052D01*
X227353Y330934D01*
X227368Y330920D01*
X227379Y330903D01*
X227483Y330811D01*
X227585Y330716D01*
X227603Y330706D01*
X227618Y330693D01*
X227741Y330630D01*
X227863Y330562D01*
X227883Y330557D01*
X227901Y330548D01*
X228037Y330518D01*
X228171Y330483D01*
X228199Y330481D01*
X228211Y330478D01*
X228232Y330479D01*
X228332Y330473D01*
X259671Y330473D01*
X259700Y330476D01*
X259730Y330474D01*
X259858Y330496D01*
X259987Y330513D01*
X260014Y330523D01*
X260043Y330528D01*
X260162Y330582D01*
X260282Y330630D01*
X260306Y330647D01*
X260333Y330659D01*
X260434Y330740D01*
X260540Y330816D01*
X260558Y330839D01*
X260581Y330858D01*
X260659Y330961D01*
X260742Y331061D01*
X260755Y331088D01*
X260773Y331112D01*
X260844Y331256D01*
X261770Y333494D01*
X263406Y335130D01*
X265543Y336015D01*
X267857Y336015D01*
X269994Y335130D01*
X271630Y333494D01*
X272515Y331357D01*
X272515Y329043D01*
X271630Y326906D01*
X269824Y325101D01*
X269781Y325045D01*
X269731Y324997D01*
X269684Y324920D01*
X269629Y324849D01*
X269601Y324785D01*
X269565Y324726D01*
X269538Y324640D01*
X269503Y324557D01*
X269492Y324488D01*
X269471Y324422D01*
X269467Y324332D01*
X269453Y324243D01*
X269459Y324174D01*
X269456Y324104D01*
X269474Y324016D01*
X269483Y323927D01*
X269506Y323861D01*
X269520Y323793D01*
X269560Y323712D01*
X269590Y323627D01*
X269629Y323570D01*
X269660Y323507D01*
X269718Y323439D01*
X269769Y323364D01*
X269821Y323318D01*
X269866Y323265D01*
X269940Y323213D01*
X270007Y323154D01*
X270069Y323122D01*
X270126Y323082D01*
X270210Y323050D01*
X270290Y323009D01*
X270358Y322994D01*
X270424Y322969D01*
X270513Y322959D01*
X270601Y322940D01*
X270670Y322942D01*
X270740Y322934D01*
X270829Y322947D01*
X270919Y322949D01*
X270986Y322969D01*
X271055Y322978D01*
X271207Y323030D01*
X271893Y323315D01*
X274207Y323315D01*
X276344Y322430D01*
X277980Y320794D01*
X278865Y318657D01*
X278865Y316343D01*
X277980Y314206D01*
X276344Y312570D01*
X274197Y311681D01*
X274130Y311673D01*
X274031Y311670D01*
X273972Y311653D01*
X273912Y311645D01*
X273820Y311609D01*
X273725Y311581D01*
X273673Y311551D01*
X273617Y311528D01*
X273537Y311470D01*
X273451Y311420D01*
X273376Y311354D01*
X273359Y311342D01*
X273351Y311332D01*
X273330Y311314D01*
X266536Y304520D01*
X266476Y304441D01*
X266408Y304369D01*
X266379Y304316D01*
X266342Y304268D01*
X266302Y304177D01*
X266254Y304091D01*
X266239Y304032D01*
X266215Y303977D01*
X266200Y303879D01*
X266175Y303783D01*
X266169Y303683D01*
X266165Y303662D01*
X266167Y303650D01*
X266166Y303647D01*
X265276Y301497D01*
X265234Y301443D01*
X265166Y301371D01*
X265137Y301318D01*
X265100Y301270D01*
X265060Y301179D01*
X265012Y301092D01*
X264997Y301034D01*
X264973Y300978D01*
X264958Y300880D01*
X264933Y300784D01*
X264927Y300684D01*
X264923Y300664D01*
X264925Y300652D01*
X264923Y300624D01*
X264923Y268655D01*
X264931Y268585D01*
X264930Y268516D01*
X264951Y268428D01*
X264963Y268339D01*
X264988Y268274D01*
X265005Y268206D01*
X265047Y268127D01*
X265080Y268043D01*
X265121Y267987D01*
X265153Y267925D01*
X265214Y267859D01*
X265266Y267786D01*
X265320Y267741D01*
X265367Y267690D01*
X265442Y267641D01*
X265511Y267583D01*
X265575Y267553D01*
X265633Y267515D01*
X265718Y267486D01*
X265799Y267448D01*
X265868Y267435D01*
X265934Y267412D01*
X266023Y267405D01*
X266111Y267388D01*
X266181Y267392D01*
X266251Y267387D01*
X266339Y267402D01*
X266429Y267408D01*
X266495Y267429D01*
X266564Y267441D01*
X266646Y267478D01*
X266731Y267506D01*
X266790Y267543D01*
X266854Y267572D01*
X266924Y267628D01*
X267000Y267676D01*
X267048Y267727D01*
X267102Y267770D01*
X267157Y267842D01*
X267218Y267907D01*
X267252Y267969D01*
X267294Y268024D01*
X267365Y268169D01*
X268120Y269994D01*
X269756Y271630D01*
X271903Y272519D01*
X271970Y272527D01*
X272069Y272530D01*
X272128Y272547D01*
X272188Y272555D01*
X272280Y272591D01*
X272375Y272619D01*
X272427Y272649D01*
X272483Y272672D01*
X272563Y272730D01*
X272649Y272780D01*
X272724Y272846D01*
X272741Y272858D01*
X272749Y272868D01*
X272770Y272886D01*
X283856Y283973D01*
X286258Y283973D01*
X286376Y283988D01*
X286495Y283995D01*
X286533Y284008D01*
X286574Y284013D01*
X286684Y284056D01*
X286797Y284093D01*
X286832Y284115D01*
X286869Y284130D01*
X286965Y284199D01*
X287066Y284263D01*
X287094Y284293D01*
X287127Y284316D01*
X287203Y284408D01*
X287284Y284495D01*
X287304Y284530D01*
X287329Y284561D01*
X287380Y284669D01*
X287438Y284773D01*
X287448Y284813D01*
X287465Y284849D01*
X287487Y284966D01*
X287517Y285081D01*
X287521Y285141D01*
X287525Y285161D01*
X287523Y285182D01*
X287527Y285242D01*
X287527Y331488D01*
X287515Y331586D01*
X287512Y331685D01*
X287495Y331744D01*
X287487Y331804D01*
X287451Y331896D01*
X287423Y331991D01*
X287393Y332043D01*
X287370Y332099D01*
X287312Y332179D01*
X287262Y332265D01*
X287196Y332340D01*
X287184Y332357D01*
X287174Y332364D01*
X287156Y332386D01*
X268477Y351064D01*
X268477Y351424D01*
X268465Y351522D01*
X268462Y351621D01*
X268445Y351679D01*
X268437Y351739D01*
X268401Y351831D01*
X268373Y351926D01*
X268343Y351979D01*
X268320Y352035D01*
X268262Y352115D01*
X268212Y352200D01*
X268146Y352276D01*
X268134Y352292D01*
X268124Y352300D01*
X268122Y352302D01*
X267235Y354443D01*
X267235Y356757D01*
X268120Y358894D01*
X269756Y360530D01*
X271893Y361415D01*
X274207Y361415D01*
X276344Y360530D01*
X277980Y358894D01*
X278865Y356757D01*
X278865Y354344D01*
X278861Y354331D01*
X278861Y354302D01*
X278854Y354273D01*
X278858Y354143D01*
X278856Y354013D01*
X278863Y353984D01*
X278864Y353955D01*
X278900Y353830D01*
X278930Y353704D01*
X278944Y353678D01*
X278952Y353649D01*
X279018Y353537D01*
X279079Y353423D01*
X279099Y353401D01*
X279114Y353375D01*
X279220Y353254D01*
X296985Y335489D01*
X297070Y335424D01*
X297120Y335377D01*
X297145Y335363D01*
X297202Y335316D01*
X297221Y335307D01*
X297237Y335294D01*
X297365Y335239D01*
X297490Y335180D01*
X297510Y335176D01*
X297528Y335168D01*
X297666Y335146D01*
X297802Y335120D01*
X297822Y335121D01*
X297843Y335118D01*
X297982Y335131D01*
X298120Y335140D01*
X298139Y335146D01*
X298159Y335148D01*
X298290Y335195D01*
X298422Y335238D01*
X298439Y335249D01*
X298458Y335256D01*
X298574Y335334D01*
X298691Y335408D01*
X298705Y335423D01*
X298722Y335434D01*
X298813Y335538D01*
X298909Y335640D01*
X298919Y335658D01*
X298932Y335673D01*
X298995Y335797D01*
X299062Y335918D01*
X299067Y335938D01*
X299077Y335956D01*
X299088Y336007D01*
X299090Y336010D01*
X299095Y336037D01*
X299107Y336092D01*
X299142Y336226D01*
X299144Y336254D01*
X299146Y336266D01*
X299146Y336287D01*
X299147Y336310D01*
X299150Y336322D01*
X299149Y336335D01*
X299152Y336387D01*
X299152Y343719D01*
X306096Y350662D01*
X306156Y350741D01*
X306224Y350813D01*
X306253Y350866D01*
X306290Y350914D01*
X306330Y351005D01*
X306378Y351091D01*
X306393Y351150D01*
X306417Y351205D01*
X306432Y351303D01*
X306457Y351399D01*
X306463Y351499D01*
X306467Y351520D01*
X306465Y351532D01*
X306467Y351560D01*
X306467Y367742D01*
X306532Y367806D01*
X306605Y367901D01*
X306684Y367990D01*
X306702Y368026D01*
X306727Y368058D01*
X306774Y368167D01*
X306828Y368273D01*
X306837Y368312D01*
X306853Y368350D01*
X306872Y368467D01*
X306898Y368583D01*
X306897Y368624D01*
X306903Y368664D01*
X306892Y368782D01*
X306888Y368901D01*
X306877Y368940D01*
X306873Y368980D01*
X306833Y369092D01*
X306800Y369207D01*
X306779Y369241D01*
X306766Y369280D01*
X306698Y369378D01*
X306638Y369481D01*
X306598Y369526D01*
X306587Y369543D01*
X306572Y369556D01*
X306532Y369601D01*
X305038Y371096D01*
X304959Y371156D01*
X304887Y371224D01*
X304834Y371253D01*
X304786Y371290D01*
X304695Y371330D01*
X304609Y371378D01*
X304550Y371393D01*
X304495Y371417D01*
X304397Y371432D01*
X304301Y371457D01*
X304201Y371463D01*
X304180Y371467D01*
X304168Y371465D01*
X304140Y371467D01*
X294258Y371467D01*
X293274Y372452D01*
X293174Y372529D01*
X293079Y372611D01*
X293049Y372626D01*
X293022Y372647D01*
X292907Y372697D01*
X292794Y372753D01*
X292761Y372760D01*
X292730Y372773D01*
X292606Y372793D01*
X292483Y372819D01*
X292450Y372818D01*
X292416Y372823D01*
X292291Y372811D01*
X292166Y372806D01*
X292133Y372796D01*
X292100Y372793D01*
X291981Y372751D01*
X291861Y372714D01*
X291832Y372697D01*
X291800Y372686D01*
X291696Y372615D01*
X291589Y372550D01*
X291565Y372526D01*
X291537Y372507D01*
X291454Y372413D01*
X291366Y372323D01*
X291339Y372282D01*
X291327Y372269D01*
X291317Y372249D01*
X291277Y372189D01*
X291133Y371940D01*
X290660Y371467D01*
X290081Y371132D01*
X289434Y370959D01*
X285139Y370959D01*
X285139Y379730D01*
X285124Y379848D01*
X285117Y379967D01*
X285104Y380005D01*
X285099Y380045D01*
X285055Y380156D01*
X285019Y380269D01*
X284997Y380304D01*
X284982Y380341D01*
X284912Y380437D01*
X284849Y380538D01*
X284819Y380566D01*
X284795Y380598D01*
X284704Y380674D01*
X284617Y380756D01*
X284582Y380775D01*
X284550Y380801D01*
X284443Y380852D01*
X284339Y380909D01*
X284299Y380920D01*
X284263Y380937D01*
X284146Y380959D01*
X284031Y380989D01*
X283970Y380993D01*
X283950Y380997D01*
X283930Y380995D01*
X283870Y380999D01*
X282599Y380999D01*
X282599Y381001D01*
X283870Y381001D01*
X283988Y381016D01*
X284107Y381023D01*
X284145Y381036D01*
X284185Y381041D01*
X284296Y381085D01*
X284409Y381121D01*
X284444Y381143D01*
X284481Y381158D01*
X284577Y381228D01*
X284678Y381291D01*
X284706Y381321D01*
X284738Y381345D01*
X284814Y381436D01*
X284896Y381523D01*
X284915Y381558D01*
X284941Y381590D01*
X284992Y381697D01*
X285049Y381801D01*
X285060Y381841D01*
X285077Y381877D01*
X285099Y381994D01*
X285129Y382109D01*
X285133Y382170D01*
X285137Y382190D01*
X285135Y382210D01*
X285139Y382270D01*
X285139Y391041D01*
X289434Y391041D01*
X290081Y390868D01*
X290660Y390533D01*
X291133Y390060D01*
X291277Y389811D01*
X291353Y389711D01*
X291423Y389607D01*
X291449Y389585D01*
X291469Y389558D01*
X291568Y389480D01*
X291662Y389396D01*
X291692Y389381D01*
X291718Y389360D01*
X291833Y389309D01*
X291945Y389252D01*
X291978Y389244D01*
X292009Y389231D01*
X292133Y389210D01*
X292255Y389182D01*
X292289Y389183D01*
X292322Y389178D01*
X292448Y389188D01*
X292573Y389192D01*
X292606Y389201D01*
X292639Y389204D01*
X292758Y389245D01*
X292879Y389280D01*
X292908Y389297D01*
X292940Y389308D01*
X293044Y389378D01*
X293153Y389442D01*
X293189Y389474D01*
X293205Y389484D01*
X293219Y389500D01*
X293274Y389548D01*
X294258Y390533D01*
X308942Y390533D01*
X310133Y389342D01*
X310133Y379460D01*
X310145Y379362D01*
X310148Y379263D01*
X310165Y379204D01*
X310173Y379144D01*
X310209Y379052D01*
X310237Y378957D01*
X310267Y378905D01*
X310290Y378849D01*
X310348Y378769D01*
X310398Y378683D01*
X310464Y378608D01*
X310476Y378591D01*
X310486Y378583D01*
X310504Y378562D01*
X319762Y369304D01*
X319841Y369244D01*
X319913Y369176D01*
X319966Y369147D01*
X320014Y369110D01*
X320105Y369070D01*
X320191Y369022D01*
X320250Y369007D01*
X320305Y368983D01*
X320403Y368968D01*
X320499Y368943D01*
X320599Y368937D01*
X320620Y368933D01*
X320632Y368935D01*
X320660Y368933D01*
X327342Y368933D01*
X328533Y367742D01*
X328533Y352058D01*
X327342Y350867D01*
X323342Y350867D01*
X323224Y350852D01*
X323105Y350845D01*
X323067Y350832D01*
X323026Y350827D01*
X322916Y350784D01*
X322803Y350747D01*
X322768Y350725D01*
X322731Y350710D01*
X322635Y350641D01*
X322534Y350577D01*
X322506Y350547D01*
X322473Y350524D01*
X322397Y350432D01*
X322316Y350345D01*
X322296Y350310D01*
X322271Y350279D01*
X322220Y350171D01*
X322162Y350067D01*
X322152Y350027D01*
X322135Y349991D01*
X322113Y349874D01*
X322083Y349759D01*
X322079Y349699D01*
X322075Y349679D01*
X322077Y349658D01*
X322073Y349598D01*
X322073Y347076D01*
X322085Y346978D01*
X322088Y346879D01*
X322105Y346821D01*
X322113Y346761D01*
X322149Y346669D01*
X322177Y346573D01*
X322207Y346521D01*
X322230Y346465D01*
X322288Y346385D01*
X322338Y346300D01*
X322404Y346224D01*
X322416Y346208D01*
X322426Y346200D01*
X322428Y346198D01*
X323315Y344057D01*
X323315Y341743D01*
X322430Y339606D01*
X320794Y337970D01*
X319355Y337375D01*
X319295Y337340D01*
X319230Y337314D01*
X319157Y337262D01*
X319079Y337217D01*
X319029Y337169D01*
X318972Y337128D01*
X318915Y337058D01*
X318850Y336996D01*
X318814Y336936D01*
X318769Y336883D01*
X318731Y336801D01*
X318684Y336725D01*
X318664Y336658D01*
X318634Y336595D01*
X318617Y336507D01*
X318591Y336421D01*
X318587Y336351D01*
X318574Y336282D01*
X318580Y336193D01*
X318575Y336103D01*
X318590Y336035D01*
X318594Y335965D01*
X318622Y335880D01*
X318640Y335792D01*
X318670Y335729D01*
X318692Y335663D01*
X318740Y335587D01*
X318779Y335506D01*
X318825Y335453D01*
X318862Y335394D01*
X318928Y335332D01*
X318986Y335264D01*
X319043Y335224D01*
X319094Y335176D01*
X319172Y335133D01*
X319246Y335081D01*
X319311Y335056D01*
X319372Y335022D01*
X319459Y335000D01*
X319543Y334968D01*
X319613Y334960D01*
X319680Y334943D01*
X319841Y334933D01*
X327342Y334933D01*
X328533Y333742D01*
X328533Y331742D01*
X328548Y331624D01*
X328555Y331505D01*
X328568Y331467D01*
X328573Y331426D01*
X328616Y331316D01*
X328653Y331203D01*
X328675Y331168D01*
X328690Y331131D01*
X328759Y331035D01*
X328823Y330934D01*
X328853Y330906D01*
X328876Y330873D01*
X328968Y330797D01*
X329055Y330716D01*
X329090Y330696D01*
X329121Y330671D01*
X329229Y330620D01*
X329333Y330562D01*
X329373Y330552D01*
X329409Y330535D01*
X329526Y330513D01*
X329641Y330483D01*
X329701Y330479D01*
X329721Y330475D01*
X329742Y330477D01*
X329802Y330473D01*
X336394Y330473D01*
X336830Y330036D01*
X336909Y329976D01*
X336981Y329908D01*
X337034Y329879D01*
X337082Y329842D01*
X337173Y329802D01*
X337259Y329754D01*
X337318Y329739D01*
X337373Y329715D01*
X337471Y329700D01*
X337567Y329675D01*
X337667Y329669D01*
X337688Y329665D01*
X337700Y329667D01*
X337703Y329666D01*
X339844Y328780D01*
X341480Y327144D01*
X342365Y325007D01*
X342365Y322693D01*
X341480Y320556D01*
X339844Y318920D01*
X337707Y318035D01*
X335393Y318035D01*
X333256Y318920D01*
X331616Y320561D01*
X331611Y320569D01*
X331602Y320597D01*
X331533Y320707D01*
X331468Y320820D01*
X331448Y320841D01*
X331432Y320866D01*
X331337Y320955D01*
X331247Y321048D01*
X331222Y321064D01*
X331200Y321084D01*
X331086Y321147D01*
X330976Y321215D01*
X330948Y321223D01*
X330922Y321238D01*
X330796Y321270D01*
X330672Y321308D01*
X330642Y321310D01*
X330614Y321317D01*
X330453Y321327D01*
X329802Y321327D01*
X329684Y321312D01*
X329565Y321305D01*
X329527Y321292D01*
X329486Y321287D01*
X329376Y321244D01*
X329263Y321207D01*
X329228Y321185D01*
X329191Y321170D01*
X329095Y321101D01*
X328994Y321037D01*
X328966Y321007D01*
X328933Y320984D01*
X328857Y320892D01*
X328776Y320805D01*
X328756Y320770D01*
X328731Y320739D01*
X328680Y320631D01*
X328622Y320527D01*
X328612Y320487D01*
X328595Y320451D01*
X328573Y320334D01*
X328543Y320219D01*
X328539Y320159D01*
X328535Y320139D01*
X328537Y320118D01*
X328533Y320058D01*
X328533Y318058D01*
X327342Y316867D01*
X309567Y316867D01*
X309449Y316852D01*
X309330Y316845D01*
X309291Y316832D01*
X309251Y316827D01*
X309141Y316784D01*
X309027Y316747D01*
X308993Y316725D01*
X308956Y316710D01*
X308859Y316641D01*
X308759Y316577D01*
X308731Y316547D01*
X308698Y316524D01*
X308622Y316432D01*
X308541Y316345D01*
X308521Y316310D01*
X308495Y316279D01*
X308445Y316171D01*
X308387Y316067D01*
X308377Y316027D01*
X308360Y315991D01*
X308338Y315874D01*
X308308Y315759D01*
X308304Y315699D01*
X308300Y315679D01*
X308301Y315658D01*
X308298Y315598D01*
X308298Y312849D01*
X308312Y312731D01*
X308320Y312612D01*
X308332Y312573D01*
X308337Y312533D01*
X308381Y312423D01*
X308418Y312309D01*
X308440Y312275D01*
X308454Y312238D01*
X308524Y312141D01*
X308588Y312041D01*
X308618Y312013D01*
X308641Y311980D01*
X308733Y311904D01*
X308820Y311823D01*
X308855Y311803D01*
X308886Y311777D01*
X308994Y311727D01*
X309098Y311669D01*
X309137Y311659D01*
X309174Y311642D01*
X309291Y311620D01*
X309406Y311590D01*
X309466Y311586D01*
X309486Y311582D01*
X309507Y311583D01*
X309567Y311580D01*
X327139Y311580D01*
X328366Y310352D01*
X328369Y310326D01*
X328413Y310216D01*
X328450Y310103D01*
X328472Y310068D01*
X328486Y310031D01*
X328556Y309935D01*
X328620Y309834D01*
X328650Y309806D01*
X328673Y309773D01*
X328765Y309697D01*
X328852Y309616D01*
X328887Y309596D01*
X328918Y309571D01*
X329026Y309520D01*
X329130Y309462D01*
X329169Y309452D01*
X329206Y309435D01*
X329323Y309413D01*
X329438Y309383D01*
X329498Y309379D01*
X329518Y309375D01*
X329539Y309377D01*
X329599Y309373D01*
X365880Y309373D01*
X365978Y309385D01*
X366077Y309388D01*
X366136Y309405D01*
X366196Y309413D01*
X366288Y309449D01*
X366383Y309477D01*
X366435Y309507D01*
X366491Y309530D01*
X366571Y309588D01*
X366657Y309638D01*
X366732Y309704D01*
X366749Y309716D01*
X366757Y309726D01*
X366778Y309744D01*
X381164Y324130D01*
X381224Y324209D01*
X381292Y324281D01*
X381321Y324334D01*
X381358Y324382D01*
X381398Y324473D01*
X381446Y324559D01*
X381461Y324618D01*
X381485Y324673D01*
X381500Y324771D01*
X381525Y324867D01*
X381531Y324967D01*
X381535Y324988D01*
X381533Y325000D01*
X381534Y325003D01*
X382420Y327144D01*
X384056Y328780D01*
X386193Y329665D01*
X388507Y329665D01*
X390644Y328780D01*
X392280Y327144D01*
X393165Y325007D01*
X393165Y322693D01*
X392280Y320556D01*
X390644Y318920D01*
X388497Y318031D01*
X388430Y318023D01*
X388331Y318020D01*
X388272Y318003D01*
X388212Y317995D01*
X388120Y317959D01*
X388025Y317931D01*
X387973Y317901D01*
X387917Y317878D01*
X387837Y317820D01*
X387751Y317770D01*
X387676Y317704D01*
X387659Y317692D01*
X387651Y317682D01*
X387630Y317664D01*
X370194Y300227D01*
X329599Y300227D01*
X329481Y300212D01*
X329362Y300205D01*
X329323Y300192D01*
X329283Y300187D01*
X329173Y300144D01*
X329059Y300107D01*
X329025Y300085D01*
X328988Y300070D01*
X328891Y300001D01*
X328791Y299937D01*
X328763Y299907D01*
X328730Y299884D01*
X328654Y299792D01*
X328573Y299705D01*
X328553Y299670D01*
X328527Y299639D01*
X328477Y299531D01*
X328419Y299427D01*
X328409Y299387D01*
X328392Y299351D01*
X328370Y299234D01*
X328340Y299119D01*
X328336Y299059D01*
X328332Y299039D01*
X328333Y299018D01*
X328330Y298958D01*
X328330Y294705D01*
X327139Y293514D01*
X323139Y293514D01*
X323021Y293499D01*
X322902Y293492D01*
X322863Y293479D01*
X322823Y293474D01*
X322713Y293430D01*
X322599Y293394D01*
X322565Y293372D01*
X322528Y293357D01*
X322431Y293287D01*
X322331Y293224D01*
X322303Y293194D01*
X322270Y293170D01*
X322194Y293079D01*
X322113Y292992D01*
X322093Y292957D01*
X322067Y292925D01*
X322017Y292818D01*
X321959Y292713D01*
X321949Y292674D01*
X321932Y292638D01*
X321910Y292521D01*
X321880Y292406D01*
X321876Y292345D01*
X321872Y292325D01*
X321873Y292305D01*
X321870Y292245D01*
X321870Y290129D01*
X321882Y290031D01*
X321885Y289932D01*
X321902Y289874D01*
X321909Y289814D01*
X321946Y289722D01*
X321973Y289627D01*
X322004Y289575D01*
X322026Y289518D01*
X322085Y289438D01*
X322135Y289353D01*
X322201Y289277D01*
X322213Y289261D01*
X322223Y289253D01*
X322241Y289232D01*
X322430Y289044D01*
X323315Y286907D01*
X323315Y284593D01*
X322430Y282456D01*
X320794Y280820D01*
X318865Y280021D01*
X318804Y279987D01*
X318739Y279961D01*
X318666Y279908D01*
X318588Y279864D01*
X318538Y279815D01*
X318482Y279774D01*
X318424Y279705D01*
X318360Y279643D01*
X318324Y279583D01*
X318279Y279529D01*
X318241Y279448D01*
X318194Y279371D01*
X318173Y279305D01*
X318143Y279242D01*
X318127Y279153D01*
X318100Y279068D01*
X318097Y278998D01*
X318084Y278929D01*
X318089Y278840D01*
X318085Y278750D01*
X318099Y278681D01*
X318103Y278612D01*
X318131Y278527D01*
X318149Y278438D01*
X318180Y278376D01*
X318201Y278309D01*
X318249Y278234D01*
X318289Y278153D01*
X318334Y278100D01*
X318372Y278041D01*
X318437Y277979D01*
X318495Y277911D01*
X318552Y277871D01*
X318603Y277823D01*
X318682Y277779D01*
X318755Y277728D01*
X318821Y277703D01*
X318882Y277669D01*
X318969Y277647D01*
X319053Y277615D01*
X319122Y277607D01*
X319190Y277590D01*
X319350Y277580D01*
X327139Y277580D01*
X328330Y276389D01*
X328330Y260705D01*
X327139Y259514D01*
X323545Y259514D01*
X323427Y259499D01*
X323308Y259492D01*
X323270Y259479D01*
X323230Y259474D01*
X323119Y259430D01*
X323006Y259394D01*
X322972Y259372D01*
X322934Y259357D01*
X322838Y259287D01*
X322737Y259224D01*
X322709Y259194D01*
X322677Y259170D01*
X322601Y259079D01*
X322519Y258992D01*
X322500Y258957D01*
X322474Y258925D01*
X322423Y258818D01*
X322366Y258713D01*
X322355Y258674D01*
X322338Y258638D01*
X322316Y258521D01*
X322286Y258406D01*
X322282Y258345D01*
X322278Y258325D01*
X322280Y258305D01*
X322276Y258245D01*
X322276Y258176D01*
X322288Y258078D01*
X322291Y257979D01*
X322308Y257921D01*
X322316Y257861D01*
X322352Y257769D01*
X322380Y257674D01*
X322411Y257621D01*
X322433Y257565D01*
X322491Y257485D01*
X322541Y257400D01*
X322608Y257324D01*
X322620Y257308D01*
X322629Y257300D01*
X322631Y257298D01*
X323518Y255157D01*
X323518Y252843D01*
X322629Y250697D01*
X322587Y250643D01*
X322519Y250571D01*
X322490Y250518D01*
X322453Y250470D01*
X322413Y250379D01*
X322366Y250292D01*
X322350Y250234D01*
X322326Y250178D01*
X322311Y250080D01*
X322286Y249984D01*
X322280Y249884D01*
X322277Y249864D01*
X322278Y249852D01*
X322276Y249824D01*
X322276Y243405D01*
X322291Y243287D01*
X322298Y243168D01*
X322311Y243130D01*
X322316Y243090D01*
X322360Y242979D01*
X322396Y242866D01*
X322418Y242832D01*
X322433Y242794D01*
X322503Y242698D01*
X322566Y242597D01*
X322596Y242569D01*
X322620Y242537D01*
X322711Y242461D01*
X322798Y242379D01*
X322833Y242360D01*
X322865Y242334D01*
X322972Y242283D01*
X323077Y242226D01*
X323116Y242215D01*
X323152Y242198D01*
X323269Y242176D01*
X323384Y242146D01*
X323445Y242142D01*
X323465Y242138D01*
X323485Y242140D01*
X323545Y242136D01*
X327545Y242136D01*
X328736Y240945D01*
X328736Y224961D01*
X328745Y224892D01*
X328744Y224822D01*
X328765Y224734D01*
X328776Y224645D01*
X328801Y224580D01*
X328818Y224512D01*
X328860Y224433D01*
X328893Y224349D01*
X328934Y224293D01*
X328966Y224231D01*
X329027Y224165D01*
X329080Y224092D01*
X329133Y224048D01*
X329180Y223996D01*
X329255Y223947D01*
X329325Y223889D01*
X329388Y223860D01*
X329446Y223821D01*
X329531Y223792D01*
X329612Y223754D01*
X329681Y223741D01*
X329747Y223718D01*
X329836Y223711D01*
X329925Y223694D01*
X329994Y223698D01*
X330064Y223693D01*
X330152Y223708D01*
X330242Y223714D01*
X330308Y223735D01*
X330377Y223747D01*
X330459Y223784D01*
X330545Y223812D01*
X330604Y223849D01*
X330667Y223878D01*
X330737Y223934D01*
X330813Y223982D01*
X330861Y224033D01*
X330916Y224076D01*
X330970Y224148D01*
X331031Y224214D01*
X331065Y224275D01*
X331107Y224330D01*
X331178Y224475D01*
X331620Y225544D01*
X333256Y227180D01*
X335393Y228065D01*
X337707Y228065D01*
X339844Y227180D01*
X341480Y225544D01*
X342365Y223407D01*
X342365Y221093D01*
X341480Y218956D01*
X339844Y217320D01*
X337697Y216431D01*
X337630Y216423D01*
X337531Y216420D01*
X337472Y216403D01*
X337412Y216395D01*
X337320Y216359D01*
X337225Y216331D01*
X337173Y216301D01*
X337117Y216278D01*
X337037Y216220D01*
X336951Y216170D01*
X336876Y216104D01*
X336859Y216092D01*
X336851Y216082D01*
X336830Y216064D01*
X332094Y211327D01*
X323545Y211327D01*
X323427Y211312D01*
X323308Y211305D01*
X323270Y211292D01*
X323230Y211287D01*
X323119Y211244D01*
X323006Y211207D01*
X322972Y211185D01*
X322934Y211170D01*
X322838Y211101D01*
X322737Y211037D01*
X322709Y211007D01*
X322677Y210984D01*
X322601Y210892D01*
X322519Y210805D01*
X322500Y210770D01*
X322474Y210739D01*
X322423Y210631D01*
X322366Y210527D01*
X322355Y210487D01*
X322338Y210451D01*
X322316Y210334D01*
X322286Y210219D01*
X322282Y210159D01*
X322278Y210139D01*
X322280Y210118D01*
X322276Y210058D01*
X322276Y209405D01*
X322291Y209287D01*
X322298Y209168D01*
X322311Y209130D01*
X322316Y209090D01*
X322360Y208979D01*
X322396Y208866D01*
X322418Y208832D01*
X322433Y208794D01*
X322503Y208698D01*
X322566Y208597D01*
X322596Y208569D01*
X322620Y208537D01*
X322711Y208461D01*
X322798Y208379D01*
X322833Y208360D01*
X322865Y208334D01*
X322972Y208283D01*
X323077Y208226D01*
X323116Y208215D01*
X323152Y208198D01*
X323269Y208176D01*
X323384Y208146D01*
X323445Y208142D01*
X323465Y208138D01*
X323485Y208140D01*
X323545Y208136D01*
X327545Y208136D01*
X328736Y206945D01*
X328736Y198567D01*
X328753Y198429D01*
X328766Y198291D01*
X328773Y198271D01*
X328776Y198251D01*
X328827Y198122D01*
X328874Y197991D01*
X328885Y197975D01*
X328893Y197956D01*
X328974Y197843D01*
X329053Y197728D01*
X329068Y197715D01*
X329080Y197698D01*
X329187Y197610D01*
X329291Y197518D01*
X329309Y197509D01*
X329325Y197496D01*
X329450Y197436D01*
X329574Y197373D01*
X329594Y197369D01*
X329612Y197360D01*
X329749Y197334D01*
X329885Y197303D01*
X329905Y197304D01*
X329925Y197300D01*
X330063Y197309D01*
X330202Y197313D01*
X330222Y197319D01*
X330242Y197320D01*
X330374Y197363D01*
X330508Y197402D01*
X330525Y197412D01*
X330545Y197418D01*
X330662Y197492D01*
X330782Y197563D01*
X330803Y197582D01*
X330813Y197588D01*
X330827Y197603D01*
X330903Y197669D01*
X357006Y223772D01*
X360056Y226823D01*
X383174Y226823D01*
X383272Y226835D01*
X383371Y226838D01*
X383429Y226855D01*
X383489Y226863D01*
X383581Y226899D01*
X383676Y226927D01*
X383729Y226957D01*
X383785Y226980D01*
X383865Y227038D01*
X383950Y227088D01*
X384026Y227154D01*
X384042Y227166D01*
X384050Y227176D01*
X384052Y227178D01*
X386193Y228065D01*
X388507Y228065D01*
X390644Y227180D01*
X392280Y225544D01*
X392899Y224048D01*
X392924Y224005D01*
X392941Y223958D01*
X393002Y223867D01*
X393057Y223772D01*
X393091Y223736D01*
X393119Y223695D01*
X393201Y223622D01*
X393278Y223543D01*
X393320Y223517D01*
X393358Y223484D01*
X393455Y223434D01*
X393549Y223377D01*
X393597Y223362D01*
X393641Y223340D01*
X393748Y223316D01*
X393853Y223283D01*
X393903Y223281D01*
X393951Y223270D01*
X394061Y223273D01*
X394171Y223268D01*
X394219Y223278D01*
X394269Y223280D01*
X394375Y223310D01*
X394482Y223332D01*
X394527Y223354D01*
X394574Y223368D01*
X394669Y223424D01*
X394768Y223472D01*
X394806Y223504D01*
X394848Y223530D01*
X394969Y223636D01*
X401456Y230122D01*
X401516Y230201D01*
X401584Y230273D01*
X401613Y230326D01*
X401650Y230374D01*
X401690Y230465D01*
X401738Y230551D01*
X401753Y230610D01*
X401777Y230665D01*
X401792Y230763D01*
X401817Y230859D01*
X401823Y230959D01*
X401827Y230980D01*
X401825Y230992D01*
X401827Y231020D01*
X401827Y327780D01*
X401815Y327878D01*
X401812Y327977D01*
X401795Y328036D01*
X401787Y328096D01*
X401751Y328188D01*
X401723Y328283D01*
X401693Y328335D01*
X401670Y328391D01*
X401612Y328471D01*
X401562Y328557D01*
X401496Y328632D01*
X401484Y328649D01*
X401474Y328657D01*
X401456Y328678D01*
X392178Y337956D01*
X392099Y338016D01*
X392027Y338084D01*
X391974Y338113D01*
X391926Y338150D01*
X391835Y338190D01*
X391749Y338238D01*
X391690Y338253D01*
X391635Y338277D01*
X391537Y338292D01*
X391441Y338317D01*
X391341Y338323D01*
X391320Y338327D01*
X391308Y338325D01*
X391280Y338327D01*
X366406Y338327D01*
X363356Y341378D01*
X294062Y410671D01*
X293968Y410744D01*
X293879Y410823D01*
X293843Y410841D01*
X293811Y410866D01*
X293701Y410913D01*
X293596Y410967D01*
X293556Y410976D01*
X293519Y410992D01*
X293401Y411011D01*
X293285Y411037D01*
X293245Y411036D01*
X293205Y411042D01*
X293086Y411031D01*
X292967Y411027D01*
X292929Y411016D01*
X292888Y411012D01*
X292776Y410972D01*
X292662Y410939D01*
X292627Y410918D01*
X292589Y410905D01*
X292490Y410838D01*
X292388Y410777D01*
X292343Y410738D01*
X292326Y410726D01*
X292312Y410711D01*
X292267Y410671D01*
X287956Y406360D01*
X282542Y404117D01*
X276680Y404117D01*
X271266Y406360D01*
X267121Y410505D01*
X264878Y415919D01*
X264878Y421781D01*
X267121Y427195D01*
X271266Y431340D01*
X276680Y433583D01*
X282542Y433583D01*
X287956Y431340D01*
X292101Y427195D01*
X293339Y424206D01*
X293354Y424181D01*
X293363Y424153D01*
X293432Y424043D01*
X293496Y423930D01*
X293517Y423909D01*
X293533Y423884D01*
X293627Y423795D01*
X293718Y423702D01*
X293743Y423686D01*
X293764Y423666D01*
X293878Y423603D01*
X293989Y423535D01*
X294017Y423527D01*
X294043Y423512D01*
X294169Y423480D01*
X294195Y423472D01*
X369822Y347844D01*
X369901Y347784D01*
X369973Y347716D01*
X370026Y347687D01*
X370074Y347650D01*
X370165Y347610D01*
X370251Y347562D01*
X370310Y347547D01*
X370365Y347523D01*
X370463Y347508D01*
X370559Y347483D01*
X370659Y347477D01*
X370680Y347473D01*
X370692Y347475D01*
X370720Y347473D01*
X395594Y347473D01*
X410973Y332094D01*
X410973Y226706D01*
X407923Y223656D01*
X407922Y223656D01*
X327916Y143649D01*
X327831Y143540D01*
X327742Y143433D01*
X327734Y143414D01*
X327721Y143398D01*
X327666Y143270D01*
X327607Y143145D01*
X327603Y143125D01*
X327595Y143106D01*
X327573Y142968D01*
X327547Y142832D01*
X327548Y142812D01*
X327545Y142792D01*
X327558Y142653D01*
X327567Y142515D01*
X327573Y142496D01*
X327575Y142476D01*
X327622Y142344D01*
X327665Y142213D01*
X327676Y142195D01*
X327683Y142176D01*
X327761Y142061D01*
X327835Y141944D01*
X327850Y141930D01*
X327861Y141913D01*
X327965Y141821D01*
X328067Y141726D01*
X328084Y141716D01*
X328100Y141703D01*
X328223Y141639D01*
X328345Y141572D01*
X328365Y141567D01*
X328383Y141558D01*
X328519Y141528D01*
X328653Y141493D01*
X328681Y141491D01*
X328693Y141488D01*
X328714Y141489D01*
X328814Y141483D01*
X333342Y141483D01*
X336331Y140245D01*
X336359Y140237D01*
X336385Y140223D01*
X336512Y140195D01*
X336637Y140161D01*
X336667Y140160D01*
X336696Y140154D01*
X336826Y140158D01*
X336955Y140156D01*
X336984Y140162D01*
X337014Y140163D01*
X337138Y140199D01*
X337265Y140230D01*
X337291Y140244D01*
X337319Y140252D01*
X337431Y140318D01*
X337546Y140378D01*
X337568Y140398D01*
X337593Y140413D01*
X337714Y140520D01*
X414156Y216961D01*
X414216Y217040D01*
X414284Y217112D01*
X414313Y217165D01*
X414350Y217213D01*
X414390Y217304D01*
X414438Y217390D01*
X414453Y217449D01*
X414477Y217504D01*
X414492Y217602D01*
X414517Y217698D01*
X414523Y217798D01*
X414527Y217819D01*
X414525Y217831D01*
X414527Y217859D01*
X414527Y334130D01*
X414515Y334228D01*
X414512Y334327D01*
X414495Y334386D01*
X414487Y334446D01*
X414451Y334538D01*
X414423Y334633D01*
X414393Y334685D01*
X414370Y334741D01*
X414312Y334821D01*
X414262Y334907D01*
X414196Y334982D01*
X414184Y334999D01*
X414174Y335007D01*
X414156Y335028D01*
X341687Y407496D01*
X341593Y407569D01*
X341504Y407648D01*
X341468Y407666D01*
X341436Y407691D01*
X341326Y407738D01*
X341221Y407792D01*
X341181Y407801D01*
X341144Y407817D01*
X341026Y407836D01*
X340910Y407862D01*
X340870Y407861D01*
X340830Y407867D01*
X340711Y407856D01*
X340592Y407852D01*
X340554Y407841D01*
X340513Y407837D01*
X340401Y407797D01*
X340287Y407764D01*
X340252Y407743D01*
X340214Y407730D01*
X340115Y407663D01*
X340013Y407602D01*
X339968Y407563D01*
X339951Y407551D01*
X339937Y407536D01*
X339892Y407496D01*
X338756Y406360D01*
X333342Y404117D01*
X327480Y404117D01*
X322066Y406360D01*
X317921Y410505D01*
X315678Y415919D01*
X315678Y421781D01*
X317921Y427195D01*
X322066Y431340D01*
X327480Y433583D01*
X333342Y433583D01*
X338756Y431340D01*
X342901Y427195D01*
X345144Y421781D01*
X345144Y417499D01*
X345156Y417401D01*
X345159Y417302D01*
X345176Y417243D01*
X345184Y417183D01*
X345220Y417091D01*
X345248Y416996D01*
X345278Y416944D01*
X345301Y416888D01*
X345359Y416808D01*
X345409Y416722D01*
X345475Y416647D01*
X345487Y416630D01*
X345497Y416622D01*
X345515Y416601D01*
X423673Y338444D01*
X423673Y213545D01*
X420622Y210495D01*
X344181Y134053D01*
X344163Y134030D01*
X344140Y134010D01*
X344066Y133904D01*
X343986Y133802D01*
X343974Y133774D01*
X343957Y133750D01*
X343911Y133629D01*
X343859Y133510D01*
X343855Y133481D01*
X343844Y133453D01*
X343830Y133324D01*
X343810Y133196D01*
X343812Y133166D01*
X343809Y133137D01*
X343827Y133008D01*
X343839Y132879D01*
X343849Y132851D01*
X343854Y132822D01*
X343906Y132670D01*
X345144Y129681D01*
X345144Y123819D01*
X342901Y118405D01*
X338756Y114260D01*
X333342Y112017D01*
X327480Y112017D01*
X322066Y114260D01*
X317921Y118405D01*
X315678Y123819D01*
X315678Y128347D01*
X315661Y128485D01*
X315648Y128624D01*
X315641Y128643D01*
X315638Y128663D01*
X315587Y128792D01*
X315540Y128923D01*
X315529Y128940D01*
X315521Y128958D01*
X315440Y129071D01*
X315362Y129186D01*
X315346Y129199D01*
X315335Y129216D01*
X315227Y129305D01*
X315123Y129396D01*
X315105Y129406D01*
X315090Y129419D01*
X314964Y129478D01*
X314840Y129541D01*
X314820Y129546D01*
X314802Y129554D01*
X314666Y129580D01*
X314530Y129611D01*
X314509Y129610D01*
X314490Y129614D01*
X314351Y129605D01*
X314212Y129601D01*
X314192Y129595D01*
X314172Y129594D01*
X314040Y129551D01*
X313906Y129513D01*
X313889Y129502D01*
X313870Y129496D01*
X313752Y129422D01*
X313632Y129351D01*
X313611Y129333D01*
X313601Y129326D01*
X313587Y129311D01*
X313512Y129245D01*
X309494Y125228D01*
X306444Y122177D01*
X294512Y122177D01*
X294482Y122174D01*
X294453Y122176D01*
X294325Y122154D01*
X294196Y122137D01*
X294169Y122127D01*
X294140Y122122D01*
X294021Y122068D01*
X293900Y122020D01*
X293876Y122003D01*
X293850Y121991D01*
X293748Y121910D01*
X293643Y121834D01*
X293624Y121811D01*
X293601Y121792D01*
X293523Y121689D01*
X293440Y121589D01*
X293428Y121562D01*
X293410Y121538D01*
X293339Y121394D01*
X292101Y118405D01*
X287956Y114260D01*
X282542Y112017D01*
X276680Y112017D01*
G37*
%LPD*%
%LPC*%
G36*
X442305Y173117D02*
X442305Y173117D01*
X438250Y174797D01*
X435147Y177900D01*
X433467Y181955D01*
X433467Y186345D01*
X435147Y190400D01*
X438250Y193503D01*
X442305Y195183D01*
X446762Y195183D01*
X446869Y195153D01*
X446899Y195153D01*
X446928Y195147D01*
X447057Y195150D01*
X447187Y195148D01*
X447216Y195155D01*
X447245Y195156D01*
X447370Y195192D01*
X447497Y195223D01*
X447523Y195236D01*
X447551Y195245D01*
X447663Y195311D01*
X447778Y195371D01*
X447800Y195391D01*
X447825Y195406D01*
X447946Y195513D01*
X450696Y198262D01*
X450756Y198341D01*
X450824Y198413D01*
X450853Y198466D01*
X450890Y198514D01*
X450930Y198605D01*
X450978Y198691D01*
X450993Y198750D01*
X451017Y198805D01*
X451032Y198903D01*
X451057Y198999D01*
X451063Y199099D01*
X451067Y199120D01*
X451065Y199132D01*
X451067Y199160D01*
X451067Y212542D01*
X452258Y213733D01*
X471942Y213733D01*
X473133Y212542D01*
X473133Y193858D01*
X471942Y192667D01*
X458560Y192667D01*
X458462Y192655D01*
X458363Y192652D01*
X458304Y192635D01*
X458244Y192627D01*
X458152Y192591D01*
X458057Y192563D01*
X458005Y192533D01*
X457949Y192510D01*
X457869Y192452D01*
X457783Y192402D01*
X457708Y192336D01*
X457691Y192324D01*
X457683Y192314D01*
X457662Y192296D01*
X455013Y189646D01*
X454995Y189623D01*
X454973Y189604D01*
X454898Y189498D01*
X454818Y189395D01*
X454806Y189368D01*
X454789Y189344D01*
X454744Y189223D01*
X454692Y189103D01*
X454687Y189074D01*
X454677Y189046D01*
X454662Y188917D01*
X454642Y188789D01*
X454645Y188760D01*
X454642Y188730D01*
X454660Y188602D01*
X454672Y188473D01*
X454682Y188445D01*
X454686Y188415D01*
X454738Y188263D01*
X455533Y186345D01*
X455533Y181955D01*
X453853Y177900D01*
X450750Y174797D01*
X446695Y173117D01*
X442305Y173117D01*
G37*
%LPD*%
%LPC*%
G36*
X154939Y358539D02*
X154939Y358539D01*
X154939Y389541D01*
X179734Y389541D01*
X180381Y389368D01*
X180960Y389033D01*
X181433Y388560D01*
X181768Y387981D01*
X181941Y387334D01*
X181941Y358539D01*
X154939Y358539D01*
G37*
%LPD*%
%LPC*%
G36*
X122859Y358539D02*
X122859Y358539D01*
X122859Y387334D01*
X123032Y387981D01*
X123367Y388560D01*
X123840Y389033D01*
X124419Y389368D01*
X125066Y389541D01*
X149861Y389541D01*
X149861Y358539D01*
X122859Y358539D01*
G37*
%LPD*%
%LPC*%
G36*
X479880Y404117D02*
X479880Y404117D01*
X474466Y406360D01*
X470321Y410505D01*
X468078Y415919D01*
X468078Y421781D01*
X470321Y427195D01*
X474466Y431340D01*
X479880Y433583D01*
X485742Y433583D01*
X491156Y431340D01*
X495301Y427195D01*
X497544Y421781D01*
X497544Y415919D01*
X495301Y410505D01*
X491156Y406360D01*
X485742Y404117D01*
X479880Y404117D01*
G37*
%LPD*%
%LPC*%
G36*
X429080Y404117D02*
X429080Y404117D01*
X423666Y406360D01*
X419521Y410505D01*
X417278Y415919D01*
X417278Y421781D01*
X419521Y427195D01*
X423666Y431340D01*
X429080Y433583D01*
X434942Y433583D01*
X440356Y431340D01*
X444501Y427195D01*
X446744Y421781D01*
X446744Y415919D01*
X444501Y410505D01*
X440356Y406360D01*
X434942Y404117D01*
X429080Y404117D01*
G37*
%LPD*%
%LPC*%
G36*
X429080Y112017D02*
X429080Y112017D01*
X423666Y114260D01*
X419521Y118405D01*
X417278Y123819D01*
X417278Y129681D01*
X419521Y135095D01*
X423666Y139240D01*
X429080Y141483D01*
X434942Y141483D01*
X440356Y139240D01*
X444501Y135095D01*
X446744Y129681D01*
X446744Y123819D01*
X444501Y118405D01*
X440356Y114260D01*
X434942Y112017D01*
X429080Y112017D01*
G37*
%LPD*%
%LPC*%
G36*
X479880Y112017D02*
X479880Y112017D01*
X474466Y114260D01*
X470321Y118405D01*
X468078Y123819D01*
X468078Y129681D01*
X470321Y135095D01*
X474466Y139240D01*
X479880Y141483D01*
X485742Y141483D01*
X491156Y139240D01*
X495301Y135095D01*
X497544Y129681D01*
X497544Y123819D01*
X495301Y118405D01*
X491156Y114260D01*
X485742Y112017D01*
X479880Y112017D01*
G37*
%LPD*%
%LPC*%
G36*
X518505Y350917D02*
X518505Y350917D01*
X514450Y352597D01*
X511347Y355700D01*
X509667Y359755D01*
X509667Y364145D01*
X511347Y368200D01*
X514450Y371303D01*
X518505Y372983D01*
X522895Y372983D01*
X526950Y371303D01*
X530053Y368200D01*
X531733Y364145D01*
X531733Y359755D01*
X530053Y355700D01*
X526950Y352597D01*
X522895Y350917D01*
X518505Y350917D01*
G37*
%LPD*%
%LPC*%
G36*
X442305Y350917D02*
X442305Y350917D01*
X438250Y352597D01*
X435147Y355700D01*
X433467Y359755D01*
X433467Y364145D01*
X435147Y368200D01*
X438250Y371303D01*
X442305Y372983D01*
X446695Y372983D01*
X450750Y371303D01*
X453853Y368200D01*
X455533Y364145D01*
X455533Y359755D01*
X453853Y355700D01*
X450750Y352597D01*
X446695Y350917D01*
X442305Y350917D01*
G37*
%LPD*%
%LPC*%
G36*
X518505Y249317D02*
X518505Y249317D01*
X514450Y250997D01*
X511347Y254100D01*
X509667Y258155D01*
X509667Y262545D01*
X511347Y266600D01*
X514450Y269703D01*
X518505Y271383D01*
X522895Y271383D01*
X526950Y269703D01*
X530053Y266600D01*
X531733Y262545D01*
X531733Y258155D01*
X530053Y254100D01*
X526950Y250997D01*
X522895Y249317D01*
X518505Y249317D01*
G37*
%LPD*%
%LPC*%
G36*
X518505Y300117D02*
X518505Y300117D01*
X514450Y301797D01*
X511347Y304900D01*
X509667Y308955D01*
X509667Y313345D01*
X511347Y317400D01*
X514450Y320503D01*
X518505Y322183D01*
X522895Y322183D01*
X526950Y320503D01*
X530053Y317400D01*
X531733Y313345D01*
X531733Y308955D01*
X530053Y304900D01*
X526950Y301797D01*
X522895Y300117D01*
X518505Y300117D01*
G37*
%LPD*%
%LPC*%
G36*
X442305Y300117D02*
X442305Y300117D01*
X438250Y301797D01*
X435147Y304900D01*
X433467Y308955D01*
X433467Y313345D01*
X435147Y317400D01*
X438250Y320503D01*
X442305Y322183D01*
X446695Y322183D01*
X450750Y320503D01*
X453853Y317400D01*
X455533Y313345D01*
X455533Y308955D01*
X453853Y304900D01*
X450750Y301797D01*
X446695Y300117D01*
X442305Y300117D01*
G37*
%LPD*%
%LPC*%
G36*
X442305Y249317D02*
X442305Y249317D01*
X438250Y250997D01*
X435147Y254100D01*
X433467Y258155D01*
X433467Y262545D01*
X435147Y266600D01*
X438250Y269703D01*
X442305Y271383D01*
X446695Y271383D01*
X450750Y269703D01*
X453853Y266600D01*
X455533Y262545D01*
X455533Y258155D01*
X453853Y254100D01*
X450750Y250997D01*
X446695Y249317D01*
X442305Y249317D01*
G37*
%LPD*%
%LPC*%
G36*
X110239Y275378D02*
X110239Y275378D01*
X110239Y287877D01*
X110680Y287819D01*
X112610Y287302D01*
X114455Y286537D01*
X116185Y285538D01*
X117770Y284322D01*
X119183Y282909D01*
X120399Y281324D01*
X121398Y279594D01*
X122163Y277749D01*
X122680Y275819D01*
X122738Y275378D01*
X110239Y275378D01*
G37*
%LPD*%
%LPC*%
G36*
X383750Y421389D02*
X383750Y421389D01*
X383750Y433888D01*
X384191Y433830D01*
X386121Y433313D01*
X387966Y432548D01*
X389696Y431549D01*
X391281Y430333D01*
X392694Y428920D01*
X393910Y427335D01*
X394909Y425605D01*
X395674Y423760D01*
X396191Y421830D01*
X396249Y421389D01*
X383750Y421389D01*
G37*
%LPD*%
%LPC*%
G36*
X383750Y129289D02*
X383750Y129289D01*
X383750Y141788D01*
X384191Y141730D01*
X386121Y141213D01*
X387966Y140448D01*
X389696Y139449D01*
X391281Y138233D01*
X392694Y136820D01*
X393910Y135235D01*
X394909Y133505D01*
X395674Y131660D01*
X396191Y129730D01*
X396249Y129289D01*
X383750Y129289D01*
G37*
%LPD*%
%LPC*%
G36*
X110239Y270300D02*
X110239Y270300D01*
X122738Y270300D01*
X122680Y269859D01*
X122163Y267929D01*
X121398Y266084D01*
X120399Y264354D01*
X119183Y262769D01*
X117770Y261356D01*
X116185Y260140D01*
X114455Y259141D01*
X112610Y258376D01*
X110680Y257859D01*
X110239Y257801D01*
X110239Y270300D01*
G37*
%LPD*%
%LPC*%
G36*
X92662Y275378D02*
X92662Y275378D01*
X92720Y275819D01*
X93237Y277749D01*
X94002Y279594D01*
X95001Y281324D01*
X96217Y282909D01*
X97630Y284322D01*
X99215Y285538D01*
X100945Y286537D01*
X102790Y287302D01*
X104720Y287819D01*
X105161Y287877D01*
X105161Y275378D01*
X92662Y275378D01*
G37*
%LPD*%
%LPC*%
G36*
X366173Y421389D02*
X366173Y421389D01*
X366231Y421830D01*
X366748Y423760D01*
X367513Y425605D01*
X368512Y427335D01*
X369728Y428920D01*
X371141Y430333D01*
X372726Y431549D01*
X374456Y432548D01*
X376301Y433313D01*
X378231Y433830D01*
X378672Y433888D01*
X378672Y421389D01*
X366173Y421389D01*
G37*
%LPD*%
%LPC*%
G36*
X366173Y129289D02*
X366173Y129289D01*
X366231Y129730D01*
X366748Y131660D01*
X367513Y133505D01*
X368512Y135235D01*
X369728Y136820D01*
X371141Y138233D01*
X372726Y139449D01*
X374456Y140448D01*
X376301Y141213D01*
X378231Y141730D01*
X378672Y141788D01*
X378672Y129289D01*
X366173Y129289D01*
G37*
%LPD*%
%LPC*%
G36*
X383750Y124211D02*
X383750Y124211D01*
X396249Y124211D01*
X396191Y123770D01*
X395674Y121840D01*
X394909Y119995D01*
X393910Y118265D01*
X392694Y116680D01*
X391281Y115267D01*
X389696Y114051D01*
X387966Y113052D01*
X386121Y112287D01*
X384191Y111770D01*
X383750Y111712D01*
X383750Y124211D01*
G37*
%LPD*%
%LPC*%
G36*
X383750Y416311D02*
X383750Y416311D01*
X396249Y416311D01*
X396191Y415870D01*
X395674Y413940D01*
X394909Y412095D01*
X393910Y410365D01*
X392694Y408780D01*
X391281Y407367D01*
X389696Y406151D01*
X387966Y405152D01*
X386121Y404387D01*
X384191Y403870D01*
X383750Y403812D01*
X383750Y416311D01*
G37*
%LPD*%
%LPC*%
G36*
X104720Y257859D02*
X104720Y257859D01*
X102790Y258376D01*
X100945Y259141D01*
X99215Y260140D01*
X97630Y261356D01*
X96217Y262769D01*
X95001Y264354D01*
X94002Y266084D01*
X93237Y267929D01*
X92720Y269859D01*
X92662Y270300D01*
X105161Y270300D01*
X105161Y257801D01*
X104720Y257859D01*
G37*
%LPD*%
%LPC*%
G36*
X378231Y403870D02*
X378231Y403870D01*
X376301Y404387D01*
X374456Y405152D01*
X372726Y406151D01*
X371141Y407367D01*
X369728Y408780D01*
X368512Y410365D01*
X367513Y412095D01*
X366748Y413940D01*
X366231Y415870D01*
X366173Y416311D01*
X378672Y416311D01*
X378672Y403812D01*
X378231Y403870D01*
G37*
%LPD*%
%LPC*%
G36*
X378231Y111770D02*
X378231Y111770D01*
X376301Y112287D01*
X374456Y113052D01*
X372726Y114051D01*
X371141Y115267D01*
X369728Y116680D01*
X368512Y118265D01*
X367513Y119995D01*
X366748Y121840D01*
X366231Y123770D01*
X366173Y124211D01*
X378672Y124211D01*
X378672Y111712D01*
X378231Y111770D01*
G37*
%LPD*%
%LPC*%
G36*
X167063Y262381D02*
X167063Y262381D01*
X167146Y262908D01*
X167677Y264543D01*
X168458Y266075D01*
X169469Y267466D01*
X170684Y268681D01*
X172075Y269692D01*
X173607Y270473D01*
X175242Y271004D01*
X175769Y271087D01*
X175769Y262381D01*
X167063Y262381D01*
G37*
%LPD*%
%LPC*%
G36*
X175242Y249696D02*
X175242Y249696D01*
X173607Y250227D01*
X172075Y251008D01*
X170684Y252019D01*
X169469Y253234D01*
X168458Y254625D01*
X167677Y256157D01*
X167146Y257792D01*
X167063Y258319D01*
X175769Y258319D01*
X175769Y249613D01*
X175242Y249696D01*
G37*
%LPD*%
%LPC*%
G36*
X198881Y433831D02*
X198881Y433831D01*
X198881Y442342D01*
X201217Y442342D01*
X207392Y436167D01*
X207392Y433831D01*
X198881Y433831D01*
G37*
%LPD*%
%LPC*%
G36*
X186308Y433831D02*
X186308Y433831D01*
X186308Y436167D01*
X192483Y442342D01*
X194819Y442342D01*
X194819Y433831D01*
X186308Y433831D01*
G37*
%LPD*%
%LPC*%
G36*
X198881Y421258D02*
X198881Y421258D01*
X198881Y429769D01*
X207392Y429769D01*
X207392Y427433D01*
X201217Y421258D01*
X198881Y421258D01*
G37*
%LPD*%
%LPC*%
G36*
X192483Y421258D02*
X192483Y421258D01*
X186308Y427433D01*
X186308Y429769D01*
X194819Y429769D01*
X194819Y421258D01*
X192483Y421258D01*
G37*
%LPD*%
%LPC*%
G36*
X205231Y103631D02*
X205231Y103631D01*
X205231Y111951D01*
X205669Y111882D01*
X207247Y111369D01*
X208725Y110616D01*
X210067Y109641D01*
X211241Y108467D01*
X212216Y107125D01*
X212969Y105647D01*
X213482Y104069D01*
X213551Y103631D01*
X205231Y103631D01*
G37*
%LPD*%
%LPC*%
G36*
X192849Y103631D02*
X192849Y103631D01*
X192918Y104069D01*
X193431Y105647D01*
X194184Y107125D01*
X195159Y108467D01*
X196333Y109641D01*
X197675Y110616D01*
X199153Y111369D01*
X200731Y111882D01*
X201169Y111951D01*
X201169Y103631D01*
X192849Y103631D01*
G37*
%LPD*%
%LPC*%
G36*
X205231Y99569D02*
X205231Y99569D01*
X213551Y99569D01*
X213482Y99131D01*
X212969Y97553D01*
X212216Y96075D01*
X211241Y94733D01*
X210067Y93559D01*
X208725Y92584D01*
X207247Y91831D01*
X205669Y91318D01*
X205231Y91249D01*
X205231Y99569D01*
G37*
%LPD*%
%LPC*%
G36*
X200731Y91318D02*
X200731Y91318D01*
X199153Y91831D01*
X197675Y92584D01*
X196333Y93559D01*
X195159Y94733D01*
X194184Y96075D01*
X193431Y97553D01*
X192918Y99131D01*
X192849Y99569D01*
X201169Y99569D01*
X201169Y91249D01*
X200731Y91318D01*
G37*
%LPD*%
%LPC*%
G36*
X240639Y389889D02*
X240639Y389889D01*
X240639Y397391D01*
X244934Y397391D01*
X245581Y397218D01*
X246160Y396883D01*
X246633Y396410D01*
X246968Y395831D01*
X247141Y395184D01*
X247141Y389889D01*
X240639Y389889D01*
G37*
%LPD*%
%LPC*%
G36*
X240639Y377309D02*
X240639Y377309D01*
X240639Y384811D01*
X247141Y384811D01*
X247141Y379516D01*
X246968Y378869D01*
X246633Y378290D01*
X246160Y377817D01*
X245581Y377482D01*
X244934Y377309D01*
X240639Y377309D01*
G37*
%LPD*%
%LPC*%
G36*
X273559Y383539D02*
X273559Y383539D01*
X273559Y388834D01*
X273732Y389481D01*
X274067Y390060D01*
X274540Y390533D01*
X275119Y390868D01*
X275766Y391041D01*
X280061Y391041D01*
X280061Y383539D01*
X273559Y383539D01*
G37*
%LPD*%
%LPC*%
G36*
X275766Y370959D02*
X275766Y370959D01*
X275119Y371132D01*
X274540Y371467D01*
X274067Y371940D01*
X273732Y372519D01*
X273559Y373166D01*
X273559Y378461D01*
X280061Y378461D01*
X280061Y370959D01*
X275766Y370959D01*
G37*
%LPD*%
%LPC*%
G36*
X132099Y202899D02*
X132099Y202899D01*
X132099Y210941D01*
X134934Y210941D01*
X135581Y210768D01*
X136160Y210433D01*
X136633Y209960D01*
X136968Y209381D01*
X137141Y208734D01*
X137141Y202899D01*
X132099Y202899D01*
G37*
%LPD*%
%LPC*%
G36*
X132099Y189859D02*
X132099Y189859D01*
X132099Y197901D01*
X137141Y197901D01*
X137141Y192066D01*
X136968Y191419D01*
X136633Y190840D01*
X136160Y190367D01*
X135581Y190032D01*
X134934Y189859D01*
X132099Y189859D01*
G37*
%LPD*%
%LPC*%
G36*
X122059Y202899D02*
X122059Y202899D01*
X122059Y208734D01*
X122232Y209381D01*
X122567Y209960D01*
X123040Y210433D01*
X123619Y210768D01*
X124266Y210941D01*
X127101Y210941D01*
X127101Y202899D01*
X122059Y202899D01*
G37*
%LPD*%
%LPC*%
G36*
X124266Y189859D02*
X124266Y189859D01*
X123619Y190032D01*
X123040Y190367D01*
X122567Y190840D01*
X122232Y191419D01*
X122059Y192066D01*
X122059Y197901D01*
X127101Y197901D01*
X127101Y189859D01*
X124266Y189859D01*
G37*
%LPD*%
%LPC*%
G36*
X107699Y272838D02*
X107699Y272838D01*
X107699Y272840D01*
X107701Y272840D01*
X107701Y272838D01*
X107699Y272838D01*
G37*
%LPD*%
%LPC*%
G36*
X381210Y418849D02*
X381210Y418849D01*
X381210Y418851D01*
X381212Y418851D01*
X381212Y418849D01*
X381210Y418849D01*
G37*
%LPD*%
%LPC*%
G36*
X381210Y126749D02*
X381210Y126749D01*
X381210Y126751D01*
X381212Y126751D01*
X381212Y126749D01*
X381210Y126749D01*
G37*
%LPD*%
%LPC*%
G36*
X152399Y355999D02*
X152399Y355999D01*
X152399Y356001D01*
X152401Y356001D01*
X152401Y355999D01*
X152399Y355999D01*
G37*
%LPD*%
D10*
X196850Y431800D03*
D11*
X196850Y406400D03*
D10*
X203200Y127000D03*
D11*
X203200Y101600D03*
D12*
X219100Y387350D03*
X238100Y387350D03*
X282600Y381000D03*
X301600Y381000D03*
D13*
X317297Y302547D03*
X317297Y268547D03*
X209550Y302750D03*
X209550Y268750D03*
X317500Y325900D03*
X317500Y359900D03*
X209550Y359900D03*
X209550Y325900D03*
D14*
X177800Y260350D03*
X177800Y311150D03*
X177800Y285750D03*
D15*
X107700Y222039D03*
X107700Y272839D03*
X107700Y323639D03*
D16*
X211600Y165100D03*
X245600Y165100D03*
X275100Y165100D03*
X309100Y165100D03*
D13*
X209753Y232697D03*
X209753Y198697D03*
X317703Y199103D03*
X317703Y233103D03*
D17*
X503100Y203200D03*
X462100Y203200D03*
D18*
X444500Y184150D03*
X520700Y184150D03*
X520700Y260350D03*
X520700Y311150D03*
X520700Y361950D03*
X444500Y260350D03*
X444500Y311150D03*
X444500Y361950D03*
D15*
X482811Y418850D03*
X432011Y418850D03*
X381211Y418850D03*
X330411Y418850D03*
X279611Y418850D03*
X482811Y126750D03*
X432011Y126750D03*
X381211Y126750D03*
X330411Y126750D03*
X279611Y126750D03*
D19*
X152400Y356000D03*
D20*
X129600Y429000D03*
X175200Y429000D03*
D19*
X152400Y127400D03*
D20*
X129600Y200400D03*
X175200Y200400D03*
D21*
X129600Y428050D02*
X129600Y429000D01*
X107700Y406150D02*
X107700Y323639D01*
X107700Y406150D02*
X129600Y428050D01*
X107700Y222039D02*
X107700Y159000D01*
X139300Y127400D02*
X152400Y127400D01*
X139300Y127400D02*
X107700Y159000D01*
D22*
X317500Y342900D03*
D21*
X317500Y355600D01*
X317500Y359900D01*
X317297Y268547D02*
X315653Y268547D01*
X304800Y279400D01*
X304800Y292578D01*
X303725Y293653D01*
X303725Y341825D01*
X317500Y355600D01*
X317703Y254000D02*
X317703Y233103D01*
X317703Y254000D02*
X317703Y268140D01*
X317297Y268547D01*
D22*
X317703Y254000D03*
D21*
X317703Y233103D02*
X309303Y233103D01*
X298450Y222250D01*
X298450Y175750D01*
X309100Y165100D01*
X311150Y171450D01*
X177800Y197800D02*
X175200Y200400D01*
X177800Y197800D02*
X177800Y177800D01*
X298450Y146050D02*
X309100Y156700D01*
X309100Y165100D01*
X317500Y365100D02*
X301600Y381000D01*
X317500Y365100D02*
X317500Y359900D01*
X196850Y158750D02*
X196850Y152400D01*
X203200Y146050D01*
X196850Y158750D02*
X177800Y177800D01*
X203200Y146050D02*
X298450Y146050D01*
X203200Y146050D02*
X203200Y127000D01*
D22*
X260350Y241300D03*
D21*
X251747Y232697D02*
X209753Y232697D01*
X251747Y232697D02*
X260350Y241300D01*
X219100Y387350D02*
X219100Y403200D01*
D22*
X222686Y336986D03*
D21*
X209550Y350122D02*
X209550Y359900D01*
X209550Y350122D02*
X222686Y336986D01*
X222686Y335230D01*
X223122Y334794D01*
X222686Y336986D02*
X220930Y336986D01*
X220444Y337472D01*
X197772Y337472D01*
X190500Y330200D01*
X190500Y322086D01*
X196596Y315990D01*
X196596Y311404D01*
X203200Y304800D01*
X207500Y304800D01*
X209550Y302750D01*
X209550Y359900D02*
X209550Y377800D01*
X219100Y387350D01*
X211600Y173500D02*
X211600Y165100D01*
X209550Y293864D02*
X209550Y302750D01*
X209550Y293864D02*
X192793Y277107D01*
X192793Y249657D01*
X209753Y232697D01*
X520700Y203200D02*
X520700Y184150D01*
X520700Y203200D02*
X520700Y228600D01*
X209753Y232697D02*
X207297Y232697D01*
X190500Y215900D01*
X190500Y186200D01*
X211600Y165100D01*
X503100Y203200D02*
X520700Y203200D01*
X196850Y406400D02*
X175200Y428050D01*
X175200Y429000D01*
X196850Y406400D02*
X215900Y406400D01*
X219100Y403200D01*
X219100Y422300D01*
X241300Y444500D01*
X469900Y381000D02*
X469900Y279400D01*
X469900Y381000D02*
X457200Y393700D01*
X457200Y431800D01*
X444500Y444500D01*
X241300Y444500D01*
X469900Y279400D02*
X520700Y228600D01*
D22*
X260350Y304800D03*
D21*
X273050Y317500D01*
D22*
X273050Y317500D03*
X260350Y203200D03*
D21*
X273050Y215900D01*
D22*
X273050Y215900D03*
D21*
X260350Y260350D02*
X260350Y304800D01*
X273050Y247650D02*
X273050Y215900D01*
X273050Y247650D02*
X260350Y260350D01*
X177800Y311150D02*
X139700Y273050D01*
D22*
X139700Y228600D03*
D21*
X139700Y273050D01*
X444500Y185600D02*
X462100Y203200D01*
X444500Y185600D02*
X444500Y184150D01*
D22*
X387350Y323850D03*
D21*
X368300Y304800D01*
X319550Y304800D01*
X317297Y302547D01*
X317297Y285953D01*
X317500Y285750D01*
D22*
X317500Y285750D03*
D21*
X317297Y302547D02*
X315247Y302547D01*
X230650Y268750D02*
X209550Y268750D01*
X230650Y268750D02*
X241300Y279400D01*
D22*
X241300Y279400D03*
X336550Y323850D03*
D21*
X334500Y325900D02*
X317500Y325900D01*
X334500Y325900D02*
X336550Y323850D01*
X262400Y325900D02*
X209550Y325900D01*
X262400Y325900D02*
X266700Y330200D01*
D22*
X266700Y330200D03*
X387350Y222250D03*
D21*
X361950Y222250D01*
X331275Y191575D01*
X331275Y190209D01*
X328597Y187531D01*
X320881Y187531D01*
X318372Y185022D01*
D22*
X318372Y185022D03*
X266700Y190500D03*
D21*
X266700Y165100D02*
X245600Y165100D01*
X266700Y165100D02*
X275100Y165100D01*
X266700Y165100D02*
X266700Y190500D01*
X317703Y199103D02*
X317703Y215697D01*
X317500Y215900D01*
X330200Y215900D01*
X336550Y222250D01*
D22*
X336550Y222250D03*
D21*
X209753Y209753D02*
X209753Y198697D01*
X209753Y209753D02*
X225585Y225585D01*
X257335Y225585D01*
X260350Y228600D01*
X264696Y228600D01*
D22*
X264696Y228600D03*
X273050Y355600D03*
D21*
X273050Y352958D01*
X292100Y333908D02*
X292100Y279400D01*
X292100Y333908D02*
X273050Y352958D01*
X285750Y279400D02*
X292100Y279400D01*
X285750Y279400D02*
X273050Y266700D01*
D22*
X273050Y266700D03*
D21*
X330411Y126750D02*
X419100Y215439D01*
X336800Y418850D02*
X330411Y418850D01*
X419100Y336550D02*
X419100Y215439D01*
X419100Y336550D02*
X336800Y418850D01*
X292350Y418850D02*
X279611Y418850D01*
X292350Y418850D02*
X368300Y342900D01*
X393700Y342900D01*
X406400Y330200D01*
X406400Y228600D02*
X304550Y126750D01*
X279611Y126750D01*
X406400Y228600D02*
X406400Y330200D01*
M02*
