M48
;GenerationSoftware,Autodesk,EAGLE,8.7.0*%
;CreationDate,2018-05-23T13:35:30Z*%
FMAT,2
ICI,OFF
METRIC,TZ,000.000
T5C0.350
T4C0.813
T3C1.000
T2C1.300
T1C3.200
%
G90
M71
T1
X9525Y44450
X9525Y10160
X53340Y10795
X53340Y44450
T2
X33041Y12675
X38121Y12675
X43201Y12675
X48281Y12675
X27961Y41885
X27961Y12675
X38121Y41885
X43201Y41885
X48281Y41885
X33041Y41885
X10770Y32364
X10770Y27284
X10770Y22204
T3
X44450Y26035
X44450Y36195
X44450Y31115
X52070Y36195
X52070Y31115
X52070Y26035
X52070Y18415
X44450Y18415
T4
X19685Y43180
X19685Y40640
X20320Y12700
X20320Y10160
X17780Y26035
X17780Y31115
X17780Y28575
T5
X27305Y26670
X27305Y35560
X26470Y22860
X33655Y22225
X26670Y19050
X31837Y18502
X38735Y22225
X26670Y33020
X33655Y32385
X24130Y27940
X31750Y28575
X38735Y32385
X13970Y22860
X27305Y21590
X26035Y20320
X27305Y31750
X26035Y30480
X22269Y33699
X26035Y24130
X31770Y25400
X31750Y34290
M30