G04 EAGLE Gerber X2 export*
%TF.Part,Single*%
%TF.FileFunction,Legend,Top,1*%
%TF.FilePolarity,Positive*%
%TF.GenerationSoftware,Autodesk,EAGLE,8.7.0*%
%TF.CreationDate,2018-05-23T13:35:31Z*%
G75*
%MOMM*%
%FSLAX34Y34*%
%LPD*%
%AMOC8*
5,1,8,0,0,1.08239X$1,22.5*%
G01*
%ADD10C,0.152400*%
%ADD11C,0.127000*%
%ADD12C,0.050800*%
%ADD13C,0.076200*%
%ADD14C,0.012700*%
%ADD15C,0.203200*%
%ADD16C,0.101600*%


D10*
X196850Y388620D02*
X196850Y396240D01*
X200660Y392430D02*
X193040Y392430D01*
X162560Y419100D02*
X162570Y419942D01*
X162601Y420783D01*
X162653Y421623D01*
X162725Y422461D01*
X162818Y423297D01*
X162931Y424131D01*
X163065Y424962D01*
X163219Y425790D01*
X163393Y426613D01*
X163588Y427432D01*
X163802Y428246D01*
X164037Y429054D01*
X164291Y429856D01*
X164564Y430652D01*
X164858Y431441D01*
X165170Y432222D01*
X165502Y432996D01*
X165852Y433761D01*
X166221Y434517D01*
X166609Y435264D01*
X167015Y436001D01*
X167438Y436729D01*
X167880Y437445D01*
X168339Y438151D01*
X168815Y438844D01*
X169308Y439527D01*
X169818Y440196D01*
X170343Y440853D01*
X170885Y441497D01*
X171443Y442128D01*
X172016Y442744D01*
X172603Y443347D01*
X173206Y443934D01*
X173822Y444507D01*
X174453Y445065D01*
X175097Y445607D01*
X175754Y446132D01*
X176423Y446642D01*
X177106Y447135D01*
X177799Y447611D01*
X178505Y448070D01*
X179221Y448512D01*
X179949Y448935D01*
X180686Y449341D01*
X181433Y449729D01*
X182189Y450098D01*
X182954Y450448D01*
X183728Y450780D01*
X184509Y451092D01*
X185298Y451386D01*
X186094Y451659D01*
X186896Y451913D01*
X187704Y452148D01*
X188518Y452362D01*
X189337Y452557D01*
X190160Y452731D01*
X190988Y452885D01*
X191819Y453019D01*
X192653Y453132D01*
X193489Y453225D01*
X194327Y453297D01*
X195167Y453349D01*
X196008Y453380D01*
X196850Y453390D01*
X197692Y453380D01*
X198533Y453349D01*
X199373Y453297D01*
X200211Y453225D01*
X201047Y453132D01*
X201881Y453019D01*
X202712Y452885D01*
X203540Y452731D01*
X204363Y452557D01*
X205182Y452362D01*
X205996Y452148D01*
X206804Y451913D01*
X207606Y451659D01*
X208402Y451386D01*
X209191Y451092D01*
X209972Y450780D01*
X210746Y450448D01*
X211511Y450098D01*
X212267Y449729D01*
X213014Y449341D01*
X213751Y448935D01*
X214479Y448512D01*
X215195Y448070D01*
X215901Y447611D01*
X216594Y447135D01*
X217277Y446642D01*
X217946Y446132D01*
X218603Y445607D01*
X219247Y445065D01*
X219878Y444507D01*
X220494Y443934D01*
X221097Y443347D01*
X221684Y442744D01*
X222257Y442128D01*
X222815Y441497D01*
X223357Y440853D01*
X223882Y440196D01*
X224392Y439527D01*
X224885Y438844D01*
X225361Y438151D01*
X225820Y437445D01*
X226262Y436729D01*
X226685Y436001D01*
X227091Y435264D01*
X227479Y434517D01*
X227848Y433761D01*
X228198Y432996D01*
X228530Y432222D01*
X228842Y431441D01*
X229136Y430652D01*
X229409Y429856D01*
X229663Y429054D01*
X229898Y428246D01*
X230112Y427432D01*
X230307Y426613D01*
X230481Y425790D01*
X230635Y424962D01*
X230769Y424131D01*
X230882Y423297D01*
X230975Y422461D01*
X231047Y421623D01*
X231099Y420783D01*
X231130Y419942D01*
X231140Y419100D01*
X231130Y418258D01*
X231099Y417417D01*
X231047Y416577D01*
X230975Y415739D01*
X230882Y414903D01*
X230769Y414069D01*
X230635Y413238D01*
X230481Y412410D01*
X230307Y411587D01*
X230112Y410768D01*
X229898Y409954D01*
X229663Y409146D01*
X229409Y408344D01*
X229136Y407548D01*
X228842Y406759D01*
X228530Y405978D01*
X228198Y405204D01*
X227848Y404439D01*
X227479Y403683D01*
X227091Y402936D01*
X226685Y402199D01*
X226262Y401471D01*
X225820Y400755D01*
X225361Y400049D01*
X224885Y399356D01*
X224392Y398673D01*
X223882Y398004D01*
X223357Y397347D01*
X222815Y396703D01*
X222257Y396072D01*
X221684Y395456D01*
X221097Y394853D01*
X220494Y394266D01*
X219878Y393693D01*
X219247Y393135D01*
X218603Y392593D01*
X217946Y392068D01*
X217277Y391558D01*
X216594Y391065D01*
X215901Y390589D01*
X215195Y390130D01*
X214479Y389688D01*
X213751Y389265D01*
X213014Y388859D01*
X212267Y388471D01*
X211511Y388102D01*
X210746Y387752D01*
X209972Y387420D01*
X209191Y387108D01*
X208402Y386814D01*
X207606Y386541D01*
X206804Y386287D01*
X205996Y386052D01*
X205182Y385838D01*
X204363Y385643D01*
X203540Y385469D01*
X202712Y385315D01*
X201881Y385181D01*
X201047Y385068D01*
X200211Y384975D01*
X199373Y384903D01*
X198533Y384851D01*
X197692Y384820D01*
X196850Y384810D01*
X196008Y384820D01*
X195167Y384851D01*
X194327Y384903D01*
X193489Y384975D01*
X192653Y385068D01*
X191819Y385181D01*
X190988Y385315D01*
X190160Y385469D01*
X189337Y385643D01*
X188518Y385838D01*
X187704Y386052D01*
X186896Y386287D01*
X186094Y386541D01*
X185298Y386814D01*
X184509Y387108D01*
X183728Y387420D01*
X182954Y387752D01*
X182189Y388102D01*
X181433Y388471D01*
X180686Y388859D01*
X179949Y389265D01*
X179221Y389688D01*
X178505Y390130D01*
X177799Y390589D01*
X177106Y391065D01*
X176423Y391558D01*
X175754Y392068D01*
X175097Y392593D01*
X174453Y393135D01*
X173822Y393693D01*
X173206Y394266D01*
X172603Y394853D01*
X172016Y395456D01*
X171443Y396072D01*
X170885Y396703D01*
X170343Y397347D01*
X169818Y398004D01*
X169308Y398673D01*
X168815Y399356D01*
X168339Y400049D01*
X167880Y400755D01*
X167438Y401471D01*
X167015Y402199D01*
X166609Y402936D01*
X166221Y403683D01*
X165852Y404439D01*
X165502Y405204D01*
X165170Y405978D01*
X164858Y406759D01*
X164564Y407548D01*
X164291Y408344D01*
X164037Y409146D01*
X163802Y409954D01*
X163588Y410768D01*
X163393Y411587D01*
X163219Y412410D01*
X163065Y413238D01*
X162931Y414069D01*
X162818Y414903D01*
X162725Y415739D01*
X162653Y416577D01*
X162601Y417417D01*
X162570Y418258D01*
X162560Y419100D01*
D11*
X162560Y234950D02*
X162560Y184150D01*
X162560Y234950D02*
X193040Y234950D01*
X193040Y184150D01*
X162560Y184150D01*
D10*
X203200Y91440D02*
X203200Y83820D01*
X207010Y87630D02*
X199390Y87630D01*
X168910Y114300D02*
X168920Y115142D01*
X168951Y115983D01*
X169003Y116823D01*
X169075Y117661D01*
X169168Y118497D01*
X169281Y119331D01*
X169415Y120162D01*
X169569Y120990D01*
X169743Y121813D01*
X169938Y122632D01*
X170152Y123446D01*
X170387Y124254D01*
X170641Y125056D01*
X170914Y125852D01*
X171208Y126641D01*
X171520Y127422D01*
X171852Y128196D01*
X172202Y128961D01*
X172571Y129717D01*
X172959Y130464D01*
X173365Y131201D01*
X173788Y131929D01*
X174230Y132645D01*
X174689Y133351D01*
X175165Y134044D01*
X175658Y134727D01*
X176168Y135396D01*
X176693Y136053D01*
X177235Y136697D01*
X177793Y137328D01*
X178366Y137944D01*
X178953Y138547D01*
X179556Y139134D01*
X180172Y139707D01*
X180803Y140265D01*
X181447Y140807D01*
X182104Y141332D01*
X182773Y141842D01*
X183456Y142335D01*
X184149Y142811D01*
X184855Y143270D01*
X185571Y143712D01*
X186299Y144135D01*
X187036Y144541D01*
X187783Y144929D01*
X188539Y145298D01*
X189304Y145648D01*
X190078Y145980D01*
X190859Y146292D01*
X191648Y146586D01*
X192444Y146859D01*
X193246Y147113D01*
X194054Y147348D01*
X194868Y147562D01*
X195687Y147757D01*
X196510Y147931D01*
X197338Y148085D01*
X198169Y148219D01*
X199003Y148332D01*
X199839Y148425D01*
X200677Y148497D01*
X201517Y148549D01*
X202358Y148580D01*
X203200Y148590D01*
X204042Y148580D01*
X204883Y148549D01*
X205723Y148497D01*
X206561Y148425D01*
X207397Y148332D01*
X208231Y148219D01*
X209062Y148085D01*
X209890Y147931D01*
X210713Y147757D01*
X211532Y147562D01*
X212346Y147348D01*
X213154Y147113D01*
X213956Y146859D01*
X214752Y146586D01*
X215541Y146292D01*
X216322Y145980D01*
X217096Y145648D01*
X217861Y145298D01*
X218617Y144929D01*
X219364Y144541D01*
X220101Y144135D01*
X220829Y143712D01*
X221545Y143270D01*
X222251Y142811D01*
X222944Y142335D01*
X223627Y141842D01*
X224296Y141332D01*
X224953Y140807D01*
X225597Y140265D01*
X226228Y139707D01*
X226844Y139134D01*
X227447Y138547D01*
X228034Y137944D01*
X228607Y137328D01*
X229165Y136697D01*
X229707Y136053D01*
X230232Y135396D01*
X230742Y134727D01*
X231235Y134044D01*
X231711Y133351D01*
X232170Y132645D01*
X232612Y131929D01*
X233035Y131201D01*
X233441Y130464D01*
X233829Y129717D01*
X234198Y128961D01*
X234548Y128196D01*
X234880Y127422D01*
X235192Y126641D01*
X235486Y125852D01*
X235759Y125056D01*
X236013Y124254D01*
X236248Y123446D01*
X236462Y122632D01*
X236657Y121813D01*
X236831Y120990D01*
X236985Y120162D01*
X237119Y119331D01*
X237232Y118497D01*
X237325Y117661D01*
X237397Y116823D01*
X237449Y115983D01*
X237480Y115142D01*
X237490Y114300D01*
X237480Y113458D01*
X237449Y112617D01*
X237397Y111777D01*
X237325Y110939D01*
X237232Y110103D01*
X237119Y109269D01*
X236985Y108438D01*
X236831Y107610D01*
X236657Y106787D01*
X236462Y105968D01*
X236248Y105154D01*
X236013Y104346D01*
X235759Y103544D01*
X235486Y102748D01*
X235192Y101959D01*
X234880Y101178D01*
X234548Y100404D01*
X234198Y99639D01*
X233829Y98883D01*
X233441Y98136D01*
X233035Y97399D01*
X232612Y96671D01*
X232170Y95955D01*
X231711Y95249D01*
X231235Y94556D01*
X230742Y93873D01*
X230232Y93204D01*
X229707Y92547D01*
X229165Y91903D01*
X228607Y91272D01*
X228034Y90656D01*
X227447Y90053D01*
X226844Y89466D01*
X226228Y88893D01*
X225597Y88335D01*
X224953Y87793D01*
X224296Y87268D01*
X223627Y86758D01*
X222944Y86265D01*
X222251Y85789D01*
X221545Y85330D01*
X220829Y84888D01*
X220101Y84465D01*
X219364Y84059D01*
X218617Y83671D01*
X217861Y83302D01*
X217096Y82952D01*
X216322Y82620D01*
X215541Y82308D01*
X214752Y82014D01*
X213956Y81741D01*
X213154Y81487D01*
X212346Y81252D01*
X211532Y81038D01*
X210713Y80843D01*
X209890Y80669D01*
X209062Y80515D01*
X208231Y80381D01*
X207397Y80268D01*
X206561Y80175D01*
X205723Y80103D01*
X204883Y80051D01*
X204042Y80020D01*
X203200Y80010D01*
X202358Y80020D01*
X201517Y80051D01*
X200677Y80103D01*
X199839Y80175D01*
X199003Y80268D01*
X198169Y80381D01*
X197338Y80515D01*
X196510Y80669D01*
X195687Y80843D01*
X194868Y81038D01*
X194054Y81252D01*
X193246Y81487D01*
X192444Y81741D01*
X191648Y82014D01*
X190859Y82308D01*
X190078Y82620D01*
X189304Y82952D01*
X188539Y83302D01*
X187783Y83671D01*
X187036Y84059D01*
X186299Y84465D01*
X185571Y84888D01*
X184855Y85330D01*
X184149Y85789D01*
X183456Y86265D01*
X182773Y86758D01*
X182104Y87268D01*
X181447Y87793D01*
X180803Y88335D01*
X180172Y88893D01*
X179556Y89466D01*
X178953Y90053D01*
X178366Y90656D01*
X177793Y91272D01*
X177235Y91903D01*
X176693Y92547D01*
X176168Y93204D01*
X175658Y93873D01*
X175165Y94556D01*
X174689Y95249D01*
X174230Y95955D01*
X173788Y96671D01*
X173365Y97399D01*
X172959Y98136D01*
X172571Y98883D01*
X172202Y99639D01*
X171852Y100404D01*
X171520Y101178D01*
X171208Y101959D01*
X170914Y102748D01*
X170641Y103544D01*
X170387Y104346D01*
X170152Y105154D01*
X169938Y105968D01*
X169743Y106787D01*
X169569Y107610D01*
X169415Y108438D01*
X169281Y109269D01*
X169168Y110103D01*
X169075Y110939D01*
X169003Y111777D01*
X168951Y112617D01*
X168920Y113458D01*
X168910Y114300D01*
D12*
X422580Y278720D02*
X422580Y318180D01*
X402920Y318180D02*
X402920Y278720D01*
X402920Y318180D02*
X422580Y318180D01*
X422580Y278720D02*
X402920Y278720D01*
D13*
X396613Y297184D02*
X398181Y298752D01*
X396613Y297184D02*
X396613Y294049D01*
X398181Y292481D01*
X404451Y292481D01*
X406019Y294049D01*
X406019Y297184D01*
X404451Y298752D01*
X396613Y301836D02*
X396613Y308107D01*
X396613Y301836D02*
X401316Y301836D01*
X399748Y304972D01*
X399748Y306539D01*
X401316Y308107D01*
X404451Y308107D01*
X406019Y306539D01*
X406019Y303404D01*
X404451Y301836D01*
D12*
X397180Y318180D02*
X397180Y278720D01*
X377520Y278720D02*
X377520Y318180D01*
X397180Y318180D01*
X397180Y278720D02*
X377520Y278720D01*
D13*
X371213Y297184D02*
X372781Y298752D01*
X371213Y297184D02*
X371213Y294049D01*
X372781Y292481D01*
X379051Y292481D01*
X380619Y294049D01*
X380619Y297184D01*
X379051Y298752D01*
X372781Y304972D02*
X371213Y308107D01*
X372781Y304972D02*
X375916Y301836D01*
X379051Y301836D01*
X380619Y303404D01*
X380619Y306539D01*
X379051Y308107D01*
X377484Y308107D01*
X375916Y306539D01*
X375916Y301836D01*
D12*
X371780Y318180D02*
X371780Y278720D01*
X352120Y278720D02*
X352120Y318180D01*
X371780Y318180D01*
X371780Y278720D02*
X352120Y278720D01*
D13*
X345813Y297184D02*
X347381Y298752D01*
X345813Y297184D02*
X345813Y294049D01*
X347381Y292481D01*
X353651Y292481D01*
X355219Y294049D01*
X355219Y297184D01*
X353651Y298752D01*
X345813Y301836D02*
X345813Y308107D01*
X347381Y308107D01*
X353651Y301836D01*
X355219Y301836D01*
D12*
X346380Y318180D02*
X346380Y278720D01*
X326720Y278720D02*
X326720Y318180D01*
X346380Y318180D01*
X346380Y278720D02*
X326720Y278720D01*
D13*
X317873Y297524D02*
X319441Y299091D01*
X317873Y297524D02*
X317873Y294388D01*
X319441Y292821D01*
X325711Y292821D01*
X327279Y294388D01*
X327279Y297524D01*
X325711Y299091D01*
X319441Y302176D02*
X317873Y303743D01*
X317873Y306879D01*
X319441Y308447D01*
X321008Y308447D01*
X322576Y306879D01*
X324144Y308447D01*
X325711Y308447D01*
X327279Y306879D01*
X327279Y303743D01*
X325711Y302176D01*
X324144Y302176D01*
X322576Y303743D01*
X321008Y302176D01*
X319441Y302176D01*
X322576Y303743D02*
X322576Y306879D01*
X263866Y274701D02*
X260731Y274701D01*
X262299Y274701D02*
X262299Y284107D01*
X263866Y284107D02*
X260731Y284107D01*
X271671Y284107D02*
X273238Y282539D01*
X271671Y284107D02*
X268535Y284107D01*
X266968Y282539D01*
X266968Y276269D01*
X268535Y274701D01*
X271671Y274701D01*
X273238Y276269D01*
X276323Y282539D02*
X277891Y284107D01*
X281026Y284107D01*
X282594Y282539D01*
X282594Y280972D01*
X281026Y279404D01*
X279458Y279404D01*
X281026Y279404D02*
X282594Y277836D01*
X282594Y276269D01*
X281026Y274701D01*
X277891Y274701D01*
X276323Y276269D01*
X196469Y248031D02*
X187063Y248031D01*
X187063Y252734D01*
X188631Y254302D01*
X191766Y254302D01*
X193334Y252734D01*
X193334Y248031D01*
X193334Y251166D02*
X196469Y254302D01*
X190198Y257386D02*
X187063Y260522D01*
X196469Y260522D01*
X196469Y263657D02*
X196469Y257386D01*
X196469Y305181D02*
X187063Y305181D01*
X187063Y309884D01*
X188631Y311452D01*
X191766Y311452D01*
X193334Y309884D01*
X193334Y305181D01*
X193334Y308316D02*
X196469Y311452D01*
X196469Y314536D02*
X196469Y320807D01*
X196469Y314536D02*
X190198Y320807D01*
X188631Y320807D01*
X187063Y319239D01*
X187063Y316104D01*
X188631Y314536D01*
X197571Y177427D02*
X197571Y168021D01*
X197571Y177427D02*
X202274Y177427D01*
X203841Y175859D01*
X203841Y172724D01*
X202274Y171156D01*
X197571Y171156D01*
X200706Y171156D02*
X203841Y168021D01*
X206926Y175859D02*
X208493Y177427D01*
X211629Y177427D01*
X213197Y175859D01*
X213197Y174292D01*
X211629Y172724D01*
X210061Y172724D01*
X211629Y172724D02*
X213197Y171156D01*
X213197Y169589D01*
X211629Y168021D01*
X208493Y168021D01*
X206926Y169589D01*
X375031Y368681D02*
X375031Y378087D01*
X379734Y378087D01*
X381302Y376519D01*
X381302Y373384D01*
X379734Y371816D01*
X375031Y371816D01*
X378166Y371816D02*
X381302Y368681D01*
X389089Y368681D02*
X389089Y378087D01*
X384386Y373384D01*
X390657Y373384D01*
X406781Y368681D02*
X406781Y378087D01*
X411484Y378087D01*
X413052Y376519D01*
X413052Y373384D01*
X411484Y371816D01*
X406781Y371816D01*
X409916Y371816D02*
X413052Y368681D01*
X416136Y378087D02*
X422407Y378087D01*
X416136Y378087D02*
X416136Y373384D01*
X419272Y374952D01*
X420839Y374952D01*
X422407Y373384D01*
X422407Y370249D01*
X420839Y368681D01*
X417704Y368681D01*
X416136Y370249D01*
X203581Y339987D02*
X203581Y330581D01*
X203581Y339987D02*
X208284Y339987D01*
X209852Y338419D01*
X209852Y335284D01*
X208284Y333716D01*
X203581Y333716D01*
X206716Y333716D02*
X209852Y330581D01*
X216072Y338419D02*
X219207Y339987D01*
X216072Y338419D02*
X212936Y335284D01*
X212936Y332149D01*
X214504Y330581D01*
X217639Y330581D01*
X219207Y332149D01*
X219207Y333716D01*
X217639Y335284D01*
X212936Y335284D01*
X349631Y368681D02*
X349631Y378087D01*
X354334Y378087D01*
X355902Y376519D01*
X355902Y373384D01*
X354334Y371816D01*
X349631Y371816D01*
X352766Y371816D02*
X355902Y368681D01*
X358986Y378087D02*
X365257Y378087D01*
X365257Y376519D01*
X358986Y370249D01*
X358986Y368681D01*
X324231Y368681D02*
X324231Y378087D01*
X328934Y378087D01*
X330502Y376519D01*
X330502Y373384D01*
X328934Y371816D01*
X324231Y371816D01*
X327366Y371816D02*
X330502Y368681D01*
X333586Y376519D02*
X335154Y378087D01*
X338289Y378087D01*
X339857Y376519D01*
X339857Y374952D01*
X338289Y373384D01*
X339857Y371816D01*
X339857Y370249D01*
X338289Y368681D01*
X335154Y368681D01*
X333586Y370249D01*
X333586Y371816D01*
X335154Y373384D01*
X333586Y374952D01*
X333586Y376519D01*
X335154Y373384D02*
X338289Y373384D01*
X171831Y339987D02*
X171831Y330581D01*
X171831Y339987D02*
X176534Y339987D01*
X178102Y338419D01*
X178102Y335284D01*
X176534Y333716D01*
X171831Y333716D01*
X174966Y333716D02*
X178102Y330581D01*
X181186Y332149D02*
X182754Y330581D01*
X185889Y330581D01*
X187457Y332149D01*
X187457Y338419D01*
X185889Y339987D01*
X182754Y339987D01*
X181186Y338419D01*
X181186Y336852D01*
X182754Y335284D01*
X187457Y335284D01*
D11*
X194310Y306695D02*
X194310Y264805D01*
D14*
X166140Y310370D02*
X166627Y309336D01*
X166052Y309055D01*
X165483Y308760D01*
X164923Y308451D01*
X164370Y308128D01*
X163825Y307792D01*
X163289Y307443D01*
X162761Y307080D01*
X162242Y306705D01*
X161733Y306317D01*
X161233Y305917D01*
X160744Y305504D01*
X160264Y305080D01*
X159795Y304644D01*
X159337Y304197D01*
X158890Y303738D01*
X158455Y303269D01*
X158031Y302789D01*
X157619Y302299D01*
X157219Y301800D01*
X156832Y301290D01*
X156457Y300771D01*
X156095Y300243D01*
X155746Y299706D01*
X155410Y299161D01*
X155088Y298608D01*
X154779Y298047D01*
X154485Y297478D01*
X154204Y296903D01*
X153938Y296321D01*
X153686Y295732D01*
X153448Y295138D01*
X153225Y294538D01*
X153017Y293932D01*
X152824Y293322D01*
X152645Y292707D01*
X152482Y292088D01*
X152334Y291465D01*
X152202Y290839D01*
X152085Y290210D01*
X151983Y289577D01*
X151897Y288943D01*
X151827Y288307D01*
X151772Y287669D01*
X151732Y287030D01*
X151709Y286390D01*
X151701Y285750D01*
X151709Y285110D01*
X151732Y284470D01*
X151772Y283831D01*
X151827Y283193D01*
X151897Y282557D01*
X151983Y281923D01*
X152085Y281290D01*
X152202Y280661D01*
X152334Y280035D01*
X152482Y279412D01*
X152645Y278793D01*
X152824Y278178D01*
X153017Y277568D01*
X153225Y276962D01*
X153448Y276362D01*
X153686Y275768D01*
X153938Y275179D01*
X154204Y274597D01*
X154485Y274022D01*
X154779Y273453D01*
X155088Y272892D01*
X155410Y272339D01*
X155746Y271794D01*
X156095Y271257D01*
X156457Y270729D01*
X156832Y270210D01*
X157219Y269700D01*
X157619Y269201D01*
X158031Y268711D01*
X158455Y268231D01*
X158890Y267762D01*
X159337Y267303D01*
X159795Y266856D01*
X160264Y266420D01*
X160744Y265996D01*
X161233Y265583D01*
X161733Y265183D01*
X162242Y264795D01*
X162761Y264420D01*
X163289Y264057D01*
X163825Y263708D01*
X164370Y263372D01*
X164923Y263049D01*
X165483Y262740D01*
X166052Y262445D01*
X166627Y262164D01*
X166140Y261130D01*
X166140Y261129D01*
X165539Y261423D01*
X164946Y261731D01*
X164361Y262054D01*
X163784Y262390D01*
X163215Y262741D01*
X162655Y263106D01*
X162104Y263484D01*
X161563Y263876D01*
X161031Y264281D01*
X160509Y264699D01*
X159998Y265129D01*
X159498Y265572D01*
X159008Y266027D01*
X158530Y266494D01*
X158064Y266972D01*
X157609Y267462D01*
X157166Y267963D01*
X156736Y268474D01*
X156319Y268996D01*
X155914Y269528D01*
X155523Y270070D01*
X155145Y270621D01*
X154781Y271181D01*
X154430Y271751D01*
X154094Y272328D01*
X153772Y272914D01*
X153464Y273507D01*
X153171Y274107D01*
X152893Y274715D01*
X152630Y275329D01*
X152382Y275950D01*
X152149Y276576D01*
X151932Y277208D01*
X151730Y277846D01*
X151544Y278487D01*
X151374Y279134D01*
X151219Y279784D01*
X151081Y280438D01*
X150959Y281095D01*
X150853Y281755D01*
X150763Y282417D01*
X150689Y283081D01*
X150632Y283747D01*
X150591Y284414D01*
X150566Y285082D01*
X150558Y285750D01*
X150566Y286418D01*
X150591Y287086D01*
X150632Y287753D01*
X150689Y288419D01*
X150763Y289083D01*
X150853Y289745D01*
X150959Y290405D01*
X151081Y291062D01*
X151219Y291716D01*
X151374Y292366D01*
X151544Y293013D01*
X151730Y293654D01*
X151932Y294292D01*
X152149Y294924D01*
X152382Y295550D01*
X152630Y296171D01*
X152893Y296785D01*
X153171Y297393D01*
X153464Y297993D01*
X153772Y298586D01*
X154094Y299172D01*
X154430Y299749D01*
X154781Y300319D01*
X155145Y300879D01*
X155523Y301430D01*
X155914Y301972D01*
X156319Y302504D01*
X156736Y303026D01*
X157166Y303537D01*
X157609Y304038D01*
X158064Y304528D01*
X158530Y305006D01*
X159008Y305473D01*
X159498Y305928D01*
X159998Y306371D01*
X160509Y306801D01*
X161031Y307219D01*
X161563Y307624D01*
X162104Y308016D01*
X162655Y308394D01*
X163215Y308759D01*
X163784Y309110D01*
X164361Y309446D01*
X164946Y309769D01*
X165539Y310077D01*
X166140Y310371D01*
X166191Y310262D01*
X165593Y309970D01*
X165003Y309663D01*
X164420Y309342D01*
X163845Y309007D01*
X163279Y308657D01*
X162722Y308294D01*
X162173Y307918D01*
X161634Y307528D01*
X161105Y307125D01*
X160585Y306709D01*
X160076Y306280D01*
X159578Y305839D01*
X159091Y305386D01*
X158615Y304921D01*
X158150Y304445D01*
X157698Y303957D01*
X157257Y303459D01*
X156829Y302949D01*
X156413Y302430D01*
X156011Y301900D01*
X155621Y301361D01*
X155245Y300812D01*
X154882Y300254D01*
X154533Y299688D01*
X154198Y299113D01*
X153878Y298530D01*
X153571Y297939D01*
X153280Y297341D01*
X153003Y296736D01*
X152741Y296125D01*
X152494Y295507D01*
X152262Y294883D01*
X152046Y294254D01*
X151845Y293620D01*
X151660Y292981D01*
X151490Y292337D01*
X151336Y291690D01*
X151199Y291039D01*
X151077Y290385D01*
X150971Y289728D01*
X150882Y289068D01*
X150808Y288407D01*
X150751Y287744D01*
X150711Y287080D01*
X150686Y286415D01*
X150678Y285750D01*
X150686Y285085D01*
X150711Y284420D01*
X150751Y283756D01*
X150808Y283093D01*
X150882Y282432D01*
X150971Y281772D01*
X151077Y281115D01*
X151199Y280461D01*
X151336Y279810D01*
X151490Y279163D01*
X151660Y278519D01*
X151845Y277880D01*
X152046Y277246D01*
X152262Y276617D01*
X152494Y275993D01*
X152741Y275375D01*
X153003Y274764D01*
X153280Y274159D01*
X153571Y273561D01*
X153878Y272970D01*
X154198Y272387D01*
X154533Y271812D01*
X154882Y271246D01*
X155245Y270688D01*
X155621Y270139D01*
X156011Y269600D01*
X156413Y269070D01*
X156829Y268551D01*
X157257Y268041D01*
X157698Y267543D01*
X158150Y267055D01*
X158615Y266579D01*
X159091Y266114D01*
X159578Y265661D01*
X160076Y265220D01*
X160585Y264791D01*
X161105Y264375D01*
X161634Y263972D01*
X162173Y263582D01*
X162722Y263206D01*
X163279Y262843D01*
X163845Y262493D01*
X164420Y262158D01*
X165003Y261837D01*
X165593Y261530D01*
X166191Y261238D01*
X166242Y261347D01*
X165647Y261637D01*
X165059Y261943D01*
X164479Y262263D01*
X163907Y262596D01*
X163343Y262944D01*
X162788Y263306D01*
X162242Y263681D01*
X161705Y264069D01*
X161178Y264470D01*
X160661Y264884D01*
X160155Y265311D01*
X159659Y265750D01*
X159174Y266201D01*
X158700Y266664D01*
X158237Y267138D01*
X157787Y267624D01*
X157348Y268120D01*
X156922Y268627D01*
X156508Y269144D01*
X156107Y269671D01*
X155719Y270208D01*
X155344Y270755D01*
X154983Y271310D01*
X154636Y271874D01*
X154303Y272446D01*
X153983Y273027D01*
X153678Y273615D01*
X153388Y274210D01*
X153112Y274813D01*
X152851Y275421D01*
X152606Y276036D01*
X152375Y276657D01*
X152160Y277284D01*
X151960Y277915D01*
X151775Y278552D01*
X151606Y279192D01*
X151453Y279837D01*
X151316Y280485D01*
X151195Y281136D01*
X151090Y281790D01*
X151001Y282446D01*
X150928Y283105D01*
X150871Y283765D01*
X150830Y284426D01*
X150806Y285088D01*
X150798Y285750D01*
X150806Y286412D01*
X150830Y287074D01*
X150871Y287735D01*
X150928Y288395D01*
X151001Y289054D01*
X151090Y289710D01*
X151195Y290364D01*
X151316Y291015D01*
X151453Y291663D01*
X151606Y292308D01*
X151775Y292948D01*
X151960Y293585D01*
X152160Y294216D01*
X152375Y294843D01*
X152606Y295464D01*
X152851Y296079D01*
X153112Y296687D01*
X153388Y297290D01*
X153678Y297885D01*
X153983Y298473D01*
X154303Y299054D01*
X154636Y299626D01*
X154983Y300190D01*
X155344Y300745D01*
X155719Y301292D01*
X156107Y301829D01*
X156508Y302356D01*
X156922Y302873D01*
X157348Y303380D01*
X157787Y303876D01*
X158237Y304362D01*
X158700Y304836D01*
X159174Y305299D01*
X159659Y305750D01*
X160155Y306189D01*
X160661Y306616D01*
X161178Y307030D01*
X161705Y307431D01*
X162242Y307819D01*
X162788Y308194D01*
X163343Y308556D01*
X163907Y308904D01*
X164479Y309237D01*
X165059Y309557D01*
X165647Y309863D01*
X166242Y310153D01*
X166293Y310045D01*
X165701Y309755D01*
X165116Y309451D01*
X164538Y309133D01*
X163968Y308801D01*
X163407Y308454D01*
X162855Y308094D01*
X162311Y307721D01*
X161777Y307335D01*
X161252Y306935D01*
X160737Y306523D01*
X160233Y306098D01*
X159739Y305661D01*
X159256Y305212D01*
X158784Y304751D01*
X158324Y304279D01*
X157875Y303796D01*
X157439Y303302D01*
X157014Y302797D01*
X156602Y302282D01*
X156203Y301757D01*
X155817Y301222D01*
X155444Y300678D01*
X155085Y300126D01*
X154739Y299564D01*
X154407Y298994D01*
X154089Y298416D01*
X153786Y297831D01*
X153497Y297238D01*
X153222Y296639D01*
X152962Y296033D01*
X152718Y295420D01*
X152488Y294802D01*
X152273Y294178D01*
X152074Y293550D01*
X151891Y292916D01*
X151723Y292279D01*
X151571Y291637D01*
X151434Y290992D01*
X151313Y290344D01*
X151209Y289693D01*
X151120Y289039D01*
X151047Y288384D01*
X150991Y287727D01*
X150950Y287068D01*
X150926Y286409D01*
X150918Y285750D01*
X150926Y285091D01*
X150950Y284432D01*
X150991Y283773D01*
X151047Y283116D01*
X151120Y282461D01*
X151209Y281807D01*
X151313Y281156D01*
X151434Y280508D01*
X151571Y279863D01*
X151723Y279221D01*
X151891Y278584D01*
X152074Y277950D01*
X152273Y277322D01*
X152488Y276698D01*
X152718Y276080D01*
X152962Y275467D01*
X153222Y274861D01*
X153497Y274262D01*
X153786Y273669D01*
X154089Y273084D01*
X154407Y272506D01*
X154739Y271936D01*
X155085Y271374D01*
X155444Y270822D01*
X155817Y270278D01*
X156203Y269743D01*
X156602Y269218D01*
X157014Y268703D01*
X157439Y268198D01*
X157875Y267704D01*
X158324Y267221D01*
X158784Y266749D01*
X159256Y266288D01*
X159739Y265839D01*
X160233Y265402D01*
X160737Y264977D01*
X161252Y264565D01*
X161777Y264165D01*
X162311Y263779D01*
X162855Y263406D01*
X163407Y263046D01*
X163968Y262699D01*
X164538Y262367D01*
X165116Y262049D01*
X165701Y261745D01*
X166293Y261455D01*
X166344Y261564D01*
X165755Y261852D01*
X165172Y262155D01*
X164597Y262472D01*
X164030Y262802D01*
X163471Y263147D01*
X162921Y263505D01*
X162380Y263877D01*
X161848Y264262D01*
X161326Y264660D01*
X160813Y265070D01*
X160311Y265493D01*
X159820Y265928D01*
X159339Y266375D01*
X158869Y266834D01*
X158411Y267304D01*
X157964Y267785D01*
X157529Y268277D01*
X157107Y268779D01*
X156697Y269292D01*
X156300Y269815D01*
X155915Y270347D01*
X155544Y270888D01*
X155186Y271439D01*
X154842Y271998D01*
X154511Y272565D01*
X154195Y273140D01*
X153893Y273723D01*
X153605Y274313D01*
X153332Y274910D01*
X153073Y275513D01*
X152830Y276123D01*
X152601Y276738D01*
X152387Y277359D01*
X152189Y277985D01*
X152006Y278616D01*
X151839Y279250D01*
X151688Y279889D01*
X151552Y280532D01*
X151432Y281177D01*
X151327Y281825D01*
X151239Y282476D01*
X151167Y283128D01*
X151110Y283782D01*
X151070Y284437D01*
X151046Y285094D01*
X151038Y285750D01*
X151046Y286406D01*
X151070Y287063D01*
X151110Y287718D01*
X151167Y288372D01*
X151239Y289024D01*
X151327Y289675D01*
X151432Y290323D01*
X151552Y290968D01*
X151688Y291611D01*
X151839Y292250D01*
X152006Y292884D01*
X152189Y293515D01*
X152387Y294141D01*
X152601Y294762D01*
X152830Y295377D01*
X153073Y295987D01*
X153332Y296590D01*
X153605Y297187D01*
X153893Y297777D01*
X154195Y298360D01*
X154511Y298935D01*
X154842Y299502D01*
X155186Y300061D01*
X155544Y300612D01*
X155915Y301153D01*
X156300Y301685D01*
X156697Y302208D01*
X157107Y302721D01*
X157529Y303223D01*
X157964Y303715D01*
X158411Y304196D01*
X158869Y304666D01*
X159339Y305125D01*
X159820Y305572D01*
X160311Y306007D01*
X160813Y306430D01*
X161326Y306840D01*
X161848Y307238D01*
X162380Y307623D01*
X162921Y307995D01*
X163471Y308353D01*
X164030Y308698D01*
X164597Y309028D01*
X165172Y309345D01*
X165755Y309648D01*
X166344Y309936D01*
X166395Y309828D01*
X165808Y309541D01*
X165228Y309239D01*
X164656Y308924D01*
X164091Y308595D01*
X163535Y308251D01*
X162988Y307895D01*
X162449Y307525D01*
X161919Y307142D01*
X161399Y306746D01*
X160889Y306337D01*
X160389Y305916D01*
X159900Y305483D01*
X159421Y305038D01*
X158954Y304581D01*
X158498Y304113D01*
X158053Y303634D01*
X157620Y303145D01*
X157200Y302644D01*
X156791Y302134D01*
X156396Y301614D01*
X156013Y301084D01*
X155644Y300545D01*
X155287Y299997D01*
X154945Y299441D01*
X154616Y298876D01*
X154301Y298303D01*
X154000Y297723D01*
X153713Y297136D01*
X153441Y296541D01*
X153184Y295941D01*
X152941Y295334D01*
X152714Y294721D01*
X152501Y294103D01*
X152304Y293480D01*
X152122Y292852D01*
X151956Y292220D01*
X151805Y291584D01*
X151669Y290945D01*
X151550Y290303D01*
X151446Y289657D01*
X151358Y289010D01*
X151286Y288360D01*
X151230Y287709D01*
X151190Y287057D01*
X151166Y286404D01*
X151158Y285750D01*
X151166Y285096D01*
X151190Y284443D01*
X151230Y283791D01*
X151286Y283140D01*
X151358Y282490D01*
X151446Y281843D01*
X151550Y281197D01*
X151669Y280555D01*
X151805Y279916D01*
X151956Y279280D01*
X152122Y278648D01*
X152304Y278020D01*
X152501Y277397D01*
X152714Y276779D01*
X152941Y276166D01*
X153184Y275559D01*
X153441Y274959D01*
X153713Y274364D01*
X154000Y273777D01*
X154301Y273197D01*
X154616Y272624D01*
X154945Y272059D01*
X155287Y271503D01*
X155644Y270955D01*
X156013Y270416D01*
X156396Y269886D01*
X156791Y269366D01*
X157200Y268856D01*
X157620Y268355D01*
X158053Y267866D01*
X158498Y267387D01*
X158954Y266919D01*
X159421Y266462D01*
X159900Y266017D01*
X160389Y265584D01*
X160889Y265163D01*
X161399Y264754D01*
X161919Y264358D01*
X162449Y263975D01*
X162988Y263605D01*
X163535Y263249D01*
X164091Y262905D01*
X164656Y262576D01*
X165228Y262261D01*
X165808Y261959D01*
X166395Y261672D01*
X166447Y261781D01*
X165862Y262067D01*
X165285Y262367D01*
X164715Y262681D01*
X164153Y263008D01*
X163599Y263350D01*
X163054Y263705D01*
X162518Y264073D01*
X161991Y264455D01*
X161473Y264849D01*
X160965Y265256D01*
X160468Y265675D01*
X159981Y266106D01*
X159504Y266549D01*
X159039Y267004D01*
X158584Y267469D01*
X158142Y267946D01*
X157711Y268434D01*
X157292Y268932D01*
X156886Y269440D01*
X156492Y269958D01*
X156111Y270485D01*
X155743Y271022D01*
X155389Y271567D01*
X155048Y272121D01*
X154720Y272683D01*
X154407Y273253D01*
X154107Y273831D01*
X153822Y274416D01*
X153551Y275007D01*
X153295Y275605D01*
X153053Y276210D01*
X152827Y276819D01*
X152615Y277435D01*
X152419Y278055D01*
X152238Y278680D01*
X152072Y279309D01*
X151922Y279942D01*
X151787Y280578D01*
X151668Y281218D01*
X151565Y281860D01*
X151477Y282505D01*
X151406Y283152D01*
X151350Y283800D01*
X151310Y284449D01*
X151286Y285099D01*
X151278Y285750D01*
X151286Y286401D01*
X151310Y287051D01*
X151350Y287700D01*
X151406Y288348D01*
X151477Y288995D01*
X151565Y289640D01*
X151668Y290282D01*
X151787Y290922D01*
X151922Y291558D01*
X152072Y292191D01*
X152238Y292820D01*
X152419Y293445D01*
X152615Y294065D01*
X152827Y294681D01*
X153053Y295290D01*
X153295Y295895D01*
X153551Y296493D01*
X153822Y297084D01*
X154107Y297669D01*
X154407Y298247D01*
X154720Y298817D01*
X155048Y299379D01*
X155389Y299933D01*
X155743Y300478D01*
X156111Y301015D01*
X156492Y301542D01*
X156886Y302060D01*
X157292Y302568D01*
X157711Y303066D01*
X158142Y303554D01*
X158584Y304031D01*
X159039Y304496D01*
X159504Y304951D01*
X159981Y305394D01*
X160468Y305825D01*
X160965Y306244D01*
X161473Y306651D01*
X161991Y307045D01*
X162518Y307427D01*
X163054Y307795D01*
X163599Y308150D01*
X164153Y308492D01*
X164715Y308819D01*
X165285Y309133D01*
X165862Y309433D01*
X166447Y309719D01*
X166498Y309610D01*
X165916Y309326D01*
X165341Y309027D01*
X164774Y308715D01*
X164215Y308388D01*
X163663Y308048D01*
X163121Y307695D01*
X162587Y307328D01*
X162062Y306949D01*
X161547Y306556D01*
X161041Y306151D01*
X160546Y305734D01*
X160061Y305305D01*
X159587Y304864D01*
X159123Y304411D01*
X158671Y303948D01*
X158231Y303473D01*
X157802Y302988D01*
X157385Y302492D01*
X156980Y301986D01*
X156588Y301471D01*
X156209Y300946D01*
X155843Y300411D01*
X155490Y299868D01*
X155150Y299317D01*
X154824Y298757D01*
X154512Y298190D01*
X154214Y297615D01*
X153930Y297033D01*
X153661Y296444D01*
X153406Y295849D01*
X153165Y295247D01*
X152940Y294640D01*
X152729Y294028D01*
X152534Y293410D01*
X152353Y292788D01*
X152188Y292162D01*
X152039Y291532D01*
X151905Y290898D01*
X151786Y290261D01*
X151683Y289622D01*
X151596Y288980D01*
X151525Y288337D01*
X151469Y287691D01*
X151430Y287045D01*
X151406Y286398D01*
X151398Y285750D01*
X151406Y285102D01*
X151430Y284455D01*
X151469Y283809D01*
X151525Y283163D01*
X151596Y282520D01*
X151683Y281878D01*
X151786Y281239D01*
X151905Y280602D01*
X152039Y279968D01*
X152188Y279338D01*
X152353Y278712D01*
X152534Y278090D01*
X152729Y277472D01*
X152940Y276860D01*
X153165Y276253D01*
X153406Y275651D01*
X153661Y275056D01*
X153930Y274467D01*
X154214Y273885D01*
X154512Y273310D01*
X154824Y272743D01*
X155150Y272183D01*
X155490Y271632D01*
X155843Y271089D01*
X156209Y270554D01*
X156588Y270029D01*
X156980Y269514D01*
X157385Y269008D01*
X157802Y268512D01*
X158231Y268027D01*
X158671Y267552D01*
X159123Y267089D01*
X159587Y266636D01*
X160061Y266195D01*
X160546Y265766D01*
X161041Y265349D01*
X161547Y264944D01*
X162062Y264551D01*
X162587Y264172D01*
X163121Y263805D01*
X163663Y263452D01*
X164215Y263112D01*
X164774Y262785D01*
X165341Y262473D01*
X165916Y262174D01*
X166498Y261890D01*
X166549Y261998D01*
X165970Y262281D01*
X165397Y262578D01*
X164833Y262890D01*
X164276Y263215D01*
X163727Y263553D01*
X163187Y263905D01*
X162656Y264270D01*
X162133Y264648D01*
X161621Y265038D01*
X161117Y265442D01*
X160624Y265857D01*
X160141Y266284D01*
X159669Y266723D01*
X159208Y267174D01*
X158758Y267635D01*
X158319Y268108D01*
X157893Y268591D01*
X157478Y269084D01*
X157075Y269588D01*
X156685Y270101D01*
X156307Y270624D01*
X155943Y271155D01*
X155591Y271696D01*
X155253Y272245D01*
X154929Y272802D01*
X154618Y273367D01*
X154321Y273939D01*
X154039Y274519D01*
X153770Y275105D01*
X153517Y275697D01*
X153277Y276296D01*
X153053Y276900D01*
X152843Y277510D01*
X152649Y278125D01*
X152469Y278744D01*
X152305Y279367D01*
X152156Y279995D01*
X152022Y280625D01*
X151905Y281259D01*
X151802Y281896D01*
X151715Y282534D01*
X151644Y283175D01*
X151589Y283818D01*
X151550Y284461D01*
X151526Y285105D01*
X151518Y285750D01*
X151526Y286395D01*
X151550Y287039D01*
X151589Y287682D01*
X151644Y288325D01*
X151715Y288966D01*
X151802Y289604D01*
X151905Y290241D01*
X152022Y290875D01*
X152156Y291505D01*
X152305Y292133D01*
X152469Y292756D01*
X152649Y293375D01*
X152843Y293990D01*
X153053Y294600D01*
X153277Y295204D01*
X153517Y295803D01*
X153770Y296395D01*
X154039Y296981D01*
X154321Y297561D01*
X154618Y298133D01*
X154929Y298698D01*
X155253Y299255D01*
X155591Y299804D01*
X155943Y300345D01*
X156307Y300876D01*
X156685Y301399D01*
X157075Y301912D01*
X157478Y302416D01*
X157893Y302909D01*
X158319Y303392D01*
X158758Y303865D01*
X159208Y304326D01*
X159669Y304777D01*
X160141Y305216D01*
X160624Y305643D01*
X161117Y306058D01*
X161621Y306462D01*
X162133Y306852D01*
X162656Y307230D01*
X163187Y307595D01*
X163727Y307947D01*
X164276Y308285D01*
X164833Y308610D01*
X165397Y308922D01*
X165970Y309219D01*
X166549Y309502D01*
X166600Y309393D01*
X166023Y309112D01*
X165454Y308816D01*
X164892Y308506D01*
X164338Y308182D01*
X163791Y307845D01*
X163254Y307495D01*
X162725Y307132D01*
X162205Y306756D01*
X161694Y306367D01*
X161193Y305966D01*
X160703Y305552D01*
X160222Y305127D01*
X159752Y304690D01*
X159293Y304241D01*
X158845Y303782D01*
X158408Y303312D01*
X157983Y302831D01*
X157570Y302339D01*
X157170Y301838D01*
X156781Y301327D01*
X156405Y300807D01*
X156042Y300278D01*
X155693Y299740D01*
X155356Y299193D01*
X155033Y298639D01*
X154724Y298077D01*
X154429Y297507D01*
X154147Y296930D01*
X153880Y296347D01*
X153627Y295757D01*
X153389Y295161D01*
X153166Y294559D01*
X152957Y293952D01*
X152763Y293340D01*
X152585Y292724D01*
X152421Y292103D01*
X152273Y291479D01*
X152140Y290851D01*
X152023Y290220D01*
X151921Y289587D01*
X151835Y288951D01*
X151764Y288313D01*
X151709Y287674D01*
X151669Y287033D01*
X151646Y286392D01*
X151638Y285750D01*
X151646Y285108D01*
X151669Y284467D01*
X151709Y283826D01*
X151764Y283187D01*
X151835Y282549D01*
X151921Y281913D01*
X152023Y281280D01*
X152140Y280649D01*
X152273Y280021D01*
X152421Y279397D01*
X152585Y278776D01*
X152763Y278160D01*
X152957Y277548D01*
X153166Y276941D01*
X153389Y276339D01*
X153627Y275743D01*
X153880Y275153D01*
X154147Y274570D01*
X154429Y273993D01*
X154724Y273423D01*
X155033Y272861D01*
X155356Y272307D01*
X155693Y271760D01*
X156042Y271222D01*
X156405Y270693D01*
X156781Y270173D01*
X157170Y269662D01*
X157570Y269161D01*
X157983Y268669D01*
X158408Y268188D01*
X158845Y267718D01*
X159293Y267259D01*
X159752Y266810D01*
X160222Y266373D01*
X160703Y265948D01*
X161193Y265534D01*
X161694Y265133D01*
X162205Y264744D01*
X162725Y264368D01*
X163254Y264005D01*
X163791Y263655D01*
X164338Y263318D01*
X164892Y262994D01*
X165454Y262684D01*
X166023Y262388D01*
X166600Y262107D01*
X189459Y261130D02*
X188973Y262165D01*
X188973Y262164D02*
X189496Y262419D01*
X190012Y262685D01*
X190523Y262963D01*
X191027Y263252D01*
X191525Y263552D01*
X192016Y263863D01*
X192500Y264185D01*
X192976Y264518D01*
X193445Y264861D01*
X193906Y265214D01*
X194614Y264317D01*
X194132Y263947D01*
X193642Y263589D01*
X193144Y263241D01*
X192639Y262905D01*
X192126Y262580D01*
X191606Y262266D01*
X191079Y261964D01*
X190546Y261674D01*
X190006Y261396D01*
X189460Y261130D01*
X189409Y261238D01*
X189952Y261503D01*
X190490Y261780D01*
X191021Y262069D01*
X191545Y262370D01*
X192063Y262682D01*
X192573Y263005D01*
X193077Y263340D01*
X193572Y263686D01*
X194060Y264043D01*
X194540Y264411D01*
X194465Y264505D01*
X193988Y264139D01*
X193502Y263784D01*
X193009Y263439D01*
X192508Y263106D01*
X192000Y262784D01*
X191484Y262473D01*
X190962Y262174D01*
X190434Y261886D01*
X189899Y261611D01*
X189358Y261347D01*
X189307Y261456D01*
X189845Y261718D01*
X190378Y261992D01*
X190904Y262279D01*
X191424Y262576D01*
X191937Y262886D01*
X192442Y263206D01*
X192941Y263538D01*
X193432Y263881D01*
X193916Y264235D01*
X194391Y264600D01*
X194317Y264694D01*
X193844Y264331D01*
X193362Y263979D01*
X192873Y263637D01*
X192377Y263307D01*
X191873Y262988D01*
X191363Y262680D01*
X190845Y262383D01*
X190322Y262099D01*
X189792Y261825D01*
X189255Y261564D01*
X189204Y261673D01*
X189738Y261933D01*
X190266Y262205D01*
X190787Y262488D01*
X191302Y262783D01*
X191810Y263090D01*
X192312Y263408D01*
X192806Y263737D01*
X193292Y264076D01*
X193771Y264427D01*
X194243Y264788D01*
X194168Y264882D01*
X193699Y264523D01*
X193223Y264174D01*
X192738Y263836D01*
X192246Y263508D01*
X191747Y263192D01*
X191241Y262887D01*
X190729Y262593D01*
X190210Y262311D01*
X189684Y262040D01*
X189153Y261781D01*
X189102Y261890D01*
X189631Y262148D01*
X190154Y262417D01*
X190670Y262698D01*
X191180Y262990D01*
X191684Y263294D01*
X192181Y263609D01*
X192670Y263935D01*
X193153Y264271D01*
X193627Y264619D01*
X194094Y264976D01*
X194020Y265071D01*
X193555Y264715D01*
X193083Y264369D01*
X192603Y264034D01*
X192115Y263710D01*
X191621Y263396D01*
X191120Y263094D01*
X190612Y262803D01*
X190098Y262523D01*
X189577Y262255D01*
X189051Y261998D01*
X189000Y262107D01*
X189524Y262362D01*
X190042Y262629D01*
X190553Y262908D01*
X191059Y263197D01*
X191558Y263498D01*
X192050Y263810D01*
X192535Y264133D01*
X193013Y264466D01*
X193483Y264811D01*
X193945Y265165D01*
D11*
X179070Y271709D02*
X179070Y274391D01*
X179070Y297109D02*
X179070Y299791D01*
D14*
X194614Y307183D02*
X193906Y306285D01*
X193906Y306286D02*
X193424Y306655D01*
X192934Y307013D01*
X192435Y307359D01*
X191928Y307694D01*
X191414Y308016D01*
X190892Y308327D01*
X190364Y308626D01*
X189828Y308912D01*
X189286Y309185D01*
X188738Y309446D01*
X189214Y310485D01*
X189787Y310213D01*
X190353Y309927D01*
X190913Y309628D01*
X191465Y309316D01*
X192010Y308991D01*
X192548Y308654D01*
X193077Y308305D01*
X193598Y307943D01*
X194110Y307569D01*
X194614Y307183D01*
X194540Y307089D01*
X194038Y307473D01*
X193528Y307845D01*
X193010Y308205D01*
X192483Y308553D01*
X191948Y308889D01*
X191405Y309212D01*
X190855Y309523D01*
X190298Y309820D01*
X189734Y310105D01*
X189164Y310376D01*
X189114Y310267D01*
X189682Y309997D01*
X190243Y309714D01*
X190797Y309417D01*
X191345Y309108D01*
X191885Y308787D01*
X192418Y308453D01*
X192942Y308106D01*
X193458Y307747D01*
X193966Y307377D01*
X194465Y306995D01*
X194391Y306900D01*
X193894Y307281D01*
X193389Y307650D01*
X192875Y308007D01*
X192353Y308352D01*
X191822Y308684D01*
X191285Y309005D01*
X190740Y309312D01*
X190188Y309607D01*
X189629Y309889D01*
X189064Y310158D01*
X189014Y310049D01*
X189576Y309781D01*
X190133Y309500D01*
X190682Y309207D01*
X191225Y308901D01*
X191760Y308582D01*
X192288Y308251D01*
X192807Y307907D01*
X193319Y307552D01*
X193822Y307185D01*
X194317Y306806D01*
X194243Y306712D01*
X193750Y307089D01*
X193249Y307454D01*
X192740Y307808D01*
X192223Y308150D01*
X191697Y308480D01*
X191164Y308797D01*
X190624Y309102D01*
X190078Y309394D01*
X189524Y309673D01*
X188964Y309940D01*
X188914Y309831D01*
X189471Y309565D01*
X190022Y309287D01*
X190567Y308996D01*
X191104Y308693D01*
X191635Y308377D01*
X192158Y308049D01*
X192673Y307709D01*
X193180Y307357D01*
X193678Y306993D01*
X194168Y306618D01*
X194094Y306524D01*
X193606Y306897D01*
X193110Y307259D01*
X192605Y307610D01*
X192092Y307948D01*
X191572Y308275D01*
X191044Y308589D01*
X190509Y308891D01*
X189967Y309181D01*
X189419Y309458D01*
X188864Y309722D01*
X188814Y309612D01*
X189366Y309350D01*
X189912Y309074D01*
X190451Y308786D01*
X190984Y308485D01*
X191509Y308172D01*
X192027Y307847D01*
X192538Y307510D01*
X193040Y307162D01*
X193534Y306801D01*
X194020Y306429D01*
X193945Y306335D01*
X193462Y306705D01*
X192970Y307064D01*
X192470Y307411D01*
X191962Y307747D01*
X191447Y308070D01*
X190924Y308382D01*
X190394Y308681D01*
X189857Y308968D01*
X189313Y309242D01*
X188764Y309503D01*
D15*
X148450Y349039D02*
X148450Y196639D01*
X82707Y196639D02*
X82707Y349039D01*
X127505Y196639D02*
X132429Y196639D01*
X137080Y196639D02*
X139229Y196639D01*
X141220Y196639D01*
X137080Y196639D02*
X132429Y196639D01*
X87537Y196639D02*
X82707Y196639D01*
X87537Y196639D02*
X127505Y196639D01*
X132429Y196639D02*
X132429Y349039D01*
X127505Y349039D01*
X132429Y349039D02*
X139229Y349039D01*
X127505Y349039D02*
X87537Y349039D01*
X82707Y349039D01*
X67450Y349039D01*
X141220Y196639D02*
X145450Y196639D01*
X145450Y349039D02*
X139229Y349039D01*
X67450Y349039D02*
X67450Y196639D01*
X82707Y196639D01*
X145450Y196639D02*
X148450Y196639D01*
X148450Y349039D02*
X145450Y349039D01*
X88550Y222039D02*
X88556Y222509D01*
X88573Y222979D01*
X88602Y223448D01*
X88642Y223916D01*
X88694Y224383D01*
X88757Y224849D01*
X88832Y225313D01*
X88918Y225775D01*
X89015Y226235D01*
X89124Y226692D01*
X89244Y227147D01*
X89375Y227598D01*
X89517Y228046D01*
X89669Y228490D01*
X89833Y228931D01*
X90008Y229367D01*
X90193Y229799D01*
X90389Y230227D01*
X90595Y230649D01*
X90811Y231066D01*
X91038Y231478D01*
X91274Y231884D01*
X91521Y232284D01*
X91777Y232678D01*
X92043Y233066D01*
X92319Y233447D01*
X92603Y233821D01*
X92897Y234188D01*
X93199Y234547D01*
X93511Y234899D01*
X93831Y235244D01*
X94159Y235580D01*
X94495Y235908D01*
X94840Y236228D01*
X95192Y236540D01*
X95551Y236842D01*
X95918Y237136D01*
X96292Y237420D01*
X96673Y237696D01*
X97061Y237962D01*
X97455Y238218D01*
X97855Y238465D01*
X98261Y238701D01*
X98673Y238928D01*
X99090Y239144D01*
X99512Y239350D01*
X99940Y239546D01*
X100372Y239731D01*
X100808Y239906D01*
X101249Y240070D01*
X101693Y240222D01*
X102141Y240364D01*
X102592Y240495D01*
X103047Y240615D01*
X103504Y240724D01*
X103964Y240821D01*
X104426Y240907D01*
X104890Y240982D01*
X105356Y241045D01*
X105823Y241097D01*
X106291Y241137D01*
X106760Y241166D01*
X107230Y241183D01*
X107700Y241189D01*
X108170Y241183D01*
X108640Y241166D01*
X109109Y241137D01*
X109577Y241097D01*
X110044Y241045D01*
X110510Y240982D01*
X110974Y240907D01*
X111436Y240821D01*
X111896Y240724D01*
X112353Y240615D01*
X112808Y240495D01*
X113259Y240364D01*
X113707Y240222D01*
X114151Y240070D01*
X114592Y239906D01*
X115028Y239731D01*
X115460Y239546D01*
X115888Y239350D01*
X116310Y239144D01*
X116727Y238928D01*
X117139Y238701D01*
X117545Y238465D01*
X117945Y238218D01*
X118339Y237962D01*
X118727Y237696D01*
X119108Y237420D01*
X119482Y237136D01*
X119849Y236842D01*
X120208Y236540D01*
X120560Y236228D01*
X120905Y235908D01*
X121241Y235580D01*
X121569Y235244D01*
X121889Y234899D01*
X122201Y234547D01*
X122503Y234188D01*
X122797Y233821D01*
X123081Y233447D01*
X123357Y233066D01*
X123623Y232678D01*
X123879Y232284D01*
X124126Y231884D01*
X124362Y231478D01*
X124589Y231066D01*
X124805Y230649D01*
X125011Y230227D01*
X125207Y229799D01*
X125392Y229367D01*
X125567Y228931D01*
X125731Y228490D01*
X125883Y228046D01*
X126025Y227598D01*
X126156Y227147D01*
X126276Y226692D01*
X126385Y226235D01*
X126482Y225775D01*
X126568Y225313D01*
X126643Y224849D01*
X126706Y224383D01*
X126758Y223916D01*
X126798Y223448D01*
X126827Y222979D01*
X126844Y222509D01*
X126850Y222039D01*
X126844Y221569D01*
X126827Y221099D01*
X126798Y220630D01*
X126758Y220162D01*
X126706Y219695D01*
X126643Y219229D01*
X126568Y218765D01*
X126482Y218303D01*
X126385Y217843D01*
X126276Y217386D01*
X126156Y216931D01*
X126025Y216480D01*
X125883Y216032D01*
X125731Y215588D01*
X125567Y215147D01*
X125392Y214711D01*
X125207Y214279D01*
X125011Y213851D01*
X124805Y213429D01*
X124589Y213012D01*
X124362Y212600D01*
X124126Y212194D01*
X123879Y211794D01*
X123623Y211400D01*
X123357Y211012D01*
X123081Y210631D01*
X122797Y210257D01*
X122503Y209890D01*
X122201Y209531D01*
X121889Y209179D01*
X121569Y208834D01*
X121241Y208498D01*
X120905Y208170D01*
X120560Y207850D01*
X120208Y207538D01*
X119849Y207236D01*
X119482Y206942D01*
X119108Y206658D01*
X118727Y206382D01*
X118339Y206116D01*
X117945Y205860D01*
X117545Y205613D01*
X117139Y205377D01*
X116727Y205150D01*
X116310Y204934D01*
X115888Y204728D01*
X115460Y204532D01*
X115028Y204347D01*
X114592Y204172D01*
X114151Y204008D01*
X113707Y203856D01*
X113259Y203714D01*
X112808Y203583D01*
X112353Y203463D01*
X111896Y203354D01*
X111436Y203257D01*
X110974Y203171D01*
X110510Y203096D01*
X110044Y203033D01*
X109577Y202981D01*
X109109Y202941D01*
X108640Y202912D01*
X108170Y202895D01*
X107700Y202889D01*
X107230Y202895D01*
X106760Y202912D01*
X106291Y202941D01*
X105823Y202981D01*
X105356Y203033D01*
X104890Y203096D01*
X104426Y203171D01*
X103964Y203257D01*
X103504Y203354D01*
X103047Y203463D01*
X102592Y203583D01*
X102141Y203714D01*
X101693Y203856D01*
X101249Y204008D01*
X100808Y204172D01*
X100372Y204347D01*
X99940Y204532D01*
X99512Y204728D01*
X99090Y204934D01*
X98673Y205150D01*
X98261Y205377D01*
X97855Y205613D01*
X97455Y205860D01*
X97061Y206116D01*
X96673Y206382D01*
X96292Y206658D01*
X95918Y206942D01*
X95551Y207236D01*
X95192Y207538D01*
X94840Y207850D01*
X94495Y208170D01*
X94159Y208498D01*
X93831Y208834D01*
X93511Y209179D01*
X93199Y209531D01*
X92897Y209890D01*
X92603Y210257D01*
X92319Y210631D01*
X92043Y211012D01*
X91777Y211400D01*
X91521Y211794D01*
X91274Y212194D01*
X91038Y212600D01*
X90811Y213012D01*
X90595Y213429D01*
X90389Y213851D01*
X90193Y214279D01*
X90008Y214711D01*
X89833Y215147D01*
X89669Y215588D01*
X89517Y216032D01*
X89375Y216480D01*
X89244Y216931D01*
X89124Y217386D01*
X89015Y217843D01*
X88918Y218303D01*
X88832Y218765D01*
X88757Y219229D01*
X88694Y219695D01*
X88642Y220162D01*
X88602Y220630D01*
X88573Y221099D01*
X88556Y221569D01*
X88550Y222039D01*
X88550Y272839D02*
X88556Y273309D01*
X88573Y273779D01*
X88602Y274248D01*
X88642Y274716D01*
X88694Y275183D01*
X88757Y275649D01*
X88832Y276113D01*
X88918Y276575D01*
X89015Y277035D01*
X89124Y277492D01*
X89244Y277947D01*
X89375Y278398D01*
X89517Y278846D01*
X89669Y279290D01*
X89833Y279731D01*
X90008Y280167D01*
X90193Y280599D01*
X90389Y281027D01*
X90595Y281449D01*
X90811Y281866D01*
X91038Y282278D01*
X91274Y282684D01*
X91521Y283084D01*
X91777Y283478D01*
X92043Y283866D01*
X92319Y284247D01*
X92603Y284621D01*
X92897Y284988D01*
X93199Y285347D01*
X93511Y285699D01*
X93831Y286044D01*
X94159Y286380D01*
X94495Y286708D01*
X94840Y287028D01*
X95192Y287340D01*
X95551Y287642D01*
X95918Y287936D01*
X96292Y288220D01*
X96673Y288496D01*
X97061Y288762D01*
X97455Y289018D01*
X97855Y289265D01*
X98261Y289501D01*
X98673Y289728D01*
X99090Y289944D01*
X99512Y290150D01*
X99940Y290346D01*
X100372Y290531D01*
X100808Y290706D01*
X101249Y290870D01*
X101693Y291022D01*
X102141Y291164D01*
X102592Y291295D01*
X103047Y291415D01*
X103504Y291524D01*
X103964Y291621D01*
X104426Y291707D01*
X104890Y291782D01*
X105356Y291845D01*
X105823Y291897D01*
X106291Y291937D01*
X106760Y291966D01*
X107230Y291983D01*
X107700Y291989D01*
X108170Y291983D01*
X108640Y291966D01*
X109109Y291937D01*
X109577Y291897D01*
X110044Y291845D01*
X110510Y291782D01*
X110974Y291707D01*
X111436Y291621D01*
X111896Y291524D01*
X112353Y291415D01*
X112808Y291295D01*
X113259Y291164D01*
X113707Y291022D01*
X114151Y290870D01*
X114592Y290706D01*
X115028Y290531D01*
X115460Y290346D01*
X115888Y290150D01*
X116310Y289944D01*
X116727Y289728D01*
X117139Y289501D01*
X117545Y289265D01*
X117945Y289018D01*
X118339Y288762D01*
X118727Y288496D01*
X119108Y288220D01*
X119482Y287936D01*
X119849Y287642D01*
X120208Y287340D01*
X120560Y287028D01*
X120905Y286708D01*
X121241Y286380D01*
X121569Y286044D01*
X121889Y285699D01*
X122201Y285347D01*
X122503Y284988D01*
X122797Y284621D01*
X123081Y284247D01*
X123357Y283866D01*
X123623Y283478D01*
X123879Y283084D01*
X124126Y282684D01*
X124362Y282278D01*
X124589Y281866D01*
X124805Y281449D01*
X125011Y281027D01*
X125207Y280599D01*
X125392Y280167D01*
X125567Y279731D01*
X125731Y279290D01*
X125883Y278846D01*
X126025Y278398D01*
X126156Y277947D01*
X126276Y277492D01*
X126385Y277035D01*
X126482Y276575D01*
X126568Y276113D01*
X126643Y275649D01*
X126706Y275183D01*
X126758Y274716D01*
X126798Y274248D01*
X126827Y273779D01*
X126844Y273309D01*
X126850Y272839D01*
X126844Y272369D01*
X126827Y271899D01*
X126798Y271430D01*
X126758Y270962D01*
X126706Y270495D01*
X126643Y270029D01*
X126568Y269565D01*
X126482Y269103D01*
X126385Y268643D01*
X126276Y268186D01*
X126156Y267731D01*
X126025Y267280D01*
X125883Y266832D01*
X125731Y266388D01*
X125567Y265947D01*
X125392Y265511D01*
X125207Y265079D01*
X125011Y264651D01*
X124805Y264229D01*
X124589Y263812D01*
X124362Y263400D01*
X124126Y262994D01*
X123879Y262594D01*
X123623Y262200D01*
X123357Y261812D01*
X123081Y261431D01*
X122797Y261057D01*
X122503Y260690D01*
X122201Y260331D01*
X121889Y259979D01*
X121569Y259634D01*
X121241Y259298D01*
X120905Y258970D01*
X120560Y258650D01*
X120208Y258338D01*
X119849Y258036D01*
X119482Y257742D01*
X119108Y257458D01*
X118727Y257182D01*
X118339Y256916D01*
X117945Y256660D01*
X117545Y256413D01*
X117139Y256177D01*
X116727Y255950D01*
X116310Y255734D01*
X115888Y255528D01*
X115460Y255332D01*
X115028Y255147D01*
X114592Y254972D01*
X114151Y254808D01*
X113707Y254656D01*
X113259Y254514D01*
X112808Y254383D01*
X112353Y254263D01*
X111896Y254154D01*
X111436Y254057D01*
X110974Y253971D01*
X110510Y253896D01*
X110044Y253833D01*
X109577Y253781D01*
X109109Y253741D01*
X108640Y253712D01*
X108170Y253695D01*
X107700Y253689D01*
X107230Y253695D01*
X106760Y253712D01*
X106291Y253741D01*
X105823Y253781D01*
X105356Y253833D01*
X104890Y253896D01*
X104426Y253971D01*
X103964Y254057D01*
X103504Y254154D01*
X103047Y254263D01*
X102592Y254383D01*
X102141Y254514D01*
X101693Y254656D01*
X101249Y254808D01*
X100808Y254972D01*
X100372Y255147D01*
X99940Y255332D01*
X99512Y255528D01*
X99090Y255734D01*
X98673Y255950D01*
X98261Y256177D01*
X97855Y256413D01*
X97455Y256660D01*
X97061Y256916D01*
X96673Y257182D01*
X96292Y257458D01*
X95918Y257742D01*
X95551Y258036D01*
X95192Y258338D01*
X94840Y258650D01*
X94495Y258970D01*
X94159Y259298D01*
X93831Y259634D01*
X93511Y259979D01*
X93199Y260331D01*
X92897Y260690D01*
X92603Y261057D01*
X92319Y261431D01*
X92043Y261812D01*
X91777Y262200D01*
X91521Y262594D01*
X91274Y262994D01*
X91038Y263400D01*
X90811Y263812D01*
X90595Y264229D01*
X90389Y264651D01*
X90193Y265079D01*
X90008Y265511D01*
X89833Y265947D01*
X89669Y266388D01*
X89517Y266832D01*
X89375Y267280D01*
X89244Y267731D01*
X89124Y268186D01*
X89015Y268643D01*
X88918Y269103D01*
X88832Y269565D01*
X88757Y270029D01*
X88694Y270495D01*
X88642Y270962D01*
X88602Y271430D01*
X88573Y271899D01*
X88556Y272369D01*
X88550Y272839D01*
X88550Y323639D02*
X88556Y324109D01*
X88573Y324579D01*
X88602Y325048D01*
X88642Y325516D01*
X88694Y325983D01*
X88757Y326449D01*
X88832Y326913D01*
X88918Y327375D01*
X89015Y327835D01*
X89124Y328292D01*
X89244Y328747D01*
X89375Y329198D01*
X89517Y329646D01*
X89669Y330090D01*
X89833Y330531D01*
X90008Y330967D01*
X90193Y331399D01*
X90389Y331827D01*
X90595Y332249D01*
X90811Y332666D01*
X91038Y333078D01*
X91274Y333484D01*
X91521Y333884D01*
X91777Y334278D01*
X92043Y334666D01*
X92319Y335047D01*
X92603Y335421D01*
X92897Y335788D01*
X93199Y336147D01*
X93511Y336499D01*
X93831Y336844D01*
X94159Y337180D01*
X94495Y337508D01*
X94840Y337828D01*
X95192Y338140D01*
X95551Y338442D01*
X95918Y338736D01*
X96292Y339020D01*
X96673Y339296D01*
X97061Y339562D01*
X97455Y339818D01*
X97855Y340065D01*
X98261Y340301D01*
X98673Y340528D01*
X99090Y340744D01*
X99512Y340950D01*
X99940Y341146D01*
X100372Y341331D01*
X100808Y341506D01*
X101249Y341670D01*
X101693Y341822D01*
X102141Y341964D01*
X102592Y342095D01*
X103047Y342215D01*
X103504Y342324D01*
X103964Y342421D01*
X104426Y342507D01*
X104890Y342582D01*
X105356Y342645D01*
X105823Y342697D01*
X106291Y342737D01*
X106760Y342766D01*
X107230Y342783D01*
X107700Y342789D01*
X108170Y342783D01*
X108640Y342766D01*
X109109Y342737D01*
X109577Y342697D01*
X110044Y342645D01*
X110510Y342582D01*
X110974Y342507D01*
X111436Y342421D01*
X111896Y342324D01*
X112353Y342215D01*
X112808Y342095D01*
X113259Y341964D01*
X113707Y341822D01*
X114151Y341670D01*
X114592Y341506D01*
X115028Y341331D01*
X115460Y341146D01*
X115888Y340950D01*
X116310Y340744D01*
X116727Y340528D01*
X117139Y340301D01*
X117545Y340065D01*
X117945Y339818D01*
X118339Y339562D01*
X118727Y339296D01*
X119108Y339020D01*
X119482Y338736D01*
X119849Y338442D01*
X120208Y338140D01*
X120560Y337828D01*
X120905Y337508D01*
X121241Y337180D01*
X121569Y336844D01*
X121889Y336499D01*
X122201Y336147D01*
X122503Y335788D01*
X122797Y335421D01*
X123081Y335047D01*
X123357Y334666D01*
X123623Y334278D01*
X123879Y333884D01*
X124126Y333484D01*
X124362Y333078D01*
X124589Y332666D01*
X124805Y332249D01*
X125011Y331827D01*
X125207Y331399D01*
X125392Y330967D01*
X125567Y330531D01*
X125731Y330090D01*
X125883Y329646D01*
X126025Y329198D01*
X126156Y328747D01*
X126276Y328292D01*
X126385Y327835D01*
X126482Y327375D01*
X126568Y326913D01*
X126643Y326449D01*
X126706Y325983D01*
X126758Y325516D01*
X126798Y325048D01*
X126827Y324579D01*
X126844Y324109D01*
X126850Y323639D01*
X126844Y323169D01*
X126827Y322699D01*
X126798Y322230D01*
X126758Y321762D01*
X126706Y321295D01*
X126643Y320829D01*
X126568Y320365D01*
X126482Y319903D01*
X126385Y319443D01*
X126276Y318986D01*
X126156Y318531D01*
X126025Y318080D01*
X125883Y317632D01*
X125731Y317188D01*
X125567Y316747D01*
X125392Y316311D01*
X125207Y315879D01*
X125011Y315451D01*
X124805Y315029D01*
X124589Y314612D01*
X124362Y314200D01*
X124126Y313794D01*
X123879Y313394D01*
X123623Y313000D01*
X123357Y312612D01*
X123081Y312231D01*
X122797Y311857D01*
X122503Y311490D01*
X122201Y311131D01*
X121889Y310779D01*
X121569Y310434D01*
X121241Y310098D01*
X120905Y309770D01*
X120560Y309450D01*
X120208Y309138D01*
X119849Y308836D01*
X119482Y308542D01*
X119108Y308258D01*
X118727Y307982D01*
X118339Y307716D01*
X117945Y307460D01*
X117545Y307213D01*
X117139Y306977D01*
X116727Y306750D01*
X116310Y306534D01*
X115888Y306328D01*
X115460Y306132D01*
X115028Y305947D01*
X114592Y305772D01*
X114151Y305608D01*
X113707Y305456D01*
X113259Y305314D01*
X112808Y305183D01*
X112353Y305063D01*
X111896Y304954D01*
X111436Y304857D01*
X110974Y304771D01*
X110510Y304696D01*
X110044Y304633D01*
X109577Y304581D01*
X109109Y304541D01*
X108640Y304512D01*
X108170Y304495D01*
X107700Y304489D01*
X107230Y304495D01*
X106760Y304512D01*
X106291Y304541D01*
X105823Y304581D01*
X105356Y304633D01*
X104890Y304696D01*
X104426Y304771D01*
X103964Y304857D01*
X103504Y304954D01*
X103047Y305063D01*
X102592Y305183D01*
X102141Y305314D01*
X101693Y305456D01*
X101249Y305608D01*
X100808Y305772D01*
X100372Y305947D01*
X99940Y306132D01*
X99512Y306328D01*
X99090Y306534D01*
X98673Y306750D01*
X98261Y306977D01*
X97855Y307213D01*
X97455Y307460D01*
X97061Y307716D01*
X96673Y307982D01*
X96292Y308258D01*
X95918Y308542D01*
X95551Y308836D01*
X95192Y309138D01*
X94840Y309450D01*
X94495Y309770D01*
X94159Y310098D01*
X93831Y310434D01*
X93511Y310779D01*
X93199Y311131D01*
X92897Y311490D01*
X92603Y311857D01*
X92319Y312231D01*
X92043Y312612D01*
X91777Y313000D01*
X91521Y313394D01*
X91274Y313794D01*
X91038Y314200D01*
X90811Y314612D01*
X90595Y315029D01*
X90389Y315451D01*
X90193Y315879D01*
X90008Y316311D01*
X89833Y316747D01*
X89669Y317188D01*
X89517Y317632D01*
X89375Y318080D01*
X89244Y318531D01*
X89124Y318986D01*
X89015Y319443D01*
X88918Y319903D01*
X88832Y320365D01*
X88757Y320829D01*
X88694Y321295D01*
X88642Y321762D01*
X88602Y322230D01*
X88573Y322699D01*
X88556Y323169D01*
X88550Y323639D01*
D13*
X260731Y376301D02*
X263866Y376301D01*
X262299Y376301D02*
X262299Y385707D01*
X263866Y385707D02*
X260731Y385707D01*
X271671Y385707D02*
X273238Y384139D01*
X271671Y385707D02*
X268535Y385707D01*
X266968Y384139D01*
X266968Y377869D01*
X268535Y376301D01*
X271671Y376301D01*
X273238Y377869D01*
X281026Y376301D02*
X281026Y385707D01*
X276323Y381004D01*
X282594Y381004D01*
D12*
X402920Y267380D02*
X402920Y227920D01*
X422580Y227920D02*
X422580Y267380D01*
X422580Y227920D02*
X402920Y227920D01*
X402920Y267380D02*
X422580Y267380D01*
D13*
X398181Y241602D02*
X396613Y240034D01*
X396613Y236899D01*
X398181Y235331D01*
X404451Y235331D01*
X406019Y236899D01*
X406019Y240034D01*
X404451Y241602D01*
X399748Y244686D02*
X396613Y247822D01*
X406019Y247822D01*
X406019Y250957D02*
X406019Y244686D01*
X406019Y254041D02*
X406019Y260312D01*
X406019Y254041D02*
X399748Y260312D01*
X398181Y260312D01*
X396613Y258744D01*
X396613Y255609D01*
X398181Y254041D01*
D12*
X377520Y267380D02*
X377520Y227920D01*
X397180Y227920D02*
X397180Y267380D01*
X397180Y227920D02*
X377520Y227920D01*
X377520Y267380D02*
X397180Y267380D01*
D13*
X372781Y241602D02*
X371213Y240034D01*
X371213Y236899D01*
X372781Y235331D01*
X379051Y235331D01*
X380619Y236899D01*
X380619Y240034D01*
X379051Y241602D01*
X374348Y244686D02*
X371213Y247822D01*
X380619Y247822D01*
X380619Y250957D02*
X380619Y244686D01*
X372781Y254041D02*
X371213Y255609D01*
X371213Y258744D01*
X372781Y260312D01*
X374348Y260312D01*
X375916Y258744D01*
X375916Y257177D01*
X375916Y258744D02*
X377484Y260312D01*
X379051Y260312D01*
X380619Y258744D01*
X380619Y255609D01*
X379051Y254041D01*
X396613Y184531D02*
X406019Y184531D01*
X396613Y184531D02*
X396613Y189234D01*
X398181Y190802D01*
X401316Y190802D01*
X402884Y189234D01*
X402884Y184531D01*
X402884Y187666D02*
X406019Y190802D01*
X399748Y193886D02*
X396613Y197022D01*
X406019Y197022D01*
X406019Y200157D02*
X406019Y193886D01*
X399748Y203241D02*
X396613Y206377D01*
X406019Y206377D01*
X406019Y209512D02*
X406019Y203241D01*
X380619Y184531D02*
X371213Y184531D01*
X371213Y189234D01*
X372781Y190802D01*
X375916Y190802D01*
X377484Y189234D01*
X377484Y184531D01*
X377484Y187666D02*
X380619Y190802D01*
X374348Y193886D02*
X371213Y197022D01*
X380619Y197022D01*
X380619Y200157D02*
X380619Y193886D01*
X380619Y203241D02*
X380619Y209512D01*
X380619Y203241D02*
X374348Y209512D01*
X372781Y209512D01*
X371213Y207944D01*
X371213Y204809D01*
X372781Y203241D01*
D12*
X352120Y227920D02*
X352120Y267380D01*
X371780Y267380D02*
X371780Y227920D01*
X352120Y227920D01*
X352120Y267380D02*
X371780Y267380D01*
D13*
X347381Y241602D02*
X345813Y240034D01*
X345813Y236899D01*
X347381Y235331D01*
X353651Y235331D01*
X355219Y236899D01*
X355219Y240034D01*
X353651Y241602D01*
X348948Y244686D02*
X345813Y247822D01*
X355219Y247822D01*
X355219Y250957D02*
X355219Y244686D01*
X355219Y258744D02*
X345813Y258744D01*
X350516Y254041D01*
X350516Y260312D01*
D12*
X326314Y267380D02*
X326314Y227920D01*
X345974Y227920D02*
X345974Y267380D01*
X345974Y227920D02*
X326314Y227920D01*
X326314Y267380D02*
X345974Y267380D01*
D13*
X315224Y241602D02*
X313657Y240034D01*
X313657Y236899D01*
X315224Y235331D01*
X321495Y235331D01*
X323063Y236899D01*
X323063Y240034D01*
X321495Y241602D01*
X316792Y244686D02*
X313657Y247822D01*
X323063Y247822D01*
X323063Y250957D02*
X323063Y244686D01*
X313657Y254041D02*
X313657Y260312D01*
X313657Y254041D02*
X318360Y254041D01*
X316792Y257177D01*
X316792Y258744D01*
X318360Y260312D01*
X321495Y260312D01*
X323063Y258744D01*
X323063Y255609D01*
X321495Y254041D01*
X345813Y184531D02*
X355219Y184531D01*
X345813Y184531D02*
X345813Y189234D01*
X347381Y190802D01*
X350516Y190802D01*
X352084Y189234D01*
X352084Y184531D01*
X352084Y187666D02*
X355219Y190802D01*
X348948Y193886D02*
X345813Y197022D01*
X355219Y197022D01*
X355219Y200157D02*
X355219Y193886D01*
X347381Y203241D02*
X345813Y204809D01*
X345813Y207944D01*
X347381Y209512D01*
X348948Y209512D01*
X350516Y207944D01*
X350516Y206377D01*
X350516Y207944D02*
X352084Y209512D01*
X353651Y209512D01*
X355219Y207944D01*
X355219Y204809D01*
X353651Y203241D01*
X323469Y190881D02*
X314063Y190881D01*
X314063Y195584D01*
X315631Y197152D01*
X318766Y197152D01*
X320334Y195584D01*
X320334Y190881D01*
X320334Y194016D02*
X323469Y197152D01*
X317198Y200236D02*
X314063Y203372D01*
X323469Y203372D01*
X323469Y206507D02*
X323469Y200236D01*
X323469Y214294D02*
X314063Y214294D01*
X318766Y209591D01*
X318766Y215862D01*
D10*
X532390Y172060D02*
X532390Y375060D01*
X433080Y375060D02*
X433080Y172060D01*
X532390Y172060D01*
X532390Y375060D02*
X433080Y375060D01*
D16*
X457200Y184150D02*
X479425Y184150D01*
X479425Y177800D01*
X485775Y177800D01*
X485775Y184150D01*
X485775Y190500D01*
X479425Y190500D01*
X479425Y184150D01*
X485775Y184150D02*
X508000Y184150D01*
X508000Y260350D02*
X492125Y260350D01*
X492125Y336550D01*
X495300Y336550D01*
X508000Y330200D01*
X504825Y330200D02*
X504825Y311150D01*
X508000Y311150D01*
X504825Y342900D02*
X504825Y361950D01*
X508000Y361950D01*
X473075Y260350D02*
X457200Y260350D01*
X473075Y260350D02*
X473075Y336550D01*
X469900Y336550D01*
X457200Y330200D01*
X460375Y330200D02*
X460375Y311150D01*
X457200Y311150D01*
X460375Y342900D02*
X460375Y361950D01*
X457200Y361950D01*
D15*
X508211Y459600D02*
X254211Y459600D01*
X254211Y393857D02*
X508211Y393857D01*
X508211Y438655D02*
X508211Y443579D01*
X508211Y452370D02*
X509498Y452370D01*
X509498Y448230D02*
X508211Y448230D01*
X508211Y450379D01*
X508211Y452370D01*
X511281Y446730D02*
X513911Y446730D01*
X513911Y453870D02*
X511281Y453870D01*
X508211Y448230D02*
X508211Y443579D01*
X509498Y452370D02*
X511281Y453870D01*
X513911Y453870D02*
X513911Y446730D01*
X508211Y398687D02*
X508211Y393857D01*
X508211Y398687D02*
X508211Y438655D01*
X511281Y446730D02*
X509498Y448230D01*
X508211Y443579D02*
X254211Y443579D01*
X254211Y438655D01*
X254211Y450379D02*
X508211Y450379D01*
X254211Y450379D02*
X254211Y443579D01*
X254211Y438655D02*
X254211Y398687D01*
X254211Y393857D01*
X254211Y378600D01*
X508211Y452370D02*
X508211Y456600D01*
X254211Y456600D02*
X254211Y450379D01*
X254211Y378600D02*
X508211Y378600D01*
X508211Y393857D01*
X508211Y456600D02*
X254211Y456600D01*
X508211Y456600D02*
X508211Y459600D01*
X254211Y459600D02*
X254211Y456600D01*
X463661Y418850D02*
X463667Y419320D01*
X463684Y419790D01*
X463713Y420259D01*
X463753Y420727D01*
X463805Y421194D01*
X463868Y421660D01*
X463943Y422124D01*
X464029Y422586D01*
X464126Y423046D01*
X464235Y423503D01*
X464355Y423958D01*
X464486Y424409D01*
X464628Y424857D01*
X464780Y425301D01*
X464944Y425742D01*
X465119Y426178D01*
X465304Y426610D01*
X465500Y427038D01*
X465706Y427460D01*
X465922Y427877D01*
X466149Y428289D01*
X466385Y428695D01*
X466632Y429095D01*
X466888Y429489D01*
X467154Y429877D01*
X467430Y430258D01*
X467714Y430632D01*
X468008Y430999D01*
X468310Y431358D01*
X468622Y431710D01*
X468942Y432055D01*
X469270Y432391D01*
X469606Y432719D01*
X469951Y433039D01*
X470303Y433351D01*
X470662Y433653D01*
X471029Y433947D01*
X471403Y434231D01*
X471784Y434507D01*
X472172Y434773D01*
X472566Y435029D01*
X472966Y435276D01*
X473372Y435512D01*
X473784Y435739D01*
X474201Y435955D01*
X474623Y436161D01*
X475051Y436357D01*
X475483Y436542D01*
X475919Y436717D01*
X476360Y436881D01*
X476804Y437033D01*
X477252Y437175D01*
X477703Y437306D01*
X478158Y437426D01*
X478615Y437535D01*
X479075Y437632D01*
X479537Y437718D01*
X480001Y437793D01*
X480467Y437856D01*
X480934Y437908D01*
X481402Y437948D01*
X481871Y437977D01*
X482341Y437994D01*
X482811Y438000D01*
X483281Y437994D01*
X483751Y437977D01*
X484220Y437948D01*
X484688Y437908D01*
X485155Y437856D01*
X485621Y437793D01*
X486085Y437718D01*
X486547Y437632D01*
X487007Y437535D01*
X487464Y437426D01*
X487919Y437306D01*
X488370Y437175D01*
X488818Y437033D01*
X489262Y436881D01*
X489703Y436717D01*
X490139Y436542D01*
X490571Y436357D01*
X490999Y436161D01*
X491421Y435955D01*
X491838Y435739D01*
X492250Y435512D01*
X492656Y435276D01*
X493056Y435029D01*
X493450Y434773D01*
X493838Y434507D01*
X494219Y434231D01*
X494593Y433947D01*
X494960Y433653D01*
X495319Y433351D01*
X495671Y433039D01*
X496016Y432719D01*
X496352Y432391D01*
X496680Y432055D01*
X497000Y431710D01*
X497312Y431358D01*
X497614Y430999D01*
X497908Y430632D01*
X498192Y430258D01*
X498468Y429877D01*
X498734Y429489D01*
X498990Y429095D01*
X499237Y428695D01*
X499473Y428289D01*
X499700Y427877D01*
X499916Y427460D01*
X500122Y427038D01*
X500318Y426610D01*
X500503Y426178D01*
X500678Y425742D01*
X500842Y425301D01*
X500994Y424857D01*
X501136Y424409D01*
X501267Y423958D01*
X501387Y423503D01*
X501496Y423046D01*
X501593Y422586D01*
X501679Y422124D01*
X501754Y421660D01*
X501817Y421194D01*
X501869Y420727D01*
X501909Y420259D01*
X501938Y419790D01*
X501955Y419320D01*
X501961Y418850D01*
X501955Y418380D01*
X501938Y417910D01*
X501909Y417441D01*
X501869Y416973D01*
X501817Y416506D01*
X501754Y416040D01*
X501679Y415576D01*
X501593Y415114D01*
X501496Y414654D01*
X501387Y414197D01*
X501267Y413742D01*
X501136Y413291D01*
X500994Y412843D01*
X500842Y412399D01*
X500678Y411958D01*
X500503Y411522D01*
X500318Y411090D01*
X500122Y410662D01*
X499916Y410240D01*
X499700Y409823D01*
X499473Y409411D01*
X499237Y409005D01*
X498990Y408605D01*
X498734Y408211D01*
X498468Y407823D01*
X498192Y407442D01*
X497908Y407068D01*
X497614Y406701D01*
X497312Y406342D01*
X497000Y405990D01*
X496680Y405645D01*
X496352Y405309D01*
X496016Y404981D01*
X495671Y404661D01*
X495319Y404349D01*
X494960Y404047D01*
X494593Y403753D01*
X494219Y403469D01*
X493838Y403193D01*
X493450Y402927D01*
X493056Y402671D01*
X492656Y402424D01*
X492250Y402188D01*
X491838Y401961D01*
X491421Y401745D01*
X490999Y401539D01*
X490571Y401343D01*
X490139Y401158D01*
X489703Y400983D01*
X489262Y400819D01*
X488818Y400667D01*
X488370Y400525D01*
X487919Y400394D01*
X487464Y400274D01*
X487007Y400165D01*
X486547Y400068D01*
X486085Y399982D01*
X485621Y399907D01*
X485155Y399844D01*
X484688Y399792D01*
X484220Y399752D01*
X483751Y399723D01*
X483281Y399706D01*
X482811Y399700D01*
X482341Y399706D01*
X481871Y399723D01*
X481402Y399752D01*
X480934Y399792D01*
X480467Y399844D01*
X480001Y399907D01*
X479537Y399982D01*
X479075Y400068D01*
X478615Y400165D01*
X478158Y400274D01*
X477703Y400394D01*
X477252Y400525D01*
X476804Y400667D01*
X476360Y400819D01*
X475919Y400983D01*
X475483Y401158D01*
X475051Y401343D01*
X474623Y401539D01*
X474201Y401745D01*
X473784Y401961D01*
X473372Y402188D01*
X472966Y402424D01*
X472566Y402671D01*
X472172Y402927D01*
X471784Y403193D01*
X471403Y403469D01*
X471029Y403753D01*
X470662Y404047D01*
X470303Y404349D01*
X469951Y404661D01*
X469606Y404981D01*
X469270Y405309D01*
X468942Y405645D01*
X468622Y405990D01*
X468310Y406342D01*
X468008Y406701D01*
X467714Y407068D01*
X467430Y407442D01*
X467154Y407823D01*
X466888Y408211D01*
X466632Y408605D01*
X466385Y409005D01*
X466149Y409411D01*
X465922Y409823D01*
X465706Y410240D01*
X465500Y410662D01*
X465304Y411090D01*
X465119Y411522D01*
X464944Y411958D01*
X464780Y412399D01*
X464628Y412843D01*
X464486Y413291D01*
X464355Y413742D01*
X464235Y414197D01*
X464126Y414654D01*
X464029Y415114D01*
X463943Y415576D01*
X463868Y416040D01*
X463805Y416506D01*
X463753Y416973D01*
X463713Y417441D01*
X463684Y417910D01*
X463667Y418380D01*
X463661Y418850D01*
X412861Y418850D02*
X412867Y419320D01*
X412884Y419790D01*
X412913Y420259D01*
X412953Y420727D01*
X413005Y421194D01*
X413068Y421660D01*
X413143Y422124D01*
X413229Y422586D01*
X413326Y423046D01*
X413435Y423503D01*
X413555Y423958D01*
X413686Y424409D01*
X413828Y424857D01*
X413980Y425301D01*
X414144Y425742D01*
X414319Y426178D01*
X414504Y426610D01*
X414700Y427038D01*
X414906Y427460D01*
X415122Y427877D01*
X415349Y428289D01*
X415585Y428695D01*
X415832Y429095D01*
X416088Y429489D01*
X416354Y429877D01*
X416630Y430258D01*
X416914Y430632D01*
X417208Y430999D01*
X417510Y431358D01*
X417822Y431710D01*
X418142Y432055D01*
X418470Y432391D01*
X418806Y432719D01*
X419151Y433039D01*
X419503Y433351D01*
X419862Y433653D01*
X420229Y433947D01*
X420603Y434231D01*
X420984Y434507D01*
X421372Y434773D01*
X421766Y435029D01*
X422166Y435276D01*
X422572Y435512D01*
X422984Y435739D01*
X423401Y435955D01*
X423823Y436161D01*
X424251Y436357D01*
X424683Y436542D01*
X425119Y436717D01*
X425560Y436881D01*
X426004Y437033D01*
X426452Y437175D01*
X426903Y437306D01*
X427358Y437426D01*
X427815Y437535D01*
X428275Y437632D01*
X428737Y437718D01*
X429201Y437793D01*
X429667Y437856D01*
X430134Y437908D01*
X430602Y437948D01*
X431071Y437977D01*
X431541Y437994D01*
X432011Y438000D01*
X432481Y437994D01*
X432951Y437977D01*
X433420Y437948D01*
X433888Y437908D01*
X434355Y437856D01*
X434821Y437793D01*
X435285Y437718D01*
X435747Y437632D01*
X436207Y437535D01*
X436664Y437426D01*
X437119Y437306D01*
X437570Y437175D01*
X438018Y437033D01*
X438462Y436881D01*
X438903Y436717D01*
X439339Y436542D01*
X439771Y436357D01*
X440199Y436161D01*
X440621Y435955D01*
X441038Y435739D01*
X441450Y435512D01*
X441856Y435276D01*
X442256Y435029D01*
X442650Y434773D01*
X443038Y434507D01*
X443419Y434231D01*
X443793Y433947D01*
X444160Y433653D01*
X444519Y433351D01*
X444871Y433039D01*
X445216Y432719D01*
X445552Y432391D01*
X445880Y432055D01*
X446200Y431710D01*
X446512Y431358D01*
X446814Y430999D01*
X447108Y430632D01*
X447392Y430258D01*
X447668Y429877D01*
X447934Y429489D01*
X448190Y429095D01*
X448437Y428695D01*
X448673Y428289D01*
X448900Y427877D01*
X449116Y427460D01*
X449322Y427038D01*
X449518Y426610D01*
X449703Y426178D01*
X449878Y425742D01*
X450042Y425301D01*
X450194Y424857D01*
X450336Y424409D01*
X450467Y423958D01*
X450587Y423503D01*
X450696Y423046D01*
X450793Y422586D01*
X450879Y422124D01*
X450954Y421660D01*
X451017Y421194D01*
X451069Y420727D01*
X451109Y420259D01*
X451138Y419790D01*
X451155Y419320D01*
X451161Y418850D01*
X451155Y418380D01*
X451138Y417910D01*
X451109Y417441D01*
X451069Y416973D01*
X451017Y416506D01*
X450954Y416040D01*
X450879Y415576D01*
X450793Y415114D01*
X450696Y414654D01*
X450587Y414197D01*
X450467Y413742D01*
X450336Y413291D01*
X450194Y412843D01*
X450042Y412399D01*
X449878Y411958D01*
X449703Y411522D01*
X449518Y411090D01*
X449322Y410662D01*
X449116Y410240D01*
X448900Y409823D01*
X448673Y409411D01*
X448437Y409005D01*
X448190Y408605D01*
X447934Y408211D01*
X447668Y407823D01*
X447392Y407442D01*
X447108Y407068D01*
X446814Y406701D01*
X446512Y406342D01*
X446200Y405990D01*
X445880Y405645D01*
X445552Y405309D01*
X445216Y404981D01*
X444871Y404661D01*
X444519Y404349D01*
X444160Y404047D01*
X443793Y403753D01*
X443419Y403469D01*
X443038Y403193D01*
X442650Y402927D01*
X442256Y402671D01*
X441856Y402424D01*
X441450Y402188D01*
X441038Y401961D01*
X440621Y401745D01*
X440199Y401539D01*
X439771Y401343D01*
X439339Y401158D01*
X438903Y400983D01*
X438462Y400819D01*
X438018Y400667D01*
X437570Y400525D01*
X437119Y400394D01*
X436664Y400274D01*
X436207Y400165D01*
X435747Y400068D01*
X435285Y399982D01*
X434821Y399907D01*
X434355Y399844D01*
X433888Y399792D01*
X433420Y399752D01*
X432951Y399723D01*
X432481Y399706D01*
X432011Y399700D01*
X431541Y399706D01*
X431071Y399723D01*
X430602Y399752D01*
X430134Y399792D01*
X429667Y399844D01*
X429201Y399907D01*
X428737Y399982D01*
X428275Y400068D01*
X427815Y400165D01*
X427358Y400274D01*
X426903Y400394D01*
X426452Y400525D01*
X426004Y400667D01*
X425560Y400819D01*
X425119Y400983D01*
X424683Y401158D01*
X424251Y401343D01*
X423823Y401539D01*
X423401Y401745D01*
X422984Y401961D01*
X422572Y402188D01*
X422166Y402424D01*
X421766Y402671D01*
X421372Y402927D01*
X420984Y403193D01*
X420603Y403469D01*
X420229Y403753D01*
X419862Y404047D01*
X419503Y404349D01*
X419151Y404661D01*
X418806Y404981D01*
X418470Y405309D01*
X418142Y405645D01*
X417822Y405990D01*
X417510Y406342D01*
X417208Y406701D01*
X416914Y407068D01*
X416630Y407442D01*
X416354Y407823D01*
X416088Y408211D01*
X415832Y408605D01*
X415585Y409005D01*
X415349Y409411D01*
X415122Y409823D01*
X414906Y410240D01*
X414700Y410662D01*
X414504Y411090D01*
X414319Y411522D01*
X414144Y411958D01*
X413980Y412399D01*
X413828Y412843D01*
X413686Y413291D01*
X413555Y413742D01*
X413435Y414197D01*
X413326Y414654D01*
X413229Y415114D01*
X413143Y415576D01*
X413068Y416040D01*
X413005Y416506D01*
X412953Y416973D01*
X412913Y417441D01*
X412884Y417910D01*
X412867Y418380D01*
X412861Y418850D01*
X362061Y418850D02*
X362067Y419320D01*
X362084Y419790D01*
X362113Y420259D01*
X362153Y420727D01*
X362205Y421194D01*
X362268Y421660D01*
X362343Y422124D01*
X362429Y422586D01*
X362526Y423046D01*
X362635Y423503D01*
X362755Y423958D01*
X362886Y424409D01*
X363028Y424857D01*
X363180Y425301D01*
X363344Y425742D01*
X363519Y426178D01*
X363704Y426610D01*
X363900Y427038D01*
X364106Y427460D01*
X364322Y427877D01*
X364549Y428289D01*
X364785Y428695D01*
X365032Y429095D01*
X365288Y429489D01*
X365554Y429877D01*
X365830Y430258D01*
X366114Y430632D01*
X366408Y430999D01*
X366710Y431358D01*
X367022Y431710D01*
X367342Y432055D01*
X367670Y432391D01*
X368006Y432719D01*
X368351Y433039D01*
X368703Y433351D01*
X369062Y433653D01*
X369429Y433947D01*
X369803Y434231D01*
X370184Y434507D01*
X370572Y434773D01*
X370966Y435029D01*
X371366Y435276D01*
X371772Y435512D01*
X372184Y435739D01*
X372601Y435955D01*
X373023Y436161D01*
X373451Y436357D01*
X373883Y436542D01*
X374319Y436717D01*
X374760Y436881D01*
X375204Y437033D01*
X375652Y437175D01*
X376103Y437306D01*
X376558Y437426D01*
X377015Y437535D01*
X377475Y437632D01*
X377937Y437718D01*
X378401Y437793D01*
X378867Y437856D01*
X379334Y437908D01*
X379802Y437948D01*
X380271Y437977D01*
X380741Y437994D01*
X381211Y438000D01*
X381681Y437994D01*
X382151Y437977D01*
X382620Y437948D01*
X383088Y437908D01*
X383555Y437856D01*
X384021Y437793D01*
X384485Y437718D01*
X384947Y437632D01*
X385407Y437535D01*
X385864Y437426D01*
X386319Y437306D01*
X386770Y437175D01*
X387218Y437033D01*
X387662Y436881D01*
X388103Y436717D01*
X388539Y436542D01*
X388971Y436357D01*
X389399Y436161D01*
X389821Y435955D01*
X390238Y435739D01*
X390650Y435512D01*
X391056Y435276D01*
X391456Y435029D01*
X391850Y434773D01*
X392238Y434507D01*
X392619Y434231D01*
X392993Y433947D01*
X393360Y433653D01*
X393719Y433351D01*
X394071Y433039D01*
X394416Y432719D01*
X394752Y432391D01*
X395080Y432055D01*
X395400Y431710D01*
X395712Y431358D01*
X396014Y430999D01*
X396308Y430632D01*
X396592Y430258D01*
X396868Y429877D01*
X397134Y429489D01*
X397390Y429095D01*
X397637Y428695D01*
X397873Y428289D01*
X398100Y427877D01*
X398316Y427460D01*
X398522Y427038D01*
X398718Y426610D01*
X398903Y426178D01*
X399078Y425742D01*
X399242Y425301D01*
X399394Y424857D01*
X399536Y424409D01*
X399667Y423958D01*
X399787Y423503D01*
X399896Y423046D01*
X399993Y422586D01*
X400079Y422124D01*
X400154Y421660D01*
X400217Y421194D01*
X400269Y420727D01*
X400309Y420259D01*
X400338Y419790D01*
X400355Y419320D01*
X400361Y418850D01*
X400355Y418380D01*
X400338Y417910D01*
X400309Y417441D01*
X400269Y416973D01*
X400217Y416506D01*
X400154Y416040D01*
X400079Y415576D01*
X399993Y415114D01*
X399896Y414654D01*
X399787Y414197D01*
X399667Y413742D01*
X399536Y413291D01*
X399394Y412843D01*
X399242Y412399D01*
X399078Y411958D01*
X398903Y411522D01*
X398718Y411090D01*
X398522Y410662D01*
X398316Y410240D01*
X398100Y409823D01*
X397873Y409411D01*
X397637Y409005D01*
X397390Y408605D01*
X397134Y408211D01*
X396868Y407823D01*
X396592Y407442D01*
X396308Y407068D01*
X396014Y406701D01*
X395712Y406342D01*
X395400Y405990D01*
X395080Y405645D01*
X394752Y405309D01*
X394416Y404981D01*
X394071Y404661D01*
X393719Y404349D01*
X393360Y404047D01*
X392993Y403753D01*
X392619Y403469D01*
X392238Y403193D01*
X391850Y402927D01*
X391456Y402671D01*
X391056Y402424D01*
X390650Y402188D01*
X390238Y401961D01*
X389821Y401745D01*
X389399Y401539D01*
X388971Y401343D01*
X388539Y401158D01*
X388103Y400983D01*
X387662Y400819D01*
X387218Y400667D01*
X386770Y400525D01*
X386319Y400394D01*
X385864Y400274D01*
X385407Y400165D01*
X384947Y400068D01*
X384485Y399982D01*
X384021Y399907D01*
X383555Y399844D01*
X383088Y399792D01*
X382620Y399752D01*
X382151Y399723D01*
X381681Y399706D01*
X381211Y399700D01*
X380741Y399706D01*
X380271Y399723D01*
X379802Y399752D01*
X379334Y399792D01*
X378867Y399844D01*
X378401Y399907D01*
X377937Y399982D01*
X377475Y400068D01*
X377015Y400165D01*
X376558Y400274D01*
X376103Y400394D01*
X375652Y400525D01*
X375204Y400667D01*
X374760Y400819D01*
X374319Y400983D01*
X373883Y401158D01*
X373451Y401343D01*
X373023Y401539D01*
X372601Y401745D01*
X372184Y401961D01*
X371772Y402188D01*
X371366Y402424D01*
X370966Y402671D01*
X370572Y402927D01*
X370184Y403193D01*
X369803Y403469D01*
X369429Y403753D01*
X369062Y404047D01*
X368703Y404349D01*
X368351Y404661D01*
X368006Y404981D01*
X367670Y405309D01*
X367342Y405645D01*
X367022Y405990D01*
X366710Y406342D01*
X366408Y406701D01*
X366114Y407068D01*
X365830Y407442D01*
X365554Y407823D01*
X365288Y408211D01*
X365032Y408605D01*
X364785Y409005D01*
X364549Y409411D01*
X364322Y409823D01*
X364106Y410240D01*
X363900Y410662D01*
X363704Y411090D01*
X363519Y411522D01*
X363344Y411958D01*
X363180Y412399D01*
X363028Y412843D01*
X362886Y413291D01*
X362755Y413742D01*
X362635Y414197D01*
X362526Y414654D01*
X362429Y415114D01*
X362343Y415576D01*
X362268Y416040D01*
X362205Y416506D01*
X362153Y416973D01*
X362113Y417441D01*
X362084Y417910D01*
X362067Y418380D01*
X362061Y418850D01*
X311261Y418850D02*
X311267Y419320D01*
X311284Y419790D01*
X311313Y420259D01*
X311353Y420727D01*
X311405Y421194D01*
X311468Y421660D01*
X311543Y422124D01*
X311629Y422586D01*
X311726Y423046D01*
X311835Y423503D01*
X311955Y423958D01*
X312086Y424409D01*
X312228Y424857D01*
X312380Y425301D01*
X312544Y425742D01*
X312719Y426178D01*
X312904Y426610D01*
X313100Y427038D01*
X313306Y427460D01*
X313522Y427877D01*
X313749Y428289D01*
X313985Y428695D01*
X314232Y429095D01*
X314488Y429489D01*
X314754Y429877D01*
X315030Y430258D01*
X315314Y430632D01*
X315608Y430999D01*
X315910Y431358D01*
X316222Y431710D01*
X316542Y432055D01*
X316870Y432391D01*
X317206Y432719D01*
X317551Y433039D01*
X317903Y433351D01*
X318262Y433653D01*
X318629Y433947D01*
X319003Y434231D01*
X319384Y434507D01*
X319772Y434773D01*
X320166Y435029D01*
X320566Y435276D01*
X320972Y435512D01*
X321384Y435739D01*
X321801Y435955D01*
X322223Y436161D01*
X322651Y436357D01*
X323083Y436542D01*
X323519Y436717D01*
X323960Y436881D01*
X324404Y437033D01*
X324852Y437175D01*
X325303Y437306D01*
X325758Y437426D01*
X326215Y437535D01*
X326675Y437632D01*
X327137Y437718D01*
X327601Y437793D01*
X328067Y437856D01*
X328534Y437908D01*
X329002Y437948D01*
X329471Y437977D01*
X329941Y437994D01*
X330411Y438000D01*
X330881Y437994D01*
X331351Y437977D01*
X331820Y437948D01*
X332288Y437908D01*
X332755Y437856D01*
X333221Y437793D01*
X333685Y437718D01*
X334147Y437632D01*
X334607Y437535D01*
X335064Y437426D01*
X335519Y437306D01*
X335970Y437175D01*
X336418Y437033D01*
X336862Y436881D01*
X337303Y436717D01*
X337739Y436542D01*
X338171Y436357D01*
X338599Y436161D01*
X339021Y435955D01*
X339438Y435739D01*
X339850Y435512D01*
X340256Y435276D01*
X340656Y435029D01*
X341050Y434773D01*
X341438Y434507D01*
X341819Y434231D01*
X342193Y433947D01*
X342560Y433653D01*
X342919Y433351D01*
X343271Y433039D01*
X343616Y432719D01*
X343952Y432391D01*
X344280Y432055D01*
X344600Y431710D01*
X344912Y431358D01*
X345214Y430999D01*
X345508Y430632D01*
X345792Y430258D01*
X346068Y429877D01*
X346334Y429489D01*
X346590Y429095D01*
X346837Y428695D01*
X347073Y428289D01*
X347300Y427877D01*
X347516Y427460D01*
X347722Y427038D01*
X347918Y426610D01*
X348103Y426178D01*
X348278Y425742D01*
X348442Y425301D01*
X348594Y424857D01*
X348736Y424409D01*
X348867Y423958D01*
X348987Y423503D01*
X349096Y423046D01*
X349193Y422586D01*
X349279Y422124D01*
X349354Y421660D01*
X349417Y421194D01*
X349469Y420727D01*
X349509Y420259D01*
X349538Y419790D01*
X349555Y419320D01*
X349561Y418850D01*
X349555Y418380D01*
X349538Y417910D01*
X349509Y417441D01*
X349469Y416973D01*
X349417Y416506D01*
X349354Y416040D01*
X349279Y415576D01*
X349193Y415114D01*
X349096Y414654D01*
X348987Y414197D01*
X348867Y413742D01*
X348736Y413291D01*
X348594Y412843D01*
X348442Y412399D01*
X348278Y411958D01*
X348103Y411522D01*
X347918Y411090D01*
X347722Y410662D01*
X347516Y410240D01*
X347300Y409823D01*
X347073Y409411D01*
X346837Y409005D01*
X346590Y408605D01*
X346334Y408211D01*
X346068Y407823D01*
X345792Y407442D01*
X345508Y407068D01*
X345214Y406701D01*
X344912Y406342D01*
X344600Y405990D01*
X344280Y405645D01*
X343952Y405309D01*
X343616Y404981D01*
X343271Y404661D01*
X342919Y404349D01*
X342560Y404047D01*
X342193Y403753D01*
X341819Y403469D01*
X341438Y403193D01*
X341050Y402927D01*
X340656Y402671D01*
X340256Y402424D01*
X339850Y402188D01*
X339438Y401961D01*
X339021Y401745D01*
X338599Y401539D01*
X338171Y401343D01*
X337739Y401158D01*
X337303Y400983D01*
X336862Y400819D01*
X336418Y400667D01*
X335970Y400525D01*
X335519Y400394D01*
X335064Y400274D01*
X334607Y400165D01*
X334147Y400068D01*
X333685Y399982D01*
X333221Y399907D01*
X332755Y399844D01*
X332288Y399792D01*
X331820Y399752D01*
X331351Y399723D01*
X330881Y399706D01*
X330411Y399700D01*
X329941Y399706D01*
X329471Y399723D01*
X329002Y399752D01*
X328534Y399792D01*
X328067Y399844D01*
X327601Y399907D01*
X327137Y399982D01*
X326675Y400068D01*
X326215Y400165D01*
X325758Y400274D01*
X325303Y400394D01*
X324852Y400525D01*
X324404Y400667D01*
X323960Y400819D01*
X323519Y400983D01*
X323083Y401158D01*
X322651Y401343D01*
X322223Y401539D01*
X321801Y401745D01*
X321384Y401961D01*
X320972Y402188D01*
X320566Y402424D01*
X320166Y402671D01*
X319772Y402927D01*
X319384Y403193D01*
X319003Y403469D01*
X318629Y403753D01*
X318262Y404047D01*
X317903Y404349D01*
X317551Y404661D01*
X317206Y404981D01*
X316870Y405309D01*
X316542Y405645D01*
X316222Y405990D01*
X315910Y406342D01*
X315608Y406701D01*
X315314Y407068D01*
X315030Y407442D01*
X314754Y407823D01*
X314488Y408211D01*
X314232Y408605D01*
X313985Y409005D01*
X313749Y409411D01*
X313522Y409823D01*
X313306Y410240D01*
X313100Y410662D01*
X312904Y411090D01*
X312719Y411522D01*
X312544Y411958D01*
X312380Y412399D01*
X312228Y412843D01*
X312086Y413291D01*
X311955Y413742D01*
X311835Y414197D01*
X311726Y414654D01*
X311629Y415114D01*
X311543Y415576D01*
X311468Y416040D01*
X311405Y416506D01*
X311353Y416973D01*
X311313Y417441D01*
X311284Y417910D01*
X311267Y418380D01*
X311261Y418850D01*
X260461Y418850D02*
X260467Y419320D01*
X260484Y419790D01*
X260513Y420259D01*
X260553Y420727D01*
X260605Y421194D01*
X260668Y421660D01*
X260743Y422124D01*
X260829Y422586D01*
X260926Y423046D01*
X261035Y423503D01*
X261155Y423958D01*
X261286Y424409D01*
X261428Y424857D01*
X261580Y425301D01*
X261744Y425742D01*
X261919Y426178D01*
X262104Y426610D01*
X262300Y427038D01*
X262506Y427460D01*
X262722Y427877D01*
X262949Y428289D01*
X263185Y428695D01*
X263432Y429095D01*
X263688Y429489D01*
X263954Y429877D01*
X264230Y430258D01*
X264514Y430632D01*
X264808Y430999D01*
X265110Y431358D01*
X265422Y431710D01*
X265742Y432055D01*
X266070Y432391D01*
X266406Y432719D01*
X266751Y433039D01*
X267103Y433351D01*
X267462Y433653D01*
X267829Y433947D01*
X268203Y434231D01*
X268584Y434507D01*
X268972Y434773D01*
X269366Y435029D01*
X269766Y435276D01*
X270172Y435512D01*
X270584Y435739D01*
X271001Y435955D01*
X271423Y436161D01*
X271851Y436357D01*
X272283Y436542D01*
X272719Y436717D01*
X273160Y436881D01*
X273604Y437033D01*
X274052Y437175D01*
X274503Y437306D01*
X274958Y437426D01*
X275415Y437535D01*
X275875Y437632D01*
X276337Y437718D01*
X276801Y437793D01*
X277267Y437856D01*
X277734Y437908D01*
X278202Y437948D01*
X278671Y437977D01*
X279141Y437994D01*
X279611Y438000D01*
X280081Y437994D01*
X280551Y437977D01*
X281020Y437948D01*
X281488Y437908D01*
X281955Y437856D01*
X282421Y437793D01*
X282885Y437718D01*
X283347Y437632D01*
X283807Y437535D01*
X284264Y437426D01*
X284719Y437306D01*
X285170Y437175D01*
X285618Y437033D01*
X286062Y436881D01*
X286503Y436717D01*
X286939Y436542D01*
X287371Y436357D01*
X287799Y436161D01*
X288221Y435955D01*
X288638Y435739D01*
X289050Y435512D01*
X289456Y435276D01*
X289856Y435029D01*
X290250Y434773D01*
X290638Y434507D01*
X291019Y434231D01*
X291393Y433947D01*
X291760Y433653D01*
X292119Y433351D01*
X292471Y433039D01*
X292816Y432719D01*
X293152Y432391D01*
X293480Y432055D01*
X293800Y431710D01*
X294112Y431358D01*
X294414Y430999D01*
X294708Y430632D01*
X294992Y430258D01*
X295268Y429877D01*
X295534Y429489D01*
X295790Y429095D01*
X296037Y428695D01*
X296273Y428289D01*
X296500Y427877D01*
X296716Y427460D01*
X296922Y427038D01*
X297118Y426610D01*
X297303Y426178D01*
X297478Y425742D01*
X297642Y425301D01*
X297794Y424857D01*
X297936Y424409D01*
X298067Y423958D01*
X298187Y423503D01*
X298296Y423046D01*
X298393Y422586D01*
X298479Y422124D01*
X298554Y421660D01*
X298617Y421194D01*
X298669Y420727D01*
X298709Y420259D01*
X298738Y419790D01*
X298755Y419320D01*
X298761Y418850D01*
X298755Y418380D01*
X298738Y417910D01*
X298709Y417441D01*
X298669Y416973D01*
X298617Y416506D01*
X298554Y416040D01*
X298479Y415576D01*
X298393Y415114D01*
X298296Y414654D01*
X298187Y414197D01*
X298067Y413742D01*
X297936Y413291D01*
X297794Y412843D01*
X297642Y412399D01*
X297478Y411958D01*
X297303Y411522D01*
X297118Y411090D01*
X296922Y410662D01*
X296716Y410240D01*
X296500Y409823D01*
X296273Y409411D01*
X296037Y409005D01*
X295790Y408605D01*
X295534Y408211D01*
X295268Y407823D01*
X294992Y407442D01*
X294708Y407068D01*
X294414Y406701D01*
X294112Y406342D01*
X293800Y405990D01*
X293480Y405645D01*
X293152Y405309D01*
X292816Y404981D01*
X292471Y404661D01*
X292119Y404349D01*
X291760Y404047D01*
X291393Y403753D01*
X291019Y403469D01*
X290638Y403193D01*
X290250Y402927D01*
X289856Y402671D01*
X289456Y402424D01*
X289050Y402188D01*
X288638Y401961D01*
X288221Y401745D01*
X287799Y401539D01*
X287371Y401343D01*
X286939Y401158D01*
X286503Y400983D01*
X286062Y400819D01*
X285618Y400667D01*
X285170Y400525D01*
X284719Y400394D01*
X284264Y400274D01*
X283807Y400165D01*
X283347Y400068D01*
X282885Y399982D01*
X282421Y399907D01*
X281955Y399844D01*
X281488Y399792D01*
X281020Y399752D01*
X280551Y399723D01*
X280081Y399706D01*
X279611Y399700D01*
X279141Y399706D01*
X278671Y399723D01*
X278202Y399752D01*
X277734Y399792D01*
X277267Y399844D01*
X276801Y399907D01*
X276337Y399982D01*
X275875Y400068D01*
X275415Y400165D01*
X274958Y400274D01*
X274503Y400394D01*
X274052Y400525D01*
X273604Y400667D01*
X273160Y400819D01*
X272719Y400983D01*
X272283Y401158D01*
X271851Y401343D01*
X271423Y401539D01*
X271001Y401745D01*
X270584Y401961D01*
X270172Y402188D01*
X269766Y402424D01*
X269366Y402671D01*
X268972Y402927D01*
X268584Y403193D01*
X268203Y403469D01*
X267829Y403753D01*
X267462Y404047D01*
X267103Y404349D01*
X266751Y404661D01*
X266406Y404981D01*
X266070Y405309D01*
X265742Y405645D01*
X265422Y405990D01*
X265110Y406342D01*
X264808Y406701D01*
X264514Y407068D01*
X264230Y407442D01*
X263954Y407823D01*
X263688Y408211D01*
X263432Y408605D01*
X263185Y409005D01*
X262949Y409411D01*
X262722Y409823D01*
X262506Y410240D01*
X262300Y410662D01*
X262104Y411090D01*
X261919Y411522D01*
X261744Y411958D01*
X261580Y412399D01*
X261428Y412843D01*
X261286Y413291D01*
X261155Y413742D01*
X261035Y414197D01*
X260926Y414654D01*
X260829Y415114D01*
X260743Y415576D01*
X260668Y416040D01*
X260605Y416506D01*
X260553Y416973D01*
X260513Y417441D01*
X260484Y417910D01*
X260467Y418380D01*
X260461Y418850D01*
X254211Y167500D02*
X508211Y167500D01*
X508211Y101757D02*
X254211Y101757D01*
X508211Y146555D02*
X508211Y151479D01*
X508211Y160270D02*
X509498Y160270D01*
X509498Y156130D02*
X508211Y156130D01*
X508211Y158279D01*
X508211Y160270D01*
X511281Y154630D02*
X513911Y154630D01*
X513911Y161770D02*
X511281Y161770D01*
X508211Y156130D02*
X508211Y151479D01*
X509498Y160270D02*
X511281Y161770D01*
X513911Y161770D02*
X513911Y154630D01*
X508211Y106587D02*
X508211Y101757D01*
X508211Y106587D02*
X508211Y146555D01*
X511281Y154630D02*
X509498Y156130D01*
X508211Y151479D02*
X254211Y151479D01*
X254211Y146555D01*
X254211Y158279D02*
X508211Y158279D01*
X254211Y158279D02*
X254211Y151479D01*
X254211Y146555D02*
X254211Y106587D01*
X254211Y101757D01*
X254211Y86500D01*
X508211Y160270D02*
X508211Y164500D01*
X254211Y164500D02*
X254211Y158279D01*
X254211Y86500D02*
X508211Y86500D01*
X508211Y101757D01*
X508211Y164500D02*
X254211Y164500D01*
X508211Y164500D02*
X508211Y167500D01*
X254211Y167500D02*
X254211Y164500D01*
X463661Y126750D02*
X463667Y127220D01*
X463684Y127690D01*
X463713Y128159D01*
X463753Y128627D01*
X463805Y129094D01*
X463868Y129560D01*
X463943Y130024D01*
X464029Y130486D01*
X464126Y130946D01*
X464235Y131403D01*
X464355Y131858D01*
X464486Y132309D01*
X464628Y132757D01*
X464780Y133201D01*
X464944Y133642D01*
X465119Y134078D01*
X465304Y134510D01*
X465500Y134938D01*
X465706Y135360D01*
X465922Y135777D01*
X466149Y136189D01*
X466385Y136595D01*
X466632Y136995D01*
X466888Y137389D01*
X467154Y137777D01*
X467430Y138158D01*
X467714Y138532D01*
X468008Y138899D01*
X468310Y139258D01*
X468622Y139610D01*
X468942Y139955D01*
X469270Y140291D01*
X469606Y140619D01*
X469951Y140939D01*
X470303Y141251D01*
X470662Y141553D01*
X471029Y141847D01*
X471403Y142131D01*
X471784Y142407D01*
X472172Y142673D01*
X472566Y142929D01*
X472966Y143176D01*
X473372Y143412D01*
X473784Y143639D01*
X474201Y143855D01*
X474623Y144061D01*
X475051Y144257D01*
X475483Y144442D01*
X475919Y144617D01*
X476360Y144781D01*
X476804Y144933D01*
X477252Y145075D01*
X477703Y145206D01*
X478158Y145326D01*
X478615Y145435D01*
X479075Y145532D01*
X479537Y145618D01*
X480001Y145693D01*
X480467Y145756D01*
X480934Y145808D01*
X481402Y145848D01*
X481871Y145877D01*
X482341Y145894D01*
X482811Y145900D01*
X483281Y145894D01*
X483751Y145877D01*
X484220Y145848D01*
X484688Y145808D01*
X485155Y145756D01*
X485621Y145693D01*
X486085Y145618D01*
X486547Y145532D01*
X487007Y145435D01*
X487464Y145326D01*
X487919Y145206D01*
X488370Y145075D01*
X488818Y144933D01*
X489262Y144781D01*
X489703Y144617D01*
X490139Y144442D01*
X490571Y144257D01*
X490999Y144061D01*
X491421Y143855D01*
X491838Y143639D01*
X492250Y143412D01*
X492656Y143176D01*
X493056Y142929D01*
X493450Y142673D01*
X493838Y142407D01*
X494219Y142131D01*
X494593Y141847D01*
X494960Y141553D01*
X495319Y141251D01*
X495671Y140939D01*
X496016Y140619D01*
X496352Y140291D01*
X496680Y139955D01*
X497000Y139610D01*
X497312Y139258D01*
X497614Y138899D01*
X497908Y138532D01*
X498192Y138158D01*
X498468Y137777D01*
X498734Y137389D01*
X498990Y136995D01*
X499237Y136595D01*
X499473Y136189D01*
X499700Y135777D01*
X499916Y135360D01*
X500122Y134938D01*
X500318Y134510D01*
X500503Y134078D01*
X500678Y133642D01*
X500842Y133201D01*
X500994Y132757D01*
X501136Y132309D01*
X501267Y131858D01*
X501387Y131403D01*
X501496Y130946D01*
X501593Y130486D01*
X501679Y130024D01*
X501754Y129560D01*
X501817Y129094D01*
X501869Y128627D01*
X501909Y128159D01*
X501938Y127690D01*
X501955Y127220D01*
X501961Y126750D01*
X501955Y126280D01*
X501938Y125810D01*
X501909Y125341D01*
X501869Y124873D01*
X501817Y124406D01*
X501754Y123940D01*
X501679Y123476D01*
X501593Y123014D01*
X501496Y122554D01*
X501387Y122097D01*
X501267Y121642D01*
X501136Y121191D01*
X500994Y120743D01*
X500842Y120299D01*
X500678Y119858D01*
X500503Y119422D01*
X500318Y118990D01*
X500122Y118562D01*
X499916Y118140D01*
X499700Y117723D01*
X499473Y117311D01*
X499237Y116905D01*
X498990Y116505D01*
X498734Y116111D01*
X498468Y115723D01*
X498192Y115342D01*
X497908Y114968D01*
X497614Y114601D01*
X497312Y114242D01*
X497000Y113890D01*
X496680Y113545D01*
X496352Y113209D01*
X496016Y112881D01*
X495671Y112561D01*
X495319Y112249D01*
X494960Y111947D01*
X494593Y111653D01*
X494219Y111369D01*
X493838Y111093D01*
X493450Y110827D01*
X493056Y110571D01*
X492656Y110324D01*
X492250Y110088D01*
X491838Y109861D01*
X491421Y109645D01*
X490999Y109439D01*
X490571Y109243D01*
X490139Y109058D01*
X489703Y108883D01*
X489262Y108719D01*
X488818Y108567D01*
X488370Y108425D01*
X487919Y108294D01*
X487464Y108174D01*
X487007Y108065D01*
X486547Y107968D01*
X486085Y107882D01*
X485621Y107807D01*
X485155Y107744D01*
X484688Y107692D01*
X484220Y107652D01*
X483751Y107623D01*
X483281Y107606D01*
X482811Y107600D01*
X482341Y107606D01*
X481871Y107623D01*
X481402Y107652D01*
X480934Y107692D01*
X480467Y107744D01*
X480001Y107807D01*
X479537Y107882D01*
X479075Y107968D01*
X478615Y108065D01*
X478158Y108174D01*
X477703Y108294D01*
X477252Y108425D01*
X476804Y108567D01*
X476360Y108719D01*
X475919Y108883D01*
X475483Y109058D01*
X475051Y109243D01*
X474623Y109439D01*
X474201Y109645D01*
X473784Y109861D01*
X473372Y110088D01*
X472966Y110324D01*
X472566Y110571D01*
X472172Y110827D01*
X471784Y111093D01*
X471403Y111369D01*
X471029Y111653D01*
X470662Y111947D01*
X470303Y112249D01*
X469951Y112561D01*
X469606Y112881D01*
X469270Y113209D01*
X468942Y113545D01*
X468622Y113890D01*
X468310Y114242D01*
X468008Y114601D01*
X467714Y114968D01*
X467430Y115342D01*
X467154Y115723D01*
X466888Y116111D01*
X466632Y116505D01*
X466385Y116905D01*
X466149Y117311D01*
X465922Y117723D01*
X465706Y118140D01*
X465500Y118562D01*
X465304Y118990D01*
X465119Y119422D01*
X464944Y119858D01*
X464780Y120299D01*
X464628Y120743D01*
X464486Y121191D01*
X464355Y121642D01*
X464235Y122097D01*
X464126Y122554D01*
X464029Y123014D01*
X463943Y123476D01*
X463868Y123940D01*
X463805Y124406D01*
X463753Y124873D01*
X463713Y125341D01*
X463684Y125810D01*
X463667Y126280D01*
X463661Y126750D01*
X412861Y126750D02*
X412867Y127220D01*
X412884Y127690D01*
X412913Y128159D01*
X412953Y128627D01*
X413005Y129094D01*
X413068Y129560D01*
X413143Y130024D01*
X413229Y130486D01*
X413326Y130946D01*
X413435Y131403D01*
X413555Y131858D01*
X413686Y132309D01*
X413828Y132757D01*
X413980Y133201D01*
X414144Y133642D01*
X414319Y134078D01*
X414504Y134510D01*
X414700Y134938D01*
X414906Y135360D01*
X415122Y135777D01*
X415349Y136189D01*
X415585Y136595D01*
X415832Y136995D01*
X416088Y137389D01*
X416354Y137777D01*
X416630Y138158D01*
X416914Y138532D01*
X417208Y138899D01*
X417510Y139258D01*
X417822Y139610D01*
X418142Y139955D01*
X418470Y140291D01*
X418806Y140619D01*
X419151Y140939D01*
X419503Y141251D01*
X419862Y141553D01*
X420229Y141847D01*
X420603Y142131D01*
X420984Y142407D01*
X421372Y142673D01*
X421766Y142929D01*
X422166Y143176D01*
X422572Y143412D01*
X422984Y143639D01*
X423401Y143855D01*
X423823Y144061D01*
X424251Y144257D01*
X424683Y144442D01*
X425119Y144617D01*
X425560Y144781D01*
X426004Y144933D01*
X426452Y145075D01*
X426903Y145206D01*
X427358Y145326D01*
X427815Y145435D01*
X428275Y145532D01*
X428737Y145618D01*
X429201Y145693D01*
X429667Y145756D01*
X430134Y145808D01*
X430602Y145848D01*
X431071Y145877D01*
X431541Y145894D01*
X432011Y145900D01*
X432481Y145894D01*
X432951Y145877D01*
X433420Y145848D01*
X433888Y145808D01*
X434355Y145756D01*
X434821Y145693D01*
X435285Y145618D01*
X435747Y145532D01*
X436207Y145435D01*
X436664Y145326D01*
X437119Y145206D01*
X437570Y145075D01*
X438018Y144933D01*
X438462Y144781D01*
X438903Y144617D01*
X439339Y144442D01*
X439771Y144257D01*
X440199Y144061D01*
X440621Y143855D01*
X441038Y143639D01*
X441450Y143412D01*
X441856Y143176D01*
X442256Y142929D01*
X442650Y142673D01*
X443038Y142407D01*
X443419Y142131D01*
X443793Y141847D01*
X444160Y141553D01*
X444519Y141251D01*
X444871Y140939D01*
X445216Y140619D01*
X445552Y140291D01*
X445880Y139955D01*
X446200Y139610D01*
X446512Y139258D01*
X446814Y138899D01*
X447108Y138532D01*
X447392Y138158D01*
X447668Y137777D01*
X447934Y137389D01*
X448190Y136995D01*
X448437Y136595D01*
X448673Y136189D01*
X448900Y135777D01*
X449116Y135360D01*
X449322Y134938D01*
X449518Y134510D01*
X449703Y134078D01*
X449878Y133642D01*
X450042Y133201D01*
X450194Y132757D01*
X450336Y132309D01*
X450467Y131858D01*
X450587Y131403D01*
X450696Y130946D01*
X450793Y130486D01*
X450879Y130024D01*
X450954Y129560D01*
X451017Y129094D01*
X451069Y128627D01*
X451109Y128159D01*
X451138Y127690D01*
X451155Y127220D01*
X451161Y126750D01*
X451155Y126280D01*
X451138Y125810D01*
X451109Y125341D01*
X451069Y124873D01*
X451017Y124406D01*
X450954Y123940D01*
X450879Y123476D01*
X450793Y123014D01*
X450696Y122554D01*
X450587Y122097D01*
X450467Y121642D01*
X450336Y121191D01*
X450194Y120743D01*
X450042Y120299D01*
X449878Y119858D01*
X449703Y119422D01*
X449518Y118990D01*
X449322Y118562D01*
X449116Y118140D01*
X448900Y117723D01*
X448673Y117311D01*
X448437Y116905D01*
X448190Y116505D01*
X447934Y116111D01*
X447668Y115723D01*
X447392Y115342D01*
X447108Y114968D01*
X446814Y114601D01*
X446512Y114242D01*
X446200Y113890D01*
X445880Y113545D01*
X445552Y113209D01*
X445216Y112881D01*
X444871Y112561D01*
X444519Y112249D01*
X444160Y111947D01*
X443793Y111653D01*
X443419Y111369D01*
X443038Y111093D01*
X442650Y110827D01*
X442256Y110571D01*
X441856Y110324D01*
X441450Y110088D01*
X441038Y109861D01*
X440621Y109645D01*
X440199Y109439D01*
X439771Y109243D01*
X439339Y109058D01*
X438903Y108883D01*
X438462Y108719D01*
X438018Y108567D01*
X437570Y108425D01*
X437119Y108294D01*
X436664Y108174D01*
X436207Y108065D01*
X435747Y107968D01*
X435285Y107882D01*
X434821Y107807D01*
X434355Y107744D01*
X433888Y107692D01*
X433420Y107652D01*
X432951Y107623D01*
X432481Y107606D01*
X432011Y107600D01*
X431541Y107606D01*
X431071Y107623D01*
X430602Y107652D01*
X430134Y107692D01*
X429667Y107744D01*
X429201Y107807D01*
X428737Y107882D01*
X428275Y107968D01*
X427815Y108065D01*
X427358Y108174D01*
X426903Y108294D01*
X426452Y108425D01*
X426004Y108567D01*
X425560Y108719D01*
X425119Y108883D01*
X424683Y109058D01*
X424251Y109243D01*
X423823Y109439D01*
X423401Y109645D01*
X422984Y109861D01*
X422572Y110088D01*
X422166Y110324D01*
X421766Y110571D01*
X421372Y110827D01*
X420984Y111093D01*
X420603Y111369D01*
X420229Y111653D01*
X419862Y111947D01*
X419503Y112249D01*
X419151Y112561D01*
X418806Y112881D01*
X418470Y113209D01*
X418142Y113545D01*
X417822Y113890D01*
X417510Y114242D01*
X417208Y114601D01*
X416914Y114968D01*
X416630Y115342D01*
X416354Y115723D01*
X416088Y116111D01*
X415832Y116505D01*
X415585Y116905D01*
X415349Y117311D01*
X415122Y117723D01*
X414906Y118140D01*
X414700Y118562D01*
X414504Y118990D01*
X414319Y119422D01*
X414144Y119858D01*
X413980Y120299D01*
X413828Y120743D01*
X413686Y121191D01*
X413555Y121642D01*
X413435Y122097D01*
X413326Y122554D01*
X413229Y123014D01*
X413143Y123476D01*
X413068Y123940D01*
X413005Y124406D01*
X412953Y124873D01*
X412913Y125341D01*
X412884Y125810D01*
X412867Y126280D01*
X412861Y126750D01*
X362061Y126750D02*
X362067Y127220D01*
X362084Y127690D01*
X362113Y128159D01*
X362153Y128627D01*
X362205Y129094D01*
X362268Y129560D01*
X362343Y130024D01*
X362429Y130486D01*
X362526Y130946D01*
X362635Y131403D01*
X362755Y131858D01*
X362886Y132309D01*
X363028Y132757D01*
X363180Y133201D01*
X363344Y133642D01*
X363519Y134078D01*
X363704Y134510D01*
X363900Y134938D01*
X364106Y135360D01*
X364322Y135777D01*
X364549Y136189D01*
X364785Y136595D01*
X365032Y136995D01*
X365288Y137389D01*
X365554Y137777D01*
X365830Y138158D01*
X366114Y138532D01*
X366408Y138899D01*
X366710Y139258D01*
X367022Y139610D01*
X367342Y139955D01*
X367670Y140291D01*
X368006Y140619D01*
X368351Y140939D01*
X368703Y141251D01*
X369062Y141553D01*
X369429Y141847D01*
X369803Y142131D01*
X370184Y142407D01*
X370572Y142673D01*
X370966Y142929D01*
X371366Y143176D01*
X371772Y143412D01*
X372184Y143639D01*
X372601Y143855D01*
X373023Y144061D01*
X373451Y144257D01*
X373883Y144442D01*
X374319Y144617D01*
X374760Y144781D01*
X375204Y144933D01*
X375652Y145075D01*
X376103Y145206D01*
X376558Y145326D01*
X377015Y145435D01*
X377475Y145532D01*
X377937Y145618D01*
X378401Y145693D01*
X378867Y145756D01*
X379334Y145808D01*
X379802Y145848D01*
X380271Y145877D01*
X380741Y145894D01*
X381211Y145900D01*
X381681Y145894D01*
X382151Y145877D01*
X382620Y145848D01*
X383088Y145808D01*
X383555Y145756D01*
X384021Y145693D01*
X384485Y145618D01*
X384947Y145532D01*
X385407Y145435D01*
X385864Y145326D01*
X386319Y145206D01*
X386770Y145075D01*
X387218Y144933D01*
X387662Y144781D01*
X388103Y144617D01*
X388539Y144442D01*
X388971Y144257D01*
X389399Y144061D01*
X389821Y143855D01*
X390238Y143639D01*
X390650Y143412D01*
X391056Y143176D01*
X391456Y142929D01*
X391850Y142673D01*
X392238Y142407D01*
X392619Y142131D01*
X392993Y141847D01*
X393360Y141553D01*
X393719Y141251D01*
X394071Y140939D01*
X394416Y140619D01*
X394752Y140291D01*
X395080Y139955D01*
X395400Y139610D01*
X395712Y139258D01*
X396014Y138899D01*
X396308Y138532D01*
X396592Y138158D01*
X396868Y137777D01*
X397134Y137389D01*
X397390Y136995D01*
X397637Y136595D01*
X397873Y136189D01*
X398100Y135777D01*
X398316Y135360D01*
X398522Y134938D01*
X398718Y134510D01*
X398903Y134078D01*
X399078Y133642D01*
X399242Y133201D01*
X399394Y132757D01*
X399536Y132309D01*
X399667Y131858D01*
X399787Y131403D01*
X399896Y130946D01*
X399993Y130486D01*
X400079Y130024D01*
X400154Y129560D01*
X400217Y129094D01*
X400269Y128627D01*
X400309Y128159D01*
X400338Y127690D01*
X400355Y127220D01*
X400361Y126750D01*
X400355Y126280D01*
X400338Y125810D01*
X400309Y125341D01*
X400269Y124873D01*
X400217Y124406D01*
X400154Y123940D01*
X400079Y123476D01*
X399993Y123014D01*
X399896Y122554D01*
X399787Y122097D01*
X399667Y121642D01*
X399536Y121191D01*
X399394Y120743D01*
X399242Y120299D01*
X399078Y119858D01*
X398903Y119422D01*
X398718Y118990D01*
X398522Y118562D01*
X398316Y118140D01*
X398100Y117723D01*
X397873Y117311D01*
X397637Y116905D01*
X397390Y116505D01*
X397134Y116111D01*
X396868Y115723D01*
X396592Y115342D01*
X396308Y114968D01*
X396014Y114601D01*
X395712Y114242D01*
X395400Y113890D01*
X395080Y113545D01*
X394752Y113209D01*
X394416Y112881D01*
X394071Y112561D01*
X393719Y112249D01*
X393360Y111947D01*
X392993Y111653D01*
X392619Y111369D01*
X392238Y111093D01*
X391850Y110827D01*
X391456Y110571D01*
X391056Y110324D01*
X390650Y110088D01*
X390238Y109861D01*
X389821Y109645D01*
X389399Y109439D01*
X388971Y109243D01*
X388539Y109058D01*
X388103Y108883D01*
X387662Y108719D01*
X387218Y108567D01*
X386770Y108425D01*
X386319Y108294D01*
X385864Y108174D01*
X385407Y108065D01*
X384947Y107968D01*
X384485Y107882D01*
X384021Y107807D01*
X383555Y107744D01*
X383088Y107692D01*
X382620Y107652D01*
X382151Y107623D01*
X381681Y107606D01*
X381211Y107600D01*
X380741Y107606D01*
X380271Y107623D01*
X379802Y107652D01*
X379334Y107692D01*
X378867Y107744D01*
X378401Y107807D01*
X377937Y107882D01*
X377475Y107968D01*
X377015Y108065D01*
X376558Y108174D01*
X376103Y108294D01*
X375652Y108425D01*
X375204Y108567D01*
X374760Y108719D01*
X374319Y108883D01*
X373883Y109058D01*
X373451Y109243D01*
X373023Y109439D01*
X372601Y109645D01*
X372184Y109861D01*
X371772Y110088D01*
X371366Y110324D01*
X370966Y110571D01*
X370572Y110827D01*
X370184Y111093D01*
X369803Y111369D01*
X369429Y111653D01*
X369062Y111947D01*
X368703Y112249D01*
X368351Y112561D01*
X368006Y112881D01*
X367670Y113209D01*
X367342Y113545D01*
X367022Y113890D01*
X366710Y114242D01*
X366408Y114601D01*
X366114Y114968D01*
X365830Y115342D01*
X365554Y115723D01*
X365288Y116111D01*
X365032Y116505D01*
X364785Y116905D01*
X364549Y117311D01*
X364322Y117723D01*
X364106Y118140D01*
X363900Y118562D01*
X363704Y118990D01*
X363519Y119422D01*
X363344Y119858D01*
X363180Y120299D01*
X363028Y120743D01*
X362886Y121191D01*
X362755Y121642D01*
X362635Y122097D01*
X362526Y122554D01*
X362429Y123014D01*
X362343Y123476D01*
X362268Y123940D01*
X362205Y124406D01*
X362153Y124873D01*
X362113Y125341D01*
X362084Y125810D01*
X362067Y126280D01*
X362061Y126750D01*
X311261Y126750D02*
X311267Y127220D01*
X311284Y127690D01*
X311313Y128159D01*
X311353Y128627D01*
X311405Y129094D01*
X311468Y129560D01*
X311543Y130024D01*
X311629Y130486D01*
X311726Y130946D01*
X311835Y131403D01*
X311955Y131858D01*
X312086Y132309D01*
X312228Y132757D01*
X312380Y133201D01*
X312544Y133642D01*
X312719Y134078D01*
X312904Y134510D01*
X313100Y134938D01*
X313306Y135360D01*
X313522Y135777D01*
X313749Y136189D01*
X313985Y136595D01*
X314232Y136995D01*
X314488Y137389D01*
X314754Y137777D01*
X315030Y138158D01*
X315314Y138532D01*
X315608Y138899D01*
X315910Y139258D01*
X316222Y139610D01*
X316542Y139955D01*
X316870Y140291D01*
X317206Y140619D01*
X317551Y140939D01*
X317903Y141251D01*
X318262Y141553D01*
X318629Y141847D01*
X319003Y142131D01*
X319384Y142407D01*
X319772Y142673D01*
X320166Y142929D01*
X320566Y143176D01*
X320972Y143412D01*
X321384Y143639D01*
X321801Y143855D01*
X322223Y144061D01*
X322651Y144257D01*
X323083Y144442D01*
X323519Y144617D01*
X323960Y144781D01*
X324404Y144933D01*
X324852Y145075D01*
X325303Y145206D01*
X325758Y145326D01*
X326215Y145435D01*
X326675Y145532D01*
X327137Y145618D01*
X327601Y145693D01*
X328067Y145756D01*
X328534Y145808D01*
X329002Y145848D01*
X329471Y145877D01*
X329941Y145894D01*
X330411Y145900D01*
X330881Y145894D01*
X331351Y145877D01*
X331820Y145848D01*
X332288Y145808D01*
X332755Y145756D01*
X333221Y145693D01*
X333685Y145618D01*
X334147Y145532D01*
X334607Y145435D01*
X335064Y145326D01*
X335519Y145206D01*
X335970Y145075D01*
X336418Y144933D01*
X336862Y144781D01*
X337303Y144617D01*
X337739Y144442D01*
X338171Y144257D01*
X338599Y144061D01*
X339021Y143855D01*
X339438Y143639D01*
X339850Y143412D01*
X340256Y143176D01*
X340656Y142929D01*
X341050Y142673D01*
X341438Y142407D01*
X341819Y142131D01*
X342193Y141847D01*
X342560Y141553D01*
X342919Y141251D01*
X343271Y140939D01*
X343616Y140619D01*
X343952Y140291D01*
X344280Y139955D01*
X344600Y139610D01*
X344912Y139258D01*
X345214Y138899D01*
X345508Y138532D01*
X345792Y138158D01*
X346068Y137777D01*
X346334Y137389D01*
X346590Y136995D01*
X346837Y136595D01*
X347073Y136189D01*
X347300Y135777D01*
X347516Y135360D01*
X347722Y134938D01*
X347918Y134510D01*
X348103Y134078D01*
X348278Y133642D01*
X348442Y133201D01*
X348594Y132757D01*
X348736Y132309D01*
X348867Y131858D01*
X348987Y131403D01*
X349096Y130946D01*
X349193Y130486D01*
X349279Y130024D01*
X349354Y129560D01*
X349417Y129094D01*
X349469Y128627D01*
X349509Y128159D01*
X349538Y127690D01*
X349555Y127220D01*
X349561Y126750D01*
X349555Y126280D01*
X349538Y125810D01*
X349509Y125341D01*
X349469Y124873D01*
X349417Y124406D01*
X349354Y123940D01*
X349279Y123476D01*
X349193Y123014D01*
X349096Y122554D01*
X348987Y122097D01*
X348867Y121642D01*
X348736Y121191D01*
X348594Y120743D01*
X348442Y120299D01*
X348278Y119858D01*
X348103Y119422D01*
X347918Y118990D01*
X347722Y118562D01*
X347516Y118140D01*
X347300Y117723D01*
X347073Y117311D01*
X346837Y116905D01*
X346590Y116505D01*
X346334Y116111D01*
X346068Y115723D01*
X345792Y115342D01*
X345508Y114968D01*
X345214Y114601D01*
X344912Y114242D01*
X344600Y113890D01*
X344280Y113545D01*
X343952Y113209D01*
X343616Y112881D01*
X343271Y112561D01*
X342919Y112249D01*
X342560Y111947D01*
X342193Y111653D01*
X341819Y111369D01*
X341438Y111093D01*
X341050Y110827D01*
X340656Y110571D01*
X340256Y110324D01*
X339850Y110088D01*
X339438Y109861D01*
X339021Y109645D01*
X338599Y109439D01*
X338171Y109243D01*
X337739Y109058D01*
X337303Y108883D01*
X336862Y108719D01*
X336418Y108567D01*
X335970Y108425D01*
X335519Y108294D01*
X335064Y108174D01*
X334607Y108065D01*
X334147Y107968D01*
X333685Y107882D01*
X333221Y107807D01*
X332755Y107744D01*
X332288Y107692D01*
X331820Y107652D01*
X331351Y107623D01*
X330881Y107606D01*
X330411Y107600D01*
X329941Y107606D01*
X329471Y107623D01*
X329002Y107652D01*
X328534Y107692D01*
X328067Y107744D01*
X327601Y107807D01*
X327137Y107882D01*
X326675Y107968D01*
X326215Y108065D01*
X325758Y108174D01*
X325303Y108294D01*
X324852Y108425D01*
X324404Y108567D01*
X323960Y108719D01*
X323519Y108883D01*
X323083Y109058D01*
X322651Y109243D01*
X322223Y109439D01*
X321801Y109645D01*
X321384Y109861D01*
X320972Y110088D01*
X320566Y110324D01*
X320166Y110571D01*
X319772Y110827D01*
X319384Y111093D01*
X319003Y111369D01*
X318629Y111653D01*
X318262Y111947D01*
X317903Y112249D01*
X317551Y112561D01*
X317206Y112881D01*
X316870Y113209D01*
X316542Y113545D01*
X316222Y113890D01*
X315910Y114242D01*
X315608Y114601D01*
X315314Y114968D01*
X315030Y115342D01*
X314754Y115723D01*
X314488Y116111D01*
X314232Y116505D01*
X313985Y116905D01*
X313749Y117311D01*
X313522Y117723D01*
X313306Y118140D01*
X313100Y118562D01*
X312904Y118990D01*
X312719Y119422D01*
X312544Y119858D01*
X312380Y120299D01*
X312228Y120743D01*
X312086Y121191D01*
X311955Y121642D01*
X311835Y122097D01*
X311726Y122554D01*
X311629Y123014D01*
X311543Y123476D01*
X311468Y123940D01*
X311405Y124406D01*
X311353Y124873D01*
X311313Y125341D01*
X311284Y125810D01*
X311267Y126280D01*
X311261Y126750D01*
X260461Y126750D02*
X260467Y127220D01*
X260484Y127690D01*
X260513Y128159D01*
X260553Y128627D01*
X260605Y129094D01*
X260668Y129560D01*
X260743Y130024D01*
X260829Y130486D01*
X260926Y130946D01*
X261035Y131403D01*
X261155Y131858D01*
X261286Y132309D01*
X261428Y132757D01*
X261580Y133201D01*
X261744Y133642D01*
X261919Y134078D01*
X262104Y134510D01*
X262300Y134938D01*
X262506Y135360D01*
X262722Y135777D01*
X262949Y136189D01*
X263185Y136595D01*
X263432Y136995D01*
X263688Y137389D01*
X263954Y137777D01*
X264230Y138158D01*
X264514Y138532D01*
X264808Y138899D01*
X265110Y139258D01*
X265422Y139610D01*
X265742Y139955D01*
X266070Y140291D01*
X266406Y140619D01*
X266751Y140939D01*
X267103Y141251D01*
X267462Y141553D01*
X267829Y141847D01*
X268203Y142131D01*
X268584Y142407D01*
X268972Y142673D01*
X269366Y142929D01*
X269766Y143176D01*
X270172Y143412D01*
X270584Y143639D01*
X271001Y143855D01*
X271423Y144061D01*
X271851Y144257D01*
X272283Y144442D01*
X272719Y144617D01*
X273160Y144781D01*
X273604Y144933D01*
X274052Y145075D01*
X274503Y145206D01*
X274958Y145326D01*
X275415Y145435D01*
X275875Y145532D01*
X276337Y145618D01*
X276801Y145693D01*
X277267Y145756D01*
X277734Y145808D01*
X278202Y145848D01*
X278671Y145877D01*
X279141Y145894D01*
X279611Y145900D01*
X280081Y145894D01*
X280551Y145877D01*
X281020Y145848D01*
X281488Y145808D01*
X281955Y145756D01*
X282421Y145693D01*
X282885Y145618D01*
X283347Y145532D01*
X283807Y145435D01*
X284264Y145326D01*
X284719Y145206D01*
X285170Y145075D01*
X285618Y144933D01*
X286062Y144781D01*
X286503Y144617D01*
X286939Y144442D01*
X287371Y144257D01*
X287799Y144061D01*
X288221Y143855D01*
X288638Y143639D01*
X289050Y143412D01*
X289456Y143176D01*
X289856Y142929D01*
X290250Y142673D01*
X290638Y142407D01*
X291019Y142131D01*
X291393Y141847D01*
X291760Y141553D01*
X292119Y141251D01*
X292471Y140939D01*
X292816Y140619D01*
X293152Y140291D01*
X293480Y139955D01*
X293800Y139610D01*
X294112Y139258D01*
X294414Y138899D01*
X294708Y138532D01*
X294992Y138158D01*
X295268Y137777D01*
X295534Y137389D01*
X295790Y136995D01*
X296037Y136595D01*
X296273Y136189D01*
X296500Y135777D01*
X296716Y135360D01*
X296922Y134938D01*
X297118Y134510D01*
X297303Y134078D01*
X297478Y133642D01*
X297642Y133201D01*
X297794Y132757D01*
X297936Y132309D01*
X298067Y131858D01*
X298187Y131403D01*
X298296Y130946D01*
X298393Y130486D01*
X298479Y130024D01*
X298554Y129560D01*
X298617Y129094D01*
X298669Y128627D01*
X298709Y128159D01*
X298738Y127690D01*
X298755Y127220D01*
X298761Y126750D01*
X298755Y126280D01*
X298738Y125810D01*
X298709Y125341D01*
X298669Y124873D01*
X298617Y124406D01*
X298554Y123940D01*
X298479Y123476D01*
X298393Y123014D01*
X298296Y122554D01*
X298187Y122097D01*
X298067Y121642D01*
X297936Y121191D01*
X297794Y120743D01*
X297642Y120299D01*
X297478Y119858D01*
X297303Y119422D01*
X297118Y118990D01*
X296922Y118562D01*
X296716Y118140D01*
X296500Y117723D01*
X296273Y117311D01*
X296037Y116905D01*
X295790Y116505D01*
X295534Y116111D01*
X295268Y115723D01*
X294992Y115342D01*
X294708Y114968D01*
X294414Y114601D01*
X294112Y114242D01*
X293800Y113890D01*
X293480Y113545D01*
X293152Y113209D01*
X292816Y112881D01*
X292471Y112561D01*
X292119Y112249D01*
X291760Y111947D01*
X291393Y111653D01*
X291019Y111369D01*
X290638Y111093D01*
X290250Y110827D01*
X289856Y110571D01*
X289456Y110324D01*
X289050Y110088D01*
X288638Y109861D01*
X288221Y109645D01*
X287799Y109439D01*
X287371Y109243D01*
X286939Y109058D01*
X286503Y108883D01*
X286062Y108719D01*
X285618Y108567D01*
X285170Y108425D01*
X284719Y108294D01*
X284264Y108174D01*
X283807Y108065D01*
X283347Y107968D01*
X282885Y107882D01*
X282421Y107807D01*
X281955Y107744D01*
X281488Y107692D01*
X281020Y107652D01*
X280551Y107623D01*
X280081Y107606D01*
X279611Y107600D01*
X279141Y107606D01*
X278671Y107623D01*
X278202Y107652D01*
X277734Y107692D01*
X277267Y107744D01*
X276801Y107807D01*
X276337Y107882D01*
X275875Y107968D01*
X275415Y108065D01*
X274958Y108174D01*
X274503Y108294D01*
X274052Y108425D01*
X273604Y108567D01*
X273160Y108719D01*
X272719Y108883D01*
X272283Y109058D01*
X271851Y109243D01*
X271423Y109439D01*
X271001Y109645D01*
X270584Y109861D01*
X270172Y110088D01*
X269766Y110324D01*
X269366Y110571D01*
X268972Y110827D01*
X268584Y111093D01*
X268203Y111369D01*
X267829Y111653D01*
X267462Y111947D01*
X267103Y112249D01*
X266751Y112561D01*
X266406Y112881D01*
X266070Y113209D01*
X265742Y113545D01*
X265422Y113890D01*
X265110Y114242D01*
X264808Y114601D01*
X264514Y114968D01*
X264230Y115342D01*
X263954Y115723D01*
X263688Y116111D01*
X263432Y116505D01*
X263185Y116905D01*
X262949Y117311D01*
X262722Y117723D01*
X262506Y118140D01*
X262300Y118562D01*
X262104Y118990D01*
X261919Y119422D01*
X261744Y119858D01*
X261580Y120299D01*
X261428Y120743D01*
X261286Y121191D01*
X261155Y121642D01*
X261035Y122097D01*
X260926Y122554D01*
X260829Y123014D01*
X260743Y123476D01*
X260668Y123940D01*
X260605Y124406D01*
X260553Y124873D01*
X260513Y125341D01*
X260484Y125810D01*
X260467Y126280D01*
X260461Y126750D01*
M02*
