G04 EAGLE Gerber X2 export*
%TF.Part,Single*%
%TF.FileFunction,Soldermask,Bot,1*%
%TF.FilePolarity,Negative*%
%TF.GenerationSoftware,Autodesk,EAGLE,8.7.0*%
%TF.CreationDate,2018-05-23T13:35:31Z*%
G75*
%MOMM*%
%FSLAX34Y34*%
%LPD*%
%AMOC8*
5,1,8,0,0,1.08239X$1,22.5*%
G01*
%ADD10C,3.403200*%
%ADD11P,1.951982X8X112.500000*%
%ADD12C,1.803400*%
%ADD13R,1.503200X1.703200*%
%ADD14R,2.003200X1.603200*%
%ADD15C,1.879600*%
%ADD16C,2.743200*%
%ADD17R,1.603200X2.003200*%
%ADD18R,2.003200X1.903200*%
%ADD19C,2.003200*%
%ADD20R,5.603200X6.403200*%
%ADD21R,1.203200X1.803200*%
%ADD22C,0.959600*%


D10*
X95250Y444500D03*
X95250Y101600D03*
X533400Y107950D03*
X533400Y444500D03*
D11*
X196850Y431800D03*
D12*
X196850Y406400D03*
D11*
X203200Y127000D03*
D12*
X203200Y101600D03*
D13*
X219100Y387350D03*
X238100Y387350D03*
X282600Y381000D03*
X301600Y381000D03*
D14*
X317297Y302547D03*
X317297Y268547D03*
X209550Y302750D03*
X209550Y268750D03*
X317500Y325900D03*
X317500Y359900D03*
X209550Y359900D03*
X209550Y325900D03*
D15*
X177800Y260350D03*
X177800Y311150D03*
X177800Y285750D03*
D16*
X107700Y222039D03*
X107700Y272839D03*
X107700Y323639D03*
D17*
X211600Y165100D03*
X245600Y165100D03*
X275100Y165100D03*
X309100Y165100D03*
D14*
X209753Y232697D03*
X209753Y198697D03*
X317703Y199103D03*
X317703Y233103D03*
D18*
X503100Y203200D03*
X462100Y203200D03*
D19*
X444500Y184150D03*
X520700Y184150D03*
X520700Y260350D03*
X520700Y311150D03*
X520700Y361950D03*
X444500Y260350D03*
X444500Y311150D03*
X444500Y361950D03*
D16*
X482811Y418850D03*
X432011Y418850D03*
X381211Y418850D03*
X330411Y418850D03*
X279611Y418850D03*
X482811Y126750D03*
X432011Y126750D03*
X381211Y126750D03*
X330411Y126750D03*
X279611Y126750D03*
D20*
X152400Y356000D03*
D21*
X129600Y429000D03*
X175200Y429000D03*
D20*
X152400Y127400D03*
D21*
X129600Y200400D03*
X175200Y200400D03*
D22*
X317500Y342900D03*
X317703Y254000D03*
X260350Y241300D03*
X222686Y336986D03*
X260350Y304800D03*
X273050Y317500D03*
X260350Y203200D03*
X273050Y215900D03*
X139700Y228600D03*
X387350Y323850D03*
X317500Y285750D03*
X241300Y279400D03*
X336550Y323850D03*
X266700Y330200D03*
X387350Y222250D03*
X318372Y185022D03*
X266700Y190500D03*
X336550Y222250D03*
X264696Y228600D03*
X273050Y355600D03*
X273050Y266700D03*
M02*
