G04 EAGLE Gerber X2 export*
%TF.Part,Single*%
%TF.FileFunction,Paste,Top*%
%TF.FilePolarity,Positive*%
%TF.GenerationSoftware,Autodesk,EAGLE,8.7.0*%
%TF.CreationDate,2018-05-23T13:35:31Z*%
G75*
%MOMM*%
%FSLAX34Y34*%
%LPD*%
%AMOC8*
5,1,8,0,0,1.08239X$1,22.5*%
G01*
%ADD10R,2.700000X1.600000*%
%ADD11R,1.500000X1.300000*%
%ADD12R,2.200000X0.600000*%
%ADD13R,1.300000X1.500000*%


D10*
X177800Y195550D03*
X177800Y223550D03*
D11*
X412750Y307950D03*
X412750Y288950D03*
X387350Y307950D03*
X387350Y288950D03*
X361950Y307950D03*
X361950Y288950D03*
X336550Y307950D03*
X336550Y288950D03*
D12*
X240700Y254000D03*
X292700Y254000D03*
X240700Y266700D03*
X240700Y241300D03*
X240700Y228600D03*
X292700Y266700D03*
X292700Y241300D03*
X292700Y228600D03*
X240700Y203200D03*
X292700Y203200D03*
X240700Y215900D03*
X240700Y190500D03*
X292700Y215900D03*
X292700Y190500D03*
D11*
X209550Y244500D03*
X209550Y263500D03*
D13*
X174650Y165100D03*
X193650Y165100D03*
D11*
X209550Y301650D03*
X209550Y320650D03*
X209550Y193700D03*
X209550Y212700D03*
X387350Y358750D03*
X387350Y339750D03*
X412750Y358750D03*
X412750Y339750D03*
X209550Y352450D03*
X209550Y371450D03*
X361950Y358750D03*
X361950Y339750D03*
X336550Y358750D03*
X336550Y339750D03*
X177800Y371450D03*
X177800Y352450D03*
D12*
X240700Y355600D03*
X292700Y355600D03*
X240700Y368300D03*
X240700Y342900D03*
X240700Y330200D03*
X292700Y368300D03*
X292700Y342900D03*
X292700Y330200D03*
X240700Y304800D03*
X292700Y304800D03*
X240700Y317500D03*
X240700Y292100D03*
X292700Y317500D03*
X292700Y292100D03*
D11*
X412750Y238150D03*
X412750Y257150D03*
X387350Y238150D03*
X387350Y257150D03*
X412750Y187350D03*
X412750Y206350D03*
X387350Y187350D03*
X387350Y206350D03*
X361950Y238150D03*
X361950Y257150D03*
X336144Y238150D03*
X336144Y257150D03*
X361950Y187350D03*
X361950Y206350D03*
X336550Y187350D03*
X336550Y206350D03*
M02*
