%
M48
M72
T01C0.02756
T02C0.03200
T03C0.03600
T04C0.03937
T05C0.04000
T06C0.04724
T07C0.06299
T08C0.07900
T09C0.12598
%
T01
X89100Y102850
X59100Y112850
X119100Y146600
X100350Y164100
X100350Y174100
X146600Y149100
X146600Y144100
X184100Y127850
X184100Y117850
X149100Y102850
X239100Y162850
X186600Y204100
X176600Y204100
X99100Y267850
X39100Y162850
X259100Y112850
X289100Y102850
X319100Y146600
X300350Y164100
X300350Y174100
X346600Y149100
X346600Y144100
X384100Y127850
X384100Y117850
X349100Y102850
X376600Y204100
X386600Y204100
X299100Y267850
T02
X301600Y226600
X321600Y226600
X325350Y208600
X325350Y194600
X324100Y175350
X324100Y165350
X310350Y165350
X310350Y175350
X291600Y194600
X291600Y208600
X271600Y226600
X256600Y211600
X256600Y191600
X252850Y171600
X252850Y151600
X281600Y154600
X281600Y168600
X311600Y111600
X331600Y111600
X331600Y91600
X331600Y81600
X331600Y71600
X331600Y61600
X326600Y41600
X306600Y41600
X286600Y31600
X271600Y46600
X251600Y46600
X256600Y31600
X225350Y64100
X225350Y84100
X254600Y76600
X268600Y76600
X301600Y71600
X301600Y61600
X301600Y81600
X301600Y91600
X369600Y81600
X383600Y81600
X386600Y51600
X366600Y51600
X351600Y31600
X381600Y31600
X186600Y51600
X166600Y51600
X151600Y31600
X126600Y41600
X106600Y41600
X86600Y31600
X71600Y46600
X51600Y46600
X56600Y31600
X25350Y64100
X25350Y84100
X54600Y76600
X68600Y76600
X101600Y71600
X101600Y61600
X101600Y81600
X101600Y91600
X111600Y111600
X131600Y111600
X131600Y91600
X131600Y81600
X131600Y71600
X131600Y61600
X169600Y81600
X183600Y81600
X181600Y31600
X52850Y151600
X52850Y171600
X56600Y191600
X56600Y211600
X71600Y226600
X91600Y208600
X91600Y194600
X110350Y175350
X110350Y165350
X124100Y165350
X124100Y175350
X125350Y194600
X125350Y208600
X121600Y226600
X101600Y226600
X151600Y226600
X160350Y211600
X160350Y191600
X81600Y168600
X81600Y154600
X351600Y226600
X360350Y211600
X360350Y191600
T03
X346600Y91600
X346600Y61600
X291600Y61600
X291600Y91600
X146600Y91600
X146600Y61600
X91600Y61600
X91600Y91600
T04
X21600Y151600
X21600Y161600
X21600Y171600
X184100Y172850
X184100Y162850
X184100Y152850
X184100Y182850
X184100Y192850
X221600Y171600
X221600Y161600
X221600Y151600
X384100Y152850
X384100Y162850
X384100Y172850
X384100Y182850
X384100Y192850
T05
X329100Y191600
X329100Y211600
X286600Y211600
X286600Y191600
X226600Y192850
X226600Y212850
X276600Y136600
X276600Y116600
X242850Y115350
X222850Y115350
X186600Y86600
X166600Y86600
X171600Y126600
X151600Y126600
X76600Y116600
X76600Y136600
X42850Y115350
X22850Y115350
X51600Y81600
X71600Y81600
X86600Y191600
X86600Y211600
X129100Y211600
X129100Y191600
X26600Y192850
X26600Y212850
X251600Y81600
X271600Y81600
X351600Y126600
X371600Y126600
X366600Y86600
X386600Y86600
T06
X311600Y246600
X311600Y266600
X111600Y266600
X111600Y246600
T07
X126600Y246600
X96600Y246600
X126600Y281600
X96600Y301600
X296600Y301600
X326600Y281600
X326600Y246600
X296600Y246600
T08
X256600Y226600
X251600Y246600
X176600Y246600
X166600Y226600
X56600Y226600
X51600Y246600
X86600Y16600
X106600Y16600
X131600Y16600
X151600Y16600
X286600Y16600
X306600Y16600
X331600Y16600
X351600Y16600
X366600Y226600
X376600Y246600
T09
X14100Y12850
X189100Y12850
X214100Y12850
X389100Y12850
X389100Y307850
X214100Y307850
X189100Y307850
X14100Y307850
M30
