%
M48
M72
T01C0.03200
T02C0.03937
T03C0.04000
T04C0.04724
T05C0.06299
T06C0.06700
T07C0.07900
T08C0.12598
%
T01
X71800Y36800
X111800Y36800
X121800Y76800
X121800Y96800
X141800Y96800
X141800Y76800
X186800Y71800
X196800Y71800
X206800Y71800
X216800Y71800
X216800Y56800
X196800Y56800
X196800Y101800
X186800Y101800
X186800Y116800
X206800Y116800
X206800Y101800
X216800Y101800
X111800Y261800
X121800Y301800
X121800Y321800
X141800Y321800
X141800Y301800
X186800Y296800
X196800Y296800
X206800Y296800
X216800Y296800
X216800Y281800
X196800Y281800
X196800Y326800
X186800Y326800
X186800Y341800
X206800Y341800
X206800Y326800
X216800Y326800
X71800Y261800
T02
X16800Y276800
X16800Y286800
X16800Y296800
X16800Y306800
X16800Y316800
X16800Y326800
X16800Y336800
X161800Y321800
X161800Y311800
X161800Y301800
X16800Y111800
X16800Y101800
X16800Y91800
X16800Y81800
X16800Y71800
X16800Y61800
X16800Y51800
X161800Y76800
X161800Y86800
X161800Y96800
T03
X151800Y116800
X151800Y136800
X191800Y136800
X191800Y156800
X191800Y251800
X211800Y251800
X151800Y261800
X151800Y281800
X151800Y341800
X151800Y361800
X191800Y361800
X191800Y381800
X151800Y56800
X151800Y36800
X191800Y26800
X211800Y26800
T04
X231800Y79162
X251800Y79162
X106800Y81800
X106800Y71800
X106800Y61800
X106800Y51800
X76800Y51800
X76800Y61800
X76800Y71800
X76800Y81800
X76800Y91800
X76800Y101800
X76800Y111800
X76800Y121800
X106800Y121800
X106800Y111800
X106800Y101800
X106800Y91800
X106800Y276800
X106800Y286800
X106800Y296800
X106800Y306800
X106800Y316800
X106800Y326800
X106800Y336800
X106800Y346800
X76800Y346800
X76800Y336800
X76800Y326800
X76800Y316800
X76800Y306800
X76800Y296800
X76800Y286800
X76800Y276800
X231800Y304162
X251800Y304162
T05
X266800Y289162
X286800Y319162
X231800Y319162
X231800Y289162
X231800Y94162
X231800Y64162
X266800Y64162
X286800Y94162
T06
X266800Y136800
X251800Y136800
X231800Y246800
X251800Y361800
X266800Y361800
X231800Y21800
T07
X121800Y56800
X121800Y116800
X121800Y281800
X121800Y341800
T08
X16800Y16800
X16800Y141800
X16800Y241800
X16800Y366800
X291800Y386800
X291800Y241800
X291800Y161800
X291800Y16800
M30
