G75*
%MOIN*%
%OFA0B0*%
%FSLAX25Y25*%
%IPPOS*%
%LPD*%
%AMOC8*
5,1,8,0,0,1.08239X$1,22.5*
%
%ADD10C,0.13398*%
%ADD11C,0.10800*%
%ADD12OC8,0.10800*%
%ADD13OC8,0.06000*%
%ADD14C,0.07887*%
%ADD15C,0.07887*%
%ADD16C,0.10249*%
%ADD17C,0.07099*%
%ADD18OC8,0.10850*%
%ADD19OC8,0.13200*%
%ADD20C,0.06737*%
%ADD21C,0.06000*%
D10*
X0016800Y0016800D03*
X0016800Y0141800D03*
X0016800Y0241800D03*
X0016800Y0366800D03*
X0291800Y0386800D03*
X0291800Y0241800D03*
X0291800Y0161800D03*
X0291800Y0016800D03*
D11*
X0211800Y0026800D03*
X0151800Y0056800D03*
X0151800Y0136800D03*
X0191800Y0156800D03*
X0211800Y0251800D03*
X0151800Y0281800D03*
X0151800Y0361800D03*
X0191800Y0381800D03*
D12*
X0191800Y0361800D03*
X0151800Y0341800D03*
X0151800Y0261800D03*
X0191800Y0251800D03*
X0191800Y0136800D03*
X0151800Y0116800D03*
X0151800Y0036800D03*
X0191800Y0026800D03*
D13*
X0196800Y0056800D03*
X0216800Y0056800D03*
X0206800Y0116800D03*
X0186800Y0116800D03*
X0141800Y0096800D03*
X0141800Y0076800D03*
X0121800Y0076800D03*
X0121800Y0096800D03*
X0111800Y0036800D03*
X0071800Y0036800D03*
X0071800Y0261800D03*
X0111800Y0261800D03*
X0121800Y0301800D03*
X0121800Y0321800D03*
X0141800Y0321800D03*
X0141800Y0301800D03*
X0186800Y0341800D03*
X0206800Y0341800D03*
X0196800Y0281800D03*
X0216800Y0281800D03*
D14*
X0110343Y0276800D02*
X0103257Y0276800D01*
X0103257Y0286800D02*
X0110343Y0286800D01*
X0110343Y0296800D02*
X0103257Y0296800D01*
X0103257Y0306800D02*
X0110343Y0306800D01*
X0110343Y0316800D02*
X0103257Y0316800D01*
X0103257Y0326800D02*
X0110343Y0326800D01*
X0110343Y0336800D02*
X0103257Y0336800D01*
X0103257Y0346800D02*
X0110343Y0346800D01*
X0080343Y0346800D02*
X0073257Y0346800D01*
X0073257Y0336800D02*
X0080343Y0336800D01*
X0080343Y0326800D02*
X0073257Y0326800D01*
X0073257Y0316800D02*
X0080343Y0316800D01*
X0080343Y0306800D02*
X0073257Y0306800D01*
X0073257Y0296800D02*
X0080343Y0296800D01*
X0080343Y0286800D02*
X0073257Y0286800D01*
X0073257Y0276800D02*
X0080343Y0276800D01*
X0080343Y0121800D02*
X0073257Y0121800D01*
X0073257Y0111800D02*
X0080343Y0111800D01*
X0080343Y0101800D02*
X0073257Y0101800D01*
X0073257Y0091800D02*
X0080343Y0091800D01*
X0080343Y0081800D02*
X0073257Y0081800D01*
X0073257Y0071800D02*
X0080343Y0071800D01*
X0080343Y0061800D02*
X0073257Y0061800D01*
X0073257Y0051800D02*
X0080343Y0051800D01*
X0103257Y0051800D02*
X0110343Y0051800D01*
X0110343Y0061800D02*
X0103257Y0061800D01*
X0103257Y0071800D02*
X0110343Y0071800D01*
X0110343Y0081800D02*
X0103257Y0081800D01*
X0103257Y0091800D02*
X0110343Y0091800D01*
X0110343Y0101800D02*
X0103257Y0101800D01*
X0103257Y0111800D02*
X0110343Y0111800D01*
X0110343Y0121800D02*
X0103257Y0121800D01*
D15*
X0231800Y0079162D03*
X0251800Y0079162D03*
X0251800Y0304162D03*
X0231800Y0304162D03*
D16*
X0231800Y0289162D03*
X0231800Y0319162D03*
X0231800Y0094162D03*
X0231800Y0064162D03*
D17*
X0266800Y0064162D03*
X0286800Y0094162D03*
X0266800Y0289162D03*
X0286800Y0319162D03*
D18*
X0266800Y0361800D03*
X0251800Y0361800D03*
X0231800Y0246800D03*
X0251800Y0136800D03*
X0266800Y0136800D03*
X0231800Y0021800D03*
D19*
X0121800Y0056800D03*
X0121800Y0116800D03*
X0121800Y0281800D03*
X0121800Y0341800D03*
D20*
X0158831Y0321800D02*
X0164769Y0321800D01*
X0164769Y0311800D02*
X0158831Y0311800D01*
X0158831Y0301800D02*
X0164769Y0301800D01*
X0019769Y0296800D02*
X0013831Y0296800D01*
X0013831Y0306800D02*
X0019769Y0306800D01*
X0019769Y0316800D02*
X0013831Y0316800D01*
X0013831Y0326800D02*
X0019769Y0326800D01*
X0019769Y0336800D02*
X0013831Y0336800D01*
X0013831Y0286800D02*
X0019769Y0286800D01*
X0019769Y0276800D02*
X0013831Y0276800D01*
X0013831Y0111800D02*
X0019769Y0111800D01*
X0019769Y0101800D02*
X0013831Y0101800D01*
X0013831Y0091800D02*
X0019769Y0091800D01*
X0019769Y0081800D02*
X0013831Y0081800D01*
X0013831Y0071800D02*
X0019769Y0071800D01*
X0019769Y0061800D02*
X0013831Y0061800D01*
X0013831Y0051800D02*
X0019769Y0051800D01*
X0158831Y0076800D02*
X0164769Y0076800D01*
X0164769Y0086800D02*
X0158831Y0086800D01*
X0158831Y0096800D02*
X0164769Y0096800D01*
D21*
X0186800Y0101800D03*
X0196800Y0101800D03*
X0206800Y0101800D03*
X0216800Y0101800D03*
X0216800Y0071800D03*
X0206800Y0071800D03*
X0196800Y0071800D03*
X0186800Y0071800D03*
X0186800Y0296800D03*
X0196800Y0296800D03*
X0206800Y0296800D03*
X0216800Y0296800D03*
X0216800Y0326800D03*
X0206800Y0326800D03*
X0196800Y0326800D03*
X0186800Y0326800D03*
M02*
