G75*
%MOIN*%
%OFA0B0*%
%FSLAX25Y25*%
%IPPOS*%
%LPD*%
%AMOC8*
5,1,8,0,0,1.08239X$1,22.5*
%
%ADD10C,0.13398*%
%ADD11C,0.10800*%
%ADD12OC8,0.10800*%
%ADD13R,0.11824X0.10249*%
%ADD14R,0.07887X0.07099*%
%ADD15OC8,0.06000*%
%ADD16C,0.07887*%
%ADD17C,0.07887*%
%ADD18C,0.10249*%
%ADD19C,0.07099*%
%ADD20OC8,0.10850*%
%ADD21OC8,0.13200*%
%ADD22C,0.06737*%
%ADD23C,0.06000*%
D10*
X0036800Y0041800D03*
X0036800Y0166800D03*
X0311800Y0186800D03*
X0311800Y0041800D03*
D11*
X0231800Y0051800D03*
X0171800Y0081800D03*
X0171800Y0161800D03*
X0211800Y0181800D03*
D12*
X0211800Y0161800D03*
X0171800Y0141800D03*
X0171800Y0061800D03*
X0211800Y0051800D03*
D13*
X0076800Y0094398D03*
X0076800Y0119202D03*
D14*
X0061800Y0117312D03*
X0061800Y0106288D03*
D15*
X0091800Y0061800D03*
X0131800Y0061800D03*
X0141800Y0101800D03*
X0161800Y0101800D03*
X0161800Y0121800D03*
X0141800Y0121800D03*
X0206800Y0141800D03*
X0226800Y0141800D03*
X0216800Y0081800D03*
X0236800Y0081800D03*
D16*
X0130343Y0076800D02*
X0123257Y0076800D01*
X0123257Y0086800D02*
X0130343Y0086800D01*
X0130343Y0096800D02*
X0123257Y0096800D01*
X0123257Y0106800D02*
X0130343Y0106800D01*
X0130343Y0116800D02*
X0123257Y0116800D01*
X0123257Y0126800D02*
X0130343Y0126800D01*
X0130343Y0136800D02*
X0123257Y0136800D01*
X0123257Y0146800D02*
X0130343Y0146800D01*
X0100343Y0146800D02*
X0093257Y0146800D01*
X0093257Y0136800D02*
X0100343Y0136800D01*
X0100343Y0126800D02*
X0093257Y0126800D01*
X0093257Y0116800D02*
X0100343Y0116800D01*
X0100343Y0106800D02*
X0093257Y0106800D01*
X0093257Y0096800D02*
X0100343Y0096800D01*
X0100343Y0086800D02*
X0093257Y0086800D01*
X0093257Y0076800D02*
X0100343Y0076800D01*
D17*
X0251800Y0104162D03*
X0271800Y0104162D03*
D18*
X0251800Y0089162D03*
X0251800Y0119162D03*
D19*
X0286800Y0089162D03*
X0306800Y0119162D03*
D20*
X0286800Y0161800D03*
X0271800Y0161800D03*
X0251800Y0046800D03*
D21*
X0141800Y0081800D03*
X0141800Y0141800D03*
D22*
X0178831Y0121800D02*
X0184769Y0121800D01*
X0184769Y0111800D02*
X0178831Y0111800D01*
X0178831Y0101800D02*
X0184769Y0101800D01*
X0039769Y0096800D02*
X0033831Y0096800D01*
X0033831Y0106800D02*
X0039769Y0106800D01*
X0039769Y0116800D02*
X0033831Y0116800D01*
X0033831Y0126800D02*
X0039769Y0126800D01*
X0039769Y0136800D02*
X0033831Y0136800D01*
X0033831Y0086800D02*
X0039769Y0086800D01*
X0039769Y0076800D02*
X0033831Y0076800D01*
D23*
X0206800Y0096800D03*
X0216800Y0096800D03*
X0226800Y0096800D03*
X0236800Y0096800D03*
X0236800Y0126800D03*
X0226800Y0126800D03*
X0216800Y0126800D03*
X0206800Y0126800D03*
M02*
