G75*
%MOIN*%
%OFA0B0*%
%FSLAX25Y25*%
%IPPOS*%
%LPD*%
%AMOC8*
5,1,8,0,0,1.08239X$1,22.5*
%
%ADD10C,0.00000*%
%ADD11C,0.00600*%
%ADD12R,0.09000X0.02500*%
%ADD13R,0.02500X0.09000*%
%ADD14C,0.01200*%
%ADD15C,0.00500*%
%ADD16R,0.03400X0.02400*%
%ADD17C,0.00800*%
%ADD18C,0.01000*%
D10*
X0021800Y0026800D02*
X0021800Y0195501D01*
X0321721Y0195501D01*
X0321721Y0026800D01*
X0021800Y0026800D01*
X0030501Y0041800D02*
X0030503Y0041958D01*
X0030509Y0042116D01*
X0030519Y0042274D01*
X0030533Y0042432D01*
X0030551Y0042589D01*
X0030572Y0042746D01*
X0030598Y0042902D01*
X0030628Y0043058D01*
X0030661Y0043213D01*
X0030699Y0043366D01*
X0030740Y0043519D01*
X0030785Y0043671D01*
X0030834Y0043822D01*
X0030887Y0043971D01*
X0030943Y0044119D01*
X0031003Y0044265D01*
X0031067Y0044410D01*
X0031135Y0044553D01*
X0031206Y0044695D01*
X0031280Y0044835D01*
X0031358Y0044972D01*
X0031440Y0045108D01*
X0031524Y0045242D01*
X0031613Y0045373D01*
X0031704Y0045502D01*
X0031799Y0045629D01*
X0031896Y0045754D01*
X0031997Y0045876D01*
X0032101Y0045995D01*
X0032208Y0046112D01*
X0032318Y0046226D01*
X0032431Y0046337D01*
X0032546Y0046446D01*
X0032664Y0046551D01*
X0032785Y0046653D01*
X0032908Y0046753D01*
X0033034Y0046849D01*
X0033162Y0046942D01*
X0033292Y0047032D01*
X0033425Y0047118D01*
X0033560Y0047202D01*
X0033696Y0047281D01*
X0033835Y0047358D01*
X0033976Y0047430D01*
X0034118Y0047500D01*
X0034262Y0047565D01*
X0034408Y0047627D01*
X0034555Y0047685D01*
X0034704Y0047740D01*
X0034854Y0047791D01*
X0035005Y0047838D01*
X0035157Y0047881D01*
X0035310Y0047920D01*
X0035465Y0047956D01*
X0035620Y0047987D01*
X0035776Y0048015D01*
X0035932Y0048039D01*
X0036089Y0048059D01*
X0036247Y0048075D01*
X0036404Y0048087D01*
X0036563Y0048095D01*
X0036721Y0048099D01*
X0036879Y0048099D01*
X0037037Y0048095D01*
X0037196Y0048087D01*
X0037353Y0048075D01*
X0037511Y0048059D01*
X0037668Y0048039D01*
X0037824Y0048015D01*
X0037980Y0047987D01*
X0038135Y0047956D01*
X0038290Y0047920D01*
X0038443Y0047881D01*
X0038595Y0047838D01*
X0038746Y0047791D01*
X0038896Y0047740D01*
X0039045Y0047685D01*
X0039192Y0047627D01*
X0039338Y0047565D01*
X0039482Y0047500D01*
X0039624Y0047430D01*
X0039765Y0047358D01*
X0039904Y0047281D01*
X0040040Y0047202D01*
X0040175Y0047118D01*
X0040308Y0047032D01*
X0040438Y0046942D01*
X0040566Y0046849D01*
X0040692Y0046753D01*
X0040815Y0046653D01*
X0040936Y0046551D01*
X0041054Y0046446D01*
X0041169Y0046337D01*
X0041282Y0046226D01*
X0041392Y0046112D01*
X0041499Y0045995D01*
X0041603Y0045876D01*
X0041704Y0045754D01*
X0041801Y0045629D01*
X0041896Y0045502D01*
X0041987Y0045373D01*
X0042076Y0045242D01*
X0042160Y0045108D01*
X0042242Y0044972D01*
X0042320Y0044835D01*
X0042394Y0044695D01*
X0042465Y0044553D01*
X0042533Y0044410D01*
X0042597Y0044265D01*
X0042657Y0044119D01*
X0042713Y0043971D01*
X0042766Y0043822D01*
X0042815Y0043671D01*
X0042860Y0043519D01*
X0042901Y0043366D01*
X0042939Y0043213D01*
X0042972Y0043058D01*
X0043002Y0042902D01*
X0043028Y0042746D01*
X0043049Y0042589D01*
X0043067Y0042432D01*
X0043081Y0042274D01*
X0043091Y0042116D01*
X0043097Y0041958D01*
X0043099Y0041800D01*
X0043097Y0041642D01*
X0043091Y0041484D01*
X0043081Y0041326D01*
X0043067Y0041168D01*
X0043049Y0041011D01*
X0043028Y0040854D01*
X0043002Y0040698D01*
X0042972Y0040542D01*
X0042939Y0040387D01*
X0042901Y0040234D01*
X0042860Y0040081D01*
X0042815Y0039929D01*
X0042766Y0039778D01*
X0042713Y0039629D01*
X0042657Y0039481D01*
X0042597Y0039335D01*
X0042533Y0039190D01*
X0042465Y0039047D01*
X0042394Y0038905D01*
X0042320Y0038765D01*
X0042242Y0038628D01*
X0042160Y0038492D01*
X0042076Y0038358D01*
X0041987Y0038227D01*
X0041896Y0038098D01*
X0041801Y0037971D01*
X0041704Y0037846D01*
X0041603Y0037724D01*
X0041499Y0037605D01*
X0041392Y0037488D01*
X0041282Y0037374D01*
X0041169Y0037263D01*
X0041054Y0037154D01*
X0040936Y0037049D01*
X0040815Y0036947D01*
X0040692Y0036847D01*
X0040566Y0036751D01*
X0040438Y0036658D01*
X0040308Y0036568D01*
X0040175Y0036482D01*
X0040040Y0036398D01*
X0039904Y0036319D01*
X0039765Y0036242D01*
X0039624Y0036170D01*
X0039482Y0036100D01*
X0039338Y0036035D01*
X0039192Y0035973D01*
X0039045Y0035915D01*
X0038896Y0035860D01*
X0038746Y0035809D01*
X0038595Y0035762D01*
X0038443Y0035719D01*
X0038290Y0035680D01*
X0038135Y0035644D01*
X0037980Y0035613D01*
X0037824Y0035585D01*
X0037668Y0035561D01*
X0037511Y0035541D01*
X0037353Y0035525D01*
X0037196Y0035513D01*
X0037037Y0035505D01*
X0036879Y0035501D01*
X0036721Y0035501D01*
X0036563Y0035505D01*
X0036404Y0035513D01*
X0036247Y0035525D01*
X0036089Y0035541D01*
X0035932Y0035561D01*
X0035776Y0035585D01*
X0035620Y0035613D01*
X0035465Y0035644D01*
X0035310Y0035680D01*
X0035157Y0035719D01*
X0035005Y0035762D01*
X0034854Y0035809D01*
X0034704Y0035860D01*
X0034555Y0035915D01*
X0034408Y0035973D01*
X0034262Y0036035D01*
X0034118Y0036100D01*
X0033976Y0036170D01*
X0033835Y0036242D01*
X0033696Y0036319D01*
X0033560Y0036398D01*
X0033425Y0036482D01*
X0033292Y0036568D01*
X0033162Y0036658D01*
X0033034Y0036751D01*
X0032908Y0036847D01*
X0032785Y0036947D01*
X0032664Y0037049D01*
X0032546Y0037154D01*
X0032431Y0037263D01*
X0032318Y0037374D01*
X0032208Y0037488D01*
X0032101Y0037605D01*
X0031997Y0037724D01*
X0031896Y0037846D01*
X0031799Y0037971D01*
X0031704Y0038098D01*
X0031613Y0038227D01*
X0031524Y0038358D01*
X0031440Y0038492D01*
X0031358Y0038628D01*
X0031280Y0038765D01*
X0031206Y0038905D01*
X0031135Y0039047D01*
X0031067Y0039190D01*
X0031003Y0039335D01*
X0030943Y0039481D01*
X0030887Y0039629D01*
X0030834Y0039778D01*
X0030785Y0039929D01*
X0030740Y0040081D01*
X0030699Y0040234D01*
X0030661Y0040387D01*
X0030628Y0040542D01*
X0030598Y0040698D01*
X0030572Y0040854D01*
X0030551Y0041011D01*
X0030533Y0041168D01*
X0030519Y0041326D01*
X0030509Y0041484D01*
X0030503Y0041642D01*
X0030501Y0041800D01*
X0030501Y0166800D02*
X0030503Y0166958D01*
X0030509Y0167116D01*
X0030519Y0167274D01*
X0030533Y0167432D01*
X0030551Y0167589D01*
X0030572Y0167746D01*
X0030598Y0167902D01*
X0030628Y0168058D01*
X0030661Y0168213D01*
X0030699Y0168366D01*
X0030740Y0168519D01*
X0030785Y0168671D01*
X0030834Y0168822D01*
X0030887Y0168971D01*
X0030943Y0169119D01*
X0031003Y0169265D01*
X0031067Y0169410D01*
X0031135Y0169553D01*
X0031206Y0169695D01*
X0031280Y0169835D01*
X0031358Y0169972D01*
X0031440Y0170108D01*
X0031524Y0170242D01*
X0031613Y0170373D01*
X0031704Y0170502D01*
X0031799Y0170629D01*
X0031896Y0170754D01*
X0031997Y0170876D01*
X0032101Y0170995D01*
X0032208Y0171112D01*
X0032318Y0171226D01*
X0032431Y0171337D01*
X0032546Y0171446D01*
X0032664Y0171551D01*
X0032785Y0171653D01*
X0032908Y0171753D01*
X0033034Y0171849D01*
X0033162Y0171942D01*
X0033292Y0172032D01*
X0033425Y0172118D01*
X0033560Y0172202D01*
X0033696Y0172281D01*
X0033835Y0172358D01*
X0033976Y0172430D01*
X0034118Y0172500D01*
X0034262Y0172565D01*
X0034408Y0172627D01*
X0034555Y0172685D01*
X0034704Y0172740D01*
X0034854Y0172791D01*
X0035005Y0172838D01*
X0035157Y0172881D01*
X0035310Y0172920D01*
X0035465Y0172956D01*
X0035620Y0172987D01*
X0035776Y0173015D01*
X0035932Y0173039D01*
X0036089Y0173059D01*
X0036247Y0173075D01*
X0036404Y0173087D01*
X0036563Y0173095D01*
X0036721Y0173099D01*
X0036879Y0173099D01*
X0037037Y0173095D01*
X0037196Y0173087D01*
X0037353Y0173075D01*
X0037511Y0173059D01*
X0037668Y0173039D01*
X0037824Y0173015D01*
X0037980Y0172987D01*
X0038135Y0172956D01*
X0038290Y0172920D01*
X0038443Y0172881D01*
X0038595Y0172838D01*
X0038746Y0172791D01*
X0038896Y0172740D01*
X0039045Y0172685D01*
X0039192Y0172627D01*
X0039338Y0172565D01*
X0039482Y0172500D01*
X0039624Y0172430D01*
X0039765Y0172358D01*
X0039904Y0172281D01*
X0040040Y0172202D01*
X0040175Y0172118D01*
X0040308Y0172032D01*
X0040438Y0171942D01*
X0040566Y0171849D01*
X0040692Y0171753D01*
X0040815Y0171653D01*
X0040936Y0171551D01*
X0041054Y0171446D01*
X0041169Y0171337D01*
X0041282Y0171226D01*
X0041392Y0171112D01*
X0041499Y0170995D01*
X0041603Y0170876D01*
X0041704Y0170754D01*
X0041801Y0170629D01*
X0041896Y0170502D01*
X0041987Y0170373D01*
X0042076Y0170242D01*
X0042160Y0170108D01*
X0042242Y0169972D01*
X0042320Y0169835D01*
X0042394Y0169695D01*
X0042465Y0169553D01*
X0042533Y0169410D01*
X0042597Y0169265D01*
X0042657Y0169119D01*
X0042713Y0168971D01*
X0042766Y0168822D01*
X0042815Y0168671D01*
X0042860Y0168519D01*
X0042901Y0168366D01*
X0042939Y0168213D01*
X0042972Y0168058D01*
X0043002Y0167902D01*
X0043028Y0167746D01*
X0043049Y0167589D01*
X0043067Y0167432D01*
X0043081Y0167274D01*
X0043091Y0167116D01*
X0043097Y0166958D01*
X0043099Y0166800D01*
X0043097Y0166642D01*
X0043091Y0166484D01*
X0043081Y0166326D01*
X0043067Y0166168D01*
X0043049Y0166011D01*
X0043028Y0165854D01*
X0043002Y0165698D01*
X0042972Y0165542D01*
X0042939Y0165387D01*
X0042901Y0165234D01*
X0042860Y0165081D01*
X0042815Y0164929D01*
X0042766Y0164778D01*
X0042713Y0164629D01*
X0042657Y0164481D01*
X0042597Y0164335D01*
X0042533Y0164190D01*
X0042465Y0164047D01*
X0042394Y0163905D01*
X0042320Y0163765D01*
X0042242Y0163628D01*
X0042160Y0163492D01*
X0042076Y0163358D01*
X0041987Y0163227D01*
X0041896Y0163098D01*
X0041801Y0162971D01*
X0041704Y0162846D01*
X0041603Y0162724D01*
X0041499Y0162605D01*
X0041392Y0162488D01*
X0041282Y0162374D01*
X0041169Y0162263D01*
X0041054Y0162154D01*
X0040936Y0162049D01*
X0040815Y0161947D01*
X0040692Y0161847D01*
X0040566Y0161751D01*
X0040438Y0161658D01*
X0040308Y0161568D01*
X0040175Y0161482D01*
X0040040Y0161398D01*
X0039904Y0161319D01*
X0039765Y0161242D01*
X0039624Y0161170D01*
X0039482Y0161100D01*
X0039338Y0161035D01*
X0039192Y0160973D01*
X0039045Y0160915D01*
X0038896Y0160860D01*
X0038746Y0160809D01*
X0038595Y0160762D01*
X0038443Y0160719D01*
X0038290Y0160680D01*
X0038135Y0160644D01*
X0037980Y0160613D01*
X0037824Y0160585D01*
X0037668Y0160561D01*
X0037511Y0160541D01*
X0037353Y0160525D01*
X0037196Y0160513D01*
X0037037Y0160505D01*
X0036879Y0160501D01*
X0036721Y0160501D01*
X0036563Y0160505D01*
X0036404Y0160513D01*
X0036247Y0160525D01*
X0036089Y0160541D01*
X0035932Y0160561D01*
X0035776Y0160585D01*
X0035620Y0160613D01*
X0035465Y0160644D01*
X0035310Y0160680D01*
X0035157Y0160719D01*
X0035005Y0160762D01*
X0034854Y0160809D01*
X0034704Y0160860D01*
X0034555Y0160915D01*
X0034408Y0160973D01*
X0034262Y0161035D01*
X0034118Y0161100D01*
X0033976Y0161170D01*
X0033835Y0161242D01*
X0033696Y0161319D01*
X0033560Y0161398D01*
X0033425Y0161482D01*
X0033292Y0161568D01*
X0033162Y0161658D01*
X0033034Y0161751D01*
X0032908Y0161847D01*
X0032785Y0161947D01*
X0032664Y0162049D01*
X0032546Y0162154D01*
X0032431Y0162263D01*
X0032318Y0162374D01*
X0032208Y0162488D01*
X0032101Y0162605D01*
X0031997Y0162724D01*
X0031896Y0162846D01*
X0031799Y0162971D01*
X0031704Y0163098D01*
X0031613Y0163227D01*
X0031524Y0163358D01*
X0031440Y0163492D01*
X0031358Y0163628D01*
X0031280Y0163765D01*
X0031206Y0163905D01*
X0031135Y0164047D01*
X0031067Y0164190D01*
X0031003Y0164335D01*
X0030943Y0164481D01*
X0030887Y0164629D01*
X0030834Y0164778D01*
X0030785Y0164929D01*
X0030740Y0165081D01*
X0030699Y0165234D01*
X0030661Y0165387D01*
X0030628Y0165542D01*
X0030598Y0165698D01*
X0030572Y0165854D01*
X0030551Y0166011D01*
X0030533Y0166168D01*
X0030519Y0166326D01*
X0030509Y0166484D01*
X0030503Y0166642D01*
X0030501Y0166800D01*
X0283650Y0089162D02*
X0283652Y0089274D01*
X0283658Y0089385D01*
X0283668Y0089497D01*
X0283682Y0089608D01*
X0283699Y0089718D01*
X0283721Y0089828D01*
X0283747Y0089937D01*
X0283776Y0090045D01*
X0283809Y0090151D01*
X0283846Y0090257D01*
X0283887Y0090361D01*
X0283932Y0090464D01*
X0283980Y0090565D01*
X0284031Y0090664D01*
X0284086Y0090761D01*
X0284145Y0090856D01*
X0284206Y0090950D01*
X0284271Y0091041D01*
X0284340Y0091129D01*
X0284411Y0091215D01*
X0284485Y0091299D01*
X0284563Y0091379D01*
X0284643Y0091457D01*
X0284726Y0091533D01*
X0284811Y0091605D01*
X0284899Y0091674D01*
X0284989Y0091740D01*
X0285082Y0091802D01*
X0285177Y0091862D01*
X0285274Y0091918D01*
X0285372Y0091970D01*
X0285473Y0092019D01*
X0285575Y0092064D01*
X0285679Y0092106D01*
X0285784Y0092144D01*
X0285891Y0092178D01*
X0285998Y0092208D01*
X0286107Y0092235D01*
X0286216Y0092257D01*
X0286327Y0092276D01*
X0286437Y0092291D01*
X0286549Y0092302D01*
X0286660Y0092309D01*
X0286772Y0092312D01*
X0286884Y0092311D01*
X0286996Y0092306D01*
X0287107Y0092297D01*
X0287218Y0092284D01*
X0287329Y0092267D01*
X0287439Y0092247D01*
X0287548Y0092222D01*
X0287656Y0092194D01*
X0287763Y0092161D01*
X0287869Y0092125D01*
X0287973Y0092085D01*
X0288076Y0092042D01*
X0288178Y0091995D01*
X0288277Y0091944D01*
X0288375Y0091890D01*
X0288471Y0091832D01*
X0288565Y0091771D01*
X0288656Y0091707D01*
X0288745Y0091640D01*
X0288832Y0091569D01*
X0288916Y0091495D01*
X0288998Y0091419D01*
X0289076Y0091339D01*
X0289152Y0091257D01*
X0289225Y0091172D01*
X0289295Y0091085D01*
X0289361Y0090995D01*
X0289425Y0090903D01*
X0289485Y0090809D01*
X0289542Y0090713D01*
X0289595Y0090614D01*
X0289645Y0090514D01*
X0289691Y0090413D01*
X0289734Y0090309D01*
X0289773Y0090204D01*
X0289808Y0090098D01*
X0289839Y0089991D01*
X0289867Y0089882D01*
X0289890Y0089773D01*
X0289910Y0089663D01*
X0289926Y0089552D01*
X0289938Y0089441D01*
X0289946Y0089330D01*
X0289950Y0089218D01*
X0289950Y0089106D01*
X0289946Y0088994D01*
X0289938Y0088883D01*
X0289926Y0088772D01*
X0289910Y0088661D01*
X0289890Y0088551D01*
X0289867Y0088442D01*
X0289839Y0088333D01*
X0289808Y0088226D01*
X0289773Y0088120D01*
X0289734Y0088015D01*
X0289691Y0087911D01*
X0289645Y0087810D01*
X0289595Y0087710D01*
X0289542Y0087611D01*
X0289485Y0087515D01*
X0289425Y0087421D01*
X0289361Y0087329D01*
X0289295Y0087239D01*
X0289225Y0087152D01*
X0289152Y0087067D01*
X0289076Y0086985D01*
X0288998Y0086905D01*
X0288916Y0086829D01*
X0288832Y0086755D01*
X0288745Y0086684D01*
X0288656Y0086617D01*
X0288565Y0086553D01*
X0288471Y0086492D01*
X0288375Y0086434D01*
X0288277Y0086380D01*
X0288178Y0086329D01*
X0288076Y0086282D01*
X0287973Y0086239D01*
X0287869Y0086199D01*
X0287763Y0086163D01*
X0287656Y0086130D01*
X0287548Y0086102D01*
X0287439Y0086077D01*
X0287329Y0086057D01*
X0287218Y0086040D01*
X0287107Y0086027D01*
X0286996Y0086018D01*
X0286884Y0086013D01*
X0286772Y0086012D01*
X0286660Y0086015D01*
X0286549Y0086022D01*
X0286437Y0086033D01*
X0286327Y0086048D01*
X0286216Y0086067D01*
X0286107Y0086089D01*
X0285998Y0086116D01*
X0285891Y0086146D01*
X0285784Y0086180D01*
X0285679Y0086218D01*
X0285575Y0086260D01*
X0285473Y0086305D01*
X0285372Y0086354D01*
X0285274Y0086406D01*
X0285177Y0086462D01*
X0285082Y0086522D01*
X0284989Y0086584D01*
X0284899Y0086650D01*
X0284811Y0086719D01*
X0284726Y0086791D01*
X0284643Y0086867D01*
X0284563Y0086945D01*
X0284485Y0087025D01*
X0284411Y0087109D01*
X0284340Y0087195D01*
X0284271Y0087283D01*
X0284206Y0087374D01*
X0284145Y0087468D01*
X0284086Y0087563D01*
X0284031Y0087660D01*
X0283980Y0087759D01*
X0283932Y0087860D01*
X0283887Y0087963D01*
X0283846Y0088067D01*
X0283809Y0088173D01*
X0283776Y0088279D01*
X0283747Y0088387D01*
X0283721Y0088496D01*
X0283699Y0088606D01*
X0283682Y0088716D01*
X0283668Y0088827D01*
X0283658Y0088939D01*
X0283652Y0089050D01*
X0283650Y0089162D01*
X0303650Y0119162D02*
X0303652Y0119274D01*
X0303658Y0119385D01*
X0303668Y0119497D01*
X0303682Y0119608D01*
X0303699Y0119718D01*
X0303721Y0119828D01*
X0303747Y0119937D01*
X0303776Y0120045D01*
X0303809Y0120151D01*
X0303846Y0120257D01*
X0303887Y0120361D01*
X0303932Y0120464D01*
X0303980Y0120565D01*
X0304031Y0120664D01*
X0304086Y0120761D01*
X0304145Y0120856D01*
X0304206Y0120950D01*
X0304271Y0121041D01*
X0304340Y0121129D01*
X0304411Y0121215D01*
X0304485Y0121299D01*
X0304563Y0121379D01*
X0304643Y0121457D01*
X0304726Y0121533D01*
X0304811Y0121605D01*
X0304899Y0121674D01*
X0304989Y0121740D01*
X0305082Y0121802D01*
X0305177Y0121862D01*
X0305274Y0121918D01*
X0305372Y0121970D01*
X0305473Y0122019D01*
X0305575Y0122064D01*
X0305679Y0122106D01*
X0305784Y0122144D01*
X0305891Y0122178D01*
X0305998Y0122208D01*
X0306107Y0122235D01*
X0306216Y0122257D01*
X0306327Y0122276D01*
X0306437Y0122291D01*
X0306549Y0122302D01*
X0306660Y0122309D01*
X0306772Y0122312D01*
X0306884Y0122311D01*
X0306996Y0122306D01*
X0307107Y0122297D01*
X0307218Y0122284D01*
X0307329Y0122267D01*
X0307439Y0122247D01*
X0307548Y0122222D01*
X0307656Y0122194D01*
X0307763Y0122161D01*
X0307869Y0122125D01*
X0307973Y0122085D01*
X0308076Y0122042D01*
X0308178Y0121995D01*
X0308277Y0121944D01*
X0308375Y0121890D01*
X0308471Y0121832D01*
X0308565Y0121771D01*
X0308656Y0121707D01*
X0308745Y0121640D01*
X0308832Y0121569D01*
X0308916Y0121495D01*
X0308998Y0121419D01*
X0309076Y0121339D01*
X0309152Y0121257D01*
X0309225Y0121172D01*
X0309295Y0121085D01*
X0309361Y0120995D01*
X0309425Y0120903D01*
X0309485Y0120809D01*
X0309542Y0120713D01*
X0309595Y0120614D01*
X0309645Y0120514D01*
X0309691Y0120413D01*
X0309734Y0120309D01*
X0309773Y0120204D01*
X0309808Y0120098D01*
X0309839Y0119991D01*
X0309867Y0119882D01*
X0309890Y0119773D01*
X0309910Y0119663D01*
X0309926Y0119552D01*
X0309938Y0119441D01*
X0309946Y0119330D01*
X0309950Y0119218D01*
X0309950Y0119106D01*
X0309946Y0118994D01*
X0309938Y0118883D01*
X0309926Y0118772D01*
X0309910Y0118661D01*
X0309890Y0118551D01*
X0309867Y0118442D01*
X0309839Y0118333D01*
X0309808Y0118226D01*
X0309773Y0118120D01*
X0309734Y0118015D01*
X0309691Y0117911D01*
X0309645Y0117810D01*
X0309595Y0117710D01*
X0309542Y0117611D01*
X0309485Y0117515D01*
X0309425Y0117421D01*
X0309361Y0117329D01*
X0309295Y0117239D01*
X0309225Y0117152D01*
X0309152Y0117067D01*
X0309076Y0116985D01*
X0308998Y0116905D01*
X0308916Y0116829D01*
X0308832Y0116755D01*
X0308745Y0116684D01*
X0308656Y0116617D01*
X0308565Y0116553D01*
X0308471Y0116492D01*
X0308375Y0116434D01*
X0308277Y0116380D01*
X0308178Y0116329D01*
X0308076Y0116282D01*
X0307973Y0116239D01*
X0307869Y0116199D01*
X0307763Y0116163D01*
X0307656Y0116130D01*
X0307548Y0116102D01*
X0307439Y0116077D01*
X0307329Y0116057D01*
X0307218Y0116040D01*
X0307107Y0116027D01*
X0306996Y0116018D01*
X0306884Y0116013D01*
X0306772Y0116012D01*
X0306660Y0116015D01*
X0306549Y0116022D01*
X0306437Y0116033D01*
X0306327Y0116048D01*
X0306216Y0116067D01*
X0306107Y0116089D01*
X0305998Y0116116D01*
X0305891Y0116146D01*
X0305784Y0116180D01*
X0305679Y0116218D01*
X0305575Y0116260D01*
X0305473Y0116305D01*
X0305372Y0116354D01*
X0305274Y0116406D01*
X0305177Y0116462D01*
X0305082Y0116522D01*
X0304989Y0116584D01*
X0304899Y0116650D01*
X0304811Y0116719D01*
X0304726Y0116791D01*
X0304643Y0116867D01*
X0304563Y0116945D01*
X0304485Y0117025D01*
X0304411Y0117109D01*
X0304340Y0117195D01*
X0304271Y0117283D01*
X0304206Y0117374D01*
X0304145Y0117468D01*
X0304086Y0117563D01*
X0304031Y0117660D01*
X0303980Y0117759D01*
X0303932Y0117860D01*
X0303887Y0117963D01*
X0303846Y0118067D01*
X0303809Y0118173D01*
X0303776Y0118279D01*
X0303747Y0118387D01*
X0303721Y0118496D01*
X0303699Y0118606D01*
X0303682Y0118716D01*
X0303668Y0118827D01*
X0303658Y0118939D01*
X0303652Y0119050D01*
X0303650Y0119162D01*
X0305501Y0186800D02*
X0305503Y0186958D01*
X0305509Y0187116D01*
X0305519Y0187274D01*
X0305533Y0187432D01*
X0305551Y0187589D01*
X0305572Y0187746D01*
X0305598Y0187902D01*
X0305628Y0188058D01*
X0305661Y0188213D01*
X0305699Y0188366D01*
X0305740Y0188519D01*
X0305785Y0188671D01*
X0305834Y0188822D01*
X0305887Y0188971D01*
X0305943Y0189119D01*
X0306003Y0189265D01*
X0306067Y0189410D01*
X0306135Y0189553D01*
X0306206Y0189695D01*
X0306280Y0189835D01*
X0306358Y0189972D01*
X0306440Y0190108D01*
X0306524Y0190242D01*
X0306613Y0190373D01*
X0306704Y0190502D01*
X0306799Y0190629D01*
X0306896Y0190754D01*
X0306997Y0190876D01*
X0307101Y0190995D01*
X0307208Y0191112D01*
X0307318Y0191226D01*
X0307431Y0191337D01*
X0307546Y0191446D01*
X0307664Y0191551D01*
X0307785Y0191653D01*
X0307908Y0191753D01*
X0308034Y0191849D01*
X0308162Y0191942D01*
X0308292Y0192032D01*
X0308425Y0192118D01*
X0308560Y0192202D01*
X0308696Y0192281D01*
X0308835Y0192358D01*
X0308976Y0192430D01*
X0309118Y0192500D01*
X0309262Y0192565D01*
X0309408Y0192627D01*
X0309555Y0192685D01*
X0309704Y0192740D01*
X0309854Y0192791D01*
X0310005Y0192838D01*
X0310157Y0192881D01*
X0310310Y0192920D01*
X0310465Y0192956D01*
X0310620Y0192987D01*
X0310776Y0193015D01*
X0310932Y0193039D01*
X0311089Y0193059D01*
X0311247Y0193075D01*
X0311404Y0193087D01*
X0311563Y0193095D01*
X0311721Y0193099D01*
X0311879Y0193099D01*
X0312037Y0193095D01*
X0312196Y0193087D01*
X0312353Y0193075D01*
X0312511Y0193059D01*
X0312668Y0193039D01*
X0312824Y0193015D01*
X0312980Y0192987D01*
X0313135Y0192956D01*
X0313290Y0192920D01*
X0313443Y0192881D01*
X0313595Y0192838D01*
X0313746Y0192791D01*
X0313896Y0192740D01*
X0314045Y0192685D01*
X0314192Y0192627D01*
X0314338Y0192565D01*
X0314482Y0192500D01*
X0314624Y0192430D01*
X0314765Y0192358D01*
X0314904Y0192281D01*
X0315040Y0192202D01*
X0315175Y0192118D01*
X0315308Y0192032D01*
X0315438Y0191942D01*
X0315566Y0191849D01*
X0315692Y0191753D01*
X0315815Y0191653D01*
X0315936Y0191551D01*
X0316054Y0191446D01*
X0316169Y0191337D01*
X0316282Y0191226D01*
X0316392Y0191112D01*
X0316499Y0190995D01*
X0316603Y0190876D01*
X0316704Y0190754D01*
X0316801Y0190629D01*
X0316896Y0190502D01*
X0316987Y0190373D01*
X0317076Y0190242D01*
X0317160Y0190108D01*
X0317242Y0189972D01*
X0317320Y0189835D01*
X0317394Y0189695D01*
X0317465Y0189553D01*
X0317533Y0189410D01*
X0317597Y0189265D01*
X0317657Y0189119D01*
X0317713Y0188971D01*
X0317766Y0188822D01*
X0317815Y0188671D01*
X0317860Y0188519D01*
X0317901Y0188366D01*
X0317939Y0188213D01*
X0317972Y0188058D01*
X0318002Y0187902D01*
X0318028Y0187746D01*
X0318049Y0187589D01*
X0318067Y0187432D01*
X0318081Y0187274D01*
X0318091Y0187116D01*
X0318097Y0186958D01*
X0318099Y0186800D01*
X0318097Y0186642D01*
X0318091Y0186484D01*
X0318081Y0186326D01*
X0318067Y0186168D01*
X0318049Y0186011D01*
X0318028Y0185854D01*
X0318002Y0185698D01*
X0317972Y0185542D01*
X0317939Y0185387D01*
X0317901Y0185234D01*
X0317860Y0185081D01*
X0317815Y0184929D01*
X0317766Y0184778D01*
X0317713Y0184629D01*
X0317657Y0184481D01*
X0317597Y0184335D01*
X0317533Y0184190D01*
X0317465Y0184047D01*
X0317394Y0183905D01*
X0317320Y0183765D01*
X0317242Y0183628D01*
X0317160Y0183492D01*
X0317076Y0183358D01*
X0316987Y0183227D01*
X0316896Y0183098D01*
X0316801Y0182971D01*
X0316704Y0182846D01*
X0316603Y0182724D01*
X0316499Y0182605D01*
X0316392Y0182488D01*
X0316282Y0182374D01*
X0316169Y0182263D01*
X0316054Y0182154D01*
X0315936Y0182049D01*
X0315815Y0181947D01*
X0315692Y0181847D01*
X0315566Y0181751D01*
X0315438Y0181658D01*
X0315308Y0181568D01*
X0315175Y0181482D01*
X0315040Y0181398D01*
X0314904Y0181319D01*
X0314765Y0181242D01*
X0314624Y0181170D01*
X0314482Y0181100D01*
X0314338Y0181035D01*
X0314192Y0180973D01*
X0314045Y0180915D01*
X0313896Y0180860D01*
X0313746Y0180809D01*
X0313595Y0180762D01*
X0313443Y0180719D01*
X0313290Y0180680D01*
X0313135Y0180644D01*
X0312980Y0180613D01*
X0312824Y0180585D01*
X0312668Y0180561D01*
X0312511Y0180541D01*
X0312353Y0180525D01*
X0312196Y0180513D01*
X0312037Y0180505D01*
X0311879Y0180501D01*
X0311721Y0180501D01*
X0311563Y0180505D01*
X0311404Y0180513D01*
X0311247Y0180525D01*
X0311089Y0180541D01*
X0310932Y0180561D01*
X0310776Y0180585D01*
X0310620Y0180613D01*
X0310465Y0180644D01*
X0310310Y0180680D01*
X0310157Y0180719D01*
X0310005Y0180762D01*
X0309854Y0180809D01*
X0309704Y0180860D01*
X0309555Y0180915D01*
X0309408Y0180973D01*
X0309262Y0181035D01*
X0309118Y0181100D01*
X0308976Y0181170D01*
X0308835Y0181242D01*
X0308696Y0181319D01*
X0308560Y0181398D01*
X0308425Y0181482D01*
X0308292Y0181568D01*
X0308162Y0181658D01*
X0308034Y0181751D01*
X0307908Y0181847D01*
X0307785Y0181947D01*
X0307664Y0182049D01*
X0307546Y0182154D01*
X0307431Y0182263D01*
X0307318Y0182374D01*
X0307208Y0182488D01*
X0307101Y0182605D01*
X0306997Y0182724D01*
X0306896Y0182846D01*
X0306799Y0182971D01*
X0306704Y0183098D01*
X0306613Y0183227D01*
X0306524Y0183358D01*
X0306440Y0183492D01*
X0306358Y0183628D01*
X0306280Y0183765D01*
X0306206Y0183905D01*
X0306135Y0184047D01*
X0306067Y0184190D01*
X0306003Y0184335D01*
X0305943Y0184481D01*
X0305887Y0184629D01*
X0305834Y0184778D01*
X0305785Y0184929D01*
X0305740Y0185081D01*
X0305699Y0185234D01*
X0305661Y0185387D01*
X0305628Y0185542D01*
X0305598Y0185698D01*
X0305572Y0185854D01*
X0305551Y0186011D01*
X0305533Y0186168D01*
X0305519Y0186326D01*
X0305509Y0186484D01*
X0305503Y0186642D01*
X0305501Y0186800D01*
X0305501Y0041800D02*
X0305503Y0041958D01*
X0305509Y0042116D01*
X0305519Y0042274D01*
X0305533Y0042432D01*
X0305551Y0042589D01*
X0305572Y0042746D01*
X0305598Y0042902D01*
X0305628Y0043058D01*
X0305661Y0043213D01*
X0305699Y0043366D01*
X0305740Y0043519D01*
X0305785Y0043671D01*
X0305834Y0043822D01*
X0305887Y0043971D01*
X0305943Y0044119D01*
X0306003Y0044265D01*
X0306067Y0044410D01*
X0306135Y0044553D01*
X0306206Y0044695D01*
X0306280Y0044835D01*
X0306358Y0044972D01*
X0306440Y0045108D01*
X0306524Y0045242D01*
X0306613Y0045373D01*
X0306704Y0045502D01*
X0306799Y0045629D01*
X0306896Y0045754D01*
X0306997Y0045876D01*
X0307101Y0045995D01*
X0307208Y0046112D01*
X0307318Y0046226D01*
X0307431Y0046337D01*
X0307546Y0046446D01*
X0307664Y0046551D01*
X0307785Y0046653D01*
X0307908Y0046753D01*
X0308034Y0046849D01*
X0308162Y0046942D01*
X0308292Y0047032D01*
X0308425Y0047118D01*
X0308560Y0047202D01*
X0308696Y0047281D01*
X0308835Y0047358D01*
X0308976Y0047430D01*
X0309118Y0047500D01*
X0309262Y0047565D01*
X0309408Y0047627D01*
X0309555Y0047685D01*
X0309704Y0047740D01*
X0309854Y0047791D01*
X0310005Y0047838D01*
X0310157Y0047881D01*
X0310310Y0047920D01*
X0310465Y0047956D01*
X0310620Y0047987D01*
X0310776Y0048015D01*
X0310932Y0048039D01*
X0311089Y0048059D01*
X0311247Y0048075D01*
X0311404Y0048087D01*
X0311563Y0048095D01*
X0311721Y0048099D01*
X0311879Y0048099D01*
X0312037Y0048095D01*
X0312196Y0048087D01*
X0312353Y0048075D01*
X0312511Y0048059D01*
X0312668Y0048039D01*
X0312824Y0048015D01*
X0312980Y0047987D01*
X0313135Y0047956D01*
X0313290Y0047920D01*
X0313443Y0047881D01*
X0313595Y0047838D01*
X0313746Y0047791D01*
X0313896Y0047740D01*
X0314045Y0047685D01*
X0314192Y0047627D01*
X0314338Y0047565D01*
X0314482Y0047500D01*
X0314624Y0047430D01*
X0314765Y0047358D01*
X0314904Y0047281D01*
X0315040Y0047202D01*
X0315175Y0047118D01*
X0315308Y0047032D01*
X0315438Y0046942D01*
X0315566Y0046849D01*
X0315692Y0046753D01*
X0315815Y0046653D01*
X0315936Y0046551D01*
X0316054Y0046446D01*
X0316169Y0046337D01*
X0316282Y0046226D01*
X0316392Y0046112D01*
X0316499Y0045995D01*
X0316603Y0045876D01*
X0316704Y0045754D01*
X0316801Y0045629D01*
X0316896Y0045502D01*
X0316987Y0045373D01*
X0317076Y0045242D01*
X0317160Y0045108D01*
X0317242Y0044972D01*
X0317320Y0044835D01*
X0317394Y0044695D01*
X0317465Y0044553D01*
X0317533Y0044410D01*
X0317597Y0044265D01*
X0317657Y0044119D01*
X0317713Y0043971D01*
X0317766Y0043822D01*
X0317815Y0043671D01*
X0317860Y0043519D01*
X0317901Y0043366D01*
X0317939Y0043213D01*
X0317972Y0043058D01*
X0318002Y0042902D01*
X0318028Y0042746D01*
X0318049Y0042589D01*
X0318067Y0042432D01*
X0318081Y0042274D01*
X0318091Y0042116D01*
X0318097Y0041958D01*
X0318099Y0041800D01*
X0318097Y0041642D01*
X0318091Y0041484D01*
X0318081Y0041326D01*
X0318067Y0041168D01*
X0318049Y0041011D01*
X0318028Y0040854D01*
X0318002Y0040698D01*
X0317972Y0040542D01*
X0317939Y0040387D01*
X0317901Y0040234D01*
X0317860Y0040081D01*
X0317815Y0039929D01*
X0317766Y0039778D01*
X0317713Y0039629D01*
X0317657Y0039481D01*
X0317597Y0039335D01*
X0317533Y0039190D01*
X0317465Y0039047D01*
X0317394Y0038905D01*
X0317320Y0038765D01*
X0317242Y0038628D01*
X0317160Y0038492D01*
X0317076Y0038358D01*
X0316987Y0038227D01*
X0316896Y0038098D01*
X0316801Y0037971D01*
X0316704Y0037846D01*
X0316603Y0037724D01*
X0316499Y0037605D01*
X0316392Y0037488D01*
X0316282Y0037374D01*
X0316169Y0037263D01*
X0316054Y0037154D01*
X0315936Y0037049D01*
X0315815Y0036947D01*
X0315692Y0036847D01*
X0315566Y0036751D01*
X0315438Y0036658D01*
X0315308Y0036568D01*
X0315175Y0036482D01*
X0315040Y0036398D01*
X0314904Y0036319D01*
X0314765Y0036242D01*
X0314624Y0036170D01*
X0314482Y0036100D01*
X0314338Y0036035D01*
X0314192Y0035973D01*
X0314045Y0035915D01*
X0313896Y0035860D01*
X0313746Y0035809D01*
X0313595Y0035762D01*
X0313443Y0035719D01*
X0313290Y0035680D01*
X0313135Y0035644D01*
X0312980Y0035613D01*
X0312824Y0035585D01*
X0312668Y0035561D01*
X0312511Y0035541D01*
X0312353Y0035525D01*
X0312196Y0035513D01*
X0312037Y0035505D01*
X0311879Y0035501D01*
X0311721Y0035501D01*
X0311563Y0035505D01*
X0311404Y0035513D01*
X0311247Y0035525D01*
X0311089Y0035541D01*
X0310932Y0035561D01*
X0310776Y0035585D01*
X0310620Y0035613D01*
X0310465Y0035644D01*
X0310310Y0035680D01*
X0310157Y0035719D01*
X0310005Y0035762D01*
X0309854Y0035809D01*
X0309704Y0035860D01*
X0309555Y0035915D01*
X0309408Y0035973D01*
X0309262Y0036035D01*
X0309118Y0036100D01*
X0308976Y0036170D01*
X0308835Y0036242D01*
X0308696Y0036319D01*
X0308560Y0036398D01*
X0308425Y0036482D01*
X0308292Y0036568D01*
X0308162Y0036658D01*
X0308034Y0036751D01*
X0307908Y0036847D01*
X0307785Y0036947D01*
X0307664Y0037049D01*
X0307546Y0037154D01*
X0307431Y0037263D01*
X0307318Y0037374D01*
X0307208Y0037488D01*
X0307101Y0037605D01*
X0306997Y0037724D01*
X0306896Y0037846D01*
X0306799Y0037971D01*
X0306704Y0038098D01*
X0306613Y0038227D01*
X0306524Y0038358D01*
X0306440Y0038492D01*
X0306358Y0038628D01*
X0306280Y0038765D01*
X0306206Y0038905D01*
X0306135Y0039047D01*
X0306067Y0039190D01*
X0306003Y0039335D01*
X0305943Y0039481D01*
X0305887Y0039629D01*
X0305834Y0039778D01*
X0305785Y0039929D01*
X0305740Y0040081D01*
X0305699Y0040234D01*
X0305661Y0040387D01*
X0305628Y0040542D01*
X0305598Y0040698D01*
X0305572Y0040854D01*
X0305551Y0041011D01*
X0305533Y0041168D01*
X0305519Y0041326D01*
X0305509Y0041484D01*
X0305503Y0041642D01*
X0305501Y0041800D01*
D11*
X0241300Y0073800D02*
X0241300Y0089800D01*
X0241298Y0089860D01*
X0241293Y0089921D01*
X0241284Y0089980D01*
X0241271Y0090039D01*
X0241255Y0090098D01*
X0241235Y0090155D01*
X0241212Y0090210D01*
X0241185Y0090265D01*
X0241156Y0090317D01*
X0241123Y0090368D01*
X0241087Y0090417D01*
X0241049Y0090463D01*
X0241007Y0090507D01*
X0240963Y0090549D01*
X0240917Y0090587D01*
X0240868Y0090623D01*
X0240817Y0090656D01*
X0240765Y0090685D01*
X0240710Y0090712D01*
X0240655Y0090735D01*
X0240598Y0090755D01*
X0240539Y0090771D01*
X0240480Y0090784D01*
X0240421Y0090793D01*
X0240360Y0090798D01*
X0240300Y0090800D01*
X0213300Y0090800D01*
X0213240Y0090798D01*
X0213179Y0090793D01*
X0213120Y0090784D01*
X0213061Y0090771D01*
X0213002Y0090755D01*
X0212945Y0090735D01*
X0212890Y0090712D01*
X0212835Y0090685D01*
X0212783Y0090656D01*
X0212732Y0090623D01*
X0212683Y0090587D01*
X0212637Y0090549D01*
X0212593Y0090507D01*
X0212551Y0090463D01*
X0212513Y0090417D01*
X0212477Y0090368D01*
X0212444Y0090317D01*
X0212415Y0090265D01*
X0212388Y0090210D01*
X0212365Y0090155D01*
X0212345Y0090098D01*
X0212329Y0090039D01*
X0212316Y0089980D01*
X0212307Y0089921D01*
X0212302Y0089860D01*
X0212300Y0089800D01*
X0212300Y0073800D01*
X0212302Y0073740D01*
X0212307Y0073679D01*
X0212316Y0073620D01*
X0212329Y0073561D01*
X0212345Y0073502D01*
X0212365Y0073445D01*
X0212388Y0073390D01*
X0212415Y0073335D01*
X0212444Y0073283D01*
X0212477Y0073232D01*
X0212513Y0073183D01*
X0212551Y0073137D01*
X0212593Y0073093D01*
X0212637Y0073051D01*
X0212683Y0073013D01*
X0212732Y0072977D01*
X0212783Y0072944D01*
X0212835Y0072915D01*
X0212890Y0072888D01*
X0212945Y0072865D01*
X0213002Y0072845D01*
X0213061Y0072829D01*
X0213120Y0072816D01*
X0213179Y0072807D01*
X0213240Y0072802D01*
X0213300Y0072800D01*
X0240300Y0072800D01*
X0240360Y0072802D01*
X0240421Y0072807D01*
X0240480Y0072816D01*
X0240539Y0072829D01*
X0240598Y0072845D01*
X0240655Y0072865D01*
X0240710Y0072888D01*
X0240765Y0072915D01*
X0240817Y0072944D01*
X0240868Y0072977D01*
X0240917Y0073013D01*
X0240963Y0073051D01*
X0241007Y0073093D01*
X0241049Y0073137D01*
X0241087Y0073183D01*
X0241123Y0073232D01*
X0241156Y0073283D01*
X0241185Y0073335D01*
X0241212Y0073390D01*
X0241235Y0073445D01*
X0241255Y0073502D01*
X0241271Y0073561D01*
X0241284Y0073620D01*
X0241293Y0073679D01*
X0241298Y0073740D01*
X0241300Y0073800D01*
X0232800Y0081800D02*
X0228000Y0081800D01*
X0225500Y0081800D02*
X0220800Y0081800D01*
X0201800Y0100300D02*
X0201800Y0123300D01*
X0241800Y0123300D01*
X0241800Y0115800D01*
X0241674Y0115798D01*
X0241549Y0115792D01*
X0241424Y0115782D01*
X0241299Y0115768D01*
X0241174Y0115751D01*
X0241050Y0115729D01*
X0240927Y0115704D01*
X0240805Y0115674D01*
X0240684Y0115641D01*
X0240564Y0115604D01*
X0240445Y0115564D01*
X0240328Y0115519D01*
X0240211Y0115471D01*
X0240097Y0115419D01*
X0239984Y0115364D01*
X0239873Y0115305D01*
X0239764Y0115243D01*
X0239657Y0115177D01*
X0239552Y0115108D01*
X0239449Y0115036D01*
X0239348Y0114961D01*
X0239250Y0114882D01*
X0239155Y0114800D01*
X0239062Y0114716D01*
X0238972Y0114628D01*
X0238884Y0114538D01*
X0238800Y0114445D01*
X0238718Y0114350D01*
X0238639Y0114252D01*
X0238564Y0114151D01*
X0238492Y0114048D01*
X0238423Y0113943D01*
X0238357Y0113836D01*
X0238295Y0113727D01*
X0238236Y0113616D01*
X0238181Y0113503D01*
X0238129Y0113389D01*
X0238081Y0113272D01*
X0238036Y0113155D01*
X0237996Y0113036D01*
X0237959Y0112916D01*
X0237926Y0112795D01*
X0237896Y0112673D01*
X0237871Y0112550D01*
X0237849Y0112426D01*
X0237832Y0112301D01*
X0237818Y0112176D01*
X0237808Y0112051D01*
X0237802Y0111926D01*
X0237800Y0111800D01*
X0237802Y0111674D01*
X0237808Y0111549D01*
X0237818Y0111424D01*
X0237832Y0111299D01*
X0237849Y0111174D01*
X0237871Y0111050D01*
X0237896Y0110927D01*
X0237926Y0110805D01*
X0237959Y0110684D01*
X0237996Y0110564D01*
X0238036Y0110445D01*
X0238081Y0110328D01*
X0238129Y0110211D01*
X0238181Y0110097D01*
X0238236Y0109984D01*
X0238295Y0109873D01*
X0238357Y0109764D01*
X0238423Y0109657D01*
X0238492Y0109552D01*
X0238564Y0109449D01*
X0238639Y0109348D01*
X0238718Y0109250D01*
X0238800Y0109155D01*
X0238884Y0109062D01*
X0238972Y0108972D01*
X0239062Y0108884D01*
X0239155Y0108800D01*
X0239250Y0108718D01*
X0239348Y0108639D01*
X0239449Y0108564D01*
X0239552Y0108492D01*
X0239657Y0108423D01*
X0239764Y0108357D01*
X0239873Y0108295D01*
X0239984Y0108236D01*
X0240097Y0108181D01*
X0240211Y0108129D01*
X0240328Y0108081D01*
X0240445Y0108036D01*
X0240564Y0107996D01*
X0240684Y0107959D01*
X0240805Y0107926D01*
X0240927Y0107896D01*
X0241050Y0107871D01*
X0241174Y0107849D01*
X0241299Y0107832D01*
X0241424Y0107818D01*
X0241549Y0107808D01*
X0241674Y0107802D01*
X0241800Y0107800D01*
X0241800Y0100300D01*
X0201800Y0100300D01*
X0178300Y0086800D02*
X0175300Y0086800D01*
X0176800Y0085300D02*
X0176800Y0088300D01*
X0166300Y0093800D02*
X0166300Y0109800D01*
X0166298Y0109860D01*
X0166293Y0109921D01*
X0166284Y0109980D01*
X0166271Y0110039D01*
X0166255Y0110098D01*
X0166235Y0110155D01*
X0166212Y0110210D01*
X0166185Y0110265D01*
X0166156Y0110317D01*
X0166123Y0110368D01*
X0166087Y0110417D01*
X0166049Y0110463D01*
X0166007Y0110507D01*
X0165963Y0110549D01*
X0165917Y0110587D01*
X0165868Y0110623D01*
X0165817Y0110656D01*
X0165765Y0110685D01*
X0165710Y0110712D01*
X0165655Y0110735D01*
X0165598Y0110755D01*
X0165539Y0110771D01*
X0165480Y0110784D01*
X0165421Y0110793D01*
X0165360Y0110798D01*
X0165300Y0110800D01*
X0138300Y0110800D01*
X0138240Y0110798D01*
X0138179Y0110793D01*
X0138120Y0110784D01*
X0138061Y0110771D01*
X0138002Y0110755D01*
X0137945Y0110735D01*
X0137890Y0110712D01*
X0137835Y0110685D01*
X0137783Y0110656D01*
X0137732Y0110623D01*
X0137683Y0110587D01*
X0137637Y0110549D01*
X0137593Y0110507D01*
X0137551Y0110463D01*
X0137513Y0110417D01*
X0137477Y0110368D01*
X0137444Y0110317D01*
X0137415Y0110265D01*
X0137388Y0110210D01*
X0137365Y0110155D01*
X0137345Y0110098D01*
X0137329Y0110039D01*
X0137316Y0109980D01*
X0137307Y0109921D01*
X0137302Y0109860D01*
X0137300Y0109800D01*
X0137300Y0093800D01*
X0137302Y0093740D01*
X0137307Y0093679D01*
X0137316Y0093620D01*
X0137329Y0093561D01*
X0137345Y0093502D01*
X0137365Y0093445D01*
X0137388Y0093390D01*
X0137415Y0093335D01*
X0137444Y0093283D01*
X0137477Y0093232D01*
X0137513Y0093183D01*
X0137551Y0093137D01*
X0137593Y0093093D01*
X0137637Y0093051D01*
X0137683Y0093013D01*
X0137732Y0092977D01*
X0137783Y0092944D01*
X0137835Y0092915D01*
X0137890Y0092888D01*
X0137945Y0092865D01*
X0138002Y0092845D01*
X0138061Y0092829D01*
X0138120Y0092816D01*
X0138179Y0092807D01*
X0138240Y0092802D01*
X0138300Y0092800D01*
X0165300Y0092800D01*
X0165360Y0092802D01*
X0165421Y0092807D01*
X0165480Y0092816D01*
X0165539Y0092829D01*
X0165598Y0092845D01*
X0165655Y0092865D01*
X0165710Y0092888D01*
X0165765Y0092915D01*
X0165817Y0092944D01*
X0165868Y0092977D01*
X0165917Y0093013D01*
X0165963Y0093051D01*
X0166007Y0093093D01*
X0166049Y0093137D01*
X0166087Y0093183D01*
X0166123Y0093232D01*
X0166156Y0093283D01*
X0166185Y0093335D01*
X0166212Y0093390D01*
X0166235Y0093445D01*
X0166255Y0093502D01*
X0166271Y0093561D01*
X0166284Y0093620D01*
X0166293Y0093679D01*
X0166298Y0093740D01*
X0166300Y0093800D01*
X0157800Y0101800D02*
X0153000Y0101800D01*
X0150500Y0101800D02*
X0145800Y0101800D01*
X0138300Y0112800D02*
X0165300Y0112800D01*
X0165360Y0112802D01*
X0165421Y0112807D01*
X0165480Y0112816D01*
X0165539Y0112829D01*
X0165598Y0112845D01*
X0165655Y0112865D01*
X0165710Y0112888D01*
X0165765Y0112915D01*
X0165817Y0112944D01*
X0165868Y0112977D01*
X0165917Y0113013D01*
X0165963Y0113051D01*
X0166007Y0113093D01*
X0166049Y0113137D01*
X0166087Y0113183D01*
X0166123Y0113232D01*
X0166156Y0113283D01*
X0166185Y0113335D01*
X0166212Y0113390D01*
X0166235Y0113445D01*
X0166255Y0113502D01*
X0166271Y0113561D01*
X0166284Y0113620D01*
X0166293Y0113679D01*
X0166298Y0113740D01*
X0166300Y0113800D01*
X0166300Y0129800D01*
X0166298Y0129860D01*
X0166293Y0129921D01*
X0166284Y0129980D01*
X0166271Y0130039D01*
X0166255Y0130098D01*
X0166235Y0130155D01*
X0166212Y0130210D01*
X0166185Y0130265D01*
X0166156Y0130317D01*
X0166123Y0130368D01*
X0166087Y0130417D01*
X0166049Y0130463D01*
X0166007Y0130507D01*
X0165963Y0130549D01*
X0165917Y0130587D01*
X0165868Y0130623D01*
X0165817Y0130656D01*
X0165765Y0130685D01*
X0165710Y0130712D01*
X0165655Y0130735D01*
X0165598Y0130755D01*
X0165539Y0130771D01*
X0165480Y0130784D01*
X0165421Y0130793D01*
X0165360Y0130798D01*
X0165300Y0130800D01*
X0138300Y0130800D01*
X0138240Y0130798D01*
X0138179Y0130793D01*
X0138120Y0130784D01*
X0138061Y0130771D01*
X0138002Y0130755D01*
X0137945Y0130735D01*
X0137890Y0130712D01*
X0137835Y0130685D01*
X0137783Y0130656D01*
X0137732Y0130623D01*
X0137683Y0130587D01*
X0137637Y0130549D01*
X0137593Y0130507D01*
X0137551Y0130463D01*
X0137513Y0130417D01*
X0137477Y0130368D01*
X0137444Y0130317D01*
X0137415Y0130265D01*
X0137388Y0130210D01*
X0137365Y0130155D01*
X0137345Y0130098D01*
X0137329Y0130039D01*
X0137316Y0129980D01*
X0137307Y0129921D01*
X0137302Y0129860D01*
X0137300Y0129800D01*
X0137300Y0113800D01*
X0137302Y0113740D01*
X0137307Y0113679D01*
X0137316Y0113620D01*
X0137329Y0113561D01*
X0137345Y0113502D01*
X0137365Y0113445D01*
X0137388Y0113390D01*
X0137415Y0113335D01*
X0137444Y0113283D01*
X0137477Y0113232D01*
X0137513Y0113183D01*
X0137551Y0113137D01*
X0137593Y0113093D01*
X0137637Y0113051D01*
X0137683Y0113013D01*
X0137732Y0112977D01*
X0137783Y0112944D01*
X0137835Y0112915D01*
X0137890Y0112888D01*
X0137945Y0112865D01*
X0138002Y0112845D01*
X0138061Y0112829D01*
X0138120Y0112816D01*
X0138179Y0112807D01*
X0138240Y0112802D01*
X0138300Y0112800D01*
X0145800Y0121800D02*
X0150600Y0121800D01*
X0153100Y0121800D02*
X0157800Y0121800D01*
X0171800Y0147300D02*
X0171800Y0149300D01*
X0151800Y0151800D02*
X0151806Y0152291D01*
X0151824Y0152781D01*
X0151854Y0153271D01*
X0151896Y0153760D01*
X0151950Y0154248D01*
X0152016Y0154735D01*
X0152094Y0155219D01*
X0152184Y0155702D01*
X0152286Y0156182D01*
X0152399Y0156660D01*
X0152524Y0157134D01*
X0152661Y0157606D01*
X0152809Y0158074D01*
X0152969Y0158538D01*
X0153140Y0158998D01*
X0153322Y0159454D01*
X0153516Y0159905D01*
X0153720Y0160351D01*
X0153936Y0160792D01*
X0154162Y0161228D01*
X0154398Y0161658D01*
X0154645Y0162082D01*
X0154903Y0162500D01*
X0155171Y0162911D01*
X0155448Y0163316D01*
X0155736Y0163714D01*
X0156033Y0164105D01*
X0156340Y0164488D01*
X0156656Y0164863D01*
X0156981Y0165231D01*
X0157315Y0165591D01*
X0157658Y0165942D01*
X0158009Y0166285D01*
X0158369Y0166619D01*
X0158737Y0166944D01*
X0159112Y0167260D01*
X0159495Y0167567D01*
X0159886Y0167864D01*
X0160284Y0168152D01*
X0160689Y0168429D01*
X0161100Y0168697D01*
X0161518Y0168955D01*
X0161942Y0169202D01*
X0162372Y0169438D01*
X0162808Y0169664D01*
X0163249Y0169880D01*
X0163695Y0170084D01*
X0164146Y0170278D01*
X0164602Y0170460D01*
X0165062Y0170631D01*
X0165526Y0170791D01*
X0165994Y0170939D01*
X0166466Y0171076D01*
X0166940Y0171201D01*
X0167418Y0171314D01*
X0167898Y0171416D01*
X0168381Y0171506D01*
X0168865Y0171584D01*
X0169352Y0171650D01*
X0169840Y0171704D01*
X0170329Y0171746D01*
X0170819Y0171776D01*
X0171309Y0171794D01*
X0171800Y0171800D01*
X0172291Y0171794D01*
X0172781Y0171776D01*
X0173271Y0171746D01*
X0173760Y0171704D01*
X0174248Y0171650D01*
X0174735Y0171584D01*
X0175219Y0171506D01*
X0175702Y0171416D01*
X0176182Y0171314D01*
X0176660Y0171201D01*
X0177134Y0171076D01*
X0177606Y0170939D01*
X0178074Y0170791D01*
X0178538Y0170631D01*
X0178998Y0170460D01*
X0179454Y0170278D01*
X0179905Y0170084D01*
X0180351Y0169880D01*
X0180792Y0169664D01*
X0181228Y0169438D01*
X0181658Y0169202D01*
X0182082Y0168955D01*
X0182500Y0168697D01*
X0182911Y0168429D01*
X0183316Y0168152D01*
X0183714Y0167864D01*
X0184105Y0167567D01*
X0184488Y0167260D01*
X0184863Y0166944D01*
X0185231Y0166619D01*
X0185591Y0166285D01*
X0185942Y0165942D01*
X0186285Y0165591D01*
X0186619Y0165231D01*
X0186944Y0164863D01*
X0187260Y0164488D01*
X0187567Y0164105D01*
X0187864Y0163714D01*
X0188152Y0163316D01*
X0188429Y0162911D01*
X0188697Y0162500D01*
X0188955Y0162082D01*
X0189202Y0161658D01*
X0189438Y0161228D01*
X0189664Y0160792D01*
X0189880Y0160351D01*
X0190084Y0159905D01*
X0190278Y0159454D01*
X0190460Y0158998D01*
X0190631Y0158538D01*
X0190791Y0158074D01*
X0190939Y0157606D01*
X0191076Y0157134D01*
X0191201Y0156660D01*
X0191314Y0156182D01*
X0191416Y0155702D01*
X0191506Y0155219D01*
X0191584Y0154735D01*
X0191650Y0154248D01*
X0191704Y0153760D01*
X0191746Y0153271D01*
X0191776Y0152781D01*
X0191794Y0152291D01*
X0191800Y0151800D01*
X0191794Y0151309D01*
X0191776Y0150819D01*
X0191746Y0150329D01*
X0191704Y0149840D01*
X0191650Y0149352D01*
X0191584Y0148865D01*
X0191506Y0148381D01*
X0191416Y0147898D01*
X0191314Y0147418D01*
X0191201Y0146940D01*
X0191076Y0146466D01*
X0190939Y0145994D01*
X0190791Y0145526D01*
X0190631Y0145062D01*
X0190460Y0144602D01*
X0190278Y0144146D01*
X0190084Y0143695D01*
X0189880Y0143249D01*
X0189664Y0142808D01*
X0189438Y0142372D01*
X0189202Y0141942D01*
X0188955Y0141518D01*
X0188697Y0141100D01*
X0188429Y0140689D01*
X0188152Y0140284D01*
X0187864Y0139886D01*
X0187567Y0139495D01*
X0187260Y0139112D01*
X0186944Y0138737D01*
X0186619Y0138369D01*
X0186285Y0138009D01*
X0185942Y0137658D01*
X0185591Y0137315D01*
X0185231Y0136981D01*
X0184863Y0136656D01*
X0184488Y0136340D01*
X0184105Y0136033D01*
X0183714Y0135736D01*
X0183316Y0135448D01*
X0182911Y0135171D01*
X0182500Y0134903D01*
X0182082Y0134645D01*
X0181658Y0134398D01*
X0181228Y0134162D01*
X0180792Y0133936D01*
X0180351Y0133720D01*
X0179905Y0133516D01*
X0179454Y0133322D01*
X0178998Y0133140D01*
X0178538Y0132969D01*
X0178074Y0132809D01*
X0177606Y0132661D01*
X0177134Y0132524D01*
X0176660Y0132399D01*
X0176182Y0132286D01*
X0175702Y0132184D01*
X0175219Y0132094D01*
X0174735Y0132016D01*
X0174248Y0131950D01*
X0173760Y0131896D01*
X0173271Y0131854D01*
X0172781Y0131824D01*
X0172291Y0131806D01*
X0171800Y0131800D01*
X0171309Y0131806D01*
X0170819Y0131824D01*
X0170329Y0131854D01*
X0169840Y0131896D01*
X0169352Y0131950D01*
X0168865Y0132016D01*
X0168381Y0132094D01*
X0167898Y0132184D01*
X0167418Y0132286D01*
X0166940Y0132399D01*
X0166466Y0132524D01*
X0165994Y0132661D01*
X0165526Y0132809D01*
X0165062Y0132969D01*
X0164602Y0133140D01*
X0164146Y0133322D01*
X0163695Y0133516D01*
X0163249Y0133720D01*
X0162808Y0133936D01*
X0162372Y0134162D01*
X0161942Y0134398D01*
X0161518Y0134645D01*
X0161100Y0134903D01*
X0160689Y0135171D01*
X0160284Y0135448D01*
X0159886Y0135736D01*
X0159495Y0136033D01*
X0159112Y0136340D01*
X0158737Y0136656D01*
X0158369Y0136981D01*
X0158009Y0137315D01*
X0157658Y0137658D01*
X0157315Y0138009D01*
X0156981Y0138369D01*
X0156656Y0138737D01*
X0156340Y0139112D01*
X0156033Y0139495D01*
X0155736Y0139886D01*
X0155448Y0140284D01*
X0155171Y0140689D01*
X0154903Y0141100D01*
X0154645Y0141518D01*
X0154398Y0141942D01*
X0154162Y0142372D01*
X0153936Y0142808D01*
X0153720Y0143249D01*
X0153516Y0143695D01*
X0153322Y0144146D01*
X0153140Y0144602D01*
X0152969Y0145062D01*
X0152809Y0145526D01*
X0152661Y0145994D01*
X0152524Y0146466D01*
X0152399Y0146940D01*
X0152286Y0147418D01*
X0152184Y0147898D01*
X0152094Y0148381D01*
X0152016Y0148865D01*
X0151950Y0149352D01*
X0151896Y0149840D01*
X0151854Y0150329D01*
X0151824Y0150819D01*
X0151806Y0151309D01*
X0151800Y0151800D01*
X0167300Y0152800D02*
X0176300Y0152800D01*
X0176300Y0155300D01*
X0171800Y0155300D01*
X0167300Y0155300D01*
X0167300Y0152800D01*
X0171800Y0155300D02*
X0171800Y0156300D01*
X0176800Y0165300D02*
X0176800Y0168300D01*
X0178300Y0166800D02*
X0175300Y0166800D01*
X0202300Y0149800D02*
X0202300Y0133800D01*
X0202302Y0133740D01*
X0202307Y0133679D01*
X0202316Y0133620D01*
X0202329Y0133561D01*
X0202345Y0133502D01*
X0202365Y0133445D01*
X0202388Y0133390D01*
X0202415Y0133335D01*
X0202444Y0133283D01*
X0202477Y0133232D01*
X0202513Y0133183D01*
X0202551Y0133137D01*
X0202593Y0133093D01*
X0202637Y0133051D01*
X0202683Y0133013D01*
X0202732Y0132977D01*
X0202783Y0132944D01*
X0202835Y0132915D01*
X0202890Y0132888D01*
X0202945Y0132865D01*
X0203002Y0132845D01*
X0203061Y0132829D01*
X0203120Y0132816D01*
X0203179Y0132807D01*
X0203240Y0132802D01*
X0203300Y0132800D01*
X0230300Y0132800D01*
X0230360Y0132802D01*
X0230421Y0132807D01*
X0230480Y0132816D01*
X0230539Y0132829D01*
X0230598Y0132845D01*
X0230655Y0132865D01*
X0230710Y0132888D01*
X0230765Y0132915D01*
X0230817Y0132944D01*
X0230868Y0132977D01*
X0230917Y0133013D01*
X0230963Y0133051D01*
X0231007Y0133093D01*
X0231049Y0133137D01*
X0231087Y0133183D01*
X0231123Y0133232D01*
X0231156Y0133283D01*
X0231185Y0133335D01*
X0231212Y0133390D01*
X0231235Y0133445D01*
X0231255Y0133502D01*
X0231271Y0133561D01*
X0231284Y0133620D01*
X0231293Y0133679D01*
X0231298Y0133740D01*
X0231300Y0133800D01*
X0231300Y0149800D01*
X0231298Y0149860D01*
X0231293Y0149921D01*
X0231284Y0149980D01*
X0231271Y0150039D01*
X0231255Y0150098D01*
X0231235Y0150155D01*
X0231212Y0150210D01*
X0231185Y0150265D01*
X0231156Y0150317D01*
X0231123Y0150368D01*
X0231087Y0150417D01*
X0231049Y0150463D01*
X0231007Y0150507D01*
X0230963Y0150549D01*
X0230917Y0150587D01*
X0230868Y0150623D01*
X0230817Y0150656D01*
X0230765Y0150685D01*
X0230710Y0150712D01*
X0230655Y0150735D01*
X0230598Y0150755D01*
X0230539Y0150771D01*
X0230480Y0150784D01*
X0230421Y0150793D01*
X0230360Y0150798D01*
X0230300Y0150800D01*
X0203300Y0150800D01*
X0203240Y0150798D01*
X0203179Y0150793D01*
X0203120Y0150784D01*
X0203061Y0150771D01*
X0203002Y0150755D01*
X0202945Y0150735D01*
X0202890Y0150712D01*
X0202835Y0150685D01*
X0202783Y0150656D01*
X0202732Y0150623D01*
X0202683Y0150587D01*
X0202637Y0150549D01*
X0202593Y0150507D01*
X0202551Y0150463D01*
X0202513Y0150417D01*
X0202477Y0150368D01*
X0202444Y0150317D01*
X0202415Y0150265D01*
X0202388Y0150210D01*
X0202365Y0150155D01*
X0202345Y0150098D01*
X0202329Y0150039D01*
X0202316Y0149980D01*
X0202307Y0149921D01*
X0202302Y0149860D01*
X0202300Y0149800D01*
X0210800Y0141800D02*
X0215500Y0141800D01*
X0218000Y0141800D02*
X0222800Y0141800D01*
X0211800Y0167300D02*
X0211800Y0169300D01*
X0191800Y0171800D02*
X0191806Y0172291D01*
X0191824Y0172781D01*
X0191854Y0173271D01*
X0191896Y0173760D01*
X0191950Y0174248D01*
X0192016Y0174735D01*
X0192094Y0175219D01*
X0192184Y0175702D01*
X0192286Y0176182D01*
X0192399Y0176660D01*
X0192524Y0177134D01*
X0192661Y0177606D01*
X0192809Y0178074D01*
X0192969Y0178538D01*
X0193140Y0178998D01*
X0193322Y0179454D01*
X0193516Y0179905D01*
X0193720Y0180351D01*
X0193936Y0180792D01*
X0194162Y0181228D01*
X0194398Y0181658D01*
X0194645Y0182082D01*
X0194903Y0182500D01*
X0195171Y0182911D01*
X0195448Y0183316D01*
X0195736Y0183714D01*
X0196033Y0184105D01*
X0196340Y0184488D01*
X0196656Y0184863D01*
X0196981Y0185231D01*
X0197315Y0185591D01*
X0197658Y0185942D01*
X0198009Y0186285D01*
X0198369Y0186619D01*
X0198737Y0186944D01*
X0199112Y0187260D01*
X0199495Y0187567D01*
X0199886Y0187864D01*
X0200284Y0188152D01*
X0200689Y0188429D01*
X0201100Y0188697D01*
X0201518Y0188955D01*
X0201942Y0189202D01*
X0202372Y0189438D01*
X0202808Y0189664D01*
X0203249Y0189880D01*
X0203695Y0190084D01*
X0204146Y0190278D01*
X0204602Y0190460D01*
X0205062Y0190631D01*
X0205526Y0190791D01*
X0205994Y0190939D01*
X0206466Y0191076D01*
X0206940Y0191201D01*
X0207418Y0191314D01*
X0207898Y0191416D01*
X0208381Y0191506D01*
X0208865Y0191584D01*
X0209352Y0191650D01*
X0209840Y0191704D01*
X0210329Y0191746D01*
X0210819Y0191776D01*
X0211309Y0191794D01*
X0211800Y0191800D01*
X0212291Y0191794D01*
X0212781Y0191776D01*
X0213271Y0191746D01*
X0213760Y0191704D01*
X0214248Y0191650D01*
X0214735Y0191584D01*
X0215219Y0191506D01*
X0215702Y0191416D01*
X0216182Y0191314D01*
X0216660Y0191201D01*
X0217134Y0191076D01*
X0217606Y0190939D01*
X0218074Y0190791D01*
X0218538Y0190631D01*
X0218998Y0190460D01*
X0219454Y0190278D01*
X0219905Y0190084D01*
X0220351Y0189880D01*
X0220792Y0189664D01*
X0221228Y0189438D01*
X0221658Y0189202D01*
X0222082Y0188955D01*
X0222500Y0188697D01*
X0222911Y0188429D01*
X0223316Y0188152D01*
X0223714Y0187864D01*
X0224105Y0187567D01*
X0224488Y0187260D01*
X0224863Y0186944D01*
X0225231Y0186619D01*
X0225591Y0186285D01*
X0225942Y0185942D01*
X0226285Y0185591D01*
X0226619Y0185231D01*
X0226944Y0184863D01*
X0227260Y0184488D01*
X0227567Y0184105D01*
X0227864Y0183714D01*
X0228152Y0183316D01*
X0228429Y0182911D01*
X0228697Y0182500D01*
X0228955Y0182082D01*
X0229202Y0181658D01*
X0229438Y0181228D01*
X0229664Y0180792D01*
X0229880Y0180351D01*
X0230084Y0179905D01*
X0230278Y0179454D01*
X0230460Y0178998D01*
X0230631Y0178538D01*
X0230791Y0178074D01*
X0230939Y0177606D01*
X0231076Y0177134D01*
X0231201Y0176660D01*
X0231314Y0176182D01*
X0231416Y0175702D01*
X0231506Y0175219D01*
X0231584Y0174735D01*
X0231650Y0174248D01*
X0231704Y0173760D01*
X0231746Y0173271D01*
X0231776Y0172781D01*
X0231794Y0172291D01*
X0231800Y0171800D01*
X0231794Y0171309D01*
X0231776Y0170819D01*
X0231746Y0170329D01*
X0231704Y0169840D01*
X0231650Y0169352D01*
X0231584Y0168865D01*
X0231506Y0168381D01*
X0231416Y0167898D01*
X0231314Y0167418D01*
X0231201Y0166940D01*
X0231076Y0166466D01*
X0230939Y0165994D01*
X0230791Y0165526D01*
X0230631Y0165062D01*
X0230460Y0164602D01*
X0230278Y0164146D01*
X0230084Y0163695D01*
X0229880Y0163249D01*
X0229664Y0162808D01*
X0229438Y0162372D01*
X0229202Y0161942D01*
X0228955Y0161518D01*
X0228697Y0161100D01*
X0228429Y0160689D01*
X0228152Y0160284D01*
X0227864Y0159886D01*
X0227567Y0159495D01*
X0227260Y0159112D01*
X0226944Y0158737D01*
X0226619Y0158369D01*
X0226285Y0158009D01*
X0225942Y0157658D01*
X0225591Y0157315D01*
X0225231Y0156981D01*
X0224863Y0156656D01*
X0224488Y0156340D01*
X0224105Y0156033D01*
X0223714Y0155736D01*
X0223316Y0155448D01*
X0222911Y0155171D01*
X0222500Y0154903D01*
X0222082Y0154645D01*
X0221658Y0154398D01*
X0221228Y0154162D01*
X0220792Y0153936D01*
X0220351Y0153720D01*
X0219905Y0153516D01*
X0219454Y0153322D01*
X0218998Y0153140D01*
X0218538Y0152969D01*
X0218074Y0152809D01*
X0217606Y0152661D01*
X0217134Y0152524D01*
X0216660Y0152399D01*
X0216182Y0152286D01*
X0215702Y0152184D01*
X0215219Y0152094D01*
X0214735Y0152016D01*
X0214248Y0151950D01*
X0213760Y0151896D01*
X0213271Y0151854D01*
X0212781Y0151824D01*
X0212291Y0151806D01*
X0211800Y0151800D01*
X0211309Y0151806D01*
X0210819Y0151824D01*
X0210329Y0151854D01*
X0209840Y0151896D01*
X0209352Y0151950D01*
X0208865Y0152016D01*
X0208381Y0152094D01*
X0207898Y0152184D01*
X0207418Y0152286D01*
X0206940Y0152399D01*
X0206466Y0152524D01*
X0205994Y0152661D01*
X0205526Y0152809D01*
X0205062Y0152969D01*
X0204602Y0153140D01*
X0204146Y0153322D01*
X0203695Y0153516D01*
X0203249Y0153720D01*
X0202808Y0153936D01*
X0202372Y0154162D01*
X0201942Y0154398D01*
X0201518Y0154645D01*
X0201100Y0154903D01*
X0200689Y0155171D01*
X0200284Y0155448D01*
X0199886Y0155736D01*
X0199495Y0156033D01*
X0199112Y0156340D01*
X0198737Y0156656D01*
X0198369Y0156981D01*
X0198009Y0157315D01*
X0197658Y0157658D01*
X0197315Y0158009D01*
X0196981Y0158369D01*
X0196656Y0158737D01*
X0196340Y0159112D01*
X0196033Y0159495D01*
X0195736Y0159886D01*
X0195448Y0160284D01*
X0195171Y0160689D01*
X0194903Y0161100D01*
X0194645Y0161518D01*
X0194398Y0161942D01*
X0194162Y0162372D01*
X0193936Y0162808D01*
X0193720Y0163249D01*
X0193516Y0163695D01*
X0193322Y0164146D01*
X0193140Y0164602D01*
X0192969Y0165062D01*
X0192809Y0165526D01*
X0192661Y0165994D01*
X0192524Y0166466D01*
X0192399Y0166940D01*
X0192286Y0167418D01*
X0192184Y0167898D01*
X0192094Y0168381D01*
X0192016Y0168865D01*
X0191950Y0169352D01*
X0191896Y0169840D01*
X0191854Y0170329D01*
X0191824Y0170819D01*
X0191806Y0171309D01*
X0191800Y0171800D01*
X0207300Y0172800D02*
X0216300Y0172800D01*
X0216300Y0175300D01*
X0211800Y0175300D01*
X0207300Y0175300D01*
X0207300Y0172800D01*
X0211800Y0175300D02*
X0211800Y0176300D01*
X0216800Y0185300D02*
X0216800Y0188300D01*
X0218300Y0186800D02*
X0215300Y0186800D01*
X0123300Y0151800D02*
X0115800Y0151800D01*
X0115798Y0151674D01*
X0115792Y0151549D01*
X0115782Y0151424D01*
X0115768Y0151299D01*
X0115751Y0151174D01*
X0115729Y0151050D01*
X0115704Y0150927D01*
X0115674Y0150805D01*
X0115641Y0150684D01*
X0115604Y0150564D01*
X0115564Y0150445D01*
X0115519Y0150328D01*
X0115471Y0150211D01*
X0115419Y0150097D01*
X0115364Y0149984D01*
X0115305Y0149873D01*
X0115243Y0149764D01*
X0115177Y0149657D01*
X0115108Y0149552D01*
X0115036Y0149449D01*
X0114961Y0149348D01*
X0114882Y0149250D01*
X0114800Y0149155D01*
X0114716Y0149062D01*
X0114628Y0148972D01*
X0114538Y0148884D01*
X0114445Y0148800D01*
X0114350Y0148718D01*
X0114252Y0148639D01*
X0114151Y0148564D01*
X0114048Y0148492D01*
X0113943Y0148423D01*
X0113836Y0148357D01*
X0113727Y0148295D01*
X0113616Y0148236D01*
X0113503Y0148181D01*
X0113389Y0148129D01*
X0113272Y0148081D01*
X0113155Y0148036D01*
X0113036Y0147996D01*
X0112916Y0147959D01*
X0112795Y0147926D01*
X0112673Y0147896D01*
X0112550Y0147871D01*
X0112426Y0147849D01*
X0112301Y0147832D01*
X0112176Y0147818D01*
X0112051Y0147808D01*
X0111926Y0147802D01*
X0111800Y0147800D01*
X0111674Y0147802D01*
X0111549Y0147808D01*
X0111424Y0147818D01*
X0111299Y0147832D01*
X0111174Y0147849D01*
X0111050Y0147871D01*
X0110927Y0147896D01*
X0110805Y0147926D01*
X0110684Y0147959D01*
X0110564Y0147996D01*
X0110445Y0148036D01*
X0110328Y0148081D01*
X0110211Y0148129D01*
X0110097Y0148181D01*
X0109984Y0148236D01*
X0109873Y0148295D01*
X0109764Y0148357D01*
X0109657Y0148423D01*
X0109552Y0148492D01*
X0109449Y0148564D01*
X0109348Y0148639D01*
X0109250Y0148718D01*
X0109155Y0148800D01*
X0109062Y0148884D01*
X0108972Y0148972D01*
X0108884Y0149062D01*
X0108800Y0149155D01*
X0108718Y0149250D01*
X0108639Y0149348D01*
X0108564Y0149449D01*
X0108492Y0149552D01*
X0108423Y0149657D01*
X0108357Y0149764D01*
X0108295Y0149873D01*
X0108236Y0149984D01*
X0108181Y0150097D01*
X0108129Y0150211D01*
X0108081Y0150328D01*
X0108036Y0150445D01*
X0107996Y0150564D01*
X0107959Y0150684D01*
X0107926Y0150805D01*
X0107896Y0150927D01*
X0107871Y0151050D01*
X0107849Y0151174D01*
X0107832Y0151299D01*
X0107818Y0151424D01*
X0107808Y0151549D01*
X0107802Y0151674D01*
X0107800Y0151800D01*
X0100300Y0151800D01*
X0100300Y0071800D01*
X0123300Y0071800D01*
X0123300Y0151800D01*
X0167300Y0075300D02*
X0167300Y0072800D01*
X0176300Y0072800D01*
X0176300Y0075300D01*
X0171800Y0075300D01*
X0167300Y0075300D01*
X0171800Y0075300D02*
X0171800Y0076300D01*
X0151800Y0071800D02*
X0151806Y0072291D01*
X0151824Y0072781D01*
X0151854Y0073271D01*
X0151896Y0073760D01*
X0151950Y0074248D01*
X0152016Y0074735D01*
X0152094Y0075219D01*
X0152184Y0075702D01*
X0152286Y0076182D01*
X0152399Y0076660D01*
X0152524Y0077134D01*
X0152661Y0077606D01*
X0152809Y0078074D01*
X0152969Y0078538D01*
X0153140Y0078998D01*
X0153322Y0079454D01*
X0153516Y0079905D01*
X0153720Y0080351D01*
X0153936Y0080792D01*
X0154162Y0081228D01*
X0154398Y0081658D01*
X0154645Y0082082D01*
X0154903Y0082500D01*
X0155171Y0082911D01*
X0155448Y0083316D01*
X0155736Y0083714D01*
X0156033Y0084105D01*
X0156340Y0084488D01*
X0156656Y0084863D01*
X0156981Y0085231D01*
X0157315Y0085591D01*
X0157658Y0085942D01*
X0158009Y0086285D01*
X0158369Y0086619D01*
X0158737Y0086944D01*
X0159112Y0087260D01*
X0159495Y0087567D01*
X0159886Y0087864D01*
X0160284Y0088152D01*
X0160689Y0088429D01*
X0161100Y0088697D01*
X0161518Y0088955D01*
X0161942Y0089202D01*
X0162372Y0089438D01*
X0162808Y0089664D01*
X0163249Y0089880D01*
X0163695Y0090084D01*
X0164146Y0090278D01*
X0164602Y0090460D01*
X0165062Y0090631D01*
X0165526Y0090791D01*
X0165994Y0090939D01*
X0166466Y0091076D01*
X0166940Y0091201D01*
X0167418Y0091314D01*
X0167898Y0091416D01*
X0168381Y0091506D01*
X0168865Y0091584D01*
X0169352Y0091650D01*
X0169840Y0091704D01*
X0170329Y0091746D01*
X0170819Y0091776D01*
X0171309Y0091794D01*
X0171800Y0091800D01*
X0172291Y0091794D01*
X0172781Y0091776D01*
X0173271Y0091746D01*
X0173760Y0091704D01*
X0174248Y0091650D01*
X0174735Y0091584D01*
X0175219Y0091506D01*
X0175702Y0091416D01*
X0176182Y0091314D01*
X0176660Y0091201D01*
X0177134Y0091076D01*
X0177606Y0090939D01*
X0178074Y0090791D01*
X0178538Y0090631D01*
X0178998Y0090460D01*
X0179454Y0090278D01*
X0179905Y0090084D01*
X0180351Y0089880D01*
X0180792Y0089664D01*
X0181228Y0089438D01*
X0181658Y0089202D01*
X0182082Y0088955D01*
X0182500Y0088697D01*
X0182911Y0088429D01*
X0183316Y0088152D01*
X0183714Y0087864D01*
X0184105Y0087567D01*
X0184488Y0087260D01*
X0184863Y0086944D01*
X0185231Y0086619D01*
X0185591Y0086285D01*
X0185942Y0085942D01*
X0186285Y0085591D01*
X0186619Y0085231D01*
X0186944Y0084863D01*
X0187260Y0084488D01*
X0187567Y0084105D01*
X0187864Y0083714D01*
X0188152Y0083316D01*
X0188429Y0082911D01*
X0188697Y0082500D01*
X0188955Y0082082D01*
X0189202Y0081658D01*
X0189438Y0081228D01*
X0189664Y0080792D01*
X0189880Y0080351D01*
X0190084Y0079905D01*
X0190278Y0079454D01*
X0190460Y0078998D01*
X0190631Y0078538D01*
X0190791Y0078074D01*
X0190939Y0077606D01*
X0191076Y0077134D01*
X0191201Y0076660D01*
X0191314Y0076182D01*
X0191416Y0075702D01*
X0191506Y0075219D01*
X0191584Y0074735D01*
X0191650Y0074248D01*
X0191704Y0073760D01*
X0191746Y0073271D01*
X0191776Y0072781D01*
X0191794Y0072291D01*
X0191800Y0071800D01*
X0191794Y0071309D01*
X0191776Y0070819D01*
X0191746Y0070329D01*
X0191704Y0069840D01*
X0191650Y0069352D01*
X0191584Y0068865D01*
X0191506Y0068381D01*
X0191416Y0067898D01*
X0191314Y0067418D01*
X0191201Y0066940D01*
X0191076Y0066466D01*
X0190939Y0065994D01*
X0190791Y0065526D01*
X0190631Y0065062D01*
X0190460Y0064602D01*
X0190278Y0064146D01*
X0190084Y0063695D01*
X0189880Y0063249D01*
X0189664Y0062808D01*
X0189438Y0062372D01*
X0189202Y0061942D01*
X0188955Y0061518D01*
X0188697Y0061100D01*
X0188429Y0060689D01*
X0188152Y0060284D01*
X0187864Y0059886D01*
X0187567Y0059495D01*
X0187260Y0059112D01*
X0186944Y0058737D01*
X0186619Y0058369D01*
X0186285Y0058009D01*
X0185942Y0057658D01*
X0185591Y0057315D01*
X0185231Y0056981D01*
X0184863Y0056656D01*
X0184488Y0056340D01*
X0184105Y0056033D01*
X0183714Y0055736D01*
X0183316Y0055448D01*
X0182911Y0055171D01*
X0182500Y0054903D01*
X0182082Y0054645D01*
X0181658Y0054398D01*
X0181228Y0054162D01*
X0180792Y0053936D01*
X0180351Y0053720D01*
X0179905Y0053516D01*
X0179454Y0053322D01*
X0178998Y0053140D01*
X0178538Y0052969D01*
X0178074Y0052809D01*
X0177606Y0052661D01*
X0177134Y0052524D01*
X0176660Y0052399D01*
X0176182Y0052286D01*
X0175702Y0052184D01*
X0175219Y0052094D01*
X0174735Y0052016D01*
X0174248Y0051950D01*
X0173760Y0051896D01*
X0173271Y0051854D01*
X0172781Y0051824D01*
X0172291Y0051806D01*
X0171800Y0051800D01*
X0171309Y0051806D01*
X0170819Y0051824D01*
X0170329Y0051854D01*
X0169840Y0051896D01*
X0169352Y0051950D01*
X0168865Y0052016D01*
X0168381Y0052094D01*
X0167898Y0052184D01*
X0167418Y0052286D01*
X0166940Y0052399D01*
X0166466Y0052524D01*
X0165994Y0052661D01*
X0165526Y0052809D01*
X0165062Y0052969D01*
X0164602Y0053140D01*
X0164146Y0053322D01*
X0163695Y0053516D01*
X0163249Y0053720D01*
X0162808Y0053936D01*
X0162372Y0054162D01*
X0161942Y0054398D01*
X0161518Y0054645D01*
X0161100Y0054903D01*
X0160689Y0055171D01*
X0160284Y0055448D01*
X0159886Y0055736D01*
X0159495Y0056033D01*
X0159112Y0056340D01*
X0158737Y0056656D01*
X0158369Y0056981D01*
X0158009Y0057315D01*
X0157658Y0057658D01*
X0157315Y0058009D01*
X0156981Y0058369D01*
X0156656Y0058737D01*
X0156340Y0059112D01*
X0156033Y0059495D01*
X0155736Y0059886D01*
X0155448Y0060284D01*
X0155171Y0060689D01*
X0154903Y0061100D01*
X0154645Y0061518D01*
X0154398Y0061942D01*
X0154162Y0062372D01*
X0153936Y0062808D01*
X0153720Y0063249D01*
X0153516Y0063695D01*
X0153322Y0064146D01*
X0153140Y0064602D01*
X0152969Y0065062D01*
X0152809Y0065526D01*
X0152661Y0065994D01*
X0152524Y0066466D01*
X0152399Y0066940D01*
X0152286Y0067418D01*
X0152184Y0067898D01*
X0152094Y0068381D01*
X0152016Y0068865D01*
X0151950Y0069352D01*
X0151896Y0069840D01*
X0151854Y0070329D01*
X0151824Y0070819D01*
X0151806Y0071309D01*
X0151800Y0071800D01*
X0171800Y0069300D02*
X0171800Y0067300D01*
X0217300Y0051800D02*
X0219300Y0051800D01*
X0201800Y0051800D02*
X0201806Y0052291D01*
X0201824Y0052781D01*
X0201854Y0053271D01*
X0201896Y0053760D01*
X0201950Y0054248D01*
X0202016Y0054735D01*
X0202094Y0055219D01*
X0202184Y0055702D01*
X0202286Y0056182D01*
X0202399Y0056660D01*
X0202524Y0057134D01*
X0202661Y0057606D01*
X0202809Y0058074D01*
X0202969Y0058538D01*
X0203140Y0058998D01*
X0203322Y0059454D01*
X0203516Y0059905D01*
X0203720Y0060351D01*
X0203936Y0060792D01*
X0204162Y0061228D01*
X0204398Y0061658D01*
X0204645Y0062082D01*
X0204903Y0062500D01*
X0205171Y0062911D01*
X0205448Y0063316D01*
X0205736Y0063714D01*
X0206033Y0064105D01*
X0206340Y0064488D01*
X0206656Y0064863D01*
X0206981Y0065231D01*
X0207315Y0065591D01*
X0207658Y0065942D01*
X0208009Y0066285D01*
X0208369Y0066619D01*
X0208737Y0066944D01*
X0209112Y0067260D01*
X0209495Y0067567D01*
X0209886Y0067864D01*
X0210284Y0068152D01*
X0210689Y0068429D01*
X0211100Y0068697D01*
X0211518Y0068955D01*
X0211942Y0069202D01*
X0212372Y0069438D01*
X0212808Y0069664D01*
X0213249Y0069880D01*
X0213695Y0070084D01*
X0214146Y0070278D01*
X0214602Y0070460D01*
X0215062Y0070631D01*
X0215526Y0070791D01*
X0215994Y0070939D01*
X0216466Y0071076D01*
X0216940Y0071201D01*
X0217418Y0071314D01*
X0217898Y0071416D01*
X0218381Y0071506D01*
X0218865Y0071584D01*
X0219352Y0071650D01*
X0219840Y0071704D01*
X0220329Y0071746D01*
X0220819Y0071776D01*
X0221309Y0071794D01*
X0221800Y0071800D01*
X0222291Y0071794D01*
X0222781Y0071776D01*
X0223271Y0071746D01*
X0223760Y0071704D01*
X0224248Y0071650D01*
X0224735Y0071584D01*
X0225219Y0071506D01*
X0225702Y0071416D01*
X0226182Y0071314D01*
X0226660Y0071201D01*
X0227134Y0071076D01*
X0227606Y0070939D01*
X0228074Y0070791D01*
X0228538Y0070631D01*
X0228998Y0070460D01*
X0229454Y0070278D01*
X0229905Y0070084D01*
X0230351Y0069880D01*
X0230792Y0069664D01*
X0231228Y0069438D01*
X0231658Y0069202D01*
X0232082Y0068955D01*
X0232500Y0068697D01*
X0232911Y0068429D01*
X0233316Y0068152D01*
X0233714Y0067864D01*
X0234105Y0067567D01*
X0234488Y0067260D01*
X0234863Y0066944D01*
X0235231Y0066619D01*
X0235591Y0066285D01*
X0235942Y0065942D01*
X0236285Y0065591D01*
X0236619Y0065231D01*
X0236944Y0064863D01*
X0237260Y0064488D01*
X0237567Y0064105D01*
X0237864Y0063714D01*
X0238152Y0063316D01*
X0238429Y0062911D01*
X0238697Y0062500D01*
X0238955Y0062082D01*
X0239202Y0061658D01*
X0239438Y0061228D01*
X0239664Y0060792D01*
X0239880Y0060351D01*
X0240084Y0059905D01*
X0240278Y0059454D01*
X0240460Y0058998D01*
X0240631Y0058538D01*
X0240791Y0058074D01*
X0240939Y0057606D01*
X0241076Y0057134D01*
X0241201Y0056660D01*
X0241314Y0056182D01*
X0241416Y0055702D01*
X0241506Y0055219D01*
X0241584Y0054735D01*
X0241650Y0054248D01*
X0241704Y0053760D01*
X0241746Y0053271D01*
X0241776Y0052781D01*
X0241794Y0052291D01*
X0241800Y0051800D01*
X0241794Y0051309D01*
X0241776Y0050819D01*
X0241746Y0050329D01*
X0241704Y0049840D01*
X0241650Y0049352D01*
X0241584Y0048865D01*
X0241506Y0048381D01*
X0241416Y0047898D01*
X0241314Y0047418D01*
X0241201Y0046940D01*
X0241076Y0046466D01*
X0240939Y0045994D01*
X0240791Y0045526D01*
X0240631Y0045062D01*
X0240460Y0044602D01*
X0240278Y0044146D01*
X0240084Y0043695D01*
X0239880Y0043249D01*
X0239664Y0042808D01*
X0239438Y0042372D01*
X0239202Y0041942D01*
X0238955Y0041518D01*
X0238697Y0041100D01*
X0238429Y0040689D01*
X0238152Y0040284D01*
X0237864Y0039886D01*
X0237567Y0039495D01*
X0237260Y0039112D01*
X0236944Y0038737D01*
X0236619Y0038369D01*
X0236285Y0038009D01*
X0235942Y0037658D01*
X0235591Y0037315D01*
X0235231Y0036981D01*
X0234863Y0036656D01*
X0234488Y0036340D01*
X0234105Y0036033D01*
X0233714Y0035736D01*
X0233316Y0035448D01*
X0232911Y0035171D01*
X0232500Y0034903D01*
X0232082Y0034645D01*
X0231658Y0034398D01*
X0231228Y0034162D01*
X0230792Y0033936D01*
X0230351Y0033720D01*
X0229905Y0033516D01*
X0229454Y0033322D01*
X0228998Y0033140D01*
X0228538Y0032969D01*
X0228074Y0032809D01*
X0227606Y0032661D01*
X0227134Y0032524D01*
X0226660Y0032399D01*
X0226182Y0032286D01*
X0225702Y0032184D01*
X0225219Y0032094D01*
X0224735Y0032016D01*
X0224248Y0031950D01*
X0223760Y0031896D01*
X0223271Y0031854D01*
X0222781Y0031824D01*
X0222291Y0031806D01*
X0221800Y0031800D01*
X0221309Y0031806D01*
X0220819Y0031824D01*
X0220329Y0031854D01*
X0219840Y0031896D01*
X0219352Y0031950D01*
X0218865Y0032016D01*
X0218381Y0032094D01*
X0217898Y0032184D01*
X0217418Y0032286D01*
X0216940Y0032399D01*
X0216466Y0032524D01*
X0215994Y0032661D01*
X0215526Y0032809D01*
X0215062Y0032969D01*
X0214602Y0033140D01*
X0214146Y0033322D01*
X0213695Y0033516D01*
X0213249Y0033720D01*
X0212808Y0033936D01*
X0212372Y0034162D01*
X0211942Y0034398D01*
X0211518Y0034645D01*
X0211100Y0034903D01*
X0210689Y0035171D01*
X0210284Y0035448D01*
X0209886Y0035736D01*
X0209495Y0036033D01*
X0209112Y0036340D01*
X0208737Y0036656D01*
X0208369Y0036981D01*
X0208009Y0037315D01*
X0207658Y0037658D01*
X0207315Y0038009D01*
X0206981Y0038369D01*
X0206656Y0038737D01*
X0206340Y0039112D01*
X0206033Y0039495D01*
X0205736Y0039886D01*
X0205448Y0040284D01*
X0205171Y0040689D01*
X0204903Y0041100D01*
X0204645Y0041518D01*
X0204398Y0041942D01*
X0204162Y0042372D01*
X0203936Y0042808D01*
X0203720Y0043249D01*
X0203516Y0043695D01*
X0203322Y0044146D01*
X0203140Y0044602D01*
X0202969Y0045062D01*
X0202809Y0045526D01*
X0202661Y0045994D01*
X0202524Y0046466D01*
X0202399Y0046940D01*
X0202286Y0047418D01*
X0202184Y0047898D01*
X0202094Y0048381D01*
X0202016Y0048865D01*
X0201950Y0049352D01*
X0201896Y0049840D01*
X0201854Y0050329D01*
X0201824Y0050819D01*
X0201806Y0051309D01*
X0201800Y0051800D01*
X0222800Y0047300D02*
X0225300Y0047300D01*
X0225300Y0051800D01*
X0225300Y0056300D01*
X0222800Y0056300D01*
X0222800Y0047300D01*
X0225300Y0051800D02*
X0226300Y0051800D01*
X0235300Y0046800D02*
X0238300Y0046800D01*
X0236800Y0045300D02*
X0236800Y0048300D01*
X0124300Y0058300D02*
X0124300Y0065300D01*
X0124298Y0065360D01*
X0124293Y0065421D01*
X0124284Y0065480D01*
X0124271Y0065539D01*
X0124255Y0065598D01*
X0124235Y0065655D01*
X0124212Y0065710D01*
X0124185Y0065765D01*
X0124156Y0065817D01*
X0124123Y0065868D01*
X0124087Y0065917D01*
X0124049Y0065963D01*
X0124007Y0066007D01*
X0123963Y0066049D01*
X0123917Y0066087D01*
X0123868Y0066123D01*
X0123817Y0066156D01*
X0123765Y0066185D01*
X0123710Y0066212D01*
X0123655Y0066235D01*
X0123598Y0066255D01*
X0123539Y0066271D01*
X0123480Y0066284D01*
X0123421Y0066293D01*
X0123360Y0066298D01*
X0123300Y0066300D01*
X0121800Y0066300D01*
X0121300Y0065800D01*
X0102300Y0065800D01*
X0101800Y0066300D01*
X0100300Y0066300D01*
X0100240Y0066298D01*
X0100179Y0066293D01*
X0100120Y0066284D01*
X0100061Y0066271D01*
X0100002Y0066255D01*
X0099945Y0066235D01*
X0099890Y0066212D01*
X0099835Y0066185D01*
X0099783Y0066156D01*
X0099732Y0066123D01*
X0099683Y0066087D01*
X0099637Y0066049D01*
X0099593Y0066007D01*
X0099551Y0065963D01*
X0099513Y0065917D01*
X0099477Y0065868D01*
X0099444Y0065817D01*
X0099415Y0065765D01*
X0099388Y0065710D01*
X0099365Y0065655D01*
X0099345Y0065598D01*
X0099329Y0065539D01*
X0099316Y0065480D01*
X0099307Y0065421D01*
X0099302Y0065360D01*
X0099300Y0065300D01*
X0099300Y0058300D01*
X0099302Y0058240D01*
X0099307Y0058179D01*
X0099316Y0058120D01*
X0099329Y0058061D01*
X0099345Y0058002D01*
X0099365Y0057945D01*
X0099388Y0057890D01*
X0099415Y0057835D01*
X0099444Y0057783D01*
X0099477Y0057732D01*
X0099513Y0057683D01*
X0099551Y0057637D01*
X0099593Y0057593D01*
X0099637Y0057551D01*
X0099683Y0057513D01*
X0099732Y0057477D01*
X0099783Y0057444D01*
X0099835Y0057415D01*
X0099890Y0057388D01*
X0099945Y0057365D01*
X0100002Y0057345D01*
X0100061Y0057329D01*
X0100120Y0057316D01*
X0100179Y0057307D01*
X0100240Y0057302D01*
X0100300Y0057300D01*
X0101800Y0057300D01*
X0102300Y0057800D01*
X0121300Y0057800D01*
X0121800Y0057300D01*
X0123300Y0057300D01*
X0123360Y0057302D01*
X0123421Y0057307D01*
X0123480Y0057316D01*
X0123539Y0057329D01*
X0123598Y0057345D01*
X0123655Y0057365D01*
X0123710Y0057388D01*
X0123765Y0057415D01*
X0123817Y0057444D01*
X0123868Y0057477D01*
X0123917Y0057513D01*
X0123963Y0057551D01*
X0124007Y0057593D01*
X0124049Y0057637D01*
X0124087Y0057683D01*
X0124123Y0057732D01*
X0124156Y0057783D01*
X0124185Y0057835D01*
X0124212Y0057890D01*
X0124235Y0057945D01*
X0124255Y0058002D01*
X0124271Y0058061D01*
X0124284Y0058120D01*
X0124293Y0058179D01*
X0124298Y0058240D01*
X0124300Y0058300D01*
D12*
X0171800Y0069550D03*
X0171800Y0149550D03*
X0211800Y0169550D03*
D13*
X0219550Y0051800D03*
D14*
X0225500Y0079300D02*
X0225500Y0081800D01*
X0225500Y0084300D01*
X0228000Y0084300D02*
X0228000Y0081800D01*
X0228000Y0079300D01*
X0153000Y0099300D02*
X0153000Y0101800D01*
X0153000Y0104300D01*
X0150500Y0104300D02*
X0150500Y0101800D01*
X0150500Y0099300D01*
X0150600Y0119300D02*
X0150600Y0121800D01*
X0150600Y0124300D01*
X0153100Y0124300D02*
X0153100Y0121800D01*
X0153100Y0119300D01*
X0215500Y0139300D02*
X0215500Y0141800D01*
X0215500Y0144300D01*
X0218000Y0144300D02*
X0218000Y0141800D01*
X0218000Y0139300D01*
D15*
X0114050Y0136946D02*
X0109546Y0136946D01*
X0109546Y0139198D01*
X0110297Y0139949D01*
X0111798Y0139949D01*
X0112549Y0139198D01*
X0112549Y0136946D01*
X0114050Y0135345D02*
X0114050Y0132342D01*
X0114050Y0133843D02*
X0109546Y0133843D01*
X0111047Y0132342D01*
X0114050Y0130741D02*
X0114050Y0127738D01*
X0114050Y0129239D02*
X0109546Y0129239D01*
X0111047Y0127738D01*
X0111047Y0126137D02*
X0111798Y0125386D01*
X0112549Y0126137D01*
X0113299Y0126137D01*
X0114050Y0125386D01*
X0114050Y0123885D01*
X0113299Y0123134D01*
X0114050Y0121533D02*
X0114050Y0118530D01*
X0111047Y0121533D01*
X0110297Y0121533D01*
X0109546Y0120782D01*
X0109546Y0119281D01*
X0110297Y0118530D01*
X0111047Y0116929D02*
X0114050Y0116929D01*
X0111798Y0116929D02*
X0111798Y0113926D01*
X0111047Y0113926D02*
X0109546Y0115428D01*
X0111047Y0116929D01*
X0111047Y0113926D02*
X0114050Y0113926D01*
X0113299Y0112325D02*
X0111798Y0112325D01*
X0111798Y0110824D01*
X0110297Y0112325D02*
X0109546Y0111574D01*
X0109546Y0110073D01*
X0110297Y0109322D01*
X0113299Y0109322D01*
X0114050Y0110073D01*
X0114050Y0111574D01*
X0113299Y0112325D01*
X0111798Y0107721D02*
X0112549Y0106970D01*
X0112549Y0104719D01*
X0114050Y0104719D02*
X0109546Y0104719D01*
X0109546Y0106970D01*
X0110297Y0107721D01*
X0111798Y0107721D01*
X0110297Y0123134D02*
X0109546Y0123885D01*
X0109546Y0125386D01*
X0110297Y0126137D01*
X0111047Y0126137D01*
X0111798Y0125386D02*
X0111798Y0124636D01*
D16*
X0097600Y0061800D03*
X0126000Y0061800D03*
D17*
X0245501Y0055343D02*
X0245501Y0152981D01*
X0321485Y0152981D01*
X0321485Y0055343D01*
X0245501Y0055343D01*
X0321879Y0061643D02*
X0330343Y0061643D01*
X0330343Y0061642D02*
X0330420Y0061644D01*
X0330497Y0061650D01*
X0330574Y0061659D01*
X0330650Y0061672D01*
X0330726Y0061689D01*
X0330800Y0061710D01*
X0330874Y0061734D01*
X0330946Y0061762D01*
X0331016Y0061793D01*
X0331085Y0061828D01*
X0331153Y0061866D01*
X0331218Y0061907D01*
X0331281Y0061952D01*
X0331342Y0062000D01*
X0331401Y0062050D01*
X0331457Y0062103D01*
X0331510Y0062159D01*
X0331560Y0062218D01*
X0331608Y0062279D01*
X0331653Y0062342D01*
X0331694Y0062407D01*
X0331732Y0062475D01*
X0331767Y0062544D01*
X0331798Y0062614D01*
X0331826Y0062686D01*
X0331850Y0062760D01*
X0331871Y0062834D01*
X0331888Y0062910D01*
X0331901Y0062986D01*
X0331910Y0063063D01*
X0331916Y0063140D01*
X0331918Y0063217D01*
X0331918Y0145107D01*
X0331916Y0145184D01*
X0331910Y0145261D01*
X0331901Y0145338D01*
X0331888Y0145414D01*
X0331871Y0145490D01*
X0331850Y0145564D01*
X0331826Y0145638D01*
X0331798Y0145710D01*
X0331767Y0145780D01*
X0331732Y0145849D01*
X0331694Y0145917D01*
X0331653Y0145982D01*
X0331608Y0146045D01*
X0331560Y0146106D01*
X0331510Y0146165D01*
X0331457Y0146221D01*
X0331401Y0146274D01*
X0331342Y0146324D01*
X0331281Y0146372D01*
X0331218Y0146417D01*
X0331153Y0146458D01*
X0331085Y0146496D01*
X0331016Y0146531D01*
X0330946Y0146562D01*
X0330874Y0146590D01*
X0330800Y0146614D01*
X0330726Y0146635D01*
X0330650Y0146652D01*
X0330574Y0146665D01*
X0330497Y0146674D01*
X0330420Y0146680D01*
X0330343Y0146682D01*
X0321879Y0146682D01*
D18*
X0194300Y0126800D02*
X0194300Y0096800D01*
X0186800Y0096800D01*
X0186800Y0126800D01*
X0194300Y0126800D01*
X0186800Y0126800D02*
X0169300Y0126800D01*
X0169300Y0096800D01*
X0186800Y0096800D01*
X0049300Y0071800D02*
X0031800Y0071800D01*
X0031800Y0141800D01*
X0049300Y0141800D01*
X0049300Y0071800D01*
X0031800Y0071800D02*
X0024300Y0071800D01*
X0024300Y0141800D01*
X0031800Y0141800D01*
M02*
