%
M48
M72
T01C0.03200
T02C0.03937
T03C0.04000
T04C0.04724
T05C0.06299
T06C0.06700
T07C0.07900
T08C0.12598
%
T01
X91800Y61800
X131800Y61800
X141800Y101800
X161800Y101800
X161800Y121800
X141800Y121800
X206800Y126800
X216800Y126800
X226800Y126800
X236800Y126800
X226800Y141800
X206800Y141800
X206800Y96800
X216800Y96800
X226800Y96800
X236800Y96800
X236800Y81800
X216800Y81800
T02
X181800Y101800
X181800Y111800
X181800Y121800
X36800Y116800
X36800Y106800
X36800Y96800
X36800Y86800
X36800Y76800
X36800Y126800
X36800Y136800
T03
X171800Y141800
X171800Y161800
X211800Y161800
X211800Y181800
X171800Y81800
X171800Y61800
X211800Y51800
X231800Y51800
T04
X251800Y104162
X271800Y104162
X126800Y106800
X126800Y96800
X126800Y86800
X126800Y76800
X96800Y76800
X96800Y86800
X96800Y96800
X96800Y106800
X96800Y116800
X96800Y126800
X96800Y136800
X96800Y146800
X126800Y146800
X126800Y136800
X126800Y126800
X126800Y116800
T05
X251800Y119162
X251800Y89162
X286800Y89162
X306800Y119162
T06
X286800Y161800
X271800Y161800
X251800Y46800
T07
X141800Y81800
X141800Y141800
T08
X36800Y41800
X36800Y166800
X311800Y186800
X311800Y41800
M30
