G75*
%MOIN*%
%OFA0B0*%
%FSLAX25Y25*%
%IPPOS*%
%LPD*%
%AMOC8*
5,1,8,0,0,1.08239X$1,22.5*
%
%ADD10C,0.00700*%
%ADD11C,0.00600*%
%ADD12C,0.10000*%
%ADD13OC8,0.10000*%
%ADD14R,0.11024X0.09449*%
%ADD15R,0.07087X0.06299*%
%ADD16OC8,0.05200*%
%ADD17C,0.07087*%
%ADD18C,0.07087*%
%ADD19C,0.09449*%
%ADD20OC8,0.10050*%
%ADD21OC8,0.12400*%
%ADD22C,0.05937*%
%ADD23C,0.05200*%
%ADD24C,0.01600*%
D10*
X0054358Y0165650D02*
X0058312Y0165650D01*
X0059629Y0166968D01*
X0059629Y0168286D01*
X0058312Y0169603D01*
X0054358Y0169603D01*
X0058312Y0169603D02*
X0059629Y0170921D01*
X0059629Y0172239D01*
X0058312Y0173557D01*
X0054358Y0173557D01*
X0054358Y0165650D01*
X0062277Y0166968D02*
X0063595Y0165650D01*
X0067548Y0165650D01*
X0067548Y0169603D01*
X0066230Y0170921D01*
X0063595Y0170921D01*
X0063595Y0168286D02*
X0067548Y0168286D01*
X0070196Y0165650D02*
X0072831Y0165650D01*
X0071514Y0165650D02*
X0071514Y0173557D01*
X0070196Y0173557D01*
X0070196Y0178550D02*
X0075467Y0178550D01*
X0072831Y0178550D02*
X0072831Y0186457D01*
X0070196Y0183821D01*
X0067548Y0183821D02*
X0066230Y0182503D01*
X0067548Y0181186D01*
X0067548Y0179868D01*
X0066230Y0178550D01*
X0063595Y0178550D01*
X0062277Y0179868D01*
X0059629Y0178550D02*
X0054358Y0178550D01*
X0059629Y0183821D01*
X0059629Y0185139D01*
X0058312Y0186457D01*
X0055676Y0186457D01*
X0054358Y0185139D01*
X0051711Y0183821D02*
X0051711Y0178550D01*
X0051711Y0182503D02*
X0046439Y0182503D01*
X0046439Y0183821D02*
X0049075Y0186457D01*
X0051711Y0183821D01*
X0046439Y0183821D02*
X0046439Y0178550D01*
X0043792Y0179868D02*
X0043792Y0182503D01*
X0041156Y0182503D01*
X0038521Y0179868D02*
X0039838Y0178550D01*
X0042474Y0178550D01*
X0043792Y0179868D01*
X0038521Y0179868D02*
X0038521Y0185139D01*
X0039838Y0186457D01*
X0042474Y0186457D01*
X0043792Y0185139D01*
X0035873Y0185139D02*
X0035873Y0182503D01*
X0034555Y0181186D01*
X0030602Y0181186D01*
X0030602Y0178550D02*
X0030602Y0186457D01*
X0034555Y0186457D01*
X0035873Y0185139D01*
X0062277Y0185139D02*
X0063595Y0186457D01*
X0066230Y0186457D01*
X0067548Y0185139D01*
X0067548Y0183821D01*
X0066230Y0182503D02*
X0064913Y0182503D01*
X0078114Y0179868D02*
X0083386Y0185139D01*
X0083386Y0179868D01*
X0082068Y0178550D01*
X0079432Y0178550D01*
X0078114Y0179868D01*
X0078114Y0185139D01*
X0079432Y0186457D01*
X0082068Y0186457D01*
X0083386Y0185139D01*
X0083394Y0170921D02*
X0087347Y0170921D01*
X0088665Y0169603D01*
X0088665Y0165650D01*
X0091312Y0166968D02*
X0092630Y0165650D01*
X0096584Y0165650D01*
X0099231Y0166968D02*
X0099231Y0169603D01*
X0100549Y0170921D01*
X0103185Y0170921D01*
X0104502Y0169603D01*
X0104502Y0168286D01*
X0099231Y0168286D01*
X0099231Y0166968D02*
X0100549Y0165650D01*
X0103185Y0165650D01*
X0096584Y0170921D02*
X0092630Y0170921D01*
X0091312Y0169603D01*
X0091312Y0166968D01*
X0083394Y0165650D02*
X0083394Y0170921D01*
X0080746Y0169603D02*
X0080746Y0165650D01*
X0076793Y0165650D01*
X0075475Y0166968D01*
X0076793Y0168286D01*
X0080746Y0168286D01*
X0080746Y0169603D02*
X0079428Y0170921D01*
X0076793Y0170921D01*
X0063595Y0168286D02*
X0062277Y0166968D01*
D11*
X0122100Y0179435D02*
X0124435Y0177100D01*
X0126771Y0179435D01*
X0126771Y0184106D01*
X0129098Y0181771D02*
X0129098Y0178268D01*
X0130266Y0177100D01*
X0131433Y0178268D01*
X0132601Y0177100D01*
X0133769Y0178268D01*
X0133769Y0181771D01*
X0136096Y0181771D02*
X0138431Y0177100D01*
X0140767Y0181771D01*
X0143094Y0181771D02*
X0143094Y0178268D01*
X0144262Y0177100D01*
X0145429Y0178268D01*
X0146597Y0177100D01*
X0147765Y0178268D01*
X0147765Y0181771D01*
X0150092Y0181771D02*
X0153595Y0181771D01*
X0154763Y0180603D01*
X0154763Y0178268D01*
X0153595Y0177100D01*
X0150092Y0177100D01*
X0150092Y0184106D01*
X0157090Y0180603D02*
X0157090Y0178268D01*
X0158258Y0177100D01*
X0161761Y0177100D01*
X0161761Y0175932D02*
X0161761Y0181771D01*
X0158258Y0181771D01*
X0157090Y0180603D01*
X0161761Y0175932D02*
X0160593Y0174765D01*
X0159425Y0174765D01*
X0122100Y0179435D02*
X0122100Y0184106D01*
D12*
X0171800Y0161800D03*
X0211800Y0181800D03*
X0171800Y0081800D03*
X0231800Y0051800D03*
D13*
X0211800Y0051800D03*
X0171800Y0061800D03*
X0171800Y0141800D03*
X0211800Y0161800D03*
D14*
X0076800Y0119202D03*
X0076800Y0094398D03*
D15*
X0061800Y0106288D03*
X0061800Y0117312D03*
D16*
X0141800Y0121800D03*
X0161800Y0121800D03*
X0161800Y0101800D03*
X0141800Y0101800D03*
X0131800Y0061800D03*
X0091800Y0061800D03*
X0206800Y0141800D03*
X0226800Y0141800D03*
X0216800Y0081800D03*
X0236800Y0081800D03*
D17*
X0130343Y0076800D02*
X0123257Y0076800D01*
X0123257Y0086800D02*
X0130343Y0086800D01*
X0130343Y0096800D02*
X0123257Y0096800D01*
X0123257Y0106800D02*
X0130343Y0106800D01*
X0130343Y0116800D02*
X0123257Y0116800D01*
X0123257Y0126800D02*
X0130343Y0126800D01*
X0130343Y0136800D02*
X0123257Y0136800D01*
X0123257Y0146800D02*
X0130343Y0146800D01*
X0100343Y0146800D02*
X0093257Y0146800D01*
X0093257Y0136800D02*
X0100343Y0136800D01*
X0100343Y0126800D02*
X0093257Y0126800D01*
X0093257Y0116800D02*
X0100343Y0116800D01*
X0100343Y0106800D02*
X0093257Y0106800D01*
X0093257Y0096800D02*
X0100343Y0096800D01*
X0100343Y0086800D02*
X0093257Y0086800D01*
X0093257Y0076800D02*
X0100343Y0076800D01*
D18*
X0251800Y0104162D03*
X0271800Y0104162D03*
D19*
X0251800Y0089162D03*
X0251800Y0119162D03*
D20*
X0271800Y0161800D03*
X0286800Y0161800D03*
X0251800Y0046800D03*
D21*
X0141800Y0081800D03*
X0141800Y0141800D03*
D22*
X0178831Y0121800D02*
X0184769Y0121800D01*
X0184769Y0111800D02*
X0178831Y0111800D01*
X0178831Y0101800D02*
X0184769Y0101800D01*
X0039769Y0096800D02*
X0033831Y0096800D01*
X0033831Y0106800D02*
X0039769Y0106800D01*
X0039769Y0116800D02*
X0033831Y0116800D01*
X0033831Y0126800D02*
X0039769Y0126800D01*
X0039769Y0136800D02*
X0033831Y0136800D01*
X0033831Y0086800D02*
X0039769Y0086800D01*
X0039769Y0076800D02*
X0033831Y0076800D01*
D23*
X0206800Y0096800D03*
X0216800Y0096800D03*
X0226800Y0096800D03*
X0236800Y0096800D03*
X0236800Y0126800D03*
X0226800Y0126800D03*
X0216800Y0126800D03*
X0206800Y0126800D03*
D24*
X0043615Y0032918D02*
X0041331Y0031600D01*
X0106800Y0031600D01*
X0106800Y0190701D01*
X0026600Y0190701D01*
X0026600Y0171331D01*
X0027918Y0173615D01*
X0029985Y0175682D01*
X0032516Y0177143D01*
X0035339Y0177899D01*
X0037732Y0177899D01*
X0036571Y0179060D01*
X0036571Y0180443D01*
X0036505Y0180378D01*
X0035363Y0179236D01*
X0032552Y0179236D01*
X0032552Y0177742D01*
X0031410Y0176600D01*
X0029794Y0176600D01*
X0028652Y0177742D01*
X0028652Y0187264D01*
X0029794Y0188407D01*
X0035363Y0188407D01*
X0036681Y0187089D01*
X0037197Y0186573D01*
X0037713Y0187089D01*
X0039031Y0188407D01*
X0043282Y0188407D01*
X0044424Y0187264D01*
X0045742Y0185947D01*
X0045742Y0185881D01*
X0047125Y0187264D01*
X0047125Y0187264D01*
X0047566Y0187705D01*
X0048267Y0188407D01*
X0049883Y0188407D01*
X0050605Y0187685D01*
X0051025Y0187264D01*
X0051025Y0187264D01*
X0052408Y0185881D01*
X0052408Y0185947D01*
X0054868Y0188407D01*
X0059119Y0188407D01*
X0060262Y0187264D01*
X0060953Y0186573D01*
X0061645Y0187264D01*
X0062787Y0188407D01*
X0067038Y0188407D01*
X0068356Y0187089D01*
X0069498Y0185947D01*
X0069498Y0185881D01*
X0070881Y0187264D01*
X0070881Y0187264D01*
X0072024Y0188407D01*
X0073639Y0188407D01*
X0074781Y0187264D01*
X0074781Y0180500D01*
X0076164Y0180500D01*
X0076164Y0185947D01*
X0077482Y0187264D01*
X0078625Y0188407D01*
X0082876Y0188407D01*
X0084193Y0187089D01*
X0084193Y0187089D01*
X0085336Y0185947D01*
X0085336Y0179060D01*
X0084018Y0177742D01*
X0082876Y0176600D01*
X0078625Y0176600D01*
X0077417Y0177808D01*
X0077417Y0177742D01*
X0076275Y0176600D01*
X0069388Y0176600D01*
X0068246Y0177742D01*
X0068246Y0177808D01*
X0068180Y0177742D01*
X0068180Y0177742D01*
X0067038Y0176600D01*
X0062787Y0176600D01*
X0061579Y0177808D01*
X0061579Y0177742D01*
X0060437Y0176600D01*
X0053550Y0176600D01*
X0053034Y0177116D01*
X0052518Y0176600D01*
X0050903Y0176600D01*
X0049761Y0177742D01*
X0049761Y0180553D01*
X0048389Y0180553D01*
X0048389Y0177742D01*
X0047247Y0176600D01*
X0045632Y0176600D01*
X0044489Y0177742D01*
X0044489Y0177808D01*
X0043282Y0176600D01*
X0042024Y0176600D01*
X0043615Y0175682D01*
X0045682Y0173615D01*
X0047143Y0171084D01*
X0047899Y0168261D01*
X0047899Y0165339D01*
X0047143Y0162516D01*
X0045682Y0159985D01*
X0043615Y0157918D01*
X0041084Y0156457D01*
X0038261Y0155701D01*
X0035339Y0155701D01*
X0032516Y0156457D01*
X0029985Y0157918D01*
X0027918Y0159985D01*
X0026600Y0162269D01*
X0026600Y0046331D01*
X0027918Y0048615D01*
X0029985Y0050682D01*
X0032516Y0052143D01*
X0035339Y0052899D01*
X0038261Y0052899D01*
X0041084Y0052143D01*
X0043615Y0050682D01*
X0045682Y0048615D01*
X0047143Y0046084D01*
X0047899Y0043261D01*
X0047899Y0040339D01*
X0047143Y0037516D01*
X0045682Y0034985D01*
X0043615Y0032918D01*
X0043891Y0033194D02*
X0106800Y0033194D01*
X0106800Y0034793D02*
X0045489Y0034793D01*
X0046493Y0036391D02*
X0106800Y0036391D01*
X0106800Y0037990D02*
X0047270Y0037990D01*
X0047698Y0039588D02*
X0106800Y0039588D01*
X0106800Y0041187D02*
X0047899Y0041187D01*
X0047899Y0042785D02*
X0106800Y0042785D01*
X0106800Y0044384D02*
X0047598Y0044384D01*
X0047170Y0045982D02*
X0106800Y0045982D01*
X0106800Y0047581D02*
X0046279Y0047581D01*
X0045117Y0049179D02*
X0106800Y0049179D01*
X0106800Y0050778D02*
X0043449Y0050778D01*
X0040213Y0052376D02*
X0106800Y0052376D01*
X0106800Y0053975D02*
X0026600Y0053975D01*
X0026600Y0055573D02*
X0106800Y0055573D01*
X0106800Y0057172D02*
X0026600Y0057172D01*
X0026600Y0058770D02*
X0088607Y0058770D01*
X0087400Y0059977D02*
X0089977Y0057400D01*
X0091800Y0057400D01*
X0093623Y0057400D01*
X0096200Y0059977D01*
X0096200Y0061800D01*
X0096200Y0063623D01*
X0093623Y0066200D01*
X0091800Y0066200D01*
X0091800Y0061800D01*
X0096200Y0061800D01*
X0091800Y0061800D01*
X0091800Y0061800D01*
X0091800Y0061800D01*
X0091800Y0057400D01*
X0091800Y0061800D01*
X0091800Y0061800D01*
X0091800Y0061800D01*
X0087400Y0061800D01*
X0087400Y0063623D01*
X0089977Y0066200D01*
X0091800Y0066200D01*
X0091800Y0061800D01*
X0087400Y0061800D01*
X0087400Y0059977D01*
X0087400Y0060369D02*
X0026600Y0060369D01*
X0026600Y0061967D02*
X0087400Y0061967D01*
X0087400Y0063566D02*
X0026600Y0063566D01*
X0026600Y0065164D02*
X0088942Y0065164D01*
X0091800Y0065164D02*
X0091800Y0065164D01*
X0091800Y0063566D02*
X0091800Y0063566D01*
X0091800Y0061967D02*
X0091800Y0061967D01*
X0091800Y0060369D02*
X0091800Y0060369D01*
X0091800Y0058770D02*
X0091800Y0058770D01*
X0094993Y0058770D02*
X0106800Y0058770D01*
X0106800Y0060369D02*
X0096200Y0060369D01*
X0096200Y0061967D02*
X0106800Y0061967D01*
X0106800Y0063566D02*
X0096200Y0063566D01*
X0094658Y0065164D02*
X0106800Y0065164D01*
X0106800Y0066763D02*
X0026600Y0066763D01*
X0026600Y0068361D02*
X0106800Y0068361D01*
X0106800Y0069960D02*
X0026600Y0069960D01*
X0026600Y0071558D02*
X0106800Y0071558D01*
X0106800Y0073157D02*
X0103974Y0073157D01*
X0103257Y0072440D02*
X0104704Y0073887D01*
X0105487Y0075777D01*
X0105487Y0077823D01*
X0104704Y0079713D01*
X0103257Y0081160D01*
X0101712Y0081800D01*
X0103257Y0082440D01*
X0104704Y0083887D01*
X0105487Y0085777D01*
X0105487Y0087823D01*
X0104704Y0089713D01*
X0103257Y0091160D01*
X0101712Y0091800D01*
X0103257Y0092440D01*
X0104704Y0093887D01*
X0105487Y0095777D01*
X0105487Y0097823D01*
X0104704Y0099713D01*
X0103257Y0101160D01*
X0101947Y0101703D01*
X0102394Y0101848D01*
X0103144Y0102230D01*
X0103824Y0102724D01*
X0104419Y0103319D01*
X0104913Y0103999D01*
X0105295Y0104749D01*
X0105555Y0105549D01*
X0105687Y0106379D01*
X0105687Y0106419D01*
X0097181Y0106419D01*
X0097181Y0107181D01*
X0105687Y0107181D01*
X0105687Y0107221D01*
X0105555Y0108051D01*
X0105295Y0108851D01*
X0104913Y0109600D01*
X0104419Y0110281D01*
X0103824Y0110876D01*
X0103144Y0111370D01*
X0102394Y0111752D01*
X0101947Y0111897D01*
X0103257Y0112440D01*
X0104704Y0113887D01*
X0105487Y0115777D01*
X0105487Y0117823D01*
X0104704Y0119713D01*
X0103257Y0121160D01*
X0101712Y0121800D01*
X0103257Y0122440D01*
X0104704Y0123887D01*
X0105487Y0125777D01*
X0105487Y0127823D01*
X0104704Y0129713D01*
X0103257Y0131160D01*
X0101712Y0131800D01*
X0103257Y0132440D01*
X0104704Y0133887D01*
X0105487Y0135777D01*
X0105487Y0137823D01*
X0104704Y0139713D01*
X0103257Y0141160D01*
X0101712Y0141800D01*
X0103257Y0142440D01*
X0104704Y0143887D01*
X0105487Y0145777D01*
X0105487Y0147823D01*
X0104704Y0149713D01*
X0103257Y0151160D01*
X0101366Y0151943D01*
X0092234Y0151943D01*
X0090343Y0151160D01*
X0088896Y0149713D01*
X0088113Y0147823D01*
X0088113Y0145777D01*
X0088896Y0143887D01*
X0090343Y0142440D01*
X0091888Y0141800D01*
X0090343Y0141160D01*
X0088896Y0139713D01*
X0088113Y0137823D01*
X0088113Y0135777D01*
X0088896Y0133887D01*
X0090343Y0132440D01*
X0091888Y0131800D01*
X0090343Y0131160D01*
X0088896Y0129713D01*
X0088113Y0127823D01*
X0088113Y0125777D01*
X0088896Y0123887D01*
X0090343Y0122440D01*
X0091888Y0121800D01*
X0091409Y0121602D01*
X0083912Y0121602D01*
X0083912Y0124589D01*
X0082975Y0125526D01*
X0070625Y0125526D01*
X0069688Y0124589D01*
X0069688Y0119712D01*
X0066943Y0119712D01*
X0066943Y0121124D01*
X0066006Y0122061D01*
X0057594Y0122061D01*
X0056657Y0121124D01*
X0056657Y0119712D01*
X0056288Y0119712D01*
X0055881Y0119752D01*
X0055128Y0120064D01*
X0054552Y0120640D01*
X0054240Y0121393D01*
X0054200Y0121800D01*
X0054200Y0123272D01*
X0053073Y0125992D01*
X0050992Y0128073D01*
X0050992Y0128073D01*
X0048272Y0129200D01*
X0043719Y0129200D01*
X0043641Y0129388D01*
X0042356Y0130673D01*
X0040677Y0131368D01*
X0032923Y0131368D01*
X0031244Y0130673D01*
X0029959Y0129388D01*
X0029263Y0127709D01*
X0029263Y0125891D01*
X0029959Y0124212D01*
X0031244Y0122927D01*
X0032923Y0122231D01*
X0040677Y0122231D01*
X0042356Y0122927D01*
X0043641Y0124212D01*
X0043719Y0124400D01*
X0046800Y0124400D01*
X0047307Y0124350D01*
X0048244Y0123962D01*
X0048962Y0123244D01*
X0049350Y0122307D01*
X0049400Y0121800D01*
X0049400Y0120430D01*
X0050449Y0117898D01*
X0052386Y0115960D01*
X0054918Y0114912D01*
X0056657Y0114912D01*
X0056657Y0113499D01*
X0057594Y0112562D01*
X0066006Y0112562D01*
X0066943Y0113499D01*
X0066943Y0114912D01*
X0069688Y0114912D01*
X0069688Y0113814D01*
X0070625Y0112877D01*
X0082975Y0112877D01*
X0083912Y0113814D01*
X0083912Y0116802D01*
X0088113Y0116802D01*
X0088113Y0115777D01*
X0088896Y0113887D01*
X0090343Y0112440D01*
X0091653Y0111897D01*
X0091206Y0111752D01*
X0090456Y0111370D01*
X0089776Y0110876D01*
X0089181Y0110281D01*
X0088687Y0109600D01*
X0088305Y0108851D01*
X0088045Y0108051D01*
X0087913Y0107221D01*
X0087913Y0107181D01*
X0096419Y0107181D01*
X0096419Y0106419D01*
X0087913Y0106419D01*
X0087913Y0106379D01*
X0088045Y0105549D01*
X0088305Y0104749D01*
X0088687Y0103999D01*
X0089181Y0103319D01*
X0089776Y0102724D01*
X0090456Y0102230D01*
X0091206Y0101848D01*
X0091653Y0101703D01*
X0090343Y0101160D01*
X0088896Y0099713D01*
X0088113Y0097823D01*
X0088113Y0095777D01*
X0088896Y0093887D01*
X0090343Y0092440D01*
X0091888Y0091800D01*
X0090343Y0091160D01*
X0088896Y0089713D01*
X0088113Y0087823D01*
X0088113Y0085777D01*
X0088896Y0083887D01*
X0090343Y0082440D01*
X0091888Y0081800D01*
X0090343Y0081160D01*
X0088896Y0079713D01*
X0088113Y0077823D01*
X0088113Y0075777D01*
X0088896Y0073887D01*
X0090343Y0072440D01*
X0092234Y0071657D01*
X0101366Y0071657D01*
X0103257Y0072440D01*
X0105063Y0074755D02*
X0106800Y0074755D01*
X0106800Y0076354D02*
X0105487Y0076354D01*
X0105433Y0077952D02*
X0106800Y0077952D01*
X0106800Y0079551D02*
X0104771Y0079551D01*
X0103268Y0081149D02*
X0106800Y0081149D01*
X0106800Y0082748D02*
X0103565Y0082748D01*
X0104894Y0084346D02*
X0106800Y0084346D01*
X0106800Y0085945D02*
X0105487Y0085945D01*
X0105487Y0087543D02*
X0106800Y0087543D01*
X0106800Y0089142D02*
X0104940Y0089142D01*
X0103677Y0090740D02*
X0106800Y0090740D01*
X0106800Y0092339D02*
X0103014Y0092339D01*
X0104725Y0093937D02*
X0106800Y0093937D01*
X0106800Y0095536D02*
X0105387Y0095536D01*
X0105487Y0097134D02*
X0106800Y0097134D01*
X0106800Y0098733D02*
X0105110Y0098733D01*
X0104086Y0100332D02*
X0106800Y0100332D01*
X0106800Y0101930D02*
X0102555Y0101930D01*
X0104571Y0103529D02*
X0106800Y0103529D01*
X0106800Y0105127D02*
X0105418Y0105127D01*
X0106800Y0106726D02*
X0097181Y0106726D01*
X0096419Y0106726D02*
X0062575Y0106726D01*
X0062575Y0107063D02*
X0067143Y0107063D01*
X0067143Y0109675D01*
X0067021Y0110133D01*
X0066784Y0110543D01*
X0066449Y0110878D01*
X0066038Y0111115D01*
X0065580Y0111238D01*
X0062575Y0111238D01*
X0062575Y0107063D01*
X0062575Y0105513D01*
X0062575Y0101339D01*
X0065580Y0101339D01*
X0066038Y0101461D01*
X0066449Y0101698D01*
X0066784Y0102033D01*
X0067021Y0102444D01*
X0067143Y0102902D01*
X0067143Y0105513D01*
X0062575Y0105513D01*
X0061025Y0105513D01*
X0061025Y0101339D01*
X0058020Y0101339D01*
X0057562Y0101461D01*
X0057151Y0101698D01*
X0056816Y0102033D01*
X0056579Y0102444D01*
X0056457Y0102902D01*
X0056457Y0105513D01*
X0061025Y0105513D01*
X0061025Y0107063D01*
X0056457Y0107063D01*
X0056457Y0109675D01*
X0056579Y0110133D01*
X0056816Y0110543D01*
X0057151Y0110878D01*
X0057562Y0111115D01*
X0058020Y0111238D01*
X0061025Y0111238D01*
X0061025Y0107063D01*
X0062575Y0107063D01*
X0062575Y0108324D02*
X0061025Y0108324D01*
X0061025Y0106726D02*
X0044337Y0106726D01*
X0044337Y0105891D02*
X0044337Y0107709D01*
X0043641Y0109388D01*
X0042356Y0110673D01*
X0040677Y0111368D01*
X0032923Y0111368D01*
X0031244Y0110673D01*
X0029959Y0109388D01*
X0029263Y0107709D01*
X0029263Y0105891D01*
X0029959Y0104212D01*
X0031244Y0102927D01*
X0032923Y0102231D01*
X0040677Y0102231D01*
X0042356Y0102927D01*
X0043641Y0104212D01*
X0044337Y0105891D01*
X0044020Y0105127D02*
X0056457Y0105127D01*
X0056457Y0103529D02*
X0042958Y0103529D01*
X0042356Y0100673D02*
X0040677Y0101368D01*
X0032923Y0101368D01*
X0031244Y0100673D01*
X0029959Y0099388D01*
X0029263Y0097709D01*
X0029263Y0095891D01*
X0029959Y0094212D01*
X0031244Y0092927D01*
X0032923Y0092231D01*
X0040677Y0092231D01*
X0042356Y0092927D01*
X0043641Y0094212D01*
X0044337Y0095891D01*
X0044337Y0097709D01*
X0043641Y0099388D01*
X0042356Y0100673D01*
X0042698Y0100332D02*
X0069951Y0100332D01*
X0069848Y0100228D02*
X0069611Y0099818D01*
X0069488Y0099360D01*
X0069488Y0095198D01*
X0076000Y0095198D01*
X0076000Y0093598D01*
X0077600Y0093598D01*
X0077600Y0087874D01*
X0082549Y0087874D01*
X0083007Y0087997D01*
X0083417Y0088234D01*
X0083752Y0088569D01*
X0083989Y0088979D01*
X0084112Y0089437D01*
X0084112Y0093598D01*
X0077600Y0093598D01*
X0077600Y0095198D01*
X0084112Y0095198D01*
X0084112Y0099360D01*
X0083989Y0099818D01*
X0083752Y0100228D01*
X0083417Y0100563D01*
X0083007Y0100800D01*
X0082549Y0100923D01*
X0077600Y0100923D01*
X0077600Y0095198D01*
X0076000Y0095198D01*
X0076000Y0100923D01*
X0071051Y0100923D01*
X0070593Y0100800D01*
X0070183Y0100563D01*
X0069848Y0100228D01*
X0069488Y0098733D02*
X0043913Y0098733D01*
X0044337Y0097134D02*
X0069488Y0097134D01*
X0069488Y0095536D02*
X0044190Y0095536D01*
X0043367Y0093937D02*
X0076000Y0093937D01*
X0076000Y0093598D02*
X0069488Y0093598D01*
X0069488Y0089437D01*
X0069611Y0088979D01*
X0069848Y0088569D01*
X0070183Y0088234D01*
X0070593Y0087997D01*
X0071051Y0087874D01*
X0076000Y0087874D01*
X0076000Y0093598D01*
X0076000Y0092339D02*
X0077600Y0092339D01*
X0077600Y0093937D02*
X0088875Y0093937D01*
X0088213Y0095536D02*
X0084112Y0095536D01*
X0084112Y0097134D02*
X0088113Y0097134D01*
X0088490Y0098733D02*
X0084112Y0098733D01*
X0083649Y0100332D02*
X0089514Y0100332D01*
X0091045Y0101930D02*
X0066680Y0101930D01*
X0067143Y0103529D02*
X0089029Y0103529D01*
X0088182Y0105127D02*
X0067143Y0105127D01*
X0067143Y0108324D02*
X0088134Y0108324D01*
X0088921Y0109923D02*
X0067077Y0109923D01*
X0066563Y0113120D02*
X0070383Y0113120D01*
X0069688Y0114718D02*
X0066943Y0114718D01*
X0061800Y0117312D02*
X0056288Y0117312D01*
X0056657Y0114718D02*
X0043851Y0114718D01*
X0043641Y0114212D02*
X0044337Y0115891D01*
X0044337Y0117709D01*
X0043641Y0119388D01*
X0042356Y0120673D01*
X0040677Y0121368D01*
X0032923Y0121368D01*
X0031244Y0120673D01*
X0029959Y0119388D01*
X0029263Y0117709D01*
X0029263Y0115891D01*
X0029959Y0114212D01*
X0031244Y0112927D01*
X0032923Y0112231D01*
X0040677Y0112231D01*
X0042356Y0112927D01*
X0043641Y0114212D01*
X0042549Y0113120D02*
X0057037Y0113120D01*
X0056523Y0109923D02*
X0043107Y0109923D01*
X0044082Y0108324D02*
X0056457Y0108324D01*
X0061025Y0109923D02*
X0062575Y0109923D01*
X0062575Y0105127D02*
X0061025Y0105127D01*
X0061025Y0103529D02*
X0062575Y0103529D01*
X0062575Y0101930D02*
X0061025Y0101930D01*
X0056920Y0101930D02*
X0026600Y0101930D01*
X0026600Y0100332D02*
X0030902Y0100332D01*
X0029687Y0098733D02*
X0026600Y0098733D01*
X0026600Y0097134D02*
X0029263Y0097134D01*
X0029410Y0095536D02*
X0026600Y0095536D01*
X0026600Y0093937D02*
X0030233Y0093937D01*
X0032663Y0092339D02*
X0026600Y0092339D01*
X0026600Y0090740D02*
X0031407Y0090740D01*
X0031244Y0090673D02*
X0029959Y0089388D01*
X0029263Y0087709D01*
X0029263Y0085891D01*
X0029959Y0084212D01*
X0031244Y0082927D01*
X0032923Y0082231D01*
X0040677Y0082231D01*
X0042356Y0082927D01*
X0043641Y0084212D01*
X0044337Y0085891D01*
X0044337Y0087709D01*
X0043641Y0089388D01*
X0042356Y0090673D01*
X0040677Y0091368D01*
X0032923Y0091368D01*
X0031244Y0090673D01*
X0029857Y0089142D02*
X0026600Y0089142D01*
X0026600Y0087543D02*
X0029263Y0087543D01*
X0029263Y0085945D02*
X0026600Y0085945D01*
X0026600Y0084346D02*
X0029903Y0084346D01*
X0031676Y0082748D02*
X0026600Y0082748D01*
X0026600Y0081149D02*
X0032394Y0081149D01*
X0032923Y0081368D02*
X0031244Y0080673D01*
X0029959Y0079388D01*
X0029263Y0077709D01*
X0029263Y0075891D01*
X0029959Y0074212D01*
X0031244Y0072927D01*
X0032923Y0072231D01*
X0040677Y0072231D01*
X0042356Y0072927D01*
X0043641Y0074212D01*
X0044337Y0075891D01*
X0044337Y0077709D01*
X0043641Y0079388D01*
X0042356Y0080673D01*
X0040677Y0081368D01*
X0032923Y0081368D01*
X0030122Y0079551D02*
X0026600Y0079551D01*
X0026600Y0077952D02*
X0029364Y0077952D01*
X0029263Y0076354D02*
X0026600Y0076354D01*
X0026600Y0074755D02*
X0029734Y0074755D01*
X0031014Y0073157D02*
X0026600Y0073157D01*
X0041206Y0081149D02*
X0090332Y0081149D01*
X0090035Y0082748D02*
X0041924Y0082748D01*
X0043697Y0084346D02*
X0088706Y0084346D01*
X0088113Y0085945D02*
X0044337Y0085945D01*
X0044337Y0087543D02*
X0088113Y0087543D01*
X0088660Y0089142D02*
X0084033Y0089142D01*
X0084112Y0090740D02*
X0089923Y0090740D01*
X0090586Y0092339D02*
X0084112Y0092339D01*
X0077600Y0090740D02*
X0076000Y0090740D01*
X0076000Y0089142D02*
X0077600Y0089142D01*
X0069567Y0089142D02*
X0043743Y0089142D01*
X0042193Y0090740D02*
X0069488Y0090740D01*
X0069488Y0092339D02*
X0040937Y0092339D01*
X0030642Y0103529D02*
X0026600Y0103529D01*
X0026600Y0105127D02*
X0029580Y0105127D01*
X0029263Y0106726D02*
X0026600Y0106726D01*
X0026600Y0108324D02*
X0029518Y0108324D01*
X0030493Y0109923D02*
X0026600Y0109923D01*
X0026600Y0111521D02*
X0090753Y0111521D01*
X0089663Y0113120D02*
X0083217Y0113120D01*
X0083912Y0114718D02*
X0088552Y0114718D01*
X0088113Y0116317D02*
X0083912Y0116317D01*
X0076800Y0119202D02*
X0094398Y0119202D01*
X0094495Y0119200D01*
X0094591Y0119194D01*
X0094688Y0119184D01*
X0094783Y0119171D01*
X0094878Y0119153D01*
X0094973Y0119132D01*
X0095066Y0119107D01*
X0095159Y0119078D01*
X0095250Y0119046D01*
X0095340Y0119010D01*
X0095428Y0118970D01*
X0095514Y0118927D01*
X0095599Y0118880D01*
X0095682Y0118830D01*
X0095762Y0118777D01*
X0095841Y0118720D01*
X0095917Y0118661D01*
X0095991Y0118598D01*
X0096062Y0118532D01*
X0096130Y0118464D01*
X0096196Y0118393D01*
X0096259Y0118319D01*
X0096318Y0118243D01*
X0096375Y0118164D01*
X0096428Y0118084D01*
X0096478Y0118001D01*
X0096525Y0117916D01*
X0096568Y0117830D01*
X0096608Y0117742D01*
X0096644Y0117652D01*
X0096676Y0117561D01*
X0096705Y0117468D01*
X0096730Y0117375D01*
X0096751Y0117280D01*
X0096769Y0117185D01*
X0096782Y0117090D01*
X0096792Y0116993D01*
X0096798Y0116897D01*
X0096800Y0116800D01*
X0103305Y0121112D02*
X0106800Y0121112D01*
X0106800Y0119514D02*
X0104786Y0119514D01*
X0105448Y0117915D02*
X0106800Y0117915D01*
X0106800Y0116317D02*
X0105487Y0116317D01*
X0105048Y0114718D02*
X0106800Y0114718D01*
X0106800Y0113120D02*
X0103937Y0113120D01*
X0102847Y0111521D02*
X0106800Y0111521D01*
X0106800Y0109923D02*
X0104679Y0109923D01*
X0105466Y0108324D02*
X0106800Y0108324D01*
X0116800Y0108324D02*
X0118321Y0108324D01*
X0118113Y0107823D02*
X0118113Y0105777D01*
X0118896Y0103887D01*
X0120343Y0102440D01*
X0121888Y0101800D01*
X0120343Y0101160D01*
X0118896Y0099713D01*
X0118113Y0097823D01*
X0118113Y0095777D01*
X0118896Y0093887D01*
X0120343Y0092440D01*
X0121653Y0091897D01*
X0121206Y0091752D01*
X0120456Y0091370D01*
X0119776Y0090876D01*
X0119181Y0090281D01*
X0118687Y0089600D01*
X0118305Y0088851D01*
X0118045Y0088051D01*
X0117913Y0087221D01*
X0117913Y0087181D01*
X0126419Y0087181D01*
X0126419Y0086419D01*
X0117913Y0086419D01*
X0117913Y0086379D01*
X0118045Y0085549D01*
X0118305Y0084749D01*
X0118687Y0083999D01*
X0119181Y0083319D01*
X0119776Y0082724D01*
X0120456Y0082230D01*
X0121206Y0081848D01*
X0121653Y0081703D01*
X0120343Y0081160D01*
X0118896Y0079713D01*
X0118113Y0077823D01*
X0118113Y0075777D01*
X0118896Y0073887D01*
X0120343Y0072440D01*
X0122234Y0071657D01*
X0131366Y0071657D01*
X0133257Y0072440D01*
X0134704Y0073887D01*
X0135487Y0075777D01*
X0135487Y0077083D01*
X0138569Y0074000D01*
X0145031Y0074000D01*
X0149600Y0078569D01*
X0149600Y0084845D01*
X0150527Y0082608D01*
X0152608Y0080527D01*
X0155328Y0079400D01*
X0165650Y0079400D01*
X0166205Y0078061D01*
X0168061Y0076205D01*
X0170487Y0075200D01*
X0173113Y0075200D01*
X0175539Y0076205D01*
X0177395Y0078061D01*
X0177950Y0079400D01*
X0178272Y0079400D01*
X0180992Y0080527D01*
X0183073Y0082608D01*
X0184200Y0085328D01*
X0184200Y0097231D01*
X0185677Y0097231D01*
X0187356Y0097927D01*
X0188641Y0099212D01*
X0188812Y0099624D01*
X0190992Y0100527D01*
X0193073Y0102608D01*
X0194200Y0105328D01*
X0194200Y0106800D01*
X0194250Y0107307D01*
X0194638Y0108244D01*
X0195356Y0108962D01*
X0196293Y0109350D01*
X0196800Y0109400D01*
X0256800Y0109400D01*
X0257307Y0109350D01*
X0258244Y0108962D01*
X0258962Y0108244D01*
X0259350Y0107307D01*
X0259400Y0106800D01*
X0259400Y0101800D01*
X0259350Y0101293D01*
X0258962Y0100356D01*
X0258244Y0099638D01*
X0257307Y0099250D01*
X0256800Y0099200D01*
X0253260Y0099200D01*
X0254713Y0099802D01*
X0256160Y0101249D01*
X0256943Y0103139D01*
X0256943Y0105185D01*
X0256160Y0107076D01*
X0254713Y0108522D01*
X0252823Y0109305D01*
X0250777Y0109305D01*
X0248887Y0108522D01*
X0247440Y0107076D01*
X0246657Y0105185D01*
X0246657Y0103139D01*
X0247440Y0101249D01*
X0248887Y0099802D01*
X0250340Y0099200D01*
X0240340Y0099200D01*
X0239179Y0100361D01*
X0237635Y0101000D01*
X0235965Y0101000D01*
X0234421Y0100361D01*
X0233239Y0099179D01*
X0232600Y0097635D01*
X0232600Y0095965D01*
X0233239Y0094421D01*
X0234400Y0093260D01*
X0234400Y0085340D01*
X0232600Y0083540D01*
X0232600Y0080060D01*
X0234400Y0078260D01*
X0234400Y0057867D01*
X0233113Y0058400D01*
X0230487Y0058400D01*
X0228061Y0057395D01*
X0226205Y0055539D01*
X0225200Y0053113D01*
X0225200Y0050487D01*
X0226205Y0048061D01*
X0228061Y0046205D01*
X0230487Y0045200D01*
X0233113Y0045200D01*
X0235539Y0046205D01*
X0237395Y0048061D01*
X0238400Y0050487D01*
X0238400Y0053113D01*
X0238341Y0053255D01*
X0239200Y0055328D01*
X0239200Y0078260D01*
X0241000Y0080060D01*
X0241000Y0083540D01*
X0239200Y0085340D01*
X0239200Y0093260D01*
X0240340Y0094400D01*
X0247909Y0094400D01*
X0247489Y0094078D01*
X0246884Y0093473D01*
X0246364Y0092795D01*
X0245936Y0092054D01*
X0245609Y0091264D01*
X0245387Y0090438D01*
X0245321Y0089937D01*
X0251025Y0089937D01*
X0251025Y0088387D01*
X0252575Y0088387D01*
X0252575Y0082684D01*
X0253076Y0082749D01*
X0253902Y0082971D01*
X0254692Y0083298D01*
X0255433Y0083726D01*
X0256111Y0084246D01*
X0256716Y0084851D01*
X0257236Y0085530D01*
X0257664Y0086270D01*
X0257991Y0087060D01*
X0258213Y0087887D01*
X0258279Y0088387D01*
X0252575Y0088387D01*
X0252575Y0089937D01*
X0258279Y0089937D01*
X0258213Y0090438D01*
X0257991Y0091264D01*
X0257664Y0092054D01*
X0257236Y0092795D01*
X0256716Y0093473D01*
X0256111Y0094078D01*
X0255691Y0094400D01*
X0258272Y0094400D01*
X0260992Y0095527D01*
X0263073Y0097608D01*
X0264200Y0100328D01*
X0264200Y0108272D01*
X0263073Y0110992D01*
X0260992Y0113073D01*
X0260992Y0113073D01*
X0258272Y0114200D01*
X0255782Y0114200D01*
X0257162Y0115580D01*
X0258124Y0117904D01*
X0258124Y0120420D01*
X0257162Y0122745D01*
X0255382Y0124524D01*
X0253058Y0125487D01*
X0250542Y0125487D01*
X0248218Y0124524D01*
X0246438Y0122745D01*
X0245476Y0120420D01*
X0245476Y0117904D01*
X0246438Y0115580D01*
X0247818Y0114200D01*
X0195328Y0114200D01*
X0192608Y0113073D01*
X0190527Y0110992D01*
X0189400Y0108272D01*
X0189400Y0106800D01*
X0189350Y0106293D01*
X0188962Y0105356D01*
X0188318Y0104712D01*
X0187356Y0105673D01*
X0185677Y0106368D01*
X0177923Y0106368D01*
X0176244Y0105673D01*
X0174959Y0104388D01*
X0174263Y0102709D01*
X0174263Y0100891D01*
X0174959Y0099212D01*
X0176244Y0097927D01*
X0177923Y0097231D01*
X0179400Y0097231D01*
X0179400Y0086800D01*
X0179350Y0086293D01*
X0178962Y0085356D01*
X0178244Y0084638D01*
X0177838Y0084470D01*
X0177395Y0085539D01*
X0175539Y0087395D01*
X0173113Y0088400D01*
X0170487Y0088400D01*
X0168061Y0087395D01*
X0166205Y0085539D01*
X0165650Y0084200D01*
X0156800Y0084200D01*
X0156293Y0084250D01*
X0155355Y0084638D01*
X0154638Y0085355D01*
X0154250Y0086293D01*
X0154200Y0086800D01*
X0154200Y0098272D01*
X0153073Y0100992D01*
X0150992Y0103073D01*
X0150992Y0103073D01*
X0148272Y0104200D01*
X0145340Y0104200D01*
X0143540Y0106000D01*
X0143065Y0106000D01*
X0140992Y0108073D01*
X0140992Y0108073D01*
X0138272Y0109200D01*
X0134916Y0109200D01*
X0134704Y0109713D01*
X0133257Y0111160D01*
X0131712Y0111800D01*
X0133257Y0112440D01*
X0134704Y0113887D01*
X0134916Y0114400D01*
X0138272Y0114400D01*
X0140992Y0115527D01*
X0143065Y0117600D01*
X0143540Y0117600D01*
X0145340Y0119400D01*
X0153272Y0119400D01*
X0155992Y0120527D01*
X0157400Y0121935D01*
X0157400Y0121800D01*
X0161800Y0121800D01*
X0161800Y0121800D01*
X0161800Y0126200D01*
X0163623Y0126200D01*
X0166200Y0123623D01*
X0166200Y0121800D01*
X0161800Y0121800D01*
X0161800Y0121800D01*
X0161800Y0126200D01*
X0159977Y0126200D01*
X0159200Y0125423D01*
X0159200Y0136800D01*
X0159250Y0137307D01*
X0159638Y0138244D01*
X0160356Y0138962D01*
X0161293Y0139350D01*
X0161800Y0139400D01*
X0165200Y0139400D01*
X0165200Y0139066D01*
X0169066Y0135200D01*
X0174534Y0135200D01*
X0178270Y0138936D01*
X0178962Y0138244D01*
X0179350Y0137307D01*
X0179400Y0136800D01*
X0179400Y0126368D01*
X0177923Y0126368D01*
X0176244Y0125673D01*
X0174959Y0124388D01*
X0174263Y0122709D01*
X0174263Y0120891D01*
X0174959Y0119212D01*
X0176244Y0117927D01*
X0177923Y0117231D01*
X0185677Y0117231D01*
X0187356Y0117927D01*
X0188641Y0119212D01*
X0189337Y0120891D01*
X0189337Y0122709D01*
X0188641Y0124388D01*
X0188629Y0124400D01*
X0203260Y0124400D01*
X0204421Y0123239D01*
X0205965Y0122600D01*
X0207635Y0122600D01*
X0209179Y0123239D01*
X0210361Y0124421D01*
X0211000Y0125965D01*
X0211000Y0127635D01*
X0210361Y0129179D01*
X0209200Y0130340D01*
X0209200Y0138260D01*
X0211000Y0140060D01*
X0211000Y0143540D01*
X0209200Y0145340D01*
X0209200Y0155200D01*
X0214534Y0155200D01*
X0218400Y0159066D01*
X0218400Y0164534D01*
X0214534Y0168400D01*
X0209066Y0168400D01*
X0205200Y0164534D01*
X0205200Y0160203D01*
X0204400Y0158272D01*
X0204400Y0145340D01*
X0202600Y0143540D01*
X0202600Y0140060D01*
X0204400Y0138260D01*
X0204400Y0130340D01*
X0203260Y0129200D01*
X0185328Y0129200D01*
X0184200Y0128733D01*
X0184200Y0138272D01*
X0183073Y0140992D01*
X0180992Y0143073D01*
X0180992Y0143073D01*
X0178400Y0144147D01*
X0178400Y0144534D01*
X0174534Y0148400D01*
X0169066Y0148400D01*
X0165200Y0144534D01*
X0165200Y0144200D01*
X0160328Y0144200D01*
X0157608Y0143073D01*
X0155527Y0140992D01*
X0154400Y0138272D01*
X0154400Y0126800D01*
X0154350Y0126293D01*
X0153962Y0125356D01*
X0153244Y0124638D01*
X0152307Y0124250D01*
X0151800Y0124200D01*
X0145340Y0124200D01*
X0143540Y0126000D01*
X0140060Y0126000D01*
X0137600Y0123540D01*
X0137600Y0120060D01*
X0138087Y0119573D01*
X0137307Y0119250D01*
X0136800Y0119200D01*
X0134916Y0119200D01*
X0134704Y0119713D01*
X0133257Y0121160D01*
X0131712Y0121800D01*
X0133257Y0122440D01*
X0134704Y0123887D01*
X0135487Y0125777D01*
X0135487Y0127823D01*
X0134704Y0129713D01*
X0133257Y0131160D01*
X0131947Y0131703D01*
X0132394Y0131848D01*
X0133144Y0132230D01*
X0133824Y0132724D01*
X0134419Y0133319D01*
X0134913Y0133999D01*
X0135295Y0134749D01*
X0135555Y0135549D01*
X0135687Y0136379D01*
X0135687Y0136419D01*
X0127181Y0136419D01*
X0127181Y0137181D01*
X0135388Y0137181D01*
X0138569Y0134000D01*
X0145031Y0134000D01*
X0149600Y0138569D01*
X0149600Y0145031D01*
X0145031Y0149600D01*
X0138569Y0149600D01*
X0135487Y0146517D01*
X0135487Y0147823D01*
X0134704Y0149713D01*
X0133257Y0151160D01*
X0131366Y0151943D01*
X0122234Y0151943D01*
X0120343Y0151160D01*
X0118896Y0149713D01*
X0118113Y0147823D01*
X0118113Y0145777D01*
X0118896Y0143887D01*
X0120343Y0142440D01*
X0121653Y0141897D01*
X0121206Y0141752D01*
X0120456Y0141370D01*
X0119776Y0140876D01*
X0119181Y0140281D01*
X0118687Y0139600D01*
X0118305Y0138851D01*
X0118045Y0138051D01*
X0117913Y0137221D01*
X0117913Y0137181D01*
X0126419Y0137181D01*
X0126419Y0136419D01*
X0117913Y0136419D01*
X0117913Y0136379D01*
X0118045Y0135549D01*
X0118305Y0134749D01*
X0118687Y0133999D01*
X0119181Y0133319D01*
X0119776Y0132724D01*
X0120456Y0132230D01*
X0121206Y0131848D01*
X0121653Y0131703D01*
X0120343Y0131160D01*
X0118896Y0129713D01*
X0118113Y0127823D01*
X0118113Y0125777D01*
X0118896Y0123887D01*
X0120343Y0122440D01*
X0121888Y0121800D01*
X0120343Y0121160D01*
X0118896Y0119713D01*
X0118113Y0117823D01*
X0118113Y0115777D01*
X0118896Y0113887D01*
X0120343Y0112440D01*
X0121888Y0111800D01*
X0120343Y0111160D01*
X0118896Y0109713D01*
X0118113Y0107823D01*
X0118113Y0106726D02*
X0116800Y0106726D01*
X0116800Y0105127D02*
X0118383Y0105127D01*
X0119254Y0103529D02*
X0116800Y0103529D01*
X0116800Y0101930D02*
X0121574Y0101930D01*
X0119514Y0100332D02*
X0116800Y0100332D01*
X0116800Y0098733D02*
X0118490Y0098733D01*
X0118113Y0097134D02*
X0116800Y0097134D01*
X0116800Y0095536D02*
X0118213Y0095536D01*
X0118875Y0093937D02*
X0116800Y0093937D01*
X0116800Y0092339D02*
X0120586Y0092339D01*
X0119641Y0090740D02*
X0116800Y0090740D01*
X0116800Y0089142D02*
X0118453Y0089142D01*
X0117965Y0087543D02*
X0116800Y0087543D01*
X0116800Y0085945D02*
X0117982Y0085945D01*
X0118510Y0084346D02*
X0116800Y0084346D01*
X0116800Y0082748D02*
X0119752Y0082748D01*
X0120332Y0081149D02*
X0116800Y0081149D01*
X0116800Y0079551D02*
X0118829Y0079551D01*
X0118167Y0077952D02*
X0116800Y0077952D01*
X0116800Y0076354D02*
X0118113Y0076354D01*
X0118537Y0074755D02*
X0116800Y0074755D01*
X0116800Y0073157D02*
X0119626Y0073157D01*
X0116800Y0071558D02*
X0234400Y0071558D01*
X0234400Y0069960D02*
X0116800Y0069960D01*
X0116800Y0068361D02*
X0168745Y0068361D01*
X0168983Y0068600D02*
X0165000Y0064617D01*
X0165000Y0062000D01*
X0171600Y0062000D01*
X0171600Y0068600D01*
X0168983Y0068600D01*
X0167146Y0066763D02*
X0116800Y0066763D01*
X0116800Y0065164D02*
X0128942Y0065164D01*
X0129977Y0066200D02*
X0127400Y0063623D01*
X0127400Y0061800D01*
X0131800Y0061800D01*
X0136200Y0061800D01*
X0136200Y0063623D01*
X0133623Y0066200D01*
X0131800Y0066200D01*
X0131800Y0061800D01*
X0131800Y0061800D01*
X0131800Y0061800D01*
X0136200Y0061800D01*
X0136200Y0059977D01*
X0133623Y0057400D01*
X0131800Y0057400D01*
X0131800Y0061800D01*
X0131800Y0061800D01*
X0131800Y0061800D01*
X0131800Y0066200D01*
X0129977Y0066200D01*
X0131800Y0065164D02*
X0131800Y0065164D01*
X0131800Y0063566D02*
X0131800Y0063566D01*
X0131800Y0061967D02*
X0131800Y0061967D01*
X0131800Y0061800D02*
X0127400Y0061800D01*
X0127400Y0059977D01*
X0129977Y0057400D01*
X0131800Y0057400D01*
X0131800Y0061800D01*
X0131800Y0060369D02*
X0131800Y0060369D01*
X0131800Y0058770D02*
X0131800Y0058770D01*
X0134993Y0058770D02*
X0165213Y0058770D01*
X0165000Y0058983D02*
X0168983Y0055000D01*
X0171600Y0055000D01*
X0171600Y0061600D01*
X0165000Y0061600D01*
X0165000Y0058983D01*
X0165000Y0060369D02*
X0136200Y0060369D01*
X0136200Y0061967D02*
X0171600Y0061967D01*
X0171600Y0062000D02*
X0171600Y0061600D01*
X0172000Y0061600D01*
X0172000Y0062000D01*
X0171600Y0062000D01*
X0172000Y0062000D02*
X0172000Y0068600D01*
X0174617Y0068600D01*
X0178600Y0064617D01*
X0178600Y0062000D01*
X0172000Y0062000D01*
X0172000Y0061967D02*
X0234400Y0061967D01*
X0234400Y0060369D02*
X0178600Y0060369D01*
X0178600Y0061600D02*
X0172000Y0061600D01*
X0172000Y0055000D01*
X0174617Y0055000D01*
X0178600Y0058983D01*
X0178600Y0061600D01*
X0178600Y0063566D02*
X0234400Y0063566D01*
X0234400Y0065164D02*
X0178052Y0065164D01*
X0176454Y0066763D02*
X0234400Y0066763D01*
X0234400Y0068361D02*
X0174855Y0068361D01*
X0172000Y0068361D02*
X0171600Y0068361D01*
X0171600Y0066763D02*
X0172000Y0066763D01*
X0172000Y0065164D02*
X0171600Y0065164D01*
X0171600Y0063566D02*
X0172000Y0063566D01*
X0172000Y0060369D02*
X0171600Y0060369D01*
X0171600Y0058770D02*
X0172000Y0058770D01*
X0172000Y0057172D02*
X0171600Y0057172D01*
X0171600Y0055573D02*
X0172000Y0055573D01*
X0175190Y0055573D02*
X0205957Y0055573D01*
X0205000Y0054617D02*
X0205000Y0052000D01*
X0211600Y0052000D01*
X0211600Y0058600D01*
X0208983Y0058600D01*
X0205000Y0054617D01*
X0205000Y0053975D02*
X0116800Y0053975D01*
X0116800Y0055573D02*
X0168410Y0055573D01*
X0166812Y0057172D02*
X0116800Y0057172D01*
X0116800Y0058770D02*
X0128607Y0058770D01*
X0127400Y0060369D02*
X0116800Y0060369D01*
X0116800Y0061967D02*
X0127400Y0061967D01*
X0127400Y0063566D02*
X0116800Y0063566D01*
X0133974Y0073157D02*
X0234400Y0073157D01*
X0234400Y0074755D02*
X0145786Y0074755D01*
X0147385Y0076354D02*
X0167912Y0076354D01*
X0166314Y0077952D02*
X0148983Y0077952D01*
X0149600Y0079551D02*
X0154964Y0079551D01*
X0152608Y0080527D02*
X0152608Y0080527D01*
X0151985Y0081149D02*
X0149600Y0081149D01*
X0149600Y0082748D02*
X0150469Y0082748D01*
X0150527Y0082608D02*
X0150527Y0082608D01*
X0149807Y0084346D02*
X0149600Y0084346D01*
X0149469Y0085162D02*
X0145031Y0089600D01*
X0138569Y0089600D01*
X0135388Y0086419D01*
X0127181Y0086419D01*
X0127181Y0087181D01*
X0135687Y0087181D01*
X0135687Y0087221D01*
X0135555Y0088051D01*
X0135295Y0088851D01*
X0134913Y0089600D01*
X0134419Y0090281D01*
X0133824Y0090876D01*
X0133144Y0091370D01*
X0132394Y0091752D01*
X0131947Y0091897D01*
X0133257Y0092440D01*
X0134704Y0093887D01*
X0135487Y0095777D01*
X0135487Y0097823D01*
X0134704Y0099713D01*
X0133257Y0101160D01*
X0131712Y0101800D01*
X0133257Y0102440D01*
X0134704Y0103887D01*
X0134916Y0104400D01*
X0136800Y0104400D01*
X0137307Y0104350D01*
X0138087Y0104027D01*
X0137600Y0103540D01*
X0137600Y0100060D01*
X0140060Y0097600D01*
X0143540Y0097600D01*
X0145340Y0099400D01*
X0146800Y0099400D01*
X0147307Y0099350D01*
X0148244Y0098962D01*
X0148962Y0098244D01*
X0149350Y0097307D01*
X0149400Y0096800D01*
X0149400Y0085328D01*
X0149469Y0085162D01*
X0149400Y0085945D02*
X0148686Y0085945D01*
X0149400Y0087543D02*
X0147087Y0087543D01*
X0145489Y0089142D02*
X0149400Y0089142D01*
X0149400Y0090740D02*
X0133959Y0090740D01*
X0133014Y0092339D02*
X0149400Y0092339D01*
X0149400Y0093937D02*
X0134725Y0093937D01*
X0135387Y0095536D02*
X0149400Y0095536D01*
X0149367Y0097134D02*
X0135487Y0097134D01*
X0135110Y0098733D02*
X0138927Y0098733D01*
X0137600Y0100332D02*
X0134086Y0100332D01*
X0132026Y0101930D02*
X0137600Y0101930D01*
X0141800Y0101800D02*
X0141798Y0101940D01*
X0141792Y0102080D01*
X0141782Y0102220D01*
X0141769Y0102360D01*
X0141751Y0102499D01*
X0141729Y0102638D01*
X0141704Y0102775D01*
X0141675Y0102913D01*
X0141642Y0103049D01*
X0141605Y0103184D01*
X0141564Y0103318D01*
X0141519Y0103451D01*
X0141471Y0103583D01*
X0141419Y0103713D01*
X0141364Y0103842D01*
X0141305Y0103969D01*
X0141242Y0104095D01*
X0141176Y0104219D01*
X0141107Y0104340D01*
X0141034Y0104460D01*
X0140957Y0104578D01*
X0140878Y0104693D01*
X0140795Y0104807D01*
X0140709Y0104917D01*
X0140620Y0105026D01*
X0140528Y0105132D01*
X0140433Y0105235D01*
X0140336Y0105336D01*
X0140235Y0105433D01*
X0140132Y0105528D01*
X0140026Y0105620D01*
X0139917Y0105709D01*
X0139807Y0105795D01*
X0139693Y0105878D01*
X0139578Y0105957D01*
X0139460Y0106034D01*
X0139340Y0106107D01*
X0139219Y0106176D01*
X0139095Y0106242D01*
X0138969Y0106305D01*
X0138842Y0106364D01*
X0138713Y0106419D01*
X0138583Y0106471D01*
X0138451Y0106519D01*
X0138318Y0106564D01*
X0138184Y0106605D01*
X0138049Y0106642D01*
X0137913Y0106675D01*
X0137775Y0106704D01*
X0137638Y0106729D01*
X0137499Y0106751D01*
X0137360Y0106769D01*
X0137220Y0106782D01*
X0137080Y0106792D01*
X0136940Y0106798D01*
X0136800Y0106800D01*
X0126800Y0106800D01*
X0119106Y0109923D02*
X0116800Y0109923D01*
X0116800Y0111521D02*
X0121214Y0111521D01*
X0119663Y0113120D02*
X0116800Y0113120D01*
X0116800Y0114718D02*
X0118552Y0114718D01*
X0118113Y0116317D02*
X0116800Y0116317D01*
X0116800Y0117915D02*
X0118152Y0117915D01*
X0118814Y0119514D02*
X0116800Y0119514D01*
X0116800Y0121112D02*
X0120295Y0121112D01*
X0120072Y0122711D02*
X0116800Y0122711D01*
X0116800Y0124309D02*
X0118721Y0124309D01*
X0118113Y0125908D02*
X0116800Y0125908D01*
X0116800Y0127506D02*
X0118113Y0127506D01*
X0118644Y0129105D02*
X0116800Y0129105D01*
X0116800Y0130703D02*
X0119886Y0130703D01*
X0120357Y0132302D02*
X0116800Y0132302D01*
X0116800Y0133900D02*
X0118759Y0133900D01*
X0118061Y0135499D02*
X0116800Y0135499D01*
X0116800Y0137097D02*
X0126419Y0137097D01*
X0127181Y0137097D02*
X0135472Y0137097D01*
X0135539Y0135499D02*
X0137070Y0135499D01*
X0134841Y0133900D02*
X0154400Y0133900D01*
X0154400Y0132302D02*
X0133243Y0132302D01*
X0133714Y0130703D02*
X0154400Y0130703D01*
X0154400Y0129105D02*
X0134956Y0129105D01*
X0135487Y0127506D02*
X0154400Y0127506D01*
X0154191Y0125908D02*
X0143632Y0125908D01*
X0145230Y0124309D02*
X0152450Y0124309D01*
X0151800Y0121800D02*
X0141800Y0121800D01*
X0138370Y0124309D02*
X0134879Y0124309D01*
X0135487Y0125908D02*
X0139968Y0125908D01*
X0137600Y0122711D02*
X0133528Y0122711D01*
X0133305Y0121112D02*
X0137600Y0121112D01*
X0141800Y0121800D02*
X0141798Y0121660D01*
X0141792Y0121520D01*
X0141782Y0121380D01*
X0141769Y0121240D01*
X0141751Y0121101D01*
X0141729Y0120962D01*
X0141704Y0120825D01*
X0141675Y0120687D01*
X0141642Y0120551D01*
X0141605Y0120416D01*
X0141564Y0120282D01*
X0141519Y0120149D01*
X0141471Y0120017D01*
X0141419Y0119887D01*
X0141364Y0119758D01*
X0141305Y0119631D01*
X0141242Y0119505D01*
X0141176Y0119381D01*
X0141107Y0119260D01*
X0141034Y0119140D01*
X0140957Y0119022D01*
X0140878Y0118907D01*
X0140795Y0118793D01*
X0140709Y0118683D01*
X0140620Y0118574D01*
X0140528Y0118468D01*
X0140433Y0118365D01*
X0140336Y0118264D01*
X0140235Y0118167D01*
X0140132Y0118072D01*
X0140026Y0117980D01*
X0139917Y0117891D01*
X0139807Y0117805D01*
X0139693Y0117722D01*
X0139578Y0117643D01*
X0139460Y0117566D01*
X0139340Y0117493D01*
X0139219Y0117424D01*
X0139095Y0117358D01*
X0138969Y0117295D01*
X0138842Y0117236D01*
X0138713Y0117181D01*
X0138583Y0117129D01*
X0138451Y0117081D01*
X0138318Y0117036D01*
X0138184Y0116995D01*
X0138049Y0116958D01*
X0137913Y0116925D01*
X0137775Y0116896D01*
X0137638Y0116871D01*
X0137499Y0116849D01*
X0137360Y0116831D01*
X0137220Y0116818D01*
X0137080Y0116808D01*
X0136940Y0116802D01*
X0136800Y0116800D01*
X0126800Y0116800D01*
X0132386Y0111521D02*
X0174063Y0111521D01*
X0174063Y0111616D02*
X0174063Y0111425D01*
X0174180Y0110683D01*
X0174412Y0109970D01*
X0174753Y0109301D01*
X0175194Y0108694D01*
X0175725Y0108163D01*
X0176332Y0107722D01*
X0177001Y0107381D01*
X0177715Y0107149D01*
X0178456Y0107031D01*
X0181616Y0107031D01*
X0181616Y0111616D01*
X0181984Y0111616D01*
X0181984Y0107031D01*
X0185144Y0107031D01*
X0185885Y0107149D01*
X0186599Y0107381D01*
X0187268Y0107722D01*
X0187875Y0108163D01*
X0188406Y0108694D01*
X0188847Y0109301D01*
X0189188Y0109970D01*
X0189420Y0110683D01*
X0189537Y0111425D01*
X0189537Y0111616D01*
X0181984Y0111616D01*
X0181984Y0111984D01*
X0181616Y0111984D01*
X0181616Y0111616D01*
X0174063Y0111616D01*
X0174063Y0111984D02*
X0181616Y0111984D01*
X0181616Y0116568D01*
X0178456Y0116568D01*
X0177715Y0116451D01*
X0177001Y0116219D01*
X0176332Y0115878D01*
X0175725Y0115437D01*
X0175194Y0114906D01*
X0174753Y0114299D01*
X0174412Y0113630D01*
X0174180Y0112917D01*
X0174063Y0112175D01*
X0174063Y0111984D01*
X0174246Y0113120D02*
X0133937Y0113120D01*
X0134494Y0109923D02*
X0174436Y0109923D01*
X0175564Y0108324D02*
X0140387Y0108324D01*
X0142340Y0106726D02*
X0189393Y0106726D01*
X0189422Y0108324D02*
X0188036Y0108324D01*
X0189164Y0109923D02*
X0190084Y0109923D01*
X0190527Y0110992D02*
X0190527Y0110992D01*
X0191056Y0111521D02*
X0189537Y0111521D01*
X0189537Y0111984D02*
X0189537Y0112175D01*
X0189420Y0112917D01*
X0189188Y0113630D01*
X0188847Y0114299D01*
X0188406Y0114906D01*
X0187875Y0115437D01*
X0187268Y0115878D01*
X0186599Y0116219D01*
X0185885Y0116451D01*
X0185144Y0116568D01*
X0181984Y0116568D01*
X0181984Y0111984D01*
X0189537Y0111984D01*
X0189354Y0113120D02*
X0192720Y0113120D01*
X0192608Y0113073D02*
X0192608Y0113073D01*
X0196800Y0111800D02*
X0256800Y0111800D01*
X0256300Y0114718D02*
X0269400Y0114718D01*
X0269400Y0113120D02*
X0260880Y0113120D01*
X0262544Y0111521D02*
X0269400Y0111521D01*
X0269400Y0109923D02*
X0263516Y0109923D01*
X0263073Y0110992D02*
X0263073Y0110992D01*
X0264178Y0108324D02*
X0268688Y0108324D01*
X0268887Y0108522D02*
X0267440Y0107076D01*
X0266657Y0105185D01*
X0266657Y0103139D01*
X0267440Y0101249D01*
X0268887Y0099802D01*
X0270777Y0099019D01*
X0272823Y0099019D01*
X0274713Y0099802D01*
X0276160Y0101249D01*
X0276943Y0103139D01*
X0276943Y0105185D01*
X0276160Y0107076D01*
X0274713Y0108522D01*
X0274200Y0108735D01*
X0274200Y0155175D01*
X0274544Y0155175D01*
X0278425Y0159056D01*
X0278425Y0164544D01*
X0274544Y0168425D01*
X0269056Y0168425D01*
X0265175Y0164544D01*
X0265175Y0159056D01*
X0269056Y0155175D01*
X0269400Y0155175D01*
X0269400Y0108735D01*
X0268887Y0108522D01*
X0267295Y0106726D02*
X0264200Y0106726D01*
X0264200Y0105127D02*
X0266657Y0105127D01*
X0266657Y0103529D02*
X0264200Y0103529D01*
X0264200Y0101930D02*
X0267158Y0101930D01*
X0268357Y0100332D02*
X0264200Y0100332D01*
X0263539Y0098733D02*
X0316921Y0098733D01*
X0316921Y0097134D02*
X0262600Y0097134D01*
X0263073Y0097608D02*
X0263073Y0097608D01*
X0261001Y0095536D02*
X0281931Y0095536D01*
X0282297Y0095902D02*
X0280061Y0093665D01*
X0278850Y0090743D01*
X0278850Y0087581D01*
X0280061Y0084659D01*
X0282297Y0082423D01*
X0285219Y0081213D01*
X0288381Y0081213D01*
X0291303Y0082423D01*
X0293539Y0084659D01*
X0294750Y0087581D01*
X0294750Y0090743D01*
X0293539Y0093665D01*
X0291303Y0095902D01*
X0288381Y0097112D01*
X0285219Y0097112D01*
X0282297Y0095902D01*
X0280333Y0093937D02*
X0256252Y0093937D01*
X0257500Y0092339D02*
X0279511Y0092339D01*
X0278850Y0090740D02*
X0258132Y0090740D01*
X0258121Y0087543D02*
X0278866Y0087543D01*
X0278850Y0089142D02*
X0252575Y0089142D01*
X0251025Y0089142D02*
X0239200Y0089142D01*
X0239200Y0090740D02*
X0245468Y0090740D01*
X0246100Y0092339D02*
X0239200Y0092339D01*
X0239877Y0093937D02*
X0247348Y0093937D01*
X0245321Y0088387D02*
X0245387Y0087887D01*
X0245609Y0087060D01*
X0245936Y0086270D01*
X0246364Y0085530D01*
X0246884Y0084851D01*
X0247489Y0084246D01*
X0248167Y0083726D01*
X0248908Y0083298D01*
X0249698Y0082971D01*
X0250524Y0082749D01*
X0251025Y0082684D01*
X0251025Y0088387D01*
X0245321Y0088387D01*
X0245479Y0087543D02*
X0239200Y0087543D01*
X0239200Y0085945D02*
X0246124Y0085945D01*
X0247389Y0084346D02*
X0240193Y0084346D01*
X0241000Y0082748D02*
X0250536Y0082748D01*
X0251025Y0082748D02*
X0252575Y0082748D01*
X0253064Y0082748D02*
X0281972Y0082748D01*
X0280373Y0084346D02*
X0256211Y0084346D01*
X0257476Y0085945D02*
X0279528Y0085945D01*
X0291628Y0082748D02*
X0316921Y0082748D01*
X0316921Y0084346D02*
X0293227Y0084346D01*
X0294072Y0085945D02*
X0316921Y0085945D01*
X0316921Y0087543D02*
X0294734Y0087543D01*
X0294750Y0089142D02*
X0316921Y0089142D01*
X0316921Y0090740D02*
X0294750Y0090740D01*
X0294089Y0092339D02*
X0316921Y0092339D01*
X0316921Y0093937D02*
X0293267Y0093937D01*
X0291669Y0095536D02*
X0316921Y0095536D01*
X0316921Y0100332D02*
X0275243Y0100332D01*
X0276442Y0101930D02*
X0316921Y0101930D01*
X0316921Y0103529D02*
X0276943Y0103529D01*
X0276943Y0105127D02*
X0316921Y0105127D01*
X0316921Y0106726D02*
X0276305Y0106726D01*
X0274912Y0108324D02*
X0316921Y0108324D01*
X0316921Y0109923D02*
X0274200Y0109923D01*
X0274200Y0111521D02*
X0304474Y0111521D01*
X0305219Y0111213D02*
X0308381Y0111213D01*
X0311303Y0112423D01*
X0313539Y0114659D01*
X0314750Y0117581D01*
X0314750Y0120743D01*
X0313539Y0123665D01*
X0311303Y0125902D01*
X0308381Y0127112D01*
X0305219Y0127112D01*
X0302297Y0125902D01*
X0300061Y0123665D01*
X0298850Y0120743D01*
X0298850Y0117581D01*
X0300061Y0114659D01*
X0302297Y0112423D01*
X0305219Y0111213D01*
X0309126Y0111521D02*
X0316921Y0111521D01*
X0316921Y0113120D02*
X0312000Y0113120D01*
X0313564Y0114718D02*
X0316921Y0114718D01*
X0316921Y0116317D02*
X0314226Y0116317D01*
X0314750Y0117915D02*
X0316921Y0117915D01*
X0316921Y0119514D02*
X0314750Y0119514D01*
X0314597Y0121112D02*
X0316921Y0121112D01*
X0316921Y0122711D02*
X0313935Y0122711D01*
X0312895Y0124309D02*
X0316921Y0124309D01*
X0316921Y0125908D02*
X0311288Y0125908D01*
X0316921Y0127506D02*
X0274200Y0127506D01*
X0274200Y0125908D02*
X0302312Y0125908D01*
X0300705Y0124309D02*
X0274200Y0124309D01*
X0274200Y0122711D02*
X0299665Y0122711D01*
X0299003Y0121112D02*
X0274200Y0121112D01*
X0274200Y0119514D02*
X0298850Y0119514D01*
X0298850Y0117915D02*
X0274200Y0117915D01*
X0274200Y0116317D02*
X0299374Y0116317D01*
X0300036Y0114718D02*
X0274200Y0114718D01*
X0274200Y0113120D02*
X0301600Y0113120D01*
X0316921Y0129105D02*
X0274200Y0129105D01*
X0274200Y0130703D02*
X0316921Y0130703D01*
X0316921Y0132302D02*
X0274200Y0132302D01*
X0274200Y0133900D02*
X0316921Y0133900D01*
X0316921Y0135499D02*
X0274200Y0135499D01*
X0274200Y0137097D02*
X0316921Y0137097D01*
X0316921Y0138696D02*
X0274200Y0138696D01*
X0274200Y0140294D02*
X0316921Y0140294D01*
X0316921Y0141893D02*
X0274200Y0141893D01*
X0274200Y0143491D02*
X0316921Y0143491D01*
X0316921Y0145090D02*
X0274200Y0145090D01*
X0274200Y0146688D02*
X0316921Y0146688D01*
X0316921Y0148287D02*
X0274200Y0148287D01*
X0274200Y0149885D02*
X0316921Y0149885D01*
X0316921Y0151484D02*
X0274200Y0151484D01*
X0274200Y0153082D02*
X0316921Y0153082D01*
X0316921Y0154681D02*
X0274200Y0154681D01*
X0275649Y0156279D02*
X0282669Y0156279D01*
X0283973Y0154975D02*
X0279975Y0158973D01*
X0279975Y0161000D01*
X0286000Y0161000D01*
X0287600Y0161000D01*
X0287600Y0162600D01*
X0293625Y0162600D01*
X0293625Y0164627D01*
X0289627Y0168625D01*
X0287600Y0168625D01*
X0287600Y0162600D01*
X0286000Y0162600D01*
X0286000Y0168625D01*
X0283973Y0168625D01*
X0279975Y0164627D01*
X0279975Y0162600D01*
X0286000Y0162600D01*
X0286000Y0161000D01*
X0286000Y0154975D01*
X0283973Y0154975D01*
X0286000Y0156279D02*
X0287600Y0156279D01*
X0287600Y0154975D02*
X0289627Y0154975D01*
X0293625Y0158973D01*
X0293625Y0161000D01*
X0287600Y0161000D01*
X0287600Y0154975D01*
X0290931Y0156279D02*
X0316921Y0156279D01*
X0316921Y0157878D02*
X0292530Y0157878D01*
X0293625Y0159476D02*
X0316921Y0159476D01*
X0316921Y0161075D02*
X0287600Y0161075D01*
X0287600Y0162673D02*
X0286000Y0162673D01*
X0286000Y0161075D02*
X0278425Y0161075D01*
X0278425Y0162673D02*
X0279975Y0162673D01*
X0279975Y0164272D02*
X0278425Y0164272D01*
X0277099Y0165870D02*
X0281218Y0165870D01*
X0282817Y0167469D02*
X0275500Y0167469D01*
X0271800Y0161800D02*
X0271800Y0104162D01*
X0261800Y0101800D02*
X0261800Y0106800D01*
X0259400Y0106726D02*
X0256305Y0106726D01*
X0256800Y0111800D02*
X0256940Y0111798D01*
X0257080Y0111792D01*
X0257220Y0111782D01*
X0257360Y0111769D01*
X0257499Y0111751D01*
X0257638Y0111729D01*
X0257775Y0111704D01*
X0257913Y0111675D01*
X0258049Y0111642D01*
X0258184Y0111605D01*
X0258318Y0111564D01*
X0258451Y0111519D01*
X0258583Y0111471D01*
X0258713Y0111419D01*
X0258842Y0111364D01*
X0258969Y0111305D01*
X0259095Y0111242D01*
X0259219Y0111176D01*
X0259340Y0111107D01*
X0259460Y0111034D01*
X0259578Y0110957D01*
X0259693Y0110878D01*
X0259807Y0110795D01*
X0259917Y0110709D01*
X0260026Y0110620D01*
X0260132Y0110528D01*
X0260235Y0110433D01*
X0260336Y0110336D01*
X0260433Y0110235D01*
X0260528Y0110132D01*
X0260620Y0110026D01*
X0260709Y0109917D01*
X0260795Y0109807D01*
X0260878Y0109693D01*
X0260957Y0109578D01*
X0261034Y0109460D01*
X0261107Y0109340D01*
X0261176Y0109219D01*
X0261242Y0109095D01*
X0261305Y0108969D01*
X0261364Y0108842D01*
X0261419Y0108713D01*
X0261471Y0108583D01*
X0261519Y0108451D01*
X0261564Y0108318D01*
X0261605Y0108184D01*
X0261642Y0108049D01*
X0261675Y0107913D01*
X0261704Y0107775D01*
X0261729Y0107638D01*
X0261751Y0107499D01*
X0261769Y0107360D01*
X0261782Y0107220D01*
X0261792Y0107080D01*
X0261798Y0106940D01*
X0261800Y0106800D01*
X0259400Y0105127D02*
X0256943Y0105127D01*
X0256943Y0103529D02*
X0259400Y0103529D01*
X0259400Y0101930D02*
X0256442Y0101930D01*
X0256800Y0096800D02*
X0256940Y0096802D01*
X0257080Y0096808D01*
X0257220Y0096818D01*
X0257360Y0096831D01*
X0257499Y0096849D01*
X0257638Y0096871D01*
X0257775Y0096896D01*
X0257913Y0096925D01*
X0258049Y0096958D01*
X0258184Y0096995D01*
X0258318Y0097036D01*
X0258451Y0097081D01*
X0258583Y0097129D01*
X0258713Y0097181D01*
X0258842Y0097236D01*
X0258969Y0097295D01*
X0259095Y0097358D01*
X0259219Y0097424D01*
X0259340Y0097493D01*
X0259460Y0097566D01*
X0259578Y0097643D01*
X0259693Y0097722D01*
X0259807Y0097805D01*
X0259917Y0097891D01*
X0260026Y0097980D01*
X0260132Y0098072D01*
X0260235Y0098167D01*
X0260336Y0098264D01*
X0260433Y0098365D01*
X0260528Y0098468D01*
X0260620Y0098574D01*
X0260709Y0098683D01*
X0260795Y0098793D01*
X0260878Y0098907D01*
X0260957Y0099022D01*
X0261034Y0099140D01*
X0261107Y0099260D01*
X0261176Y0099381D01*
X0261242Y0099505D01*
X0261305Y0099631D01*
X0261364Y0099758D01*
X0261419Y0099887D01*
X0261471Y0100017D01*
X0261519Y0100149D01*
X0261564Y0100282D01*
X0261605Y0100416D01*
X0261642Y0100551D01*
X0261675Y0100687D01*
X0261704Y0100825D01*
X0261729Y0100962D01*
X0261751Y0101101D01*
X0261769Y0101240D01*
X0261782Y0101380D01*
X0261792Y0101520D01*
X0261798Y0101660D01*
X0261800Y0101800D01*
X0258938Y0100332D02*
X0255243Y0100332D01*
X0256800Y0096800D02*
X0236800Y0096800D01*
X0236800Y0081800D01*
X0236800Y0056800D01*
X0239200Y0057172D02*
X0316921Y0057172D01*
X0316921Y0058770D02*
X0239200Y0058770D01*
X0239200Y0060369D02*
X0316921Y0060369D01*
X0316921Y0061967D02*
X0239200Y0061967D01*
X0239200Y0063566D02*
X0316921Y0063566D01*
X0316921Y0065164D02*
X0239200Y0065164D01*
X0239200Y0066763D02*
X0316921Y0066763D01*
X0316921Y0068361D02*
X0239200Y0068361D01*
X0239200Y0069960D02*
X0316921Y0069960D01*
X0316921Y0071558D02*
X0239200Y0071558D01*
X0239200Y0073157D02*
X0316921Y0073157D01*
X0316921Y0074755D02*
X0239200Y0074755D01*
X0239200Y0076354D02*
X0316921Y0076354D01*
X0316921Y0077952D02*
X0239200Y0077952D01*
X0240491Y0079551D02*
X0316921Y0079551D01*
X0316921Y0081149D02*
X0241000Y0081149D01*
X0234400Y0077952D02*
X0219175Y0077952D01*
X0218623Y0077400D02*
X0221200Y0079977D01*
X0221200Y0081800D01*
X0221200Y0083623D01*
X0218623Y0086200D01*
X0216800Y0086200D01*
X0216800Y0081800D01*
X0221200Y0081800D01*
X0216800Y0081800D01*
X0216800Y0081800D01*
X0216800Y0081800D01*
X0216800Y0077400D01*
X0218623Y0077400D01*
X0216800Y0077400D02*
X0216800Y0081800D01*
X0216800Y0081800D01*
X0216800Y0081800D01*
X0212400Y0081800D01*
X0212400Y0083623D01*
X0214977Y0086200D01*
X0216800Y0086200D01*
X0216800Y0081800D01*
X0212400Y0081800D01*
X0212400Y0079977D01*
X0214977Y0077400D01*
X0216800Y0077400D01*
X0216800Y0077952D02*
X0216800Y0077952D01*
X0216800Y0079551D02*
X0216800Y0079551D01*
X0216800Y0081149D02*
X0216800Y0081149D01*
X0216800Y0082748D02*
X0216800Y0082748D01*
X0216800Y0084346D02*
X0216800Y0084346D01*
X0216800Y0085945D02*
X0216800Y0085945D01*
X0218878Y0085945D02*
X0234400Y0085945D01*
X0234400Y0087543D02*
X0184200Y0087543D01*
X0184200Y0085945D02*
X0214722Y0085945D01*
X0213124Y0084346D02*
X0183793Y0084346D01*
X0183131Y0082748D02*
X0212400Y0082748D01*
X0212400Y0081149D02*
X0181615Y0081149D01*
X0180992Y0080527D02*
X0180992Y0080527D01*
X0178636Y0079551D02*
X0212827Y0079551D01*
X0214425Y0077952D02*
X0177286Y0077952D01*
X0175688Y0076354D02*
X0234400Y0076354D01*
X0233109Y0079551D02*
X0220773Y0079551D01*
X0221200Y0081149D02*
X0232600Y0081149D01*
X0232600Y0082748D02*
X0221200Y0082748D01*
X0220476Y0084346D02*
X0233407Y0084346D01*
X0234400Y0089142D02*
X0184200Y0089142D01*
X0184200Y0090740D02*
X0234400Y0090740D01*
X0234400Y0092339D02*
X0184200Y0092339D01*
X0184200Y0093937D02*
X0203723Y0093937D01*
X0203239Y0094421D02*
X0204421Y0093239D01*
X0205965Y0092600D01*
X0207635Y0092600D01*
X0209179Y0093239D01*
X0210361Y0094421D01*
X0211000Y0095965D01*
X0211000Y0097635D01*
X0210361Y0099179D01*
X0209179Y0100361D01*
X0207635Y0101000D01*
X0205965Y0101000D01*
X0204421Y0100361D01*
X0203239Y0099179D01*
X0202600Y0097635D01*
X0202600Y0095965D01*
X0203239Y0094421D01*
X0202778Y0095536D02*
X0184200Y0095536D01*
X0184200Y0097134D02*
X0202600Y0097134D01*
X0203055Y0098733D02*
X0188162Y0098733D01*
X0190521Y0100332D02*
X0204392Y0100332D01*
X0209208Y0100332D02*
X0214392Y0100332D01*
X0214421Y0100361D02*
X0213239Y0099179D01*
X0212600Y0097635D01*
X0212600Y0095965D01*
X0213239Y0094421D01*
X0214421Y0093239D01*
X0215965Y0092600D01*
X0217635Y0092600D01*
X0219179Y0093239D01*
X0220361Y0094421D01*
X0221000Y0095965D01*
X0221000Y0097635D01*
X0220361Y0099179D01*
X0219179Y0100361D01*
X0217635Y0101000D01*
X0215965Y0101000D01*
X0214421Y0100361D01*
X0213055Y0098733D02*
X0210545Y0098733D01*
X0211000Y0097134D02*
X0212600Y0097134D01*
X0212778Y0095536D02*
X0210822Y0095536D01*
X0209877Y0093937D02*
X0213723Y0093937D01*
X0219877Y0093937D02*
X0223723Y0093937D01*
X0223239Y0094421D02*
X0224421Y0093239D01*
X0225965Y0092600D01*
X0227635Y0092600D01*
X0229179Y0093239D01*
X0230361Y0094421D01*
X0231000Y0095965D01*
X0231000Y0097635D01*
X0230361Y0099179D01*
X0229179Y0100361D01*
X0227635Y0101000D01*
X0225965Y0101000D01*
X0224421Y0100361D01*
X0223239Y0099179D01*
X0222600Y0097635D01*
X0222600Y0095965D01*
X0223239Y0094421D01*
X0222778Y0095536D02*
X0220822Y0095536D01*
X0221000Y0097134D02*
X0222600Y0097134D01*
X0223055Y0098733D02*
X0220545Y0098733D01*
X0219208Y0100332D02*
X0224392Y0100332D01*
X0229208Y0100332D02*
X0234392Y0100332D01*
X0233055Y0098733D02*
X0230545Y0098733D01*
X0231000Y0097134D02*
X0232600Y0097134D01*
X0232778Y0095536D02*
X0230822Y0095536D01*
X0229877Y0093937D02*
X0233723Y0093937D01*
X0239208Y0100332D02*
X0248357Y0100332D01*
X0247158Y0101930D02*
X0192395Y0101930D01*
X0193073Y0102608D02*
X0193073Y0102608D01*
X0193455Y0103529D02*
X0246657Y0103529D01*
X0246657Y0105127D02*
X0194117Y0105127D01*
X0194200Y0106726D02*
X0247295Y0106726D01*
X0248688Y0108324D02*
X0194718Y0108324D01*
X0194250Y0107307D02*
X0194250Y0107307D01*
X0191800Y0106800D02*
X0191802Y0106940D01*
X0191808Y0107080D01*
X0191818Y0107220D01*
X0191831Y0107360D01*
X0191849Y0107499D01*
X0191871Y0107638D01*
X0191896Y0107775D01*
X0191925Y0107913D01*
X0191958Y0108049D01*
X0191995Y0108184D01*
X0192036Y0108318D01*
X0192081Y0108451D01*
X0192129Y0108583D01*
X0192181Y0108713D01*
X0192236Y0108842D01*
X0192295Y0108969D01*
X0192358Y0109095D01*
X0192424Y0109219D01*
X0192493Y0109340D01*
X0192566Y0109460D01*
X0192643Y0109578D01*
X0192722Y0109693D01*
X0192805Y0109807D01*
X0192891Y0109917D01*
X0192980Y0110026D01*
X0193072Y0110132D01*
X0193167Y0110235D01*
X0193264Y0110336D01*
X0193365Y0110433D01*
X0193468Y0110528D01*
X0193574Y0110620D01*
X0193683Y0110709D01*
X0193793Y0110795D01*
X0193907Y0110878D01*
X0194022Y0110957D01*
X0194140Y0111034D01*
X0194260Y0111107D01*
X0194381Y0111176D01*
X0194505Y0111242D01*
X0194631Y0111305D01*
X0194758Y0111364D01*
X0194887Y0111419D01*
X0195017Y0111471D01*
X0195149Y0111519D01*
X0195282Y0111564D01*
X0195416Y0111605D01*
X0195551Y0111642D01*
X0195687Y0111675D01*
X0195825Y0111704D01*
X0195962Y0111729D01*
X0196101Y0111751D01*
X0196240Y0111769D01*
X0196380Y0111782D01*
X0196520Y0111792D01*
X0196660Y0111798D01*
X0196800Y0111800D01*
X0188543Y0114718D02*
X0247300Y0114718D01*
X0246133Y0116317D02*
X0186299Y0116317D01*
X0187328Y0117915D02*
X0245476Y0117915D01*
X0245476Y0119514D02*
X0188766Y0119514D01*
X0189337Y0121112D02*
X0245762Y0121112D01*
X0246424Y0122711D02*
X0237903Y0122711D01*
X0237635Y0122600D02*
X0239179Y0123239D01*
X0240361Y0124421D01*
X0241000Y0125965D01*
X0241000Y0127635D01*
X0240361Y0129179D01*
X0239179Y0130361D01*
X0237635Y0131000D01*
X0235965Y0131000D01*
X0234421Y0130361D01*
X0233239Y0129179D01*
X0232600Y0127635D01*
X0232600Y0125965D01*
X0233239Y0124421D01*
X0234421Y0123239D01*
X0235965Y0122600D01*
X0237635Y0122600D01*
X0235697Y0122711D02*
X0227903Y0122711D01*
X0227635Y0122600D02*
X0229179Y0123239D01*
X0230361Y0124421D01*
X0231000Y0125965D01*
X0231000Y0127635D01*
X0230361Y0129179D01*
X0229179Y0130361D01*
X0227635Y0131000D01*
X0225965Y0131000D01*
X0224421Y0130361D01*
X0223239Y0129179D01*
X0222600Y0127635D01*
X0222600Y0125965D01*
X0223239Y0124421D01*
X0224421Y0123239D01*
X0225965Y0122600D01*
X0227635Y0122600D01*
X0225697Y0122711D02*
X0217903Y0122711D01*
X0217635Y0122600D02*
X0219179Y0123239D01*
X0220361Y0124421D01*
X0221000Y0125965D01*
X0221000Y0127635D01*
X0220361Y0129179D01*
X0219179Y0130361D01*
X0217635Y0131000D01*
X0215965Y0131000D01*
X0214421Y0130361D01*
X0213239Y0129179D01*
X0212600Y0127635D01*
X0212600Y0125965D01*
X0213239Y0124421D01*
X0214421Y0123239D01*
X0215965Y0122600D01*
X0217635Y0122600D01*
X0215697Y0122711D02*
X0207903Y0122711D01*
X0205697Y0122711D02*
X0189336Y0122711D01*
X0188674Y0124309D02*
X0203351Y0124309D01*
X0206800Y0126800D02*
X0186800Y0126800D01*
X0185098Y0129105D02*
X0184200Y0129105D01*
X0184200Y0130703D02*
X0204400Y0130703D01*
X0204400Y0132302D02*
X0184200Y0132302D01*
X0184200Y0133900D02*
X0204400Y0133900D01*
X0204400Y0135499D02*
X0184200Y0135499D01*
X0184200Y0137097D02*
X0204400Y0137097D01*
X0203965Y0138696D02*
X0184024Y0138696D01*
X0183362Y0140294D02*
X0202600Y0140294D01*
X0202600Y0141893D02*
X0182172Y0141893D01*
X0183073Y0140992D02*
X0183073Y0140992D01*
X0179983Y0143491D02*
X0202600Y0143491D01*
X0204150Y0145090D02*
X0177844Y0145090D01*
X0176245Y0146688D02*
X0204400Y0146688D01*
X0204400Y0148287D02*
X0174647Y0148287D01*
X0168953Y0148287D02*
X0146344Y0148287D01*
X0147942Y0146688D02*
X0167355Y0146688D01*
X0165756Y0145090D02*
X0149541Y0145090D01*
X0149600Y0143491D02*
X0158617Y0143491D01*
X0157608Y0143073D02*
X0157608Y0143073D01*
X0156428Y0141893D02*
X0149600Y0141893D01*
X0149600Y0140294D02*
X0155238Y0140294D01*
X0155527Y0140992D02*
X0155527Y0140992D01*
X0154576Y0138696D02*
X0149600Y0138696D01*
X0148128Y0137097D02*
X0154400Y0137097D01*
X0154400Y0135499D02*
X0146530Y0135499D01*
X0156800Y0126800D02*
X0156798Y0126660D01*
X0156792Y0126520D01*
X0156782Y0126380D01*
X0156769Y0126240D01*
X0156751Y0126101D01*
X0156729Y0125962D01*
X0156704Y0125825D01*
X0156675Y0125687D01*
X0156642Y0125551D01*
X0156605Y0125416D01*
X0156564Y0125282D01*
X0156519Y0125149D01*
X0156471Y0125017D01*
X0156419Y0124887D01*
X0156364Y0124758D01*
X0156305Y0124631D01*
X0156242Y0124505D01*
X0156176Y0124381D01*
X0156107Y0124260D01*
X0156034Y0124140D01*
X0155957Y0124022D01*
X0155878Y0123907D01*
X0155795Y0123793D01*
X0155709Y0123683D01*
X0155620Y0123574D01*
X0155528Y0123468D01*
X0155433Y0123365D01*
X0155336Y0123264D01*
X0155235Y0123167D01*
X0155132Y0123072D01*
X0155026Y0122980D01*
X0154917Y0122891D01*
X0154807Y0122805D01*
X0154693Y0122722D01*
X0154578Y0122643D01*
X0154460Y0122566D01*
X0154340Y0122493D01*
X0154219Y0122424D01*
X0154095Y0122358D01*
X0153969Y0122295D01*
X0153842Y0122236D01*
X0153713Y0122181D01*
X0153583Y0122129D01*
X0153451Y0122081D01*
X0153318Y0122036D01*
X0153184Y0121995D01*
X0153049Y0121958D01*
X0152913Y0121925D01*
X0152775Y0121896D01*
X0152638Y0121871D01*
X0152499Y0121849D01*
X0152360Y0121831D01*
X0152220Y0121818D01*
X0152080Y0121808D01*
X0151940Y0121802D01*
X0151800Y0121800D01*
X0153546Y0119514D02*
X0157864Y0119514D01*
X0157400Y0119977D02*
X0159977Y0117400D01*
X0161800Y0117400D01*
X0163623Y0117400D01*
X0166200Y0119977D01*
X0166200Y0121800D01*
X0161800Y0121800D01*
X0161800Y0117400D01*
X0161800Y0121800D01*
X0161800Y0121800D01*
X0161800Y0121800D01*
X0157400Y0121800D01*
X0157400Y0119977D01*
X0157400Y0121112D02*
X0156577Y0121112D01*
X0155992Y0120527D02*
X0155992Y0120527D01*
X0159462Y0117915D02*
X0143855Y0117915D01*
X0141782Y0116317D02*
X0177301Y0116317D01*
X0176272Y0117915D02*
X0164138Y0117915D01*
X0165736Y0119514D02*
X0174834Y0119514D01*
X0174263Y0121112D02*
X0166200Y0121112D01*
X0166200Y0122711D02*
X0174264Y0122711D01*
X0174926Y0124309D02*
X0165513Y0124309D01*
X0163915Y0125908D02*
X0176810Y0125908D01*
X0179400Y0127506D02*
X0159200Y0127506D01*
X0159200Y0125908D02*
X0159685Y0125908D01*
X0161800Y0125908D02*
X0161800Y0125908D01*
X0161800Y0124309D02*
X0161800Y0124309D01*
X0161800Y0122711D02*
X0161800Y0122711D01*
X0161800Y0121112D02*
X0161800Y0121112D01*
X0161800Y0119514D02*
X0161800Y0119514D01*
X0161800Y0117915D02*
X0161800Y0117915D01*
X0175057Y0114718D02*
X0139040Y0114718D01*
X0140992Y0115527D02*
X0140992Y0115527D01*
X0137944Y0119514D02*
X0134786Y0119514D01*
X0144413Y0105127D02*
X0158905Y0105127D01*
X0159977Y0106200D02*
X0157400Y0103623D01*
X0157400Y0101800D01*
X0161800Y0101800D01*
X0166200Y0101800D01*
X0166200Y0103623D01*
X0163623Y0106200D01*
X0161800Y0106200D01*
X0161800Y0101800D01*
X0161800Y0101800D01*
X0161800Y0101800D01*
X0166200Y0101800D01*
X0166200Y0099977D01*
X0163623Y0097400D01*
X0161800Y0097400D01*
X0161800Y0101800D01*
X0161800Y0101800D01*
X0161800Y0101800D01*
X0161800Y0106200D01*
X0159977Y0106200D01*
X0161800Y0105127D02*
X0161800Y0105127D01*
X0161800Y0103529D02*
X0161800Y0103529D01*
X0161800Y0101930D02*
X0161800Y0101930D01*
X0161800Y0101800D02*
X0157400Y0101800D01*
X0157400Y0099977D01*
X0159977Y0097400D01*
X0161800Y0097400D01*
X0161800Y0101800D01*
X0161800Y0100332D02*
X0161800Y0100332D01*
X0161800Y0098733D02*
X0161800Y0098733D01*
X0164956Y0098733D02*
X0175438Y0098733D01*
X0174495Y0100332D02*
X0166200Y0100332D01*
X0166200Y0101930D02*
X0174263Y0101930D01*
X0174603Y0103529D02*
X0166200Y0103529D01*
X0164695Y0105127D02*
X0175698Y0105127D01*
X0181616Y0108324D02*
X0181984Y0108324D01*
X0181984Y0109923D02*
X0181616Y0109923D01*
X0181616Y0111521D02*
X0181984Y0111521D01*
X0181984Y0113120D02*
X0181616Y0113120D01*
X0181616Y0114718D02*
X0181984Y0114718D01*
X0181984Y0116317D02*
X0181616Y0116317D01*
X0181800Y0121800D02*
X0181800Y0136800D01*
X0179371Y0137097D02*
X0176431Y0137097D01*
X0176800Y0141800D02*
X0176940Y0141798D01*
X0177080Y0141792D01*
X0177220Y0141782D01*
X0177360Y0141769D01*
X0177499Y0141751D01*
X0177638Y0141729D01*
X0177775Y0141704D01*
X0177913Y0141675D01*
X0178049Y0141642D01*
X0178184Y0141605D01*
X0178318Y0141564D01*
X0178451Y0141519D01*
X0178583Y0141471D01*
X0178713Y0141419D01*
X0178842Y0141364D01*
X0178969Y0141305D01*
X0179095Y0141242D01*
X0179219Y0141176D01*
X0179340Y0141107D01*
X0179460Y0141034D01*
X0179578Y0140957D01*
X0179693Y0140878D01*
X0179807Y0140795D01*
X0179917Y0140709D01*
X0180026Y0140620D01*
X0180132Y0140528D01*
X0180235Y0140433D01*
X0180336Y0140336D01*
X0180433Y0140235D01*
X0180528Y0140132D01*
X0180620Y0140026D01*
X0180709Y0139917D01*
X0180795Y0139807D01*
X0180878Y0139693D01*
X0180957Y0139578D01*
X0181034Y0139460D01*
X0181107Y0139340D01*
X0181176Y0139219D01*
X0181242Y0139095D01*
X0181305Y0138969D01*
X0181364Y0138842D01*
X0181419Y0138713D01*
X0181471Y0138583D01*
X0181519Y0138451D01*
X0181564Y0138318D01*
X0181605Y0138184D01*
X0181642Y0138049D01*
X0181675Y0137913D01*
X0181704Y0137775D01*
X0181729Y0137638D01*
X0181751Y0137499D01*
X0181769Y0137360D01*
X0181782Y0137220D01*
X0181792Y0137080D01*
X0181798Y0136940D01*
X0181800Y0136800D01*
X0179400Y0135499D02*
X0174833Y0135499D01*
X0168767Y0135499D02*
X0159200Y0135499D01*
X0159229Y0137097D02*
X0167169Y0137097D01*
X0165570Y0138696D02*
X0160089Y0138696D01*
X0161800Y0141800D02*
X0161660Y0141798D01*
X0161520Y0141792D01*
X0161380Y0141782D01*
X0161240Y0141769D01*
X0161101Y0141751D01*
X0160962Y0141729D01*
X0160825Y0141704D01*
X0160687Y0141675D01*
X0160551Y0141642D01*
X0160416Y0141605D01*
X0160282Y0141564D01*
X0160149Y0141519D01*
X0160017Y0141471D01*
X0159887Y0141419D01*
X0159758Y0141364D01*
X0159631Y0141305D01*
X0159505Y0141242D01*
X0159381Y0141176D01*
X0159260Y0141107D01*
X0159140Y0141034D01*
X0159022Y0140957D01*
X0158907Y0140878D01*
X0158793Y0140795D01*
X0158683Y0140709D01*
X0158574Y0140620D01*
X0158468Y0140528D01*
X0158365Y0140433D01*
X0158264Y0140336D01*
X0158167Y0140235D01*
X0158072Y0140132D01*
X0157980Y0140026D01*
X0157891Y0139917D01*
X0157805Y0139807D01*
X0157722Y0139693D01*
X0157643Y0139578D01*
X0157566Y0139460D01*
X0157493Y0139340D01*
X0157424Y0139219D01*
X0157358Y0139095D01*
X0157295Y0138969D01*
X0157236Y0138842D01*
X0157181Y0138713D01*
X0157129Y0138583D01*
X0157081Y0138451D01*
X0157036Y0138318D01*
X0156995Y0138184D01*
X0156958Y0138049D01*
X0156925Y0137913D01*
X0156896Y0137775D01*
X0156871Y0137638D01*
X0156849Y0137499D01*
X0156831Y0137360D01*
X0156818Y0137220D01*
X0156808Y0137080D01*
X0156802Y0136940D01*
X0156800Y0136800D01*
X0156800Y0126800D01*
X0159200Y0129105D02*
X0179400Y0129105D01*
X0179400Y0130703D02*
X0159200Y0130703D01*
X0159200Y0132302D02*
X0179400Y0132302D01*
X0179400Y0133900D02*
X0159200Y0133900D01*
X0161800Y0141800D02*
X0171800Y0141800D01*
X0176800Y0141800D01*
X0178030Y0138696D02*
X0178511Y0138696D01*
X0173990Y0155347D02*
X0173129Y0155116D01*
X0172246Y0155000D01*
X0172000Y0155000D01*
X0172000Y0161600D01*
X0172000Y0162000D01*
X0171600Y0162000D01*
X0171600Y0168600D01*
X0171354Y0168600D01*
X0170471Y0168484D01*
X0169610Y0168253D01*
X0168786Y0167912D01*
X0168014Y0167466D01*
X0167307Y0166923D01*
X0166677Y0166293D01*
X0166134Y0165586D01*
X0165688Y0164814D01*
X0165347Y0163990D01*
X0165116Y0163129D01*
X0165000Y0162246D01*
X0165000Y0162000D01*
X0171600Y0162000D01*
X0171600Y0161600D01*
X0165000Y0161600D01*
X0165000Y0161354D01*
X0165116Y0160471D01*
X0165347Y0159610D01*
X0165688Y0158786D01*
X0166134Y0158014D01*
X0166677Y0157307D01*
X0167307Y0156677D01*
X0168014Y0156134D01*
X0168786Y0155688D01*
X0169610Y0155347D01*
X0170471Y0155116D01*
X0171354Y0155000D01*
X0171600Y0155000D01*
X0171600Y0161600D01*
X0172000Y0161600D01*
X0178600Y0161600D01*
X0178600Y0161354D01*
X0178484Y0160471D01*
X0178253Y0159610D01*
X0177912Y0158786D01*
X0177466Y0158014D01*
X0176923Y0157307D01*
X0176293Y0156677D01*
X0175586Y0156134D01*
X0174814Y0155688D01*
X0173990Y0155347D01*
X0175776Y0156279D02*
X0204400Y0156279D01*
X0204400Y0154681D02*
X0116800Y0154681D01*
X0116800Y0156279D02*
X0167824Y0156279D01*
X0166238Y0157878D02*
X0116800Y0157878D01*
X0116800Y0159476D02*
X0165402Y0159476D01*
X0165037Y0161075D02*
X0116800Y0161075D01*
X0116800Y0162673D02*
X0165056Y0162673D01*
X0165464Y0164272D02*
X0116800Y0164272D01*
X0116800Y0165870D02*
X0166352Y0165870D01*
X0168019Y0167469D02*
X0116800Y0167469D01*
X0116800Y0169068D02*
X0316921Y0169068D01*
X0316921Y0170666D02*
X0116800Y0170666D01*
X0116800Y0172265D02*
X0316921Y0172265D01*
X0316921Y0173863D02*
X0162378Y0173863D01*
X0162548Y0174032D02*
X0163660Y0175145D01*
X0163660Y0182558D01*
X0162548Y0183671D01*
X0157470Y0183671D01*
X0155926Y0182126D01*
X0155495Y0182558D01*
X0154382Y0183671D01*
X0151992Y0183671D01*
X0151992Y0184893D01*
X0150879Y0186006D01*
X0149305Y0186006D01*
X0148192Y0184893D01*
X0148192Y0183671D01*
X0146978Y0183671D01*
X0145865Y0182558D01*
X0145865Y0180168D01*
X0144994Y0180168D01*
X0144994Y0182558D01*
X0143881Y0183671D01*
X0142307Y0183671D01*
X0141943Y0183307D01*
X0140912Y0183822D01*
X0139419Y0183324D01*
X0138431Y0181348D01*
X0137443Y0183324D01*
X0135950Y0183822D01*
X0134920Y0183307D01*
X0134556Y0183671D01*
X0132982Y0183671D01*
X0131869Y0182558D01*
X0131869Y0180168D01*
X0130998Y0180168D01*
X0130998Y0182558D01*
X0129885Y0183671D01*
X0128671Y0183671D01*
X0128671Y0184893D01*
X0127558Y0186006D01*
X0125984Y0186006D01*
X0124871Y0184893D01*
X0124871Y0180222D01*
X0124435Y0179787D01*
X0124000Y0180222D01*
X0124000Y0184893D01*
X0122887Y0186006D01*
X0121313Y0186006D01*
X0120200Y0184893D01*
X0120200Y0178648D01*
X0122535Y0176313D01*
X0123648Y0175200D01*
X0125222Y0175200D01*
X0127350Y0177328D01*
X0128366Y0176313D01*
X0129479Y0175200D01*
X0131053Y0175200D01*
X0131433Y0175581D01*
X0131814Y0175200D01*
X0133388Y0175200D01*
X0133943Y0175755D01*
X0135669Y0177481D01*
X0135669Y0178377D01*
X0136671Y0176371D01*
X0136878Y0175753D01*
X0137015Y0175684D01*
X0137084Y0175546D01*
X0137702Y0175340D01*
X0138285Y0175049D01*
X0138431Y0175097D01*
X0138577Y0175049D01*
X0139160Y0175340D01*
X0139779Y0175546D01*
X0139847Y0175684D01*
X0139985Y0175753D01*
X0140191Y0176371D01*
X0141194Y0178377D01*
X0141194Y0177481D01*
X0142362Y0176313D01*
X0143475Y0175200D01*
X0145049Y0175200D01*
X0145429Y0175581D01*
X0145810Y0175200D01*
X0147384Y0175200D01*
X0147939Y0175755D01*
X0148344Y0176160D01*
X0149305Y0175200D01*
X0154382Y0175200D01*
X0155926Y0176744D01*
X0156358Y0176313D01*
X0157470Y0175200D01*
X0157525Y0175200D01*
X0157525Y0173978D01*
X0158638Y0172865D01*
X0161380Y0172865D01*
X0162548Y0174032D01*
X0163660Y0175462D02*
X0209333Y0175462D01*
X0209610Y0175347D02*
X0208786Y0175688D01*
X0208014Y0176134D01*
X0207307Y0176677D01*
X0206677Y0177307D01*
X0206134Y0178014D01*
X0205688Y0178786D01*
X0205347Y0179610D01*
X0205116Y0180471D01*
X0205000Y0181354D01*
X0205000Y0181600D01*
X0211600Y0181600D01*
X0211600Y0182000D01*
X0211600Y0188600D01*
X0211354Y0188600D01*
X0210471Y0188484D01*
X0209610Y0188253D01*
X0208786Y0187912D01*
X0208014Y0187466D01*
X0207307Y0186923D01*
X0206677Y0186293D01*
X0206134Y0185586D01*
X0205688Y0184814D01*
X0205347Y0183990D01*
X0205116Y0183129D01*
X0205000Y0182246D01*
X0205000Y0182000D01*
X0211600Y0182000D01*
X0212000Y0182000D01*
X0212000Y0188600D01*
X0212246Y0188600D01*
X0213129Y0188484D01*
X0213990Y0188253D01*
X0214814Y0187912D01*
X0215586Y0187466D01*
X0216293Y0186923D01*
X0216923Y0186293D01*
X0217466Y0185586D01*
X0217912Y0184814D01*
X0218253Y0183990D01*
X0218484Y0183129D01*
X0218600Y0182246D01*
X0218600Y0182000D01*
X0212000Y0182000D01*
X0212000Y0181600D01*
X0218600Y0181600D01*
X0218600Y0181354D01*
X0218484Y0180471D01*
X0218253Y0179610D01*
X0217912Y0178786D01*
X0217466Y0178014D01*
X0216923Y0177307D01*
X0216293Y0176677D01*
X0215586Y0176134D01*
X0214814Y0175688D01*
X0213990Y0175347D01*
X0213129Y0175116D01*
X0212246Y0175000D01*
X0212000Y0175000D01*
X0212000Y0181600D01*
X0211600Y0181600D01*
X0211600Y0175000D01*
X0211354Y0175000D01*
X0210471Y0175116D01*
X0209610Y0175347D01*
X0211600Y0175462D02*
X0212000Y0175462D01*
X0212000Y0177060D02*
X0211600Y0177060D01*
X0211600Y0178659D02*
X0212000Y0178659D01*
X0212000Y0180257D02*
X0211600Y0180257D01*
X0211600Y0181856D02*
X0163660Y0181856D01*
X0163660Y0180257D02*
X0205174Y0180257D01*
X0205762Y0178659D02*
X0163660Y0178659D01*
X0163660Y0177060D02*
X0206923Y0177060D01*
X0214267Y0175462D02*
X0316921Y0175462D01*
X0316084Y0176457D02*
X0316921Y0176941D01*
X0316921Y0051659D01*
X0316084Y0052143D01*
X0313261Y0052899D01*
X0310339Y0052899D01*
X0307516Y0052143D01*
X0304985Y0050682D01*
X0302918Y0048615D01*
X0301457Y0046084D01*
X0300701Y0043261D01*
X0300701Y0040339D01*
X0301457Y0037516D01*
X0302918Y0034985D01*
X0304985Y0032918D01*
X0307269Y0031600D01*
X0116800Y0031600D01*
X0116800Y0190701D01*
X0301354Y0190701D01*
X0300701Y0188261D01*
X0300701Y0185339D01*
X0301457Y0182516D01*
X0302918Y0179985D01*
X0304985Y0177918D01*
X0307516Y0176457D01*
X0310339Y0175701D01*
X0313261Y0175701D01*
X0316084Y0176457D01*
X0306472Y0177060D02*
X0216677Y0177060D01*
X0217838Y0178659D02*
X0304245Y0178659D01*
X0302761Y0180257D02*
X0218426Y0180257D01*
X0218397Y0183454D02*
X0301206Y0183454D01*
X0300777Y0185053D02*
X0217774Y0185053D01*
X0216566Y0186651D02*
X0300701Y0186651D01*
X0300701Y0188250D02*
X0213998Y0188250D01*
X0212000Y0188250D02*
X0211600Y0188250D01*
X0211600Y0186651D02*
X0212000Y0186651D01*
X0212000Y0185053D02*
X0211600Y0185053D01*
X0211600Y0183454D02*
X0212000Y0183454D01*
X0212000Y0181856D02*
X0301838Y0181856D01*
X0301126Y0189848D02*
X0116800Y0189848D01*
X0116800Y0188250D02*
X0209602Y0188250D01*
X0207034Y0186651D02*
X0116800Y0186651D01*
X0116800Y0185053D02*
X0120360Y0185053D01*
X0120200Y0183454D02*
X0116800Y0183454D01*
X0116800Y0181856D02*
X0120200Y0181856D01*
X0120200Y0180257D02*
X0116800Y0180257D01*
X0116800Y0178659D02*
X0120200Y0178659D01*
X0121788Y0177060D02*
X0116800Y0177060D01*
X0116800Y0175462D02*
X0123387Y0175462D01*
X0125484Y0175462D02*
X0129217Y0175462D01*
X0131314Y0175462D02*
X0131552Y0175462D01*
X0133650Y0175462D02*
X0137338Y0175462D01*
X0136327Y0177060D02*
X0135248Y0177060D01*
X0139524Y0175462D02*
X0143213Y0175462D01*
X0142362Y0176313D02*
X0142362Y0176313D01*
X0141614Y0177060D02*
X0140536Y0177060D01*
X0145310Y0175462D02*
X0145548Y0175462D01*
X0147645Y0175462D02*
X0149043Y0175462D01*
X0154643Y0175462D02*
X0157209Y0175462D01*
X0157640Y0173863D02*
X0116800Y0173863D01*
X0106800Y0173863D02*
X0073464Y0173863D01*
X0073464Y0174364D02*
X0072321Y0175507D01*
X0069388Y0175507D01*
X0068246Y0174364D01*
X0068246Y0172749D01*
X0069388Y0171607D01*
X0069564Y0171607D01*
X0069564Y0167600D01*
X0069498Y0167600D01*
X0069498Y0170411D01*
X0068356Y0171553D01*
X0067038Y0172871D01*
X0062787Y0172871D01*
X0061645Y0171729D01*
X0061645Y0170113D01*
X0062155Y0169603D01*
X0061645Y0169093D01*
X0061579Y0169028D01*
X0061579Y0169093D01*
X0061069Y0169603D01*
X0061579Y0170113D01*
X0061579Y0173047D01*
X0060437Y0174189D01*
X0059119Y0175507D01*
X0053550Y0175507D01*
X0052408Y0174364D01*
X0052408Y0164842D01*
X0053550Y0163700D01*
X0059119Y0163700D01*
X0060262Y0164842D01*
X0060953Y0165534D01*
X0061469Y0165018D01*
X0062787Y0163700D01*
X0068356Y0163700D01*
X0068872Y0164216D01*
X0069388Y0163700D01*
X0073639Y0163700D01*
X0074781Y0164842D01*
X0074781Y0164904D01*
X0075985Y0163700D01*
X0081554Y0163700D01*
X0082070Y0164216D01*
X0082586Y0163700D01*
X0084201Y0163700D01*
X0085344Y0164842D01*
X0085344Y0168971D01*
X0086539Y0168971D01*
X0086715Y0168796D01*
X0086715Y0164842D01*
X0087857Y0163700D01*
X0089473Y0163700D01*
X0090615Y0164842D01*
X0090615Y0164908D01*
X0090680Y0164842D01*
X0091822Y0163700D01*
X0097391Y0163700D01*
X0098534Y0164842D01*
X0098534Y0164908D01*
X0099741Y0163700D01*
X0101357Y0163700D01*
X0103992Y0163700D01*
X0105135Y0164842D01*
X0105135Y0166336D01*
X0105310Y0166336D01*
X0106452Y0167478D01*
X0106452Y0170411D01*
X0105310Y0171553D01*
X0103992Y0172871D01*
X0099741Y0172871D01*
X0098599Y0171729D01*
X0098534Y0171663D01*
X0098534Y0171729D01*
X0097391Y0172871D01*
X0091822Y0172871D01*
X0090505Y0171553D01*
X0089989Y0171037D01*
X0089473Y0171553D01*
X0088155Y0172871D01*
X0082586Y0172871D01*
X0081444Y0171729D01*
X0081444Y0171663D01*
X0080236Y0172871D01*
X0075985Y0172871D01*
X0074843Y0171729D01*
X0074843Y0170113D01*
X0075353Y0169603D01*
X0074843Y0169093D01*
X0073525Y0167776D01*
X0073525Y0167600D01*
X0073464Y0167600D01*
X0073464Y0174364D01*
X0072366Y0175462D02*
X0106800Y0175462D01*
X0106800Y0177060D02*
X0083336Y0177060D01*
X0084934Y0178659D02*
X0106800Y0178659D01*
X0106800Y0180257D02*
X0085336Y0180257D01*
X0085336Y0181856D02*
X0106800Y0181856D01*
X0106800Y0183454D02*
X0085336Y0183454D01*
X0085336Y0185053D02*
X0106800Y0185053D01*
X0106800Y0186651D02*
X0084631Y0186651D01*
X0083033Y0188250D02*
X0106800Y0188250D01*
X0106800Y0189848D02*
X0026600Y0189848D01*
X0026600Y0188250D02*
X0029637Y0188250D01*
X0028652Y0186651D02*
X0026600Y0186651D01*
X0026600Y0185053D02*
X0028652Y0185053D01*
X0028652Y0183454D02*
X0026600Y0183454D01*
X0026600Y0181856D02*
X0028652Y0181856D01*
X0028652Y0180257D02*
X0026600Y0180257D01*
X0026600Y0178659D02*
X0028652Y0178659D01*
X0029334Y0177060D02*
X0026600Y0177060D01*
X0026600Y0175462D02*
X0029765Y0175462D01*
X0028166Y0173863D02*
X0026600Y0173863D01*
X0026600Y0172265D02*
X0027139Y0172265D01*
X0031870Y0177060D02*
X0032373Y0177060D01*
X0032552Y0178659D02*
X0036972Y0178659D01*
X0036571Y0180257D02*
X0036385Y0180257D01*
X0043742Y0177060D02*
X0045172Y0177060D01*
X0043835Y0175462D02*
X0053505Y0175462D01*
X0053090Y0177060D02*
X0052978Y0177060D01*
X0050443Y0177060D02*
X0047707Y0177060D01*
X0048389Y0178659D02*
X0049761Y0178659D01*
X0049761Y0180257D02*
X0048389Y0180257D01*
X0046512Y0186651D02*
X0045037Y0186651D01*
X0043439Y0188250D02*
X0048110Y0188250D01*
X0050040Y0188250D02*
X0054711Y0188250D01*
X0053113Y0186651D02*
X0051638Y0186651D01*
X0059276Y0188250D02*
X0062630Y0188250D01*
X0061031Y0186651D02*
X0060875Y0186651D01*
X0067195Y0188250D02*
X0071866Y0188250D01*
X0073796Y0188250D02*
X0078467Y0188250D01*
X0076869Y0186651D02*
X0074781Y0186651D01*
X0074781Y0185053D02*
X0076164Y0185053D01*
X0076164Y0183454D02*
X0074781Y0183454D01*
X0074781Y0181856D02*
X0076164Y0181856D01*
X0070268Y0186651D02*
X0068794Y0186651D01*
X0068928Y0177060D02*
X0067498Y0177060D01*
X0069343Y0175462D02*
X0059164Y0175462D01*
X0060763Y0173863D02*
X0068246Y0173863D01*
X0068730Y0172265D02*
X0067645Y0172265D01*
X0069243Y0170666D02*
X0069564Y0170666D01*
X0069564Y0169068D02*
X0069498Y0169068D01*
X0073464Y0169068D02*
X0074817Y0169068D01*
X0074843Y0170666D02*
X0073464Y0170666D01*
X0073464Y0172265D02*
X0075378Y0172265D01*
X0076735Y0177060D02*
X0078164Y0177060D01*
X0080843Y0172265D02*
X0081979Y0172265D01*
X0085344Y0167469D02*
X0086715Y0167469D01*
X0086715Y0165870D02*
X0085344Y0165870D01*
X0084773Y0164272D02*
X0087285Y0164272D01*
X0090045Y0164272D02*
X0091251Y0164272D01*
X0097963Y0164272D02*
X0099169Y0164272D01*
X0104564Y0164272D02*
X0106800Y0164272D01*
X0106800Y0165870D02*
X0105135Y0165870D01*
X0106443Y0167469D02*
X0106800Y0167469D01*
X0106800Y0169068D02*
X0106452Y0169068D01*
X0106197Y0170666D02*
X0106800Y0170666D01*
X0106800Y0172265D02*
X0104599Y0172265D01*
X0099135Y0172265D02*
X0097998Y0172265D01*
X0091216Y0172265D02*
X0088761Y0172265D01*
X0075413Y0164272D02*
X0074211Y0164272D01*
X0062215Y0164272D02*
X0059691Y0164272D01*
X0061579Y0169068D02*
X0061619Y0169068D01*
X0061579Y0170666D02*
X0061645Y0170666D01*
X0061579Y0172265D02*
X0062180Y0172265D01*
X0062327Y0177060D02*
X0060897Y0177060D01*
X0052408Y0173863D02*
X0045434Y0173863D01*
X0046461Y0172265D02*
X0052408Y0172265D01*
X0052408Y0170666D02*
X0047255Y0170666D01*
X0047683Y0169068D02*
X0052408Y0169068D01*
X0052408Y0167469D02*
X0047899Y0167469D01*
X0047899Y0165870D02*
X0052408Y0165870D01*
X0052979Y0164272D02*
X0047613Y0164272D01*
X0047185Y0162673D02*
X0106800Y0162673D01*
X0106800Y0161075D02*
X0046311Y0161075D01*
X0045173Y0159476D02*
X0106800Y0159476D01*
X0106800Y0157878D02*
X0043545Y0157878D01*
X0040421Y0156279D02*
X0106800Y0156279D01*
X0106800Y0154681D02*
X0026600Y0154681D01*
X0026600Y0156279D02*
X0033179Y0156279D01*
X0030055Y0157878D02*
X0026600Y0157878D01*
X0026600Y0159476D02*
X0028427Y0159476D01*
X0027289Y0161075D02*
X0026600Y0161075D01*
X0026600Y0153082D02*
X0106800Y0153082D01*
X0106800Y0151484D02*
X0102476Y0151484D01*
X0104532Y0149885D02*
X0106800Y0149885D01*
X0106800Y0148287D02*
X0105295Y0148287D01*
X0105487Y0146688D02*
X0106800Y0146688D01*
X0106800Y0145090D02*
X0105202Y0145090D01*
X0104308Y0143491D02*
X0106800Y0143491D01*
X0106800Y0141893D02*
X0101936Y0141893D01*
X0104123Y0140294D02*
X0106800Y0140294D01*
X0106800Y0138696D02*
X0105125Y0138696D01*
X0105487Y0137097D02*
X0106800Y0137097D01*
X0106800Y0135499D02*
X0105371Y0135499D01*
X0104709Y0133900D02*
X0106800Y0133900D01*
X0106800Y0132302D02*
X0102924Y0132302D01*
X0103714Y0130703D02*
X0106800Y0130703D01*
X0106800Y0129105D02*
X0104956Y0129105D01*
X0105487Y0127506D02*
X0106800Y0127506D01*
X0106800Y0125908D02*
X0105487Y0125908D01*
X0104879Y0124309D02*
X0106800Y0124309D01*
X0106800Y0122711D02*
X0103528Y0122711D01*
X0090072Y0122711D02*
X0083912Y0122711D01*
X0083912Y0124309D02*
X0088721Y0124309D01*
X0088113Y0125908D02*
X0053108Y0125908D01*
X0053073Y0125992D02*
X0053073Y0125992D01*
X0053770Y0124309D02*
X0069688Y0124309D01*
X0069688Y0122711D02*
X0054200Y0122711D01*
X0054356Y0121112D02*
X0056657Y0121112D01*
X0056288Y0117312D02*
X0056155Y0117314D01*
X0056022Y0117320D01*
X0055889Y0117330D01*
X0055757Y0117344D01*
X0055625Y0117361D01*
X0055494Y0117383D01*
X0055364Y0117408D01*
X0055234Y0117438D01*
X0055105Y0117471D01*
X0054977Y0117508D01*
X0054851Y0117548D01*
X0054725Y0117593D01*
X0054601Y0117641D01*
X0054479Y0117693D01*
X0054358Y0117748D01*
X0054239Y0117807D01*
X0054121Y0117870D01*
X0054006Y0117936D01*
X0053892Y0118005D01*
X0053781Y0118078D01*
X0053672Y0118154D01*
X0053565Y0118233D01*
X0053460Y0118315D01*
X0053358Y0118400D01*
X0053259Y0118489D01*
X0053162Y0118580D01*
X0053068Y0118674D01*
X0052977Y0118771D01*
X0052888Y0118870D01*
X0052803Y0118972D01*
X0052721Y0119077D01*
X0052642Y0119184D01*
X0052566Y0119293D01*
X0052493Y0119404D01*
X0052424Y0119518D01*
X0052358Y0119633D01*
X0052295Y0119751D01*
X0052236Y0119870D01*
X0052181Y0119991D01*
X0052129Y0120113D01*
X0052081Y0120237D01*
X0052036Y0120363D01*
X0051996Y0120489D01*
X0051959Y0120617D01*
X0051926Y0120746D01*
X0051896Y0120876D01*
X0051871Y0121006D01*
X0051849Y0121137D01*
X0051832Y0121269D01*
X0051818Y0121401D01*
X0051808Y0121534D01*
X0051802Y0121667D01*
X0051800Y0121800D01*
X0049400Y0121112D02*
X0041296Y0121112D01*
X0041834Y0122711D02*
X0049183Y0122711D01*
X0047406Y0124309D02*
X0043682Y0124309D01*
X0046800Y0126800D02*
X0046940Y0126798D01*
X0047080Y0126792D01*
X0047220Y0126782D01*
X0047360Y0126769D01*
X0047499Y0126751D01*
X0047638Y0126729D01*
X0047775Y0126704D01*
X0047913Y0126675D01*
X0048049Y0126642D01*
X0048184Y0126605D01*
X0048318Y0126564D01*
X0048451Y0126519D01*
X0048583Y0126471D01*
X0048713Y0126419D01*
X0048842Y0126364D01*
X0048969Y0126305D01*
X0049095Y0126242D01*
X0049219Y0126176D01*
X0049340Y0126107D01*
X0049460Y0126034D01*
X0049578Y0125957D01*
X0049693Y0125878D01*
X0049807Y0125795D01*
X0049917Y0125709D01*
X0050026Y0125620D01*
X0050132Y0125528D01*
X0050235Y0125433D01*
X0050336Y0125336D01*
X0050433Y0125235D01*
X0050528Y0125132D01*
X0050620Y0125026D01*
X0050709Y0124917D01*
X0050795Y0124807D01*
X0050878Y0124693D01*
X0050957Y0124578D01*
X0051034Y0124460D01*
X0051107Y0124340D01*
X0051176Y0124219D01*
X0051242Y0124095D01*
X0051305Y0123969D01*
X0051364Y0123842D01*
X0051419Y0123713D01*
X0051471Y0123583D01*
X0051519Y0123451D01*
X0051564Y0123318D01*
X0051605Y0123184D01*
X0051642Y0123049D01*
X0051675Y0122913D01*
X0051704Y0122775D01*
X0051729Y0122638D01*
X0051751Y0122499D01*
X0051769Y0122360D01*
X0051782Y0122220D01*
X0051792Y0122080D01*
X0051798Y0121940D01*
X0051800Y0121800D01*
X0049779Y0119514D02*
X0043516Y0119514D01*
X0044252Y0117915D02*
X0050442Y0117915D01*
X0050449Y0117898D02*
X0050449Y0117898D01*
X0052030Y0116317D02*
X0044337Y0116317D01*
X0052386Y0115960D02*
X0052386Y0115960D01*
X0052386Y0115960D01*
X0061800Y0117312D02*
X0074910Y0117312D01*
X0074995Y0117314D01*
X0075079Y0117320D01*
X0075164Y0117329D01*
X0075247Y0117342D01*
X0075331Y0117359D01*
X0075413Y0117380D01*
X0075494Y0117405D01*
X0075574Y0117433D01*
X0075653Y0117464D01*
X0075730Y0117499D01*
X0075806Y0117538D01*
X0075879Y0117580D01*
X0075951Y0117625D01*
X0076021Y0117673D01*
X0076088Y0117724D01*
X0076154Y0117779D01*
X0076216Y0117836D01*
X0076276Y0117896D01*
X0076333Y0117958D01*
X0076388Y0118024D01*
X0076439Y0118091D01*
X0076487Y0118161D01*
X0076532Y0118233D01*
X0076574Y0118306D01*
X0076613Y0118382D01*
X0076648Y0118459D01*
X0076679Y0118538D01*
X0076707Y0118618D01*
X0076732Y0118699D01*
X0076753Y0118781D01*
X0076770Y0118865D01*
X0076783Y0118948D01*
X0076792Y0119033D01*
X0076798Y0119117D01*
X0076800Y0119202D01*
X0069688Y0121112D02*
X0066943Y0121112D01*
X0051559Y0127506D02*
X0088113Y0127506D01*
X0088644Y0129105D02*
X0048502Y0129105D01*
X0046800Y0126800D02*
X0036800Y0126800D01*
X0031317Y0130703D02*
X0026600Y0130703D01*
X0026600Y0129105D02*
X0029841Y0129105D01*
X0029263Y0127506D02*
X0026600Y0127506D01*
X0026600Y0125908D02*
X0029263Y0125908D01*
X0029918Y0124309D02*
X0026600Y0124309D01*
X0026600Y0122711D02*
X0031766Y0122711D01*
X0032304Y0121112D02*
X0026600Y0121112D01*
X0026600Y0119514D02*
X0030084Y0119514D01*
X0029348Y0117915D02*
X0026600Y0117915D01*
X0026600Y0116317D02*
X0029263Y0116317D01*
X0029749Y0114718D02*
X0026600Y0114718D01*
X0026600Y0113120D02*
X0031051Y0113120D01*
X0042283Y0130703D02*
X0089886Y0130703D01*
X0090676Y0132302D02*
X0041355Y0132302D01*
X0041599Y0132381D02*
X0042268Y0132722D01*
X0042875Y0133163D01*
X0043406Y0133694D01*
X0043847Y0134301D01*
X0044188Y0134970D01*
X0044420Y0135683D01*
X0044537Y0136425D01*
X0044537Y0136616D01*
X0036984Y0136616D01*
X0036984Y0132031D01*
X0040144Y0132031D01*
X0040885Y0132149D01*
X0041599Y0132381D01*
X0043556Y0133900D02*
X0088891Y0133900D01*
X0088229Y0135499D02*
X0044360Y0135499D01*
X0044537Y0136984D02*
X0044537Y0137175D01*
X0044420Y0137917D01*
X0044188Y0138630D01*
X0043847Y0139299D01*
X0043406Y0139906D01*
X0042875Y0140437D01*
X0042268Y0140878D01*
X0041599Y0141219D01*
X0040885Y0141451D01*
X0040144Y0141568D01*
X0036984Y0141568D01*
X0036984Y0136984D01*
X0036616Y0136984D01*
X0036616Y0136616D01*
X0036984Y0136616D01*
X0036984Y0136984D01*
X0044537Y0136984D01*
X0044537Y0137097D02*
X0088113Y0137097D01*
X0088475Y0138696D02*
X0044154Y0138696D01*
X0043018Y0140294D02*
X0089477Y0140294D01*
X0091664Y0141893D02*
X0026600Y0141893D01*
X0026600Y0143491D02*
X0089292Y0143491D01*
X0088398Y0145090D02*
X0026600Y0145090D01*
X0026600Y0146688D02*
X0088113Y0146688D01*
X0088305Y0148287D02*
X0026600Y0148287D01*
X0026600Y0149885D02*
X0089068Y0149885D01*
X0091124Y0151484D02*
X0026600Y0151484D01*
X0026600Y0140294D02*
X0030582Y0140294D01*
X0030725Y0140437D02*
X0030194Y0139906D01*
X0029753Y0139299D01*
X0029412Y0138630D01*
X0029180Y0137917D01*
X0029063Y0137175D01*
X0029063Y0136984D01*
X0036616Y0136984D01*
X0036616Y0141568D01*
X0033456Y0141568D01*
X0032715Y0141451D01*
X0032001Y0141219D01*
X0031332Y0140878D01*
X0030725Y0140437D01*
X0029446Y0138696D02*
X0026600Y0138696D01*
X0026600Y0137097D02*
X0029063Y0137097D01*
X0029063Y0136616D02*
X0029063Y0136425D01*
X0029180Y0135683D01*
X0029412Y0134970D01*
X0029753Y0134301D01*
X0030194Y0133694D01*
X0030725Y0133163D01*
X0031332Y0132722D01*
X0032001Y0132381D01*
X0032715Y0132149D01*
X0033456Y0132031D01*
X0036616Y0132031D01*
X0036616Y0136616D01*
X0029063Y0136616D01*
X0029240Y0135499D02*
X0026600Y0135499D01*
X0026600Y0133900D02*
X0030044Y0133900D01*
X0032244Y0132302D02*
X0026600Y0132302D01*
X0036616Y0132302D02*
X0036984Y0132302D01*
X0036984Y0133900D02*
X0036616Y0133900D01*
X0036616Y0135499D02*
X0036984Y0135499D01*
X0036984Y0137097D02*
X0036616Y0137097D01*
X0036616Y0138696D02*
X0036984Y0138696D01*
X0036984Y0140294D02*
X0036616Y0140294D01*
X0076000Y0100332D02*
X0077600Y0100332D01*
X0077600Y0098733D02*
X0076000Y0098733D01*
X0076000Y0097134D02*
X0077600Y0097134D01*
X0077600Y0095536D02*
X0076000Y0095536D01*
X0088829Y0079551D02*
X0043478Y0079551D01*
X0044236Y0077952D02*
X0088167Y0077952D01*
X0088113Y0076354D02*
X0044337Y0076354D01*
X0043866Y0074755D02*
X0088537Y0074755D01*
X0089626Y0073157D02*
X0042586Y0073157D01*
X0033387Y0052376D02*
X0026600Y0052376D01*
X0026600Y0050778D02*
X0030151Y0050778D01*
X0028483Y0049179D02*
X0026600Y0049179D01*
X0026600Y0047581D02*
X0027321Y0047581D01*
X0116800Y0047581D02*
X0206403Y0047581D01*
X0205000Y0048983D02*
X0208983Y0045000D01*
X0211600Y0045000D01*
X0211600Y0051600D01*
X0212000Y0051600D01*
X0212000Y0052000D01*
X0218600Y0052000D01*
X0218600Y0054617D01*
X0214617Y0058600D01*
X0212000Y0058600D01*
X0212000Y0052000D01*
X0211600Y0052000D01*
X0211600Y0051600D01*
X0205000Y0051600D01*
X0205000Y0048983D01*
X0205000Y0049179D02*
X0116800Y0049179D01*
X0116800Y0050778D02*
X0205000Y0050778D01*
X0205000Y0052376D02*
X0116800Y0052376D01*
X0116800Y0045982D02*
X0208001Y0045982D01*
X0211600Y0045982D02*
X0212000Y0045982D01*
X0212000Y0045000D02*
X0214617Y0045000D01*
X0218600Y0048983D01*
X0218600Y0051600D01*
X0212000Y0051600D01*
X0212000Y0045000D01*
X0212000Y0047581D02*
X0211600Y0047581D01*
X0211600Y0049179D02*
X0212000Y0049179D01*
X0212000Y0050778D02*
X0211600Y0050778D01*
X0211600Y0052376D02*
X0212000Y0052376D01*
X0212000Y0053975D02*
X0211600Y0053975D01*
X0211600Y0055573D02*
X0212000Y0055573D01*
X0212000Y0057172D02*
X0211600Y0057172D01*
X0207555Y0057172D02*
X0176788Y0057172D01*
X0178387Y0058770D02*
X0234400Y0058770D01*
X0236800Y0056800D02*
X0236798Y0056660D01*
X0236792Y0056520D01*
X0236782Y0056380D01*
X0236769Y0056240D01*
X0236751Y0056101D01*
X0236729Y0055962D01*
X0236704Y0055825D01*
X0236675Y0055687D01*
X0236642Y0055551D01*
X0236605Y0055416D01*
X0236564Y0055282D01*
X0236519Y0055149D01*
X0236471Y0055017D01*
X0236419Y0054887D01*
X0236364Y0054758D01*
X0236305Y0054631D01*
X0236242Y0054505D01*
X0236176Y0054381D01*
X0236107Y0054260D01*
X0236034Y0054140D01*
X0235957Y0054022D01*
X0235878Y0053907D01*
X0235795Y0053793D01*
X0235709Y0053683D01*
X0235620Y0053574D01*
X0235528Y0053468D01*
X0235433Y0053365D01*
X0235336Y0053264D01*
X0235235Y0053167D01*
X0235132Y0053072D01*
X0235026Y0052980D01*
X0234917Y0052891D01*
X0234807Y0052805D01*
X0234693Y0052722D01*
X0234578Y0052643D01*
X0234460Y0052566D01*
X0234340Y0052493D01*
X0234219Y0052424D01*
X0234095Y0052358D01*
X0233969Y0052295D01*
X0233842Y0052236D01*
X0233713Y0052181D01*
X0233583Y0052129D01*
X0233451Y0052081D01*
X0233318Y0052036D01*
X0233184Y0051995D01*
X0233049Y0051958D01*
X0232913Y0051925D01*
X0232775Y0051896D01*
X0232638Y0051871D01*
X0232499Y0051849D01*
X0232360Y0051831D01*
X0232220Y0051818D01*
X0232080Y0051808D01*
X0231940Y0051802D01*
X0231800Y0051800D01*
X0237858Y0049179D02*
X0244975Y0049179D01*
X0244975Y0049627D02*
X0244975Y0047600D01*
X0251000Y0047600D01*
X0251000Y0053625D01*
X0248973Y0053625D01*
X0244975Y0049627D01*
X0246126Y0050778D02*
X0238400Y0050778D01*
X0238400Y0052376D02*
X0247724Y0052376D01*
X0251000Y0052376D02*
X0252600Y0052376D01*
X0252600Y0053625D02*
X0254627Y0053625D01*
X0258625Y0049627D01*
X0258625Y0047600D01*
X0252600Y0047600D01*
X0252600Y0046000D01*
X0258625Y0046000D01*
X0258625Y0043973D01*
X0254627Y0039975D01*
X0252600Y0039975D01*
X0252600Y0046000D01*
X0251000Y0046000D01*
X0251000Y0039975D01*
X0248973Y0039975D01*
X0244975Y0043973D01*
X0244975Y0046000D01*
X0251000Y0046000D01*
X0251000Y0047600D01*
X0252600Y0047600D01*
X0252600Y0053625D01*
X0252600Y0050778D02*
X0251000Y0050778D01*
X0251000Y0049179D02*
X0252600Y0049179D01*
X0252600Y0047581D02*
X0302321Y0047581D01*
X0301430Y0045982D02*
X0258625Y0045982D01*
X0258625Y0044384D02*
X0301002Y0044384D01*
X0300701Y0042785D02*
X0257437Y0042785D01*
X0255839Y0041187D02*
X0300701Y0041187D01*
X0300902Y0039588D02*
X0116800Y0039588D01*
X0116800Y0037990D02*
X0301330Y0037990D01*
X0302107Y0036391D02*
X0116800Y0036391D01*
X0116800Y0034793D02*
X0303111Y0034793D01*
X0304709Y0033194D02*
X0116800Y0033194D01*
X0116800Y0041187D02*
X0247761Y0041187D01*
X0246163Y0042785D02*
X0116800Y0042785D01*
X0116800Y0044384D02*
X0244975Y0044384D01*
X0244975Y0045982D02*
X0235001Y0045982D01*
X0236914Y0047581D02*
X0251000Y0047581D01*
X0251000Y0045982D02*
X0252600Y0045982D01*
X0252600Y0044384D02*
X0251000Y0044384D01*
X0251000Y0042785D02*
X0252600Y0042785D01*
X0252600Y0041187D02*
X0251000Y0041187D01*
X0258625Y0049179D02*
X0303483Y0049179D01*
X0305151Y0050778D02*
X0257474Y0050778D01*
X0255876Y0052376D02*
X0308387Y0052376D01*
X0315213Y0052376D02*
X0316921Y0052376D01*
X0316921Y0053975D02*
X0238639Y0053975D01*
X0239200Y0055573D02*
X0316921Y0055573D01*
X0260992Y0095527D02*
X0260992Y0095527D01*
X0252575Y0087543D02*
X0251025Y0087543D01*
X0251025Y0085945D02*
X0252575Y0085945D01*
X0252575Y0084346D02*
X0251025Y0084346D01*
X0254912Y0108324D02*
X0258882Y0108324D01*
X0257467Y0116317D02*
X0269400Y0116317D01*
X0269400Y0117915D02*
X0258124Y0117915D01*
X0258124Y0119514D02*
X0269400Y0119514D01*
X0269400Y0121112D02*
X0257838Y0121112D01*
X0257176Y0122711D02*
X0269400Y0122711D01*
X0269400Y0124309D02*
X0255597Y0124309D01*
X0248003Y0124309D02*
X0240249Y0124309D01*
X0240976Y0125908D02*
X0269400Y0125908D01*
X0269400Y0127506D02*
X0241000Y0127506D01*
X0240391Y0129105D02*
X0269400Y0129105D01*
X0269400Y0130703D02*
X0238352Y0130703D01*
X0235248Y0130703D02*
X0228352Y0130703D01*
X0230391Y0129105D02*
X0233209Y0129105D01*
X0232600Y0127506D02*
X0231000Y0127506D01*
X0230976Y0125908D02*
X0232624Y0125908D01*
X0233351Y0124309D02*
X0230249Y0124309D01*
X0223351Y0124309D02*
X0220249Y0124309D01*
X0220976Y0125908D02*
X0222624Y0125908D01*
X0222600Y0127506D02*
X0221000Y0127506D01*
X0220391Y0129105D02*
X0223209Y0129105D01*
X0225248Y0130703D02*
X0218352Y0130703D01*
X0215248Y0130703D02*
X0209200Y0130703D01*
X0209200Y0132302D02*
X0269400Y0132302D01*
X0269400Y0133900D02*
X0209200Y0133900D01*
X0209200Y0135499D02*
X0269400Y0135499D01*
X0269400Y0137097D02*
X0209200Y0137097D01*
X0209635Y0138696D02*
X0223682Y0138696D01*
X0222400Y0139977D02*
X0224977Y0137400D01*
X0226800Y0137400D01*
X0228623Y0137400D01*
X0231200Y0139977D01*
X0231200Y0141800D01*
X0231200Y0143623D01*
X0228623Y0146200D01*
X0226800Y0146200D01*
X0226800Y0141800D01*
X0231200Y0141800D01*
X0226800Y0141800D01*
X0226800Y0141800D01*
X0226800Y0141800D01*
X0226800Y0137400D01*
X0226800Y0141800D01*
X0226800Y0141800D01*
X0226800Y0141800D01*
X0222400Y0141800D01*
X0222400Y0143623D01*
X0224977Y0146200D01*
X0226800Y0146200D01*
X0226800Y0141800D01*
X0222400Y0141800D01*
X0222400Y0139977D01*
X0222400Y0140294D02*
X0211000Y0140294D01*
X0211000Y0141893D02*
X0222400Y0141893D01*
X0222400Y0143491D02*
X0211000Y0143491D01*
X0209450Y0145090D02*
X0223867Y0145090D01*
X0226800Y0145090D02*
X0226800Y0145090D01*
X0226800Y0143491D02*
X0226800Y0143491D01*
X0226800Y0141893D02*
X0226800Y0141893D01*
X0226800Y0140294D02*
X0226800Y0140294D01*
X0226800Y0138696D02*
X0226800Y0138696D01*
X0229918Y0138696D02*
X0269400Y0138696D01*
X0269400Y0140294D02*
X0231200Y0140294D01*
X0231200Y0141893D02*
X0269400Y0141893D01*
X0269400Y0143491D02*
X0231200Y0143491D01*
X0229733Y0145090D02*
X0269400Y0145090D01*
X0269400Y0146688D02*
X0209200Y0146688D01*
X0209200Y0148287D02*
X0269400Y0148287D01*
X0269400Y0149885D02*
X0209200Y0149885D01*
X0209200Y0151484D02*
X0269400Y0151484D01*
X0269400Y0153082D02*
X0209200Y0153082D01*
X0209200Y0154681D02*
X0269400Y0154681D01*
X0267951Y0156279D02*
X0215613Y0156279D01*
X0217212Y0157878D02*
X0266353Y0157878D01*
X0265175Y0159476D02*
X0218400Y0159476D01*
X0218400Y0161075D02*
X0265175Y0161075D01*
X0265175Y0162673D02*
X0218400Y0162673D01*
X0218400Y0164272D02*
X0265175Y0164272D01*
X0266501Y0165870D02*
X0217063Y0165870D01*
X0215465Y0167469D02*
X0268100Y0167469D01*
X0278425Y0159476D02*
X0279975Y0159476D01*
X0281070Y0157878D02*
X0277247Y0157878D01*
X0286000Y0157878D02*
X0287600Y0157878D01*
X0287600Y0159476D02*
X0286000Y0159476D01*
X0293625Y0162673D02*
X0316921Y0162673D01*
X0316921Y0164272D02*
X0293625Y0164272D01*
X0292381Y0165870D02*
X0316921Y0165870D01*
X0316921Y0167469D02*
X0290783Y0167469D01*
X0287600Y0167469D02*
X0286000Y0167469D01*
X0286000Y0165870D02*
X0287600Y0165870D01*
X0287600Y0164272D02*
X0286000Y0164272D01*
X0213209Y0129105D02*
X0210391Y0129105D01*
X0211000Y0127506D02*
X0212600Y0127506D01*
X0212624Y0125908D02*
X0210976Y0125908D01*
X0210249Y0124309D02*
X0213351Y0124309D01*
X0206800Y0126800D02*
X0206800Y0141800D01*
X0206800Y0156800D01*
X0204400Y0157878D02*
X0177362Y0157878D01*
X0178198Y0159476D02*
X0204899Y0159476D01*
X0205200Y0161075D02*
X0178563Y0161075D01*
X0178600Y0162000D02*
X0172000Y0162000D01*
X0172000Y0168600D01*
X0172246Y0168600D01*
X0173129Y0168484D01*
X0173990Y0168253D01*
X0174814Y0167912D01*
X0175586Y0167466D01*
X0176293Y0166923D01*
X0176923Y0166293D01*
X0177466Y0165586D01*
X0177912Y0164814D01*
X0178253Y0163990D01*
X0178484Y0163129D01*
X0178600Y0162246D01*
X0178600Y0162000D01*
X0178544Y0162673D02*
X0205200Y0162673D01*
X0205200Y0164272D02*
X0178136Y0164272D01*
X0177248Y0165870D02*
X0206537Y0165870D01*
X0208135Y0167469D02*
X0175581Y0167469D01*
X0172000Y0167469D02*
X0171600Y0167469D01*
X0171600Y0165870D02*
X0172000Y0165870D01*
X0172000Y0164272D02*
X0171600Y0164272D01*
X0171600Y0162673D02*
X0172000Y0162673D01*
X0172000Y0161075D02*
X0171600Y0161075D01*
X0171600Y0159476D02*
X0172000Y0159476D01*
X0172000Y0157878D02*
X0171600Y0157878D01*
X0171600Y0156279D02*
X0172000Y0156279D01*
X0204400Y0153082D02*
X0116800Y0153082D01*
X0116800Y0151484D02*
X0121124Y0151484D01*
X0119068Y0149885D02*
X0116800Y0149885D01*
X0116800Y0148287D02*
X0118305Y0148287D01*
X0118113Y0146688D02*
X0116800Y0146688D01*
X0116800Y0145090D02*
X0118398Y0145090D01*
X0119292Y0143491D02*
X0116800Y0143491D01*
X0116800Y0141893D02*
X0121640Y0141893D01*
X0119194Y0140294D02*
X0116800Y0140294D01*
X0116800Y0138696D02*
X0118254Y0138696D01*
X0135487Y0146688D02*
X0135658Y0146688D01*
X0135295Y0148287D02*
X0137256Y0148287D01*
X0134532Y0149885D02*
X0204400Y0149885D01*
X0204400Y0151484D02*
X0132476Y0151484D01*
X0127619Y0177060D02*
X0127082Y0177060D01*
X0124871Y0180257D02*
X0124000Y0180257D01*
X0124000Y0181856D02*
X0124871Y0181856D01*
X0124871Y0183454D02*
X0124000Y0183454D01*
X0123840Y0185053D02*
X0125030Y0185053D01*
X0128511Y0185053D02*
X0148352Y0185053D01*
X0146761Y0183454D02*
X0144097Y0183454D01*
X0144994Y0181856D02*
X0145865Y0181856D01*
X0145865Y0180257D02*
X0144994Y0180257D01*
X0142090Y0183454D02*
X0141648Y0183454D01*
X0139809Y0183454D02*
X0137054Y0183454D01*
X0135214Y0183454D02*
X0134772Y0183454D01*
X0132765Y0183454D02*
X0130102Y0183454D01*
X0130998Y0181856D02*
X0131869Y0181856D01*
X0131869Y0180257D02*
X0130998Y0180257D01*
X0138178Y0181856D02*
X0138685Y0181856D01*
X0151832Y0185053D02*
X0205826Y0185053D01*
X0205203Y0183454D02*
X0162764Y0183454D01*
X0157254Y0183454D02*
X0154598Y0183454D01*
X0206800Y0156800D02*
X0206802Y0156940D01*
X0206808Y0157080D01*
X0206818Y0157220D01*
X0206831Y0157360D01*
X0206849Y0157499D01*
X0206871Y0157638D01*
X0206896Y0157775D01*
X0206925Y0157913D01*
X0206958Y0158049D01*
X0206995Y0158184D01*
X0207036Y0158318D01*
X0207081Y0158451D01*
X0207129Y0158583D01*
X0207181Y0158713D01*
X0207236Y0158842D01*
X0207295Y0158969D01*
X0207358Y0159095D01*
X0207424Y0159219D01*
X0207493Y0159340D01*
X0207566Y0159460D01*
X0207643Y0159578D01*
X0207722Y0159693D01*
X0207805Y0159807D01*
X0207891Y0159917D01*
X0207980Y0160026D01*
X0208072Y0160132D01*
X0208167Y0160235D01*
X0208264Y0160336D01*
X0208365Y0160433D01*
X0208468Y0160528D01*
X0208574Y0160620D01*
X0208683Y0160709D01*
X0208793Y0160795D01*
X0208907Y0160878D01*
X0209022Y0160957D01*
X0209140Y0161034D01*
X0209260Y0161107D01*
X0209381Y0161176D01*
X0209505Y0161242D01*
X0209631Y0161305D01*
X0209758Y0161364D01*
X0209887Y0161419D01*
X0210017Y0161471D01*
X0210149Y0161519D01*
X0210282Y0161564D01*
X0210416Y0161605D01*
X0210551Y0161642D01*
X0210687Y0161675D01*
X0210825Y0161704D01*
X0210962Y0161729D01*
X0211101Y0161751D01*
X0211240Y0161769D01*
X0211380Y0161782D01*
X0211520Y0161792D01*
X0211660Y0161798D01*
X0211800Y0161800D01*
X0186800Y0126800D02*
X0186660Y0126798D01*
X0186520Y0126792D01*
X0186380Y0126782D01*
X0186240Y0126769D01*
X0186101Y0126751D01*
X0185962Y0126729D01*
X0185825Y0126704D01*
X0185687Y0126675D01*
X0185551Y0126642D01*
X0185416Y0126605D01*
X0185282Y0126564D01*
X0185149Y0126519D01*
X0185017Y0126471D01*
X0184887Y0126419D01*
X0184758Y0126364D01*
X0184631Y0126305D01*
X0184505Y0126242D01*
X0184381Y0126176D01*
X0184260Y0126107D01*
X0184140Y0126034D01*
X0184022Y0125957D01*
X0183907Y0125878D01*
X0183793Y0125795D01*
X0183683Y0125709D01*
X0183574Y0125620D01*
X0183468Y0125528D01*
X0183365Y0125433D01*
X0183264Y0125336D01*
X0183167Y0125235D01*
X0183072Y0125132D01*
X0182980Y0125026D01*
X0182891Y0124917D01*
X0182805Y0124807D01*
X0182722Y0124693D01*
X0182643Y0124578D01*
X0182566Y0124460D01*
X0182493Y0124340D01*
X0182424Y0124219D01*
X0182358Y0124095D01*
X0182295Y0123969D01*
X0182236Y0123842D01*
X0182181Y0123713D01*
X0182129Y0123583D01*
X0182081Y0123451D01*
X0182036Y0123318D01*
X0181995Y0123184D01*
X0181958Y0123049D01*
X0181925Y0122913D01*
X0181896Y0122775D01*
X0181871Y0122638D01*
X0181849Y0122499D01*
X0181831Y0122360D01*
X0181818Y0122220D01*
X0181808Y0122080D01*
X0181802Y0121940D01*
X0181800Y0121800D01*
X0191800Y0106800D02*
X0191798Y0106660D01*
X0191792Y0106520D01*
X0191782Y0106380D01*
X0191769Y0106240D01*
X0191751Y0106101D01*
X0191729Y0105962D01*
X0191704Y0105825D01*
X0191675Y0105687D01*
X0191642Y0105551D01*
X0191605Y0105416D01*
X0191564Y0105282D01*
X0191519Y0105149D01*
X0191471Y0105017D01*
X0191419Y0104887D01*
X0191364Y0104758D01*
X0191305Y0104631D01*
X0191242Y0104505D01*
X0191176Y0104381D01*
X0191107Y0104260D01*
X0191034Y0104140D01*
X0190957Y0104022D01*
X0190878Y0103907D01*
X0190795Y0103793D01*
X0190709Y0103683D01*
X0190620Y0103574D01*
X0190528Y0103468D01*
X0190433Y0103365D01*
X0190336Y0103264D01*
X0190235Y0103167D01*
X0190132Y0103072D01*
X0190026Y0102980D01*
X0189917Y0102891D01*
X0189807Y0102805D01*
X0189693Y0102722D01*
X0189578Y0102643D01*
X0189460Y0102566D01*
X0189340Y0102493D01*
X0189219Y0102424D01*
X0189095Y0102358D01*
X0188969Y0102295D01*
X0188842Y0102236D01*
X0188713Y0102181D01*
X0188583Y0102129D01*
X0188451Y0102081D01*
X0188318Y0102036D01*
X0188184Y0101995D01*
X0188049Y0101958D01*
X0187913Y0101925D01*
X0187775Y0101896D01*
X0187638Y0101871D01*
X0187499Y0101849D01*
X0187360Y0101831D01*
X0187220Y0101818D01*
X0187080Y0101808D01*
X0186940Y0101802D01*
X0186800Y0101800D01*
X0181800Y0101800D01*
X0181800Y0086800D01*
X0179400Y0087543D02*
X0175181Y0087543D01*
X0176800Y0081800D02*
X0176940Y0081802D01*
X0177080Y0081808D01*
X0177220Y0081818D01*
X0177360Y0081831D01*
X0177499Y0081849D01*
X0177638Y0081871D01*
X0177775Y0081896D01*
X0177913Y0081925D01*
X0178049Y0081958D01*
X0178184Y0081995D01*
X0178318Y0082036D01*
X0178451Y0082081D01*
X0178583Y0082129D01*
X0178713Y0082181D01*
X0178842Y0082236D01*
X0178969Y0082295D01*
X0179095Y0082358D01*
X0179219Y0082424D01*
X0179340Y0082493D01*
X0179460Y0082566D01*
X0179578Y0082643D01*
X0179693Y0082722D01*
X0179807Y0082805D01*
X0179917Y0082891D01*
X0180026Y0082980D01*
X0180132Y0083072D01*
X0180235Y0083167D01*
X0180336Y0083264D01*
X0180433Y0083365D01*
X0180528Y0083468D01*
X0180620Y0083574D01*
X0180709Y0083683D01*
X0180795Y0083793D01*
X0180878Y0083907D01*
X0180957Y0084022D01*
X0181034Y0084140D01*
X0181107Y0084260D01*
X0181176Y0084381D01*
X0181242Y0084505D01*
X0181305Y0084631D01*
X0181364Y0084758D01*
X0181419Y0084887D01*
X0181471Y0085017D01*
X0181519Y0085149D01*
X0181564Y0085282D01*
X0181605Y0085416D01*
X0181642Y0085551D01*
X0181675Y0085687D01*
X0181704Y0085825D01*
X0181729Y0085962D01*
X0181751Y0086101D01*
X0181769Y0086240D01*
X0181782Y0086380D01*
X0181792Y0086520D01*
X0181798Y0086660D01*
X0181800Y0086800D01*
X0179206Y0085945D02*
X0176989Y0085945D01*
X0179400Y0089142D02*
X0154200Y0089142D01*
X0154200Y0090740D02*
X0179400Y0090740D01*
X0179400Y0092339D02*
X0154200Y0092339D01*
X0154200Y0093937D02*
X0179400Y0093937D01*
X0179400Y0095536D02*
X0154200Y0095536D01*
X0154200Y0097134D02*
X0179400Y0097134D01*
X0190992Y0100527D02*
X0190992Y0100527D01*
X0188733Y0105127D02*
X0187902Y0105127D01*
X0168419Y0087543D02*
X0154200Y0087543D01*
X0154394Y0085945D02*
X0166611Y0085945D01*
X0165711Y0084346D02*
X0156060Y0084346D01*
X0156800Y0081800D02*
X0156660Y0081802D01*
X0156520Y0081808D01*
X0156380Y0081818D01*
X0156240Y0081831D01*
X0156101Y0081849D01*
X0155962Y0081871D01*
X0155825Y0081896D01*
X0155687Y0081925D01*
X0155551Y0081958D01*
X0155416Y0081995D01*
X0155282Y0082036D01*
X0155149Y0082081D01*
X0155017Y0082129D01*
X0154887Y0082181D01*
X0154758Y0082236D01*
X0154631Y0082295D01*
X0154505Y0082358D01*
X0154381Y0082424D01*
X0154260Y0082493D01*
X0154140Y0082566D01*
X0154022Y0082643D01*
X0153907Y0082722D01*
X0153793Y0082805D01*
X0153683Y0082891D01*
X0153574Y0082980D01*
X0153468Y0083072D01*
X0153365Y0083167D01*
X0153264Y0083264D01*
X0153167Y0083365D01*
X0153072Y0083468D01*
X0152980Y0083574D01*
X0152891Y0083683D01*
X0152805Y0083793D01*
X0152722Y0083907D01*
X0152643Y0084022D01*
X0152566Y0084140D01*
X0152493Y0084260D01*
X0152424Y0084381D01*
X0152358Y0084505D01*
X0152295Y0084631D01*
X0152236Y0084758D01*
X0152181Y0084887D01*
X0152129Y0085017D01*
X0152081Y0085149D01*
X0152036Y0085282D01*
X0151995Y0085416D01*
X0151958Y0085551D01*
X0151925Y0085687D01*
X0151896Y0085825D01*
X0151871Y0085962D01*
X0151849Y0086101D01*
X0151831Y0086240D01*
X0151818Y0086380D01*
X0151808Y0086520D01*
X0151802Y0086660D01*
X0151800Y0086800D01*
X0151800Y0096800D01*
X0154009Y0098733D02*
X0158644Y0098733D01*
X0157400Y0100332D02*
X0153347Y0100332D01*
X0153073Y0100992D02*
X0153073Y0100992D01*
X0152135Y0101930D02*
X0157400Y0101930D01*
X0157400Y0103529D02*
X0149893Y0103529D01*
X0146800Y0101800D02*
X0141800Y0101800D01*
X0144673Y0098733D02*
X0148473Y0098733D01*
X0146800Y0101800D02*
X0146940Y0101798D01*
X0147080Y0101792D01*
X0147220Y0101782D01*
X0147360Y0101769D01*
X0147499Y0101751D01*
X0147638Y0101729D01*
X0147775Y0101704D01*
X0147913Y0101675D01*
X0148049Y0101642D01*
X0148184Y0101605D01*
X0148318Y0101564D01*
X0148451Y0101519D01*
X0148583Y0101471D01*
X0148713Y0101419D01*
X0148842Y0101364D01*
X0148969Y0101305D01*
X0149095Y0101242D01*
X0149219Y0101176D01*
X0149340Y0101107D01*
X0149460Y0101034D01*
X0149578Y0100957D01*
X0149693Y0100878D01*
X0149807Y0100795D01*
X0149917Y0100709D01*
X0150026Y0100620D01*
X0150132Y0100528D01*
X0150235Y0100433D01*
X0150336Y0100336D01*
X0150433Y0100235D01*
X0150528Y0100132D01*
X0150620Y0100026D01*
X0150709Y0099917D01*
X0150795Y0099807D01*
X0150878Y0099693D01*
X0150957Y0099578D01*
X0151034Y0099460D01*
X0151107Y0099340D01*
X0151176Y0099219D01*
X0151242Y0099095D01*
X0151305Y0098969D01*
X0151364Y0098842D01*
X0151419Y0098713D01*
X0151471Y0098583D01*
X0151519Y0098451D01*
X0151564Y0098318D01*
X0151605Y0098184D01*
X0151642Y0098049D01*
X0151675Y0097913D01*
X0151704Y0097775D01*
X0151729Y0097638D01*
X0151751Y0097499D01*
X0151769Y0097360D01*
X0151782Y0097220D01*
X0151792Y0097080D01*
X0151798Y0096940D01*
X0151800Y0096800D01*
X0138111Y0089142D02*
X0135147Y0089142D01*
X0135635Y0087543D02*
X0136513Y0087543D01*
X0136215Y0076354D02*
X0135487Y0076354D01*
X0135063Y0074755D02*
X0137814Y0074755D01*
X0134658Y0065164D02*
X0165548Y0065164D01*
X0165000Y0063566D02*
X0136200Y0063566D01*
X0156800Y0081800D02*
X0171800Y0081800D01*
X0176800Y0081800D01*
X0183073Y0082608D02*
X0183073Y0082608D01*
X0216045Y0057172D02*
X0227838Y0057172D01*
X0226239Y0055573D02*
X0217643Y0055573D01*
X0218600Y0053975D02*
X0225557Y0053975D01*
X0225200Y0052376D02*
X0218600Y0052376D01*
X0218600Y0050778D02*
X0225200Y0050778D01*
X0225742Y0049179D02*
X0218600Y0049179D01*
X0217197Y0047581D02*
X0226686Y0047581D01*
X0228599Y0045982D02*
X0215599Y0045982D01*
X0137600Y0103529D02*
X0134346Y0103529D01*
X0037275Y0186651D02*
X0037119Y0186651D01*
X0035520Y0188250D02*
X0038874Y0188250D01*
M02*
