G75*
%MOIN*%
%OFA0B0*%
%FSLAX25Y25*%
%IPPOS*%
%LPD*%
%AMOC8*
5,1,8,0,0,1.08239X$1,22.5*
%
%ADD10C,0.10000*%
%ADD11OC8,0.10000*%
%ADD12OC8,0.05200*%
%ADD13C,0.07087*%
%ADD14C,0.07087*%
%ADD15C,0.09449*%
%ADD16OC8,0.10050*%
%ADD17OC8,0.12400*%
%ADD18C,0.05937*%
%ADD19C,0.05200*%
%ADD20C,0.01600*%
D10*
X0171800Y0081800D03*
X0231800Y0051800D03*
X0171800Y0161800D03*
X0211800Y0181800D03*
D11*
X0211800Y0161800D03*
X0171800Y0141800D03*
X0171800Y0061800D03*
X0211800Y0051800D03*
D12*
X0216800Y0081800D03*
X0236800Y0081800D03*
X0161800Y0101800D03*
X0141800Y0101800D03*
X0141800Y0121800D03*
X0161800Y0121800D03*
X0206800Y0141800D03*
X0226800Y0141800D03*
X0131800Y0061800D03*
X0091800Y0061800D03*
D13*
X0093257Y0076800D02*
X0100343Y0076800D01*
X0100343Y0086800D02*
X0093257Y0086800D01*
X0093257Y0096800D02*
X0100343Y0096800D01*
X0100343Y0106800D02*
X0093257Y0106800D01*
X0093257Y0116800D02*
X0100343Y0116800D01*
X0100343Y0126800D02*
X0093257Y0126800D01*
X0093257Y0136800D02*
X0100343Y0136800D01*
X0100343Y0146800D02*
X0093257Y0146800D01*
X0123257Y0146800D02*
X0130343Y0146800D01*
X0130343Y0136800D02*
X0123257Y0136800D01*
X0123257Y0126800D02*
X0130343Y0126800D01*
X0130343Y0116800D02*
X0123257Y0116800D01*
X0123257Y0106800D02*
X0130343Y0106800D01*
X0130343Y0096800D02*
X0123257Y0096800D01*
X0123257Y0086800D02*
X0130343Y0086800D01*
X0130343Y0076800D02*
X0123257Y0076800D01*
D14*
X0251800Y0104162D03*
X0271800Y0104162D03*
D15*
X0251800Y0089162D03*
X0251800Y0119162D03*
D16*
X0271800Y0161800D03*
X0286800Y0161800D03*
X0251800Y0046800D03*
D17*
X0141800Y0081800D03*
X0141800Y0141800D03*
D18*
X0178831Y0121800D02*
X0184769Y0121800D01*
X0184769Y0111800D02*
X0178831Y0111800D01*
X0178831Y0101800D02*
X0184769Y0101800D01*
X0039769Y0096800D02*
X0033831Y0096800D01*
X0033831Y0106800D02*
X0039769Y0106800D01*
X0039769Y0116800D02*
X0033831Y0116800D01*
X0033831Y0126800D02*
X0039769Y0126800D01*
X0039769Y0136800D02*
X0033831Y0136800D01*
X0033831Y0086800D02*
X0039769Y0086800D01*
X0039769Y0076800D02*
X0033831Y0076800D01*
D19*
X0206800Y0096800D03*
X0216800Y0096800D03*
X0226800Y0096800D03*
X0236800Y0096800D03*
X0236800Y0126800D03*
X0226800Y0126800D03*
X0216800Y0126800D03*
X0206800Y0126800D03*
D20*
X0043615Y0032918D02*
X0041331Y0031600D01*
X0106800Y0031600D01*
X0106800Y0190701D01*
X0026600Y0190701D01*
X0026600Y0171331D01*
X0027918Y0173615D01*
X0029985Y0175682D01*
X0032516Y0177143D01*
X0035339Y0177899D01*
X0038261Y0177899D01*
X0041084Y0177143D01*
X0043615Y0175682D01*
X0045682Y0173615D01*
X0047143Y0171084D01*
X0047899Y0168261D01*
X0047899Y0165339D01*
X0047143Y0162516D01*
X0045682Y0159985D01*
X0043615Y0157918D01*
X0041084Y0156457D01*
X0038261Y0155701D01*
X0035339Y0155701D01*
X0032516Y0156457D01*
X0029985Y0157918D01*
X0027918Y0159985D01*
X0026600Y0162269D01*
X0026600Y0046331D01*
X0027918Y0048615D01*
X0029985Y0050682D01*
X0032516Y0052143D01*
X0035339Y0052899D01*
X0038261Y0052899D01*
X0041084Y0052143D01*
X0043615Y0050682D01*
X0045682Y0048615D01*
X0047143Y0046084D01*
X0047899Y0043261D01*
X0047899Y0040339D01*
X0047143Y0037516D01*
X0045682Y0034985D01*
X0043615Y0032918D01*
X0043891Y0033194D02*
X0106800Y0033194D01*
X0106800Y0034793D02*
X0045489Y0034793D01*
X0046493Y0036391D02*
X0106800Y0036391D01*
X0106800Y0037990D02*
X0047270Y0037990D01*
X0047698Y0039588D02*
X0106800Y0039588D01*
X0106800Y0041187D02*
X0047899Y0041187D01*
X0047899Y0042785D02*
X0106800Y0042785D01*
X0106800Y0044384D02*
X0047598Y0044384D01*
X0047170Y0045982D02*
X0106800Y0045982D01*
X0106800Y0047581D02*
X0046279Y0047581D01*
X0045117Y0049179D02*
X0106800Y0049179D01*
X0106800Y0050778D02*
X0043449Y0050778D01*
X0040213Y0052376D02*
X0106800Y0052376D01*
X0106800Y0053975D02*
X0026600Y0053975D01*
X0026600Y0055573D02*
X0106800Y0055573D01*
X0106800Y0057172D02*
X0026600Y0057172D01*
X0026600Y0058770D02*
X0088607Y0058770D01*
X0087400Y0059977D02*
X0089977Y0057400D01*
X0091800Y0057400D01*
X0093623Y0057400D01*
X0096200Y0059977D01*
X0096200Y0061800D01*
X0096200Y0063623D01*
X0093623Y0066200D01*
X0091800Y0066200D01*
X0091800Y0061800D01*
X0096200Y0061800D01*
X0091800Y0061800D01*
X0091800Y0061800D01*
X0091800Y0061800D01*
X0091800Y0057400D01*
X0091800Y0061800D01*
X0091800Y0061800D01*
X0091800Y0061800D01*
X0087400Y0061800D01*
X0087400Y0063623D01*
X0089977Y0066200D01*
X0091800Y0066200D01*
X0091800Y0061800D01*
X0087400Y0061800D01*
X0087400Y0059977D01*
X0087400Y0060369D02*
X0026600Y0060369D01*
X0026600Y0061967D02*
X0087400Y0061967D01*
X0087400Y0063566D02*
X0026600Y0063566D01*
X0026600Y0065164D02*
X0088942Y0065164D01*
X0091800Y0065164D02*
X0091800Y0065164D01*
X0091800Y0063566D02*
X0091800Y0063566D01*
X0091800Y0061967D02*
X0091800Y0061967D01*
X0091800Y0060369D02*
X0091800Y0060369D01*
X0091800Y0058770D02*
X0091800Y0058770D01*
X0094993Y0058770D02*
X0106800Y0058770D01*
X0106800Y0060369D02*
X0096200Y0060369D01*
X0096200Y0061967D02*
X0106800Y0061967D01*
X0106800Y0063566D02*
X0096200Y0063566D01*
X0094658Y0065164D02*
X0106800Y0065164D01*
X0106800Y0066763D02*
X0026600Y0066763D01*
X0026600Y0068361D02*
X0106800Y0068361D01*
X0106800Y0069960D02*
X0026600Y0069960D01*
X0026600Y0071558D02*
X0106800Y0071558D01*
X0106800Y0073157D02*
X0103974Y0073157D01*
X0103257Y0072440D02*
X0104704Y0073887D01*
X0105487Y0075777D01*
X0105487Y0077823D01*
X0104704Y0079713D01*
X0103257Y0081160D01*
X0101712Y0081800D01*
X0103257Y0082440D01*
X0104704Y0083887D01*
X0105487Y0085777D01*
X0105487Y0087823D01*
X0104704Y0089713D01*
X0103257Y0091160D01*
X0101712Y0091800D01*
X0103257Y0092440D01*
X0104704Y0093887D01*
X0105487Y0095777D01*
X0105487Y0097823D01*
X0104704Y0099713D01*
X0103257Y0101160D01*
X0101947Y0101703D01*
X0102394Y0101848D01*
X0103144Y0102230D01*
X0103824Y0102724D01*
X0104419Y0103319D01*
X0104913Y0103999D01*
X0105295Y0104749D01*
X0105555Y0105549D01*
X0105687Y0106379D01*
X0105687Y0106419D01*
X0097181Y0106419D01*
X0097181Y0107181D01*
X0105687Y0107181D01*
X0105687Y0107221D01*
X0105555Y0108051D01*
X0105295Y0108851D01*
X0104913Y0109600D01*
X0104419Y0110281D01*
X0103824Y0110876D01*
X0103144Y0111370D01*
X0102394Y0111752D01*
X0101947Y0111897D01*
X0103257Y0112440D01*
X0104704Y0113887D01*
X0105487Y0115777D01*
X0105487Y0117823D01*
X0104704Y0119713D01*
X0103257Y0121160D01*
X0101712Y0121800D01*
X0103257Y0122440D01*
X0104704Y0123887D01*
X0105487Y0125777D01*
X0105487Y0127823D01*
X0104704Y0129713D01*
X0103257Y0131160D01*
X0101712Y0131800D01*
X0103257Y0132440D01*
X0104704Y0133887D01*
X0105487Y0135777D01*
X0105487Y0137823D01*
X0104704Y0139713D01*
X0103257Y0141160D01*
X0101712Y0141800D01*
X0103257Y0142440D01*
X0104704Y0143887D01*
X0105487Y0145777D01*
X0105487Y0147823D01*
X0104704Y0149713D01*
X0103257Y0151160D01*
X0101366Y0151943D01*
X0092234Y0151943D01*
X0090343Y0151160D01*
X0088896Y0149713D01*
X0088684Y0149200D01*
X0060328Y0149200D01*
X0057608Y0148073D01*
X0055527Y0145992D01*
X0054400Y0143272D01*
X0054400Y0121800D01*
X0054350Y0121293D01*
X0053962Y0120356D01*
X0053244Y0119638D01*
X0052307Y0119250D01*
X0051800Y0119200D01*
X0043719Y0119200D01*
X0043641Y0119388D01*
X0042356Y0120673D01*
X0040677Y0121368D01*
X0032923Y0121368D01*
X0031244Y0120673D01*
X0029959Y0119388D01*
X0029263Y0117709D01*
X0029263Y0115891D01*
X0029959Y0114212D01*
X0031244Y0112927D01*
X0032923Y0112231D01*
X0040677Y0112231D01*
X0042356Y0112927D01*
X0043641Y0114212D01*
X0043719Y0114400D01*
X0053272Y0114400D01*
X0055992Y0115527D01*
X0058073Y0117608D01*
X0059200Y0120328D01*
X0059200Y0141800D01*
X0059250Y0142307D01*
X0059638Y0143244D01*
X0060356Y0143962D01*
X0061293Y0144350D01*
X0061800Y0144400D01*
X0088684Y0144400D01*
X0088896Y0143887D01*
X0090343Y0142440D01*
X0091888Y0141800D01*
X0090343Y0141160D01*
X0088896Y0139713D01*
X0088684Y0139200D01*
X0065328Y0139200D01*
X0062608Y0138073D01*
X0060527Y0135992D01*
X0059400Y0133272D01*
X0059400Y0111800D01*
X0059350Y0111293D01*
X0058962Y0110355D01*
X0058244Y0109638D01*
X0057307Y0109250D01*
X0056800Y0109200D01*
X0043719Y0109200D01*
X0043641Y0109388D01*
X0042356Y0110673D01*
X0040677Y0111368D01*
X0032923Y0111368D01*
X0031244Y0110673D01*
X0029959Y0109388D01*
X0029263Y0107709D01*
X0029263Y0105891D01*
X0029959Y0104212D01*
X0031244Y0102927D01*
X0032923Y0102231D01*
X0040677Y0102231D01*
X0042356Y0102927D01*
X0043641Y0104212D01*
X0043719Y0104400D01*
X0058272Y0104400D01*
X0060992Y0105527D01*
X0063073Y0107608D01*
X0063073Y0107608D01*
X0064200Y0110328D01*
X0064200Y0131800D01*
X0064250Y0132307D01*
X0064638Y0133244D01*
X0065356Y0133962D01*
X0066293Y0134350D01*
X0066800Y0134400D01*
X0088684Y0134400D01*
X0088896Y0133887D01*
X0090343Y0132440D01*
X0091888Y0131800D01*
X0090343Y0131160D01*
X0088896Y0129713D01*
X0088684Y0129200D01*
X0070328Y0129200D01*
X0067608Y0128073D01*
X0065527Y0125992D01*
X0064400Y0123272D01*
X0064400Y0101800D01*
X0064350Y0101293D01*
X0063962Y0100356D01*
X0063244Y0099638D01*
X0062307Y0099250D01*
X0061800Y0099200D01*
X0043719Y0099200D01*
X0043641Y0099388D01*
X0042356Y0100673D01*
X0040677Y0101368D01*
X0032923Y0101368D01*
X0031244Y0100673D01*
X0029959Y0099388D01*
X0029263Y0097709D01*
X0029263Y0095891D01*
X0029959Y0094212D01*
X0031244Y0092927D01*
X0032923Y0092231D01*
X0040677Y0092231D01*
X0042356Y0092927D01*
X0043641Y0094212D01*
X0043719Y0094400D01*
X0063272Y0094400D01*
X0065992Y0095527D01*
X0068073Y0097608D01*
X0069200Y0100328D01*
X0069200Y0121800D01*
X0069250Y0122307D01*
X0069638Y0123244D01*
X0069638Y0123244D01*
X0070356Y0123962D01*
X0071293Y0124350D01*
X0071800Y0124400D01*
X0088684Y0124400D01*
X0088896Y0123887D01*
X0090343Y0122440D01*
X0091888Y0121800D01*
X0090343Y0121160D01*
X0088896Y0119713D01*
X0088113Y0117823D01*
X0088113Y0115777D01*
X0088896Y0113887D01*
X0090343Y0112440D01*
X0091653Y0111897D01*
X0091206Y0111752D01*
X0090456Y0111370D01*
X0089776Y0110876D01*
X0089181Y0110281D01*
X0088687Y0109600D01*
X0088305Y0108851D01*
X0088045Y0108051D01*
X0087913Y0107221D01*
X0087913Y0107181D01*
X0096419Y0107181D01*
X0096419Y0106419D01*
X0087913Y0106419D01*
X0087913Y0106379D01*
X0088045Y0105549D01*
X0088305Y0104749D01*
X0088687Y0103999D01*
X0089181Y0103319D01*
X0089776Y0102724D01*
X0090456Y0102230D01*
X0091206Y0101848D01*
X0091653Y0101703D01*
X0090343Y0101160D01*
X0088896Y0099713D01*
X0088684Y0099200D01*
X0075328Y0099200D01*
X0072608Y0098073D01*
X0070527Y0095992D01*
X0069400Y0093272D01*
X0069400Y0091800D01*
X0069350Y0091293D01*
X0068962Y0090356D01*
X0068244Y0089638D01*
X0067307Y0089250D01*
X0066800Y0089200D01*
X0043719Y0089200D01*
X0043641Y0089388D01*
X0042356Y0090673D01*
X0040677Y0091368D01*
X0032923Y0091368D01*
X0031244Y0090673D01*
X0029959Y0089388D01*
X0029263Y0087709D01*
X0029263Y0085891D01*
X0029959Y0084212D01*
X0031244Y0082927D01*
X0032923Y0082231D01*
X0040677Y0082231D01*
X0042356Y0082927D01*
X0043641Y0084212D01*
X0043719Y0084400D01*
X0068272Y0084400D01*
X0070992Y0085527D01*
X0073073Y0087608D01*
X0074200Y0090328D01*
X0074200Y0091800D01*
X0074250Y0092307D01*
X0074638Y0093244D01*
X0075356Y0093962D01*
X0076293Y0094350D01*
X0076800Y0094400D01*
X0088684Y0094400D01*
X0088896Y0093887D01*
X0090343Y0092440D01*
X0091888Y0091800D01*
X0090343Y0091160D01*
X0088896Y0089713D01*
X0088113Y0087823D01*
X0088113Y0085777D01*
X0088896Y0083887D01*
X0090343Y0082440D01*
X0091888Y0081800D01*
X0090343Y0081160D01*
X0088896Y0079713D01*
X0088684Y0079200D01*
X0043719Y0079200D01*
X0043641Y0079388D01*
X0042356Y0080673D01*
X0040677Y0081368D01*
X0032923Y0081368D01*
X0031244Y0080673D01*
X0029959Y0079388D01*
X0029263Y0077709D01*
X0029263Y0075891D01*
X0029959Y0074212D01*
X0031244Y0072927D01*
X0032923Y0072231D01*
X0040677Y0072231D01*
X0042356Y0072927D01*
X0043641Y0074212D01*
X0043719Y0074400D01*
X0088684Y0074400D01*
X0088896Y0073887D01*
X0090343Y0072440D01*
X0092234Y0071657D01*
X0101366Y0071657D01*
X0103257Y0072440D01*
X0105063Y0074755D02*
X0106800Y0074755D01*
X0106800Y0076354D02*
X0105487Y0076354D01*
X0105433Y0077952D02*
X0106800Y0077952D01*
X0106800Y0079551D02*
X0104771Y0079551D01*
X0103268Y0081149D02*
X0106800Y0081149D01*
X0106800Y0082748D02*
X0103565Y0082748D01*
X0104894Y0084346D02*
X0106800Y0084346D01*
X0106800Y0085945D02*
X0105487Y0085945D01*
X0105487Y0087543D02*
X0106800Y0087543D01*
X0106800Y0089142D02*
X0104940Y0089142D01*
X0103677Y0090740D02*
X0106800Y0090740D01*
X0106800Y0092339D02*
X0103014Y0092339D01*
X0104725Y0093937D02*
X0106800Y0093937D01*
X0106800Y0095536D02*
X0105387Y0095536D01*
X0105487Y0097134D02*
X0106800Y0097134D01*
X0106800Y0098733D02*
X0105110Y0098733D01*
X0104086Y0100332D02*
X0106800Y0100332D01*
X0106800Y0101930D02*
X0102555Y0101930D01*
X0104571Y0103529D02*
X0106800Y0103529D01*
X0106800Y0105127D02*
X0105418Y0105127D01*
X0106800Y0106726D02*
X0097181Y0106726D01*
X0096419Y0106726D02*
X0069200Y0106726D01*
X0069200Y0108324D02*
X0088134Y0108324D01*
X0088921Y0109923D02*
X0069200Y0109923D01*
X0069200Y0111521D02*
X0090753Y0111521D01*
X0089663Y0113120D02*
X0069200Y0113120D01*
X0069200Y0114718D02*
X0088552Y0114718D01*
X0088113Y0116317D02*
X0069200Y0116317D01*
X0069200Y0117915D02*
X0088152Y0117915D01*
X0088814Y0119514D02*
X0069200Y0119514D01*
X0069200Y0121112D02*
X0090295Y0121112D01*
X0090072Y0122711D02*
X0069417Y0122711D01*
X0071194Y0124309D02*
X0088721Y0124309D01*
X0089886Y0130703D02*
X0064200Y0130703D01*
X0064200Y0129105D02*
X0070098Y0129105D01*
X0067608Y0128073D02*
X0067608Y0128073D01*
X0067041Y0127506D02*
X0064200Y0127506D01*
X0064200Y0125908D02*
X0065492Y0125908D01*
X0064830Y0124309D02*
X0064200Y0124309D01*
X0064200Y0122711D02*
X0064400Y0122711D01*
X0064400Y0121112D02*
X0064200Y0121112D01*
X0064200Y0119514D02*
X0064400Y0119514D01*
X0064400Y0117915D02*
X0064200Y0117915D01*
X0064200Y0116317D02*
X0064400Y0116317D01*
X0064400Y0114718D02*
X0064200Y0114718D01*
X0064200Y0113120D02*
X0064400Y0113120D01*
X0064400Y0111521D02*
X0064200Y0111521D01*
X0064032Y0109923D02*
X0064400Y0109923D01*
X0064400Y0108324D02*
X0063370Y0108324D01*
X0063073Y0107608D02*
X0063073Y0107608D01*
X0062191Y0106726D02*
X0064400Y0106726D01*
X0064400Y0105127D02*
X0060027Y0105127D01*
X0056800Y0106800D02*
X0036800Y0106800D01*
X0042958Y0103529D02*
X0064400Y0103529D01*
X0064400Y0101930D02*
X0026600Y0101930D01*
X0026600Y0100332D02*
X0030902Y0100332D01*
X0029687Y0098733D02*
X0026600Y0098733D01*
X0026600Y0097134D02*
X0029263Y0097134D01*
X0029410Y0095536D02*
X0026600Y0095536D01*
X0026600Y0093937D02*
X0030233Y0093937D01*
X0032663Y0092339D02*
X0026600Y0092339D01*
X0026600Y0090740D02*
X0031407Y0090740D01*
X0029857Y0089142D02*
X0026600Y0089142D01*
X0026600Y0087543D02*
X0029263Y0087543D01*
X0029263Y0085945D02*
X0026600Y0085945D01*
X0026600Y0084346D02*
X0029903Y0084346D01*
X0031676Y0082748D02*
X0026600Y0082748D01*
X0026600Y0081149D02*
X0032394Y0081149D01*
X0030122Y0079551D02*
X0026600Y0079551D01*
X0026600Y0077952D02*
X0029364Y0077952D01*
X0029263Y0076354D02*
X0026600Y0076354D01*
X0026600Y0074755D02*
X0029734Y0074755D01*
X0031014Y0073157D02*
X0026600Y0073157D01*
X0036800Y0076800D02*
X0096800Y0076800D01*
X0090332Y0081149D02*
X0041206Y0081149D01*
X0041924Y0082748D02*
X0090035Y0082748D01*
X0088706Y0084346D02*
X0043697Y0084346D01*
X0043478Y0079551D02*
X0088829Y0079551D01*
X0088113Y0085945D02*
X0071410Y0085945D01*
X0070992Y0085527D02*
X0070992Y0085527D01*
X0073009Y0087543D02*
X0088113Y0087543D01*
X0088660Y0089142D02*
X0073709Y0089142D01*
X0073073Y0087608D02*
X0073073Y0087608D01*
X0074200Y0090740D02*
X0089923Y0090740D01*
X0090586Y0092339D02*
X0074263Y0092339D01*
X0075331Y0093937D02*
X0088875Y0093937D01*
X0089514Y0100332D02*
X0069200Y0100332D01*
X0069200Y0101930D02*
X0091045Y0101930D01*
X0089029Y0103529D02*
X0069200Y0103529D01*
X0069200Y0105127D02*
X0088182Y0105127D01*
X0096800Y0096800D02*
X0076800Y0096800D01*
X0074201Y0098733D02*
X0068539Y0098733D01*
X0068073Y0097608D02*
X0068073Y0097608D01*
X0067600Y0097134D02*
X0071669Y0097134D01*
X0072608Y0098073D02*
X0072608Y0098073D01*
X0070527Y0095992D02*
X0070527Y0095992D01*
X0070338Y0095536D02*
X0066001Y0095536D01*
X0065992Y0095527D02*
X0065992Y0095527D01*
X0069676Y0093937D02*
X0043367Y0093937D01*
X0040937Y0092339D02*
X0069400Y0092339D01*
X0069121Y0090740D02*
X0042193Y0090740D01*
X0036800Y0086800D02*
X0066800Y0086800D01*
X0066940Y0086802D01*
X0067080Y0086808D01*
X0067220Y0086818D01*
X0067360Y0086831D01*
X0067499Y0086849D01*
X0067638Y0086871D01*
X0067775Y0086896D01*
X0067913Y0086925D01*
X0068049Y0086958D01*
X0068184Y0086995D01*
X0068318Y0087036D01*
X0068451Y0087081D01*
X0068583Y0087129D01*
X0068713Y0087181D01*
X0068842Y0087236D01*
X0068969Y0087295D01*
X0069095Y0087358D01*
X0069219Y0087424D01*
X0069340Y0087493D01*
X0069460Y0087566D01*
X0069578Y0087643D01*
X0069693Y0087722D01*
X0069807Y0087805D01*
X0069917Y0087891D01*
X0070026Y0087980D01*
X0070132Y0088072D01*
X0070235Y0088167D01*
X0070336Y0088264D01*
X0070433Y0088365D01*
X0070528Y0088468D01*
X0070620Y0088574D01*
X0070709Y0088683D01*
X0070795Y0088793D01*
X0070878Y0088907D01*
X0070957Y0089022D01*
X0071034Y0089140D01*
X0071107Y0089260D01*
X0071176Y0089381D01*
X0071242Y0089505D01*
X0071305Y0089631D01*
X0071364Y0089758D01*
X0071419Y0089887D01*
X0071471Y0090017D01*
X0071519Y0090149D01*
X0071564Y0090282D01*
X0071605Y0090416D01*
X0071642Y0090551D01*
X0071675Y0090687D01*
X0071704Y0090825D01*
X0071729Y0090962D01*
X0071751Y0091101D01*
X0071769Y0091240D01*
X0071782Y0091380D01*
X0071792Y0091520D01*
X0071798Y0091660D01*
X0071800Y0091800D01*
X0071802Y0091940D01*
X0071808Y0092080D01*
X0071818Y0092220D01*
X0071831Y0092360D01*
X0071849Y0092499D01*
X0071871Y0092638D01*
X0071896Y0092775D01*
X0071925Y0092913D01*
X0071958Y0093049D01*
X0071995Y0093184D01*
X0072036Y0093318D01*
X0072081Y0093451D01*
X0072129Y0093583D01*
X0072181Y0093713D01*
X0072236Y0093842D01*
X0072295Y0093969D01*
X0072358Y0094095D01*
X0072424Y0094219D01*
X0072493Y0094340D01*
X0072566Y0094460D01*
X0072643Y0094578D01*
X0072722Y0094693D01*
X0072805Y0094807D01*
X0072891Y0094917D01*
X0072980Y0095026D01*
X0073072Y0095132D01*
X0073167Y0095235D01*
X0073264Y0095336D01*
X0073365Y0095433D01*
X0073468Y0095528D01*
X0073574Y0095620D01*
X0073683Y0095709D01*
X0073793Y0095795D01*
X0073907Y0095878D01*
X0074022Y0095957D01*
X0074140Y0096034D01*
X0074260Y0096107D01*
X0074381Y0096176D01*
X0074505Y0096242D01*
X0074631Y0096305D01*
X0074758Y0096364D01*
X0074887Y0096419D01*
X0075017Y0096471D01*
X0075149Y0096519D01*
X0075282Y0096564D01*
X0075416Y0096605D01*
X0075551Y0096642D01*
X0075687Y0096675D01*
X0075825Y0096704D01*
X0075962Y0096729D01*
X0076101Y0096751D01*
X0076240Y0096769D01*
X0076380Y0096782D01*
X0076520Y0096792D01*
X0076660Y0096798D01*
X0076800Y0096800D01*
X0066800Y0101800D02*
X0066800Y0121800D01*
X0066802Y0121940D01*
X0066808Y0122080D01*
X0066818Y0122220D01*
X0066831Y0122360D01*
X0066849Y0122499D01*
X0066871Y0122638D01*
X0066896Y0122775D01*
X0066925Y0122913D01*
X0066958Y0123049D01*
X0066995Y0123184D01*
X0067036Y0123318D01*
X0067081Y0123451D01*
X0067129Y0123583D01*
X0067181Y0123713D01*
X0067236Y0123842D01*
X0067295Y0123969D01*
X0067358Y0124095D01*
X0067424Y0124219D01*
X0067493Y0124340D01*
X0067566Y0124460D01*
X0067643Y0124578D01*
X0067722Y0124693D01*
X0067805Y0124807D01*
X0067891Y0124917D01*
X0067980Y0125026D01*
X0068072Y0125132D01*
X0068167Y0125235D01*
X0068264Y0125336D01*
X0068365Y0125433D01*
X0068468Y0125528D01*
X0068574Y0125620D01*
X0068683Y0125709D01*
X0068793Y0125795D01*
X0068907Y0125878D01*
X0069022Y0125957D01*
X0069140Y0126034D01*
X0069260Y0126107D01*
X0069381Y0126176D01*
X0069505Y0126242D01*
X0069631Y0126305D01*
X0069758Y0126364D01*
X0069887Y0126419D01*
X0070017Y0126471D01*
X0070149Y0126519D01*
X0070282Y0126564D01*
X0070416Y0126605D01*
X0070551Y0126642D01*
X0070687Y0126675D01*
X0070825Y0126704D01*
X0070962Y0126729D01*
X0071101Y0126751D01*
X0071240Y0126769D01*
X0071380Y0126782D01*
X0071520Y0126792D01*
X0071660Y0126798D01*
X0071800Y0126800D01*
X0096800Y0126800D01*
X0103528Y0122711D02*
X0106800Y0122711D01*
X0106800Y0124309D02*
X0104879Y0124309D01*
X0105487Y0125908D02*
X0106800Y0125908D01*
X0106800Y0127506D02*
X0105487Y0127506D01*
X0104956Y0129105D02*
X0106800Y0129105D01*
X0106800Y0130703D02*
X0103714Y0130703D01*
X0102924Y0132302D02*
X0106800Y0132302D01*
X0106800Y0133900D02*
X0104709Y0133900D01*
X0105371Y0135499D02*
X0106800Y0135499D01*
X0106800Y0137097D02*
X0105487Y0137097D01*
X0105125Y0138696D02*
X0106800Y0138696D01*
X0106800Y0140294D02*
X0104123Y0140294D01*
X0101936Y0141893D02*
X0106800Y0141893D01*
X0106800Y0143491D02*
X0104308Y0143491D01*
X0105202Y0145090D02*
X0106800Y0145090D01*
X0106800Y0146688D02*
X0105487Y0146688D01*
X0105295Y0148287D02*
X0106800Y0148287D01*
X0106800Y0149885D02*
X0104532Y0149885D01*
X0102476Y0151484D02*
X0106800Y0151484D01*
X0106800Y0153082D02*
X0026600Y0153082D01*
X0026600Y0151484D02*
X0091124Y0151484D01*
X0089068Y0149885D02*
X0026600Y0149885D01*
X0026600Y0148287D02*
X0058124Y0148287D01*
X0057608Y0148073D02*
X0057608Y0148073D01*
X0056223Y0146688D02*
X0026600Y0146688D01*
X0026600Y0145090D02*
X0055153Y0145090D01*
X0055527Y0145992D02*
X0055527Y0145992D01*
X0054491Y0143491D02*
X0026600Y0143491D01*
X0026600Y0141893D02*
X0054400Y0141893D01*
X0054400Y0140294D02*
X0043018Y0140294D01*
X0042875Y0140437D02*
X0042268Y0140878D01*
X0041599Y0141219D01*
X0040885Y0141451D01*
X0040144Y0141568D01*
X0036984Y0141568D01*
X0036984Y0136984D01*
X0036616Y0136984D01*
X0036616Y0136616D01*
X0036984Y0136616D01*
X0036984Y0132031D01*
X0040144Y0132031D01*
X0040885Y0132149D01*
X0041599Y0132381D01*
X0042268Y0132722D01*
X0042875Y0133163D01*
X0043406Y0133694D01*
X0043847Y0134301D01*
X0044188Y0134970D01*
X0044420Y0135683D01*
X0044537Y0136425D01*
X0044537Y0136616D01*
X0036984Y0136616D01*
X0036984Y0136984D01*
X0044537Y0136984D01*
X0044537Y0137175D01*
X0044420Y0137917D01*
X0044188Y0138630D01*
X0043847Y0139299D01*
X0043406Y0139906D01*
X0042875Y0140437D01*
X0044154Y0138696D02*
X0054400Y0138696D01*
X0054400Y0137097D02*
X0044537Y0137097D01*
X0044360Y0135499D02*
X0054400Y0135499D01*
X0054400Y0133900D02*
X0043556Y0133900D01*
X0041355Y0132302D02*
X0054400Y0132302D01*
X0054400Y0130703D02*
X0042283Y0130703D01*
X0042356Y0130673D02*
X0040677Y0131368D01*
X0032923Y0131368D01*
X0031244Y0130673D01*
X0029959Y0129388D01*
X0029263Y0127709D01*
X0029263Y0125891D01*
X0029959Y0124212D01*
X0031244Y0122927D01*
X0032923Y0122231D01*
X0040677Y0122231D01*
X0042356Y0122927D01*
X0043641Y0124212D01*
X0044337Y0125891D01*
X0044337Y0127709D01*
X0043641Y0129388D01*
X0042356Y0130673D01*
X0043759Y0129105D02*
X0054400Y0129105D01*
X0054400Y0127506D02*
X0044337Y0127506D01*
X0044337Y0125908D02*
X0054400Y0125908D01*
X0054400Y0124309D02*
X0043682Y0124309D01*
X0041834Y0122711D02*
X0054400Y0122711D01*
X0054275Y0121112D02*
X0041296Y0121112D01*
X0043516Y0119514D02*
X0052944Y0119514D01*
X0051800Y0116800D02*
X0051940Y0116802D01*
X0052080Y0116808D01*
X0052220Y0116818D01*
X0052360Y0116831D01*
X0052499Y0116849D01*
X0052638Y0116871D01*
X0052775Y0116896D01*
X0052913Y0116925D01*
X0053049Y0116958D01*
X0053184Y0116995D01*
X0053318Y0117036D01*
X0053451Y0117081D01*
X0053583Y0117129D01*
X0053713Y0117181D01*
X0053842Y0117236D01*
X0053969Y0117295D01*
X0054095Y0117358D01*
X0054219Y0117424D01*
X0054340Y0117493D01*
X0054460Y0117566D01*
X0054578Y0117643D01*
X0054693Y0117722D01*
X0054807Y0117805D01*
X0054917Y0117891D01*
X0055026Y0117980D01*
X0055132Y0118072D01*
X0055235Y0118167D01*
X0055336Y0118264D01*
X0055433Y0118365D01*
X0055528Y0118468D01*
X0055620Y0118574D01*
X0055709Y0118683D01*
X0055795Y0118793D01*
X0055878Y0118907D01*
X0055957Y0119022D01*
X0056034Y0119140D01*
X0056107Y0119260D01*
X0056176Y0119381D01*
X0056242Y0119505D01*
X0056305Y0119631D01*
X0056364Y0119758D01*
X0056419Y0119887D01*
X0056471Y0120017D01*
X0056519Y0120149D01*
X0056564Y0120282D01*
X0056605Y0120416D01*
X0056642Y0120551D01*
X0056675Y0120687D01*
X0056704Y0120825D01*
X0056729Y0120962D01*
X0056751Y0121101D01*
X0056769Y0121240D01*
X0056782Y0121380D01*
X0056792Y0121520D01*
X0056798Y0121660D01*
X0056800Y0121800D01*
X0056800Y0141800D01*
X0059209Y0141893D02*
X0091664Y0141893D01*
X0089477Y0140294D02*
X0059200Y0140294D01*
X0059200Y0138696D02*
X0064111Y0138696D01*
X0062608Y0138073D02*
X0062608Y0138073D01*
X0061632Y0137097D02*
X0059200Y0137097D01*
X0059200Y0135499D02*
X0060322Y0135499D01*
X0060527Y0135992D02*
X0060527Y0135992D01*
X0059660Y0133900D02*
X0059200Y0133900D01*
X0059200Y0132302D02*
X0059400Y0132302D01*
X0059400Y0130703D02*
X0059200Y0130703D01*
X0059200Y0129105D02*
X0059400Y0129105D01*
X0059400Y0127506D02*
X0059200Y0127506D01*
X0059200Y0125908D02*
X0059400Y0125908D01*
X0059400Y0124309D02*
X0059200Y0124309D01*
X0059200Y0122711D02*
X0059400Y0122711D01*
X0059400Y0121112D02*
X0059200Y0121112D01*
X0059400Y0119514D02*
X0058863Y0119514D01*
X0059400Y0117915D02*
X0058201Y0117915D01*
X0058073Y0117608D02*
X0058073Y0117608D01*
X0056782Y0116317D02*
X0059400Y0116317D01*
X0059400Y0114718D02*
X0054040Y0114718D01*
X0055992Y0115527D02*
X0055992Y0115527D01*
X0061800Y0111800D02*
X0061798Y0111660D01*
X0061792Y0111520D01*
X0061782Y0111380D01*
X0061769Y0111240D01*
X0061751Y0111101D01*
X0061729Y0110962D01*
X0061704Y0110825D01*
X0061675Y0110687D01*
X0061642Y0110551D01*
X0061605Y0110416D01*
X0061564Y0110282D01*
X0061519Y0110149D01*
X0061471Y0110017D01*
X0061419Y0109887D01*
X0061364Y0109758D01*
X0061305Y0109631D01*
X0061242Y0109505D01*
X0061176Y0109381D01*
X0061107Y0109260D01*
X0061034Y0109140D01*
X0060957Y0109022D01*
X0060878Y0108907D01*
X0060795Y0108793D01*
X0060709Y0108683D01*
X0060620Y0108574D01*
X0060528Y0108468D01*
X0060433Y0108365D01*
X0060336Y0108264D01*
X0060235Y0108167D01*
X0060132Y0108072D01*
X0060026Y0107980D01*
X0059917Y0107891D01*
X0059807Y0107805D01*
X0059693Y0107722D01*
X0059578Y0107643D01*
X0059460Y0107566D01*
X0059340Y0107493D01*
X0059219Y0107424D01*
X0059095Y0107358D01*
X0058969Y0107295D01*
X0058842Y0107236D01*
X0058713Y0107181D01*
X0058583Y0107129D01*
X0058451Y0107081D01*
X0058318Y0107036D01*
X0058184Y0106995D01*
X0058049Y0106958D01*
X0057913Y0106925D01*
X0057775Y0106896D01*
X0057638Y0106871D01*
X0057499Y0106849D01*
X0057360Y0106831D01*
X0057220Y0106818D01*
X0057080Y0106808D01*
X0056940Y0106802D01*
X0056800Y0106800D01*
X0058529Y0109923D02*
X0043107Y0109923D01*
X0042549Y0113120D02*
X0059400Y0113120D01*
X0059373Y0111521D02*
X0026600Y0111521D01*
X0026600Y0109923D02*
X0030493Y0109923D01*
X0029518Y0108324D02*
X0026600Y0108324D01*
X0026600Y0106726D02*
X0029263Y0106726D01*
X0029580Y0105127D02*
X0026600Y0105127D01*
X0026600Y0103529D02*
X0030642Y0103529D01*
X0036800Y0096800D02*
X0061800Y0096800D01*
X0063938Y0100332D02*
X0042698Y0100332D01*
X0061800Y0096800D02*
X0061940Y0096802D01*
X0062080Y0096808D01*
X0062220Y0096818D01*
X0062360Y0096831D01*
X0062499Y0096849D01*
X0062638Y0096871D01*
X0062775Y0096896D01*
X0062913Y0096925D01*
X0063049Y0096958D01*
X0063184Y0096995D01*
X0063318Y0097036D01*
X0063451Y0097081D01*
X0063583Y0097129D01*
X0063713Y0097181D01*
X0063842Y0097236D01*
X0063969Y0097295D01*
X0064095Y0097358D01*
X0064219Y0097424D01*
X0064340Y0097493D01*
X0064460Y0097566D01*
X0064578Y0097643D01*
X0064693Y0097722D01*
X0064807Y0097805D01*
X0064917Y0097891D01*
X0065026Y0097980D01*
X0065132Y0098072D01*
X0065235Y0098167D01*
X0065336Y0098264D01*
X0065433Y0098365D01*
X0065528Y0098468D01*
X0065620Y0098574D01*
X0065709Y0098683D01*
X0065795Y0098793D01*
X0065878Y0098907D01*
X0065957Y0099022D01*
X0066034Y0099140D01*
X0066107Y0099260D01*
X0066176Y0099381D01*
X0066242Y0099505D01*
X0066305Y0099631D01*
X0066364Y0099758D01*
X0066419Y0099887D01*
X0066471Y0100017D01*
X0066519Y0100149D01*
X0066564Y0100282D01*
X0066605Y0100416D01*
X0066642Y0100551D01*
X0066675Y0100687D01*
X0066704Y0100825D01*
X0066729Y0100962D01*
X0066751Y0101101D01*
X0066769Y0101240D01*
X0066782Y0101380D01*
X0066792Y0101520D01*
X0066798Y0101660D01*
X0066800Y0101800D01*
X0061800Y0111800D02*
X0061800Y0131800D01*
X0064249Y0132302D02*
X0090676Y0132302D01*
X0088891Y0133900D02*
X0065294Y0133900D01*
X0066800Y0136800D02*
X0066660Y0136798D01*
X0066520Y0136792D01*
X0066380Y0136782D01*
X0066240Y0136769D01*
X0066101Y0136751D01*
X0065962Y0136729D01*
X0065825Y0136704D01*
X0065687Y0136675D01*
X0065551Y0136642D01*
X0065416Y0136605D01*
X0065282Y0136564D01*
X0065149Y0136519D01*
X0065017Y0136471D01*
X0064887Y0136419D01*
X0064758Y0136364D01*
X0064631Y0136305D01*
X0064505Y0136242D01*
X0064381Y0136176D01*
X0064260Y0136107D01*
X0064140Y0136034D01*
X0064022Y0135957D01*
X0063907Y0135878D01*
X0063793Y0135795D01*
X0063683Y0135709D01*
X0063574Y0135620D01*
X0063468Y0135528D01*
X0063365Y0135433D01*
X0063264Y0135336D01*
X0063167Y0135235D01*
X0063072Y0135132D01*
X0062980Y0135026D01*
X0062891Y0134917D01*
X0062805Y0134807D01*
X0062722Y0134693D01*
X0062643Y0134578D01*
X0062566Y0134460D01*
X0062493Y0134340D01*
X0062424Y0134219D01*
X0062358Y0134095D01*
X0062295Y0133969D01*
X0062236Y0133842D01*
X0062181Y0133713D01*
X0062129Y0133583D01*
X0062081Y0133451D01*
X0062036Y0133318D01*
X0061995Y0133184D01*
X0061958Y0133049D01*
X0061925Y0132913D01*
X0061896Y0132775D01*
X0061871Y0132638D01*
X0061849Y0132499D01*
X0061831Y0132360D01*
X0061818Y0132220D01*
X0061808Y0132080D01*
X0061802Y0131940D01*
X0061800Y0131800D01*
X0066800Y0136800D02*
X0096800Y0136800D01*
X0089292Y0143491D02*
X0059885Y0143491D01*
X0056800Y0141800D02*
X0056802Y0141940D01*
X0056808Y0142080D01*
X0056818Y0142220D01*
X0056831Y0142360D01*
X0056849Y0142499D01*
X0056871Y0142638D01*
X0056896Y0142775D01*
X0056925Y0142913D01*
X0056958Y0143049D01*
X0056995Y0143184D01*
X0057036Y0143318D01*
X0057081Y0143451D01*
X0057129Y0143583D01*
X0057181Y0143713D01*
X0057236Y0143842D01*
X0057295Y0143969D01*
X0057358Y0144095D01*
X0057424Y0144219D01*
X0057493Y0144340D01*
X0057566Y0144460D01*
X0057643Y0144578D01*
X0057722Y0144693D01*
X0057805Y0144807D01*
X0057891Y0144917D01*
X0057980Y0145026D01*
X0058072Y0145132D01*
X0058167Y0145235D01*
X0058264Y0145336D01*
X0058365Y0145433D01*
X0058468Y0145528D01*
X0058574Y0145620D01*
X0058683Y0145709D01*
X0058793Y0145795D01*
X0058907Y0145878D01*
X0059022Y0145957D01*
X0059140Y0146034D01*
X0059260Y0146107D01*
X0059381Y0146176D01*
X0059505Y0146242D01*
X0059631Y0146305D01*
X0059758Y0146364D01*
X0059887Y0146419D01*
X0060017Y0146471D01*
X0060149Y0146519D01*
X0060282Y0146564D01*
X0060416Y0146605D01*
X0060551Y0146642D01*
X0060687Y0146675D01*
X0060825Y0146704D01*
X0060962Y0146729D01*
X0061101Y0146751D01*
X0061240Y0146769D01*
X0061380Y0146782D01*
X0061520Y0146792D01*
X0061660Y0146798D01*
X0061800Y0146800D01*
X0096800Y0146800D01*
X0106800Y0154681D02*
X0026600Y0154681D01*
X0026600Y0156279D02*
X0033179Y0156279D01*
X0030055Y0157878D02*
X0026600Y0157878D01*
X0026600Y0159476D02*
X0028427Y0159476D01*
X0027289Y0161075D02*
X0026600Y0161075D01*
X0040421Y0156279D02*
X0106800Y0156279D01*
X0106800Y0157878D02*
X0043545Y0157878D01*
X0045173Y0159476D02*
X0106800Y0159476D01*
X0106800Y0161075D02*
X0046311Y0161075D01*
X0047185Y0162673D02*
X0106800Y0162673D01*
X0106800Y0164272D02*
X0047613Y0164272D01*
X0047899Y0165870D02*
X0106800Y0165870D01*
X0106800Y0167469D02*
X0047899Y0167469D01*
X0047683Y0169068D02*
X0106800Y0169068D01*
X0106800Y0170666D02*
X0047255Y0170666D01*
X0046461Y0172265D02*
X0106800Y0172265D01*
X0106800Y0173863D02*
X0045434Y0173863D01*
X0043835Y0175462D02*
X0106800Y0175462D01*
X0106800Y0177060D02*
X0041227Y0177060D01*
X0032373Y0177060D02*
X0026600Y0177060D01*
X0026600Y0175462D02*
X0029765Y0175462D01*
X0028166Y0173863D02*
X0026600Y0173863D01*
X0026600Y0172265D02*
X0027139Y0172265D01*
X0026600Y0178659D02*
X0106800Y0178659D01*
X0106800Y0180257D02*
X0026600Y0180257D01*
X0026600Y0181856D02*
X0106800Y0181856D01*
X0106800Y0183454D02*
X0026600Y0183454D01*
X0026600Y0185053D02*
X0106800Y0185053D01*
X0106800Y0186651D02*
X0026600Y0186651D01*
X0026600Y0188250D02*
X0106800Y0188250D01*
X0106800Y0189848D02*
X0026600Y0189848D01*
X0033456Y0141568D02*
X0032715Y0141451D01*
X0032001Y0141219D01*
X0031332Y0140878D01*
X0030725Y0140437D01*
X0030194Y0139906D01*
X0029753Y0139299D01*
X0029412Y0138630D01*
X0029180Y0137917D01*
X0029063Y0137175D01*
X0029063Y0136984D01*
X0036616Y0136984D01*
X0036616Y0141568D01*
X0033456Y0141568D01*
X0030582Y0140294D02*
X0026600Y0140294D01*
X0026600Y0138696D02*
X0029446Y0138696D01*
X0029063Y0137097D02*
X0026600Y0137097D01*
X0026600Y0135499D02*
X0029240Y0135499D01*
X0029180Y0135683D02*
X0029412Y0134970D01*
X0029753Y0134301D01*
X0030194Y0133694D01*
X0030725Y0133163D01*
X0031332Y0132722D01*
X0032001Y0132381D01*
X0032715Y0132149D01*
X0033456Y0132031D01*
X0036616Y0132031D01*
X0036616Y0136616D01*
X0029063Y0136616D01*
X0029063Y0136425D01*
X0029180Y0135683D01*
X0030044Y0133900D02*
X0026600Y0133900D01*
X0026600Y0132302D02*
X0032244Y0132302D01*
X0031317Y0130703D02*
X0026600Y0130703D01*
X0026600Y0129105D02*
X0029841Y0129105D01*
X0029263Y0127506D02*
X0026600Y0127506D01*
X0026600Y0125908D02*
X0029263Y0125908D01*
X0029918Y0124309D02*
X0026600Y0124309D01*
X0026600Y0122711D02*
X0031766Y0122711D01*
X0032304Y0121112D02*
X0026600Y0121112D01*
X0026600Y0119514D02*
X0030084Y0119514D01*
X0029348Y0117915D02*
X0026600Y0117915D01*
X0026600Y0116317D02*
X0029263Y0116317D01*
X0029749Y0114718D02*
X0026600Y0114718D01*
X0026600Y0113120D02*
X0031051Y0113120D01*
X0036800Y0116800D02*
X0051800Y0116800D01*
X0036984Y0132302D02*
X0036616Y0132302D01*
X0036616Y0133900D02*
X0036984Y0133900D01*
X0036984Y0135499D02*
X0036616Y0135499D01*
X0036616Y0137097D02*
X0036984Y0137097D01*
X0036984Y0138696D02*
X0036616Y0138696D01*
X0036616Y0140294D02*
X0036984Y0140294D01*
X0102847Y0111521D02*
X0106800Y0111521D01*
X0106800Y0109923D02*
X0104679Y0109923D01*
X0105466Y0108324D02*
X0106800Y0108324D01*
X0106800Y0113120D02*
X0103937Y0113120D01*
X0105048Y0114718D02*
X0106800Y0114718D01*
X0106800Y0116317D02*
X0105487Y0116317D01*
X0105448Y0117915D02*
X0106800Y0117915D01*
X0106800Y0119514D02*
X0104786Y0119514D01*
X0103305Y0121112D02*
X0106800Y0121112D01*
X0116800Y0121112D02*
X0120295Y0121112D01*
X0120343Y0121160D02*
X0118896Y0119713D01*
X0118113Y0117823D01*
X0118113Y0115777D01*
X0118896Y0113887D01*
X0120343Y0112440D01*
X0121888Y0111800D01*
X0120343Y0111160D01*
X0118896Y0109713D01*
X0118113Y0107823D01*
X0118113Y0105777D01*
X0118896Y0103887D01*
X0120343Y0102440D01*
X0121888Y0101800D01*
X0120343Y0101160D01*
X0118896Y0099713D01*
X0118113Y0097823D01*
X0118113Y0095777D01*
X0118896Y0093887D01*
X0120343Y0092440D01*
X0121653Y0091897D01*
X0121206Y0091752D01*
X0120456Y0091370D01*
X0119776Y0090876D01*
X0119181Y0090281D01*
X0118687Y0089600D01*
X0118305Y0088851D01*
X0118045Y0088051D01*
X0117913Y0087221D01*
X0117913Y0087181D01*
X0126419Y0087181D01*
X0126419Y0086419D01*
X0117913Y0086419D01*
X0117913Y0086379D01*
X0118045Y0085549D01*
X0118305Y0084749D01*
X0118687Y0083999D01*
X0119181Y0083319D01*
X0119776Y0082724D01*
X0120456Y0082230D01*
X0121206Y0081848D01*
X0121653Y0081703D01*
X0120343Y0081160D01*
X0118896Y0079713D01*
X0118113Y0077823D01*
X0118113Y0075777D01*
X0118896Y0073887D01*
X0120343Y0072440D01*
X0122234Y0071657D01*
X0126478Y0071657D01*
X0127608Y0070527D01*
X0127608Y0070527D01*
X0130328Y0069400D01*
X0208272Y0069400D01*
X0210992Y0070527D01*
X0213073Y0072608D01*
X0214200Y0075328D01*
X0214200Y0078177D01*
X0214977Y0077400D01*
X0216800Y0077400D01*
X0218623Y0077400D01*
X0221200Y0079977D01*
X0221200Y0081800D01*
X0221200Y0083623D01*
X0218623Y0086200D01*
X0216800Y0086200D01*
X0216800Y0081800D01*
X0216800Y0081800D01*
X0221200Y0081800D01*
X0216800Y0081800D01*
X0216800Y0081800D01*
X0216800Y0086200D01*
X0214977Y0086200D01*
X0214200Y0085423D01*
X0214200Y0091800D01*
X0214250Y0092307D01*
X0214605Y0093163D01*
X0215965Y0092600D01*
X0217635Y0092600D01*
X0219179Y0093239D01*
X0220340Y0094400D01*
X0223260Y0094400D01*
X0224421Y0093239D01*
X0225965Y0092600D01*
X0227635Y0092600D01*
X0229179Y0093239D01*
X0230361Y0094421D01*
X0231000Y0095965D01*
X0231000Y0097635D01*
X0230361Y0099179D01*
X0229179Y0100361D01*
X0227635Y0101000D01*
X0225965Y0101000D01*
X0224421Y0100361D01*
X0223260Y0099200D01*
X0220340Y0099200D01*
X0219179Y0100361D01*
X0217635Y0101000D01*
X0215965Y0101000D01*
X0214421Y0100361D01*
X0213239Y0099179D01*
X0212817Y0098160D01*
X0212608Y0098073D01*
X0211000Y0096465D01*
X0211000Y0097635D01*
X0210361Y0099179D01*
X0209179Y0100361D01*
X0208994Y0100437D01*
X0209027Y0100554D01*
X0209315Y0101050D01*
X0209553Y0101337D01*
X0210152Y0101780D01*
X0210860Y0102010D01*
X0211233Y0102038D01*
X0247214Y0101793D01*
X0247440Y0101249D01*
X0248887Y0099802D01*
X0250777Y0099019D01*
X0252823Y0099019D01*
X0254713Y0099802D01*
X0256160Y0101249D01*
X0256943Y0103139D01*
X0256943Y0105185D01*
X0256160Y0107076D01*
X0254713Y0108522D01*
X0252823Y0109305D01*
X0250777Y0109305D01*
X0248887Y0108522D01*
X0247440Y0107076D01*
X0247240Y0106593D01*
X0211742Y0106834D01*
X0211265Y0106838D01*
X0211173Y0106838D01*
X0210788Y0106841D01*
X0210788Y0106841D01*
X0210109Y0106846D01*
X0207911Y0106130D01*
X0206052Y0104756D01*
X0205650Y0104184D01*
X0205388Y0103810D01*
X0204576Y0102655D01*
X0203825Y0099933D01*
X0203836Y0099776D01*
X0203239Y0099179D01*
X0202600Y0097635D01*
X0202600Y0095965D01*
X0203239Y0094421D01*
X0204421Y0093239D01*
X0205965Y0092600D01*
X0207635Y0092600D01*
X0209179Y0093239D01*
X0209533Y0093594D01*
X0209400Y0093272D01*
X0209400Y0076800D01*
X0209350Y0076293D01*
X0208962Y0075356D01*
X0208244Y0074638D01*
X0207307Y0074250D01*
X0206800Y0074200D01*
X0145231Y0074200D01*
X0149600Y0078569D01*
X0149600Y0085031D01*
X0145031Y0089600D01*
X0144200Y0089600D01*
X0144200Y0093272D01*
X0143073Y0095992D01*
X0141465Y0097600D01*
X0143540Y0097600D01*
X0146000Y0100060D01*
X0146000Y0103540D01*
X0143540Y0106000D01*
X0140060Y0106000D01*
X0137600Y0103540D01*
X0137600Y0100060D01*
X0138594Y0099067D01*
X0138272Y0099200D01*
X0134916Y0099200D01*
X0134704Y0099713D01*
X0133257Y0101160D01*
X0131712Y0101800D01*
X0133257Y0102440D01*
X0134704Y0103887D01*
X0135487Y0105777D01*
X0135487Y0107823D01*
X0134704Y0109713D01*
X0133257Y0111160D01*
X0131712Y0111800D01*
X0133257Y0112440D01*
X0134704Y0113887D01*
X0135487Y0115777D01*
X0135487Y0117823D01*
X0134704Y0119713D01*
X0133257Y0121160D01*
X0131712Y0121800D01*
X0133257Y0122440D01*
X0134704Y0123887D01*
X0134916Y0124400D01*
X0138272Y0124400D01*
X0138594Y0124533D01*
X0137600Y0123540D01*
X0137600Y0120060D01*
X0140060Y0117600D01*
X0143540Y0117600D01*
X0146000Y0120060D01*
X0146000Y0123540D01*
X0143540Y0126000D01*
X0141465Y0126000D01*
X0143073Y0127608D01*
X0144200Y0130328D01*
X0144200Y0134000D01*
X0145031Y0134000D01*
X0149600Y0138569D01*
X0149600Y0145031D01*
X0145231Y0149400D01*
X0183764Y0149400D01*
X0187500Y0150614D01*
X0190677Y0152923D01*
X0192986Y0156100D01*
X0194200Y0159836D01*
X0194200Y0166800D01*
X0194250Y0167307D01*
X0194638Y0168244D01*
X0195356Y0168962D01*
X0196293Y0169350D01*
X0196800Y0169400D01*
X0231800Y0169400D01*
X0232307Y0169350D01*
X0233244Y0168962D01*
X0233962Y0168244D01*
X0234350Y0167307D01*
X0234400Y0166800D01*
X0234400Y0130340D01*
X0233260Y0129200D01*
X0230340Y0129200D01*
X0229179Y0130361D01*
X0227635Y0131000D01*
X0225965Y0131000D01*
X0224421Y0130361D01*
X0223239Y0129179D01*
X0222600Y0127635D01*
X0222600Y0125965D01*
X0223239Y0124421D01*
X0224421Y0123239D01*
X0225965Y0122600D01*
X0227635Y0122600D01*
X0229179Y0123239D01*
X0230340Y0124400D01*
X0233260Y0124400D01*
X0234421Y0123239D01*
X0235965Y0122600D01*
X0237635Y0122600D01*
X0239179Y0123239D01*
X0240361Y0124421D01*
X0241000Y0125965D01*
X0241000Y0127635D01*
X0240361Y0129179D01*
X0239200Y0130340D01*
X0239200Y0168272D01*
X0238073Y0170992D01*
X0235992Y0173073D01*
X0235992Y0173073D01*
X0233272Y0174200D01*
X0195328Y0174200D01*
X0192608Y0173073D01*
X0190527Y0170992D01*
X0189400Y0168272D01*
X0189400Y0161800D01*
X0189306Y0160611D01*
X0188572Y0158350D01*
X0187174Y0156426D01*
X0185250Y0155028D01*
X0182989Y0154294D01*
X0181800Y0154200D01*
X0130328Y0154200D01*
X0127608Y0153073D01*
X0126478Y0151943D01*
X0122234Y0151943D01*
X0120343Y0151160D01*
X0118896Y0149713D01*
X0118113Y0147823D01*
X0118113Y0145777D01*
X0118896Y0143887D01*
X0120343Y0142440D01*
X0121653Y0141897D01*
X0121206Y0141752D01*
X0120456Y0141370D01*
X0119776Y0140876D01*
X0119181Y0140281D01*
X0118687Y0139600D01*
X0118305Y0138851D01*
X0118045Y0138051D01*
X0117913Y0137221D01*
X0117913Y0137181D01*
X0126419Y0137181D01*
X0126419Y0136419D01*
X0117913Y0136419D01*
X0117913Y0136379D01*
X0118045Y0135549D01*
X0118305Y0134749D01*
X0118687Y0133999D01*
X0119181Y0133319D01*
X0119776Y0132724D01*
X0120456Y0132230D01*
X0121206Y0131848D01*
X0121653Y0131703D01*
X0120343Y0131160D01*
X0118896Y0129713D01*
X0118113Y0127823D01*
X0118113Y0125777D01*
X0118896Y0123887D01*
X0120343Y0122440D01*
X0121888Y0121800D01*
X0120343Y0121160D01*
X0120072Y0122711D02*
X0116800Y0122711D01*
X0116800Y0124309D02*
X0118721Y0124309D01*
X0118113Y0125908D02*
X0116800Y0125908D01*
X0116800Y0127506D02*
X0118113Y0127506D01*
X0118644Y0129105D02*
X0116800Y0129105D01*
X0116800Y0130703D02*
X0119886Y0130703D01*
X0120357Y0132302D02*
X0116800Y0132302D01*
X0116800Y0133900D02*
X0118759Y0133900D01*
X0118061Y0135499D02*
X0116800Y0135499D01*
X0116800Y0137097D02*
X0126419Y0137097D01*
X0127181Y0137097D02*
X0135472Y0137097D01*
X0135388Y0137181D02*
X0138569Y0134000D01*
X0139400Y0134000D01*
X0139400Y0131800D01*
X0139350Y0131293D01*
X0138962Y0130356D01*
X0138244Y0129638D01*
X0137307Y0129250D01*
X0136800Y0129200D01*
X0134916Y0129200D01*
X0134704Y0129713D01*
X0133257Y0131160D01*
X0131947Y0131703D01*
X0132394Y0131848D01*
X0133144Y0132230D01*
X0133824Y0132724D01*
X0134419Y0133319D01*
X0134913Y0133999D01*
X0135295Y0134749D01*
X0135555Y0135549D01*
X0135687Y0136379D01*
X0135687Y0136419D01*
X0127181Y0136419D01*
X0127181Y0137181D01*
X0135388Y0137181D01*
X0135539Y0135499D02*
X0137070Y0135499D01*
X0134841Y0133900D02*
X0139400Y0133900D01*
X0139400Y0132302D02*
X0133243Y0132302D01*
X0133714Y0130703D02*
X0139106Y0130703D01*
X0141800Y0131800D02*
X0141798Y0131660D01*
X0141792Y0131520D01*
X0141782Y0131380D01*
X0141769Y0131240D01*
X0141751Y0131101D01*
X0141729Y0130962D01*
X0141704Y0130825D01*
X0141675Y0130687D01*
X0141642Y0130551D01*
X0141605Y0130416D01*
X0141564Y0130282D01*
X0141519Y0130149D01*
X0141471Y0130017D01*
X0141419Y0129887D01*
X0141364Y0129758D01*
X0141305Y0129631D01*
X0141242Y0129505D01*
X0141176Y0129381D01*
X0141107Y0129260D01*
X0141034Y0129140D01*
X0140957Y0129022D01*
X0140878Y0128907D01*
X0140795Y0128793D01*
X0140709Y0128683D01*
X0140620Y0128574D01*
X0140528Y0128468D01*
X0140433Y0128365D01*
X0140336Y0128264D01*
X0140235Y0128167D01*
X0140132Y0128072D01*
X0140026Y0127980D01*
X0139917Y0127891D01*
X0139807Y0127805D01*
X0139693Y0127722D01*
X0139578Y0127643D01*
X0139460Y0127566D01*
X0139340Y0127493D01*
X0139219Y0127424D01*
X0139095Y0127358D01*
X0138969Y0127295D01*
X0138842Y0127236D01*
X0138713Y0127181D01*
X0138583Y0127129D01*
X0138451Y0127081D01*
X0138318Y0127036D01*
X0138184Y0126995D01*
X0138049Y0126958D01*
X0137913Y0126925D01*
X0137775Y0126896D01*
X0137638Y0126871D01*
X0137499Y0126849D01*
X0137360Y0126831D01*
X0137220Y0126818D01*
X0137080Y0126808D01*
X0136940Y0126802D01*
X0136800Y0126800D01*
X0126800Y0126800D01*
X0133528Y0122711D02*
X0137600Y0122711D01*
X0137600Y0121112D02*
X0133305Y0121112D01*
X0134786Y0119514D02*
X0138147Y0119514D01*
X0139745Y0117915D02*
X0135448Y0117915D01*
X0135487Y0116317D02*
X0177301Y0116317D01*
X0177001Y0116219D02*
X0176332Y0115878D01*
X0175725Y0115437D01*
X0175194Y0114906D01*
X0174753Y0114299D01*
X0174412Y0113630D01*
X0174180Y0112917D01*
X0174063Y0112175D01*
X0174063Y0111984D01*
X0181616Y0111984D01*
X0181616Y0111616D01*
X0181984Y0111616D01*
X0181984Y0107031D01*
X0185144Y0107031D01*
X0185885Y0107149D01*
X0186599Y0107381D01*
X0187268Y0107722D01*
X0187875Y0108163D01*
X0188406Y0108694D01*
X0188847Y0109301D01*
X0189188Y0109970D01*
X0189420Y0110683D01*
X0189537Y0111425D01*
X0189537Y0111616D01*
X0181984Y0111616D01*
X0181984Y0111984D01*
X0181616Y0111984D01*
X0181616Y0116568D01*
X0178456Y0116568D01*
X0177715Y0116451D01*
X0177001Y0116219D01*
X0177923Y0117231D02*
X0185677Y0117231D01*
X0187356Y0117927D01*
X0188641Y0119212D01*
X0189337Y0120891D01*
X0189337Y0122709D01*
X0188641Y0124388D01*
X0187356Y0125673D01*
X0185677Y0126368D01*
X0177923Y0126368D01*
X0176244Y0125673D01*
X0174959Y0124388D01*
X0174263Y0122709D01*
X0174263Y0120891D01*
X0174959Y0119212D01*
X0176244Y0117927D01*
X0177923Y0117231D01*
X0176272Y0117915D02*
X0164138Y0117915D01*
X0163623Y0117400D02*
X0166200Y0119977D01*
X0166200Y0121800D01*
X0166200Y0123623D01*
X0163623Y0126200D01*
X0161800Y0126200D01*
X0161800Y0121800D01*
X0166200Y0121800D01*
X0161800Y0121800D01*
X0161800Y0121800D01*
X0161800Y0121800D01*
X0161800Y0117400D01*
X0163623Y0117400D01*
X0161800Y0117400D02*
X0161800Y0121800D01*
X0161800Y0121800D01*
X0161800Y0121800D01*
X0157400Y0121800D01*
X0157400Y0123623D01*
X0159977Y0126200D01*
X0161800Y0126200D01*
X0161800Y0121800D01*
X0157400Y0121800D01*
X0157400Y0119977D01*
X0159977Y0117400D01*
X0161800Y0117400D01*
X0161800Y0117915D02*
X0161800Y0117915D01*
X0161800Y0119514D02*
X0161800Y0119514D01*
X0161800Y0121112D02*
X0161800Y0121112D01*
X0161800Y0122711D02*
X0161800Y0122711D01*
X0161800Y0124309D02*
X0161800Y0124309D01*
X0161800Y0125908D02*
X0161800Y0125908D01*
X0163915Y0125908D02*
X0176810Y0125908D01*
X0174926Y0124309D02*
X0165513Y0124309D01*
X0166200Y0122711D02*
X0174264Y0122711D01*
X0174263Y0121112D02*
X0166200Y0121112D01*
X0165736Y0119514D02*
X0174834Y0119514D01*
X0175057Y0114718D02*
X0135048Y0114718D01*
X0133937Y0113120D02*
X0174246Y0113120D01*
X0174063Y0111616D02*
X0174063Y0111425D01*
X0174180Y0110683D01*
X0174412Y0109970D01*
X0174753Y0109301D01*
X0175194Y0108694D01*
X0175725Y0108163D01*
X0176332Y0107722D01*
X0177001Y0107381D01*
X0177715Y0107149D01*
X0178456Y0107031D01*
X0181616Y0107031D01*
X0181616Y0111616D01*
X0174063Y0111616D01*
X0174063Y0111521D02*
X0132386Y0111521D01*
X0134494Y0109923D02*
X0174436Y0109923D01*
X0175564Y0108324D02*
X0135279Y0108324D01*
X0135487Y0106726D02*
X0209741Y0106726D01*
X0211742Y0106834D02*
X0211742Y0106834D01*
X0211249Y0104438D02*
X0251800Y0104162D01*
X0256442Y0101930D02*
X0267158Y0101930D01*
X0267440Y0101249D02*
X0268887Y0099802D01*
X0270777Y0099019D01*
X0272823Y0099019D01*
X0274713Y0099802D01*
X0276160Y0101249D01*
X0276943Y0103139D01*
X0276943Y0105185D01*
X0276160Y0107076D01*
X0274713Y0108522D01*
X0272823Y0109305D01*
X0270777Y0109305D01*
X0268887Y0108522D01*
X0267440Y0107076D01*
X0266657Y0105185D01*
X0266657Y0103139D01*
X0267440Y0101249D01*
X0268357Y0100332D02*
X0255243Y0100332D01*
X0256943Y0103529D02*
X0266657Y0103529D01*
X0266657Y0105127D02*
X0256943Y0105127D01*
X0256305Y0106726D02*
X0267295Y0106726D01*
X0268688Y0108324D02*
X0254912Y0108324D01*
X0253058Y0112838D02*
X0250542Y0112838D01*
X0248218Y0113801D01*
X0246438Y0115580D01*
X0245926Y0116816D01*
X0222216Y0117034D01*
X0222216Y0117034D01*
X0221739Y0117038D01*
X0221719Y0117038D01*
X0221261Y0117042D01*
X0221261Y0117042D01*
X0220182Y0117052D01*
X0220182Y0117052D01*
X0217265Y0118136D01*
X0217265Y0118136D01*
X0216441Y0118833D01*
X0216441Y0118833D01*
X0216077Y0119141D01*
X0216001Y0119205D01*
X0215712Y0119449D01*
X0215712Y0119449D01*
X0215118Y0119952D01*
X0215118Y0119952D01*
X0213904Y0122149D01*
X0213904Y0122149D01*
X0213638Y0124022D01*
X0213239Y0124421D01*
X0212600Y0125965D01*
X0212600Y0127635D01*
X0213239Y0129179D01*
X0214421Y0130361D01*
X0215965Y0131000D01*
X0217635Y0131000D01*
X0219179Y0130361D01*
X0220361Y0129179D01*
X0221000Y0127635D01*
X0221000Y0125965D01*
X0220361Y0124421D01*
X0219179Y0123239D01*
X0218890Y0123120D01*
X0218919Y0123068D01*
X0219177Y0122806D01*
X0219177Y0122806D01*
X0219755Y0122397D01*
X0221078Y0121905D01*
X0221783Y0121838D01*
X0245971Y0121616D01*
X0246438Y0122745D01*
X0248218Y0124524D01*
X0250542Y0125487D01*
X0253058Y0125487D01*
X0255382Y0124524D01*
X0257162Y0122745D01*
X0258124Y0120420D01*
X0258124Y0117904D01*
X0257162Y0115580D01*
X0255382Y0113801D01*
X0253058Y0112838D01*
X0253738Y0113120D02*
X0301600Y0113120D01*
X0302297Y0112423D02*
X0305219Y0111213D01*
X0308381Y0111213D01*
X0311303Y0112423D01*
X0313539Y0114659D01*
X0314750Y0117581D01*
X0314750Y0120743D01*
X0313539Y0123665D01*
X0311303Y0125902D01*
X0308381Y0127112D01*
X0305219Y0127112D01*
X0302297Y0125902D01*
X0300061Y0123665D01*
X0298850Y0120743D01*
X0298850Y0117581D01*
X0300061Y0114659D01*
X0302297Y0112423D01*
X0304474Y0111521D02*
X0189537Y0111521D01*
X0189537Y0111984D02*
X0189537Y0112175D01*
X0189420Y0112917D01*
X0189188Y0113630D01*
X0188847Y0114299D01*
X0188406Y0114906D01*
X0187875Y0115437D01*
X0187268Y0115878D01*
X0186599Y0116219D01*
X0185885Y0116451D01*
X0185144Y0116568D01*
X0181984Y0116568D01*
X0181984Y0111984D01*
X0189537Y0111984D01*
X0189354Y0113120D02*
X0249862Y0113120D01*
X0247300Y0114718D02*
X0188543Y0114718D01*
X0186299Y0116317D02*
X0246133Y0116317D01*
X0251800Y0119162D02*
X0221761Y0119438D01*
X0217859Y0117915D02*
X0187328Y0117915D01*
X0188766Y0119514D02*
X0215636Y0119514D01*
X0214477Y0121112D02*
X0189337Y0121112D01*
X0189336Y0122711D02*
X0205697Y0122711D01*
X0205965Y0122600D02*
X0207635Y0122600D01*
X0209179Y0123239D01*
X0210361Y0124421D01*
X0211000Y0125965D01*
X0211000Y0127635D01*
X0210361Y0129179D01*
X0209179Y0130361D01*
X0207635Y0131000D01*
X0205965Y0131000D01*
X0204421Y0130361D01*
X0203239Y0129179D01*
X0202600Y0127635D01*
X0202600Y0125965D01*
X0203239Y0124421D01*
X0204421Y0123239D01*
X0205965Y0122600D01*
X0207903Y0122711D02*
X0213824Y0122711D01*
X0213351Y0124309D02*
X0210249Y0124309D01*
X0210976Y0125908D02*
X0212624Y0125908D01*
X0212600Y0127506D02*
X0211000Y0127506D01*
X0210391Y0129105D02*
X0213209Y0129105D01*
X0215248Y0130703D02*
X0208352Y0130703D01*
X0205248Y0130703D02*
X0144200Y0130703D01*
X0144200Y0132302D02*
X0234400Y0132302D01*
X0234400Y0133900D02*
X0144200Y0133900D01*
X0146530Y0135499D02*
X0168767Y0135499D01*
X0169066Y0135200D02*
X0174534Y0135200D01*
X0178400Y0139066D01*
X0178400Y0144534D01*
X0174534Y0148400D01*
X0169066Y0148400D01*
X0165200Y0144534D01*
X0165200Y0139066D01*
X0169066Y0135200D01*
X0167169Y0137097D02*
X0148128Y0137097D01*
X0149600Y0138696D02*
X0165570Y0138696D01*
X0165200Y0140294D02*
X0149600Y0140294D01*
X0149600Y0141893D02*
X0165200Y0141893D01*
X0165200Y0143491D02*
X0149600Y0143491D01*
X0149541Y0145090D02*
X0165756Y0145090D01*
X0167355Y0146688D02*
X0147942Y0146688D01*
X0146344Y0148287D02*
X0168953Y0148287D01*
X0174647Y0148287D02*
X0234400Y0148287D01*
X0234400Y0149885D02*
X0185258Y0149885D01*
X0187500Y0150614D02*
X0187500Y0150614D01*
X0188697Y0151484D02*
X0234400Y0151484D01*
X0234400Y0153082D02*
X0190794Y0153082D01*
X0190677Y0152923D02*
X0190677Y0152923D01*
X0190677Y0152923D01*
X0191955Y0154681D02*
X0234400Y0154681D01*
X0234400Y0156279D02*
X0215613Y0156279D01*
X0214534Y0155200D02*
X0218400Y0159066D01*
X0218400Y0164534D01*
X0214534Y0168400D01*
X0209066Y0168400D01*
X0205200Y0164534D01*
X0205200Y0159066D01*
X0209066Y0155200D01*
X0214534Y0155200D01*
X0217212Y0157878D02*
X0234400Y0157878D01*
X0234400Y0159476D02*
X0218400Y0159476D01*
X0218400Y0161075D02*
X0234400Y0161075D01*
X0234400Y0162673D02*
X0218400Y0162673D01*
X0218400Y0164272D02*
X0234400Y0164272D01*
X0234400Y0165870D02*
X0217063Y0165870D01*
X0215465Y0167469D02*
X0234283Y0167469D01*
X0232989Y0169068D02*
X0195611Y0169068D01*
X0194317Y0167469D02*
X0208135Y0167469D01*
X0206537Y0165870D02*
X0194200Y0165870D01*
X0194200Y0164272D02*
X0205200Y0164272D01*
X0205200Y0162673D02*
X0194200Y0162673D01*
X0194200Y0161075D02*
X0205200Y0161075D01*
X0205200Y0159476D02*
X0194083Y0159476D01*
X0193564Y0157878D02*
X0206388Y0157878D01*
X0207987Y0156279D02*
X0193044Y0156279D01*
X0188572Y0158350D02*
X0188572Y0158350D01*
X0188229Y0157878D02*
X0177362Y0157878D01*
X0177466Y0158014D02*
X0177912Y0158786D01*
X0178253Y0159610D01*
X0178484Y0160471D01*
X0178600Y0161354D01*
X0178600Y0161600D01*
X0172000Y0161600D01*
X0172000Y0162000D01*
X0171600Y0162000D01*
X0171600Y0168600D01*
X0171354Y0168600D01*
X0170471Y0168484D01*
X0169610Y0168253D01*
X0168786Y0167912D01*
X0168014Y0167466D01*
X0167307Y0166923D01*
X0166677Y0166293D01*
X0166134Y0165586D01*
X0165688Y0164814D01*
X0165347Y0163990D01*
X0165116Y0163129D01*
X0165000Y0162246D01*
X0165000Y0162000D01*
X0171600Y0162000D01*
X0171600Y0161600D01*
X0165000Y0161600D01*
X0165000Y0161354D01*
X0165116Y0160471D01*
X0165347Y0159610D01*
X0165688Y0158786D01*
X0166134Y0158014D01*
X0166677Y0157307D01*
X0167307Y0156677D01*
X0168014Y0156134D01*
X0168786Y0155688D01*
X0169610Y0155347D01*
X0170471Y0155116D01*
X0171354Y0155000D01*
X0171600Y0155000D01*
X0171600Y0161600D01*
X0172000Y0161600D01*
X0172000Y0155000D01*
X0172246Y0155000D01*
X0173129Y0155116D01*
X0173990Y0155347D01*
X0174814Y0155688D01*
X0175586Y0156134D01*
X0176293Y0156677D01*
X0176923Y0157307D01*
X0177466Y0158014D01*
X0178198Y0159476D02*
X0188938Y0159476D01*
X0189343Y0161075D02*
X0178563Y0161075D01*
X0178600Y0162000D02*
X0172000Y0162000D01*
X0172000Y0168600D01*
X0172246Y0168600D01*
X0173129Y0168484D01*
X0173990Y0168253D01*
X0174814Y0167912D01*
X0175586Y0167466D01*
X0176293Y0166923D01*
X0176923Y0166293D01*
X0177466Y0165586D01*
X0177912Y0164814D01*
X0178253Y0163990D01*
X0178484Y0163129D01*
X0178600Y0162246D01*
X0178600Y0162000D01*
X0178544Y0162673D02*
X0189400Y0162673D01*
X0189400Y0164272D02*
X0178136Y0164272D01*
X0177248Y0165870D02*
X0189400Y0165870D01*
X0189400Y0167469D02*
X0175581Y0167469D01*
X0172000Y0167469D02*
X0171600Y0167469D01*
X0171600Y0165870D02*
X0172000Y0165870D01*
X0172000Y0164272D02*
X0171600Y0164272D01*
X0171600Y0162673D02*
X0172000Y0162673D01*
X0172000Y0161075D02*
X0171600Y0161075D01*
X0171600Y0159476D02*
X0172000Y0159476D01*
X0172000Y0157878D02*
X0171600Y0157878D01*
X0171600Y0156279D02*
X0172000Y0156279D01*
X0175776Y0156279D02*
X0186972Y0156279D01*
X0184181Y0154681D02*
X0116800Y0154681D01*
X0116800Y0156279D02*
X0167824Y0156279D01*
X0166238Y0157878D02*
X0116800Y0157878D01*
X0116800Y0159476D02*
X0165402Y0159476D01*
X0165037Y0161075D02*
X0116800Y0161075D01*
X0116800Y0162673D02*
X0165056Y0162673D01*
X0165464Y0164272D02*
X0116800Y0164272D01*
X0116800Y0165870D02*
X0166352Y0165870D01*
X0168019Y0167469D02*
X0116800Y0167469D01*
X0116800Y0169068D02*
X0189730Y0169068D01*
X0190392Y0170666D02*
X0116800Y0170666D01*
X0116800Y0172265D02*
X0191799Y0172265D01*
X0192608Y0173073D02*
X0192608Y0173073D01*
X0194515Y0173863D02*
X0116800Y0173863D01*
X0116800Y0175462D02*
X0209333Y0175462D01*
X0209610Y0175347D02*
X0208786Y0175688D01*
X0208014Y0176134D01*
X0207307Y0176677D01*
X0206677Y0177307D01*
X0206134Y0178014D01*
X0205688Y0178786D01*
X0205347Y0179610D01*
X0205116Y0180471D01*
X0205000Y0181354D01*
X0205000Y0181600D01*
X0211600Y0181600D01*
X0211600Y0182000D01*
X0211600Y0188600D01*
X0211354Y0188600D01*
X0210471Y0188484D01*
X0209610Y0188253D01*
X0208786Y0187912D01*
X0208014Y0187466D01*
X0207307Y0186923D01*
X0206677Y0186293D01*
X0206134Y0185586D01*
X0205688Y0184814D01*
X0205347Y0183990D01*
X0205116Y0183129D01*
X0205000Y0182246D01*
X0205000Y0182000D01*
X0211600Y0182000D01*
X0212000Y0182000D01*
X0212000Y0188600D01*
X0212246Y0188600D01*
X0213129Y0188484D01*
X0213990Y0188253D01*
X0214814Y0187912D01*
X0215586Y0187466D01*
X0216293Y0186923D01*
X0216923Y0186293D01*
X0217466Y0185586D01*
X0217912Y0184814D01*
X0218253Y0183990D01*
X0218484Y0183129D01*
X0218600Y0182246D01*
X0218600Y0182000D01*
X0212000Y0182000D01*
X0212000Y0181600D01*
X0218600Y0181600D01*
X0218600Y0181354D01*
X0218484Y0180471D01*
X0218253Y0179610D01*
X0217912Y0178786D01*
X0217466Y0178014D01*
X0216923Y0177307D01*
X0216293Y0176677D01*
X0215586Y0176134D01*
X0214814Y0175688D01*
X0213990Y0175347D01*
X0213129Y0175116D01*
X0212246Y0175000D01*
X0212000Y0175000D01*
X0212000Y0181600D01*
X0211600Y0181600D01*
X0211600Y0175000D01*
X0211354Y0175000D01*
X0210471Y0175116D01*
X0209610Y0175347D01*
X0211600Y0175462D02*
X0212000Y0175462D01*
X0212000Y0177060D02*
X0211600Y0177060D01*
X0211600Y0178659D02*
X0212000Y0178659D01*
X0212000Y0180257D02*
X0211600Y0180257D01*
X0211600Y0181856D02*
X0116800Y0181856D01*
X0116800Y0183454D02*
X0205203Y0183454D01*
X0205826Y0185053D02*
X0116800Y0185053D01*
X0116800Y0186651D02*
X0207034Y0186651D01*
X0209602Y0188250D02*
X0116800Y0188250D01*
X0116800Y0189848D02*
X0301126Y0189848D01*
X0301354Y0190701D02*
X0300701Y0188261D01*
X0300701Y0185339D01*
X0301457Y0182516D01*
X0302918Y0179985D01*
X0304985Y0177918D01*
X0307516Y0176457D01*
X0310339Y0175701D01*
X0313261Y0175701D01*
X0316084Y0176457D01*
X0316921Y0176941D01*
X0316921Y0051659D01*
X0316084Y0052143D01*
X0313261Y0052899D01*
X0310339Y0052899D01*
X0307516Y0052143D01*
X0304985Y0050682D01*
X0302918Y0048615D01*
X0301457Y0046084D01*
X0300701Y0043261D01*
X0300701Y0040339D01*
X0301457Y0037516D01*
X0302918Y0034985D01*
X0304985Y0032918D01*
X0307269Y0031600D01*
X0116800Y0031600D01*
X0116800Y0190701D01*
X0301354Y0190701D01*
X0300701Y0188250D02*
X0213998Y0188250D01*
X0212000Y0188250D02*
X0211600Y0188250D01*
X0211600Y0186651D02*
X0212000Y0186651D01*
X0212000Y0185053D02*
X0211600Y0185053D01*
X0211600Y0183454D02*
X0212000Y0183454D01*
X0212000Y0181856D02*
X0301838Y0181856D01*
X0301206Y0183454D02*
X0218397Y0183454D01*
X0217774Y0185053D02*
X0300777Y0185053D01*
X0300701Y0186651D02*
X0216566Y0186651D01*
X0218426Y0180257D02*
X0302761Y0180257D01*
X0304245Y0178659D02*
X0217838Y0178659D01*
X0216677Y0177060D02*
X0306472Y0177060D01*
X0316921Y0175462D02*
X0214267Y0175462D01*
X0206923Y0177060D02*
X0116800Y0177060D01*
X0116800Y0178659D02*
X0205762Y0178659D01*
X0205174Y0180257D02*
X0116800Y0180257D01*
X0116800Y0153082D02*
X0127630Y0153082D01*
X0127608Y0153073D02*
X0127608Y0153073D01*
X0131800Y0151800D02*
X0181800Y0151800D01*
X0176245Y0146688D02*
X0234400Y0146688D01*
X0234400Y0145090D02*
X0229733Y0145090D01*
X0228623Y0146200D02*
X0226800Y0146200D01*
X0226800Y0141800D01*
X0231200Y0141800D01*
X0231200Y0143623D01*
X0228623Y0146200D01*
X0226800Y0146200D02*
X0224977Y0146200D01*
X0222400Y0143623D01*
X0222400Y0141800D01*
X0226800Y0141800D01*
X0226800Y0141800D01*
X0226800Y0141800D01*
X0231200Y0141800D01*
X0231200Y0139977D01*
X0228623Y0137400D01*
X0226800Y0137400D01*
X0226800Y0141800D01*
X0226800Y0141800D01*
X0226800Y0141800D01*
X0226800Y0146200D01*
X0226800Y0145090D02*
X0226800Y0145090D01*
X0226800Y0143491D02*
X0226800Y0143491D01*
X0226800Y0141893D02*
X0226800Y0141893D01*
X0226800Y0141800D02*
X0222400Y0141800D01*
X0222400Y0139977D01*
X0224977Y0137400D01*
X0226800Y0137400D01*
X0226800Y0141800D01*
X0226800Y0140294D02*
X0226800Y0140294D01*
X0226800Y0138696D02*
X0226800Y0138696D01*
X0229918Y0138696D02*
X0234400Y0138696D01*
X0234400Y0140294D02*
X0231200Y0140294D01*
X0231200Y0141893D02*
X0234400Y0141893D01*
X0234400Y0143491D02*
X0231200Y0143491D01*
X0223867Y0145090D02*
X0209450Y0145090D01*
X0208540Y0146000D02*
X0205060Y0146000D01*
X0202600Y0143540D01*
X0202600Y0140060D01*
X0205060Y0137600D01*
X0208540Y0137600D01*
X0211000Y0140060D01*
X0211000Y0143540D01*
X0208540Y0146000D01*
X0211000Y0143491D02*
X0222400Y0143491D01*
X0222400Y0141893D02*
X0211000Y0141893D01*
X0211000Y0140294D02*
X0222400Y0140294D01*
X0223682Y0138696D02*
X0209635Y0138696D01*
X0203965Y0138696D02*
X0178030Y0138696D01*
X0178400Y0140294D02*
X0202600Y0140294D01*
X0202600Y0141893D02*
X0178400Y0141893D01*
X0178400Y0143491D02*
X0202600Y0143491D01*
X0204150Y0145090D02*
X0177844Y0145090D01*
X0176431Y0137097D02*
X0234400Y0137097D01*
X0234400Y0135499D02*
X0174833Y0135499D01*
X0186790Y0125908D02*
X0202624Y0125908D01*
X0202600Y0127506D02*
X0142971Y0127506D01*
X0143073Y0127608D02*
X0143073Y0127608D01*
X0143693Y0129105D02*
X0203209Y0129105D01*
X0203351Y0124309D02*
X0188674Y0124309D01*
X0181984Y0116317D02*
X0181616Y0116317D01*
X0181616Y0114718D02*
X0181984Y0114718D01*
X0181984Y0113120D02*
X0181616Y0113120D01*
X0181616Y0111521D02*
X0181984Y0111521D01*
X0181984Y0109923D02*
X0181616Y0109923D01*
X0181616Y0108324D02*
X0181984Y0108324D01*
X0185677Y0106368D02*
X0177923Y0106368D01*
X0176244Y0105673D01*
X0174959Y0104388D01*
X0174263Y0102709D01*
X0174263Y0100891D01*
X0174959Y0099212D01*
X0176244Y0097927D01*
X0177923Y0097231D01*
X0185677Y0097231D01*
X0187356Y0097927D01*
X0188641Y0099212D01*
X0189337Y0100891D01*
X0189337Y0102709D01*
X0188641Y0104388D01*
X0187356Y0105673D01*
X0185677Y0106368D01*
X0187902Y0105127D02*
X0206555Y0105127D01*
X0206052Y0104756D02*
X0206052Y0104756D01*
X0205190Y0103529D02*
X0188997Y0103529D01*
X0189337Y0101930D02*
X0204376Y0101930D01*
X0204576Y0102655D02*
X0204576Y0102655D01*
X0203935Y0100332D02*
X0189105Y0100332D01*
X0188162Y0098733D02*
X0203055Y0098733D01*
X0203825Y0099933D02*
X0203825Y0099933D01*
X0202600Y0097134D02*
X0141931Y0097134D01*
X0143073Y0095992D02*
X0143073Y0095992D01*
X0143262Y0095536D02*
X0202778Y0095536D01*
X0203723Y0093937D02*
X0143924Y0093937D01*
X0144200Y0092339D02*
X0209400Y0092339D01*
X0209400Y0090740D02*
X0144200Y0090740D01*
X0145489Y0089142D02*
X0209400Y0089142D01*
X0209400Y0087543D02*
X0175181Y0087543D01*
X0175539Y0087395D02*
X0173113Y0088400D01*
X0170487Y0088400D01*
X0168061Y0087395D01*
X0166205Y0085539D01*
X0165200Y0083113D01*
X0165200Y0080487D01*
X0166205Y0078061D01*
X0168061Y0076205D01*
X0170487Y0075200D01*
X0173113Y0075200D01*
X0175539Y0076205D01*
X0177395Y0078061D01*
X0178400Y0080487D01*
X0178400Y0083113D01*
X0177395Y0085539D01*
X0175539Y0087395D01*
X0176989Y0085945D02*
X0209400Y0085945D01*
X0209400Y0084346D02*
X0177889Y0084346D01*
X0178400Y0082748D02*
X0209400Y0082748D01*
X0209400Y0081149D02*
X0178400Y0081149D01*
X0178012Y0079551D02*
X0209400Y0079551D01*
X0209400Y0077952D02*
X0177286Y0077952D01*
X0175688Y0076354D02*
X0209356Y0076354D01*
X0208362Y0074755D02*
X0145786Y0074755D01*
X0147385Y0076354D02*
X0167912Y0076354D01*
X0166314Y0077952D02*
X0148983Y0077952D01*
X0149600Y0079551D02*
X0165588Y0079551D01*
X0165200Y0081149D02*
X0149600Y0081149D01*
X0149600Y0082748D02*
X0165200Y0082748D01*
X0165711Y0084346D02*
X0149600Y0084346D01*
X0148686Y0085945D02*
X0166611Y0085945D01*
X0168419Y0087543D02*
X0147087Y0087543D01*
X0141800Y0091800D02*
X0141800Y0081800D01*
X0135388Y0086419D02*
X0127181Y0086419D01*
X0127181Y0087181D01*
X0135687Y0087181D01*
X0135687Y0087221D01*
X0135555Y0088051D01*
X0135295Y0088851D01*
X0134913Y0089600D01*
X0134419Y0090281D01*
X0133824Y0090876D01*
X0133144Y0091370D01*
X0132394Y0091752D01*
X0131947Y0091897D01*
X0133257Y0092440D01*
X0134704Y0093887D01*
X0134916Y0094400D01*
X0136800Y0094400D01*
X0137307Y0094350D01*
X0138244Y0093962D01*
X0138962Y0093244D01*
X0139350Y0092307D01*
X0139400Y0091800D01*
X0139400Y0089600D01*
X0138569Y0089600D01*
X0135388Y0086419D01*
X0135635Y0087543D02*
X0136513Y0087543D01*
X0135147Y0089142D02*
X0138111Y0089142D01*
X0139400Y0090740D02*
X0133959Y0090740D01*
X0133014Y0092339D02*
X0139337Y0092339D01*
X0138269Y0093937D02*
X0134725Y0093937D01*
X0136800Y0096800D02*
X0136940Y0096798D01*
X0137080Y0096792D01*
X0137220Y0096782D01*
X0137360Y0096769D01*
X0137499Y0096751D01*
X0137638Y0096729D01*
X0137775Y0096704D01*
X0137913Y0096675D01*
X0138049Y0096642D01*
X0138184Y0096605D01*
X0138318Y0096564D01*
X0138451Y0096519D01*
X0138583Y0096471D01*
X0138713Y0096419D01*
X0138842Y0096364D01*
X0138969Y0096305D01*
X0139095Y0096242D01*
X0139219Y0096176D01*
X0139340Y0096107D01*
X0139460Y0096034D01*
X0139578Y0095957D01*
X0139693Y0095878D01*
X0139807Y0095795D01*
X0139917Y0095709D01*
X0140026Y0095620D01*
X0140132Y0095528D01*
X0140235Y0095433D01*
X0140336Y0095336D01*
X0140433Y0095235D01*
X0140528Y0095132D01*
X0140620Y0095026D01*
X0140709Y0094917D01*
X0140795Y0094807D01*
X0140878Y0094693D01*
X0140957Y0094578D01*
X0141034Y0094460D01*
X0141107Y0094340D01*
X0141176Y0094219D01*
X0141242Y0094095D01*
X0141305Y0093969D01*
X0141364Y0093842D01*
X0141419Y0093713D01*
X0141471Y0093583D01*
X0141519Y0093451D01*
X0141564Y0093318D01*
X0141605Y0093184D01*
X0141642Y0093049D01*
X0141675Y0092913D01*
X0141704Y0092775D01*
X0141729Y0092638D01*
X0141751Y0092499D01*
X0141769Y0092360D01*
X0141782Y0092220D01*
X0141792Y0092080D01*
X0141798Y0091940D01*
X0141800Y0091800D01*
X0136800Y0096800D02*
X0126800Y0096800D01*
X0132026Y0101930D02*
X0137600Y0101930D01*
X0137600Y0100332D02*
X0134086Y0100332D01*
X0134346Y0103529D02*
X0137600Y0103529D01*
X0139187Y0105127D02*
X0135217Y0105127D01*
X0144413Y0105127D02*
X0158905Y0105127D01*
X0159977Y0106200D02*
X0157400Y0103623D01*
X0157400Y0101800D01*
X0161800Y0101800D01*
X0166200Y0101800D01*
X0166200Y0103623D01*
X0163623Y0106200D01*
X0161800Y0106200D01*
X0161800Y0101800D01*
X0161800Y0101800D01*
X0161800Y0101800D01*
X0166200Y0101800D01*
X0166200Y0099977D01*
X0163623Y0097400D01*
X0161800Y0097400D01*
X0161800Y0101800D01*
X0161800Y0101800D01*
X0161800Y0101800D01*
X0161800Y0106200D01*
X0159977Y0106200D01*
X0161800Y0105127D02*
X0161800Y0105127D01*
X0161800Y0103529D02*
X0161800Y0103529D01*
X0161800Y0101930D02*
X0161800Y0101930D01*
X0161800Y0101800D02*
X0157400Y0101800D01*
X0157400Y0099977D01*
X0159977Y0097400D01*
X0161800Y0097400D01*
X0161800Y0101800D01*
X0161800Y0100332D02*
X0161800Y0100332D01*
X0161800Y0098733D02*
X0161800Y0098733D01*
X0164956Y0098733D02*
X0175438Y0098733D01*
X0174495Y0100332D02*
X0166200Y0100332D01*
X0166200Y0101930D02*
X0174263Y0101930D01*
X0174603Y0103529D02*
X0166200Y0103529D01*
X0164695Y0105127D02*
X0175698Y0105127D01*
X0188036Y0108324D02*
X0248688Y0108324D01*
X0247295Y0106726D02*
X0227769Y0106726D01*
X0227097Y0101930D02*
X0210613Y0101930D01*
X0209208Y0100332D02*
X0214392Y0100332D01*
X0213055Y0098733D02*
X0210545Y0098733D01*
X0207351Y0102430D02*
X0207430Y0102539D01*
X0207512Y0102645D01*
X0207596Y0102749D01*
X0207684Y0102850D01*
X0207774Y0102949D01*
X0207868Y0103046D01*
X0207964Y0103139D01*
X0208062Y0103230D01*
X0208163Y0103319D01*
X0208267Y0103404D01*
X0208373Y0103486D01*
X0208481Y0103565D01*
X0208591Y0103641D01*
X0208704Y0103714D01*
X0208818Y0103784D01*
X0208935Y0103850D01*
X0209053Y0103913D01*
X0209173Y0103973D01*
X0209295Y0104029D01*
X0209418Y0104082D01*
X0209543Y0104131D01*
X0209669Y0104177D01*
X0209796Y0104219D01*
X0209925Y0104258D01*
X0210054Y0104293D01*
X0210185Y0104324D01*
X0210316Y0104351D01*
X0210448Y0104375D01*
X0210580Y0104395D01*
X0210714Y0104411D01*
X0210847Y0104423D01*
X0210981Y0104432D01*
X0211115Y0104437D01*
X0211249Y0104438D01*
X0207351Y0102430D02*
X0207268Y0102308D01*
X0207188Y0102184D01*
X0207110Y0102057D01*
X0207037Y0101929D01*
X0206966Y0101799D01*
X0206899Y0101667D01*
X0206835Y0101534D01*
X0206775Y0101399D01*
X0206718Y0101262D01*
X0206665Y0101124D01*
X0206616Y0100985D01*
X0206570Y0100845D01*
X0206527Y0100703D01*
X0206489Y0100560D01*
X0206453Y0100417D01*
X0206422Y0100272D01*
X0206395Y0100127D01*
X0206371Y0099981D01*
X0206351Y0099834D01*
X0206334Y0099687D01*
X0206322Y0099540D01*
X0206313Y0099393D01*
X0206308Y0099245D01*
X0206307Y0099097D01*
X0206310Y0098949D01*
X0206316Y0098801D01*
X0206327Y0098654D01*
X0206341Y0098507D01*
X0206359Y0098360D01*
X0206380Y0098214D01*
X0206406Y0098068D01*
X0206435Y0097923D01*
X0206468Y0097779D01*
X0206504Y0097636D01*
X0206545Y0097493D01*
X0206589Y0097352D01*
X0206636Y0097212D01*
X0206687Y0097073D01*
X0206742Y0096936D01*
X0206800Y0096800D01*
X0211000Y0097134D02*
X0211669Y0097134D01*
X0216800Y0096800D02*
X0226800Y0096800D01*
X0231000Y0097134D02*
X0232600Y0097134D01*
X0232600Y0097635D02*
X0232600Y0095965D01*
X0233239Y0094421D01*
X0234421Y0093239D01*
X0235965Y0092600D01*
X0237635Y0092600D01*
X0239179Y0093239D01*
X0240361Y0094421D01*
X0241000Y0095965D01*
X0241000Y0097635D01*
X0240361Y0099179D01*
X0239179Y0100361D01*
X0237635Y0101000D01*
X0235965Y0101000D01*
X0234421Y0100361D01*
X0233239Y0099179D01*
X0232600Y0097635D01*
X0233055Y0098733D02*
X0230545Y0098733D01*
X0229208Y0100332D02*
X0234392Y0100332D01*
X0239208Y0100332D02*
X0248357Y0100332D01*
X0249698Y0095354D02*
X0248908Y0095026D01*
X0248167Y0094599D01*
X0247489Y0094078D01*
X0246884Y0093473D01*
X0246364Y0092795D01*
X0245936Y0092054D01*
X0245609Y0091264D01*
X0245387Y0090438D01*
X0245321Y0089937D01*
X0251025Y0089937D01*
X0251025Y0088387D01*
X0252575Y0088387D01*
X0252575Y0082684D01*
X0253076Y0082749D01*
X0253902Y0082971D01*
X0254692Y0083298D01*
X0255433Y0083726D01*
X0256111Y0084246D01*
X0256716Y0084851D01*
X0257236Y0085530D01*
X0257664Y0086270D01*
X0257991Y0087060D01*
X0258213Y0087887D01*
X0258279Y0088387D01*
X0252575Y0088387D01*
X0252575Y0089937D01*
X0258279Y0089937D01*
X0258213Y0090438D01*
X0257991Y0091264D01*
X0257664Y0092054D01*
X0257236Y0092795D01*
X0256716Y0093473D01*
X0256111Y0094078D01*
X0255433Y0094599D01*
X0254692Y0095026D01*
X0253902Y0095354D01*
X0253076Y0095575D01*
X0252575Y0095641D01*
X0252575Y0089937D01*
X0251025Y0089937D01*
X0251025Y0095641D01*
X0250524Y0095575D01*
X0249698Y0095354D01*
X0250379Y0095536D02*
X0240822Y0095536D01*
X0241000Y0097134D02*
X0316921Y0097134D01*
X0316921Y0095536D02*
X0291669Y0095536D01*
X0291303Y0095902D02*
X0288381Y0097112D01*
X0285219Y0097112D01*
X0282297Y0095902D01*
X0280061Y0093665D01*
X0278850Y0090743D01*
X0278850Y0087581D01*
X0280061Y0084659D01*
X0282297Y0082423D01*
X0285219Y0081213D01*
X0288381Y0081213D01*
X0291303Y0082423D01*
X0293539Y0084659D01*
X0294750Y0087581D01*
X0294750Y0090743D01*
X0293539Y0093665D01*
X0291303Y0095902D01*
X0293267Y0093937D02*
X0316921Y0093937D01*
X0316921Y0092339D02*
X0294089Y0092339D01*
X0294750Y0090740D02*
X0316921Y0090740D01*
X0316921Y0089142D02*
X0294750Y0089142D01*
X0294734Y0087543D02*
X0316921Y0087543D01*
X0316921Y0085945D02*
X0294072Y0085945D01*
X0293227Y0084346D02*
X0316921Y0084346D01*
X0316921Y0082748D02*
X0291628Y0082748D01*
X0281972Y0082748D02*
X0253064Y0082748D01*
X0252575Y0082748D02*
X0251025Y0082748D01*
X0251025Y0082684D02*
X0251025Y0088387D01*
X0245321Y0088387D01*
X0245387Y0087887D01*
X0245609Y0087060D01*
X0245936Y0086270D01*
X0246364Y0085530D01*
X0246884Y0084851D01*
X0247489Y0084246D01*
X0248167Y0083726D01*
X0248908Y0083298D01*
X0249698Y0082971D01*
X0250524Y0082749D01*
X0251025Y0082684D01*
X0250536Y0082748D02*
X0241000Y0082748D01*
X0241000Y0083540D02*
X0241000Y0080060D01*
X0238540Y0077600D01*
X0235060Y0077600D01*
X0232600Y0080060D01*
X0232600Y0083540D01*
X0235060Y0086000D01*
X0238540Y0086000D01*
X0241000Y0083540D01*
X0240193Y0084346D02*
X0247389Y0084346D01*
X0246124Y0085945D02*
X0238595Y0085945D01*
X0235005Y0085945D02*
X0218878Y0085945D01*
X0216800Y0085945D02*
X0216800Y0085945D01*
X0216800Y0084346D02*
X0216800Y0084346D01*
X0216800Y0082748D02*
X0216800Y0082748D01*
X0216800Y0081800D02*
X0216800Y0077400D01*
X0216800Y0081800D01*
X0216800Y0081800D01*
X0216800Y0081149D02*
X0216800Y0081149D01*
X0216800Y0079551D02*
X0216800Y0079551D01*
X0216800Y0077952D02*
X0216800Y0077952D01*
X0219175Y0077952D02*
X0234708Y0077952D01*
X0233109Y0079551D02*
X0220773Y0079551D01*
X0221200Y0081149D02*
X0232600Y0081149D01*
X0232600Y0082748D02*
X0221200Y0082748D01*
X0220476Y0084346D02*
X0233407Y0084346D01*
X0240491Y0079551D02*
X0316921Y0079551D01*
X0316921Y0081149D02*
X0241000Y0081149D01*
X0238892Y0077952D02*
X0316921Y0077952D01*
X0316921Y0076354D02*
X0214200Y0076354D01*
X0214200Y0077952D02*
X0214425Y0077952D01*
X0211800Y0076800D02*
X0211800Y0091800D01*
X0214263Y0092339D02*
X0246100Y0092339D01*
X0245468Y0090740D02*
X0214200Y0090740D01*
X0214200Y0089142D02*
X0251025Y0089142D01*
X0252575Y0089142D02*
X0278850Y0089142D01*
X0278850Y0090740D02*
X0258132Y0090740D01*
X0257500Y0092339D02*
X0279511Y0092339D01*
X0280333Y0093937D02*
X0256252Y0093937D01*
X0253221Y0095536D02*
X0281931Y0095536D01*
X0275243Y0100332D02*
X0316921Y0100332D01*
X0316921Y0101930D02*
X0276442Y0101930D01*
X0276943Y0103529D02*
X0316921Y0103529D01*
X0316921Y0105127D02*
X0276943Y0105127D01*
X0276305Y0106726D02*
X0316921Y0106726D01*
X0316921Y0108324D02*
X0274912Y0108324D01*
X0258124Y0117915D02*
X0298850Y0117915D01*
X0298850Y0119514D02*
X0258124Y0119514D01*
X0257838Y0121112D02*
X0299003Y0121112D01*
X0299665Y0122711D02*
X0257176Y0122711D01*
X0255597Y0124309D02*
X0300705Y0124309D01*
X0302312Y0125908D02*
X0240976Y0125908D01*
X0241000Y0127506D02*
X0316921Y0127506D01*
X0316921Y0125908D02*
X0311288Y0125908D01*
X0312895Y0124309D02*
X0316921Y0124309D01*
X0316921Y0122711D02*
X0313935Y0122711D01*
X0314597Y0121112D02*
X0316921Y0121112D01*
X0316921Y0119514D02*
X0314750Y0119514D01*
X0314750Y0117915D02*
X0316921Y0117915D01*
X0316921Y0116317D02*
X0314226Y0116317D01*
X0313564Y0114718D02*
X0316921Y0114718D01*
X0316921Y0113120D02*
X0312000Y0113120D01*
X0309126Y0111521D02*
X0316921Y0111521D01*
X0316921Y0109923D02*
X0189164Y0109923D01*
X0219208Y0100332D02*
X0224392Y0100332D01*
X0230822Y0095536D02*
X0232778Y0095536D01*
X0233723Y0093937D02*
X0229877Y0093937D01*
X0223723Y0093937D02*
X0219877Y0093937D01*
X0216800Y0096800D02*
X0216660Y0096798D01*
X0216520Y0096792D01*
X0216380Y0096782D01*
X0216240Y0096769D01*
X0216101Y0096751D01*
X0215962Y0096729D01*
X0215825Y0096704D01*
X0215687Y0096675D01*
X0215551Y0096642D01*
X0215416Y0096605D01*
X0215282Y0096564D01*
X0215149Y0096519D01*
X0215017Y0096471D01*
X0214887Y0096419D01*
X0214758Y0096364D01*
X0214631Y0096305D01*
X0214505Y0096242D01*
X0214381Y0096176D01*
X0214260Y0096107D01*
X0214140Y0096034D01*
X0214022Y0095957D01*
X0213907Y0095878D01*
X0213793Y0095795D01*
X0213683Y0095709D01*
X0213574Y0095620D01*
X0213468Y0095528D01*
X0213365Y0095433D01*
X0213264Y0095336D01*
X0213167Y0095235D01*
X0213072Y0095132D01*
X0212980Y0095026D01*
X0212891Y0094917D01*
X0212805Y0094807D01*
X0212722Y0094693D01*
X0212643Y0094578D01*
X0212566Y0094460D01*
X0212493Y0094340D01*
X0212424Y0094219D01*
X0212358Y0094095D01*
X0212295Y0093969D01*
X0212236Y0093842D01*
X0212181Y0093713D01*
X0212129Y0093583D01*
X0212081Y0093451D01*
X0212036Y0093318D01*
X0211995Y0093184D01*
X0211958Y0093049D01*
X0211925Y0092913D01*
X0211896Y0092775D01*
X0211871Y0092638D01*
X0211849Y0092499D01*
X0211831Y0092360D01*
X0211818Y0092220D01*
X0211808Y0092080D01*
X0211802Y0091940D01*
X0211800Y0091800D01*
X0214200Y0087543D02*
X0245479Y0087543D01*
X0251025Y0087543D02*
X0252575Y0087543D01*
X0252575Y0085945D02*
X0251025Y0085945D01*
X0251025Y0084346D02*
X0252575Y0084346D01*
X0256211Y0084346D02*
X0280373Y0084346D01*
X0279528Y0085945D02*
X0257476Y0085945D01*
X0258121Y0087543D02*
X0278866Y0087543D01*
X0252575Y0090740D02*
X0251025Y0090740D01*
X0251025Y0092339D02*
X0252575Y0092339D01*
X0252575Y0093937D02*
X0251025Y0093937D01*
X0251025Y0095536D02*
X0252575Y0095536D01*
X0247348Y0093937D02*
X0239877Y0093937D01*
X0240545Y0098733D02*
X0316921Y0098733D01*
X0300036Y0114718D02*
X0256300Y0114718D01*
X0257467Y0116317D02*
X0299374Y0116317D01*
X0316921Y0129105D02*
X0240391Y0129105D01*
X0239200Y0130703D02*
X0316921Y0130703D01*
X0316921Y0132302D02*
X0239200Y0132302D01*
X0239200Y0133900D02*
X0316921Y0133900D01*
X0316921Y0135499D02*
X0239200Y0135499D01*
X0239200Y0137097D02*
X0316921Y0137097D01*
X0316921Y0138696D02*
X0239200Y0138696D01*
X0239200Y0140294D02*
X0316921Y0140294D01*
X0316921Y0141893D02*
X0239200Y0141893D01*
X0239200Y0143491D02*
X0316921Y0143491D01*
X0316921Y0145090D02*
X0239200Y0145090D01*
X0239200Y0146688D02*
X0316921Y0146688D01*
X0316921Y0148287D02*
X0239200Y0148287D01*
X0239200Y0149885D02*
X0316921Y0149885D01*
X0316921Y0151484D02*
X0239200Y0151484D01*
X0239200Y0153082D02*
X0316921Y0153082D01*
X0316921Y0154681D02*
X0239200Y0154681D01*
X0239200Y0156279D02*
X0267951Y0156279D01*
X0269056Y0155175D02*
X0265175Y0159056D01*
X0265175Y0164544D01*
X0269056Y0168425D01*
X0274544Y0168425D01*
X0278425Y0164544D01*
X0278425Y0159056D01*
X0274544Y0155175D01*
X0269056Y0155175D01*
X0266353Y0157878D02*
X0239200Y0157878D01*
X0239200Y0159476D02*
X0265175Y0159476D01*
X0265175Y0161075D02*
X0239200Y0161075D01*
X0239200Y0162673D02*
X0265175Y0162673D01*
X0265175Y0164272D02*
X0239200Y0164272D01*
X0239200Y0165870D02*
X0266501Y0165870D01*
X0268100Y0167469D02*
X0239200Y0167469D01*
X0238870Y0169068D02*
X0316921Y0169068D01*
X0316921Y0170666D02*
X0238208Y0170666D01*
X0238073Y0170992D02*
X0238073Y0170992D01*
X0236801Y0172265D02*
X0316921Y0172265D01*
X0316921Y0173863D02*
X0234085Y0173863D01*
X0231800Y0171800D02*
X0196800Y0171800D01*
X0196660Y0171798D01*
X0196520Y0171792D01*
X0196380Y0171782D01*
X0196240Y0171769D01*
X0196101Y0171751D01*
X0195962Y0171729D01*
X0195825Y0171704D01*
X0195687Y0171675D01*
X0195551Y0171642D01*
X0195416Y0171605D01*
X0195282Y0171564D01*
X0195149Y0171519D01*
X0195017Y0171471D01*
X0194887Y0171419D01*
X0194758Y0171364D01*
X0194631Y0171305D01*
X0194505Y0171242D01*
X0194381Y0171176D01*
X0194260Y0171107D01*
X0194140Y0171034D01*
X0194022Y0170957D01*
X0193907Y0170878D01*
X0193793Y0170795D01*
X0193683Y0170709D01*
X0193574Y0170620D01*
X0193468Y0170528D01*
X0193365Y0170433D01*
X0193264Y0170336D01*
X0193167Y0170235D01*
X0193072Y0170132D01*
X0192980Y0170026D01*
X0192891Y0169917D01*
X0192805Y0169807D01*
X0192722Y0169693D01*
X0192643Y0169578D01*
X0192566Y0169460D01*
X0192493Y0169340D01*
X0192424Y0169219D01*
X0192358Y0169095D01*
X0192295Y0168969D01*
X0192236Y0168842D01*
X0192181Y0168713D01*
X0192129Y0168583D01*
X0192081Y0168451D01*
X0192036Y0168318D01*
X0191995Y0168184D01*
X0191958Y0168049D01*
X0191925Y0167913D01*
X0191896Y0167775D01*
X0191871Y0167638D01*
X0191849Y0167499D01*
X0191831Y0167360D01*
X0191818Y0167220D01*
X0191808Y0167080D01*
X0191802Y0166940D01*
X0191800Y0166800D01*
X0191800Y0161800D01*
X0191797Y0161558D01*
X0191788Y0161317D01*
X0191774Y0161076D01*
X0191753Y0160835D01*
X0191727Y0160595D01*
X0191695Y0160355D01*
X0191657Y0160116D01*
X0191614Y0159879D01*
X0191564Y0159642D01*
X0191509Y0159407D01*
X0191449Y0159173D01*
X0191382Y0158941D01*
X0191311Y0158710D01*
X0191233Y0158481D01*
X0191150Y0158254D01*
X0191062Y0158029D01*
X0190968Y0157806D01*
X0190869Y0157586D01*
X0190764Y0157368D01*
X0190655Y0157153D01*
X0190540Y0156940D01*
X0190420Y0156730D01*
X0190295Y0156524D01*
X0190165Y0156320D01*
X0190030Y0156119D01*
X0189890Y0155922D01*
X0189746Y0155728D01*
X0189597Y0155538D01*
X0189443Y0155352D01*
X0189285Y0155169D01*
X0189123Y0154990D01*
X0188956Y0154815D01*
X0188785Y0154644D01*
X0188610Y0154477D01*
X0188431Y0154315D01*
X0188248Y0154157D01*
X0188062Y0154003D01*
X0187872Y0153854D01*
X0187678Y0153710D01*
X0187481Y0153570D01*
X0187280Y0153435D01*
X0187076Y0153305D01*
X0186870Y0153180D01*
X0186660Y0153060D01*
X0186447Y0152945D01*
X0186232Y0152836D01*
X0186014Y0152731D01*
X0185794Y0152632D01*
X0185571Y0152538D01*
X0185346Y0152450D01*
X0185119Y0152367D01*
X0184890Y0152289D01*
X0184659Y0152218D01*
X0184427Y0152151D01*
X0184193Y0152091D01*
X0183958Y0152036D01*
X0183721Y0151986D01*
X0183484Y0151943D01*
X0183245Y0151905D01*
X0183005Y0151873D01*
X0182765Y0151847D01*
X0182524Y0151826D01*
X0182283Y0151812D01*
X0182042Y0151803D01*
X0181800Y0151800D01*
X0190527Y0170992D02*
X0190527Y0170992D01*
X0231800Y0171800D02*
X0231940Y0171798D01*
X0232080Y0171792D01*
X0232220Y0171782D01*
X0232360Y0171769D01*
X0232499Y0171751D01*
X0232638Y0171729D01*
X0232775Y0171704D01*
X0232913Y0171675D01*
X0233049Y0171642D01*
X0233184Y0171605D01*
X0233318Y0171564D01*
X0233451Y0171519D01*
X0233583Y0171471D01*
X0233713Y0171419D01*
X0233842Y0171364D01*
X0233969Y0171305D01*
X0234095Y0171242D01*
X0234219Y0171176D01*
X0234340Y0171107D01*
X0234460Y0171034D01*
X0234578Y0170957D01*
X0234693Y0170878D01*
X0234807Y0170795D01*
X0234917Y0170709D01*
X0235026Y0170620D01*
X0235132Y0170528D01*
X0235235Y0170433D01*
X0235336Y0170336D01*
X0235433Y0170235D01*
X0235528Y0170132D01*
X0235620Y0170026D01*
X0235709Y0169917D01*
X0235795Y0169807D01*
X0235878Y0169693D01*
X0235957Y0169578D01*
X0236034Y0169460D01*
X0236107Y0169340D01*
X0236176Y0169219D01*
X0236242Y0169095D01*
X0236305Y0168969D01*
X0236364Y0168842D01*
X0236419Y0168713D01*
X0236471Y0168583D01*
X0236519Y0168451D01*
X0236564Y0168318D01*
X0236605Y0168184D01*
X0236642Y0168049D01*
X0236675Y0167913D01*
X0236704Y0167775D01*
X0236729Y0167638D01*
X0236751Y0167499D01*
X0236769Y0167360D01*
X0236782Y0167220D01*
X0236792Y0167080D01*
X0236798Y0166940D01*
X0236800Y0166800D01*
X0236800Y0126800D01*
X0226800Y0126800D01*
X0225248Y0130703D02*
X0218352Y0130703D01*
X0220391Y0129105D02*
X0223209Y0129105D01*
X0222600Y0127506D02*
X0221000Y0127506D01*
X0220976Y0125908D02*
X0222624Y0125908D01*
X0221760Y0119437D02*
X0221605Y0119441D01*
X0221450Y0119448D01*
X0221295Y0119458D01*
X0221141Y0119473D01*
X0220987Y0119491D01*
X0220833Y0119512D01*
X0220680Y0119538D01*
X0220528Y0119567D01*
X0220376Y0119600D01*
X0220225Y0119636D01*
X0220075Y0119676D01*
X0219926Y0119719D01*
X0219778Y0119766D01*
X0219632Y0119817D01*
X0219486Y0119871D01*
X0219342Y0119928D01*
X0219200Y0119989D01*
X0219058Y0120053D01*
X0218919Y0120121D01*
X0218781Y0120192D01*
X0218644Y0120266D01*
X0218510Y0120344D01*
X0218378Y0120425D01*
X0218247Y0120508D01*
X0218118Y0120595D01*
X0217992Y0120685D01*
X0217868Y0120778D01*
X0217746Y0120874D01*
X0217626Y0120973D01*
X0219311Y0122711D02*
X0225697Y0122711D01*
X0227903Y0122711D02*
X0235697Y0122711D01*
X0237903Y0122711D02*
X0246424Y0122711D01*
X0248003Y0124309D02*
X0240249Y0124309D01*
X0233351Y0124309D02*
X0230249Y0124309D01*
X0223351Y0124309D02*
X0220249Y0124309D01*
X0217627Y0120973D02*
X0217528Y0121060D01*
X0217431Y0121149D01*
X0217338Y0121241D01*
X0217247Y0121336D01*
X0217159Y0121433D01*
X0217073Y0121533D01*
X0216991Y0121636D01*
X0216912Y0121741D01*
X0216836Y0121848D01*
X0216763Y0121957D01*
X0216694Y0122069D01*
X0216628Y0122183D01*
X0216565Y0122298D01*
X0216506Y0122415D01*
X0216450Y0122534D01*
X0216398Y0122655D01*
X0216349Y0122777D01*
X0216305Y0122901D01*
X0216263Y0123025D01*
X0216226Y0123151D01*
X0216192Y0123278D01*
X0216162Y0123406D01*
X0216136Y0123535D01*
X0216114Y0123665D01*
X0216095Y0123795D01*
X0216081Y0123925D01*
X0216070Y0124056D01*
X0216063Y0124187D01*
X0216060Y0124319D01*
X0216061Y0124450D01*
X0216066Y0124582D01*
X0216075Y0124713D01*
X0216087Y0124843D01*
X0216104Y0124974D01*
X0216124Y0125104D01*
X0216149Y0125233D01*
X0216177Y0125361D01*
X0216209Y0125489D01*
X0216244Y0125615D01*
X0216284Y0125740D01*
X0216327Y0125865D01*
X0216374Y0125987D01*
X0216424Y0126109D01*
X0216478Y0126229D01*
X0216536Y0126347D01*
X0216597Y0126463D01*
X0216661Y0126578D01*
X0216729Y0126690D01*
X0216800Y0126801D01*
X0228352Y0130703D02*
X0234400Y0130703D01*
X0275649Y0156279D02*
X0282669Y0156279D01*
X0283973Y0154975D02*
X0279975Y0158973D01*
X0279975Y0161000D01*
X0286000Y0161000D01*
X0287600Y0161000D01*
X0287600Y0162600D01*
X0293625Y0162600D01*
X0293625Y0164627D01*
X0289627Y0168625D01*
X0287600Y0168625D01*
X0287600Y0162600D01*
X0286000Y0162600D01*
X0286000Y0168625D01*
X0283973Y0168625D01*
X0279975Y0164627D01*
X0279975Y0162600D01*
X0286000Y0162600D01*
X0286000Y0161000D01*
X0286000Y0154975D01*
X0283973Y0154975D01*
X0286000Y0156279D02*
X0287600Y0156279D01*
X0287600Y0154975D02*
X0289627Y0154975D01*
X0293625Y0158973D01*
X0293625Y0161000D01*
X0287600Y0161000D01*
X0287600Y0154975D01*
X0290931Y0156279D02*
X0316921Y0156279D01*
X0316921Y0157878D02*
X0292530Y0157878D01*
X0293625Y0159476D02*
X0316921Y0159476D01*
X0316921Y0161075D02*
X0287600Y0161075D01*
X0287600Y0162673D02*
X0286000Y0162673D01*
X0286000Y0161075D02*
X0278425Y0161075D01*
X0278425Y0162673D02*
X0279975Y0162673D01*
X0279975Y0164272D02*
X0278425Y0164272D01*
X0277099Y0165870D02*
X0281218Y0165870D01*
X0282817Y0167469D02*
X0275500Y0167469D01*
X0286000Y0167469D02*
X0287600Y0167469D01*
X0287600Y0165870D02*
X0286000Y0165870D01*
X0286000Y0164272D02*
X0287600Y0164272D01*
X0290783Y0167469D02*
X0316921Y0167469D01*
X0316921Y0165870D02*
X0292381Y0165870D01*
X0293625Y0164272D02*
X0316921Y0164272D01*
X0316921Y0162673D02*
X0293625Y0162673D01*
X0287600Y0159476D02*
X0286000Y0159476D01*
X0286000Y0157878D02*
X0287600Y0157878D01*
X0281070Y0157878D02*
X0277247Y0157878D01*
X0278425Y0159476D02*
X0279975Y0159476D01*
X0214722Y0085945D02*
X0214200Y0085945D01*
X0211800Y0076800D02*
X0211798Y0076660D01*
X0211792Y0076520D01*
X0211782Y0076380D01*
X0211769Y0076240D01*
X0211751Y0076101D01*
X0211729Y0075962D01*
X0211704Y0075825D01*
X0211675Y0075687D01*
X0211642Y0075551D01*
X0211605Y0075416D01*
X0211564Y0075282D01*
X0211519Y0075149D01*
X0211471Y0075017D01*
X0211419Y0074887D01*
X0211364Y0074758D01*
X0211305Y0074631D01*
X0211242Y0074505D01*
X0211176Y0074381D01*
X0211107Y0074260D01*
X0211034Y0074140D01*
X0210957Y0074022D01*
X0210878Y0073907D01*
X0210795Y0073793D01*
X0210709Y0073683D01*
X0210620Y0073574D01*
X0210528Y0073468D01*
X0210433Y0073365D01*
X0210336Y0073264D01*
X0210235Y0073167D01*
X0210132Y0073072D01*
X0210026Y0072980D01*
X0209917Y0072891D01*
X0209807Y0072805D01*
X0209693Y0072722D01*
X0209578Y0072643D01*
X0209460Y0072566D01*
X0209340Y0072493D01*
X0209219Y0072424D01*
X0209095Y0072358D01*
X0208969Y0072295D01*
X0208842Y0072236D01*
X0208713Y0072181D01*
X0208583Y0072129D01*
X0208451Y0072081D01*
X0208318Y0072036D01*
X0208184Y0071995D01*
X0208049Y0071958D01*
X0207913Y0071925D01*
X0207775Y0071896D01*
X0207638Y0071871D01*
X0207499Y0071849D01*
X0207360Y0071831D01*
X0207220Y0071818D01*
X0207080Y0071808D01*
X0206940Y0071802D01*
X0206800Y0071800D01*
X0131800Y0071800D01*
X0128977Y0069960D02*
X0116800Y0069960D01*
X0116800Y0071558D02*
X0126577Y0071558D01*
X0129977Y0066200D02*
X0127400Y0063623D01*
X0127400Y0061800D01*
X0131800Y0061800D01*
X0136200Y0061800D01*
X0136200Y0063623D01*
X0133623Y0066200D01*
X0131800Y0066200D01*
X0131800Y0061800D01*
X0131800Y0061800D01*
X0131800Y0061800D01*
X0136200Y0061800D01*
X0136200Y0059977D01*
X0133623Y0057400D01*
X0131800Y0057400D01*
X0131800Y0061800D01*
X0131800Y0061800D01*
X0131800Y0061800D01*
X0131800Y0066200D01*
X0129977Y0066200D01*
X0128942Y0065164D02*
X0116800Y0065164D01*
X0116800Y0063566D02*
X0127400Y0063566D01*
X0127400Y0061967D02*
X0116800Y0061967D01*
X0116800Y0060369D02*
X0127400Y0060369D01*
X0127400Y0059977D02*
X0129977Y0057400D01*
X0131800Y0057400D01*
X0131800Y0061800D01*
X0127400Y0061800D01*
X0127400Y0059977D01*
X0128607Y0058770D02*
X0116800Y0058770D01*
X0116800Y0057172D02*
X0166812Y0057172D01*
X0168410Y0055573D02*
X0116800Y0055573D01*
X0116800Y0053975D02*
X0205000Y0053975D01*
X0205000Y0054617D02*
X0205000Y0052000D01*
X0211600Y0052000D01*
X0211600Y0058600D01*
X0208983Y0058600D01*
X0205000Y0054617D01*
X0205957Y0055573D02*
X0175190Y0055573D01*
X0174617Y0055000D02*
X0178600Y0058983D01*
X0178600Y0061600D01*
X0172000Y0061600D01*
X0172000Y0062000D01*
X0171600Y0062000D01*
X0171600Y0068600D01*
X0168983Y0068600D01*
X0165000Y0064617D01*
X0165000Y0062000D01*
X0171600Y0062000D01*
X0171600Y0061600D01*
X0165000Y0061600D01*
X0165000Y0058983D01*
X0168983Y0055000D01*
X0171600Y0055000D01*
X0171600Y0061600D01*
X0172000Y0061600D01*
X0172000Y0055000D01*
X0174617Y0055000D01*
X0172000Y0055573D02*
X0171600Y0055573D01*
X0171600Y0057172D02*
X0172000Y0057172D01*
X0172000Y0058770D02*
X0171600Y0058770D01*
X0171600Y0060369D02*
X0172000Y0060369D01*
X0172000Y0061967D02*
X0316921Y0061967D01*
X0316921Y0060369D02*
X0178600Y0060369D01*
X0178387Y0058770D02*
X0316921Y0058770D01*
X0316921Y0057172D02*
X0235762Y0057172D01*
X0235539Y0057395D02*
X0233113Y0058400D01*
X0230487Y0058400D01*
X0228061Y0057395D01*
X0226205Y0055539D01*
X0225200Y0053113D01*
X0225200Y0050487D01*
X0226205Y0048061D01*
X0228061Y0046205D01*
X0230487Y0045200D01*
X0233113Y0045200D01*
X0235539Y0046205D01*
X0237395Y0048061D01*
X0238400Y0050487D01*
X0238400Y0053113D01*
X0237395Y0055539D01*
X0235539Y0057395D01*
X0237361Y0055573D02*
X0316921Y0055573D01*
X0316921Y0053975D02*
X0238043Y0053975D01*
X0238400Y0052376D02*
X0247724Y0052376D01*
X0248973Y0053625D02*
X0244975Y0049627D01*
X0244975Y0047600D01*
X0251000Y0047600D01*
X0251000Y0053625D01*
X0248973Y0053625D01*
X0251000Y0052376D02*
X0252600Y0052376D01*
X0252600Y0053625D02*
X0254627Y0053625D01*
X0258625Y0049627D01*
X0258625Y0047600D01*
X0252600Y0047600D01*
X0252600Y0046000D01*
X0258625Y0046000D01*
X0258625Y0043973D01*
X0254627Y0039975D01*
X0252600Y0039975D01*
X0252600Y0046000D01*
X0251000Y0046000D01*
X0251000Y0039975D01*
X0248973Y0039975D01*
X0244975Y0043973D01*
X0244975Y0046000D01*
X0251000Y0046000D01*
X0251000Y0047600D01*
X0252600Y0047600D01*
X0252600Y0053625D01*
X0252600Y0050778D02*
X0251000Y0050778D01*
X0251000Y0049179D02*
X0252600Y0049179D01*
X0252600Y0047581D02*
X0302321Y0047581D01*
X0301430Y0045982D02*
X0258625Y0045982D01*
X0258625Y0044384D02*
X0301002Y0044384D01*
X0300701Y0042785D02*
X0257437Y0042785D01*
X0255839Y0041187D02*
X0300701Y0041187D01*
X0300902Y0039588D02*
X0116800Y0039588D01*
X0116800Y0037990D02*
X0301330Y0037990D01*
X0302107Y0036391D02*
X0116800Y0036391D01*
X0116800Y0034793D02*
X0303111Y0034793D01*
X0304709Y0033194D02*
X0116800Y0033194D01*
X0116800Y0041187D02*
X0247761Y0041187D01*
X0246163Y0042785D02*
X0116800Y0042785D01*
X0116800Y0044384D02*
X0244975Y0044384D01*
X0244975Y0045982D02*
X0235001Y0045982D01*
X0236914Y0047581D02*
X0251000Y0047581D01*
X0251000Y0045982D02*
X0252600Y0045982D01*
X0252600Y0044384D02*
X0251000Y0044384D01*
X0251000Y0042785D02*
X0252600Y0042785D01*
X0252600Y0041187D02*
X0251000Y0041187D01*
X0244975Y0049179D02*
X0237858Y0049179D01*
X0238400Y0050778D02*
X0246126Y0050778D01*
X0255876Y0052376D02*
X0308387Y0052376D01*
X0305151Y0050778D02*
X0257474Y0050778D01*
X0258625Y0049179D02*
X0303483Y0049179D01*
X0315213Y0052376D02*
X0316921Y0052376D01*
X0316921Y0063566D02*
X0178600Y0063566D01*
X0178600Y0064617D02*
X0174617Y0068600D01*
X0172000Y0068600D01*
X0172000Y0062000D01*
X0178600Y0062000D01*
X0178600Y0064617D01*
X0178052Y0065164D02*
X0316921Y0065164D01*
X0316921Y0066763D02*
X0176454Y0066763D01*
X0174855Y0068361D02*
X0316921Y0068361D01*
X0316921Y0069960D02*
X0209623Y0069960D01*
X0210992Y0070527D02*
X0210992Y0070527D01*
X0212023Y0071558D02*
X0316921Y0071558D01*
X0316921Y0073157D02*
X0213301Y0073157D01*
X0213073Y0072608D02*
X0213073Y0072608D01*
X0213963Y0074755D02*
X0316921Y0074755D01*
X0227838Y0057172D02*
X0216045Y0057172D01*
X0214617Y0058600D02*
X0212000Y0058600D01*
X0212000Y0052000D01*
X0218600Y0052000D01*
X0218600Y0054617D01*
X0214617Y0058600D01*
X0212000Y0057172D02*
X0211600Y0057172D01*
X0211600Y0055573D02*
X0212000Y0055573D01*
X0212000Y0053975D02*
X0211600Y0053975D01*
X0211600Y0052376D02*
X0212000Y0052376D01*
X0212000Y0052000D02*
X0211600Y0052000D01*
X0211600Y0051600D01*
X0212000Y0051600D01*
X0212000Y0052000D01*
X0212000Y0051600D02*
X0218600Y0051600D01*
X0218600Y0048983D01*
X0214617Y0045000D01*
X0212000Y0045000D01*
X0212000Y0051600D01*
X0211600Y0051600D02*
X0211600Y0045000D01*
X0208983Y0045000D01*
X0205000Y0048983D01*
X0205000Y0051600D01*
X0211600Y0051600D01*
X0211600Y0050778D02*
X0212000Y0050778D01*
X0212000Y0049179D02*
X0211600Y0049179D01*
X0211600Y0047581D02*
X0212000Y0047581D01*
X0212000Y0045982D02*
X0211600Y0045982D01*
X0208001Y0045982D02*
X0116800Y0045982D01*
X0116800Y0047581D02*
X0206403Y0047581D01*
X0205000Y0049179D02*
X0116800Y0049179D01*
X0116800Y0050778D02*
X0205000Y0050778D01*
X0205000Y0052376D02*
X0116800Y0052376D01*
X0131800Y0058770D02*
X0131800Y0058770D01*
X0131800Y0060369D02*
X0131800Y0060369D01*
X0131800Y0061967D02*
X0131800Y0061967D01*
X0131800Y0063566D02*
X0131800Y0063566D01*
X0131800Y0065164D02*
X0131800Y0065164D01*
X0134658Y0065164D02*
X0165548Y0065164D01*
X0165000Y0063566D02*
X0136200Y0063566D01*
X0136200Y0061967D02*
X0171600Y0061967D01*
X0171600Y0063566D02*
X0172000Y0063566D01*
X0172000Y0065164D02*
X0171600Y0065164D01*
X0171600Y0066763D02*
X0172000Y0066763D01*
X0172000Y0068361D02*
X0171600Y0068361D01*
X0168745Y0068361D02*
X0116800Y0068361D01*
X0116800Y0066763D02*
X0167146Y0066763D01*
X0165000Y0060369D02*
X0136200Y0060369D01*
X0134993Y0058770D02*
X0165213Y0058770D01*
X0176788Y0057172D02*
X0207555Y0057172D01*
X0217643Y0055573D02*
X0226239Y0055573D01*
X0225557Y0053975D02*
X0218600Y0053975D01*
X0218600Y0052376D02*
X0225200Y0052376D01*
X0225200Y0050778D02*
X0218600Y0050778D01*
X0218600Y0049179D02*
X0225742Y0049179D01*
X0226686Y0047581D02*
X0217197Y0047581D01*
X0215599Y0045982D02*
X0228599Y0045982D01*
X0158644Y0098733D02*
X0144673Y0098733D01*
X0146000Y0100332D02*
X0157400Y0100332D01*
X0157400Y0101930D02*
X0146000Y0101930D01*
X0146000Y0103529D02*
X0157400Y0103529D01*
X0159462Y0117915D02*
X0143855Y0117915D01*
X0145453Y0119514D02*
X0157864Y0119514D01*
X0157400Y0121112D02*
X0146000Y0121112D01*
X0146000Y0122711D02*
X0157400Y0122711D01*
X0158087Y0124309D02*
X0145230Y0124309D01*
X0143632Y0125908D02*
X0159685Y0125908D01*
X0141800Y0131800D02*
X0141800Y0141800D01*
X0131800Y0151800D02*
X0131660Y0151798D01*
X0131520Y0151792D01*
X0131380Y0151782D01*
X0131240Y0151769D01*
X0131101Y0151751D01*
X0130962Y0151729D01*
X0130825Y0151704D01*
X0130687Y0151675D01*
X0130551Y0151642D01*
X0130416Y0151605D01*
X0130282Y0151564D01*
X0130149Y0151519D01*
X0130017Y0151471D01*
X0129887Y0151419D01*
X0129758Y0151364D01*
X0129631Y0151305D01*
X0129505Y0151242D01*
X0129381Y0151176D01*
X0129260Y0151107D01*
X0129140Y0151034D01*
X0129022Y0150957D01*
X0128907Y0150878D01*
X0128793Y0150795D01*
X0128683Y0150709D01*
X0128574Y0150620D01*
X0128468Y0150528D01*
X0128365Y0150433D01*
X0128264Y0150336D01*
X0128167Y0150235D01*
X0128072Y0150132D01*
X0127980Y0150026D01*
X0127891Y0149917D01*
X0127805Y0149807D01*
X0127722Y0149693D01*
X0127643Y0149578D01*
X0127566Y0149460D01*
X0127493Y0149340D01*
X0127424Y0149219D01*
X0127358Y0149095D01*
X0127295Y0148969D01*
X0127236Y0148842D01*
X0127181Y0148713D01*
X0127129Y0148583D01*
X0127081Y0148451D01*
X0127036Y0148318D01*
X0126995Y0148184D01*
X0126958Y0148049D01*
X0126925Y0147913D01*
X0126896Y0147775D01*
X0126871Y0147638D01*
X0126849Y0147499D01*
X0126831Y0147360D01*
X0126818Y0147220D01*
X0126808Y0147080D01*
X0126802Y0146940D01*
X0126800Y0146800D01*
X0121124Y0151484D02*
X0116800Y0151484D01*
X0116800Y0149885D02*
X0119068Y0149885D01*
X0118305Y0148287D02*
X0116800Y0148287D01*
X0116800Y0146688D02*
X0118113Y0146688D01*
X0118398Y0145090D02*
X0116800Y0145090D01*
X0116800Y0143491D02*
X0119292Y0143491D01*
X0121640Y0141893D02*
X0116800Y0141893D01*
X0116800Y0140294D02*
X0119194Y0140294D01*
X0118254Y0138696D02*
X0116800Y0138696D01*
X0134879Y0124309D02*
X0138370Y0124309D01*
X0121214Y0111521D02*
X0116800Y0111521D01*
X0116800Y0109923D02*
X0119106Y0109923D01*
X0118321Y0108324D02*
X0116800Y0108324D01*
X0116800Y0106726D02*
X0118113Y0106726D01*
X0118383Y0105127D02*
X0116800Y0105127D01*
X0116800Y0103529D02*
X0119254Y0103529D01*
X0121574Y0101930D02*
X0116800Y0101930D01*
X0116800Y0100332D02*
X0119514Y0100332D01*
X0118490Y0098733D02*
X0116800Y0098733D01*
X0116800Y0097134D02*
X0118113Y0097134D01*
X0118213Y0095536D02*
X0116800Y0095536D01*
X0116800Y0093937D02*
X0118875Y0093937D01*
X0120586Y0092339D02*
X0116800Y0092339D01*
X0116800Y0090740D02*
X0119641Y0090740D01*
X0118453Y0089142D02*
X0116800Y0089142D01*
X0116800Y0087543D02*
X0117965Y0087543D01*
X0117982Y0085945D02*
X0116800Y0085945D01*
X0116800Y0084346D02*
X0118510Y0084346D01*
X0119752Y0082748D02*
X0116800Y0082748D01*
X0116800Y0081149D02*
X0120332Y0081149D01*
X0118829Y0079551D02*
X0116800Y0079551D01*
X0116800Y0077952D02*
X0118167Y0077952D01*
X0118113Y0076354D02*
X0116800Y0076354D01*
X0116800Y0074755D02*
X0118537Y0074755D01*
X0119626Y0073157D02*
X0116800Y0073157D01*
X0126800Y0076800D02*
X0126802Y0076660D01*
X0126808Y0076520D01*
X0126818Y0076380D01*
X0126831Y0076240D01*
X0126849Y0076101D01*
X0126871Y0075962D01*
X0126896Y0075825D01*
X0126925Y0075687D01*
X0126958Y0075551D01*
X0126995Y0075416D01*
X0127036Y0075282D01*
X0127081Y0075149D01*
X0127129Y0075017D01*
X0127181Y0074887D01*
X0127236Y0074758D01*
X0127295Y0074631D01*
X0127358Y0074505D01*
X0127424Y0074381D01*
X0127493Y0074260D01*
X0127566Y0074140D01*
X0127643Y0074022D01*
X0127722Y0073907D01*
X0127805Y0073793D01*
X0127891Y0073683D01*
X0127980Y0073574D01*
X0128072Y0073468D01*
X0128167Y0073365D01*
X0128264Y0073264D01*
X0128365Y0073167D01*
X0128468Y0073072D01*
X0128574Y0072980D01*
X0128683Y0072891D01*
X0128793Y0072805D01*
X0128907Y0072722D01*
X0129022Y0072643D01*
X0129140Y0072566D01*
X0129260Y0072493D01*
X0129381Y0072424D01*
X0129505Y0072358D01*
X0129631Y0072295D01*
X0129758Y0072236D01*
X0129887Y0072181D01*
X0130017Y0072129D01*
X0130149Y0072081D01*
X0130282Y0072036D01*
X0130416Y0071995D01*
X0130551Y0071958D01*
X0130687Y0071925D01*
X0130825Y0071896D01*
X0130962Y0071871D01*
X0131101Y0071849D01*
X0131240Y0071831D01*
X0131380Y0071818D01*
X0131520Y0071808D01*
X0131660Y0071802D01*
X0131800Y0071800D01*
X0089626Y0073157D02*
X0042586Y0073157D01*
X0033387Y0052376D02*
X0026600Y0052376D01*
X0026600Y0050778D02*
X0030151Y0050778D01*
X0028483Y0049179D02*
X0026600Y0049179D01*
X0026600Y0047581D02*
X0027321Y0047581D01*
X0116800Y0113120D02*
X0119663Y0113120D01*
X0118552Y0114718D02*
X0116800Y0114718D01*
X0116800Y0116317D02*
X0118113Y0116317D01*
X0118152Y0117915D02*
X0116800Y0117915D01*
X0116800Y0119514D02*
X0118814Y0119514D01*
M02*
