G75*
%MOIN*%
%OFA0B0*%
%FSLAX25Y25*%
%IPPOS*%
%LPD*%
%AMOC8*
5,1,8,0,0,1.08239X$1,22.5*
%
%ADD10C,0.00000*%
D10*
X0001000Y0001000D02*
X0001000Y0256906D01*
X0689976Y0256906D01*
X0689976Y0001000D01*
X0001000Y0001000D01*
X0014386Y0020685D02*
X0014388Y0020843D01*
X0014394Y0021001D01*
X0014404Y0021159D01*
X0014418Y0021317D01*
X0014436Y0021474D01*
X0014457Y0021631D01*
X0014483Y0021787D01*
X0014513Y0021943D01*
X0014546Y0022098D01*
X0014584Y0022251D01*
X0014625Y0022404D01*
X0014670Y0022556D01*
X0014719Y0022707D01*
X0014772Y0022856D01*
X0014828Y0023004D01*
X0014888Y0023150D01*
X0014952Y0023295D01*
X0015020Y0023438D01*
X0015091Y0023580D01*
X0015165Y0023720D01*
X0015243Y0023857D01*
X0015325Y0023993D01*
X0015409Y0024127D01*
X0015498Y0024258D01*
X0015589Y0024387D01*
X0015684Y0024514D01*
X0015781Y0024639D01*
X0015882Y0024761D01*
X0015986Y0024880D01*
X0016093Y0024997D01*
X0016203Y0025111D01*
X0016316Y0025222D01*
X0016431Y0025331D01*
X0016549Y0025436D01*
X0016670Y0025538D01*
X0016793Y0025638D01*
X0016919Y0025734D01*
X0017047Y0025827D01*
X0017177Y0025917D01*
X0017310Y0026003D01*
X0017445Y0026087D01*
X0017581Y0026166D01*
X0017720Y0026243D01*
X0017861Y0026315D01*
X0018003Y0026385D01*
X0018147Y0026450D01*
X0018293Y0026512D01*
X0018440Y0026570D01*
X0018589Y0026625D01*
X0018739Y0026676D01*
X0018890Y0026723D01*
X0019042Y0026766D01*
X0019195Y0026805D01*
X0019350Y0026841D01*
X0019505Y0026872D01*
X0019661Y0026900D01*
X0019817Y0026924D01*
X0019974Y0026944D01*
X0020132Y0026960D01*
X0020289Y0026972D01*
X0020448Y0026980D01*
X0020606Y0026984D01*
X0020764Y0026984D01*
X0020922Y0026980D01*
X0021081Y0026972D01*
X0021238Y0026960D01*
X0021396Y0026944D01*
X0021553Y0026924D01*
X0021709Y0026900D01*
X0021865Y0026872D01*
X0022020Y0026841D01*
X0022175Y0026805D01*
X0022328Y0026766D01*
X0022480Y0026723D01*
X0022631Y0026676D01*
X0022781Y0026625D01*
X0022930Y0026570D01*
X0023077Y0026512D01*
X0023223Y0026450D01*
X0023367Y0026385D01*
X0023509Y0026315D01*
X0023650Y0026243D01*
X0023789Y0026166D01*
X0023925Y0026087D01*
X0024060Y0026003D01*
X0024193Y0025917D01*
X0024323Y0025827D01*
X0024451Y0025734D01*
X0024577Y0025638D01*
X0024700Y0025538D01*
X0024821Y0025436D01*
X0024939Y0025331D01*
X0025054Y0025222D01*
X0025167Y0025111D01*
X0025277Y0024997D01*
X0025384Y0024880D01*
X0025488Y0024761D01*
X0025589Y0024639D01*
X0025686Y0024514D01*
X0025781Y0024387D01*
X0025872Y0024258D01*
X0025961Y0024127D01*
X0026045Y0023993D01*
X0026127Y0023857D01*
X0026205Y0023720D01*
X0026279Y0023580D01*
X0026350Y0023438D01*
X0026418Y0023295D01*
X0026482Y0023150D01*
X0026542Y0023004D01*
X0026598Y0022856D01*
X0026651Y0022707D01*
X0026700Y0022556D01*
X0026745Y0022404D01*
X0026786Y0022251D01*
X0026824Y0022098D01*
X0026857Y0021943D01*
X0026887Y0021787D01*
X0026913Y0021631D01*
X0026934Y0021474D01*
X0026952Y0021317D01*
X0026966Y0021159D01*
X0026976Y0021001D01*
X0026982Y0020843D01*
X0026984Y0020685D01*
X0026982Y0020527D01*
X0026976Y0020369D01*
X0026966Y0020211D01*
X0026952Y0020053D01*
X0026934Y0019896D01*
X0026913Y0019739D01*
X0026887Y0019583D01*
X0026857Y0019427D01*
X0026824Y0019272D01*
X0026786Y0019119D01*
X0026745Y0018966D01*
X0026700Y0018814D01*
X0026651Y0018663D01*
X0026598Y0018514D01*
X0026542Y0018366D01*
X0026482Y0018220D01*
X0026418Y0018075D01*
X0026350Y0017932D01*
X0026279Y0017790D01*
X0026205Y0017650D01*
X0026127Y0017513D01*
X0026045Y0017377D01*
X0025961Y0017243D01*
X0025872Y0017112D01*
X0025781Y0016983D01*
X0025686Y0016856D01*
X0025589Y0016731D01*
X0025488Y0016609D01*
X0025384Y0016490D01*
X0025277Y0016373D01*
X0025167Y0016259D01*
X0025054Y0016148D01*
X0024939Y0016039D01*
X0024821Y0015934D01*
X0024700Y0015832D01*
X0024577Y0015732D01*
X0024451Y0015636D01*
X0024323Y0015543D01*
X0024193Y0015453D01*
X0024060Y0015367D01*
X0023925Y0015283D01*
X0023789Y0015204D01*
X0023650Y0015127D01*
X0023509Y0015055D01*
X0023367Y0014985D01*
X0023223Y0014920D01*
X0023077Y0014858D01*
X0022930Y0014800D01*
X0022781Y0014745D01*
X0022631Y0014694D01*
X0022480Y0014647D01*
X0022328Y0014604D01*
X0022175Y0014565D01*
X0022020Y0014529D01*
X0021865Y0014498D01*
X0021709Y0014470D01*
X0021553Y0014446D01*
X0021396Y0014426D01*
X0021238Y0014410D01*
X0021081Y0014398D01*
X0020922Y0014390D01*
X0020764Y0014386D01*
X0020606Y0014386D01*
X0020448Y0014390D01*
X0020289Y0014398D01*
X0020132Y0014410D01*
X0019974Y0014426D01*
X0019817Y0014446D01*
X0019661Y0014470D01*
X0019505Y0014498D01*
X0019350Y0014529D01*
X0019195Y0014565D01*
X0019042Y0014604D01*
X0018890Y0014647D01*
X0018739Y0014694D01*
X0018589Y0014745D01*
X0018440Y0014800D01*
X0018293Y0014858D01*
X0018147Y0014920D01*
X0018003Y0014985D01*
X0017861Y0015055D01*
X0017720Y0015127D01*
X0017581Y0015204D01*
X0017445Y0015283D01*
X0017310Y0015367D01*
X0017177Y0015453D01*
X0017047Y0015543D01*
X0016919Y0015636D01*
X0016793Y0015732D01*
X0016670Y0015832D01*
X0016549Y0015934D01*
X0016431Y0016039D01*
X0016316Y0016148D01*
X0016203Y0016259D01*
X0016093Y0016373D01*
X0015986Y0016490D01*
X0015882Y0016609D01*
X0015781Y0016731D01*
X0015684Y0016856D01*
X0015589Y0016983D01*
X0015498Y0017112D01*
X0015409Y0017243D01*
X0015325Y0017377D01*
X0015243Y0017513D01*
X0015165Y0017650D01*
X0015091Y0017790D01*
X0015020Y0017932D01*
X0014952Y0018075D01*
X0014888Y0018220D01*
X0014828Y0018366D01*
X0014772Y0018514D01*
X0014719Y0018663D01*
X0014670Y0018814D01*
X0014625Y0018966D01*
X0014584Y0019119D01*
X0014546Y0019272D01*
X0014513Y0019427D01*
X0014483Y0019583D01*
X0014457Y0019739D01*
X0014436Y0019896D01*
X0014418Y0020053D01*
X0014404Y0020211D01*
X0014394Y0020369D01*
X0014388Y0020527D01*
X0014386Y0020685D01*
X0282103Y0111236D02*
X0282105Y0111394D01*
X0282111Y0111552D01*
X0282121Y0111710D01*
X0282135Y0111868D01*
X0282153Y0112025D01*
X0282174Y0112182D01*
X0282200Y0112338D01*
X0282230Y0112494D01*
X0282263Y0112649D01*
X0282301Y0112802D01*
X0282342Y0112955D01*
X0282387Y0113107D01*
X0282436Y0113258D01*
X0282489Y0113407D01*
X0282545Y0113555D01*
X0282605Y0113701D01*
X0282669Y0113846D01*
X0282737Y0113989D01*
X0282808Y0114131D01*
X0282882Y0114271D01*
X0282960Y0114408D01*
X0283042Y0114544D01*
X0283126Y0114678D01*
X0283215Y0114809D01*
X0283306Y0114938D01*
X0283401Y0115065D01*
X0283498Y0115190D01*
X0283599Y0115312D01*
X0283703Y0115431D01*
X0283810Y0115548D01*
X0283920Y0115662D01*
X0284033Y0115773D01*
X0284148Y0115882D01*
X0284266Y0115987D01*
X0284387Y0116089D01*
X0284510Y0116189D01*
X0284636Y0116285D01*
X0284764Y0116378D01*
X0284894Y0116468D01*
X0285027Y0116554D01*
X0285162Y0116638D01*
X0285298Y0116717D01*
X0285437Y0116794D01*
X0285578Y0116866D01*
X0285720Y0116936D01*
X0285864Y0117001D01*
X0286010Y0117063D01*
X0286157Y0117121D01*
X0286306Y0117176D01*
X0286456Y0117227D01*
X0286607Y0117274D01*
X0286759Y0117317D01*
X0286912Y0117356D01*
X0287067Y0117392D01*
X0287222Y0117423D01*
X0287378Y0117451D01*
X0287534Y0117475D01*
X0287691Y0117495D01*
X0287849Y0117511D01*
X0288006Y0117523D01*
X0288165Y0117531D01*
X0288323Y0117535D01*
X0288481Y0117535D01*
X0288639Y0117531D01*
X0288798Y0117523D01*
X0288955Y0117511D01*
X0289113Y0117495D01*
X0289270Y0117475D01*
X0289426Y0117451D01*
X0289582Y0117423D01*
X0289737Y0117392D01*
X0289892Y0117356D01*
X0290045Y0117317D01*
X0290197Y0117274D01*
X0290348Y0117227D01*
X0290498Y0117176D01*
X0290647Y0117121D01*
X0290794Y0117063D01*
X0290940Y0117001D01*
X0291084Y0116936D01*
X0291226Y0116866D01*
X0291367Y0116794D01*
X0291506Y0116717D01*
X0291642Y0116638D01*
X0291777Y0116554D01*
X0291910Y0116468D01*
X0292040Y0116378D01*
X0292168Y0116285D01*
X0292294Y0116189D01*
X0292417Y0116089D01*
X0292538Y0115987D01*
X0292656Y0115882D01*
X0292771Y0115773D01*
X0292884Y0115662D01*
X0292994Y0115548D01*
X0293101Y0115431D01*
X0293205Y0115312D01*
X0293306Y0115190D01*
X0293403Y0115065D01*
X0293498Y0114938D01*
X0293589Y0114809D01*
X0293678Y0114678D01*
X0293762Y0114544D01*
X0293844Y0114408D01*
X0293922Y0114271D01*
X0293996Y0114131D01*
X0294067Y0113989D01*
X0294135Y0113846D01*
X0294199Y0113701D01*
X0294259Y0113555D01*
X0294315Y0113407D01*
X0294368Y0113258D01*
X0294417Y0113107D01*
X0294462Y0112955D01*
X0294503Y0112802D01*
X0294541Y0112649D01*
X0294574Y0112494D01*
X0294604Y0112338D01*
X0294630Y0112182D01*
X0294651Y0112025D01*
X0294669Y0111868D01*
X0294683Y0111710D01*
X0294693Y0111552D01*
X0294699Y0111394D01*
X0294701Y0111236D01*
X0294699Y0111078D01*
X0294693Y0110920D01*
X0294683Y0110762D01*
X0294669Y0110604D01*
X0294651Y0110447D01*
X0294630Y0110290D01*
X0294604Y0110134D01*
X0294574Y0109978D01*
X0294541Y0109823D01*
X0294503Y0109670D01*
X0294462Y0109517D01*
X0294417Y0109365D01*
X0294368Y0109214D01*
X0294315Y0109065D01*
X0294259Y0108917D01*
X0294199Y0108771D01*
X0294135Y0108626D01*
X0294067Y0108483D01*
X0293996Y0108341D01*
X0293922Y0108201D01*
X0293844Y0108064D01*
X0293762Y0107928D01*
X0293678Y0107794D01*
X0293589Y0107663D01*
X0293498Y0107534D01*
X0293403Y0107407D01*
X0293306Y0107282D01*
X0293205Y0107160D01*
X0293101Y0107041D01*
X0292994Y0106924D01*
X0292884Y0106810D01*
X0292771Y0106699D01*
X0292656Y0106590D01*
X0292538Y0106485D01*
X0292417Y0106383D01*
X0292294Y0106283D01*
X0292168Y0106187D01*
X0292040Y0106094D01*
X0291910Y0106004D01*
X0291777Y0105918D01*
X0291642Y0105834D01*
X0291506Y0105755D01*
X0291367Y0105678D01*
X0291226Y0105606D01*
X0291084Y0105536D01*
X0290940Y0105471D01*
X0290794Y0105409D01*
X0290647Y0105351D01*
X0290498Y0105296D01*
X0290348Y0105245D01*
X0290197Y0105198D01*
X0290045Y0105155D01*
X0289892Y0105116D01*
X0289737Y0105080D01*
X0289582Y0105049D01*
X0289426Y0105021D01*
X0289270Y0104997D01*
X0289113Y0104977D01*
X0288955Y0104961D01*
X0288798Y0104949D01*
X0288639Y0104941D01*
X0288481Y0104937D01*
X0288323Y0104937D01*
X0288165Y0104941D01*
X0288006Y0104949D01*
X0287849Y0104961D01*
X0287691Y0104977D01*
X0287534Y0104997D01*
X0287378Y0105021D01*
X0287222Y0105049D01*
X0287067Y0105080D01*
X0286912Y0105116D01*
X0286759Y0105155D01*
X0286607Y0105198D01*
X0286456Y0105245D01*
X0286306Y0105296D01*
X0286157Y0105351D01*
X0286010Y0105409D01*
X0285864Y0105471D01*
X0285720Y0105536D01*
X0285578Y0105606D01*
X0285437Y0105678D01*
X0285298Y0105755D01*
X0285162Y0105834D01*
X0285027Y0105918D01*
X0284894Y0106004D01*
X0284764Y0106094D01*
X0284636Y0106187D01*
X0284510Y0106283D01*
X0284387Y0106383D01*
X0284266Y0106485D01*
X0284148Y0106590D01*
X0284033Y0106699D01*
X0283920Y0106810D01*
X0283810Y0106924D01*
X0283703Y0107041D01*
X0283599Y0107160D01*
X0283498Y0107282D01*
X0283401Y0107407D01*
X0283306Y0107534D01*
X0283215Y0107663D01*
X0283126Y0107794D01*
X0283042Y0107928D01*
X0282960Y0108064D01*
X0282882Y0108201D01*
X0282808Y0108341D01*
X0282737Y0108483D01*
X0282669Y0108626D01*
X0282605Y0108771D01*
X0282545Y0108917D01*
X0282489Y0109065D01*
X0282436Y0109214D01*
X0282387Y0109365D01*
X0282342Y0109517D01*
X0282301Y0109670D01*
X0282263Y0109823D01*
X0282230Y0109978D01*
X0282200Y0110134D01*
X0282174Y0110290D01*
X0282153Y0110447D01*
X0282135Y0110604D01*
X0282121Y0110762D01*
X0282111Y0110920D01*
X0282105Y0111078D01*
X0282103Y0111236D01*
X0282103Y0205724D02*
X0282105Y0205882D01*
X0282111Y0206040D01*
X0282121Y0206198D01*
X0282135Y0206356D01*
X0282153Y0206513D01*
X0282174Y0206670D01*
X0282200Y0206826D01*
X0282230Y0206982D01*
X0282263Y0207137D01*
X0282301Y0207290D01*
X0282342Y0207443D01*
X0282387Y0207595D01*
X0282436Y0207746D01*
X0282489Y0207895D01*
X0282545Y0208043D01*
X0282605Y0208189D01*
X0282669Y0208334D01*
X0282737Y0208477D01*
X0282808Y0208619D01*
X0282882Y0208759D01*
X0282960Y0208896D01*
X0283042Y0209032D01*
X0283126Y0209166D01*
X0283215Y0209297D01*
X0283306Y0209426D01*
X0283401Y0209553D01*
X0283498Y0209678D01*
X0283599Y0209800D01*
X0283703Y0209919D01*
X0283810Y0210036D01*
X0283920Y0210150D01*
X0284033Y0210261D01*
X0284148Y0210370D01*
X0284266Y0210475D01*
X0284387Y0210577D01*
X0284510Y0210677D01*
X0284636Y0210773D01*
X0284764Y0210866D01*
X0284894Y0210956D01*
X0285027Y0211042D01*
X0285162Y0211126D01*
X0285298Y0211205D01*
X0285437Y0211282D01*
X0285578Y0211354D01*
X0285720Y0211424D01*
X0285864Y0211489D01*
X0286010Y0211551D01*
X0286157Y0211609D01*
X0286306Y0211664D01*
X0286456Y0211715D01*
X0286607Y0211762D01*
X0286759Y0211805D01*
X0286912Y0211844D01*
X0287067Y0211880D01*
X0287222Y0211911D01*
X0287378Y0211939D01*
X0287534Y0211963D01*
X0287691Y0211983D01*
X0287849Y0211999D01*
X0288006Y0212011D01*
X0288165Y0212019D01*
X0288323Y0212023D01*
X0288481Y0212023D01*
X0288639Y0212019D01*
X0288798Y0212011D01*
X0288955Y0211999D01*
X0289113Y0211983D01*
X0289270Y0211963D01*
X0289426Y0211939D01*
X0289582Y0211911D01*
X0289737Y0211880D01*
X0289892Y0211844D01*
X0290045Y0211805D01*
X0290197Y0211762D01*
X0290348Y0211715D01*
X0290498Y0211664D01*
X0290647Y0211609D01*
X0290794Y0211551D01*
X0290940Y0211489D01*
X0291084Y0211424D01*
X0291226Y0211354D01*
X0291367Y0211282D01*
X0291506Y0211205D01*
X0291642Y0211126D01*
X0291777Y0211042D01*
X0291910Y0210956D01*
X0292040Y0210866D01*
X0292168Y0210773D01*
X0292294Y0210677D01*
X0292417Y0210577D01*
X0292538Y0210475D01*
X0292656Y0210370D01*
X0292771Y0210261D01*
X0292884Y0210150D01*
X0292994Y0210036D01*
X0293101Y0209919D01*
X0293205Y0209800D01*
X0293306Y0209678D01*
X0293403Y0209553D01*
X0293498Y0209426D01*
X0293589Y0209297D01*
X0293678Y0209166D01*
X0293762Y0209032D01*
X0293844Y0208896D01*
X0293922Y0208759D01*
X0293996Y0208619D01*
X0294067Y0208477D01*
X0294135Y0208334D01*
X0294199Y0208189D01*
X0294259Y0208043D01*
X0294315Y0207895D01*
X0294368Y0207746D01*
X0294417Y0207595D01*
X0294462Y0207443D01*
X0294503Y0207290D01*
X0294541Y0207137D01*
X0294574Y0206982D01*
X0294604Y0206826D01*
X0294630Y0206670D01*
X0294651Y0206513D01*
X0294669Y0206356D01*
X0294683Y0206198D01*
X0294693Y0206040D01*
X0294699Y0205882D01*
X0294701Y0205724D01*
X0294699Y0205566D01*
X0294693Y0205408D01*
X0294683Y0205250D01*
X0294669Y0205092D01*
X0294651Y0204935D01*
X0294630Y0204778D01*
X0294604Y0204622D01*
X0294574Y0204466D01*
X0294541Y0204311D01*
X0294503Y0204158D01*
X0294462Y0204005D01*
X0294417Y0203853D01*
X0294368Y0203702D01*
X0294315Y0203553D01*
X0294259Y0203405D01*
X0294199Y0203259D01*
X0294135Y0203114D01*
X0294067Y0202971D01*
X0293996Y0202829D01*
X0293922Y0202689D01*
X0293844Y0202552D01*
X0293762Y0202416D01*
X0293678Y0202282D01*
X0293589Y0202151D01*
X0293498Y0202022D01*
X0293403Y0201895D01*
X0293306Y0201770D01*
X0293205Y0201648D01*
X0293101Y0201529D01*
X0292994Y0201412D01*
X0292884Y0201298D01*
X0292771Y0201187D01*
X0292656Y0201078D01*
X0292538Y0200973D01*
X0292417Y0200871D01*
X0292294Y0200771D01*
X0292168Y0200675D01*
X0292040Y0200582D01*
X0291910Y0200492D01*
X0291777Y0200406D01*
X0291642Y0200322D01*
X0291506Y0200243D01*
X0291367Y0200166D01*
X0291226Y0200094D01*
X0291084Y0200024D01*
X0290940Y0199959D01*
X0290794Y0199897D01*
X0290647Y0199839D01*
X0290498Y0199784D01*
X0290348Y0199733D01*
X0290197Y0199686D01*
X0290045Y0199643D01*
X0289892Y0199604D01*
X0289737Y0199568D01*
X0289582Y0199537D01*
X0289426Y0199509D01*
X0289270Y0199485D01*
X0289113Y0199465D01*
X0288955Y0199449D01*
X0288798Y0199437D01*
X0288639Y0199429D01*
X0288481Y0199425D01*
X0288323Y0199425D01*
X0288165Y0199429D01*
X0288006Y0199437D01*
X0287849Y0199449D01*
X0287691Y0199465D01*
X0287534Y0199485D01*
X0287378Y0199509D01*
X0287222Y0199537D01*
X0287067Y0199568D01*
X0286912Y0199604D01*
X0286759Y0199643D01*
X0286607Y0199686D01*
X0286456Y0199733D01*
X0286306Y0199784D01*
X0286157Y0199839D01*
X0286010Y0199897D01*
X0285864Y0199959D01*
X0285720Y0200024D01*
X0285578Y0200094D01*
X0285437Y0200166D01*
X0285298Y0200243D01*
X0285162Y0200322D01*
X0285027Y0200406D01*
X0284894Y0200492D01*
X0284764Y0200582D01*
X0284636Y0200675D01*
X0284510Y0200771D01*
X0284387Y0200871D01*
X0284266Y0200973D01*
X0284148Y0201078D01*
X0284033Y0201187D01*
X0283920Y0201298D01*
X0283810Y0201412D01*
X0283703Y0201529D01*
X0283599Y0201648D01*
X0283498Y0201770D01*
X0283401Y0201895D01*
X0283306Y0202022D01*
X0283215Y0202151D01*
X0283126Y0202282D01*
X0283042Y0202416D01*
X0282960Y0202552D01*
X0282882Y0202689D01*
X0282808Y0202829D01*
X0282737Y0202971D01*
X0282669Y0203114D01*
X0282605Y0203259D01*
X0282545Y0203405D01*
X0282489Y0203553D01*
X0282436Y0203702D01*
X0282387Y0203853D01*
X0282342Y0204005D01*
X0282301Y0204158D01*
X0282263Y0204311D01*
X0282230Y0204466D01*
X0282200Y0204622D01*
X0282174Y0204778D01*
X0282153Y0204935D01*
X0282135Y0205092D01*
X0282121Y0205250D01*
X0282111Y0205408D01*
X0282105Y0205566D01*
X0282103Y0205724D01*
X0526197Y0205724D02*
X0526199Y0205882D01*
X0526205Y0206040D01*
X0526215Y0206198D01*
X0526229Y0206356D01*
X0526247Y0206513D01*
X0526268Y0206670D01*
X0526294Y0206826D01*
X0526324Y0206982D01*
X0526357Y0207137D01*
X0526395Y0207290D01*
X0526436Y0207443D01*
X0526481Y0207595D01*
X0526530Y0207746D01*
X0526583Y0207895D01*
X0526639Y0208043D01*
X0526699Y0208189D01*
X0526763Y0208334D01*
X0526831Y0208477D01*
X0526902Y0208619D01*
X0526976Y0208759D01*
X0527054Y0208896D01*
X0527136Y0209032D01*
X0527220Y0209166D01*
X0527309Y0209297D01*
X0527400Y0209426D01*
X0527495Y0209553D01*
X0527592Y0209678D01*
X0527693Y0209800D01*
X0527797Y0209919D01*
X0527904Y0210036D01*
X0528014Y0210150D01*
X0528127Y0210261D01*
X0528242Y0210370D01*
X0528360Y0210475D01*
X0528481Y0210577D01*
X0528604Y0210677D01*
X0528730Y0210773D01*
X0528858Y0210866D01*
X0528988Y0210956D01*
X0529121Y0211042D01*
X0529256Y0211126D01*
X0529392Y0211205D01*
X0529531Y0211282D01*
X0529672Y0211354D01*
X0529814Y0211424D01*
X0529958Y0211489D01*
X0530104Y0211551D01*
X0530251Y0211609D01*
X0530400Y0211664D01*
X0530550Y0211715D01*
X0530701Y0211762D01*
X0530853Y0211805D01*
X0531006Y0211844D01*
X0531161Y0211880D01*
X0531316Y0211911D01*
X0531472Y0211939D01*
X0531628Y0211963D01*
X0531785Y0211983D01*
X0531943Y0211999D01*
X0532100Y0212011D01*
X0532259Y0212019D01*
X0532417Y0212023D01*
X0532575Y0212023D01*
X0532733Y0212019D01*
X0532892Y0212011D01*
X0533049Y0211999D01*
X0533207Y0211983D01*
X0533364Y0211963D01*
X0533520Y0211939D01*
X0533676Y0211911D01*
X0533831Y0211880D01*
X0533986Y0211844D01*
X0534139Y0211805D01*
X0534291Y0211762D01*
X0534442Y0211715D01*
X0534592Y0211664D01*
X0534741Y0211609D01*
X0534888Y0211551D01*
X0535034Y0211489D01*
X0535178Y0211424D01*
X0535320Y0211354D01*
X0535461Y0211282D01*
X0535600Y0211205D01*
X0535736Y0211126D01*
X0535871Y0211042D01*
X0536004Y0210956D01*
X0536134Y0210866D01*
X0536262Y0210773D01*
X0536388Y0210677D01*
X0536511Y0210577D01*
X0536632Y0210475D01*
X0536750Y0210370D01*
X0536865Y0210261D01*
X0536978Y0210150D01*
X0537088Y0210036D01*
X0537195Y0209919D01*
X0537299Y0209800D01*
X0537400Y0209678D01*
X0537497Y0209553D01*
X0537592Y0209426D01*
X0537683Y0209297D01*
X0537772Y0209166D01*
X0537856Y0209032D01*
X0537938Y0208896D01*
X0538016Y0208759D01*
X0538090Y0208619D01*
X0538161Y0208477D01*
X0538229Y0208334D01*
X0538293Y0208189D01*
X0538353Y0208043D01*
X0538409Y0207895D01*
X0538462Y0207746D01*
X0538511Y0207595D01*
X0538556Y0207443D01*
X0538597Y0207290D01*
X0538635Y0207137D01*
X0538668Y0206982D01*
X0538698Y0206826D01*
X0538724Y0206670D01*
X0538745Y0206513D01*
X0538763Y0206356D01*
X0538777Y0206198D01*
X0538787Y0206040D01*
X0538793Y0205882D01*
X0538795Y0205724D01*
X0538793Y0205566D01*
X0538787Y0205408D01*
X0538777Y0205250D01*
X0538763Y0205092D01*
X0538745Y0204935D01*
X0538724Y0204778D01*
X0538698Y0204622D01*
X0538668Y0204466D01*
X0538635Y0204311D01*
X0538597Y0204158D01*
X0538556Y0204005D01*
X0538511Y0203853D01*
X0538462Y0203702D01*
X0538409Y0203553D01*
X0538353Y0203405D01*
X0538293Y0203259D01*
X0538229Y0203114D01*
X0538161Y0202971D01*
X0538090Y0202829D01*
X0538016Y0202689D01*
X0537938Y0202552D01*
X0537856Y0202416D01*
X0537772Y0202282D01*
X0537683Y0202151D01*
X0537592Y0202022D01*
X0537497Y0201895D01*
X0537400Y0201770D01*
X0537299Y0201648D01*
X0537195Y0201529D01*
X0537088Y0201412D01*
X0536978Y0201298D01*
X0536865Y0201187D01*
X0536750Y0201078D01*
X0536632Y0200973D01*
X0536511Y0200871D01*
X0536388Y0200771D01*
X0536262Y0200675D01*
X0536134Y0200582D01*
X0536004Y0200492D01*
X0535871Y0200406D01*
X0535736Y0200322D01*
X0535600Y0200243D01*
X0535461Y0200166D01*
X0535320Y0200094D01*
X0535178Y0200024D01*
X0535034Y0199959D01*
X0534888Y0199897D01*
X0534741Y0199839D01*
X0534592Y0199784D01*
X0534442Y0199733D01*
X0534291Y0199686D01*
X0534139Y0199643D01*
X0533986Y0199604D01*
X0533831Y0199568D01*
X0533676Y0199537D01*
X0533520Y0199509D01*
X0533364Y0199485D01*
X0533207Y0199465D01*
X0533049Y0199449D01*
X0532892Y0199437D01*
X0532733Y0199429D01*
X0532575Y0199425D01*
X0532417Y0199425D01*
X0532259Y0199429D01*
X0532100Y0199437D01*
X0531943Y0199449D01*
X0531785Y0199465D01*
X0531628Y0199485D01*
X0531472Y0199509D01*
X0531316Y0199537D01*
X0531161Y0199568D01*
X0531006Y0199604D01*
X0530853Y0199643D01*
X0530701Y0199686D01*
X0530550Y0199733D01*
X0530400Y0199784D01*
X0530251Y0199839D01*
X0530104Y0199897D01*
X0529958Y0199959D01*
X0529814Y0200024D01*
X0529672Y0200094D01*
X0529531Y0200166D01*
X0529392Y0200243D01*
X0529256Y0200322D01*
X0529121Y0200406D01*
X0528988Y0200492D01*
X0528858Y0200582D01*
X0528730Y0200675D01*
X0528604Y0200771D01*
X0528481Y0200871D01*
X0528360Y0200973D01*
X0528242Y0201078D01*
X0528127Y0201187D01*
X0528014Y0201298D01*
X0527904Y0201412D01*
X0527797Y0201529D01*
X0527693Y0201648D01*
X0527592Y0201770D01*
X0527495Y0201895D01*
X0527400Y0202022D01*
X0527309Y0202151D01*
X0527220Y0202282D01*
X0527136Y0202416D01*
X0527054Y0202552D01*
X0526976Y0202689D01*
X0526902Y0202829D01*
X0526831Y0202971D01*
X0526763Y0203114D01*
X0526699Y0203259D01*
X0526639Y0203405D01*
X0526583Y0203553D01*
X0526530Y0203702D01*
X0526481Y0203853D01*
X0526436Y0204005D01*
X0526395Y0204158D01*
X0526357Y0204311D01*
X0526324Y0204466D01*
X0526294Y0204622D01*
X0526268Y0204778D01*
X0526247Y0204935D01*
X0526229Y0205092D01*
X0526215Y0205250D01*
X0526205Y0205408D01*
X0526199Y0205566D01*
X0526197Y0205724D01*
X0663992Y0237220D02*
X0663994Y0237378D01*
X0664000Y0237536D01*
X0664010Y0237694D01*
X0664024Y0237852D01*
X0664042Y0238009D01*
X0664063Y0238166D01*
X0664089Y0238322D01*
X0664119Y0238478D01*
X0664152Y0238633D01*
X0664190Y0238786D01*
X0664231Y0238939D01*
X0664276Y0239091D01*
X0664325Y0239242D01*
X0664378Y0239391D01*
X0664434Y0239539D01*
X0664494Y0239685D01*
X0664558Y0239830D01*
X0664626Y0239973D01*
X0664697Y0240115D01*
X0664771Y0240255D01*
X0664849Y0240392D01*
X0664931Y0240528D01*
X0665015Y0240662D01*
X0665104Y0240793D01*
X0665195Y0240922D01*
X0665290Y0241049D01*
X0665387Y0241174D01*
X0665488Y0241296D01*
X0665592Y0241415D01*
X0665699Y0241532D01*
X0665809Y0241646D01*
X0665922Y0241757D01*
X0666037Y0241866D01*
X0666155Y0241971D01*
X0666276Y0242073D01*
X0666399Y0242173D01*
X0666525Y0242269D01*
X0666653Y0242362D01*
X0666783Y0242452D01*
X0666916Y0242538D01*
X0667051Y0242622D01*
X0667187Y0242701D01*
X0667326Y0242778D01*
X0667467Y0242850D01*
X0667609Y0242920D01*
X0667753Y0242985D01*
X0667899Y0243047D01*
X0668046Y0243105D01*
X0668195Y0243160D01*
X0668345Y0243211D01*
X0668496Y0243258D01*
X0668648Y0243301D01*
X0668801Y0243340D01*
X0668956Y0243376D01*
X0669111Y0243407D01*
X0669267Y0243435D01*
X0669423Y0243459D01*
X0669580Y0243479D01*
X0669738Y0243495D01*
X0669895Y0243507D01*
X0670054Y0243515D01*
X0670212Y0243519D01*
X0670370Y0243519D01*
X0670528Y0243515D01*
X0670687Y0243507D01*
X0670844Y0243495D01*
X0671002Y0243479D01*
X0671159Y0243459D01*
X0671315Y0243435D01*
X0671471Y0243407D01*
X0671626Y0243376D01*
X0671781Y0243340D01*
X0671934Y0243301D01*
X0672086Y0243258D01*
X0672237Y0243211D01*
X0672387Y0243160D01*
X0672536Y0243105D01*
X0672683Y0243047D01*
X0672829Y0242985D01*
X0672973Y0242920D01*
X0673115Y0242850D01*
X0673256Y0242778D01*
X0673395Y0242701D01*
X0673531Y0242622D01*
X0673666Y0242538D01*
X0673799Y0242452D01*
X0673929Y0242362D01*
X0674057Y0242269D01*
X0674183Y0242173D01*
X0674306Y0242073D01*
X0674427Y0241971D01*
X0674545Y0241866D01*
X0674660Y0241757D01*
X0674773Y0241646D01*
X0674883Y0241532D01*
X0674990Y0241415D01*
X0675094Y0241296D01*
X0675195Y0241174D01*
X0675292Y0241049D01*
X0675387Y0240922D01*
X0675478Y0240793D01*
X0675567Y0240662D01*
X0675651Y0240528D01*
X0675733Y0240392D01*
X0675811Y0240255D01*
X0675885Y0240115D01*
X0675956Y0239973D01*
X0676024Y0239830D01*
X0676088Y0239685D01*
X0676148Y0239539D01*
X0676204Y0239391D01*
X0676257Y0239242D01*
X0676306Y0239091D01*
X0676351Y0238939D01*
X0676392Y0238786D01*
X0676430Y0238633D01*
X0676463Y0238478D01*
X0676493Y0238322D01*
X0676519Y0238166D01*
X0676540Y0238009D01*
X0676558Y0237852D01*
X0676572Y0237694D01*
X0676582Y0237536D01*
X0676588Y0237378D01*
X0676590Y0237220D01*
X0676588Y0237062D01*
X0676582Y0236904D01*
X0676572Y0236746D01*
X0676558Y0236588D01*
X0676540Y0236431D01*
X0676519Y0236274D01*
X0676493Y0236118D01*
X0676463Y0235962D01*
X0676430Y0235807D01*
X0676392Y0235654D01*
X0676351Y0235501D01*
X0676306Y0235349D01*
X0676257Y0235198D01*
X0676204Y0235049D01*
X0676148Y0234901D01*
X0676088Y0234755D01*
X0676024Y0234610D01*
X0675956Y0234467D01*
X0675885Y0234325D01*
X0675811Y0234185D01*
X0675733Y0234048D01*
X0675651Y0233912D01*
X0675567Y0233778D01*
X0675478Y0233647D01*
X0675387Y0233518D01*
X0675292Y0233391D01*
X0675195Y0233266D01*
X0675094Y0233144D01*
X0674990Y0233025D01*
X0674883Y0232908D01*
X0674773Y0232794D01*
X0674660Y0232683D01*
X0674545Y0232574D01*
X0674427Y0232469D01*
X0674306Y0232367D01*
X0674183Y0232267D01*
X0674057Y0232171D01*
X0673929Y0232078D01*
X0673799Y0231988D01*
X0673666Y0231902D01*
X0673531Y0231818D01*
X0673395Y0231739D01*
X0673256Y0231662D01*
X0673115Y0231590D01*
X0672973Y0231520D01*
X0672829Y0231455D01*
X0672683Y0231393D01*
X0672536Y0231335D01*
X0672387Y0231280D01*
X0672237Y0231229D01*
X0672086Y0231182D01*
X0671934Y0231139D01*
X0671781Y0231100D01*
X0671626Y0231064D01*
X0671471Y0231033D01*
X0671315Y0231005D01*
X0671159Y0230981D01*
X0671002Y0230961D01*
X0670844Y0230945D01*
X0670687Y0230933D01*
X0670528Y0230925D01*
X0670370Y0230921D01*
X0670212Y0230921D01*
X0670054Y0230925D01*
X0669895Y0230933D01*
X0669738Y0230945D01*
X0669580Y0230961D01*
X0669423Y0230981D01*
X0669267Y0231005D01*
X0669111Y0231033D01*
X0668956Y0231064D01*
X0668801Y0231100D01*
X0668648Y0231139D01*
X0668496Y0231182D01*
X0668345Y0231229D01*
X0668195Y0231280D01*
X0668046Y0231335D01*
X0667899Y0231393D01*
X0667753Y0231455D01*
X0667609Y0231520D01*
X0667467Y0231590D01*
X0667326Y0231662D01*
X0667187Y0231739D01*
X0667051Y0231818D01*
X0666916Y0231902D01*
X0666783Y0231988D01*
X0666653Y0232078D01*
X0666525Y0232171D01*
X0666399Y0232267D01*
X0666276Y0232367D01*
X0666155Y0232469D01*
X0666037Y0232574D01*
X0665922Y0232683D01*
X0665809Y0232794D01*
X0665699Y0232908D01*
X0665592Y0233025D01*
X0665488Y0233144D01*
X0665387Y0233266D01*
X0665290Y0233391D01*
X0665195Y0233518D01*
X0665104Y0233647D01*
X0665015Y0233778D01*
X0664931Y0233912D01*
X0664849Y0234048D01*
X0664771Y0234185D01*
X0664697Y0234325D01*
X0664626Y0234467D01*
X0664558Y0234610D01*
X0664494Y0234755D01*
X0664434Y0234901D01*
X0664378Y0235049D01*
X0664325Y0235198D01*
X0664276Y0235349D01*
X0664231Y0235501D01*
X0664190Y0235654D01*
X0664152Y0235807D01*
X0664119Y0235962D01*
X0664089Y0236118D01*
X0664063Y0236274D01*
X0664042Y0236431D01*
X0664024Y0236588D01*
X0664010Y0236746D01*
X0664000Y0236904D01*
X0663994Y0237062D01*
X0663992Y0237220D01*
X0526197Y0111236D02*
X0526199Y0111394D01*
X0526205Y0111552D01*
X0526215Y0111710D01*
X0526229Y0111868D01*
X0526247Y0112025D01*
X0526268Y0112182D01*
X0526294Y0112338D01*
X0526324Y0112494D01*
X0526357Y0112649D01*
X0526395Y0112802D01*
X0526436Y0112955D01*
X0526481Y0113107D01*
X0526530Y0113258D01*
X0526583Y0113407D01*
X0526639Y0113555D01*
X0526699Y0113701D01*
X0526763Y0113846D01*
X0526831Y0113989D01*
X0526902Y0114131D01*
X0526976Y0114271D01*
X0527054Y0114408D01*
X0527136Y0114544D01*
X0527220Y0114678D01*
X0527309Y0114809D01*
X0527400Y0114938D01*
X0527495Y0115065D01*
X0527592Y0115190D01*
X0527693Y0115312D01*
X0527797Y0115431D01*
X0527904Y0115548D01*
X0528014Y0115662D01*
X0528127Y0115773D01*
X0528242Y0115882D01*
X0528360Y0115987D01*
X0528481Y0116089D01*
X0528604Y0116189D01*
X0528730Y0116285D01*
X0528858Y0116378D01*
X0528988Y0116468D01*
X0529121Y0116554D01*
X0529256Y0116638D01*
X0529392Y0116717D01*
X0529531Y0116794D01*
X0529672Y0116866D01*
X0529814Y0116936D01*
X0529958Y0117001D01*
X0530104Y0117063D01*
X0530251Y0117121D01*
X0530400Y0117176D01*
X0530550Y0117227D01*
X0530701Y0117274D01*
X0530853Y0117317D01*
X0531006Y0117356D01*
X0531161Y0117392D01*
X0531316Y0117423D01*
X0531472Y0117451D01*
X0531628Y0117475D01*
X0531785Y0117495D01*
X0531943Y0117511D01*
X0532100Y0117523D01*
X0532259Y0117531D01*
X0532417Y0117535D01*
X0532575Y0117535D01*
X0532733Y0117531D01*
X0532892Y0117523D01*
X0533049Y0117511D01*
X0533207Y0117495D01*
X0533364Y0117475D01*
X0533520Y0117451D01*
X0533676Y0117423D01*
X0533831Y0117392D01*
X0533986Y0117356D01*
X0534139Y0117317D01*
X0534291Y0117274D01*
X0534442Y0117227D01*
X0534592Y0117176D01*
X0534741Y0117121D01*
X0534888Y0117063D01*
X0535034Y0117001D01*
X0535178Y0116936D01*
X0535320Y0116866D01*
X0535461Y0116794D01*
X0535600Y0116717D01*
X0535736Y0116638D01*
X0535871Y0116554D01*
X0536004Y0116468D01*
X0536134Y0116378D01*
X0536262Y0116285D01*
X0536388Y0116189D01*
X0536511Y0116089D01*
X0536632Y0115987D01*
X0536750Y0115882D01*
X0536865Y0115773D01*
X0536978Y0115662D01*
X0537088Y0115548D01*
X0537195Y0115431D01*
X0537299Y0115312D01*
X0537400Y0115190D01*
X0537497Y0115065D01*
X0537592Y0114938D01*
X0537683Y0114809D01*
X0537772Y0114678D01*
X0537856Y0114544D01*
X0537938Y0114408D01*
X0538016Y0114271D01*
X0538090Y0114131D01*
X0538161Y0113989D01*
X0538229Y0113846D01*
X0538293Y0113701D01*
X0538353Y0113555D01*
X0538409Y0113407D01*
X0538462Y0113258D01*
X0538511Y0113107D01*
X0538556Y0112955D01*
X0538597Y0112802D01*
X0538635Y0112649D01*
X0538668Y0112494D01*
X0538698Y0112338D01*
X0538724Y0112182D01*
X0538745Y0112025D01*
X0538763Y0111868D01*
X0538777Y0111710D01*
X0538787Y0111552D01*
X0538793Y0111394D01*
X0538795Y0111236D01*
X0538793Y0111078D01*
X0538787Y0110920D01*
X0538777Y0110762D01*
X0538763Y0110604D01*
X0538745Y0110447D01*
X0538724Y0110290D01*
X0538698Y0110134D01*
X0538668Y0109978D01*
X0538635Y0109823D01*
X0538597Y0109670D01*
X0538556Y0109517D01*
X0538511Y0109365D01*
X0538462Y0109214D01*
X0538409Y0109065D01*
X0538353Y0108917D01*
X0538293Y0108771D01*
X0538229Y0108626D01*
X0538161Y0108483D01*
X0538090Y0108341D01*
X0538016Y0108201D01*
X0537938Y0108064D01*
X0537856Y0107928D01*
X0537772Y0107794D01*
X0537683Y0107663D01*
X0537592Y0107534D01*
X0537497Y0107407D01*
X0537400Y0107282D01*
X0537299Y0107160D01*
X0537195Y0107041D01*
X0537088Y0106924D01*
X0536978Y0106810D01*
X0536865Y0106699D01*
X0536750Y0106590D01*
X0536632Y0106485D01*
X0536511Y0106383D01*
X0536388Y0106283D01*
X0536262Y0106187D01*
X0536134Y0106094D01*
X0536004Y0106004D01*
X0535871Y0105918D01*
X0535736Y0105834D01*
X0535600Y0105755D01*
X0535461Y0105678D01*
X0535320Y0105606D01*
X0535178Y0105536D01*
X0535034Y0105471D01*
X0534888Y0105409D01*
X0534741Y0105351D01*
X0534592Y0105296D01*
X0534442Y0105245D01*
X0534291Y0105198D01*
X0534139Y0105155D01*
X0533986Y0105116D01*
X0533831Y0105080D01*
X0533676Y0105049D01*
X0533520Y0105021D01*
X0533364Y0104997D01*
X0533207Y0104977D01*
X0533049Y0104961D01*
X0532892Y0104949D01*
X0532733Y0104941D01*
X0532575Y0104937D01*
X0532417Y0104937D01*
X0532259Y0104941D01*
X0532100Y0104949D01*
X0531943Y0104961D01*
X0531785Y0104977D01*
X0531628Y0104997D01*
X0531472Y0105021D01*
X0531316Y0105049D01*
X0531161Y0105080D01*
X0531006Y0105116D01*
X0530853Y0105155D01*
X0530701Y0105198D01*
X0530550Y0105245D01*
X0530400Y0105296D01*
X0530251Y0105351D01*
X0530104Y0105409D01*
X0529958Y0105471D01*
X0529814Y0105536D01*
X0529672Y0105606D01*
X0529531Y0105678D01*
X0529392Y0105755D01*
X0529256Y0105834D01*
X0529121Y0105918D01*
X0528988Y0106004D01*
X0528858Y0106094D01*
X0528730Y0106187D01*
X0528604Y0106283D01*
X0528481Y0106383D01*
X0528360Y0106485D01*
X0528242Y0106590D01*
X0528127Y0106699D01*
X0528014Y0106810D01*
X0527904Y0106924D01*
X0527797Y0107041D01*
X0527693Y0107160D01*
X0527592Y0107282D01*
X0527495Y0107407D01*
X0527400Y0107534D01*
X0527309Y0107663D01*
X0527220Y0107794D01*
X0527136Y0107928D01*
X0527054Y0108064D01*
X0526976Y0108201D01*
X0526902Y0108341D01*
X0526831Y0108483D01*
X0526763Y0108626D01*
X0526699Y0108771D01*
X0526639Y0108917D01*
X0526583Y0109065D01*
X0526530Y0109214D01*
X0526481Y0109365D01*
X0526436Y0109517D01*
X0526395Y0109670D01*
X0526357Y0109823D01*
X0526324Y0109978D01*
X0526294Y0110134D01*
X0526268Y0110290D01*
X0526247Y0110447D01*
X0526229Y0110604D01*
X0526215Y0110762D01*
X0526205Y0110920D01*
X0526199Y0111078D01*
X0526197Y0111236D01*
X0663992Y0020685D02*
X0663994Y0020843D01*
X0664000Y0021001D01*
X0664010Y0021159D01*
X0664024Y0021317D01*
X0664042Y0021474D01*
X0664063Y0021631D01*
X0664089Y0021787D01*
X0664119Y0021943D01*
X0664152Y0022098D01*
X0664190Y0022251D01*
X0664231Y0022404D01*
X0664276Y0022556D01*
X0664325Y0022707D01*
X0664378Y0022856D01*
X0664434Y0023004D01*
X0664494Y0023150D01*
X0664558Y0023295D01*
X0664626Y0023438D01*
X0664697Y0023580D01*
X0664771Y0023720D01*
X0664849Y0023857D01*
X0664931Y0023993D01*
X0665015Y0024127D01*
X0665104Y0024258D01*
X0665195Y0024387D01*
X0665290Y0024514D01*
X0665387Y0024639D01*
X0665488Y0024761D01*
X0665592Y0024880D01*
X0665699Y0024997D01*
X0665809Y0025111D01*
X0665922Y0025222D01*
X0666037Y0025331D01*
X0666155Y0025436D01*
X0666276Y0025538D01*
X0666399Y0025638D01*
X0666525Y0025734D01*
X0666653Y0025827D01*
X0666783Y0025917D01*
X0666916Y0026003D01*
X0667051Y0026087D01*
X0667187Y0026166D01*
X0667326Y0026243D01*
X0667467Y0026315D01*
X0667609Y0026385D01*
X0667753Y0026450D01*
X0667899Y0026512D01*
X0668046Y0026570D01*
X0668195Y0026625D01*
X0668345Y0026676D01*
X0668496Y0026723D01*
X0668648Y0026766D01*
X0668801Y0026805D01*
X0668956Y0026841D01*
X0669111Y0026872D01*
X0669267Y0026900D01*
X0669423Y0026924D01*
X0669580Y0026944D01*
X0669738Y0026960D01*
X0669895Y0026972D01*
X0670054Y0026980D01*
X0670212Y0026984D01*
X0670370Y0026984D01*
X0670528Y0026980D01*
X0670687Y0026972D01*
X0670844Y0026960D01*
X0671002Y0026944D01*
X0671159Y0026924D01*
X0671315Y0026900D01*
X0671471Y0026872D01*
X0671626Y0026841D01*
X0671781Y0026805D01*
X0671934Y0026766D01*
X0672086Y0026723D01*
X0672237Y0026676D01*
X0672387Y0026625D01*
X0672536Y0026570D01*
X0672683Y0026512D01*
X0672829Y0026450D01*
X0672973Y0026385D01*
X0673115Y0026315D01*
X0673256Y0026243D01*
X0673395Y0026166D01*
X0673531Y0026087D01*
X0673666Y0026003D01*
X0673799Y0025917D01*
X0673929Y0025827D01*
X0674057Y0025734D01*
X0674183Y0025638D01*
X0674306Y0025538D01*
X0674427Y0025436D01*
X0674545Y0025331D01*
X0674660Y0025222D01*
X0674773Y0025111D01*
X0674883Y0024997D01*
X0674990Y0024880D01*
X0675094Y0024761D01*
X0675195Y0024639D01*
X0675292Y0024514D01*
X0675387Y0024387D01*
X0675478Y0024258D01*
X0675567Y0024127D01*
X0675651Y0023993D01*
X0675733Y0023857D01*
X0675811Y0023720D01*
X0675885Y0023580D01*
X0675956Y0023438D01*
X0676024Y0023295D01*
X0676088Y0023150D01*
X0676148Y0023004D01*
X0676204Y0022856D01*
X0676257Y0022707D01*
X0676306Y0022556D01*
X0676351Y0022404D01*
X0676392Y0022251D01*
X0676430Y0022098D01*
X0676463Y0021943D01*
X0676493Y0021787D01*
X0676519Y0021631D01*
X0676540Y0021474D01*
X0676558Y0021317D01*
X0676572Y0021159D01*
X0676582Y0021001D01*
X0676588Y0020843D01*
X0676590Y0020685D01*
X0676588Y0020527D01*
X0676582Y0020369D01*
X0676572Y0020211D01*
X0676558Y0020053D01*
X0676540Y0019896D01*
X0676519Y0019739D01*
X0676493Y0019583D01*
X0676463Y0019427D01*
X0676430Y0019272D01*
X0676392Y0019119D01*
X0676351Y0018966D01*
X0676306Y0018814D01*
X0676257Y0018663D01*
X0676204Y0018514D01*
X0676148Y0018366D01*
X0676088Y0018220D01*
X0676024Y0018075D01*
X0675956Y0017932D01*
X0675885Y0017790D01*
X0675811Y0017650D01*
X0675733Y0017513D01*
X0675651Y0017377D01*
X0675567Y0017243D01*
X0675478Y0017112D01*
X0675387Y0016983D01*
X0675292Y0016856D01*
X0675195Y0016731D01*
X0675094Y0016609D01*
X0674990Y0016490D01*
X0674883Y0016373D01*
X0674773Y0016259D01*
X0674660Y0016148D01*
X0674545Y0016039D01*
X0674427Y0015934D01*
X0674306Y0015832D01*
X0674183Y0015732D01*
X0674057Y0015636D01*
X0673929Y0015543D01*
X0673799Y0015453D01*
X0673666Y0015367D01*
X0673531Y0015283D01*
X0673395Y0015204D01*
X0673256Y0015127D01*
X0673115Y0015055D01*
X0672973Y0014985D01*
X0672829Y0014920D01*
X0672683Y0014858D01*
X0672536Y0014800D01*
X0672387Y0014745D01*
X0672237Y0014694D01*
X0672086Y0014647D01*
X0671934Y0014604D01*
X0671781Y0014565D01*
X0671626Y0014529D01*
X0671471Y0014498D01*
X0671315Y0014470D01*
X0671159Y0014446D01*
X0671002Y0014426D01*
X0670844Y0014410D01*
X0670687Y0014398D01*
X0670528Y0014390D01*
X0670370Y0014386D01*
X0670212Y0014386D01*
X0670054Y0014390D01*
X0669895Y0014398D01*
X0669738Y0014410D01*
X0669580Y0014426D01*
X0669423Y0014446D01*
X0669267Y0014470D01*
X0669111Y0014498D01*
X0668956Y0014529D01*
X0668801Y0014565D01*
X0668648Y0014604D01*
X0668496Y0014647D01*
X0668345Y0014694D01*
X0668195Y0014745D01*
X0668046Y0014800D01*
X0667899Y0014858D01*
X0667753Y0014920D01*
X0667609Y0014985D01*
X0667467Y0015055D01*
X0667326Y0015127D01*
X0667187Y0015204D01*
X0667051Y0015283D01*
X0666916Y0015367D01*
X0666783Y0015453D01*
X0666653Y0015543D01*
X0666525Y0015636D01*
X0666399Y0015732D01*
X0666276Y0015832D01*
X0666155Y0015934D01*
X0666037Y0016039D01*
X0665922Y0016148D01*
X0665809Y0016259D01*
X0665699Y0016373D01*
X0665592Y0016490D01*
X0665488Y0016609D01*
X0665387Y0016731D01*
X0665290Y0016856D01*
X0665195Y0016983D01*
X0665104Y0017112D01*
X0665015Y0017243D01*
X0664931Y0017377D01*
X0664849Y0017513D01*
X0664771Y0017650D01*
X0664697Y0017790D01*
X0664626Y0017932D01*
X0664558Y0018075D01*
X0664494Y0018220D01*
X0664434Y0018366D01*
X0664378Y0018514D01*
X0664325Y0018663D01*
X0664276Y0018814D01*
X0664231Y0018966D01*
X0664190Y0019119D01*
X0664152Y0019272D01*
X0664119Y0019427D01*
X0664089Y0019583D01*
X0664063Y0019739D01*
X0664042Y0019896D01*
X0664024Y0020053D01*
X0664010Y0020211D01*
X0664000Y0020369D01*
X0663994Y0020527D01*
X0663992Y0020685D01*
X0014386Y0237220D02*
X0014388Y0237378D01*
X0014394Y0237536D01*
X0014404Y0237694D01*
X0014418Y0237852D01*
X0014436Y0238009D01*
X0014457Y0238166D01*
X0014483Y0238322D01*
X0014513Y0238478D01*
X0014546Y0238633D01*
X0014584Y0238786D01*
X0014625Y0238939D01*
X0014670Y0239091D01*
X0014719Y0239242D01*
X0014772Y0239391D01*
X0014828Y0239539D01*
X0014888Y0239685D01*
X0014952Y0239830D01*
X0015020Y0239973D01*
X0015091Y0240115D01*
X0015165Y0240255D01*
X0015243Y0240392D01*
X0015325Y0240528D01*
X0015409Y0240662D01*
X0015498Y0240793D01*
X0015589Y0240922D01*
X0015684Y0241049D01*
X0015781Y0241174D01*
X0015882Y0241296D01*
X0015986Y0241415D01*
X0016093Y0241532D01*
X0016203Y0241646D01*
X0016316Y0241757D01*
X0016431Y0241866D01*
X0016549Y0241971D01*
X0016670Y0242073D01*
X0016793Y0242173D01*
X0016919Y0242269D01*
X0017047Y0242362D01*
X0017177Y0242452D01*
X0017310Y0242538D01*
X0017445Y0242622D01*
X0017581Y0242701D01*
X0017720Y0242778D01*
X0017861Y0242850D01*
X0018003Y0242920D01*
X0018147Y0242985D01*
X0018293Y0243047D01*
X0018440Y0243105D01*
X0018589Y0243160D01*
X0018739Y0243211D01*
X0018890Y0243258D01*
X0019042Y0243301D01*
X0019195Y0243340D01*
X0019350Y0243376D01*
X0019505Y0243407D01*
X0019661Y0243435D01*
X0019817Y0243459D01*
X0019974Y0243479D01*
X0020132Y0243495D01*
X0020289Y0243507D01*
X0020448Y0243515D01*
X0020606Y0243519D01*
X0020764Y0243519D01*
X0020922Y0243515D01*
X0021081Y0243507D01*
X0021238Y0243495D01*
X0021396Y0243479D01*
X0021553Y0243459D01*
X0021709Y0243435D01*
X0021865Y0243407D01*
X0022020Y0243376D01*
X0022175Y0243340D01*
X0022328Y0243301D01*
X0022480Y0243258D01*
X0022631Y0243211D01*
X0022781Y0243160D01*
X0022930Y0243105D01*
X0023077Y0243047D01*
X0023223Y0242985D01*
X0023367Y0242920D01*
X0023509Y0242850D01*
X0023650Y0242778D01*
X0023789Y0242701D01*
X0023925Y0242622D01*
X0024060Y0242538D01*
X0024193Y0242452D01*
X0024323Y0242362D01*
X0024451Y0242269D01*
X0024577Y0242173D01*
X0024700Y0242073D01*
X0024821Y0241971D01*
X0024939Y0241866D01*
X0025054Y0241757D01*
X0025167Y0241646D01*
X0025277Y0241532D01*
X0025384Y0241415D01*
X0025488Y0241296D01*
X0025589Y0241174D01*
X0025686Y0241049D01*
X0025781Y0240922D01*
X0025872Y0240793D01*
X0025961Y0240662D01*
X0026045Y0240528D01*
X0026127Y0240392D01*
X0026205Y0240255D01*
X0026279Y0240115D01*
X0026350Y0239973D01*
X0026418Y0239830D01*
X0026482Y0239685D01*
X0026542Y0239539D01*
X0026598Y0239391D01*
X0026651Y0239242D01*
X0026700Y0239091D01*
X0026745Y0238939D01*
X0026786Y0238786D01*
X0026824Y0238633D01*
X0026857Y0238478D01*
X0026887Y0238322D01*
X0026913Y0238166D01*
X0026934Y0238009D01*
X0026952Y0237852D01*
X0026966Y0237694D01*
X0026976Y0237536D01*
X0026982Y0237378D01*
X0026984Y0237220D01*
X0026982Y0237062D01*
X0026976Y0236904D01*
X0026966Y0236746D01*
X0026952Y0236588D01*
X0026934Y0236431D01*
X0026913Y0236274D01*
X0026887Y0236118D01*
X0026857Y0235962D01*
X0026824Y0235807D01*
X0026786Y0235654D01*
X0026745Y0235501D01*
X0026700Y0235349D01*
X0026651Y0235198D01*
X0026598Y0235049D01*
X0026542Y0234901D01*
X0026482Y0234755D01*
X0026418Y0234610D01*
X0026350Y0234467D01*
X0026279Y0234325D01*
X0026205Y0234185D01*
X0026127Y0234048D01*
X0026045Y0233912D01*
X0025961Y0233778D01*
X0025872Y0233647D01*
X0025781Y0233518D01*
X0025686Y0233391D01*
X0025589Y0233266D01*
X0025488Y0233144D01*
X0025384Y0233025D01*
X0025277Y0232908D01*
X0025167Y0232794D01*
X0025054Y0232683D01*
X0024939Y0232574D01*
X0024821Y0232469D01*
X0024700Y0232367D01*
X0024577Y0232267D01*
X0024451Y0232171D01*
X0024323Y0232078D01*
X0024193Y0231988D01*
X0024060Y0231902D01*
X0023925Y0231818D01*
X0023789Y0231739D01*
X0023650Y0231662D01*
X0023509Y0231590D01*
X0023367Y0231520D01*
X0023223Y0231455D01*
X0023077Y0231393D01*
X0022930Y0231335D01*
X0022781Y0231280D01*
X0022631Y0231229D01*
X0022480Y0231182D01*
X0022328Y0231139D01*
X0022175Y0231100D01*
X0022020Y0231064D01*
X0021865Y0231033D01*
X0021709Y0231005D01*
X0021553Y0230981D01*
X0021396Y0230961D01*
X0021238Y0230945D01*
X0021081Y0230933D01*
X0020922Y0230925D01*
X0020764Y0230921D01*
X0020606Y0230921D01*
X0020448Y0230925D01*
X0020289Y0230933D01*
X0020132Y0230945D01*
X0019974Y0230961D01*
X0019817Y0230981D01*
X0019661Y0231005D01*
X0019505Y0231033D01*
X0019350Y0231064D01*
X0019195Y0231100D01*
X0019042Y0231139D01*
X0018890Y0231182D01*
X0018739Y0231229D01*
X0018589Y0231280D01*
X0018440Y0231335D01*
X0018293Y0231393D01*
X0018147Y0231455D01*
X0018003Y0231520D01*
X0017861Y0231590D01*
X0017720Y0231662D01*
X0017581Y0231739D01*
X0017445Y0231818D01*
X0017310Y0231902D01*
X0017177Y0231988D01*
X0017047Y0232078D01*
X0016919Y0232171D01*
X0016793Y0232267D01*
X0016670Y0232367D01*
X0016549Y0232469D01*
X0016431Y0232574D01*
X0016316Y0232683D01*
X0016203Y0232794D01*
X0016093Y0232908D01*
X0015986Y0233025D01*
X0015882Y0233144D01*
X0015781Y0233266D01*
X0015684Y0233391D01*
X0015589Y0233518D01*
X0015498Y0233647D01*
X0015409Y0233778D01*
X0015325Y0233912D01*
X0015243Y0234048D01*
X0015165Y0234185D01*
X0015091Y0234325D01*
X0015020Y0234467D01*
X0014952Y0234610D01*
X0014888Y0234755D01*
X0014828Y0234901D01*
X0014772Y0235049D01*
X0014719Y0235198D01*
X0014670Y0235349D01*
X0014625Y0235501D01*
X0014584Y0235654D01*
X0014546Y0235807D01*
X0014513Y0235962D01*
X0014483Y0236118D01*
X0014457Y0236274D01*
X0014436Y0236431D01*
X0014418Y0236588D01*
X0014404Y0236746D01*
X0014394Y0236904D01*
X0014388Y0237062D01*
X0014386Y0237220D01*
M02*
