%
M48
M72
T01C0.03937
T02C0.04000
T03C0.04331
T04C0.12598
%
T01
X49228Y203520
X49228Y213520
X49228Y223520
X49228Y233520
X632890Y55370
X632890Y45370
X632890Y35370
X632890Y25370
T02
X160567Y96472
X150567Y96472
X140567Y96472
X130567Y96472
X120567Y96472
X110567Y96472
X100567Y96472
X90567Y96472
X80567Y96472
X70567Y96472
X60567Y96472
X50567Y96472
X40567Y96472
X30567Y96472
X20567Y96472
X20213Y110213
X30213Y110213
X40213Y110213
X50213Y110213
X60213Y110213
X70213Y110213
X80213Y110213
X90213Y110213
X100213Y110213
X110213Y110213
X120213Y110213
X130213Y110213
X140213Y110213
X150213Y110213
X160213Y110213
X27575Y68992
X27575Y58992
X30213Y170213
X40213Y170213
X50213Y170213
X60213Y170213
X70213Y170213
X80213Y170213
X90213Y170213
X100213Y170213
X110213Y170213
X120213Y170213
X130213Y170213
X140213Y170213
X150213Y170213
X160213Y170213
X159583Y182102
X149583Y182102
X139583Y182102
X129583Y182102
X119583Y182102
X109583Y182102
X99583Y182102
X89583Y182102
X79583Y182102
X69583Y182102
X59583Y182102
X49583Y182102
X39583Y182102
X29583Y182102
X19583Y182102
X20213Y170213
T03
X128795Y50370
X138795Y50370
X148795Y50370
X148795Y30370
X138795Y30370
X128795Y30370
X276433Y30370
X286433Y30370
X296433Y30370
X296433Y50370
X286433Y50370
X276433Y50370
X424071Y50370
X434071Y50370
X444071Y50370
X444071Y30370
X434071Y30370
X424071Y30370
X571709Y30370
X581709Y30370
X591709Y30370
X591709Y50370
X581709Y50370
X571709Y50370
T04
X20685Y20685
X288402Y111236
X288402Y205724
X532496Y205724
X670291Y237220
X532496Y111236
X670291Y20685
X20685Y237220
M30
