G75*
%MOIN*%
%OFA0B0*%
%FSLAX25Y25*%
%IPPOS*%
%LPD*%
%AMOC8*
5,1,8,0,0,1.08239X$1,22.5*
%
%ADD10C,0.15000*%
%ADD11OC8,0.15000*%
%ADD12OC8,0.06300*%
%ADD13C,0.06300*%
%ADD14C,0.10000*%
%ADD15C,0.07600*%
%ADD16OC8,0.07600*%
%ADD17OC8,0.08600*%
%ADD18OC8,0.06600*%
%ADD19OC8,0.08500*%
%ADD20OC8,0.07000*%
%ADD21OC8,0.12400*%
%ADD22OC8,0.04800*%
%ADD23OC8,0.10000*%
%ADD24C,0.07874*%
%ADD25C,0.16598*%
%ADD26C,0.01200*%
%ADD27C,0.03562*%
%ADD28C,0.04000*%
%ADD29C,0.05000*%
%ADD30C,0.10000*%
D10*
X0141088Y0218685D03*
X0140338Y0310685D03*
D11*
X0140338Y0330685D03*
X0141088Y0238685D03*
D12*
X0236588Y0245435D03*
X0236838Y0322685D03*
X0156000Y0121000D03*
X0146000Y0121000D03*
X0136000Y0121000D03*
X0126000Y0121000D03*
X0126000Y0091000D03*
X0136000Y0091000D03*
X0146000Y0091000D03*
X0156000Y0091000D03*
D13*
X0236588Y0231435D03*
X0236838Y0308685D03*
D14*
X0131945Y0162535D03*
X0057938Y0234018D03*
X0057938Y0254018D03*
X0058338Y0305518D03*
X0058338Y0325518D03*
X0190724Y0065016D03*
D15*
X0085340Y0236435D03*
X0085340Y0326435D03*
D16*
X0085340Y0346435D03*
X0105340Y0346435D03*
X0105340Y0326435D03*
X0105340Y0256435D03*
X0105340Y0236435D03*
X0085340Y0256435D03*
D17*
X0120498Y0267250D03*
X0170498Y0267250D03*
D18*
X0160998Y0282250D03*
X0130998Y0282250D03*
D19*
X0115498Y0282250D03*
D20*
X0146000Y0171000D03*
X0146000Y0131000D03*
X0146000Y0081000D03*
X0136000Y0076000D03*
X0136000Y0041000D03*
X0146000Y0041000D03*
X0096000Y0041000D03*
X0096000Y0076000D03*
D21*
X0126000Y0016000D03*
X0146000Y0016000D03*
X0166000Y0136000D03*
X0166000Y0171000D03*
D22*
X0131748Y0135252D03*
X0111748Y0135252D03*
X0171000Y0091000D03*
X0191000Y0091000D03*
X0126000Y0057811D03*
X0106000Y0057811D03*
D23*
X0170724Y0065016D03*
X0111945Y0162535D03*
D24*
X0101000Y0221000D02*
X0071000Y0221000D01*
X0057982Y0234018D01*
X0057938Y0234018D01*
X0057938Y0254018D02*
X0060355Y0256435D01*
X0085340Y0256435D01*
X0105340Y0236435D02*
X0106000Y0235775D01*
X0106000Y0226000D01*
X0101000Y0221000D01*
X0095518Y0305518D02*
X0058338Y0305518D01*
X0058338Y0325518D02*
X0064423Y0325518D01*
X0085340Y0346435D01*
X0105340Y0326435D02*
X0106000Y0325775D01*
X0106000Y0316000D01*
X0095518Y0305518D01*
D25*
X0020685Y0020685D03*
X0276591Y0020685D03*
X0276591Y0347457D03*
X0020685Y0347457D03*
D26*
X0040340Y0347370D02*
X0078444Y0347370D01*
X0077246Y0346171D02*
X0040340Y0346171D01*
X0040340Y0344973D02*
X0076047Y0344973D01*
X0074849Y0343774D02*
X0040340Y0343774D01*
X0040340Y0342576D02*
X0073650Y0342576D01*
X0072452Y0341377D02*
X0040340Y0341377D01*
X0040340Y0340179D02*
X0071253Y0340179D01*
X0070055Y0338980D02*
X0040340Y0338980D01*
X0040340Y0337782D02*
X0068856Y0337782D01*
X0067658Y0336583D02*
X0040340Y0336583D01*
X0040340Y0335385D02*
X0066459Y0335385D01*
X0065261Y0334186D02*
X0040340Y0334186D01*
X0040340Y0332988D02*
X0064062Y0332988D01*
X0062864Y0331789D02*
X0060445Y0331789D01*
X0059651Y0332118D02*
X0057026Y0332118D01*
X0054600Y0331113D01*
X0052743Y0329257D01*
X0051738Y0326831D01*
X0051738Y0324205D01*
X0052743Y0321779D01*
X0054600Y0319923D01*
X0057026Y0318918D01*
X0059651Y0318918D01*
X0062077Y0319923D01*
X0062135Y0319981D01*
X0065524Y0319981D01*
X0067560Y0320824D01*
X0090034Y0343299D01*
X0090171Y0343629D01*
X0090740Y0344198D01*
X0090740Y0345003D01*
X0090877Y0345334D01*
X0090877Y0347536D01*
X0090740Y0347867D01*
X0090740Y0348672D01*
X0090171Y0349241D01*
X0090034Y0349571D01*
X0088476Y0351129D01*
X0088146Y0351266D01*
X0087577Y0351835D01*
X0086772Y0351835D01*
X0086441Y0351972D01*
X0084239Y0351972D01*
X0083908Y0351835D01*
X0083103Y0351835D01*
X0082534Y0351266D01*
X0082204Y0351129D01*
X0062132Y0331058D01*
X0062077Y0331113D01*
X0059651Y0332118D01*
X0056231Y0331789D02*
X0040340Y0331789D01*
X0040340Y0330591D02*
X0054077Y0330591D01*
X0052879Y0329392D02*
X0040340Y0329392D01*
X0040340Y0328194D02*
X0052303Y0328194D01*
X0051806Y0326995D02*
X0040340Y0326995D01*
X0040340Y0325797D02*
X0051738Y0325797D01*
X0051738Y0324598D02*
X0040340Y0324598D01*
X0040340Y0323400D02*
X0052072Y0323400D01*
X0052569Y0322201D02*
X0040340Y0322201D01*
X0040340Y0321003D02*
X0053520Y0321003D01*
X0054887Y0319804D02*
X0040340Y0319804D01*
X0040340Y0318605D02*
X0100463Y0318605D01*
X0100463Y0318293D02*
X0093225Y0311055D01*
X0062135Y0311055D01*
X0062077Y0311113D01*
X0059651Y0312118D01*
X0057026Y0312118D01*
X0054600Y0311113D01*
X0052743Y0309257D01*
X0051738Y0306831D01*
X0051738Y0304205D01*
X0052743Y0301779D01*
X0054600Y0299923D01*
X0057026Y0298918D01*
X0059651Y0298918D01*
X0062077Y0299923D01*
X0062135Y0299981D01*
X0096619Y0299981D01*
X0098655Y0300824D01*
X0109136Y0311306D01*
X0110694Y0312864D01*
X0111537Y0314899D01*
X0111537Y0326876D01*
X0110694Y0328911D01*
X0108476Y0331129D01*
X0108146Y0331266D01*
X0107577Y0331835D01*
X0106772Y0331835D01*
X0106441Y0331972D01*
X0104239Y0331972D01*
X0103908Y0331835D01*
X0103103Y0331835D01*
X0102534Y0331266D01*
X0102204Y0331129D01*
X0100646Y0329571D01*
X0100509Y0329241D01*
X0099940Y0328672D01*
X0099940Y0327867D01*
X0099803Y0327536D01*
X0099803Y0325334D01*
X0099940Y0325003D01*
X0099940Y0324198D01*
X0100463Y0323675D01*
X0100463Y0318293D01*
X0099576Y0317407D02*
X0040340Y0317407D01*
X0040340Y0316208D02*
X0098378Y0316208D01*
X0097179Y0315010D02*
X0040340Y0315010D01*
X0040340Y0313811D02*
X0095981Y0313811D01*
X0094782Y0312613D02*
X0040340Y0312613D01*
X0040340Y0311414D02*
X0055327Y0311414D01*
X0053702Y0310216D02*
X0040340Y0310216D01*
X0040340Y0309017D02*
X0052644Y0309017D01*
X0052148Y0307819D02*
X0040340Y0307819D01*
X0040340Y0306620D02*
X0051738Y0306620D01*
X0051738Y0305422D02*
X0040340Y0305422D01*
X0040340Y0304223D02*
X0051738Y0304223D01*
X0052227Y0303025D02*
X0040340Y0303025D01*
X0040340Y0301826D02*
X0052724Y0301826D01*
X0053895Y0300628D02*
X0040340Y0300628D01*
X0040340Y0299429D02*
X0055791Y0299429D01*
X0060885Y0299429D02*
X0256088Y0299429D01*
X0256088Y0298231D02*
X0040340Y0298231D01*
X0040340Y0297032D02*
X0256088Y0297032D01*
X0256088Y0295834D02*
X0040340Y0295834D01*
X0040340Y0294635D02*
X0256088Y0294635D01*
X0256088Y0293437D02*
X0040340Y0293437D01*
X0040340Y0292238D02*
X0256088Y0292238D01*
X0256088Y0291040D02*
X0171188Y0291040D01*
X0171078Y0291150D02*
X0109170Y0291150D01*
X0108350Y0290330D01*
X0108350Y0278935D01*
X0040340Y0278935D01*
X0040340Y0361435D01*
X0256088Y0361435D01*
X0256088Y0278935D01*
X0171898Y0278935D01*
X0171898Y0290330D01*
X0171078Y0291150D01*
X0171898Y0289841D02*
X0256088Y0289841D01*
X0256088Y0288643D02*
X0171898Y0288643D01*
X0171898Y0287444D02*
X0256088Y0287444D01*
X0256088Y0286246D02*
X0171898Y0286246D01*
X0171898Y0285047D02*
X0256088Y0285047D01*
X0256088Y0283849D02*
X0171898Y0283849D01*
X0171898Y0282650D02*
X0256088Y0282650D01*
X0256088Y0281452D02*
X0171898Y0281452D01*
X0171898Y0280253D02*
X0256088Y0280253D01*
X0256088Y0279055D02*
X0171898Y0279055D01*
X0171898Y0276435D02*
X0256088Y0276435D01*
X0256088Y0196435D01*
X0040340Y0196435D01*
X0040340Y0276435D01*
X0108350Y0276435D01*
X0108350Y0261670D01*
X0109170Y0260850D01*
X0138578Y0260850D01*
X0139398Y0261670D01*
X0139398Y0273350D01*
X0171078Y0273350D01*
X0171898Y0274170D01*
X0171898Y0276435D01*
X0171898Y0275459D02*
X0256088Y0275459D01*
X0256088Y0274261D02*
X0171898Y0274261D01*
X0171079Y0273150D02*
X0172942Y0273150D01*
X0176398Y0269694D01*
X0176398Y0267831D01*
X0171079Y0267831D01*
X0169917Y0267831D01*
X0169917Y0266669D01*
X0164598Y0266669D01*
X0164598Y0264806D01*
X0168054Y0261350D01*
X0169917Y0261350D01*
X0169917Y0266669D01*
X0171079Y0266669D01*
X0171079Y0261350D01*
X0172942Y0261350D01*
X0176398Y0264806D01*
X0176398Y0266669D01*
X0171079Y0266669D01*
X0171079Y0267831D01*
X0171079Y0273150D01*
X0171079Y0273062D02*
X0169917Y0273062D01*
X0169917Y0273150D02*
X0168054Y0273150D01*
X0164598Y0269694D01*
X0164598Y0267831D01*
X0169917Y0267831D01*
X0169917Y0273150D01*
X0169917Y0271864D02*
X0171079Y0271864D01*
X0171079Y0270665D02*
X0169917Y0270665D01*
X0169917Y0269467D02*
X0171079Y0269467D01*
X0171079Y0268268D02*
X0169917Y0268268D01*
X0169917Y0267070D02*
X0139398Y0267070D01*
X0139398Y0268268D02*
X0164598Y0268268D01*
X0164598Y0269467D02*
X0139398Y0269467D01*
X0139398Y0270665D02*
X0165569Y0270665D01*
X0166768Y0271864D02*
X0139398Y0271864D01*
X0139398Y0273062D02*
X0167966Y0273062D01*
X0173030Y0273062D02*
X0256088Y0273062D01*
X0256088Y0271864D02*
X0174228Y0271864D01*
X0175427Y0270665D02*
X0256088Y0270665D01*
X0256088Y0269467D02*
X0176398Y0269467D01*
X0176398Y0268268D02*
X0256088Y0268268D01*
X0256088Y0267070D02*
X0171079Y0267070D01*
X0171079Y0265871D02*
X0169917Y0265871D01*
X0169917Y0264672D02*
X0171079Y0264672D01*
X0171079Y0263474D02*
X0169917Y0263474D01*
X0169917Y0262275D02*
X0171079Y0262275D01*
X0173867Y0262275D02*
X0256088Y0262275D01*
X0256088Y0261077D02*
X0138805Y0261077D01*
X0139398Y0262275D02*
X0167129Y0262275D01*
X0165930Y0263474D02*
X0139398Y0263474D01*
X0139398Y0264672D02*
X0164732Y0264672D01*
X0164598Y0265871D02*
X0139398Y0265871D01*
X0140488Y0247785D02*
X0137319Y0247785D01*
X0131988Y0242454D01*
X0131988Y0239285D01*
X0140488Y0239285D01*
X0140488Y0238085D01*
X0131988Y0238085D01*
X0131988Y0234916D01*
X0137319Y0229585D01*
X0140488Y0229585D01*
X0140488Y0238085D01*
X0141688Y0238085D01*
X0141688Y0229585D01*
X0144857Y0229585D01*
X0150188Y0234916D01*
X0150188Y0238085D01*
X0141688Y0238085D01*
X0141688Y0239285D01*
X0140488Y0239285D01*
X0140488Y0247785D01*
X0140488Y0246695D02*
X0141688Y0246695D01*
X0141688Y0247785D02*
X0141688Y0239285D01*
X0150188Y0239285D01*
X0150188Y0242454D01*
X0144857Y0247785D01*
X0141688Y0247785D01*
X0141688Y0245496D02*
X0140488Y0245496D01*
X0140488Y0244298D02*
X0141688Y0244298D01*
X0141688Y0243099D02*
X0140488Y0243099D01*
X0140488Y0241901D02*
X0141688Y0241901D01*
X0141688Y0240702D02*
X0140488Y0240702D01*
X0140488Y0239504D02*
X0141688Y0239504D01*
X0141688Y0238305D02*
X0256088Y0238305D01*
X0256088Y0237107D02*
X0150188Y0237107D01*
X0150188Y0235908D02*
X0234975Y0235908D01*
X0235643Y0236185D02*
X0233897Y0235462D01*
X0232561Y0234126D01*
X0231838Y0232380D01*
X0231838Y0230490D01*
X0232561Y0228744D01*
X0233897Y0227408D01*
X0235643Y0226685D01*
X0237533Y0226685D01*
X0239279Y0227408D01*
X0240615Y0228744D01*
X0241338Y0230490D01*
X0241338Y0232380D01*
X0240615Y0234126D01*
X0239279Y0235462D01*
X0237533Y0236185D01*
X0235643Y0236185D01*
X0238201Y0235908D02*
X0256088Y0235908D01*
X0256088Y0234710D02*
X0240031Y0234710D01*
X0240869Y0233511D02*
X0256088Y0233511D01*
X0256088Y0232313D02*
X0241338Y0232313D01*
X0241338Y0231114D02*
X0256088Y0231114D01*
X0256088Y0229916D02*
X0241100Y0229916D01*
X0240588Y0228717D02*
X0256088Y0228717D01*
X0256088Y0227519D02*
X0239389Y0227519D01*
X0233787Y0227519D02*
X0143541Y0227519D01*
X0142898Y0227785D02*
X0139278Y0227785D01*
X0135933Y0226400D01*
X0133373Y0223840D01*
X0131988Y0220495D01*
X0131988Y0216875D01*
X0133373Y0213530D01*
X0135933Y0210970D01*
X0139278Y0209585D01*
X0142898Y0209585D01*
X0146243Y0210970D01*
X0148803Y0213530D01*
X0150188Y0216875D01*
X0150188Y0220495D01*
X0148803Y0223840D01*
X0146243Y0226400D01*
X0142898Y0227785D01*
X0141688Y0229916D02*
X0140488Y0229916D01*
X0140488Y0231114D02*
X0141688Y0231114D01*
X0141688Y0232313D02*
X0140488Y0232313D01*
X0140488Y0233511D02*
X0141688Y0233511D01*
X0141688Y0234710D02*
X0140488Y0234710D01*
X0140488Y0235908D02*
X0141688Y0235908D01*
X0141688Y0237107D02*
X0140488Y0237107D01*
X0140488Y0238305D02*
X0110945Y0238305D01*
X0110694Y0238911D02*
X0108476Y0241129D01*
X0108146Y0241266D01*
X0107577Y0241835D01*
X0106772Y0241835D01*
X0106441Y0241972D01*
X0104239Y0241972D01*
X0103908Y0241835D01*
X0103103Y0241835D01*
X0102534Y0241266D01*
X0102204Y0241129D01*
X0100646Y0239571D01*
X0100509Y0239241D01*
X0099940Y0238672D01*
X0099940Y0237867D01*
X0099803Y0237536D01*
X0099803Y0235334D01*
X0099940Y0235003D01*
X0099940Y0234198D01*
X0100463Y0233675D01*
X0100463Y0228293D01*
X0098706Y0226537D01*
X0073293Y0226537D01*
X0064538Y0235292D01*
X0064538Y0235331D01*
X0063534Y0237757D01*
X0061677Y0239613D01*
X0059251Y0240618D01*
X0056626Y0240618D01*
X0054200Y0239613D01*
X0052343Y0237757D01*
X0051338Y0235331D01*
X0051338Y0232705D01*
X0052343Y0230279D01*
X0054200Y0228423D01*
X0056626Y0227418D01*
X0056751Y0227418D01*
X0066306Y0217864D01*
X0067864Y0216306D01*
X0069899Y0215463D01*
X0102101Y0215463D01*
X0104136Y0216306D01*
X0109136Y0221306D01*
X0110694Y0222864D01*
X0111537Y0224899D01*
X0111537Y0236876D01*
X0110694Y0238911D01*
X0110102Y0239504D02*
X0131988Y0239504D01*
X0131988Y0240702D02*
X0108903Y0240702D01*
X0106613Y0241901D02*
X0131988Y0241901D01*
X0132633Y0243099D02*
X0040340Y0243099D01*
X0040340Y0241901D02*
X0104067Y0241901D01*
X0101777Y0240702D02*
X0088709Y0240702D01*
X0088399Y0241013D02*
X0086414Y0241835D01*
X0084266Y0241835D01*
X0082281Y0241013D01*
X0080762Y0239494D01*
X0079940Y0237509D01*
X0079940Y0235361D01*
X0080762Y0233376D01*
X0082281Y0231857D01*
X0084266Y0231035D01*
X0086414Y0231035D01*
X0088399Y0231857D01*
X0089918Y0233376D01*
X0090740Y0235361D01*
X0090740Y0237509D01*
X0089918Y0239494D01*
X0088399Y0241013D01*
X0089908Y0239504D02*
X0100618Y0239504D01*
X0099940Y0238305D02*
X0090410Y0238305D01*
X0090740Y0237107D02*
X0099803Y0237107D01*
X0099803Y0235908D02*
X0090740Y0235908D01*
X0090470Y0234710D02*
X0099940Y0234710D01*
X0100463Y0233511D02*
X0089974Y0233511D01*
X0088854Y0232313D02*
X0100463Y0232313D01*
X0100463Y0231114D02*
X0086605Y0231114D01*
X0084075Y0231114D02*
X0068716Y0231114D01*
X0067518Y0232313D02*
X0081826Y0232313D01*
X0080706Y0233511D02*
X0066319Y0233511D01*
X0065121Y0234710D02*
X0080210Y0234710D01*
X0079940Y0235908D02*
X0064299Y0235908D01*
X0063803Y0237107D02*
X0079940Y0237107D01*
X0080270Y0238305D02*
X0062985Y0238305D01*
X0061787Y0239504D02*
X0080772Y0239504D01*
X0081971Y0240702D02*
X0040340Y0240702D01*
X0040340Y0239504D02*
X0054090Y0239504D01*
X0052892Y0238305D02*
X0040340Y0238305D01*
X0040340Y0237107D02*
X0052074Y0237107D01*
X0051578Y0235908D02*
X0040340Y0235908D01*
X0040340Y0234710D02*
X0051338Y0234710D01*
X0051338Y0233511D02*
X0040340Y0233511D01*
X0040340Y0232313D02*
X0051501Y0232313D01*
X0051997Y0231114D02*
X0040340Y0231114D01*
X0040340Y0229916D02*
X0052707Y0229916D01*
X0053906Y0228717D02*
X0040340Y0228717D01*
X0040340Y0227519D02*
X0056383Y0227519D01*
X0057849Y0226320D02*
X0040340Y0226320D01*
X0040340Y0225122D02*
X0059048Y0225122D01*
X0060246Y0223923D02*
X0040340Y0223923D01*
X0040340Y0222725D02*
X0061445Y0222725D01*
X0062643Y0221526D02*
X0040340Y0221526D01*
X0040340Y0220328D02*
X0063842Y0220328D01*
X0065040Y0219129D02*
X0040340Y0219129D01*
X0040340Y0217931D02*
X0066239Y0217931D01*
X0067437Y0216732D02*
X0040340Y0216732D01*
X0040340Y0215534D02*
X0069728Y0215534D01*
X0072312Y0227519D02*
X0099688Y0227519D01*
X0100463Y0228717D02*
X0071113Y0228717D01*
X0069915Y0229916D02*
X0100463Y0229916D01*
X0109357Y0221526D02*
X0132415Y0221526D01*
X0131988Y0220328D02*
X0108158Y0220328D01*
X0106960Y0219129D02*
X0131988Y0219129D01*
X0131988Y0217931D02*
X0105761Y0217931D01*
X0104563Y0216732D02*
X0132047Y0216732D01*
X0132544Y0215534D02*
X0102272Y0215534D01*
X0110555Y0222725D02*
X0132912Y0222725D01*
X0133457Y0223923D02*
X0111133Y0223923D01*
X0111537Y0225122D02*
X0134655Y0225122D01*
X0135854Y0226320D02*
X0111537Y0226320D01*
X0111537Y0227519D02*
X0138635Y0227519D01*
X0136988Y0229916D02*
X0111537Y0229916D01*
X0111537Y0231114D02*
X0135790Y0231114D01*
X0134591Y0232313D02*
X0111537Y0232313D01*
X0111537Y0233511D02*
X0133392Y0233511D01*
X0132194Y0234710D02*
X0111537Y0234710D01*
X0111537Y0235908D02*
X0131988Y0235908D01*
X0131988Y0237107D02*
X0111442Y0237107D01*
X0111537Y0228717D02*
X0232588Y0228717D01*
X0232076Y0229916D02*
X0145188Y0229916D01*
X0146387Y0231114D02*
X0231838Y0231114D01*
X0231838Y0232313D02*
X0147585Y0232313D01*
X0148784Y0233511D02*
X0232307Y0233511D01*
X0233145Y0234710D02*
X0149982Y0234710D01*
X0150188Y0239504D02*
X0256088Y0239504D01*
X0256088Y0240702D02*
X0238573Y0240702D01*
X0238556Y0240685D02*
X0241338Y0243467D01*
X0241338Y0245235D01*
X0236788Y0245235D01*
X0236788Y0240685D01*
X0238556Y0240685D01*
X0239771Y0241901D02*
X0256088Y0241901D01*
X0256088Y0243099D02*
X0240970Y0243099D01*
X0241338Y0244298D02*
X0256088Y0244298D01*
X0256088Y0245496D02*
X0236788Y0245496D01*
X0236788Y0245635D02*
X0241338Y0245635D01*
X0241338Y0247403D01*
X0238556Y0250185D01*
X0236788Y0250185D01*
X0236788Y0245635D01*
X0236388Y0245635D01*
X0236388Y0245235D01*
X0231838Y0245235D01*
X0231838Y0243467D01*
X0234621Y0240685D01*
X0236388Y0240685D01*
X0236388Y0245235D01*
X0236788Y0245235D01*
X0236788Y0245635D01*
X0236388Y0245635D02*
X0236388Y0250185D01*
X0234621Y0250185D01*
X0231838Y0247403D01*
X0231838Y0245635D01*
X0236388Y0245635D01*
X0236388Y0245496D02*
X0147146Y0245496D01*
X0148345Y0244298D02*
X0231838Y0244298D01*
X0232206Y0243099D02*
X0149543Y0243099D01*
X0150188Y0241901D02*
X0233405Y0241901D01*
X0234603Y0240702D02*
X0150188Y0240702D01*
X0145948Y0246695D02*
X0231838Y0246695D01*
X0232329Y0247893D02*
X0060399Y0247893D01*
X0059251Y0247418D02*
X0061677Y0248423D01*
X0063534Y0250279D01*
X0063790Y0250898D01*
X0086441Y0250898D01*
X0086772Y0251035D01*
X0087577Y0251035D01*
X0088146Y0251604D01*
X0088476Y0251741D01*
X0090034Y0253299D01*
X0090171Y0253629D01*
X0090740Y0254198D01*
X0090740Y0255003D01*
X0090877Y0255334D01*
X0090877Y0257536D01*
X0090740Y0257867D01*
X0090740Y0258672D01*
X0090171Y0259241D01*
X0090034Y0259571D01*
X0088476Y0261129D01*
X0088146Y0261266D01*
X0087577Y0261835D01*
X0086772Y0261835D01*
X0086441Y0261972D01*
X0059254Y0261972D01*
X0057219Y0261129D01*
X0056708Y0260618D01*
X0056626Y0260618D01*
X0054200Y0259613D01*
X0052343Y0257757D01*
X0051338Y0255331D01*
X0051338Y0252705D01*
X0052343Y0250279D01*
X0054200Y0248423D01*
X0056626Y0247418D01*
X0059251Y0247418D01*
X0062346Y0249092D02*
X0233527Y0249092D01*
X0236388Y0249092D02*
X0236788Y0249092D01*
X0236788Y0247893D02*
X0236388Y0247893D01*
X0236388Y0246695D02*
X0236788Y0246695D01*
X0236788Y0244298D02*
X0236388Y0244298D01*
X0236388Y0243099D02*
X0236788Y0243099D01*
X0236788Y0241901D02*
X0236388Y0241901D01*
X0236388Y0240702D02*
X0236788Y0240702D01*
X0241338Y0246695D02*
X0256088Y0246695D01*
X0256088Y0247893D02*
X0240847Y0247893D01*
X0239649Y0249092D02*
X0256088Y0249092D01*
X0256088Y0250290D02*
X0063538Y0250290D01*
X0055478Y0247893D02*
X0040340Y0247893D01*
X0040340Y0246695D02*
X0136229Y0246695D01*
X0135030Y0245496D02*
X0040340Y0245496D01*
X0040340Y0244298D02*
X0133831Y0244298D01*
X0146322Y0226320D02*
X0256088Y0226320D01*
X0256088Y0225122D02*
X0147521Y0225122D01*
X0148719Y0223923D02*
X0256088Y0223923D01*
X0256088Y0222725D02*
X0149265Y0222725D01*
X0149761Y0221526D02*
X0256088Y0221526D01*
X0256088Y0220328D02*
X0150188Y0220328D01*
X0150188Y0219129D02*
X0256088Y0219129D01*
X0256088Y0217931D02*
X0150188Y0217931D01*
X0150129Y0216732D02*
X0256088Y0216732D01*
X0256088Y0215534D02*
X0149632Y0215534D01*
X0149136Y0214335D02*
X0256088Y0214335D01*
X0256088Y0213137D02*
X0148409Y0213137D01*
X0147210Y0211938D02*
X0256088Y0211938D01*
X0256088Y0210739D02*
X0145685Y0210739D01*
X0136491Y0210739D02*
X0040340Y0210739D01*
X0040340Y0209541D02*
X0256088Y0209541D01*
X0256088Y0208342D02*
X0040340Y0208342D01*
X0040340Y0207144D02*
X0256088Y0207144D01*
X0256088Y0205945D02*
X0040340Y0205945D01*
X0040340Y0204747D02*
X0256088Y0204747D01*
X0256088Y0203548D02*
X0040340Y0203548D01*
X0040340Y0202350D02*
X0256088Y0202350D01*
X0256088Y0201151D02*
X0040340Y0201151D01*
X0040340Y0199953D02*
X0256088Y0199953D01*
X0256088Y0198754D02*
X0040340Y0198754D01*
X0040340Y0197556D02*
X0256088Y0197556D01*
X0256088Y0251489D02*
X0108031Y0251489D01*
X0107577Y0251035D02*
X0110740Y0254198D01*
X0110740Y0256035D01*
X0105740Y0256035D01*
X0105740Y0256835D01*
X0104940Y0256835D01*
X0104940Y0261835D01*
X0103103Y0261835D01*
X0099940Y0258672D01*
X0099940Y0256835D01*
X0104940Y0256835D01*
X0104940Y0256035D01*
X0099940Y0256035D01*
X0099940Y0254198D01*
X0103103Y0251035D01*
X0104940Y0251035D01*
X0104940Y0256035D01*
X0105740Y0256035D01*
X0105740Y0251035D01*
X0107577Y0251035D01*
X0105740Y0251489D02*
X0104940Y0251489D01*
X0104940Y0252687D02*
X0105740Y0252687D01*
X0105740Y0253886D02*
X0104940Y0253886D01*
X0104940Y0255084D02*
X0105740Y0255084D01*
X0105740Y0256283D02*
X0256088Y0256283D01*
X0256088Y0257481D02*
X0110740Y0257481D01*
X0110740Y0256835D02*
X0110740Y0258672D01*
X0107577Y0261835D01*
X0105740Y0261835D01*
X0105740Y0256835D01*
X0110740Y0256835D01*
X0110740Y0255084D02*
X0256088Y0255084D01*
X0256088Y0253886D02*
X0110428Y0253886D01*
X0109229Y0252687D02*
X0256088Y0252687D01*
X0256088Y0258680D02*
X0110732Y0258680D01*
X0109533Y0259878D02*
X0256088Y0259878D01*
X0256088Y0263474D02*
X0175066Y0263474D01*
X0176264Y0264672D02*
X0256088Y0264672D01*
X0256088Y0265871D02*
X0176398Y0265871D01*
X0145493Y0302970D02*
X0148053Y0305530D01*
X0149438Y0308875D01*
X0149438Y0312495D01*
X0148053Y0315840D01*
X0145493Y0318400D01*
X0142148Y0319785D01*
X0138528Y0319785D01*
X0135183Y0318400D01*
X0132623Y0315840D01*
X0131238Y0312495D01*
X0131238Y0308875D01*
X0132623Y0305530D01*
X0135183Y0302970D01*
X0138528Y0301585D01*
X0142148Y0301585D01*
X0145493Y0302970D01*
X0145547Y0303025D02*
X0256088Y0303025D01*
X0256088Y0304223D02*
X0238479Y0304223D01*
X0237783Y0303935D02*
X0239529Y0304658D01*
X0240865Y0305994D01*
X0241588Y0307740D01*
X0241588Y0309630D01*
X0240865Y0311376D01*
X0239529Y0312712D01*
X0237783Y0313435D01*
X0235893Y0313435D01*
X0234147Y0312712D01*
X0232811Y0311376D01*
X0232088Y0309630D01*
X0232088Y0307740D01*
X0232811Y0305994D01*
X0234147Y0304658D01*
X0235893Y0303935D01*
X0237783Y0303935D01*
X0235197Y0304223D02*
X0146746Y0304223D01*
X0147944Y0305422D02*
X0233384Y0305422D01*
X0232552Y0306620D02*
X0148504Y0306620D01*
X0149001Y0307819D02*
X0232088Y0307819D01*
X0232088Y0309017D02*
X0149438Y0309017D01*
X0149438Y0310216D02*
X0232331Y0310216D01*
X0232850Y0311414D02*
X0149438Y0311414D01*
X0149389Y0312613D02*
X0234048Y0312613D01*
X0234871Y0317935D02*
X0232088Y0320717D01*
X0232088Y0322485D01*
X0236638Y0322485D01*
X0236638Y0322885D01*
X0232088Y0322885D01*
X0232088Y0324653D01*
X0234871Y0327435D01*
X0236638Y0327435D01*
X0236638Y0322885D01*
X0237038Y0322885D01*
X0237038Y0327435D01*
X0238806Y0327435D01*
X0241588Y0324653D01*
X0241588Y0322885D01*
X0237038Y0322885D01*
X0237038Y0322485D01*
X0237038Y0317935D01*
X0238806Y0317935D01*
X0241588Y0320717D01*
X0241588Y0322485D01*
X0237038Y0322485D01*
X0236638Y0322485D01*
X0236638Y0317935D01*
X0234871Y0317935D01*
X0234200Y0318605D02*
X0144996Y0318605D01*
X0146485Y0317407D02*
X0256088Y0317407D01*
X0256088Y0318605D02*
X0239476Y0318605D01*
X0240675Y0319804D02*
X0256088Y0319804D01*
X0256088Y0321003D02*
X0241588Y0321003D01*
X0241588Y0322201D02*
X0256088Y0322201D01*
X0256088Y0323400D02*
X0241588Y0323400D01*
X0241588Y0324598D02*
X0256088Y0324598D01*
X0256088Y0325797D02*
X0240444Y0325797D01*
X0239245Y0326995D02*
X0256088Y0326995D01*
X0256088Y0328194D02*
X0149438Y0328194D01*
X0149438Y0329392D02*
X0256088Y0329392D01*
X0256088Y0330591D02*
X0140938Y0330591D01*
X0140938Y0330085D02*
X0140938Y0331285D01*
X0139738Y0331285D01*
X0139738Y0330085D01*
X0131238Y0330085D01*
X0131238Y0326916D01*
X0136569Y0321585D01*
X0139738Y0321585D01*
X0139738Y0330085D01*
X0140938Y0330085D01*
X0140938Y0321585D01*
X0144107Y0321585D01*
X0149438Y0326916D01*
X0149438Y0330085D01*
X0140938Y0330085D01*
X0140938Y0329392D02*
X0139738Y0329392D01*
X0139738Y0328194D02*
X0140938Y0328194D01*
X0140938Y0326995D02*
X0139738Y0326995D01*
X0139738Y0325797D02*
X0140938Y0325797D01*
X0140938Y0324598D02*
X0139738Y0324598D01*
X0139738Y0323400D02*
X0140938Y0323400D01*
X0140938Y0322201D02*
X0139738Y0322201D01*
X0144723Y0322201D02*
X0232088Y0322201D01*
X0232088Y0321003D02*
X0111537Y0321003D01*
X0111537Y0322201D02*
X0135953Y0322201D01*
X0134754Y0323400D02*
X0111537Y0323400D01*
X0111537Y0324598D02*
X0133556Y0324598D01*
X0132357Y0325797D02*
X0111537Y0325797D01*
X0111488Y0326995D02*
X0131238Y0326995D01*
X0131238Y0328194D02*
X0110991Y0328194D01*
X0110213Y0329392D02*
X0131238Y0329392D01*
X0131238Y0331285D02*
X0139738Y0331285D01*
X0139738Y0339785D01*
X0136569Y0339785D01*
X0131238Y0334454D01*
X0131238Y0331285D01*
X0131238Y0331789D02*
X0107623Y0331789D01*
X0109015Y0330591D02*
X0139738Y0330591D01*
X0139738Y0331789D02*
X0140938Y0331789D01*
X0140938Y0331285D02*
X0140938Y0339785D01*
X0144107Y0339785D01*
X0149438Y0334454D01*
X0149438Y0331285D01*
X0140938Y0331285D01*
X0140938Y0332988D02*
X0139738Y0332988D01*
X0139738Y0334186D02*
X0140938Y0334186D01*
X0140938Y0335385D02*
X0139738Y0335385D01*
X0139738Y0336583D02*
X0140938Y0336583D01*
X0140938Y0337782D02*
X0139738Y0337782D01*
X0139738Y0338980D02*
X0140938Y0338980D01*
X0144912Y0338980D02*
X0256088Y0338980D01*
X0256088Y0337782D02*
X0146111Y0337782D01*
X0147309Y0336583D02*
X0256088Y0336583D01*
X0256088Y0335385D02*
X0148508Y0335385D01*
X0149438Y0334186D02*
X0256088Y0334186D01*
X0256088Y0332988D02*
X0149438Y0332988D01*
X0149438Y0331789D02*
X0256088Y0331789D01*
X0256088Y0340179D02*
X0086914Y0340179D01*
X0088113Y0341377D02*
X0102761Y0341377D01*
X0103103Y0341035D02*
X0099940Y0344198D01*
X0099940Y0346035D01*
X0104940Y0346035D01*
X0104940Y0346835D01*
X0104940Y0351835D01*
X0103103Y0351835D01*
X0099940Y0348672D01*
X0099940Y0346835D01*
X0104940Y0346835D01*
X0105740Y0346835D01*
X0105740Y0351835D01*
X0107577Y0351835D01*
X0110740Y0348672D01*
X0110740Y0346835D01*
X0105740Y0346835D01*
X0105740Y0346035D01*
X0110740Y0346035D01*
X0110740Y0344198D01*
X0107577Y0341035D01*
X0105740Y0341035D01*
X0105740Y0346035D01*
X0104940Y0346035D01*
X0104940Y0341035D01*
X0103103Y0341035D01*
X0104940Y0341377D02*
X0105740Y0341377D01*
X0105740Y0342576D02*
X0104940Y0342576D01*
X0104940Y0343774D02*
X0105740Y0343774D01*
X0105740Y0344973D02*
X0104940Y0344973D01*
X0104940Y0346171D02*
X0090877Y0346171D01*
X0090877Y0347370D02*
X0099940Y0347370D01*
X0099940Y0348568D02*
X0090740Y0348568D01*
X0089839Y0349767D02*
X0101035Y0349767D01*
X0102234Y0350965D02*
X0088640Y0350965D01*
X0090740Y0344973D02*
X0099940Y0344973D01*
X0100364Y0343774D02*
X0090316Y0343774D01*
X0089311Y0342576D02*
X0101563Y0342576D01*
X0105740Y0346171D02*
X0256088Y0346171D01*
X0256088Y0344973D02*
X0110740Y0344973D01*
X0110316Y0343774D02*
X0256088Y0343774D01*
X0256088Y0342576D02*
X0109117Y0342576D01*
X0107919Y0341377D02*
X0256088Y0341377D01*
X0256088Y0347370D02*
X0110740Y0347370D01*
X0110740Y0348568D02*
X0256088Y0348568D01*
X0256088Y0349767D02*
X0109645Y0349767D01*
X0108446Y0350965D02*
X0256088Y0350965D01*
X0256088Y0352164D02*
X0040340Y0352164D01*
X0040340Y0353362D02*
X0256088Y0353362D01*
X0256088Y0354561D02*
X0040340Y0354561D01*
X0040340Y0355759D02*
X0256088Y0355759D01*
X0256088Y0356958D02*
X0040340Y0356958D01*
X0040340Y0358156D02*
X0256088Y0358156D01*
X0256088Y0359355D02*
X0040340Y0359355D01*
X0040340Y0360553D02*
X0256088Y0360553D01*
X0237038Y0326995D02*
X0236638Y0326995D01*
X0236638Y0325797D02*
X0237038Y0325797D01*
X0237038Y0324598D02*
X0236638Y0324598D01*
X0236638Y0323400D02*
X0237038Y0323400D01*
X0237038Y0322201D02*
X0236638Y0322201D01*
X0236638Y0321003D02*
X0237038Y0321003D01*
X0237038Y0319804D02*
X0236638Y0319804D01*
X0236638Y0318605D02*
X0237038Y0318605D01*
X0233002Y0319804D02*
X0111537Y0319804D01*
X0111537Y0318605D02*
X0135680Y0318605D01*
X0134191Y0317407D02*
X0111537Y0317407D01*
X0111537Y0316208D02*
X0132992Y0316208D01*
X0132280Y0315010D02*
X0111537Y0315010D01*
X0111087Y0313811D02*
X0131783Y0313811D01*
X0131287Y0312613D02*
X0110443Y0312613D01*
X0109245Y0311414D02*
X0131238Y0311414D01*
X0131238Y0310216D02*
X0108046Y0310216D01*
X0106848Y0309017D02*
X0131238Y0309017D01*
X0131675Y0307819D02*
X0105649Y0307819D01*
X0104451Y0306620D02*
X0132172Y0306620D01*
X0132732Y0305422D02*
X0103252Y0305422D01*
X0102054Y0304223D02*
X0133930Y0304223D01*
X0135129Y0303025D02*
X0100855Y0303025D01*
X0099657Y0301826D02*
X0137945Y0301826D01*
X0142731Y0301826D02*
X0256088Y0301826D01*
X0256088Y0300628D02*
X0098181Y0300628D01*
X0093584Y0311414D02*
X0061350Y0311414D01*
X0061790Y0319804D02*
X0100463Y0319804D01*
X0100463Y0321003D02*
X0067738Y0321003D01*
X0068937Y0322201D02*
X0081937Y0322201D01*
X0082281Y0321857D02*
X0084266Y0321035D01*
X0086414Y0321035D01*
X0088399Y0321857D01*
X0089918Y0323376D01*
X0090740Y0325361D01*
X0090740Y0327509D01*
X0089918Y0329494D01*
X0088399Y0331013D01*
X0086414Y0331835D01*
X0084266Y0331835D01*
X0082281Y0331013D01*
X0080762Y0329494D01*
X0079940Y0327509D01*
X0079940Y0325361D01*
X0080762Y0323376D01*
X0082281Y0321857D01*
X0080752Y0323400D02*
X0070135Y0323400D01*
X0071334Y0324598D02*
X0080256Y0324598D01*
X0079940Y0325797D02*
X0072532Y0325797D01*
X0073731Y0326995D02*
X0079940Y0326995D01*
X0080224Y0328194D02*
X0074929Y0328194D01*
X0076128Y0329392D02*
X0080720Y0329392D01*
X0081859Y0330591D02*
X0077326Y0330591D01*
X0078525Y0331789D02*
X0084155Y0331789D01*
X0086525Y0331789D02*
X0103057Y0331789D01*
X0101665Y0330591D02*
X0088821Y0330591D01*
X0089960Y0329392D02*
X0100572Y0329392D01*
X0099940Y0328194D02*
X0090456Y0328194D01*
X0090740Y0326995D02*
X0099803Y0326995D01*
X0099803Y0325797D02*
X0090740Y0325797D01*
X0090424Y0324598D02*
X0099940Y0324598D01*
X0100463Y0323400D02*
X0089928Y0323400D01*
X0088743Y0322201D02*
X0100463Y0322201D01*
X0084517Y0337782D02*
X0134565Y0337782D01*
X0133367Y0336583D02*
X0083319Y0336583D01*
X0082120Y0335385D02*
X0132168Y0335385D01*
X0131238Y0334186D02*
X0080922Y0334186D01*
X0079723Y0332988D02*
X0131238Y0332988D01*
X0135764Y0338980D02*
X0085716Y0338980D01*
X0079643Y0348568D02*
X0040340Y0348568D01*
X0040340Y0349767D02*
X0080841Y0349767D01*
X0082040Y0350965D02*
X0040340Y0350965D01*
X0040340Y0291040D02*
X0109060Y0291040D01*
X0108350Y0289841D02*
X0040340Y0289841D01*
X0040340Y0288643D02*
X0108350Y0288643D01*
X0108350Y0287444D02*
X0040340Y0287444D01*
X0040340Y0286246D02*
X0108350Y0286246D01*
X0108350Y0285047D02*
X0040340Y0285047D01*
X0040340Y0283849D02*
X0108350Y0283849D01*
X0108350Y0282650D02*
X0040340Y0282650D01*
X0040340Y0281452D02*
X0108350Y0281452D01*
X0108350Y0280253D02*
X0040340Y0280253D01*
X0040340Y0279055D02*
X0108350Y0279055D01*
X0108350Y0275459D02*
X0040340Y0275459D01*
X0040340Y0274261D02*
X0108350Y0274261D01*
X0108350Y0273062D02*
X0040340Y0273062D01*
X0040340Y0271864D02*
X0108350Y0271864D01*
X0108350Y0270665D02*
X0040340Y0270665D01*
X0040340Y0269467D02*
X0108350Y0269467D01*
X0108350Y0268268D02*
X0040340Y0268268D01*
X0040340Y0267070D02*
X0108350Y0267070D01*
X0108350Y0265871D02*
X0040340Y0265871D01*
X0040340Y0264672D02*
X0108350Y0264672D01*
X0108350Y0263474D02*
X0040340Y0263474D01*
X0040340Y0262275D02*
X0108350Y0262275D01*
X0108335Y0261077D02*
X0108943Y0261077D01*
X0105740Y0261077D02*
X0104940Y0261077D01*
X0104940Y0259878D02*
X0105740Y0259878D01*
X0105740Y0258680D02*
X0104940Y0258680D01*
X0104940Y0257481D02*
X0105740Y0257481D01*
X0104940Y0256283D02*
X0090877Y0256283D01*
X0090877Y0257481D02*
X0099940Y0257481D01*
X0099948Y0258680D02*
X0090732Y0258680D01*
X0089727Y0259878D02*
X0101147Y0259878D01*
X0102345Y0261077D02*
X0088529Y0261077D01*
X0090774Y0255084D02*
X0099940Y0255084D01*
X0100252Y0253886D02*
X0090428Y0253886D01*
X0089423Y0252687D02*
X0101451Y0252687D01*
X0102649Y0251489D02*
X0088031Y0251489D01*
X0057167Y0261077D02*
X0040340Y0261077D01*
X0040340Y0259878D02*
X0054840Y0259878D01*
X0053266Y0258680D02*
X0040340Y0258680D01*
X0040340Y0257481D02*
X0052229Y0257481D01*
X0051733Y0256283D02*
X0040340Y0256283D01*
X0040340Y0255084D02*
X0051338Y0255084D01*
X0051338Y0253886D02*
X0040340Y0253886D01*
X0040340Y0252687D02*
X0051346Y0252687D01*
X0051842Y0251489D02*
X0040340Y0251489D01*
X0040340Y0250290D02*
X0052339Y0250290D01*
X0053531Y0249092D02*
X0040340Y0249092D01*
X0040340Y0214335D02*
X0133040Y0214335D01*
X0133767Y0213137D02*
X0040340Y0213137D01*
X0040340Y0211938D02*
X0134966Y0211938D01*
X0148893Y0313811D02*
X0256088Y0313811D01*
X0256088Y0312613D02*
X0239628Y0312613D01*
X0240826Y0311414D02*
X0256088Y0311414D01*
X0256088Y0310216D02*
X0241345Y0310216D01*
X0241588Y0309017D02*
X0256088Y0309017D01*
X0256088Y0307819D02*
X0241588Y0307819D01*
X0241124Y0306620D02*
X0256088Y0306620D01*
X0256088Y0305422D02*
X0240292Y0305422D01*
X0232088Y0323400D02*
X0145922Y0323400D01*
X0147120Y0324598D02*
X0232088Y0324598D01*
X0233232Y0325797D02*
X0148319Y0325797D01*
X0149438Y0326995D02*
X0234431Y0326995D01*
X0256088Y0316208D02*
X0147684Y0316208D01*
X0148396Y0315010D02*
X0256088Y0315010D01*
X0105740Y0347370D02*
X0104940Y0347370D01*
X0104940Y0348568D02*
X0105740Y0348568D01*
X0105740Y0349767D02*
X0104940Y0349767D01*
X0104940Y0350965D02*
X0105740Y0350965D01*
D27*
X0123588Y0353935D03*
X0123588Y0343935D03*
X0133588Y0343935D03*
X0133588Y0353935D03*
X0143588Y0353935D03*
X0143588Y0343935D03*
X0153588Y0343935D03*
X0153588Y0353935D03*
X0163588Y0353935D03*
X0163588Y0343935D03*
X0173588Y0343935D03*
X0176088Y0353935D03*
X0186088Y0353935D03*
X0196088Y0353935D03*
X0206088Y0353935D03*
X0216088Y0353935D03*
X0226088Y0353935D03*
X0226088Y0343935D03*
X0236088Y0343935D03*
X0236088Y0353935D03*
X0246088Y0353935D03*
X0246088Y0343935D03*
X0191313Y0330340D03*
X0191313Y0325340D03*
X0186313Y0325340D03*
X0186313Y0330340D03*
X0191088Y0301435D03*
X0191088Y0293935D03*
X0191088Y0268935D03*
X0183588Y0268935D03*
X0183588Y0258935D03*
X0191088Y0258935D03*
X0191313Y0240340D03*
X0186313Y0240340D03*
X0186313Y0235340D03*
X0191313Y0235340D03*
X0191088Y0213935D03*
X0191088Y0203935D03*
X0201088Y0203935D03*
X0181088Y0203935D03*
X0171088Y0203935D03*
X0161088Y0203935D03*
X0151088Y0203935D03*
X0153588Y0248935D03*
X0153588Y0258935D03*
X0143588Y0258935D03*
X0163588Y0258935D03*
X0163588Y0248935D03*
X0173588Y0258935D03*
X0213588Y0258935D03*
X0213588Y0268935D03*
X0223588Y0268935D03*
X0223588Y0258935D03*
X0233588Y0258935D03*
X0243588Y0258935D03*
X0241088Y0213935D03*
X0241088Y0203935D03*
X0251088Y0203935D03*
X0251088Y0213935D03*
X0231088Y0213935D03*
X0231088Y0203935D03*
D28*
X0170498Y0267250D02*
X0160998Y0276750D01*
X0160998Y0282250D01*
X0130998Y0282250D02*
X0115498Y0282250D01*
X0115498Y0272250D01*
X0120498Y0267250D01*
X0191000Y0091000D02*
X0190724Y0090724D01*
D29*
X0146000Y0091000D02*
X0146000Y0081000D01*
X0146000Y0066000D01*
X0137811Y0057811D01*
X0126000Y0057811D01*
X0136000Y0041000D02*
X0146000Y0041000D01*
X0146000Y0016000D01*
X0106000Y0016000D02*
X0103500Y0018500D01*
X0096000Y0041000D02*
X0096000Y0056000D01*
X0097811Y0057811D01*
X0106000Y0057811D01*
X0096000Y0056000D02*
X0096000Y0076000D01*
X0136000Y0076000D02*
X0136000Y0091000D01*
X0146000Y0121000D02*
X0146000Y0131000D01*
X0146000Y0171000D02*
X0166000Y0171000D01*
X0111945Y0135449D02*
X0111748Y0135252D01*
D30*
X0111748Y0162339D01*
X0111945Y0162535D01*
X0111748Y0135252D02*
X0111748Y0106748D01*
X0111000Y0106000D01*
X0111000Y0106000D01*
X0176000Y0106000D01*
X0176000Y0126000D01*
X0166000Y0136000D01*
X0176000Y0106000D02*
X0191000Y0106000D01*
X0191000Y0091000D01*
X0190724Y0090724D02*
X0190724Y0065016D01*
X0191000Y0106000D02*
X0231000Y0106000D01*
X0246000Y0121000D01*
X0246000Y0201000D01*
X0244023Y0201000D01*
X0241088Y0203935D01*
X0111000Y0106000D02*
X0106000Y0106000D01*
X0096000Y0096000D01*
X0096000Y0076000D01*
X0096000Y0041000D01*
X0096000Y0026000D01*
X0103500Y0018500D01*
X0106000Y0016000D02*
X0126000Y0016000D01*
M02*
