%
M48
M72
T01C0.02362
T02C0.02953
T03C0.03200
T04C0.03937
T05C0.04000
T06C0.04724
T07C0.05118
T08C0.05200
T09C0.05906
T10C0.07900
T11C0.12598
%
T01
X151088Y203935
X161088Y203935
X171088Y203935
X181088Y203935
X191088Y203935
X191088Y213935
X201088Y203935
X191313Y235340
X186313Y235340
X186313Y240340
X191313Y240340
X191088Y258935
X183588Y258935
X173588Y258935
X163588Y258935
X163588Y248935
X153588Y248935
X153588Y258935
X143588Y258935
X183588Y268935
X191088Y268935
X191088Y293935
X191088Y301435
X191313Y325340
X191313Y330340
X186313Y330340
X186313Y325340
X173588Y343935
X163588Y343935
X163588Y353935
X153588Y353935
X143588Y353935
X143588Y343935
X153588Y343935
X133588Y343935
X123588Y343935
X123588Y353935
X133588Y353935
X176088Y353935
X186088Y353935
X196088Y353935
X206088Y353935
X216088Y353935
X226088Y353935
X226088Y343935
X236088Y343935
X236088Y353935
X246088Y353935
X246088Y343935
X223588Y268935
X223588Y258935
X233588Y258935
X243588Y258935
X213588Y258935
X213588Y268935
X231088Y213935
X231088Y203935
X241088Y203935
X241088Y213935
X251088Y213935
X251088Y203935
T02
X160998Y282250
X130998Y282250
T03
X236838Y308685
X236838Y322685
X236588Y245435
X236588Y231435
X156000Y121000
X146000Y121000
X136000Y121000
X126000Y121000
X131748Y135252
X111748Y135252
X126000Y91000
X136000Y91000
X146000Y91000
X156000Y91000
X171000Y91000
X191000Y91000
X126000Y57811
X106000Y57811
T04
X96000Y41000
X96000Y76000
X136000Y76000
X146000Y81000
X146000Y41000
X136000Y41000
X146000Y131000
X146000Y171000
T05
X131945Y162535
X111945Y162535
X105340Y236435
X105340Y256435
X85340Y256435
X85340Y236435
X85340Y326435
X85340Y346435
X105340Y346435
X105340Y326435
X170724Y65016
X190724Y65016
T06
X170498Y267250
X120498Y267250
T07
X57938Y254018
X57938Y234018
X58338Y305518
X58338Y325518
T08
X115498Y282250
T09
X140338Y310685
X140338Y330685
X141088Y238685
X141088Y218685
T10
X166000Y171000
X166000Y136000
X146000Y16000
X126000Y16000
T11
X20685Y20685
X276591Y20685
X276591Y347457
X20685Y347457
M30
