%
M48
M72
T01C0.01378
T02C0.03150
T03C0.03200
%
T01
X66800Y61800
X66800Y86800
X66800Y111800
X114300Y108050
X161800Y111800
X161800Y86800
X161800Y61800
X165550Y371800
X165550Y396800
X165550Y421800
X116800Y414300
X68050Y421800
X68050Y396800
X68050Y371800
T02
X51800Y336800
X51800Y326800
X51800Y316800
X51800Y306800
X51800Y296800
X51800Y286800
X51800Y276800
X51800Y266800
X51800Y256800
X51800Y246800
X51800Y236800
X51800Y226800
X51800Y216800
X51800Y206800
X51800Y196800
X51800Y186800
X51800Y176800
X51800Y166800
X51800Y156800
X51800Y146800
X181800Y146800
X181800Y156800
X181800Y166800
X181800Y176800
X181800Y186800
X181800Y196800
X181800Y206800
X181800Y216800
X181800Y226800
X181800Y236800
X181800Y246800
X181800Y256800
X181800Y266800
X181800Y276800
X181800Y286800
X181800Y296800
X181800Y306800
X181800Y316800
X181800Y326800
X181800Y336800
T03
X156800Y331800
X156800Y311800
X156800Y291800
X156800Y271800
X156800Y251800
X156800Y231800
X156800Y211800
X156800Y191800
X156800Y171800
X156800Y151800
X156800Y131800
X138800Y141800
X124800Y141800
X103800Y141800
X89800Y141800
X71800Y131800
X71800Y151800
X71800Y171800
X71800Y191800
X71800Y211800
X71800Y231800
X71800Y251800
X71800Y271800
X71800Y291800
X71800Y311800
X71800Y331800
X71800Y351800
X89800Y341800
X103800Y341800
X124800Y341800
X138800Y341800
X156800Y351800
X138800Y301800
X124800Y301800
X103800Y301800
X89800Y301800
X89800Y261800
X103800Y261800
X124800Y261800
X138800Y261800
X138800Y221800
X124800Y221800
X103800Y221800
X89800Y221800
X89800Y181800
X103800Y181800
X124800Y181800
X138800Y181800
M30
