%
M48
M72
T01C0.02400
T02C0.02756
T03C0.03150
T04C0.03200
T05C0.03937
T06C0.04000
T07C0.04331
T08C0.04400
T09C0.04724
T10C0.05118
T11C0.06299
T12C0.06693
T13C0.08661
T14C0.12598
%
T01
X575659Y433559
X575659Y443559
X575659Y453559
X666210Y453559
X666210Y443559
X666210Y433559
X746919Y429622
X746919Y439622
X746919Y449622
X833533Y449622
X833533Y439622
X833533Y429622
T02
X664241Y504583
X597312Y522299
X591407Y504583
X575659Y504583
X555974Y506551
X583533Y486866
X496919Y567575
X384714Y612850
X248887Y622693
X219360Y589228
X28218Y604976
X28218Y612850
X28218Y620724
X26446Y433717
X14635Y388441
X14635Y374661
X59911Y374661
X59911Y388441
X105186Y388441
X105186Y374661
X95344Y417969
X93375Y223087
X55974Y223087
X54005Y211003
X48100Y205370
X252824Y166000
X270541Y128598
X514635Y205370
T03
X553100Y219898
X553100Y229898
X553100Y239898
X553100Y249898
X553100Y259898
X553100Y269898
X553100Y279898
X553100Y289898
X553100Y299898
X553100Y309898
X553100Y319898
X553100Y329898
X553100Y339898
X553100Y349898
X553100Y359898
X553100Y369898
X553100Y379898
X553100Y389898
X553100Y399898
X553100Y409898
X487076Y390882
X487076Y380882
X487076Y370882
X487076Y360882
X439832Y360882
X439832Y370882
X439832Y380882
X439832Y390882
X392588Y390882
X392588Y380882
X392588Y370882
X392588Y360882
X345344Y360882
X345344Y370882
X345344Y380882
X345344Y390882
X298100Y390882
X298100Y380882
X298100Y370882
X298100Y360882
X250856Y360882
X250856Y370882
X250856Y380882
X250856Y390882
X203612Y390882
X203612Y380882
X203612Y370882
X203612Y360882
X156367Y360882
X156367Y370882
X156367Y380882
X156367Y390882
X110147Y277811
X100147Y277811
X90147Y277811
X80147Y277811
X80147Y267811
X90147Y267811
X100147Y267811
X110147Y267811
X70147Y267811
X60147Y267811
X50147Y267811
X40147Y267811
X30147Y267811
X20147Y267811
X20147Y277811
X30147Y277811
X40147Y277811
X50147Y277811
X60147Y277811
X70147Y277811
X196958Y275173
X206958Y275173
X216958Y275173
X226958Y275173
X236958Y275173
X246958Y275173
X256958Y275173
X266958Y275173
X276958Y275173
X286958Y275173
X296958Y275173
X306958Y275173
X316958Y275173
X326958Y275173
X336958Y275173
X346958Y275173
X356958Y275173
X366958Y275173
X376958Y275173
X386958Y275173
X396958Y275173
X406958Y275173
X416958Y275173
X426958Y275173
X426958Y215173
X416958Y215173
X406958Y215173
X396958Y215173
X386958Y215173
X376958Y215173
X366958Y215173
X356958Y215173
X346958Y215173
X336958Y215173
X326958Y215173
X316958Y215173
X306958Y215173
X296958Y215173
X286958Y215173
X276958Y215173
X266958Y215173
X256958Y215173
X246958Y215173
X236958Y215173
X226958Y215173
X216958Y215173
X206958Y215173
X196958Y215173
X222273Y124071
X222273Y104071
X262273Y104071
X262273Y124071
X308769Y124071
X308769Y104071
X348769Y104071
X348769Y124071
X78178Y61669
X68178Y61669
X58178Y61669
X156367Y510882
X156367Y520882
X156367Y530882
X156367Y540882
X156367Y550882
X203612Y550882
X203612Y540882
X203612Y530882
X203612Y520882
X203612Y510882
X250856Y510882
X250856Y520882
X250856Y530882
X250856Y540882
X250856Y550882
X298100Y550882
X298100Y540882
X298100Y530882
X298100Y520882
X298100Y510882
X345344Y510882
X345344Y520882
X345344Y530882
X345344Y540882
X345344Y550882
X392588Y550882
X392588Y540882
X392588Y530882
X392588Y520882
X392588Y510882
X439832Y510882
X439832Y520882
X439832Y530882
X439832Y540882
X439832Y550882
X487076Y550882
X487076Y540882
X487076Y530882
X487076Y520882
X487076Y510882
X683100Y409898
X683100Y399898
X683100Y389898
X683100Y379898
X683100Y369898
X683100Y359898
X683100Y349898
X683100Y339898
X683100Y329898
X683100Y319898
X683100Y309898
X683100Y299898
X683100Y289898
X683100Y279898
X683100Y269898
X683100Y259898
X683100Y249898
X683100Y239898
X683100Y229898
X683100Y219898
X724360Y219898
X724360Y229898
X724360Y239898
X724360Y249898
X724360Y259898
X724360Y269898
X724360Y279898
X724360Y289898
X724360Y299898
X724360Y309898
X724360Y319898
X724360Y329898
X724360Y339898
X724360Y349898
X724360Y359898
X724360Y369898
X724360Y379898
X724360Y389898
X724360Y399898
X724360Y409898
X854360Y409898
X854360Y399898
X854360Y389898
X854360Y379898
X854360Y369898
X854360Y359898
X854360Y349898
X854360Y339898
X854360Y329898
X854360Y319898
X854360Y309898
X854360Y299898
X854360Y289898
X854360Y279898
X854360Y269898
X854360Y259898
X854360Y249898
X854360Y239898
X854360Y229898
X854360Y219898
T04
X807194Y201433
X802194Y220213
X792194Y220213
X782194Y220213
X777194Y201433
X773257Y251394
X773257Y261394
X773257Y271394
X773257Y281394
X803257Y281394
X803257Y271394
X803257Y261394
X803257Y251394
X803257Y349819
X803257Y359819
X803257Y369819
X803257Y379819
X773257Y379819
X773257Y369819
X773257Y359819
X773257Y349819
X775226Y426591
X775226Y436591
X775226Y446591
X775226Y456591
X805226Y456591
X805226Y446591
X805226Y436591
X805226Y426591
X681958Y530921
X663178Y533953
X663178Y543953
X663178Y553953
X681958Y560921
X561879Y560921
X543100Y557890
X543100Y547890
X543100Y537890
X561879Y530921
X605934Y458559
X605934Y448559
X605934Y438559
X605934Y428559
X635934Y428559
X635934Y438559
X635934Y448559
X635934Y458559
X633966Y377850
X633966Y367850
X633966Y357850
X633966Y347850
X603966Y347850
X603966Y357850
X603966Y367850
X603966Y377850
X603966Y281394
X603966Y271394
X603966Y261394
X603966Y251394
X633966Y251394
X633966Y261394
X633966Y271394
X633966Y281394
X621092Y218244
X611092Y218244
X601092Y218244
X598060Y199465
X628060Y199465
X413493Y192063
X383493Y192063
X355659Y184937
X355659Y154937
X383493Y132063
X413493Y132063
X295659Y154937
X295659Y184937
T05
X183710Y95488
X173710Y95488
X163710Y95488
X153710Y95488
X158710Y85488
X148710Y85488
X168710Y85488
X178710Y85488
X598060Y115252
X598060Y135252
X598060Y155252
X598060Y185252
X628060Y185252
X628060Y155252
X628060Y135252
X628060Y115252
X775226Y119189
X775226Y139189
X775226Y159189
X805226Y159189
X805226Y139189
X805226Y119189
X805226Y189189
X775226Y189189
X764202Y530921
X744202Y530921
X724202Y530921
X694202Y530921
X694202Y560921
X724202Y560921
X744202Y560921
X764202Y560921
X646092Y560921
X626092Y560921
X606092Y560921
X576092Y560921
X576092Y530921
X606092Y530921
X626092Y530921
X646092Y530921
T06
X113966Y528717
X113966Y518717
X113966Y508717
X113966Y498717
X113966Y488717
X113966Y478717
X113966Y468717
X113966Y458717
X113966Y448717
X53966Y448717
X53966Y458717
X53966Y468717
X53966Y478717
X53966Y488717
X53966Y498717
X53966Y508717
X53966Y518717
X53966Y528717
X53966Y538717
X53966Y548717
X53966Y558717
X53966Y568717
X53966Y578717
X53966Y588717
X65501Y627535
X75501Y627535
X85501Y627535
X95501Y627535
X105501Y627535
X105501Y637535
X95501Y637535
X85501Y637535
X75501Y637535
X65501Y637535
X113966Y588717
X113966Y578717
X113966Y568717
X113966Y558717
X113966Y548717
X113966Y538717
T07
X78178Y51335
X58178Y51335
T08
X449045Y227024
X459045Y227024
X469045Y227024
X479045Y227024
X489045Y227024
T09
X525659Y99071
X525659Y79071
X446722Y56866
X429241Y96906
X399241Y96906
X785501Y99071
X785501Y79071
T10
X705974Y81354
X694950Y81354
X628808Y81354
X617785Y81354
X500757Y146074
X500757Y166074
X334714Y81354
X323690Y81354
X255974Y81354
X244950Y81354
X821623Y529145
X821623Y549145
X821623Y569145
X821623Y589145
X821623Y609145
X821623Y629145
X821623Y649145
X26348Y571586
X26348Y551586
T11
X510659Y99071
X540659Y99071
X510659Y64071
X540659Y44071
X429241Y44386
X399241Y64386
X399241Y81886
X429241Y81886
X770501Y99071
X800501Y99071
X770501Y64071
X800501Y44071
T12
X57155Y41059
X79202Y41059
T13
X225659Y60685
X264241Y60685
X304399Y60685
X342982Y60685
X598493Y60685
X637076Y60685
X675659Y60685
X714241Y60685
T14
X854793Y93559
X854793Y449858
X854793Y644346
X437470Y644346
X319360Y416394
X116604Y297496
X18178Y297496
X20147Y449858
X20147Y644346
X20147Y93559
X18178Y47496
X116604Y47496
X143710Y60488
X188710Y60488
M30
